<svg width="260" height="133" viewBox="0 0 260 133" fill="none" xmlns="http://www.w3.org/2000/svg">
<path opacity="0.47" d="M246.312 83.459C253.277 65.7253 247.37 42.6719 229.539 29.8555C199.533 8.28912 121.267 0.774673 81.9041 22.7962C30.0117 23.7194 6.08805 52.9088 4.82129 77.8604C6.07435 89.555 17.0386 119.879 81.0328 103.26C119.945 113.58 195.83 103.236 226.995 99.9514C231.412 99.4855 250.073 91.369 246.244 83.4571L246.312 83.459Z" fill="#5DB8C1"/>
<path d="M31.7612 61.583H31.5488V61.4332C31.5488 57.0827 27.5693 53.5957 22.701 53.5957C19.3148 53.5957 16.3515 55.2834 14.8694 57.7582C14.2264 57.4865 13.536 57.3451 12.838 57.3422C11.0172 57.3422 9.45087 58.2418 8.64715 59.5546C7.92157 59.2027 7.12462 59.0228 6.31822 59.0289C3.69365 59.0289 1.57715 60.9046 1.57715 63.2296C1.57715 64.9917 2.80476 66.4915 4.54044 67.1297C4.83413 69.2296 6.91147 70.8791 9.36668 70.8791H31.7612C34.4279 70.8791 36.6296 68.929 36.6296 66.5668V65.8591C36.6296 63.5331 34.4279 61.583 31.7612 61.583Z" fill="white"/>
<path d="M225.683 49.0088H194.415C194.017 48.4803 193.81 47.8326 193.828 47.1713C193.828 45.2213 195.786 43.6089 198.151 43.6089C198.874 43.5944 199.591 43.7486 200.245 44.0592C200.973 42.9334 202.429 42.1836 204.063 42.1836C204.686 42.1781 205.304 42.2927 205.884 42.5213C207.249 40.4214 209.935 38.9971 213.03 38.9971C217.49 38.9971 221.086 41.9594 221.086 45.6344V45.747H221.268C223.589 45.7842 225.455 47.2085 225.683 49.0088Z" fill="white"/>
<g style="mix-blend-mode:multiply" opacity="0.47">
<path d="M248.349 125.514C248.349 129.43 192.754 132.61 124.174 132.61C55.5948 132.61 0 129.433 0 125.514C0 121.596 55.5948 118.419 124.174 118.419C192.754 118.419 248.349 121.596 248.349 125.514Z" fill="#726658"/>
</g>
<path d="M153.1 78.7312C155.128 79.112 157.046 79.9349 158.719 81.1414C157.175 81.6054 156.097 82.4052 155.502 83.532C154.994 84.4953 154.947 85.6857 155.373 86.788C155.798 87.8903 156.63 88.7459 157.653 89.1169C158.052 89.2609 158.473 89.3341 158.897 89.3333C159.597 89.328 160.285 89.1462 160.897 88.8047C161.935 88.233 162.659 87.2951 162.895 86.231C163.252 84.5883 162.548 83.1336 161.708 82.0597C163.146 81.971 164.589 82.0234 166.016 82.2163C165.552 84.3255 165.354 86.4847 165.428 88.6431C166.002 107.182 176.083 106.875 179.446 126.11H190.266C190.266 126.11 191.011 115.913 205.133 115.913C219.254 115.913 220.551 126.025 220.551 126.025H231.452C231.452 126.025 234.389 115.159 241.759 110.115C250.178 111.102 252.493 111.29 257.054 101.718C257.054 101.718 261.227 91.8825 258.122 90.4601C255.016 89.0377 248.108 88.8937 243.582 78.7469C242.278 75.8247 240.212 72.9583 237.444 70.3465C238.94 63.4938 241.227 57.7444 240.853 56.3024C240.472 54.834 227.916 55.2775 221.824 61.3979C216.877 59.7767 211.22 58.7547 204.921 58.5902C187.399 58.1252 170.461 66.3484 166.352 80.8663C164.556 80.6117 162.738 80.5666 160.932 80.7322C160.783 80.7459 160.636 80.7616 160.492 80.7792C160.367 80.6696 160.251 80.5736 160.148 80.4914C158.174 78.9097 155.841 77.8382 153.355 77.3715C153.178 77.3447 152.997 77.3878 152.851 77.4917C152.705 77.5956 152.604 77.7522 152.571 77.9285C152.538 78.1048 152.575 78.287 152.674 78.4367C152.773 78.5865 152.925 78.692 153.1 78.7312V78.7312ZM160.03 82.2476C160.849 83.0827 161.865 84.461 161.543 85.9363C161.397 86.6098 160.918 87.2139 160.229 87.5927C159.54 87.9716 158.775 88.0538 158.127 87.8169C157.479 87.58 156.946 87.0249 156.659 86.2907C156.372 85.5565 156.399 84.788 156.721 84.1781C157.241 83.2011 158.351 82.554 160.03 82.2476Z" fill="#E78531"/>
<path d="M234.726 91.4104C236.414 91.4104 237.783 90.0421 237.783 88.3541C237.783 86.6662 236.414 85.2979 234.726 85.2979C233.039 85.2979 231.67 86.6662 231.67 88.3541C231.67 90.0421 233.039 91.4104 234.726 91.4104Z" fill="#666666"/>
<path d="M216.245 71.9508L217.183 67.0561C207.687 65.2372 198.344 65.2391 189.402 67.0619L190.397 71.942C198.698 70.2533 207.395 70.2553 216.245 71.9508Z" fill="#666666"/>
<path d="M186.387 37.2471V18.7556C186.387 15.707 185.176 12.7832 183.02 10.6275C180.864 8.4718 177.941 7.26074 174.892 7.26074H56.9595C53.911 7.261 50.9875 8.47218 48.832 10.6279C46.6765 12.7835 45.4656 15.7072 45.4656 18.7556V37.2471H186.387Z" fill="#D75426"/>
<path d="M45.4656 37.2471V115.643C45.4656 117.883 46.3557 120.032 47.9401 121.617C49.5244 123.201 51.6733 124.091 53.9139 124.091H177.938C179.047 124.091 180.146 123.873 181.171 123.448C182.196 123.024 183.127 122.401 183.912 121.617C184.697 120.832 185.319 119.901 185.744 118.876C186.168 117.851 186.387 116.752 186.387 115.643V37.2471H45.4656Z" fill="#E9E7DA"/>
<path d="M77.2589 45.0908H54.3015V62.2401H77.2589V45.0908Z" fill="white"/>
<path d="M77.2589 70.082H54.3015V87.2313H77.2589V70.082Z" fill="white"/>
<path d="M77.2589 95.0752H54.3015V112.224H77.2589V95.0752Z" fill="white"/>
<path d="M110.991 45.0908H88.0334V62.2401H110.991V45.0908Z" fill="white"/>
<path d="M110.991 70.082H88.0334V87.2313H110.991V70.082Z" fill="white"/>
<path d="M110.991 95.0752H88.0334V112.224H110.991V95.0752Z" fill="white"/>
<path d="M144.316 45.0908H121.359V62.2401H144.316V45.0908Z" fill="white"/>
<path d="M144.316 70.082H121.359V87.2313H144.316V70.082Z" fill="white"/>
<path d="M144.316 95.0752H121.359V112.224H144.316V95.0752Z" fill="white"/>
<path d="M177.55 45.0908H154.592V62.2401H177.55V45.0908Z" fill="white"/>
<path d="M177.55 70.082H154.592V87.2313H177.55V70.082Z" fill="white"/>
<path d="M177.55 95.0752H154.592V112.224H177.55V95.0752Z" fill="white"/>
<path d="M69.031 0C67.4975 -2.19744e-08 66.0268 0.60911 64.9423 1.69336C63.8579 2.77761 63.2486 4.24821 63.2483 5.7817V16.4719C63.2383 17.2375 63.3805 17.9975 63.6666 18.7078C63.9528 19.4181 64.3771 20.0644 64.915 20.6094C65.4529 21.1543 66.0937 21.587 66.8002 21.8824C67.5067 22.1777 68.2648 22.3298 69.0305 22.3298C69.7962 22.3298 70.5543 22.1777 71.2608 21.8824C71.9673 21.587 72.608 21.1543 73.146 20.6094C73.6839 20.0644 74.1082 19.4181 74.3943 18.7078C74.6804 17.9975 74.8226 17.2375 74.8127 16.4719V5.7817C74.8127 4.2483 74.2035 2.7777 73.1192 1.69342C72.035 0.609142 70.5644 0 69.031 0Z" fill="#666666"/>
<path d="M162.822 0C161.288 -2.19744e-08 159.817 0.60911 158.733 1.69336C157.648 2.77761 157.039 4.24821 157.039 5.7817V16.4719C157.029 17.2375 157.171 17.9975 157.457 18.7078C157.743 19.4181 158.168 20.0644 158.706 20.6094C159.243 21.1543 159.884 21.587 160.591 21.8824C161.297 22.1777 162.055 22.3298 162.821 22.3298C163.587 22.3298 164.345 22.1777 165.051 21.8824C165.758 21.587 166.399 21.1543 166.937 20.6094C167.474 20.0644 167.899 19.4181 168.185 18.7078C168.471 17.9975 168.613 17.2375 168.603 16.4719V5.7817C168.603 5.02243 168.454 4.27061 168.163 3.56914C167.873 2.86767 167.447 2.2303 166.91 1.69342C166.373 1.15654 165.736 0.730664 165.034 0.440106C164.333 0.149549 163.581 0 162.822 0V0Z" fill="#666666"/>
<path d="M132.404 75.4115C132.649 75.059 132.773 74.8074 132.961 74.6195C139.537 68.0324 146.117 61.4493 152.701 54.8701C153.608 53.9646 153.836 53.9626 154.73 54.8564C155.98 56.1055 157.229 57.3556 158.478 58.6067C159.085 59.2176 159.092 59.5975 158.492 60.1975C150.061 68.6316 141.628 77.0636 133.192 85.4937C132.551 86.1349 132.191 86.1369 131.55 85.4937C127.53 81.478 123.511 77.4594 119.495 73.4379C118.908 72.8446 118.908 72.4296 119.495 71.8363C120.8 70.5187 122.113 69.2056 123.434 67.897C124.065 67.2715 124.447 67.2744 125.08 67.9058C127.329 70.1496 129.574 72.3973 131.816 74.6489C131.984 74.8251 132.116 75.0375 132.404 75.4115Z" fill="#145A7B"/>
<path d="M91.2717 53.8893L12.0554 85.1094L27.6348 124.64L106.851 93.4195L91.2717 53.8893Z" fill="#699638"/>
<path d="M98.882 82.8766L92.6393 67.0342C90.3629 67.9313 87.8234 67.8874 85.5794 66.9122C83.3354 65.937 81.5707 64.1103 80.6735 61.834L25.2227 83.6881C25.667 84.8151 25.885 86.0185 25.8642 87.2297C25.8433 88.4408 25.5841 89.636 25.1013 90.747C24.6185 91.858 23.9216 92.863 23.0503 93.7046C22.179 94.5462 21.1505 95.2079 20.0234 95.6519L26.2672 111.495C28.5433 110.598 31.0825 110.642 33.3262 111.617C35.57 112.592 37.3346 114.419 38.232 116.695L93.6838 94.8365C92.7876 92.5611 92.8317 90.023 93.8065 87.7802C94.7813 85.5374 96.607 83.7736 98.882 82.8766V82.8766Z" fill="#92B36D"/>
<path d="M72.6559 84.0605C75.9608 92.4462 72.7283 101.573 65.4371 104.447C58.1459 107.321 49.5555 102.853 46.2496 94.4678C42.9437 86.083 46.1772 76.9543 53.4684 74.0811C60.7597 71.2078 69.351 75.6748 72.6559 84.0605Z" fill="#699638"/>
<path d="M65.4812 101.451L63.444 102.253L62.3466 99.4669C58.4895 100.627 55.3879 99.7619 53.0417 96.8707L55.9785 94.8413C57.396 96.734 59.1552 97.3572 61.2561 96.7111L58.9124 90.762C56.0102 91.1986 53.9726 91.1056 52.7999 90.483C51.6271 89.8604 50.7858 88.8968 50.2761 87.5922C48.9428 84.2089 50.3065 81.4153 54.3672 79.2114L53.5125 77.043L55.5458 76.2422L56.4004 78.4106C59.6806 77.5811 62.2608 78.3447 64.141 80.7013L61.3393 82.5535C60.2076 81.2136 58.9255 80.7568 57.493 81.183L59.5644 86.439C61.7534 86.2256 63.2485 86.1352 64.05 86.1678C64.8514 86.2004 65.6979 86.5447 66.5894 87.2006C67.4802 87.8584 68.1573 88.7744 68.6207 89.9485C69.2779 91.6153 69.2567 93.2244 68.5571 94.7757C67.8575 96.327 66.466 97.6235 64.3828 98.6651L65.4812 101.451ZM55.4597 81.9828C54.5904 82.3371 53.9459 82.8433 53.5262 83.5011C53.1066 84.159 53.0612 84.9046 53.3902 85.738C53.9442 87.1438 55.2988 87.5785 57.4538 87.042L55.4597 81.9828ZM63.2972 95.9133C64.237 95.5315 64.9186 94.9441 65.3422 94.1512C65.7658 93.3582 65.8059 92.5248 65.4626 91.6509C64.885 90.1851 63.4055 89.6806 61.024 90.1375L63.2972 95.9133Z" fill="#92B36D"/>
<path d="M38.9996 103.807C37.8899 104.244 36.6756 104.342 35.51 104.089C34.3445 103.837 33.2802 103.244 32.4516 102.386C31.6231 101.528 31.0675 100.444 30.8551 99.27C30.6428 98.0964 30.7832 96.8862 31.2587 95.7924C31.7341 94.6986 32.5232 93.7704 33.5262 93.1251C34.5292 92.4797 35.701 92.1463 36.8934 92.1669C38.0859 92.1875 39.2455 92.5613 40.2256 93.2409C41.2056 93.9206 41.9621 94.8756 42.3995 95.9852C42.9841 97.4734 42.9544 99.1328 42.317 100.599C41.6796 102.066 40.4865 103.219 38.9996 103.807V103.807ZM35.3579 94.5657C34.6395 94.8486 34.0212 95.3382 33.5812 95.9725C33.1411 96.6068 32.899 97.3574 32.8856 98.1293C32.8722 98.9012 33.088 99.6598 33.5057 100.309C33.9234 100.958 34.5243 101.469 35.2323 101.777C35.9404 102.085 36.7238 102.175 37.4835 102.038C38.2431 101.9 38.945 101.541 39.5002 101.004C40.0554 100.468 40.439 99.7787 40.6026 99.0242C40.7661 98.2697 40.7023 97.4836 40.419 96.7654C40.0388 95.8032 39.2923 95.0312 38.3434 94.6188C37.3945 94.2064 36.3208 94.1873 35.3579 94.5657V94.5657Z" fill="#699638"/>
<path d="M83.5596 86.2471C82.4498 86.6845 81.2352 86.7829 80.0694 86.53C78.9037 86.2771 77.8391 85.6842 77.0103 84.8262C76.1815 83.9683 75.6258 82.8838 75.4133 81.71C75.2009 80.5362 75.3413 79.3258 75.8167 78.2318C76.2922 77.1377 77.0814 76.2093 78.0846 75.5638C79.0877 74.9183 80.2597 74.5848 81.4524 74.6054C82.6451 74.626 83.8049 74.9998 84.7852 75.6796C85.7654 76.3594 86.5221 77.3145 86.9595 78.4243C87.5439 79.9127 87.5141 81.5721 86.8768 83.0386C86.2394 84.5051 85.0465 85.6589 83.5596 86.2471V86.2471ZM79.9169 77.0048C79.1989 77.2882 78.5811 77.7781 78.1415 78.4125C77.7019 79.047 77.4602 79.7975 77.4472 80.5693C77.4341 81.341 77.6501 82.0993 78.068 82.7483C78.4858 83.3973 79.0867 83.9079 79.7947 84.2154C80.5026 84.5229 81.2859 84.6136 82.0454 84.476C82.8049 84.3384 83.5066 83.9787 84.0617 83.4424C84.6168 82.9061 85.0004 82.2172 85.164 81.4629C85.3277 80.7086 85.264 79.9227 84.981 79.2045C84.6005 78.2418 83.8535 77.4694 82.9041 77.057C81.9546 76.6445 80.8802 76.6258 79.9169 77.0048V77.0048Z" fill="#699638"/>
<path d="M102.992 73.6819L18.3569 83.0107L23.0121 125.244L107.647 115.916L102.992 73.6819Z" fill="#6F9F3C"/>
<path d="M102.725 103.652L100.859 86.725C99.6544 86.8579 98.4358 86.7523 97.2724 86.4142C96.109 86.0761 95.0236 85.5121 94.0782 84.7545C93.1328 83.9969 92.3459 83.0605 91.7624 81.9987C91.1789 80.937 90.8102 79.7706 90.6775 78.5664L31.4323 85.096C31.5652 86.3002 31.4596 87.5189 31.1215 88.6823C30.7834 89.8457 30.2194 90.9311 29.4618 91.8765C28.7042 92.8219 27.7678 93.6088 26.706 94.1923C25.6442 94.7758 24.4779 95.1444 23.2737 95.2771L25.1396 112.204C26.3438 112.071 27.5624 112.177 28.7258 112.515C29.8892 112.853 30.9746 113.417 31.92 114.175C32.8655 114.932 33.6524 115.869 34.2359 116.931C34.8194 117.992 35.188 119.159 35.3207 120.363L94.564 113.833C94.4311 112.629 94.5368 111.41 94.875 110.247C95.2132 109.083 95.7774 107.998 96.5352 107.052C97.293 106.107 98.2296 105.32 99.2916 104.736C100.354 104.153 101.52 103.785 102.725 103.652V103.652Z" fill="#9BBE74"/>
<path d="M77.1072 97.9101C78.094 106.869 72.5796 114.827 64.7891 115.686C56.9986 116.544 49.8825 109.978 48.8958 101.019C47.909 92.0609 53.4224 84.101 61.213 83.2424C69.0035 82.3839 76.1195 88.9507 77.1072 97.9101Z" fill="#6F9F3C"/>
<path d="M65.6184 112.806L63.4441 113.045L63.1162 110.068C59.0894 110.176 56.3239 108.526 54.8195 105.12L58.192 103.941C59.0633 106.135 60.597 107.199 62.7931 107.13L62.0932 100.775C59.1785 100.434 57.2369 99.8091 56.2684 98.9C55.2999 97.9909 54.7386 96.8396 54.5846 95.4462C54.1858 91.8319 56.2354 89.4945 60.7334 88.434L60.4779 86.1168L62.6492 85.877L62.9047 88.1941C66.288 88.2561 68.5774 89.6704 69.7731 92.4369L66.5826 93.4893C65.8426 91.8988 64.7256 91.1206 63.2317 91.1545L63.8504 96.7707C66.0191 97.1388 67.4875 97.4439 68.2557 97.6861C69.0238 97.9282 69.7499 98.4829 70.4339 99.3503C71.1211 100.219 71.5339 101.281 71.6722 102.536C71.868 104.317 71.4252 105.864 70.3438 107.177C69.2624 108.49 67.5795 109.376 65.2953 109.834L65.6184 112.806ZM61.0594 91.3894C60.1274 91.503 59.3727 91.8225 58.7951 92.3478C58.2175 92.8732 57.978 93.5807 58.0765 94.4702C58.2423 95.9713 59.4353 96.7463 61.6556 96.7952L61.0594 91.3894ZM64.9654 106.885C65.9731 106.764 66.7853 106.376 67.402 105.721C68.0188 105.067 68.2759 104.273 68.1734 103.341C68.0012 101.774 66.7053 100.902 64.286 100.723L64.9654 106.885Z" fill="#9BBE74"/>
<path d="M39.4468 108.128C38.2612 108.259 37.0634 108.035 36.005 107.485C34.9465 106.935 34.075 106.083 33.5005 105.038C32.926 103.992 32.6744 102.8 32.7774 101.612C32.8805 100.423 33.3337 99.2922 34.0796 98.3614C34.8255 97.4305 35.8307 96.7417 36.968 96.3821C38.1053 96.0226 39.3238 96.0083 40.4692 96.3411C41.6147 96.674 42.6357 97.339 43.4032 98.2521C44.1707 99.1652 44.6502 100.285 44.7811 101.471C44.9545 103.061 44.4903 104.654 43.4903 105.902C42.4903 107.15 41.0362 107.951 39.4468 108.128V108.128ZM38.3582 98.2532C37.5909 98.3379 36.8659 98.6481 36.2749 99.1447C35.684 99.6414 35.2535 100.302 35.0381 101.043C34.8226 101.785 34.8318 102.573 35.0645 103.309C35.2972 104.045 35.7429 104.696 36.3453 105.179C36.9477 105.661 37.6797 105.955 38.4487 106.021C39.2178 106.088 39.9894 105.925 40.6659 105.553C41.3424 105.182 41.8935 104.617 42.2494 103.932C42.6054 103.247 42.7502 102.472 42.6656 101.705C42.5509 100.677 42.033 99.7357 41.2255 99.0886C40.4181 98.4415 39.3869 98.1411 38.3582 98.2532V98.2532Z" fill="#6F9F3C"/>
<path d="M87.0535 102.881C85.8678 103.012 84.6701 102.788 83.6116 102.238C82.5532 101.688 81.6816 100.836 81.1072 99.7906C80.5327 98.7452 80.2811 97.553 80.3841 96.3646C80.4872 95.1762 80.9404 94.0451 81.6863 93.1143C82.4322 92.1834 83.4373 91.4947 84.5747 91.1351C85.712 90.7755 86.9304 90.7612 88.0759 91.0941C89.2214 91.4269 90.2424 92.0919 91.0099 93.0051C91.7774 93.9182 92.2569 95.0384 92.3878 96.224C92.5618 97.8139 92.0978 99.4078 91.0976 100.656C90.0975 101.904 88.6431 102.704 87.0535 102.881V102.881ZM85.9659 93.0071C85.1989 93.0919 84.4742 93.4022 83.8835 93.8988C83.2929 94.3954 82.8627 95.0559 82.6474 95.797C82.4321 96.538 82.4414 97.3263 82.674 98.062C82.9066 98.7978 83.3522 99.4481 83.9544 99.9306C84.5566 100.413 85.2883 100.706 86.0571 100.773C86.8259 100.84 87.5972 100.677 88.2735 100.306C88.9499 99.934 89.5008 99.3702 89.8568 98.6855C90.2127 98.0008 90.3577 97.226 90.2733 96.4589C90.1588 95.4304 89.641 94.4893 88.8335 93.8422C88.0259 93.1951 86.9946 92.8947 85.9659 93.0071V93.0071Z" fill="#6F9F3C"/>
<path d="M106.98 81.2373H21.8335V123.727H106.98V81.2373Z" fill="#7DB343"/>
<path d="M103.433 110.997V93.9678C100.987 93.9678 98.6404 92.996 96.9105 91.266C95.1805 89.536 94.2086 87.1897 94.2086 84.7432H34.606C34.606 87.1897 33.6341 89.536 31.9042 91.266C30.1742 92.996 27.8279 93.9678 25.3813 93.9678V110.997C27.8279 110.997 30.1742 111.969 31.9042 113.699C33.6341 115.429 34.606 117.775 34.606 120.221H94.2086C94.2086 117.775 95.1805 115.429 96.9105 113.699C98.6404 111.969 100.987 110.997 103.433 110.997V110.997Z" fill="#AED582"/>
<path d="M64.4072 118.802C72.2446 118.802 78.5981 111.496 78.5981 102.482C78.5981 93.4689 72.2446 86.1621 64.4072 86.1621C56.5698 86.1621 50.2163 93.4689 50.2163 102.482C50.2163 111.496 56.5698 118.802 64.4072 118.802Z" fill="#7DB343"/>
<path d="M65.5469 116.03H63.3618V113.035C59.3475 112.701 56.779 110.759 55.6565 107.209L59.1367 106.399C59.7632 108.676 61.1716 109.901 63.3618 110.073V103.68C60.5026 103.022 58.6426 102.188 57.7818 101.178C56.921 100.169 56.4896 98.9614 56.4876 97.5562C56.4876 93.9197 58.7807 91.8209 63.3667 91.2596V88.9287H65.5518V91.2596C68.9076 91.6916 71.0287 93.348 71.915 96.2288L68.6296 96.9248C68.0677 95.2632 67.0424 94.3674 65.5537 94.2376V99.8871C67.6689 100.491 69.0933 100.955 69.8268 101.279C70.5604 101.604 71.2215 102.235 71.8102 103.172C72.3976 104.112 72.6913 105.213 72.6913 106.475C72.6913 108.267 72.0817 109.756 70.8626 110.942C69.6435 112.129 67.8735 112.825 65.5527 113.031L65.5469 116.03ZM63.3618 94.2425C62.4233 94.2529 61.6382 94.4879 61.0065 94.9473C60.3747 95.4068 60.0592 96.0839 60.0598 96.9786C60.0598 98.4888 61.1605 99.3898 63.3618 99.6815V94.2425ZM65.5469 110.073C66.5611 110.062 67.4095 109.765 68.0921 109.183C68.7748 108.601 69.1174 107.84 69.12 106.901C69.12 105.325 67.9277 104.316 65.5429 103.874L65.5469 110.073Z" fill="#AED582"/>
<path d="M40.047 108.513C38.854 108.513 37.6879 108.159 36.696 107.496C35.7042 106.834 34.9311 105.892 34.4746 104.789C34.0182 103.687 33.8988 102.475 34.1316 101.305C34.3644 100.135 34.9389 99.0598 35.7825 98.2164C36.6261 97.3729 37.7009 96.7986 38.8709 96.566C40.0409 96.3334 41.2537 96.4529 42.3557 96.9096C43.4578 97.3662 44.3997 98.1394 45.0623 99.1314C45.7249 100.123 46.0785 101.29 46.0783 102.483C46.0765 104.081 45.4404 105.614 44.3097 106.745C43.179 107.876 41.6459 108.511 40.047 108.513V108.513ZM40.047 98.5794C39.275 98.5792 38.5202 98.808 37.8783 99.2367C37.2363 99.6655 36.7358 100.275 36.4403 100.988C36.1447 101.701 36.0673 102.486 36.2178 103.243C36.3683 104.001 36.7399 104.696 37.2857 105.242C37.8316 105.788 38.527 106.16 39.2842 106.311C40.0413 106.461 40.8261 106.384 41.5394 106.089C42.2527 105.793 42.8623 105.293 43.2912 104.651C43.7201 104.009 43.9491 103.255 43.9491 102.483C43.948 101.448 43.5366 100.456 42.8051 99.7241C42.0735 98.9924 41.0816 98.5807 40.047 98.5794V98.5794Z" fill="#7DB343"/>
<path d="M87.9412 108.513C86.7483 108.513 85.582 108.159 84.5901 107.497C83.5981 106.834 82.8249 105.892 82.3682 104.79C81.9116 103.688 81.7921 102.475 82.0248 101.305C82.2575 100.135 82.8319 99.0603 83.6755 98.2167C84.519 97.3732 85.5938 96.7987 86.7639 96.566C87.9339 96.3334 89.1467 96.4529 90.2488 96.9095C91.3509 97.3661 92.2929 98.1393 92.9555 99.1313C93.6182 100.123 93.9718 101.29 93.9716 102.483C93.9698 104.081 93.3339 105.614 92.2033 106.745C91.0728 107.875 89.54 108.511 87.9412 108.513V108.513ZM87.9412 98.5794C87.1692 98.5792 86.4145 98.808 85.7725 99.2367C85.1306 99.6655 84.6301 100.275 84.3346 100.988C84.039 101.701 83.9616 102.486 84.1121 103.243C84.2626 104.001 84.6342 104.696 85.18 105.242C85.7258 105.788 86.4213 106.16 87.1785 106.311C87.9356 106.461 88.7204 106.384 89.4337 106.089C90.1469 105.793 90.7566 105.293 91.1855 104.651C91.6144 104.009 91.8434 103.255 91.8434 102.483C91.8423 101.448 91.4309 100.456 90.6994 99.7241C89.9678 98.9924 88.9759 98.5807 87.9412 98.5794V98.5794Z" fill="#7DB343"/>
<path d="M23.7838 95.0859H14.0627V98.992H23.7838V95.0859Z" fill="#F2A021"/>
<path d="M34.0988 95.0859H23.8315V98.992H34.0988V95.0859Z" fill="#F5B61C"/>
<path d="M39.2559 95.0859H34.1282V98.992H39.2559V95.0859Z" fill="#F8C815"/>
<path d="M15.3286 95.0859H15.0486V99.0076H15.3286V95.0859Z" fill="#C28118"/>
<path d="M17.0476 95.0859H16.7676V99.0076H17.0476V95.0859Z" fill="#C28118"/>
<path d="M18.7666 95.0859H18.4866V99.0076H18.7666V95.0859Z" fill="#C28118"/>
<path d="M20.4855 95.0859H20.2056V99.0076H20.4855V95.0859Z" fill="#C28118"/>
<path d="M22.2045 95.0859H21.9246V99.0076H22.2045V95.0859Z" fill="#C28118"/>
<path d="M23.9238 95.0859H23.6438V99.0076H23.9238V95.0859Z" fill="#C28118"/>
<path d="M25.6428 95.0859H25.3628V99.0076H25.6428V95.0859Z" fill="#C28118"/>
<path d="M27.3618 95.0859H27.0818V99.0076H27.3618V95.0859Z" fill="#C28118"/>
<path d="M29.0808 95.0859H28.8008V99.0076H29.0808V95.0859Z" fill="#C28118"/>
<path d="M30.7998 95.0859H30.5198V99.0076H30.7998V95.0859Z" fill="#C28118"/>
<path d="M32.5187 95.0859H32.2388V99.0076H32.5187V95.0859Z" fill="#C28118"/>
<path d="M34.238 95.0859H33.958V99.0076H34.238V95.0859Z" fill="#C28118"/>
<path d="M35.957 95.0859H35.677V99.0076H35.957V95.0859Z" fill="#C28118"/>
<path d="M37.676 95.0859H37.396V99.0076H37.676V95.0859Z" fill="#C28118"/>
<path d="M39.395 95.0859H39.115V99.0076H39.395V95.0859Z" fill="#C28118"/>
<path d="M23.8062 99.1846H14.0852V103.091H23.8062V99.1846Z" fill="#F2A021"/>
<path d="M34.1205 99.1846H23.8533V103.091H34.1205V99.1846Z" fill="#F5B61C"/>
<path d="M39.2777 99.1846H34.1499V103.091H39.2777V99.1846Z" fill="#F8C815"/>
<path d="M15.35 99.1846H15.0701V103.106H15.35V99.1846Z" fill="#C28118"/>
<path d="M17.07 99.1846H16.79V103.106H17.07V99.1846Z" fill="#C28118"/>
<path d="M18.789 99.1846H18.509V103.106H18.789V99.1846Z" fill="#C28118"/>
<path d="M20.508 99.1846H20.228V103.106H20.508V99.1846Z" fill="#C28118"/>
<path d="M22.2272 99.1846H21.9473V103.106H22.2272V99.1846Z" fill="#C28118"/>
<path d="M23.9462 99.1846H23.6663V103.106H23.9462V99.1846Z" fill="#C28118"/>
<path d="M25.6652 99.1846H25.3853V103.106H25.6652V99.1846Z" fill="#C28118"/>
<path d="M27.3842 99.1846H27.1042V103.106H27.3842V99.1846Z" fill="#C28118"/>
<path d="M29.1032 99.1846H28.8232V103.106H29.1032V99.1846Z" fill="#C28118"/>
<path d="M30.8225 99.1846H30.5425V103.106H30.8225V99.1846Z" fill="#C28118"/>
<path d="M32.5415 99.1846H32.2615V103.106H32.5415V99.1846Z" fill="#C28118"/>
<path d="M34.2605 99.1846H33.9805V103.106H34.2605V99.1846Z" fill="#C28118"/>
<path d="M35.9794 99.1846H35.6995V103.106H35.9794V99.1846Z" fill="#C28118"/>
<path d="M37.6984 99.1846H37.4185V103.106H37.6984V99.1846Z" fill="#C28118"/>
<path d="M39.4177 99.1846H39.1377V103.106H39.4177V99.1846Z" fill="#C28118"/>
<path d="M22.6805 103.278H12.9595V107.184H22.6805V103.278Z" fill="#F2A021"/>
<path d="M32.9955 103.278H22.7283V107.184H32.9955V103.278Z" fill="#F5B61C"/>
<path d="M38.1527 103.278H33.0249V107.184H38.1527V103.278Z" fill="#F8C815"/>
<path d="M14.2253 103.278H13.9453V107.2H14.2253V103.278Z" fill="#C28118"/>
<path d="M15.9443 103.278H15.6643V107.2H15.9443V103.278Z" fill="#C28118"/>
<path d="M17.6633 103.278H17.3833V107.2H17.6633V103.278Z" fill="#C28118"/>
<path d="M19.3823 103.278H19.1023V107.2H19.3823V103.278Z" fill="#C28118"/>
<path d="M21.1013 103.278H20.8213V107.2H21.1013V103.278Z" fill="#C28118"/>
<path d="M22.8212 103.278H22.5413V107.2H22.8212V103.278Z" fill="#C28118"/>
<path d="M24.5405 103.278H24.2605V107.2H24.5405V103.278Z" fill="#C28118"/>
<path d="M26.2595 103.278H25.9795V107.2H26.2595V103.278Z" fill="#C28118"/>
<path d="M27.9785 103.278H27.6985V107.2H27.9785V103.278Z" fill="#C28118"/>
<path d="M29.6975 103.278H29.4175V107.2H29.6975V103.278Z" fill="#C28118"/>
<path d="M31.4165 103.278H31.1365V107.2H31.4165V103.278Z" fill="#C28118"/>
<path d="M33.1357 103.278H32.8557V107.2H33.1357V103.278Z" fill="#C28118"/>
<path d="M34.8547 103.278H34.5747V107.2H34.8547V103.278Z" fill="#C28118"/>
<path d="M36.5737 103.278H36.2937V107.2H36.5737V103.278Z" fill="#C28118"/>
<path d="M38.2927 103.278H38.0127V107.2H38.2927V103.278Z" fill="#C28118"/>
<path d="M20.7803 107.522H11.0593V111.428H20.7803V107.522Z" fill="#F2A021"/>
<path d="M31.0944 107.522H20.8271V111.428H31.0944V107.522Z" fill="#F5B61C"/>
<path d="M36.2515 107.522H31.1238V111.428H36.2515V107.522Z" fill="#F8C815"/>
<path d="M12.3239 107.522H12.0439V111.444H12.3239V107.522Z" fill="#C28118"/>
<path d="M14.0432 107.522H13.7632V111.444H14.0432V107.522Z" fill="#C28118"/>
<path d="M15.7631 107.522H15.4832V111.444H15.7631V107.522Z" fill="#C28118"/>
<path d="M17.4821 107.522H17.2021V111.444H17.4821V107.522Z" fill="#C28118"/>
<path d="M19.2011 107.522H18.9211V111.444H19.2011V107.522Z" fill="#C28118"/>
<path d="M20.9201 107.522H20.6401V111.444H20.9201V107.522Z" fill="#C28118"/>
<path d="M22.6394 107.522H22.3594V111.444H22.6394V107.522Z" fill="#C28118"/>
<path d="M24.3583 107.522H24.0784V111.444H24.3583V107.522Z" fill="#C28118"/>
<path d="M26.0773 107.522H25.7974V111.444H26.0773V107.522Z" fill="#C28118"/>
<path d="M27.7963 107.522H27.5164V111.444H27.7963V107.522Z" fill="#C28118"/>
<path d="M29.5153 107.522H29.2354V111.444H29.5153V107.522Z" fill="#C28118"/>
<path d="M31.2346 107.522H30.9546V111.444H31.2346V107.522Z" fill="#C28118"/>
<path d="M32.9536 107.522H32.6736V111.444H32.9536V107.522Z" fill="#C28118"/>
<path d="M34.6726 107.522H34.3926V111.444H34.6726V107.522Z" fill="#C28118"/>
<path d="M36.3916 107.522H36.1116V111.444H36.3916V107.522Z" fill="#C28118"/>
<path d="M20.7803 111.616H11.0593V115.522H20.7803V111.616Z" fill="#F2A021"/>
<path d="M31.0944 111.616H20.8271V115.522H31.0944V111.616Z" fill="#F5B61C"/>
<path d="M36.2515 111.616H31.1238V115.522H36.2515V111.616Z" fill="#F8C815"/>
<path d="M12.3239 111.616H12.0439V115.538H12.3239V111.616Z" fill="#C28118"/>
<path d="M14.0432 111.616H13.7632V115.538H14.0432V111.616Z" fill="#C28118"/>
<path d="M15.7631 111.616H15.4832V115.538H15.7631V111.616Z" fill="#C28118"/>
<path d="M17.4821 111.616H17.2021V115.538H17.4821V111.616Z" fill="#C28118"/>
<path d="M19.2011 111.616H18.9211V115.538H19.2011V111.616Z" fill="#C28118"/>
<path d="M20.9201 111.616H20.6401V115.538H20.9201V111.616Z" fill="#C28118"/>
<path d="M22.6394 111.616H22.3594V115.538H22.6394V111.616Z" fill="#C28118"/>
<path d="M24.3583 111.616H24.0784V115.538H24.3583V111.616Z" fill="#C28118"/>
<path d="M26.0773 111.616H25.7974V115.538H26.0773V111.616Z" fill="#C28118"/>
<path d="M27.7963 111.616H27.5164V115.538H27.7963V111.616Z" fill="#C28118"/>
<path d="M29.5153 111.616H29.2354V115.538H29.5153V111.616Z" fill="#C28118"/>
<path d="M31.2346 111.616H30.9546V115.538H31.2346V111.616Z" fill="#C28118"/>
<path d="M32.9536 111.616H32.6736V115.538H32.9536V111.616Z" fill="#C28118"/>
<path d="M34.6726 111.616H34.3926V115.538H34.6726V111.616Z" fill="#C28118"/>
<path d="M36.3916 111.616H36.1116V115.538H36.3916V111.616Z" fill="#C28118"/>
<path d="M25.4969 115.786H15.7759V119.692H25.4969V115.786Z" fill="#F2A021"/>
<path d="M35.8122 115.786H25.5449V119.692H35.8122V115.786Z" fill="#F5B61C"/>
<path d="M40.9693 115.786H35.8416V119.692H40.9693V115.786Z" fill="#F8C815"/>
<path d="M17.0417 115.786H16.7617V119.708H17.0417V115.786Z" fill="#C28118"/>
<path d="M18.7607 115.786H18.4807V119.708H18.7607V115.786Z" fill="#C28118"/>
<path d="M20.4797 115.786H20.1997V119.708H20.4797V115.786Z" fill="#C28118"/>
<path d="M22.1987 115.786H21.9187V119.708H22.1987V115.786Z" fill="#C28118"/>
<path d="M23.9177 115.786H23.6377V119.708H23.9177V115.786Z" fill="#C28118"/>
<path d="M25.6369 115.786H25.3569V119.708H25.6369V115.786Z" fill="#C28118"/>
<path d="M27.3559 115.786H27.0759V119.708H27.3559V115.786Z" fill="#C28118"/>
<path d="M29.0749 115.786H28.7949V119.708H29.0749V115.786Z" fill="#C28118"/>
<path d="M30.7949 115.786H30.5149V119.708H30.7949V115.786Z" fill="#C28118"/>
<path d="M32.5139 115.786H32.2339V119.708H32.5139V115.786Z" fill="#C28118"/>
<path d="M34.2331 115.786H33.9531V119.708H34.2331V115.786Z" fill="#C28118"/>
<path d="M35.9521 115.786H35.6721V119.708H35.9521V115.786Z" fill="#C28118"/>
<path d="M37.6711 115.786H37.3911V119.708H37.6711V115.786Z" fill="#C28118"/>
<path d="M39.3901 115.786H39.1101V119.708H39.3901V115.786Z" fill="#C28118"/>
<path d="M41.1091 115.786H40.8291V119.708H41.1091V115.786Z" fill="#C28118"/>
<path d="M25.4969 119.879H15.7759V123.785H25.4969V119.879Z" fill="#F2A021"/>
<path d="M35.8122 119.879H25.5449V123.785H35.8122V119.879Z" fill="#F5B61C"/>
<path d="M40.9693 119.879H35.8416V123.785H40.9693V119.879Z" fill="#F8C815"/>
<path d="M17.0417 119.879H16.7617V123.801H17.0417V119.879Z" fill="#C28118"/>
<path d="M18.7607 119.879H18.4807V123.801H18.7607V119.879Z" fill="#C28118"/>
<path d="M20.4797 119.879H20.1997V123.801H20.4797V119.879Z" fill="#C28118"/>
<path d="M22.1987 119.879H21.9187V123.801H22.1987V119.879Z" fill="#C28118"/>
<path d="M23.9177 119.879H23.6377V123.801H23.9177V119.879Z" fill="#C28118"/>
<path d="M25.6369 119.879H25.3569V123.801H25.6369V119.879Z" fill="#C28118"/>
<path d="M27.3559 119.879H27.0759V123.801H27.3559V119.879Z" fill="#C28118"/>
<path d="M29.0749 119.879H28.7949V123.801H29.0749V119.879Z" fill="#C28118"/>
<path d="M30.7949 119.879H30.5149V123.801H30.7949V119.879Z" fill="#C28118"/>
<path d="M32.5139 119.879H32.2339V123.801H32.5139V119.879Z" fill="#C28118"/>
<path d="M34.2331 119.879H33.9531V123.801H34.2331V119.879Z" fill="#C28118"/>
<path d="M35.9521 119.879H35.6721V123.801H35.9521V119.879Z" fill="#C28118"/>
<path d="M37.6711 119.879H37.3911V123.801H37.6711V119.879Z" fill="#C28118"/>
<path d="M39.3901 119.879H39.1101V123.801H39.3901V119.879Z" fill="#C28118"/>
<path d="M41.1091 119.879H40.8291V123.801H41.1091V119.879Z" fill="#C28118"/>
<path d="M23.8924 124.091H14.1714V127.997H23.8924V124.091Z" fill="#F2A021"/>
<path d="M34.2065 124.091H23.9392V127.997H34.2065V124.091Z" fill="#F5B61C"/>
<path d="M39.3636 124.091H34.2358V127.997H39.3636V124.091Z" fill="#F8C815"/>
<path d="M15.4372 124.091H15.1572V128.013H15.4372V124.091Z" fill="#C28118"/>
<path d="M17.1562 124.091H16.8762V128.013H17.1562V124.091Z" fill="#C28118"/>
<path d="M18.8752 124.091H18.5952V128.013H18.8752V124.091Z" fill="#C28118"/>
<path d="M20.5942 124.091H20.3142V128.013H20.5942V124.091Z" fill="#C28118"/>
<path d="M22.3132 124.091H22.0332V128.013H22.3132V124.091Z" fill="#C28118"/>
<path d="M24.0324 124.091H23.7524V128.013H24.0324V124.091Z" fill="#C28118"/>
<path d="M25.7514 124.091H25.4714V128.013H25.7514V124.091Z" fill="#C28118"/>
<path d="M27.4704 124.091H27.1904V128.013H27.4704V124.091Z" fill="#C28118"/>
<path d="M29.1894 124.091H28.9094V128.013H29.1894V124.091Z" fill="#C28118"/>
<path d="M30.9084 124.091H30.6284V128.013H30.9084V124.091Z" fill="#C28118"/>
<path d="M32.6276 124.091H32.3477V128.013H32.6276V124.091Z" fill="#C28118"/>
<path d="M34.3466 124.091H34.0667V128.013H34.3466V124.091Z" fill="#C28118"/>
<path d="M36.0656 124.091H35.7856V128.013H36.0656V124.091Z" fill="#C28118"/>
<path d="M37.7846 124.091H37.5046V128.013H37.7846V124.091Z" fill="#C28118"/>
<path d="M39.5036 124.091H39.2236V128.013H39.5036V124.091Z" fill="#C28118"/>
<path d="M46.2625 107.522H36.5415V111.428H46.2625V107.522Z" fill="#F2A021"/>
<path d="M56.5766 107.522H46.3093V111.428H56.5766V107.522Z" fill="#F5B61C"/>
<path d="M61.7347 107.522H56.6069V111.428H61.7347V107.522Z" fill="#F8C815"/>
<path d="M37.8071 107.522H37.5271V111.444H37.8071V107.522Z" fill="#C28118"/>
<path d="M39.5263 107.522H39.2463V111.444H39.5263V107.522Z" fill="#C28118"/>
<path d="M41.2453 107.522H40.9653V111.444H41.2453V107.522Z" fill="#C28118"/>
<path d="M42.9643 107.522H42.6843V111.444H42.9643V107.522Z" fill="#C28118"/>
<path d="M44.6833 107.522H44.4033V111.444H44.6833V107.522Z" fill="#C28118"/>
<path d="M46.4023 107.522H46.1223V111.444H46.4023V107.522Z" fill="#C28118"/>
<path d="M48.1215 107.522H47.8416V111.444H48.1215V107.522Z" fill="#C28118"/>
<path d="M49.8405 107.522H49.5605V111.444H49.8405V107.522Z" fill="#C28118"/>
<path d="M51.5595 107.522H51.2795V111.444H51.5595V107.522Z" fill="#C28118"/>
<path d="M53.2785 107.522H52.9985V111.444H53.2785V107.522Z" fill="#C28118"/>
<path d="M54.9975 107.522H54.7175V111.444H54.9975V107.522Z" fill="#C28118"/>
<path d="M56.7167 107.522H56.4368V111.444H56.7167V107.522Z" fill="#C28118"/>
<path d="M58.4357 107.522H58.1558V111.444H58.4357V107.522Z" fill="#C28118"/>
<path d="M60.1547 107.522H59.8748V111.444H60.1547V107.522Z" fill="#C28118"/>
<path d="M61.8737 107.522H61.5938V111.444H61.8737V107.522Z" fill="#C28118"/>
<path d="M46.2625 111.616H36.5415V115.522H46.2625V111.616Z" fill="#F2A021"/>
<path d="M56.5766 111.616H46.3093V115.522H56.5766V111.616Z" fill="#F5B61C"/>
<path d="M61.7347 111.616H56.6069V115.522H61.7347V111.616Z" fill="#F8C815"/>
<path d="M37.8071 111.616H37.5271V115.538H37.8071V111.616Z" fill="#C28118"/>
<path d="M39.5263 111.616H39.2463V115.538H39.5263V111.616Z" fill="#C28118"/>
<path d="M41.2453 111.616H40.9653V115.538H41.2453V111.616Z" fill="#C28118"/>
<path d="M42.9643 111.616H42.6843V115.538H42.9643V111.616Z" fill="#C28118"/>
<path d="M44.6833 111.616H44.4033V115.538H44.6833V111.616Z" fill="#C28118"/>
<path d="M46.4023 111.616H46.1223V115.538H46.4023V111.616Z" fill="#C28118"/>
<path d="M48.1215 111.616H47.8416V115.538H48.1215V111.616Z" fill="#C28118"/>
<path d="M49.8405 111.616H49.5605V115.538H49.8405V111.616Z" fill="#C28118"/>
<path d="M51.5595 111.616H51.2795V115.538H51.5595V111.616Z" fill="#C28118"/>
<path d="M53.2785 111.616H52.9985V115.538H53.2785V111.616Z" fill="#C28118"/>
<path d="M54.9975 111.616H54.7175V115.538H54.9975V111.616Z" fill="#C28118"/>
<path d="M56.7167 111.616H56.4368V115.538H56.7167V111.616Z" fill="#C28118"/>
<path d="M58.4357 111.616H58.1558V115.538H58.4357V111.616Z" fill="#C28118"/>
<path d="M60.1547 111.616H59.8748V115.538H60.1547V111.616Z" fill="#C28118"/>
<path d="M61.8737 111.616H61.5938V115.538H61.8737V111.616Z" fill="#C28118"/>
<path d="M50.98 115.786H41.259V119.692H50.98V115.786Z" fill="#F2A021"/>
<path d="M61.2941 115.786H51.0269V119.692H61.2941V115.786Z" fill="#F5B61C"/>
<path d="M66.4512 115.786H61.3235V119.692H66.4512V115.786Z" fill="#F8C815"/>
<path d="M42.5239 115.786H42.2439V119.708H42.5239V115.786Z" fill="#C28118"/>
<path d="M44.2429 115.786H43.9629V119.708H44.2429V115.786Z" fill="#C28118"/>
<path d="M45.9628 115.786H45.6829V119.708H45.9628V115.786Z" fill="#C28118"/>
<path d="M47.6818 115.786H47.4019V119.708H47.6818V115.786Z" fill="#C28118"/>
<path d="M49.4008 115.786H49.1208V119.708H49.4008V115.786Z" fill="#C28118"/>
<path d="M51.1201 115.786H50.8401V119.708H51.1201V115.786Z" fill="#C28118"/>
<path d="M52.8391 115.786H52.5591V119.708H52.8391V115.786Z" fill="#C28118"/>
<path d="M54.5581 115.786H54.2781V119.708H54.5581V115.786Z" fill="#C28118"/>
<path d="M56.277 115.786H55.9971V119.708H56.277V115.786Z" fill="#C28118"/>
<path d="M57.996 115.786H57.7161V119.708H57.996V115.786Z" fill="#C28118"/>
<path d="M59.7153 115.786H59.4353V119.708H59.7153V115.786Z" fill="#C28118"/>
<path d="M61.4343 115.786H61.1543V119.708H61.4343V115.786Z" fill="#C28118"/>
<path d="M63.1533 115.786H62.8733V119.708H63.1533V115.786Z" fill="#C28118"/>
<path d="M64.8723 115.786H64.5923V119.708H64.8723V115.786Z" fill="#C28118"/>
<path d="M66.5913 115.786H66.3113V119.708H66.5913V115.786Z" fill="#C28118"/>
<path d="M50.98 119.879H41.259V123.785H50.98V119.879Z" fill="#F2A021"/>
<path d="M61.2941 119.879H51.0269V123.785H61.2941V119.879Z" fill="#F5B61C"/>
<path d="M66.4512 119.879H61.3235V123.785H66.4512V119.879Z" fill="#F8C815"/>
<path d="M42.5239 119.879H42.2439V123.801H42.5239V119.879Z" fill="#C28118"/>
<path d="M44.2429 119.879H43.9629V123.801H44.2429V119.879Z" fill="#C28118"/>
<path d="M45.9628 119.879H45.6829V123.801H45.9628V119.879Z" fill="#C28118"/>
<path d="M47.6818 119.879H47.4019V123.801H47.6818V119.879Z" fill="#C28118"/>
<path d="M49.4008 119.879H49.1208V123.801H49.4008V119.879Z" fill="#C28118"/>
<path d="M51.1201 119.879H50.8401V123.801H51.1201V119.879Z" fill="#C28118"/>
<path d="M52.8391 119.879H52.5591V123.801H52.8391V119.879Z" fill="#C28118"/>
<path d="M54.5581 119.879H54.2781V123.801H54.5581V119.879Z" fill="#C28118"/>
<path d="M56.277 119.879H55.9971V123.801H56.277V119.879Z" fill="#C28118"/>
<path d="M57.996 119.879H57.7161V123.801H57.996V119.879Z" fill="#C28118"/>
<path d="M59.7153 119.879H59.4353V123.801H59.7153V119.879Z" fill="#C28118"/>
<path d="M61.4343 119.879H61.1543V123.801H61.4343V119.879Z" fill="#C28118"/>
<path d="M63.1533 119.879H62.8733V123.801H63.1533V119.879Z" fill="#C28118"/>
<path d="M64.8723 119.879H64.5923V123.801H64.8723V119.879Z" fill="#C28118"/>
<path d="M66.5913 119.879H66.3113V123.801H66.5913V119.879Z" fill="#C28118"/>
<path d="M49.3746 124.091H39.6536V127.997H49.3746V124.091Z" fill="#F2A021"/>
<path d="M59.6896 124.091H49.4224V127.997H59.6896V124.091Z" fill="#F5B61C"/>
<path d="M64.8467 124.091H59.719V127.997H64.8467V124.091Z" fill="#F8C815"/>
<path d="M40.9194 124.091H40.6394V128.013H40.9194V124.091Z" fill="#C28118"/>
<path d="M42.6384 124.091H42.3584V128.013H42.6384V124.091Z" fill="#C28118"/>
<path d="M44.3574 124.091H44.0774V128.013H44.3574V124.091Z" fill="#C28118"/>
<path d="M46.0764 124.091H45.7964V128.013H46.0764V124.091Z" fill="#C28118"/>
<path d="M47.7954 124.091H47.5154V128.013H47.7954V124.091Z" fill="#C28118"/>
<path d="M49.5144 124.091H49.2344V128.013H49.5144V124.091Z" fill="#C28118"/>
<path d="M51.2336 124.091H50.9536V128.013H51.2336V124.091Z" fill="#C28118"/>
<path d="M52.9526 124.091H52.6726V128.013H52.9526V124.091Z" fill="#C28118"/>
<path d="M54.6716 124.091H54.3916V128.013H54.6716V124.091Z" fill="#C28118"/>
<path d="M56.3906 124.091H56.1106V128.013H56.3906V124.091Z" fill="#C28118"/>
<path d="M58.1096 124.091H57.8296V128.013H58.1096V124.091Z" fill="#C28118"/>
<path d="M59.8288 124.091H59.5488V128.013H59.8288V124.091Z" fill="#C28118"/>
<path d="M61.5478 124.091H61.2678V128.013H61.5478V124.091Z" fill="#C28118"/>
<path d="M63.2668 124.091H62.9868V128.013H63.2668V124.091Z" fill="#C28118"/>
<path d="M64.9858 124.091H64.7058V128.013H64.9858V124.091Z" fill="#C28118"/>
</svg>
