<svg width="31" height="34" viewBox="0 0 31 34" fill="none" xmlns="http://www.w3.org/2000/svg">
    <g clip-path="url(#9yb7zmjola)">
        <path d="M4.983 3.314a3.618 3.618 0 0 0-2.445 1.132c-.641.68-.998 1.58-.998 2.517v22.543c0 .968.382 1.898 1.062 2.583a3.615 3.615 0 0 0 2.566 1.07h21.479c.962 0 1.885-.385 2.565-1.07a3.667 3.667 0 0 0 1.063-2.583V6.963c0-.957-.373-1.876-1.039-2.559a3.616 3.616 0 0 0-2.52-1.093" fill="#5E6263"/>
        <path d="M27.304 2.84c.89.14 1.709.49 2.35 1.148a4.235 4.235 0 0 1 1.208 2.976v22.542a4.266 4.266 0 0 1-1.236 3 4.206 4.206 0 0 1-2.98 1.245H5.168a4.206 4.206 0 0 1-2.98-1.244 4.265 4.265 0 0 1-1.236-3V6.962c0-2.073 1.473-3.737 3.443-4.103m.617 1.045L24.35 2.789h.729m-3.683 0h.727zm-2.956 0h.728zm-2.955 0h.728zm-2.955 0h.729zm-2.954 0h.728zm-2.955 0h.729zM5.445 3.883l-.434.022c-.779.04-1.513.379-2.05.948a3.07 3.07 0 0 0-.834 2.11v22.542c0 .812.321 1.59.891 2.164.57.574 1.343.897 2.15.898h21.478c.806 0 1.58-.324 2.15-.898.57-.574.89-1.352.891-2.164V6.963c0-.802-.313-1.572-.87-2.144a3.031 3.031 0 0 0-2.112-.918l-.453-.008v.008H5.447l-.002-.018z" fill="#5E6263"/>
        <path d="M26.682 3.727H5.203c-2.004 0-3.628 1.635-3.628 3.653v21.63c0 2.018 1.624 3.653 3.628 3.653h21.479c2.004 0 3.628-1.635 3.628-3.653V7.38c0-2.018-1.624-3.653-3.628-3.653z" fill="#D5D4D8"/>
        <path d="M26.682 2.814H5.203c-2.004 0-3.628 1.636-3.628 3.654v21.63c0 2.018 1.624 3.653 3.628 3.653h21.479c2.004 0 3.628-1.636 3.628-3.653V6.468c0-2.018-1.624-3.654-3.628-3.654z" fill="#fff"/>
        <path d="M30.311 6.468c0-.969-.382-1.898-1.062-2.583a3.616 3.616 0 0 0-2.566-1.07H5.203c-.962 0-1.885.384-2.565 1.07a3.667 3.667 0 0 0-1.063 2.583v2.923H30.31V6.468z" fill="#D75426"/>
        <path d="M30.31 8.32H1.575v1.072H30.31V8.32z" fill="#B54523"/>
        <path d="M19.293 11.316h-2.576v2.595h2.576v-2.595zM23.418 11.316h-2.576v2.595h2.576v-2.595zM27.542 11.316h-2.576v2.595h2.576v-2.595zM6.919 15.08H4.343v2.594h2.576V15.08zM11.044 15.08H8.468v2.594h2.576V15.08zM15.168 15.08h-2.576v2.594h2.576V15.08zM19.293 15.08h-2.576v2.594h2.576V15.08zM23.418 15.08h-2.576v2.594h2.576V15.08zM27.542 15.08h-2.576v2.594h2.576V15.08zM6.919 18.842H4.343v2.594h2.576v-2.594zM11.044 18.842H8.468v2.594h2.576v-2.594zM15.168 18.842h-2.576v2.594h2.576v-2.594zM19.293 18.842h-2.576v2.594h2.576v-2.594zM23.418 18.842h-2.576v2.594h2.576v-2.594zM27.542 18.842h-2.576v2.594h2.576v-2.594zM6.919 22.605H4.343V25.2h2.576v-2.595zM11.044 22.605H8.468V25.2h2.576v-2.595zM15.168 22.605h-2.576V25.2h2.576v-2.595zM19.293 22.605h-2.576V25.2h2.576v-2.595zM23.418 22.605h-2.576V25.2h2.576v-2.595zM27.542 22.605h-2.576V25.2h2.576v-2.595zM6.919 26.37H4.343v2.593h2.576V26.37zM11.044 26.37H8.468v2.593h2.576V26.37zM15.168 26.37h-2.576v2.593h2.576V26.37zM19.293 26.37h-2.576v2.593h2.576V26.37zM23.418 26.37h-2.576v2.593h2.576V26.37z" fill="#D9DADD"/>
        <path d="M6.281 5.038A.761.761 0 1 0 4.8 4.686a.761.761 0 1 0 1.482.352zM9.037 5.405a.77.77 0 0 0 0-1.084.757.757 0 0 0-1.077 0 .77.77 0 0 0 0 1.084c.297.3.78.3 1.077 0zM12.19 5.038a.76.76 0 1 0-1.482-.352.761.761 0 1 0 1.482.352zM14.699 5.572a.768.768 0 0 0 .412-1.001.76.76 0 0 0-.995-.415.769.769 0 0 0-.412 1.001.76.76 0 0 0 .995.415zM17.9 5.405a.77.77 0 0 0 0-1.084.758.758 0 0 0-1.076 0 .77.77 0 0 0 0 1.084c.297.3.78.3 1.077 0zM21.053 5.038a.761.761 0 1 0-1.482-.352.761.761 0 1 0 1.482.352zM23.81 5.405a.77.77 0 0 0 0-1.084.757.757 0 0 0-1.077 0 .77.77 0 0 0 0 1.084c.297.3.78.3 1.077 0zM26.963 5.038a.761.761 0 1 0-1.482-.352.761.761 0 1 0 1.482.352z" fill="#B73238"/>
        <path d="M6.07.53A.527.527 0 0 0 5.543 0a.527.527 0 0 0-.526.53v3.983c0 .292.236.529.526.529.29 0 .525-.237.525-.53V.53z" fill="#EDEDED"/>
        <path opacity=".07" d="M5.018.529v3.983a.533.533 0 0 0 .518.53V0a.525.525 0 0 0-.518.529z" fill="#000"/>
        <path d="M8.498 0a.525.525 0 0 0-.525.53v3.983a.533.533 0 0 0 .525.53.525.525 0 0 0 .526-.53V.53A.533.533 0 0 0 8.498 0z" fill="#EDEDED"/>
        <path opacity=".07" d="M7.973.529v3.983a.533.533 0 0 0 .517.53V0a.525.525 0 0 0-.517.529z" fill="#000"/>
        <path d="M11.978.53a.527.527 0 0 0-.525-.53.527.527 0 0 0-.526.53v3.983c0 .292.236.529.526.529.29 0 .525-.237.525-.53V.53z" fill="#EDEDED"/>
        <path opacity=".07" d="M10.927.529v3.983a.533.533 0 0 0 .518.53V0a.525.525 0 0 0-.518.529z" fill="#000"/>
        <path d="M14.933.53a.527.527 0 0 0-.526-.53.527.527 0 0 0-.525.53v3.983c0 .292.235.529.525.529.29 0 .526-.237.526-.53V.53z" fill="#EDEDED"/>
        <path opacity=".07" d="M13.882.529v3.983a.533.533 0 0 0 .518.53V0a.525.525 0 0 0-.518.529z" fill="#000"/>
        <path d="M17.362 0a.525.525 0 0 0-.525.53v3.983a.533.533 0 0 0 .525.53.525.525 0 0 0 .526-.53V.53A.533.533 0 0 0 17.362 0z" fill="#EDEDED"/>
        <path opacity=".07" d="M16.837.529v3.983a.533.533 0 0 0 .517.53V0a.525.525 0 0 0-.517.529z" fill="#000"/>
        <path d="M20.842.53a.527.527 0 0 0-.525-.53.527.527 0 0 0-.526.53v3.983c0 .292.235.529.526.529.29 0 .525-.237.525-.53V.53z" fill="#EDEDED"/>
        <path opacity=".07" d="M19.791.529v3.983a.532.532 0 0 0 .518.53V0a.525.525 0 0 0-.518.529z" fill="#000"/>
        <path d="M23.797.53A.527.527 0 0 0 23.27 0a.527.527 0 0 0-.525.53v3.983c0 .292.235.529.525.529.29 0 .526-.237.526-.53V.53z" fill="#EDEDED"/>
        <path opacity=".07" d="M22.746.529v3.983a.533.533 0 0 0 .518.53V0a.525.525 0 0 0-.518.529z" fill="#000"/>
        <path d="M26.226 0a.526.526 0 0 0-.526.53v3.983a.533.533 0 0 0 .526.53.526.526 0 0 0 .525-.53V.529A.534.534 0 0 0 26.226 0z" fill="#EDEDED"/>
        <path opacity=".07" d="M25.7.529v3.983a.532.532 0 0 0 .517.53V0a.525.525 0 0 0-.517.529z" fill="#000"/>
        <path d="M10.52 21.193c-.194-.007-.389-.017-.581-.015-.19 0-.38.016-.568.05-.368.071-.71.239-1.028.44-.318.203-.597.445-.76.752a1.707 1.707 0 0 0-.178.493 1.943 1.943 0 0 0-.035.525c.01.177.042.353.092.523a2.854 2.854 0 0 0 .197.5c.082.164.175.32.278.47.102.147.216.285.342.413a2.501 2.501 0 0 0 .87.573c.168.067.339.122.514.164.17.042.345.068.52.078.167.01.334-.003.497-.04l.059-.015c.02-.005.038-.012.057-.018.038-.011.075-.028.113-.042l.055-.026.028-.013.026-.015.054-.029.053-.033c.285-.186.515-.444.668-.75.16-.308.25-.66.285-1.023.017-.183.023-.367.016-.55a2.062 2.062 0 0 0-.071-.518 1.079 1.079 0 0 0-.092-.221.791.791 0 0 0-.14-.183 1.34 1.34 0 0 0-.2-.154c-.036-.024-.076-.048-.116-.072l-.06-.036-.06-.032a2.997 2.997 0 0 0-1.046-.323 2.514 2.514 0 0 0-1.099.123l-.066.024c-.022.009-.044.016-.066.026-.042.02-.087.036-.129.058l-.064.032-.062.036-.032.017-.03.019-.061.035a2.388 2.388 0 0 0-.444.37c.11-.164.241-.312.391-.44a2.462 2.462 0 0 1 1.07-.525c.05-.01.1-.02.15-.027l.076-.012.076-.007.038-.004.038-.003.076-.005.076-.001c.026-.002.052 0 .077 0 .05 0 .102.002.153.006l.076.006.076.008.076.01.076.012.075.014.076.016c.2.045.396.108.584.19l.072.032.07.033c.047.022.093.046.139.072.096.053.188.115.273.185.09.077.168.166.233.265.063.096.113.2.151.31.07.204.111.417.125.633.005.052.007.103.01.154.004.051.004.103.005.154.001.104 0 .208-.007.311a4.934 4.934 0 0 1-.03.313c-.008.052-.015.104-.026.156l-.015.077-.018.078a1.474 1.474 0 0 1-.02.077l-.02.077c-.016.052-.031.103-.05.154a2.726 2.726 0 0 1-.281.585l-.047.068-.023.034-.025.032-.05.066-.052.063a1.294 1.294 0 0 1-.054.062c-.02.02-.036.04-.057.06-.039.039-.078.078-.12.114a7.32 7.32 0 0 1-.128.108c-.02.017-.044.033-.067.05a1.025 1.025 0 0 1-.069.047l-.071.045a5.163 5.163 0 0 1-.074.04l-.035.021-.039.019-.076.035c-.053.022-.105.045-.16.061-.026.009-.053.02-.08.027l-.082.021c-.216.05-.438.07-.66.059a3.4 3.4 0 0 1-.627-.098 4.055 4.055 0 0 1-.594-.195 3.268 3.268 0 0 1-.56-.303 2.821 2.821 0 0 1-.488-.418 3.628 3.628 0 0 1-.39-.499 3.95 3.95 0 0 1-.414-.84 2.94 2.94 0 0 1-.166-.938c-.001-.215.027-.43.083-.637a2.136 2.136 0 0 1 .258-.591 1.936 1.936 0 0 1 .428-.472c.16-.127.334-.238.517-.33.18-.091.365-.17.555-.233a2.502 2.502 0 0 1 1.185-.097c.193.025.384.062.575.102z" fill="#145A7B"/>
    </g>
    <defs>
        <clipPath id="9yb7zmjola">
            <path fill="#fff" transform="translate(.952)" d="M0 0h29.91v33.75H0z"/>
        </clipPath>
    </defs>
</svg>
