<svg width="17" height="21" viewBox="0 0 17 21" fill="none" xmlns="http://www.w3.org/2000/svg">
<path d="M0 17.85V16.275H2.23125V8.2425C2.23125 6.8075 2.66953 5.50812 3.54609 4.34437C4.42266 3.18062 5.57813 2.45 7.0125 2.1525V1.39125C7.0125 0.98875 7.15859 0.65625 7.45078 0.39375C7.74297 0.13125 8.09271 0 8.5 0C8.90729 0 9.25703 0.13125 9.54922 0.39375C9.84141 0.65625 9.9875 0.98875 9.9875 1.39125V2.1525C11.4219 2.45 12.5818 3.18062 13.4672 4.34437C14.3526 5.50812 14.7953 6.8075 14.7953 8.2425V16.275H17V17.85H0ZM8.5 21C7.93333 21 7.4375 20.7944 7.0125 20.3831C6.5875 19.9719 6.375 19.4775 6.375 18.9H10.625C10.625 19.4775 10.4169 19.9719 10.0008 20.3831C9.58464 20.7944 9.08438 21 8.5 21Z" fill="#D75426"/>
</svg>
