<svg width="151" height="18" viewBox="0 0 151 18" fill="none" xmlns="http://www.w3.org/2000/svg">
    <path d="M4.125 16.5c-.313 0-.578-.11-.797-.328A1.085 1.085 0 0 1 3 15.375V7.238c0-.313.11-.579.328-.797.219-.22.485-.329.797-.329h1.313v-1.8c0-.987.346-1.828 1.04-2.521C7.172 1.097 8.012.75 9 .75c.988 0 1.828.347 2.522 1.04.694.694 1.04 1.535 1.04 2.522v1.8h1.313c.313 0 .578.11.797.329.219.218.328.484.328.796v8.138c0 .313-.11.578-.328.797a1.085 1.085 0 0 1-.797.328h-9.75zm0-1.125h9.75V7.238h-9.75v8.137zM9 12.75c.4 0 .74-.137 1.022-.412a1.34 1.34 0 0 0 .422-.994c0-.375-.14-.716-.422-1.022A1.337 1.337 0 0 0 9 9.862c-.4 0-.74.154-1.022.46-.281.306-.422.647-.422 1.022 0 .387.14.719.422.994.281.275.622.412 1.022.412zM6.562 6.112h4.875v-1.8a2.35 2.35 0 0 0-.712-1.725A2.35 2.35 0 0 0 9 1.875a2.35 2.35 0 0 0-1.725.712 2.35 2.35 0 0 0-.713 1.725v1.8zm-2.437 9.263V7.238v8.137z" fill="#333"/>
    <path d="M27.186 13.168c-.868 0-1.615-.135-2.24-.406a4.678 4.678 0 0 1-1.554-1.078l.91-1.26c.327.345.737.649 1.232.91.495.252 1.069.378 1.722.378.336 0 .62-.037.854-.112.243-.075.439-.173.588-.294a1.09 1.09 0 0 0 .322-.406 1.02 1.02 0 0 0 .112-.462.816.816 0 0 0-.238-.602 1.668 1.668 0 0 0-.616-.392 4.743 4.743 0 0 0-.868-.28 84.719 84.719 0 0 1-1.008-.266 12.34 12.34 0 0 1-.994-.322 3.834 3.834 0 0 1-.882-.49 2.495 2.495 0 0 1-.616-.742c-.15-.299-.224-.663-.224-1.092 0-.383.08-.737.238-1.064.168-.336.401-.625.7-.868a3.263 3.263 0 0 1 1.064-.588c.42-.14.887-.21 1.4-.21.728 0 1.381.112 1.96.336a4.535 4.535 0 0 1 1.54.966l-.938 1.218a3.33 3.33 0 0 0-1.26-.798 4.027 4.027 0 0 0-1.442-.266c-.485 0-.873.107-1.162.322a.986.986 0 0 0-.42.84c0 .29.13.513.392.672.27.15.607.285 1.008.406.41.112.85.229 1.316.35.467.112.9.275 1.302.49.41.205.747.485 1.008.84.27.345.406.807.406 1.386 0 .392-.07.76-.21 1.106-.14.345-.36.653-.658.924-.29.261-.663.471-1.12.63-.457.15-.999.224-1.624.224zm8.215 0a3.92 3.92 0 0 1-1.415-.252 3.332 3.332 0 0 1-1.12-.714 3.368 3.368 0 0 1-.742-1.134 3.852 3.852 0 0 1-.266-1.456c0-.485.084-.943.253-1.372.168-.439.4-.817.7-1.134.307-.317.672-.57 1.092-.756.42-.187.882-.28 1.386-.28.503 0 .96.093 1.371.28.411.177.761.434 1.05.77.29.327.514.714.672 1.162.16.448.239.938.239 1.47v.35h-5.223c.028.252.094.495.196.728.112.224.257.42.434.588.187.168.407.303.659.406.26.093.55.14.867.14.327 0 .668-.06 1.023-.182.354-.13.653-.317.895-.56l.672.966a3.292 3.292 0 0 1-1.218.742 4.794 4.794 0 0 1-1.526.238zm1.791-4.102a2.192 2.192 0 0 0-.126-.616 1.587 1.587 0 0 0-.35-.574 1.697 1.697 0 0 0-.574-.434c-.233-.112-.518-.168-.854-.168a1.89 1.89 0 0 0-.825.168 1.725 1.725 0 0 0-.575.42c-.149.168-.265.36-.35.574a2.3 2.3 0 0 0-.153.63h3.808zm5.974 4.102c-.514 0-.985-.089-1.414-.266a3.25 3.25 0 0 1-1.107-.742 3.517 3.517 0 0 1-.728-1.12 3.96 3.96 0 0 1-.252-1.428c0-.513.084-.985.252-1.414.178-.43.42-.803.728-1.12a3.25 3.25 0 0 1 1.106-.742c.43-.177.901-.266 1.415-.266.662 0 1.199.121 1.61.364.41.233.737.513.98.84l-.967.896c-.382-.532-.9-.798-1.553-.798-.308 0-.588.056-.84.168a1.894 1.894 0 0 0-.645.462 2.154 2.154 0 0 0-.42.714c-.093.27-.14.57-.14.896 0 .327.047.63.14.91.103.27.243.509.42.714.178.196.393.35.645.462.252.112.532.168.84.168.644 0 1.162-.266 1.553-.798l.966.896c-.242.327-.569.611-.98.854-.41.233-.947.35-1.61.35zM51.623 13v-.896c-.243.27-.57.518-.98.742-.411.215-.883.322-1.415.322-.727 0-1.273-.182-1.638-.546-.354-.364-.532-.896-.532-1.596V6.238h1.47v4.256c0 .523.122.882.364 1.078.252.196.584.294.994.294.374 0 .71-.089 1.008-.266.309-.177.551-.383.729-.616V6.238h1.47V13h-1.47zm3.393 0V6.238h1.47v.994a3.1 3.1 0 0 1 .952-.812 2.423 2.423 0 0 1 1.246-.336V7.54a2.23 2.23 0 0 0-.462-.042c-.159 0-.322.023-.49.07a2.363 2.363 0 0 0-.938.49c-.13.103-.234.215-.308.336V13h-1.47zm7.99.168a3.92 3.92 0 0 1-1.415-.252 3.333 3.333 0 0 1-1.12-.714 3.37 3.37 0 0 1-.742-1.134 3.852 3.852 0 0 1-.266-1.456c0-.485.084-.943.252-1.372.168-.439.402-.817.7-1.134.308-.317.672-.57 1.092-.756.42-.187.882-.28 1.386-.28.504 0 .962.093 1.372.28.411.177.761.434 1.05.77.29.327.514.714.672 1.162.159.448.238.938.238 1.47v.35h-5.222c.028.252.094.495.196.728.112.224.257.42.434.588.187.168.406.303.658.406.262.093.551.14.868.14.327 0 .668-.06 1.022-.182.355-.13.654-.317.896-.56l.672.966a3.292 3.292 0 0 1-1.218.742 4.794 4.794 0 0 1-1.526.238zm1.791-4.102a2.192 2.192 0 0 0-.126-.616 1.586 1.586 0 0 0-.35-.574 1.696 1.696 0 0 0-.574-.434c-.233-.112-.518-.168-.854-.168-.317 0-.592.056-.826.168a1.725 1.725 0 0 0-.574.42c-.149.168-.266.36-.35.574a2.3 2.3 0 0 0-.154.63h3.808zM72.45 13v-.924a2.903 2.903 0 0 1-.952.798 2.58 2.58 0 0 1-1.218.294c-.438 0-.84-.08-1.204-.238a2.761 2.761 0 0 1-.952-.686 3.269 3.269 0 0 1-.63-1.12 4.638 4.638 0 0 1-.224-1.498c0-.541.075-1.031.224-1.47.15-.439.355-.812.616-1.12.271-.308.588-.546.952-.714.374-.168.78-.252 1.218-.252.42 0 .817.098 1.19.294.383.187.71.457.98.812V3.662h1.47V13h-1.47zm-1.75-1.134c.355 0 .691-.084 1.008-.252.327-.177.574-.392.742-.644V8.282c-.168-.252-.415-.467-.742-.644a2.035 2.035 0 0 0-1.008-.266c-.588 0-1.054.21-1.4.63-.336.42-.504.961-.504 1.624 0 .327.042.63.126.91.094.27.224.504.392.7.168.196.369.35.602.462.234.112.495.168.784.168zm13.27 1.302c-.69 0-1.334-.117-1.931-.35a4.682 4.682 0 0 1-1.554-.98 4.7 4.7 0 0 1-1.036-1.526 5.028 5.028 0 0 1-.378-1.974c0-.719.126-1.372.378-1.96a4.571 4.571 0 0 1 2.59-2.52 5.263 5.263 0 0 1 1.932-.35c.476 0 .905.056 1.288.168a4.023 4.023 0 0 1 1.848 1.134c.233.252.438.518.616.798l-1.4.714a2.662 2.662 0 0 0-.966-.966 2.572 2.572 0 0 0-1.386-.392c-.467 0-.896.084-1.288.252a3.115 3.115 0 0 0-1.022.7c-.28.299-.504.658-.672 1.078-.159.41-.238.859-.238 1.344 0 .495.08.947.238 1.358.168.41.392.765.672 1.064.29.299.63.532 1.022.7.392.168.821.252 1.288.252.504 0 .966-.126 1.386-.378a2.77 2.77 0 0 0 .966-.98l1.4.714a5.04 5.04 0 0 1-.63.798 4.099 4.099 0 0 1-.812.672c-.299.196-.64.35-1.022.462a4.581 4.581 0 0 1-1.288.168zm8.088 0a3.58 3.58 0 0 1-1.442-.28 3.426 3.426 0 0 1-1.106-.756 3.42 3.42 0 0 1-.686-1.134 4.045 4.045 0 0 1-.238-1.386c0-.485.08-.943.238-1.372.158-.43.387-.803.686-1.12a3.32 3.32 0 0 1 1.106-.77c.43-.187.91-.28 1.442-.28.541 0 1.026.093 1.456.28.43.187.793.443 1.092.77.308.317.541.69.7 1.12.158.43.238.887.238 1.372 0 .485-.08.947-.238 1.386-.159.43-.392.807-.7 1.134-.299.317-.663.57-1.092.756-.43.187-.915.28-1.456.28zm0-1.302c.317 0 .597-.06.84-.182a1.86 1.86 0 0 0 .616-.49c.168-.205.294-.443.378-.714a3.004 3.004 0 0 0 0-1.722 2.095 2.095 0 0 0-.378-.714 1.86 1.86 0 0 0-.616-.49 1.854 1.854 0 0 0-.84-.182 1.822 1.822 0 0 0-1.442.672 2.095 2.095 0 0 0-.378.714 3.004 3.004 0 0 0 0 1.722c.084.27.21.509.378.714.168.205.373.369.616.49.242.121.518.182.826.182zM101.609 13V8.772c0-.523-.126-.887-.378-1.092-.243-.205-.569-.308-.98-.308a1.96 1.96 0 0 0-1.036.28 2.439 2.439 0 0 0-.7.63V13h-1.47V6.238h1.47v.924a3.28 3.28 0 0 1 .406-.392c.168-.13.35-.247.546-.35a3.7 3.7 0 0 1 .658-.252 2.95 2.95 0 0 1 .77-.098c.728 0 1.274.187 1.638.56.364.373.546.91.546 1.61V13h-1.47zm7.957 0V8.772c0-.523-.126-.887-.378-1.092-.242-.205-.569-.308-.98-.308-.382 0-.728.093-1.036.28a2.447 2.447 0 0 0-.7.63V13h-1.47V6.238h1.47v.924c.112-.13.248-.261.406-.392.168-.13.35-.247.546-.35.206-.103.425-.187.658-.252.243-.065.5-.098.77-.098.728 0 1.274.187 1.638.56.364.373.546.91.546 1.61V13h-1.47zm6.516.168c-.504 0-.975-.084-1.414-.252a3.332 3.332 0 0 1-1.12-.714 3.368 3.368 0 0 1-.742-1.134 3.858 3.858 0 0 1-.266-1.456c0-.485.084-.943.252-1.372a3.41 3.41 0 0 1 .7-1.134c.308-.317.672-.57 1.092-.756.42-.187.882-.28 1.386-.28.504 0 .961.093 1.372.28.411.177.761.434 1.05.77.289.327.513.714.672 1.162.159.448.238.938.238 1.47v.35h-5.222c.028.252.093.495.196.728.112.224.257.42.434.588.187.168.406.303.658.406.261.093.551.14.868.14.327 0 .667-.06 1.022-.182.355-.13.653-.317.896-.56l.672.966a3.292 3.292 0 0 1-1.218.742 4.796 4.796 0 0 1-1.526.238zm1.792-4.102a2.172 2.172 0 0 0-.126-.616 1.587 1.587 0 0 0-.35-.574 1.697 1.697 0 0 0-.574-.434c-.233-.112-.518-.168-.854-.168a1.89 1.89 0 0 0-.826.168 1.728 1.728 0 0 0-.574.42c-.149.168-.266.36-.35.574a2.31 2.31 0 0 0-.154.63h3.808zm5.973 4.102c-.514 0-.985-.089-1.414-.266a3.243 3.243 0 0 1-1.106-.742 3.512 3.512 0 0 1-.728-1.12 3.96 3.96 0 0 1-.252-1.428c0-.513.084-.985.252-1.414.177-.43.42-.803.728-1.12a3.243 3.243 0 0 1 1.106-.742c.429-.177.9-.266 1.414-.266.662 0 1.199.121 1.61.364.41.233.737.513.98.84l-.966.896c-.383-.532-.901-.798-1.554-.798-.308 0-.588.056-.84.168a1.89 1.89 0 0 0-.644.462 2.134 2.134 0 0 0-.42.714c-.094.27-.14.57-.14.896 0 .327.046.63.14.91.102.27.242.509.42.714.177.196.392.35.644.462.252.112.532.168.84.168.644 0 1.162-.266 1.554-.798l.966.896c-.243.327-.57.611-.98.854-.411.233-.948.35-1.61.35zm5.923 0c-.57 0-1.004-.15-1.302-.448-.29-.299-.434-.728-.434-1.288V7.526h-1.12V6.238h1.12V4.39h1.47v1.848h1.372v1.288h-1.372v3.542c0 .233.051.425.154.574.112.15.275.224.49.224.14 0 .27-.023.392-.07a.656.656 0 0 0 .266-.168l.35 1.106c-.131.13-.308.233-.532.308-.224.084-.509.126-.854.126zm3.182-7.756a.91.91 0 1 1 0-1.82c.252 0 .467.089.644.266a.875.875 0 0 1 .266.644.875.875 0 0 1-.266.644.877.877 0 0 1-.644.266zM132.224 13V6.238h1.47V13h-1.47zm6.443.168a3.582 3.582 0 0 1-1.442-.28 3.43 3.43 0 0 1-1.106-.756 3.435 3.435 0 0 1-.686-1.134 4.06 4.06 0 0 1-.238-1.386c0-.485.08-.943.238-1.372a3.28 3.28 0 0 1 .686-1.12 3.324 3.324 0 0 1 1.106-.77c.43-.187.91-.28 1.442-.28.542 0 1.027.093 1.456.28.43.187.794.443 1.092.77.308.317.542.69.7 1.12.159.43.238.887.238 1.372 0 .485-.079.947-.238 1.386a3.255 3.255 0 0 1-1.792 1.89c-.429.187-.914.28-1.456.28zm0-1.302c.318 0 .598-.06.84-.182.243-.121.448-.285.616-.49.168-.205.294-.443.378-.714a3.004 3.004 0 0 0 0-1.722 2.095 2.095 0 0 0-.378-.714 1.858 1.858 0 0 0-.616-.49 1.85 1.85 0 0 0-.84-.182c-.308 0-.583.06-.826.182a1.868 1.868 0 0 0-.616.49 2.095 2.095 0 0 0-.378.714 3.004 3.004 0 0 0 0 1.722c.084.27.21.509.378.714.168.205.374.369.616.49.243.121.518.182.826.182zM148.219 13V8.772c0-.523-.126-.887-.378-1.092-.243-.205-.569-.308-.98-.308-.383 0-.728.093-1.036.28a2.433 2.433 0 0 0-.7.63V13h-1.47V6.238h1.47v.924c.112-.13.247-.261.406-.392.168-.13.35-.247.546-.35.205-.103.425-.187.658-.252a2.95 2.95 0 0 1 .77-.098c.728 0 1.274.187 1.638.56.364.373.546.91.546 1.61V13h-1.47z" fill="#000"/>
</svg>
