<svg width="339" height="247" viewBox="0 0 339 247" fill="none" xmlns="http://www.w3.org/2000/svg">
<g clip-path="url(#clip0_1501_170708)">
<path d="M23.9299 247.505C23.9299 247.505 3.25428 217.684 0.386651 179.897C-2.48097 142.11 10.1671 82.1899 63.8969 56.3967C117.762 30.534 158.34 -6.35032 205.175 2.28049C254.239 11.318 258.212 61.9819 292.651 85.1859C316.823 101.465 337.4 117.338 338.955 162.447C340.286 200.799 308.31 248.001 308.31 248.001L23.9299 247.505Z" fill="#DFEBF4"/>
<path d="M64.9755 123.995C93.5227 123.995 116.665 100.233 116.665 70.9202C116.665 41.608 93.5227 17.8457 64.9755 17.8457C36.4284 17.8457 13.2864 41.608 13.2864 70.9202C13.2864 100.233 36.4284 123.995 64.9755 123.995Z" fill="white"/>
<path d="M219.315 208.923C221.068 204.538 222.785 200.123 224.52 195.728C224.349 195.52 224.178 195.322 224.016 195.113C218.533 192.356 213.046 189.608 207.557 186.869C207.406 186.792 207.25 186.729 207.089 186.681C206.622 186.522 206.118 186.443 205.633 186.304C204.536 190.421 204.554 190.272 200.518 189.786C193.56 188.953 186.566 188.358 179.591 187.653C178.87 187.651 178.163 187.427 177.55 187.008L197.111 180.719L187.483 160.233C182.467 163.646 182.44 163.646 180.705 157.366C179.231 152.029 177.937 146.622 176.363 141.305C173.667 132.009 170.727 122.773 167.922 113.527C167.338 111.603 166.871 109.629 166.403 107.863L170.691 103.895C170.52 103.895 170.332 103.895 170.161 103.954C164.506 111.305 155.104 98.0713 155.104 98.0713L157.009 96.5733C157.009 96.3352 156.928 96.0872 156.901 95.8392C156.677 95.4452 156.479 95.0341 156.308 94.6091C156.488 94.4702 156.65 94.3313 156.82 94.1825C156.932 90.4718 157.857 86.8463 159.517 83.6172C156.209 84.9366 153.225 88.3592 152.658 90.5615C151.301 96.117 152.452 101.305 154.636 106.375C155.566 108.395 156.2 110.564 156.515 112.803C157.072 117.853 157.009 122.992 157.674 128.021C158.924 137.466 160.2 146.93 162.052 156.235C163.652 164.241 166.044 172.108 168.147 179.945C168.714 182.078 169.532 184.131 170.421 186.78C164.758 186.493 159.697 186.264 154.645 185.957C151.292 185.758 147.939 185.54 144.613 185.104C143.948 185.014 143.148 184.012 142.815 183.229C142.132 181.433 141.916 179.399 141.161 177.663C139.525 173.894 137.242 170.431 137.242 165.967C137.242 165.679 135.785 164.975 135.57 165.183C134.769 165.967 133.772 166.989 133.637 168.021C133.475 170.376 133.493 172.742 133.691 175.094C133.754 176.354 134.005 177.594 134.266 179.499C128.791 177.643 124.647 174.895 121.771 170.084C120.476 167.911 119.883 167.921 118.696 170.173C116 175.312 116 180.739 117.456 186.215C118.166 188.844 118.714 191.631 121.052 193.387C126.445 197.355 132.324 198.347 138.626 197.445C139.863 197.206 141.13 197.236 142.357 197.534C147.256 199.032 152.092 200.788 156.982 202.326C169.159 206.317 181.558 209.436 194.1 211.661C196.194 211.998 198.253 212.653 200.329 213.149L217.409 213.228C218.074 211.81 218.74 210.391 219.315 208.923Z" fill="#EDB39D"/>
<path d="M157.647 227.525C180.9 227.525 204.159 227.498 227.423 227.445C228.687 227.525 229.953 227.374 231.172 226.999C232.537 226.393 233.676 225.294 234.403 223.881C235.129 222.469 235.401 220.826 235.172 219.221C234.963 217.608 234.237 216.131 233.125 215.059C232.013 213.987 230.59 213.39 229.113 213.378C225.23 213.279 221.338 213.289 217.427 213.249L200.347 213.17C196.913 213.229 193.47 213.339 190.027 213.339C152.841 213.339 115.649 213.339 78.4507 213.339C77.7045 213.339 76.9494 213.339 76.2033 213.339C75.2347 213.447 74.3021 213.801 73.4788 214.375C72.6555 214.948 71.964 215.725 71.4587 216.643C70.9533 217.561 70.6479 218.596 70.5665 219.667C70.4851 220.737 70.6299 221.814 70.9894 222.813C72.1221 225.967 74.2077 227.396 77.7315 227.396H148.002H157.647V227.525Z" fill="#95755E"/>
<path d="M157.495 229.984C157.495 229.16 157.593 228.337 157.647 227.523H148.002C148.065 228.833 148.191 230.152 148.191 231.492V245.38H157.495V229.984Z" fill="#C8A78D"/>
<path d="M231.127 119.521L223.756 128.023C223.622 128.189 223.458 128.323 223.275 128.414C223.091 128.506 222.892 128.553 222.69 128.553C222.489 128.553 222.29 128.506 222.106 128.414C221.922 128.323 221.758 128.189 221.625 128.023L217.823 125.88L216.195 125.007C215.818 126.207 215.431 127.398 215.054 128.598C213.921 133.687 212.654 138.757 211.575 143.856C211.215 145.562 210.874 147.268 210.568 148.975C209.139 156.911 208.168 165.016 206.972 173.042C206.864 173.766 206.712 174.48 206.559 175.194C206.406 175.909 206.226 176.623 206.073 177.347L205.642 186.335C206.127 186.474 206.631 186.553 207.098 186.712C207.259 186.76 207.415 186.823 207.566 186.901C213.061 189.632 218.548 192.38 224.025 195.145C224.807 186.81 226.386 178.589 228.736 170.621C228.978 169.827 229.23 169.034 229.491 168.25C230.021 166.683 230.587 165.115 231.199 163.568C232.098 161.246 233.149 158.945 234.291 156.683C234.624 159.143 234.965 161.593 235.271 164.054C236.476 173.845 238.948 183.111 243.847 191.543C247.443 197.754 250.068 204.539 249.124 212.069C248.458 217.396 246.921 222.604 245.618 227.823C244.162 233.695 242.498 239.499 241.042 245.362H294.898C294.628 235.441 294.367 225.461 293.72 215.541C292.679 199.049 289.516 182.805 284.326 167.298C277.917 148.29 268.145 131.802 253.699 119.025C248.144 114.134 242.193 110.096 234.902 109.184C232.08 109.65 229.176 109.888 226.596 111.247L231.19 116.931C231.475 117.293 231.627 117.76 231.615 118.24C231.604 118.719 231.429 119.176 231.127 119.521Z" fill="#145A7B"/>
<path d="M245.618 227.841C246.921 222.623 248.459 217.414 249.124 212.087C250.023 204.558 247.461 197.772 243.847 191.562C238.948 183.129 236.476 173.864 235.271 164.072C234.965 161.612 234.624 159.161 234.291 156.701C233.15 158.963 232.125 161.265 231.199 163.586C230.588 165.134 230.021 166.701 229.491 168.268C229.23 169.052 228.979 169.846 228.736 170.639C226.386 178.591 224.804 186.795 224.016 195.113C224.178 195.322 224.349 195.52 224.52 195.728C225.317 195.934 226.096 196.217 226.848 196.572C228.844 197.762 229.716 196.572 230.273 194.707C230.956 192.365 231.612 190.014 232.152 188.119C234.022 193.08 235.918 198.298 237.995 203.466C240.764 210.351 240.629 217.077 238.22 224.131C235.848 231.086 233.825 238.18 232.161 245.38H241.042C242.517 239.517 244.162 233.714 245.618 227.841Z" fill="#10465B"/>
<path d="M199.484 180.671C201.714 179.679 203.88 178.449 206.064 177.318C206.217 176.593 206.388 175.889 206.55 175.165C206.712 174.441 206.856 173.736 206.963 173.012C208.168 164.986 209.139 156.921 210.559 148.945C210.865 147.239 211.206 145.532 211.566 143.826C212.645 138.727 213.912 133.658 215.045 128.568C213.302 130.097 211.634 131.727 210.047 133.449C203.844 140.83 197.749 148.33 191.583 155.741C190.279 157.308 188.886 158.717 187.474 160.235L197.102 180.72C197.892 180.86 198.699 180.843 199.484 180.671Z" fill="#10465B"/>
<path d="M206.064 177.317C206.217 176.593 206.388 175.888 206.55 175.164C206.388 175.888 206.217 176.593 206.064 177.317Z" fill="#5171AF"/>
<path d="M215.054 128.568C213.921 133.658 212.654 138.727 211.575 143.826C212.654 138.727 213.921 133.658 215.054 128.568Z" fill="#5171AF"/>
<path d="M215.971 96.6041L216.088 96.5247V96.3957C216.629 96.0939 217.121 95.695 217.544 95.2152V95.1656L217.805 94.868C218.041 94.5873 218.263 94.2925 218.47 93.985C219.031 93.0812 219.439 92.073 219.675 91.0089C219.891 89.9381 219.943 88.8348 219.827 87.7451C219.604 85.627 218.702 83.6669 217.283 82.2194C215.927 80.8255 214.129 80.077 212.276 80.1361C210.408 80.1787 208.629 81.0219 207.314 82.4872C205.969 84.0018 205.138 85.9809 204.959 88.0923V88.5982C204.953 88.6047 204.948 88.6124 204.945 88.6209C204.942 88.6294 204.94 88.6386 204.94 88.6478C204.94 88.6571 204.942 88.6662 204.945 88.6747C204.948 88.6832 204.953 88.691 204.959 88.6974C204.959 89.501 205.022 90.9097 205.022 90.8105C205.094 91.7232 205.13 92.5763 205.13 92.9831C201.057 94.5722 196.665 94.8812 192.442 93.8757C188.22 92.8702 184.334 90.5897 181.218 87.2887L171.923 100.632C171.734 101.118 171.545 101.564 171.347 101.981C171.536 102.556 171.734 103.122 171.95 103.677C172.935 106.276 174.258 108.702 175.878 110.88C176.843 112.758 177.763 114.682 178.638 116.653C178.638 116.653 178.719 116.862 178.764 116.911C178.925 117.417 179.177 117.903 179.384 118.479C179.384 118.578 179.384 118.578 179.429 118.628C179.816 119.834 180.061 121.091 180.157 122.368V122.616C180.226 123.118 180.25 123.626 180.229 124.133C180.249 124.722 180.403 125.295 180.678 125.8C180.919 126.093 181.205 126.335 181.523 126.514C182.075 126.838 182.717 126.92 183.321 126.742C183.652 126.608 183.957 126.406 184.22 126.147C184.465 125.862 184.655 125.524 184.778 125.155C188.221 130.244 193.902 133.439 199.295 134.778C200.846 135.245 202.465 135.37 204.06 135.145C208.788 134.361 211.126 128.965 212.771 124.024L218.074 101.495C217.024 100.077 216.302 98.3986 215.971 96.6041ZM179.528 103.856C176.058 105.473 180.193 96.614 185.82 100.721C184.612 100.554 183.385 100.758 182.274 101.311C181.164 101.864 180.213 102.745 179.528 103.856ZM185.164 124.332C185.164 124.431 184.859 125.185 184.778 124.877C184.755 124.85 184.743 124.815 184.743 124.778C184.743 124.742 184.755 124.706 184.778 124.679C184.778 124.625 184.793 124.573 184.823 124.53C184.958 124.141 185.045 123.734 185.083 123.32C185.078 123.298 185.077 123.275 185.081 123.252C185.085 123.23 185.094 123.209 185.107 123.191C185.119 123.173 185.136 123.158 185.154 123.148C185.173 123.138 185.193 123.133 185.214 123.133C185.234 123.133 185.255 123.138 185.273 123.148C185.292 123.158 185.308 123.173 185.32 123.191C185.333 123.209 185.342 123.23 185.346 123.252C185.35 123.275 185.349 123.298 185.344 123.32C185.31 123.662 185.25 124.001 185.164 124.332ZM190.836 106.138C190.794 106.189 190.74 106.226 190.679 106.243C190.618 106.261 190.554 106.259 190.495 106.237C189.841 105.797 189.094 105.555 188.328 105.536C187.563 105.517 186.806 105.721 186.135 106.128C186.851 106.246 187.497 106.67 187.933 107.308C188.832 108.479 189.021 110.036 188.373 110.691C187.726 111.346 186.45 111.009 185.569 109.848C185.026 109.182 184.733 108.313 184.751 107.417C184.548 107.695 184.371 107.994 184.22 108.31C184.207 108.351 184.186 108.389 184.158 108.419C184.131 108.45 184.097 108.474 184.06 108.488C184.022 108.502 183.983 108.507 183.944 108.502C183.905 108.497 183.867 108.482 183.834 108.459C183.798 108.438 183.767 108.41 183.741 108.375C183.716 108.341 183.698 108.301 183.687 108.258C183.676 108.216 183.673 108.171 183.678 108.127C183.683 108.083 183.696 108.041 183.717 108.003C184.009 107.307 184.432 106.686 184.956 106.183C185.481 105.679 186.095 105.303 186.761 105.079C187.426 104.855 188.126 104.789 188.816 104.884C189.506 104.979 190.17 105.234 190.765 105.632C190.802 105.657 190.834 105.691 190.859 105.732C190.883 105.772 190.899 105.818 190.906 105.866C190.913 105.914 190.91 105.964 190.898 106.01C190.886 106.057 190.865 106.101 190.836 106.138ZM193.974 131.048C193.695 130.899 192.715 130.453 192.176 130.165C194.064 123.052 198.711 124.213 198.711 124.213C196.844 126.229 195.248 128.531 193.974 131.048ZM210.209 89.878C210.374 90.1454 210.589 90.3717 210.838 90.5426C210.988 90.1211 211.225 89.744 211.53 89.4415C211.683 89.2567 211.869 89.1092 212.076 89.0084C212.284 88.9076 212.508 88.8558 212.735 88.8562C212.958 88.8828 213.167 88.991 213.328 89.1637C213.502 89.3436 213.631 89.5687 213.706 89.8184C213.794 90.0432 213.819 90.2921 213.777 90.5327C213.73 90.7798 213.641 91.0151 213.517 91.2272V91.1775C213.645 90.9899 213.722 90.7666 213.741 90.5327C213.78 90.2911 213.752 90.0423 213.661 89.8184C213.561 89.6135 213.433 89.4262 213.283 89.2629C213.112 89.1492 212.927 89.0624 212.735 89.005C212.542 89.0035 212.351 89.051 212.177 89.1438C211.975 89.2168 211.796 89.355 211.665 89.5407C211.379 89.8826 211.17 90.2937 211.054 90.741V90.8899H210.928C210.609 90.7564 210.332 90.5259 210.128 90.2252C209.913 89.8718 209.758 89.4786 209.669 89.0645C209.583 88.2503 209.724 87.4265 210.074 86.7034C210.398 86.0107 210.806 85.3699 211.287 84.7987C211.771 84.2218 212.395 83.8118 213.085 83.6182C213.768 83.4186 214.493 83.4997 215.126 83.8463C215.759 84.2209 216.309 84.7462 216.735 85.384C217.16 86.0086 217.482 86.7103 217.688 87.4574C217.889 88.2276 217.983 89.027 217.967 89.8284C217.872 88.3086 217.35 86.8592 216.474 85.6816C216.092 85.1172 215.58 84.6755 214.991 84.4019C214.421 84.1493 213.8 84.0705 213.193 84.1737C212.593 84.3734 212.039 84.7116 211.566 85.1657C211.082 85.6626 210.685 86.2547 210.397 86.9117C210.053 87.5478 209.896 88.2861 209.948 89.0248C210.013 89.3222 210.113 89.609 210.245 89.878H210.209ZM217.346 100.85V100.949C217.346 100.9 217.346 100.9 217.346 100.85Z" fill="#EDB39D"/>
<path d="M212.761 124.064L215.962 124.848L214.694 124.174L212.761 124.064Z" fill="#EDB39D"/>
<path d="M222.92 80.6514C222.63 78.8274 222.126 77.053 221.418 75.3738C220.85 74.0441 220.176 72.7727 219.405 71.5742C220.026 72.5721 220.573 73.6238 221.041 74.719C221.829 76.6293 222.458 78.615 222.92 80.6514Z" fill="#EDB39D"/>
<path d="M219.746 102.893L219.522 102.744C219.522 102.813 219.459 102.853 219.45 102.843C219.017 102.564 218.625 102.213 218.29 101.801C218.335 105.254 218.434 115.313 217.958 120.422C218.506 119.43 219.054 118.369 219.612 117.347C221.409 115.66 223.055 113.825 224.942 112.317C225.463 111.91 226.016 111.558 226.596 111.266L219.827 102.893C220.157 101.959 220.436 101.005 220.663 100.036L220.753 99.738L220.843 99.4404L220.933 99.0337L221.104 98.4285L221.185 98.002C220.933 98.7758 220.69 99.5099 220.466 100.165C220.106 101.504 219.746 102.893 219.746 102.893Z" fill="#EDB39D"/>
<path d="M219.612 117.347C219.054 118.339 218.506 119.401 217.957 120.423C217.91 121.337 217.756 122.24 217.499 123.111L217.823 125.849L221.625 127.992C221.758 128.159 221.922 128.292 222.106 128.384C222.29 128.475 222.489 128.523 222.69 128.523C222.892 128.523 223.091 128.475 223.275 128.384C223.458 128.292 223.622 128.159 223.756 127.992L231.127 119.49C231.424 119.147 231.596 118.694 231.607 118.219C231.619 117.744 231.47 117.281 231.19 116.921L226.596 111.236C226.016 111.529 225.463 111.881 224.942 112.288C223.055 113.826 221.382 115.661 219.612 117.347Z" fill="#EDB39D"/>
<path d="M217.562 95.1649V95.2145C217.139 95.6943 216.647 96.0933 216.106 96.395V96.524C216.567 96.2123 217.003 95.8572 217.409 95.4625V95.4129L217.625 95.1649C217.939 94.8011 218.222 94.4059 218.47 93.9844C218.263 94.2919 218.041 94.5866 217.805 94.8673L217.562 95.1649Z" fill="#E5A38C"/>
<path d="M219.746 102.894C219.746 102.894 220.106 101.505 220.466 100.166C220.192 101.043 219.877 101.904 219.522 102.745L219.746 102.894Z" fill="#E5A38C"/>
<path d="M213.643 121.295C213.373 122.168 213.076 123.1 212.744 124.043L213.328 122.277L213.643 121.295Z" fill="#E5A38C"/>
<path d="M215.962 124.848L216.196 124.977V124.917L215.962 124.848Z" fill="#E5A38C"/>
<path d="M216.214 124.916V124.976L217.841 125.849L216.357 124.985L216.214 124.916Z" fill="#E5A38C"/>
<path d="M212.762 124.043C213.076 123.051 213.373 122.168 213.661 121.295L213.364 122.287L212.78 124.053L214.712 124.162L215.98 124.837L216.232 124.906L217.202 121.851L217.976 120.412C218.452 115.303 218.353 105.244 218.308 101.792C218.229 101.7 218.154 101.604 218.083 101.504L212.762 124.043Z" fill="#E5A38C"/>
<path d="M216.214 124.916H216.357L217.823 125.819L217.499 123.081C217.756 122.21 217.91 121.307 217.958 120.393L217.184 121.831L216.214 124.916Z" fill="#E5A38C"/>
<path d="M211.53 85.1058C212.003 84.6517 212.557 84.3135 213.157 84.1138C213.764 84.0106 214.385 84.0894 214.955 84.342C215.544 84.6156 216.056 85.0573 216.438 85.6217C217.314 86.7993 217.836 88.2487 217.93 89.7685C217.947 88.9671 217.853 88.1677 217.652 87.3975C217.446 86.6504 217.124 85.9487 216.699 85.3241C216.272 84.6862 215.723 84.161 215.09 83.7864C214.457 83.4398 213.732 83.3587 213.049 83.5583C212.359 83.7519 211.735 84.1619 211.251 84.7388C210.77 85.31 210.362 85.9508 210.038 86.6435C209.688 87.3666 209.547 88.1904 209.633 89.0046C209.722 89.4187 209.877 89.8119 210.092 90.1653C210.296 90.466 210.573 90.6965 210.892 90.83H211.018V90.6811C211.134 90.2338 211.343 89.8227 211.629 89.4808C211.76 89.2951 211.938 89.1569 212.141 89.0839C212.315 88.9911 212.506 88.9436 212.699 88.9451C212.891 89.0025 213.076 89.0893 213.247 89.203C213.397 89.3663 213.525 89.5536 213.625 89.7585C213.715 89.9824 213.744 90.2312 213.705 90.4728C213.686 90.7067 213.609 90.93 213.481 91.1176V91.1673C213.605 90.9552 213.694 90.7199 213.741 90.4728C213.783 90.2322 213.758 89.9833 213.669 89.7585C213.595 89.5088 213.466 89.2837 213.292 89.1038C213.131 88.9311 212.922 88.8229 212.699 88.7963C212.472 88.7959 212.248 88.8477 212.04 88.9485C211.833 89.0493 211.647 89.1968 211.494 89.3816C211.189 89.6841 210.952 90.0612 210.802 90.4827C210.553 90.3118 210.338 90.0855 210.173 89.8181C210.024 89.5325 209.912 89.2253 209.84 88.9054C209.788 88.1667 209.945 87.4284 210.289 86.7923C210.604 86.1499 211.025 85.578 211.53 85.1058Z" fill="#561D3E"/>
<path d="M185.083 123.32C185.045 123.735 184.957 124.141 184.822 124.53C184.793 124.573 184.778 124.626 184.778 124.679C184.755 124.707 184.743 124.742 184.743 124.778C184.743 124.815 184.755 124.85 184.778 124.878C184.858 125.185 185.164 124.431 185.164 124.332C185.249 124.007 185.309 123.676 185.344 123.34C185.35 123.318 185.352 123.296 185.349 123.273C185.347 123.251 185.339 123.229 185.328 123.21C185.316 123.192 185.301 123.176 185.283 123.165C185.265 123.153 185.246 123.146 185.225 123.145C185.205 123.143 185.184 123.147 185.165 123.155C185.146 123.164 185.129 123.177 185.115 123.194C185.102 123.211 185.092 123.231 185.086 123.253C185.08 123.275 185.079 123.298 185.083 123.32Z" fill="#561D3E"/>
<path d="M156.82 94.1736C156.819 94.7271 156.846 95.2802 156.901 95.8304C157.009 96.0188 157.117 96.2073 157.234 96.3859L169.424 86.763C169.424 86.4654 169.477 86.2075 169.477 86.0091C169.558 85.1956 169.657 84.392 169.765 83.5984C169.981 81.783 170.277 79.9973 170.574 78.2711L170.709 77.8148C172.022 73.2175 174.294 69.0245 177.343 65.5729C180.321 62.2252 184.039 59.7938 188.131 58.5194C190.441 57.8336 192.822 57.4834 195.214 57.4778C199.109 57.4074 202.973 58.2387 206.559 59.9182C211.717 62.4633 216.163 66.4886 219.432 71.5748C216.283 66.503 211.928 62.487 206.846 59.9678C201.394 57.3084 195.342 56.5237 189.479 57.7159C186.14 58.2021 182.972 59.6341 180.283 61.8726C175.15 63.8567 171.096 69.0054 165.675 74.7692C163.195 77.328 161.106 80.313 159.49 83.6083C160.187 83.3241 160.916 83.1472 161.657 83.0825C160.713 87.14 160.03 91.3661 156.82 94.1736Z" fill="#3A2007"/>
<path d="M222.093 93.916L221.778 95.4735L221.598 96.2771C221.454 96.912 221.292 97.4576 221.185 98.0033C222.29 94.5906 223.522 90.5331 223.576 89.9081C223.88 86.8047 223.657 83.6659 222.92 80.6523C223.639 85.0273 223.018 89.3625 222.093 93.916Z" fill="#3A2007"/>
<path d="M156.901 95.8301C156.901 96.0781 156.964 96.3261 157.009 96.5642L157.234 96.3856C157.117 96.217 157.009 96.0186 156.901 95.8301Z" fill="#3A2007"/>
<path d="M161.612 83.082C160.871 83.1467 160.142 83.3236 159.445 83.6078C157.785 86.837 156.86 90.4625 156.749 94.1731C160.03 91.3656 160.713 87.1395 161.612 83.082Z" fill="#3A2007"/>
<path d="M218.065 101.513L218.11 101.295C217.128 99.8871 216.437 98.2582 216.088 96.5234L215.971 96.6028C216.296 98.4034 217.015 100.089 218.065 101.513Z" fill="#3A2007"/>
<path d="M218.29 101.523V101.801C218.625 102.213 219.017 102.564 219.45 102.843C219.45 102.843 219.45 102.843 219.522 102.744C219.062 102.402 218.647 101.991 218.29 101.523Z" fill="#3A2007"/>
<path d="M206.559 59.917C202.974 58.2341 199.11 57.3994 195.214 57.4667C199.024 57.4406 202.798 58.2709 206.307 59.9071C211.899 62.407 218.398 68.7363 221.185 75.3731C223.972 82.0099 223.109 88.2697 221.679 95.1149L221.499 95.9184C221.37 96.6478 221.208 97.3696 221.014 98.0811L220.879 98.7259L220.789 99.1327L220.699 99.4303L220.609 99.7378C220.609 99.8767 220.538 100.025 220.493 100.164C220.717 99.5096 220.96 98.7755 221.212 98.0017C221.32 97.4561 221.481 96.9105 221.625 96.2756L221.805 95.472L222.12 93.9145C223.019 89.361 223.63 84.9861 222.947 80.6508C222.486 78.6076 221.857 76.6152 221.068 74.6985C220.6 73.6033 220.053 72.5516 219.432 71.5537C216.16 66.4749 211.715 62.4565 206.559 59.917Z" fill="#3A2007"/>
<path d="M181.218 87.2892C184.334 90.5972 188.222 92.8836 192.448 93.8927C196.674 94.9018 201.071 94.5939 205.148 93.0034C205.148 92.5966 205.148 91.7435 205.04 90.8308C205.04 90.93 204.968 89.5213 204.977 88.7177C204.971 88.7112 204.966 88.7035 204.963 88.695C204.959 88.6865 204.958 88.6773 204.958 88.6681C204.958 88.6589 204.959 88.6497 204.963 88.6412C204.966 88.6327 204.971 88.625 204.977 88.6185V88.1126C205.155 86.0012 205.987 84.0221 207.332 82.5075C208.646 81.0422 210.426 80.1989 212.294 80.1563C214.146 80.0973 215.945 80.8458 217.301 82.2396C218.72 83.6872 219.622 85.6473 219.845 87.7653C219.961 88.855 219.909 89.9584 219.692 91.0292C219.457 92.0932 219.049 93.1015 218.488 94.0053C219.202 92.9809 219.702 91.7953 219.953 90.5332C220.177 89.3931 220.232 88.2204 220.115 87.061C219.923 85.3875 219.333 83.7996 218.407 82.4579C217.533 81.1484 216.329 80.1514 214.946 79.5909C213.574 79.0748 212.1 78.9855 210.685 79.3329C209.267 79.751 207.978 80.5839 206.954 81.7436C205.992 82.8944 205.292 84.282 204.914 85.7912C204.554 87.3469 204.554 88.9775 204.914 90.5332C201.642 86.0491 195.259 80.2754 187.088 80.0671C181.766 79.9381 172.381 81.0591 169.612 85.6126C169.666 84.938 169.729 84.2733 169.81 83.6285C169.702 84.4221 169.603 85.2257 169.522 86.0392C169.522 86.2376 169.522 86.4955 169.469 86.7931L176.004 81.6444L181.218 87.2892Z" fill="#3A2007"/>
<path d="M170.835 78.2601L170.961 77.8137C172.222 73.188 174.501 68.9788 177.595 65.5619C180.596 62.2466 184.306 59.8205 188.382 58.5084C190.611 57.8477 192.906 57.4978 195.214 57.4668C192.822 57.4724 190.441 57.8226 188.131 58.5084C184.04 59.7828 180.321 62.2142 177.343 65.5619C174.294 69.0135 172.022 73.2065 170.709 77.8038L170.574 78.2601C170.278 79.9863 169.981 81.772 169.765 83.5874C169.846 83.0418 169.918 82.5061 170.026 81.9803C170.251 80.7204 170.52 79.52 170.835 78.2601Z" fill="#3A2007"/>
<path d="M187.043 80.0464C195.214 80.2547 201.597 85.9987 204.869 90.5125C204.509 88.9568 204.509 87.3262 204.869 85.7705C205.248 84.2614 205.947 82.8738 206.909 81.723C207.933 80.5632 209.222 79.7303 210.64 79.3123C212.055 78.9649 213.529 79.0541 214.901 79.5702C216.284 80.1307 217.488 81.1277 218.362 82.4372C219.288 83.779 219.878 85.3668 220.07 87.0403C220.187 88.1998 220.132 89.3724 219.908 90.5125C219.657 91.7747 219.157 92.9602 218.443 93.9847C218.195 94.4062 217.912 94.8014 217.598 95.1652L217.382 95.4132V95.4628C216.976 95.8574 216.54 96.2126 216.079 96.5243C216.428 98.2591 217.119 99.888 218.101 101.296L218.263 100.612C218.263 100.681 218.263 101.008 218.263 101.524C218.621 101.992 219.035 102.402 219.495 102.744C219.85 101.903 220.165 101.042 220.439 100.165C220.439 100.026 220.519 99.8774 220.555 99.7385L220.645 99.431L220.735 99.1334L220.825 98.7267L220.96 98.0818C221.154 97.3703 221.316 96.6485 221.445 95.9192L221.625 95.1156C223.054 88.2903 223.926 82.0107 221.131 75.3739C218.335 68.7371 211.845 62.4078 206.253 59.9078C202.744 58.2717 198.97 57.4413 195.16 57.4674C192.852 57.4984 190.557 57.8483 188.328 58.509C184.252 59.8211 180.542 62.2472 177.541 65.5625C174.447 68.9794 172.168 73.1886 170.907 77.8143L170.781 78.2607C170.466 79.5206 170.197 80.721 169.972 81.9809C169.864 82.5067 169.792 83.0424 169.711 83.588C169.63 84.1336 169.567 84.9174 169.513 85.5721C172.336 80.9988 181.721 79.9174 187.043 80.0464Z" fill="#3A2007"/>
<path d="M218.11 101.297L218.065 101.515C218.136 101.615 218.211 101.711 218.29 101.803V101.525C218.245 101.456 218.173 101.376 218.11 101.297Z" fill="#3A2007"/>
<path d="M218.245 100.611L218.083 101.296C218.146 101.375 218.2 101.455 218.263 101.524C218.245 101.008 218.245 100.681 218.245 100.611Z" fill="#3A2007"/>
<path d="M185.883 100.721C180.22 96.6136 176.085 105.473 179.591 103.856C180.276 102.744 181.227 101.864 182.337 101.311C183.447 100.757 184.675 100.553 185.883 100.721Z" fill="#561D3E"/>
<path d="M184.697 107.456C184.679 108.351 184.972 109.22 185.515 109.886C186.414 111.047 187.627 111.424 188.319 110.729C189.011 110.035 188.769 108.517 187.879 107.347C187.443 106.708 186.797 106.284 186.081 106.166C185.547 106.492 185.077 106.93 184.697 107.456Z" fill="#561D3E"/>
<path d="M190.711 105.671C190.116 105.273 189.452 105.018 188.762 104.923C188.072 104.828 187.372 104.894 186.707 105.118C186.042 105.342 185.427 105.718 184.902 106.222C184.378 106.725 183.955 107.346 183.663 108.042C183.643 108.08 183.629 108.122 183.624 108.166C183.619 108.21 183.622 108.255 183.633 108.298C183.644 108.34 183.662 108.38 183.688 108.414C183.713 108.449 183.744 108.477 183.78 108.498C183.813 108.521 183.851 108.536 183.89 108.541C183.929 108.546 183.969 108.541 184.006 108.527C184.043 108.513 184.077 108.489 184.105 108.459C184.132 108.428 184.154 108.39 184.166 108.349C184.317 108.034 184.494 107.735 184.697 107.456C184.698 107.271 184.733 107.088 184.8 106.918C184.866 106.747 184.962 106.593 185.083 106.464C185.219 106.331 185.379 106.231 185.553 106.173C185.727 106.115 185.91 106.099 186.09 106.127C186.761 105.72 187.518 105.516 188.283 105.535C189.049 105.554 189.796 105.796 190.45 106.236C190.51 106.258 190.573 106.26 190.634 106.243C190.695 106.225 190.749 106.188 190.792 106.137C190.836 106.063 190.853 105.973 190.838 105.886C190.823 105.798 190.777 105.721 190.711 105.671Z" fill="#561D3E"/>
<path d="M185.083 106.505C184.962 106.633 184.866 106.788 184.8 106.958C184.733 107.128 184.698 107.311 184.697 107.497C185.079 106.97 185.553 106.531 186.09 106.207C185.913 106.174 185.731 106.183 185.557 106.234C185.383 106.286 185.222 106.378 185.083 106.505Z" fill="#561D3E"/>
<path d="M192.176 130.165C192.742 130.453 193.722 130.899 193.974 131.048C195.242 128.544 196.828 126.252 198.684 124.243C198.684 124.243 194.073 123.052 192.176 130.165Z" fill="#EDFBFB"/>
<path d="M170.251 97.9023C169.34 98.5633 168.398 99.1694 167.428 99.7178L167.131 99.8666C165.611 100.738 163.948 101.267 162.241 101.424C164.588 103.133 167.35 104.011 170.161 103.944C170.617 103.33 171.015 102.665 171.347 101.96C170.909 100.633 170.542 99.2778 170.251 97.9023Z" fill="#3A2007"/>
<path d="M162.241 101.425C161.502 101.519 160.753 101.42 160.055 101.136C159.357 100.851 158.729 100.39 158.223 99.7886C157.585 98.84 157.168 97.7327 157.009 96.5645L155.104 98.0624C155.104 98.0624 164.506 111.296 170.161 103.945C167.35 104.013 164.588 103.134 162.241 101.425Z" fill="#3A2007"/>
<path d="M181.218 87.2891L179.887 88.8267C179.195 89.6303 178.467 90.4735 177.694 91.2672C175.398 93.7271 172.907 95.9549 170.25 97.9238C170.542 99.2993 170.909 100.654 171.347 101.981C171.545 101.565 171.734 101.118 171.923 100.632L181.218 87.2891Z" fill="#3A2007"/>
<path d="M162.241 101.424C163.948 101.268 165.611 100.738 167.131 99.8667L167.428 99.7179C168.398 99.1694 169.34 98.5634 170.251 97.9024C169.63 95.0234 169.328 92.072 169.352 89.1129C169.352 88.3192 169.352 87.5157 169.415 86.7617L157.225 96.3846C158.562 98.4298 160.271 100.146 162.241 101.424Z" fill="#3A2007"/>
<path d="M162.241 101.424C160.274 100.145 158.569 98.429 157.234 96.3848L157.009 96.5633C157.168 97.7316 157.585 98.8389 158.223 99.7875C158.729 100.389 159.357 100.85 160.055 101.135C160.753 101.419 161.502 101.518 162.241 101.424Z" fill="#3A2007"/>
<path d="M170.251 97.9027C172.907 95.9338 175.398 93.706 177.694 91.2461C178.467 90.4524 179.195 89.6092 179.887 88.8056L181.218 87.268L175.959 81.6133L169.424 86.762C169.379 87.516 169.37 88.3195 169.361 89.1132C169.335 92.0719 169.633 95.0233 170.251 97.9027Z" fill="#3A2007"/>
<path d="M215.054 128.568C215.054 128.568 220.789 111.475 231.235 109.799L235.289 119.184L225.194 137.725L215.054 128.568Z" fill="#145A7B"/>
<path d="M131.497 100.184C137.703 100.184 142.734 94.6321 142.734 87.7834C142.734 80.9347 137.703 75.3828 131.497 75.3828C125.291 75.3828 120.26 80.9347 120.26 87.7834C120.26 94.6321 125.291 100.184 131.497 100.184Z" fill="white"/>
<path d="M64.9756 126.971C34.9869 126.971 10.5896 101.822 10.5896 70.9198C10.5896 40.0175 34.9869 14.8691 64.9756 14.8691C94.9643 14.8691 119.362 40.0175 119.362 70.9198C119.362 101.822 94.9643 126.971 64.9756 126.971ZM64.9756 20.8214C37.9624 20.8214 15.9833 43.2913 15.9833 70.9198C15.9833 98.5484 37.9624 121.018 64.9756 121.018C91.9888 121.018 113.968 98.5484 113.968 70.9198C113.968 43.2913 91.9888 20.8214 64.9756 20.8214Z" fill="#DFEBF4"/>
<path d="M121.159 168.637L119.362 152.764L131.497 149.877L134.266 179.539C134.266 179.539 124.755 177.565 121.159 168.637Z" fill="#000407"/>
<path d="M74.792 68.9146C74.792 68.9146 76.7607 61.0477 83.269 62.1291C83.269 62.1291 89.1571 61.9009 86.0378 54.1232C86.0378 54.1232 83.5477 48.7166 90.6313 49.8673C90.6313 49.8673 98.9376 52.0399 97.3105 44.9071C97.3105 44.9071 97.2386 41.8814 91.1078 37.4469C91.1078 37.4469 85.5254 32.4867 91.3685 32.9827C93.1642 32.7962 94.9755 33.0019 96.6992 33.5878C96.6992 33.5878 106.318 35.0759 102.192 27.0602C101.366 24.9825 100.065 23.1774 98.4162 21.8222C98.4162 21.8222 100.897 18.846 96.9959 15.6219C96.9959 15.6219 90.4695 9.25292 85.7411 11.5346C85.7411 11.5346 82.8645 12.6358 86.8468 18.6575C86.8468 18.6575 87.9525 21.5741 83.1432 20.8301C83.1432 20.8301 69.8748 20.6615 78.4687 30.8597C78.4687 30.8597 84.9231 38.4191 81.4891 40.3437C81.4891 40.3437 75.7449 42.3873 78.9631 48.4487C78.9631 48.4487 82.9274 59.2025 77.7945 59.7283C77.7945 59.7283 74.747 60.5616 74.8369 67.3373L74.792 68.9146Z" fill="#C6C8CE"/>
<path d="M72.6165 46.1077L74.2076 58.4587L74.4323 60.2344H74.684H74.9357V60.165L73.0479 45.6216L72.994 45.2148L72.8053 45.6613L72.6165 46.1077Z" fill="#47413F"/>
<path d="M74.5402 39.9873C75.2319 38.3196 76.1404 36.7722 77.2371 35.3941C77.3035 35.318 77.3873 35.2631 77.4797 35.2354C77.4424 35.1457 77.3865 35.067 77.3163 35.0058C77.2461 34.9446 77.1638 34.9026 77.0761 34.8832C76.9885 34.8639 76.8978 34.8677 76.8117 34.8944C76.7257 34.9212 76.6465 34.97 76.5808 35.037C75.4535 36.3727 74.5142 37.8876 73.7941 39.5309C70.7287 45.6122 68.4724 50.6915 64.8047 57.6259C65.2901 57.8342 65.7755 58.0326 66.261 58.2112C69.605 51.247 71.7176 46.128 74.5402 39.9873Z" fill="#52A8AA"/>
<path d="M74.5403 39.9879C71.6906 46.1287 69.6051 51.2477 66.261 58.2118H67.1599C69.2724 53.827 70.9085 50.0274 72.5536 46.089L72.4996 45.6922L72.4277 45.1168L72.9132 45.0374V45.2061C73.9829 42.6863 75.0886 40.0871 76.3651 37.2697C76.594 36.7938 76.8985 36.3671 77.264 36.0098C77.3577 35.9169 77.4196 35.7913 77.4393 35.654C77.4589 35.5167 77.4351 35.3761 77.3719 35.2559C77.2795 35.2836 77.1957 35.3385 77.1292 35.4146C76.0721 36.7942 75.2002 38.3344 74.5403 39.9879Z" fill="#449696"/>
<path d="M72.4907 45.136L72.5627 45.7114L72.6166 46.1082L72.8054 45.6717L72.9941 45.2253V45.0566L72.4907 45.136Z" fill="#449696"/>
<path d="M37.6206 44.0747C40.7939 44.0747 47.0505 47.9932 47.0505 47.9932C47.0505 47.9932 48.1113 48.7075 49.6305 49.8186C50.8171 50.6023 52.3273 51.634 53.8465 52.7947C55.4863 53.9814 57.0593 55.2767 58.557 56.6737C59.3571 57.404 60.0726 58.2403 60.6875 59.1637C60.9109 59.5008 61.0756 59.881 61.1729 60.2847C61.1771 60.3441 61.1771 60.4039 61.1729 60.4633C61.2348 60.6849 61.2651 60.9159 61.2628 61.1478V63.2807L90.3615 63.4593L90.5233 63.5486C90.2145 63.3328 89.8862 63.1532 89.5435 63.0128L89.3367 62.9236C88.8685 62.7306 88.3915 62.565 87.9074 62.4275C87.9074 62.4275 81.4081 61.9613 74.4233 61.1775C69.8747 60.6716 67.7531 59.5704 66.8182 58.8661C66.8182 58.9752 66.7194 59.0744 66.6654 59.1835C66.3983 59.6773 66.0978 60.1482 65.7665 60.5922C65.6205 60.843 65.4019 61.0318 65.1462 61.128C64.9149 61.2003 64.6688 61.1902 64.443 61.0991C64.2172 61.008 64.0232 60.8406 63.8887 60.6207C63.7542 60.4007 63.686 60.1396 63.6939 59.8744C63.7018 59.6092 63.7854 59.3536 63.9327 59.1439L64.7058 57.6657C62.0894 56.5421 59.5883 55.1155 57.2445 53.4098C53.2083 50.5031 48.7495 47.3286 47.518 46.5647C42.8615 43.6877 37.0183 42.1699 29.2245 42.1699H25.5568C25.0804 42.8247 24.6579 43.4695 24.1904 44.154L37.6206 44.0747Z" fill="#52A8AA"/>
<path d="M61.3077 77.8345C63.047 76.2547 65.075 75.1082 67.2529 74.4733C69.4308 73.8385 71.7073 73.7302 73.9267 74.156C76.146 74.5818 78.2558 75.5315 80.1118 76.9403C81.9677 78.3491 83.5261 80.1837 84.6802 82.3185H96.6901C96.6901 82.2293 96.6901 82.14 96.6901 82.0507C96.6985 81.3266 96.6503 80.603 96.5463 79.888C96.4833 79.4912 96.4294 79.0944 96.3755 78.7075C96.4294 79.0944 96.4833 79.4912 96.5463 79.888H94.2989C94.1062 79.9013 93.9147 79.8458 93.7528 79.7297C93.5909 79.6135 93.4672 79.443 93.4 79.2432L93.0224 77.8345C93.0035 77.7517 93.0028 77.6651 93.0203 77.5819C93.0379 77.4988 93.0732 77.4214 93.1234 77.3564C93.1735 77.2914 93.237 77.2405 93.3086 77.208C93.3802 77.1756 93.4577 77.1625 93.5348 77.1698H96.1238C96.1238 77.517 96.2227 77.8841 96.2766 78.2511C96.2227 77.8841 96.1687 77.517 96.1238 77.1698C95.908 75.6917 95.6923 74.3425 95.4496 73.1024C95.4538 73.0364 95.4538 72.9701 95.4496 72.904C95.3989 72.9774 95.3336 73.037 95.2588 73.0782C95.184 73.1195 95.1017 73.1413 95.0181 73.1421H87.8984C87.5983 73.1403 87.3025 73.0635 87.0332 72.9174C86.7638 72.7714 86.528 72.5599 86.3433 72.2989C86.1702 72.0704 86.0443 71.8029 85.9747 71.5151L85.0758 68.0033C85.0274 67.8078 85.0206 67.6027 85.0557 67.4038C85.0908 67.2049 85.1669 67.0176 85.2782 66.8564C85.3895 66.6953 85.5329 66.5645 85.6973 66.4744C85.8618 66.3843 86.0428 66.3371 86.2264 66.3366H92.3662C92.6208 66.3385 92.871 66.4101 93.0944 66.545C93.0944 66.4755 93.0134 66.4061 92.9685 66.3366C92.5008 65.6171 91.9676 64.9523 91.3773 64.3526L61.1279 64.1641L61.3077 77.8345Z" fill="#52A8AA"/>
<path d="M33.6113 64.0342L16.5314 63.8457C15.6631 69.9993 15.9353 76.2835 17.3315 82.3176H33.6203L33.6113 64.0342Z" fill="#52A8AA"/>
<path d="M86.7029 88.5377C87.7366 88.5377 91.4583 88.7758 93.6787 87.9623C94.1543 87.7328 94.6519 87.5631 95.1619 87.4564C95.2814 87.4417 95.402 87.4417 95.5215 87.4564C95.8916 86.6237 96.1779 85.7488 96.3755 84.8473C96.3755 84.7779 96.3755 84.6985 96.3755 84.6191H85.696C86.1747 85.8753 86.5128 87.1912 86.7029 88.5377Z" fill="#52A8AA"/>
<path d="M34.2317 88.5982H55.8063C55.992 87.2122 56.3301 85.8563 56.8131 84.5605H34.2317V88.5982Z" fill="#52A8AA"/>
<path d="M54.2691 64.2334C54.1001 64.2288 53.9318 64.2089 53.7657 64.1739C52.0488 64.2632 50.7003 64.2235 50.7003 64.2235L34.2317 64.0449V82.3284H57.802C58.6107 80.8478 59.6168 79.5101 60.7865 78.3602L60.6696 64.2632L54.2691 64.2334ZM45.3606 67.6361C45.3606 67.8037 45.3305 67.9697 45.2722 68.1244C45.2138 68.2791 45.1282 68.4195 45.0204 68.5375C44.9126 68.6556 44.7847 68.7489 44.6441 68.8122C44.5034 68.8754 44.3528 68.9073 44.201 68.9059H39.086C38.7808 68.9059 38.4881 68.7722 38.2723 68.534C38.0566 68.2959 37.9354 67.9729 37.9354 67.6361C37.9305 67.5602 37.9305 67.4839 37.9354 67.408C37.9309 67.3452 37.9309 67.2822 37.9354 67.2195C37.9353 66.9949 38.0155 66.7794 38.1586 66.6197C38.3016 66.4599 38.496 66.3689 38.6994 66.3663H44.5875C44.7918 66.3689 44.9871 66.4596 45.1316 66.619C45.2761 66.7785 45.3583 66.994 45.3606 67.2195C45.3692 67.2819 45.3692 67.3455 45.3606 67.408C45.37 67.4837 45.37 67.5604 45.3606 67.6361Z" fill="#52A8AA"/>
<path d="M17.8799 84.5605C18.2754 86.0288 18.6979 87.378 19.1204 88.5982H33.6114V84.5605H17.8799Z" fill="#52A8AA"/>
<path d="M61.1461 64.0254C61.0327 64.1547 60.8777 64.2296 60.7146 64.2337L60.8315 78.3307C61.0023 78.1621 61.173 77.9934 61.3528 77.8347L61.2449 64.1345H61.191L61.1461 64.0254Z" fill="#52A8AA"/>
<path d="M61.3078 63.2617V63.5693C61.3092 63.7075 61.2715 63.8427 61.2 63.9561V64.1347L91.4494 64.3232C91.2876 64.1546 91.1258 63.9958 90.946 63.8371C90.946 63.8371 90.946 63.8371 90.946 63.7875L90.8291 63.6883L90.6134 63.5296L90.4516 63.4403L61.3078 63.2617Z" fill="#52A8AA"/>
<path d="M61.146 64.1337H61.1999V63.9551L61.146 64.0245V64.1337Z" fill="#52A8AA"/>
<path d="M65.2453 61.109C65.1776 60.9101 65.1594 60.6947 65.1926 60.4854C65.2258 60.2761 65.3092 60.0804 65.4341 59.9186C65.7128 59.3333 65.9914 58.7678 66.2611 58.2123C65.7757 58.0337 65.2902 57.8353 64.8048 57.627L64.0317 59.1051C63.8768 59.3141 63.7868 59.5724 63.775 59.8421C63.7632 60.1118 63.8302 60.3785 63.9661 60.603C64.1021 60.8274 64.2997 60.9978 64.53 61.0889C64.7603 61.18 65.0111 61.1871 65.2453 61.109Z" fill="#52A8AA"/>
<path d="M66.2611 58.2109C65.9915 58.7665 65.7128 59.332 65.4341 59.9173C65.3092 60.079 65.2259 60.2747 65.1927 60.4841C65.1595 60.6934 65.1777 60.9088 65.2453 61.1077C65.501 61.0116 65.7196 60.8228 65.8656 60.572C66.1969 60.128 66.4974 59.6571 66.7646 59.1633C66.8185 59.0542 66.8724 58.955 66.9174 58.8458C66.6651 58.6806 66.4426 58.4654 66.2611 58.2109Z" fill="#52A8AA"/>
<path d="M17.3225 82.3281C17.4933 83.1019 17.6821 83.8559 17.8798 84.5701H33.6113V82.3281H17.3225Z" fill="#368482"/>
<path d="M34.2317 84.5604H56.7772C57.0717 83.7879 57.4141 83.0388 57.802 82.3184H34.2317V84.5604Z" fill="#368482"/>
<path d="M85.6962 84.5604H96.4296C96.5797 83.8239 96.664 83.073 96.6813 82.3184H84.6714C85.0663 83.0345 85.409 83.7842 85.6962 84.5604Z" fill="#368482"/>
<path d="M55.7705 88.5977H19.1206C19.6959 90.2246 20.2623 91.5738 20.7567 92.6948H55.6536C55.6536 92.1988 55.5907 91.7028 55.5907 91.1671C55.5911 90.3068 55.6513 89.4478 55.7705 88.5977Z" fill="#368482"/>
<path d="M95.5216 87.4473C94.9194 88.952 93.9479 90.2408 92.7168 91.1682C91.4856 92.0956 90.044 92.6245 88.5548 92.6952H86.8289C86.8331 92.7148 86.8331 92.7351 86.8289 92.7547H92.7798C94.8654 92.7547 96.4296 91.9512 96.8341 89.8877C97.0678 88.6278 96.6363 87.4869 95.5216 87.4473Z" fill="#368482"/>
<path d="M95.162 87.456C94.6519 87.5628 94.1543 87.7325 93.6787 87.962C91.4583 88.7754 87.7367 88.4977 86.7029 88.5374C86.8297 89.4067 86.8928 90.2858 86.8917 91.1663C86.8917 91.6822 86.8917 92.1583 86.8287 92.694H88.5547C90.0439 92.6233 91.4855 92.0944 92.7166 91.167C93.9478 90.2397 94.9193 88.9508 95.5215 87.4461C95.4017 87.4347 95.2811 87.438 95.162 87.456Z" fill="#368482"/>
<path d="M58.6381 92.6953H55.6536V92.7541H59.4561H58.6381V92.6953Z" fill="#449696"/>
<path d="M83.8442 92.6953V92.7541H86.2983V92.6953H83.8442Z" fill="#449696"/>
<path d="M86.4424 88.5975C86.4424 88.5975 86.5143 88.538 86.703 88.538C86.5166 87.1746 86.1784 85.8418 85.6962 84.5698H83.2961V82.3278H84.6714C83.5173 80.1929 81.959 78.3584 80.103 76.9496C78.247 75.5408 76.1372 74.591 73.9179 74.1652C71.6985 73.7395 69.422 73.8477 67.2441 74.4826C65.0662 75.1175 63.0382 76.264 61.2989 77.8437V78.6969H60.7776V78.3596C59.6079 79.5095 58.6018 80.8472 57.7931 82.3278H59.0696V84.5698H56.7683C56.2853 85.8655 55.9472 87.2214 55.7615 88.6074H57.065V92.7046H58.6291C58.5748 92.1976 58.5477 91.6874 58.5482 91.1768C58.5482 87.4644 59.8846 83.904 62.2633 81.2789C64.642 78.6538 67.8683 77.1791 71.2323 77.1791C74.5963 77.1791 77.8225 78.6538 80.2012 81.2789C82.58 83.904 83.9163 87.4644 83.9163 91.1768C83.9168 91.6874 83.8898 92.1976 83.8354 92.7046H86.2896C86.4173 91.3404 86.4683 89.9687 86.4424 88.5975Z" fill="#449696"/>
<path d="M60.7864 78.6871H61.3077V77.834C61.1279 77.9927 60.9572 78.1614 60.7864 78.33V78.6871Z" fill="#449696"/>
<path d="M59.0784 84.5602V82.3281H57.8019C57.414 83.0486 57.0716 83.7977 56.7771 84.5701L59.0784 84.5602Z" fill="#449696"/>
<path d="M83.2959 84.5604H85.6961C85.4089 83.7842 85.0662 83.0345 84.6713 82.3184H83.2959V84.5604Z" fill="#449696"/>
<path d="M55.7704 88.5977C55.6512 89.4478 55.591 90.3068 55.5906 91.1671C55.5906 91.6829 55.5906 92.1591 55.6535 92.6948H57.0739V88.5977H55.7704Z" fill="#449696"/>
<path d="M86.2983 92.6953V92.7541H86.8197C86.8239 92.7348 86.8239 92.7146 86.8197 92.6953H86.2983Z" fill="#449696"/>
<path d="M86.7029 88.5391C86.5141 88.5391 86.4152 88.5391 86.4422 88.5986C86.4707 89.9663 86.4227 91.3346 86.2983 92.6957H86.8287C86.8287 92.1898 86.8917 91.7037 86.8917 91.168C86.8928 90.2875 86.8297 89.4084 86.7029 88.5391Z" fill="#449696"/>
<path d="M67.061 58.518L67.1958 58.2402H66.2969L67.061 58.518Z" fill="#449696"/>
<path d="M74.5492 61.1288L74.4323 60.2359L73.7131 60.1169C73.3356 60.064 72.967 60.0044 72.6074 59.9383C71.7085 59.7994 70.9084 59.6209 70.0634 59.4026C69.0566 59.1546 68.0588 58.857 67.061 58.5098L66.8992 58.8471C67.7981 59.5514 69.9555 60.6526 74.5042 61.1585C81.453 61.9422 87.9883 62.4085 87.9883 62.4085C84.7072 61.4661 79.6821 60.9899 74.9717 60.3054L75.0705 61.0593L74.5492 61.1288Z" fill="#449696"/>
<path d="M74.4143 60.2344L74.5312 61.1272L75.0166 61.0578L74.9177 60.3038H74.666L74.4143 60.2344Z" fill="#449696"/>
<path d="M66.261 58.2109C66.4371 58.4635 66.6534 58.6787 66.8993 58.8458L67.0611 58.5086L66.261 58.2109Z" fill="#449696"/>
<path d="M37.8364 44.7291C41.0007 44.7291 47.0236 48.1517 47.2753 48.3005C47.2753 48.3005 48.2461 48.8957 49.6215 49.8084C48.1023 48.6973 47.0416 47.9831 47.0416 47.9831C47.0416 47.9831 40.749 44.0645 37.6117 44.0645H24.2893L23.8489 44.7192L37.8364 44.7291Z" fill="#449696"/>
<path d="M33.6113 63.4792L16.6124 63.3105C16.6124 63.509 16.5584 63.6974 16.5225 63.8859L33.6024 64.0744L33.6113 63.4792Z" fill="#449696"/>
<path d="M52.2825 63.6075H50.7093L34.2317 63.4785V64.0738L50.7003 64.2523C50.7003 64.2523 52.0488 64.2523 53.7657 64.2027C53.3803 64.1063 53.0203 63.9127 52.7139 63.6372L52.2825 63.6075Z" fill="#449696"/>
<path d="M40.0209 59.6492C41.2705 61.3059 44.255 61.0678 44.255 61.0678H51.878C51.979 60.4485 52.2736 59.888 52.7105 59.4837C53.1475 59.0795 53.699 58.8572 54.2692 58.8555H59.2583C59.4048 58.8404 59.5523 58.8404 59.6988 58.8555L59.537 58.6472C57.7163 56.6497 55.6991 54.8828 53.5231 53.3794C50.3048 50.9985 47.1586 49.0343 47.0147 48.945C46.8709 48.8557 40.848 45.4629 37.8814 45.4629H37.5039C37.5039 45.4629 38.9512 58.2305 40.0209 59.6492Z" fill="#DDE5ED"/>
<path d="M18.68 61.0678H31.0585L31.5169 45.4629H23.3635C20.3568 50.1708 18.1963 55.4716 16.999 61.0777C18.0058 61.0976 18.68 61.0678 18.68 61.0678Z" fill="#DDE5ED"/>
<path d="M60.4179 59.253C60.7958 59.5422 61.0769 59.9605 61.218 60.4435C61.2222 60.3841 61.2222 60.3244 61.218 60.2649C61.1207 59.8612 60.9561 59.4811 60.7326 59.1439C60.1177 58.2205 59.4021 57.3842 58.602 56.6539C57.1044 55.257 55.5314 53.9616 53.8916 52.775C52.3634 51.644 50.8621 50.6123 49.6755 49.7988C51.3026 50.9893 53.4601 52.6262 55.4647 54.3523C57.5952 56.0586 59.5729 57.8344 60.4179 59.253Z" fill="#449696"/>
<path d="M33.6115 63.4792V62.8542L16.7204 62.6855C16.7204 62.8939 16.6395 63.1022 16.6125 63.3105L33.6115 63.4792Z" fill="#449696"/>
<path d="M52.2195 62.9829C51.3206 62.9829 50.7183 62.9829 50.7183 62.9829L34.2317 62.8242V63.479L50.7093 63.6377H52.7139C52.519 63.4495 52.3521 63.2285 52.2195 62.9829Z" fill="#449696"/>
<path d="M33.6113 62.8052L16.7202 62.6465L33.6113 62.8052Z" fill="#449696"/>
<path d="M47.2754 48.2999C47.0237 48.1511 40.9828 44.7285 37.8365 44.7285H23.849L23.5164 45.2543H37.8994C41.0098 45.2543 47.1405 48.6967 47.1405 48.6967C47.1405 48.6967 51.6353 51.405 55.4198 54.3712C53.4152 52.6451 51.2577 51.0082 49.6306 49.8177C48.2552 48.905 47.3024 48.3197 47.2844 48.3098L47.2754 48.2999Z" fill="#449696"/>
<path d="M59.9593 58.996C60.1208 59.0619 60.2746 59.1485 60.4178 59.2539C59.5728 57.8353 57.5951 56.0595 55.4197 54.373C57.076 55.7335 58.5977 57.2831 59.9593 58.996Z" fill="#449696"/>
<path d="M33.6114 62.7151H31.0225L16.7383 62.5762V62.6754L33.6294 62.844V62.7448L33.6114 62.7151Z" fill="#449696"/>
<path d="M36.2723 45.463H37.8365C40.803 45.463 46.7629 48.836 46.9697 48.9451C47.1764 49.0542 50.2599 50.9986 53.4781 53.3796C55.6542 54.8829 57.6713 56.6498 59.492 58.6473L59.6538 58.8556L59.9145 58.9449C58.5669 57.2347 57.0604 55.6852 55.4198 54.322C51.5903 51.3459 47.1405 48.6475 47.1405 48.6475C47.1405 48.6475 41.0097 45.2051 37.8994 45.2051H34.2317V45.4134L36.2723 45.463Z" fill="#449696"/>
<path d="M33.6114 62.7157L31.0315 62.6859L16.7383 62.5371L31.0315 62.6859L33.6114 62.7157Z" fill="#449696"/>
<path d="M34.2317 62.7246V62.8139L50.7183 62.9726C50.7183 62.9726 51.3116 62.9726 52.2195 62.9726L37.2791 62.7544L34.2317 62.7246Z" fill="#449696"/>
<path d="M31.535 45.4642H33.6115V45.2559H23.5164L23.3816 45.4642H31.535Z" fill="#449696"/>
<path d="M31.0764 61.0678L31.0315 62.6749L33.6115 62.7047V45.4629H31.5349L31.0764 61.0678Z" fill="#47413F"/>
<path d="M34.2317 62.7047L37.2701 62.7444L36.2723 45.4629H34.2317V62.7047Z" fill="#47413F"/>
<path d="M34.2317 62.7051V62.7247L37.2701 62.7541V62.7443L34.2317 62.7051Z" fill="#47413F"/>
<path d="M33.6115 62.715V62.7052L31.0315 62.6758V62.6856L33.6115 62.715Z" fill="#47413F"/>
<path d="M37.2702 62.7444L50.7544 62.8733H52.2017C51.986 62.4669 51.8713 62.005 51.869 61.5341C51.8549 61.3757 51.8549 61.2162 51.869 61.0579H44.246C44.246 61.0579 41.2616 61.296 40.012 59.6393C38.9423 58.2206 37.45 45.4629 37.45 45.4629H36.2634L37.2702 62.7444Z" fill="#C0D3E2"/>
<path d="M52.2105 62.9741C52.2075 62.9444 52.2075 62.9145 52.2105 62.8848H50.7632L37.2791 62.7559L52.2105 62.9741Z" fill="#C0D3E2"/>
<path d="M61.1731 61.1975V63.251H61.29V61.1181C61.2923 60.8862 61.2619 60.6553 61.2 60.4336C61.2479 60.6868 61.2387 60.9491 61.1731 61.1975Z" fill="#47413F"/>
<path d="M53.7388 64.1742C53.9048 64.2092 54.0732 64.2291 54.2422 64.2337H60.6426V62.3984C59.5459 63.6286 56.2648 64.0353 53.7388 64.1742Z" fill="#47413F"/>
<path d="M61.0472 61.495C61.0409 61.6904 60.9915 61.8811 60.9033 62.0506C60.836 62.1741 60.7544 62.2875 60.6606 62.3879V64.2232C60.8237 64.219 60.9787 64.1442 61.0921 64.0148V63.241V61.1875C61.088 61.2916 61.073 61.3948 61.0472 61.495Z" fill="#47413F"/>
<path d="M61.1999 63.9561C61.2715 63.8427 61.3092 63.7075 61.3078 63.5693V63.2617H61.1909L61.1999 63.9561Z" fill="#47413F"/>
<path d="M61.146 63.252V64.0257L61.1999 63.9563V63.252H61.146Z" fill="#47413F"/>
<path d="M60.6606 62.3973V61.9707C59.7616 62.7247 58.0447 63.2108 55.2669 63.4588C54.8894 63.4588 54.5118 63.5183 54.1433 63.5381C53.6219 63.5381 53.1274 63.5877 52.678 63.6076C52.9844 63.8831 53.3443 64.0766 53.7297 64.173C56.2647 64.0342 59.5459 63.6274 60.6606 62.3973Z" fill="#47413F"/>
<path d="M60.9302 62.0614C61.0184 61.8919 61.0678 61.7012 61.074 61.5059C61.0168 61.5999 60.9538 61.6894 60.8853 61.7737L60.6875 61.9721V62.3987C60.7813 62.2983 60.8629 62.185 60.9302 62.0614Z" fill="#47413F"/>
<path d="M54.2691 58.8555C53.699 58.8571 53.1474 59.0794 52.7105 59.4837C52.2736 59.8879 51.9789 60.4485 51.8779 61.0677H52.6151V62.8733C53.3882 62.8733 54.332 62.8137 55.3119 62.7245C59.2583 62.3772 60.2831 61.5538 60.5437 61.1074C60.5937 61.0067 60.6243 60.8957 60.6336 60.7813C60.6429 60.6669 60.6307 60.5517 60.5977 60.4428C60.4198 59.869 60.1315 59.3444 59.7527 58.9051C59.6062 58.8899 59.4587 58.8899 59.3122 58.9051L54.2691 58.8555Z" fill="#47413F"/>
<path d="M60.418 59.2539C60.6719 59.6248 60.8219 60.0697 60.8494 60.5336C60.8494 60.5932 60.8944 60.6527 60.9124 60.7023H61.1731V61.1983C61.2432 60.9547 61.2586 60.696 61.218 60.4444C61.077 59.9614 60.7958 59.5431 60.418 59.2539Z" fill="#47413F"/>
<path d="M61.047 61.4948C61.0999 61.4017 61.1422 61.3017 61.1729 61.1972V60.7012H60.9302C61.0237 60.9563 61.0696 61.2296 61.065 61.5047L61.047 61.4948Z" fill="#47413F"/>
<path d="M60.8403 60.7116H60.9302C60.9302 60.7116 60.9302 60.6025 60.8673 60.543C60.8623 60.5999 60.8533 60.6563 60.8403 60.7116Z" fill="#47413F"/>
<path d="M52.5611 62.9737H52.2195C52.3543 63.2087 52.5211 63.4194 52.7139 63.5986C53.1634 63.5986 53.6128 63.5986 54.1792 63.5292C54.5477 63.5292 54.9253 63.5292 55.3028 63.4498C57.9997 63.2018 59.7976 62.7157 60.6965 61.9618V61.1582C59.6897 62.5967 55.204 62.9042 52.606 62.9637L52.5611 62.9737Z" fill="#47413F"/>
<path d="M60.7145 61.0782L60.6516 61.1674V61.971L60.8494 61.7726C60.9178 61.6882 60.9809 61.5987 61.0381 61.5047C61.0427 61.2296 60.9968 60.9563 60.9033 60.7012H60.8314C60.816 60.8343 60.7762 60.9625 60.7145 61.0782Z" fill="#47413F"/>
<path d="M60.8494 60.5025C60.8219 60.0386 60.6719 59.5937 60.4179 59.2228C60.2748 59.1173 60.1209 59.0308 59.9595 58.9648C60.3206 59.4283 60.6202 59.9461 60.8494 60.5025Z" fill="#47413F"/>
<path d="M59.6986 58.9062C60.0775 59.3456 60.3657 59.8701 60.5436 60.4439C60.5766 60.5528 60.5889 60.6681 60.5796 60.7825C60.5703 60.8969 60.5397 61.0079 60.4897 61.1086C60.229 61.555 59.2042 62.3784 55.2579 62.7256C54.287 62.8149 53.3431 62.8546 52.561 62.8744V62.9737C55.15 62.9141 59.6357 62.6066 60.6515 61.1681V60.7118H60.8493C60.8537 60.6524 60.8537 60.5926 60.8493 60.5332C60.6173 59.9762 60.3146 59.4584 59.9503 58.9955L59.6986 58.9062Z" fill="#47413F"/>
<path d="M60.8404 60.7109H60.6426V61.1673L60.7055 61.078C60.7724 60.9669 60.8182 60.842 60.8404 60.7109Z" fill="#47413F"/>
<path d="M51.8778 61.0684C51.8636 61.2267 51.8636 61.3862 51.8778 61.5445C51.8801 62.0155 51.9948 62.4774 52.2104 62.8838H52.615V61.0783L51.8778 61.0684Z" fill="#47413F"/>
<path d="M52.1655 62.883C52.1626 62.9126 52.1626 62.9426 52.1655 62.9723H52.5251V62.873H52.1206L52.1655 62.883Z" fill="#47413F"/>
<path d="M31.0314 62.6755L31.0763 61.0684H18.6799C18.6799 61.0684 17.9877 61.0684 16.9989 61.0684C16.9 61.5545 16.8011 62.0604 16.7202 62.5267L31.0314 62.6755Z" fill="#C0D3E2"/>
<path d="M16.7383 62.5371L31.0315 62.6859V62.676L16.7383 62.5371Z" fill="#C0D3E2"/>
<path d="M34.2226 64.0352H33.6113V82.3186H34.2226V64.0352Z" fill="#449696"/>
<path d="M34.2226 84.5605H33.6113V88.5883H34.2226V84.5605Z" fill="#449696"/>
<path d="M34.2226 82.3184H33.6113V84.5703H34.2226V82.3184Z" fill="#449696"/>
<path d="M34.1867 63.4494L33.6563 63.4395H33.6113V64.0347L34.2316 64.0446V63.4494H34.1867Z" fill="#449696"/>
<path d="M33.6563 62.8146L33.6113 62.8047V63.4396H33.6563L34.1867 63.4495H34.2316V62.8146H33.6563Z" fill="#449696"/>
<path d="M33.6569 62.7148H33.6113V62.8051L33.6569 62.8151V62.7148Z" fill="#449696"/>
<path d="M33.6565 62.7148V62.8141H34.2318V62.7248L33.6565 62.7148Z" fill="#449696"/>
<path d="M34.2226 45.2559H33.6113V45.4741H34.2226V45.2559Z" fill="#449696"/>
<path d="M34.1867 62.7047H34.2316V45.4629H33.6113V62.7047H33.6563H34.1867Z" fill="#449696"/>
<path d="M34.2318 62.7051H34.1869H33.6565V62.7149L34.2318 62.7247V62.7051Z" fill="#449696"/>
<path d="M33.6563 62.7149V62.7051H33.6113V62.7149H33.6563Z" fill="#449696"/>
<path d="M44.5875 68.0629H38.6994C38.5267 68.0615 38.3593 67.9963 38.2241 67.8776C38.0888 67.7589 37.9935 67.5937 37.9533 67.4082C37.9485 67.4842 37.9485 67.5604 37.9533 67.6364C37.9533 67.9731 38.0746 68.2961 38.2904 68.5343C38.5061 68.7724 38.7988 68.9062 39.104 68.9062H44.2189C44.3708 68.9075 44.5214 68.8756 44.662 68.8124C44.8027 68.7492 44.9306 68.6558 45.0384 68.5378C45.1462 68.4197 45.2318 68.2793 45.2902 68.1246C45.3485 67.9699 45.3786 67.804 45.3786 67.6364C45.388 67.5607 45.388 67.4839 45.3786 67.4082C45.3368 67.6021 45.2348 67.7738 45.0903 67.8934C44.9458 68.013 44.7679 68.073 44.5875 68.0629Z" fill="#449696"/>
<path d="M44.5875 66.3652H44.2009C44.4704 66.365 44.7313 66.4692 44.9383 66.6596C45.1453 66.8499 45.2852 67.1144 45.3336 67.4069C45.3422 67.3444 45.3422 67.2809 45.3336 67.2184C45.3315 66.9979 45.253 66.7867 45.1143 66.628C44.9756 66.4694 44.787 66.3754 44.5875 66.3652Z" fill="#67BABA"/>
<path d="M39.0861 66.3654H38.6995C38.496 66.368 38.3017 66.459 38.1587 66.6188C38.0156 66.7785 37.9354 66.994 37.9354 67.2186C37.931 67.2813 37.931 67.3443 37.9354 67.4071C37.9844 67.1112 38.1269 66.844 38.3376 66.6533C38.5483 66.4625 38.8136 66.3605 39.0861 66.3654Z" fill="#67BABA"/>
<path d="M44.201 66.3652H39.086C38.8166 66.365 38.5556 66.4692 38.3487 66.6596C38.1417 66.8499 38.0018 67.1144 37.9534 67.4069C37.9935 67.5923 38.0889 67.7576 38.2241 67.8763C38.3594 67.9949 38.5267 68.0602 38.6995 68.0616H44.5876C44.7603 68.0602 44.9277 67.9949 45.0629 67.8763C45.1982 67.7576 45.2935 67.5923 45.3337 67.4069C45.2853 67.1144 45.1454 66.8499 44.9384 66.6596C44.7314 66.4692 44.4705 66.365 44.201 66.3652Z" fill="#67BABA"/>
<path d="M96.3127 78.25C96.3127 78.3988 96.3128 78.5476 96.3757 78.7063C96.3577 78.5476 96.3307 78.3591 96.3127 78.25Z" fill="#DDDCDB"/>
<path d="M93.5708 77.1699C93.4937 77.1626 93.4162 77.1757 93.3446 77.2082C93.273 77.2406 93.2095 77.2915 93.1594 77.3565C93.1092 77.4216 93.0739 77.4989 93.0564 77.5821C93.0388 77.6652 93.0395 77.7518 93.0584 77.8346L93.436 79.2433C93.5032 79.4431 93.6269 79.6137 93.7888 79.7298C93.9507 79.846 94.1422 79.9015 94.3349 79.8881H96.5823C96.5193 79.4913 96.4654 79.0945 96.4115 78.7076C96.4115 78.5489 96.4115 78.4001 96.3486 78.2513C96.2946 77.8842 96.2407 77.5172 96.1957 77.1699H93.5708Z" fill="#DDDCDB"/>
<path d="M93.7237 67.4467V67.5261C93.748 67.5635 93.7691 67.6034 93.7867 67.6451C93.7867 67.6451 93.7867 67.7245 93.8496 67.7741L93.9305 67.9527C93.9935 68.0816 94.0474 68.2106 94.1013 68.3396L94.1822 68.5281L94.2272 68.6471C94.317 68.8753 94.407 69.1035 94.4879 69.3415C94.4879 69.3415 94.4879 69.4209 94.4879 69.4606L94.5328 69.5995C94.5682 69.6898 94.5982 69.7826 94.6227 69.8772C94.6227 69.8772 94.6227 69.9665 94.6227 70.0161C94.6227 70.0657 94.6227 70.1054 94.6227 70.155C94.6227 70.2046 94.6227 70.2443 94.6227 70.2939C94.6227 70.3435 94.6227 70.4427 94.6946 70.5122C94.6946 70.5816 94.6946 70.651 94.7576 70.7304C94.7584 70.7469 94.7584 70.7635 94.7576 70.78C94.7615 70.8229 94.7615 70.8661 94.7576 70.909L94.8474 71.2463C94.8474 71.2463 94.8474 71.3554 94.8474 71.405V71.5439C94.8474 71.6332 94.8474 71.7224 94.9104 71.8117V71.901V72.0597V72.1986C94.9296 72.2669 94.9446 72.3365 94.9553 72.407L95.0092 72.6451C95.0092 72.6451 95.0092 72.6947 95.0092 72.7145C95.064 72.6448 95.1025 72.5613 95.1213 72.4714C95.1401 72.3814 95.1387 72.2878 95.1172 72.1986C94.7741 70.3551 94.1672 68.5836 93.3193 66.9507C93.1821 66.7 92.9866 66.4944 92.7529 66.3555C92.9327 66.6332 93.0945 66.9209 93.2473 67.2086C93.3084 67.2813 93.382 67.3399 93.4638 67.3807C93.5456 67.4216 93.634 67.4441 93.7237 67.4467Z" fill="#DDDCDB"/>
<path d="M86.2985 66.2969C86.1149 66.2974 85.9338 66.3445 85.7694 66.4346C85.605 66.5248 85.4616 66.6555 85.3503 66.8167C85.239 66.9778 85.1629 67.1651 85.1278 67.364C85.0927 67.5629 85.0995 67.768 85.1479 67.9635L86.0468 71.4754C86.1164 71.7631 86.2422 72.0306 86.4153 72.2591C86.2422 72.0306 86.1164 71.7631 86.0468 71.4754L85.1479 67.9635C85.0995 67.768 85.0927 67.5629 85.1278 67.364C85.1629 67.1651 85.239 66.9778 85.3503 66.8167C85.4616 66.6555 85.605 66.5248 85.7694 66.4346C85.9338 66.3445 86.1149 66.2974 86.2985 66.2969H88.0065C88.1823 66.2996 88.3525 66.3662 88.4906 66.4863C88.6288 66.6065 88.7271 66.7735 88.7706 66.9615L89.8763 72.1301C89.9055 72.2472 89.9097 72.3701 89.8886 72.4892C89.8674 72.6084 89.8215 72.7204 89.7544 72.8166C89.6873 72.9128 89.6008 72.9905 89.5018 73.0435C89.4029 73.0965 89.2941 73.1235 89.1841 73.1222H95.0092C95.0928 73.1214 95.1752 73.0996 95.25 73.0583C95.3248 73.017 95.39 72.9574 95.4408 72.8841C95.4408 72.8841 95.4408 72.8345 95.4408 72.8146L95.3868 72.5765C95.3761 72.5061 95.3611 72.4365 95.3419 72.3682V72.2293V72.0706V71.9813C95.3419 71.892 95.3419 71.8027 95.2789 71.7135V71.5746C95.2789 71.525 95.2789 71.4654 95.2789 71.4158L95.189 71.0786C95.1929 71.0357 95.1929 70.9925 95.189 70.9496C95.1899 70.9331 95.1899 70.9165 95.189 70.9C95.189 70.8206 95.189 70.7512 95.1261 70.6817C95.1261 70.6123 95.1261 70.5428 95.0542 70.4635C94.9823 70.3841 95.0542 70.3742 95.0542 70.3246C95.0542 70.275 95.0542 70.2254 95.0542 70.1857C95.0542 70.146 95.0542 70.0865 95.0542 70.0468C95.0297 69.9522 94.9996 69.8594 94.9643 69.769L94.9193 69.6302C94.9193 69.6302 94.9193 69.5508 94.9193 69.5111C94.8384 69.273 94.7486 69.0449 94.6587 68.8167L94.6137 68.6976L94.1912 68.4397C94.1373 68.3107 94.0833 68.1818 94.0204 68.0528L93.9395 67.8742C93.9395 67.8742 93.9395 67.785 93.8766 67.7453C93.859 67.7035 93.8379 67.6637 93.8137 67.6262V67.5469C93.7894 67.5094 93.7683 67.4696 93.7507 67.4278C93.5979 67.1401 93.4361 66.8524 93.2563 66.5746C93.033 66.4397 92.7828 66.3681 92.5282 66.3663L86.2985 66.2969Z" fill="#DDDCDB"/>
<path d="M86.3794 72.2578C86.5641 72.5189 86.7999 72.7303 87.0693 72.8764C87.3386 73.0224 87.6344 73.0992 87.9345 73.101C87.6344 73.0992 87.3386 73.0224 87.0693 72.8764C86.7999 72.7303 86.5641 72.5189 86.3794 72.2578Z" fill="#AA6724"/>
<path d="M89.8762 72.1301L88.7975 66.9615C88.754 66.7735 88.6556 66.6065 88.5175 66.4863C88.3794 66.3662 88.2092 66.2996 88.0334 66.2969H86.3254C86.1418 66.2974 85.9607 66.3445 85.7963 66.4346C85.6319 66.5248 85.4884 66.6555 85.3772 66.8167C85.2659 66.9778 85.1897 67.1651 85.1546 67.364C85.1195 67.5629 85.1264 67.768 85.1747 67.9635L86.0737 71.4754C86.1433 71.7631 86.2691 72.0306 86.4422 72.2591C86.6269 72.5201 86.8628 72.7316 87.1321 72.8777C87.4015 73.0237 87.6973 73.1005 87.9974 73.1023H89.2469C89.3496 73.0928 89.4491 73.0588 89.5386 73.0026C89.6281 72.9464 89.7055 72.8694 89.7654 72.7769C89.8252 72.6844 89.8662 72.5786 89.8853 72.467C89.9045 72.3553 89.9013 72.2403 89.8762 72.1301Z" fill="#AA6724"/>
<path d="M58.6379 92.6936H59.456H61.0112V92.6348L58.6379 92.6936Z" fill="#2D241F"/>
<path d="M81.48 92.6953V92.7541H83.8532V92.6953H81.48Z" fill="#2D241F"/>
<path d="M71.2412 77.1797C69.5759 77.1784 67.9268 77.5393 66.3879 78.2416C64.8491 78.944 63.4507 79.9741 62.2728 81.2732C61.0948 82.5722 60.1604 84.1146 59.5228 85.8124C58.8853 87.5101 58.5571 89.3298 58.5571 91.1676C58.5567 91.6782 58.5837 92.1883 58.6381 92.6953H61.0023C60.9446 92.1885 60.9146 91.6784 60.9124 91.1676C60.9124 88.1419 62.0015 85.2401 63.9403 83.1005C65.879 80.961 68.5084 79.759 71.2502 79.759C73.992 79.759 76.6215 80.961 78.5602 83.1005C80.4989 85.2401 81.588 88.1419 81.588 91.1676C81.5858 91.6784 81.5558 92.1885 81.4981 92.6953H83.8624C83.9167 92.1883 83.9437 91.6782 83.9432 91.1676C83.9432 89.3282 83.6146 87.5068 82.9759 85.8078C82.3372 84.1088 81.4011 82.5654 80.2213 81.2661C79.0414 79.9668 77.641 78.9371 76.1001 78.2359C74.5591 77.5347 72.908 77.1758 71.2412 77.1797Z" fill="#2D241F"/>
<path d="M71.2411 98.9046C69.6319 98.9037 68.072 98.2919 66.8231 97.172C65.5742 96.052 64.7124 94.4921 64.3823 92.7539H61.0112C61.3553 95.4781 62.5803 97.9731 64.4604 99.7788C66.3405 101.584 68.7488 102.579 71.2411 102.579C73.7335 102.579 76.1419 101.584 78.0219 99.7788C79.902 97.9731 81.1271 95.4781 81.4711 92.7539H78.1001C77.77 94.4921 76.9082 96.052 75.6593 97.172C74.4104 98.2919 72.8504 98.9037 71.2411 98.9046Z" fill="#47413F"/>
<path d="M78.1091 92.6953V92.7541H81.4802V92.6953H78.1091Z" fill="#47413F"/>
<path d="M64.3732 92.6953H61.0022V92.7541H64.3732V92.6953Z" fill="#47413F"/>
<path d="M71.241 79.7695C68.5048 79.7748 65.8822 80.978 63.9491 83.1151C62.0159 85.2522 60.9302 88.1485 60.9302 91.1682C60.9324 91.679 60.9624 92.1891 61.02 92.6959H64.3911C64.1888 91.5751 64.2144 90.4187 64.4659 89.3101C64.7173 88.2015 65.1885 87.1682 65.8453 86.2847C66.5022 85.4012 67.3285 84.6895 68.2646 84.2008C69.2008 83.7121 70.2234 83.4586 71.259 83.4586C72.2946 83.4586 73.3173 83.7121 74.2534 84.2008C75.1896 84.6895 76.0158 85.4012 76.6727 86.2847C77.3296 87.1682 77.8007 88.2015 78.0522 89.3101C78.3036 90.4187 78.3292 91.5751 78.1269 92.6959H81.498C81.5556 92.1891 81.5856 91.679 81.5878 91.1682C81.5878 89.6696 81.3201 88.1858 80.7999 86.8015C80.2797 85.4173 79.5173 84.1598 78.5563 83.1011C77.5952 82.0424 76.4545 81.2032 75.1992 80.6315C73.944 80.0599 72.5989 79.7669 71.241 79.7695Z" fill="#47413F"/>
<path d="M77.1741 93.2397C77.1553 93.3327 77.1196 93.4205 77.0691 93.4978C77.0187 93.5751 76.9545 93.6403 76.8806 93.6894C76.8066 93.7386 76.7244 93.7706 76.6389 93.7837C76.5534 93.7968 76.4663 93.7906 76.3831 93.7655L73.8121 92.7734H73.2368L75.0347 95.7496C75.0813 95.8323 75.1116 95.9249 75.1237 96.0214C75.1357 96.1179 75.1293 96.2162 75.1047 96.3097C75.0801 96.4033 75.0379 96.4901 74.9809 96.5645C74.924 96.6389 74.8535 96.6993 74.774 96.7416L73.5514 97.4261C73.473 97.4758 73.3859 97.5063 73.2959 97.5155C73.2059 97.5248 73.1152 97.5125 73.0299 97.4795C72.9446 97.4466 72.8668 97.3937 72.8016 97.3246C72.7365 97.2555 72.6856 97.1717 72.6524 97.0789L71.4748 93.4083L70.4501 97.1285C70.4207 97.2247 70.3725 97.3126 70.309 97.3861C70.2454 97.4595 70.1681 97.5167 70.0824 97.5536C69.9967 97.5905 69.9048 97.6062 69.813 97.5996C69.7212 97.593 69.6318 97.5643 69.5511 97.5154L68.3016 96.8904C68.2183 96.8528 68.1433 96.796 68.0816 96.7236C68.0199 96.6513 67.973 96.5653 67.944 96.4712C67.9151 96.3772 67.9047 96.2774 67.9137 96.1786C67.9226 96.0798 67.9507 95.9842 67.9959 95.8984L69.7129 92.8131H69.3264L66.6296 94.0333C66.5476 94.0636 66.4609 94.0749 66.3748 94.0665C66.2887 94.0581 66.205 94.0302 66.1291 93.9846C66.0532 93.939 65.9867 93.8766 65.9336 93.8014C65.8805 93.7261 65.842 93.6396 65.8205 93.5472L65.6407 92.8131H64.3552C64.6803 94.5557 65.5402 96.1211 66.7897 97.2451C68.0393 98.3691 69.6021 98.9829 71.2142 98.9829C72.8263 98.9829 74.389 98.3691 75.6386 97.2451C76.8882 96.1211 77.748 94.5557 78.0731 92.8131H77.2371L77.1741 93.2397Z" fill="#DDDCDB"/>
<path d="M77.2642 92.7541H78.1002V92.6953H77.2732L77.2642 92.7541Z" fill="#DDDCDB"/>
<path d="M69.5333 92.6953L69.3984 92.7541H69.794L69.8209 92.6953H69.5333Z" fill="#DDDCDB"/>
<path d="M65.6588 92.6953H64.3733V92.7541H65.6588V92.6953Z" fill="#DDDCDB"/>
<path d="M73.2009 92.6953L73.2369 92.7541H73.8122L73.6594 92.6953H73.2009Z" fill="#DDDCDB"/>
<path d="M71.5378 92.3574C71.6883 92.3353 71.8343 92.285 71.9693 92.2086C72.1332 92.1137 72.2796 91.9859 72.4008 91.8316C72.4785 91.6875 72.5332 91.5298 72.5626 91.3653C72.5985 91.1622 72.5985 90.9534 72.5626 90.7503C72.5089 90.5957 72.433 90.4517 72.3379 90.3237C72.2203 90.1626 72.0733 90.0308 71.9064 89.9368C71.7643 89.8847 71.6156 89.8579 71.4659 89.8574C71.2742 89.859 71.0847 89.9028 70.9085 89.9864C70.6145 90.2007 70.4055 90.5306 70.3243 90.909C70.3021 91.0701 70.3021 91.234 70.3243 91.3951C70.373 91.5972 70.4587 91.7863 70.5759 91.9506C70.6854 92.0632 70.8097 92.1569 70.9445 92.2284C71.132 92.3165 71.3341 92.3604 71.5378 92.3574Z" fill="#DDDCDB"/>
<path d="M71.2412 83.4395C70.2049 83.4425 69.1821 83.6986 68.2462 84.1895C67.3102 84.6804 66.4843 85.3938 65.8278 86.2786C65.1713 87.1634 64.7004 88.1976 64.4489 89.307C64.1974 90.4165 64.1716 91.5735 64.3733 92.6953H65.6588L65.497 92.0207C65.4757 91.9288 65.4715 91.833 65.4846 91.7393C65.4976 91.6455 65.5277 91.5556 65.5731 91.475C65.6184 91.3944 65.678 91.3248 65.7484 91.2702C65.8187 91.2157 65.8983 91.1773 65.9824 91.1576L69.4883 90.6616L66.4138 88.7767C66.3424 88.7249 66.2812 88.6577 66.2341 88.579C66.187 88.5003 66.1549 88.4119 66.1397 88.319C66.1246 88.2262 66.1267 88.131 66.146 88.0391C66.1653 87.9472 66.2014 87.8606 66.252 87.7846L67.0611 86.5644C67.1121 86.4901 67.1762 86.4279 67.2495 86.3815C67.3228 86.3351 67.4038 86.3054 67.4877 86.2943C67.5716 86.2832 67.6566 86.2908 67.7378 86.3168C67.8189 86.3427 67.8945 86.3865 67.96 86.4454L70.5939 89.2231L70.1265 85.2549C70.1203 85.1596 70.132 85.064 70.1608 84.9739C70.1897 84.8838 70.235 84.8013 70.2941 84.7315C70.3532 84.6616 70.4246 84.606 70.5041 84.5681C70.5835 84.5301 70.6692 84.5106 70.7557 84.5109H72.1311C72.2165 84.5121 72.3008 84.5323 72.379 84.5701C72.4572 84.6079 72.5277 84.6627 72.5864 84.7311C72.6451 84.7996 72.6907 84.8803 72.7206 84.9686C72.7505 85.0569 72.764 85.1508 72.7604 85.245L72.3199 89.114L74.747 86.2966C74.8759 86.1757 75.0428 86.1162 75.2114 86.131C75.3799 86.1459 75.5362 86.234 75.646 86.3759L76.5449 87.5465C76.5973 87.6201 76.6357 87.7045 76.6578 87.7949C76.6799 87.8852 76.6853 87.9795 76.6735 88.0721C76.6618 88.1648 76.6332 88.2539 76.5894 88.334C76.5457 88.4142 76.4878 88.4838 76.4191 88.5386L73.4166 90.5921L76.9315 90.9096C77.0165 90.9237 77.098 90.9569 77.171 91.0072C77.2439 91.0574 77.3067 91.1236 77.3556 91.2017C77.4044 91.2798 77.4383 91.3681 77.455 91.4612C77.4717 91.5543 77.471 91.6501 77.4529 91.7429L77.2731 92.7349H78.1001C78.3018 91.6132 78.276 90.4561 78.0245 89.3467C77.773 88.2373 77.3021 87.2031 76.6456 86.3183C75.989 85.4335 75.1631 84.7201 74.2272 84.2292C73.2912 83.7383 72.2685 83.4822 71.2322 83.4791L71.2412 83.4395Z" fill="#DDDCDB"/>
<path d="M73.6594 92.695L73.0571 92.4668L73.201 92.695H73.6594Z" fill="#DDDCDB"/>
<path d="M69.9197 92.5254L69.5332 92.694H69.8209L69.9197 92.5254Z" fill="#DDDCDB"/>
<path d="M70.9175 89.9862C71.0936 89.9026 71.2831 89.8588 71.4748 89.8572C71.6245 89.8577 71.7732 89.8845 71.9153 89.9366L71.6996 89.8275L72.3378 89.0934L72.7783 85.2244C72.7819 85.1302 72.7684 85.0362 72.7385 84.948C72.7086 84.8597 72.663 84.779 72.6043 84.7105C72.5457 84.642 72.4751 84.5873 72.3969 84.5495C72.3187 84.5116 72.2344 84.4915 72.149 84.4902H70.8186C70.7321 84.49 70.6464 84.5095 70.5669 84.5474C70.4875 84.5854 70.416 84.641 70.357 84.7108C70.2979 84.7807 70.2525 84.8632 70.2237 84.9533C70.1949 85.0433 70.1832 85.139 70.1894 85.2343L70.6568 89.2025L71.2322 89.8175C71.1209 89.858 71.0151 89.9147 70.9175 89.9862Z" fill="#2D241F"/>
<path d="M71.9153 89.9375C72.0822 90.0315 72.2293 90.1633 72.3468 90.3244C72.4419 90.4524 72.5178 90.5964 72.5715 90.751C72.5548 90.6671 72.5338 90.5843 72.5086 90.503L73.4076 90.5922L76.41 88.5387C76.4787 88.4839 76.5367 88.4143 76.5804 88.3341C76.6241 88.254 76.6527 88.1649 76.6645 88.0723C76.6762 87.9796 76.6709 87.8853 76.6488 87.795C76.6267 87.7046 76.5883 87.6202 76.5359 87.5466L75.6369 86.376C75.5272 86.2341 75.3709 86.146 75.2023 86.1312C75.0338 86.1163 74.8668 86.1758 74.738 86.2967L72.3108 89.1141L72.203 90.1061C72.1132 90.0379 72.0167 89.9813 71.9153 89.9375Z" fill="#2D241F"/>
<path d="M71.9154 89.9368C72.0258 89.9754 72.1315 90.0287 72.2301 90.0956L72.338 89.1035L71.6997 89.8376L71.9154 89.9368Z" fill="#2D241F"/>
<path d="M76.3832 93.7559C76.4665 93.781 76.5535 93.7872 76.639 93.7741C76.7245 93.761 76.8067 93.729 76.8807 93.6798C76.9546 93.6307 77.0188 93.5654 77.0693 93.4881C77.1197 93.4109 77.1555 93.3231 77.1743 93.2301L77.2642 92.7539H73.8123L76.3832 93.7559Z" fill="#2D241F"/>
<path d="M73.8122 92.7541H77.2642L77.2822 92.6953H73.6594L73.8122 92.7541Z" fill="#2D241F"/>
<path d="M72.6166 90.7512C72.6525 90.9543 72.6525 91.1631 72.6166 91.3662C72.5872 91.5307 72.5325 91.6884 72.4548 91.8325C72.4548 91.763 72.5537 91.6936 72.5896 91.6241L73.111 92.4674L73.7133 92.6956H77.3091L77.4889 91.7035C77.507 91.6108 77.5078 91.5149 77.4911 91.4218C77.4744 91.3287 77.4405 91.2404 77.3917 91.1623C77.3428 91.0842 77.2799 91.018 77.207 90.9678C77.134 90.9175 77.0526 90.8843 76.9675 90.8702L73.4526 90.5527L72.6796 91.0785C72.6653 90.968 72.6443 90.8586 72.6166 90.7512Z" fill="#2D241F"/>
<path d="M72.6165 90.75C72.6519 90.8699 72.679 90.9926 72.6974 91.117L73.4705 90.5912L72.5715 90.502C72.5906 90.5837 72.6056 90.6665 72.6165 90.75Z" fill="#2D241F"/>
<path d="M71.502 93.3205L72.6796 96.991C72.7127 97.0838 72.7636 97.1676 72.8287 97.2367C72.8939 97.3059 72.9718 97.3587 73.0571 97.3916C73.1423 97.4246 73.2331 97.4369 73.323 97.4277C73.413 97.4184 73.5002 97.388 73.5785 97.3383L74.8011 96.6537C74.8805 96.6114 74.9511 96.551 75.0081 96.4766C75.065 96.4022 75.1072 96.3154 75.1317 96.2218C75.1563 96.1283 75.1628 96.03 75.1508 95.9335C75.1387 95.837 75.1083 95.7444 75.0617 95.6617L73.2638 92.6855H71.6818L71.502 93.3205Z" fill="#2D241F"/>
<path d="M71.6728 92.6953L71.6548 92.7541H73.2369L73.201 92.6953H71.6728Z" fill="#2D241F"/>
<path d="M71.9694 92.2479C71.8343 92.3243 71.6883 92.3746 71.5378 92.3967H71.7716L71.6727 92.7439H73.2009L73.0571 92.5158L72.1581 92.1785C72.2368 92.088 72.3062 91.9882 72.3649 91.8809C72.2535 92.0278 72.1197 92.152 71.9694 92.2479Z" fill="#2D241F"/>
<path d="M73.057 92.4663L72.5356 91.623C72.5356 91.6925 72.4458 91.7619 72.4008 91.8314C72.3422 91.9388 72.2728 92.0386 72.1941 92.129L73.057 92.4663Z" fill="#2D241F"/>
<path d="M69.7848 92.7539L68.0678 95.8392C68.0226 95.925 67.9945 96.0206 67.9855 96.1194C67.9766 96.2182 67.987 96.318 68.0159 96.412C68.0449 96.506 68.0918 96.5921 68.1535 96.6644C68.2152 96.7368 68.2902 96.7936 68.3735 96.8312L69.623 97.4562C69.7036 97.505 69.793 97.5338 69.8848 97.5404C69.9766 97.547 70.0686 97.5313 70.1543 97.4944C70.24 97.4575 70.3174 97.4003 70.3809 97.3269C70.4444 97.2534 70.4925 97.1655 70.5219 97.0693L71.5467 93.3491L71.3669 92.7837L69.7848 92.7539Z" fill="#2D241F"/>
<path d="M71.3042 92.6953H69.8209L69.7939 92.7541H71.3221L71.3042 92.6953Z" fill="#2D241F"/>
<path d="M71.2951 92.695L71.1962 92.3677C71.3096 92.3824 71.4243 92.3824 71.5378 92.3677C71.3492 92.364 71.163 92.3202 70.9894 92.2387C70.8546 92.1672 70.7303 92.0735 70.6209 91.9609C70.667 92.0283 70.7181 92.0914 70.7737 92.1494L69.8747 92.5363L69.7759 92.705L71.2951 92.695Z" fill="#2D241F"/>
<path d="M71.322 92.7539L71.5018 93.3194L71.6546 92.7539H71.322Z" fill="#2D241F"/>
<path d="M71.3222 92.7541H71.6548L71.6728 92.6953H71.3042L71.3222 92.7541Z" fill="#2D241F"/>
<path d="M71.5379 92.3577C71.4244 92.3724 71.3098 92.3724 71.1963 92.3577L71.2952 92.6851H71.7177L71.8166 92.3379L71.5379 92.3577Z" fill="#2D241F"/>
<path d="M65.8475 93.488C65.869 93.5804 65.9075 93.6669 65.9606 93.7422C66.0137 93.8174 66.0803 93.8798 66.1562 93.9254C66.2321 93.971 66.3157 93.9989 66.4018 94.0073C66.4879 94.0157 66.5746 94.0044 66.6566 93.9741L69.3534 92.7539H65.6228L65.8475 93.488Z" fill="#2D241F"/>
<path d="M69.3983 92.7541L69.5331 92.6953H65.6587L65.6767 92.7541H69.3983Z" fill="#2D241F"/>
<path d="M69.9198 92.5272L70.3962 91.6641C70.461 91.7691 70.5364 91.8656 70.621 91.9518C70.5037 91.7874 70.418 91.5984 70.3692 91.3962C70.347 91.2351 70.347 91.0712 70.3692 90.9101C70.3606 90.9925 70.3606 91.0757 70.3692 91.1581L69.5602 90.6621L66.0543 91.1581C65.9703 91.1779 65.8907 91.2162 65.8203 91.2708C65.75 91.3253 65.6904 91.395 65.645 91.4756C65.5997 91.5562 65.5696 91.6461 65.5565 91.7398C65.5434 91.8336 65.5476 91.9293 65.5689 92.0212L65.7307 92.6958H69.6052L69.9198 92.5272Z" fill="#2D241F"/>
<path d="M70.6209 91.9517C70.5363 91.8656 70.4609 91.7691 70.3961 91.6641L69.9197 92.5271L70.8186 92.1402C70.7475 92.0844 70.6813 92.0213 70.6209 91.9517Z" fill="#2D241F"/>
<path d="M70.3332 90.9094C70.4145 90.531 70.6235 90.2011 70.9175 89.9868C70.849 90.0172 70.7829 90.0537 70.7198 90.096L70.6119 89.213L67.978 86.4353C67.9125 86.3764 67.8369 86.3327 67.7558 86.3067C67.6746 86.2808 67.5895 86.2731 67.5056 86.2842C67.4217 86.2954 67.3407 86.325 67.2674 86.3714C67.1942 86.4178 67.1301 86.48 67.0791 86.5543L66.27 87.7746C66.2194 87.8506 66.1833 87.9371 66.164 88.029C66.1447 88.1209 66.1425 88.2162 66.1576 88.309C66.1728 88.4018 66.2049 88.4903 66.2521 88.5689C66.2992 88.6476 66.3603 88.7149 66.4318 88.7666L69.5062 90.6515L70.4051 90.5225C70.3666 90.6477 70.3424 90.7776 70.3332 90.9094Z" fill="#2D241F"/>
<path d="M70.9174 89.9867C71.0014 89.9224 71.0919 89.8691 71.1871 89.828L70.6118 89.2129L70.7197 90.0958C70.7828 90.0536 70.8489 90.0171 70.9174 89.9867Z" fill="#2D241F"/>
<path d="M70.3333 90.9102C70.3403 90.7822 70.3615 90.6556 70.3963 90.5332L69.4973 90.6622L70.3063 91.1582C70.3066 91.0746 70.3157 90.9914 70.3333 90.9102Z" fill="#2D241F"/>
</g>
<defs>
<clipPath id="clip0_1501_170708">
<rect width="339" height="247" fill="white"/>
</clipPath>
</defs>
</svg>
