<svg width="261" height="236" viewBox="0 0 261 236" fill="none" xmlns="http://www.w3.org/2000/svg">
    <g clip-path="url(#nz7j6c05ga)">
        <path d="M208.751 128.678c0-4.696 3.753-8.503 8.445-8.503.839 0 1.679.149 2.419.346 1.778-1.977 4.346-3.262 7.161-3.262 1.432 0 2.716.296 3.951.84.79-1.236 2.173-2.027 3.753-2.027.297 0 .544 0 .79.05 1.531-5.586 6.569-9.64 12.544-9.64 3.902 0 7.457 1.73 9.828 4.499.691-.198 1.432-.346 2.222-.346.297 0 .543 0 .79.049.297-6.328.395-11.815.346-17.005 0-4.252-.148-8.009-.346-11.47l-.098-1.433-.149-1.433c-.049-.643-.148-1.335-.197-1.928 0-.297-.099-.594-.099-.89a56.24 56.24 0 0 0-1.037-5.636 50.51 50.51 0 0 0-4.148-10.628c-.889-1.68-1.926-3.312-2.963-4.894l-.297-.445a6.973 6.973 0 0 0-.543-.741l-.839-1.137-.889-1.137c-.198-.248-.395-.445-.593-.693-.099-.148-.247-.247-.346-.395a51.492 51.492 0 0 0-3.951-4.103c-1.382-1.285-2.814-2.521-4.345-3.658a52.342 52.342 0 0 0-9.729-5.834c-1.679-.79-3.457-1.483-5.284-2.125-1.778-.593-3.606-1.137-5.482-1.533a51.402 51.402 0 0 0-5.63-.89 51.65 51.65 0 0 0-5.63-.296c-7.605 0-15.112 1.433-22.124 4.35-3.457 1.384-6.816 3.213-9.927 5.339a58.308 58.308 0 0 0-4.494 3.51l-.346.346c-.247.198-.444.395-.691.593l-1.531 1.483-1.482 1.533c-2.271 2.373-4.395 4.992-6.42 7.514l-.987 1.186-1.827 2.225c-.396.445-.791.939-1.186 1.433l-.691.791c-1.235 1.384-2.519 2.818-3.951 4.252l-1.037.988-1.087.989c-.543.544-1.135.989-1.728 1.483-.148.148-.346.247-.494.395-.296.248-.642.495-.988.742l-1.382.989c-.297.148-.544.346-.79.494l-.445.247-.889.544-.247.148-.592.297c-.642.346-1.284.692-2.025.989l-.494.247c-.296.099-.593.247-.84.346l-1.333.494-.247.099-.444.148-2.075.594-2.123.494c-.148 0-.296.05-.445.099l-.247.05-1.432.296c-.247.05-.444.099-.642.099l-1.481.247c-.247 0-.445.05-.692.099l-1.432.148c-.444.05-.839.05-1.234.099l-1.63.099h-2.864a87.357 87.357 0 0 1-11.408-1.038c-4.741-.742-9.532-1.78-14.124-2.818-2.717-.593-5.532-1.236-8.297-1.78-3.062-.593-7.112-1.335-11.26-1.78l-1.432-.148c-.296 0-.593 0-.89-.05h-.493c-.988-.098-1.926-.098-2.815-.098-1.877 0-3.753.05-5.63.247-.346 0-.691.099-1.037.099a39.643 39.643 0 0 0-9.877 2.472c-3.012 1.236-5.877 2.817-8.445 4.844.544-.05 1.136-.099 1.68-.099 3.9 0 7.457 1.73 9.827 4.499.691-.198 1.432-.346 2.222-.346 2.568 0 4.84 1.335 6.223 3.312 1.827-1.088 4-1.73 6.321-1.73 4.79 0 8.988 2.768 11.112 6.772 4.938.445 8.74 4.598 8.74 9.64H29.04c-2.322 4.548-4.396 9.195-6.47 13.792-.543 1.236-1.136 2.472-1.679 3.658-.84 1.879-1.58 3.461-2.222 4.894-.297.692-.593 1.335-.89 1.978-7.9 17.154-16.099 36.136-11.555 54.625.345 1.087.79 2.175 1.234 3.213a40.846 40.846 0 0 0 5.926 9.59c2.37 2.917 5.137 5.537 8.149 7.811a58.977 58.977 0 0 0 20.15 9.887 70.862 70.862 0 0 0 11.11 2.076c3.754.445 7.557.593 11.31.494a123.11 123.11 0 0 0 11.26-.79h.099a124.7 124.7 0 0 0 11.21-1.928c6.667-1.434 13.63-3.411 21.927-6.13 5.531-1.829 11.161-3.856 16.544-5.784 1.58-.643 3.259-1.236 4.889-1.829 7.062-2.521 14.371-5.092 21.779-7.119 3.704-.988 7.407-1.829 11.21-2.422a74.09 74.09 0 0 1 11.457-.89H177.342l1.679.099c.395 0 .79.049 1.235.099 1.777.198 3.654.445 5.679.84 2.667.495 5.383 1.137 8 1.681 1.037.247 2.124.445 3.161.692 3.556.791 7.358 1.533 11.21 1.879 4.149.346 7.852.148 11.26-.643l.691-.148.247-.05c.149 0 .297-.049.445-.099l1.383-.445.247-.098.444-.149 1.975-.741a40.289 40.289 0 0 0 5.038-2.571c1.629-.989 3.16-2.076 4.642-3.213 1.284-1.038 2.815-2.324 4.247-3.757 1.432-1.335 2.716-2.768 3.951-4.153a63.287 63.287 0 0 0 3.605-4.449 90.907 90.907 0 0 0 3.358-4.647c1.235-1.779 2.173-3.361 3.013-4.844.938-1.631 1.777-3.362 2.568-5.092a46.596 46.596 0 0 0 1.975-5.339c.543-1.829.889-3.707 1.136-5.586 0-.148 0-.346.049-.494 0-.297.05-.593.099-.89l.099-1.434.247-2.867c.296-4.004.592-7.613.839-10.974l-51.113.049z" fill="#D8F3FF"/>
        <path d="M257.691 111.03a12.93 12.93 0 0 0-9.827-4.499c-6.025 0-11.063 4.103-12.544 9.64-.247-.049-.543-.049-.79-.049-1.581 0-2.963.79-3.754 2.026a9.436 9.436 0 0 0-3.95-.84c-2.865 0-5.433 1.236-7.161 3.263-.79-.248-1.581-.346-2.42-.346-4.642 0-8.445 3.806-8.445 8.502h50.867c.296-4.3.543-8.206.79-11.963.148-2.076.197-4.053.296-5.981-.296 0-.543-.05-.79-.05-.84-.049-1.58.099-2.272.297zM83.115 91.207c-2.123-4.004-6.272-6.772-11.112-6.772-2.32 0-4.444.642-6.32 1.73a7.49 7.49 0 0 0-6.223-3.312c-.79 0-1.531.148-2.223.346A12.933 12.933 0 0 0 47.41 78.7c-.544 0-1.136.05-1.68.1-.394.296-.79.592-1.185.938-2.913 2.423-5.481 5.19-7.753 8.256a78.274 78.274 0 0 0-6.075 9.59c-.592 1.088-1.135 2.175-1.728 3.263h62.867c0-5.092-3.852-9.244-8.741-9.64zM104.993 137.923c-3.26 0-5.828 2.669-5.828 5.883v21.751c0 3.262 2.618 5.882 5.828 5.882h74.769v-33.516h-74.769z" fill="#fff"/>
        <path d="M179.762 172.872h-74.769c-4 0-7.31-3.312-7.31-7.365v-21.752c0-4.053 3.26-7.365 7.31-7.365h74.769c.79 0 1.432.642 1.432 1.483 0 .791-.642 1.483-1.432 1.483h-74.769c-2.42 0-4.395 1.977-4.395 4.449v21.751c0 2.422 1.975 4.449 4.395 4.449h74.769c.79 0 1.432.643 1.432 1.483.049.742-.593 1.384-1.432 1.384z" fill="#972E76"/>
        <path d="M175.268 144.052h-69.337a.338.338 0 0 1-.346-.346c0-.197.149-.346.346-.346h69.287c.198 0 .346.149.346.346 0 .198-.099.346-.296.346zM175.268 155.67h-69.337a.339.339 0 0 1-.346-.346c0-.198.149-.346.346-.346h69.287c.198 0 .346.148.346.346.049.197-.099.346-.296.346zM175.268 151.715h-69.337a.339.339 0 0 1-.346-.346c0-.198.149-.347.346-.347h69.287c.198 0 .346.149.346.347.049.197-.099.346-.296.346zM175.268 147.809h-69.337a.338.338 0 0 1-.346-.346c0-.198.149-.346.346-.346h69.287c.198 0 .346.148.346.346.049.149-.099.346-.296.346zM167.267 159.674h-61.336a.339.339 0 0 1-.346-.347c0-.197.149-.346.346-.346h61.336c.198 0 .346.149.346.346.049.149-.099.347-.346.347zM175.268 163.629h-69.337a.339.339 0 0 1-.346-.346c0-.198.149-.346.346-.346h69.287c.198 0 .346.148.346.346.049.197-.099.346-.296.346zM175.268 167.583h-69.337a.339.339 0 0 1-.346-.346c0-.198.149-.346.346-.346h69.287c.198 0 .346.148.346.346.049.197-.099.346-.296.346z" fill="#CCC"/>
        <path d="m122.87 166.446-5.531-2.916-5.531 2.916v-11.073h11.111v11.073h-.049z" fill="#CE3D57"/>
        <path d="M127.068 169.412c-.494 1.879-1.383 2.571-1.877 2.67-.444.098-1.778-.742-1.827-1.335 2.321.445 2.667 0 3.704-1.335zM165.835 170.5c.543.148 2.37.643 2.568.643.148 0-.049.741-.988.593.642-.148.544-.494.297-.593-.346 0-1.334-.396-1.877-.643z" fill="#595C65"/>
        <path d="M139.661 208.713c-3.259 0-5.828 2.669-5.828 5.882v14.04c0 3.262 2.618 5.882 5.828 5.882h55.756v-25.854h-55.756v.05z" fill="#fff"/>
        <path d="M195.417 236H71.559c-4 0-7.309-3.312-7.309-7.365v-14.04c0-4.053 3.26-7.366 7.309-7.366h123.858c.79 0 1.432.643 1.432 1.484 0 .79-.642 1.483-1.432 1.483h-55.756c-2.42 0-4.395 1.977-4.395 4.449v14.039c0 2.422 1.975 4.449 4.395 4.449h55.756c.79 0 1.432.643 1.432 1.483 0 .742-.593 1.384-1.432 1.384z" fill="#1395C9"/>
        <path d="M79.757 228.635v-14.04c0-4.053 3.26-7.366 7.309-7.366h-6.47c-4 0-7.308 3.313-7.308 7.366v14.04c0 4.053 3.259 7.365 7.309 7.365h6.469c-4.05 0-7.309-3.312-7.309-7.365z" fill="#fff"/>
        <path d="M190.923 214.842h-50.274a.338.338 0 0 1-.346-.346c0-.197.148-.346.346-.346h50.224c.198 0 .346.149.346.346.049.198-.148.346-.296.346zM190.923 218.798h-38.521a.338.338 0 0 1-.345-.346c0-.198.148-.347.345-.347h38.521c.197 0 .345.149.345.347 0 .197-.197.346-.345.346zM182.922 222.801h-42.273a.338.338 0 0 1-.346-.346c0-.197.148-.346.346-.346h42.273c.198 0 .346.149.346.346.049.149-.148.346-.346.346zM190.923 226.757h-50.274a.338.338 0 0 1-.346-.346c0-.198.148-.347.346-.347h50.224c.198 0 .346.149.346.347.049.148-.148.346-.296.346zM190.923 230.711h-50.274a.338.338 0 0 1-.346-.346c0-.198.148-.346.346-.346h50.224c.198 0 .346.148.346.346.049.148-.148.346-.296.346z" fill="#CCC"/>
        <path d="m157.143 233.48-5.531-2.917-5.531 2.917v-11.074h11.112v11.074h-.05z" fill="#CE3D57"/>
        <path d="M109.684 174.652c3.852 0 6.964 3.164 6.964 7.02v16.808c0 3.856-3.112 7.019-6.964 7.019H75.757v-30.847h33.927z" fill="#fff"/>
        <path d="M75.806 207.23h115.265c4.79 0 8.741-3.955 8.741-8.8v-16.807c0-4.845-3.901-8.8-8.741-8.8H75.806c-.988 0-1.728.791-1.728 1.78s.79 1.78 1.728 1.78h33.928c2.913 0 5.234 2.372 5.234 5.289v16.808c0 2.916-2.37 5.289-5.234 5.289H75.806c-.988 0-1.728.791-1.728 1.78-.05.89.74 1.681 1.728 1.681z" fill="#F37521"/>
        <path d="M181.243 198.48v-16.808c0-4.844-3.901-8.799-8.741-8.799h7.753c4.791 0 8.742 3.955 8.742 8.799v16.808c0 4.845-3.902 8.799-8.742 8.799h-7.753c4.84-.049 8.741-4.004 8.741-8.799z" fill="#fff"/>
        <path d="M81.19 181.969h27.309a.443.443 0 0 0 .444-.445.443.443 0 0 0-.444-.445h-27.31a.443.443 0 0 0-.444.445c0 .247.197.445.444.445zM81.19 186.714h25.235a.443.443 0 0 0 .444-.445.443.443 0 0 0-.444-.445H81.189a.443.443 0 0 0-.444.445c0 .247.197.445.444.445zM90.72 191.46h17.828a.443.443 0 0 0 .445-.445.443.443 0 0 0-.445-.445H90.72a.443.443 0 0 0-.444.445c0 .247.197.445.444.445zM81.19 196.156h27.309a.442.442 0 0 0 .444-.444.442.442 0 0 0-.444-.445h-27.31a.442.442 0 0 0-.444.445c0 .247.197.444.444.444zM81.19 200.902h27.309a.443.443 0 0 0 .444-.445.442.442 0 0 0-.444-.445h-27.31a.442.442 0 0 0-.444.445c0 .247.197.445.444.445z" fill="#CBCBCB"/>
        <path d="m97.289 204.263 2.37-3.51 2.42 3.51v-13.248h-4.79v13.248z" fill="#ED3D57"/>
        <path d="m180.157 95.706-.148 2.719c2.024-2.373 7.111.346 8.543 1.631l.148-2.719c-1.432-1.285-6.519-4.004-8.543-1.631z" fill="#00A551"/>
        <path d="m150.822 105.098 1.185-2.472c-2.765 1.434-6.469-3.065-7.259-4.795l-1.186 2.472c.791 1.681 4.445 6.179 7.26 4.795zM33.582 116.813l2.123 1.681c-.79-3.015 4.346-5.685 6.174-6.13l-2.124-1.68c-1.827.395-6.963 3.065-6.173 6.129z" fill="#972E76"/>
        <path d="m241.839 139.603-1.334-2.471c-1.679-1.731-5.827 2.817-8.198 2.669l1.334 2.472c2.37.099 6.519-4.4 8.198-2.67zM98.77 73.312l2.667.79c2.42 0 2.173-6.13 3.951-7.662l-2.667-.79c-1.827 1.581-1.58 7.662-3.95 7.662z" fill="#FBC926"/>
        <path d="m238.53 165.557-.889 2.669c-.099 2.422 6.025 2.373 7.507 4.251l.889-2.669c-1.482-1.829-7.556-1.78-7.507-4.251z" fill="#00A551"/>
        <path d="m239.024 92.245 1.432-2.769c-1.383-1.582-4.79-5.833-5.284-6.822l-1.432 2.769c.493.939 3.95 5.24 5.284 6.822zM183.663 143.113l-2.074 2.274c.938 1.879 3.161 6.872 3.407 7.959l2.075-2.274c-.247-1.087-2.47-6.08-3.408-7.959zM119.265 106.631l-1.63 2.62c1.235 1.681 4.297 6.229 4.692 7.217l1.63-2.62c-.396-.988-3.457-5.536-4.692-7.217z" fill="#FBC926"/>
        <path d="m194.528 52.5-1.58 2.224c2.963-.89 5.827 4.152 6.321 5.981l1.58-2.224c-.494-1.83-3.358-6.92-6.321-5.982z" fill="#972E76"/>
        <path d="m225.146 202.682-2.518-1.236c-2.371-.445-3.21 5.636-5.186 6.921l2.519 1.236c2.025-1.286 2.815-7.366 5.185-6.921zM186.873 123.784l2.667-.346c-2.667-1.631-.889-7.118.099-8.75l-2.667.347c-.988 1.631-2.766 7.168-.099 8.749z" fill="#FBC926"/>
        <path d="m70.571 195.761-2.518-.94c1.63 2.67-2.47 6.723-4.1 7.712l2.52.939c1.629-.939 5.728-5.042 4.098-7.711z" fill="#972E76"/>
        <path d="m103.561 168.523 2.469 1.334c2.37.495 3.358-5.586 5.383-6.772l-2.469-1.335c-2.025 1.236-3.013 7.267-5.383 6.773z" fill="#00A551"/>
        <path d="m47.212 144.991-.79 2.966c1.68 1.236 5.926 4.647 6.618 5.488l.79-2.967c-.691-.84-4.939-4.251-6.618-5.487z" fill="#FBC926"/>
        <path d="M40.446 184.984c4.346-.94 10.42-7.069 10.52-8.355l-4-3.856s-2.618 1.83-4.445 3.263c-1.828 1.384-4.79 4.202-4.79 4.202l2.715 4.746z" fill="#145A7B"/>
        <path d="m32.545 184.539-.346-.296 19.853-17.154.346.296-9.779 10.777-10.074 6.377z" fill="#2D2E37"/>
        <path d="m32.2 184.243 9.728-10.134 10.124-7.02-9.778 10.777-10.075 6.377z" fill="#145A7B"/>
        <path d="M57.78 171.687c0 .049-.098.049-.098 0-.494-.396-1.235-1.039-1.976-1.681-1.333-1.187-3.309-2.917-3.555-2.818-.84.692-7.556 6.426-9.532 8.206h-.099v-.099c1.976-1.779 8.692-7.563 9.532-8.206.247-.198 1.136.544 3.753 2.867.74.643 1.482 1.286 1.976 1.681v.05z" fill="#F79F1E"/>
        <path d="M57.731 171.291c.494.395 2.519 1.681 2.716 1.829.198.148 0 .396.1.593.098.198-.198-.049-.396 0-.198.05-.543.149-.691-.197-.198-.297-1.68-1.928-1.926-1.928-.198 0 .148-.346.197-.297z" fill="#F79F1E"/>
        <path d="M57.83 171.092c.148.149.198.396.05.544-.149.149-.396.198-.544.05-.148-.149-.197-.396-.05-.544.149-.148.396-.198.544-.05z" fill="#F79F1E"/>
        <path opacity=".5" d="m40.446 176.086-6.222 6.525 6.42-4.053c-.938-.099-.84-1.038-.198-2.472z" fill="#fff"/>
        <path d="M64.003 139.257c6.321-.544 16.05-8.107 16.445-9.936l-4.988-6.229s-4 2.125-6.913 3.757c-2.914 1.631-7.606 5.092-7.606 5.092l3.062 7.316z" fill="#145A7B"/>
        <path d="m52.842 137.181-.444-.445 31.36-20.713.444.445-15.803 13.496-15.557 7.217z" fill="#2D2E37"/>
        <path d="m52.398 136.736 15.655-12.605 15.655-8.108-15.803 13.496-15.507 7.217z" fill="#145A7B"/>
        <path d="M90.967 123.586c-.05.05-.148.05-.148 0-.642-.692-1.53-1.68-2.47-2.768-1.678-1.878-4.148-4.746-4.543-4.696-1.284.791-11.901 7.712-15.013 9.887-.049.049-.148 0-.148 0-.05-.05 0-.149 0-.149 3.112-2.175 13.68-9.145 15.013-9.936.346-.198 1.531.989 4.84 4.746a108.53 108.53 0 0 0 2.47 2.768c.049 0 .049.099 0 .148z" fill="#F79F1E"/>
        <path d="M91.017 122.993c.592.642 3.309 2.818 3.506 3.065.247.247-.099.593.05.89.148.296-.297-.099-.544-.05-.296.05-.79.099-.987-.395-.248-.445-2.075-3.016-2.371-3.115-.296-.049.247-.494.346-.395z" fill="#F79F1E"/>
        <path d="M91.165 122.746c.197.198.197.593 0 .791-.198.198-.543.198-.79 0-.198-.198-.198-.593 0-.791.197-.198.592-.198.79 0z" fill="#F79F1E"/>
        <path opacity=".5" d="m65.584 126.651-10.026 8.058 9.877-4.597c-1.333-.247-1.037-1.533.148-3.461z" fill="#fff"/>
        <path d="M64.645 160.168c3.901 2.966 13.285 3.658 14.42 2.817l.346-6.129s-3.407-.89-5.877-1.434c-2.518-.544-6.914-1.038-6.914-1.038l-1.975 5.784z" fill="#145A7B"/>
        <path d="M59.312 153.197v-.494l28.445 4.4v.494l-15.902-.445-12.544-3.955z" fill="#2D2E37"/>
        <path d="m59.312 152.703 15.358.89 13.087 3.51-15.902-.495-12.544-3.905z" fill="#145A7B"/>
        <path d="M88.054 165.16a.106.106 0 0 1-.1-.099v-2.867c0-1.928.05-4.894-.197-5.042-1.136-.198-10.716-1.78-13.63-2.076-.05 0-.099-.05-.099-.099 0-.05.05-.099.1-.099 2.863.346 12.493 1.878 13.63 2.076.296.05.345 1.335.345 5.191v2.867c0 .099-.05.148-.05.148z" fill="#F79F1E"/>
        <path d="M88.35 164.865c0 .692.444 3.312.444 3.608 0 .248-.345.297-.444.544-.099.247-.148-.198-.296-.296-.198-.149-.494-.347-.395-.742.098-.395.345-2.818.246-2.966-.098-.297.445-.247.445-.148z" fill="#F79F1E"/>
        <path d="M88.548 164.815c0 .247-.149.445-.395.445-.248 0-.445-.148-.445-.395 0-.248.148-.445.395-.445.247-.05.445.148.445.395z" fill="#F79F1E"/>
        <path opacity=".5" d="m71.954 153.79-9.877-.593 7.951 2.472c-.593-.791.296-1.384 1.926-1.879z" fill="#fff"/>
        <path d="M164.995 45.282c.05.692.149 1.335.198 2.027 0 .494.049.989.049 1.532v.544c-2.173 1.187-4.395 2.027-6.963 1.928-.84-.05-1.531-.396-2.173-.89-1.333-1.087-2.272-2.472-3.062-4.004-.049-.148-.247-.198-.345-.297 0 .198-.099.346-.05.544.198.791.494 1.582.692 2.422.246.99.395 2.027.642 3.065.049.149.148.297.148.445.098.396.197.84.345 1.236.05.247.099.544.149.791 0 .148 0 .297.049.396.148.939.346 1.829.444 2.768.494 5.438 1.037 10.826 1.433 16.264.444 5.981.79 11.963 1.086 17.945.296 5.289.444 10.628.642 15.917 0 .495-.049.791-.593.841-1.777.198-3.605.395-5.383.642-.247.05-.444.05-.691.05h-.296c-.593-.05-1.235-.099-1.828-.148-1.728-.149-3.407-.248-5.136-.445-1.827-.198-3.605-.544-5.432-.841-.642-.148-1.333-.296-1.975-.445h-.247c-.05-.049-.099-.148-.198-.197-1.234-.346-2.469-.643-3.704-.989-1.679-.544-3.358-1.088-5.037-1.681-1.037-.346-2.025-.741-3.062-1.137-.049-.049-.148-.099-.197-.198-5.976-2.718-9.581-7.563-12.05-13.446-.05-.099 0-.198 0-.346.395.84.79 1.73 1.234 2.62.692-.79 1.383-1.433 1.976-2.175 1.333-1.68 2.667-3.361 3.951-5.092a44.715 44.715 0 0 0 2.37-3.559c.543-.84 1.037-1.73 1.482-2.67.642-1.285 1.382-2.52 1.827-3.905a53.993 53.993 0 0 0 1.778-6.871c.345-1.977.494-4.004.543-5.982.148-3.163 0-6.377-.395-9.54-.099-.89-.247-1.78-.395-2.67-.247-.148-.445-.395-.692-.395-1.679-.05-3.259-.198-4.889-.742-2.815-.94-4.444-3.164-4.444-6.08 0-2.917.938-5.636 2.123-8.256.395-.84.79-1.631 1.185-2.472a209.779 209.779 0 0 1 2.717-4.4c1.53.446 3.111.99 4.691 1.335 2.519.544 5.136.94 7.655 1.385.247.049.543.098.79.148.296.643.543 1.285.84 1.878a959.166 959.166 0 0 0 3.852 7.218c.888 1.631 1.827 3.312 2.716 4.943.296.544.691 1.038 1.136 1.73.345-2.62.691-5.042.987-7.464.148-1.088.247-2.126.346-3.213.247-2.225.494-4.4.741-6.625h2.667c.987.198 1.926.297 2.913.544 1.581.396 2.618 1.533 3.507 2.818 1.284 1.73 2.469 3.56 3.901 5.141.988 1.088 2.37 1.879 3.556 2.818.247.593.543 1.137.79 1.73.346.84.593 1.68.889 2.472.099.494.148.79.197 1.038zm-20.05 4.795c-.296.396-.543.643-.494.791.05.198.346.395.494.593.198-.197.445-.346.494-.593.049-.148-.198-.395-.494-.79zm0 11.32c.247-.395.543-.593.494-.79 0-.149-.296-.396-.494-.445-.346-.1-.593.099-.543.494.049.198.296.396.543.742z" fill="#145A7B"/>
        <path d="M126.771 49.929c.149.89.297 1.78.396 2.67.395 3.163.543 6.327.395 9.54-.099 2.027-.198 4.004-.544 5.982a56.225 56.225 0 0 1-1.777 6.871c-.445 1.335-1.186 2.62-1.828 3.905-.444.89-.938 1.78-1.481 2.67-.741 1.186-1.531 2.422-2.371 3.559a127.63 127.63 0 0 1-3.951 5.092c-.592.741-1.284 1.384-1.975 2.175l-1.235-2.62v-.445c.099-.099.198-.198.247-.297.297-.642.593-1.334.84-1.977.741-1.68 1.531-3.312 2.222-4.993.889-1.977 1.729-4.004 2.568-6.03.741-1.731 1.531-3.461 2.173-5.241.889-2.373 1.729-4.795 2.568-7.168.296-.89.593-1.78.84-2.62 0-.05.049-.148.049-.198.445-1.236.889-2.422 1.334-3.658 0-.05.049-.148.049-.198.049-.148.148-.346.197-.494.05-.099.05-.198.099-.297.148-.444.247-.89.395-1.285 0-.05 0-.148.05-.198.049-.197.098-.444.197-.642 0-.1.05-.198.05-.297l.444-2.67c0-.494 0-.84.049-1.136z" fill="#10465B"/>
        <path d="M124.697 103.664c1.037.396 2.025.742 3.062 1.137 1.679.593 3.358 1.137 5.037 1.681 1.235.395 2.47.692 3.704.989.099 0 .148.098.198.197-.148.593-.297 1.187-.395 1.78-.05.148.049.297.099.445 0 .148-.05.247-.05.395-.296.495-.691.989-.395 1.681 0 .198-.049.346-.049.544-.099.445-.247.939-.346 1.384-.049.247-.049.445-.099.692-.099.396-.197.84-.296 1.236 0 .099 0 .198-.05.247-.049.247-.148.494-.197.692-.296 0-.593-.049-.889 0-.346.05-.642.148-.938.247h-1.087a2.015 2.015 0 0 0-.444-.247c-1.679-.296-3.457.05-5.136-.544h-.148c-1.284-.444-2.568-.84-3.309-2.175-.247-.494-.593-.939-.889-1.433v-1.187c.346-.296.642-.593.395-1.137.049-.148.049-.296.099-.445.345-.741.691-1.532.938-2.274.198-.543.247-1.087.395-1.631v-.198c.691-.593.494-1.433.79-2.076z" fill="#E0832F"/>
        <path d="M131.117 20.663v-2.868c0-.098-.049-.148-.049-.247v-.197c.148-.297.197-.643.395-.89.346-.445.741-.84 1.136-1.285.197-.05.346-.1.543-.149.099-.099.198-.148.296-.247h.395c.247-.05.445-.099.692-.148h3.457c.296.05.543.099.839.148h.247c.346.148.642.247.988.396.247.049.444.098.691.148.297.148.544.247.84.395h.247a2 2 0 0 0 .444.248c.198.049.346.098.544.148.098.099.197.148.296.247.395.247.839.445 1.234.692.297.346.593.742.939 1.088.296.296.642.544.938.79.148.1.296.149.445.248.098.099.197.148.296.247.099.099.197.247.296.346.05.148.148.247.198.396.049.494.098 1.038.148 1.532.049.148.099.247.148.395.395.495.691 1.088 1.185 1.483.84.791.988 1.83.247 2.769-.741.89-1.728 1.236-2.815 1.384-.642.099-1.284.198-1.876.297h-1.482c-.148-.05-.247-.05-.395-.1-.049 0-.099-.049-.099-.049v-.099c-.148-.098-.296-.148-.444-.247-.05-.05-.099-.099-.198-.099-.148-.098-.296-.148-.444-.247-.099-.198-.198-.346-.297-.544-.098-.148-.197-.296-.247-.395-.049-.89-.098-1.83-.148-2.719 0-.148.05-.297.05-.395.345-.396.296-.742 0-1.088 0-.099-.05-.198-.05-.297-.148-.296-.247-.543-.395-.84-.197-.247-.395-.445-.592-.692-.099-.099-.198-.148-.297-.247-.049 0-.049 0-.098-.05-.099-.05-.247-.148-.346-.197h-.05c-.197-.05-.345-.149-.543-.198-.099 0-.197 0-.296-.05-.494-.098-.988-.247-1.531-.346a8.046 8.046 0 0 1-.543-.148c-.297-.099-.593-.247-.889-.346-.05 0-.148-.05-.198-.05-.247-.148-.444-.247-.691-.395-.049 0-.148.05-.198.05-.592.395-.839 1.137-.642 1.878 0 .099-.049.198-.049.297-.049.099-.099.247-.148.346 0 .05 0 .05-.05.099-.098.247-.197.494-.246.692 0 .098.049.197.049.296-.148.544 0 .989.395 1.335 0 .099.049.198.049.247-.247-.148-.543-.296-.74-.494-.247-.198-.395-.396-.593-.593-.494-.643-.741-1.137-.988-1.681z" fill="#22272D"/>
        <path d="M138.92 108.063c1.827.297 3.605.594 5.433.841 1.679.198 3.407.296 5.136.445.592.049 1.234.099 1.827.148.049.643.099 1.236.099 1.879v.247c-.099.099-.247.247-.247.346 0 .89 0 1.829.049 2.719 0 .741 0 1.532-.049 2.274-.05.445-.148.84-.148 1.285 0 .395-.099.692-.544.791-.098 0-.197.148-.296.247-.296.05-.642.099-.938.148-.297 0-.593-.049-.84 0-2.321.445-4.642.643-6.864-.494a1.067 1.067 0 0 1-.247-.148c-.148-.099-.297-.247-.494-.346-.543-.396-1.037-.742-1.087-1.533-.247-2.966-.543-5.882-.79-8.849z" fill="#E0832F"/>
        <path d="M146.13 18.982c-.296-.247-.642-.494-.938-.79-.346-.347-.642-.742-.938-1.088.148-.099.296-.148.345-.297.247-.494-.049-2.175-.444-2.62-.84-.989-2.074-1.236-3.21-1.631-1.926-.742-3.951-.494-5.976-.593-.987-.05-1.58.395-2.024 1.087-.297.495-.494 1.038-.692 1.582-.049.148.148.346.247.544-.395.445-.79.84-1.136 1.285-.197.247-.247.593-.395.89-1.383-.544-2.765-1.137-4.148-1.631-.543-.198-.692-.445-.395-.94l.247-.247.197-.197.247-.248c.198-.197.445-.395.642-.642l.296-.297.297-.296c.148-.149.296-.297.444-.396.099-.099.198-.198.296-.247.346-.297.642-.643.988-.94h.05l.246-.247.05-.049.247-.247.197-.198c.494-.494.988-.94 1.432-1.434l.247-.247c.297-.197.593-.395.84-.642l1.482-1.632.246-.247c.544.198 1.136.346 1.68.544 2.222.89 4.494 1.829 6.716 2.719.494.198 1.086.296 1.63.445.098 0 .148.05.247.05.049.098.148.197.197.246 1.136.445 2.321.94 3.506 1.385.642.247 1.284.444 1.926.642.099.05.198.099.297.099l.296 1.038-1.778 1.632a189.08 189.08 0 0 1-3.556 3.015c-.345.396-.444.593-.148.84z" fill="#10465B"/>
        <path d="M122.129 112.562c.297.444.642.939.889 1.433.692 1.335 2.025 1.73 3.309 2.175h.148c1.679.593 3.408.297 5.136.544.148.049.296.148.445.247-.593 0-1.186-.049-1.778-.049-1.778-.05-1.531-.544-2.47 1.186-.938 1.829-1.926 3.708-2.864 5.537-.197.395-.444.84-.494 1.285-.098 2.274-.098 4.499-.098 6.773 0 .692.197 1.384.987 1.631.099.049.148.247.198.395-.889-.049-1.778-.148-2.667-.098-.642 0-.988-.297-1.185-.89-.84-2.472-1.729-4.944-2.568-7.415.296-.346.494-.791.839-1.039 1.185-.939 1.63-2.175 1.827-3.608.297-1.978.692-3.955 1.038-5.932.049-.297-.05-.594-.149-.89a7.158 7.158 0 0 1-.543-1.285zM122.821 27.634a209.261 209.261 0 0 1-2.717 4.4c-1.432-.84-2.024-2.175-2.173-3.708-.148-2.076-.296-4.103-.246-6.18.049-3.114.345-6.278.444-9.392 0-.494-.247-.989-.444-1.483-.445-1.137-.84-2.224-.692-3.46.05-.297.247-.593.395-.89.247.148.593.247.79.494.346.346.593.791.84 1.187l.296.593c.099-.05.148-.148.247-.198.148-.346.247-.643.395-.989.05 0 .148 0 .198.05.049 1.038.444 2.027.099 3.114-.149.445-.198.94-.149 1.384.247 1.928.494 3.906.84 5.834.543 2.966 1.185 5.882 1.778 8.799.049.099.049.297.099.445z" fill="#AC734D"/>
        <path d="M164.798 44.442c-.296-.84-.593-1.681-.889-2.472-.247-.593-.543-1.187-.79-1.73 1.58-1.088 3.21-2.175 4.79-3.312 1.729-1.187 3.507-2.324 5.136-3.61.494-.395.593-1.235.84-1.878.642.643 1.284.594 2.025.1.345-.248.79-.347 1.135-.643.346-.247.593-.594.889-.89 2.075 1.285 4.099 2.57 6.174 3.806a82.517 82.517 0 0 1 2.765 1.681c.79.494.84.692.346 1.532-.099.149-.148.297-.247.445-.099.149-.198.297-.296.396-.198-.05-.396-.099-.544-.198-.889-.692-1.827-1.384-2.716-2.076-1.63-1.285-3.21-2.57-4.84-3.905-.592-.495-.74-.495-1.284.099-.345.346-.79.593-1.234.89a2.169 2.169 0 0 1-.346.296l-1.235 1.236c-.691.84-1.382 1.631-2.074 2.471-.494.544-.987 1.138-1.481 1.681-.05.1-.099.149-.148.247-.247.297-.544.594-.791.84 0 .05 0 .1-.049.1l-.099.099-.148.148a8.65 8.65 0 0 1-.642.692l-.395.395-.148.149c-.198.197-.395.445-.593.642-.494.495-.987 1.038-1.481 1.533l-.148.148a5.99 5.99 0 0 0-.692.495 3.02 3.02 0 0 1-.79.593z" fill="#F0B489"/>
        <path d="M141.488 118.939c2.223 1.137 4.544.94 6.865.495.296-.05.543 0 .839 0-.592.148-1.234.247-1.827.445-.197.049-.444.296-.494.445-.197 1.73-.444 3.509-.592 5.24-.099 1.384.592 2.521 1.086 3.707.395 1.038.988 2.076 1.482 3.065.049.099.049.247.049.396a86.242 86.242 0 0 1-3.457.692c-.642.099-.988-.198-1.185-.791-.395-1.137-.79-2.225-1.185-3.362-.297-.89-.593-1.829-.889-2.719.098-.741.345-1.483.247-2.224-.247-1.73-.593-3.559-.939-5.389z" fill="#AC734D"/>
        <path d="M154.477 53.834c-.099-.396-.198-.84-.346-1.236-.05-.148-.148-.297-.148-.445a68.166 68.166 0 0 0-.642-3.065c-.198-.79-.494-1.582-.692-2.422-.049-.148.05-.346.05-.544.148.099.296.148.345.297.791 1.532 1.729 2.916 3.062 4.004.593.494 1.334.84 2.173.89 2.519.099 4.791-.742 6.964-1.928.345 3.114-2.272 6.575-5.334 6.92-1.877.198-3.556-.494-4.84-1.927-.148-.198-.395-.396-.592-.544z" fill="#10465B"/>
        <path d="M146.575 28.919c-.247 2.224-.494 4.4-.741 6.624-.099 1.087-.247 2.126-.346 3.213-.296 2.422-.642 4.845-.987 7.465a48.512 48.512 0 0 1-1.136-1.73 156.864 156.864 0 0 1-2.716-4.944c-1.284-2.422-2.568-4.795-3.852-7.217-.297-.594-.544-1.236-.84-1.879.593-.05 1.136-.05 1.729-.099.197.198.444.396.642.544.098.247.098.544.246.79 1.531 2.967 3.112 5.884 4.643 8.8.148.247.296.445.444.692.296-1.532.445-3.015.593-4.498.098-1.187.247-2.373.345-3.56l.297-3.559v-.395l.148-.297c.543.05 1.037.05 1.531.05z" fill="#D75426"/>
        <path d="M142.18 126.65c.296.89.592 1.829.889 2.719.395 1.137.79 2.225 1.185 3.362.197.544.592.89 1.185.791 1.136-.198 2.321-.495 3.457-.692 1.432.89 2.914 1.73 3.457 3.559-.247.049-.494.099-.741.099-1.728-.05-3.457-.099-5.235-.148-.444 0-.839.049-1.284.049 0-.148.05-.346-.049-.445-.543-.791-1.136-1.532-1.729-2.323-.098-.099-.296-.099-.444-.149-.148-.988-.889-1.433-1.679-1.878-.148-.346-.494-.692-.445-1.038.099-1.434.642-2.719 1.433-3.906zM119.018 125.365c.889 2.472 1.728 4.944 2.568 7.415.197.594.543.89 1.185.89.889 0 1.778.099 2.667.099.247.148.494.297.691.494.642.594.791 1.335.84 2.126-1.136 0-2.272.05-3.408.05h-2.666c.049-.099.098-.198.148-.248-.445-1.532-.84-3.114-1.334-4.646-.148-.396-.494-.693-.74-1.088-.099-.89-.889-1.681-1.778-1.73 0-.346-.198-.742-.05-.989a79.403 79.403 0 0 0 1.877-2.373z" fill="#10465B"/>
        <path d="M175.811 32.973c.099-.099.197-.198.345-.297.396-.296.889-.544 1.235-.89.494-.543.691-.593 1.284-.099 1.58 1.335 3.21 2.62 4.84 3.906.889.692 1.778 1.384 2.716 2.076.148.099.346.148.543.198-.395.494-.741 1.038-1.136 1.532-.247.297-.493.297-.839 0-2.568-2.076-5.186-4.103-7.803-6.13-.346-.148-.79-.197-1.185-.296zM172.453 30.204c-1.778-.94-3.507-1.83-5.285-2.768-.987-.495-1.975-.99-2.913-1.483-.939-.445-.939-.495-.544-1.434.149-.346.445-.643.642-.989.544.247 1.087.445 1.581.692l7.556 4.005c-.297.692-.692 1.334-1.037 1.977z" fill="#E8CBB1"/>
        <path d="m173.539 28.276-7.556-4.004c-.494-.247-1.086-.445-1.58-.692.197-.346.395-.742.592-1.088.099-.099.149-.197.247-.296.247-.297.494-.544.692-.84.197-.05.444-.1.642-.149 1.234.94 2.518 1.928 3.753 2.867 1.383 1.088 2.766 2.175 4.099 3.263-.296.346-.593.643-.889.94z" fill="#F0B489"/>
        <path d="M144.945 29.413v.247c-.148.198-.346.346-.494.544-.938.94-1.975 1.582-3.407 1.335-.889-.149-1.828-.396-2.716-.594a6.37 6.37 0 0 0-.642-.543c.049-.248.049-.495.098-.742v-.05c.148.198.297.347.544.693.444-.445.938-.94 1.382-1.434.544-.543 1.037-1.137 1.581-1.68.148.098.296.148.444.247.05.05.099.099.198.099.049.098.148.148.197.247.099.05.198.05.247.099.05 0 .099.049.099.049.148.05.247.05.395.099h1.482c.246.297.444.593.691.89l-.148.296c.049.1.049.149.049.198z" fill="#AC734D"/>
        <path d="M173.539 28.276c.296-.296.593-.593.938-.89.939.495 1.927.94 2.815 1.484.247.148.297.543.445.79.049.05.049.1.099.149.049.099.098.148.098.247-.296.297-.543.643-.888.89-.346.247-.791.395-1.136.643-.741.494-1.383.494-2.025-.1-.296-.197-.543-.395-.84-.592l-.098-.1-.544-.543c.395-.692.79-1.335 1.136-1.978z" fill="#B75A53"/>
        <path d="M137.735 29.61h-2.42c-.198 0-.346-.049-.543-.049-.148-.148-.247-.296-.395-.445.395-.692.395-.692-.297-1.137l-.148-.148-2.173-2.175c0-.148.05-.247.05-.396.197-.148.395-.247.642-.445.79.84 1.679 1.78 2.568 2.769.098.099.296.148.444.247.198.099.395.148.642.247.247 0 .445-.05.692-.05.197-.049.395-.049.543-.098.691.395.444 1.038.395 1.68z" fill="#1A2943"/>
        <path d="M151.81 12.754c.444-.1.543-.05.691.395.197.692.296 1.384.593 2.027.889 2.225 2.321 3.955 4.691 4.746.445.148.988.099 1.482.247.197.05.345.296.543.445-.198.148-.346.395-.593.494-.148.05-.395.05-.543-.05-1.481-.691-3.062-1.235-4.198-2.471-1.086-1.186-1.728-2.62-2.321-4.054l-.296-.89c-.049-.346-.049-.642-.049-.89z" fill="#E8CBB1"/>
        <path d="M123.957 60.903c-.297.89-.544 1.78-.84 2.62a303.074 303.074 0 0 1-2.568 7.168c-.691 1.78-1.432 3.51-2.173 5.24a311.344 311.344 0 0 1-2.568 6.031c-.741 1.681-1.481 3.313-2.222 4.993-.297.643-.543 1.335-.84 1.978-.049.098-.148.197-.247.296l1.926-4.449c2.321-5.537 4.692-11.073 6.964-16.66.889-2.224 1.58-4.498 2.419-6.722-.049-.198.05-.346.149-.495z" fill="#274685"/>
        <path d="M117.24 128.727c.889.049 1.679.84 1.778 1.73-.642.89-1.235 1.829-1.877 2.719-.099.148-.296.197-.395.296-.099-.148-.296-.346-.247-.494.247-1.434.494-2.818.741-4.251z" fill="#2A3B62"/>
        <path d="m131.809 25.656 2.173 2.175.148.149c.642.494.642.494.296 1.137.148.148.247.296.395.445-.889-.347-1.778-.643-2.617-1.088-.79-.494-.889-1.928-.395-2.818zM135.513 27.831c-.149-.099-.297-.148-.445-.247-.889-.94-1.827-1.928-2.568-2.768-.296.197-.444.296-.642.445.099-.396.099-.791.247-1.187.247-.692.198-1.285-.247-1.829.198.198.395.445.593.593.247.198.494.346.741.495.049.099.148.148.197.247.445 1.532 1.136 2.966 2.124 4.251zM145.143 10.183c-.544-.148-1.087-.247-1.63-.445-2.272-.89-4.494-1.829-6.716-2.719-.544-.197-1.136-.346-1.68-.543.149-.05.396-.198.494-.149 3.112 1.236 6.223 2.472 9.383 3.708l.149.148zM126.475 14.78c-.247.495-.148.742.395.94 1.383.494 2.766 1.087 4.148 1.63v.199c-1.728-.692-3.506-1.385-5.383-2.126.396-.247.593-.445.84-.643zM150.97 12.506c-.642-.197-1.284-.444-1.926-.642-1.185-.445-2.321-.89-3.506-1.384-.099-.05-.148-.149-.198-.248 1.778.693 3.605 1.385 5.383 2.077.099.05.198.148.247.197z" fill="#393F5A"/>
        <path d="M123.907 105.889c-.099.543-.197 1.087-.395 1.631-.296.791-.642 1.532-.938 2.274.444-1.285.889-2.571 1.333-3.905z" fill="#F0B489"/>
        <path d="M125.339 57.047c-.444 1.236-.889 2.422-1.333 3.658.444-1.236.889-2.422 1.333-3.658z" fill="#274685"/>
        <path d="m134.871 6.723-1.482 1.631c-.247.247-.543.445-.839.643.74-.791 1.531-1.533 2.321-2.274z" fill="#393F5A"/>
        <path d="M172.502 36.68c.691-.84 1.383-1.632 2.074-2.472-.691.84-1.383 1.631-2.074 2.472z" fill="#E8CBB1"/>
        <path d="M151.217 114.737c0-.89-.049-1.829-.049-2.719 0-.099.148-.247.247-.346v2.719c0 .049-.149.198-.198.346zM150.18 119.334c.099-.099.197-.198.296-.247.445-.099.543-.395.543-.791 0-.445.099-.89.149-1.285 0 .544.098 1.137.049 1.681-.049.543-.543.692-1.037.642z" fill="#F0B489"/>
        <path d="m126.722 50.868-.444 2.67.444-2.67z" fill="#274685"/>
        <path d="M131.117 17.796v2.67c-.345-.841-.345-1.73 0-2.67z" fill="#393F5A"/>
        <path d="M164.798 44.44c.296-.148.543-.345.839-.493a5.99 5.99 0 0 0 .692-.495c-.297.346-.593.692-.84 1.038-.197.247-.345.544-.494.791-.049-.247-.098-.544-.197-.84z" fill="#E8CBB1"/>
        <path d="M124.697 103.664c-.247.692-.098 1.532-.74 2.026.197-.741.345-1.483.543-2.224.049.049.099.148.197.198z" fill="#F0B489"/>
        <path d="M171.021 38.36c.493-.543.987-1.136 1.481-1.68-.494.544-.988 1.137-1.481 1.68zM166.477 43.304c.494-.494.988-1.038 1.482-1.532-.494.543-.988 1.038-1.482 1.532z" fill="#E8CBB1"/>
        <path d="M132.253 9.194c-.494.495-.987.94-1.432 1.434l1.432-1.434z" fill="#393F5A"/>
        <path d="M151.415 111.326c-.05-.643-.099-1.236-.099-1.879h.296c-.099.643-.148 1.286-.197 1.879z" fill="#F0B489"/>
        <path d="M131.117 20.663c.247.494.494 1.038.692 1.533-.198-.495-.445-.99-.692-1.533zM151.81 12.754v.84c-.099 0-.198.05-.297.05l-.296-1.039c.247.05.444.1.593.149z" fill="#393F5A"/>
        <path d="M165.243 48.841c0-.494-.05-.989-.05-1.532.05.494.05 1.038.05 1.532z" fill="#2A3B62"/>
        <path d="M126.031 54.724c-.149.445-.247.89-.396 1.285.149-.445.247-.89.396-1.285z" fill="#274685"/>
        <path d="M130.08 11.32c-.345.297-.642.643-.987.94.345-.297.642-.594.987-.94z" fill="#393F5A"/>
        <path d="M122.524 110.238c.247.495 0 .841-.395 1.137.099-.395.247-.741.395-1.137z" fill="#F0B489"/>
        <path d="M170.033 39.449c.247-.297.543-.593.79-.84-.247.296-.494.593-.79.84zM169.094 40.586c.198-.247.445-.495.642-.692-.197.197-.444.445-.642.692zM167.958 41.772c.198-.198.396-.445.593-.643-.197.198-.395.445-.593.643z" fill="#E8CBB1"/>
        <path d="M126.228 53.834c-.049.198-.098.445-.197.643.099-.198.148-.445.197-.643zM125.586 56.306c-.049.148-.148.346-.197.494.049-.148.098-.297.197-.494z" fill="#274685"/>
        <path d="M166.576 21.257c-.198.05-.445.099-.642.148.148-.396.296-.643.642-.148zM168.65 40.98z" fill="#E8CBB1"/>
        <path d="M128.796 12.556a3.189 3.189 0 0 1-.444.395c.197-.148.345-.296.444-.395z" fill="#393F5A"/>
        <path d="M154.625 55.02c0-.148 0-.296-.05-.395.05.148.05.297.05.395zM147.661 22.048c-.049-.148-.098-.247-.148-.396.05.149.099.297.148.396z" fill="#2A3B62"/>
        <path d="M186.972 37.52c.099-.148.148-.297.247-.445a2.02 2.02 0 0 1-.247.445z" fill="#E8CBB1"/>
        <path d="m128.401 12.951-.296.297.296-.297zM128.105 13.198l-.296.297.296-.297zM129.092 12.26zM127.167 14.138l-.247.247.247-.247zM130.327 11.073l-.247.247c.099-.098.198-.148.247-.247zM130.623 10.826l-.247.247c.099-.098.149-.197.247-.247z" fill="#393F5A"/>
        <path d="M147.414 20.12c-.049-.15-.148-.248-.197-.396.049.148.099.296.197.395zM146.921 19.428c-.099-.099-.198-.149-.297-.247.099.098.198.197.297.247z" fill="#2A3B62"/>
        <path d="M165.193 22.195c-.099.1-.148.198-.247.297.099-.099.198-.198.247-.297z" fill="#E8CBB1"/>
        <path d="M126.771 14.533c-.098.1-.148.149-.247.247a.603.603 0 0 1 .247-.247z" fill="#393F5A"/>
        <path d="M177.836 29.808c-.05-.049-.05-.098-.099-.148.049.05.099.099.099.148zM172.996 30.748l.099.1-.099-.1z" fill="#F0B489"/>
        <path d="m169.885 39.696.099-.1c0 .05-.05.05-.099.1z" fill="#E8CBB1"/>
        <path d="m142.92 133.522-.296 2.67h-.543c-.05-.198-.148-.346-.198-.544-.049-.395-.098-.791-.098-1.137-.05-.198-.099-.445-.149-.643a7.437 7.437 0 0 1-.098-1.038 2.444 2.444 0 0 1-.099-.593c-.05-.198-.05-.395-.099-.544.691.346 1.432.791 1.58 1.829z" fill="#2A3B62"/>
        <path d="M141.834 135.647c.049.198.148.347.198.544h-.099c0-.197-.05-.346-.099-.544zM142.624 136.241c.148.05.247.099.395.149-.148-.05-.247-.099-.395-.149zM141.686 136.39c.099-.05.148-.099.247-.149-.099.05-.148.099-.247.149z" fill="#274685"/>
        <path d="M144.945 50.077c.297.396.543.643.494.791-.049.198-.346.396-.494.593-.197-.197-.444-.346-.494-.593-.049-.148.198-.395.494-.79zM144.945 61.397c-.247-.346-.494-.543-.543-.741-.099-.396.197-.544.543-.495.198.05.494.297.494.445.049.198-.247.396-.494.791z" fill="#2A3B62"/>
        <path d="M136.945 107.668c-.198.741-.346 1.433-.543 2.175-.05-.149-.149-.297-.099-.445.099-.593.247-1.187.395-1.78.049 0 .148 0 .247.05zM134.92 116.764c-.346.099-.691.198-1.037.247-.247.05-.543 0-.79-.049.296-.099.642-.198.938-.247.296 0 .593.049.889.049zM136.352 110.238c-.099.544-.247 1.137-.346 1.681-.345-.692.05-1.186.346-1.681zM135.908 112.414c-.099.445-.247.939-.346 1.384.099-.445.247-.89.346-1.384zM135.463 114.539c-.098.396-.197.84-.296 1.236.099-.445.198-.84.296-1.236zM135.117 116.022c-.049.248-.148.495-.197.693.049-.198.148-.445.197-.693z" fill="#F0B489"/>
        <path d="M135.513 27.831c-.988-1.285-1.63-2.718-2.124-4.251-.049-.099-.148-.198-.197-.247 0-.099-.05-.198-.05-.247-.148-.445-.296-.89-.395-1.335 0-.099-.049-.198-.049-.297.099-.247.197-.494.247-.692.049 0 .049-.05.049-.099.049-.099.099-.247.148-.346 0-.099.05-.197.05-.296.197-.643.444-1.236.642-1.879.049 0 .148-.05.197-.05.247.15.445.248.692.396.049 0 .148.05.197.05.296.099.593.247.889.346.198.05.395.099.543.148.494.099.988.247 1.531.346.099 0 .198 0 .296.05.198.049.346.148.544.197 0 .05.049.05.049 0 .099.05.247.148.346.198 0 .05.049.05.099.05.098.098.197.148.296.247.197.247.395.444.593.692.148.296.246.543.395.84 0 .099.049.198.049.297v1.087c0 .148-.049.297-.049.396-.544.939-.247 1.829 0 2.768-.247.297-.494.643-.791.791-.79.346-1.58.593-2.419.84-.198.05-.396.05-.544.1-.247 0-.444.049-.691.049-.148 0-.346-.1-.543-.149zm-.445-2.372c.05.197.05.296.05.296.247.148.592.445.79.445.691-.148 1.531-.148 1.876-.89.198-.395-.148-.494-.493-.445-.692.198-1.433.396-2.223.594z" fill="#AC734D"/>
        <path d="M132.549 15.176c-.098-.197-.296-.395-.247-.543.198-.544.396-1.088.692-1.582.444-.742 1.086-1.137 2.025-1.088 2.024.099 4.049-.148 5.975.593 1.136.445 2.371.643 3.21 1.632.395.445.692 2.125.445 2.62-.05.099-.247.197-.346.296-.395-.247-.839-.445-1.235-.692-.098-.099-.197-.148-.296-.247-.197-.05-.346-.099-.543-.148-.148-.1-.296-.198-.445-.247h-.247c-.296-.149-.543-.248-.839-.396-.247-.05-.445-.099-.691-.148-.346-.149-.642-.247-.988-.396h-.247c-.296-.05-.543-.099-.84-.148h-1.086c-.395-.346-1.432-.346-1.827 0h-.544c-.247.05-.444.099-.691.148h-.395c-.099.1-.198.149-.296.248-.198 0-.346.049-.544.098z" fill="#145A7B"/>
        <path d="M137.389 27.88c.79-.296 1.63-.494 2.42-.84.296-.148.543-.544.79-.791h.099c.099.148.197.297.247.396.099.197.197.346.296.543-.543.544-1.037 1.137-1.58 1.681-.445.494-.938.94-1.383 1.434-.247-.297-.395-.495-.543-.692.049-.643.296-1.286-.346-1.73z" fill="#8C5E3F"/>
        <path d="M140.698 26.2h-.099c-.247-.94-.543-1.83 0-2.768 0 .939.05 1.829.099 2.768zM133.833 18.093c-.197.642-.444 1.236-.642 1.878-.197-.741.05-1.483.642-1.878z" fill="#393F5A"/>
        <path d="M135.019 14.583c.395-.396 1.383-.396 1.827 0h-1.827z" fill="#2A3B62"/>
        <path d="M137.933 19.378c-.494-.099-.988-.247-1.531-.346.493.1 1.037.247 1.531.346zM132.747 21.701c.148.445.296.89.395 1.335-.395-.346-.543-.791-.395-1.335zM140.599 23.036v-1.088c.297.346.346.742 0 1.088z" fill="#393F5A"/>
        <path d="M139.019 14.78c.346.149.642.247.988.396a13.764 13.764 0 0 0-.988-.396z" fill="#2A3B62"/>
        <path d="M140.55 21.652c-.148-.297-.247-.544-.395-.84.099.296.247.543.395.84zM135.858 18.884c-.296-.099-.592-.247-.889-.346.297.099.593.247.889.346zM134.772 18.438c-.247-.148-.445-.247-.692-.395.198.148.445.297.692.395z" fill="#393F5A"/>
        <path d="M137.932 14.632c.297.05.544.099.84.148-.296-.05-.593-.099-.84-.148zM140.649 15.324c.296.149.543.247.839.396a4.384 4.384 0 0 0-.839-.396zM133.784 14.78c.247-.05.445-.099.692-.148-.247.05-.445.099-.692.148z" fill="#2A3B62"/>
        <path d="M138.723 19.625c-.198-.049-.346-.148-.544-.197.198.05.396.099.544.197zM132.945 20.713c-.099.247-.198.494-.247.692.099-.247.148-.494.247-.692z" fill="#393F5A"/>
        <path d="M141.784 15.72c.149.099.297.197.445.247a.955.955 0 0 1-.445-.247z" fill="#2A3B62"/>
        <path d="M140.945 26.645zM142.081 27.782c-.05-.099-.148-.148-.198-.247.148.099.297.148.445.247-.099-.05-.148-.05-.247 0z" fill="#393F5A"/>
        <path d="M133.093 15.027c.099-.098.197-.148.296-.247-.099.05-.197.149-.296.247z" fill="#2A3B62"/>
        <path d="M139.167 19.872c-.099-.049-.247-.148-.346-.197.099.05.198.099.346.197z" fill="#393F5A"/>
        <path d="M142.723 16.165c.099.099.197.148.296.247-.099-.099-.197-.197-.296-.247z" fill="#2A3B62"/>
        <path d="M139.562 20.12c-.099-.1-.197-.15-.296-.248.099.099.197.198.296.247zM133.142 20.268c-.049.098-.099.247-.148.346.049-.1.099-.248.148-.346z" fill="#393F5A"/>
        <path d="M142.871 28.03c-.148-.05-.247-.05-.395-.1.148 0 .247.05.395.1zM142.081 27.782h.247c0 .05.049.05 0 .1a.378.378 0 0 0-.247-.1z" fill="#EC9C5A"/>
        <path d="M141.883 27.486c-.049-.05-.098-.1-.197-.1.049.05.148.05.197.1z" fill="#393F5A"/>
        <path d="M141.241 118.79c-.148-.098-.296-.247-.494-.346.148.099.346.248.494.346z" fill="#F0B489"/>
        <path d="M138.328 30.897c.889.197 1.777.445 2.716.593 1.383.247 2.469-.445 3.407-1.335.198-.148.346-.346.494-.544l-.296 3.56c-.099 1.186-.247 2.373-.346 3.559-.148 1.483-.296 2.966-.592 4.498-.149-.247-.346-.445-.445-.692-1.58-2.916-3.111-5.882-4.642-8.799-.198-.297-.247-.544-.296-.84z" fill="#E0832F"/>
        <path d="M136.105 28.029c.247 0 .445-.05.692-.05-.247 0-.445.05-.692.05z" fill="#EC9C5A"/>
        <path d="M141.587 133.818c.049.198.099.445.148.643-.049-.198-.099-.395-.148-.643zM141.34 132.188c.049.197.099.395.099.593 0-.198-.05-.396-.099-.593z" fill="#274685"/>
        <path d="M135.068 25.458c.79-.197 1.531-.395 2.272-.593.346-.099.691 0 .494.445-.395.742-1.186.742-1.877.89-.247.05-.543-.247-.79-.445-.099 0-.049-.099-.099-.297z" fill="#FCFCFC"/>
        <path d="m163.119 40.239 9.976-6.92.839-1.88 3.161-.494.296.84-2.815 2.423-9.58 11.073-1.877-5.042z" fill="#AC734D"/>
        <path d="M134.439 22.932c.347-.072.602-.261.568-.421-.033-.16-.341-.232-.688-.16-.348.072-.602.26-.569.42.033.161.342.233.689.16zM136.855 22.344c.347-.072.601-.26.568-.421-.033-.16-.342-.232-.689-.16-.347.072-.601.26-.568.421.033.16.342.232.689.16z" fill="#000"/>
        <path d="m133.389 22.295-.148-.198s.593-.544 1.482-.396l-.05.248c-.79-.1-1.284.346-1.284.346zM136.204 21.602l-.148-.197c.642-.594 1.432-.445 1.481-.445l-.049.247c-.049 0-.691-.099-1.284.395z" fill="#422A19"/>
        <path d="M135.562 24.025h-.099c.099-.692-.098-1.384-.098-1.384l.098-.05c.05.05.247.742.099 1.434z" fill="#8C5E3F"/>
    </g>
    <defs>
        <clipPath id="nz7j6c05ga">
            <path fill="#fff" d="M0 0h261v236H0z"/>
        </clipPath>
    </defs>
</svg>
