<svg width="24" height="24" viewBox="0 0 24 24" fill="none" xmlns="http://www.w3.org/2000/svg">
<path d="M13.02 20.7699C13.02 21.4099 13.61 21.8999 14.23 21.7599C15.35 21.4999 16.41 21.0599 17.35 20.4599C17.88 20.1199 17.96 19.3599 17.51 18.9099C17.19 18.5899 16.68 18.5099 16.3 18.7499C15.53 19.2399 14.68 19.5999 13.77 19.7999C13.32 19.8999 13.02 20.3099 13.02 20.7699Z" fill="#D75426"/>
<path d="M4.03003 11.9999C4.03003 8.20989 6.68003 5.02989 10.23 4.20989C10.67 4.10989 10.98 3.69989 10.98 3.24989C10.98 2.60989 10.38 2.11989 9.76003 2.26989C5.33003 3.28989 2.03003 7.25989 2.03003 11.9999C2.03003 16.7399 5.33003 20.7099 9.76003 21.7399C10.38 21.8899 10.98 21.3999 10.98 20.7599C10.98 20.2999 10.67 19.8999 10.23 19.7999C6.68003 18.9699 4.03003 15.7899 4.03003 11.9999Z" fill="#D75426"/>
<path d="M20.7899 10.9999C21.4299 10.9999 21.9199 10.4099 21.7799 9.78987C21.5199 8.66987 21.0799 7.61987 20.4799 6.66987C20.1399 6.12987 19.3799 6.05987 18.9299 6.50987C18.6099 6.82987 18.5299 7.33987 18.7799 7.71987C19.2699 8.47987 19.6299 9.32987 19.8299 10.2499C19.9199 10.6999 20.3299 10.9999 20.7899 10.9999Z" fill="#D75426"/>
<path d="M17.35 3.54988C16.4 2.94988 15.35 2.50988 14.23 2.24988C13.61 2.10988 13.02 2.59988 13.02 3.22988C13.02 3.67988 13.32 4.09988 13.76 4.18988C14.67 4.38988 15.53 4.75988 16.29 5.23988C16.68 5.47988 17.18 5.40988 17.5 5.07988C17.96 4.63988 17.89 3.88988 17.35 3.54988Z" fill="#D75426"/>
<path d="M18.92 17.49C19.37 17.94 20.13 17.87 20.47 17.33C21.07 16.39 21.51 15.33 21.77 14.21C21.91 13.59 21.42 13 20.79 13C20.34 13 19.92 13.3 19.83 13.74C19.63 14.65 19.26 15.51 18.78 16.27C18.52 16.66 18.6 17.17 18.92 17.49Z" fill="#D75426"/>
<path d="M16 11.1C16 8.61 14.1 7 12 7C9.9 7 8 8.61 8 11.1C8 12.61 9.1 14.38 11.31 16.4C11.7 16.76 12.29 16.76 12.69 16.4C14.9 14.37 16 12.61 16 11.1ZM12 12C11.41 12 10.93 11.52 10.93 10.93C10.93 10.34 11.41 9.86 12 9.86C12.59 9.86 13.07 10.34 13.07 10.93C13.07 11.52 12.59 12 12 12Z" fill="#D75426"/>
</svg>
