<svg width="820" height="416" viewBox="0 0 820 416" fill="none" xmlns="http://www.w3.org/2000/svg">
<path d="M820 0H0V273.495H820V0Z" fill="url(#paint0_linear_906_23796)"/>
<path d="M190.423 190.342L286.883 153.388L307.923 160.706L330.745 133.448L341.265 125.398L358.025 133.448L379.956 150.644L395.824 146.985L437.368 173.146L470.532 169.67L524.2 196.745L375.142 263.518L190.423 190.342Z" fill="#D7E5F1"/>
<path d="M0 219.501V134.251L56.8776 152.362L75.0641 148.155L87.7234 152.362L129.267 138.825L158.152 162.973L167.245 157.485L193.455 176.876L219.665 172.303L256.751 197.365L291.163 190.78L312.738 208.525L321.831 207.61L358.917 232.49L391.368 222.428L403.135 203.768L420.787 193.707L453.773 194.621L471.959 183.462L516.177 171.388L527.054 161.143L536.147 152.362L555.938 160.229L583.04 152.362L611.033 165.717L636.351 157.485H686.097L702.501 171.388L726.749 152.362H756.704L769.363 134.251L820 125.836V232.49V261.394L0 253.894V219.501Z" fill="url(#paint1_linear_906_23796)"/>
<path d="M0 291.059V190.442L65.0794 203.98L103.414 230.872H138.895L182.401 223.737L228.937 236.177L278.504 253.74L300.613 261.606L311.846 277.705L325.932 270.387L357.312 278.619L398.678 261.606L420.787 256.85L451.276 233.067L520.1 255.935H537.217L574.66 240.751L598.017 225.75L632.072 240.751H662.74L677.895 225.75L693.942 235.08L743.509 199.772L775.96 205.078L820 165.562V324.354H0V291.059Z" fill="url(#paint2_linear_906_23796)"/>
<path d="M807.876 277.5L808.945 276.768L803.953 276.402V272.743L804.666 270.914H800.922L800.209 266.34L804.488 262.499L800.744 261.035L799.496 258.291L801.992 257.193L798.248 255.547L798.069 252.986L799.496 250.973L795.573 249.327L792.542 246.583L791.65 250.608L789.867 255.73L786.658 255.364V260.669L783.805 262.865L784.162 266.34L782.022 268.719L782.735 272.377L778.278 274.024L776.673 268.902L777.743 266.34L774.177 264.877L775.96 261.584L773.82 260.486L773.464 253.901L770.789 251.705L772.572 247.863L769.006 248.046V245.119L769.185 242.009L765.975 239.997L768.65 235.241L765.44 233.411L765.975 229.752L762.766 228.655L763.657 225.728L760.805 223.349L756.882 220.057L755.812 226.642L752.246 228.472L753.851 231.216L752.246 234.326H749.572L751.89 239.631L749.393 237.802L747.789 239.997L746.897 244.571L746.541 250.791L746.184 247.863L743.153 247.498L742.083 244.754L739.409 246.217L736.734 248.961L735.664 251.705H732.99L733.525 255.913L735.308 260.486L733.168 263.413L735.843 266.523L735.664 272.195L731.563 269.45V266.157L729.959 263.962L729.246 261.584L729.959 258.291L727.641 256.462L726.749 253.901L728.176 251.705L725.501 250.059L726.214 247.863L723.005 245.668L721.044 242.741L719.439 246.4L717.121 249.327L714.803 251.705L714.09 254.998L712.129 257.559L713.555 260.12V262.316L711.059 264.145L709.989 267.072L711.059 272.195L706.423 271.829V268.902L704.64 264.877L700.896 263.048L700.183 267.621L698.221 267.072L696.795 269.633L693.942 270.914L695.725 273.109L693.051 277.5H675.221L675.399 276.219V272.56L673.081 272.195L673.26 268.536L674.686 266.523L672.546 264.145L672.725 260.303L670.228 259.206L670.942 257.193H666.484L666.662 253.901L663.453 251.705L662.562 253.718L661.67 260.486L659.174 262.133L660.065 266.34H656.856L656.321 265.06L658.817 263.779L654.895 262.316L654.716 259.755L656.321 257.742L652.22 256.096L649.189 253.352L648.298 257.193L646.515 262.499L643.483 262.133V267.438L640.631 269.633L640.987 273.109L638.848 275.487L639.204 277.5H634.034L633.499 275.67L634.568 273.109L631.002 271.646L632.785 268.353L630.646 267.255L630.111 260.669L627.436 258.474L629.219 254.449L625.654 254.815V251.888L625.832 248.778L622.801 246.766L625.475 242.009L622.087 240.18L622.801 236.521L619.413 235.424L620.304 232.497L617.452 230.118L613.707 226.825L612.638 233.411L609.072 235.241L610.676 237.985L609.072 241.095H606.397L608.537 246.4L606.219 244.571L604.614 246.766L603.723 251.339L603.366 257.559L602.831 254.449L599.978 254.266L598.909 251.522L596.234 252.986L593.56 255.73L592.49 258.474H589.815L590.172 262.682L591.955 267.255L589.994 270.182L592.668 273.109L592.49 277.5H590.528L588.211 276.219V272.926L586.606 270.731L585.893 268.353L586.606 265.06L584.466 263.23L583.575 260.669L584.823 258.474L582.148 256.828L582.862 254.449L579.83 252.437L577.691 249.51L576.264 253.169L573.768 256.096L571.629 258.474L570.915 261.767L568.954 264.328L570.202 266.889V269.085L567.706 270.914L566.636 273.841L567.528 277.5H563.07V275.67L561.287 271.646L557.543 269.816L557.008 274.39L554.869 273.841L553.62 276.402L550.768 277.5H529.907L530.085 275.304L531.333 273.109L529.193 270.914L529.372 267.072L527.054 265.975L527.589 263.779H523.131L523.488 260.669L520.1 258.474L519.209 260.486L518.317 267.255L516.534 268.536L515.643 266.34H511.542L512.255 262.133L509.937 260.486L509.045 253.718L508.154 251.705L504.766 253.901L504.945 257.193H500.487L501.2 259.206L498.704 260.303L499.061 264.145L496.743 266.523L498.169 268.536L498.348 272.195L496.208 272.56V276.219L496.386 277.5H478.378L475.703 273.109L477.486 270.914L474.634 269.633L473.207 267.072L471.246 267.621L470.533 263.048L466.788 264.877L465.005 268.902V271.829L460.37 272.195L461.439 267.072L460.37 264.145L458.052 262.316V260.12L459.3 257.559L457.339 254.998L456.625 251.705L454.486 249.327L451.99 246.4L450.385 242.741L448.424 245.668L445.393 247.863L445.927 250.059L443.253 251.705L444.679 253.901L443.788 256.462L441.648 258.291L442.183 261.584L441.648 263.962L439.865 266.157V269.45L435.764 272.195L435.586 266.523L438.261 263.413L436.299 260.486L438.082 255.913L438.439 251.705H435.764L434.695 248.961L432.02 246.217L429.346 244.754L428.276 247.498L425.423 247.863L424.888 250.791L424.531 244.571L423.64 239.997L422.035 237.802L419.539 239.631L421.857 234.326H419.182L417.578 231.216L419.182 228.472L415.616 226.642L414.547 220.057L410.802 223.349L407.771 225.728L408.663 228.655L405.453 229.752L405.988 233.411L402.779 235.241L405.453 239.997L402.244 242.009L402.601 245.119V248.046L399.035 247.863L400.818 251.705L398.143 253.901L397.608 260.486L395.469 261.584L397.252 264.877L393.686 266.34L394.755 268.902L393.151 274.024L388.693 272.377L389.406 268.719L387.267 266.34L387.623 262.865L384.771 260.669V255.364L381.74 255.73L379.957 250.608L379.065 246.583L375.856 249.327L371.933 250.973L373.538 252.986L373.181 255.547L369.437 257.193L371.933 258.291L370.863 261.035L367.119 262.499L371.22 266.34L370.507 270.914H366.762L367.476 272.743V276.402L362.661 276.768L363.553 277.5H342.335L341.444 275.487L343.94 274.39L340.196 272.743L340.017 270.182L341.444 268.17L337.521 266.523L334.49 263.779L333.599 267.621L331.816 272.926L328.606 272.56V277.5H328.25L325.932 273.109H321.831L322.722 269.45L320.226 268.17L319.335 262.316L318.443 260.486L315.055 262.499L315.412 265.243H314.342L314.521 265.06L310.955 265.243V262.316L311.133 259.206L308.102 257.193L310.776 252.437L307.389 250.608L308.102 246.949L304.714 245.851L305.606 242.924L302.753 240.546L299.008 237.253L297.76 243.839L294.194 245.668L295.799 248.412L294.194 251.522H291.698L293.838 256.828L291.342 254.998L289.915 257.193L289.024 261.767L288.489 267.987L288.132 265.06L285.101 264.694L284.031 261.95L281.357 263.413L278.682 266.157L277.613 268.902H274.938L275.473 273.109L275.83 274.39L275.473 275.304V277.5H271.372L271.907 275.487L271.55 275.122L271.907 273.841L270.837 271.28L269.232 270.365L270.124 268.902L268.341 267.804L269.589 265.609L267.628 263.413L266.915 260.486L264.775 258.657L262.279 256.096L260.852 252.986L258.713 255.547L255.682 257.193L256.395 259.206L253.72 260.486L254.968 262.499L254.077 264.694L251.937 266.157L252.651 269.085L251.937 271.097L250.333 272.926V275.67L246.945 277.5H246.054L245.875 273.109L248.55 270.731L246.588 268.17L248.371 264.145L248.728 260.486H246.232L244.984 258.291L242.309 255.913L239.635 254.632L238.565 257.01L235.712 257.193L235.356 259.755L234.821 254.449L233.929 250.608L232.324 248.595L230.007 250.242L232.146 245.851H229.472L228.045 243.107L229.472 240.729L225.906 239.082L224.836 233.594L221.092 236.521L218.239 238.351L219.13 240.912L215.743 241.826L216.456 244.936L213.068 246.583L215.743 250.608L212.711 252.437L212.89 254.815V257.376L209.324 257.193L211.107 260.486L208.432 262.499L208.076 268.17L205.758 269.085L205.936 269.267L205.401 268.902L204.51 270.914L204.153 272.926L203.975 273.109L204.153 273.292L203.618 277.5H199.339L199.874 275.122L197.556 273.109L198.091 269.999L195.06 268.353V263.596L192.029 263.962L190.246 259.572L189.354 256.279L186.323 258.657L182.222 259.938L183.827 261.767L183.649 263.779L179.904 265.243L182.222 266.157L181.152 268.536L177.408 269.816L181.687 273.109L180.974 276.951H177.23L177.408 277.5H163.679L162.431 276.402L165.462 274.024L160.47 273.658V270.182L161.183 268.17H157.439L156.725 263.596L161.005 259.938L157.26 258.291L156.012 255.547L158.508 254.449L154.764 252.803L154.586 250.242L156.012 248.229L152.09 246.583L149.059 243.839L148.167 247.863L146.384 252.986L143.175 252.62V258.108L140.322 260.12L140.678 263.596L138.539 265.975L139.252 269.633L134.795 271.28L133.19 266.157L134.26 263.596L130.694 262.133L132.477 259.023L130.337 257.742L129.98 251.156L127.306 248.961L129.089 245.119L125.523 245.302V242.375L125.701 239.448L122.492 237.253L125.166 232.497L121.957 230.667L122.492 227.008L119.282 225.911L120.174 222.984L117.321 220.788L113.399 217.312L112.329 223.898L108.763 225.728L110.367 228.472L108.763 231.582H106.088L108.406 236.887L105.91 235.058L104.305 237.253L103.414 241.826L103.057 248.046L102.701 245.119L99.6695 244.754L98.5997 242.009L95.9252 243.473L93.2507 246.217L92.1809 248.961H89.5064L90.0413 253.169L91.8243 257.742L89.6847 260.669L92.3592 263.779L92.1809 269.45L88.08 266.706V263.413L86.4753 261.218L85.7621 259.023L86.4753 255.547L84.1574 253.718L83.2659 251.156L84.6923 248.961L82.0178 247.315L82.731 245.119L79.5216 242.924L77.5603 239.997L75.9556 243.656L73.6378 246.583L71.3199 248.961L70.6067 252.254L68.6454 254.815L70.0718 257.376V259.572L67.5756 261.401L66.5058 264.328L67.5756 269.45L62.9398 269.267V266.157L61.1568 262.133L57.4125 260.303L56.6993 264.877L54.738 264.328L53.3116 266.889L50.4588 268.17L52.2418 270.365L50.8154 272.926L50.4588 268.17L51.3503 262.133L46.8928 257.193L47.7843 253.535L44.2183 252.437L40.1174 245.119L37.0863 251.339L37.4429 254.815L34.9467 257.193L36.0165 260.12L31.2024 263.779L29.0628 261.401L29.2411 257.559L26.7449 256.462L27.4581 254.449H23.0007L23.179 251.156L19.9696 248.961L19.0781 250.973L18.1866 257.742L15.6904 259.389V259.572L12.3027 257.925L9.98478 250.973L5.88389 245.119L8.20178 241.278L0 231.765V282.805V415.802H820V277.5H807.876Z" fill="#145A7B"/>
<path fill-rule="evenodd" clip-rule="evenodd" d="M800 42.4392C799.762 42.4392 799.405 42.3177 799.049 42.3177C798.454 42.0747 797.384 42.0747 796.075 42.1962C793.102 42.1962 790.367 42.8038 787.988 44.3836C786.68 45.2342 784.896 46.6925 783.707 47.6647C783.35 47.9077 782.993 48.2723 782.637 48.5153L781.447 49.2444C781.328 49.366 781.09 49.366 780.972 49.4875C780.853 48.0292 778.474 46.0849 777.523 44.3836C777.404 44.019 775.858 40.2518 775.62 39.8873C775.501 39.5227 775.382 39.1582 775.144 38.6721C774.668 37.8214 773.36 36.4847 772.528 36.1201C772.884 36.3632 773.598 36.9708 773.836 37.3353C777.166 41.1025 773.717 44.6266 775.62 46.814L776.333 47.9077C777.166 49.0014 776.571 49.7305 776.452 50.2166C776.69 50.5812 776.214 50.9457 775.739 51.3103C775.025 51.3103 774.43 51.0673 774.074 50.7027C773.36 49.9736 772.765 49.0014 771.576 48.5153C770.625 48.1507 768.484 48.3938 767.889 48.8799C767.889 48.8799 767.889 48.8799 767.889 49.0014C767.889 49.0014 767.889 49.0014 767.77 49.0014C767.652 49.0014 767.533 49.0014 767.414 49.0014C767.533 49.0014 767.652 49.0014 767.77 49.0014C766.343 49.2444 764.678 49.0014 764.559 49.852C765.154 49.7305 766.7 49.852 768.008 50.0951C768.246 50.3381 768.722 50.5812 769.554 50.7027C769.792 50.7027 771.1 51.0673 771.338 51.1888C771.814 51.5533 772.765 52.5255 773.836 53.0116C774.43 53.3762 775.025 53.4977 775.501 53.4977C775.739 53.8622 778.712 55.3205 779.188 55.5636C782.161 56.5357 783.826 56.1712 786.561 55.6851C788.464 55.3205 791.08 55.3205 792.983 55.442C794.173 55.6851 795.6 56.0496 796.789 56.1712C795.481 55.8066 794.173 55.442 792.864 55.0775C791.913 54.7129 790.129 54.1053 789.297 53.7407C788.226 53.2546 786.918 52.7686 785.729 52.2825C785.491 52.1609 785.134 52.0394 784.896 51.9179C786.442 51.7964 788.107 51.5533 789.415 51.0673C790.367 50.5812 790.961 49.9736 791.675 48.8799C796.075 42.4392 798.216 43.2899 799.286 42.4392H800C799.881 42.4392 800 42.4392 800 42.4392ZM788.226 45.4773C788.226 45.4773 788.107 45.5988 787.869 45.7203C787.988 45.5988 788.107 45.4773 788.226 45.4773Z" fill="#5181A4"/>
<path fill-rule="evenodd" clip-rule="evenodd" d="M735.291 60.2273C735.291 59.8836 735.627 59.7117 735.964 59.5399C735.964 59.5399 735.964 59.5399 736.048 59.454C736.132 59.368 736.384 59.2821 736.552 59.2821C736.552 59.2821 736.636 59.1962 736.721 59.1102L736.636 59.1962L736.721 59.1102C736.889 58.9384 737.057 58.7665 737.309 58.5087C737.898 57.7354 738.318 57.6495 739.412 57.9072C740.421 58.0791 740.673 58.165 741.766 58.0791C742.691 57.9932 743.7 57.9932 744.541 57.8213C744.541 57.4776 744.457 57.0479 744.289 56.7042C743.616 55.3294 742.018 53.8686 741.346 53.0093C740.168 51.2907 739.58 46.9084 740.168 46.4787C740.421 46.3928 740.589 46.5647 740.757 46.7365C740.841 46.8225 740.925 46.9084 740.925 47.0802C741.009 47.1662 741.009 47.1662 741.009 47.338C742.103 46.5647 742.187 48.3692 742.944 48.2832C743.364 48.1973 743.616 48.2832 743.784 48.4551C744.037 48.7129 744.121 49.1425 744.373 49.4003C744.541 49.5722 744.625 49.6581 744.962 49.6581C745.214 49.744 745.382 49.744 745.466 49.83C745.635 50.0018 745.719 50.2596 745.803 50.6892C746.055 51.6345 746.223 51.2907 746.644 51.5485C746.98 51.8922 746.644 52.4078 747.148 52.7515C747.316 52.9234 747.401 53.0093 747.569 53.0093C747.737 53.1812 747.821 53.2671 747.905 54.0405L748.41 54.3842C749.251 54.0405 753.876 50.3455 754.549 49.1425C755.053 48.2832 755.978 46.6506 756.399 45.7054C756.567 45.3617 756.483 45.1039 756.903 45.018C757.071 45.3617 757.071 45.7054 756.987 46.135L757.492 45.7913C757.576 46.221 757.576 46.7365 757.492 47.1662L757.576 47.2521C757.492 47.338 757.744 47.424 757.576 47.2521C757.576 47.2521 757.744 47.2521 757.828 47.338L757.828 48.0254C757.997 48.0254 757.828 47.8536 758.165 48.0255L757.828 48.7129C757.66 49.2285 758.249 48.4551 757.744 49.8299L757.912 50.0018C757.997 50.0877 757.997 49.9159 757.997 50.2596C757.997 50.6033 757.576 51.3767 757.072 51.5485C757.24 51.7204 757.156 51.6345 757.576 51.7204C757.576 52.4078 757.156 52.15 757.24 52.5797C757.24 53.0952 756.987 52.8374 756.567 53.6108L756.483 53.6967C756.483 53.6967 756.483 53.6967 756.399 53.7827C756.315 53.8686 756.146 53.8686 755.894 53.9545C756.146 54.2123 756.062 54.2983 755.81 54.3842C755.726 54.4701 755.642 54.3842 755.474 54.3842C755.642 54.556 755.642 54.556 755.81 54.7279L754.885 54.8138L755.221 55.1575C754.212 55.1575 754.465 55.0716 754.296 55.4153C754.128 55.759 753.96 55.759 753.54 56.0168L752.53 56.7042C752.11 56.962 752.11 57.3057 751.689 57.5635C751.353 57.7354 751.101 57.8213 751.017 58.5947C752.951 59.1962 753.708 60.1414 755.053 61.1725C755.305 61.4303 755.894 61.6881 756.231 62.0318L756.315 62.1177L756.399 62.2037C755.894 62.3755 755.894 62.0318 755.726 62.2037C755.474 62.2896 755.726 62.3755 755.39 62.3755C755.221 62.3755 755.137 62.2896 754.969 62.2896C754.633 62.2896 754.885 62.5474 754.212 62.3755C753.455 62.1177 754.044 62.7192 753.455 62.4614L753.371 62.3755L752.867 62.2037L752.614 62.4614C752.614 62.4614 752.53 62.5474 752.446 62.6333C752.278 62.8052 752.446 62.6333 752.278 62.8052C751.858 62.7193 751.774 63.1489 751.437 62.977L751.353 62.8911C751.353 63.2348 751.437 63.1489 751.101 63.1489C750.764 63.1489 750.933 63.1489 750.68 62.8911L749.671 63.0629C749.671 63.0629 749.587 62.977 749.671 63.0629L749.503 63.063C749.335 63.063 749.335 63.063 749.167 63.063C745.803 63.063 747.064 62.977 748.662 62.8911C747.569 62.8052 746.307 62.5474 745.298 62.3755C745.298 62.3755 745.13 62.3755 745.046 62.2896C744.373 62.1178 743.784 61.86 743.532 61.6022C742.944 61.1725 742.355 60.3992 741.682 60.0555C740.168 59.1962 739.748 59.7977 737.646 59.7117C737.225 59.6258 736.721 59.7977 736.132 59.8836C735.711 59.9695 735.459 60.0554 735.291 60.2273Z" fill="#5181A4"/>
<path fill-rule="evenodd" clip-rule="evenodd" d="M767.396 33.3068C766.755 33.2595 766.192 33.0588 765.629 32.858C764.73 32.3823 763.795 31.7902 763.086 31.1239C762.414 30.574 761.706 29.9077 760.848 29.1621C761.674 29.4051 762.651 29.7274 763.4 30.1238C763.972 29.5522 764.081 29.9013 763.981 28.7797C763.913 28.1608 764.031 27.7375 763.7 27.0763C763.591 26.7272 763.264 25.6798 763.078 25.4842C763.078 25.4842 763.042 25.3678 762.928 25.4049C762.633 24.8601 762.451 24.2782 762.193 23.8498C762.047 23.3843 761.752 22.8395 761.53 22.5275L761.493 22.4111C761.085 21.9034 760.713 21.5121 760.227 21.1578C760.268 20.888 760.308 20.6182 760.163 20.1527C759.823 20.2639 759.782 20.5338 759.591 20.7243C759.441 20.645 759.291 20.5657 759.141 20.4864C759.073 19.8675 759.005 19.2485 758.556 19.0107L758.315 20.2435C758.165 20.1642 758.015 20.0849 757.865 20.0056C757.648 19.3073 757.58 18.6884 757.094 18.3342L757.016 18.4876L757.053 18.604C757.012 18.8738 757.121 19.2229 757.08 19.4928C756.744 19.2178 756.372 18.8265 756.04 18.1653L755.777 18.1231C755.849 18.3559 755.772 18.5094 755.845 18.7421C755.836 19.5145 756.122 20.8317 756.19 21.4507C756.19 21.4507 756.19 21.4507 756.153 21.3343C756.003 21.255 756.003 21.255 756.003 21.255C756.003 21.255 756.003 21.2551 755.89 21.2921C755.799 22.6042 755.685 22.6413 756.049 23.8051C756.339 24.7361 756.139 25.699 755.903 26.5456L756.28 26.5508C756.203 26.7042 756.239 26.8206 756.125 26.8577C756.012 26.8948 756.012 26.8948 755.935 27.0482C755.213 27.5406 755.176 27.4242 754.082 27.5253C752.383 27.6954 751.589 27.955 750.013 27.3155C748.887 26.914 748.07 25.8986 746.635 26.1109C745.804 26.2541 745.763 26.524 744.968 26.7836L744.854 26.8207C744.854 26.8207 744.705 26.7414 744.591 26.7785C744.478 26.8155 744.441 26.6992 744.364 26.8526C744.364 26.8526 744.478 26.8155 744.627 26.8948C743.833 27.1544 742.856 26.8322 742.77 27.7581C742.884 27.721 743.147 27.7632 743.524 27.7683C743.787 27.8105 744.2 27.932 744.464 27.9742C744.727 28.0164 744.913 28.212 745.177 28.2542C745.327 28.3335 745.29 28.2172 745.404 28.1801C745.967 28.3808 746.38 28.5023 746.38 28.5023C747.02 28.5497 747.397 28.5548 747.738 28.4435C747.965 28.3693 748.342 28.3744 748.528 28.5701C749.541 29.0087 750.326 29.5216 750.812 29.8758C750.998 30.0715 751.107 30.4206 751.366 30.849C751.434 31.468 751.012 32.1189 750.289 32.6113C749.036 33.4054 747.179 34.2687 747.197 35.9299C747.197 35.9299 747.197 35.9299 747.233 36.0463C747.764 35.7444 747.764 35.7444 747.996 35.2841C747.446 37.1307 746.111 38.4646 744.517 39.37C743.454 39.9736 743.459 39.5874 742.369 39.3022C742.728 40.8522 744.662 39.8355 745.648 39.3853C745.339 39.9992 745.339 39.9992 744.807 40.301L743.935 40.7141L743.822 40.7512L743.518 40.9788C744.685 41.1105 745.784 40.6233 746.32 39.9352C746.279 40.2051 745.934 40.7026 745.743 40.8931C745.552 41.0837 745.552 41.0837 745.361 41.2742C744.98 41.6553 745.134 41.3484 745.016 41.7717C745.883 41.7448 746.265 41.3637 746.796 41.0619C746.678 41.4852 746.292 42.2525 746.478 42.4482C747.078 42.7653 748.036 41.4264 748.268 40.966L748.068 41.929C748.935 41.9021 749.471 41.2141 749.666 40.6373L749.703 40.7537L749.884 41.3356C751.019 40.9647 751.106 40.0388 751.833 39.1602C752.623 39.2868 753.299 39.4505 753.122 38.4824C754.367 38.4607 753.912 38.609 754.412 37.8046C756.033 37.788 754.83 37.5399 755.965 37.169C756.987 36.8353 756.274 36.5552 757.105 36.412C757.219 36.3749 757.596 36.38 757.823 36.3058L757.868 35.6498C758.735 35.6229 758.772 35.7393 759.044 35.009C759.358 34.009 758.086 33.1419 757.528 32.5549C758.54 32.9936 758.686 33.4591 759.471 33.9719C761.646 34.9285 766.297 33.7941 767.359 33.1905C767.809 33.4283 767.772 33.312 767.396 33.3068ZM756.112 21.6042C756.112 21.6042 756.226 21.5671 756.112 21.6042C756.226 21.5671 756.226 21.5671 756.112 21.6042C756.226 21.5671 756.226 21.5671 756.112 21.6042C756.226 21.5671 756.226 21.5671 756.112 21.6042C756.226 21.5671 756.226 21.5671 756.112 21.6042C756.262 21.6835 756.262 21.6835 756.112 21.6042C756.262 21.6835 756.149 21.7205 756.149 21.7205L756.112 21.6042C756.112 21.6042 755.999 21.6413 756.112 21.6042C755.999 21.6413 755.999 21.6413 756.112 21.6042C755.999 21.6413 755.999 21.6413 756.112 21.6042C755.999 21.6413 755.999 21.6413 756.112 21.6042C755.999 21.6413 755.999 21.6413 756.112 21.6042Z" fill="#5181A4"/>
<defs>
<linearGradient id="paint0_linear_906_23796" x1="409.478" y1="269.439" x2="410.477" y2="13.0573" gradientUnits="userSpaceOnUse">
<stop stop-color="white"/>
<stop offset="1" stop-color="#D8F3FF"/>
</linearGradient>
<linearGradient id="paint1_linear_906_23796" x1="409.93" y1="247.543" x2="409.994" y2="170.269" gradientUnits="userSpaceOnUse">
<stop stop-color="#ABC8E0"/>
<stop offset="1" stop-color="#89B2D3"/>
</linearGradient>
<linearGradient id="paint2_linear_906_23796" x1="409.814" y1="323.914" x2="410.05" y2="235.778" gradientUnits="userSpaceOnUse">
<stop offset="0.1417" stop-color="#80A5C1"/>
<stop offset="1" stop-color="#5181A4"/>
</linearGradient>
</defs>
</svg>
