<svg width="24" height="24" viewBox="0 0 24 24" fill="none" xmlns="http://www.w3.org/2000/svg">
    <path d="M4 18v-.65a1 1 0 0 1 .41-.81A10.89 10.89 0 0 1 10 15h.08a6.892 6.892 0 0 1 .59-2H10a12.88 12.88 0 0 0-6.61 1.82A2.92 2.92 0 0 0 2 17.35V20h9.26a7.132 7.132 0 0 1-1-2H4zM10 12a4 4 0 1 0 0-8 4 4 0 0 0 0 8zm0-6a2 2 0 1 1 0 4 2 2 0 0 1 0-4zM20.75 16a4.335 4.335 0 0 0-.06-.63l1.14-1-1-1.73-1.45.49a3.648 3.648 0 0 0-1.08-.63L18 11h-2l-.3 1.49a3.65 3.65 0 0 0-1.08.63l-1.45-.49-1 1.73 1.14 1a4.349 4.349 0 0 0-.06.63c.005.211.025.422.06.63l-1.14 1 1 1.73 1.45-.49c.321.27.686.484 1.08.63L16 21h2l.3-1.49c.393-.146.759-.36 1.08-.63l1.45.49 1-1.73-1.14-1c.036-.212.056-.425.06-.64zM17 18a2 2 0 1 1 0-4 2 2 0 0 1 0 4z" fill="#D75426"/>
</svg>
