<svg width="224" height="156" viewBox="0 0 224 156" fill="none" xmlns="http://www.w3.org/2000/svg">
    <path d="M206.549 145.216c0-2.524-32.236-4.569-72-4.569-11.508 0-22.385.171-32.034.476-7.158-.791-20.249-1.32-35.212-1.32-22.642 0-40.997 1.211-40.997 2.707 0 1.388 15.842 2.532 36.245 2.688l-.001.019c0 .967 4.733 1.864 12.81 2.602-16.25.838-26.683 2.139-26.683 3.6 0 2.53 31.308 4.581 69.928 4.581 38.619 0 69.928-2.051 69.928-4.581 0-.929-4.219-1.793-11.468-2.515 17.877-.832 29.484-2.174 29.484-3.688zM192.512 137.988c17.39 0 31.488-1.212 31.488-2.707 0-1.495-14.098-2.707-31.488-2.707-17.391 0-31.489 1.212-31.489 2.707 0 1.495 14.098 2.707 31.489 2.707z" fill="#A6A6A6"/>
    <path d="M26.816 137.77c12.55 0 22.724-.859 22.724-1.918s-10.174-1.917-22.724-1.917-22.724.858-22.724 1.917c0 1.059 10.174 1.918 22.724 1.918z" fill="#BFB7B2"/>
    <path d="M22.504 119.716a4.894 4.894 0 0 1-.092.457 1.047 1.047 0 0 1-.02.087c-2.28-4.666-7.051-7.471-10.9-10.956C3.878 102.411-.441 92.029.036 81.771v-.002c.136.012.272.025.408.042 4.005.466 7.719 2.566 10.616 5.383 2.995 2.91 5.185 6.553 6.978 10.325.767 1.614 1.47 3.263 1.953 4.981.444 1.575.702 3.194.958 4.808l1.346 8.466c.206 1.306.413 2.648.209 3.942z" fill="#7A6C32"/>
    <path d="m23.857 123.946-.243.056c-.299-1.303-.722-2.58-1.2-3.83a89.116 89.116 0 0 0-1.259-3.082c-2.79-6.602-5.678-13.429-9.274-19.77-3.613-6.372-7.5-11.48-11.843-15.55v-.002c.136.012.272.026.408.042 4.266 4.049 8.095 9.107 11.655 15.385 3.602 6.355 6.492 13.188 9.286 19.797.377.894.762 1.801 1.12 2.723.536 1.377 1.02 2.785 1.35 4.231z" fill="#BFA845"/>
    <path d="m43.691 65.921 5.848-.155s2.407.929 6.492 3.418c-5.253-1.613-11.338-.85-16.08 1.926l3.74-5.189z" fill="#697C2B"/>
    <path d="M49.54 65.765c-2.43.796-4.445 2.587-5.888 4.695-1.445 2.109-2.367 4.529-3.127 6.97-1.853 5.946-2.916 12.343-6.581 17.379-2.62 3.596-6.388 6.224-9.054 9.785a20.701 20.701 0 0 0-4.099 12.338c-.3-.257-.496-.595-.64-.964a6.403 6.403 0 0 1-.299-1.117c-2.234-11.115-1.573-23.34 3.628-33.57a36.482 36.482 0 0 1 3.255-5.252c3.112-4.174 7.237-8.33 12.29-9.966a18.741 18.741 0 0 1 8.797-.671 17.445 17.445 0 0 1 1.717.374z" fill="#BFA845"/>
    <path d="M48.512 65.52c-2.458.392-4.964 1.375-7.355 2.896-2.513 1.6-4.93 3.777-7.605 6.854-3.554 4.087-6.389 8.366-8.424 12.718-3.692 7.896-5.36 17.283-4.976 27.978.082 2.274.255 4.606.522 6.997l-.248.027a91.94 91.94 0 0 1-.554-8.051c-.243-10.307 1.442-19.382 5.031-27.056 2.046-4.375 4.893-8.674 8.462-12.777 2.691-3.095 5.127-5.287 7.66-6.9 2.21-1.406 4.517-2.358 6.8-2.815.228.038.458.081.687.13z" fill="#7A6C32"/>
    <path d="M22.709 102.835c.557-1.2 1.315-2.298 2.142-3.332 2.285-2.862 5.156-5.306 8.505-6.79 3.35-1.482 7.195-1.957 10.73-.998a12.504 12.504 0 0 0-3.406 4.026 10.544 10.544 0 0 1 6.683-2.61c3.103 2.256 4.605 6.044 6.046 9.6 1.442 3.556 3.034 7.301 6.15 9.538-3.79-.138-6.934-2.782-10.197-4.712-3.412-2.018-7.187-3.329-10.945-4.597-2.573-.869-5.182-1.731-7.89-1.944-2.709-.213-5.642.193-7.818 1.819z" fill="#F8AD50"/>
    <path d="M19.966 115.878c.257-3.083.514-6.17.99-9.227.16-1.026.346-2.058.75-3.014.61-1.436 1.68-2.629 2.837-3.673 1.758-1.585 3.789-2.904 6.043-3.628 2.254-.722 4.743-.821 6.977-.04a21.814 21.814 0 0 0-1.592 5.062 9.376 9.376 0 0 1 3.802-3.252c2.485 1.044 5.305 2.23 7.51 3.778 2.335 1.638 4.263 3.776 6.319 5.753 2.056 1.976 4.325 3.844 7.03 4.746-6.554.236-12.822-2.578-18.53-5.811-1.039-.589-2.07-1.194-3.157-1.689-2.164-.987-4.504-1.521-6.845-1.938-2.539-.451-5.347-.723-7.523.662-2.222 1.416-3.16 4.183-3.525 6.791-.272 1.946-.315 3.917-.292 5.882-.19-.143-.602-.26-.794-.402z" fill="#7A6C32"/>
    <path d="M7.923 114.948h24.273l-2 20.96H9.925l-2.002-20.96z" fill="#E68531"/>
    <path d="M32.196 114.948H7.923l.45 4.712 23.242 1.383.581-6.095z" fill="#D75426"/>
    <path d="M6.61 112.198h26.9l-.75 6.415H7.36l-.75-6.415z" fill="#E68531"/>
    <path d="M34.494 142.255h-.55L44.5 89.55h2.834l-12.84 52.705zM73.622 142.255h.55L63.617 89.55h-2.835l12.84 52.705z" fill="#5E1212"/>
    <path d="M58.732 142.255h-.55L68.737 89.55h2.836l-12.84 52.705zM97.86 142.255h.55L87.853 89.55h-2.835l12.841 52.705z" fill="#5E1212"/>
    <path d="M73.005 86.547H35.11v3.003h37.894v-3.003z" fill="#F3C3A8"/>
    <path d="M97.243 86.547H59.35v3.003h37.893v-3.003z" fill="#AA785E"/>
    <path d="M76.778 84a1.573 1.573 0 0 1-.735-.186l-1.558-.831.295-.552 1.557.831a.95.95 0 0 0 .79.048l.094-.036a.944.944 0 0 0 .607-.88l.01-1.879a.951.951 0 0 0-1.567-.727l-1.025.876-.406-.475 1.025-.876a1.578 1.578 0 0 1 2.6 1.206l-.01 1.878a1.566 1.566 0 0 1-1.008 1.461l-.093.036a1.569 1.569 0 0 1-.576.105zM74.62 85.742l-9.42-.048-.004.813 9.42.048.004-.813z" fill="#E0C5BD"/>
    <path d="m75.56 78.927-10.848-.054-.008 1.506a5.31 5.31 0 0 0 5.284 5.337l.225.001a5.31 5.31 0 0 0 5.337-5.284l.01-1.506z" fill="#F5E1DA"/>
    <path d="M74.614 78.924c-.207 1.14-.642 2.217-1.382 3.141-1.498 1.825-3.61 2.697-5.852 2.904a5.424 5.424 0 0 0 8.171-4.648l.008-1.392-.945-.005z" fill="#E0C5BD"/>
    <path d="M75.549 79.555 64.71 79.5l-.002.438 10.839.055.002-.438z" fill="#C9B6B1"/>
    <path d="M51.387 86.132c1.09-1.84 3.456-2.82 5.529-2.288 1.52.391 2.764 1.469 3.866 2.586l-9.395-.298z" fill="#B75913"/>
    <path d="M49.02 86.132c1.09-1.84 3.456-2.82 5.528-2.288 1.52.391 2.764 1.469 3.867 2.586l-9.395-.298z" fill="#E49329"/>
    <path d="M45.74 86.132c1.09-1.84 3.457-2.82 5.53-2.288 1.52.391 2.763 1.469 3.865 2.586l-9.395-.298z" fill="#FFBA55"/>
    <path d="M62.213 85.839H43.335l1.426.783h16.025l1.427-.783z" fill="#F5E1DA"/>
    <path d="M210.147 99.314h-24.662v1.955h24.662v-1.955z" fill="#8C5841"/>
    <path d="M194.372 99.314H169.71v1.955h24.662v-1.955z" fill="#AA785E"/>
    <path d="M169.309 135.57h-.359l6.87-34.3h1.845l-8.356 34.3zM194.773 135.57h.358l-6.87-34.3h-1.845l8.357 34.3z" fill="#5E1212"/>
    <path d="M185.083 135.57h-.357l6.868-34.3h1.845l-8.356 34.3zM210.547 135.57h.358l-6.869-34.3h-1.846l8.357 34.3z" fill="#5E1212"/>
    <path d="M190.746 41.078h-1.637v52.717h1.637V41.078z" fill="#665253"/>
    <path d="M194.373 80.228h-8.887v19.11h8.887v-19.11z" fill="#E68531"/>
    <path d="M205.123 47.347a88.829 88.829 0 0 1-30.39 0l9.379-35.439h11.631l9.38 35.439z" fill="#5D4D50"/>
    <path d="M189.929 12.376c3.211 0 5.815-.21 5.815-.469s-2.604-.469-5.815-.469c-3.211 0-5.815.21-5.815.47 0 .258 2.604.468 5.815.468z" fill="#FFBA55"/>
    <path d="m205.125 47.347-9.379-35.439h-.051c1.016 4.072 1.631 8.244 1.408 12.423-.29 5.435-2.096 10.917-5.778 14.924-4.107 4.472-10.033 6.673-15.962 8.196a88.822 88.822 0 0 0 29.762-.104zM190.715 99.337h-1.038l1.815-8.834h1.038l-1.815 8.834z" fill="#49373B"/>
    <path d="M200.452 99.337h-7.922l-2.117-12.961h7.92l2.119 12.96z" fill="#5D4D50"/>
    <path d="M199.371 98.347h-6.086l-1.794-10.979h6.087l1.793 10.98z" fill="#F8DAB4"/>
    <path d="M198.784 97.817h-5.086l-1.621-9.923h5.086l1.621 9.923zM116.138 145.835v1.631c0 .9 7.957 1.63 17.773 1.63 9.816 0 17.773-.73 17.773-1.63v-1.631h-35.546z" fill="#BE917C"/>
    <path d="M133.913 147.466c9.816 0 17.773-.73 17.773-1.63 0-.901-7.957-1.631-17.773-1.631-9.816 0-17.773.73-17.773 1.631 0 .9 7.957 1.63 17.773 1.63z" fill="#49373B"/>
    <path d="M135.493 129.971h-3.164v15.866h3.164v-15.866z" fill="#49373B"/>
    <path d="m87.862 139.431 1.825-5.41-6.473.319c-.334 1.564-.665 3.13-.938 4.705 1.828.361 3.71.455 5.586.386zM74.138 132.173l-4.466-3.547c-1.352 1.808-3.063 3.285-4.965 4.503.777 1.664 2.276 2.856 3.98 3.679 1.586-1.766 3.532-3.216 5.451-4.635z" fill="#F8946A"/>
    <path d="M161.136 120.49c-3.083 3.631-7.724 5.536-12.306 6.835a69.863 69.863 0 0 1-21.725 2.592c-5.046-.196-10.126-.958-14.786-2.902-4.661-1.943-8.897-5.139-11.502-9.466-1.262-2.097-2.14-4.536-1.849-6.965.323-2.677 1.998-4.974 3.661-7.097A190.05 190.05 0 0 1 132.753 72.9c3.325-2.688 6.788-5.29 10.72-6.97 3.933-1.682 8.194-1.827 12.418-1.152 4.21.672 8.53.975 12.725.219s8.282-2.643 11.128-5.816c-1.893 4.153-2.047 9.307-2.616 13.835-1.079 8.573-2.44 17.117-4.333 25.547-.94 4.192-2.026 8.395-3.972 12.224-2.024 3.981-4.797 6.3-7.687 9.703z" fill="#F26522"/>
    <path d="M155.891 64.778c-4.223-.674-8.485-.528-12.418 1.152-3.931 1.682-7.394 4.283-10.72 6.97a189.997 189.997 0 0 0-30.123 30.588c-1.663 2.123-3.338 4.419-3.661 7.097-.293 2.429.585 4.869 1.848 6.965 2.606 4.327 6.842 7.522 11.502 9.466 4.66 1.944 9.74 2.704 14.787 2.901 2.551.099 5.107.053 7.653-.127 16.401-18.597 28.687-40.338 31.619-64.488-3.483.33-7.023.03-10.487-.524z" fill="#D75426"/>
    <path d="M103.972 110.137c-.077.44.256.836.572 1.153 7.367 7.396 18.39 10.959 28.692 9.276-2.753-5.341-6.629-10.368-12.028-13.005-5.399-2.638-12.52-2.337-16.792 1.888-.196.195-.396.414-.444.688z" fill="#2D6384"/>
    <path d="M118.151 39.686c1.367 6.542.225 13.578-3.141 19.352-1.801 3.089-4.288 6.055-4.425 9.628.613-3.365 3.022-6.063 4.851-8.954a28.598 28.598 0 0 0 3.94-10.058c.562 3.417-1.116 6.84-3.327 9.506-2.21 2.666-4.971 4.833-7.186 7.496-.635.762-1.229 1.574-1.599 2.494-.668 1.66-.554 3.516-.43 5.3 2.427.7 4.676 1.17 7.199 1.048 2.522-.122 5.052-.835 7.118-2.287 1.077-.756 2.01-1.698 2.883-2.681a36.653 36.653 0 0 0 7.066-11.886c.57-1.583 1.034-3.215 1.211-4.887.482-4.568-1.234-9.178-3.975-12.862-.945-1.27-2.08-2.497-3.579-3.005l-6.606 1.796z" fill="#5E1212"/>
    <path d="M111.228 77.476c.132-1.396.832-2.668 1.516-3.893l7.066-12.632c.731-1.306 1.479-2.636 2.569-3.663 1.377-1.298 3.206-2.018 5.053-2.428 2.939-.652 5.389-2.863 8.233-3.85 1.235-.428 2.548-.767 3.84-.572.781.12 1.519.429 2.247.734l9.679 4.072c1.337.563 3.091-.08 4.304.717.586.386 1.05.927 1.507 1.46.243.285 1.715 1.088 2.226 3.755.322 1.685.72 3.1 1.256 4.73a91.08 91.08 0 0 0-4.715 8.602c-.382.795-.754 1.6-.984 2.451-1.359 5.04-2.326 9.931-3.102 15.094-1.084 7.21.536 14.581 1.543 21.8-3.899-.318-7.562-1.914-11.141-3.488-6.019-2.648-12.177-5.387-16.894-9.968-4.227-4.108-7.022-9.433-9.743-14.661-1.561-2.988-2.904-5.27-4.46-8.26z" fill="#FFBA55"/>
    <path d="m152.024 73.225-2.834-8.148c-.583 2.284-.055 4.624.565 6.899.62 2.275 1.461 4.502 1.783 6.837.427 3.105-.025 6.364-.428 9.45-.617 4.73-1.502 9.297-3.604 13.596-4.33-.256-8.509-2.295-12.5-3.996a60.939 60.939 0 0 0-7.892-2.74c-2.225-.605-4.502-1.085-6.803-1.134 1.485 2.313 3.146 4.494 5.118 6.409 4.716 4.583 10.874 7.322 16.893 9.968 3.581 1.574 7.244 3.171 11.141 3.488-1.007-7.22-2.627-14.592-1.543-21.8.776-5.163 1.745-10.052 3.102-15.094.193-.716.488-1.399.804-2.072-.737-.322-1.495-.579-2.217-.579l-1.585-1.084z" fill="#E49329"/>
    <path d="m140.876 50.362.189 2.95c.188 2.925.139 7.345-2.447 9.376-.972.765-2.365.856-3.527.433-1.163-.423-2.114-1.3-2.848-2.296a3.692 3.692 0 0 1-1.189 1.35c-.208.142-.454.268-.703.225-.465-.082-.627-.66-.663-1.13a11.53 11.53 0 0 1 .661-4.807c1.153-3.17 3.323-5.91 6.332-7.433.945-.48 1.994-.845 3.048-.73.68.074 1.467.57 1.332 1.24-.038.185-.347.722-.185.822z" fill="#F8DAB4"/>
    <path d="M140.245 50.5a18.422 18.422 0 0 1-6.588 9.529c-.348.26-.79.522-1.193.357-.386-.157-.53-.623-.598-1.035a9.052 9.052 0 0 1-.012-2.864c.49-3.143 3.096-5.706 5.459-7.834.338-.305.696-.604 1.122-.76.427-.156.942-.144 1.298.138.386.309.498.848.501 1.342.003.422.129.725.011 1.128z" fill="#E26D4D"/>
    <path d="M137.778 48.541c-.681 2.63-4.316 7.875-6.802 8.967-2.487 1.093-3.514.175-5.676-1.468-1.939-1.472-2.994-3.83-3.665-6.17-.67-2.34-1.042-4.778-1.996-7.019-.898-2.11-1.373-4.638-.113-6.553 1.259-1.915 3.54-3.035 5.83-3.145.913-.044 1.841.062 2.699.378 1.987.734 3.385 2.492 4.677 4.17.573.742 1.146 1.487 1.652 2.276 2.017 3.15 4.33 4.944 3.394 8.564z" fill="#F8946A"/>
    <path d="M123.022 52.333c-.873-1.958-1.325-4.225-1.847-6.304-.522-2.078-.936-4.203-2.01-6.059-.14-.24-.272-.487-.402-.736.032 1.22.393 2.48.877 3.617.954 2.24 1.324 4.678 1.995 7.018.671 2.341 1.726 4.698 3.665 6.17 1.83 1.39 2.847 2.26 4.622 1.835a6.798 6.798 0 0 1-2.661-.872c-1.853-1.077-3.367-2.71-4.239-4.67z" fill="#FFB297"/>
    <path d="M130.103 48.353c-.051.198-.277.32-.48.295-.203-.025-.379-.166-.491-.337-.114-.17-.176-.37-.235-.565l-.268-.869a1.835 1.835 0 0 1-1.064-.026 6.484 6.484 0 0 0 1.557-.675l.866 1.687c.078.151.158.323.115.49zM123.804 49.783c-.051.17-.252.267-.427.239-.176-.029-.323-.158-.416-.31a1.82 1.82 0 0 1-.185-.5c-.069-.254-.135-.51-.203-.763a1.597 1.597 0 0 1-.925-.06 5.646 5.646 0 0 0 1.375-.533l.695 1.496c.063.136.128.289.086.43zM132.455 44.089c-.961.106-1.901.4-2.754.857-.977.526-1.873 1.28-2.967 1.464.018-.269.155-.574.404-.677 1.685-.696 3.493-1.582 5.317-1.644zM120.784 46.915c.199-.162.491-.054.735.029a2.865 2.865 0 0 0 1.867-.016c-.103-.173-.359-.385-.554-.432-.196-.047-.4-.04-.602-.035l-.781.024c-.154.005-.312.01-.455.069-.141.058-.197.208-.21.361z" fill="#5E1212"/>
    <path d="M125.823 54.089a6.657 6.657 0 0 1 1.858-.254c1.004-.763 2.055-1.52 3.139-2.193.003.386 0 .74-.124 1.11-.3.901-1.019 1.728-2.019 2.057-.999.329-2.278.07-2.854-.72z" fill="#A30A41"/>
    <path d="m152.023 73.226 8.432-8.148s6.662 21.881 8.497 33.637l-9.471-1.893-7.458-23.596z" fill="#F8946A"/>
    <path d="m157.979 92.067 1.504 4.755 9.47 1.893c-.283-1.809-6.297-8.646-10.974-6.648z" fill="#D8684E"/>
    <path d="m146.315 93.207 5.501 5.561c2.642 2.673 5.329 5.378 8.589 7.247 1.766 1.012 4 1.751 5.78.767.828-.458 1.437-1.236 1.891-2.068 1.488-2.727 2.056-6.76-.292-8.793-.721-.624-1.634-.972-2.528-1.307l-14.853-5.588c-2.625-.987-5.257-1.977-7.977-2.655-.381-.095-.771-.184-1.163-.164-.51.026-.989.235-1.455.44l-5.796 2.554c-.144.063-.291.129-.398.244-.153.165-.195.403-.231.627l-.354 2.228c.055.13.199.29.328.233.129-.057.217-.18.293-.299.385-.59.683-1.235.885-1.91.86-.326 1.749-.575 2.654-.742a13.11 13.11 0 0 0-2.486 3.29l11.612.335z" fill="#F8946A"/>
    <path d="M125.686 76.616c1.603-.214 3.258-.41 4.817.022.912.253 1.752.712 2.583 1.166l9.096 4.973c-1.605-.186-3.245-.696-4.696-1.406-3.869-1.896-7.623-3.707-11.8-4.755zM126.658 60.523c-2.318 2.157-4.407 4.633-5.678 7.534s-1.664 6.271-.612 9.258c.978-3.187.847-6.676 2.143-9.748.447-1.058 1.053-2.039 1.657-3.016l2.49-4.029z" fill="#E49329"/>
    <path d="m149.192 92.678-28.184-2.61-.5 1.533 28.89 1.594-.206-.517z" fill="#fff"/>
    <path d="m119.762 90.443 29.636 2.752-.099 1.252a.609.609 0 0 1-.669.558l-28.868-2.936v-1.626z" fill="#E3D0CA"/>
    <path d="m130.326 93.076-11.677-29.443a2.493 2.493 0 0 0-2.311-1.588l-31.41-.152a1.06 1.06 0 0 0-1.02 1.367l7.923 26.225 38.495 3.591z" fill="#fff"/>
    <path d="m129.655 93.078-11.51-29.445a2.494 2.494 0 0 0-2.312-1.588l-31.41-.152a1.06 1.06 0 0 0-1.02 1.367l7.923 26.225 38.329 3.593z" fill="#E3D0CA"/>
    <path d="m111.183 88.99-6.951-4.62c-1.634-1.085-3.285-2.181-5.13-2.846-1.844-.664-3.928-.865-5.75-.143-1.926.762-3.354 2.473-4.213 4.358-.858 1.885-1.218 3.953-1.558 5.996a574.737 574.737 0 0 0-5.57 43.729c2.657.825 5.702 1.015 8.48.848 2.84-10.432 6.144-20.717 8.985-31.149l11.707-16.172z" fill="#145A7B"/>
    <path d="M104.232 84.37c-1.632-1.086-3.285-2.182-5.13-2.846-1.432-.516-3.008-.75-4.496-.491 1.66.8 3.159 2.007 4.425 3.356 2.168 2.313 3.806 5.062 5.734 7.578a26.596 26.596 0 0 0 2.324 2.679l4.094-5.656-6.951-4.62z" fill="#1D4A68"/>
    <path d="M149.516 111.261a313.592 313.592 0 0 0-14.877-12.104l-16.331 14.315c2.626 3.271 5.291 6.595 7.873 9.806l23.335-12.017z" fill="#3B7193"/>
    <path d="M99.583 112.757c1.238 2.21 2.707 4.412 4.889 5.695 2.638 1.551 5.973 1.516 8.895.605 2.923-.911 5.524-2.609 8.084-4.287l7.298-4.784c3.853-2.525 7.822-5.101 12.327-6.059 4.506-.959 9.737.051 12.592 3.665.912 1.154 1.537 2.504 2.152 3.84.7 1.519 1.597 2.877 2.297 4.397 2.488.057 4.373-1.936 6.536-3.168 5.048-2.877 6.369-12.356 7.278-19.265.92-6.983.449-14.125 1.522-21.085 1.501-9.742 4.335-15.946 8.421-18.301h1.945l-1.612 3.098c-1.849 4.382-3.887 8.836-4.946 13.473-.334 1.465-.588 2.946-.834 4.428a544.087 544.087 0 0 0-2.432 16.062c-.635 4.657-1.238 9.638-2.643 14.123-1.404 4.486-3.715 8.795-7.268 11.872-2.831 2.451-6.311 4.015-9.805 5.361-12.662 4.882-26.731 7.343-39.857 3.897-2.227-.585-4.427-1.342-6.42-2.495-2.724-1.578-4.981-3.848-7.016-6.249-1.94-2.29-3.802-5.029-3.527-8.019 1.105.425 2.162 2.013 2.124 3.196z" fill="#FF858B"/>
    <path d="M98.169 113.316c1.52 2.163 3.29 4.191 5.479 5.672 2.19 1.481 4.836 2.385 7.472 2.169 3.111-.257 5.875-2.004 8.497-3.7l9.881-6.394c3.273-2.118 6.593-4.258 10.292-5.492 3.699-1.233 7.882-1.48 11.418.164 2.744 1.277 4.885 3.58 6.6 6.073.503.733.992 1.502 1.699 2.043 1.54 1.175 3.801.962 5.485.004 5.214-2.969 6.078-10.468 7.323-16.337 2.296-10.823.669-22.285 3.74-32.915 1.256-4.35 3.611-8.794 7.763-10.593-3.338 14.543-6.636 28.93-9.975 43.473-1.61 7.012-3.298 14.208-7.359 20.147-1.624 2.377-3.599 4.5-5.746 6.417-9.259 8.263-22.109 12.586-34.399 10.859-12.29-1.728-23.009-10.304-28.17-21.59z" fill="#D75426"/>
    <path d="M82.276 139.044a50.756 50.756 0 0 0-.316 2.071c-4.24 3.859-9.243 6.575-14.709 8.302-.463.146-1.01.378-1.069.86-.03.262.104.514.255.731 1.088 1.566 3.115 2.25 5.022 2.234 1.906-.016 3.752-.625 5.582-1.162 1.83-.538 3.736-1.014 5.627-.763 1.068.142 2.294.475 3.118-.219.6-.506.725-1.367.81-2.148.138-1.29.277-2.584.272-3.881-.003-.785-.058-1.575.043-2.354.099-.759.345-1.49.589-2.215l.361-1.07c-1.874.069-3.757-.025-5.585-.386zM64.705 133.131c-1.827 1.17-3.83 2.102-5.864 2.857-4.15 1.539-8.508 2.438-12.71 3.825-.523.172-1.07.371-1.419.797-.451.553-.446 1.378-.148 2.028.298.649.84 1.153 1.402 1.593 1.914 1.501 4.466 2.494 6.784 1.761 1.664-.526 2.98-1.862 4.648-2.381 2.071-.642 4.458.048 6.395-.926 1.708-.86 2.569-2.753 3.656-4.326a15.38 15.38 0 0 1 1.235-1.551c-1.701-.822-3.2-2.013-3.979-3.677z" fill="#E3D0CA"/>
    <path d="M120.91 89.235c-1.44-.982-2.914-1.966-4.575-2.495-1.662-.53-3.562-.556-5.068.323-17.578 10.252-30.408 27.173-43.684 42.596 1.047 1.916 2.378 3.619 3.885 5.198 14.757-8.11 30.538-14.802 43.969-24.961l4.128 5.14 16.411-14.853c-4.488-3.43-10.401-7.766-15.066-10.948z" fill="#3B7193"/>
    <path d="m115.435 109.897.868 1.081c2.525-3.668 4.797-7.499 6.063-11.746-2.165 3.758-4.505 7.067-6.931 10.665z" fill="#1D4A68"/>
    <path d="M116.121 110.646a29.74 29.74 0 0 0 11.393-4.313c-1.474 1.425-3.308 2.609-5.252 3.265-1.359.459-2.78.704-4.194.948-.522.09-1.424.01-1.947.1z" fill="#1D4A68"/>
    <path d="m125.446 49.792-.147.146c-.095.091-.231.221-.385.382a3.64 3.64 0 0 0-.469.583 2.262 2.262 0 0 0-.188.365 1.096 1.096 0 0 0-.084.395.705.705 0 0 0 .017.191c.005.018.009.039.014.054l.014.042c.013.028.025.059.04.086a.93.93 0 0 0 .247.292 1.106 1.106 0 0 0 .662.23c.216.005.399-.033.525-.066.126-.035.197-.062.197-.062l-.046.03c-.03.018-.074.046-.135.076a1.54 1.54 0 0 1-.537.156c-.059.005-.121.007-.185.005-.033 0-.066-.005-.101-.009a1.138 1.138 0 0 1-.502-.192 1.062 1.062 0 0 1-.38-.463l-.022-.065-.015-.056a.927.927 0 0 1-.028-.254c.006-.169.048-.33.109-.475a2.03 2.03 0 0 1 .227-.395 2.9 2.9 0 0 1 .549-.566c.179-.143.337-.247.447-.319.111-.073.176-.111.176-.111zM152.713 55.014c-1.32.09-2.312 1.18-3.246 2.117a22.412 22.412 0 0 1-3.854 3.09c-1.05.665-2.222 1.26-3.467 1.225-1.325-.038-2.551-.802-3.404-1.816-.854-1.013-1.383-2.257-1.825-3.507-1.639-4.638-2.304-9.758-5.206-13.73 1.235.663 2.274 1.44 3.022 2.626 1.966 3.11 2.076 6.972 3.202 10.473.333 1.036.705 2.077 1.34 2.96.636.882 1.575 1.6 2.654 1.735.74.094 1.489-.088 2.185-.356 3.152-1.217 5.29-4.134 8.599-4.817z" fill="#5E1212"/>
    <path d="M159.248 60.311c-1.925-7.638-7.192-7.307-8.663-8.495a17.243 17.243 0 0 1-4.952-6.48c-1.142-2.619-1.593-5.463-2.257-8.233-.663-2.77-1.594-5.576-3.498-7.734-2.565-2.905-6.763-4.268-10.651-3.684-3.889.584-7.386 3.015-9.442 6.28s-2.666 7.07-1.995 10.844c1.674 1.405 4.118 1.374 6.327 1.336 2.764-.048 5.642.047 8.267.79 1.763 1.28 3.175 3.032 4.575 4.712.135.162.271.324.41.486.569 1.233 1.031 2.525 1.597 3.764.889 1.947 2.151 3.868 4.094 4.766 2.241 1.036 4.869.493 7.243-.189 1.048-.3 2.117-.627 3.192-.849 2.288-.472 4.638.583 5.732 2.647l.021.04zm-34.563-16.843c-2.02-.16-4.128-.666-5.567-2.055 3.689 1.45 7.899.822 11.47 2.46-1.938-.36-3.936-.25-5.903-.405z" fill="#5E1212"/>
    <path d="M127.561 27.811c-1.891.175-3.876 1.468-5.346 3.48.746-.41 1.531-.572 2.258-.464-1 .935-2.236 1.087-3.213 2.073-.744.75-1.23 1.875-1.688 2.952-.407.96-.819 1.938-1.024 2.963 1.535 1.268 3.612 1.251 5.557 1.287-.824-.275-1.564-.82-2.146-1.582 1.081.837 2.456.945 3.788 1.036.33.023.667.045 1.007-.083.37-.138.716-.444 1.049-.754 1.681-1.57 3.25-3.411 4.651-5.456.138-.203.278-.414.363-.656.119-.338.118-.702.078-1.03-.225-1.886-1.559-2.896-2.89-3.4-.196-.075-.404-.143-.623-.083-.192.052-.375.198-.552.341-2.905 2.343-5.93 4.979-7.729 8.873.021-1.049.546-2.086 1.082-2.992 1.514-2.562 3.373-4.703 5.378-6.505z" fill="#752C2C"/>
    <path d="M167.699 24.381c4.488-4.489 4.488-11.766 0-16.254-4.488-4.489-11.765-4.489-16.254 0-4.488 4.488-4.488 11.766 0 16.254 4.489 4.488 11.766 4.488 16.254 0z" fill="#8E6961"/>
    <path d="M158.923 27.238c6.348 0 11.493-5.146 11.493-11.493 0-6.348-5.145-11.494-11.493-11.494-6.348 0-11.493 5.146-11.493 11.494 0 6.347 5.145 11.493 11.493 11.493z" fill="#D9DAD8"/>
    <path d="M158.923 25.46c5.365 0 9.715-4.35 9.715-9.716s-4.35-9.716-9.715-9.716c-5.366 0-9.716 4.35-9.716 9.716s4.35 9.716 9.716 9.716z" fill="#5D4D50"/>
    <path d="M168.398 17.892a9.304 9.304 0 1 0-18.11-4.275 9.304 9.304 0 0 0 18.11 4.274z" fill="#A6A6A6"/>
    <path d="M159.336 16.539a.795.795 0 1 0 0-1.59.795.795 0 0 0 0 1.59z" fill="#8E6961"/>
    <path d="m159.408 16.252-5.877-2.79a.428.428 0 1 1 .368-.774l5.362 2.545 5.884-5.272a.427.427 0 0 1 .605.034.427.427 0 0 1-.033.605l-6.309 5.652z" fill="#49373B"/>
    <path d="M51.132 29.703v23.81c0 .873-.706 1.58-1.578 1.58H9.237a1.579 1.579 0 0 1-1.579-1.58v-23.81a1.58 1.58 0 0 1 1.579-1.579h40.317a1.577 1.577 0 0 1 1.578 1.579z" fill="#F7E6DE"/>
    <path d="M31.334 38.551c1.165 0 2.11-1.192 2.11-2.662s-.945-2.662-2.11-2.662-2.11 1.192-2.11 2.662.945 2.662 2.11 2.662z" fill="#633F39"/>
    <path d="M26.296 42.126v12.967H14.025l-1.341-11.907a.931.931 0 0 1 .942-1.061h12.67v.001z" fill="#8E6B65"/>
    <path d="M28.092 42.126v12.967H15.82l-1.34-11.907a.93.93 0 0 1 .942-1.061h12.67v.001z" fill="#633F39"/>
    <path d="M40.064 49.246v5.847H18.572c-.043-2.2-.017-4.405.365-6.568.194-1.095.489-2.2 1.12-3.116 1.03-1.495 2.773-2.263 4.294-3.283.51-.342.998-.712 1.424-1.149.445-.056.79.055 1.232.134.167.03.333.07.502.079.15.007.299-.01.446.01.226.03.43.147.627.26 1.76 1.012 3.793 1.48 5.642 2.318 2.031.92 3.575 2.6 4.98 4.361l.276.35c.196.252.39.505.584.758z" fill="#4194A6"/>
    <path d="m25.361 36.739-.212 4.938c.698.668 1.54 1.326 2.38 1.8.364.205.771.397 1.185.333.24-.038.46-.16.648-.314.355-.288.612-.695.721-1.139-.736-1.34-.764-3.072-.892-4.596-.053-.634-.13-1.297-.498-1.815-.305-.428-.788-.715-1.303-.82-.359-.072-.75-.056-1.07.12-.546.304-.933.87-.959 1.493z" fill="#F8946A"/>
    <path d="M29.766 41.637c-.43-1.208-.468-2.613-.573-3.876-.053-.634-.131-1.297-.498-1.815-.305-.428-.789-.715-1.303-.82-.36-.072-.75-.056-1.07.12-.547.304-.933.868-.96 1.493l-.034.79c.768 2.15 2.272 4.046 4.438 4.108z" fill="#FD5B32"/>
    <path d="M24.291 35.804a11.21 11.21 0 0 1-1.227-2.61c-.157-.493-.28-1.024-.14-1.521.139-.498.674-1 1.182-.91-.222-.378-.063-.892.26-1.189.323-.297.77-.418 1.202-.483.434-.066.879-.088 1.294-.228.603-.204 1.099-.64 1.685-.887a2.892 2.892 0 0 1 2.217.002 2.095 2.095 0 0 0-1-.497c.785-.088 1.553.272 2.2.724.346.241.674.512.937.84.914 1.14.871 2.912-.035 4.058-.412.52-1.008 1.008-.99 1.673.013.51-.409.842-.75 1.22-.342.38-.758.682-1.17.982-.524.382-1.07.773-1.703.91-.69.15-1.42-.02-2.05-.337-.631-.317-1.18-.772-1.722-1.226-.176-.146-.264-.306-.19-.521z" fill="#FFBA55"/>
    <path d="M24.332 33.557a6.814 6.814 0 0 1 .927-4.433c.349-.06.685-.157 1.037-.19a6.66 6.66 0 0 0-.838 5.11l-1.126-.487z" fill="#633F39"/>
    <path d="M25.936 37.11a5.5 5.5 0 0 0 2.824 3.25c.276.132.568.243.872.273 1.04.104 1.972-.76 2.328-1.74.357-.982.281-2.06.248-3.102-.036-1.125-.18-2.23-.105-3.353a10.123 10.123 0 0 1-1.869-.543c.395.36.871.633 1.384.788a7.52 7.52 0 0 1-3.604-1.234 4.233 4.233 0 0 1-.068 1.995 3.297 3.297 0 0 1-.57 1.185c-.179.227-.395.425-.639.583-.023.65-.098 1.28.052 1.913a5.82 5.82 0 0 1-.96-1.448c-.048.496-.043.956.107 1.432z" fill="#F8946A"/>
    <path d="M24.544 38.551c1.165 0 2.11-1.192 2.11-2.662s-.945-2.662-2.11-2.662-2.11 1.192-2.11 2.662.945 2.662 2.11 2.662z" fill="#8E6B65"/>
    <path d="M24.109 35.89c0 .457-.294.826-.655.826-.361 0-.654-.37-.654-.825 0-.457.293-.826.654-.826.363 0 .655.37.655.826z" fill="#633F39"/>
    <path d="M28.756 37.307a3.8 3.8 0 0 1 1.685.238c.304-.136.68-.23 1-.32-.025.28-.051.58-.164.838-.111.258-.318.489-.589.563-.18.05-.373.026-.554-.022-.63-.168-1.147-.684-1.378-1.297z" fill="#ECDBD4"/>
    <path d="M26.904 55.093h-1.13a42.884 42.884 0 0 0-2.328-7.242c.524.564 1.054 1.14 1.387 1.833.244.509.373 1.064.514 1.608.24.927.535 1.867.95 2.732.178.373.378.731.607 1.07zM38.286 55.093h-2.148c-.638-3.12-.783-6.403-2.297-9.189.886.702 1.41 1.764 1.757 2.84.345 1.075.54 2.197.919 3.261a9.97 9.97 0 0 0 .921 1.915c.255.412.539.803.848 1.173z" fill="#633F39"/>
    <path d="M51.131 45.35v8.165c0 .872-.706 1.579-1.578 1.579H36.59l.6-1.598 2.011-5.357.664-1.763c.212-.566.842-1.025 1.409-1.025h9.856z" fill="#fff"/>
    <path d="M51.132 45.35v8.165c0 .872-.706 1.579-1.578 1.579H36.999l.44-1.173 2.04-5.432.792-2.113c.213-.566.844-1.025 1.41-1.025h9.451z" fill="#D1BAB4"/>
    <path d="M46.552 52.668h-.929a.367.367 0 0 1-.343-.498l.374-.98a.367.367 0 0 1 .343-.236h.929c.257 0 .434.257.342.498l-.373.98a.365.365 0 0 1-.343.236z" fill="#F7E6DE"/>
    <path d="M17.161 35.89H9.788a.721.721 0 0 1-.722-.72v-5.038c0-.398.323-.72.722-.72h7.373c.399 0 .721.322.721.72v5.037a.72.72 0 0 1-.72.721z" fill="#fff"/>
    <path d="M12.311 30.207h-2.51v3.307h2.51v-3.307zM45.013 30.696h-6.16a.246.246 0 0 1 0-.49h6.16a.246.246 0 0 1 0 .49zM47.564 31.732h-8.71a.246.246 0 0 1 0-.49h8.71a.246.246 0 0 1 0 .49zM38.608 32.707c0 .135.11.245.245.245h1.892a.245.245 0 0 0 0-.49h-1.892a.246.246 0 0 0-.245.245zM41.99 32.707c0 .135.11.245.245.245h2.041a.246.246 0 0 0 0-.49h-2.04a.246.246 0 0 0-.246.245zM47.565 32.462h-2.512a.246.246 0 0 0 0 .49h2.512a.245.245 0 0 0 0-.49zM47.564 34.169h-8.71a.246.246 0 0 1 0-.49h8.71a.246.246 0 0 1 0 .49zM38.608 35.142c0 .135.11.245.245.245h5.526a.246.246 0 0 0 0-.49h-5.526a.245.245 0 0 0-.245.245zM44.95 35.142c0 .135.11.245.244.245h.857a.246.246 0 0 0 0-.49h-.857a.244.244 0 0 0-.245.245zM47.565 34.898h-.758a.246.246 0 0 0 0 .49h.758a.246.246 0 0 0 0-.49zM47.564 36.604h-8.71a.246.246 0 0 1 0-.49h8.71a.245.245 0 0 1 0 .49zM47.562 30.696h-1.323a.246.246 0 0 1 0-.49h1.323a.246.246 0 0 1 0 .49z" fill="#3B7193"/>
    <path d="M19.546 43.822H16.18a.398.398 0 1 1 0-.797h3.366a.398.398 0 1 1 0 .797z" fill="#8E6B65"/>
    <path d="M23.466 15.385h-7.96c-.896 0-1.623.726-1.623 1.623v5.878c0 .896.726 1.623 1.623 1.623h7.562l2.02 2.02v-9.521a1.62 1.62 0 0 0-1.622-1.623z" fill="#F7C8AD"/>
    <path d="M18.66 19.733a.63.63 0 1 1 1.26 0 .63.63 0 0 1-1.26 0zM16.504 20.364a.631.631 0 1 0 0-1.261.631.631 0 0 0 0 1.261zM22.076 20.364a.631.631 0 1 0 0-1.261.631.631 0 0 0 0 1.261z" fill="#fff"/>
    <path d="M104.136 33.615a1.44 1.44 0 0 0-1.439-1.44h-10.96a1.44 1.44 0 0 0-1.44 1.44v1.928h13.84v-1.928h-.001z" fill="#145A7B"/>
    <path d="M90.298 35.544v7.562a1.44 1.44 0 0 0 1.439 1.439h10.96a1.44 1.44 0 0 0 1.439-1.44v-7.561H90.298z" fill="#E3D0CA"/>
    <path d="M102.79 37.013H91.645v.49h11.145v-.49zM102.79 38.54H91.645v.49h11.145v-.49zM102.79 40.066H91.645v.49h11.145v-.49z" fill="#B72E3E"/>
    <path d="M102.371 43.657h-2.9a.418.418 0 0 1-.418-.417v-1.338c0-.23.187-.419.418-.419h2.9c.23 0 .418.187.418.419v1.338c0 .23-.188.417-.418.417z" fill="#3B7193"/>
    <path d="M67.92 47.242H56.827v6.49H67.92v-6.49z" fill="#E3D0CA"/>
    <path d="M58.451 48.223h-.766v.459h.766v-.46z" fill="#fff"/>
    <path d="M64.206 48.223H59v.459h5.205v-.46z" fill="#FFBA55"/>
    <path d="M64.207 49.078h-6.521v.46h6.52v-.46zM64.207 50.09h-6.521v.459h6.52v-.46zM64.207 51.1h-6.521v.46h6.52v-.46zM64.207 52.11h-6.521v.46h6.52v-.46z" fill="#fff"/>
    <path d="M67.177 48.223h-2.42v4.347h2.42v-4.347z" fill="#145A7B"/>
    <path d="M107.66 29.608h-1.936a.451.451 0 0 1-.452-.451v-2.319c0-.25.202-.451.452-.451h1.937c.25 0 .452.201.452.451v2.319a.454.454 0 0 1-.453.451zM101.245 27.986h-3.159a.87.87 0 0 1-.87-.87v-3.588c0-.48.39-.87.87-.87h3.159c.48 0 .87.39.87.87v3.588a.87.87 0 0 1-.87.87z" fill="#ECDBD4"/>
    <path d="M30.848 59.938h-.344v.689h.344v-.69zM85.508 72.006h-1.363v-.344h1.363v.344zm-2.726 0h-1.364v-.344h1.364v.344zm-2.726 0h-1.363v-.344h1.363v.344zm-2.727 0h-1.363v-.344h1.364v.344zm-2.726 0h-1.364v-.344h1.364v.344zm-2.726 0h-1.363v-.344h1.363v.344zm-2.726 0h-1.364v-.344h1.364v.344zm-2.726 0h-1.363v-.344h1.363v.344zm-2.727 0h-1.363v-.344h1.363v.344zm-2.726 0h-1.364v-.344h1.364v.344zm-2.726 0h-1.363v-.344h1.363v.344zm-2.727 0h-1.363v-.344h1.364v.344zm-2.725 0h-1.363v-.344h1.363v.344zm-2.727 0h-1.363v-.344h1.363v.344zm-2.727 0h-1.363v-.344h1.364v.344zm-2.725 0h-1.363v-.344h1.363v.344zm-2.727 0h-1.363v-.344h1.363v.344zm-2.725 0H37.8v-.344h1.363v.344zm-2.727 0h-1.363v-.344h1.363v.344zm-2.727 0h-1.363v-.344h1.363v.344zm-2.737-.469a1.4 1.4 0 0 1-.468-1.032v-.339h.344v.34c0 .287.127.565.357.779l-.233.252zm-.124-2.733h-.344v-1.363h.344v1.363zm0-2.727h-.344v-1.363h.344v1.363zm0-2.725h-.344v-1.364h.344v1.364zM87.562 71.663h-.689v.344h.69v-.344zM31.562 57.663a.908.908 0 1 0-1.768-.419.908.908 0 0 0 1.768.419z" fill="#F7C8AD"/>
    <path d="M88.447 71.961a.908.908 0 1 0-1.768-.417.908.908 0 0 0 1.768.417z" fill="#F7C8AD"/>
    <path d="M66.948 29.094c0-.752.002-1.504 0-2.258 0-.143.007-.277.168-.335.16-.058.25.038.344.147.5.584 1.135.817 1.896.695.3-.048.358-.008.437.286.14.527.481.856 1.01.975.181.04.37.04.557.05.202.01.285.105.29.305.006.242.001.488.054.72.104.464.405.767.856.92.24.082.266.154.245.405-.022.249-.03.505 0 .752a.878.878 0 0 0 .413.659c.134.084.174.194.17.344-.027 1.218-.427 2.302-1.173 3.26-.077.099-.089.163-.016.274a2.373 2.373 0 0 1-.866 3.403c-1.214.658-2.736.132-3.3-1.143-.05-.116-.103-.146-.23-.143a36.19 36.19 0 0 1-1.467.002c-.104-.002-.157.013-.203.118-.405.927-1.299 1.489-2.285 1.445a2.369 2.369 0 0 1-2.154-1.616c-.25-.733-.147-1.435.275-2.084.06-.093.058-.147-.009-.234a5.397 5.397 0 0 1-1.191-3.391 1.818 1.818 0 0 0-1.38-1.745c-.502-.127-.778-.563-.657-1.038.12-.46.575-.712 1.068-.591 1.39.343 2.439 1.532 2.623 2.987.016.127.064.154.18.153 1.112-.004 2.223-.004 3.333 0 .112 0 .169-.026.21-.139.12-.331.352-.561.689-.675.098-.032.117-.082.117-.175-.005-.778-.004-1.555-.004-2.333zm5.922 3.83h-.207c-1.394 0-2.789 0-4.182-.003-.123 0-.183.033-.228.156-.17.445-.597.727-1.06.72a1.12 1.12 0 0 1-1.046-.739c-.037-.105-.088-.136-.194-.136-1.5.003-3 .003-4.5.003-.05 0-.098.006-.163.01.066 1.072.444 2.004 1.108 2.834.856-.635 1.758-.771 2.686-.266.927.505 1.305 1.335 1.242 2.386.416.056.828.065 1.24.028.267-.024.262-.028.263-.288.01-.977.442-1.717 1.308-2.158.851-.435 1.69-.346 2.478.199.045.03.09.062.145.101a4.947 4.947 0 0 0 1.11-2.848zm-5.397-5.55c-.007.055-.012.075-.012.094 0 1.328 0 2.657-.004 3.984 0 .092.04.121.114.147.328.117.564.336.681.664.045.125.11.153.232.153 1.278-.004 2.555-.002 3.833-.002.052 0 .104-.006.179-.01-.204-.367-.259-.74-.246-1.145l-.264.088c-.314.111-.626.226-.941.335-.166.057-.302.002-.354-.135-.057-.144.012-.278.18-.345l.085-.03c.303-.108.605-.217.935-.337-.457-.343-.67-.8-.76-1.349-.059.049-.099.078-.134.11-.21.182-.417.367-.628.549-.138.12-.288.123-.39.012-.106-.115-.086-.269.058-.397.191-.172.385-.342.581-.509.04-.034.097-.053.145-.079l-.037-.062a1.874 1.874 0 0 1-1.219-.845c-.036.073-.06.116-.078.161-.101.236-.202.474-.305.71-.077.173-.22.24-.362.175-.136-.062-.178-.207-.106-.377l.376-.877c.021-.048.037-.099.063-.172a2.506 2.506 0 0 1-1.622-.512zm-3.527 8.344a1.875 1.875 0 0 0-1.872 1.868 1.886 1.886 0 0 0 1.86 1.883 1.883 1.883 0 0 0 1.888-1.872 1.874 1.874 0 0 0-1.876-1.879zm8.133 1.872a1.867 1.867 0 0 0-1.864-1.87c-1.027-.003-1.875.83-1.877 1.844-.003 1.056.824 1.902 1.866 1.905a1.876 1.876 0 0 0 1.875-1.879zm-10.155-5.179a2.548 2.548 0 0 0-.211-.872c-.4-.92-1.083-1.517-2.056-1.772-.21-.056-.384.042-.432.227-.048.181.053.35.247.404.986.274 1.578.912 1.78 1.915.007.037.055.093.087.094.187.009.374.004.585.004zm5.284-.363a.615.615 0 0 0-.623.622c0 .335.28.616.616.618a.629.629 0 0 0 .625-.626.62.62 0 0 0-.618-.614z" fill="#8D8C8C"/>
    <path d="M63.945 38.634a1.034 1.034 0 0 1-1.037-1.057 1.04 1.04 0 1 1 2.081.022 1.035 1.035 0 0 1-1.044 1.035zm-.009-.512a.525.525 0 0 0 .543-.527.533.533 0 0 0-.52-.538.536.536 0 0 0-.544.53c-.005.29.228.529.521.535zM70.207 38.632a1.041 1.041 0 0 1-1.043-1.055 1.048 1.048 0 0 1 1.037-1.033 1.048 1.048 0 0 1 1.05 1.034 1.04 1.04 0 0 1-1.044 1.054zm-.01-.51a.528.528 0 0 0 .544-.528.538.538 0 0 0-.523-.537.537.537 0 0 0-.544.531.53.53 0 0 0 .523.533z" fill="#8D8C8C"/>
    <path d="M80.744 57.797h-5.371c-.967 0-1.665-.438-2.043-1.327a2.272 2.272 0 0 1-.154-.87c-.01-3.58-.006-7.16-.006-10.74v-.097c.013-.991.75-1.724 1.743-1.73.318-.002.636-.01.954.002.181.008.26-.043.246-.237-.015-.187-.006-.376-.001-.564.006-.256.165-.432.393-.446.261-.016.424.12.45.4.018.213.014.428.009.642-.004.154.062.214.21.203.025-.002.051 0 .077 0h7.005c.273 0 .273-.001.275-.269 0-.181-.007-.363.004-.544.019-.287.184-.44.445-.43.237.008.4.188.407.452.005.208.006.416 0 .623-.003.127.05.17.174.17.338-.006.674-.003 1.012-.002 1.017.006 1.752.736 1.753 1.754.003 3.6.001 7.2.001 10.799 0 .975-.439 1.677-1.338 2.055a2.257 2.257 0 0 1-.833.15c-1.806.012-3.609.006-5.412.006zm.012-10.53c-2.159 0-4.319 0-6.478-.002-.157 0-.27.005-.27.222.005 2.717 0 5.434.005 8.15.002.763.556 1.316 1.317 1.317 3.605.004 7.21.004 10.816-.004.196 0 .406-.042.583-.122.527-.241.755-.686.755-1.252V47.58c0-.314 0-.316-.308-.316-2.14.003-4.281.003-6.42.003zm-.019-.859h6.343c.072 0 .143 0 .214-.002.123-.004.192-.056.192-.19-.002-.5.01-1-.006-1.5-.015-.443-.29-.764-.721-.805-.411-.04-.83-.022-1.244-.014-.043 0-.116.11-.122.173-.016.199-.004.402-.008.602-.006.274-.177.467-.414.474-.245.008-.42-.166-.438-.447-.011-.168-.004-.336-.005-.505-.001-.296-.011-.307-.308-.307h-4.495c-.836 0-1.672.003-2.51-.003-.183-.001-.26.063-.254.25.008.2.01.404-.01.603-.025.273-.205.425-.447.41-.222-.016-.386-.2-.392-.452a9.84 9.84 0 0 1 0-.603c.005-.15-.056-.209-.207-.205-.324.006-.648-.002-.972.003-.58.01-.915.346-.92.925-.003.414 0 .83 0 1.244 0 .35 0 .35.343.35h6.381z" fill="#8C8C8C"/>
    <path d="M85.17 50.207a.639.639 0 0 1-.636-.624.629.629 0 0 1 .637-.64.634.634 0 0 1 .625.633c0 .345-.283.63-.626.63zM85.796 52.107a.634.634 0 0 1-.627.63.638.638 0 0 1-.635-.624.628.628 0 0 1 .639-.638.632.632 0 0 1 .623.632zM85.796 54.628a.633.633 0 0 1-.62.637.638.638 0 0 1-.642-.636.628.628 0 0 1 .63-.627.634.634 0 0 1 .632.626zM82.228 55.265a.655.655 0 0 1-.647-.62.645.645 0 0 1 .641-.643.644.644 0 0 1 .636.627.65.65 0 0 1-.63.636zM82.213 50.207a.653.653 0 0 1-.632-.635.644.644 0 0 1 .636-.629.645.645 0 0 1 .64.643.65.65 0 0 1-.644.62zM82.215 52.737a.654.654 0 0 1-.634-.634.642.642 0 0 1 .654-.628.644.644 0 0 1 .623.64.65.65 0 0 1-.644.622zM75.696 54.617a.632.632 0 0 1 .641-.615c.355.008.619.28.615.637a.628.628 0 1 1-1.256-.022zM75.695 52.09a.634.634 0 0 1 .639-.617c.354.006.62.28.617.634a.628.628 0 0 1-.646.628.632.632 0 0 1-.61-.645zM79.268 50.205a.642.642 0 0 1-.631-.63c0-.34.287-.628.63-.632a.638.638 0 0 1 .642.639.65.65 0 0 1-.641.623zM79.274 52.737a.645.645 0 0 1-.638-.624.641.641 0 0 1 .642-.638c.347.005.63.288.63.63a.65.65 0 0 1-.634.632zM79.272 55.266a.644.644 0 0 1-.636-.626.637.637 0 0 1 1.272-.002.65.65 0 0 1-.636.628z" fill="#8C8C8C"/>
</svg>
