<svg width="306" height="249" viewBox="0 0 306 249" fill="none" xmlns="http://www.w3.org/2000/svg">
    <g clip-path="url(#55xerjbcna)">
        <path d="M239.781 110.394c0-5.37 4.319-9.744 9.677-9.744a9.48 9.48 0 0 1 2.775.413c2.027-2.284 4.971-3.718 8.229-3.718 1.617 0 3.137.34 4.513.972a5.138 5.138 0 0 1 4.32-2.332c.313 0 .627.024.917.072 1.737-6.39 7.553-11.08 14.431-11.08a14.87 14.87 0 0 1 11.27 5.151 8.803 8.803 0 0 1 2.558-.389c.313 0 .627.025.917.049.314-7.241.434-13.56.41-19.513a235.793 235.793 0 0 0-.41-13.17l-.121-1.653-.169-1.628c-.072-.729-.169-1.506-.217-2.211-.024-.34-.097-.705-.121-1.045a65.345 65.345 0 0 0-1.182-6.44A56.391 56.391 0 0 0 292.8 31.93a62.869 62.869 0 0 0-3.427-5.589c-.121-.17-.217-.316-.338-.486a12.14 12.14 0 0 0-.603-.826l-.99-1.312-1.013-1.288a11.035 11.035 0 0 0-.676-.802c-.121-.17-.266-.291-.386-.437a59.57 59.57 0 0 0-4.537-4.715c-1.593-1.482-3.258-2.916-5.02-4.203a61.256 61.256 0 0 0-11.149-6.707 57.375 57.375 0 0 0-6.057-2.43 55.81 55.81 0 0 0-6.275-1.75A71.137 71.137 0 0 0 245.886.34a61.653 61.653 0 0 0-6.492-.34c-8.711-.024-17.375 1.653-25.411 4.982a60.191 60.191 0 0 0-11.415 6.123 62.25 62.25 0 0 0-5.14 4.01l-.41.389a6.913 6.913 0 0 0-.772.704l-1.786 1.726-1.714 1.75c-2.606 2.745-5.043 5.734-7.384 8.625l-1.11 1.361-2.1 2.527c-.434.535-.917 1.094-1.351 1.629l-.773.899a92.865 92.865 0 0 1-4.536 4.86l-1.183 1.142-1.231 1.117c-.627.608-1.327 1.143-2.003 1.701-.193.17-.386.292-.579.438a9.447 9.447 0 0 1-1.11.826l-1.593 1.118c-.313.194-.627.389-.917.583l-.507.292-1.037.632-.266.194-.675.34c-.724.389-1.497.802-2.317 1.118l-.579.267c-.314.122-.676.292-.99.413l-1.544.583-.29.098c-.169.072-.338.121-.507.194l-2.389.705-2.413.583c-.193.024-.338.073-.531.097l-.289.073-1.617.316c-.266.073-.507.097-.724.121l-1.714.268c-.265.024-.531.073-.82.097l-1.617.17c-.483.073-.941.073-1.424.097l-1.858.097-1.641.025c-.531 0-1.11.024-1.641 0a94.83 94.83 0 0 1-13.128-1.191c-5.454-.826-10.932-2.066-16.217-3.256a387.504 387.504 0 0 0-9.508-2.041c-3.524-.705-8.181-1.556-12.911-2.017l-1.617-.17c-.338-.025-.7-.025-1.038-.073l-.58-.025c-1.11-.097-2.22-.097-3.233-.121a63.956 63.956 0 0 0-6.467.267c-.41.025-.797.098-1.207.122a43.977 43.977 0 0 0-11.318 2.843c-3.451 1.41-6.733 3.256-9.701 5.54.627-.073 1.279-.121 1.93-.121 4.489 0 8.543 1.992 11.27 5.151a8.576 8.576 0 0 1 9.677 3.402c2.124-1.263 4.61-1.968 7.264-1.968 5.526 0 10.329 3.159 12.742 7.752 5.647.486 10.063 5.248 10.063 11.056H33.351c-2.654 5.2-5.043 10.57-7.409 15.82-.627 1.409-1.279 2.818-1.906 4.203-.99 2.163-1.81 3.961-2.558 5.589-.338.778-.7 1.531-1.038 2.26-9.122 19.78-18.485 41.553-13.32 62.791.41 1.239.892 2.478 1.423 3.693 1.786 3.961 4.054 7.655 6.805 10.984a55.478 55.478 0 0 0 9.34 8.966 66.72 66.72 0 0 0 23.167 11.324 87.55 87.55 0 0 0 12.766 2.406c4.32.486 8.663.68 13.007.583 4.32-.097 8.616-.389 12.911-.924h.097c4.03-.486 8.229-1.215 12.862-2.211 7.674-1.652 15.662-3.888 25.171-7.047 6.37-2.114 12.814-4.398 19.016-6.634 1.81-.729 3.716-1.409 5.599-2.114 8.108-2.867 16.482-5.832 25.001-8.14 4.247-1.142 8.519-2.114 12.863-2.77a82.24 82.24 0 0 1 13.152-1.045c.338 0 .724 0 1.086.024l.579.024.579.025c.338 0 .7.024 1.086.024l1.907.122c.434.024.917.072 1.399.121 2.027.219 4.175.51 6.54.948 3.065.583 6.178 1.288 9.195 1.944 1.206.291 2.437.534 3.644.802 4.078.899 8.47 1.749 12.862 2.138 4.778.413 9.002.17 12.911-.729l.796-.194.266-.073c.193-.025.338-.073.507-.122l1.592-.486.29-.097c.169-.073.314-.097.483-.17l2.292-.826a41.648 41.648 0 0 0 5.768-2.941 53.787 53.787 0 0 0 5.357-3.693c1.497-1.215 3.234-2.649 4.875-4.301 1.617-1.531 3.137-3.184 4.537-4.763a86.794 86.794 0 0 0 4.151-5.079 95.092 95.092 0 0 0 3.837-5.321c1.4-2.066 2.51-3.864 3.451-5.565 1.086-1.871 2.051-3.864 2.944-5.832.893-2.017 1.617-4.058 2.244-6.148a41.763 41.763 0 0 0 1.279-6.415c.024-.194.024-.389.073-.583.024-.34.072-.705.096-1.045l.121-1.652.265-3.281c.362-4.617.676-8.748.966-12.611h-58.497v-.025z" fill="#D8F3FF"/>
        <path d="M295.961 90.153C293.21 86.993 289.18 85 284.691 85c-6.902 0-12.694 4.69-14.431 11.08a5.62 5.62 0 0 0-.917-.072c-1.81 0-3.403.923-4.32 2.333a10.832 10.832 0 0 0-4.513-.972 10.908 10.908 0 0 0-8.229 3.717 9.602 9.602 0 0 0-2.775-.413c-5.333 0-9.677 4.35-9.677 9.745h58.425c.361-4.933.651-9.404.892-13.73.145-2.381.242-4.665.338-6.852-.313-.025-.603-.049-.917-.049-.965-.024-1.81.097-2.606.365zM95.444 67.36c-2.413-4.618-7.191-7.752-12.742-7.752-2.654 0-5.116.729-7.264 1.968a8.576 8.576 0 0 0-7.119-3.79c-.893 0-1.737.145-2.558.388-2.751-3.159-6.781-5.151-11.27-5.151-.651 0-1.303.048-1.93.121-.459.34-.917.705-1.352 1.07-3.33 2.77-6.298 5.977-8.88 9.452-2.607 3.499-4.923 7.193-6.999 11.008a182.637 182.637 0 0 0-1.979 3.742h72.156c0-5.808-4.44-10.57-10.063-11.057zM120.59 120.988c-3.716 0-6.709 3.038-6.709 6.756v24.931c0 3.742 3.017 6.756 6.709 6.756h85.912v-38.443H120.59z" fill="#fff"/>
        <path d="M206.502 161.107H120.59c-4.609 0-8.374-3.791-8.374-8.432v-24.931c0-4.642 3.765-8.432 8.374-8.432h85.912c.917 0 1.665.753 1.665 1.676 0 .924-.748 1.677-1.665 1.677H120.59c-2.775 0-5.044 2.284-5.044 5.079v24.931c0 2.795 2.269 5.079 5.044 5.079h85.912c.917 0 1.665.753 1.665 1.676 0 .924-.748 1.677-1.665 1.677z" fill="#972E76"/>
        <path d="M201.289 128.035H121.7a.408.408 0 0 1-.41-.413c0-.243.193-.413.41-.413h79.589c.241 0 .41.194.41.413a.408.408 0 0 1-.41.413zM201.289 141.376H121.7a.408.408 0 0 1-.41-.413c0-.243.193-.413.41-.413h79.589c.241 0 .41.194.41.413a.408.408 0 0 1-.41.413zM201.289 136.832H121.7a.408.408 0 0 1-.41-.413c0-.243.193-.413.41-.413h79.589c.241 0 .41.194.41.413a.394.394 0 0 1-.41.413zM201.289 132.312H121.7a.409.409 0 0 1-.41-.414c0-.218.193-.413.41-.413h79.589c.241 0 .41.195.41.413a.409.409 0 0 1-.41.414zM192.143 145.92H121.7a.408.408 0 0 1-.41-.413c0-.219.193-.413.41-.413h70.443c.241 0 .41.194.41.413a.408.408 0 0 1-.41.413zM201.289 150.464H121.7a.409.409 0 0 1-.41-.413c0-.243.193-.413.41-.413h79.589c.241 0 .41.194.41.413a.394.394 0 0 1-.41.413zM201.289 155.008H121.7a.409.409 0 0 1-.41-.413c0-.243.193-.413.41-.413h79.589c.241 0 .41.194.41.413a.394.394 0 0 1-.41.413z" fill="#CCC"/>
        <path d="m141.127 153.696-6.371-3.353-6.371 3.353v-12.733h12.742v12.733z" fill="#CE3D57"/>
        <path d="M162.701 7.873c-2.051-1.312-6.226-2.43-9.025-.972-2.8 1.458-2.8 3.791-4.489 6.245-1.086 1.531-1.858 3.986-1.4 6.537.193 1.118-.724 2.381-.241 4.86.217 1.166-.386 3.208.193 4.836 1.448 4.082-.796 2.503 2.293 8.432 1.641 3.135 9.797 25.758 9.797 25.758s.676 3.013 6.733 2.138c2.945-.413 3.644-3.5 3.982-7.193.628-7.047-1.206-13.073-2.123-19.342-.724-5.03-1.472-9.113-1.883-10.158-1.255-3.207 0-4.908-.893-7.022-.555-1.361.531-2.43.531-4.544 0-2.236 1.352-6.513-3.475-9.575z" fill="#8C3D96"/>
        <path d="M164.487 18.71c-1.062 3.087-.555 5.59-1.931 7.753-1.037 1.628-.265 3.523-.12 4.957.289 3.013-5.527-7.242-5.527-7.242l7.578-5.467z" fill="#772B8F"/>
        <path d="M149.815 28.917c1.327-.51 2.051-2.479 1.906-4.836-.096-1.434 7.94-1.02 7.94.875 0 2.187-.145 4.18 2.316 5.492-.289 1.846-5.212 13.024-5.212 13.024s-6.468-11.664-6.95-14.555z" fill="#FFB47A"/>
        <path d="M159.661 24.98c0-1.337-4.006-1.944-6.323-1.677l-.917 1.507c.796 1.433 2.027 3.402 3.958 4.544 1.93 1.117 3.764 1.044 5.598 1.117-2.485-1.312-2.316-3.304-2.316-5.491z" fill="#F3A272"/>
        <path d="M164.608 18.346c-1.038 3.11-2.22 5.2-3.282 6.464-1.062 1.263-2.269 2.989-3.958 2.77-.869-.122-3.861-1.871-4.947-2.77-1.086-.9-1.327-2.114-1.786-3.767-.459-1.652.097-6.39 1.834-8.213 1.738-1.823 4.272-3.524 6.564-2.892 2.269.632 4.802 1.871 5.43 3.548.603 1.7.483 3.79.145 4.86z" fill="#FFB47A"/>
        <path d="M163.256 21.408c-.482 0-1.978-.267-2.147-.753-.145-.413.169-1.798.603-2.041.048-.024.145-.073.41-.073.024 0 2.317.073 2.341.729.024.413-.434 1.677-.724 1.993-.096.097-.241.145-.483.145zm-1.134-2.43c-.169 0-.217.025-.241.025-.169.121-.507 1.215-.41 1.53.096.146 1.086.462 1.761.462.169 0 .217-.024.217-.024.194-.194.58-1.288.604-1.628-.193-.17-1.255-.365-1.931-.365zM159.347 20.607c-.772 0-2.244-.316-2.63-.632-.362-.292-.218-1.215-.025-1.774.145-.389.362-.826.724-.826.386 0 2.848.486 3.138.9.193.29.096.777.024 1.068-.121.438-.362 1.02-.7 1.191-.121.049-.29.073-.531.073zm-1.931-2.819c-.072.024-.289.34-.434.9-.145.582-.072.923 0 .971.265.219 1.617.535 2.389.535.241 0 .314-.024.314-.049.145-.073.362-.437.482-.923.097-.389.073-.656.025-.73-.193-.194-2.269-.704-2.776-.704z" fill="#2D2E37"/>
        <path d="M161.808 18.906c-.12-.097-.868-.243-1.472-.292l.049-.413c.458.049 1.52.17 1.761.462l-.338.243zM157.344 17.763l-3.91-1.142.121-.389 3.91 1.143-.121.388z" fill="#2D2E37"/>
        <path d="M161.929 11.98c-.531 1.36-5.068 3.742-7.384 3.62-.169.438-3.982 2.625-3.379 5.104.458 1.846.241 2.673.555 3.377-3.427-2.065-2.027-9.792-.048-12.101 1.954-2.308 5.985-2.989 7.288-2.843 1.303.146 3.065.559 4.151 1.482 1.11.924 3.233 4.763 1.616 7.29-.724-1.166-2.509-3.96-2.799-5.929z" fill="#8C3D96"/>
        <path d="M165.935 127.792c1.858 4.034 6.636 13.657 7.578 16.913.941 3.256 1.351 8.456 1.351 8.797 0 .34.097 2.065 3.91 2.065 3.812 0 6.539 1.92 8.591 2.43 2.051.51 4.971-.68 1.737-2.916-1.81-1.239-3.982-3.548-5.526-6.123-.99-1.677-1.738-3.475-2.244-4.909-1.183-3.256-5.334-17.812-6.106-19.877-.772-2.066-11.246-.656-9.291 3.62z" fill="#FFB47A"/>
        <path d="M165.935 127.792c1.858 4.034 6.636 13.657 7.578 16.913.941 3.256 1.351 8.456 1.351 8.797 0 .34.097 2.065 3.91 2.065 3.812 0 6.539 1.92 8.591 2.43 2.051.51 4.971-.68 1.737-2.916-1.81-1.239-3.982-3.548-5.526-6.123-.99-1.677-1.738-3.475-2.244-4.909-1.183-3.256-5.334-17.812-6.106-19.877-.772-2.066-11.246-.656-9.291 3.62z" fill="#FFB47A"/>
        <path d="M181.959 145.677a24.525 24.525 0 0 1-.627-1.628c-.435-1.215-1.304-4.009-2.245-7.144l-5.816 7.047c.097.267.193.535.242.753.531 1.847.893 4.35 1.11 6.197.024-.049.072-.073.096-.146.676-1.531 7.506-3.839 7.24-5.079z" fill="#F3A272"/>
        <path d="M149.018 118.048c1.882 7.169-3.668 29.184-3.016 30.521.675 1.336.844 6.148.265 7.776-.603 1.628-.772 1.482-1.931 1.701-3.306.656-4.464-.826-5.092-2.576-.555-1.507.387-5.103.459-6.901.072-1.458.024-3.329.024-4.083 0-2.697 1.665-24.858 2.003-26.705.362-1.847 6.468-2.94 7.288.267z" fill="#FFB47A"/>
        <path d="M189.102 155.081c5.406 2.916 8.447 2.965 9.002 3.014.362.024.627 1.093.024 1.555-.531.389-1.4 1.239-4.61 1.385-2.799.121-5.671.073-6.395-.122-1.158-.291-2.847-2.089-4.44-3.11-2.196-1.434-2.606-.899-3.137-.462-.507.462-1.472 3.767-1.472 3.767l-2.365-.097c-.869-2.868-2.389-10.328-1.352-12.077.121.753 0 1.652 2.414 2.867 2.389 1.215 7.553 3.718 10.401 4.447 1.303.34 1.785-.486 1.93-1.167zM146.026 148.569c.41 2.114.651 5.711-2.679 5.711-2.703 0-4.103-3.354-3.644-5.711-.652 1.385-.652 4.982-.459 6.901.387 4.472 2.776 5.638 4.537 5.638 1.931 0 3.5-3.062 3.403-5.516-.024-.656-.41-2.041-.386-3.791 0-1.239-.434-2.357-.772-3.232z" fill="#35393E"/>
        <path d="M145.977 157.099c-.579 2.162-1.616 2.94-2.172 3.061-.53.098-2.027-.85-2.075-1.531 2.606.511 3.041 0 4.247-1.53zM190.454 158.361c.651.195 2.751.729 2.968.754.193.024-.072.826-1.158.704.748-.17.627-.559.313-.656-.362-.073-1.472-.51-2.123-.802z" fill="#595C65"/>
        <path d="M179.184 134.451s2.413 10.352 2.775 11.227c.362.874-9.46 3.037-12.742 3.256-3.282.219-28.911-.681-30.359-1.944-1.448-1.264.7-11.615.7-11.615l39.626-.924z" fill="#F37521"/>
        <path d="m179.184 134.451-39.626.899s-.675 3.305-1.013 6.415c3.426 1.021 18.606-.048 23.167.754 5.936 1.045 9.436.073 12.332-.365 2.871-.437 4.898-3.013 5.574-2.211.676.802 1.81 5.735-1.713 7.363 2.389-.608 4.247-1.264 4.078-1.653-.41-.85-2.799-11.202-2.799-11.202z" fill="#DD5A17"/>
        <path d="M174.55 48.478c.966-.632 2.534-3.037 4.32-4.447 1.81-1.41 5.864-5.054 7.264-6.512 1.4-1.458.555-2.794 1.086-3.62.531-.827.941-1.094 1.81-1.896.844-.802 1.086-1.604 2.003-1.507.917.098 3.354 1.458 3.909 3.135.579 1.652-.989 2.697-2.244 4.204-1.255 1.506-3.716 1.92-5.816 4.155-2.075 2.236-9.605 11.591-9.605 11.591l-2.727-5.103z" fill="#FFB47A"/>
        <path d="M184.396 27.484c1.352 2.843 4.779 5.953 5.816 7.97 1.038 2.017 4.296 7.436 6.058 10.643 1.834 2.163 4.923-2.867 3.957-4.835-1.399-1.823-6.709-6.61-7.795-8.14-1.085-1.532-3.571-7.193-5.212-9.283-.965 1.677-2.558 3.329-2.824 3.645z" fill="#CDB88A"/>
        <path d="M199.117 42.04c.676.874.338 2.09-.507 2.405-1.134-1.555-3.354-3.79-3.354-3.79l2.655.34 1.206 1.044z" fill="#A88C5E"/>
        <path d="M196.27 46.073c-1.376-1.92.724-6.1 2.847-4.034-.651-.826-7.336-7.946-8.832-11.056-1.521-3.135-3.644-6.877-4.079-7.606-2.485-.705-4.223 1.53-2.871 4.034 2.051 3.134 5.092 5.491 6.057 7.411.965 1.92 5.381 9.453 6.878 11.25z" fill="#F2E4BA"/>
        <path d="M189.392 34.822c-.941-1.92-3.982-4.277-6.057-7.412-.531-.996-.604-1.944-.314-2.673.072 1.045.748 2.382 1.81 3.67 1.062 1.288 3.692 5.175 4.271 5.443.483.218 1.593-.68 2.22-1.094.362.535.797 1.094 1.255 1.701-.289.17-.941 1.264-.265 3.354.676 2.09 1.81 4.13 2.196 4.908.386.778 1.496.51 1.641.219-.459.996-.531 2.308.072 3.159-1.448-1.823-5.888-9.356-6.829-11.275z" fill="#E1D0A5"/>
        <path d="M190.743 34.822c-.917 2.187-.024 7.193 1.134 9.428l1.255-1.044 1.762 1.822c-1.472-3.159-3.765-9.355-3.354-10.084.41-.754-.797-.122-.797-.122z" fill="#E31C14"/>
        <path d="M190.695 34.384c-1.786 1.555-3.21 7.144-3.065 8.967l1.327-1.094 1.038 3.11c.048-3.498.676-10.084 1.352-10.545.699-.486-.652-.438-.652-.438z" fill="#E31C14"/>
        <path d="M192.095 32.611c-.314.413-2.583 1.483-2.92 1.847-.338.364.096.486.169.778.096.291.193.826.579.631.386-.218 2.654-1.773 3.04-2.04.387-.292-.337-.584-.362-.754-.024-.194-.313-.705-.506-.462z" fill="#E31C14"/>
        <path d="M187.027 35.016c0-.705-.024-1.774.072-2.187.097-.438.7-1.313.966-1.483.265-.194.675.438.506 1.021-.169.559-.434 1.312-.169 1.677.242.316-1.375.972-1.375.972zM191.033 30.472c-.7.583-1.376 1.603-1.062 1.92.386.388.917-.122.917-.122s-.7.777-.241 1.215c.458.437 1.279-.316 1.279-.316s-.628.778-.242 1.166c.386.39 1.279-.024 1.279-.024s-.434.121-.096.535c.338.413 1.303-.22 1.665.34.362.559-.193-1.823-.193-1.823l-3.306-2.891z" fill="#FFB47A"/>
        <path d="M174.912 46.437c-.82-1.701-2.968-5.808-4.85-9.793-1.907-4.034-2.486-4.3-4.392-5.273l.699 12.563.314 3.524s3.33 6.269 3.934 7.63c1.086 2.405 2.268 5.564 3.209 6.366.628.535 1.569-.17 1.834.413 1.038 2.26 1.255-.218 1.497.219 1.399 2.624 1.182-.194 1.52.146 2.317 2.187 3.475 4.933 3.451 2.527 0-1.507-.531-15.843-2.558-21.287-.097-.218-.821-.534-1.327.657-.073.17-.387-.22-.459.34-.048.389-.893.34-.989.753-.121.535-.821 0-1.014.146-.434.34-.458.899-.869 1.069z" fill="#35393E"/>
        <path d="M165.67 31.395c-1.641-.438-3.741-1.312-4.803-1.725-.507 2.04-3.982 6.22-3.982 6.22s-4.464-5.224-6.057-7.751c-.965.947-8.374 3.474-9.46 4.106-1.086.632 1.617 4.301 1.979 5.103.362.827-1.014 25.685-1.593 28.431-5.912 28.48-5.405 66.606-5.695 74.187 1.327.438 19.065 1.458 24.132 1.726 13.732.729 21.358-3.815 21.285-4.52-.072-.705-12.645-64.103-13.417-66.047-.748-1.944-2.365-10.303-1.979-13.39.941-7.338.893-11.809.893-11.809l-.217-9.963-1.086-4.568z" fill="#35393E"/>
        <path d="M163.956 64.079c5.406 5.152 5.599 22.113 5.961 27.046.362 4.933 4.344 18.419 6.154 26.073 1.81 7.655 2.558 13.9 2.268 17.253-.29 3.354-10.208 6.221-14.383 7.266a.775.775 0 0 0-.193.073c11.463-.146 17.737-3.961 17.689-4.593-.072-.705-12.645-64.103-13.417-66.047-.604-1.53-1.738-7.095-2.003-10.886l-.242-.365-1.834 4.18z" fill="#2D2E37"/>
        <path d="m166.466 63.933-.676-4.034-12.862.51-10.932 2.965c-.097 1.191-.218 2.041-.29 2.43-5.912 28.48-5.406 66.606-5.695 74.187.579.195 4.44.511 8.977.827-5.961-2.309-7.795-12.102-7.36-22.332.193-4.617.844-14.896 1.448-21.19.12-1.384 3.161 0 3.161-.631 0-.632-2.606-3.013-2.51-3.718.724-5.176 4.513-4.544 4.513-5.492 0-.947-4.513-.631-4.513-3.231 0-2.6 1.255-14.556 3.258-13.438 2.003 1.117 9.339 11.834 11.439 10.667 2.099-1.166 3.547-10.23 3.982-14.555.458-4.374 4.078-2.284 8.06-2.965z" fill="#2D2E37"/>
        <path d="M179.473 60.41c-.048-1.362-.096-7.631-.531-8.214-.41-.583-.217 8.14-.362 8.456-.144.316-.892-6.901-1.085-6.731-.218.146-.314 6.998-1.135 7.047-.82.049-1.037-4.544-1.037-4.544s-.169 3.888-.748 3.985c-.604.097-2.559-2.236-2.679-3.572-.097-1.337-1.907-4.107-2.365-5.249-.435-1.142 2.317-2.916 1.955-3.28-.362-.365-2.076 3.086-2.8 1.725-.724-1.36-.096-4.082 0-4.398.097-.316-1.351 1.58-1.737.996-.386-.583.337-7.217 0-7.217-.338 0-.917 10.352-.748 11.445.144 1.094-4.175 4.01-4.73 5.103-.531 1.07 4.681 6.002 5.019 7.995-.362-2.43-.579-4.812-.41-6.197.579-4.47.772-7.873.844-9.841.773 1.434 3.21 6.05 3.717 7.193 1.086 2.405 2.268 5.564 3.21 6.366.627.535 1.568-.17 1.834.413 1.037 2.26 1.254-.218 1.496.22 1.399 2.623 1.182-.195 1.52.145 2.317 2.187 3.475 4.933 3.451 2.527 0-.413-.048-1.725-.145-3.548-1.206 2.139-2.485.535-2.534-.826z" fill="#2D2E37"/>
        <path d="M148.849 41.48c.121.924-2.944.608-3.04 1.993-.097 1.36-.338 7.363 1.592 9.428 2.824 3.013 8.181 1.944 10.787.632 2.607-1.312 3.403 5.151 3.403 5.151l-9.17 1.701s-8.688-4.373-8.76-4.47c-.097-.122-1.834-12.442-1.834-12.442l3.547-6.415 3.475 4.422z" fill="#2D2E37"/>
        <path d="M156.861 57.736c1.279 4.544-.676 19.732-2.437 21.87v-16.5l2.437-5.37z" fill="#181B1E"/>
        <path d="M152.928 57.25c1.954.365 5.695.997 6.491-.145.797-1.142 5.044-2.041 5.792-1.993.724.049 1.255.68 1.327 1.07.097.412-.748 4.3-1.351 5.418-.579 1.118-1.714 1.434-2.703 1.361-.989-.097-3.161-.17-4.633-.146-1.472.049-7.385.754-7.385.754l2.462-6.318z" fill="#FFB47A"/>
        <path d="M160.698 62.84c-1.448-.414-3.837-.317-3.837-1.92 0-.68.121-2.163 0-3.184l-1.955 5.322c1.255-.121 2.414-.243 2.969-.267.82 0 1.882 0 2.823.048z" fill="#F3A272"/>
        <path d="M141.344 32.246c-2.172 2.406-3.427 5.419-3.958 8.36-.531 2.94.218 12.416.821 16.742.748 5.37 1.713 6.974 2.968 8.7 2.8 3.911 10.691 13.121 13.249 13.534.627.097 2.582-21.092 2.437-21.87-.145-.777-10.304-1.774-11.294-2.138-1.013-.365.145-14.41.314-15.698.193-1.263-4.537-7.63-4.537-7.63z" fill="#35393E"/>
        <path d="M159.25 57.275c1.11-1.264 1.786-2.503 2.365-3.28.58-.778.99-2.163 1.207-2.358.217-.218 1.424 0 1.11 1.531-.314 1.531-.652 2.211-.917 2.503-1.062 1.215-4.271 2.187-3.765 1.604z" fill="#FFB47A"/>
        <path d="M149.163 13.146c4.44 3.767 15.614 5.225 17.013 4.301l.942-7.265s-4.127-1.264-7.071-2.09c-2.944-.826-8.447-1.458-8.447-1.458l-2.437 6.512z" fill="#2D2E37"/>
        <path d="m143.275 4.52.024-.583 33.592 7.046-.024.608-18.92-1.604-14.672-5.467z" fill="#2D2E37"/>
        <path d="m143.299 3.937 18.244 2.065 15.348 4.981-18.92-1.603-14.672-5.443z" fill="#35393E"/>
        <path d="M168.131 33.193c-.314 3.208-5.647 10.133-13.08 9.72-7.433-.413-12.162-4.495-14.069-10.206l27.149.486z" fill="#2D2E37"/>
        <path d="M160.843 29.67c-.603 1.215-3.21 2.162-4.32 2.187-1.11.024-4.947-2.333-5.719-3.694-.796.51-7.698 2.916-10.208 3.354 1.424 6.099 9.846 11.056 15.3 11.056 5.454 0 12.066-6.658 12.332-10.012-1.255-.461-7.095-3.499-7.385-2.891z" fill="#F79F1E"/>
        <path d="M166.538 31.808c-.386-.17-.772-.364-1.206-.559l-.049.049c-.699.85-2.92 7.897-9.653 7.849-7.336-.049-10.763-8.116-11.221-8.675a53.93 53.93 0 0 1-1.955.583c.507 2.624 6.926 9.72 12.983 10.011 6.082.292 9.871-5.759 11.101-9.258z" fill="#E31C14"/>
        <path d="M176.698 20.606c-.048 0-.096-.049-.096-.097.024-.85.096-2.09.169-3.402.144-2.308.337-5.783.072-6.002-1.351-.34-12.67-2.77-16.072-3.378-.049 0-.097-.073-.073-.121 0-.049.073-.097.121-.073 3.403.607 14.721 3.037 16.096 3.378.386.097.362 1.628.073 6.22-.073 1.312-.145 2.552-.169 3.402 0 .024-.048.073-.121.073z" fill="#F79F1E"/>
        <path d="M177.084 20.242c-.024.826.314 3.985.314 4.301 0 .316-.434.316-.555.583-.121.292-.121-.243-.338-.413-.217-.17-.555-.462-.386-.899.145-.437.603-3.305.458-3.548-.12-.218.531-.145.507-.024z" fill="#F79F1E"/>
        <path d="M176.867 20.703c.28 0 .507-.228.507-.51a.509.509 0 0 0-.507-.51.509.509 0 0 0-.507.51c0 .282.227.51.507.51z" fill="#F79F1E"/>
        <path d="M150.008 28.504c.241 4.836 4.488 15.722 8.325 22.477.435-3.329 3.21-16.767 2.944-21.384-.024-.267 1.4.122 1.497.51 1.23 4.885-2.558 21.676-4.344 23.45-2.244-1.993-10.088-17.326-10.112-24.373 0-.51 1.69-.68 1.69-.68z" fill="#E31C14"/>
        <path d="M158.864 52.9c1.641-6.804 4.127-19.44 3.427-23.182-.145-.073-.314-.121-.458-.17.892 3.791-2.486 20.874-3.307 22.429-2.34-2.576-7.939-13.997-9.146-23.376a2.165 2.165 0 0 0-.531.145c2.172 11.591 7.071 21.7 9.774 24.567.072-.121.169-.242.241-.413z" fill="#F79F1E"/>
        <path d="M160.899 54.7a2.526 2.526 0 0 0-2.077-2.9 2.513 2.513 0 0 0-2.879 2.092 2.526 2.526 0 0 0 2.077 2.898 2.513 2.513 0 0 0 2.879-2.09z" fill="#F79F1E"/>
        <path d="M158.406 56.303a2.01 2.01 0 0 0 2.003-2.017 2.01 2.01 0 0 0-2.003-2.017 2.01 2.01 0 0 0-2.003 2.017 2.01 2.01 0 0 0 2.003 2.017z" fill="#DD9119"/>
        <path d="m159.25 51.904-3.113 3.45a2.422 2.422 0 0 0 1.327 1.264l2.39-4.422a2.755 2.755 0 0 0-.604-.292z" fill="#fff"/>
        <path d="M139.776 62.717c-.724-2.551-1.038-4.325-1.111-4.981-.072-.656 1.424-.462 1.424-1.24 0-.777-1.037.39-1.424-.923-.386-1.312-.651-2.114-.651-3.037 0-.948 2.51-.632 2.582-.972.072-.34-2.534.486-2.582-1.191-.073-1.701-.652-5.71-.459-6.877.193-1.118 1.786-8.553 3.234-10.57-1.834 2.284-2.92 5.03-3.403 7.703-.531 2.94.218 12.417.821 16.742.748 5.37 1.713 6.974 2.968 8.7 2.8 3.912-.7-.802-1.399-3.354z" fill="#2D2E37"/>
        <path opacity=".5" d="m158.285 6.002-11.68-1.337 9.339 3.475c-.676-.996.362-1.652 2.341-2.138z" fill="#fff"/>
        <path d="m158.864 53.41.676-1.238 1.303.51-1.231-.68.507-1.337-.676 1.24-1.327-.487 1.231.68-.483 1.313z" fill="#fff"/>
        <path d="M153.869 16.232c-1.279 1.531-1.834 6.197-1.038 7.873-1.496-1.822-1.569-5.783-.434-7.484.989-1.482 1.472-.389 1.472-.389z" fill="#8C3D96"/>
        <path d="M160.433 202.198c-3.717 0-6.709 3.038-6.709 6.756v16.135c0 3.742 3.017 6.755 6.709 6.755h64.023v-29.646h-64.023z" fill="#fff"/>
        <path d="M224.48 233.545H82.22c-4.61 0-8.374-3.791-8.374-8.432v-16.135c0-4.641 3.764-8.432 8.373-8.432H224.48c.918 0 1.666.753 1.666 1.677 0 .923-.748 1.676-1.666 1.676h-64.047c-2.775 0-5.044 2.284-5.044 5.079v16.135c0 2.794 2.269 5.079 5.044 5.079h64.023c.917 0 1.666.753 1.666 1.676 0 .924-.724 1.677-1.642 1.677z" fill="#1395C9"/>
        <path d="M91.631 225.089v-16.135c0-4.642 3.765-8.433 8.374-8.433h-7.433c-4.61 0-8.374 3.791-8.374 8.433v16.135c0 4.641 3.765 8.432 8.374 8.432h7.433c-4.633.024-8.374-3.767-8.374-8.432z" fill="#fff"/>
        <path d="M219.268 209.245h-57.701a.408.408 0 0 1-.41-.413c0-.243.193-.413.41-.413h57.701c.241 0 .41.194.41.413a.408.408 0 0 1-.41.413zM219.268 213.789h-44.259a.408.408 0 0 1-.41-.413c0-.243.193-.413.41-.413h44.259c.241 0 .41.194.41.413a.408.408 0 0 1-.41.413zM210.122 218.357h-48.555a.408.408 0 0 1-.41-.413c0-.243.193-.413.41-.413h48.555c.241 0 .41.195.41.413a.424.424 0 0 1-.41.413zM219.268 222.901h-57.701a.408.408 0 0 1-.41-.413c0-.243.193-.413.41-.413h57.701c.241 0 .41.195.41.413a.424.424 0 0 1-.41.413zM219.268 227.445h-57.701a.408.408 0 0 1-.41-.413c0-.243.193-.413.41-.413h57.701c.241 0 .41.195.41.413a.424.424 0 0 1-.41.413z" fill="#CCC"/>
        <path d="m180.511 230.653-6.371-3.329-6.371 3.329V217.92h12.742v12.733z" fill="#CE3D57"/>
        <path d="M125.996 163.124c4.416 0 8.012 3.621 8.012 8.068v19.269c0 4.447-3.596 8.068-8.012 8.068h-38.95v-35.405h38.95z" fill="#fff"/>
        <path d="M87.046 200.522h132.367c5.526 0 10.015-4.52 10.015-10.085v-19.27c0-5.564-4.489-10.084-10.015-10.084H87.046c-1.11 0-2.003.899-2.003 2.017 0 1.118.893 2.017 2.003 2.017h38.95c3.33 0 6.033 2.721 6.033 6.075v19.269c0 3.354-2.703 6.075-6.033 6.075h-38.95c-1.11 0-2.003.899-2.003 2.017 0 1.069.893 1.969 2.003 1.969z" fill="#F37521"/>
        <path d="M208.167 190.462v-19.27c0-5.565-4.489-10.085-10.015-10.085h8.881c5.526 0 10.015 4.52 10.015 10.085v19.27c0 5.564-4.489 10.084-10.015 10.084h-8.881c5.526-.024 10.015-4.544 10.015-10.084z" fill="#fff"/>
        <path d="M93.272 171.532h31.372a.51.51 0 0 0 .507-.51.496.496 0 0 0-.507-.51H93.272a.51.51 0 0 0-.507.51c0 .292.218.51.507.51zM93.272 176.975h29.007a.512.512 0 0 0 .507-.511.497.497 0 0 0-.507-.51H93.272a.512.512 0 0 0-.507.51c0 .292.218.511.507.511zM104.18 182.394h20.464a.512.512 0 0 0 .507-.511.497.497 0 0 0-.507-.51H104.18a.511.511 0 0 0 0 1.021zM93.272 187.813h31.372a.512.512 0 0 0 0-1.021H93.272a.512.512 0 0 0-.507.51c0 .292.218.511.507.511zM93.272 193.256h31.372a.511.511 0 0 0 0-1.021H93.272a.511.511 0 0 0 0 1.021z" fill="#CBCBCB"/>
        <path d="m111.733 197.096 2.751-4.01 2.752 4.01v-15.212h-5.503v15.212z" fill="#ED3D57"/>
        <path d="m206.912 72.535-.169 3.135c2.341-2.722 8.181.388 9.798 1.846l.169-3.134c-1.617-1.434-7.481-4.569-9.798-1.847z" fill="#00A551"/>
        <path d="m173.223 83.3 1.351-2.819c-3.185 1.628-7.408-3.523-8.325-5.492l-1.352 2.819c.917 1.968 5.116 7.096 8.326 5.492zM38.564 96.762l2.461 1.92c-.893-3.475 4.971-6.537 7.095-7.047l-2.461-1.92c-2.1.486-7.988 3.548-7.095 7.047z" fill="#972E76"/>
        <path d="m277.789 122.908-1.544-2.843c-1.955-1.968-6.685 3.208-9.388 3.038l1.545 2.843c2.702.17 7.432-5.006 9.387-3.038zM113.423 46.874l3.089.924c2.775 0 2.485-7.023 4.512-8.82l-3.088-.924c-2.028 1.798-1.738 8.82-4.513 8.82z" fill="#FBC926"/>
        <path d="m274 152.725-1.013 3.061c-.097 2.795 6.902 2.746 8.615 4.86l1.014-3.061c-1.714-2.09-8.712-2.066-8.616-4.86z" fill="#00A551"/>
        <path d="m274.555 68.55 1.617-3.159c-1.592-1.798-5.526-6.682-6.081-7.8l-1.617 3.159c.579 1.093 4.513 6.002 6.081 7.8zM210.942 126.942l-2.365 2.625c1.086 2.138 3.62 7.897 3.91 9.112l2.365-2.624c-.266-1.215-2.824-6.974-3.91-9.113zM137 85.098l-1.882 3.013c1.424 1.92 4.923 7.144 5.405 8.31l1.883-3.013c-.483-1.166-3.982-6.39-5.406-8.31z" fill="#FBC926"/>
        <path d="m223.419 22.963-1.81 2.552c3.426-1.045 6.684 4.763 7.264 6.852l1.809-2.55c-.579-2.09-3.837-7.898-7.263-6.854z" fill="#972E76"/>
        <path d="m258.628 195.298-2.872-1.434c-2.727-.486-3.668 6.488-5.961 7.922l2.872 1.433c2.293-1.433 3.234-8.407 5.961-7.921zM214.659 104.781l3.088-.389c-3.064-1.847-1.037-8.189.097-10.036l-3.089.39c-1.158 1.87-3.185 8.213-.096 10.035z" fill="#FBC926"/>
        <path d="m81.061 187.351-2.92-1.093c1.882 3.062-2.824 7.727-4.706 8.845l2.92 1.093c1.858-1.093 6.588-5.783 4.706-8.845z" fill="#972E76"/>
        <path d="m118.973 156.126 2.848 1.531c2.703.558 3.837-6.391 6.178-7.752l-2.848-1.531c-2.341 1.361-3.475 8.311-6.178 7.752z" fill="#00A551"/>
        <path d="m54.202 129.129-.893 3.426c1.93 1.41 6.83 5.322 7.626 6.294l.892-3.426c-.796-.972-5.695-4.885-7.625-6.294z" fill="#FBC926"/>
        <path d="M192.36 90.614c-5.068-1.19-11.028.632-13.056 7.484 8.109.268 10.353-1.142 13.056-7.484z" fill="#A8D2A0"/>
        <path d="M200.782 97.904c-4.802-3.304-7.601-.583-9.001-.583-1.4 0-5.285-2.187-9.001.584-4.682 3.474-5.816 12.635-.121 18.249 5.116 5.03 7.409 2.551 9.122 2.551 1.738 0 4.151 2.163 9.267-2.892 5.719-5.589 5.237-14.142-.266-17.909z" fill="#CC1C24"/>
        <path d="M202.013 98.9c1.231 3.329-1.665 11.008-6.202 13.219-5.961 2.892-13.345 2.285-16.048-.291a12.497 12.497 0 0 0 2.896 4.325c5.116 5.03 7.408 2.552 9.122 2.552 1.737 0 4.151 2.162 9.267-2.892 5.261-5.151 5.261-12.782.965-16.913z" fill="#BB1A1F"/>
        <path d="M191.781 97.685a.39.39 0 0 1-.386-.34c-.531-4.106 2.606-8.383 6.588-8.99.217-.025.41.12.434.315.025.219-.12.413-.313.438-3.596.558-6.42 4.422-5.937 8.14a.387.387 0 0 1-.338.437h-.048z" fill="#82B479"/>
        <path d="M185.82 99.508c-2.413-.17-3.475.219-3.837 1.677-.362 1.458.314 4.276 1.931 4.058 1.617-.219 5.285-2.819 4.85-4.496-.434-1.677-1.761-1.166-2.944-1.24z" fill="#FF7F54"/>
        <path d="M182.466 95.668a.286.286 0 0 1-.217-.121c-.073-.122-.049-.267.072-.365 4.006-2.746 7.747-4.058 9.363-4.641.242-.097.435-.146.555-.194.869-.34 3.379-1.045 3.475-1.07.145-.048.266.049.314.17.048.122-.048.268-.169.316-.024 0-2.582.73-3.427 1.07-.12.048-.313.121-.579.218-1.592.56-5.309 1.871-9.242 4.569-.049.024-.097.048-.145.048z" fill="#82B479"/>
        <path d="M46.48 174.983c4.97-1.094 11.945-8.116 12.066-9.599l-4.61-4.446s-2.992 2.114-5.116 3.717c-2.124 1.604-5.526 4.836-5.526 4.836l3.185 5.492z" fill="#2D2E37"/>
        <path d="m37.381 174.473-.386-.316 22.83-19.682.41.316-11.222 12.368-11.632 7.314z" fill="#2D2E37"/>
        <path d="m36.995 174.157 11.174-11.639 11.656-8.043-11.222 12.344-11.608 7.338z" fill="#35393E"/>
        <path d="M66.364 159.747c-.024.049-.096.049-.12.024-.58-.461-1.4-1.19-2.269-1.944-1.52-1.336-3.789-3.329-4.102-3.256-.966.778-8.688 7.363-10.932 9.429-.049.024-.097.024-.121 0-.024-.049-.024-.098 0-.122 2.244-2.065 9.99-8.675 10.956-9.428.266-.219 1.303.632 4.32 3.28.869.754 1.69 1.483 2.244 1.944.048-.024.048.025.024.073z" fill="#F79F1E"/>
        <path d="M66.316 159.261c.555.462 2.92 1.92 3.137 2.09.218.17-.024.462.121.705.12.243-.241-.049-.459.024-.217.073-.603.146-.82-.219-.217-.34-1.955-2.187-2.196-2.211-.266-.049.145-.438.217-.389z" fill="#F79F1E"/>
        <path d="M66.437 159.067a.438.438 0 0 1 .072.632.431.431 0 0 1-.627.073.438.438 0 0 1-.073-.632.43.43 0 0 1 .628-.073z" fill="#F79F1E"/>
        <path opacity=".5" d="m46.455 164.802-7.167 7.46 7.384-4.666c-1.062-.073-.94-1.166-.217-2.794z" fill="#fff"/>
        <path d="M73.532 122.52c7.24-.632 18.413-9.331 18.871-11.396l-5.72-7.169s-4.609 2.43-7.939 4.325c-3.33 1.896-8.736 5.832-8.736 5.832l3.524 8.408z" fill="#2D2E37"/>
        <path d="m60.717 120.139-.53-.535 36.005-23.74.507.534-18.172 15.479-17.81 8.262z" fill="#2D2E37"/>
        <path d="m60.186 119.604 18.003-14.458 18.003-9.283-18.196 15.479-17.81 8.262z" fill="#35393E"/>
        <path d="M104.494 104.538c-.049.049-.145.049-.193 0a159.94 159.94 0 0 1-2.848-3.183c-1.907-2.163-4.778-5.443-5.237-5.395-1.496.924-13.683 8.87-17.23 11.373-.049.048-.145.024-.17-.025-.048-.048-.023-.146.025-.17 3.547-2.503 15.734-10.473 17.255-11.397.41-.242 1.761 1.143 5.55 5.444 1.086 1.239 2.124 2.405 2.848 3.159.072.048.048.145 0 .194z" fill="#F79F1E"/>
        <path d="M104.518 103.857c.7.754 3.789 3.257 4.054 3.524.266.267-.096.656.048 1.021.145.364-.337-.098-.651-.049-.338.049-.893.097-1.134-.437-.266-.535-2.39-3.451-2.703-3.548-.338-.122.289-.608.386-.511z" fill="#F79F1E"/>
        <path d="M104.735 103.566c.241.243.241.656 0 .923-.241.243-.652.243-.917 0-.241-.243-.241-.656 0-.923.241-.243.652-.243.917 0z" fill="#F79F1E"/>
        <path opacity=".5" d="m75.317 108.037-11.51 9.258 11.317-5.248c-1.496-.292-1.134-1.799.194-4.01z" fill="#fff"/>
        <path d="M74.232 146.529c4.464 3.377 15.275 4.203 16.579 3.231l.386-7.047s-3.886-.996-6.733-1.628c-2.872-.631-7.964-1.166-7.964-1.166l-2.268 6.61z" fill="#2D2E37"/>
        <path d="m68.126 138.534-.024-.559 32.675 5.03.024.559-18.268-.535-14.407-4.495z" fill="#2D2E37"/>
        <path d="m68.102 137.975 17.665 1.02 15.01 4.01-18.268-.559-14.407-4.471z" fill="#35393E"/>
        <path d="M101.115 152.263c-.048 0-.096-.049-.096-.097-.025-.826-.025-2.017-.025-3.281.025-2.211.049-5.589-.241-5.783-1.327-.243-12.332-2.017-15.638-2.406-.048 0-.096-.048-.096-.121 0-.049.048-.097.12-.097 3.307.413 14.335 2.162 15.662 2.405.362.073.411 1.555.387 5.978 0 1.264-.025 2.479.024 3.28 0 .073-.049.122-.097.122z" fill="#F79F1E"/>
        <path d="M101.453 151.899c.024.777.507 3.815.531 4.131.024.291-.386.315-.483.607-.096.292-.145-.219-.362-.365-.217-.145-.555-.413-.434-.85.121-.437.41-3.208.265-3.426-.12-.268.483-.219.483-.097z" fill="#F79F1E"/>
        <path d="M101.718 151.826a.471.471 0 0 1-.458.51.472.472 0 0 1-.507-.462.472.472 0 0 1 .459-.51.471.471 0 0 1 .506.462z" fill="#F79F1E"/>
        <path opacity=".5" d="m82.63 139.189-11.319-.656 9.147 2.843c-.676-.947.314-1.628 2.172-2.187z" fill="#fff"/>
    </g>
    <defs>
        <clipPath id="55xerjbcna">
            <path fill="#fff" d="M0 0h306v249H0z"/>
        </clipPath>
    </defs>
</svg>
