<svg width="200" height="139" viewBox="0 0 200 139" fill="none" xmlns="http://www.w3.org/2000/svg">
    <g clip-path="url(#jntm0ko3la)">
        <path d="M117.492 51.81c.097.23.163.458.26.687l.489.098a3.422 3.422 0 0 0-.749-.785zM124.853 108.39c-4.918-2.776-7.394-7.121-7.394-7.121-.065-.327-1.628-2.679-2.085-7.416-.293-3.038-.195-11.368-.162-14.177-.033 1.34-.066 3.822-.066 5.423-7.915 10.65-14.006 8.69-14.006 8.69s.456-6.142.098-7.612h-.033c.033.849.261 5.324-.228 8.101-.749 4.345-1.661 5.717-1.726 5.815-.033.294-2.248 3.495-2.313 3.789 0 0-2.638 2.712-3.876 3.43-.489.294-.977.556-1.4.784h1.237c3.16-.032 13.844.066 31.954.294z" fill="#C55955"/>
        <path d="M101.661 86.112c.163 0 .358-.033.554-.098a18.64 18.64 0 0 1-.554.098zM99.479 85.98c.879-.13 1.857-.196 2.703-.392a13.725 13.725 0 0 0 2.509-.718c.814-.294 1.596-.686 2.28-1.242-.065.098-.131.164-.228.262 2.117-1.176 4.918-2.875 8.469-5.129 2.997-2.81 5.7-6.533 7.329-10.421.358-.882.619-1.535.912-2.45.944-.163 2.736-.62 4.3-1.437.195-.098.456-.262.651-.392 1.205-.784 1.987-1.634 2.508-2.81.456-.98.814-2.744.912-4.083-.032 0-.065.032-.065.032 0-.457-.065-.914-.163-1.306a5.658 5.658 0 0 0-.488-1.536c-.228-.457-.456-.849-.782-1.208-.065-.098-.163-.164-.261-.262-.065-.065-.13-.13-.195-.163-.065-.065-.131-.098-.196-.163a2.975 2.975 0 0 0-.423-.262 4.108 4.108 0 0 0-2.052-.457c-.131 0-.261 0-.391.033-.033 0-.098 0-.13.032-.098 0-.163.033-.261.066-.033 0-.033 0-.065.032a2.392 2.392 0 0 0-.456.131c-.065 0-.098.033-.163.065-.033 0-.065.033-.098.033-.032 0-.065.033-.097.033-.033 0-.033 0-.066.032h-.032s-.033 0-.033.033c-.163.065-.325.13-.488.229-.163.098-.359.196-.522.326l-.39.294a.682.682 0 0 0-.163.131c-.065.033-.098.098-.163.13-.033 0-.098.066-.163.099l1.14.196-1.205 1.045-1.271-.229c-1.009.784-2.117 1.634-2.019 1.405 0 0 .098-.588.293-1.699l-.391-.065c-.423.784-1.172 1.274-1.889 1.764-.033 1.013-.195 2.025-.554 3.005 0 .033-.032.066-.032.066.586.98 1.303 1.927 1.465 3.103.228 1.634-.423 3.267-1.563 4.378a5.48 5.48 0 0 1-1.954 1.208c-.619.196-1.01-.098-1.075-.522-.066-.392.162-.915.716-1.111 1.238-.425 2.02-1.699 2.02-3.005 0-.686-.293-1.307-.652-1.895-2.475 3.92-7.394 5.782-11.954 4.214-4.463-1.535-7.166-5.815-6.938-10.323a3.16 3.16 0 0 0-2.248-.13c0 .065-.032.13-.032.228-.391 2.156-1.206 4.214-2.346 6.076-.293.458-.618.915-.781 1.372-.196.458-.196 1.046.195 1.372.391.327.945.392 1.466.392a6.597 6.597 0 0 0 1.563-.294c-.488.196-1.01.36-1.563.425-.521.033-1.108 0-1.596-.327a1.102 1.102 0 0 1-.424-.751c-.032-.294 0-.588.098-.85.196-.555.521-.98.782-1.437 1.042-1.862 1.791-3.855 2.15-5.945-.26.13-.489.261-.717.457-.032 1.045-.195 2.09-.554 3.104a10.28 10.28 0 0 1-10.032 6.958c.39 3.528 1.01 7.056 2.182 10.094.456 1.143.912 2.221 1.433 3.201 2.248 4.15 5.473 6.926 10.326 7.252-.228-.065-.489-.13-.716-.228 1.01-.098 1.791.032 2.638-.066zM127.1 60.043a8.91 8.91 0 0 0 .814-1.568c.098-.293.196-.555.261-.849.065-.294.098-.588.163-.915.032.294.032.621.032.915 0 .327-.065.62-.13.915a5.892 5.892 0 0 1-.782 1.731c-.716 1.045-1.824 1.83-3.029 2.058 1.075-.555 1.987-1.306 2.671-2.287zm-36.97 7.808c0-.196.162-.327.325-.327.196 0 .326.164.326.327s-.163.327-.326.327-.326-.164-.326-.327zm.39 3.56s2.41-.718 2.573-.75c.587-.131 1.238-.36 1.857-.393.62-.032 1.564.49 2.085.294 1.498-.522 1.987-.522 3.42.196 1.368.72 2.736 1.242 4.3.752 0 0-4.202 3.332-7.199 3.822-2.997.555-5.407-1.633-7.036-3.92z" fill="#C55955"/>
        <path d="M122.313 52.072c.13.098.228.229.326.327.228.229.586.555.847.817-.294-.294-.945-.948-1.857-1.797.326.327.619.686.684.653zM116.971 48.61c-.522 1.143 1.628 1.502 2.247 2.09.652.62 1.14 1.405 1.173 2.254l.293.065c.098-.62.228-1.34.391-2.156-.521-.522-1.14-1.078-1.792-1.698-.26-.262-.553-.523-.847-.817l-.325-.327c-.391-.392-.815-.784-1.271-1.209.196.197.424.425.717.687-.261.163-.489.881-.586 1.11zM94.528 48.806c-.391-.98-.912-1.928-1.596-2.712-.359-.392-.782-.718-1.238-.882-.456-.196-.977-.163-1.466 0-.032.098-.065.229-.13.327-.163.392-.391.751-.652 1.078a10.33 10.33 0 0 1 4.854 7.938c.26-.196.553-.327.88-.457.13-1.797-.033-3.626-.652-5.292zM118.111 54.032l.097-.098.066-.065-.196-.033c0 .065.033.13.033.196zM105.798 27.408c.032-.163.032-.327.032-.49.489.229.945.425 1.434.653-.489-.228-.945-.424-1.434-.653 0 .163 0 .327-.032.49z" fill="#C55955"/>
        <path d="M92.02 39.724a3.055 3.055 0 0 1-1.531 1.47c-.033 0-.033.032-.033.032.326 1.373.26 2.712-.228 3.953a2.167 2.167 0 0 1 1.498-.163c.554.13 1.01.49 1.434.85.814.783 1.368 1.73 1.791 2.776.652 1.699.847 3.528.684 5.292a3.95 3.95 0 0 1 2.215.13c.098-.587.228-1.175.424-1.763 1.824-5.39 7.654-8.233 13.029-6.403a9.89 9.89 0 0 1 3.616 2.156v-.098c.097-.751 1.205-1.666 1.302-1.764-1.791-1.699-3.745-3.593-5.765-5.488l-.065-.066c-1.857-1.764-3.779-3.593-5.57-5.292l-2.02-1.927c-2.215 2.058-5.374 3.136-8.957 3.234a12.34 12.34 0 0 1-1.824 3.07z" fill="#C55955"/>
        <path d="M115.244 78.76c-.032 0-.032 0 0 0 0 .066 0 .393-.032.915 0-.555 0-.914.032-.914zM105.994 84.543c-.391.228-.782.457-1.173.653-.814.36-1.694.62-2.541.817h-.065a2.19 2.19 0 0 1-.554.098c-.13.033-.293.033-.423.065.326 1.47-.098 7.612-.098 7.612s6.124 1.96 14.007-8.69c0-1.6.032-4.083.065-5.423v-.914c-3.551 2.254-6.319 3.953-8.469 5.129a3.736 3.736 0 0 1-.749.653z" fill="#AF4545"/>
        <path d="M127.427 60.272c.358-.523.619-1.111.781-1.732.066-.294.131-.62.131-.914 0-.327 0-.621-.033-.915-.065.294-.098.62-.163.915a6.558 6.558 0 0 1-.26.849c-.196.555-.489 1.078-.815 1.568-.651.98-1.596 1.764-2.703 2.287 1.27-.229 2.378-1.013 3.062-2.058zM99.218 86.242c-.521.033-1.01 0-1.498-.033.651.164 1.303.164 1.921.13a25.37 25.37 0 0 0 1.564-.162v-.131c-.619.065-1.4.163-1.987.196z" fill="#3A1F28"/>
        <path d="M101.205 86.046v.13h.033c-.033-.065-.033-.097-.033-.13z" fill="#3A1F28"/>
        <path d="M99.218 86.242c.62-.032 1.368-.13 1.987-.196.098.066.261.066.456.066.196-.033.391-.066.554-.098.945-.262 2.411-.948 4.56-2.124a1.8 1.8 0 0 0 .228-.261c-.684.555-1.465.947-2.28 1.241-.814.294-1.661.523-2.508.719-.847.196-1.824.294-2.703.392-.88.098-1.662-.033-2.509-.033.228.098.489.196.717.229.456.065.977.065 1.498.065z" fill="#3A1F28"/>
        <path d="M101.205 86.046c0 .033.033.098.033.13.13-.032.293-.032.423-.065-.195 0-.358-.032-.456-.065zM104.821 85.164c.423-.196.814-.392 1.172-.653.261-.196.554-.425.782-.654-2.15 1.176-3.616 1.862-4.56 2.124h.065c.879-.196 1.726-.425 2.541-.817z" fill="#3A1F28"/>
        <path d="M133.583 42.075c-1.14-1.405-4.658-3.659-9.283-6.141-.977-.523-1.987-1.046-3.029-1.601.553.98 1.042 1.993 1.465 3.005.261.654.521 1.307.717 1.96a33.012 33.012 0 0 1 1.335 5.913c.131.85.978 6.272.294 6.73a.97.97 0 0 0 .26-.13c1.433-.752 2.997-.622 3.844-.197s1.531 1.144 1.954 1.96c.391.817.717 1.764.717 2.842 0 .229 0 .458-.033.719.456-.163.912-.36 1.303-.654 3.29-2.352 4.007-7.186 2.02-11.662v-.032a14.583 14.583 0 0 0-1.466-2.581c0-.033-.033-.066-.098-.13z" fill="#EEC5CF"/>
        <path d="M131.14 53.575c-.391-.817-1.107-1.536-1.954-1.96-.847-.425-2.411-.556-3.844.196-.033.032-.228.098-.261.13.684-.457-.162-5.88-.293-6.73a33.664 33.664 0 0 0-1.335-5.912c-.228-.653-.456-1.307-.717-1.96a25.484 25.484 0 0 0-1.466-3.005c-.781-.425-1.596-.817-2.443-1.242-1.075-.555-2.15-1.078-3.224-1.6a379.13 379.13 0 0 0-8.339-3.92c-.489-.23-.945-.425-1.433-.654 0 .163-.033.327-.033.49a9.397 9.397 0 0 1-.749 2.842c-.163.327-.326.686-.521 1.013 0 .032-.033.065-.033.065-.13.229-.293.457-.456.686-.358.523-.782.98-1.238 1.438.652.62 1.336 1.24 2.02 1.927 1.791 1.699 3.681 3.528 5.57 5.292l.065.065c2.02 1.895 3.974 3.79 5.765 5.488.066.033.261.262.619.621.424.425.847.817 1.271 1.209.097.098.228.196.325.326.294.294.587.556.847.817.652.62 1.238 1.209 1.792 1.699.065-.033.293.228.554.523.912.882 1.563 1.502 1.856 1.796.065.066.163.13.196.196.065-.065.097-.098.163-.13.065-.033.097-.098.162-.131l.391-.294c.163-.13.359-.229.522-.327.162-.098.325-.163.488-.228 0 0 .033 0 .033-.033h.032c.033-.033.033-.033.065-.033.033 0 .066-.032.098-.032.033-.033.065-.033.098-.033.032-.033.098-.033.163-.065.163-.066.293-.098.456-.131.032 0 .032 0 .065-.033.098-.032.195-.032.26-.065.033 0 .098 0 .131-.033.13-.032.26-.032.391-.032.716-.033 1.4.098 2.052.457.163.065.293.163.423.261a.866.866 0 0 1 .196.164c.065.065.13.098.195.163.098.065.163.163.261.261.325.327.586.752.781 1.209.228.457.391.98.489 1.535.098.425.13.85.163 1.307.032 0 .065-.033.065-.033.033-.261.033-.522.033-.718 0-1.078-.294-2.026-.717-2.842z" fill="#EEC5CF"/>
        <path d="M76.71 64.192c-1.173-.033-1.531 1.633-.228 1.666 1.205.032 2.378-.392 3.323-1.11-.587-.262-1.108-.589-1.63-.948a2.9 2.9 0 0 1-1.465.392zM84.17 45.081c.325-2.188.781-4.475 1.237-5.684.13-.326.717-2.221.815-2.483 1.465-3.266 2.182-4.834 4.234-7.22 2.085-2.416 4.788-4.213 7.622-5.291 6.71-2.614 15.505.457 20.13 5.52a21.92 21.92 0 0 1 2.02 2.581c.391.588.782 1.209 1.108 1.83 1.042.555 2.052 1.078 3.029 1.6 4.593 2.483 8.143 4.737 9.283 6.142.033.032.065.098.131.13a15.84 15.84 0 0 1 1.465 2.581 8.607 8.607 0 0 0-.879-2.678c2.019-2.549 2.834-5.489 1.922-8.135-.522-1.535-1.596-2.744-2.997-3.691.521-1.274.26-2.81-.814-3.822a3.378 3.378 0 0 0-2.281-.98c-.26-1.078-.781-2.026-1.596-2.712-.879-.718-2.019-1.078-3.224-1.045a8.96 8.96 0 0 0-2.183-.653c-.847-3.169-2.703-5.554-5.374-6.403-1.531-.49-3.16-.36-4.724.229a3.516 3.516 0 0 0-3.322-1.667c.033-.196.033-.359.033-.555-.066-4.9-5.766-8.787-12.77-8.722-3.68.033-7.002 1.176-9.283 2.973a3.812 3.812 0 0 0-3.16-1.666c-.488 0-.911.098-1.335.261a3.724 3.724 0 0 0-2.508-.947 3.838 3.838 0 0 0-3.81 3.332c-.033.163-.033.326-.033.522-.13 0-.261 0-.391.033a4.726 4.726 0 0 0-4.333 4.704c0 .882.261 1.732.684 2.45-.097.164-.228.262-.325.36-.228.196-.489.392-.684.588-1.727 1.666-.587 3.397.065 5.26.098.26.13.49.163.718-.163.196-.326.36-.489.522l.293.588c-.39.98-1.27 1.797-1.856 2.483-.391.457-.62.882-.522 1.274a4.964 4.964 0 0 0 2.28 3.104c.261.13.49.26.782.359 0 .229 0 .425.033.62-2.182.621-3.909 1.928-4.788 3.79-1.336 2.907-.228 6.468 2.54 9.343a4.924 4.924 0 0 0-.52 2.385c.064 2.613 2.149 4.671 4.722 4.802 1.433-4.182 5.375-6.762 9.61-6.73z" fill="#2B121A"/>
        <path d="M89.446 46.616c.26-.327.489-.686.652-1.078.032-.098.097-.196.13-.327-.033 0-.065 0-.065.033.032 0 .065-.033.097-.033.49-1.241.554-2.58.228-3.952 0 0 .033 0 .033-.033.652-.294 1.205-.85 1.531-1.47a12.74 12.74 0 0 0 1.824-3.038c3.583-.066 6.775-1.176 8.958-3.234a8.753 8.753 0 0 0 1.238-1.438c.162-.228.293-.457.456-.686 0-.032.032-.065.032-.065.196-.327.358-.653.521-.98a9.657 9.657 0 0 0 .75-2.842c.032-.163.032-.327.032-.49.489.229.945.425 1.433.653a379.13 379.13 0 0 1 8.339 3.92c1.075.523 2.183 1.078 3.225 1.601.847.425 1.629.817 2.443 1.242a33.767 33.767 0 0 0-1.108-1.83 22.017 22.017 0 0 0-2.019-2.58c-4.626-5.064-13.42-8.135-20.13-5.521-2.802 1.078-5.505 2.874-7.623 5.292-2.052 2.384-2.768 3.952-4.234 7.22-.098.26-.684 2.155-.814 2.482-.457 1.209-.88 3.495-1.238 5.684a9.8 9.8 0 0 1 3.192.555c.782.196 1.466.523 2.117.915zM133.583 42.075c-1.14-1.405-4.658-3.659-9.283-6.141-.977-.523-1.987-1.046-3.029-1.601 1.042.555 2.052 1.078 3.029 1.6 4.625 2.483 8.143 4.737 9.283 6.142.033.033.065.098.131.13.586.85 1.074 1.7 1.465 2.582a14.578 14.578 0 0 0-1.465-2.581l-.131-.13z" fill="#2B121A"/>
        <path d="M115.635 31.491a376.983 376.983 0 0 0-8.339-3.92c2.704 1.242 5.538 2.548 8.339 3.92 1.075.523 2.183 1.078 3.225 1.601.847.425 1.661.817 2.443 1.241-.782-.424-1.596-.816-2.443-1.24-1.075-.556-2.15-1.079-3.225-1.602zM105.798 27.408zM104.495 31.328c-.13.229-.293.457-.456.686-.358.523-.782.98-1.238 1.437.456-.424.88-.914 1.238-1.437a4.18 4.18 0 0 0 .456-.686c0-.033.033-.065.033-.065.195-.327.358-.654.521-1.013-.163.327-.326.686-.521.98 0 .065 0 .065-.033.098zM123.681 53.41a34.889 34.889 0 0 1-.195-.195c-.261-.261-.619-.62-.847-.817l-.326-.327c-.065.033-.358-.326-.652-.653-.162-.163-.358-.326-.553-.523a46.89 46.89 0 0 1-.391 2.157l2.834.49c.065-.066.13-.098.13-.131.033 0 .033 0 0 0 .033 0 .033 0 0 0zM120.196 55.96c-.131.228.977-.621 2.019-1.405l-1.694-.294c-.228 1.143-.325 1.698-.325 1.698zM121.107 50.863c.196.196.359.36.554.523-.26-.261-.488-.523-.554-.523z" fill="#2B121A"/>
        <path d="M123.681 53.41c.032 0 .032 0 0 0a.558.558 0 0 0-.196-.195c.131.098.196.163.196.196zM118.209 53.934l-.098.098c.098.62.13 1.274.13 1.895.717-.49 1.466-.98 1.889-1.764l-1.856-.327c-.033.065-.033.065-.065.098zM114.918 47.956v.097a9.927 9.927 0 0 1 2.574 3.757c.293.229.553.49.749.784l2.15.392c-.033-.849-.521-1.633-1.173-2.254-.619-.588-2.801-.947-2.247-2.09.097-.23.325-.948.618-1.079-.293-.26-.521-.49-.716-.686-.196-.196-.424-.392-.652-.62-.097.032-1.205.98-1.303 1.699zM117.264 63.081c0 1.307-.782 2.613-2.019 3.005-.554.197-.782.686-.717 1.111.065.425.423.751 1.075.523a5.055 5.055 0 0 0 1.954-1.209c1.14-1.11 1.792-2.744 1.564-4.377-.163-1.176-.88-2.124-1.466-3.104-.261.752-.619 1.47-1.01 2.124.326.62.619 1.241.619 1.927zM116.222 46.191c.195.23.423.425.619.621l-.619-.62z" fill="#2B121A"/>
        <path d="M100.359 127.174c7.133.556 16.156-5.422 22.768-10.812 1.303-2.614 3.648-4.835 6.906-6.175h.032c.782-.751 1.368-1.339 1.694-1.666-2.41-.032-4.69-.065-6.873-.098a16.695 16.695 0 0 0 3.811 1.601c.033 0-11.628 5.26-21.922 5.064-9.446-.196-19.153-5.195-19.088-5.227 1.434-.49 2.639-1.046 3.975-1.764-2.085.032-3.518.065-4.528.13 0 .948.781 17.967 13.225 18.947z" fill="#C55955"/>
        <path d="M106.775 115.054c10.293.196 21.922-5.063 21.922-5.063a16.677 16.677 0 0 1-3.811-1.601c-18.143-.228-28.795-.359-31.987-.326h-1.238a28.959 28.959 0 0 1-3.974 1.764c-.065.032 9.61 5.03 19.088 5.226zM130.032 110.188c-3.257 1.339-5.602 3.56-6.905 6.174a122.471 122.471 0 0 0 6.938-6.174h-.033z" fill="#C55955"/>
        <path d="m141.954 109.044-9.869-.882s-.098.131-.326.327c.814 0 1.628.032 2.475.032l-.684.686c5.538-.849 11.271 1.34 14.235 5.75l3.909 5.782L163.974 139h1.694l-16.515-23.096c-1.401-2.123-4.691-6.37-7.199-6.86zM121.954 121.229l-15.081 15.615-2.085 2.188h30.521l-9.935-9.833c-2.345-2.352-3.452-5.194-3.42-7.97zM66.938 122.797c4.137-10.748 18.534-12.185 21.27-.36.782 3.463-.52 7.187-1.824 10.617a72.938 72.938 0 0 1-2.508 5.913h13.746l-6.156-11.76-10.098-18.294c2.931-.294 2.899-.588 5.733-.751v-.033h-4.235c-2.475 0-6.808 2.058-8.697 3.626-5.928 4.933-11.987 16.922-16.352 27.212h3.16a809.79 809.79 0 0 1 5.96-16.17z" fill="#4E2254"/>
        <path d="M91.466 127.239 97.622 139h7.134l2.084-2.189 15.082-15.615c0-.294 0-.621.032-.915.131-1.372.522-2.678 1.141-3.952-6.613 5.39-15.668 11.368-22.769 10.812-12.41-.98-13.192-17.999-13.225-18.947-2.834.164-2.801.458-5.733.752l10.098 18.293zM130.065 110.154c1.14-.457 2.28-.751 3.453-.947l.684-.686c-.847 0-1.661-.033-2.476-.033-.293.36-.879.915-1.661 1.666zM125.375 129.167 135.31 139h28.631l-12.28-18.261-3.908-5.782c-2.965-4.41-8.665-6.566-14.235-5.75l-11.596 11.989c0 2.81 1.107 5.652 3.453 7.971z" fill="#4E2254"/>
        <path d="M123.127 116.362a11.236 11.236 0 0 0-1.14 3.952c-.032.295-.032.621-.032.915l11.596-11.989c-1.173.164-2.346.49-3.453.948-1.629 1.535-4.072 3.789-6.971 6.174zM76.808 126.913c.684-2.58 1.368-5.194 2.052-7.775a675.232 675.232 0 0 1-3.486 15.681v.065l-.065.065c-.944 1.242-1.726 2.614-2.41 4.051h11.01a86.775 86.775 0 0 0 2.508-5.913c1.303-3.43 2.606-7.186 1.824-10.616-2.736-11.826-17.134-10.389-21.27.359-2.053 5.357-4.04 10.78-5.994 16.203h11.238c.716-1.535 1.563-3.006 2.606-4.378.651-2.58 1.303-5.161 1.987-7.742z" fill="#4E2254"/>
        <path d="m74.886 134.59-.065.065v.066l.065-.131z" fill="#7F0A22"/>
        <path d="m75.31 134.95.064-.066v-.065c.62-2.613 1.206-5.227 1.792-7.84.586-2.614 1.173-5.227 1.694-7.84a300.55 300.55 0 0 0-2.052 7.775c-.652 2.58-1.336 5.161-1.987 7.742l.065-.066-.065.131v-.065c-1.043 1.372-1.89 2.842-2.606 4.377h.684c.684-1.47 1.466-2.842 2.41-4.083z" fill="#4E2254"/>
        <path d="M104.756 71.542c-1.564.457-2.932-.065-4.3-.751-1.433-.72-1.922-.752-3.42-.196-.522.196-1.499-.327-2.085-.294-.619.032-1.27.228-1.857.392-.195.032-2.573.75-2.573.75 1.661 2.288 4.04 4.476 7.068 3.986 2.965-.555 7.167-3.887 7.167-3.887zm-8.437 2.548c-.75-.065-3.941-2.32-3.941-2.32 2.768.295 9.446.262 9.446.262s-4.756 2.123-5.505 2.058z" fill="#271018"/>
        <path d="M92.345 71.77s3.192 2.255 3.942 2.32c.749.065 5.504-2.058 5.504-2.058s-6.677.032-9.446-.261z" fill="#fff"/>
        <path d="M90.815 67.85a.327.327 0 0 0-.326-.327.327.327 0 0 0-.326.327c0 .163.163.327.326.327s.326-.164.326-.327zM94.951 48.642c-.423-1.013-.977-1.993-1.791-2.777-.391-.36-.88-.718-1.434-.85a2.147 2.147 0 0 0-1.498.164v.033a2.254 2.254 0 0 1 1.466 0c.488.196.912.522 1.238.882a8.753 8.753 0 0 1 1.596 2.711c.586 1.666.781 3.496.619 5.292.162-.065.325-.098.488-.13.163-1.797-.032-3.626-.684-5.325zM92.867 61.088c-.26.457-.587.914-.782 1.437-.098.261-.163.555-.098.85.033.293.196.587.424.75.488.36 1.075.393 1.596.327.553-.032 1.075-.196 1.563-.424-.52.163-1.042.294-1.563.294-.522.032-1.075-.066-1.466-.392-.391-.327-.391-.882-.195-1.372.195-.49.52-.915.781-1.372 1.14-1.862 1.955-3.92 2.346-6.077 0-.065.032-.13.032-.228a1.532 1.532 0 0 0-.489.196c-.358 2.123-1.107 4.149-2.15 6.01zM90.13 45.245c.033 0 .066-.033.066-.033v-.033c0 .033-.033.033-.066.066z" fill="#271018"/>
        <path d="M95.635 53.967c-.032.326-.065.653-.13.98a3.16 3.16 0 0 1 2.247.13l.098-.98c-.749-.261-1.498-.327-2.215-.13zM95.147 54.098a3.78 3.78 0 0 0-.88.457c.033.36.033.686.033 1.045.228-.196.456-.326.716-.457v-.033c.065-.359.098-.686.13-1.012z" fill="#EEC5CF"/>
        <path d="M95.146 54.097c-.032.327-.065.653-.13.98v.033l.489-.196c.065-.327.097-.654.13-.98-.163.065-.326.098-.489.163z" fill="#EEC5CF"/>
        <path fill-rule="evenodd" clip-rule="evenodd" d="M99.316 55.568c0 1.24.26 2.482.749 3.593a3.93 3.93 0 0 0-.456-2.352l.358-1.11c.88 1.208 1.173 2.874.684 4.41 0 .032-.032.065-.032.097 1.01 1.666 2.606 2.973 4.593 3.659a8.673 8.673 0 0 0 10.521-4.247 3.852 3.852 0 0 1-.261-.523c-.488-1.143-.456-2.319.359-3.299.26-.294.553-.523.847-.751-.229-3.398-2.443-6.501-5.864-7.677-4.527-1.568-9.479.882-11.01 5.423-.228.718-.39 1.437-.456 2.156.033.032.098.065.13.13l-.162.49zm12.866-4.28a.157.157 0 0 1 .228 0 .157.157 0 0 1 0 .229l-6.807 6.697c-.033.032-.066.032-.098.032-.033 0-.098 0-.13-.065a.157.157 0 0 1 0-.229l6.807-6.664zm-10.814 6.73 8.697-8.56a.157.157 0 0 1 .228 0 .158.158 0 0 1 0 .23l-8.697 8.558c-.033.033-.065.033-.098.033-.032 0-.097 0-.13-.066-.065-.032-.065-.13 0-.196z" fill="#271018" fill-opacity=".9"/>
        <path fill-rule="evenodd" clip-rule="evenodd" d="M115.798 55.828c-.814.98-.847 2.157-.358 3.3.065.163.163.36.26.523.196-.392.359-.784.521-1.21a8.57 8.57 0 0 0 .456-3.364c-.325.229-.651.458-.879.752zM99.479 55.11c-.033-.032-.098-.065-.13-.13 0 .196-.033.392-.033.588l.163-.458zM99.967 55.698l-.358 1.11c.358.72.521 1.536.456 2.353.163.36.358.719.554 1.045.032-.032.032-.065.032-.098.489-1.535.196-3.201-.684-4.41z" fill="#271018" fill-opacity=".9"/>
        <path d="M117.101 53.673c.065.36.13.686.163 1.045.293-.196.619-.392.847-.653 0-.066-.033-.13-.033-.196l-.977-.196zM104.984 64.486a9.302 9.302 0 0 1-6.287-8.853 3.488 3.488 0 0 0-.716-.49l-.196-.098a10.29 10.29 0 0 0 6.938 10.323c4.561 1.568 9.479-.294 11.955-4.214-.163-.294-.359-.588-.554-.882-2.215 3.822-6.84 5.684-11.14 4.214zM117.231 56.743c-.032.36-.098.72-.195 1.046.065.327.228.62.391.882.065.13.162.261.228.392 0-.033.032-.065.032-.065.326-1.013.521-2.026.554-3.006-.065.033-.13.098-.196.13-.293.132-.586.328-.814.621zM111.01 46.812a9.199 9.199 0 0 1 5.928 6.272l.13-.686.684.13a5.812 5.812 0 0 0-.26-.685c-.293-.229-.587-.458-.782-.62-.945-.752-1.922-1.83-1.792-3.137a10.545 10.545 0 0 0-3.615-2.156c-5.375-1.83-11.173 1.045-13.03 6.403a11.552 11.552 0 0 0-.423 1.764c.163.065.326.13.456.196.13.065.293.163.424.229.065-.621.228-1.274.423-1.895a9.331 9.331 0 0 1 11.857-5.815z" fill="#EEC5CF"/>
        <path d="M118.111 54.032c-.261.262-.554.458-.847.654.065.653.065 1.339 0 2.025.195-.261.521-.457.781-.653.066-.033.131-.098.196-.131 0-.62-.033-1.241-.13-1.895zM117.036 57.79c-.065.293-.163.587-.261.881-.195.555-.423 1.11-.716 1.6.195.295.39.589.553.883a9.723 9.723 0 0 0 1.01-2.124c-.065-.13-.163-.26-.228-.392-.098-.228-.26-.555-.358-.849zM116.71 51.19c.196.163.489.392.782.62-.554-1.404-1.466-2.71-2.573-3.756-.163 1.306.814 2.384 1.791 3.136zM98.665 55.633c0-.36.032-.751.065-1.11a1.753 1.753 0 0 0-.424-.23c-.163-.065-.326-.13-.456-.195a4.995 4.995 0 0 0-.098.98l.196.098c.26.098.521.294.717.457z" fill="#EEC5CF"/>
        <path d="M105.179 63.898a8.73 8.73 0 0 1-4.592-3.66c-.098.197-.294.295-.457.23-.195-.066-.293-.327-.227-.589.065-.228.13-.49.162-.718a8.993 8.993 0 0 1-.749-3.594l-.163.523a3.025 3.025 0 0 0-.456-.457c0 3.887 2.443 7.513 6.287 8.853 4.3 1.47 8.925-.392 11.107-4.215-.13-.196-.26-.424-.39-.62-1.955 3.757-6.385 5.651-10.522 4.247zM117.036 57.788c.097-.359.13-.718.195-1.045a.74.74 0 0 0-.195.392c-.065.196-.033.425 0 .654zM116.84 53.607l.098-.523c-.814-2.842-2.931-5.26-5.928-6.272-4.854-1.666-10.163.948-11.824 5.815a7.931 7.931 0 0 0-.424 1.895c.196.13.424.294.587.457a8.507 8.507 0 0 1 .456-2.156c1.563-4.54 6.482-6.99 11.009-5.423 3.421 1.176 5.636 4.28 5.864 7.677l.586-.392c-.033-.36-.098-.686-.163-1.045l-.261-.033z" fill="#EEC5CF"/>
        <path d="M116.189 58.474c-.13.425-.326.817-.521 1.21.13.195.261.424.391.62.293-.49.521-1.046.716-1.6.098-.295.196-.589.261-.883a1.231 1.231 0 0 1 .196-1.078c.065-.686.097-1.372 0-2.025l-.587.392a8.75 8.75 0 0 1-.456 3.364zM99.902 59.88c-.065.26.033.522.228.587.163.066.359-.032.456-.228-.195-.327-.39-.686-.553-1.046 0 .229-.065.458-.13.686zM99.153 56.09l.163-.523c0-.196 0-.392.033-.588a7.154 7.154 0 0 0-.587-.457c-.032.392-.065.75-.065 1.11.13.163.293.294.456.458z" fill="#EEC5CF"/>
        <path fill-rule="evenodd" clip-rule="evenodd" d="m83.095 57.331-1.206 1.176c-.032.033-.065.033-.097.033-.033 0-.098 0-.13-.065a.158.158 0 0 1 0-.229l1.205-1.209c-.326-.359-.684-.751-.945-1.176-.228.098-.423.229-.554.425-.325.457-.228 1.078-.163 1.6.196 1.275.717 2.549.456 3.855-.13.621-.39 1.21-.716 1.732.098.032.195.065.326.13.749.262 1.53.392 2.312.458-.13-1.862-.228-4.149-.26-6.501l-.228-.229zM79.186 57.69v-.392l-.912.915c-.033.033-.065.033-.098.033s-.098 0-.13-.066a.158.158 0 0 1 0-.228l1.205-1.176c.13-.85.586-1.6 1.4-2.09.163-.099.326-.164.49-.23a4.544 4.544 0 0 1-.392-.914 3.31 3.31 0 0 1-1.335.392c-1.27.163-2.54-.327-3.583-1.242a8.675 8.675 0 0 0 3.518 9.964c.13-.196.228-.425.293-.653.456-1.405-.358-2.908-.456-4.313zM84.104 51.517c-.065-.033-.13-.098-.195-.164-.033 0-.065.033-.098.033-.065.033-.163.033-.228.033 0-.033-.032.457-.065 1.143l.88-.85-.294-.195z" fill="#271018" fill-opacity=".9"/>
        <path fill-rule="evenodd" clip-rule="evenodd" d="M85.96 52.105c-.423.032-.879-.066-1.27-.229l-1.205 1.176c-.032 1.11-.098 2.548-.13 3.528l5.472-5.357a.157.157 0 0 1 .228 0 .158.158 0 0 1 0 .228l-5.7 5.62v.522l-.033-.033c.033 2.352.13 4.639.26 6.5 3.78.23 7.428-2.09 8.698-5.88 1.173-3.43.065-7.088-2.443-9.342-.228.719-1.108 1.535-1.857 2.352-.586.588-1.27.882-2.02.915zM83.094 57.332c.065.098.163.163.228.261v-.457l-.228.196zM79.38 53.934a4.518 4.518 0 0 0 1.336-.392c.098.326.261.62.391.914a3.28 3.28 0 0 0-.488.23c-.815.49-1.27 1.208-1.401 2.09l4.137-4.084c.032-.718.065-1.437.13-2.09.033-.588.196-2.124.456-3.92-3.55.032-6.873 2.319-8.11 5.912 0 .033-.033.098-.033.131 1.075.882 2.313 1.372 3.583 1.209z" fill="#271018" fill-opacity=".9"/>
        <path fill-rule="evenodd" clip-rule="evenodd" d="M81.238 57.92c-.098-.523-.163-1.144.163-1.601.13-.196.325-.327.553-.425.261.392.62.784.945 1.176l.456-.425c0-1.143 0-2.319.033-3.462l-4.17 4.116v.392c.098 1.437.912 2.907.424 4.344-.065.23-.196.458-.293.654.52.327 1.042.62 1.628.85.358-.523.587-1.111.717-1.732.26-1.34-.26-2.614-.456-3.888zM83.322 57.56c0 .033 0 .033 0 0 .033-.065.033-.261.033-.49l-.033.033v.457z" fill="#271018" fill-opacity=".9"/>
        <path fill-rule="evenodd" clip-rule="evenodd" d="m83.322 56.645.065-.065c.033-.98.066-2.417.13-3.528l-.13.13c-.065 1.144-.065 2.287-.065 3.463zM83.941 46.65c-.228 1.796-.39 3.331-.456 3.92a42.31 42.31 0 0 0-.13 2.09l.13-.13c.033-.687.065-1.144.065-1.144.066 0 .163-.033.228-.033.033 0 .066-.032.098-.032.065.065.13.098.196.163l.293.196 2.345-2.32a.157.157 0 0 1 .228 0 .158.158 0 0 1 0 .23l-2.28 2.22c.39.164.847.262 1.27.23a2.89 2.89 0 0 0 1.987-.915c.75-.817 1.629-1.633 1.857-2.352a8.657 8.657 0 0 0-2.964-1.732c-.912-.228-1.89-.392-2.867-.392z" fill="#271018" fill-opacity=".9"/>
        <path d="M78.957 63.114c-3.42-2.255-5.048-6.665-3.648-10.748 0-.033.033-.065.033-.098-.13-.163-.293-.294-.424-.458H74.462c-.032.098-.065.164-.097.262-1.499 4.443.163 9.18 3.81 11.727.294-.196.554-.424.782-.685zM81.075 64.159l-.489-.196a4.264 4.264 0 0 1-.781.751c.293.13.619.262.944.392.978.327 1.987.523 2.965.556-.033-.327-.066-.686-.098-1.013a8.745 8.745 0 0 1-2.541-.49zM89.446 46.616c-.033.033-.033.066-.065.098.26.458.489.915.521 1.47 2.182 1.764 3.42 4.443 3.42 7.252.293-.359.62-.653.977-.882-.293-3.234-2.052-6.206-4.853-7.938zM93.778 58.703a10.57 10.57 0 0 0 .554-3.103 3.04 3.04 0 0 0-.847 1.078.436.436 0 0 1-.26.228c-.098.49-.196.98-.359 1.47-1.368 3.986-5.179 6.468-9.185 6.273l.097 1.012c4.333.13 8.502-2.58 10-6.958z" fill="#EEC5CF"/>
        <path d="M80.587 63.963c-.587-.229-1.108-.523-1.63-.85-.227.262-.488.49-.813.686.52.36 1.042.686 1.628.948a3.73 3.73 0 0 0 .814-.784zM74.918 51.81c.13.164.261.328.424.458 1.335-3.79 4.886-6.174 8.664-6.174.033-.327.098-.653.163-1.013a10.23 10.23 0 0 0-9.707 6.73H74.918zM89.902 48.184c-.032-.555-.26-1.012-.52-1.47.032-.032.032-.065.064-.098a11.831 11.831 0 0 0-2.052-.98c-1.075-.359-2.15-.555-3.192-.555-.065.327-.098.686-.163 1.013 1.01 0 2.02.163 3.03.49a9.348 9.348 0 0 1 2.833 1.6zM94.267 54.555c-.358.228-.684.555-.977.882 0 .49-.033.98-.13 1.47a.579.579 0 0 0 .26-.229c.228-.425.521-.784.847-1.078.065-.36.033-.719 0-1.045zM83.583 64.06c-.782-.032-1.53-.195-2.313-.457-.097-.032-.227-.065-.325-.13a2.467 2.467 0 0 1-.359.457l.489.196a8.742 8.742 0 0 0 2.54.49c0-.163-.032-.36-.032-.555 0 .032 0 0 0 0zM75.798 52.692c-.163-.13-.293-.261-.456-.424 0 .032-.033.065-.033.098-1.4 4.083.228 8.46 3.648 10.747.13-.13.229-.294.326-.457-3.192-2.09-4.69-6.142-3.485-9.964z" fill="#EEC5CF"/>
        <path d="M92.899 56.874c-.033 0-.033-.033-.065-.066-.13-.13-.163-.392-.066-.588.163-.294.326-.555.522-.816a9.209 9.209 0 0 0-3.42-7.253c0 .164 0 .36-.033.523 0 .033-.033.098-.033.13a8.719 8.719 0 0 1 2.443 9.344c-1.303 3.789-4.918 6.108-8.697 5.88.033.196.033.36.065.555a9.231 9.231 0 0 0 9.186-6.272c.163-.49.293-.98.358-1.47-.065.098-.163.098-.26.033zM75.798 52.693c0-.033.032-.098.032-.131 1.206-3.593 4.528-5.848 8.111-5.913.033-.196.065-.36.065-.555-3.81.032-7.329 2.384-8.664 6.174.163.163.293.294.456.425zM79.316 62.656c-.098.164-.195.327-.326.458.489.326 1.043.62 1.629.849.13-.163.26-.294.358-.457a7.937 7.937 0 0 1-1.661-.85z" fill="#EEC5CF"/>
        <path d="M86.873 47.14c1.14.391 2.117.98 2.964 1.73 0-.032.033-.097.033-.13.032-.196.032-.36.032-.523-.814-.686-1.791-1.209-2.833-1.568-1.01-.36-2.02-.49-3.03-.49a3.645 3.645 0 0 0-.065.556c.945-.066 1.922.097 2.9.424zM92.769 56.254c-.098.196-.065.457.065.588l.065.065a.316.316 0 0 0 .293.033c.098-.49.13-.98.13-1.47-.228.228-.39.49-.553.784z" fill="#EEC5CF"/>
        <path d="m79.25 56.776-1.205 1.176a.158.158 0 0 0 0 .23.247.247 0 0 0 .13.064c.033 0 .066-.032.098-.032l.913-.915c0-.196.032-.36.065-.523zM84.69 51.876c-.097-.032-.195-.098-.325-.163l-.88.85c0 .163 0 .326-.032.49l1.237-1.177z" fill="#fff"/>
        <path d="m79.186 57.266 4.169-4.116c0-.163 0-.326.032-.49l-4.136 4.084c-.033.196-.066.359-.066.522zM83.485 53.051c0-.163 0-.326.033-.49l-.13.131c0 .163 0 .327-.033.49l.13-.13zM86.97 49.621a.158.158 0 0 0 0-.228.157.157 0 0 0-.227 0l-2.346 2.32c.098.065.196.13.326.163l2.248-2.255zM81.661 58.279a.158.158 0 0 0 0 .228.246.246 0 0 0 .13.066c.033 0 .066-.033.098-.033l1.205-1.176c-.065-.098-.162-.163-.228-.261l-1.205 1.176zM89.055 51.452a.158.158 0 0 0 0-.23.157.157 0 0 0-.228 0l-5.472 5.358v.49l5.7-5.618zM83.322 56.645l-.456.425c.065.098.163.163.228.261l.228-.228v-.458z" fill="#fff"/>
        <path d="m83.323 57.103.032-.033v-.49l-.065.065c.033.131.033.294.033.458zM101.498 58.312c.033 0 .066-.033.098-.033l8.697-8.559a.158.158 0 0 0 0-.229.157.157 0 0 0-.228 0l-8.697 8.56a.158.158 0 0 0 0 .228c.033 0 .098.033.13.033zM105.375 58.213a.242.242 0 0 0 .13.066c.032 0 .065-.033.098-.033l6.807-6.697a.157.157 0 0 0 0-.228.157.157 0 0 0-.228 0l-6.807 6.696c-.066.033-.066.131 0 .196z" fill="#fff"/>
        <path d="m123.485 54.783 1.205-1.045-1.14-.196c-.26.196-.781.588-1.335 1.045l1.27.196zM118.078 53.836l.196.033c.325-.425.26-.882-.033-1.274l-.489-.098c.131.425.228.882.326 1.34zM120.424 52.954c0 .294-.033.62-.163.947-.033.098-.098.196-.131.294l.391.066c.065-.36.131-.784.228-1.242l-.325-.065z" fill="#EEC5CF"/>
        <path d="m120.489 54.26 1.694.295c.553-.425 1.075-.85 1.335-1.045l-2.834-.49c-.065.49-.13.882-.195 1.24zM120.424 52.954l-2.183-.36c.293.425.359.85.033 1.275l1.856.326c.066-.098.098-.196.131-.294.13-.326.163-.62.163-.947zM116.938 53.085c.065.196.098.392.163.588l.977.163a8.829 8.829 0 0 0-.326-1.34l-.684-.13-.13.719zM116.84 53.607l.228.033a3.793 3.793 0 0 0-.163-.588l-.065.555z" fill="#EEC5CF"/>
        <path d="m23.29 92.906.814-.294-1.563-4.835a90.73 90.73 0 0 0-.717.621l1.466 4.508zM2.54 68.602c.066.032.13.032.229.065l-.228-.065zM17.59 75.2l3.355 10.454.325-.261c-.032-.033-.097-.098-.097-.163l-.521-1.601c-.033-.098 0-.163.097-.13h.033c.065.032.163.13.195.228l.489 1.502.228-.163-3.192-9.898c-.26-.817-1.043-1.699-1.727-1.927l-9.544-3.136 8.242 2.71c.846.328 1.791 1.373 2.117 2.386zm2.084 5.097h.033a.46.46 0 0 1 .195.228l.522 1.601c.032.098 0 .163-.098.13h-.033a.46.46 0 0 1-.195-.228l-.521-1.6c0-.099.032-.164.097-.131zm-.716-2.385.098.033c.065.032.13.098.162.163l.326 1.013c.033.065 0 .13-.065.098l-.098-.033a.393.393 0 0 1-.163-.163l-.325-1.013c-.033-.065 0-.13.065-.098zM29.055 110.776c.326 1.012-.097 1.633-.944 1.339l1.303.425c.684.228 1.042-.262.781-1.078l-5.244-16.334c-.26.13-.521.229-.814.327l4.918 15.321z" fill="#E54363"/>
        <path d="m2.736 68.667 4.495 1.47-4.495-1.47zM27.134 111.82l.944.327-.944-.327zM11.563 96.662l-.782-2.417v.098c-.032.751.294 1.535.782 2.32zM6.026 81.244v-.392c.163.033.326.098.489.163L2.508 68.603c-.554-.065-.782.392-.554 1.11l4.072 12.61V81.244zM8.664 87.68c0 .914 0 1.862-.032 2.776l.13.458.619-.915-.717-2.32zM16.091 93.593s-.065 2.319-.228 4.54l.065-.098c0-.032.033-.032.033-.065.065-.163.163-.294.26-.425l1.63-2.613 5.472-2.026-1.499-4.508c-1.857 1.601-4.527 3.757-5.733 5.195z" fill="#462831"/>
        <path d="M6.677 81.08c.13.066.228.099.293.197.359.032.685.097.815.26.716 1.079.88 3.496.912 6.11l.75 2.32 2.898-4.248v-.13c.033-.131.163-.262.228-.36.293-.424.586-.85.88-1.306.195-.294.358-.556.553-.85.066-.098.163-.228.26-.326.164.196.261.424.392.653.098.196.195.36.13.555.456 1.078-.033 2.614-.684 3.888-1.107 2.286-3.127 5.52-3.29 6.337l.782 2.418c.163.26.358.555.554.816l.065-.62c0-.164.032-.327 0-.49h.032l.326-3.398c.065-.555.326-1.045.75-1.372l7.654-5.913-3.355-10.453c-.326-1.013-1.303-2.091-2.15-2.352l-8.24-2.712-4.496-1.47c-.065-.032-.13-.032-.195-.032l3.973 12.413c.066.033.098.033.163.066zM4.3 71.347c-.162-.523.066-.817.49-.686l.944.294c.423.13.912.686 1.107 1.208l1.857 5.782c.163.523-.065.817-.489.686l-.944-.293c-.424-.131-.912-.687-1.108-1.21L4.3 71.347zM29.055 110.776l-4.95-15.289c-1.108.458-2.216.817-3.063 1.405-.814.588-1.335 1.405-1.824 2.32v1.6c4.072 2.221 6.417 6.436 7.916 11.009l.944.327c.88.261 1.303-.36.977-1.372z" fill="#462831"/>
        <path d="m7.231 78.337.945.294c.423.13.651-.164.489-.686l-1.857-5.782c-.163-.523-.652-1.078-1.108-1.21l-.944-.293c-.424-.13-.652.163-.489.686l1.857 5.782c.195.523.684 1.045 1.107 1.209zm-1.14-4.868c-.358-.098-.814-.522-.977-.98-.195-.457-.032-.784.326-.686.358.098.814.523.977.98.163.457.033.784-.326.686z" fill="#E54363"/>
        <path d="M20.098 82.028a.46.46 0 0 0 .195.229h.033c.065.032.13-.033.097-.131l-.52-1.6a.46.46 0 0 0-.196-.23h-.033c-.065-.032-.13.033-.098.131l.522 1.601zM19.186 79.023c.032.065.097.163.163.163l.097.033c.065.032.098-.033.065-.098l-.325-1.013c-.033-.065-.098-.163-.163-.163l-.098-.033c-.065-.033-.098.033-.065.098l.326 1.013zM20.977 83.76a.459.459 0 0 0-.195-.229h-.033c-.065-.033-.13.033-.098.13l.521 1.601c.033.066.066.131.098.164l.196-.131-.489-1.535z" fill="#462831"/>
        <path d="M5.44 71.803c-.359-.098-.522.228-.326.686.195.457.619.914.977.98.358.098.521-.229.326-.686-.196-.458-.62-.915-.977-.98z" fill="#fff"/>
        <path d="M25.016 133.12c.13.065.26.131.391.131-.358-.719-.163-2.222.521-4.018-.195-.262-.358-.556-.553-.817-.913 2.319-1.108 4.181-.359 4.704zM33.453 119.694a.796.796 0 0 0-.294-.36c-.488-.359-1.335-.032-2.312.784.162.229.325.425.488.654.847-.719 1.564-1.111 2.117-1.078zM26.384 133.708c-.26.065-.52.032-.684-.098l-.032-.033c-.033.915.13 1.536.52 1.797.131.065.261.098.424.098-.228-.392-.293-.98-.228-1.764zM27.036 130.866c-.195-.261-.39-.555-.586-.849-.424 1.208-.684 2.319-.782 3.234.26-.033.521-.164.814-.327.13-.621.326-1.339.554-2.058zM33.55 121.359c0-.098.033-.163.033-.261l-.098-.098c-.39-.229-.944-.065-1.596.392.163.196.359.392.521.588.424-.327.815-.555 1.14-.621z" fill="#E54363"/>
        <path d="M31.727 128.089c-1.14 1.928-2.378 3.496-3.486 4.508.26.392.554.784.814 1.144.945-1.078 1.922-2.581 2.834-4.312 1.14-2.254 1.857-4.41 2.052-6.011l-.065-.065c-.39 1.404-1.14 3.07-2.15 4.736zM34.625 124.006c-.228 1.568-.944 3.659-2.02 5.815-.976 1.894-2.051 3.495-3.061 4.573A155.822 155.822 0 0 0 32.932 139h19.413c-5.57-5.586-11.726-9.767-17.72-14.994zM30.847 120.151c-.814-1.078-1.629-2.352-2.476-3.659.229 3.267-4.82 6.958-5.863 7.677 1.01 1.535 1.987 2.94 2.867 4.279a22.443 22.443 0 0 1 1.759-3.56c1.205-2.091 2.573-3.757 3.713-4.737zM31.89 121.425c-.164-.196-.359-.424-.522-.62-1.107.98-2.378 2.58-3.55 4.54a23.077 23.077 0 0 0-1.857 3.888c.195.261.358.523.554.784.325-.98.781-1.993 1.303-3.071 1.27-2.581 2.833-4.639 4.071-5.521zM31.042 127.599c1.01-1.732 1.76-3.43 2.183-4.835-.13-.098-.261-.229-.359-.327-.163-.13-.293-.294-.456-.424-1.205.98-2.67 2.94-3.909 5.39a24.96 24.96 0 0 0-1.465 3.463c.26.359.488.718.749 1.045 1.042-1.013 2.215-2.483 3.257-4.312z" fill="#C55955"/>
        <path d="M31.335 120.772a11.2 11.2 0 0 1-.488-.654c-1.173.98-2.509 2.646-3.746 4.704a29.899 29.899 0 0 0-1.76 3.561c.196.261.392.555.554.817.424-1.209 1.076-2.548 1.857-3.888 1.205-1.927 2.476-3.528 3.583-4.54zM28.502 127.403c1.237-2.483 2.703-4.443 3.908-5.39-.163-.196-.358-.36-.52-.588-1.239.914-2.802 2.94-4.105 5.553-.521 1.046-.977 2.091-1.303 3.071.195.294.39.555.586.849.326-1.143.815-2.319 1.433-3.495z" fill="#C55955"/>
        <path d="M33.941 123.417c.228.196.456.392.684.621.196-1.241.066-2.156-.358-2.516-.032.425-.13.948-.293 1.471 0 .13 0 .261-.033.424zM26.612 135.472c.066.13.163.261.294.326.586.36 1.563-.196 2.638-1.372l-.489-.686c-.944 1.078-1.824 1.699-2.443 1.732z" fill="#E54363"/>
        <path d="M34.625 124.005c-.228-.196-.456-.392-.684-.62-.195 1.6-.912 3.757-2.052 6.011-.88 1.764-1.89 3.266-2.834 4.312l.489.686c1.01-1.078 2.084-2.679 3.062-4.574 1.107-2.156 1.791-4.247 2.02-5.815zM27.785 131.911c-.456.425-.88.784-1.27 1.013a3.714 3.714 0 0 0-.098.816c.521-.098 1.14-.49 1.857-1.143l-.489-.686zM33.779 121.327c.162 0 .293.033.423.098.032.033.065.033.098.066.065-.817-.066-1.438-.424-1.699-.13-.066-.26-.131-.39-.131.162.327.195.817.13 1.405.032.098.097.163.163.261zM25.407 133.251c.065.131.13.229.26.327 0-.098 0-.229.033-.327h-.293zM33.876 123.353c.033-.131.066-.229.098-.36.065-.718 0-1.307-.228-1.666-.065 0-.13 0-.228.033a9.5 9.5 0 0 1-.326 1.405c.261.196.489.392.684.588z" fill="#E54363"/>
        <path d="M33.778 121.327c-.065-.098-.13-.163-.195-.228 0 .098 0 .163-.033.261.065 0 .163-.033.228-.033zM26.384 133.708c.033-.261.066-.522.098-.816-.293.163-.586.294-.814.326 0 .098-.033.229-.033.327l.033.033a.808.808 0 0 0 .716.13zM31.042 127.599c-1.075 1.797-2.215 3.3-3.29 4.313l.489.686c1.108-1.013 2.345-2.581 3.485-4.509.978-1.666 1.727-3.332 2.15-4.736-.228-.196-.423-.392-.651-.588-.391 1.404-1.14 3.136-2.183 4.834zM33.778 121.327c.196.359.26.948.228 1.666.163-.555.228-1.045.294-1.47-.033-.033-.066-.065-.098-.065a.654.654 0 0 0-.424-.131z" fill="#E54363"/>
        <path d="M28.371 116.492c0-.163-.032-.294-.065-.457a47.486 47.486 0 0 0-1.173-4.214l-2.117-.686c1.14 1.731 2.248 3.593 3.355 5.357zM27.492 93.135c.163-.261.065-.882-.033-1.306a2.418 2.418 0 0 0 0-.686c-.098.032-.228.098-.325.13l-.815.36c-.423.196-.814.359-1.238.555-.097.033-.26.065-.325.163-.033.033-.033.066-.066.098l-.553.229.814 2.548c.977-.555 1.922-1.143 2.54-2.09zM13.779 112.016c-.033-1.829.032-3.691.097-5.52a1.387 1.387 0 0 1-.195-.458L8.795 90.881l-.163.228v-.686L6.026 82.29v1.078l-.39 17.248 4.788 6.828v-.033l11.856 16.791s.065-.032.196-.13c-.26-.392-.521-.752-.75-1.144-1.693-2.515-4.983-6.958-7.947-10.911zM23.616 86.732c.651-.817 1.14-1.731 1.172-2.744 0-.229-.065-.392-.195-.523-.033-.196-.065-.424-.13-.62-.098.065-.228.163-.326.228l-.782.588c-.39.294-.814.588-1.205.915-.098.065-.26.13-.326.229-.032.065-.065.13-.032.196l-.098.065.847 2.679a8.533 8.533 0 0 0 1.075-1.013zM21.499 85.36c.032.098 0 .163-.098.13h-.033c-.032 0-.065-.032-.097-.065l-.326.262.88 2.711c.26-.229.488-.425.716-.62l-.847-2.68-.228.164.033.098zM24.104 95.487c.261-.098.554-.229.815-.327l-.815-2.548-.814.294.814 2.581z" fill="#C55955"/>
        <path d="m8.664 87.68-2.15-6.665c-.162-.065-.325-.163-.488-.163V82.32l2.606 8.135c.032-.915.032-1.862.032-2.777zM25.049 111.102l2.085.718-2.085-.718zM11.564 96.663c-.489-.784-.815-1.568-.782-2.32v-.097l-1.368-4.247-.62.915 4.887 15.157c.065.164.13.327.195.458.033-.817.066-1.634.066-2.45l-2.378-7.416zM6.97 81.277c-.064-.098-.195-.13-.292-.196-.033-.033-.098-.033-.13-.065l2.15 6.664c-.033-2.614-.196-5.064-.913-6.109-.13-.196-.488-.261-.814-.294zM13.941 102.707c0-.294-.032-.621-.065-.948.033-.359.033-.718.033-1.11A150.917 150.917 0 0 1 20 104.895c1.727 1.274 3.388 3.594 5.049 6.207l2.117.686c-1.498-4.573-3.843-8.787-7.915-11.009v-1.6c.488-.915.977-1.764 1.824-2.32.847-.588 1.954-.98 3.062-1.404l-.814-2.581-5.473 2.025-1.628 2.614c-.098.13-.196.26-.261.424 0 .033-.033.033-.033.066l-.065.098c.163-2.222.228-4.541.228-4.541 1.238-1.438 3.91-3.594 5.766-5.194l-.88-2.712-7.654 5.913c-.424.327-.684.817-.75 1.372l-.325 3.398h-.033v.49l-.065.62c-.196-.261-.39-.555-.554-.816l2.378 7.415c-.033-.457-.033-.915-.033-1.339z" fill="#C55955"/>
        <path d="M14.072 87.908c.618-1.307 1.14-2.81.684-3.888.065-.196-.033-.36-.13-.555a2.67 2.67 0 0 0-.392-.654c-.097.098-.162.23-.26.327-.196.294-.358.555-.554.85-.293.424-.586.849-.88 1.306-.064.098-.195.229-.227.36v.13l-2.9 4.247 1.369 4.247c.162-.817 2.182-4.084 3.29-6.37zM21.433 85.49c.065.033.13-.032.098-.13l-.033-.098-.195.13c.032.033.065.033.098.066l.032.032zM28.371 116.492c-1.107-1.764-2.215-3.626-3.322-5.357l-5.114-1.699-4.756-1.568v-.033c-.489-.261-.977-.751-1.27-1.339-.066 1.829-.13 3.692-.098 5.521 2.964 3.92 6.254 8.363 7.948 10.943.26.392.521.785.749 1.144 1.042-.686 6.091-4.378 5.863-7.612z" fill="#C55955"/>
        <path d="m15.146 107.835 4.789 1.601-4.56-1.503a1.584 1.584 0 0 0-.229-.098zM13.876 106.496c.293.555.782 1.078 1.27 1.339l-1.205-3.789c0 .817-.033 1.633-.065 2.45zM19.935 109.436l5.114 1.666-5.114-1.666z" fill="#C55955"/>
        <path d="M19.968 104.927c-.847-.653-3.355-2.482-6.092-4.246.033.359 0 .718-.032 1.11.032.327.065.621.065.948v1.372l1.205 3.789c.065.033.163.066.228.098l4.56 1.503 5.114 1.666c-1.628-2.646-3.322-4.966-5.048-6.24z" fill="#C55955"/>
        <path d="M77.394 133.544c.945-1.927 1.498-2.744 1.89-2.776l-.294-.687v-.032c-.651 1.111-1.303 2.221-1.922 3.365l.326.13z" fill="#4E2254"/>
        <path d="M80.488 132.532c-.488-1.078-.781-1.862-1.205-1.797a22.163 22.163 0 0 0 2.802 4.508c-.684-.914-1.206-1.894-1.597-2.711zM76.873 121.295c.163 3.005.88 5.978 2.085 8.754.098-.163.163-.294.26-.457a28.184 28.184 0 0 1-1.758-8.33c-.13-2.973.195-5.946 1.01-8.788l-.62-.196c-.846 2.94-1.14 6.011-.977 9.017z" fill="#C55955"/>
        <path d="M35.31 42.076v9.637c1.433-1.144 3.16-1.536 4.723-2.352-.196-.033-.424-.066-.62-.098-.814-.164-1.628-.392-2.312-.948-.684-.555-.75-1.208-.163-1.83.945-1.012 2.117-1.371 3.453-1.175 1.824.229 2.997 1.437 3.909 2.907.423.654.163 1.372-.293 1.96-.684.948-1.662 1.47-2.704 1.928-1.075.457-2.182.882-3.388 1.372.163.065.294.13.391.163.815.294 1.629.588 2.443.85.75.228 1.238.75 1.564 1.437.39.915.032 1.862-.912 2.352-.326.163-.652.261-1.01.392.163.196.358.36.521.555.652.817.717 1.732.033 2.483a9.508 9.508 0 0 1-1.629 1.405c-.717.49-1.596.228-2.02-.458-.456-.718-.227-1.535.587-2.09l-1.075-.882c-1.173-1.144-.977-2.875.684-3.496.065-.032.098-.065.228-.098-.423-.196-.847-.36-1.238-.555-.39-.196-.749-.457-1.172-.719 0 .163-.033.294-.033.457v9.017c0 .261.098.62-.293.62-.424 0-.326-.359-.326-.653v-9.408c-.782.425-1.564.85-2.313 1.241.294.196.717.392.978.686.879.915.716 2.189-.359 3.104-.293.26-.586.457-.912.718 1.14.686.945 1.895.326 2.45-.456.392-1.042.523-1.629.196a5.366 5.366 0 0 1-1.889-1.633c-.684-.947-.326-1.895.424-2.679.065-.065.162-.163.26-.228a9.937 9.937 0 0 1-1.042-.425c-1.173-.62-1.4-1.928-.521-2.94.325-.392.749-.686 1.237-.85.912-.294 1.792-.62 2.802-.98-.196-.098-.326-.13-.456-.196-1.303-.555-2.639-1.11-3.942-1.698-.847-.392-1.563-1.013-1.987-1.895-.228-.49-.293-1.045 0-1.503.912-1.437 2.052-2.613 3.844-2.874 1.433-.196 2.703.196 3.648 1.339.358.425.391 1.045-.033 1.405-.423.359-.944.653-1.433.882-.553.228-1.14.326-1.791.49 1.596.751 3.355 1.143 4.756 2.286V42.11c-.62.097-1.238.097-1.825.26-1.433.393-2.899.785-4.332 1.242-1.629.523-3.257.948-4.984.85-2.28-.099-4.364-.817-6.09-2.385-.36-.327-.36-.49 0-.784 2.833-2.352 5.667-4.704 8.566-7.024a5.427 5.427 0 0 1 1.661-.882c1.173-.36 2.117.098 2.736 1.078.587.882 1.01 1.862 1.499 2.842.13.262.228.523.325.784.456 1.046 1.369 1.307 2.41 1.438v-4.345c0-.098-.032-.261.034-.327.065-.13.195-.261.293-.261.097 0 .228.163.293.261.032.098.032.229.032.327v4.247c.88.13 2.02-.49 2.378-1.307.326-.719.587-1.437.945-2.123.358-.686.749-1.372 1.27-1.928.75-.85 1.727-1.045 2.736-.555.684.294 1.303.719 1.89 1.209 2.605 2.123 5.211 4.28 7.817 6.435.62.523.652.588.033 1.11-1.466 1.275-3.192 1.928-5.114 2.157-1.792.196-3.55-.098-5.244-.62-1.727-.556-3.486-1.014-5.245-1.47-.456-.197-.912-.197-1.4-.262zm-17.395-.392c.424.294.75.555 1.14.784 1.336.784 1.564.784 2.9-.033 1.074-.686 1.824-1.568 1.628-2.94 0-.098.163-.261.228-.36.13.099.358.197.358.295.033.424.033.85-.065 1.241-.293 1.242-1.205 1.96-2.247 2.548-.13.066-.293.163-.521.261 1.53.36 2.996.425 4.43.131a.507.507 0 0 0 .26-.196c.326-.523.717-1.045.977-1.633.391-.817.456-1.699-.097-2.516-.066-.098.032-.294.032-.424.163.032.391 0 .456.098.163.228.326.522.391.816.293 1.111-.032 2.091-.586 3.038-.098.197-.228.36-.391.621 2.606-.784 5.049-1.797 7.72-1.927v-1.34c-.13-.032-.26-.032-.358-.032-1.238-.196-2.216-.752-2.704-1.96-.26-.588-.489-1.209-.782-1.797-.326-.62-.684-1.241-1.14-1.797-.489-.62-1.205-.816-1.954-.49-.554.229-1.075.556-1.564.915-1.27 1.013-2.508 2.058-3.778 3.103-1.368 1.144-2.834 2.352-4.333 3.594zM42.9 43.35c-.26-.654-.586-1.274-.814-1.96-.26-.85-.163-1.666.358-2.418.098-.098.358-.196.456-.163.228.098.195.327.033.523-.326.457-.391.947-.326 1.502.098.883.554 1.634 1.042 2.352.228.327.456.523.88.523.456 0 .88.098 1.335.098.88.033 1.76-.098 2.606-.294-.554-.392-1.14-.718-1.629-1.176-.846-.751-1.237-1.699-1.107-2.842.033-.229.098-.425.39-.36.261.033.294.23.261.458-.097.719.13 1.372.587 1.927.651.817 1.53 1.242 2.475 1.601.066.033.13.033.196.033.88-.327 1.661-.817 2.41-1.438-.097-.065-.13-.13-.163-.163-2.768-2.287-5.505-4.573-8.273-6.827a4.981 4.981 0 0 0-1.303-.686c-.587-.23-1.205-.164-1.662.294-.358.326-.716.718-.944 1.143-.521.98-.945 1.993-1.4 3.005-.294.654-.815 1.078-1.467 1.34-.39.13-.814.196-1.205.326-.097.033-.228.131-.26.196-.033.392 0 .752 0 1.176 2.605.098 5.048 1.111 7.524 1.83zm-2.215 5.455h.326c.228 0 .521-.065.619.262.098.294-.196.392-.391.457-1.108.49-2.248.98-3.355 1.47-.782.327-1.564.653-2.15 1.241-.39.392-.651 1.307-.098 1.797.424.392.912.719 1.434.98.553.294 1.172.523 1.726.784.13.066.26.229.26.327-.032.13-.195.261-.325.327-.163.065-.359.065-.554.13-.554.163-1.108.36-1.336.948-.26.62-.065 1.176.424 1.6.554.49 1.173.882 1.759 1.34.13.098.163.326.228.522-.163.033-.326.098-.489.13-.228.034-.456 0-.651.099-.358.196-.456.719-.26 1.078.227.392.716.555 1.107.294a9.429 9.429 0 0 0 1.53-1.241c.554-.556.554-1.111.033-1.7-.293-.326-.716-.587-1.042-.881-.13-.098-.163-.261-.26-.425.13-.098.26-.196.423-.261.39-.098.814-.13 1.205-.261 1.173-.36 1.433-1.373.619-2.255-.163-.163-.391-.326-.586-.392-1.075-.392-2.15-.75-3.193-1.143-.26-.098-.684-.163-.618-.555.032-.196.39-.36.586-.523.032-.033.097-.033.13-.065 1.14-.458 2.28-.915 3.42-1.405.912-.392 1.76-.85 2.378-1.666.456-.555.521-1.143.065-1.666-.39-.49-.847-1.013-1.335-1.405-1.368-1.176-3.453-1.143-4.723.033-.489.457-.456.784.097 1.143.912.621 1.987.817 2.997.882zm-11.563 0c1.107-.098 2.182-.261 3.16-.882.586-.36.618-.718.13-1.143-1.043-.947-2.216-1.11-3.518-.719-1.108.36-1.857 1.176-2.509 2.058-.423.588-.423 1.144.066 1.666.456.458.977.915 1.53 1.242.75.424 1.597.751 2.378 1.078.717.294 1.434.555 2.118.882.195.098.325.294.488.457-.163.163-.293.392-.488.49-.359.196-.75.294-1.14.425-.717.261-1.466.49-2.183.751-.651.229-1.107.915-1.107 1.535.032.556.423.98 1.172 1.176.359.099.717.131 1.075.23.163.032.293.163.456.228-.098.163-.13.326-.26.457-.294.262-.652.49-.945.752-.489.49-.586 1.078-.228 1.6.456.686 1.075 1.176 1.824 1.536.456.228 1.01-.098 1.108-.621.097-.62-.326-.98-.978-.915-.162.033-.423-.032-.488-.13-.13-.196 0-.392.228-.523.195-.13.39-.229.554-.392.456-.36.977-.719 1.368-1.143.586-.686.423-1.569-.359-1.993-.358-.196-.781-.261-1.172-.425-.163-.065-.293-.228-.456-.326.13-.131.195-.294.358-.392.293-.164.619-.262.912-.425.619-.327 1.303-.62 1.857-1.013.684-.49.847-1.274.325-1.895a3.79 3.79 0 0 0-1.205-.947c-1.075-.523-2.215-.947-3.322-1.405-.456-.196-.88-.424-1.336-.686-.097-.065-.195-.261-.163-.359 0-.098.196-.196.294-.229.13-.032.293 0 .456 0z" fill="#000"/>
        <path d="M17.916 41.684c1.53-1.241 2.964-2.45 4.43-3.659 1.27-1.045 2.508-2.09 3.778-3.103.489-.36 1.01-.686 1.564-.915.749-.327 1.465-.098 1.954.49.456.555.814 1.176 1.14 1.797.293.555.521 1.176.782 1.796.488 1.21 1.465 1.764 2.703 1.96.098.033.228.033.359.033v1.34c-2.671.163-5.114 1.143-7.72 1.927.163-.261.26-.458.39-.62.554-.948.88-1.928.587-3.039-.065-.294-.228-.555-.39-.817-.066-.098-.294-.065-.457-.098 0 .164-.098.327-.033.425.554.817.456 1.699.098 2.516-.26.587-.651 1.078-.977 1.633a.507.507 0 0 1-.26.196c-1.466.294-2.9.229-4.43-.13.227-.131.39-.197.52-.262 1.043-.588 1.955-1.307 2.248-2.548.098-.392.065-.817.065-1.242 0-.098-.228-.196-.358-.294-.098.131-.26.262-.228.36.163 1.404-.586 2.254-1.629 2.94-1.335.85-1.563.817-2.899.033-.488-.131-.847-.425-1.237-.72zM42.899 43.35c-2.476-.719-4.919-1.732-7.622-1.862v-1.176c0-.066.163-.164.26-.196.391-.131.815-.196 1.206-.327.651-.261 1.14-.686 1.465-1.34.456-1.012.913-2.025 1.401-3.005.228-.425.586-.784.945-1.143.488-.425 1.075-.523 1.661-.294.456.196.912.392 1.303.686a834.363 834.363 0 0 1 8.273 6.827l.163.164c-.749.62-1.53 1.11-2.41 1.437-.065.033-.13 0-.195-.033-.945-.326-1.825-.784-2.476-1.6-.456-.556-.684-1.21-.586-1.928.032-.228 0-.424-.261-.457-.26-.033-.358.163-.39.36-.131 1.143.292 2.09 1.107 2.841.488.425 1.042.784 1.628 1.176-.847.196-1.726.327-2.605.294-.457 0-.88-.098-1.336-.098-.39 0-.651-.196-.88-.522-.488-.719-.944-1.47-1.042-2.352a2.233 2.233 0 0 1 .326-1.503c.13-.196.195-.425-.033-.523-.097-.065-.39.033-.456.164-.52.718-.619 1.568-.358 2.417.293.686.619 1.34.912 1.993zM40.684 48.806c-1.01-.098-2.085-.294-3.062-.882-.554-.36-.586-.686-.098-1.144 1.27-1.176 3.355-1.208 4.724-.032.488.424.912.914 1.335 1.404.456.556.39 1.111-.065 1.666-.619.785-1.498 1.275-2.378 1.666-1.14.49-2.28.948-3.42 1.405-.033.033-.098.033-.13.066-.196.163-.554.326-.587.522-.065.36.359.458.62.556 1.074.392 2.149.75 3.191 1.143.228.065.424.229.587.392.814.882.553 1.927-.62 2.254-.39.13-.781.163-1.204.261-.163.033-.294.164-.424.262.098.13.163.326.26.424.326.294.75.556 1.043.882.521.588.521 1.144-.033 1.699a9.423 9.423 0 0 1-1.53 1.241.77.77 0 0 1-1.108-.294c-.228-.359-.13-.882.26-1.078.163-.098.424-.065.652-.098.163-.032.326-.098.489-.13-.066-.164-.098-.425-.228-.523-.587-.457-1.206-.85-1.76-1.34-.488-.424-.683-.98-.423-1.6.26-.588.782-.784 1.336-.947.195-.066.39-.033.553-.131.13-.065.294-.196.326-.327.033-.098-.13-.261-.26-.326-.587-.262-1.173-.49-1.727-.784-.488-.262-.977-.621-1.433-.98-.554-.49-.293-1.405.098-1.797.619-.62 1.4-.915 2.15-1.241 1.107-.49 2.247-.948 3.355-1.47.195-.099.488-.164.39-.458-.097-.294-.358-.261-.618-.261 0 .032-.066 0-.261 0zM29.12 48.806c-.162 0-.325-.033-.488 0-.13.033-.293.13-.293.229-.033.13.065.326.163.359.423.261.88.49 1.335.686 1.108.49 2.248.915 3.323 1.404.456.23.912.556 1.205.948.489.62.358 1.437-.326 1.895-.586.392-1.237.686-1.856 1.012-.293.164-.62.262-.912.425-.13.098-.228.261-.359.392.163.098.294.261.456.327.391.163.815.196 1.173.424.782.458.977 1.307.358 1.993-.39.457-.88.784-1.368 1.143-.163.131-.39.262-.554.392-.195.131-.358.327-.228.523.066.098.326.163.489.13.652-.065 1.075.295.977.915-.065.49-.651.85-1.107.621-.717-.36-1.368-.85-1.824-1.535-.359-.523-.261-1.078.228-1.601.293-.294.651-.49.944-.751.13-.098.196-.294.26-.458-.13-.065-.292-.196-.455-.228-.358-.098-.717-.131-1.075-.229-.75-.196-1.14-.653-1.173-1.176-.032-.588.456-1.274 1.108-1.535.716-.262 1.466-.49 2.182-.752.391-.13.782-.261 1.14-.424.196-.098.326-.327.489-.49-.163-.164-.293-.36-.489-.458-.684-.327-1.4-.555-2.117-.882-.814-.36-1.629-.653-2.378-1.078a6.909 6.909 0 0 1-1.53-1.241c-.522-.523-.49-1.078-.066-1.666.684-.882 1.4-1.732 2.508-2.058 1.303-.392 2.476-.229 3.518.718.489.458.456.784-.13 1.144-.945.62-2.02.816-3.127.882z" fill="#fff"/>
        <path d="M187.752 70.268c.847.098 1.629.228 2.411.294.13 0 .26-.033.358-.098 1.108-.425 2.117-.196 3.062.49.228.163.358.392.163.653-.196.294-.456.196-.684.033-.456-.36-.977-.555-1.466-.523.195.457.489.882.619 1.372.13.523-.098 1.013-.489 1.405-.488.457-1.27.457-1.856.033-.75-.523-.88-1.536-.326-2.614-.521-.196-1.043-.196-1.596-.065-.065.032-.163.196-.163.294-.196 3.822-1.955 6.827-4.854 9.245-.358.294-.553.62-.586 1.078-.098 1.045-.195 2.123-.293 3.169-.098 1.11-.814 1.796-1.922 1.829-.944.033-1.922 0-2.866 0-1.043 0-1.629-.523-1.857-1.535-.163-.687-.489-.948-1.205-.85a19.641 19.641 0 0 1-5.179 0c-.847-.098-1.14.098-1.336.948-.195.816-.782 1.372-1.629 1.404a52.99 52.99 0 0 1-3.224 0c-1.01-.032-1.661-.751-1.759-1.764-.098-1.143-.196-2.287-.359-3.43a1.455 1.455 0 0 0-.456-.85c-1.009-.881-1.954-1.829-2.703-2.94-.228-.326-.521-.49-.945-.457-.651.033-1.335.033-1.987 0-.977 0-1.694-.653-1.856-1.6-.228-1.503-.424-3.006-.652-4.508-.163-1.111.358-1.895 1.466-2.19.521-.13 1.01-.293 1.531-.424a.99.99 0 0 0 .749-.719 12.524 12.524 0 0 1 2.345-4.41c.294-.359.326-.751.131-1.208-.489-1.144-.945-2.32-1.434-3.463-.26-.62-.097-.85.554-.85 1.857 0 3.551.588 5.147 1.503.26.13.456.164.716.033 6.189-2.81 12.28-2.646 18.144.947 3.127 1.928 5.244 4.672 6.058 8.33.098.523.163 1.013.228 1.438zM157.85 58.965c.423 1.045.814 2.058 1.238 3.038.326.784.26 1.503-.293 2.189a11.972 11.972 0 0 0-2.15 4.018c-.196.719-.684 1.143-1.401 1.34-.554.163-1.107.293-1.661.457-.489.163-.782.555-.684 1.078.195 1.502.423 3.038.651 4.54.098.654.424.915 1.075.915h1.857c.717-.033 1.27.261 1.694.85.716 1.045 1.596 1.96 2.573 2.776.489.425.717.947.782 1.568.098 1.11.228 2.222.326 3.332.065.62.423.947 1.042.947h2.899c.586 0 .879-.26.977-.849.228-1.11 1.042-1.666 2.15-1.502 1.726.228 3.42.228 5.147 0 1.042-.131 1.856.457 2.052 1.502.097.555.391.85.944.85h2.997c.586 0 .945-.327 1.01-.915.13-1.11.228-2.222.326-3.332.065-.62.293-1.11.781-1.536.619-.555 1.238-1.11 1.792-1.698 3.746-4.182 3.843-10.16.228-14.44-3.16-3.756-7.362-5.357-12.15-5.553-3.062-.13-5.994.523-8.762 1.96-.293.164-.521.13-.815-.032a15.7 15.7 0 0 0-1.987-.948c-.781-.326-1.661-.555-2.638-.555zm32.606 12.642c-.424.425-.554.915-.326 1.34.163.326.424.522.782.457.358-.065.456-.392.456-.719 0-.62-.456-.85-.912-1.078zM171.628 44.95c3.095 0 5.636 2.548 5.603 5.619a5.575 5.575 0 0 1-5.603 5.553 5.555 5.555 0 0 1-5.57-5.586c-.032-3.07 2.476-5.586 5.57-5.586zm-4.723 5.619c0 2.613 2.15 4.77 4.756 4.737 2.573-.033 4.723-2.156 4.723-4.737 0-2.613-2.117-4.77-4.723-4.77-2.638 0-4.756 2.157-4.756 4.77z" fill="#000"/>
        <path d="M157.85 58.965c.977 0 1.857.261 2.704.588.684.261 1.335.62 1.987.947.293.164.521.164.814.033a17.01 17.01 0 0 1 8.762-1.96c4.788.196 8.99 1.797 12.15 5.553 3.616 4.28 3.518 10.258-.228 14.44-.554.62-1.173 1.175-1.792 1.698-.456.425-.716.882-.781 1.535-.098 1.111-.228 2.222-.326 3.333-.065.588-.424.914-1.01.914h-2.997c-.553 0-.847-.294-.944-.849-.196-1.045-1.01-1.666-2.052-1.503a19.4 19.4 0 0 1-5.147 0c-1.107-.163-1.922.425-2.15 1.503-.13.588-.391.85-.977.85h-2.899c-.651 0-.977-.327-1.042-.948-.131-1.11-.228-2.221-.326-3.332-.065-.62-.261-1.176-.782-1.568-.977-.817-1.857-1.731-2.573-2.777-.424-.588-.977-.882-1.694-.85-.619.033-1.238.033-1.857 0-.651 0-.977-.26-1.075-.914a214.731 214.731 0 0 1-.651-4.54c-.065-.523.195-.948.684-1.079.554-.163 1.107-.294 1.661-.457.717-.196 1.173-.653 1.401-1.34.423-1.502 1.173-2.809 2.15-4.018.553-.686.619-1.372.293-2.188-.489-1.013-.88-2.026-1.303-3.071zm13.974 1.405c-.912.13-1.824.196-2.736.392-.652.13-1.303.392-1.922.62-.326.098-.424.36-.293.686.13.262.358.327.619.196.097-.032.163-.065.26-.098 2.736-1.012 5.44-1.012 8.176.033.489.196.782.13.88-.163.13-.458-.196-.588-.522-.719-.032-.033-.097-.033-.13-.033-1.4-.555-2.834-.816-4.332-.914zM190.456 71.606c.456.23.912.458.912 1.079 0 .326-.13.653-.456.718-.358.066-.619-.13-.782-.457-.228-.425-.098-.915.326-1.34zM166.906 50.57c0-2.614 2.117-4.77 4.723-4.77 2.605 0 4.723 2.156 4.723 4.77 0 2.58-2.15 4.736-4.723 4.736-2.574.033-4.723-2.123-4.723-4.737zm4.267 2.743c0 .098.032.196.032.294 0 .294.065.588.424.588.358 0 .456-.261.456-.555 0-.261.065-.36.325-.425.782-.261 1.206-.98 1.075-1.764-.13-.751-.749-1.274-1.531-1.306-.195 0-.423.032-.619 0-.39-.066-.618-.294-.618-.686-.033-.36.26-.687.651-.72.261-.032.521 0 .782-.032.293 0 .488.033.521.392 0 .13.293.36.456.36.13 0 .358-.262.391-.425.098-.49-.196-.947-.652-1.11-.228-.066-.456-.099-.684-.132-.097-.326.098-.849-.456-.849-.586 0-.423.523-.488.882l-.293.098c-.717.261-1.14.947-1.075 1.634.097.784.619 1.339 1.4 1.437.228.033.456 0 .717.033.456.032.717.326.717.75 0 .393-.294.654-.717.687h-.847c-.228 0-.358-.065-.358-.327 0-.326-.196-.522-.521-.457-.326.065-.391.327-.359.62-.065.621.359.948 1.271 1.013z" fill="#fff"/>
        <path d="M171.824 60.37c1.498.065 2.931.358 4.332.881.033 0 .098.033.13.033.326.13.652.294.522.718-.098.294-.391.36-.88.164-2.736-1.045-5.44-1.045-8.176-.033-.098.033-.163.066-.26.098-.261.098-.522.066-.619-.196-.131-.294-.033-.555.293-.686.651-.228 1.27-.49 1.922-.62.912-.131 1.824-.23 2.736-.36zM171.173 53.313c-.912-.065-1.303-.392-1.368-1.078-.033-.294.032-.555.358-.62.326-.066.488.13.521.457 0 .261.13.327.358.327h.847c.424-.033.717-.294.717-.686 0-.425-.261-.719-.717-.752-.228-.032-.456 0-.716-.032-.75-.098-1.303-.654-1.401-1.438-.065-.686.358-1.372 1.075-1.633l.293-.098c.065-.36-.098-.882.489-.882.553 0 .358.523.456.85.228.032.488.065.684.13.456.163.749.62.651 1.11-.032.164-.228.425-.391.425s-.423-.196-.456-.359c-.032-.392-.228-.425-.521-.392-.261 0-.521 0-.782.033a.711.711 0 0 0-.651.718c.032.392.26.621.619.686.195.033.423 0 .619 0 .781.033 1.433.588 1.531 1.307.13.784-.294 1.503-1.075 1.764-.228.065-.326.163-.326.425.033.294-.065.588-.456.555-.358 0-.424-.294-.424-.588.066-.033.066-.098.066-.229z" fill="#000"/>
    </g>
    <defs>
        <clipPath id="jntm0ko3la">
            <path fill="#fff" d="M0 0h200v139H0z"/>
        </clipPath>
    </defs>
</svg>
