<svg width="56" height="56" viewBox="0 0 56 56" fill="none" xmlns="http://www.w3.org/2000/svg">
<ellipse cx="27.5721" cy="28" rx="27.5721" ry="28" fill="#59AACA"/>
<path fill-rule="evenodd" clip-rule="evenodd" d="M16.0068 14.5698C14.35 14.5698 13.0068 15.913 13.0068 17.5698V18.5685H32.4757V17.5698C32.4757 15.913 31.1326 14.5698 29.4757 14.5698H16.0068ZM15.8818 15.4579C14.7773 15.4579 13.8818 16.3533 13.8818 17.4579V18.568H31.6007V17.4579C31.6007 16.3533 30.7053 15.4579 29.6007 15.4579H15.8818Z" fill="#663300"/>
<rect x="9.06738" y="38.5652" width="3.71878" height="3.99864" rx="1" fill="#663300"/>
<rect x="32.6953" y="38.5652" width="3.71878" height="3.99864" rx="1" fill="#663300"/>
<rect x="5.13086" y="18.5706" width="35.0003" height="21.9925" rx="3" fill="white"/>
<rect x="20.6602" y="23.9037" width="3.93753" height="11.5516" fill="#B30000"/>
<rect x="28.3184" y="27.6797" width="3.99864" height="11.3751" transform="rotate(90 28.3184 27.6797)" fill="#B30000"/>
<path d="M39.1307 46.6123H54.2387C54.3229 46.0477 54.3219 45.4736 54.2357 44.9093H39.1277C39.0437 45.4739 39.0447 46.048 39.1307 46.6123Z" fill="#FFCA55"/>
<g style="mix-blend-mode:multiply" opacity="0.5">
<path d="M46.3314 46.6123H47.0367L47.04 44.9093H46.3352L46.3314 46.6123ZM44.2532 46.6123H44.9584L44.9618 44.9093H44.2569L44.2532 46.6123ZM42.1753 46.6123H42.8802L42.8839 44.9093H42.1787L42.1753 46.6123ZM40.0967 46.6123H40.8019L40.8053 44.9093H40.1001L40.0967 46.6123ZM48.4097 46.6123H49.1149L49.1186 44.9093H48.413L48.4097 46.6123ZM52.5691 44.9093L52.5654 46.6123H53.2706L53.274 44.9093H52.5691ZM50.4875 46.6123H51.192L51.1954 44.9093H50.4913L50.4875 46.6123Z" fill="#FFBF40"/>
</g>
<path d="M39.4315 41.5031H54.5395C54.6237 40.9384 54.6227 40.3642 54.5365 39.7998H39.4285C39.3444 40.3645 39.3455 40.9387 39.4315 41.5031Z" fill="#FFCA55"/>
<g style="mix-blend-mode:multiply" opacity="0.5">
<path d="M46.6289 41.5031H47.3341L47.3375 39.7998H46.6323L46.6289 41.5031ZM44.5506 41.5031H45.2559L45.2593 39.7998H44.5544L44.5506 41.5031ZM42.4728 41.5031H43.1776L43.1814 39.7998H42.4761L42.4728 41.5031ZM40.3945 41.5031H41.0998L41.1031 39.7998H40.3987L40.3945 41.5031ZM48.7071 41.5031H49.4124L49.4157 39.7998H48.7109L48.7071 41.5031ZM52.8666 39.7998L52.8633 41.5031H53.5685L53.5719 39.7998H52.8666ZM50.785 41.5031H51.4906L51.494 39.7998H50.7891L50.785 41.5031Z" fill="#FFBF40"/>
</g>
<path d="M39.4315 36.3962H54.5394C54.6237 35.8316 54.6227 35.2575 54.5364 34.6932H39.4285C39.3444 35.2578 39.3455 35.8319 39.4315 36.3962Z" fill="#FFCA55"/>
<g style="mix-blend-mode:multiply" opacity="0.5">
<path d="M46.6289 36.3962H47.3341L47.3375 34.6932H46.6323L46.6289 36.3962ZM44.5506 36.3962H45.2559L45.2593 34.6932H44.5544L44.5506 36.3962ZM42.4728 36.3962H43.1776L43.1814 34.6932H42.4761L42.4728 36.3962ZM40.3945 36.3962H41.0998L41.1031 34.6932H40.3987L40.3945 36.3962ZM48.7071 36.3962H49.4124L49.4157 34.6932H48.7109L48.7071 36.3962ZM52.8666 34.6932L52.8633 36.3962H53.5685L53.5719 34.6932H52.8666ZM50.785 36.3962H51.4906L51.494 34.6932H50.7891L50.785 36.3962Z" fill="#FFBF40"/>
</g>
<path d="M38.9649 43.2086H54.0743C54.1583 42.644 54.1571 42.0699 54.0709 41.5056H38.9619C38.8776 42.0702 38.8786 42.6443 38.9649 43.2086Z" fill="#FFB839"/>
<g style="mix-blend-mode:multiply" opacity="0.5">
<path d="M46.1648 43.2086H46.8697L46.8734 41.5056H46.1693L46.1648 43.2086ZM44.0866 43.2086H44.7914L44.7952 41.5056H44.0899L44.0866 43.2086ZM42.0083 43.2086H42.7132L42.7169 41.5056H42.0117L42.0083 43.2086ZM39.9297 43.2086H40.6353L40.6387 41.5056H39.9334L39.9297 43.2086ZM48.2431 43.2086H48.9479L48.9517 41.5056H48.2464L48.2431 43.2086ZM52.4025 41.5056L52.3992 43.2086H53.104L53.1078 41.5056H52.4025ZM50.3209 43.2086H51.0262L51.0295 41.5056H50.3247L50.3209 43.2086Z" fill="#FFBF40"/>
</g>
<path d="M38.634 38.0996H53.7419C53.8261 37.535 53.825 36.9609 53.7386 36.3966H38.6306C38.5465 36.9612 38.5476 37.5353 38.634 38.0996Z" fill="#FFB839"/>
<g style="mix-blend-mode:multiply" opacity="0.5">
<path d="M45.831 38.0996H46.5363L46.54 36.3966H45.8348L45.831 38.0996ZM43.7532 38.0996H44.458L44.4618 36.3966H43.7565L43.7532 38.0996ZM41.6746 38.0996H42.3798L42.3835 36.3966H41.6783L41.6746 38.0996ZM39.5967 38.0996H40.3019L40.3053 36.3966H39.6001L39.5967 38.0996ZM47.9093 38.0996H48.6145L48.6183 36.3966H47.913L47.9093 38.0996ZM52.0688 36.3966L52.0654 38.0996H52.7706L52.774 36.3966H52.0688ZM49.9872 38.0996H50.6924L50.6962 36.3966H49.9905L49.9872 38.0996Z" fill="#FFBF40"/>
</g>
<path d="M39.662 44.9119H54.7699C54.8542 44.3474 54.8532 43.7733 54.7669 43.209H39.659C39.5749 43.7736 39.5759 44.3477 39.662 44.9119Z" fill="#FFC043"/>
<g style="mix-blend-mode:multiply" opacity="0.5">
<path d="M46.8597 44.9119H47.5646L47.568 43.209H46.8631L46.8597 44.9119ZM44.7811 44.9119H45.4864L45.4897 43.209H44.7849L44.7811 44.9119ZM42.7029 44.9119H43.4081L43.4119 43.209H42.7066L42.7029 44.9119ZM40.625 44.9119H41.3302L41.3336 43.209H40.6284L40.625 44.9119ZM48.9376 44.9119H49.6428L49.6466 43.209H48.941L48.9376 44.9119ZM53.0971 43.209L53.0937 44.9119H53.7986L53.8023 43.209H53.0971ZM51.0155 44.9119H51.7207L51.7241 43.209H51.0192L51.0155 44.9119Z" fill="#FFBF40"/>
</g>
<path d="M40.3438 32.9901H55.4517C55.5359 32.4255 55.5348 31.8514 55.4484 31.2871H40.3404C40.2565 31.8517 40.2576 32.4258 40.3438 32.9901Z" fill="#FFB839"/>
<g style="mix-blend-mode:multiply" opacity="0.5">
<path d="M47.541 32.9901H48.2463L48.25 31.2871H47.5448L47.541 32.9901ZM45.4631 32.9901H46.1673L46.1706 31.2871H45.4665L45.4631 32.9901ZM43.3849 32.9901H44.0898L44.0935 31.2871H43.3883L43.3849 32.9901ZM41.3066 32.9901H42.0119L42.0156 31.2871H41.3104L41.3066 32.9901ZM49.6196 32.9901H50.3245L50.3283 31.2871H49.623L49.6196 32.9901ZM53.7791 31.2871L53.7758 32.9901H54.481L54.4844 31.2871H53.7791ZM51.6979 32.9901H52.4028L52.4065 31.2871H51.7013L51.6979 32.9901Z" fill="#FFBF40"/>
</g>
<path d="M38.9796 34.693H54.0875C54.1715 34.1283 54.1703 33.5543 54.0841 32.99H38.9762C38.8922 33.5546 38.8934 34.1287 38.9796 34.693Z" fill="#FFC043"/>
<g style="mix-blend-mode:multiply" opacity="0.5">
<path d="M46.1797 34.693H46.8849L46.8883 32.99H46.1834L46.1797 34.693ZM44.1014 34.693H44.8067L44.8104 32.99H44.1052L44.1014 34.693ZM42.0232 34.693H42.7288L42.7322 32.99H42.0269L42.0232 34.693ZM39.9453 34.693H40.6506L40.6543 32.99H39.9487L39.9453 34.693ZM48.2579 34.693H48.9632L48.9665 32.99H48.2613L48.2579 34.693ZM52.4174 32.99L52.4137 34.693H53.1189L53.1223 32.99H52.4174ZM50.3354 34.693H51.0407L51.0444 32.99H50.3388L50.3354 34.693Z" fill="#FFBF40"/>
</g>
<path d="M40.3438 39.8021H55.4517C55.5359 39.2376 55.5348 38.6636 55.4484 38.0995H40.3405C40.2565 38.664 40.2576 39.2379 40.3438 39.8021Z" fill="#FFC043"/>
<g style="mix-blend-mode:multiply" opacity="0.5">
<path d="M47.541 39.8021H48.2462L48.25 38.0995H47.5447L47.541 39.8021ZM45.4631 39.8021H46.1672L46.1706 38.0995H45.4665L45.4631 39.8021ZM43.3849 39.8021H44.0898L44.0935 38.0995H43.3883L43.3849 39.8021ZM41.3066 39.8021H42.0119L42.0156 38.0995H41.3104L41.3066 39.8021ZM49.6196 39.8021H50.3245L50.3282 38.0995H49.623L49.6196 39.8021ZM53.7791 38.0995L53.7742 39.8021H54.4795L54.4828 38.0995H53.7791ZM51.6979 39.8021H52.4027L52.4065 38.0995H51.7012L51.6979 39.8021Z" fill="#FFBF40"/>
</g>
<path style="mix-blend-mode:color-burn" opacity="0.5" d="M53.7419 38.099C53.8261 37.5344 53.8249 36.9602 53.7386 36.396H54.5386C54.6228 35.8314 54.6219 35.2573 54.536 34.693H54.09C54.1739 34.1284 54.1729 33.5544 54.0871 32.9901H55.4533C55.5375 32.4255 55.5363 31.8514 55.4499 31.2871H51.9204C52.0066 31.8514 52.0076 32.4255 51.9234 32.9901H50.5571C50.6434 33.5543 50.6444 34.1285 50.5601 34.693H51.006C51.0919 35.2573 51.0929 35.8314 51.009 36.396H50.209C50.295 36.9603 50.2961 37.5344 50.212 38.099H51.9204C52.0066 38.6631 52.0076 39.2371 51.9234 39.8015H51.006C51.0919 40.366 51.0929 40.9401 51.009 41.5049H50.5417C50.6277 42.0692 50.6289 42.6432 50.5451 43.2078H51.238C51.3239 43.7721 51.3249 44.3462 51.241 44.9108H50.707C50.7934 45.4751 50.7945 46.0492 50.7104 46.6138H54.2403C54.3243 46.0492 54.3231 45.4751 54.2369 44.9108H54.7706C54.8548 44.3462 54.8538 43.7721 54.7676 43.2078H54.0762C54.1603 42.6432 54.1592 42.0691 54.0728 41.5049H54.5401C54.6243 40.9402 54.6234 40.366 54.5375 39.8015H55.4548C55.539 39.2371 55.5378 38.6631 55.4514 38.099H53.7419Z" fill="url(#paint0_linear_5177_6731)"/>
<path d="M55.631 23.3864C55.8343 19.1671 52.5924 15.5812 48.3901 15.3771C44.1878 15.1729 40.6164 18.4278 40.4131 22.6471C40.2097 26.8664 43.4516 30.4524 47.6539 30.6565C51.8562 30.8607 55.4277 27.6057 55.631 23.3864Z" fill="#FFB839"/>
<path style="mix-blend-mode:color-burn" opacity="0.5" d="M48.0216 15.3676C47.5009 15.3672 46.9816 15.4203 46.4717 15.526C49.936 16.245 52.5423 19.3262 52.5423 23.0166C52.5423 26.707 49.936 29.7863 46.4717 30.5068C46.9815 30.6125 47.5007 30.6655 48.0212 30.6652C52.2283 30.6652 55.639 27.2413 55.639 23.0166C55.639 18.7919 52.2286 15.3676 48.0216 15.3676Z" fill="url(#paint1_linear_5177_6731)"/>
<g style="mix-blend-mode:multiply" opacity="0.5">
<path d="M54.2536 22.2735L55.5738 22.0398C55.5438 21.8035 55.5033 21.571 55.4523 21.3422L54.1318 21.5759C54.1855 21.8059 54.2262 22.0388 54.2536 22.2735ZM42.8592 17.393L43.7211 18.4247C43.8923 18.2625 44.0724 18.1101 44.2607 17.9683L43.3988 16.9377C43.2125 17.0814 43.0326 17.2332 42.8592 17.393ZM41.2543 19.5042L42.4159 20.1773C42.5221 19.9664 42.64 19.7617 42.7689 19.564L41.6072 18.8913C41.4808 19.0897 41.3632 19.294 41.2543 19.5042ZM47.6696 15.3766V16.7236C47.7861 16.7172 47.9038 16.7134 48.0222 16.7134C48.1406 16.7134 48.2579 16.7172 48.3745 16.7236V15.3766C48.2576 15.3709 48.1403 15.3676 48.0222 15.3676C47.9042 15.3676 47.7846 15.3721 47.6696 15.3766ZM45.0877 15.9564L45.5464 17.2221C45.7626 17.1289 45.9839 17.0481 46.2093 16.9802L45.7484 15.7152C45.5228 15.7857 45.3019 15.8665 45.0859 15.9575L45.0877 15.9564ZM50.9564 15.9564C50.7388 15.8664 50.5175 15.786 50.2927 15.7152L49.8337 16.9817C50.0589 17.0497 50.2801 17.1305 50.4962 17.2237L50.9564 15.9564ZM41.9104 21.5748L40.5872 21.3422C40.5373 21.571 40.4968 21.8035 40.4658 22.0398L41.7864 22.2735C41.8139 22.0388 41.8547 21.8059 41.9085 21.5759L41.9104 21.5748ZM53.183 17.3918C53.0099 17.2316 52.8297 17.0798 52.6426 16.9366L51.7808 17.9671C51.9684 18.1092 52.148 18.2619 52.3185 18.4243L53.183 17.3918ZM54.788 19.5031C54.6795 19.2928 54.5619 19.0885 54.435 18.8901L53.2733 19.5629C53.4021 19.7606 53.5198 19.9653 53.6259 20.1762L54.788 19.5031ZM53.2741 26.4699L54.4357 27.1427C54.5624 26.9445 54.68 26.7402 54.7887 26.5298L53.627 25.8566C53.5204 26.068 53.4019 26.2731 53.2722 26.4711L53.2741 26.4699ZM51.7815 28.066L52.6434 29.0962C52.8302 28.953 53.0104 28.8014 53.1837 28.6413L52.3219 27.6092C52.1498 27.772 51.9688 27.9248 51.7796 28.0672L51.7815 28.066ZM54.1337 24.4581L55.4542 24.6917C55.5042 24.4629 55.5447 24.2305 55.5756 23.9945L54.2555 23.7605C54.2275 23.9955 54.1862 24.2288 54.1318 24.4592L54.1337 24.4581ZM49.8333 29.0541L50.2927 30.3202C50.5175 30.2495 50.7384 30.1686 50.9552 30.0775L50.4966 28.8122C50.2801 28.905 50.0587 28.9858 49.8333 29.0541ZM41.7864 23.7616L40.4662 23.9952C40.4962 24.2315 40.5366 24.4641 40.5876 24.6928L41.9082 24.4592C41.8545 24.2291 41.8138 23.9962 41.7864 23.7616ZM42.8588 28.6421C43.032 28.8021 43.2121 28.9539 43.3992 29.0974L44.2611 28.0672C44.0731 27.925 43.893 27.7725 43.7218 27.6104L42.8588 28.6421ZM41.2539 26.5309C41.3625 26.7411 41.4803 26.9454 41.6072 27.1438L42.7689 26.4711C42.6398 26.2735 42.522 26.0687 42.4159 25.8577L41.2539 26.5309ZM45.084 30.0775C45.3001 30.1683 45.521 30.2492 45.7469 30.3202L46.2082 29.0537C45.9828 28.9859 45.7614 28.9051 45.5453 28.8118L45.084 30.0775ZM47.6696 29.3115V30.6577C47.7865 30.663 47.9038 30.6664 48.0222 30.6664C48.1406 30.6664 48.2576 30.663 48.3745 30.6577V29.3115C48.2579 29.3179 48.1406 29.322 48.0222 29.322C47.9038 29.322 47.7843 29.3179 47.6696 29.3115Z" fill="#FFBF40"/>
</g>
<g style="mix-blend-mode:color-burn">
<path d="M50.6758 24.7136C50.6758 24.1771 50.5246 23.7297 50.222 23.3715C49.9195 23.0133 49.3628 22.6465 48.5519 22.2713C48.5106 22.2529 48.4544 22.2265 48.384 22.1926C47.4571 21.7662 46.9939 21.3048 46.9941 20.8084C46.9941 20.4933 47.0998 20.2425 47.3111 20.0559C47.5225 19.8692 47.8073 19.7754 48.1655 19.7744C48.4027 19.7699 48.6363 19.8322 48.84 19.9543C49.0364 20.0742 49.2168 20.2636 49.3811 20.5224L50.4233 19.9825C50.2744 19.5528 49.973 19.1932 49.5768 18.9726C49.3092 18.8183 48.9824 18.734 48.6283 18.6806V17.7091H47.4104V18.6874C46.9664 18.7773 46.586 18.9575 46.2735 19.242C45.8198 19.6589 45.5929 20.203 45.5926 20.8742C45.5926 21.392 45.7425 21.8299 46.0423 22.1881C46.3421 22.5463 46.9451 22.9472 47.8515 23.3907C47.9111 23.417 47.9973 23.4584 48.1093 23.5148C48.9087 23.8936 49.3084 24.3248 49.3084 24.8084C49.3084 25.1802 49.1918 25.4767 48.9584 25.6979C48.7251 25.9192 48.4103 26.0298 48.0141 26.0298C47.5952 26.0298 47.2514 25.9332 46.9829 25.7401C46.7143 25.5469 46.5293 25.2666 46.4279 24.8991L45.3633 25.3943C45.5017 25.994 45.7941 26.4553 46.2405 26.7782C46.5635 27.0118 46.9555 27.1578 47.4108 27.2225V28.3238H48.6287V27.1999C49.1533 27.1063 49.5932 26.8989 49.9402 26.5735C50.4304 26.1134 50.6756 25.4935 50.6758 24.7136Z" fill="#FFB41D"/>
</g>
<defs>
<linearGradient id="paint0_linear_5177_6731" x1="9061.24" y1="16613.4" x2="9061.24" y2="31838.5" gradientUnits="userSpaceOnUse">
<stop stop-color="white"/>
<stop offset="1" stop-color="#B7B7B7"/>
</linearGradient>
<linearGradient id="paint1_linear_5177_6731" x1="14616.4" y1="2145.27" x2="14616.4" y2="13402.8" gradientUnits="userSpaceOnUse">
<stop stop-color="white"/>
<stop offset="1" stop-color="#B7B7B7"/>
</linearGradient>
</defs>
</svg>
