<svg width="68" height="68" viewBox="0 0 68 68" fill="none" xmlns="http://www.w3.org/2000/svg">
<g filter="url(#filter0_d_352_7851)">
<circle cx="32" cy="32" r="24" fill="white"/>
</g>
<path d="M29 38.5H35M27 35H37M25 22H39C40.1046 22 41 22.9949 41 24.2222V39.7778C41 41.0051 40.1046 42 39 42H25C23.8954 42 23 41.0051 23 39.7778V24.2222C23 22.9949 23.8954 22 25 22ZM31.9976 26.2119C31.2978 25.4328 30.1309 25.2232 29.2541 25.9367C28.3774 26.6501 28.2539 27.843 28.9425 28.6868C29.631 29.5306 31.9976 31.5 31.9976 31.5C31.9976 31.5 34.3642 29.5306 35.0527 28.6868C35.7413 27.843 35.6329 26.6426 34.7411 25.9367C33.8492 25.2307 32.6974 25.4328 31.9976 26.2119Z" stroke="#D75426" stroke-width="2" stroke-linecap="round" stroke-linejoin="round"/>
<defs>
<filter id="filter0_d_352_7851" x="0" y="0" width="68" height="68" filterUnits="userSpaceOnUse" color-interpolation-filters="sRGB">
<feFlood flood-opacity="0" result="BackgroundImageFix"/>
<feColorMatrix in="SourceAlpha" type="matrix" values="0 0 0 0 0 0 0 0 0 0 0 0 0 0 0 0 0 0 127 0" result="hardAlpha"/>
<feOffset dx="2" dy="2"/>
<feGaussianBlur stdDeviation="5"/>
<feComposite in2="hardAlpha" operator="out"/>
<feColorMatrix type="matrix" values="0 0 0 0 0 0 0 0 0 0 0 0 0 0 0 0 0 0 0.1 0"/>
<feBlend mode="normal" in2="BackgroundImageFix" result="effect1_dropShadow_352_7851"/>
<feBlend mode="normal" in="SourceGraphic" in2="effect1_dropShadow_352_7851" result="shape"/>
</filter>
</defs>
</svg>
