<svg width="360" height="1157" viewBox="0 0 360 1157" fill="none" xmlns="http://www.w3.org/2000/svg">
<rect width="360" height="133" fill="url(#paint0_linear_1460_18728)"/>
<g clip-path="url(#clip0_1460_18728)">
<path d="M395 133H-19V891.631H395V133Z" fill="url(#paint1_linear_1460_18728)"/>
<path d="M88.1016 304.846L142.202 280.939L154.002 285.673L166.802 268.039L172.702 262.831L182.102 268.039L194.402 279.164L203.302 276.796L226.602 293.721L245.202 291.472L275.302 308.988L191.702 352.186L88.1016 304.846Z" fill="#5281A4"/>
<path d="M394.997 355.145L-19 353.5V331.25V276.098L13.1969 287.803L23.3969 285.081L30.4969 287.803L53.7969 279.045L69.9969 294.668L75.0969 291.117L89.7969 303.662L104.497 300.704L125.297 316.918L144.597 312.657L156.697 324.137L161.797 323.545L182.597 339.641L200.797 333.132L207.397 321.06L217.297 314.551L235.797 315.143L245.997 307.923L270.797 300.112L276.897 293.484L281.997 287.803L293.097 292.893L308.297 287.803L323.997 296.443L338.197 291.117H366.097L375.297 300.112L388 288L394.997 287.685" fill="url(#paint2_linear_1460_18728)"/>
<path d="M394.997 383.55L-19 384V362.484V297.367L17.7969 306.149L39.2969 323.546H59.1969L83.5969 318.931L109.697 326.979L137.497 338.34L149.897 343.429L156.197 353.844L164.097 349.11L181.697 354.436L204.897 343.429L217.297 340.352L234.397 324.967L272.997 339.761H282.597L303.597 329.937L316.697 320.233L335.797 329.937H352.997L361.497 320.233L370.497 326.269L394.997 303.427" fill="url(#paint3_linear_1460_18728)"/>
<path d="M403.5 347.506L402.9 349.04H401.4L401.7 351.391L402.7 353.947L401.5 355.583L403 357.321L403.988 354.5L401.688 352.966V351.126L400.788 349.899L400.388 348.57L400.788 346.73L399.488 345.707L398.988 344.276L399.788 343.049L398.288 342.129L398.988 341.72L396.5 339L396 336.5L394.888 340.084L393.588 341.72L392.288 343.049L391.888 344.889L390.788 346.321L391.588 347.752V348.979L390.188 350.001L389.588 351.637L390.188 354.5L386.5 360.286V358.651L385.5 356.401L383.4 355.379L383 357.935L381.9 357.628L381.1 359.06L379.5 359.775L380.5 361.002L379 363.456H369L369.1 362.74V360.695L367.8 360.491L367.9 358.446L368.7 357.321L367.5 355.992L367.6 353.845L366.2 353.232L366.6 352.107H364.1L364.2 350.267L362.4 349.04L361.9 350.164L361.4 353.947L360 354.868L360.5 357.219H358.7L358.4 356.503L359.8 355.788L357.6 354.97L357.5 353.538L358.4 352.414L356.1 351.494L354.4 349.96L353.9 352.107L352.9 355.072L351.2 354.868V357.833L349.6 359.06L349.8 361.002L348.6 362.331L348.8 363.456H345.9L345.6 362.433L346.2 361.002L344.2 360.184L345.2 358.344L344 357.73L343.7 354.05L342.2 352.823L343.2 350.573L341.2 350.778V349.142L341.3 347.404L339.6 346.279L341.1 343.621L339.2 342.599L339.6 340.554L337.7 339.94L338.2 338.304L336.6 336.975L334.5 335.135L333.9 338.816L331.9 339.838L332.8 341.372L331.9 343.11H330.4L331.6 346.075L330.3 345.052L329.4 346.279L328.9 348.835L328.7 352.312L328.4 350.573L326.8 350.471L326.2 348.938L324.7 349.756L323.2 351.289L322.6 352.823H321.1L321.3 355.174L322.3 357.73L321.2 359.366L322.7 361.002L322.6 363.456H321.5L320.2 362.74V360.9L319.3 359.673L318.9 358.344L319.3 356.503L318.1 355.481L317.6 354.05L318.3 352.823L316.8 351.903L317.2 350.573L315.5 349.449L314.3 347.813L313.5 349.858L312.1 351.494L310.9 352.823L310.5 354.663L309.4 356.094L310.1 357.526V358.753L308.7 359.775L308.1 361.411L308.6 363.456H306.1V362.433L305.1 360.184L303 359.162L302.7 361.718L301.5 361.411L300.8 362.842L299.2 363.456H287.5L287.6 362.229L288.3 361.002L287.1 359.775L287.2 357.628L285.9 357.015L286.2 355.788H283.7L283.9 354.05L282 352.823L281.5 353.947L281 357.73L280 358.446L279.5 357.219H277.2L277.6 354.868L276.3 353.947L275.8 350.164L275.3 349.04L273.4 350.267L273.5 352.107H271L271.4 353.232L270 353.845L270.2 355.992L268.9 357.321L269.7 358.446L269.8 360.491L268.6 360.695V362.74L268.7 363.456H258.6L257.1 361.002L258.1 359.775L256.5 359.06L255.7 357.628L254.6 357.935L254.2 355.379L252.1 356.401L251.1 358.651V360.286L248.5 360.491L249.1 357.628L248.5 355.992L247.2 354.97V353.743L247.9 352.312L246.8 350.88L246.4 349.04L245.2 347.711L243.8 346.075L242.9 344.03L241.8 345.666L240.1 346.893L240.4 348.12L238.9 349.04L239.7 350.267L239.2 351.698L238 352.721L238.3 354.561L238 355.89L237 357.117V358.957L234.7 360.491L234.6 357.321L236.1 355.583L235 353.947L236 351.391L236.2 349.04H234.7L234.1 347.506L232.6 345.973L231.1 345.155L230.5 346.688L228.9 346.893L228.6 348.529L228.4 345.052L227.9 342.496L227 341.269L225.6 342.292L226.9 339.327H225.4L224.5 337.589L225.4 336.055L223.4 335.033L222.8 331.352L220.7 333.192L219 334.521L219.5 336.157L217.7 336.771L218 338.816L216.2 339.838L217.7 342.496L215.9 343.621L216.1 345.359V346.995L214.1 346.893L215.1 349.04L213.6 350.267L213.3 353.947L212.1 354.561L213.1 356.401L211.1 357.219L211.7 358.651L210.8 361.513L208.3 360.593L208.7 358.548L207.5 357.219L207.7 355.277L206.1 354.05V351.085L204.4 351.289L203.4 348.426L202.9 346.177L201.1 347.711L198.9 348.631L199.8 349.756L199.6 351.187L197.5 352.107L198.9 352.721L198.3 354.254L196.2 355.072L198.5 357.219L198.1 359.775H196L196.4 360.798V362.842L193.7 363.047L194.2 363.456H182.3L181.8 362.331L183.2 361.718L181.1 360.798L181 359.366L181.8 358.242L179.6 357.321L177.9 355.788L177.4 357.935L176.4 360.9L174.6 360.695V363.456H174.4L173.1 361.002H170.8L171.3 358.957L169.9 358.242L169.4 354.97L168.9 353.947L167 355.072L167.2 356.606H166.6L166.7 356.503L164.7 356.606V354.97L164.8 353.232L163.1 352.107L164.6 349.449L162.7 348.426L163.1 346.382L161.2 345.768L161.7 344.132L160.1 342.803L158 340.963L157.3 344.643L155.3 345.666L156.2 347.199L155.3 348.938H153.9L155.1 351.903L153.7 350.88L152.9 352.107L152.4 354.663L152.1 358.139L151.9 356.503L150.2 356.299L149.6 354.765L148.1 355.583L146.6 357.117L146 358.651H144.5L144.8 361.002L145 361.718L144.8 362.229V363.456H142.5L142.8 362.331L142.6 362.127L142.8 361.411L142.2 359.98L141.3 359.468L141.8 358.651L140.8 358.037L141.5 356.81L140.4 355.583L140 353.947L138.8 352.925L137.4 351.494L136.6 349.756L135.4 351.187L133.7 352.107L134.1 353.232L132.6 353.947L133.3 355.072L132.8 356.299L131.6 357.117L132 358.753L131.6 359.877L130.7 360.9V362.433L128.8 363.456H128.3L128.2 361.002L129.7 359.673L128.6 358.242L129.6 355.992L129.8 353.947H128.4L127.7 352.721L126.2 351.391L124.7 350.676L124.1 352.005L122.5 352.107L122.3 353.538L122 350.573L121.5 348.426L120.6 347.302L119.3 348.222L120.5 345.768H119L118.2 344.234L119 342.905L117 341.985L116.4 338.918L114.3 340.554L112.7 341.576L113.2 343.008L111.3 343.519L111.7 345.257L109.8 346.177L111.3 348.426L109.6 349.449L109.7 350.778V352.209L107.7 352.107L108.7 353.947L107.2 355.072L107 358.242L105.7 358.753L105.8 358.855L105.5 358.651L105 359.775L104.8 360.9L104.7 361.002L104.8 361.104L104.5 363.456H102.1L102.4 362.127L101.1 361.002L101.4 359.264L99.7002 358.344V355.686L98.0002 355.89L97.0002 353.436L96.5002 351.596L94.8002 352.925L92.5002 353.641L93.4002 354.663L93.3002 355.788L91.2002 356.606L92.5002 357.117L91.9002 358.446L89.8002 359.162L92.2002 361.002L91.8002 363.149H89.7002L89.8002 363.456H82.1002L81.4002 362.842L83.1002 361.513L80.3002 361.309V359.366L80.7002 358.242H78.6002L78.2002 355.686L80.6002 353.641L78.5002 352.721L77.8002 351.187L79.2002 350.573L77.1002 349.653L77.0002 348.222L77.8002 347.097L75.6002 346.177L73.9002 344.643L73.4002 346.893L72.4002 349.756L70.6002 349.551V352.618L69.0002 353.743L69.2002 355.686L68.0002 357.015L68.4002 359.06L65.9002 359.98L65.0002 357.117L65.6002 355.686L63.6002 354.868L64.6002 353.129L63.4002 352.414L63.2002 348.733L61.7002 347.506L62.7002 345.359L60.7002 345.461V343.825L60.8002 342.19L59.0002 340.963L60.5002 338.304L58.7002 337.282L59.0002 335.237L57.2002 334.624L57.7002 332.988L56.1002 331.761L53.9002 329.818L53.3002 333.499L51.3002 334.521L52.2002 336.055L51.3002 337.793H49.8002L51.1002 340.758L49.7002 339.736L48.8002 340.963L48.3002 343.519L48.1002 346.995L47.9002 345.359L46.2002 345.155L45.6002 343.621L44.1002 344.439L42.6002 345.973L42.0002 347.506H40.5002L40.8002 349.858L41.8002 352.414L40.6002 354.05L42.1002 355.788L42.0002 358.957L39.7002 357.424V355.583L38.8002 354.356L38.4002 353.129L38.8002 351.187L37.5002 350.164L37.0002 348.733L37.8002 347.506L36.3002 346.586L36.7002 345.359L34.9002 344.132L33.8002 342.496L32.9002 344.541L31.6002 346.177L30.3002 347.506L29.9002 349.347L28.8002 350.778L29.6002 352.209V353.436L28.2002 354.459L27.6002 356.094L28.2002 358.957L25.6002 358.855V357.117L24.6002 354.868L22.5002 353.845L22.1002 356.401L21.0002 356.094L20.2002 357.526L18.6002 358.242L19.6002 359.468L18.8002 360.9L18.6002 358.242L19.1002 354.868L16.6002 352.107L17.1002 350.062L15.1002 349.449L12.8002 345.359L11.1002 348.835L11.3002 350.778L9.90023 352.107L10.5002 353.743L7.80023 355.788L6.60023 354.459L6.70023 352.312L5.30023 351.698L5.70023 350.573H3.20023L3.30023 348.733L1.50023 347.506L1.00023 348.631L0.500232 352.414L-0.899768 353.334V353.436L-2.79977 352.516L-4.09977 348.631L-6.39977 345.359L-5.09977 343.212L-10 337.895V366.421V1834H401.7L404 346.893L403.5 347.506Z" fill="url(#paint4_linear_1460_18728)"/>
</g>
<circle cx="239" cy="32" r="25" fill="#FFD84E"/>
<path fill-rule="evenodd" clip-rule="evenodd" d="M341.9 32.9282C341.7 32.9282 341.5 32.8098 341.3 32.8098C340.9 32.5731 340.2 32.5731 339.4 32.6915C337.5 32.6915 335.7 33.1649 334.2 34.3484C333.4 34.9402 332.2 36.1237 331.4 36.8338C331.2 37.0705 330.9 37.3072 330.7 37.4255L329.9 38.0173C329.8 38.1356 329.7 38.1356 329.6 38.254C329.5 37.1888 328 35.6503 327.4 34.4668C327.3 34.2301 326.3 31.3896 326.2 31.1529C326.1 30.9162 326 30.5612 325.9 30.2061C325.6 29.6144 324.7 28.5492 324.2 28.3125C324.4 28.5492 324.9 28.9043 325 29.2593C327.2 32.0997 324.9 34.7035 326.2 36.3604L326.7 37.1888C327.2 38.0173 326.9 38.609 326.8 38.9641C327 39.2008 326.6 39.5559 326.3 39.7926C325.8 39.7926 325.5 39.5559 325.2 39.3192C324.7 38.7274 324.4 38.0173 323.6 37.6622C323 37.4255 321.6 37.5439 321.2 37.8989C321.2 37.8989 321.2 37.8989 321.2 38.0173C321.2 38.0173 321.2 38.0173 321.1 38.0173C321 38.0173 320.9 38.0173 320.9 38.0173C321 38.0173 321.1 38.0173 321.1 38.0173C320.2 38.254 319.1 38.0173 319 38.609C319.4 38.4907 320.4 38.609 321.2 38.8458C321.4 39.0825 321.7 39.2008 322.2 39.3192C322.4 39.3192 323.2 39.5559 323.4 39.6742C323.7 39.9109 324.3 40.621 325 41.0944C325.4 41.3311 325.8 41.4495 326.1 41.4495C326.3 41.6862 328.2 42.8697 328.5 42.988C330.4 43.6981 331.5 43.4614 333.3 43.1064C334.5 42.8697 336.2 42.8697 337.5 42.8697C338.3 43.1064 339.2 43.3431 340 43.4614C339.2 43.2247 338.3 42.8697 337.5 42.633C336.9 42.3963 335.7 41.9229 335.2 41.6862C334.5 41.3311 333.7 40.9761 332.9 40.621C332.7 40.5027 332.5 40.3843 332.4 40.3843C333.4 40.266 334.5 40.1476 335.3 39.7926C335.9 39.4375 336.3 38.9641 336.8 38.1356C339.6 33.2833 341 33.9934 341.7 33.2832H341.9C341.9 32.9282 341.9 32.9282 341.9 32.9282ZM334.3 35.1769C334.3 35.1769 334.2 35.2952 334.1 35.4136C334.2 35.2952 334.2 35.1769 334.3 35.1769Z" fill="#5281A4"/>
<path fill-rule="evenodd" clip-rule="evenodd" d="M300 46.3059C300 46.0691 300.2 45.9508 300.4 45.8325C300.4 45.8325 300.4 45.8324 300.5 45.7141C300.6 45.5957 300.7 45.5957 300.8 45.5957L300.9 45.4774L300.8 45.5957L300.9 45.4774C301 45.359 301.1 45.2407 301.3 45.004C301.7 44.4122 302 44.4122 302.7 44.5306C303.4 44.6489 303.5 44.7673 304.2 44.6489C304.8 44.5306 305.5 44.5306 306 44.4122C306 44.1755 305.9 43.8205 305.8 43.5838C305.4 42.5186 304.3 41.4535 303.9 40.8617C303.1 39.5598 302.8 36.246 303.1 36.0093C303.3 35.891 303.4 36.1277 303.5 36.246C303.6 36.3644 303.6 36.3644 303.6 36.4827C303.7 36.6011 303.7 36.6011 303.7 36.7194C304.4 36.1277 304.5 37.5479 305 37.4295C305.3 37.3112 305.4 37.4295 305.5 37.5479C305.7 37.7846 305.7 38.0213 305.9 38.258C306 38.3763 306.1 38.4947 306.3 38.4947C306.5 38.613 306.6 38.613 306.6 38.613C306.7 38.7314 306.8 38.9681 306.8 39.2048C307 39.9149 307.1 39.6782 307.3 39.7965C307.5 40.0332 307.3 40.3883 307.6 40.7434C307.7 40.8617 307.8 40.9801 307.9 40.9801C308 41.0984 308.1 41.2168 308.1 41.8085L308.4 42.0452C308.9 41.8085 311.9 38.9681 312.4 38.1396C312.7 37.5479 313.3 36.246 313.6 35.5359C313.7 35.2992 313.7 35.0625 313.9 35.0625C314 35.2992 314 35.5359 314 35.891L314.3 35.6543C314.4 36.0093 314.4 36.3644 314.3 36.7194L314.4 36.8378C314.3 36.9561 314.5 36.9561 314.4 36.8378C314.4 36.8378 314.5 36.8378 314.6 36.9561V37.4295C314.7 37.4295 314.6 37.3112 314.8 37.4295L314.6 37.9029C314.5 38.258 314.9 37.6662 314.5 38.7314L314.6 38.8497C314.7 38.9681 314.7 38.7314 314.7 39.0864C314.7 39.3231 314.4 39.9149 314.1 40.0332C314.2 40.1516 314.2 40.1516 314.4 40.1516C314.4 40.625 314.1 40.5067 314.2 40.7434C314.2 41.0984 314 40.9801 313.8 41.5718L313.7 41.6902C313.7 41.6902 313.7 41.6902 313.6 41.8085C313.5 41.9269 313.4 41.9269 313.3 41.9269C313.5 42.1636 313.4 42.1636 313.2 42.2819C313.1 42.4003 313.1 42.2819 313 42.2819C313.1 42.4003 313.1 42.4003 313.2 42.5186L312.6 42.637L313 42.5186C312.3 42.5186 312.5 42.4003 312.4 42.7553C312.3 42.992 312.2 42.992 311.9 43.2287L311.2 43.7021C310.9 43.9388 310.9 44.1755 310.7 44.2939C310.5 44.4122 310.3 44.5306 310.3 45.1223C311.6 45.5957 312 46.3059 312.9 47.016C313.1 47.2527 313.4 47.371 313.7 47.6077L313.8 47.7261L313.9 47.8444C313.6 47.9628 313.6 47.7261 313.5 47.8444C313.3 47.9628 313.5 47.9628 313.3 47.9628C313.2 47.9628 313.1 47.8444 313 47.8444C312.8 47.8444 312.9 48.0811 312.5 47.9628C312 47.7261 312.4 48.1995 312 48.0811L311.9 47.9628L311.6 47.8444L311.4 48.0811L311.3 48.1995C311.2 48.3178 311.3 48.1995 311.2 48.3178C310.9 48.1995 310.9 48.5545 310.7 48.4362L310.6 48.3178C310.6 48.5545 310.7 48.5545 310.4 48.5545C310.2 48.5545 310.3 48.5545 310.1 48.3178L309.4 48.4362C309.4 48.4362 309.3 48.3178 309.4 48.4362H309.3C309.2 48.4362 309.2 48.4362 309.1 48.4362C306.9 48.4362 307.7 48.3178 308.8 48.3178C308.1 48.1995 307.3 48.0811 306.6 47.9628C306.6 47.9628 306.5 47.9628 306.4 47.8444C306 47.7261 305.6 47.4894 305.4 47.371C305 47.016 304.6 46.4242 304.2 46.1875C303.2 45.5957 302.9 45.9508 301.6 45.9508C301.3 45.8325 301 46.0692 300.6 46.0692C300.3 46.0692 300.2 46.1875 300 46.3059Z" fill="#5281A4"/>
<path fill-rule="evenodd" clip-rule="evenodd" d="M320.803 25.9496C320.403 25.9496 320.003 25.7129 319.703 25.5946C319.103 25.2395 318.503 24.7661 318.103 24.2927C317.703 23.9377 317.203 23.3459 316.603 22.8725C317.103 22.9909 317.803 23.2276 318.303 23.5826C318.703 23.1092 318.703 23.4643 318.703 22.6358C318.703 22.1624 318.703 21.8073 318.503 21.3339C318.403 21.0972 318.203 20.2688 318.103 20.1504C318.103 20.1504 318.103 20.0321 318.003 20.1504C317.803 19.7954 317.703 19.322 317.503 18.9669C317.403 18.6119 317.203 18.2568 317.103 18.0201V17.9018C316.803 17.5467 316.603 17.1917 316.303 16.955C316.303 16.7183 316.403 16.5999 316.303 16.2448C316.103 16.3632 316.103 16.4815 315.903 16.7183C315.803 16.7183 315.703 16.5999 315.603 16.5999C315.603 16.1265 315.503 15.6531 315.203 15.5347L315.103 16.4815C315.003 16.4815 314.903 16.3632 314.803 16.3632C314.703 15.8898 314.603 15.4164 314.303 15.1797V15.298V15.4164C314.303 15.6531 314.303 15.8898 314.303 16.1265C314.103 15.8898 313.803 15.6531 313.603 15.1797H313.403C313.403 15.298 313.403 15.4164 313.403 15.6531C313.403 16.2448 313.603 17.1917 313.603 17.6651C313.603 17.6651 313.603 17.6651 313.603 17.5467C313.503 17.5467 313.503 17.5467 313.503 17.5467C313.503 17.5467 313.503 17.5467 313.403 17.5467C313.303 18.4935 313.303 18.6119 313.503 19.4403C313.703 20.1504 313.603 20.8605 313.403 21.4523H313.603C313.603 21.5706 313.603 21.689 313.503 21.689C313.403 21.689 313.403 21.689 313.403 21.8073C312.903 22.1624 312.903 22.0441 312.203 22.1624C311.103 22.2808 310.603 22.5175 309.603 22.0441C308.903 21.8073 308.303 20.9789 307.403 21.2156C306.903 21.3339 306.803 21.5706 306.303 21.689H306.203C306.203 21.689 306.103 21.689 306.003 21.689C305.903 21.689 305.903 21.689 305.903 21.689C305.903 21.689 306.003 21.689 306.103 21.689C305.603 21.9257 305.003 21.689 304.903 22.3991C305.003 22.3991 305.103 22.3991 305.403 22.3991C305.603 22.3991 305.803 22.5175 306.003 22.5175C306.203 22.5175 306.303 22.6358 306.503 22.7542C306.603 22.7542 306.603 22.7542 306.603 22.7542C307.003 22.8725 307.203 22.9909 307.203 22.9909C307.603 22.9909 307.903 22.9909 308.103 22.9909C308.203 22.9909 308.503 22.9909 308.603 23.1092C309.303 23.4643 309.803 23.8193 310.103 24.056C310.203 24.1744 310.303 24.4111 310.503 24.7661C310.503 25.2395 310.303 25.7129 309.803 26.068C309.003 26.6597 307.803 27.3699 307.803 28.5534C307.803 28.5534 307.803 28.5534 307.803 28.6717C308.103 28.435 308.103 28.435 308.303 28.08C308.003 29.5002 307.103 30.447 306.103 31.1571C305.403 31.6305 305.403 31.2754 304.703 31.1571C304.903 32.3406 306.203 31.5121 306.803 31.1571C306.603 31.6305 306.603 31.6305 306.303 31.8672L305.703 32.2222H305.603L305.403 32.3406C306.203 32.459 306.903 32.1039 307.203 31.5121C307.203 31.7488 307.003 32.1039 306.803 32.2222C306.703 32.3406 306.703 32.3406 306.603 32.459C306.403 32.6957 306.503 32.459 306.403 32.814C307.003 32.814 307.203 32.4589 307.503 32.2222C307.403 32.5773 307.203 33.1691 307.303 33.2874C307.703 33.5241 308.303 32.4589 308.403 32.2222L308.303 32.9324C308.903 32.9324 309.203 32.3406 309.303 31.9855V32.1039L309.403 32.5773C310.103 32.3406 310.203 31.6305 310.603 30.9204C311.103 31.0387 311.503 31.1571 311.403 30.447C312.203 30.447 311.903 30.5653 312.203 29.9736C313.203 29.9736 312.503 29.7369 313.203 29.5002C313.903 29.2635 313.403 29.0268 313.903 28.9084C314.003 28.9084 314.203 28.9084 314.403 28.7901V28.3167C315.003 28.3167 315.003 28.435 315.203 27.8433C315.403 27.1331 314.603 26.423 314.203 26.068C314.903 26.423 315.003 26.7781 315.503 27.1331C317.103 27.2515 320.103 26.423 320.803 25.9496C321.103 26.068 321.103 25.9496 320.803 25.9496ZM313.503 17.31C313.603 17.4284 313.603 17.4284 313.503 17.31C313.503 17.4284 313.603 17.4284 313.503 17.31Z" fill="#5281A4"/>
<defs>
<linearGradient id="paint0_linear_1460_18728" x1="180" y1="0" x2="180" y2="133" gradientUnits="userSpaceOnUse">
<stop stop-color="#E9F5FB"/>
<stop offset="1" stop-color="#DCF1FB"/>
</linearGradient>
<linearGradient id="paint1_linear_1460_18728" x1="187.694" y1="332.206" x2="188.668" y2="142.711" gradientUnits="userSpaceOnUse">
<stop stop-color="white"/>
<stop offset="1" stop-color="#DAF1FD"/>
</linearGradient>
<linearGradient id="paint2_linear_1460_18728" x1="188.11" y1="347.067" x2="188.153" y2="302.217" gradientUnits="userSpaceOnUse">
<stop stop-color="#ABC7E0"/>
<stop offset="1" stop-color="#8AB2D3"/>
</linearGradient>
<linearGradient id="paint3_linear_1460_18728" x1="188.036" y1="383.782" x2="188.182" y2="336.35" gradientUnits="userSpaceOnUse">
<stop offset="0.1417" stop-color="#80A5C1"/>
<stop offset="1" stop-color="#5281A4"/>
</linearGradient>
<linearGradient id="paint4_linear_1460_18728" x1="197" y1="590" x2="197" y2="813" gradientUnits="userSpaceOnUse">
<stop stop-color="#175B7C"/>
<stop offset="1" stop-color="#F2F2F2"/>
</linearGradient>
<clipPath id="clip0_1460_18728">
<rect width="360" height="1024" fill="white" transform="translate(0 133)"/>
</clipPath>
</defs>
</svg>
