<svg width="260" height="200" viewBox="0 0 260 200" fill="none" xmlns="http://www.w3.org/2000/svg">
<path opacity="0.1" d="M4.42782 88.9336H31.4305V125.307H6.40467C6.33815 125.681 6.2743 126.057 6.20512 126.433H31.4305V155.767C31.3853 155.767 31.3454 155.738 31.3028 155.722C30.5897 155.444 29.882 155.149 29.1743 154.834L28.722 154.631C28.0125 154.3 27.303 153.949 26.5935 153.579C26.3461 153.45 26.0986 153.316 25.8538 153.18C21.9151 150.999 18.3369 148.236 15.2433 144.986C15.1528 144.899 15.0677 144.807 14.9772 144.723C14.5462 144.26 14.1231 143.792 13.7134 143.314L13.2505 142.785C12.7662 142.199 12.2979 141.597 11.843 140.987C11.7765 140.897 11.7126 140.808 11.6434 140.724C9.7931 138.188 8.25673 135.443 7.06716 132.546C7.02991 132.459 6.99799 132.365 6.9634 132.283C6.59801 131.356 6.2743 130.418 5.99227 129.47C5.86988 129.073 5.75281 128.681 5.65171 128.268C5.61446 128.147 5.58253 128.029 5.55327 127.91C4.04203 122.081 3.86377 116.025 3.86377 110.011V107.908C3.86377 105.476 3.89304 103.028 3.93561 100.582C3.93561 99.9485 3.96221 99.3174 3.97552 98.6811C4.01276 97.0666 4.06598 95.4521 4.13515 93.8376C4.15112 93.3879 4.1724 92.9409 4.19635 92.4939C4.19637 92.2357 4.20969 91.9777 4.23626 91.7208C4.31075 90.7874 4.36397 89.8592 4.42782 88.9336Z" fill="#6C63FF"/>
<path opacity="0.1" d="M31.4299 48.4346H16.6182C19.0262 44.7103 21.6569 41.1314 24.4963 37.7168C26.6966 35.0453 29.0193 32.4421 31.4299 29.9336V48.4346Z" fill="#6C63FF"/>
<path opacity="0.1" d="M31.4302 49.5605V87.8089H4.5127C4.5127 87.6985 4.53132 87.5854 4.5393 87.475C4.56325 87.1726 4.58719 86.8702 4.6138 86.5704C4.64307 86.2181 4.67499 85.8631 4.70958 85.5187C4.74417 85.1742 4.78142 84.7535 4.82133 84.3722C4.86124 83.9909 4.89849 83.6044 4.94372 83.2231C4.98895 82.8418 5.02886 82.4606 5.07675 82.0819C5.12464 81.7033 5.16721 81.3194 5.21776 80.9407C5.25767 80.6252 5.30024 80.3123 5.34281 79.9967C5.404 79.5524 5.46786 79.1054 5.53704 78.6636C5.54138 78.5972 5.55117 78.5312 5.5663 78.4664C6.0522 75.2326 6.71388 72.027 7.54847 68.8635C8.42178 65.5449 9.53775 62.2934 10.8876 59.1345C12.3215 55.8297 14.0005 52.6341 15.9108 49.5737L31.4302 49.5605Z" fill="#6C63FF"/>
<path d="M37.877 88.9302V125.306H87.5508V88.9302H37.877ZM37.877 126.429V157.667C38.1616 157.736 38.4437 157.801 38.723 157.857C39.1035 157.941 39.4813 158.017 39.8671 158.083C39.9416 158.096 40.0161 158.109 40.0986 158.117C40.2476 158.146 40.4045 158.17 40.5562 158.193C40.9393 158.254 41.3198 158.304 41.7003 158.343C41.8839 158.364 42.0648 158.383 42.2484 158.398L42.6927 158.438C42.9321 158.459 43.1716 158.475 43.4057 158.482C43.5521 158.482 43.7011 158.498 43.8501 158.504H45.4837C45.6808 158.507 45.878 158.5 46.0743 158.482C46.2113 158.486 46.3482 158.479 46.4841 158.461H46.5985C46.7123 158.465 46.8262 158.458 46.939 158.443H47.0189L47.7851 158.375C48.0512 158.348 48.2933 158.314 48.5487 158.283L49.0808 158.212C51.2157 157.867 53.319 157.354 55.3706 156.676C60.0027 155.193 64.5364 153.118 69.1686 151.599C75.155 149.64 81.7719 148.677 87.5561 151.073V126.429H37.877ZM87.5508 48.4336V0.00387447C82.0921 -0.0602751 76.6536 0.672486 71.4115 2.17845C58.832 5.8045 47.5483 13.6693 37.8876 23.7139V48.431H40.3806V49.5538H37.8876V87.8074H87.5615V49.5564H50.6054V48.4336H87.5508ZM151.355 32.0835C148.242 31.9573 145.151 30.8266 142.352 29.0806C137.001 25.7412 132.728 20.5848 127.952 16.233C118.028 7.1692 105.723 1.69989 93.0982 0.343077V48.4336H164.012L164.187 48.2206L151.355 32.0835ZM157.815 30.7688L164.664 39.3935V28.5074C162.37 28.8335 160.361 29.6092 157.823 30.7582L157.815 30.7688ZM164.664 165.424V126.429H150.07C150.03 126.264 149.99 126.095 149.945 125.927C149.99 126.095 150.025 126.264 150.068 126.429H93.1089V154.63C93.641 155.09 94.1731 155.574 94.7052 156.066C95.2746 156.592 95.8387 157.147 96.4054 157.691L96.9747 158.233C97.2408 158.496 97.5228 158.759 97.7995 159.006C98.3494 159.518 98.9046 160.022 99.4651 160.52C99.7445 160.783 100.026 161.02 100.309 161.267C104.733 165.154 109.454 168.698 114.431 171.867C115.538 172.568 116.653 173.252 117.776 173.92C118.526 174.359 119.279 174.796 120.034 175.219C121.173 175.855 122.319 176.469 123.472 177.06C133.965 182.492 145.254 186.266 156.929 188.243C159.494 188.678 162.066 189.02 164.645 189.268V165.422L164.664 165.424ZM93.1089 49.5564V87.8074H164.68V49.5564H93.1089ZM93.1089 88.9302V125.306H164.68V88.9302H93.1089ZM170.227 28.4522V40.5951L178.97 29.5881C176.078 29.0518 173.16 28.6682 170.227 28.439V28.4522ZM170.227 88.9433V125.306H239.834V88.9302L170.227 88.9433ZM239.579 168.311L239.826 126.429H170.227V189.686C174.711 189.903 179.203 189.841 183.679 189.502H183.759C185.887 189.348 188.016 189.124 190.145 188.829H190.182C201.608 187.285 212.699 183.89 223.009 178.782L239.579 168.311ZM253.257 94.928C252.993 94.2268 252.722 93.5256 252.446 92.8244C251.927 91.5097 251.381 90.2318 250.815 88.9538H245.384V125.306H259.116C259.116 115.009 256.838 104.491 253.263 94.907L253.257 94.928ZM245.384 126.442V162.466C249.364 158.135 252.572 153.17 254.875 147.781C257.703 141.081 258.999 133.826 259.105 126.437L245.384 126.442ZM245.384 78.3439V87.81H250.312C248.822 84.553 247.184 81.3932 245.398 78.3308L245.384 78.3439ZM198.18 35.5886C197.818 35.4308 197.453 35.2704 197.089 35.1153C193.27 33.4956 189.341 32.1408 185.331 31.0606L171.954 47.9077L171.688 48.2206L171.858 48.4362H219.483C212.973 43.2688 205.82 38.9467 198.198 35.5755L198.18 35.5886ZM220.88 49.5695H171.204L170.227 50.595V87.8074H239.845V69.7823C234.445 62.2519 228.071 55.4522 220.885 49.5564L220.88 49.5695Z" fill="#F0F1FE"/>
<path d="M31.4302 68.8535V87.8094H4.5127C4.5127 87.699 4.53132 87.5859 4.5393 87.4755C4.56325 87.1731 4.58719 86.8707 4.6138 86.5709C4.64307 86.2186 4.67499 85.8636 4.70958 85.5191C4.74417 85.1747 4.78142 84.754 4.82133 84.3727C4.86124 83.9914 4.89849 83.6049 4.94372 83.2236C4.98895 82.8423 5.02886 82.4611 5.07675 82.0824C5.12464 81.7038 5.16721 81.3199 5.21776 80.9412C5.25767 80.6257 5.30024 80.3128 5.34281 79.9972C5.404 79.5529 5.46786 79.1059 5.53704 78.6641C5.54138 78.5977 5.55117 78.5317 5.5663 78.4669C6.0522 75.2331 6.71388 72.0275 7.54847 68.864L31.4302 68.8535Z" fill="#C9D2EF"/>
<path d="M4.42782 88.9336H31.4305V125.307H6.40467C6.33815 125.681 6.2743 126.057 6.20512 126.433H31.4305V155.767C31.3853 155.767 31.3454 155.738 31.3028 155.722C30.5897 155.444 29.882 155.149 29.1743 154.834L28.722 154.631C28.0125 154.3 27.303 153.949 26.5935 153.579C26.3461 153.45 26.0986 153.316 25.8538 153.18C21.9151 150.999 18.3369 148.236 15.2433 144.986C15.1528 144.899 15.0677 144.807 14.9772 144.723C14.5462 144.26 14.1231 143.792 13.7134 143.314L13.2505 142.785C12.7662 142.199 12.2979 141.597 11.843 140.987C11.7765 140.897 11.7126 140.808 11.6434 140.724C9.7931 138.188 8.25673 135.443 7.06716 132.546C7.02991 132.459 6.99799 132.365 6.9634 132.283C6.59801 131.356 6.2743 130.418 5.99227 129.47C5.86988 129.073 5.75281 128.681 5.65171 128.268C5.61446 128.147 5.58253 128.029 5.55327 127.91C4.04203 122.081 3.86377 116.025 3.86377 110.011V107.908C3.86377 105.476 3.89304 103.028 3.93561 100.582C3.93561 99.9485 3.96221 99.3174 3.97552 98.6811C4.01276 97.0666 4.06598 95.4521 4.13515 93.8376C4.15112 93.3879 4.1724 92.9409 4.19635 92.4939C4.19637 92.2357 4.20969 91.9777 4.23626 91.7208C4.31075 90.7874 4.36397 89.8592 4.42782 88.9336Z" fill="#C9D2EF"/>
<path d="M58.1804 55.0339V87.8077H37.8745V55.0339H40.7693V43.9375H52.6516V55.0339H58.1804Z" fill="#C9D2EF"/>
<path d="M58.1805 88.9316H37.8799V125.305H58.1805V88.9316Z" fill="#C9D2EF"/>
<path opacity="0.1" d="M37.877 126.434H58.1802V156.673C55.7852 157.353 53.3447 157.865 50.8768 158.206L50.2701 158.279C49.9722 158.313 49.6768 158.342 49.3842 158.371C49.0915 158.4 48.7882 158.421 48.4928 158.44H48.3997C48.272 158.44 48.1337 158.455 48.0086 158.458H47.8729C47.7133 158.458 47.5536 158.474 47.394 158.479C47.1679 158.492 46.9417 158.495 46.7102 158.497H44.8265L44.313 158.479C44.0469 158.479 43.7596 158.45 43.4829 158.432L42.9721 158.395L42.3362 158.337C41.8892 158.298 41.4449 158.248 41.0058 158.187L40.4737 158.114L40.2077 158.077C39.7633 158.008 39.3243 157.935 38.8774 157.851C38.5501 157.795 38.2255 157.727 37.8956 157.661L37.877 126.434Z" fill="#6C63FF"/>
<path d="M164.672 51.1641H150.254V87.8058H164.672V51.1641Z" fill="#C9D2EF"/>
<path d="M164.674 88.9316V125.308H93.106V109.618H131.227V118.874H150.254V88.9316H164.674Z" fill="#C9D2EF"/>
<path d="M164.906 165.432H164.678V189.295C162.093 189.044 159.521 188.703 156.962 188.272C145.281 186.288 133.987 182.507 123.491 177.065C120.415 175.477 117.4 173.743 114.445 171.864C109.468 168.694 104.746 165.151 100.32 161.265C99.197 160.276 98.0875 159.264 96.9913 158.23C96.233 157.512 95.4774 156.776 94.7165 156.061C94.1844 155.569 93.6522 155.085 93.1201 154.623V126.432H150.065C150.026 126.264 149.988 126.095 149.946 125.93C149.991 126.095 150.031 126.264 150.071 126.432H164.675V165.417C164.752 165.419 164.827 165.427 164.906 165.432Z" fill="#C9D2EF"/>
<path opacity="0.1" d="M202.277 48.4343H192.883V45.0843H197.1V35.1055C197.464 35.258 197.829 35.4157 198.191 35.5761V45.0843H202.283L202.277 48.4343Z" fill="#6C63FF"/>
<path d="M224.914 87.8089H178.789L178.805 87.8221L178.786 87.8089H170.227V51.1672H172.654V78.2508H183.732V62.211H192.885V49.5605H202.28V62.2215H211.432V78.2613H224.914V87.8089Z" fill="#C9D2EF"/>
<path d="M170.227 88.9316V125.308H224.914V88.9316H170.227ZM239.76 168.126L239.834 139.333H224.914V126.449H170.227V189.688C174.711 189.904 179.203 189.843 183.679 189.504H183.759C185.887 189.35 188.016 189.125 190.144 188.831H190.182C201.608 187.286 212.699 183.892 223.009 178.784" fill="#C9D2EF"/>
<path d="M246.356 126.434H259.127C259.015 133.82 257.722 141.075 254.894 147.774C252.593 153.164 249.386 158.129 245.409 162.46V139.321H246.369L246.356 126.434Z" fill="#C9D2EF"/>
<path d="M259.121 125.308H246.35V94.9082H253.268C256.838 104.493 259.108 115.011 259.121 125.308Z" fill="#C9D2EF"/>
<path opacity="0.1" d="M164.674 61.3516H156.951V72.8398H164.674V61.3516Z" fill="#6C63FF"/>
<path opacity="0.1" d="M164.674 85.1641H156.951V87.8093H164.674V85.1641Z" fill="#6C63FF"/>
<path opacity="0.1" d="M164.674 88.9316H156.951V96.6491H164.674V88.9316Z" fill="#6C63FF"/>
<path opacity="0.1" d="M164.674 108.975H156.951V120.463H164.674V108.975Z" fill="#6C63FF"/>
<path opacity="0.1" d="M164.674 132.787H156.951V144.275H164.674V132.787Z" fill="#6C63FF"/>
<path opacity="0.1" d="M164.674 165.418C164.751 165.416 164.828 165.421 164.903 165.434H164.674V168.103H156.958V156.602H164.674V165.418Z" fill="#6C63FF"/>
<path opacity="0.1" d="M164.674 180.408V189.283C162.09 189.032 159.518 188.691 156.958 188.26V180.408H164.674Z" fill="#6C63FF"/>
<path opacity="0.1" d="M126.212 124.463H93.106V125.307H126.212V124.463Z" fill="#6C63FF"/>
<path opacity="0.1" d="M126.212 126.43H93.106V129.664H126.212V126.43Z" fill="#6C63FF"/>
<path opacity="0.1" d="M126.212 140.268H93.106V145.469H126.212V140.268Z" fill="#6C63FF"/>
<path opacity="0.1" d="M126.213 156.068V161.269H100.317C99.1941 160.284 98.0837 159.273 96.9858 158.235C96.2275 157.517 95.4745 156.781 94.7109 156.068H126.213Z" fill="#6C63FF"/>
<path opacity="0.1" d="M126.212 171.871V177.067H123.477C120.407 175.477 117.392 173.742 114.431 171.863L126.212 171.871Z" fill="#6C63FF"/>
<path opacity="0.1" d="M190.2 92.457H183.682V99.9353H190.2V92.457Z" fill="#6C63FF"/>
<path opacity="0.1" d="M50.8949 57.6133H43.3281V65.0915H50.8949V57.6133Z" fill="#6C63FF"/>
<path opacity="0.1" d="M50.8949 74.9844H43.3281V82.4626H50.8949V74.9844Z" fill="#6C63FF"/>
<path opacity="0.1" d="M50.8949 92.3555H43.3281V99.8337H50.8949V92.3555Z" fill="#6C63FF"/>
<path opacity="0.1" d="M50.8949 109.723H43.3281V117.201H50.8949V109.723Z" fill="#6C63FF"/>
<path opacity="0.1" d="M50.8949 127.094H43.3281V134.572H50.8949V127.094Z" fill="#6C63FF"/>
<path opacity="0.1" d="M50.8949 144.463H43.3281V151.941H50.8949V144.463Z" fill="#6C63FF"/>
<path opacity="0.1" d="M215.08 92.457H208.562V99.9353H215.08V92.457Z" fill="#6C63FF"/>
<path opacity="0.1" d="M190.2 110.902H183.682V118.381H190.2V110.902Z" fill="#6C63FF"/>
<path opacity="0.1" d="M215.08 110.902H208.562V118.381H215.08V110.902Z" fill="#6C63FF"/>
<path opacity="0.1" d="M190.2 129.346H183.682V136.824H190.2V129.346Z" fill="#6C63FF"/>
<path opacity="0.1" d="M215.08 129.346H208.562V136.824H215.08V129.346Z" fill="#6C63FF"/>
<path opacity="0.1" d="M190.2 147.793H183.682V155.271H190.2V147.793Z" fill="#6C63FF"/>
<path opacity="0.1" d="M215.08 147.793H208.562V155.271H215.08V147.793Z" fill="#6C63FF"/>
<path opacity="0.1" d="M190.2 166.238H183.682V173.717H190.2V166.238Z" fill="#6C63FF"/>
<path opacity="0.1" d="M215.08 166.238H208.562V173.717H215.08V166.238Z" fill="#6C63FF"/>
<path opacity="0.1" d="M183.682 189.504V184.682H190.195V188.818L183.682 189.504Z" fill="#6C63FF"/>
<path opacity="0.1" d="M5.53418 78.459V82.7372H31.43V78.459H5.53418ZM8.11499 82.4689H6.00245V78.7219H8.13095L8.11499 82.4689ZM10.6931 82.4689H8.56463V78.7219H10.6931V82.4689ZM13.266 82.4689H11.1375V78.7219H13.266V82.4689ZM15.8441 82.4689H13.7156V78.7219H15.8441V82.4689ZM18.4196 82.4689H16.2911V78.7219H18.4196V82.4689ZM20.9977 82.4689H18.8692V78.7219H20.9977V82.4689ZM23.5759 82.4689H21.4474V78.7219H23.5759V82.4689ZM26.1514 82.4689H24.0229V78.7219H26.1514V82.4689ZM28.7268 82.4689H26.5983V78.7219H28.7268V82.4689ZM31.3023 82.4689H29.1738V78.7219H31.3023V82.4689Z" fill="#6C63FF"/>
<path opacity="0.1" d="M5.53418 90.9102V95.1936H31.43V90.9102H5.53418ZM8.11499 94.9306H6.00245V91.181H8.13095L8.11499 94.9306ZM10.6931 94.9306H8.56463V91.181H10.6931V94.9306ZM13.266 94.9306H11.1375V91.181H13.266V94.9306ZM15.8441 94.9306H13.7156V91.181H15.8441V94.9306ZM18.4196 94.9306H16.2911V91.181H18.4196V94.9306ZM20.9977 94.9306H18.8692V91.181H20.9977V94.9306ZM23.5759 94.9306H21.4474V91.181H23.5759V94.9306ZM26.1514 94.9306H24.0229V91.181H26.1514V94.9306ZM28.7268 94.9306H26.5983V91.181H28.7268V94.9306ZM31.3023 94.9306H29.1738V91.181H31.3023V94.9306Z" fill="#6C63FF"/>
<path opacity="0.1" d="M5.53418 103.363V107.649H31.43V103.363H5.53418ZM8.11499 107.371H6.00245V103.631H8.13095L8.11499 107.371ZM10.6931 107.371H8.56463V103.631H10.6931V107.371ZM13.266 107.371H11.1375V103.631H13.266V107.371ZM15.8441 107.371H13.7156V103.631H15.8441V107.371ZM18.4196 107.371H16.2911V103.631H18.4196V107.371ZM20.9977 107.371H18.8692V103.631H20.9977V107.371ZM23.5759 107.371H21.4474V103.631H23.5759V107.371ZM26.1514 107.371H24.0229V103.631H26.1514V107.371ZM28.7268 107.371H26.5983V103.631H28.7268V107.371ZM31.3023 107.371H29.1738V103.631H31.3023V107.371Z" fill="#6C63FF"/>
<path opacity="0.1" d="M5.53418 115.814V120.087H31.43V115.814H5.53418ZM8.11499 119.822H6.00245V116.08H8.13095L8.11499 119.822ZM10.6931 119.822H8.56463V116.08H10.6931V119.822ZM13.266 119.822H11.1375V116.08H13.266V119.822ZM15.8441 119.822H13.7156V116.08H15.8441V119.822ZM18.4196 119.822H16.2911V116.08H18.4196V119.822ZM20.9977 119.822H18.8692V116.08H20.9977V119.822ZM23.5759 119.822H21.4474V116.08H23.5759V119.822ZM26.1514 119.822H24.0229V116.08H26.1514V119.822ZM28.7268 119.822H26.5983V116.08H28.7268V119.822ZM31.3023 119.822H29.1738V116.08H31.3023V119.822Z" fill="#6C63FF"/>
<path opacity="0.1" d="M5.646 128.266C5.74976 128.668 5.86683 129.07 5.98922 129.467V128.534H8.11772V132.268H6.97897C7.01356 132.354 7.04815 132.449 7.08273 132.531H31.4301V128.266H5.646ZM10.7012 132.273H8.57268V128.534H10.7012V132.273ZM13.274 132.273H11.1455V128.534H13.274V132.273ZM15.8522 132.273H13.7237V128.534H15.8522V132.273ZM18.4276 132.273H16.2991V128.534H18.4276V132.273ZM21.0058 132.273H18.8773V128.534H21.0058V132.273ZM23.5839 132.273H21.4554V128.534H23.5839V132.273ZM26.1594 132.273H24.0309V128.534H26.1594V132.273ZM28.7349 132.273H26.6064V128.534H28.7349V132.273ZM31.3104 132.273H29.1819V128.534H31.3104V132.273Z" fill="#6C63FF"/>
<path opacity="0.1" d="M11.6543 140.719C11.7208 140.803 11.7847 140.898 11.8538 140.982H13.2613V142.786C13.413 142.964 13.562 143.143 13.7163 143.311V140.971H15.8448V144.723H14.9881C15.0732 144.81 15.1557 144.902 15.2541 144.986H31.4387V140.719H11.6543ZM18.4149 144.723H16.2864V140.987H18.4149V144.723ZM20.9931 144.723H18.8646V140.987H20.9931V144.723ZM23.5712 144.723H21.4427V140.987H23.5712V144.723ZM26.1467 144.723H24.0182V140.987H26.1467V144.723ZM28.7222 144.723H26.5937V140.987H28.7222V144.723ZM31.2977 144.723H29.1692V140.987H31.2977V144.723Z" fill="#6C63FF"/>
<path opacity="0.1" d="M25.8643 153.169C26.1064 153.305 26.3538 153.432 26.6039 153.568V153.437H28.7324V154.618L29.1847 154.825V153.434H31.3132V155.709C31.3536 155.73 31.3965 155.746 31.4409 155.756V153.166L25.8643 153.169Z" fill="#6C63FF"/>
<path opacity="0.1" d="M149.945 125.927C149.99 126.095 150.025 126.264 150.068 126.429C150.03 126.264 149.99 126.095 149.945 125.927ZM40.3887 48.4258V49.5486H50.6241V48.4258H40.3887ZM149.945 125.927C149.99 126.095 150.025 126.264 150.068 126.429C150.03 126.264 149.99 126.095 149.945 125.927ZM149.945 125.927C149.99 126.095 150.025 126.264 150.068 126.429C150.03 126.264 149.99 126.095 149.945 125.927Z" fill="#6C63FF"/>
<path opacity="0.1" d="M97.8873 87.0879C98.2841 87.0879 98.6057 86.77 98.6057 86.3779C98.6057 85.9858 98.2841 85.668 97.8873 85.668C97.4906 85.668 97.1689 85.9858 97.1689 86.3779C97.1689 86.77 97.4906 87.0879 97.8873 87.0879Z" fill="black"/>
<path opacity="0.1" d="M99.2101 117.82C99.6068 117.82 99.9285 117.502 99.9285 117.11C99.9285 116.718 99.6068 116.4 99.2101 116.4C98.8133 116.4 98.4917 116.718 98.4917 117.11C98.4917 117.502 98.8133 117.82 99.2101 117.82Z" fill="black"/>
<path opacity="0.1" d="M98.6026 102.453C98.9994 102.453 99.321 102.135 99.321 101.743C99.321 101.351 98.9994 101.033 98.6026 101.033C98.2059 101.033 97.8843 101.351 97.8843 101.743C97.8843 102.135 98.2059 102.453 98.6026 102.453Z" fill="black"/>
<path opacity="0.1" d="M36.0599 200C50.3779 200 61.985 198.157 61.985 195.885C61.985 193.612 50.3779 191.77 36.0599 191.77C21.7418 191.77 10.1348 193.612 10.1348 195.885C10.1348 198.157 21.7418 200 36.0599 200Z" fill="#6C63FF"/>
<path d="M36.8953 117.053H35.2271V154.173H36.8953V117.053Z" fill="#535461"/>
<path d="M47.3784 154.061L47.2747 155.734L47.1257 158.1L47.0645 159.084L46.9182 161.45L46.8543 162.434L46.7053 164.8L45.0238 191.639C44.9501 192.793 44.4342 193.877 43.5811 194.668C42.7281 195.46 41.6019 195.901 40.4316 195.902H31.6887C30.5183 195.901 29.392 195.46 28.5393 194.667C27.6866 193.875 27.1716 192.791 27.0992 191.637L25.4256 164.782L25.2766 162.415L25.2234 161.432L25.0744 159.065L25.0132 158.082L24.8642 155.715L24.7578 154.043C24.7398 153.732 24.784 153.422 24.8876 153.128C24.9913 152.834 25.1525 152.564 25.3621 152.332C25.5716 152.1 25.8254 151.911 26.1088 151.776C26.3923 151.641 26.6999 151.562 27.014 151.545H45.0344C45.3465 151.547 45.6549 151.61 45.9423 151.731C46.2296 151.851 46.4901 152.026 46.709 152.246C46.9279 152.465 47.1009 152.726 47.218 153.011C47.3352 153.297 47.3942 153.603 47.3917 153.911C47.3838 153.961 47.3811 154.011 47.3784 154.061Z" fill="#C85C35"/>
<path d="M47.2714 155.734L47.1224 158.093H24.9913L24.8423 155.734H47.2714Z" fill="#F4B43F"/>
<path d="M47.0617 159.076L46.9154 161.437H25.2047L25.0557 159.076H47.0617Z" fill="#F4B43F"/>
<path d="M46.8539 162.422L46.7049 164.781H25.412L25.2656 162.422H46.8539Z" fill="#F4B43F"/>
<path d="M22.2967 130.966C32.0107 137.914 36.0655 148.779 36.0655 148.779C36.0655 148.779 24.3587 148.382 14.6421 141.434C4.9255 134.487 0.881348 123.625 0.881348 123.625C0.881348 123.625 12.5828 124.019 22.2967 130.966Z" fill="#43999E"/>
<path d="M0.873047 123.625C0.873047 123.625 13.0268 130.291 16.9246 135.81C20.8224 141.329 36.0678 148.779 36.0678 148.779" stroke="#535461" stroke-width="2" stroke-miterlimit="10"/>
<path d="M28.57 116.971C33.8566 120.75 36.0676 126.664 36.0676 126.664C36.0676 126.664 29.6954 126.448 24.4061 122.669C19.1168 118.891 16.9111 112.975 16.9111 112.975C16.9111 112.975 23.2807 113.19 28.57 116.971Z" fill="#43999E"/>
<path d="M16.9111 112.975C16.9111 112.975 23.5254 116.603 25.646 119.606C27.7665 122.609 36.0676 126.664 36.0676 126.664" stroke="#535461" stroke-width="2" stroke-miterlimit="10"/>
<path d="M43.7434 126.365C37.6692 132.962 36.3975 141.584 36.3975 141.584C36.3975 141.584 44.962 139.507 51.0309 132.907C57.0998 126.307 58.3902 117.688 58.3902 117.688C58.3902 117.688 49.8177 119.767 43.7434 126.365Z" fill="#43999E"/>
<path d="M58.3822 117.689C58.3822 117.689 50.4695 124.452 48.4581 129.112C46.4466 133.771 36.3975 141.584 36.3975 141.584" stroke="#535461" stroke-width="2" stroke-miterlimit="10"/>
<path d="M194.992 106.07C195.01 106.042 195.033 106.019 195.061 106.002C195.077 105.99 195.096 105.984 195.116 105.984C195.135 105.984 195.155 105.99 195.17 106.002C195.187 106.023 195.2 106.047 195.208 106.073C195.222 106.1 195.242 106.124 195.267 106.143C195.292 106.161 195.321 106.174 195.351 106.181L195.317 106.444L194.992 106.07Z" fill="#727A9C"/>
<path d="M205.347 158.791C205.347 162.315 202.282 165.168 198.499 165.168H140.305C136.525 165.168 133.457 162.315 133.457 158.791V77.2144C133.457 73.6935 136.525 70.8379 140.305 70.8379H198.501C202.285 70.8379 205.35 73.6935 205.35 77.2144L205.347 158.791Z" fill="#494C59"/>
<path d="M199.268 159.9H139.537V77.043H184.331L199.268 77.1508V159.9Z" fill="white"/>
<path d="M177.241 67.3363C177.065 63.442 173.63 60.334 169.405 60.334C165.18 60.334 161.743 63.442 161.567 67.3363H156.392V80.3391H182.44V67.3363H177.241ZM169.405 70.2734C167.846 70.2734 166.585 69.098 166.585 67.6439C166.585 66.1898 167.846 65.0145 169.405 65.0145C170.964 65.0145 172.223 66.1898 172.223 67.6439C172.223 69.098 170.962 70.2734 169.405 70.2734Z" fill="#9E989C"/>
<path d="M149.671 94.14H142.583V87.1719H149.671V94.14ZM143.235 93.4984H149.019V87.8056H143.235V93.4984Z" fill="#564F53"/>
<path d="M149.671 103.421H142.583V96.4531H149.671V103.421ZM143.235 102.78H149.019V97.0947H143.235V102.78Z" fill="#564F53"/>
<path d="M149.671 112.79H142.583V105.822H149.671V112.79ZM143.235 112.151H149.019V106.464H143.235V112.151Z" fill="#564F53"/>
<path d="M169.471 88.2031H152.768V88.8447H169.471V88.2031Z" fill="#564F53"/>
<path d="M196.032 92.5293H152.768V93.1709H196.032V92.5293Z" fill="#564F53"/>
<path d="M169.471 97.334H152.768V97.9756H169.471V97.334Z" fill="#564F53"/>
<path d="M196.032 101.658H152.768V102.3H196.032V101.658Z" fill="#564F53"/>
<path d="M169.471 106.383H152.768V107.024H169.471V106.383Z" fill="#564F53"/>
<path d="M196.032 110.709H152.768V111.351H196.032V110.709Z" fill="#564F53"/>
<path d="M147.564 89.1113L145.502 91.0282L144.693 90.2499L144.1 90.8626L145.513 92.1799L148.155 89.6635L147.564 89.1113Z" fill="#43999E"/>
<path d="M183.567 79.1543H155.375V80.356H183.567V79.1543Z" fill="#A0939A"/>
<path d="M96.5191 111.971H65.9512V145.749H96.5191V111.971Z" fill="#CCCCCC"/>
<path d="M81.6285 187.009L81.0964 194.109C81.0524 194.706 81.2503 195.296 81.6464 195.749C82.0426 196.203 82.6046 196.482 83.2089 196.525C83.3108 196.532 83.413 196.532 83.5149 196.525L87.2025 196.305C87.5108 196.286 87.7989 196.146 88.0035 195.918C88.208 195.689 88.3123 195.389 88.2934 195.084C88.2908 195.013 88.28 194.943 88.2614 194.874L86.2154 186.783L81.6285 187.009Z" fill="#E6E6E6"/>
<path d="M112.491 191.206C116.83 192.21 119.941 193.635 121.968 195.565C122.693 196.242 123.638 196.641 124.634 196.691C125.911 196.756 126.957 196.614 127.742 196.267C127.943 196.18 128.117 196.041 128.245 195.865C128.373 195.689 128.451 195.482 128.471 195.266C128.493 195.045 128.456 194.823 128.362 194.622C128.269 194.421 128.122 194.248 127.938 194.122L117.653 186.891L113.289 188.621L112.267 189.628C112.173 189.721 112.099 189.831 112.048 189.952C111.997 190.073 111.971 190.203 111.971 190.334C111.971 190.465 111.997 190.595 112.048 190.716C112.099 190.837 112.173 190.947 112.267 191.04C112.332 191.106 112.407 191.162 112.488 191.206H112.491Z" fill="#E6E6E6"/>
<path d="M99.1275 75.3622L69.709 75.0992C69.7808 70.8658 70.7732 66.7059 72.9576 62.9852C74.389 60.5398 74.3598 57.8814 74.0219 55.6411C73.4897 52.1807 74.7269 48.644 77.4807 46.4379C79.58 44.7545 82.2293 43.8867 84.9304 43.9978L85.5025 44.0214C87.3616 44.0969 89.1718 44.6323 90.7672 45.5787C92.3626 46.5251 93.692 47.8521 94.6337 49.4382C95.5902 51.1337 95.976 53.086 95.7352 55.0126C95.549 56.827 96.0013 58.6571 97.0389 60.5056C98.8402 64.5761 99.2286 69.7719 99.1275 75.3622Z" fill="#2F2E41"/>
<path d="M118.811 187.268L113.037 188.756L84.9199 128.218L86.6839 187.268H80.9104C74.735 159.487 63.595 127.423 68.5917 117.303L98.4678 115.564L118.811 187.268Z" fill="#145A7B"/>
<path d="M84.6695 65.1989C88.9676 65.1989 92.4519 61.7554 92.4519 57.5076C92.4519 53.2599 88.9676 49.8164 84.6695 49.8164C80.3715 49.8164 76.8872 53.2599 76.8872 57.5076C76.8872 61.7554 80.3715 65.1989 84.6695 65.1989Z" fill="#FFB9B9"/>
<path d="M91.4489 71.6491L78.646 70.905C79.8992 68.0599 80.3993 65.3174 79.8991 62.7168H89.4401C89.4189 64.7152 90.4246 68.1677 91.4489 71.6491Z" fill="#FFB9B9"/>
<path d="M99.4808 117.798L71.3633 119.783L74.2501 70.5327L79.1456 69.168L84.6691 70.4091L90.1899 67.6797L93.7045 68.9208L99.4808 117.798Z" fill="#145A7B"/>
<path d="M76.1341 153.278L56.9297 148.936C62.6394 130.22 72.928 87.4066 69.6076 72.1557L79.6488 67.6855L76.1341 153.278Z" fill="#E6E6E6"/>
<path d="M66.8456 99.1911L59.5635 94.721L65.7734 76.7512C66.4648 74.8964 67.791 73.3392 69.5222 72.3494L71.6161 71.1504L70.3603 89.2622L66.8456 99.1911Z" fill="#E6E6E6"/>
<path d="M116.176 149.183C110.113 152.649 94.9632 154.581 88.309 152.162C87.8194 135.252 86.859 87.4194 89.9426 67.1855L100.987 71.6557L99.9865 85.0476C94.7025 96.5069 110.036 136.428 116.176 149.183Z" fill="#E6E6E6"/>
<path d="M115.296 96.9565L108.516 94.7241L99.481 84.5506L100.987 71.6504L116.049 92.4916L115.296 96.9565Z" fill="#E6E6E6"/>
<path d="M94.0533 106.615C94.1643 107.096 94.4639 107.514 94.8864 107.777C95.3088 108.04 95.8196 108.127 96.3068 108.019L102.059 106.73L101.229 103.102L95.4634 104.395C94.9767 104.504 94.5538 104.8 94.2874 105.217C94.021 105.634 93.933 106.139 94.0426 106.62L94.0533 106.615Z" fill="#FFB9B9"/>
<path d="M91.4488 55.5224C87.1253 53.7659 82.855 53.6397 78.6459 55.2752L76.8872 49.0723H92.9547L91.4488 55.5224Z" fill="#2F2E41"/>
<path d="M99.231 102.414L102.493 108.37C107.982 106.855 112.742 102.085 117.305 96.4607L116.051 92.4902L108.269 94.4755L99.231 102.414Z" fill="#E6E6E6"/>
<path d="M96.8444 90.136H95.8414C95.8414 76.0998 92.9147 66.3155 90.0678 66.3155L89.8018 65.3242C92.3586 65.3242 93.9869 69.3947 94.9048 72.8103C96.1606 77.4409 96.8444 83.5938 96.8444 90.136Z" fill="#3F3D56"/>
<path d="M73.7499 86.6616H72.7441C72.7441 73.806 75.6895 65.8203 80.0236 65.8203L79.7735 66.8116C76.775 66.8116 73.7499 72.9488 73.7499 86.6616Z" fill="#3F3D56"/>
<path d="M98.8261 90.7828C99.0484 89.4296 98.1186 88.1545 96.7494 87.9349C95.3802 87.7152 94.09 88.6341 93.8678 89.9873C93.6455 91.3405 94.5753 92.6156 95.9445 92.8352C97.3137 93.0549 98.6039 92.136 98.8261 90.7828Z" fill="#3F3D56"/>
<path d="M69.7328 92.6142H68.7271C68.7271 89.0565 70.7544 86.1641 73.2501 86.1641V87.1554C71.3079 87.1554 69.7328 89.6061 69.7328 92.6142Z" fill="#3F3D56"/>
<path d="M77.7653 92.6142H76.7623C76.7623 89.6061 75.1845 87.1554 73.2476 87.1554V86.1641C75.7379 86.1641 77.7653 89.0565 77.7653 92.6142Z" fill="#3F3D56"/>
<path d="M77.2623 93.8518C77.8163 93.8518 78.2654 93.4079 78.2654 92.8605C78.2654 92.313 77.8163 91.8691 77.2623 91.8691C76.7084 91.8691 76.2593 92.313 76.2593 92.8605C76.2593 93.4079 76.7084 93.8518 77.2623 93.8518Z" fill="#3F3D56"/>
<path d="M69.2301 93.8518C69.7841 93.8518 70.2331 93.4079 70.2331 92.8605C70.2331 92.313 69.7841 91.8691 69.2301 91.8691C68.6761 91.8691 68.2271 92.313 68.2271 92.8605C68.2271 93.4079 68.6761 93.8518 69.2301 93.8518Z" fill="#3F3D56"/>
<path d="M56.6772 83.7344L62.943 84.8414L77.2625 104.965L69.6558 103.195L56.6772 83.7344Z" fill="#6C63FF"/>
<path d="M55.5673 83.4917C55.4262 83.4917 55.2908 83.5471 55.191 83.6457C55.0912 83.7443 55.0352 83.8781 55.0352 84.0176C55.0362 84.1186 55.0667 84.2172 55.123 84.3016L68.5086 104.372C68.5837 104.485 68.6999 104.565 68.8331 104.596L75.059 106.042C75.1639 106.067 75.2737 106.059 75.3741 106.02C75.4745 105.982 75.5607 105.914 75.6213 105.826C75.6818 105.738 75.7139 105.634 75.7133 105.527C75.7126 105.421 75.6793 105.317 75.6177 105.23L60.9205 84.575C60.8396 84.4627 60.7173 84.3862 60.5799 84.362L55.6604 83.4943C55.6296 83.49 55.5983 83.4891 55.5673 83.4917Z" fill="#3F3D56"/>
<path d="M63.916 97.8406L64.2885 101.543L70.1578 100.975C70.4038 100.951 70.6426 100.879 70.8606 100.764C71.0785 100.649 71.2714 100.492 71.4281 100.304C71.5849 100.115 71.7025 99.8972 71.7742 99.6634C71.8459 99.4296 71.8703 99.1842 71.846 98.9411C71.8217 98.698 71.7492 98.462 71.6327 98.2466C71.5161 98.0312 71.3577 97.8406 71.1666 97.6856C70.9755 97.5307 70.7554 97.4145 70.5189 97.3436C70.2823 97.2728 70.034 97.2487 69.788 97.2727L63.916 97.8406Z" fill="#FFB9B9"/>
<path d="M58.8105 97.4133C58.819 98.6762 59.3321 99.8845 60.2382 100.775C61.1442 101.666 62.3697 102.166 63.6476 102.167H64.6134L65.3158 96.3826L59.497 94.3105L58.8105 97.4133Z" fill="#E6E6E6"/>
<path d="M147.564 98.4434L145.502 100.363L144.693 99.5819L144.1 100.195L145.513 101.515L148.155 98.9955L147.564 98.4434Z" fill="#43999E"/>
<path d="M147.564 107.771L145.502 109.691L144.693 108.91L144.1 109.523L145.513 110.843L148.155 108.324L147.564 107.771Z" fill="#43999E"/>
<path d="M149.767 121.954H142.679V114.988H149.767V121.954ZM143.331 121.315H149.115V115.627H143.331V121.315Z" fill="#564F53"/>
<path d="M169.565 115.545H152.861V116.187H169.565V115.545Z" fill="#564F53"/>
<path d="M196.126 119.871H152.861V120.513H196.126V119.871Z" fill="#564F53"/>
<path d="M149.767 131.533H142.679V124.564H149.767V131.533ZM143.331 130.891H149.115V125.206H143.331V130.891Z" fill="#564F53"/>
<path d="M169.565 125.123H152.861V125.765H169.565V125.123Z" fill="#564F53"/>
<path d="M196.126 129.447H152.861V130.089H196.126V129.447Z" fill="#564F53"/>
<path d="M149.929 141.693H142.841V134.725H149.929V141.693ZM143.493 141.051H149.277V135.364H143.493V141.051Z" fill="#B83F7A"/>
<path d="M169.73 135.283H153.026V135.925H169.73V135.283Z" fill="#564F53"/>
<path d="M196.291 139.605H153.026V140.247H196.291V139.605Z" fill="#564F53"/>
<path d="M147.822 136.668L145.757 138.587L144.951 137.809L144.358 138.422L145.771 139.739L148.413 137.223L147.822 136.668Z" fill="#F6C645"/>
<path d="M149.836 151.428H142.746V144.463H149.836V151.428ZM143.397 150.789H149.184V145.102H143.397V150.789Z" fill="#B83F7A"/>
<path d="M169.634 145.02H152.93V145.661H169.634V145.02Z" fill="#564F53"/>
<path d="M196.195 149.346H152.93V149.987H196.195V149.346Z" fill="#564F53"/>
<path d="M147.726 146.41L145.664 148.33L144.858 147.549L144.262 148.161L145.678 149.481L148.317 146.962L147.726 146.41Z" fill="#F6C645"/>
<path d="M148.628 161.081H141.54V154.115H148.628V161.081ZM142.192 160.442H147.976V154.754H142.192V160.442Z" fill="#B83F7A"/>
<path d="M146.521 156.061L144.457 157.98L143.65 157.199L143.057 157.812L144.47 159.132L147.112 156.615L146.521 156.061Z" fill="#F6C645"/>
<path d="M147.604 133.086V154.174V175.263H164.31H181.019V154.174V133.086H164.31H147.604Z" fill="#B83F7A"/>
<path d="M177.392 136.135H151.153V143.305H177.392V136.135Z" fill="#552356"/>
<path d="M158.6 146.584H151.153V153.944H158.6V146.584Z" fill="#D389AD"/>
<path d="M158.6 155.736H151.153V163.096H158.6V155.736Z" fill="#D389AD"/>
<path d="M158.6 164.889H151.153V172.249H158.6V164.889Z" fill="#D389AD"/>
<path d="M167.939 146.584H160.492V153.944H167.939V146.584Z" fill="#D389AD"/>
<path d="M177.507 146.584H170.06V153.944H177.507V146.584Z" fill="#D389AD"/>
<path d="M177.507 155.584H170.06V172.247H177.507V155.584Z" fill="#E37F38"/>
<path d="M167.939 155.736H160.492V163.096H167.939V155.736Z" fill="#D389AD"/>
<path d="M167.939 164.889H160.492V172.249H167.939V164.889Z" fill="#D389AD"/>
<path d="M174.846 163.668H173.689H172.529V163.476V163.287H173.689H174.846V163.476V163.668Z" fill="#552356"/>
<path d="M174.846 164.735H173.689H172.529V164.543V164.354H173.689H174.846V164.543V164.735Z" fill="#552356"/>
<path d="M171.688 138.223C171.542 138.184 171.387 138.184 171.241 138.223C171.035 138.407 170.877 138.637 170.778 138.893C170.71 139.321 170.685 139.754 170.703 140.187C170.763 140.509 170.88 140.817 171.047 141.1C171.236 141.217 171.462 141.261 171.683 141.223C171.893 141.036 172.052 140.799 172.143 140.534C172.201 140.12 172.223 139.701 172.209 139.283C172.191 139.038 171.824 138.268 171.688 138.223Z" fill="#552356"/>
<path d="M171.486 137.749C171.294 137.747 171.105 137.793 170.936 137.883C170.768 137.972 170.624 138.103 170.52 138.261C170.247 138.703 170.115 139.217 170.142 139.734C170.121 140.243 170.246 140.747 170.504 141.188C170.599 141.343 170.733 141.472 170.894 141.561C171.054 141.65 171.235 141.696 171.419 141.695C171.617 141.701 171.812 141.655 171.986 141.562C172.16 141.47 172.307 141.335 172.412 141.169C172.671 140.715 172.793 140.197 172.763 139.676C172.789 139.18 172.673 138.687 172.428 138.253C172.33 138.094 172.191 137.964 172.026 137.875C171.86 137.787 171.674 137.743 171.486 137.749ZM171.448 141.296C171.324 141.29 171.204 141.248 171.102 141.175C171.001 141.103 170.924 141.003 170.879 140.888C170.588 140.137 170.588 139.307 170.879 138.556C170.92 138.435 171 138.33 171.105 138.257C171.211 138.183 171.337 138.145 171.466 138.147C171.595 138.149 171.72 138.192 171.823 138.268C171.926 138.345 172.002 138.452 172.039 138.574C172.181 138.934 172.245 139.319 172.228 139.705C172.246 140.101 172.18 140.496 172.034 140.864C171.991 140.986 171.913 141.092 171.808 141.169C171.704 141.246 171.578 141.29 171.448 141.296Z" fill="white"/>
<path d="M167.497 138.257L167.548 138.454L167.598 138.651L167.933 138.473L168.269 138.294H168.277H168.282V139.961V141.628H168.535H168.787V139.719V137.812H168.564H168.34L167.92 138.033L167.497 138.257Z" fill="white"/>
<path d="M174.734 138.223C174.589 138.184 174.435 138.184 174.29 138.223C174.083 138.407 173.924 138.637 173.824 138.893C173.757 139.321 173.732 139.755 173.75 140.187C173.81 140.509 173.926 140.817 174.093 141.1C174.282 141.217 174.509 141.261 174.729 141.223C174.94 141.036 175.098 140.799 175.189 140.534C175.247 140.12 175.269 139.701 175.256 139.283C175.24 139.038 174.865 138.268 174.734 138.223Z" fill="#552356"/>
<path d="M174.532 137.747C174.34 137.745 174.152 137.792 173.983 137.881C173.814 137.971 173.671 138.101 173.566 138.259C173.293 138.702 173.162 139.215 173.188 139.732C173.168 140.241 173.294 140.745 173.55 141.186C173.645 141.342 173.78 141.47 173.94 141.559C174.101 141.648 174.282 141.694 174.466 141.693C174.663 141.699 174.858 141.653 175.032 141.561C175.206 141.468 175.353 141.333 175.458 141.168C175.718 140.713 175.839 140.195 175.809 139.674C175.835 139.178 175.72 138.686 175.477 138.252C175.379 138.092 175.239 137.961 175.073 137.873C174.907 137.784 174.721 137.741 174.532 137.747ZM174.497 141.294C174.372 141.288 174.252 141.246 174.15 141.174C174.049 141.102 173.971 141.002 173.925 140.886C173.635 140.135 173.635 139.305 173.925 138.554C173.967 138.433 174.046 138.329 174.151 138.255C174.257 138.182 174.383 138.143 174.512 138.145C174.641 138.147 174.766 138.19 174.869 138.266C174.972 138.343 175.048 138.45 175.085 138.572C175.229 138.932 175.293 139.317 175.274 139.703C175.292 140.099 175.226 140.494 175.08 140.863C175.038 140.984 174.96 141.09 174.856 141.167C174.752 141.244 174.627 141.288 174.497 141.294Z" fill="white"/>
<path d="M139.098 132.174C136.69 135.237 130.443 138.193 124.565 138.222C124.565 138.295 124.624 139.418 124.712 153.21C125.858 162.765 130.658 167.89 139.228 172.844C146.034 169.176 153.29 162.655 153.635 153.144L153.345 138.216C146.992 137.296 142.07 135.129 139.098 132.174Z" fill="#145A7B"/>
<path d="M143.235 147.848L137.267 153.64L134.934 151.287L133.212 153.136L137.304 157.114L144.94 149.517L143.235 147.848Z" fill="white"/>
<path d="M139.098 128.771C136.286 132.345 128.988 135.797 122.137 135.821C122.137 135.905 122.206 137.217 122.304 153.318C123.635 164.469 129.249 170.454 139.25 176.234C147.197 171.955 155.663 164.343 156.065 153.241L155.724 135.821C148.315 134.751 142.557 132.221 139.098 128.771ZM139.229 172.836C130.659 167.882 125.859 162.757 124.712 153.202C124.624 139.405 124.577 138.282 124.566 138.214C130.443 138.196 136.69 135.24 139.098 132.166C142.078 135.122 147 137.288 153.346 138.214L153.636 153.141C153.282 162.647 146.016 169.168 139.221 172.836H139.229Z" fill="#2194C1"/>
<g clip-path="url(#clip0_6030_103105)">
<path d="M83.4367 56.4929C82.8758 56.0392 82.1992 55.7503 81.4828 55.6584C80.7926 55.6254 80.104 55.751 79.4702 56.0254C80.0558 55.5705 80.7797 55.3288 81.5219 55.3402C82.2563 55.3995 82.9629 55.6466 83.5735 56.0578L83.4367 56.4929Z" fill="#7C431D"/>
<path d="M86.0682 60.7695C85.6598 60.9706 85.2186 61.097 84.7655 61.1429C84.3059 61.1134 83.8551 61.0034 83.4336 60.8182C83.4336 60.8182 84.0654 61.7144 84.7818 61.7924C85.4983 61.8703 86.0682 60.7695 86.0682 60.7695Z" fill="#BA7343"/>
<path d="M85.9675 56.4211C86.5337 55.9857 87.2102 55.7159 87.9214 55.6418C88.6128 55.6259 89.2984 55.7704 89.9242 56.0639C89.3337 55.5951 88.6045 55.3338 87.8498 55.3203C87.1371 55.3499 86.4492 55.5895 85.873 56.0087L85.9675 56.4211Z" fill="#7C431D"/>
<path d="M81.1832 57.8654C81.1927 57.9903 81.2395 58.1096 81.3177 58.2077C81.3958 58.3059 81.5017 58.3784 81.6216 58.416C81.7415 58.4535 81.87 58.4544 81.9904 58.4184C82.1108 58.3824 82.2176 58.3113 82.297 58.2142C82.3765 58.117 82.4249 57.9984 82.436 57.8736C82.4471 57.7487 82.4205 57.6235 82.3595 57.5139C82.2984 57.4043 82.2059 57.3155 82.0937 57.2589C81.9816 57.2023 81.855 57.1806 81.7303 57.1965C81.5709 57.2176 81.4255 57.2985 81.3238 57.4228C81.2222 57.5471 81.1719 57.7054 81.1832 57.8654Z" fill="#3D3F0B"/>
<path d="M83.5379 57.944C83.5379 57.944 82.7628 56.9309 81.6588 56.9698C80.5548 57.0088 80.5907 57.3952 80.2976 57.3498C80.1183 57.3175 79.9547 57.2273 79.8319 57.0932C79.9008 57.2995 80.0315 57.4797 80.2064 57.6095C80.0919 57.6713 79.9585 57.6886 79.8319 57.6582C79.6678 57.6303 79.5196 57.5437 79.415 57.4147C79.415 57.4147 79.6007 57.9245 79.9621 57.8888C80.3236 57.853 80.8577 57.2848 81.509 57.301C82.2353 57.3033 82.9435 57.5277 83.5379 57.944Z" fill="#30251B"/>
<path d="M88.3708 57.7107C88.3708 57.8345 88.334 57.9555 88.2651 58.0585C88.1962 58.1615 88.0982 58.2418 87.9836 58.2894C87.8689 58.3369 87.7427 58.3495 87.6209 58.3256C87.499 58.3017 87.387 58.2423 87.299 58.155C87.211 58.0677 87.1509 57.9563 87.1262 57.8349C87.1016 57.7136 87.1136 57.5877 87.1607 57.4731C87.2078 57.3586 87.2878 57.2605 87.3907 57.1912C87.4937 57.122 87.6149 57.0847 87.739 57.084C87.822 57.0832 87.9043 57.0988 87.9811 57.1299C88.0579 57.161 88.1277 57.2071 88.1865 57.2654C88.2453 57.3238 88.2919 57.3932 88.3236 57.4696C88.3552 57.5461 88.3713 57.628 88.3708 57.7107Z" fill="#3D3F0B"/>
<path d="M86.0225 58.0288C86.0225 58.0288 86.6738 56.941 87.7875 56.8631C88.9013 56.7852 88.898 57.1878 89.1846 57.0969C89.3595 57.047 89.513 56.9409 89.621 56.7949C89.5728 57.0101 89.4591 57.2052 89.2953 57.3534C89.4169 57.3999 89.5515 57.3999 89.6731 57.3534C89.8341 57.3092 89.9732 57.2075 90.0639 57.0677C90.0639 57.0677 89.9304 57.5937 89.5689 57.5937C89.2074 57.5937 88.6343 57.0872 87.9895 57.1651C87.26 57.2434 86.5728 57.5451 86.0225 58.0288Z" fill="#30251B"/>
<path d="M86.9801 62.5938C86.7477 62.9517 86.4341 63.2501 86.0647 63.465C85.6953 63.6799 85.2805 63.8052 84.8536 63.8309C83.4988 63.8861 82.8149 62.6165 82.8149 62.6165C82.8149 62.6165 84.2967 63.1685 85.0946 63.0321C85.8924 62.8957 86.9801 62.5938 86.9801 62.5938Z" fill="#A03227"/>
<path d="M87.0451 62.5098C86.7586 62.604 86.4576 62.6468 86.1561 62.6364C85.9281 62.6039 85.5959 62.565 85.4657 62.5617C85.2429 62.5631 85.0267 62.6372 84.8502 62.7728C84.7011 62.6761 84.5337 62.6109 84.3584 62.5812C84.1387 62.5928 83.9206 62.6254 83.7071 62.6786C83.3986 62.7129 83.0863 62.6797 82.792 62.5812C82.792 62.5812 83.059 63.2501 84.8371 63.2306C86.6152 63.2111 87.0451 62.5098 87.0451 62.5098Z" fill="#7F271B"/>
</g>
<defs>
<clipPath id="clip0_6030_103105">
<rect width="10.6328" height="8.51056" fill="white" transform="translate(79.4248 55.3203)"/>
</clipPath>
</defs>
</svg>
