<svg width="29" height="35" viewBox="0 0 29 35" fill="none" xmlns="http://www.w3.org/2000/svg">
    <path d="M12.031 19.477H7.738V14.35h4.293v-4.274h5.152v4.274h4.294v5.128h-4.294v4.274h-5.152v-4.274zM14.607.673.87 5.8v10.411c0 8.633 5.856 16.685 13.738 18.65 7.883-1.965 13.739-10.017 13.739-18.65V5.802L14.607.671zm10.304 15.54a15.916 15.916 0 0 1-2.772 9.156 16.028 16.028 0 0 1-7.532 5.938 16.01 16.01 0 0 1-7.535-5.935 15.898 15.898 0 0 1-2.768-9.16V8.178L14.607 4.33l10.304 3.847v8.034z" fill="#A6A6A6"/>
</svg>
