<svg width="34" height="38" viewBox="0 0 34 38" fill="none" xmlns="http://www.w3.org/2000/svg">
    <g clip-path="url(#9zgx59iq0a)">
        <path d="M33.576 10.55a8.64 8.64 0 0 1-1.59 5.243c-1.886 2.565-2.353 5.469-2.747 8.462-.429 3.23-1.02 6.448-1.714 9.638-.472 2.148-1.959 3.173-3.99 3.14-1.92-.032-3.317-1.261-3.857-3.352-.673-2.643-1.341-5.289-2.066-7.915-.111-.408-.51-.735-.775-1.103-.296.368-.746.699-.857 1.111-.763 2.724-1.445 5.469-2.178 8.2-.522 1.965-1.988 3.055-3.968 3.055a3.874 3.874 0 0 1-2.51-.886 3.538 3.538 0 0 1-1.257-2.254 392.614 392.614 0 0 1-2.053-12.252A13.439 13.439 0 0 0 1.83 16.17C-.674 12.342-.524 8.442 1.816 4.66 4.619.15 10.074-1 14.646 1.908c1.333.841 2.328 1.458 3.943.25 6.27-4.681 13.616.118 14.713 6.194.132.711.184 1.458.274 2.197zM9.624 32.602l.351-.028c.086-.253.189-.502.262-.76.694-2.544 1.333-5.08 2.095-7.596a4.42 4.42 0 0 1 1.685-2.416 4.8 4.8 0 0 1 2.892-.904 4.977 4.977 0 0 1 2.876 1.097 4.58 4.58 0 0 1 1.59 2.534c.63 2.405 1.23 4.815 1.851 7.224.073.294.176.58.262.874h.428c.429-2.5 1.016-4.986 1.286-7.502.428-4.129 1.157-8.074 3.621-11.68 2.023-2.957.429-7.282-2.875-8.952a4.412 4.412 0 0 0-2.83-.434 4.276 4.276 0 0 0-2.472 1.386c.206.305.388.625.545.955.317.776.193 1.589-.515 2.018a3.79 3.79 0 0 1-1.958.339c-.373 0-.754-.347-1.114-.568-1.882-1.172-3.754-2.356-5.631-3.533a4.075 4.075 0 0 0-2.095-.692 4.104 4.104 0 0 0-2.157.492c-3.531 1.72-4.817 6.102-2.674 9.5 1.243 1.972 2.323 3.99 2.717 6.268.309 1.773.429 3.578.694 5.358.343 2.345.767 4.676 1.166 7.012v.008z" fill="#A6A6A6"/>
    </g>
    <defs>
        <clipPath id="9zgx59iq0a">
            <path fill="#fff" transform="translate(0 .254)" d="M0 0h33.577v36.767H0z"/>
        </clipPath>
    </defs>
</svg>
