<svg width="67" height="72" viewBox="0 0 67 72" fill="none" xmlns="http://www.w3.org/2000/svg">
    <path d="M33.189 8.458c1.714 0 3.39.549 4.816 1.576 1.426 1.027 2.537 2.487 3.193 4.196.656 1.708.828 3.588.493 5.401-.334 1.814-1.16 3.48-2.372 4.787-1.213 1.307-2.757 2.198-4.439 2.558a8.085 8.085 0 0 1-5.009-.532c-1.584-.707-2.938-1.905-3.89-3.443a9.878 9.878 0 0 1-1.461-5.194c0-2.48.913-4.857 2.539-6.61 1.626-1.754 3.83-2.739 6.13-2.739zm0 40.067c12.384 0 25.181 6.5 25.181 9.349v4.896H8.007v-4.897c0-2.849 12.921-9.348 25.182-9.348zm0-48.525c-3.266 0-6.459 1.044-9.174 3.001-2.716 1.957-4.832 4.738-6.082 7.992a19.109 19.109 0 0 0-.94 10.288c.638 3.454 2.21 6.627 4.52 9.118 2.31 2.49 5.251 4.186 8.454 4.873a15.4 15.4 0 0 0 9.54-1.013c3.018-1.348 5.597-3.63 7.411-6.559 1.815-2.928 2.783-6.37 2.783-9.893 0-4.722-1.74-9.252-4.836-12.591C41.768 1.876 37.568 0 33.189 0zm0 40.066C22.167 40.066.164 46.032.164 57.873V71.23h66.05V57.874c0-11.842-22.003-17.808-33.025-17.808z" fill="#D75426"/>
</svg>
