<svg width="126" height="28" viewBox="0 0 126 28" fill="none" xmlns="http://www.w3.org/2000/svg">
<g clip-path="url(#clip0_463_7323)">
<path d="M93.979 17.3564C92.5933 17.3828 91.4892 16.2566 91.4474 14.7983C91.3968 13.0233 92.5713 11.7652 94.3068 11.7344C94.6415 11.7332 94.9731 11.7982 95.2827 11.9257C95.5922 12.0531 95.8735 12.2404 96.1104 12.4769C96.3473 12.7134 96.5351 12.9944 96.6631 13.3037C96.791 13.613 96.8566 13.9445 96.856 14.2792C96.9044 16.0367 95.6925 17.3322 93.979 17.3564Z" fill="#D75426"/>
<path d="M32.5683 17.3561C31.1606 17.3781 30.0411 16.2278 30.0279 14.7431C30.0125 12.9835 31.1892 11.7605 32.907 11.7363C33.2465 11.7369 33.5825 11.8049 33.8954 11.9366C34.2083 12.0683 34.4918 12.261 34.7295 12.5034C34.9672 12.7458 35.1543 13.0331 35.2798 13.3485C35.4053 13.6639 35.4668 14.0011 35.4607 14.3406C35.4673 16.076 34.2597 17.3363 32.5683 17.3561Z" fill="#D75426"/>
<path d="M14.1451 5.18816C13.8284 5.06499 13.4853 5.0122 13.1576 4.91542C12.2858 4.67873 11.5085 4.17866 10.9316 3.48353C10.2432 2.63231 9.72849 1.67772 9.65811 0.540566C9.64051 0.263425 9.55034 -0.0247082 9.18082 0.00168607C8.8113 0.0280804 8.83988 0.31182 8.7827 0.573564C8.64193 1.23342 8.55175 1.93287 8.28341 2.55314C7.57516 4.17419 6.19166 4.92422 4.52222 5.20796C4.22308 5.25855 3.97454 5.32233 3.81837 5.58848C3.76627 5.69805 3.72216 5.81126 3.6864 5.92721C3.78318 5.9448 3.87996 5.9558 3.97454 5.98219C4.06239 6.00599 4.1484 6.03613 4.23189 6.07237C4.41665 6.14716 4.597 6.23294 4.78616 6.29233C5.38223 6.51228 5.9981 6.67504 6.57218 6.93238C7.8391 7.50426 8.99165 8.86577 8.7717 10.5484C8.7585 10.8673 8.90587 11.0829 9.14782 11.0983C9.27736 11.0815 9.39656 11.0187 9.48375 10.9214C9.57093 10.8241 9.62032 10.6988 9.62292 10.5682C9.6253 9.99902 9.74824 9.43679 9.98364 8.91856C10.4252 7.91431 11.2117 7.10129 12.2008 6.62665C12.777 6.34511 13.4281 6.22194 14.0286 5.98219C14.2088 5.88948 14.3478 5.7325 14.4179 5.54229C14.4487 5.46531 14.2705 5.23655 14.1451 5.18816ZM11.7851 5.83262C10.8913 6.34756 10.1216 7.05264 9.53054 7.89798C9.46675 7.99256 9.37877 8.06954 9.19621 8.27409C9.16387 8.16715 9.11726 8.06505 9.05764 7.97056C8.6822 7.51978 8.282 7.09022 7.8589 6.68384C7.57736 6.4331 7.19904 6.30112 6.86252 6.09877C6.70823 5.99057 6.56127 5.87226 6.42261 5.74464C6.52919 5.60796 6.65261 5.48528 6.78993 5.37952C7.75633 4.84254 8.54113 4.03018 9.04444 3.04583C9.10685 2.94997 9.18071 2.86207 9.26439 2.78408C9.35496 2.84651 9.43704 2.92045 9.50854 3.00404C10.1024 3.93224 10.8085 4.73726 11.8202 5.23436C11.8845 5.27124 11.9408 5.32059 11.9857 5.37951C12.0307 5.43844 12.0634 5.50574 12.082 5.57748C12.0842 5.64347 11.8972 5.76444 11.7851 5.83262Z" fill="#D75426"/>
<path d="M8.56495 13.9809C8.3054 13.8797 8.02387 13.8379 7.75553 13.7609C7.04145 13.5661 6.40475 13.156 5.93212 12.5864C5.36904 11.8891 4.94673 11.1083 4.88954 10.1779C4.87635 9.95794 4.80156 9.7138 4.49803 9.73799C4.1945 9.76219 4.21869 9.99094 4.1725 10.2065C4.08975 10.7575 3.95271 11.2991 3.76339 11.8231C3.18491 13.1429 2.05216 13.7631 0.684056 13.9963C0.570089 13.9988 0.458362 14.0284 0.358141 14.0827C0.25792 14.1371 0.172094 14.2145 0.107781 14.3086C0.0641004 14.3978 0.0280416 14.4905 0 14.5857C0.0769833 14.6011 0.156166 14.6099 0.233149 14.6297C0.308072 14.6497 0.381558 14.6747 0.453101 14.7045C0.604869 14.7661 0.754438 14.8365 0.908405 14.8915C1.3967 15.0674 1.90039 15.2038 2.37109 15.4172C3.40706 15.8835 4.35066 17.0008 4.1725 18.3777C4.1615 18.6395 4.28247 18.8176 4.48043 18.8286C4.58813 18.8162 4.68743 18.7644 4.75928 18.6832C4.83113 18.602 4.87047 18.4971 4.86975 18.3887C4.87153 17.9228 4.97198 17.4625 5.16449 17.0382C5.52671 16.216 6.17115 15.5505 6.98129 15.162C7.45199 14.9421 7.98648 14.8299 8.47917 14.6341C8.62713 14.5569 8.74031 14.4264 8.7959 14.269C8.8113 14.2074 8.66833 14.0205 8.56495 13.9809ZM6.63156 14.5088C5.90012 14.9307 5.26958 15.5072 4.78397 16.198C4.69881 16.3056 4.60776 16.4084 4.51123 16.5059C4.485 16.4185 4.44727 16.3349 4.39905 16.2574C4.09141 15.888 3.76316 15.5362 3.41586 15.2038C3.15854 15.0183 2.8855 14.8557 2.59984 14.7177C2.47308 14.6284 2.35188 14.5314 2.23692 14.4274C2.32435 14.3154 2.4256 14.2149 2.53825 14.1282C3.3299 13.689 3.97245 13.0234 4.38365 12.2169C4.43389 12.1372 4.49291 12.0634 4.55962 11.9969C4.63445 12.0499 4.70178 12.1128 4.75977 12.1839C5.24587 12.9427 5.82435 13.6026 6.65137 14.0095C6.70568 14.0384 6.75332 14.0784 6.79121 14.1269C6.82909 14.1754 6.85639 14.2313 6.87132 14.291C6.87792 14.3548 6.72394 14.4538 6.63156 14.5088Z" fill="#D75426"/>
<path d="M125.487 17.0094C125.177 16.8862 124.841 16.8356 124.519 16.741C123.663 16.5089 122.9 16.018 122.333 15.3355C121.66 14.4997 121.152 13.5649 121.084 12.4476C121.066 12.1748 120.978 11.8933 120.615 11.9175C120.252 11.9417 120.281 12.2232 120.226 12.4805C120.085 13.1404 120.006 13.8135 119.733 14.4161C119.04 16.0064 117.683 16.7432 116.045 17.0226C115.75 17.071 115.506 17.1347 115.354 17.3965C115.301 17.5033 115.258 17.6144 115.224 17.7286C115.317 17.7462 115.413 17.7572 115.506 17.7814C115.591 17.8051 115.675 17.8345 115.757 17.8694C115.939 17.9442 116.117 18.0299 116.302 18.0893C116.887 18.2983 117.492 18.4633 118.062 18.7184C119.304 19.2771 120.437 20.6144 120.219 22.2662C120.206 22.5786 120.351 22.7897 120.589 22.8051C120.716 22.7893 120.834 22.7281 120.92 22.6328C121.006 22.5375 121.055 22.4144 121.057 22.286C121.059 21.7269 121.179 21.1744 121.409 20.665C121.845 19.6805 122.617 18.8835 123.587 18.4171C124.152 18.1399 124.792 18.019 125.382 17.7858C125.559 17.6916 125.694 17.5347 125.762 17.3459C125.784 17.2821 125.61 17.0556 125.487 17.0094ZM123.171 17.6428C122.295 18.1477 121.54 18.8375 120.958 19.6642C120.856 19.7934 120.747 19.9168 120.631 20.0337C120.599 19.9286 120.554 19.828 120.497 19.7346C120.127 19.293 119.734 18.8723 119.318 18.4743C119.04 18.2279 118.658 18.0981 118.339 17.898C118.185 17.7917 118.038 17.6757 117.899 17.5505C118.003 17.4167 118.125 17.297 118.26 17.1941C119.208 16.6664 119.978 15.8687 120.472 14.9022C120.536 14.8086 120.61 14.7223 120.692 14.6449C120.782 14.7077 120.863 14.7816 120.934 14.8648C121.517 15.7754 122.208 16.5673 123.202 17.0534C123.265 17.0897 123.32 17.1382 123.363 17.1959C123.407 17.2537 123.439 17.3197 123.457 17.3899C123.466 17.4559 123.281 17.5768 123.171 17.6428Z" fill="#D75426"/>
<path d="M113.436 4.67781C113.163 4.65327 112.888 4.64519 112.613 4.65362H21.0758C20.781 4.65362 20.4885 4.65362 20.196 4.65362C16.9605 4.7284 14.1033 7.18087 13.7514 10.269C13.2983 14.2281 12.9024 18.2137 12.4998 22.186C12.3283 23.8797 13.1333 24.7507 14.8225 24.7507H106.745C107.093 24.7507 107.442 24.7507 107.79 24.7287C110.849 24.5197 113.55 22.0299 113.872 19.0935C114.311 15.0134 114.751 10.9311 115.174 6.85094C115.228 6.33296 115.076 5.81439 114.751 5.4076C114.426 5.00082 113.953 4.73861 113.436 4.67781Z" fill="#D75426"/>
<path d="M25.0086 15.6844L24.6522 18.3238C24.488 19.5423 24.0122 20.4375 23.2247 21.0094C22.4373 21.5813 21.405 21.8687 20.1278 21.8716C18.9973 21.8716 18.1174 21.5586 17.4884 20.9324C16.8593 20.3063 16.6247 19.4126 16.7845 18.2512L17.6643 11.7604C17.8506 10.3747 18.3051 9.33655 19.0281 8.6459C19.751 7.95525 20.784 7.60992 22.1272 7.60992C22.631 7.60264 23.1332 7.66783 23.6185 7.80348C24.0367 7.92159 24.428 8.11952 24.771 8.38636C25.0989 8.64905 25.3446 9.00016 25.4793 9.39814C25.6329 9.86369 25.6714 10.3595 25.5914 10.8432L25.2549 13.3133H22.1118L22.3317 11.69C22.4461 10.852 22.2482 10.4341 21.7423 10.4341C21.6216 10.4224 21.4999 10.4419 21.3889 10.4908C21.278 10.5397 21.1815 10.6164 21.1088 10.7134C20.9712 10.9482 20.8864 11.2102 20.8603 11.4811L19.9804 18.0929C19.9364 18.3468 19.9725 18.6082 20.0838 18.8407C20.1251 18.9364 20.1941 19.0175 20.2819 19.0735C20.3698 19.1296 20.4724 19.158 20.5765 19.1552C20.7878 19.1524 20.9899 19.069 21.1418 18.9221C21.3458 18.6914 21.4652 18.3982 21.4805 18.0907L21.8039 15.6844H25.0086Z" fill="white"/>
<path d="M25.8093 17.9313L26.7067 11.2645C26.865 10.1003 27.3108 9.197 28.044 8.55474C28.7771 7.91248 29.7955 7.58108 31.0991 7.56055C32.4335 7.57521 33.3815 7.90294 33.9431 8.54373C34.5047 9.18453 34.7063 10.0871 34.548 11.2513L33.6484 17.9159C33.5794 18.4469 33.435 18.9654 33.2195 19.4556C33.0125 19.916 32.7275 20.3372 32.377 20.7005C32.0015 21.0804 31.5441 21.3693 31.0397 21.5451C30.4592 21.7506 29.8449 21.8439 29.2295 21.8201C28.6199 21.8551 28.0096 21.7637 27.4369 21.5517C26.9963 21.3847 26.6141 21.0927 26.3371 20.7115C26.0807 20.3387 25.9081 19.9147 25.8312 19.4688C25.7432 18.9606 25.7357 18.4418 25.8093 17.9313ZM29.5704 19.0905C29.6782 19.0918 29.7848 19.0693 29.8828 19.0245C29.9779 18.9792 30.0592 18.9094 30.1181 18.8221C30.1767 18.7397 30.2289 18.6529 30.2743 18.5626C30.3234 18.4581 30.3595 18.348 30.3821 18.2348C30.4129 18.097 30.4349 17.9914 30.448 17.9181C30.4612 17.8455 30.4744 17.7443 30.492 17.6146L30.503 17.5442L31.2597 11.9244C31.2597 11.8892 31.2751 11.8188 31.2927 11.7045C31.3103 11.5901 31.3213 11.5197 31.3257 11.4669C31.3301 11.4141 31.3257 11.3371 31.3477 11.236C31.3573 11.1571 31.3573 11.0773 31.3477 10.9984C31.3477 10.9434 31.3323 10.873 31.3235 10.7785C31.3183 10.71 31.2972 10.6437 31.2619 10.5849C31.2291 10.5364 31.1931 10.4901 31.1541 10.4463C31.1116 10.3946 31.0539 10.3576 30.9891 10.3407C30.912 10.3229 30.8329 10.3155 30.7538 10.3188C30.638 10.3174 30.523 10.3383 30.4151 10.3803C30.3159 10.4228 30.2301 10.4912 30.1665 10.5783C30.1005 10.6707 30.0455 10.7521 29.9994 10.8246C29.9425 10.9258 29.903 11.0359 29.8828 11.1502C29.852 11.2931 29.8322 11.3965 29.8234 11.4581L29.7816 11.7682V11.8298V11.8826L29.0228 17.5024C29.0052 17.6322 28.992 17.7355 28.9854 17.8103C28.9788 17.8851 28.97 17.9973 28.9634 18.1447C28.9529 18.2638 28.9596 18.3838 28.9832 18.501C29.0052 18.5982 29.0362 18.6932 29.0755 18.7847C29.1125 18.8777 29.18 18.9552 29.2669 19.0047C29.359 19.0589 29.4636 19.0884 29.5704 19.0905Z" fill="white"/>
<path d="M42.1912 21.6733H39.3318L38.9359 11.5929L37.5722 21.6821H34.5193L36.4065 7.69313H41.2454L41.5996 14.9868L43.9157 7.67773H48.803L46.9158 21.6667H43.8255L45.187 11.5775L42.1912 21.6733Z" fill="white"/>
<path d="M48.4863 21.6628L50.3757 7.67383H53.4551L51.5679 21.6628H48.4863Z" fill="white"/>
<path d="M62.8228 7.65259L60.9356 21.6416H57.8277L57.1811 14.6449L56.2374 21.6438H53.1295L55.0167 7.65479H58.2874L58.8483 14.3435L59.7501 7.65039L62.8228 7.65259Z" fill="white"/>
<path d="M68.9111 21.6257L68.5306 20.4357C68.2074 20.8713 67.7835 21.2222 67.2951 21.4581C66.8067 21.6941 66.2683 21.8082 65.7262 21.7906C63.4328 21.7906 62.4797 20.3492 62.8668 17.4664L63.6894 11.4177C63.7602 10.8167 63.9305 10.2317 64.1931 9.68664C64.3925 9.25917 64.67 8.87274 65.0114 8.54729C65.3196 8.27407 65.6742 8.05806 66.0583 7.90942C66.404 7.76671 66.7649 7.66413 67.1339 7.60369C67.4707 7.55823 67.8102 7.53618 68.1501 7.5377C68.5508 7.53242 68.9512 7.5626 69.3466 7.62788C69.916 7.71005 70.4481 7.95964 70.8753 8.34493C71.0561 8.51003 71.1975 8.71376 71.2888 8.941C71.3834 9.16768 71.457 9.40254 71.5087 9.64264C71.5634 9.91703 71.5877 10.1966 71.5813 10.4763C71.5813 10.8018 71.5681 11.1031 71.5461 11.3847C71.5242 11.6662 71.4846 11.9961 71.434 12.3767H68.3986L68.5482 11.2769C68.578 11.0933 68.578 10.9062 68.5482 10.7226C68.5343 10.6031 68.4772 10.4928 68.3876 10.4125C68.3227 10.358 68.2481 10.3162 68.1677 10.2893C68.0896 10.2678 68.0089 10.2574 67.9279 10.2585C67.7782 10.2551 67.6292 10.2789 67.488 10.3289C67.3649 10.3692 67.2552 10.4427 67.171 10.5413C67.0868 10.6398 67.0313 10.7596 67.0107 10.8876C66.9587 11.0595 66.9169 11.2343 66.8854 11.4111C66.8568 11.5738 66.8194 11.8334 66.7732 12.1831L66.0341 17.5763C66.0084 17.7475 65.993 17.9202 65.9879 18.0932C65.9843 18.2468 65.9984 18.4003 66.0297 18.5507C66.0523 18.6984 66.1311 18.8316 66.2497 18.9224C66.4345 19.0376 66.6566 19.077 66.8697 19.0323C67.0828 18.9876 67.2705 18.8624 67.3934 18.6827C67.5654 18.3132 67.6711 17.9164 67.7058 17.5103L67.9257 15.8959H67.0767L67.4022 13.4764H71.2514L70.1516 21.6147L68.9111 21.6257Z" fill="white"/>
<path d="M78.9057 21.6865C77.4393 21.6865 76.4312 21.3603 75.8813 20.7078C75.3315 20.0552 75.154 19.0435 75.3491 17.6724L75.5338 16.3021H78.6769L78.5076 17.558C78.3859 18.4598 78.5779 18.91 79.0838 18.9085C79.1957 18.9103 79.3067 18.8876 79.4089 18.8421C79.5111 18.7965 79.6021 18.7291 79.6755 18.6446C79.8427 18.4495 79.9456 18.2075 79.9703 17.9518C80.0237 17.6362 80.0139 17.3133 79.9417 17.0016C79.8676 16.7294 79.7381 16.4755 79.5611 16.2559C79.2751 15.9159 78.9673 15.5948 78.6395 15.2947L77.4452 14.1642C76.4833 13.2609 76.0793 12.2345 76.2333 11.0848C76.4019 9.8443 76.8535 8.92051 77.5882 8.31344C78.3228 7.70637 79.2627 7.40137 80.408 7.39844H80.9666C81.3449 7.41164 81.7195 7.47752 82.0796 7.59419C82.5104 7.71731 82.9045 7.94384 83.2277 8.25405C83.5685 8.60422 83.7921 9.0515 83.8678 9.53417C83.9742 10.1993 83.9742 10.8772 83.8678 11.5423H80.6433L80.7379 10.6999C80.7458 10.6228 80.7364 10.545 80.7106 10.472C80.6847 10.3989 80.6429 10.3326 80.5883 10.2776C80.5353 10.2196 80.4708 10.1734 80.3988 10.1419C80.3268 10.1105 80.249 10.0945 80.1704 10.0951C79.9668 10.0931 79.7684 10.1597 79.6073 10.2842C79.5291 10.3422 79.4633 10.4153 79.4138 10.4992C79.3643 10.583 79.3321 10.676 79.3192 10.7725C79.2664 11.1714 79.5062 11.6039 80.0384 12.0702L81.7585 13.5769C82.021 13.8033 82.2611 14.0545 82.4755 14.3269C82.6557 14.5573 82.8037 14.8111 82.9154 15.0814C83.0085 15.3016 83.0886 15.527 83.1552 15.7566C83.214 15.9716 83.2429 16.1936 83.2409 16.4165C83.2409 16.654 83.2409 16.8322 83.2277 16.9532C83.2146 17.0741 83.1992 17.2303 83.1728 17.4217C83.1155 17.8749 83.022 18.3228 82.8934 18.7612C82.7705 19.167 82.6 19.5568 82.3853 19.9225C82.1803 20.2777 81.9128 20.5928 81.5957 20.8529C81.254 21.1209 80.8654 21.323 80.4497 21.449C79.9502 21.6067 79.4295 21.6868 78.9057 21.6865Z" fill="white"/>
<path d="M84.09 17.7436L84.9896 11.079C85.145 9.91325 85.5901 9.00998 86.3247 8.36919C87.0593 7.72839 88.0777 7.397 89.3798 7.375C90.7157 7.39113 91.6637 7.71886 92.2238 8.35819C92.784 8.99752 92.9856 9.90005 92.8287 11.0658L91.9313 17.7304C91.8609 18.2659 91.7127 18.7883 91.4914 19.281C91.2845 19.7403 91.0003 20.1607 90.6512 20.5238C90.2764 20.9046 89.8187 21.1937 89.3138 21.3684C88.7327 21.5746 88.1177 21.6686 87.5014 21.6455C86.8917 21.6786 86.2816 21.5865 85.7088 21.375C85.2682 21.208 84.886 20.9159 84.6091 20.5348C84.353 20.1625 84.1804 19.7394 84.1032 19.2942C84.018 18.7812 84.0135 18.258 84.09 17.7436ZM87.8534 18.8961C87.9604 18.8977 88.0664 18.8751 88.1635 18.8301C88.2585 18.7847 88.3397 18.7149 88.3988 18.6278C88.4578 18.5456 88.51 18.4588 88.555 18.3682C88.6044 18.2631 88.6406 18.1523 88.6628 18.0383C88.6936 17.9019 88.7156 17.7963 88.7288 17.7216C88.742 17.649 88.7574 17.5478 88.775 17.4202V17.3498L89.5338 11.7301C89.5338 11.6949 89.5448 11.6216 89.5668 11.5101C89.5822 11.4045 89.5932 11.3253 89.5976 11.2726C89.602 11.2198 89.5976 11.1428 89.6196 11.0394C89.6279 10.9604 89.6279 10.8808 89.6196 10.8019C89.6196 10.7469 89.602 10.6765 89.5932 10.5929C89.5877 10.5248 89.5675 10.4588 89.5338 10.3993C89.503 10.3554 89.4678 10.3092 89.426 10.2586C89.3815 10.2082 89.3235 10.1716 89.2589 10.153C89.1806 10.1325 89.1 10.1229 89.0191 10.1244C88.9039 10.1219 88.7894 10.1429 88.6826 10.186C88.5828 10.2273 88.4966 10.2959 88.434 10.3839C88.368 10.4741 88.3109 10.5555 88.2647 10.6303C88.2106 10.7394 88.1757 10.8569 88.1613 10.9778C88.1305 11.1208 88.1107 11.222 88.1019 11.2836L88.0601 11.5959V11.6575V11.7103L87.2815 17.3256C87.2639 17.4554 87.2529 17.5566 87.2463 17.6336C87.2397 17.7106 87.2309 17.8205 87.2221 17.9657C87.2137 18.0848 87.2204 18.2046 87.2419 18.322C87.266 18.4194 87.2968 18.5149 87.3343 18.608C87.3712 18.7009 87.4387 18.7785 87.5256 18.8279C87.6267 18.8797 87.74 18.9033 87.8534 18.8961Z" fill="white"/>
<path d="M93.1234 17.7282L94.023 11.0636C94.1799 9.89054 94.625 8.98653 95.3581 8.3516C96.0913 7.71668 97.1097 7.38528 98.4133 7.35742C99.7476 7.37209 100.696 7.69981 101.257 8.34061C101.819 8.9814 102.02 9.88394 101.862 11.0482L100.965 17.7128C100.895 18.2484 100.746 18.7708 100.525 19.2634C100.318 19.7234 100.034 20.1444 99.6846 20.5084C99.3087 20.8877 98.8514 21.1766 98.3473 21.353C97.7662 21.5593 97.151 21.6526 96.5349 21.6279C95.9311 21.6603 95.3271 21.569 94.7599 21.3596C94.3153 21.1944 93.929 20.9023 93.6491 20.5194C93.3927 20.1465 93.2201 19.7226 93.1432 19.2766C93.0558 18.7647 93.0491 18.2422 93.1234 17.7282ZM96.8868 18.8961C96.994 18.897 97.1 18.8737 97.1969 18.8279C97.2924 18.7833 97.3738 18.7133 97.4323 18.6256C97.4912 18.5441 97.5434 18.4581 97.5884 18.3682C97.6371 18.2629 97.6733 18.1521 97.6962 18.0383C97.727 17.9005 97.749 17.7949 97.7622 17.7216C97.7754 17.6483 97.7908 17.5471 97.8084 17.418V17.3477L98.5672 11.7279C98.5672 11.6927 98.5782 11.6194 98.6002 11.5079C98.6156 11.4023 98.6266 11.3232 98.631 11.2726C98.6354 11.222 98.642 11.1406 98.653 11.0394C98.6613 10.9605 98.6613 10.8808 98.653 10.8019C98.6442 10.7476 98.6354 10.6743 98.6266 10.5819C98.6208 10.5139 98.6006 10.4479 98.5672 10.3884C98.5337 10.3404 98.4977 10.2941 98.4595 10.2498C98.4161 10.198 98.3577 10.1611 98.2923 10.1442C98.2142 10.123 98.1335 10.1126 98.0525 10.1134C97.9367 10.1122 97.8218 10.1331 97.7138 10.175C97.615 10.217 97.5297 10.2855 97.4675 10.373C97.3993 10.4653 97.3443 10.5467 97.2981 10.6193C97.2425 10.7211 97.2032 10.8309 97.1815 10.9448C97.1507 11.0878 97.1309 11.1912 97.1221 11.2528L97.0804 11.5651V11.6245V11.6773L96.3215 17.2993C96.3039 17.4268 96.2929 17.5192 96.2863 17.605C96.2797 17.6908 96.2709 17.7942 96.2621 17.9393C96.2539 18.0585 96.2605 18.1782 96.2819 18.2957C96.306 18.3923 96.3369 18.4871 96.3743 18.5794C96.4112 18.6723 96.4787 18.7499 96.5657 18.7993C96.6626 18.8587 96.7732 18.8921 96.8868 18.8961Z" fill="white"/>
<path d="M111.529 7.48242L109.642 21.4714H106.534L105.887 14.4747L104.944 21.4736H101.836L103.723 7.48462H106.994L107.555 14.1734L108.456 7.48242H111.529Z" fill="white"/>
</g>
<defs>
<clipPath id="clip0_463_7323">
<rect width="125.76" height="27.8878" fill="white"/>
</clipPath>
</defs>
</svg>
