<svg width="29" height="21" viewBox="0 0 29 21" fill="none" xmlns="http://www.w3.org/2000/svg">
<path d="M16.4091 12.0909C15.3485 12.0909 14.447 11.7197 13.7045 10.9773C12.9621 10.2348 12.5909 9.33333 12.5909 8.27273C12.5909 7.21212 12.9621 6.31061 13.7045 5.56818C14.447 4.82576 15.3485 4.45455 16.4091 4.45455C17.4697 4.45455 18.3712 4.82576 19.1136 5.56818C19.8561 6.31061 20.2273 7.21212 20.2273 8.27273C20.2273 9.33333 19.8561 10.2348 19.1136 10.9773C18.3712 11.7197 17.4697 12.0909 16.4091 12.0909ZM6.22727 16.5455C5.69697 16.5455 5.24621 16.3598 4.875 15.9886C4.50379 15.6174 4.31818 15.1667 4.31818 14.6364V1.90909C4.31818 1.37879 4.50379 0.92803 4.875 0.556818C5.24621 0.185606 5.69697 0 6.22727 0H26.5909C27.1212 0 27.572 0.185606 27.9432 0.556818C28.3144 0.92803 28.5 1.37879 28.5 1.90909V14.6364C28.5 15.1667 28.3144 15.6174 27.9432 15.9886C27.572 16.3598 27.1212 16.5455 26.5909 16.5455H6.22727ZM9.40909 14.6364H23.4091C23.4091 13.7455 23.7167 12.9924 24.3318 12.3773C24.947 11.7621 25.7 11.4545 26.5909 11.4545V5.09091C25.7 5.09091 24.947 4.78333 24.3318 4.16818C23.7167 3.55303 23.4091 2.8 23.4091 1.90909H9.40909C9.40909 2.8 9.10151 3.55303 8.48636 4.16818C7.87121 4.78333 7.11818 5.09091 6.22727 5.09091V11.4545C7.11818 11.4545 7.87121 11.7621 8.48636 12.3773C9.10151 12.9924 9.40909 13.7455 9.40909 14.6364ZM2.40909 20.3636C1.87879 20.3636 1.42803 20.178 1.05682 19.8068C0.685606 19.4356 0.5 18.9848 0.5 18.4545V4.77273C0.5 4.49697 0.590151 4.26894 0.770454 4.08864C0.950758 3.90833 1.17879 3.81818 1.45455 3.81818C1.7303 3.81818 1.95833 3.90833 2.13864 4.08864C2.31894 4.26894 2.40909 4.49697 2.40909 4.77273V18.4545H23.7273C24.003 18.4545 24.2311 18.5447 24.4114 18.725C24.5917 18.9053 24.6818 19.1333 24.6818 19.4091C24.6818 19.6848 24.5917 19.9129 24.4114 20.0932C24.2311 20.2735 24.003 20.3636 23.7273 20.3636H2.40909ZM6.22727 14.6364V1.90909V14.6364Z" fill="#D75426"/>
</svg>
