<svg width="29" height="24" viewBox="0 0 29 24" fill="none" xmlns="http://www.w3.org/2000/svg">
<path d="M21.9004 10.314L21.9449 10.8609L16.7674 9.47338L17.0785 9.02315L21.9004 10.314ZM17.9906 4.59469C17.2773 4.40296 16.5469 4.4095 15.866 4.5886L15.5546 4.1215C15.5538 4.12031 15.5528 4.11894 15.5518 4.11738C15.537 4.09506 15.4976 4.03574 15.4453 3.97216C15.027 3.45741 14.3398 3.24887 13.7067 3.43978L13.7054 3.44019L11.5908 4.08122L10.7749 2.02769L10.775 2.02767L10.7709 2.01769C10.5231 1.41298 9.93651 1 9.26006 1C8.58361 1 7.99704 1.41298 7.74921 2.01769L7.74916 2.01767L7.74518 2.02769L6.92985 4.07988L4.82018 3.43672L4.82018 3.43672L4.81731 3.43585C4.18153 3.24411 3.49104 3.4553 3.07326 3.97498C2.64935 4.50228 2.60549 5.22424 2.92564 5.79451L2.92561 5.79452L2.92945 5.80125L4.0255 7.71863L2.20671 8.97182C2.2063 8.9721 2.2059 8.97237 2.20549 8.97265C1.65699 9.34921 1.38902 10.0247 1.54289 10.6812C1.69446 11.3279 2.22185 11.8181 2.87693 11.9205L2.87812 11.9207L5.06191 12.2592L4.90665 14.4634C4.85691 15.1312 5.22507 15.7621 5.82894 16.0487C6.42491 16.3315 7.13255 16.2296 7.62532 15.7871L7.62537 15.7872L7.63452 15.7787L8.58934 14.8996L8.28169 16.045C7.95635 17.2544 8.67837 18.4869 9.8743 18.8105L9.87978 18.812L10.4849 18.972C10.4856 18.9722 10.4864 18.9724 10.4871 18.9726C11.6958 19.2965 12.927 18.5746 13.2504 17.3794L13.2509 17.3776L13.3178 17.1286L21.1044 19.2162L21.0379 19.4639C21.0379 19.464 21.0378 19.4642 21.0378 19.4643C20.7127 20.6736 21.4347 21.9059 22.6305 22.2295L22.636 22.2309L23.241 22.391C23.2419 22.3912 23.2428 22.3915 23.2437 22.3917C24.4523 22.7152 25.6832 21.9934 26.0066 20.7984L26.0071 20.7966L26.3333 19.5823L26.3337 19.5804L26.9815 17.1505L26.9822 17.1479L27.3902 15.6335L27.3906 15.6321C27.6908 14.5112 27.3557 13.3779 26.6197 12.5982L26.3839 9.68567C26.3839 9.68562 26.3839 9.68556 26.3839 9.6855C26.2438 7.9371 25.015 6.47288 23.3291 6.01779L23.3261 6.01698L17.9917 4.595C17.9913 4.5949 17.9909 4.59479 17.9906 4.59469ZM13.4417 12.9445C13.4288 12.953 13.4167 12.9602 13.4055 12.9663C13.3844 12.9444 13.3625 12.9175 13.3425 12.887C13.334 12.8741 13.3268 12.862 13.3207 12.8508C13.3426 12.8298 13.3695 12.8079 13.4 12.7878C13.4128 12.7794 13.425 12.7722 13.4362 12.766C13.4572 12.788 13.4791 12.8148 13.4992 12.8453C13.5076 12.8582 13.5148 12.8703 13.521 12.8815C13.499 12.9025 13.4722 12.9245 13.4417 12.9445ZM13.5515 12.9553C13.5514 12.9553 13.5513 12.9547 13.5511 12.9534L13.5515 12.9553ZM23.2176 15.4508C23.2261 15.4636 23.2333 15.4758 23.2394 15.487C23.2175 15.508 23.1906 15.5299 23.1601 15.55C23.1473 15.5584 23.1351 15.5656 23.1239 15.5718C23.1029 15.5498 23.081 15.523 23.0609 15.4925C23.0525 15.4796 23.0453 15.4675 23.0391 15.4563C23.0611 15.4352 23.0879 15.4133 23.1184 15.3933C23.1313 15.3848 23.1434 15.3776 23.1546 15.3715C23.1756 15.3934 23.1976 15.4203 23.2176 15.4508ZM23.0502 15.6023C23.0501 15.6022 23.0508 15.6021 23.0521 15.6019L23.0502 15.6023ZM23.2284 15.341C23.2284 15.341 23.2278 15.3412 23.2265 15.3414L23.2284 15.341ZM23.2695 15.5588C23.2698 15.5601 23.2699 15.5607 23.2699 15.5607L23.2695 15.5588Z" stroke="#D75426" stroke-width="2"/>
</svg>
