<svg width="28" height="28" viewBox="0 0 28 28" fill="none" xmlns="http://www.w3.org/2000/svg">
<path d="M3.0625 28C2.21667 28 1.49479 27.701 0.896875 27.1031C0.298958 26.5052 0 25.7833 0 24.9375V17.0625C0 16.2167 0.298958 15.4948 0.896875 14.8969C1.49479 14.299 2.21667 14 3.0625 14C3.90833 14 4.63021 14.299 5.22813 14.8969C5.82604 15.4948 6.125 16.2167 6.125 17.0625V24.9375C6.125 25.7833 5.82604 26.5052 5.22813 27.1031C4.63021 27.701 3.90833 28 3.0625 28ZM14 28C13.1542 28 12.4323 27.701 11.8344 27.1031C11.2365 26.5052 10.9375 25.7833 10.9375 24.9375V3.0625C10.9375 2.21667 11.2365 1.49479 11.8344 0.896875C12.4323 0.298958 13.1542 0 14 0C14.8458 0 15.5677 0.298958 16.1656 0.896875C16.7635 1.49479 17.0625 2.21667 17.0625 3.0625V24.9375C17.0625 25.7833 16.7635 26.5052 16.1656 27.1031C15.5677 27.701 14.8458 28 14 28ZM24.9375 28C24.0917 28 23.3698 27.701 22.7719 27.1031C22.174 26.5052 21.875 25.7833 21.875 24.9375V11.8125C21.875 10.9667 22.174 10.2448 22.7719 9.64687C23.3698 9.04896 24.0917 8.75 24.9375 8.75C25.7833 8.75 26.5052 9.04896 27.1031 9.64687C27.701 10.2448 28 10.9667 28 11.8125V24.9375C28 25.7833 27.701 26.5052 27.1031 27.1031C26.5052 27.701 25.7833 28 24.9375 28Z" fill="#D75426"/>
</svg>
