<svg width="29" height="28" viewBox="0 0 29 28" fill="none" xmlns="http://www.w3.org/2000/svg">
<path d="M18.49 1.36585V1.96341C18.8541 2.03171 19.2068 2.11707 19.5254 2.20244C20.2537 2.39594 20.686 3.14715 20.4926 3.87561C20.2992 4.60406 19.5482 5.03659 18.82 4.84309C18.1999 4.67805 17.6196 4.56423 17.1018 4.55854C16.6865 4.55285 16.2655 4.65528 15.9981 4.80894C15.8787 4.88293 15.8218 4.94553 15.799 4.97967C15.7819 5.00813 15.7592 5.04797 15.7592 5.13902C15.7592 5.1561 15.7592 5.16748 15.7592 5.17317C15.7706 5.18455 15.8104 5.24146 15.9469 5.32114C16.2769 5.52033 16.7662 5.67398 17.5058 5.89594L17.557 5.91301C18.1885 6.10081 19.0305 6.35691 19.7132 6.78374C20.4926 7.27317 21.1981 8.08699 21.2151 9.33902C21.2322 10.6195 20.5666 11.5528 19.6961 12.0992C19.3149 12.3325 18.9053 12.4976 18.4843 12.6V13.2033C18.4843 13.9602 17.8756 14.5691 17.1189 14.5691C16.3622 14.5691 15.7535 13.9602 15.7535 13.2033V12.5545C15.213 12.4236 14.7181 12.2528 14.2971 12.1106C14.1776 12.0707 14.0638 12.0309 13.9557 11.9967C13.2389 11.7577 12.852 10.9837 13.091 10.2667C13.3299 9.54959 14.1036 9.1626 14.8205 9.40163C14.9684 9.45285 15.1049 9.49837 15.2358 9.5439C16.0095 9.80569 16.5671 9.9935 17.1644 10.0163C17.6196 10.0333 18.0235 9.9252 18.2567 9.78293C18.3648 9.71463 18.416 9.65772 18.4388 9.61789C18.4616 9.58374 18.49 9.51545 18.4843 9.38455V9.37317C18.4843 9.31626 18.4843 9.25366 18.2567 9.11138C17.9325 8.9065 17.4432 8.74716 16.715 8.5252L16.6069 8.49106C15.9925 8.30894 15.1846 8.06423 14.536 7.67155C13.768 7.21057 13.0284 6.41951 13.0227 5.16179C13.017 3.85854 13.7566 2.96504 14.5986 2.46423C14.9627 2.24797 15.3553 2.1 15.7478 1.99756V1.36585C15.7478 0.608943 16.3566 0 17.1132 0C17.8699 0 18.4786 0.608943 18.4786 1.36585H18.49Z" fill="#D75426"/>
<path d="M17.9 25.1208L26.1667 22.5183C26.0333 22.3403 25.8667 22.1123 25.6667 21.8343C25.4667 21.5562 25.2333 21.4172 24.9667 21.4172H17.0333C16.9889 21.4172 16.7889 21.4005 16.4333 21.3672C16.0778 21.3338 15.7333 21.2393 15.4 21.0835L13.2 20.4162C12.9333 20.3273 12.7333 20.1493 12.6 19.8824C12.4667 19.6154 12.4444 19.3485 12.5333 19.0816C12.6222 18.8147 12.7944 18.6145 13.05 18.481C13.3056 18.3475 13.5667 18.3364 13.8333 18.4476L16.9333 19.482C16.8889 19.482 17.05 19.4709 17.4167 19.4486C17.7833 19.4264 18.3111 19.4152 19 19.4152H19.3C19.3 19.1483 19.25 18.887 19.15 18.6311C19.05 18.3753 18.8778 18.1918 18.6333 18.0806L10.4667 14.9776H7.66667V22.1179L17.9 25.1208ZM17.4667 27.0227L7.66667 24.22C7.62222 24.8205 7.37222 25.2877 6.91667 25.6213C6.46111 25.955 6.04444 26.1218 5.66667 26.1218H2.5C1.94444 26.1218 1.47222 25.9272 1.08333 25.5379C0.694444 25.1486 0.5 24.676 0.5 24.1199V14.9776C0.5 14.4215 0.694444 13.9488 1.08333 13.5595C1.47222 13.1702 1.94444 12.9756 2.5 12.9756H10.4333C10.5444 12.9756 10.6611 12.9867 10.7833 13.009C10.9056 13.0312 11.0222 13.0646 11.1333 13.1091L19.3 16.1787C19.9 16.4012 20.4056 16.7627 20.8167 17.2631C21.2278 17.7636 21.4333 18.481 21.4333 19.4152H25.2333C26.1667 19.4152 26.9444 19.7489 27.5667 20.4162C28.1889 21.0835 28.5 21.9844 28.5 23.1189C28.5 23.3636 28.4444 23.5804 28.3333 23.7695C28.2222 23.9586 28.0444 24.0976 27.8 24.1866L18.6 27.0227C18.4222 27.0672 18.2333 27.0894 18.0333 27.0894C17.8333 27.0894 17.6444 27.0672 17.4667 27.0227ZM2.5 24.1199H5.63333V14.9776H2.5V24.1199Z" fill="#D75426"/>
</svg>
