<svg width="112" height="120" viewBox="0 0 112 120" fill="none" xmlns="http://www.w3.org/2000/svg">
    <g clip-path="url(#f2eld194aa)" fill-rule="evenodd" clip-rule="evenodd">
        <path d="M0 103.553h91.13V25.466H0v78.087z" fill="#F1EFEF"/>
        <path d="M6.036 43.911h79.49v-4.753H6.037v4.753z" fill="#EF7F30"/>
        <path d="M63.104 54.596H73.93v-10.41H63.104v10.41zm0 12.392H73.93V55.162H63.104v11.826zm0 12.392H73.93V67.537H63.104V79.38zm0 12.392H73.93v-11.87H63.104v11.87zM51.747 54.596h10.792v-10.41H51.747v10.41zm0 12.392h10.792V55.162H51.747v11.826zm0 12.392h10.792V67.537H51.747V79.38zm0 12.392h10.792v-11.87H51.747v11.87zM40.398 54.596h10.793v-10.41H40.398v10.41zm0 12.392h10.793V55.162H40.398v11.826zm0 12.392h10.793V67.537H40.398V79.38zm0 12.392h10.793v-11.87H40.398v11.87zM29.032 54.596h10.793v-10.41H29.032v10.41zm0 12.392h10.793V55.162H29.032v11.826zm0 12.392h10.793V67.537H29.032V79.38zm0 12.392h10.793v-11.87H29.032v11.87zM17.675 54.596h10.793v-10.41H17.675v10.41zm0 12.392h10.793V55.162H17.675v11.826zm0 12.392h10.793V67.537H17.675V79.38zm0 12.392h10.793v-11.87H17.675v11.87zm67.86-36.548a.282.282 0 0 0 .283-.283.283.283 0 0 0-.282-.283H74.46V44.187h11.075a.282.282 0 0 0 .282-.284.283.283 0 0 0-.282-.283h-79.5a.282.282 0 0 0-.282.283.284.284 0 0 0 .282.284H17.11v10.409H6.036a.282.282 0 0 0-.282.283.284.284 0 0 0 .282.283H17.11V66.97H6.036a.282.282 0 0 0-.282.283.284.284 0 0 0 .282.284H17.11v11.798H6.036a.282.282 0 0 0-.282.284.284.284 0 0 0 .282.283H17.11V91.71H6.036a.282.282 0 0 0-.282.283.284.284 0 0 0 .282.283h79.5a.282.282 0 0 0 .282-.283.283.283 0 0 0-.282-.283H74.46V79.902h11.075a.282.282 0 0 0 .282-.283.292.292 0 0 0-.282-.284H74.46V67.537h11.075a.291.291 0 0 0 .282-.284.284.284 0 0 0-.282-.283H74.46V55.162l11.075.062z" fill="#000"/>
        <path d="M80.638 13.144c-.37 1.036-.22 2.062-.653 2.974a11.716 11.716 0 0 1-1.853 2.416 6.592 6.592 0 0 1 5.294 2.488c.248-2.656.371-3.231 2.462-5.48a6.256 6.256 0 0 1-5.294-2.398h.044zM52.268 27.89a38.062 38.062 0 0 1-.883-2.363 2.126 2.126 0 0 0-1.191-1.38l-6.319 2.38c-.178.23-.3.5-.353.788a.882.882 0 0 0 0 .265c.442 1.204.883 2.417 1.35 3.612.468 1.195.936 1.337 2.012.947 1.712-.62 3.407-1.275 5.154-1.93a2.217 2.217 0 0 0 .194-2.319h.035zm2.92-10.852 14.552-5.443 4.72-1.77 3.99-1.505 9.786-3.682a3.852 3.852 0 0 1 2.532 1.257l8.595 23.013-8.639 3.275L61.41 43.177c-.44.168-7.27 2.717-8.445 3.177-2.056.806-4.13 1.585-6.177 2.381-.167-.416-.344-.814-.503-1.23-2.206-5.9-4.409-11.802-6.61-17.703-.388-1.035-.785-2.071-1.164-3.115a2.857 2.857 0 0 1 .681-3.41 2.837 2.837 0 0 1 1.084-.591l6.415-2.399 8.534-3.222M94.775 42.416c1.835-.699 3.67-1.407 5.515-2.097a2.853 2.853 0 0 0 1.809-1.77 3.11 3.11 0 0 0 0-2.205 25.406 25.406 0 0 1-1.288-3.664h-.106l-1.483.548-50.396 18.969c-.45.168-.883.31-1.368.47a30.193 30.193 0 0 0 1.377 3.814 3.209 3.209 0 0 0 1.457 1.568c.65.34 1.398.446 2.116.3.345-.098.662-.248.989-.372l40.01-15.047 1.368-.487" fill="#C85C35"/>
        <path d="M47.458 52.63c.459-.159.882-.31 1.368-.477l50.458-18.986c.485-.186.988-.363 1.482-.54a31.592 31.592 0 0 0-1.359-3.683l-8.745 3.31C80.744 35.99 48.19 48.259 46.1 49.073c.38 1.208.833 2.39 1.359 3.541" fill="#252D4C"/>
        <path d="M51.297 30.254a1.835 1.835 0 0 0 .264-2.045c-.29-.672-.53-1.363-.767-2.053a1.71 1.71 0 0 0-1.086-1.169l-6.124 2.302a1.701 1.701 0 0 0-.37.708.973.973 0 0 0 0 .23c.388 1.044.767 2.098 1.173 3.133.406 1.036.883 1.142 1.889.77 1.658-.61 3.309-1.239 4.994-1.876" fill="#B5F3ED"/>
        <path d="M86.285 16.171a6.16 6.16 0 0 1-5.294-2.124c-.415 1-.3 1.974-.768 2.85-.551.862-1.21 1.65-1.959 2.346a6.52 6.52 0 0 1 5.374 2.204c.344-2.55.477-3.08 2.647-5.311" fill="#FDFDFD"/>
        <path d="M99.734 48.612c-.777.779-1.068 1.77-1.844 2.416a11.372 11.372 0 0 1-2.7 1.399 6.671 6.671 0 0 1 3.786 4.514c1.349-2.319 1.685-2.77 4.526-3.921a6.34 6.34 0 0 1-3.768-4.426v.018zm-31.927 1.345c0-.885.106-1.69.194-2.522a2.097 2.097 0 0 0-.494-1.77l-6.733-.523c-.258.136-.482.33-.653.567a.958.958 0 0 0-.08.256c-.105 1.275-.22 2.558-.3 3.842-.079 1.283.292 1.61 1.43 1.708 1.765.16 3.627.292 5.489.434a2.2 2.2 0 0 0 1.147-2.018v.026zm7.245-8.62 15.487 1.22 5.03.381 4.244.319 10.431.805a3.92 3.92 0 0 1 1.765 2.213l-1.897 24.563c-3.071-.23-6.178-.452-9.204-.69-10.407-.785-20.82-1.59-31.239-2.417-.476 0-7.739-.61-8.992-.69-2.206-.133-4.412-.31-6.618-.46 0-.443 0-.886.061-1.328.477-6.279.956-12.558 1.439-18.836.088-1.107.167-2.213.256-3.31a2.859 2.859 0 0 1 .965-2.21 2.84 2.84 0 0 1 2.309-.676l6.874.513 9.089.682M100.237 81.159l5.886.433a2.82 2.82 0 0 0 2.391-.885 3.058 3.058 0 0 0 .927-2c.029-1.3.156-2.596.379-3.877h-.114l-1.571-.133-53.618-4.107c-.485 0-.961-.097-1.438-.15a28.124 28.124 0 0 0-.362 4.036c-.014.733.223 1.45.673 2.028.45.58 1.085.985 1.798 1.15.344.053.697.061 1.05.088l42.605 3.284 1.438.133" fill="#145A7B"/>
        <path d="M53.008 70.386c.486.053.962.106 1.448.142l53.723 4.142 1.58.133c.185-1.296.291-2.603.317-3.912-3.106-.23-6.177-.452-9.327-.7-10.59-.805-45.234-3.452-47.476-3.61a32.296 32.296 0 0 0-.265 3.805z" fill="#252D4C"/>
        <path d="M65.936 51.736a1.828 1.828 0 0 0 1.103-1.77c0-.726.089-1.46.168-2.186a1.776 1.776 0 0 0-.494-1.514l-6.53-.504c-.242.11-.456.273-.627.478a.768.768 0 0 0-.07.23 103.809 103.809 0 0 0-.256 3.337c-.062 1.115.291 1.398 1.385 1.487 1.765.16 3.53.283 5.295.416" fill="#B5F3ED"/>
        <path d="M103.599 53.79a6.254 6.254 0 0 1-2.466-1.608 6.28 6.28 0 0 1-1.46-2.56c-.795.716-1.086 1.654-1.88 2.256-.867.545-1.797.98-2.771 1.292.94.365 1.783.942 2.464 1.686a6.574 6.574 0 0 1 1.463 2.607c1.376-2.168 1.765-2.593 4.65-3.646" fill="#FDFDFD"/>
        <path d="M85.112 86.337c-1.015.407-1.686 1.212-2.647 1.496-.996.201-2.013.273-3.027.212a6.619 6.619 0 0 1 1.685 5.638c2.153-1.584 2.648-1.867 5.71-1.77a6.324 6.324 0 0 1-1.721-5.55v-.026zM55.268 74.91c.353-.762.758-1.505 1.164-2.24a2.12 2.12 0 0 0 .239-1.77l-5.974-3.151c-.293.022-.576.11-.83.257-.062.08-.132.132-.176.203-.592 1.142-1.2 2.275-1.765 3.417-.565 1.141-.371 1.593.626 2.133 1.606.885 3.23 1.708 4.88 2.576a2.193 2.193 0 0 0 1.853-1.39l-.017-.035zm10.05-4.975 13.74 7.276 4.474 2.346 3.768 1.982 9.257 4.877c.582.783.85 1.756.75 2.727l-11.392 21.739c-2.727-1.425-5.462-2.85-8.18-4.293-9.26-4.88-18.511-9.757-27.753-14.632-.415-.22-6.857-3.638-7.942-4.204-1.968-1.01-3.927-2.036-5.895-3.063.194-.39.38-.796.582-1.186l8.763-16.72c.512-.983 1.024-1.974 1.544-2.948a2.842 2.842 0 0 1 1.756-1.644 2.824 2.824 0 0 1 2.383.299l6.107 3.204 8.074 4.24" fill="#AA4979"/>
        <path d="M72.731 116.396c1.765.885 3.53 1.77 5.233 2.735a2.84 2.84 0 0 0 2.541.168 3.094 3.094 0 0 0 1.633-1.46 25.473 25.473 0 0 1 1.88-3.408l-.097-.053c-.46-.257-.927-.505-1.395-.753l-47.652-25.12a26.9 26.9 0 0 1-1.262-.708 28.97 28.97 0 0 0-1.932 3.54 3.214 3.214 0 0 0 1.015 3.895c.3.186.617.336.926.496l37.83 19.942 1.263.699" fill="#AA497A"/>
        <path d="M33.63 87.735c.424.239.838.487 1.262.708 15.884 8.38 31.783 16.764 47.696 25.156.468.239.936.495 1.394.743a32.453 32.453 0 0 0 1.845-3.461l-8.295-4.346a54844.132 54844.132 0 0 0-42.155-22.19 30.72 30.72 0 0 0-1.765 3.39" fill="#252D4C"/>
        <path d="M52.858 75.75a1.84 1.84 0 0 0 1.704-1.16 27.18 27.18 0 0 1 1.015-1.947 1.774 1.774 0 0 0 .15-1.584l-5.798-3.054a1.76 1.76 0 0 0-.768.186c-.058.054-.11.114-.159.177-.52.982-1.05 1.965-1.553 2.965-.503 1-.282 1.398.689 1.92 1.561.886 3.123 1.656 4.72 2.497z" fill="#B5F3ED"/>
        <path d="M86.63 92.594a6.197 6.197 0 0 1-1.95-5.381c-1.015.345-1.66 1.089-2.648 1.319-1.01.164-2.035.197-3.053.097a6.536 6.536 0 0 1 1.924 5.47c2.117-1.443 2.647-1.69 5.709-1.505" fill="#FDFDFD"/>
        <path d="M23.632 18.96a1.136 1.136 0 0 1-.53 1.106 4.488 4.488 0 0 1-1.42.885c-2.374.514-3.115 2.452-4.06 4.258-.944 1.805-2.126 1.885-2.982.159a9.216 9.216 0 0 0-5.048-4.992 1.42 1.42 0 0 1-1.02-1.368 1.428 1.428 0 0 1 1.02-1.367 8.823 8.823 0 0 0 5.03-4.992c.768-1.656 2.153-1.514 2.921.15.883 1.938 1.765 3.726 4.148 4.364a2.583 2.583 0 0 1 1.897 1.77M33.065 29.14a.675.675 0 0 1-.326.672 2.752 2.752 0 0 1-.883.566c-1.456.31-1.906 1.496-2.48 2.603-.573 1.106-1.305 1.15-1.826.097a5.656 5.656 0 0 0-3.036-3.054.882.882 0 0 1-.593-.836.887.887 0 0 1 .593-.837 5.372 5.372 0 0 0 3.08-3.044c.468-1.018 1.315-.93 1.765.088.547 1.177 1.103 2.275 2.541 2.655a1.586 1.586 0 0 1 1.165 1.09zM108.197 4.55a.704.704 0 0 1-.327.68c-.282.196-.547.497-.882.559-1.456.31-1.906 1.504-2.48 2.602-.574 1.097-1.306 1.15-1.827.097a5.679 5.679 0 0 0-3.088-3.053.882.882 0 0 1-.594-.837.887.887 0 0 1 .594-.836 5.386 5.386 0 0 0 3.08-3.045c.467-1.018 1.314-.93 1.764.088.548 1.186 1.104 2.275 2.542 2.656a1.586 1.586 0 0 1 1.156 1.08" fill="#FBCF1F"/>
    </g>
    <defs>
        <clipPath id="f2eld194aa">
            <path fill="#fff" d="M0 0h112v119.529H0z"/>
        </clipPath>
    </defs>
</svg>
