<?xml version="1.0" encoding="utf-8"?>
<!-- Generator: Adobe Illustrator 25.4.1, SVG Export Plug-In . SVG Version: 6.00 Build 0)  -->
<svg version="1.1" id="Layer_1" xmlns="http://www.w3.org/2000/svg" xmlns:xlink="http://www.w3.org/1999/xlink" x="0px" y="0px"
	 viewBox="0 0 139 120" style="enable-background:new 0 0 139 120;" xml:space="preserve">
<style type="text/css">
	.st0{clip-path:url(#SVGID_00000069377182611029755800000012850709695210046385_);}
	.st1{fill:#EDB39D;}
	.st2{fill:#E6A48D;}
	.st3{fill:#571E3E;}
	.st4{fill:#51394F;}
	.st5{fill-rule:evenodd;clip-rule:evenodd;fill:#571E3E;}
	.st6{fill-rule:evenodd;clip-rule:evenodd;fill:#EEF8F9;}
	.st7{fill:#8A61A4;}
	.st8{fill:#D9EBEE;}
	.st9{fill:#6889BB;}
	.st10{fill:#ED6A5B;}
	.st11{fill:#847DAC;}
	.st12{fill:#A4914B;}
	.st13{fill:#6B5B6A;}
	.st14{fill:#0C192E;}
	.st15{fill:#21445A;}
	.st16{fill:#377278;}
	.st17{fill:#F7941D;}
	.st18{fill:#F15A29;}
	.st19{fill:#142B50;}
	.st20{fill:#4D414D;}
	.st21{fill:#3A5B77;}
	.st22{fill:#68BEE8;}
	.st23{fill:#90829C;}
	.st24{fill:#2C6F76;}
	.st25{fill:#859E3C;}
	.st26{fill:#567B44;}
	.st27{fill-rule:evenodd;clip-rule:evenodd;fill:#4395A5;}
</style>
<g>
	<defs>
		<rect id="SVGID_1_" width="138.3" height="120"/>
	</defs>
	<clipPath id="SVGID_00000117647457147764599640000008778822118957940372_">
		<use xlink:href="#SVGID_1_"  style="overflow:visible;"/>
	</clipPath>
	<g style="clip-path:url(#SVGID_00000117647457147764599640000008778822118957940372_);">
		<path class="st1" d="M94.4,23.4c-1.2,1.4-1.9,2.4-4,1.9c-0.6-0.1-1.1-0.4-1.6-0.7c-1.8-1.1-3.4-2.8-4.1-4.7
			c-0.1,0.1-0.2,0.2-0.3,0.2c-0.1,0-0.2,0.1-0.4,0.1c-0.1,0-0.2,0-0.2-0.1c-0.1-0.1-0.3-0.1-0.4-0.2c-0.1-0.1-0.2-0.2-0.2-0.3
			c-0.1-0.2-0.1-0.4,0-0.6c0.1-0.1,0.1-0.3,0.1-0.5v-0.1c0.1-0.4,0.1-0.8,0.1-1.2c0,0,0,0,0-0.1c0-0.2,0-0.4-0.1-0.5
			c0,0,0-0.1,0-0.1c-0.1-0.7-0.2-1.4-0.4-2.1c-0.3-0.9-0.6-1.8-0.6-2.7c-0.1-1.6,0.1-3.2,0.7-4.7c0.1-0.2,0.2-0.5,0.3-0.7
			c0-0.1,0.1-0.2,0.1-0.2C83.6,5.8,83.8,5.4,84,5c0.2-0.3,0.4-0.7,0.7-1l0.1-0.1c1-1.3,2.2-2.2,3.7-2.9c1.4-0.6,3-0.9,4.6-0.8
			c2.3,0.2,4.5,1.2,6.3,2.7c1.7,1.5,3.4,4.2,3.6,6.5c0.3,2.2-0.6,3.9-1.7,5.7l-0.3,0.4l-0.2,0.2c-0.1,0.2-0.3,0.4-0.4,0.6l-0.1,0.2
			l-0.1,0.1l-0.1,0.1l-0.1,0.1c-0.2,0.3-0.4,0.5-0.6,0.8l3.5,5.4l-0.9,0.3c0.1,0.1,0.1,0.3,0,0.4c-0.1,0.1-0.2,0.3-0.3,0.3l-3.5,1.6
			c-0.1,0-0.1,0-0.2,0.1c-0.1,0-0.1,0-0.2,0c-0.1,0-0.1-0.1-0.2-0.1c-0.1-0.1-0.1-0.1-0.1-0.2L96.3,26l-0.8-1.5L94.4,23.4"/>
		<path class="st2" d="M83.5,6.1c1.5-1,4.9-0.2,6.8,0.5c2.9,1.1,4.5,3.6,5.2,5.4c0-0.5,0.2-1,0.5-1.4c0.3-0.4,0.7-0.7,1.2-1
			c0.5-0.2,1-0.3,1.6-0.3c0.5,0.1,1,0.3,1.5,0.6c0.4,0.3,0.7,0.8,0.9,1.3c0.2,0.5,0.2,1.1,0.1,1.6c-0.1,0.4-0.2,0.7-0.4,1
			c-0.3,0.5-0.7,0.8-1.2,1L99.5,15h0c-0.2,0.1-0.4,0.2-0.6,0.2c-0.2,1.7,0.6,2.4,0.6,2.4s0.3-0.5,0.6-0.8l0.1-0.1l0.1-0.1l0.1-0.1
			l0.1-0.2c0.1-0.2,0.3-0.4,0.4-0.6l0.1-0.2c1.2-1.9,2.2-3.7,1.9-6c-0.3-2.4-1.9-5.1-3.6-6.5c-1.8-1.5-4-2.5-6.3-2.7
			c-1.6-0.1-3.1,0.1-4.6,0.8c-1.4,0.6-2.7,1.6-3.7,2.9L84.6,4C84.2,4.7,83.8,5.4,83.5,6.1L83.5,6.1z"/>
		<path class="st2" d="M96.3,25.3c0.7-0.7,2.8-8.3,2.9-8.5l-4.7,6.7l1.1,1.1l0.9-1.4L96.3,25.3z"/>
		<path class="st3" d="M97.6,12.9L97.6,12.9L97.6,12.9c0.2-0.1,0.3-0.2,0.4-0.3c0.1,0,0.1-0.1,0.2-0.1c0.1,0,0.1,0,0.2,0
			c0.1,0,0.1,0.1,0.2,0.1c0,0.1,0.1,0.1,0.1,0.2c0,0.1,0,0.2,0,0.2c0,0.1-0.1,0.1-0.1,0.2c0.1,0,0.1-0.1,0.2-0.2
			c0-0.1,0.1-0.1,0-0.2c0-0.1,0-0.2-0.1-0.2c0-0.1-0.1-0.1-0.2-0.2c-0.1,0-0.2,0-0.2,0c-0.1,0-0.2,0-0.2,0.1c-0.1,0-0.3,0.1-0.4,0.2
			c-0.1-0.1-0.1-0.2-0.2-0.3c0-0.1,0-0.2,0-0.3c0.1-0.2,0.2-0.4,0.4-0.6c0.2-0.2,0.4-0.3,0.6-0.4c0.2-0.1,0.5-0.1,0.7-0.1
			c0.2,0,0.4,0.1,0.6,0.3c0.2,0.2,0.3,0.4,0.4,0.6c0.2,0.5,0.2,1,0.1,1.4c0.1-0.2,0.1-0.5,0.2-0.7c0-0.3,0-0.5-0.1-0.7
			c-0.1-0.2-0.2-0.5-0.4-0.7c-0.2-0.2-0.4-0.3-0.7-0.3c-0.3,0-0.5,0-0.8,0.1c-0.2,0.1-0.4,0.2-0.6,0.4c-0.2,0.2-0.3,0.4-0.4,0.7
			c0,0.1,0,0.3,0,0.4C97.4,12.6,97.5,12.7,97.6,12.9L97.6,12.9z"/>
		<path class="st3" d="M84.9,19.7c0.1-0.1,0.1-0.2,0.2-0.3c0,0,0,0,0,0c0,0,0,0,0,0s0,0,0,0c0,0,0,0,0,0c-0.1,0.1-0.1,0.2-0.2,0.3
			c0,0,0,0,0,0c0,0,0,0,0,0c0,0,0,0,0,0C84.7,19.9,84.9,19.7,84.9,19.7z"/>
		<path class="st4" d="M83.2,2.3c2.5-1.1,4.5-2.1,6.6-2c1.2-0.3,2.5-0.4,3.7-0.1c2.2,0.4,4.3,1.4,5.9,2.9c1.6,1.4,3.2,4,3.5,6.2
			c0.2,1.6,0,3.5-0.7,4.9c-0.2,0.3-2.8,3.4-2.9,3.4c0,0-0.7-0.7-0.6-2.3c0.2,0,0.4-0.1,0.6-0.2h0l0.1,0c0.4-0.2,0.7-0.5,1-0.8
			c0.3-0.3,0.5-0.7,0.6-1.2c0.1-0.7,0-1.4-0.3-2c-0.3-0.6-0.9-1-1.6-1.3c-0.7-0.2-1.4-0.2-2,0.1c-0.6,0.3-1.1,0.8-1.4,1.4l-0.1,0.1
			c0,0,0,0,0,0c0,0,0,0,0,0c-0.1,0.2-0.2,0.7-0.2,0.6c-0.1,0.3-0.2,0.5-0.2,0.7c-1.4,0-2.7-0.4-4-1c-1.7-0.8-3-2.1-3.9-3.8l-0.6,0.3
			c-0.3,0.2-0.7,0.3-1,0.5c-1.4,0.6-3,1.1-4.5,1.3h-0.1c-1.7,0.1-2.8-0.3-3.2-1.1C77.3,7.4,78.8,4.1,83.2,2.3z"/>
		<path class="st5" d="M85.1,12.8c0.4-0.3,0.8-0.4,1.3-0.4c0.5,0,0.9,0.1,1.3,0.3C86.1,10.7,83.7,12.9,85.1,12.8z"/>
		<path class="st5" d="M86.5,15.4c0.2,0.5,0.6,0.7,0.9,0.6c0.3-0.1,0.4-0.6,0.2-1.1c-0.2-0.5-0.6-0.7-0.9-0.6
			C86.4,14.4,86.3,14.9,86.5,15.4z"/>
		<path class="st5" d="M88.8,14.9L88.8,14.9C88.8,14.9,88.9,14.9,88.8,14.9C88.9,14.9,88.9,14.9,88.8,14.9c0.1-0.1,0.1-0.1,0-0.1
			c0,0,0,0,0,0c-0.2-0.2-0.4-0.4-0.6-0.5c-0.2-0.1-0.5-0.2-0.7-0.2c-0.3,0-0.5,0-0.8,0.1c-0.2,0.1-0.5,0.2-0.7,0.4c0,0,0,0,0,0.1
			c0,0,0,0.1,0,0.1c0,0,0,0,0.1,0c0,0,0.1,0,0.1,0c0.2-0.2,0.4-0.3,0.6-0.3c0.2-0.1,0.4-0.1,0.7-0.1c0.2,0,0.5,0.1,0.7,0.2
			c0.2,0.1,0.4,0.2,0.5,0.4C88.7,14.9,88.7,15,88.8,14.9C88.8,15,88.8,14.9,88.8,14.9"/>
		<path class="st6" d="M88,22.1c2.4-0.3,2.3-2.1,2.3-2.1c-0.7,0.6-1.6,1-2.5,1.4C87.8,21.5,87.9,21.9,88,22.1"/>
		<path class="st7" d="M26.7,48.4H7.4v0.8h19.4V48.4z"/>
		<path class="st7" d="M26.7,44.8H7.4v0.8h19.4V44.8z"/>
		<path class="st8" d="M26.7,45.6H8v2.8h18.7V45.6z"/>
		<path class="st9" d="M27.8,43.9H8.4v0.8h19.4V43.9z"/>
		<path class="st9" d="M27.8,40.4H8.4v0.8h19.4V40.4z"/>
		<path class="st8" d="M27.8,41.2H9.1V44h18.7V41.2z"/>
		<path class="st10" d="M27.8,34.5H8.4v0.8h19.4V34.5z"/>
		<path class="st10" d="M27.8,30.9H8.4v0.8h19.4V30.9z"/>
		<path class="st8" d="M27.8,31.7H9.1v2.8h18.7V31.7z"/>
		<path class="st11" d="M26.7,30.1H7.4v0.8h19.4V30.1z"/>
		<path class="st11" d="M26.7,26.5H7.4v0.8h19.4V26.5z"/>
		<path class="st8" d="M26.7,27.3H8v2.8h18.7V27.3z"/>
		<path class="st10" d="M26.7,39.8H7.4v0.5h19.4V39.8z"/>
		<path class="st10" d="M26.7,37.5H7.4v0.5h19.4V37.5z"/>
		<path class="st8" d="M26.7,38.1H8v1.8h18.7V38.1z"/>
		<path class="st12" d="M27.1,37.2H7.7v0.4h19.4V37.2z"/>
		<path class="st12" d="M27.1,35.3H7.7v0.4h19.4V35.3z"/>
		<path class="st8" d="M27.1,35.8H8.4v1.4h18.7V35.8z"/>
		<path class="st1" d="M67.6,43.8l-1.8-1l-4.5-1.6c-0.8-0.3-1.6-0.3-2.4-0.2c-0.8,0.1-1.6,0.5-2.2,1l-5.1,4.1H66l2.3,1.1L67.6,43.8z
			"/>
		<path class="st13" d="M61.3,56.8h-3.7l9.9,48.9h3.7L61.3,56.8z"/>
		<path class="st14" d="M105.3,86.3h-2v25.2h2V86.3z"/>
		<path class="st14" d="M113.7,114.2H94.7c0-0.4,0.1-0.7,0.2-1c0.1-0.3,0.3-0.6,0.6-0.9c0.3-0.3,0.5-0.4,0.9-0.6
			c0.3-0.1,0.7-0.2,1-0.2h13.7c0.7,0,1.4,0.3,1.9,0.8C113.5,112.8,113.7,113.5,113.7,114.2z"/>
		<path class="st15" d="M108.7,70.8c3.6-3.2,6.4-7.2,8.3-11.7c1.9-4.4,2.8-9.2,2.7-14.1c-0.2-5.7-4-12.3-0.7-17
			c5-7,15.3-5.3,15.3-5.3c2.5,13.1-1.6,27-5.8,39.7c-1.8,5.3-3.7,10.8-7.6,14.9c-2.2,2.3-5,4.1-7.9,5.5c-8,4-17.6,6-25.9,2.8
			c-0.8-0.2-1.5-0.7-2-1.3c-0.7-0.8-0.8-2-0.6-3c0.6-4.6,5.5-7.4,10-8.3C98.8,71.9,105.2,73.9,108.7,70.8z"/>
		<path class="st15" d="M88.5,82.4c8.2,0.7,17.2,1.2,24.1-3.4c3.7-2.4,6.3-6.1,8.7-9.8c4.1-6.3,5.4-12.1,4.4-19.6
			c-0.7-5.1-0.8-10.2-0.3-15.3c0.5-4.6,2.1-9.9,6.5-11.4c1.8-0.6,3.5-0.1,4.5,1.6c2.5,4.2,2,10.1,1.6,14.7c-0.7,8.6-2.4,17-4.9,25.3
			c-1.6,5.1-3.5,10.3-6.9,14.5c-4.6,5.8-11.6,9.3-18.8,10.8c-7.2,1.5-14.7,1.2-22,0.4L88.5,82.4z"/>
		<path class="st16" d="M136.4,24.5c-1-1.7-2.7-2.2-4.5-1.6c-4.4,1.5-6,6.8-6.5,11.4c-0.5,5.1-0.4,10.2,0.3,15.3
			c1.1,7.5-0.3,13.3-4.4,19.6c-1.8,2.8-3.8,5.5-6.2,7.8c-1.5,3.8-2.6,7.6-3.4,11.6c5.7-1.9,10.9-5,14.6-9.7
			c3.4-4.2,5.3-9.3,6.9-14.5c2.5-8.2,4.1-16.7,4.9-25.3C138.4,34.7,138.9,28.7,136.4,24.5z"/>
		<path class="st14" d="M40,112.2c-1.6,0.5-3.4,1.2-4.2,2.7c-0.2,0.3-0.3,0.8,0,1.1c0.2,0.1,0.3,0.1,0.5,0.1
			c1.4,0,13.2-0.2,15.6-0.2c0.2,0,0.3,0,0.5-0.1c0.2-0.1,0.3-0.1,0.4-0.3c0.1-0.2,0.2-0.4,0.2-0.6c0.1-1.7-0.7-3.6,0.1-5.2
			c0.3-0.5,0.7-1,0.9-1.5c0.2-0.5,0.2-1.3-0.4-1.6c-1.7-0.8-4.2,2.4-5.6,3.1C45.7,111,42.8,111.4,40,112.2z"/>
		<path class="st14" d="M85,111c-0.4,0.5-0.9,0.9-1.4,1.1c-1.1,0.6-2.2,1.2-3.4,1.6c-1.1,0.3-2.1,0.8-3,1.3c-0.7,0.5-2,1.9-1.5,2.8
			c0.6,1.1,2.8,0.5,3.8,0.3c1.4-0.4,2.6-1.3,3.8-2.1c2.1-1.4,4.5-2.4,6.9-2.9c0.4-0.1,0.9-0.2,1.2-0.5c0.2-0.2,0.3-0.5,0.4-0.8
			c0.1-0.3,0-0.6-0.1-0.9c-0.2-0.5-0.5-1.1-0.9-1.5c-1.1-1.4-2.1-2.8-3.1-4.2c-0.2-0.3-0.4-0.5-0.8-0.7
			C84.7,103.7,85.7,109.9,85,111z"/>
		<path class="st14" d="M67.2,80l-20.2,29.1l9.2,1.3l21.7-16.5L67.2,80z"/>
		<path class="st17" d="M119,63.4c-0.1-6.6-0.5-13.2-2.1-19.6c-1.5-6.4-4.2-12.6-8.3-17.8c-2.4-3-5.5-6.3-9.6-4.3
			c-3.1,1.5-5.4,4.8-7.2,7.7l-6.5,11c-6.4,1.4-13,2.2-19.6,2.5c0.2,1.9,0,3.6,0.4,5.5c4.2,2.2,8.4,4.5,13.1,5.3c3,0.5,6,0.3,8.9-0.4
			c2.9-0.8,5.6-2.1,8-3.9c0.4,4.6,0.9,9.2,1,13.8L119,63.4z"/>
		<path class="st18" d="M101.2,50.4c0.6-1.9,1.8-3.5,2.7-5.3c1-1.7,1.7-3.8,1.2-5.7c-0.9,0.5-4.8,6.7-8.9,9.8
			c0.4,4.6,0.9,9.2,1,13.8l2.8,0.1c0.4-2.3,0.6-4.6,0.7-6.9C100.8,54.3,100.7,52.3,101.2,50.4z"/>
		<path class="st18" d="M88,39.3l5.4-9.6c1.6-3,3.6-6.2,6.9-7c1.9-0.5,4,0,5.8,0.8l0.3,0.1c-2-1.9-4.4-3.3-7.4-1.9
			c-3.1,1.5-5.4,4.8-7.2,7.7l-6.5,11c1.7,0,3.3-0.4,5-0.5L88,39.3z"/>
		<path class="st19" d="M90.5,82.7c0.4,8.3,0.6,16.6,1,24.9c-2.5,1-5.4,2-8,2.7c-4.3-9.5-11.2-17.5-17.1-26
			c-1.6-2.4-3.4-4.8-4.1-7.6c-3.2-13.3,10.5-15.8,19.3-16c5.3-0.1,10.4,0.7,15.6,1l21.7,1.7c-0.3,6.6-4.5,12.7-10.1,16.1
			C103.2,83,97,83.4,90.5,82.7z"/>
		<path class="st14" d="M113.2,74.5c-6.2,5.4-16,6.5-22.7,1.8c-0.9-0.6-1.7-1.3-2.7-1.6c-3.6-1.4-1.2,1.5-0.1,2.8
			c1.2,1.6,2.2,3.3,3,5.2c6.5,0.7,12.6,0.2,18.2-3.2c4.3-2.6,7.6-6.6,9.2-11.4C116.8,70.6,115.2,72.7,113.2,74.5z"/>
		<path class="st20" d="M63.3,49.4H0v7.4h63.3V49.4z"/>
		<path class="st21" d="M34.3,49.4h29.9v-3.3H32.9L34.3,49.4z"/>
		<path class="st21" d="M34.3,49.4L24.1,24.8h-2.7l10.2,24.6H34.3z"/>
		<path class="st22" d="M24.1,24.8h11.3L45,46.1h-12L24.1,24.8z"/>
		<path class="st21" d="M21.4,24.8h14L45,46.1h-1.1L35,25.7H21.8L21.4,24.8z"/>
		<path class="st13" d="M58.8,120h-3.7L42.3,56.8h3.7L58.8,120z"/>
		<path class="st23" d="M45,49.8c-1.2,0-2.4-0.5-3.3-1.4c-0.9-0.9-1.4-2-1.4-3.3v-4.9h9.3v4.9c0,0.6-0.1,1.2-0.4,1.8
			c-0.2,0.6-0.6,1.1-1,1.5c-0.4,0.4-0.9,0.8-1.5,1C46.3,49.6,45.7,49.8,45,49.8z"/>
		<path class="st23" d="M42.4,47h-1.6c-0.7,0-1.4-0.3-1.9-0.8C38.3,45.7,38,45,38,44.3s0.3-1.4,0.8-1.9c0.5-0.5,1.2-0.8,1.9-0.8h1
			v0.8h-1c-0.3,0-0.5,0-0.8,0.1c-0.2,0.1-0.5,0.2-0.6,0.4c-0.2,0.2-0.3,0.4-0.4,0.6c-0.1,0.2-0.2,0.5-0.2,0.8c0,0.3,0.1,0.5,0.2,0.8
			c0.1,0.2,0.2,0.5,0.4,0.6c0.2,0.2,0.4,0.3,0.6,0.4c0.2,0.1,0.5,0.1,0.8,0.1h1.6V47z"/>
		<path class="st24" d="M22.1,74.6c-1.6-2.2-2.7-4.8-3.1-7.5c-0.4-2.7-0.1-5.5,0.8-8.1C22.1,63.5,22.5,69.5,22.1,74.6z"/>
		<path class="st24" d="M22.2,74.1c-1-2.3-2.1-4.7-4.1-6.1s-4.7-1.5-7.2-1.3c1,2.1,2.4,3.8,4.4,5c0.9,0.5,1.8,0.9,2.8,1.3
			C19.1,73.5,21,73.7,22.2,74.1z"/>
		<path class="st24" d="M32.2,68.2c-5.3-0.4-8.3,2-10.6,6.7c0.2-0.5,5.7-1.3,6.5-1.6c1-0.4,2.3-0.6,3.1-1.4
			C32.5,70.9,32,69.7,32.2,68.2z"/>
		<path class="st25" d="M21.9,74.3c-3.4-1.1-14.4-1.2-15.6,0C6.1,74.5,9.6,77,10,77.2c2.3,1.1,4.4,0.6,6.5-0.5
			C18.2,75.8,20.1,75.3,21.9,74.3z"/>
		<path class="st26" d="M24.6,80.6c0,0,5.3-7.2,11.7-5.7C36.3,75,37,78.3,24.6,80.6z"/>
		<path class="st26" d="M24.6,80.6c0,0,9.9-1.8,15.9,2.8C40.6,83.5,32.7,87.7,24.6,80.6z"/>
		<path class="st26" d="M20.5,82c0,0-8.3,0.3-12.1,6.7C8.4,88.7,17.1,89.7,20.5,82z"/>
		<path class="st24" d="M22.2,74.1h-0.8v22.4h0.8V74.1z"/>
		<path class="st26" d="M20.7,82h-0.4v14.6h0.4V82z"/>
		<path class="st26" d="M24.8,80.6h-0.4v15.5h0.4V80.6z"/>
		<path class="st27" d="M28.2,119.2H15c-1.2,0-2.4-0.5-3.2-1.3c-0.8-0.9-1.3-2-1.3-3.2V95.3h22.2v19.3c0,0.6-0.1,1.2-0.3,1.7
			c-0.2,0.6-0.6,1.1-1,1.5c-0.4,0.4-0.9,0.8-1.5,1C29.3,119.1,28.8,119.2,28.2,119.2z"/>
	</g>
</g>
</svg>
