<svg width="82" height="70" viewBox="0 0 82 70" fill="none" xmlns="http://www.w3.org/2000/svg">
    <path fill-rule="evenodd" clip-rule="evenodd" d="M21.54 0h8.979c11.896 0 21.54 9.188 21.54 20.522v19.965a.57.57 0 0 1-.584.557H21.541C9.644 41.044 0 31.856 0 20.522 0 9.188 9.644 0 21.54 0zm29.351 20.522c0-10.612-8.94-19.235-20.036-19.407l-.337-.002h-8.977c-11.252 0-20.373 8.69-20.373 19.409 0 10.72 9.121 19.409 20.373 19.409h29.35V20.52z" fill="#000"/>
    <path d="M34.165 14.49a.57.57 0 0 1 .584.557c0 .289-.232.527-.528.554l-.056.002H17.897a.57.57 0 0 1-.584-.556c0-.29.231-.527.527-.554l.057-.003h16.268zM34.165 24.108a.57.57 0 0 1 .584.557c0 .29-.232.527-.528.554l-.056.002H17.897a.57.57 0 0 1-.584-.556c0-.29.231-.527.527-.554l.057-.003h16.268z" fill="#000"/>
    <path fill-rule="evenodd" clip-rule="evenodd" d="M30.459 70h29.934c11.574 0 20.957-8.939 20.957-19.965 0-11.027-9.383-19.966-20.957-19.966h-8.977c-11.574 0-20.957 8.939-20.957 19.966V70z" fill="#0097A9"/>
    <path fill-rule="evenodd" clip-rule="evenodd" d="M49.98 50.034c0 1.444-1.227 2.614-2.742 2.614s-2.743-1.17-2.743-2.614c0-1.443 1.228-2.613 2.743-2.613s2.743 1.17 2.743 2.613zM58.647 50.034c0 1.444-1.228 2.614-2.743 2.614s-2.743-1.17-2.743-2.614c0-1.443 1.228-2.613 2.743-2.613s2.743 1.17 2.743 2.613zM67.314 50.034c0 1.444-1.228 2.614-2.743 2.614s-2.743-1.17-2.743-2.614c0-1.443 1.228-2.613 2.743-2.613s2.743 1.17 2.743 2.613z" fill="#fff"/>
</svg>
