<?xml version="1.0" encoding="utf-8"?>
<!-- Generator: Adobe Illustrator 25.4.1, SVG Export Plug-In . SVG Version: 6.00 Build 0)  -->
<svg version="1.1" id="Layer_1" xmlns="http://www.w3.org/2000/svg" xmlns:xlink="http://www.w3.org/1999/xlink" x="0px" y="0px"
	 viewBox="0 0 134 120" style="enable-background:new 0 0 134 120;" xml:space="preserve">
<style type="text/css">
	.st0{clip-path:url(#SVGID_00000001625470703032018780000009887907170640455328_);}
	.st1{fill:#47849B;}
	.st2{fill:#FCC67E;}
	.st3{fill:#F6A973;}
	.st4{fill:#D17A4F;}
	.st5{fill:#D75426;}
	.st6{fill:#C23255;}
	.st7{fill:#E6BCA8;}
	.st8{fill:#EC6536;}
	.st9{fill:#312646;}
	.st10{fill:#493969;}
	.st11{fill:#EDD1B7;}
	.st12{fill:#313C69;}
	.st13{fill:#FFFFFF;}
	.st14{opacity:0.27;}
	.st15{opacity:0.27;fill:#E8EAF6;enable-background:new    ;}
	.st16{opacity:0.2;}
	.st17{opacity:0.2;fill:#E8EAF6;enable-background:new    ;}
	.st18{opacity:0.1;}
	.st19{opacity:0.1;fill:#E8EAF6;enable-background:new    ;}
</style>
<g>
	<defs>
		<rect id="SVGID_1_" width="134" height="120"/>
	</defs>
	<clipPath id="SVGID_00000150800800130442755580000013455865674894715571_">
		<use xlink:href="#SVGID_1_"  style="overflow:visible;"/>
	</clipPath>
	<g style="clip-path:url(#SVGID_00000150800800130442755580000013455865674894715571_);">
		<path class="st1" d="M134,1.3H0V120h134V1.3z"/>
		<path class="st2" d="M0,0v120h40.9V15.4h52.4V120H134V0H0z M36.4,81.4H4.5V14.3h31.9V81.4z M129.6,81.4H97.7V14.3h31.9V81.4z"/>
		<path class="st3" d="M40.9,112H0v8h40.9V112z"/>
		<path class="st3" d="M134,112H93.3v8H134V112z"/>
		<g>
			<g>
				<path class="st4" d="M40.9,112H0v0.7h40.9V112z"/>
			</g>
		</g>
		<path class="st4" d="M134,112H93.3v0.7H134V112z"/>
		<path class="st5" d="M94.5,14v106h-2.2V43.5c0.1-0.1,0.1-0.2,0.2-0.3c0,0,0,0,0,0c-0.1-0.1-0.1-0.1-0.2-0.1V16.7H42V120h-2.2V14
			H94.5z"/>
		<path class="st6" d="M92.5,43.2C92.5,43.2,92.5,43.2,92.5,43.2c-0.1,0.1-0.1,0.2-0.2,0.3V43C92.3,43.1,92.4,43.1,92.5,43.2z"/>
		<path class="st7" d="M114.6,93.4C114.6,93.4,114.5,93.4,114.6,93.4l-0.1,0.1v0.2h-1.3c0,0-0.1,0.1-0.1,0.1c0,0,0,0.1,0,0.1
			c0,0,0,0.1,0.1,0.1c0,0,0.1,0.1,0.1,0.1h1.2v0h0c0.1,0,0.2,0,0.3,0v-0.9c0,0-0.1,0-0.1,0C114.7,93.3,114.6,93.3,114.6,93.4z"/>
		<path class="st7" d="M115.8,1c0.1,0,0.2-0.1,0.2-0.1s-0.1-0.1-0.2-0.1c-0.1,0-0.2,0.1-0.2,0.1S115.7,1,115.8,1z"/>
		<path class="st7" d="M118.4,0.3C118.4,0.3,118.4,0.3,118.4,0.3c0-0.1,0-0.1-0.1-0.2c0,0,0,0-0.1,0c0,0,0,0-0.1,0c0,0,0,0,0,0.1
			s0,0.1,0,0.1c0,0,0,0.1,0,0.1c0,0,0,0,0.1,0C118.4,0.5,118.4,0.5,118.4,0.3C118.4,0.4,118.4,0.4,118.4,0.3z"/>
		<path class="st7" d="M111.1,0.5c0-0.1-0.1-0.3-0.2-0.3c-0.1,0-0.2,0.1-0.2,0.3s0.1,0.3,0.2,0.3C111.1,0.7,111.1,0.6,111.1,0.5z"/>
		<path class="st7" d="M113.7,1.1c0-0.1,0-0.2-0.1-0.2c-0.1,0-0.1,0.1-0.1,0.2c0,0.1,0,0.2,0.1,0.2C113.6,1.3,113.7,1.2,113.7,1.1z"
			/>
		<path class="st7" d="M28.8,11.9c0,0,0-0.1,0-0.1c0,0,0-0.1-0.1-0.1c0,0-0.1,0-0.1,0c0,0-0.1,0-0.1,0.1c0,0,0,0.1,0,0.1
			s0,0.1,0,0.1c0,0,0,0.1,0.1,0.1c0,0,0.1,0,0.1,0c0,0,0.1,0,0.1-0.1C28.8,12,28.8,12,28.8,11.9z"/>
		<path class="st7" d="M23.3,0.2c0,0,0-0.1,0-0.1c0,0,0-0.1-0.1-0.1c0,0-0.1,0-0.1,0c0,0-0.1,0-0.1,0.1c0,0,0,0.1,0,0.1
			c0,0,0,0.1,0,0.1c0,0,0,0.1,0.1,0.1c0,0,0.1,0,0.1,0c0,0,0,0,0.1,0c0,0,0,0,0,0C23.2,0.3,23.2,0.3,23.3,0.2
			C23.3,0.3,23.3,0.3,23.3,0.2z"/>
		<path class="st7" d="M97.7,109.9c0,0.1,0,0.1,0,0.2c0,0,0.1,0.1,0.1,0.1c0.1,0.1,0.1-0.1,0.1-0.3c0-0.1,0-0.1,0-0.2
			c0,0-0.1-0.1-0.1-0.1C97.7,109.6,97.7,109.7,97.7,109.9z"/>
		<path class="st7" d="M95.9,111.2C95.9,111.2,95.9,111.2,95.9,111.2C95.9,111.2,95.9,111.2,95.9,111.2
			C95.9,111.2,95.9,111.2,95.9,111.2C95.9,111.2,95.9,111.2,95.9,111.2c0-0.1,0-0.2,0-0.3h-0.1L95.9,111.2z"/>
		<path class="st7" d="M95.9,109.3l0-1.8l0-1.8c0-0.6,0-1.2,0-1.8c0,0,0,0,0,0c0,0,0,0,0,0c0,0,0,0,0,0c0,0,0,0,0,0
			c0,0.6,0,1.2,0,1.8l0,1.8L95.9,109.3c-0.1,0.5-0.1,0.9-0.1,1.4h0.1C95.9,110.2,95.9,109.8,95.9,109.3z"/>
		<path class="st7" d="M122.7,111.1c0.1,0,0.2,0,0.3,0c0.1,0,0.2,0,0.3,0c0.1,0,0.2,0,0.3,0h0h0c0.2,0.1,0.3,0,0.5,0
			c0,0,0.1,0,0.1-0.1c0,0,0.1-0.1,0.1-0.1c0,0,0,0,0-0.1h-2c0,0,0,0.1,0,0.1c0,0,0,0.1,0.1,0.1c0,0,0.1,0.1,0.1,0.1
			C122.6,111.1,122.7,111.1,122.7,111.1z"/>
		<path class="st7" d="M119.2,97.5C119.2,97.5,119.2,97.5,119.2,97.5C119.2,97.5,119.2,97.5,119.2,97.5
			C119.2,97.5,119.2,97.5,119.2,97.5C119.2,97.5,119.2,97.5,119.2,97.5C119.2,97.5,119.2,97.5,119.2,97.5
			C119.2,97.5,119.2,97.5,119.2,97.5l-0.1,1.6l0,1.6l0,3.2l0,3.2c0,1.1,0,2.1,0,3.2c0,0,0,0,0,0c0,0,0,0,0,0c0,0,0,0,0,0
			c0,0,0,0,0,0c0-1.1,0-2.1,0-3.2v-3.2l0-3.2v-1.6L119.2,97.5z"/>
		<path class="st7" d="M116.5,109.1C116.5,109.1,116.5,109.1,116.5,109.1c-0.1,0.1-0.1,0.2-0.1,0.2c0,0.2,0.1,0.1,0.2,0
			c0,0,0.1-0.1,0.1-0.1c0,0,0-0.1,0-0.1C116.8,109,116.6,109,116.5,109.1z"/>
		<path class="st7" d="M111,109.7c0,0,0.1,0,0.1,0c0,0,0.1-0.1,0.1-0.1c0,0,0-0.1,0-0.2c0-0.1,0-0.1,0-0.1c0,0-0.1-0.1-0.1-0.1
			s-0.1,0-0.1,0c0,0-0.1,0.1-0.1,0.1c0,0,0,0.1,0,0.1c0,0.1,0,0.1,0,0.2S111,109.7,111,109.7z"/>
		<path class="st7" d="M113.9,110.2C113.9,110.3,113.9,110.3,113.9,110.2c0.1,0,0.1-0.1,0.2-0.1c0,0,0-0.1,0-0.1c0,0,0-0.1,0-0.1
			c0,0,0-0.1-0.1-0.1c0,0-0.1,0-0.1,0c0,0-0.1,0-0.1,0.1c0,0,0,0.1,0,0.1C113.8,110.1,113.8,110.2,113.9,110.2
			C113.8,110.2,113.9,110.2,113.9,110.2z"/>
		<path class="st7" d="M115.1,93.8c0,0,0-0.1,0-0.1c0-0.1,0-0.1,0-0.2c0,0,0-0.1-0.1-0.1l0,0v0.7c0.1,0,0.1-0.1,0.1-0.1
			C115.1,94,115.1,93.9,115.1,93.8z"/>
		<path class="st7" d="M103.5,108.2c0,0.1,0,0.2,0.1,0.2c0.1,0,0.1-0.1,0.1-0.2s0-0.2-0.1-0.2C103.5,108,103.5,108.1,103.5,108.2z"
			/>
		<path class="st7" d="M101.5,109.7c0,0.1,0,0.1,0,0.2c0,0,0.1,0.1,0.1,0.1c0.1,0.1,0.1-0.1,0.1-0.3c0-0.1,0-0.1,0-0.2
			c0,0-0.1-0.1-0.1-0.1C101.5,109.4,101.5,109.5,101.5,109.7z"/>
		<path class="st7" d="M114.4,93.4L114.4,93.4L114.4,93.4c-0.1,0-0.2,0-0.2-0.1l-0.1,0h0l0,0l0,0c0,0-0.1-0.1-0.1-0.1
			c0,0,0-0.1-0.1-0.1c0,0,0-0.1,0-0.1c0-0.1,0-0.1-0.1-0.1c0,0-0.1,0-0.1,0c0,0-0.1,0-0.1,0.1c0,0-0.1,0.1-0.1,0.2
			c0,0.1,0,0.1,0,0.2c0,0,0,0,0,0.1c0,0,0,0,0,0c0,0,0,0,0,0c0,0,0,0,0,0c0,0,0,0,0,0c0,0,0,0,0,0c0,0,0-0.1,0-0.1l0,0v-0.3l0-0.1
			c0,0,0-0.1,0-0.1v-0.5l0-1.6c0-0.5,0-1.1,0-1.6c0,0,0,0,0,0c0,0,0,0,0,0s0,0,0,0c0,0,0,0,0,0c0,0,0,0,0,0c0,0,0,0,0,0
			c0,0.5,0,1.1,0,1.6l0,1.3c0,0,0,0,0,0c0,0,0,0,0,0c0,0.1,0,0.1,0,0.2c0,0.4,0,0.7,0.1,1c0,0,0,0.1,0,0.1L114.4,93.4L114.4,93.4z"
			/>
		<path class="st7" d="M17.2,111c0.2,0.2,0.4,0,0.5-0.1c0,0,0.1-0.1,0.1-0.1h-0.7C17.1,110.9,17.1,110.9,17.2,111
			C17.2,111,17.2,111,17.2,111z"/>
		<path class="st7" d="M124.3,110.6C124.3,110.6,124.3,110.5,124.3,110.6c0-0.1,0-0.2,0-0.3c0,0,0-0.1,0-0.1v-1.2l0-1.3
			c0-0.5,0-1.1,0-1.6c0,0,0,0,0,0c0,0,0,0,0,0c0,0,0,0,0,0c0,0,0,0,0,0c0,0,0,0,0,0c0,0,0,0,0,0c0,0.5,0,1.1,0,1.6l0,1.6v0.5
			c0,0,0,0.1,0,0.1l0,0.1v0.3v0c0,0,0,0,0,0.1c0,0,0,0,0,0c0,0,0,0,0,0c0,0,0,0,0,0c0,0,0,0,0,0c0,0,0,0,0,0c0,0,0,0,0-0.1
			c0-0.1,0-0.1,0-0.2c0-0.1,0-0.1-0.1-0.2c0,0-0.1-0.1-0.1-0.1c-0.1,0-0.1,0-0.1,0c0,0-0.1,0.1-0.1,0.1c0,0,0,0,0,0.1
			c0,0-0.1,0.1-0.1,0.1c0,0,0,0.1-0.1,0.1l0,0l0,0h0l-0.1,0c0,0-0.1,0-0.1,0c0,0-0.1,0-0.1,0h0h0c0,0-0.1,0-0.1,0c0,0,0,0-0.1-0.1
			c0,0-0.1-0.1-0.2-0.1c-0.1,0-0.1,0-0.2,0.1c0,0-0.1,0.1-0.1,0.1c0,0,0,0.1,0,0.2c0,0,0,0,0,0L124.3,110.6L124.3,110.6z"/>
		<path class="st7" d="M133.1,22.7l0-1.6c0,0,0,0,0,0c0,0,0,0,0,0c0,0,0,0,0,0c0,0,0,0,0,0L133.1,22.7l-0.1,1.6l0,3.2l0,3.2
			c0,1.1,0,2.1,0,3.2c0,0,0,0,0,0c0,0,0,0,0,0c0,0,0,0,0,0c0,0,0,0,0,0c0,0,0,0,0,0c0,0,0,0,0,0c0-1.1,0-2.1,0-3.2v-3.2l0-3.2
			L133.1,22.7z"/>
		<path class="st8" d="M92.2,16.9H42V120h50.2V16.9z"/>
		<path class="st9" d="M89.6,77.6h-2.3v7.8h2.3V77.6z"/>
		<path class="st10" d="M89.6,78.9h-1.8v5.2h1.8V78.9z"/>
		<path class="st9" d="M84.1,21.1H47v53h37.1V21.1z"/>
		<path class="st11" d="M84.1,21.1H47v2h37.1V21.1z"/>
		<path class="st11" d="M84.1,23.7H47v2h37.1V23.7z"/>
		<path class="st11" d="M84.1,26.3H47v2h37.1V26.3z"/>
		<path class="st11" d="M84.1,28.9H47v2h37.1V28.9z"/>
		<path class="st11" d="M84.1,31.5H47v2h37.1V31.5z"/>
		<path class="st11" d="M84.1,34.1H47v2h37.1V34.1z"/>
		<path class="st11" d="M84.1,36.7H47v2h37.1V36.7z"/>
		<path class="st11" d="M84.1,39.3H47v2h37.1V39.3z"/>
		<path class="st11" d="M84.1,41.9H47v2h37.1V41.9z"/>
		<path class="st11" d="M84.1,44.5H47v2h37.1V44.5z"/>
		<path class="st11" d="M84.1,47.2H47v2h37.1V47.2z"/>
		<path class="st11" d="M84.1,49.8H47v2h37.1V49.8z"/>
		<path class="st11" d="M84.1,52.4H47v2h37.1V52.4z"/>
		<path class="st11" d="M84.1,55H47v2h37.1V55z"/>
		<path class="st11" d="M84.1,57.6H47v2h37.1V57.6z"/>
		<path class="st11" d="M84.1,60.2H47v2h37.1V60.2z"/>
		<path class="st11" d="M84.1,62.8H47v2h37.1V62.8z"/>
		<path class="st12" d="M76.3,40.9L67,22.7l-11.4,16l-0.4-0.4l11.8-16.6l9.6,18.9L76.3,40.9z"/>
		<path class="st1" d="M75.5,56.2l-21.1-2.3c-0.2,0-0.4-0.1-0.5-0.3c-0.1-0.2-0.2-0.4-0.2-0.7l1-14.2c0-0.3,0.1-0.5,0.3-0.6
			c0.2-0.2,0.4-0.2,0.6-0.2l21.1,2.3c0.2,0,0.4,0.1,0.5,0.3c0.1,0.2,0.2,0.4,0.2,0.7l-1,14.2c0,0.3-0.1,0.5-0.3,0.6
			C75.9,56.2,75.7,56.3,75.5,56.2z"/>
		<path class="st13" d="M74.5,54.6L74.5,54.6l-18.7-2c-0.2,0-0.4-0.2-0.6-0.4S55,51.7,55,51.5l0.8-11c0-0.3,0.1-0.5,0.3-0.7
			c0.2-0.2,0.4-0.3,0.6-0.2l18.6,2c0.2,0,0.4,0.2,0.6,0.4c0.1,0.2,0.2,0.5,0.2,0.8l-0.8,11c0,0.3-0.1,0.5-0.3,0.7
			C74.9,54.5,74.7,54.6,74.5,54.6z M74.4,54.4c0.2,0,0.4-0.1,0.5-0.2c0.1-0.1,0.2-0.4,0.2-0.6l0.8-11c0-0.2,0-0.5-0.2-0.6
			c-0.1-0.2-0.3-0.3-0.5-0.3l-18.6-2c-0.1,0-0.2,0-0.3,0c-0.1,0-0.2,0.1-0.2,0.2c-0.1,0.1-0.1,0.2-0.2,0.3c0,0.1-0.1,0.2-0.1,0.3
			l-0.8,11c0,0.1,0,0.2,0,0.3c0,0.1,0.1,0.2,0.1,0.3c0.1,0.1,0.1,0.2,0.2,0.2c0.1,0.1,0.2,0.1,0.3,0.1L74.4,54.4z"/>
		<path class="st13" d="M61.2,46.6c0,0.2,0,0.4-0.1,0.6c-0.1,0.2-0.1,0.4-0.2,0.5c-0.1,0.2-0.2,0.3-0.3,0.4
			c-0.1,0.1-0.2,0.2-0.4,0.3c-0.3,0.2-0.6,0.3-1,0.2c-0.2,0-0.3-0.1-0.5-0.1c-0.1-0.1-0.3-0.2-0.4-0.3c-0.1-0.1-0.2-0.2-0.3-0.4
			c-0.1-0.1-0.2-0.3-0.2-0.5c-0.1-0.2-0.1-0.4-0.1-0.6c0-0.2,0-0.4,0-0.6c0-0.2,0-0.4,0.1-0.6c0.1-0.2,0.1-0.4,0.2-0.5
			c0.1-0.2,0.2-0.3,0.3-0.4c0.2-0.3,0.5-0.5,0.8-0.5c0.2,0,0.3-0.1,0.5,0c0.3,0,0.5,0.1,0.7,0.2c0.2,0.1,0.4,0.3,0.6,0.5
			c0.1,0.2,0.3,0.5,0.3,0.7C61.2,45.9,61.2,46.3,61.2,46.6z M59.9,46.5c0-0.1,0-0.2,0-0.3c0-0.1,0-0.2-0.1-0.3
			c0-0.1-0.1-0.1-0.2-0.2c-0.1-0.1-0.1-0.1-0.2-0.1c-0.1,0-0.2,0-0.2,0c-0.1,0-0.1,0.1-0.2,0.1c-0.1,0.1-0.1,0.1-0.1,0.2
			c0,0.1-0.1,0.2-0.1,0.3c0,0.1,0,0.2,0,0.3c0,0.1,0,0.2,0.1,0.3c0,0.1,0.1,0.2,0.2,0.2c0.1,0.1,0.1,0.1,0.2,0.1c0.1,0,0.2,0,0.2,0
			c0.1,0,0.1-0.1,0.2-0.2c0.1-0.1,0.1-0.2,0.1-0.2C59.9,46.7,59.9,46.6,59.9,46.5L59.9,46.5z"/>
		<path class="st13" d="M65.4,46.1c0,0.2-0.1,0.4-0.1,0.6c-0.1,0.2-0.2,0.3-0.3,0.4c-0.1,0.1-0.2,0.2-0.4,0.3
			c-0.1,0.1-0.3,0.1-0.4,0.2c-0.2,0-0.3,0.1-0.5,0.1c-0.2,0-0.3,0-0.5,0l-0.1,1.6l-1.3-0.1c0-0.5,0.1-1.1,0.1-1.6
			c0-0.5,0.1-1.1,0.1-1.6c0-0.3,0-0.6,0.1-0.9c0-0.3,0-0.6,0.1-0.9c0.2-0.1,0.5-0.1,0.7-0.1c0.3,0,0.5,0,0.8,0c0.1,0,0.3,0,0.4,0.1
			c0.1,0,0.3,0.1,0.4,0.2c0.1,0.1,0.2,0.2,0.4,0.3c0.1,0.1,0.2,0.2,0.3,0.4c0.1,0.1,0.1,0.3,0.2,0.5C65.4,45.8,65.4,45.9,65.4,46.1z
			 M64.1,46.1c0-0.1,0-0.1,0-0.2c0-0.1,0-0.1-0.1-0.2c-0.1-0.1-0.2-0.2-0.3-0.2c0,0-0.1,0-0.1,0c0,0-0.1,0-0.1,0l-0.1,1
			c0,0,0.1,0,0.1,0l0.1,0c0.1,0,0.1,0,0.2,0c0.1,0,0.1-0.1,0.2-0.1c0.1,0,0.1-0.1,0.1-0.2C64.1,46.3,64.1,46.2,64.1,46.1z"/>
		<path class="st13" d="M69,44.8c0,0.2-0.1,0.4-0.1,0.6c0,0.2-0.1,0.4-0.1,0.6l-1.2-0.1l-0.1,0.4l0.9,0.1l-0.1,1.1l-0.9-0.1
			l-0.1,0.5l0.7,0.1l0.5,0.1c0,0.3-0.1,0.5-0.1,0.8c0,0.3-0.1,0.5-0.1,0.8l-2.5-0.2l0.4-5L69,44.8z"/>
		<path class="st13" d="M73.5,45.4L73,50.1h-1.5l-0.6-2.6L70.6,50l-1.3-0.1l0.5-5l1.4,0.1l0.8,2.6l0.2-2.4L73.5,45.4z"/>
		<path class="st8" d="M67.8,22.2c0,0.2,0,0.4-0.1,0.5c-0.1,0.2-0.2,0.3-0.3,0.3c-0.1,0.1-0.3,0.1-0.4,0.1c-0.1,0-0.3-0.1-0.4-0.3
			c-0.1-0.1-0.2-0.3-0.2-0.5c0-0.2,0-0.4,0-0.5c0.1-0.2,0.2-0.3,0.3-0.4c0.1-0.1,0.3-0.2,0.4-0.2c0.2,0,0.4,0.1,0.5,0.3
			C67.8,21.7,67.8,21.9,67.8,22.2z"/>
		<g class="st14">
			<path class="st15" d="M34.8,35l-29,39.7V49.3l24-32.6h5V35z"/>
		</g>
		<g class="st16">
			<path class="st17" d="M22.7,15.4L5.6,38.3V15.4H22.7z"/>
		</g>
		<g class="st18">
			<path class="st19" d="M35.3,63.2v16.6H23.9L35.3,63.2z"/>
		</g>
		<path class="st4" d="M36.5,81.5H4.2V14.2h32.3V81.5z M6.4,78.8h27.9V16.9H6.4V78.8z"/>
		<path class="st4" d="M35.4,35.3H5.3v1h30.1V35.3z"/>
		<path class="st4" d="M35.4,58.2H5.3v1h30.1V58.2z"/>
		<path class="st4" d="M20.8,15.5h-0.8v64.6h0.8V15.5z"/>
		<g class="st14">
			<path class="st15" d="M128.2,35l-29,39.7V49.3l24-32.6h5V35z"/>
		</g>
		<g class="st16">
			<path class="st17" d="M116,15.4L99,38.3V15.4H116z"/>
		</g>
		<g class="st18">
			<path class="st19" d="M128.7,63.2v16.6h-11.4L128.7,63.2z"/>
		</g>
		<path class="st4" d="M129.8,81.5H97.5V14.2h32.3V81.5z M99.7,78.8h27.9V16.9H99.7V78.8z"/>
		<path class="st4" d="M128.7,35.3H98.6v1h30.1V35.3z"/>
		<path class="st4" d="M128.7,58.2H98.6v1h30.1V58.2z"/>
		<path class="st4" d="M114.1,15.5h-0.8v64.6h0.8V15.5z"/>
	</g>
</g>
</svg>
