<svg width="36" height="36" viewBox="0 0 36 36" fill="none" xmlns="http://www.w3.org/2000/svg">
<path d="M1.5 31.5L18 3L34.5 31.5H1.5ZM18 27C18.425 27 18.7812 26.8563 19.0688 26.5688C19.3563 26.2812 19.5 25.925 19.5 25.5C19.5 25.075 19.3563 24.7188 19.0688 24.4313C18.7812 24.1438 18.425 24 18 24C17.575 24 17.2188 24.1438 16.9313 24.4313C16.6438 24.7188 16.5 25.075 16.5 25.5C16.5 25.925 16.6438 26.2812 16.9313 26.5688C17.2188 26.8563 17.575 27 18 27ZM16.5 22.5H19.5V15H16.5V22.5Z" fill="#B30000"/>
</svg>
