<svg width="834" height="984" viewBox="0 0 834 984" fill="none" xmlns="http://www.w3.org/2000/svg">
<g clip-path="url(#clip0_1558_19208)">
<path d="M834 0H0V984H834V0Z" fill="url(#paint0_linear_1558_19208)"/>
<path d="M107.102 126.847L161.202 102.94L173.002 107.674L185.802 90.0395L191.702 84.832L201.102 90.0395L213.402 101.164L222.302 98.7975L245.602 115.722L264.202 113.473L294.302 130.989L210.702 174.187L107.102 126.847Z" fill="#5281A4"/>
<path d="M413.997 177.145L0 175.499V153.249V98.0977L32.1969 109.803L42.3969 107.081L49.4969 109.803L72.7969 101.045L88.9969 116.667L94.0969 113.117L108.797 125.662L123.497 122.703L144.297 138.917L163.597 134.657L175.697 146.137L180.797 145.545L201.597 161.641L219.797 155.131L226.397 143.06L236.297 136.55L254.797 137.142L264.997 129.923L289.797 122.111L295.897 115.484L300.997 109.803L312.097 114.892L327.297 109.803L342.997 118.443L357.197 113.117H385.097L394.297 122.111L407 109.999L413.997 109.685" fill="url(#paint1_linear_1558_19208)"/>
<path d="M413.997 205.55L0 206V184.484V119.367L36.7969 128.149L58.2969 145.546H78.1969L102.597 140.931L128.697 148.979L156.497 160.34L168.897 165.429L175.197 175.844L183.097 171.11L200.697 176.436L223.897 165.429L236.297 162.352L253.397 146.967L291.997 161.761H301.597L322.597 151.937L335.697 142.233L354.797 151.937H371.997L380.497 142.233L389.497 148.269L413.997 125.427" fill="url(#paint2_linear_1558_19208)"/>
<circle cx="239" cy="29" r="25" fill="#FFD84E"/>
<path fill-rule="evenodd" clip-rule="evenodd" d="M312.9 29.9282C312.7 29.9282 312.5 29.8098 312.3 29.8098C311.9 29.5731 311.2 29.5731 310.4 29.6915C308.5 29.6915 306.7 30.1649 305.2 31.3484C304.4 31.9402 303.2 33.1237 302.4 33.8338C302.2 34.0705 301.9 34.3072 301.7 34.4255L300.9 35.0173C300.8 35.1356 300.7 35.1356 300.6 35.254C300.5 34.1888 299 32.6503 298.4 31.4668C298.3 31.2301 297.3 28.3896 297.2 28.1529C297.1 27.9162 297 27.5612 296.9 27.2061C296.6 26.6144 295.7 25.5492 295.2 25.3125C295.4 25.5492 295.9 25.9043 296 26.2593C298.2 29.0997 295.9 31.7035 297.2 33.3604L297.7 34.1888C298.2 35.0173 297.9 35.609 297.8 35.9641C298 36.2008 297.6 36.5559 297.3 36.7926C296.8 36.7926 296.5 36.5559 296.2 36.3192C295.7 35.7274 295.4 35.0173 294.6 34.6622C294 34.4255 292.6 34.5439 292.2 34.8989C292.2 34.8989 292.2 34.8989 292.2 35.0173C292.2 35.0173 292.2 35.0173 292.1 35.0173C292 35.0173 291.9 35.0173 291.9 35.0173C292 35.0173 292.1 35.0173 292.1 35.0173C291.2 35.254 290.1 35.0173 290 35.609C290.4 35.4907 291.4 35.609 292.2 35.8458C292.4 36.0825 292.7 36.2008 293.2 36.3192C293.4 36.3192 294.2 36.5559 294.4 36.6742C294.7 36.9109 295.3 37.621 296 38.0944C296.4 38.3311 296.8 38.4495 297.1 38.4495C297.3 38.6862 299.2 39.8697 299.5 39.988C301.4 40.6981 302.5 40.4614 304.3 40.1064C305.5 39.8697 307.2 39.8697 308.5 39.8697C309.3 40.1064 310.2 40.3431 311 40.4614C310.2 40.2247 309.3 39.8697 308.5 39.633C307.9 39.3963 306.7 38.9229 306.2 38.6862C305.5 38.3311 304.7 37.9761 303.9 37.621C303.7 37.5027 303.5 37.3843 303.4 37.3843C304.4 37.266 305.5 37.1476 306.3 36.7926C306.9 36.4375 307.3 35.9641 307.8 35.1356C310.6 30.2833 312 30.9934 312.7 30.2832H312.9C312.9 29.9282 312.9 29.9282 312.9 29.9282ZM305.3 32.1769C305.3 32.1769 305.2 32.2952 305.1 32.4136C305.2 32.2952 305.2 32.1769 305.3 32.1769Z" fill="#5281A4"/>
<path fill-rule="evenodd" clip-rule="evenodd" d="M271 43.3059C271 43.0691 271.2 42.9508 271.4 42.8325C271.4 42.8325 271.4 42.8324 271.5 42.7141C271.6 42.5957 271.7 42.5957 271.8 42.5957L271.9 42.4774L271.8 42.5957L271.9 42.4774C272 42.359 272.1 42.2407 272.3 42.004C272.7 41.4122 273 41.4122 273.7 41.5306C274.4 41.6489 274.5 41.7673 275.2 41.6489C275.8 41.5306 276.5 41.5306 277 41.4122C277 41.1755 276.9 40.8205 276.8 40.5838C276.4 39.5186 275.3 38.4535 274.9 37.8617C274.1 36.5598 273.8 33.246 274.1 33.0093C274.3 32.891 274.4 33.1277 274.5 33.246C274.6 33.3644 274.6 33.3644 274.6 33.4827C274.7 33.6011 274.7 33.6011 274.7 33.7194C275.4 33.1277 275.5 34.5479 276 34.4295C276.3 34.3112 276.4 34.4295 276.5 34.5479C276.7 34.7846 276.7 35.0213 276.9 35.258C277 35.3763 277.1 35.4947 277.3 35.4947C277.5 35.613 277.6 35.613 277.6 35.613C277.7 35.7314 277.8 35.9681 277.8 36.2048C278 36.9149 278.1 36.6782 278.3 36.7965C278.5 37.0332 278.3 37.3883 278.6 37.7434C278.7 37.8617 278.8 37.9801 278.9 37.9801C279 38.0984 279.1 38.2168 279.1 38.8085L279.4 39.0452C279.9 38.8085 282.9 35.9681 283.4 35.1396C283.7 34.5479 284.3 33.246 284.6 32.5359C284.7 32.2992 284.7 32.0625 284.9 32.0625C285 32.2992 285 32.5359 285 32.891L285.3 32.6543C285.4 33.0093 285.4 33.3644 285.3 33.7194L285.4 33.8378C285.3 33.9561 285.5 33.9561 285.4 33.8378C285.4 33.8378 285.5 33.8378 285.6 33.9561V34.4295C285.7 34.4295 285.6 34.3112 285.8 34.4295L285.6 34.9029C285.5 35.258 285.9 34.6662 285.5 35.7314L285.6 35.8497C285.7 35.9681 285.7 35.7314 285.7 36.0864C285.7 36.3231 285.4 36.9149 285.1 37.0332C285.2 37.1516 285.2 37.1516 285.4 37.1516C285.4 37.625 285.1 37.5067 285.2 37.7434C285.2 38.0984 285 37.9801 284.8 38.5718L284.7 38.6902C284.7 38.6902 284.7 38.6902 284.6 38.8085C284.5 38.9269 284.4 38.9269 284.3 38.9269C284.5 39.1636 284.4 39.1636 284.2 39.2819C284.1 39.4003 284.1 39.2819 284 39.2819C284.1 39.4003 284.1 39.4003 284.2 39.5186L283.6 39.637L284 39.5186C283.3 39.5186 283.5 39.4003 283.4 39.7553C283.3 39.992 283.2 39.992 282.9 40.2287L282.2 40.7021C281.9 40.9388 281.9 41.1755 281.7 41.2939C281.5 41.4122 281.3 41.5306 281.3 42.1223C282.6 42.5957 283 43.3059 283.9 44.016C284.1 44.2527 284.4 44.371 284.7 44.6077L284.8 44.7261L284.9 44.8444C284.6 44.9628 284.6 44.7261 284.5 44.8444C284.3 44.9628 284.5 44.9628 284.3 44.9628C284.2 44.9628 284.1 44.8444 284 44.8444C283.8 44.8444 283.9 45.0811 283.5 44.9628C283 44.7261 283.4 45.1995 283 45.0811L282.9 44.9628L282.6 44.8444L282.4 45.0811L282.3 45.1995C282.2 45.3178 282.3 45.1995 282.2 45.3178C281.9 45.1995 281.9 45.5545 281.7 45.4362L281.6 45.3178C281.6 45.5545 281.7 45.5545 281.4 45.5545C281.2 45.5545 281.3 45.5545 281.1 45.3178L280.4 45.4362C280.4 45.4362 280.3 45.3178 280.4 45.4362H280.3C280.2 45.4362 280.2 45.4362 280.1 45.4362C277.9 45.4362 278.7 45.3178 279.8 45.3178C279.1 45.1995 278.3 45.0811 277.6 44.9628C277.6 44.9628 277.5 44.9628 277.4 44.8444C277 44.7261 276.6 44.4894 276.4 44.371C276 44.016 275.6 43.4242 275.2 43.1875C274.2 42.5957 273.9 42.9508 272.6 42.9508C272.3 42.8325 272 43.0692 271.6 43.0692C271.3 43.0692 271.2 43.1875 271 43.3059Z" fill="#5281A4"/>
<path fill-rule="evenodd" clip-rule="evenodd" d="M291.803 22.9496C291.403 22.9496 291.003 22.7129 290.703 22.5946C290.103 22.2395 289.503 21.7661 289.103 21.2927C288.703 20.9377 288.203 20.3459 287.603 19.8725C288.103 19.9909 288.803 20.2276 289.303 20.5826C289.703 20.1092 289.703 20.4643 289.703 19.6358C289.703 19.1624 289.703 18.8073 289.503 18.3339C289.403 18.0972 289.203 17.2688 289.103 17.1504C289.103 17.1504 289.103 17.0321 289.003 17.1504C288.803 16.7954 288.703 16.322 288.503 15.9669C288.403 15.6119 288.203 15.2568 288.103 15.0201V14.9018C287.803 14.5467 287.603 14.1917 287.303 13.955C287.303 13.7183 287.403 13.5999 287.303 13.2448C287.103 13.3632 287.103 13.4815 286.903 13.7183C286.803 13.7183 286.703 13.5999 286.603 13.5999C286.603 13.1265 286.503 12.6531 286.203 12.5347L286.103 13.4815C286.003 13.4815 285.903 13.3632 285.803 13.3632C285.703 12.8898 285.603 12.4164 285.303 12.1797V12.298V12.4164C285.303 12.6531 285.303 12.8898 285.303 13.1265C285.103 12.8898 284.803 12.6531 284.603 12.1797H284.403C284.403 12.298 284.403 12.4164 284.403 12.6531C284.403 13.2448 284.603 14.1917 284.603 14.6651C284.603 14.6651 284.603 14.6651 284.603 14.5467C284.503 14.5467 284.503 14.5467 284.503 14.5467C284.503 14.5467 284.503 14.5467 284.403 14.5467C284.303 15.4935 284.303 15.6119 284.503 16.4403C284.703 17.1504 284.603 17.8605 284.403 18.4523H284.603C284.603 18.5706 284.603 18.689 284.503 18.689C284.403 18.689 284.403 18.689 284.403 18.8073C283.903 19.1624 283.903 19.0441 283.203 19.1624C282.103 19.2808 281.603 19.5175 280.603 19.0441C279.903 18.8073 279.303 17.9789 278.403 18.2156C277.903 18.3339 277.803 18.5706 277.303 18.689H277.203C277.203 18.689 277.103 18.689 277.003 18.689C276.903 18.689 276.903 18.689 276.903 18.689C276.903 18.689 277.003 18.689 277.103 18.689C276.603 18.9257 276.003 18.689 275.903 19.3991C276.003 19.3991 276.103 19.3991 276.403 19.3991C276.603 19.3991 276.803 19.5175 277.003 19.5175C277.203 19.5175 277.303 19.6358 277.503 19.7542C277.603 19.7542 277.603 19.7542 277.603 19.7542C278.003 19.8725 278.203 19.9909 278.203 19.9909C278.603 19.9909 278.903 19.9909 279.103 19.9909C279.203 19.9909 279.503 19.9909 279.603 20.1092C280.303 20.4643 280.803 20.8193 281.103 21.056C281.203 21.1744 281.303 21.4111 281.503 21.7661C281.503 22.2395 281.303 22.7129 280.803 23.068C280.003 23.6597 278.803 24.3699 278.803 25.5534C278.803 25.5534 278.803 25.5534 278.803 25.6717C279.103 25.435 279.103 25.435 279.303 25.08C279.003 26.5002 278.103 27.447 277.103 28.1571C276.403 28.6305 276.403 28.2754 275.703 28.1571C275.903 29.3406 277.203 28.5121 277.803 28.1571C277.603 28.6305 277.603 28.6305 277.303 28.8672L276.703 29.2222H276.603L276.403 29.3406C277.203 29.459 277.903 29.1039 278.203 28.5121C278.203 28.7488 278.003 29.1039 277.803 29.2222C277.703 29.3406 277.703 29.3406 277.603 29.459C277.403 29.6957 277.503 29.459 277.403 29.814C278.003 29.814 278.203 29.4589 278.503 29.2222C278.403 29.5773 278.203 30.1691 278.303 30.2874C278.703 30.5241 279.303 29.4589 279.403 29.2222L279.303 29.9324C279.903 29.9324 280.203 29.3406 280.303 28.9855V29.1039L280.403 29.5773C281.103 29.3406 281.203 28.6305 281.603 27.9204C282.103 28.0387 282.503 28.1571 282.403 27.447C283.203 27.447 282.903 27.5653 283.203 26.9736C284.203 26.9736 283.503 26.7369 284.203 26.5002C284.903 26.2635 284.403 26.0268 284.903 25.9084C285.003 25.9084 285.203 25.9084 285.403 25.7901V25.3167C286.003 25.3167 286.003 25.435 286.203 24.8433C286.403 24.1331 285.603 23.423 285.203 23.068C285.903 23.423 286.003 23.7781 286.503 24.1331C288.103 24.2515 291.103 23.423 291.803 22.9496C292.103 23.068 292.103 22.9496 291.803 22.9496ZM284.503 14.31C284.603 14.4284 284.603 14.4284 284.503 14.31C284.503 14.4284 284.603 14.4284 284.503 14.31Z" fill="#5281A4"/>
<path d="M413.5 169.506L412.9 171.04H411.4L411.7 173.391L412.7 175.947L411.5 177.583L413 179.321L413.988 176.5L411.688 174.966V173.126L410.788 171.899L410.388 170.57L410.788 168.73L409.488 167.707L408.988 166.276L409.788 165.049L408.288 164.129L408.988 163.72L406.5 161L406 158.5L404.888 162.084L403.588 163.72L402.288 165.049L401.888 166.889L400.788 168.321L401.588 169.752V170.979L400.188 172.001L399.588 173.637L400.188 176.5L396.5 182.286V180.651L395.5 178.401L393.4 177.379L393 179.935L391.9 179.628L391.1 181.06L389.5 181.775L390.5 183.002L389 185.456H379L379.1 184.74V182.695L377.8 182.491L377.9 180.446L378.7 179.321L377.5 177.992L377.6 175.845L376.2 175.232L376.6 174.107H374.1L374.2 172.267L372.4 171.04L371.9 172.164L371.4 175.947L370 176.868L370.5 179.219H368.7L368.4 178.503L369.8 177.788L367.6 176.97L367.5 175.538L368.4 174.414L366.1 173.494L364.4 171.96L363.9 174.107L362.9 177.072L361.2 176.868V179.833L359.6 181.06L359.8 183.002L358.6 184.331L358.8 185.456H355.9L355.6 184.433L356.2 183.002L354.2 182.184L355.2 180.344L354 179.73L353.7 176.05L352.2 174.823L353.2 172.573L351.2 172.778V171.142L351.3 169.404L349.6 168.279L351.1 165.621L349.2 164.599L349.6 162.554L347.7 161.94L348.2 160.304L346.6 158.975L344.5 157.135L343.9 160.816L341.9 161.838L342.8 163.372L341.9 165.11H340.4L341.6 168.075L340.3 167.052L339.4 168.279L338.9 170.835L338.7 174.312L338.4 172.573L336.8 172.471L336.2 170.938L334.7 171.756L333.2 173.289L332.6 174.823H331.1L331.3 177.174L332.3 179.73L331.2 181.366L332.7 183.002L332.6 185.456H331.5L330.2 184.74V182.9L329.3 181.673L328.9 180.344L329.3 178.503L328.1 177.481L327.6 176.05L328.3 174.823L326.8 173.903L327.2 172.573L325.5 171.449L324.3 169.813L323.5 171.858L322.1 173.494L320.9 174.823L320.5 176.663L319.4 178.094L320.1 179.526V180.753L318.7 181.775L318.1 183.411L318.6 185.456H316.1V184.433L315.1 182.184L313 181.162L312.7 183.718L311.5 183.411L310.8 184.842L309.2 185.456H297.5L297.6 184.229L298.3 183.002L297.1 181.775L297.2 179.628L295.9 179.015L296.2 177.788H293.7L293.9 176.05L292 174.823L291.5 175.947L291 179.73L290 180.446L289.5 179.219H287.2L287.6 176.868L286.3 175.947L285.8 172.164L285.3 171.04L283.4 172.267L283.5 174.107H281L281.4 175.232L280 175.845L280.2 177.992L278.9 179.321L279.7 180.446L279.8 182.491L278.6 182.695V184.74L278.7 185.456H268.6L267.1 183.002L268.1 181.775L266.5 181.06L265.7 179.628L264.6 179.935L264.2 177.379L262.1 178.401L261.1 180.651V182.286L258.5 182.491L259.1 179.628L258.5 177.992L257.2 176.97V175.743L257.9 174.312L256.8 172.88L256.4 171.04L255.2 169.711L253.8 168.075L252.9 166.03L251.8 167.666L250.1 168.893L250.4 170.12L248.9 171.04L249.7 172.267L249.2 173.698L248 174.721L248.3 176.561L248 177.89L247 179.117V180.957L244.7 182.491L244.6 179.321L246.1 177.583L245 175.947L246 173.391L246.2 171.04H244.7L244.1 169.506L242.6 167.973L241.1 167.155L240.5 168.688L238.9 168.893L238.6 170.529L238.4 167.052L237.9 164.496L237 163.269L235.6 164.292L236.9 161.327H235.4L234.5 159.589L235.4 158.055L233.4 157.033L232.8 153.352L230.7 155.192L229 156.521L229.5 158.157L227.7 158.771L228 160.816L226.2 161.838L227.7 164.496L225.9 165.621L226.1 167.359V168.995L224.1 168.893L225.1 171.04L223.6 172.267L223.3 175.947L222.1 176.561L223.1 178.401L221.1 179.219L221.7 180.651L220.8 183.513L218.3 182.593L218.7 180.548L217.5 179.219L217.7 177.277L216.1 176.05V173.085L214.4 173.289L213.4 170.426L212.9 168.177L211.1 169.711L208.9 170.631L209.8 171.756L209.6 173.187L207.5 174.107L208.9 174.721L208.3 176.254L206.2 177.072L208.5 179.219L208.1 181.775H206L206.4 182.798V184.842L203.7 185.047L204.2 185.456H192.3L191.8 184.331L193.2 183.718L191.1 182.798L191 181.366L191.8 180.242L189.6 179.321L187.9 177.788L187.4 179.935L186.4 182.9L184.6 182.695V185.456H184.4L183.1 183.002H180.8L181.3 180.957L179.9 180.242L179.4 176.97L178.9 175.947L177 177.072L177.2 178.606H176.6L176.7 178.503L174.7 178.606V176.97L174.8 175.232L173.1 174.107L174.6 171.449L172.7 170.426L173.1 168.382L171.2 167.768L171.7 166.132L170.1 164.803L168 162.963L167.3 166.643L165.3 167.666L166.2 169.199L165.3 170.938H163.9L165.1 173.903L163.7 172.88L162.9 174.107L162.4 176.663L162.1 180.139L161.9 178.503L160.2 178.299L159.6 176.765L158.1 177.583L156.6 179.117L156 180.651H154.5L154.8 183.002L155 183.718L154.8 184.229V185.456H152.5L152.8 184.331L152.6 184.127L152.8 183.411L152.2 181.98L151.3 181.468L151.8 180.651L150.8 180.037L151.5 178.81L150.4 177.583L150 175.947L148.8 174.925L147.4 173.494L146.6 171.756L145.4 173.187L143.7 174.107L144.1 175.232L142.6 175.947L143.3 177.072L142.8 178.299L141.6 179.117L142 180.753L141.6 181.877L140.7 182.9V184.433L138.8 185.456H138.3L138.2 183.002L139.7 181.673L138.6 180.242L139.6 177.992L139.8 175.947H138.4L137.7 174.721L136.2 173.391L134.7 172.676L134.1 174.005L132.5 174.107L132.3 175.538L132 172.573L131.5 170.426L130.6 169.302L129.3 170.222L130.5 167.768H129L128.2 166.234L129 164.905L127 163.985L126.4 160.918L124.3 162.554L122.7 163.576L123.2 165.008L121.3 165.519L121.7 167.257L119.8 168.177L121.3 170.426L119.6 171.449L119.7 172.778V174.209L117.7 174.107L118.7 175.947L117.2 177.072L117 180.242L115.7 180.753L115.8 180.855L115.5 180.651L115 181.775L114.8 182.9L114.7 183.002L114.8 183.104L114.5 185.456H112.1L112.4 184.127L111.1 183.002L111.4 181.264L109.7 180.344V177.686L108 177.89L107 175.436L106.5 173.596L104.8 174.925L102.5 175.641L103.4 176.663L103.3 177.788L101.2 178.606L102.5 179.117L101.9 180.446L99.8002 181.162L102.2 183.002L101.8 185.149H99.7002L99.8002 185.456H92.1002L91.4002 184.842L93.1002 183.513L90.3002 183.309V181.366L90.7002 180.242H88.6002L88.2002 177.686L90.6002 175.641L88.5002 174.721L87.8002 173.187L89.2002 172.573L87.1002 171.653L87.0002 170.222L87.8002 169.097L85.6002 168.177L83.9002 166.643L83.4002 168.893L82.4002 171.756L80.6002 171.551V174.618L79.0002 175.743L79.2002 177.686L78.0002 179.015L78.4002 181.06L75.9002 181.98L75.0002 179.117L75.6002 177.686L73.6002 176.868L74.6002 175.129L73.4002 174.414L73.2002 170.733L71.7002 169.506L72.7002 167.359L70.7002 167.461V165.825L70.8002 164.19L69.0002 162.963L70.5002 160.304L68.7002 159.282L69.0002 157.237L67.2002 156.624L67.7002 154.988L66.1002 153.761L63.9002 151.818L63.3002 155.499L61.3002 156.521L62.2002 158.055L61.3002 159.793H59.8002L61.1002 162.758L59.7002 161.736L58.8002 162.963L58.3002 165.519L58.1002 168.995L57.9002 167.359L56.2002 167.155L55.6002 165.621L54.1002 166.439L52.6002 167.973L52.0002 169.506H50.5002L50.8002 171.858L51.8002 174.414L50.6002 176.05L52.1002 177.788L52.0002 180.957L49.7002 179.424V177.583L48.8002 176.356L48.4002 175.129L48.8002 173.187L47.5002 172.164L47.0002 170.733L47.8002 169.506L46.3002 168.586L46.7002 167.359L44.9002 166.132L43.8002 164.496L42.9002 166.541L41.6002 168.177L40.3002 169.506L39.9002 171.347L38.8002 172.778L39.6002 174.209V175.436L38.2002 176.459L37.6002 178.094L38.2002 180.957L35.6002 180.855V179.117L34.6002 176.868L32.5002 175.845L32.1002 178.401L31.0002 178.094L30.2002 179.526L28.6002 180.242L29.6002 181.468L28.8002 182.9L28.6002 180.242L29.1002 176.868L26.6002 174.107L27.1002 172.062L25.1002 171.449L22.8002 167.359L21.1002 170.835L21.3002 172.778L19.9002 174.107L20.5002 175.743L17.8002 177.788L16.6002 176.459L16.7002 174.312L15.3002 173.698L15.7002 172.573H13.2002L13.3002 170.733L11.5002 169.506L11.0002 170.631L10.5002 174.414L9.10023 175.334V175.436L7.20023 174.516L5.90023 170.631L3.60023 167.359L4.90023 165.212L0 159.895V188.421V1656H411.7L414 168.893L413.5 169.506Z" fill="#175B7C"/>
<path d="M514.102 141.016L568.202 117.109L580.002 121.843L592.802 104.208L598.702 99.001L608.102 104.208L620.402 115.333L629.302 112.966L652.602 129.891L671.202 127.642L701.302 145.158L617.702 188.356L514.102 141.016Z" fill="#5281A4"/>
<path d="M820.7 189.06L407 187.403V165.153V110.001L438.9 121.718L449.1 118.996L456.2 121.718L479.5 112.96L495.7 128.582L500.8 125.032L515.5 137.577L530.2 134.618L551 150.832L570.3 146.571L582.4 158.052L587.5 157.46L608.3 173.556L626.5 167.046L633.1 154.974L643 148.465L661.5 149.057L671.7 141.837L696.5 134.026L702.6 127.399L707.7 121.718L718.8 126.807L734 121.718L749.7 130.357L763.9 125.032H791.8L801 134.026L815.5 111.501L821.6 111.883" fill="url(#paint3_linear_1558_19208)"/>
<path d="M820.7 218.161L407 218.634V197.094V132.001L443.5 140.759L465 158.157H484.9L509.3 153.541L535.4 161.589L563.2 172.95L575.6 178.04L581.9 188.454L589.8 183.72L607.4 189.046L630.6 178.04L643 174.962L660.1 159.577L698.7 174.371H708.3L729.3 164.548L742.4 154.843L761.5 164.548H778.7L787.2 154.843L796.2 160.879L820.7 138.037" fill="url(#paint4_linear_1558_19208)"/>
<path d="M818.003 179.146L1232 177.49V155.24V100.088L1199.8 111.805L1189.6 109.083L1182.5 111.805L1159.2 103.047L1143 118.669L1137.9 115.118L1123.2 127.664L1108.5 124.705L1087.7 140.919L1068.4 136.658L1056.3 148.138L1051.2 147.547L1030.4 163.642L1012.2 157.133L1005.6 145.061L995.703 138.552L977.203 139.144L967.003 131.924L942.203 124.113L936.103 117.486L931.003 111.805L919.903 116.894L904.703 111.805L889.003 120.444L874.803 115.118H846.903L837.703 124.113L824.103 111.805L818.003 111.686" fill="url(#paint5_linear_1558_19208)"/>
<path d="M818.003 207.551L1232 208.041V186.501V121.408L1195.2 130.149L1173.7 147.547H1153.8L1129.4 142.931L1103.3 150.979L1075.5 162.341L1063.1 167.43L1056.8 177.845L1048.9 173.111L1031.3 178.437L1008.1 167.43L995.703 164.353L978.603 148.967L940.003 163.761H930.403L909.403 153.938L896.303 144.233L877.203 153.938H860.003L851.503 144.233L842.503 150.269L818 140.501" fill="url(#paint6_linear_1558_19208)"/>
<path d="M820.5 171.484L819.9 173.015H818.4L818.7 175.364L819.7 177.916L818.5 179.55L820 181.286L819.9 184.451L817.6 182.92V181.082L816.7 179.856L816.3 178.529L816.7 176.691L815.4 175.67L814.9 174.241L815.7 173.015L814.2 172.096L814.6 170.871L812.8 169.646L811.7 168.012L810.8 170.054L809.5 171.688L808.2 173.015L807.8 174.853L806.7 176.283L807.5 177.712V178.937L806.1 179.958L805.5 181.592L806.1 184.451L803.5 184.247V182.613L802.5 180.367L800.4 179.346L800 181.898L798.9 181.592L798.1 183.022L796.5 183.736L797.5 184.962L796 187.412H786L786.1 186.697V184.655L784.8 184.451L784.9 182.409L785.7 181.286L784.5 179.958L784.6 177.814L783.2 177.202L783.6 176.078H781.1L781.2 174.241L779.4 173.015L778.9 174.138L778.4 177.916L777 178.835L777.5 181.184H775.7L775.4 180.469L776.8 179.754L774.6 178.937L774.5 177.508L775.4 176.385L773.1 175.466L771.4 173.934L770.9 176.078L769.9 179.039L768.2 178.835V181.796L766.6 183.022L766.8 184.962L765.6 186.289L765.8 187.412H762.9L762.6 186.391L763.2 184.962L761.2 184.145L762.2 182.307L761 181.694L760.7 178.018L759.2 176.793L760.2 174.547L758.2 174.751V173.117L758.3 171.382L756.6 170.258L758.1 167.604L756.2 166.583L756.6 164.54L754.7 163.928L755.2 162.294L753.6 160.967L751.5 159.129L750.9 162.805L748.9 163.826L749.8 165.357L748.9 167.093H747.4L748.6 170.054L747.3 169.033L746.4 170.258L745.9 172.811L745.7 176.283L745.4 174.547L743.8 174.445L743.2 172.913L741.7 173.73L740.2 175.262L739.6 176.793H738.1L738.3 179.142L739.3 181.694L738.2 183.328L739.7 184.962L739.6 187.412H738.5L737.2 186.697V184.86L736.3 183.634L735.9 182.307L736.3 180.469L735.1 179.448L734.6 178.018L735.3 176.793L733.8 175.874L734.2 174.547L732.5 173.424L731.3 171.79L730.5 173.832L729.1 175.466L727.9 176.793L727.5 178.631L726.4 180.061L727.1 181.49V182.715L725.7 183.736L725.1 185.37L725.6 187.412H723.1V186.391L722.1 184.145L720 183.124L719.7 185.676L718.5 185.37L717.8 186.8L716.2 187.412H704.5L704.6 186.187L705.3 184.962L704.1 183.736L704.2 181.592L702.9 180.979L703.2 179.754H700.7L700.9 178.018L699 176.793L698.5 177.916L698 181.694L697 182.409L696.5 181.184H694.2L694.6 178.835L693.3 177.916L692.8 174.138L692.3 173.015L690.4 174.241L690.5 176.078H688L688.4 177.202L687 177.814L687.2 179.958L685.9 181.286L686.7 182.409L686.8 184.451L685.6 184.655V186.697L685.7 187.412H675.6L674.1 184.962L675.1 183.736L673.5 183.022L672.7 181.592L671.6 181.898L671.2 179.346L669.1 180.367L668.1 182.613V184.247L665.5 184.451L666.1 181.592L665.5 179.958L664.2 178.937V177.712L664.9 176.283L663.8 174.853L663.4 173.015L662.2 171.688L660.8 170.054L659.9 168.012L658.8 169.646L657.1 170.871L657.4 172.096L655.9 173.015L656.7 174.241L656.2 175.67L655 176.691L655.3 178.529L655 179.856L654 181.082V182.92L651.7 184.451L651.6 181.286L653.1 179.55L652 177.916L653 175.364L653.2 173.015H651.7L651.1 171.484L649.6 169.952L648.1 169.135L647.5 170.667L645.9 170.871L645.6 172.505L645.4 169.033L644.9 166.48L644 165.255L642.6 166.276L643.9 163.315H642.4L641.5 161.579L642.4 160.048L640.4 159.027L639.8 155.351L637.7 157.189L636 158.516L636.5 160.15L634.7 160.763L635 162.805L633.2 163.826L634.7 166.48L632.9 167.604L633.1 169.339V170.973L631.1 170.871L632.1 173.015L630.6 174.241L630.3 177.916L629.1 178.529L630.1 180.367L628.1 181.184L628.7 182.613L627.8 185.472L625.3 184.553L625.7 182.511L624.5 181.184L624.7 179.244L623.1 178.018V175.057L621.4 175.262L620.4 172.403L619.9 170.156L618.1 171.688L615.9 172.607L616.8 173.73L616.6 175.159L614.5 176.078L615.9 176.691L615.3 178.223L613.2 179.039L615.5 181.184L615.1 183.736H613L613.4 184.757V186.8L610.7 187.004L611.2 187.412H599.3L598.8 186.289L600.2 185.676L598.1 184.757L598 183.328L598.8 182.205L596.6 181.286L594.9 179.754L594.4 181.898L593.4 184.86L591.6 184.655V187.412H591.4L590.1 184.962H587.8L588.3 182.92L586.9 182.205L586.4 178.937L585.9 177.916L584 179.039L584.2 180.571H583.6L583.7 180.469L581.7 180.571V178.937L581.8 177.202L580.1 176.078L581.6 173.424L579.7 172.403L580.1 170.36L578.2 169.748L578.7 168.114L577.1 166.787L575 164.949L574.3 168.625L572.3 169.646L573.2 171.177L572.3 172.913H570.9L572.1 175.874L570.7 174.853L569.9 176.078L569.4 178.631L569.1 182.103L568.9 180.469L567.2 180.265L566.6 178.733L565.1 179.55L563.6 181.082L563 182.613H561.5L561.8 184.962L562 185.676L561.8 186.187V187.412H559.5L559.8 186.289L559.6 186.085L559.8 185.37L559.2 183.941L558.3 183.43L558.8 182.613L557.8 182.001L558.5 180.775L557.4 179.55L557 177.916L555.8 176.895L554.4 175.466L553.6 173.73L552.4 175.159L550.7 176.078L551.1 177.202L549.6 177.916L550.3 179.039L549.8 180.265L548.6 181.082L549 182.715L548.6 183.838L547.7 184.86V186.391L545.8 187.412H545.3L545.2 184.962L546.7 183.634L545.6 182.205L546.6 179.958L546.8 177.916H545.4L544.7 176.691L543.2 175.364L541.7 174.649L541.1 175.976L539.5 176.078L539.3 177.508L539 174.547L538.5 172.403L537.6 171.279L536.3 172.198L537.5 169.748H536L535.2 168.216L536 166.889L534 165.97L533.4 162.907L531.3 164.54L529.7 165.562L530.2 166.991L528.3 167.502L528.7 169.237L526.8 170.156L528.3 172.403L526.6 173.424L526.7 174.751V176.181L524.7 176.078L525.7 177.916L524.2 179.039L524 182.205L522.7 182.715L522.8 182.817L522.5 182.613L522 183.736L521.8 184.86L521.7 184.962L521.8 185.064L521.5 187.412H519.1L519.4 186.085L518.1 184.962L518.4 183.226L516.7 182.307V179.652L515 179.856L514 177.406L513.5 175.568L511.8 176.895L509.5 177.61L510.4 178.631L510.3 179.754L508.2 180.571L509.5 181.082L508.9 182.409L506.8 183.124L509.2 184.962L508.8 187.106H506.7L506.8 187.412H499.1L498.4 186.8L500.1 185.472L497.3 185.268V183.328L497.7 182.205H495.6L495.2 179.652L497.6 177.61L495.5 176.691L494.8 175.159L496.2 174.547L494.1 173.628L494 172.198L494.8 171.075L492.6 170.156L490.9 168.625L490.4 170.871L489.4 173.73L487.6 173.526V176.589L486 177.712L486.2 179.652L485 180.979L485.4 183.022L482.9 183.941L482 181.082L482.6 179.652L480.6 178.835L481.6 177.099L480.4 176.385L480.2 172.709L478.7 171.484L479.7 169.339L477.7 169.442V167.808L477.8 166.174L476 164.949L477.5 162.294L475.7 161.273L476 159.231L474.2 158.618L474.7 156.985L473.1 155.759L470.9 153.819L470.3 157.495L468.3 158.516L469.2 160.048L468.3 161.784H466.8L468.1 164.745L466.7 163.724L465.8 164.949L465.3 167.502L465.1 170.973L464.9 169.339L463.2 169.135L462.6 167.604L461.1 168.42L459.6 169.952L459 171.484H457.5L457.8 173.832L458.8 176.385L457.6 178.018L459.1 179.754L459 182.92L456.7 181.388V179.55L455.8 178.325L455.4 177.099L455.8 175.159L454.5 174.138L454 172.709L454.8 171.484L453.3 170.565L453.7 169.339L451.9 168.114L450.8 166.48L449.9 168.523L448.6 170.156L447.3 171.484L446.9 173.322L445.8 174.751L446.6 176.181V177.406L445.2 178.427L444.6 180.061L445.2 182.92L442.6 182.817V181.082L441.6 178.835L439.5 177.814L439.1 180.367L438 180.061L437.2 181.49L435.6 182.205L436.6 183.43L435.8 184.86L435.6 182.205L436.1 178.835L433.6 176.078L434.1 174.036L432.1 173.424L429.8 169.339L428.1 172.811L428.3 174.751L426.9 176.078L427.5 177.712L424.8 179.754L423.6 178.427L423.7 176.283L422.3 175.67L422.7 174.547H420.2L420.3 172.709L418.5 171.484L418 172.607L417.5 176.385L416.1 177.304V177.406L414.2 176.487L412.9 172.607L410.6 169.339L411.9 167.195L407.3 161.886L405 228.001V1656H818.7L821 170.871L820.5 171.484Z" fill="#175B7C"/>
<path d="M1230.5 170.614L1229.9 172.145L1228 174.867L1228.7 178.543L1229.7 181.095L1228.5 182.729L1230 184.464L1229.9 187.629L1227.6 186.098V184.26L1226.7 183.035L1226.3 181.708L1226.7 179.87L1225.4 178.849L1224.9 177.42L1225.7 176.195L1224.2 175.276L1224.6 174.051L1222.8 172.825L1221.7 171.192L1220.8 173.234L1219.5 174.867L1218.2 176.195L1217.8 178.032L1216.7 179.462L1217.5 180.891V182.116L1216.1 183.137L1215.5 184.77L1216.1 187.629L1213.5 187.425V185.791L1212.5 183.545L1210.4 182.524L1210 185.077L1208.9 184.77L1208.1 186.2L1206.5 186.914L1207.5 188.139L1206 190.59H1196L1196.1 189.875V187.833L1194.8 187.629L1194.9 185.587L1195.7 184.464L1194.5 183.137L1194.6 180.993L1193.2 180.38L1193.6 179.257H1191.1L1191.2 177.42L1189.4 176.195L1188.9 177.318L1188.4 181.095L1187 182.014L1187.5 184.362H1185.7L1185.4 183.647L1186.8 182.933L1184.6 182.116L1184.5 180.687L1185.4 179.564L1183.1 178.645L1181.4 177.113L1180.9 179.257L1179.9 182.218L1178.2 182.014V184.975L1176.6 186.2L1176.8 188.139L1175.6 189.467L1175.8 190.59H1172.9L1172.6 189.569L1173.2 188.139L1171.2 187.323L1172.2 185.485L1171 184.873L1170.7 181.197L1169.2 179.972L1170.2 177.726L1168.2 177.93V176.297L1168.3 174.561L1166.6 173.438L1168.1 170.784L1166.2 169.763L1166.6 167.721L1164.7 167.108L1165.2 165.475L1163.6 164.148L1161.5 162.31L1160.9 165.985L1158.9 167.006L1159.8 168.538L1158.9 170.273H1157.4L1158.6 173.234L1157.3 172.213L1156.4 173.438L1155.9 175.99L1155.7 179.462L1155.4 177.726L1153.8 177.624L1153.2 176.092L1151.7 176.909L1150.2 178.441L1149.6 179.972H1148.1L1148.3 182.32L1149.3 184.873L1148.2 186.506L1149.7 188.139L1149.6 190.59H1148.5L1147.2 189.875V188.037L1146.3 186.812L1145.9 185.485L1146.3 183.647L1145.1 182.626L1144.6 181.197L1145.3 179.972L1143.8 179.053L1144.2 177.726L1142.5 176.603L1141.3 174.969L1140.5 177.011L1139.1 178.645L1137.9 179.972L1137.5 181.81L1136.4 183.239L1137.1 184.668V185.893L1135.7 186.914L1135.1 188.548L1135.6 190.59H1133.1V189.569L1132.1 187.323L1130 186.302L1129.7 188.854L1128.5 188.548L1127.8 189.977L1126.2 190.59H1114.5L1114.6 189.365L1115.3 188.139L1114.1 186.914L1114.2 184.77L1112.9 184.158L1113.2 182.933H1110.7L1110.9 181.197L1109 179.972L1108.5 181.095L1108 184.873L1107 185.587L1106.5 184.362H1104.2L1104.6 182.014L1103.3 181.095L1102.8 177.318L1102.3 176.195L1100.4 177.42L1100.5 179.257H1098L1098.4 180.38L1097 180.993L1097.2 183.137L1095.9 184.464L1096.7 185.587L1096.8 187.629L1095.6 187.833V189.875L1095.7 190.59H1085.6L1084.1 188.139L1085.1 186.914L1083.5 186.2L1082.7 184.77L1081.6 185.077L1081.2 182.524L1079.1 183.545L1078.1 185.791V187.425L1075.5 187.629L1076.1 184.77L1075.5 183.137L1074.2 182.116V180.891L1074.9 179.462L1073.8 178.032L1073.4 176.195L1072.2 174.867L1070.8 173.234L1069.9 171.192L1068.8 172.825L1067.1 174.051L1067.4 175.276L1065.9 176.195L1066.7 177.42L1066.2 178.849L1065 179.87L1065.3 181.708L1065 183.035L1064 184.26V186.098L1061.7 187.629L1061.6 184.464L1063.1 182.729L1062 181.095L1063 178.543L1063.2 176.195H1061.7L1061.1 174.663L1059.6 173.132L1058.1 172.315L1057.5 173.846L1055.9 174.051L1055.6 175.684L1055.4 172.213L1054.9 169.661L1054 168.435L1052.6 169.456L1053.9 166.496H1052.4L1051.5 164.76L1052.4 163.229L1050.4 162.208L1049.8 158.532L1047.7 160.37L1046 161.697L1046.5 163.331L1044.7 163.943L1045 165.985L1043.2 167.006L1044.7 169.661L1042.9 170.784L1043.1 172.519V174.153L1041.1 174.051L1042.1 176.195L1040.6 177.42L1040.3 181.095L1039.1 181.708L1040.1 183.545L1038.1 184.362L1038.7 185.791L1037.8 188.65L1035.3 187.731L1035.7 185.689L1034.5 184.362L1034.7 182.422L1033.1 181.197V178.236L1031.4 178.441L1030.4 175.582L1029.9 173.336L1028.1 174.867L1025.9 175.786L1026.8 176.909L1026.6 178.339L1024.5 179.257L1025.9 179.87L1025.3 181.401L1023.2 182.218L1025.5 184.362L1025.1 186.914H1023L1023.4 187.935V189.977L1020.7 190.181L1021.2 190.59H1009.3L1008.8 189.467L1010.2 188.854L1008.1 187.935L1008 186.506L1008.8 185.383L1006.6 184.464L1004.9 182.933L1004.4 185.077L1003.4 188.037L1001.6 187.833V190.59H1001.4L1000.1 188.139H997.8L998.3 186.098L996.9 185.383L996.4 182.116L995.9 181.095L994 182.218L994.2 183.749H993.6L993.7 183.647L991.7 183.749V182.116L991.8 180.38L990.1 179.257L991.6 176.603L989.7 175.582L990.1 173.54L988.2 172.928L988.7 171.294L987.1 169.967L985 168.129L984.3 171.805L982.3 172.825L983.2 174.357L982.3 176.092H980.9L982.1 179.053L980.7 178.032L979.9 179.257L979.4 181.81L979.1 185.281L978.9 183.647L977.2 183.443L976.6 181.912L975.1 182.729L973.6 184.26L973 185.791H971.5L971.8 188.139L972 188.854L971.8 189.365V190.59H969.5L969.8 189.467L969.6 189.263L969.8 188.548L969.2 187.119L968.3 186.608L968.8 185.791L967.8 185.179L968.5 183.954L967.4 182.729L967 181.095L965.8 180.074L964.4 178.645L963.6 176.909L962.4 178.339L960.7 179.257L961.1 180.38L959.6 181.095L960.3 182.218L959.8 183.443L958.6 184.26L959 185.893L958.6 187.016L957.7 188.037V189.569L955.8 190.59H955.3L955.2 188.139L956.7 186.812L955.6 185.383L956.6 183.137L956.8 181.095H955.4L954.7 179.87L953.2 178.543L951.7 177.828L951.1 179.155L949.5 179.257L949.3 180.687L949 177.726L948.5 175.582L947.6 174.459L946.3 175.378L947.5 172.928H946L945.2 171.396L946 170.069L944 169.15L943.4 166.087L941.3 167.721L939.7 168.742L940.2 170.171L938.3 170.682L938.7 172.417L936.8 173.336L938.3 175.582L936.6 176.603L936.7 177.93V179.359L934.7 179.257L935.7 181.095L934.2 182.218L934 185.383L932.7 185.893L932.8 185.996L932.5 185.791L932 186.914L931.8 188.037L931.7 188.139L931.8 188.242L931.5 190.59H929.1L929.4 189.263L928.1 188.139L928.4 186.404L926.7 185.485V182.831L925 183.035L924 180.585L923.5 178.747L921.8 180.074L919.5 180.789L920.4 181.81L920.3 182.933L918.2 183.749L919.5 184.26L918.9 185.587L916.8 186.302L919.2 188.139L918.8 190.283H916.7L916.8 190.59H909.1L908.4 189.977L910.1 188.65L907.3 188.446V186.506L907.7 185.383H905.6L905.2 182.831L907.6 180.789L905.5 179.87L904.8 178.339L906.2 177.726L904.1 176.807L904 175.378L904.8 174.255L902.6 173.336L900.9 171.805L900.4 174.051L899.4 176.909L897.6 176.705V179.768L896 180.891L896.2 182.831L895 184.158L895.4 186.2L892.9 187.119L892 184.26L892.6 182.831L890.6 182.014L891.6 180.278L890.4 179.564L890.2 175.888L888.7 174.663L889.7 172.519L887.7 172.621V170.988L887.8 169.354L886 168.129L887.5 165.475L885.7 164.454L886 162.412L884.2 161.799L884.7 160.166L883.1 158.941L880.9 157.001L880.3 160.676L878.3 161.697L879.2 163.229L878.3 164.964H876.8L878.1 167.925L876.7 166.904L875.8 168.129L875.3 170.682L875.1 174.153L874.9 172.519L873.2 172.315L872.6 170.784L871.1 171.6L869.6 173.132L869 174.663H867.5L867.8 177.011L868.8 179.564L867.6 181.197L869.1 182.933L869 186.098L866.7 184.566V182.729L865.8 181.503L865.4 180.278L865.8 178.339L864.5 177.318L864 175.888L864.8 174.663L863.3 173.744L863.7 172.519L861.9 171.294L860.8 169.661L859.9 171.702L858.6 173.336L857.3 174.663L856.9 176.501L855.8 177.93L856.6 179.359V180.585L855.2 181.606L854.6 183.239L855.2 186.098L852.6 185.996V184.26L851.6 182.014L849.5 180.993L849.1 183.545L848 183.239L847.2 184.668L845.6 185.383L846.6 186.608L845.8 188.037L845.6 185.383L846.1 182.014L843.6 179.257L844.1 177.215L842.1 176.603L839.8 172.519L838.1 175.99L838.3 177.93L836.9 179.257L837.5 180.891L834.8 182.933L833.6 181.606L833.7 179.462L832.3 178.849L832.7 177.726H830.2L830.3 175.888L828.5 174.663L828 175.786L827.5 179.564L826.1 180.482V180.585L824.2 179.666L822.9 175.786L820.6 172.519L821.9 170.375L817.3 165.066L813.5 173.336V193.55V1656H1232V170.001L1230.5 170.614Z" fill="#175B7C"/>
<rect x="406" y="530.001" width="72" height="18" fill="#145A7B"/>
<path d="M0 294H1366V2294H0L0 294Z" fill="url(#paint7_linear_1558_19208)"/>
</g>
<defs>
<linearGradient id="paint0_linear_1558_19208" x1="170.952" y1="160.759" x2="170.952" y2="-74.5455" gradientUnits="userSpaceOnUse">
<stop offset="0.1875" stop-color="#F1F4F6"/>
<stop offset="0.661458" stop-color="#DEF1FB"/>
</linearGradient>
<linearGradient id="paint1_linear_1558_19208" x1="207.11" y1="169.066" x2="207.153" y2="124.217" gradientUnits="userSpaceOnUse">
<stop stop-color="#ABC7E0"/>
<stop offset="1" stop-color="#8AB2D3"/>
</linearGradient>
<linearGradient id="paint2_linear_1558_19208" x1="207.036" y1="205.782" x2="207.182" y2="158.35" gradientUnits="userSpaceOnUse">
<stop offset="0.1417" stop-color="#80A5C1"/>
<stop offset="1" stop-color="#5281A4"/>
</linearGradient>
<linearGradient id="paint3_linear_1558_19208" x1="613.813" y1="180.981" x2="613.856" y2="136.131" gradientUnits="userSpaceOnUse">
<stop stop-color="#ABC7E0"/>
<stop offset="1" stop-color="#8AB2D3"/>
</linearGradient>
<linearGradient id="paint4_linear_1558_19208" x1="613.74" y1="218.393" x2="613.885" y2="170.96" gradientUnits="userSpaceOnUse">
<stop offset="0.1417" stop-color="#80A5C1"/>
<stop offset="1" stop-color="#5281A4"/>
</linearGradient>
<linearGradient id="paint5_linear_1558_19208" x1="1024.89" y1="171.068" x2="1024.85" y2="126.218" gradientUnits="userSpaceOnUse">
<stop stop-color="#ABC7E0"/>
<stop offset="1" stop-color="#8AB2D3"/>
</linearGradient>
<linearGradient id="paint6_linear_1558_19208" x1="1024.96" y1="207.783" x2="1024.82" y2="160.351" gradientUnits="userSpaceOnUse">
<stop offset="0.1417" stop-color="#80A5C1"/>
<stop offset="1" stop-color="#5281A4"/>
</linearGradient>
<linearGradient id="paint7_linear_1558_19208" x1="660.202" y1="294" x2="655.867" y2="936.306" gradientUnits="userSpaceOnUse">
<stop offset="0.4375" stop-color="#145A75"/>
<stop offset="1" stop-color="#F2F2F2"/>
</linearGradient>
<clipPath id="clip0_1558_19208">
<rect width="834" height="984" fill="white"/>
</clipPath>
</defs>
</svg>
