<svg width="834" height="984" viewBox="0 0 834 984" fill="none" xmlns="http://www.w3.org/2000/svg">
<g clip-path="url(#clip0_1558_19158)">
<path d="M1646 0H0V984H1646V0Z" fill="url(#paint0_linear_1558_19158)"/>
<path d="M107.102 124.847L161.202 100.94L173.002 105.674L185.802 88.0395L191.702 82.832L201.102 88.0395L213.402 99.1645L222.302 96.7975L245.602 113.722L264.202 111.473L294.302 128.989L210.702 172.187L107.102 124.847Z" fill="#BCD2E4"/>
<path d="M413.997 175.146L0 173.501V151.251V96.0991L32.1969 107.804L42.3969 105.082L49.4969 107.804L72.7969 99.0464L88.9969 114.669L94.0969 111.118L108.797 123.663L123.497 120.705L144.297 136.919L163.597 132.658L175.697 144.138L180.797 143.546L201.597 159.642L219.797 153.133L226.397 141.061L236.297 134.552L254.797 135.144L264.997 127.924L289.797 120.113L295.897 113.485L300.997 107.804L312.097 112.894L327.297 107.804L342.997 116.444L357.197 111.118H385.097L394.297 120.113L407 108.001L413.997 107.686" fill="url(#paint1_linear_1558_19158)"/>
<path d="M413.997 203.551L0 204.001V182.485V117.368L36.7969 126.15L58.2969 143.547H78.1969L102.597 138.932L128.697 146.98L156.497 158.341L168.897 163.43L175.197 173.845L183.097 169.111L200.697 174.437L223.897 163.43L236.297 160.353L253.397 144.968L291.997 159.762H301.597L322.597 149.938L335.697 140.234L354.797 149.938H371.997L380.497 140.234L389.497 146.269L413.997 123.428" fill="url(#paint2_linear_1558_19158)"/>
<path d="M413.5 167.507L412.9 169.041H411.4L411.7 171.392L412.7 173.948L411.5 175.584L413 177.322L413.988 174.501L411.688 172.967V171.127L410.788 169.9L410.388 168.571L410.788 166.731L409.488 165.708L408.988 164.277L409.788 163.05L408.288 162.13L408.988 161.721L406.5 159.001L406 156.501L404.888 160.085L403.588 161.721L402.288 163.05L401.888 164.89L400.788 166.322L401.588 167.753V168.98L400.188 170.002L399.588 171.638L400.188 174.501L396.5 180.287V178.652L395.5 176.402L393.4 175.38L393 177.936L391.9 177.629L391.1 179.06L389.5 179.776L390.5 181.003L389 183.457H379L379.1 182.741V180.696L377.8 180.492L377.9 178.447L378.7 177.322L377.5 175.993L377.6 173.846L376.2 173.233L376.6 172.108H374.1L374.2 170.268L372.4 169.041L371.9 170.165L371.4 173.948L370 174.869L370.5 177.22H368.7L368.4 176.504L369.8 175.789L367.6 174.971L367.5 173.539L368.4 172.415L366.1 171.495L364.4 169.961L363.9 172.108L362.9 175.073L361.2 174.869V177.834L359.6 179.06L359.8 181.003L358.6 182.332L358.8 183.457H355.9L355.6 182.434L356.2 181.003L354.2 180.185L355.2 178.345L354 177.731L353.7 174.051L352.2 172.824L353.2 170.574L351.2 170.779V169.143L351.3 167.405L349.6 166.28L351.1 163.622L349.2 162.6L349.6 160.555L347.7 159.941L348.2 158.305L346.6 156.976L344.5 155.136L343.9 158.817L341.9 159.839L342.8 161.373L341.9 163.111H340.4L341.6 166.076L340.3 165.053L339.4 166.28L338.9 168.836L338.7 172.313L338.4 170.574L336.8 170.472L336.2 168.939L334.7 169.756L333.2 171.29L332.6 172.824H331.1L331.3 175.175L332.3 177.731L331.2 179.367L332.7 181.003L332.6 183.457H331.5L330.2 182.741V180.901L329.3 179.674L328.9 178.345L329.3 176.504L328.1 175.482L327.6 174.051L328.3 172.824L326.8 171.904L327.2 170.574L325.5 169.45L324.3 167.814L323.5 169.859L322.1 171.495L320.9 172.824L320.5 174.664L319.4 176.095L320.1 177.527V178.754L318.7 179.776L318.1 181.412L318.6 183.457H316.1V182.434L315.1 180.185L313 179.163L312.7 181.719L311.5 181.412L310.8 182.843L309.2 183.457H297.5L297.6 182.23L298.3 181.003L297.1 179.776L297.2 177.629L295.9 177.016L296.2 175.789H293.7L293.9 174.051L292 172.824L291.5 173.948L291 177.731L290 178.447L289.5 177.22H287.2L287.6 174.869L286.3 173.948L285.8 170.165L285.3 169.041L283.4 170.268L283.5 172.108H281L281.4 173.233L280 173.846L280.2 175.993L278.9 177.322L279.7 178.447L279.8 180.492L278.6 180.696V182.741L278.7 183.457H268.6L267.1 181.003L268.1 179.776L266.5 179.06L265.7 177.629L264.6 177.936L264.2 175.38L262.1 176.402L261.1 178.652V180.287L258.5 180.492L259.1 177.629L258.5 175.993L257.2 174.971V173.744L257.9 172.313L256.8 170.881L256.4 169.041L255.2 167.712L253.8 166.076L252.9 164.031L251.8 165.667L250.1 166.894L250.4 168.121L248.9 169.041L249.7 170.268L249.2 171.699L248 172.721L248.3 174.562L248 175.891L247 177.118V178.958L244.7 180.492L244.6 177.322L246.1 175.584L245 173.948L246 171.392L246.2 169.041H244.7L244.1 167.507L242.6 165.974L241.1 165.156L240.5 166.689L238.9 166.894L238.6 168.53L238.4 165.053L237.9 162.497L237 161.27L235.6 162.293L236.9 159.328H235.4L234.5 157.59L235.4 156.056L233.4 155.034L232.8 151.353L230.7 153.193L229 154.522L229.5 156.158L227.7 156.772L228 158.817L226.2 159.839L227.7 162.497L225.9 163.622L226.1 165.36V166.996L224.1 166.894L225.1 169.041L223.6 170.268L223.3 173.948L222.1 174.562L223.1 176.402L221.1 177.22L221.7 178.652L220.8 181.514L218.3 180.594L218.7 178.549L217.5 177.22L217.7 175.278L216.1 174.051V171.086L214.4 171.29L213.4 168.427L212.9 166.178L211.1 167.712L208.9 168.632L209.8 169.756L209.6 171.188L207.5 172.108L208.9 172.721L208.3 174.255L206.2 175.073L208.5 177.22L208.1 179.776H206L206.4 180.799V182.843L203.7 183.048L204.2 183.457H192.3L191.8 182.332L193.2 181.719L191.1 180.799L191 179.367L191.8 178.243L189.6 177.322L187.9 175.789L187.4 177.936L186.4 180.901L184.6 180.696V183.457H184.4L183.1 181.003H180.8L181.3 178.958L179.9 178.243L179.4 174.971L178.9 173.948L177 175.073L177.2 176.607H176.6L176.7 176.504L174.7 176.607V174.971L174.8 173.233L173.1 172.108L174.6 169.45L172.7 168.427L173.1 166.383L171.2 165.769L171.7 164.133L170.1 162.804L168 160.964L167.3 164.644L165.3 165.667L166.2 167.2L165.3 168.939H163.9L165.1 171.904L163.7 170.881L162.9 172.108L162.4 174.664L162.1 178.14L161.9 176.504L160.2 176.3L159.6 174.766L158.1 175.584L156.6 177.118L156 178.652H154.5L154.8 181.003L155 181.719L154.8 182.23V183.457H152.5L152.8 182.332L152.6 182.128L152.8 181.412L152.2 179.981L151.3 179.469L151.8 178.652L150.8 178.038L151.5 176.811L150.4 175.584L150 173.948L148.8 172.926L147.4 171.495L146.6 169.756L145.4 171.188L143.7 172.108L144.1 173.233L142.6 173.948L143.3 175.073L142.8 176.3L141.6 177.118L142 178.754L141.6 179.878L140.7 180.901V182.434L138.8 183.457H138.3L138.2 181.003L139.7 179.674L138.6 178.243L139.6 175.993L139.8 173.948H138.4L137.7 172.721L136.2 171.392L134.7 170.677L134.1 172.006L132.5 172.108L132.3 173.539L132 170.574L131.5 168.427L130.6 167.303L129.3 168.223L130.5 165.769H129L128.2 164.235L129 162.906L127 161.986L126.4 158.919L124.3 160.555L122.7 161.577L123.2 163.009L121.3 163.52L121.7 165.258L119.8 166.178L121.3 168.427L119.6 169.45L119.7 170.779V172.21L117.7 172.108L118.7 173.948L117.2 175.073L117 178.243L115.7 178.754L115.8 178.856L115.5 178.652L115 179.776L114.8 180.901L114.7 181.003L114.8 181.105L114.5 183.457H112.1L112.4 182.128L111.1 181.003L111.4 179.265L109.7 178.345V175.687L108 175.891L107 173.437L106.5 171.597L104.8 172.926L102.5 173.642L103.4 174.664L103.3 175.789L101.2 176.607L102.5 177.118L101.9 178.447L99.8002 179.163L102.2 181.003L101.8 183.15H99.7002L99.8002 183.457H92.1002L91.4002 182.843L93.1002 181.514L90.3002 181.31V179.367L90.7002 178.243H88.6002L88.2002 175.687L90.6002 173.642L88.5002 172.721L87.8002 171.188L89.2002 170.574L87.1002 169.654L87.0002 168.223L87.8002 167.098L85.6002 166.178L83.9002 164.644L83.4002 166.894L82.4002 169.756L80.6002 169.552V172.619L79.0002 173.744L79.2002 175.687L78.0002 177.016L78.4002 179.06L75.9002 179.981L75.0002 177.118L75.6002 175.687L73.6002 174.869L74.6002 173.13L73.4002 172.415L73.2002 168.734L71.7002 167.507L72.7002 165.36L70.7002 165.462V163.826L70.8002 162.191L69.0002 160.964L70.5002 158.305L68.7002 157.283L69.0002 155.238L67.2002 154.625L67.7002 152.989L66.1002 151.762L63.9002 149.819L63.3002 153.5L61.3002 154.522L62.2002 156.056L61.3002 157.794H59.8002L61.1002 160.759L59.7002 159.737L58.8002 160.964L58.3002 163.52L58.1002 166.996L57.9002 165.36L56.2002 165.156L55.6002 163.622L54.1002 164.44L52.6002 165.974L52.0002 167.507H50.5002L50.8002 169.859L51.8002 172.415L50.6002 174.051L52.1002 175.789L52.0002 178.958L49.7002 177.425V175.584L48.8002 174.357L48.4002 173.13L48.8002 171.188L47.5002 170.165L47.0002 168.734L47.8002 167.507L46.3002 166.587L46.7002 165.36L44.9002 164.133L43.8002 162.497L42.9002 164.542L41.6002 166.178L40.3002 167.507L39.9002 169.348L38.8002 170.779L39.6002 172.21V173.437L38.2002 174.46L37.6002 176.095L38.2002 178.958L35.6002 178.856V177.118L34.6002 174.869L32.5002 173.846L32.1002 176.402L31.0002 176.095L30.2002 177.527L28.6002 178.243L29.6002 179.469L28.8002 180.901L28.6002 178.243L29.1002 174.869L26.6002 172.108L27.1002 170.063L25.1002 169.45L22.8002 165.36L21.1002 168.836L21.3002 170.779L19.9002 172.108L20.5002 173.744L17.8002 175.789L16.6002 174.46L16.7002 172.313L15.3002 171.699L15.7002 170.574H13.2002L13.3002 168.734L11.5002 167.507L11.0002 168.632L10.5002 172.415L9.10023 173.335V173.437L7.20023 172.517L5.90023 168.632L3.60023 165.36L4.90023 163.213L0 157.896V186.422V1654H411.7L414 166.894L413.5 167.507Z" fill="#175B7C"/>
<path d="M514.102 139.016L568.202 115.109L580.002 119.843L592.802 102.208L598.702 97.001L608.102 102.208L620.402 113.333L629.302 110.966L652.602 127.891L671.202 125.642L701.302 143.158L617.702 186.356L514.102 139.016Z" fill="#BCD2E4"/>
<path d="M820.7 187.06L407 185.403V163.153V108.001L438.9 119.718L449.1 116.996L456.2 119.718L479.5 110.96L495.7 126.582L500.8 123.032L515.5 135.577L530.2 132.618L551 148.832L570.3 144.571L582.4 156.052L587.5 155.46L608.3 171.556L626.5 165.046L633.1 152.974L643 146.465L661.5 147.057L671.7 139.837L696.5 132.026L702.6 125.399L707.7 119.718L718.8 124.807L734 119.718L749.7 128.357L763.9 123.032H791.8L801 132.026L815.5 109.501L821.6 109.883" fill="url(#paint3_linear_1558_19158)"/>
<path d="M820.7 216.161L407 216.634V195.094V130.001L443.5 138.759L465 156.157H484.9L509.3 151.541L535.4 159.589L563.2 170.95L575.6 176.04L581.9 186.454L589.8 181.72L607.4 187.046L630.6 176.04L643 172.962L660.1 157.577L698.7 172.371H708.3L729.3 162.548L742.4 152.843L761.5 162.548H778.7L787.2 152.843L796.2 158.879L820.7 136.037" fill="url(#paint4_linear_1558_19158)"/>
<path d="M818.003 177.146L1232 175.49V153.24V98.0879L1199.8 109.805L1189.6 107.083L1182.5 109.805L1159.2 101.047L1143 116.669L1137.9 113.118L1123.2 125.664L1108.5 122.705L1087.7 138.919L1068.4 134.658L1056.3 146.138L1051.2 145.547L1030.4 161.642L1012.2 155.133L1005.6 143.061L995.703 136.552L977.203 137.144L967.003 129.924L942.203 122.113L936.103 115.486L931.003 109.805L919.903 114.894L904.703 109.805L889.003 118.444L874.803 113.118H846.903L837.703 122.113L824.103 109.805L818.003 109.686" fill="url(#paint5_linear_1558_19158)"/>
<path d="M818.003 205.551L1232 206.041V184.501V119.408L1195.2 128.149L1173.7 145.547H1153.8L1129.4 140.931L1103.3 148.979L1075.5 160.341L1063.1 165.43L1056.8 175.845L1048.9 171.111L1031.3 176.437L1008.1 165.43L995.703 162.353L978.603 146.967L940.003 161.761H930.403L909.403 151.938L896.303 142.233L877.203 151.938H860.003L851.503 142.233L842.503 148.269L818 138.501" fill="url(#paint6_linear_1558_19158)"/>
<path d="M820.5 169.484L819.9 171.015H818.4L818.7 173.364L819.7 175.916L818.5 177.55L820 179.286L819.9 182.451L817.6 180.92V179.082L816.7 177.856L816.3 176.529L816.7 174.691L815.4 173.67L814.9 172.241L815.7 171.015L814.2 170.096L814.6 168.871L812.8 167.646L811.7 166.012L810.8 168.054L809.5 169.688L808.2 171.015L807.8 172.853L806.7 174.283L807.5 175.712V176.937L806.1 177.958L805.5 179.592L806.1 182.451L803.5 182.247V180.613L802.5 178.367L800.4 177.346L800 179.898L798.9 179.592L798.1 181.022L796.5 181.736L797.5 182.962L796 185.412H786L786.1 184.697V182.655L784.8 182.451L784.9 180.409L785.7 179.286L784.5 177.958L784.6 175.814L783.2 175.202L783.6 174.078H781.1L781.2 172.241L779.4 171.015L778.9 172.138L778.4 175.916L777 176.835L777.5 179.184H775.7L775.4 178.469L776.8 177.754L774.6 176.937L774.5 175.508L775.4 174.385L773.1 173.466L771.4 171.934L770.9 174.078L769.9 177.039L768.2 176.835V179.796L766.6 181.022L766.8 182.962L765.6 184.289L765.8 185.412H762.9L762.6 184.391L763.2 182.962L761.2 182.145L762.2 180.307L761 179.694L760.7 176.018L759.2 174.793L760.2 172.547L758.2 172.751V171.117L758.3 169.382L756.6 168.258L758.1 165.604L756.2 164.583L756.6 162.54L754.7 161.928L755.2 160.294L753.6 158.967L751.5 157.129L750.9 160.805L748.9 161.826L749.8 163.357L748.9 165.093H747.4L748.6 168.054L747.3 167.033L746.4 168.258L745.9 170.811L745.7 174.283L745.4 172.547L743.8 172.445L743.2 170.913L741.7 171.73L740.2 173.262L739.6 174.793H738.1L738.3 177.142L739.3 179.694L738.2 181.328L739.7 182.962L739.6 185.412H738.5L737.2 184.697V182.86L736.3 181.634L735.9 180.307L736.3 178.469L735.1 177.448L734.6 176.018L735.3 174.793L733.8 173.874L734.2 172.547L732.5 171.424L731.3 169.79L730.5 171.832L729.1 173.466L727.9 174.793L727.5 176.631L726.4 178.061L727.1 179.49V180.715L725.7 181.736L725.1 183.37L725.6 185.412H723.1V184.391L722.1 182.145L720 181.124L719.7 183.676L718.5 183.37L717.8 184.8L716.2 185.412H704.5L704.6 184.187L705.3 182.962L704.1 181.736L704.2 179.592L702.9 178.979L703.2 177.754H700.7L700.9 176.018L699 174.793L698.5 175.916L698 179.694L697 180.409L696.5 179.184H694.2L694.6 176.835L693.3 175.916L692.8 172.138L692.3 171.015L690.4 172.241L690.5 174.078H688L688.4 175.202L687 175.814L687.2 177.958L685.9 179.286L686.7 180.409L686.8 182.451L685.6 182.655V184.697L685.7 185.412H675.6L674.1 182.962L675.1 181.736L673.5 181.022L672.7 179.592L671.6 179.898L671.2 177.346L669.1 178.367L668.1 180.613V182.247L665.5 182.451L666.1 179.592L665.5 177.958L664.2 176.937V175.712L664.9 174.283L663.8 172.853L663.4 171.015L662.2 169.688L660.8 168.054L659.9 166.012L658.8 167.646L657.1 168.871L657.4 170.096L655.9 171.015L656.7 172.241L656.2 173.67L655 174.691L655.3 176.529L655 177.856L654 179.082V180.92L651.7 182.451L651.6 179.286L653.1 177.55L652 175.916L653 173.364L653.2 171.015H651.7L651.1 169.484L649.6 167.952L648.1 167.135L647.5 168.667L645.9 168.871L645.6 170.505L645.4 167.033L644.9 164.48L644 163.255L642.6 164.276L643.9 161.315H642.4L641.5 159.579L642.4 158.048L640.4 157.027L639.8 153.351L637.7 155.189L636 156.516L636.5 158.15L634.7 158.763L635 160.805L633.2 161.826L634.7 164.48L632.9 165.604L633.1 167.339V168.973L631.1 168.871L632.1 171.015L630.6 172.241L630.3 175.916L629.1 176.529L630.1 178.367L628.1 179.184L628.7 180.613L627.8 183.472L625.3 182.553L625.7 180.511L624.5 179.184L624.7 177.244L623.1 176.018V173.057L621.4 173.262L620.4 170.403L619.9 168.156L618.1 169.688L615.9 170.607L616.8 171.73L616.6 173.159L614.5 174.078L615.9 174.691L615.3 176.223L613.2 177.039L615.5 179.184L615.1 181.736H613L613.4 182.757V184.8L610.7 185.004L611.2 185.412H599.3L598.8 184.289L600.2 183.676L598.1 182.757L598 181.328L598.8 180.205L596.6 179.286L594.9 177.754L594.4 179.898L593.4 182.86L591.6 182.655V185.412H591.4L590.1 182.962H587.8L588.3 180.92L586.9 180.205L586.4 176.937L585.9 175.916L584 177.039L584.2 178.571H583.6L583.7 178.469L581.7 178.571V176.937L581.8 175.202L580.1 174.078L581.6 171.424L579.7 170.403L580.1 168.36L578.2 167.748L578.7 166.114L577.1 164.787L575 162.949L574.3 166.625L572.3 167.646L573.2 169.177L572.3 170.913H570.9L572.1 173.874L570.7 172.853L569.9 174.078L569.4 176.631L569.1 180.103L568.9 178.469L567.2 178.265L566.6 176.733L565.1 177.55L563.6 179.082L563 180.613H561.5L561.8 182.962L562 183.676L561.8 184.187V185.412H559.5L559.8 184.289L559.6 184.085L559.8 183.37L559.2 181.941L558.3 181.43L558.8 180.613L557.8 180.001L558.5 178.775L557.4 177.55L557 175.916L555.8 174.895L554.4 173.466L553.6 171.73L552.4 173.159L550.7 174.078L551.1 175.202L549.6 175.916L550.3 177.039L549.8 178.265L548.6 179.082L549 180.715L548.6 181.838L547.7 182.86V184.391L545.8 185.412H545.3L545.2 182.962L546.7 181.634L545.6 180.205L546.6 177.958L546.8 175.916H545.4L544.7 174.691L543.2 173.364L541.7 172.649L541.1 173.976L539.5 174.078L539.3 175.508L539 172.547L538.5 170.403L537.6 169.279L536.3 170.198L537.5 167.748H536L535.2 166.216L536 164.889L534 163.97L533.4 160.907L531.3 162.54L529.7 163.562L530.2 164.991L528.3 165.502L528.7 167.237L526.8 168.156L528.3 170.403L526.6 171.424L526.7 172.751V174.181L524.7 174.078L525.7 175.916L524.2 177.039L524 180.205L522.7 180.715L522.8 180.817L522.5 180.613L522 181.736L521.8 182.86L521.7 182.962L521.8 183.064L521.5 185.412H519.1L519.4 184.085L518.1 182.962L518.4 181.226L516.7 180.307V177.652L515 177.856L514 175.406L513.5 173.568L511.8 174.895L509.5 175.61L510.4 176.631L510.3 177.754L508.2 178.571L509.5 179.082L508.9 180.409L506.8 181.124L509.2 182.962L508.8 185.106H506.7L506.8 185.412H499.1L498.4 184.8L500.1 183.472L497.3 183.268V181.328L497.7 180.205H495.6L495.2 177.652L497.6 175.61L495.5 174.691L494.8 173.159L496.2 172.547L494.1 171.628L494 170.198L494.8 169.075L492.6 168.156L490.9 166.625L490.4 168.871L489.4 171.73L487.6 171.526V174.589L486 175.712L486.2 177.652L485 178.979L485.4 181.022L482.9 181.941L482 179.082L482.6 177.652L480.6 176.835L481.6 175.099L480.4 174.385L480.2 170.709L478.7 169.484L479.7 167.339L477.7 167.442V165.808L477.8 164.174L476 162.949L477.5 160.294L475.7 159.273L476 157.231L474.2 156.618L474.7 154.985L473.1 153.759L470.9 151.819L470.3 155.495L468.3 156.516L469.2 158.048L468.3 159.784H466.8L468.1 162.745L466.7 161.724L465.8 162.949L465.3 165.502L465.1 168.973L464.9 167.339L463.2 167.135L462.6 165.604L461.1 166.42L459.6 167.952L459 169.484H457.5L457.8 171.832L458.8 174.385L457.6 176.018L459.1 177.754L459 180.92L456.7 179.388V177.55L455.8 176.325L455.4 175.099L455.8 173.159L454.5 172.138L454 170.709L454.8 169.484L453.3 168.565L453.7 167.339L451.9 166.114L450.8 164.48L449.9 166.523L448.6 168.156L447.3 169.484L446.9 171.322L445.8 172.751L446.6 174.181V175.406L445.2 176.427L444.6 178.061L445.2 180.92L442.6 180.817V179.082L441.6 176.835L439.5 175.814L439.1 178.367L438 178.061L437.2 179.49L435.6 180.205L436.6 181.43L435.8 182.86L435.6 180.205L436.1 176.835L433.6 174.078L434.1 172.036L432.1 171.424L429.8 167.339L428.1 170.811L428.3 172.751L426.9 174.078L427.5 175.712L424.8 177.754L423.6 176.427L423.7 174.283L422.3 173.67L422.7 172.547H420.2L420.3 170.709L418.5 169.484L418 170.607L417.5 174.385L416.1 175.304V175.406L414.2 174.487L412.9 170.607L410.6 167.339L411.9 165.195L407.3 159.886L405 226.001V1654H818.7L821 168.871L820.5 169.484Z" fill="#175B7C"/>
<path d="M1230.5 168.614L1229.9 170.145L1228 172.867L1228.7 176.543L1229.7 179.095L1228.5 180.729L1230 182.464L1229.9 185.629L1227.6 184.098V182.26L1226.7 181.035L1226.3 179.708L1226.7 177.87L1225.4 176.849L1224.9 175.42L1225.7 174.195L1224.2 173.276L1224.6 172.051L1222.8 170.825L1221.7 169.192L1220.8 171.234L1219.5 172.867L1218.2 174.195L1217.8 176.032L1216.7 177.462L1217.5 178.891V180.116L1216.1 181.137L1215.5 182.77L1216.1 185.629L1213.5 185.425V183.791L1212.5 181.545L1210.4 180.524L1210 183.077L1208.9 182.77L1208.1 184.2L1206.5 184.914L1207.5 186.139L1206 188.59H1196L1196.1 187.875V185.833L1194.8 185.629L1194.9 183.587L1195.7 182.464L1194.5 181.137L1194.6 178.993L1193.2 178.38L1193.6 177.257H1191.1L1191.2 175.42L1189.4 174.195L1188.9 175.318L1188.4 179.095L1187 180.014L1187.5 182.362H1185.7L1185.4 181.647L1186.8 180.933L1184.6 180.116L1184.5 178.687L1185.4 177.564L1183.1 176.645L1181.4 175.113L1180.9 177.257L1179.9 180.218L1178.2 180.014V182.975L1176.6 184.2L1176.8 186.139L1175.6 187.467L1175.8 188.59H1172.9L1172.6 187.569L1173.2 186.139L1171.2 185.323L1172.2 183.485L1171 182.873L1170.7 179.197L1169.2 177.972L1170.2 175.726L1168.2 175.93V174.297L1168.3 172.561L1166.6 171.438L1168.1 168.784L1166.2 167.763L1166.6 165.721L1164.7 165.108L1165.2 163.475L1163.6 162.148L1161.5 160.31L1160.9 163.985L1158.9 165.006L1159.8 166.538L1158.9 168.273H1157.4L1158.6 171.234L1157.3 170.213L1156.4 171.438L1155.9 173.99L1155.7 177.462L1155.4 175.726L1153.8 175.624L1153.2 174.092L1151.7 174.909L1150.2 176.441L1149.6 177.972H1148.1L1148.3 180.32L1149.3 182.873L1148.2 184.506L1149.7 186.139L1149.6 188.59H1148.5L1147.2 187.875V186.037L1146.3 184.812L1145.9 183.485L1146.3 181.647L1145.1 180.626L1144.6 179.197L1145.3 177.972L1143.8 177.053L1144.2 175.726L1142.5 174.603L1141.3 172.969L1140.5 175.011L1139.1 176.645L1137.9 177.972L1137.5 179.81L1136.4 181.239L1137.1 182.668V183.893L1135.7 184.914L1135.1 186.548L1135.6 188.59H1133.1V187.569L1132.1 185.323L1130 184.302L1129.7 186.854L1128.5 186.548L1127.8 187.977L1126.2 188.59H1114.5L1114.6 187.365L1115.3 186.139L1114.1 184.914L1114.2 182.77L1112.9 182.158L1113.2 180.933H1110.7L1110.9 179.197L1109 177.972L1108.5 179.095L1108 182.873L1107 183.587L1106.5 182.362H1104.2L1104.6 180.014L1103.3 179.095L1102.8 175.318L1102.3 174.195L1100.4 175.42L1100.5 177.257H1098L1098.4 178.38L1097 178.993L1097.2 181.137L1095.9 182.464L1096.7 183.587L1096.8 185.629L1095.6 185.833V187.875L1095.7 188.59H1085.6L1084.1 186.139L1085.1 184.914L1083.5 184.2L1082.7 182.77L1081.6 183.077L1081.2 180.524L1079.1 181.545L1078.1 183.791V185.425L1075.5 185.629L1076.1 182.77L1075.5 181.137L1074.2 180.116V178.891L1074.9 177.462L1073.8 176.032L1073.4 174.195L1072.2 172.867L1070.8 171.234L1069.9 169.192L1068.8 170.825L1067.1 172.051L1067.4 173.276L1065.9 174.195L1066.7 175.42L1066.2 176.849L1065 177.87L1065.3 179.708L1065 181.035L1064 182.26V184.098L1061.7 185.629L1061.6 182.464L1063.1 180.729L1062 179.095L1063 176.543L1063.2 174.195H1061.7L1061.1 172.663L1059.6 171.132L1058.1 170.315L1057.5 171.846L1055.9 172.051L1055.6 173.684L1055.4 170.213L1054.9 167.661L1054 166.435L1052.6 167.456L1053.9 164.496H1052.4L1051.5 162.76L1052.4 161.229L1050.4 160.208L1049.8 156.532L1047.7 158.37L1046 159.697L1046.5 161.331L1044.7 161.943L1045 163.985L1043.2 165.006L1044.7 167.661L1042.9 168.784L1043.1 170.519V172.153L1041.1 172.051L1042.1 174.195L1040.6 175.42L1040.3 179.095L1039.1 179.708L1040.1 181.545L1038.1 182.362L1038.7 183.791L1037.8 186.65L1035.3 185.731L1035.7 183.689L1034.5 182.362L1034.7 180.422L1033.1 179.197V176.236L1031.4 176.441L1030.4 173.582L1029.9 171.336L1028.1 172.867L1025.9 173.786L1026.8 174.909L1026.6 176.339L1024.5 177.257L1025.9 177.87L1025.3 179.401L1023.2 180.218L1025.5 182.362L1025.1 184.914H1023L1023.4 185.935V187.977L1020.7 188.181L1021.2 188.59H1009.3L1008.8 187.467L1010.2 186.854L1008.1 185.935L1008 184.506L1008.8 183.383L1006.6 182.464L1004.9 180.933L1004.4 183.077L1003.4 186.037L1001.6 185.833V188.59H1001.4L1000.1 186.139H997.8L998.3 184.098L996.9 183.383L996.4 180.116L995.9 179.095L994 180.218L994.2 181.749H993.6L993.7 181.647L991.7 181.749V180.116L991.8 178.38L990.1 177.257L991.6 174.603L989.7 173.582L990.1 171.54L988.2 170.928L988.7 169.294L987.1 167.967L985 166.129L984.3 169.805L982.3 170.825L983.2 172.357L982.3 174.092H980.9L982.1 177.053L980.7 176.032L979.9 177.257L979.4 179.81L979.1 183.281L978.9 181.647L977.2 181.443L976.6 179.912L975.1 180.729L973.6 182.26L973 183.791H971.5L971.8 186.139L972 186.854L971.8 187.365V188.59H969.5L969.8 187.467L969.6 187.263L969.8 186.548L969.2 185.119L968.3 184.608L968.8 183.791L967.8 183.179L968.5 181.954L967.4 180.729L967 179.095L965.8 178.074L964.4 176.645L963.6 174.909L962.4 176.339L960.7 177.257L961.1 178.38L959.6 179.095L960.3 180.218L959.8 181.443L958.6 182.26L959 183.893L958.6 185.016L957.7 186.037V187.569L955.8 188.59H955.3L955.2 186.139L956.7 184.812L955.6 183.383L956.6 181.137L956.8 179.095H955.4L954.7 177.87L953.2 176.543L951.7 175.828L951.1 177.155L949.5 177.257L949.3 178.687L949 175.726L948.5 173.582L947.6 172.459L946.3 173.378L947.5 170.928H946L945.2 169.396L946 168.069L944 167.15L943.4 164.087L941.3 165.721L939.7 166.742L940.2 168.171L938.3 168.682L938.7 170.417L936.8 171.336L938.3 173.582L936.6 174.603L936.7 175.93V177.359L934.7 177.257L935.7 179.095L934.2 180.218L934 183.383L932.7 183.893L932.8 183.996L932.5 183.791L932 184.914L931.8 186.037L931.7 186.139L931.8 186.242L931.5 188.59H929.1L929.4 187.263L928.1 186.139L928.4 184.404L926.7 183.485V180.831L925 181.035L924 178.585L923.5 176.747L921.8 178.074L919.5 178.789L920.4 179.81L920.3 180.933L918.2 181.749L919.5 182.26L918.9 183.587L916.8 184.302L919.2 186.139L918.8 188.283H916.7L916.8 188.59H909.1L908.4 187.977L910.1 186.65L907.3 186.446V184.506L907.7 183.383H905.6L905.2 180.831L907.6 178.789L905.5 177.87L904.8 176.339L906.2 175.726L904.1 174.807L904 173.378L904.8 172.255L902.6 171.336L900.9 169.805L900.4 172.051L899.4 174.909L897.6 174.705V177.768L896 178.891L896.2 180.831L895 182.158L895.4 184.2L892.9 185.119L892 182.26L892.6 180.831L890.6 180.014L891.6 178.278L890.4 177.564L890.2 173.888L888.7 172.663L889.7 170.519L887.7 170.621V168.988L887.8 167.354L886 166.129L887.5 163.475L885.7 162.454L886 160.412L884.2 159.799L884.7 158.166L883.1 156.941L880.9 155.001L880.3 158.676L878.3 159.697L879.2 161.229L878.3 162.964H876.8L878.1 165.925L876.7 164.904L875.8 166.129L875.3 168.682L875.1 172.153L874.9 170.519L873.2 170.315L872.6 168.784L871.1 169.6L869.6 171.132L869 172.663H867.5L867.8 175.011L868.8 177.564L867.6 179.197L869.1 180.933L869 184.098L866.7 182.566V180.729L865.8 179.503L865.4 178.278L865.8 176.339L864.5 175.318L864 173.888L864.8 172.663L863.3 171.744L863.7 170.519L861.9 169.294L860.8 167.661L859.9 169.702L858.6 171.336L857.3 172.663L856.9 174.501L855.8 175.93L856.6 177.359V178.585L855.2 179.606L854.6 181.239L855.2 184.098L852.6 183.996V182.26L851.6 180.014L849.5 178.993L849.1 181.545L848 181.239L847.2 182.668L845.6 183.383L846.6 184.608L845.8 186.037L845.6 183.383L846.1 180.014L843.6 177.257L844.1 175.215L842.1 174.603L839.8 170.519L838.1 173.99L838.3 175.93L836.9 177.257L837.5 178.891L834.8 180.933L833.6 179.606L833.7 177.462L832.3 176.849L832.7 175.726H830.2L830.3 173.888L828.5 172.663L828 173.786L827.5 177.564L826.1 178.482V178.585L824.2 177.666L822.9 173.786L820.6 170.519L821.9 168.375L817.3 163.066L813.5 171.336V191.55V1654H1232V168.001L1230.5 168.614Z" fill="#175B7C"/>
<rect x="406" y="528.001" width="72" height="18" fill="#145A7B"/>
<path d="M0 292H1646V2292H0L0 292Z" fill="url(#paint7_linear_1558_19158)"/>
<path d="M348.37 28.09C348.25 28.18 348.11 28.27 347.94 28.37C347.92 28.17 347.87 27.98 347.8 27.8C346.66 25.24 345.2 23.96 343.4 23.96C341.22 23.96 339.14 24.67 337.15 26.09C335.07 27.51 334.02 29.12 334.02 30.92C334.02 31.77 334.16 32.96 334.45 34.47C334.45 35.13 334.17 35.75 333.6 36.32C333.03 36.89 332.42 37.17 331.75 37.17C330.8 37.17 330.14 36.98 329.76 36.6C329.38 36.13 328.77 35.89 327.91 35.89C327.34 35.89 326.3 36.55 324.78 37.88C323.17 39.21 322.22 39.87 321.94 39.87C321.09 39.11 319.86 38.73 318.25 38.73C316.73 38.73 315.31 39.2 313.99 40.15C312.66 41 312 41.9 312 42.85V43.28C361.8 41.98 403.9 41.46 438.31 41.72C438.4 41.37 438.45 40.95 438.45 40.44C438.45 37.6 436.98 36.18 434.05 36.18C432.16 36.27 430.83 36.61 430.07 37.17H429.08C429.27 36.6 429.32 36.13 429.22 35.75C429.03 34.99 428.23 34.61 426.8 34.61C425.37 34.61 424.29 34.8 423.53 35.18V33.47C423.62 32.71 423.34 32.33 422.68 32.33C422.49 32.33 422.16 32.42 421.69 32.61C421.6 32.63 421.5 32.63 421.41 32.61C421.5 32.39 421.55 31.91 421.55 31.19C421.55 26.83 419.56 24.65 415.58 24.65C410.65 24.65 407.91 26.31 407.34 29.62C406.77 32.84 406.16 34.45 405.49 34.45C404.92 34.45 404.26 34.31 403.5 34.02C402.74 33.64 402.32 33.45 402.22 33.45C401.94 33.45 401.23 33.78 400.09 34.44C398.86 35.01 398.05 35.29 397.67 35.29C397.01 35.29 396.44 34.72 395.96 33.58C395.58 32.35 394.82 31.73 393.69 31.73C392.65 31.73 391.85 31.87 391.27 32.16C391.3 32.27 391.3 32.36 391.27 32.44L390.84 32.72C390.96 32.51 391.1 32.32 391.27 32.15C392.6 29.11 393.26 27.45 393.26 27.18C393.26 25.76 393.17 24.81 392.98 24.34C392.41 23.01 391.09 22.35 389 22.35H388.57C388.47 19.17 387.57 16.28 385.87 13.68C383.41 9.89 379.71 8 374.79 8C370.15 8 366.17 9.33 362.85 11.98C359.35 14.73 357.59 18.28 357.59 22.64C357.59 24.44 357.78 26.33 358.16 28.32H358.02C357.74 27.75 357.45 27.28 357.17 26.9C356.51 26.24 355.65 25.91 354.61 25.91C352.43 25.91 350.35 26.62 348.36 28.04M476.66 36.71C476.66 34.34 476.57 32.87 476.38 32.31C475.72 30.7 474.11 29.89 471.55 29.89C467.38 29.89 464.92 30.79 464.16 32.59C463.78 33.54 463.83 34.77 464.3 36.28H462.88C461.65 35.81 460.75 35.57 460.18 35.57C459.52 35.57 458.9 36.04 458.33 36.99C457.86 37.94 457.38 38.41 456.91 38.41C456.25 38.41 455.54 38.03 454.78 37.27C454.02 36.42 453.55 35.99 453.36 35.99C453.08 35.99 452.46 36.18 451.51 36.56C450.47 36.94 449.71 37.37 449.24 37.84C448.29 38.5 447.82 39.26 447.82 40.11C447.78 40.82 447.73 41.34 447.68 41.67C451.85 41.78 461.32 41.69 476.1 41.39C476.48 40.26 476.67 38.69 476.67 36.7M489.03 35.14C487.89 35.14 486.8 35.57 485.76 36.42C484.38 37.62 483.71 39.23 483.77 41.25C488.23 41.13 493.06 40.99 498.26 40.82C498.54 40.02 498.69 39.45 498.69 39.11C498.69 37.4 497.79 36.55 495.99 36.55C493.43 37.02 492.11 37.26 492.01 37.26C491.35 37.26 490.78 36.93 490.3 36.27C489.92 35.51 489.49 35.13 489.02 35.13L489.03 35.14Z" fill="#4D7898"/>
<path fill-rule="evenodd" clip-rule="evenodd" d="M285.485 11.1365C283.391 11.161 281.266 11.5864 279.219 12.4562C270.814 16.0271 266.895 25.7357 270.466 34.141C274.037 42.5463 283.745 46.4654 292.151 42.8945C294.198 42.0247 295.979 40.7908 297.451 39.3002C290.946 39.3762 284.733 35.5851 282.032 29.2271C279.331 22.8691 280.915 15.7654 285.485 11.1365Z" fill="#E3EDF5"/>
<circle cx="223" cy="21" r="1" fill="#E3EDF5"/>
<circle cx="272.5" cy="74.5" r="1.5" fill="#E3EDF5"/>
<circle cx="119.5" cy="100.5" r="1.5" fill="#E3EDF5"/>
<circle cx="505.5" cy="112.5" r="1.5" fill="#E3EDF5"/>
<circle cx="11" cy="87" r="1" fill="#E3EDF5"/>
<circle cx="833" cy="21" r="1" fill="#E3EDF5"/>
<circle cx="729.5" cy="100.5" r="1.5" fill="#E3EDF5"/>
<circle cx="621" cy="87" r="1" fill="#E3EDF5"/>
</g>
<defs>
<linearGradient id="paint0_linear_1558_19158" x1="337.394" y1="160.759" x2="337.394" y2="-74.5455" gradientUnits="userSpaceOnUse">
<stop offset="0.1875" stop-color="#114C68"/>
<stop offset="0.661458" stop-color="#030C10"/>
</linearGradient>
<linearGradient id="paint1_linear_1558_19158" x1="207.11" y1="167.068" x2="207.153" y2="122.218" gradientUnits="userSpaceOnUse">
<stop stop-color="#ABC7E0"/>
<stop offset="1" stop-color="#8AB2D3"/>
</linearGradient>
<linearGradient id="paint2_linear_1558_19158" x1="207.036" y1="203.783" x2="207.182" y2="156.351" gradientUnits="userSpaceOnUse">
<stop offset="0.1417" stop-color="#80A5C1"/>
<stop offset="1" stop-color="#5281A4"/>
</linearGradient>
<linearGradient id="paint3_linear_1558_19158" x1="613.813" y1="178.981" x2="613.856" y2="134.131" gradientUnits="userSpaceOnUse">
<stop stop-color="#ABC7E0"/>
<stop offset="1" stop-color="#8AB2D3"/>
</linearGradient>
<linearGradient id="paint4_linear_1558_19158" x1="613.74" y1="216.393" x2="613.885" y2="168.96" gradientUnits="userSpaceOnUse">
<stop offset="0.1417" stop-color="#80A5C1"/>
<stop offset="1" stop-color="#5281A4"/>
</linearGradient>
<linearGradient id="paint5_linear_1558_19158" x1="1024.89" y1="169.068" x2="1024.85" y2="124.218" gradientUnits="userSpaceOnUse">
<stop stop-color="#ABC7E0"/>
<stop offset="1" stop-color="#8AB2D3"/>
</linearGradient>
<linearGradient id="paint6_linear_1558_19158" x1="1024.96" y1="205.783" x2="1024.82" y2="158.351" gradientUnits="userSpaceOnUse">
<stop offset="0.1417" stop-color="#80A5C1"/>
<stop offset="1" stop-color="#5281A4"/>
</linearGradient>
<linearGradient id="paint7_linear_1558_19158" x1="795.529" y1="292" x2="791.931" y2="934.315" gradientUnits="userSpaceOnUse">
<stop offset="0.4375" stop-color="#145A75"/>
<stop offset="1" stop-color="#F2F2F2"/>
</linearGradient>
<clipPath id="clip0_1558_19158">
<rect width="834" height="984" fill="white"/>
</clipPath>
</defs>
</svg>
