<svg width="360" height="1831" viewBox="0 0 360 1831" fill="none" xmlns="http://www.w3.org/2000/svg">
<path d="M360 0H0V401H360V0Z" fill="url(#paint0_linear_640_18402)"/>
<path d="M55.1044 300.09C55 300.18 54.8783 300.27 54.7304 300.37C54.7131 300.17 54.6696 299.98 54.6087 299.8C53.6174 297.24 52.3478 295.96 50.7826 295.96C48.887 295.96 47.0783 296.67 45.3478 298.09C43.5391 299.51 42.6261 301.12 42.6261 302.92C42.6261 303.77 42.7478 304.96 43 306.47C43 307.13 42.7565 307.75 42.2609 308.32C41.7652 308.89 41.2348 309.17 40.6522 309.17C39.8261 309.17 39.2522 308.98 38.9217 308.6C38.5913 308.13 38.0609 307.89 37.3131 307.89C36.8174 307.89 35.9131 308.55 34.5913 309.88C33.1913 311.21 32.3652 311.87 32.1217 311.87C31.3826 311.11 30.3131 310.73 28.9131 310.73C27.5913 310.73 26.3565 311.2 25.2087 312.15C24.0522 313 23.4783 313.9 23.4783 314.85V315.28C66.7826 313.98 103.391 313.46 133.313 313.72C133.391 313.37 133.435 312.95 133.435 312.44C133.435 309.6 132.157 308.18 129.609 308.18C127.965 308.27 126.809 308.61 126.148 309.17H125.287C125.452 308.6 125.496 308.13 125.409 307.75C125.243 306.99 124.548 306.61 123.304 306.61C122.061 306.61 121.122 306.8 120.461 307.18V305.47C120.539 304.71 120.296 304.33 119.722 304.33C119.557 304.33 119.27 304.42 118.861 304.61C118.783 304.63 118.696 304.63 118.617 304.61C118.696 304.39 118.739 303.91 118.739 303.19C118.739 298.83 117.009 296.65 113.548 296.65C109.261 296.65 106.878 298.31 106.383 301.62C105.887 304.84 105.357 306.45 104.774 306.45C104.278 306.45 103.704 306.31 103.043 306.02C102.383 305.64 102.017 305.45 101.93 305.45C101.687 305.45 101.07 305.78 100.078 306.44C99.0087 307.01 98.3044 307.29 97.9739 307.29C97.4 307.29 96.9044 306.72 96.487 305.58C96.1565 304.35 95.4957 303.73 94.5131 303.73C93.6087 303.73 92.913 303.87 92.4087 304.16C92.4348 304.27 92.4348 304.36 92.4087 304.44L92.0348 304.72C92.1391 304.51 92.2609 304.32 92.4087 304.15C93.5652 301.11 94.1391 299.45 94.1391 299.18C94.1391 297.76 94.0609 296.81 93.8957 296.34C93.4 295.01 92.2522 294.35 90.4348 294.35H90.0609C89.9739 291.17 89.1913 288.28 87.7131 285.68C85.5739 281.89 82.3565 280 78.0783 280C74.0435 280 70.5826 281.33 67.6957 283.98C64.6522 286.73 63.1217 290.28 63.1217 294.64C63.1217 296.44 63.287 298.33 63.6174 300.32H63.4957C63.2522 299.75 63 299.28 62.7565 298.9C62.1826 298.24 61.4348 297.91 60.5304 297.91C58.6348 297.91 56.8261 298.62 55.0957 300.04M166.661 308.71C166.661 306.34 166.583 304.87 166.417 304.31C165.843 302.7 164.443 301.89 162.217 301.89C158.591 301.89 156.452 302.79 155.791 304.59C155.461 305.54 155.504 306.77 155.913 308.28H154.678C153.609 307.81 152.826 307.57 152.33 307.57C151.757 307.57 151.217 308.04 150.722 308.99C150.313 309.94 149.896 310.41 149.487 310.41C148.913 310.41 148.296 310.03 147.635 309.27C146.974 308.42 146.565 307.99 146.4 307.99C146.157 307.99 145.617 308.18 144.791 308.56C143.887 308.94 143.226 309.37 142.817 309.84C141.991 310.5 141.583 311.26 141.583 312.11C141.548 312.82 141.504 313.34 141.461 313.67C145.087 313.78 153.322 313.69 166.174 313.39C166.504 312.26 166.67 310.69 166.67 308.7M177.417 307.14C176.426 307.14 175.478 307.57 174.574 308.42C173.374 309.62 172.791 311.23 172.843 313.25C176.722 313.13 180.922 312.99 185.443 312.82C185.687 312.02 185.817 311.45 185.817 311.11C185.817 309.4 185.035 308.55 183.47 308.55C181.243 309.02 180.096 309.26 180.009 309.26C179.435 309.26 178.939 308.93 178.522 308.27C178.191 307.51 177.817 307.13 177.409 307.13L177.417 307.14Z" fill="white"/>
<path d="M285.495 290.09C285.599 290.18 285.721 290.27 285.869 290.37C285.886 290.17 285.93 289.98 285.991 289.8C286.982 287.24 288.252 285.96 289.817 285.96C291.712 285.96 293.521 286.67 295.252 288.09C297.06 289.51 297.973 291.12 297.973 292.92C297.973 293.77 297.852 294.96 297.599 296.47C297.599 297.13 297.843 297.75 298.338 298.32C298.834 298.89 299.365 299.17 299.947 299.17C300.773 299.17 301.347 298.98 301.678 298.6C302.008 298.13 302.538 297.89 303.286 297.89C303.782 297.89 304.686 298.55 306.008 299.88C307.408 301.21 308.234 301.87 308.478 301.87C309.217 301.11 310.286 300.73 311.686 300.73C313.008 300.73 314.243 301.2 315.391 302.15C316.547 303 317.121 303.9 317.121 304.85V305.28C273.817 303.98 237.208 303.46 207.286 303.72C207.208 303.37 207.165 302.95 207.165 302.44C207.165 299.6 208.443 298.18 210.991 298.18C212.634 298.27 213.791 298.61 214.452 299.17H215.312C215.147 298.6 215.104 298.13 215.191 297.75C215.356 296.99 216.052 296.61 217.295 296.61C218.538 296.61 219.478 296.8 220.138 297.18V295.47C220.06 294.71 220.304 294.33 220.878 294.33C221.043 294.33 221.33 294.42 221.738 294.61C221.817 294.63 221.904 294.63 221.982 294.61C221.904 294.39 221.86 293.91 221.86 293.19C221.86 288.83 223.591 286.65 227.052 286.65C231.338 286.65 233.721 288.31 234.217 291.62C234.712 294.84 235.243 296.45 235.825 296.45C236.321 296.45 236.895 296.31 237.556 296.02C238.217 295.64 238.582 295.45 238.669 295.45C238.912 295.45 239.53 295.78 240.521 296.44C241.591 297.01 242.295 297.29 242.625 297.29C243.199 297.29 243.695 296.72 244.112 295.58C244.443 294.35 245.104 293.73 246.086 293.73C246.991 293.73 247.686 293.87 248.191 294.16C248.165 294.27 248.165 294.36 248.191 294.44L248.565 294.72C248.46 294.51 248.338 294.32 248.191 294.15C247.034 291.11 246.46 289.45 246.46 289.18C246.46 287.76 246.538 286.81 246.704 286.34C247.199 285.01 248.347 284.35 250.165 284.35H250.538C250.625 281.17 251.408 278.28 252.886 275.68C255.025 271.89 258.243 270 262.521 270C266.556 270 270.017 271.33 272.904 273.98C275.947 276.73 277.478 280.28 277.478 284.64C277.478 286.44 277.312 288.33 276.982 290.32H277.104C277.347 289.75 277.599 289.28 277.843 288.9C278.417 288.24 279.165 287.91 280.069 287.91C281.965 287.91 283.773 288.62 285.504 290.04M173.938 298.71C173.938 296.34 174.017 294.87 174.182 294.31C174.756 292.7 176.156 291.89 178.382 291.89C182.008 291.89 184.147 292.79 184.808 294.59C185.138 295.54 185.095 296.77 184.686 298.28H185.921C186.991 297.81 187.773 297.57 188.269 297.57C188.843 297.57 189.382 298.04 189.878 298.99C190.286 299.94 190.704 300.41 191.112 300.41C191.686 300.41 192.304 300.03 192.965 299.27C193.625 298.42 194.034 297.99 194.199 297.99C194.443 297.99 194.982 298.18 195.808 298.56C196.712 298.94 197.373 299.37 197.782 299.84C198.608 300.5 199.017 301.26 199.017 302.11C199.052 302.82 199.095 303.34 199.138 303.67C195.512 303.78 187.278 303.69 174.425 303.39C174.095 302.26 173.93 300.69 173.93 298.7M163.182 297.14C164.173 297.14 165.121 297.57 166.025 298.42C167.225 299.62 167.808 301.23 167.756 303.25C163.878 303.13 159.678 302.99 155.156 302.82C154.912 302.02 154.782 301.45 154.782 301.11C154.782 299.4 155.565 298.55 157.13 298.55C159.356 299.02 160.504 299.26 160.591 299.26C161.165 299.26 161.66 298.93 162.078 298.27C162.408 297.51 162.782 297.13 163.191 297.13L163.182 297.14Z" fill="white"/>
<g clip-path="url(#clip0_640_18402)">
<g clip-path="url(#clip1_640_18402)">
<circle cx="289" cy="280" r="25" fill="#FFD179"/>
<path d="M319.888 255.09C319.783 255.18 319.662 255.27 319.514 255.37C319.497 255.17 319.453 254.98 319.392 254.8C318.401 252.24 317.131 250.96 315.566 250.96C313.67 250.96 311.862 251.67 310.131 253.09C308.323 254.51 307.41 256.12 307.41 257.92C307.41 258.77 307.531 259.96 307.783 261.47C307.783 262.13 307.54 262.75 307.044 263.32C306.549 263.89 306.018 264.17 305.436 264.17C304.61 264.17 304.036 263.98 303.705 263.6C303.375 263.13 302.844 262.89 302.097 262.89C301.601 262.89 300.697 263.55 299.375 264.88C297.975 266.21 297.149 266.87 296.905 266.87C296.166 266.11 295.097 265.73 293.697 265.73C292.375 265.73 291.14 266.2 289.992 267.15C288.836 268 288.262 268.9 288.262 269.85V270.28C331.566 268.98 368.175 268.46 398.096 268.72C398.175 268.37 398.218 267.95 398.218 267.44C398.218 264.6 396.94 263.18 394.392 263.18C392.749 263.27 391.592 263.61 390.931 264.17H390.07C390.236 263.6 390.279 263.13 390.192 262.75C390.027 261.99 389.331 261.61 388.088 261.61C386.844 261.61 385.905 261.8 385.244 262.18V260.47C385.323 259.71 385.079 259.33 384.505 259.33C384.34 259.33 384.053 259.42 383.644 259.61C383.566 259.63 383.479 259.63 383.401 259.61C383.479 259.39 383.523 258.91 383.523 258.19C383.523 253.83 381.792 251.65 378.331 251.65C374.044 251.65 371.662 253.31 371.166 256.62C370.67 259.84 370.14 261.45 369.557 261.45C369.062 261.45 368.488 261.31 367.827 261.02C367.166 260.64 366.801 260.45 366.714 260.45C366.47 260.45 365.853 260.78 364.862 261.44C363.792 262.01 363.088 262.29 362.757 262.29C362.183 262.29 361.688 261.72 361.27 260.58C360.94 259.35 360.279 258.73 359.297 258.73C358.392 258.73 357.696 258.87 357.192 259.16C357.218 259.27 357.218 259.36 357.192 259.44L356.818 259.72C356.923 259.51 357.044 259.32 357.192 259.15C358.349 256.11 358.923 254.45 358.923 254.18C358.923 252.76 358.844 251.81 358.679 251.34C358.183 250.01 357.036 249.35 355.218 249.35H354.844C354.757 246.17 353.975 243.28 352.496 240.68C350.357 236.89 347.14 235 342.862 235C338.827 235 335.366 236.33 332.479 238.98C329.436 241.73 327.905 245.28 327.905 249.64C327.905 251.44 328.07 253.33 328.401 255.32H328.279C328.036 254.75 327.783 254.28 327.54 253.9C326.966 253.24 326.218 252.91 325.314 252.91C323.418 252.91 321.61 253.62 319.879 255.04M431.444 263.71C431.444 261.34 431.366 259.87 431.201 259.31C430.627 257.7 429.227 256.89 427.001 256.89C423.375 256.89 421.236 257.79 420.575 259.59C420.244 260.54 420.288 261.77 420.697 263.28H419.462C418.392 262.81 417.61 262.57 417.114 262.57C416.54 262.57 416.001 263.04 415.505 263.99C415.096 264.94 414.679 265.41 414.27 265.41C413.697 265.41 413.079 265.03 412.418 264.27C411.757 263.42 411.349 262.99 411.183 262.99C410.94 262.99 410.401 263.18 409.575 263.56C408.67 263.94 408.01 264.37 407.601 264.84C406.775 265.5 406.366 266.26 406.366 267.11C406.331 267.82 406.288 268.34 406.244 268.67C409.87 268.78 418.105 268.69 430.957 268.39C431.288 267.26 431.453 265.69 431.453 263.7M442.201 262.14C441.21 262.14 440.262 262.57 439.357 263.42C438.157 264.62 437.575 266.23 437.627 268.25C441.505 268.13 445.705 267.99 450.227 267.82C450.47 267.02 450.601 266.45 450.601 266.11C450.601 264.4 449.818 263.55 448.253 263.55C446.027 264.02 444.879 264.26 444.792 264.26C444.218 264.26 443.723 263.93 443.305 263.27C442.975 262.51 442.601 262.13 442.192 262.13L442.201 262.14Z" fill="white"/>
<path d="M268.626 225.09C268.522 225.18 268.4 225.27 268.252 225.37C268.235 225.17 268.191 224.98 268.13 224.8C267.139 222.24 265.87 220.96 264.304 220.96C262.409 220.96 260.6 221.67 258.87 223.09C257.061 224.51 256.148 226.12 256.148 227.92C256.148 228.77 256.27 229.96 256.522 231.47C256.522 232.13 256.278 232.75 255.783 233.32C255.287 233.89 254.757 234.17 254.174 234.17C253.348 234.17 252.774 233.98 252.443 233.6C252.113 233.13 251.583 232.89 250.835 232.89C250.339 232.89 249.435 233.55 248.113 234.88C246.713 236.21 245.887 236.87 245.643 236.87C244.904 236.11 243.835 235.73 242.435 235.73C241.113 235.73 239.878 236.2 238.73 237.15C237.574 238 237 238.9 237 239.85V240.28C280.304 238.98 316.913 238.46 346.835 238.72C346.913 238.37 346.957 237.95 346.957 237.44C346.957 234.6 345.678 233.18 343.13 233.18C341.487 233.27 340.33 233.61 339.67 234.17H338.809C338.974 233.6 339.017 233.13 338.93 232.75C338.765 231.99 338.07 231.61 336.826 231.61C335.583 231.61 334.643 231.8 333.983 232.18V230.47C334.061 229.71 333.817 229.33 333.243 229.33C333.078 229.33 332.791 229.42 332.383 229.61C332.304 229.63 332.217 229.63 332.139 229.61C332.217 229.39 332.261 228.91 332.261 228.19C332.261 223.83 330.53 221.65 327.07 221.65C322.783 221.65 320.4 223.31 319.904 226.62C319.409 229.84 318.878 231.45 318.296 231.45C317.8 231.45 317.226 231.31 316.565 231.02C315.904 230.64 315.539 230.45 315.452 230.45C315.209 230.45 314.591 230.78 313.6 231.44C312.53 232.01 311.826 232.29 311.496 232.29C310.922 232.29 310.426 231.72 310.009 230.58C309.678 229.35 309.017 228.73 308.035 228.73C307.13 228.73 306.435 228.87 305.93 229.16C305.957 229.27 305.957 229.36 305.93 229.44L305.557 229.72C305.661 229.51 305.783 229.32 305.93 229.15C307.087 226.11 307.661 224.45 307.661 224.18C307.661 222.76 307.583 221.81 307.417 221.34C306.922 220.01 305.774 219.35 303.957 219.35H303.583C303.496 216.17 302.713 213.28 301.235 210.68C299.096 206.89 295.878 205 291.6 205C287.565 205 284.104 206.33 281.217 208.98C278.174 211.73 276.643 215.28 276.643 219.64C276.643 221.44 276.809 223.33 277.139 225.32H277.017C276.774 224.75 276.522 224.28 276.278 223.9C275.704 223.24 274.957 222.91 274.052 222.91C272.157 222.91 270.348 223.62 268.617 225.04M380.183 233.71C380.183 231.34 380.104 229.87 379.939 229.31C379.365 227.7 377.965 226.89 375.739 226.89C372.113 226.89 369.974 227.79 369.313 229.59C368.983 230.54 369.026 231.77 369.435 233.28H368.2C367.13 232.81 366.348 232.57 365.852 232.57C365.278 232.57 364.739 233.04 364.243 233.99C363.835 234.94 363.417 235.41 363.009 235.41C362.435 235.41 361.817 235.03 361.157 234.27C360.496 233.42 360.087 232.99 359.922 232.99C359.678 232.99 359.139 233.18 358.313 233.56C357.409 233.94 356.748 234.37 356.339 234.84C355.513 235.5 355.104 236.26 355.104 237.11C355.07 237.82 355.026 238.34 354.983 238.67C358.609 238.78 366.843 238.69 379.696 238.39C380.026 237.26 380.191 235.69 380.191 233.7M390.939 232.14C389.948 232.14 389 232.57 388.096 233.42C386.896 234.62 386.313 236.23 386.365 238.25C390.243 238.13 394.443 237.99 398.965 237.82C399.209 237.02 399.339 236.45 399.339 236.11C399.339 234.4 398.557 233.55 396.991 233.55C394.765 234.02 393.617 234.26 393.53 234.26C392.957 234.26 392.461 233.93 392.043 233.27C391.713 232.51 391.339 232.13 390.93 232.13L390.939 232.14Z" fill="white"/>
</g>
<path d="M107.102 301.846L161.202 277.939L173.002 282.673L185.802 265.039L191.702 259.831L201.102 265.039L213.402 276.164L222.302 273.796L245.602 290.721L264.202 288.472L294.302 305.988L210.702 349.186L107.102 301.846Z" fill="#E3EDF5"/>
<path d="M413.997 352.146L0 350.5V328.25V273.099L32.1969 284.804L42.3969 282.082L49.4969 284.804L72.7969 276.046L88.9969 291.668L94.0969 288.118L108.797 300.663L123.497 297.704L144.297 313.918L163.597 309.658L175.697 321.138L180.797 320.546L201.597 336.642L219.797 330.132L226.397 318.061L236.297 311.551L254.797 312.143L264.997 304.924L289.797 297.112L295.897 290.485L300.997 284.804L312.097 289.893L327.297 284.804L342.997 293.444L357.197 288.118H385.097L394.297 297.112L407 285L413.997 284.686" fill="url(#paint1_linear_640_18402)"/>
<path d="M413.997 380.55L0 381V359.484V294.367L36.7969 303.149L58.2969 320.546H78.1969L102.597 315.931L128.697 323.979L156.497 335.34L168.897 340.429L175.197 350.844L183.097 346.11L200.697 351.436L223.897 340.429L236.297 337.352L253.397 321.967L291.997 336.761H301.597L322.597 326.937L335.697 317.233L354.797 326.937H371.997L380.497 317.233L389.497 323.269L413.997 300.427" fill="url(#paint2_linear_640_18402)"/>
<path d="M413.5 344.506L412.9 346.04H411.4L411.7 348.391L412.7 350.947L411.5 352.583L413 354.321L413.988 351.5L411.688 349.966V348.126L410.788 346.899L410.388 345.57L410.788 343.73L409.488 342.707L408.988 341.276L409.788 340.049L408.288 339.129L408.988 338.72L406.5 336L406 333.5L404.888 337.084L403.588 338.72L402.288 340.049L401.888 341.889L400.788 343.321L401.588 344.752V345.979L400.188 347.001L399.588 348.637L400.188 351.5L396.5 357.286V355.651L395.5 353.401L393.4 352.379L393 354.935L391.9 354.628L391.1 356.06L389.5 356.775L390.5 358.002L389 360.456H379L379.1 359.74V357.695L377.8 357.491L377.9 355.446L378.7 354.321L377.5 352.992L377.6 350.845L376.2 350.232L376.6 349.107H374.1L374.2 347.267L372.4 346.04L371.9 347.164L371.4 350.947L370 351.868L370.5 354.219H368.7L368.4 353.503L369.8 352.788L367.6 351.97L367.5 350.538L368.4 349.414L366.1 348.494L364.4 346.96L363.9 349.107L362.9 352.072L361.2 351.868V354.833L359.6 356.06L359.8 358.002L358.6 359.331L358.8 360.456H355.9L355.6 359.433L356.2 358.002L354.2 357.184L355.2 355.344L354 354.73L353.7 351.05L352.2 349.823L353.2 347.573L351.2 347.778V346.142L351.3 344.404L349.6 343.279L351.1 340.621L349.2 339.599L349.6 337.554L347.7 336.94L348.2 335.304L346.6 333.975L344.5 332.135L343.9 335.816L341.9 336.838L342.8 338.372L341.9 340.11H340.4L341.6 343.075L340.3 342.052L339.4 343.279L338.9 345.835L338.7 349.312L338.4 347.573L336.8 347.471L336.2 345.938L334.7 346.756L333.2 348.289L332.6 349.823H331.1L331.3 352.174L332.3 354.73L331.2 356.366L332.7 358.002L332.6 360.456H331.5L330.2 359.74V357.9L329.3 356.673L328.9 355.344L329.3 353.503L328.1 352.481L327.6 351.05L328.3 349.823L326.8 348.903L327.2 347.573L325.5 346.449L324.3 344.813L323.5 346.858L322.1 348.494L320.9 349.823L320.5 351.663L319.4 353.094L320.1 354.526V355.753L318.7 356.775L318.1 358.411L318.6 360.456H316.1V359.433L315.1 357.184L313 356.162L312.7 358.718L311.5 358.411L310.8 359.842L309.2 360.456H297.5L297.6 359.229L298.3 358.002L297.1 356.775L297.2 354.628L295.9 354.015L296.2 352.788H293.7L293.9 351.05L292 349.823L291.5 350.947L291 354.73L290 355.446L289.5 354.219H287.2L287.6 351.868L286.3 350.947L285.8 347.164L285.3 346.04L283.4 347.267L283.5 349.107H281L281.4 350.232L280 350.845L280.2 352.992L278.9 354.321L279.7 355.446L279.8 357.491L278.6 357.695V359.74L278.7 360.456H268.6L267.1 358.002L268.1 356.775L266.5 356.06L265.7 354.628L264.6 354.935L264.2 352.379L262.1 353.401L261.1 355.651V357.286L258.5 357.491L259.1 354.628L258.5 352.992L257.2 351.97V350.743L257.9 349.312L256.8 347.88L256.4 346.04L255.2 344.711L253.8 343.075L252.9 341.03L251.8 342.666L250.1 343.893L250.4 345.12L248.9 346.04L249.7 347.267L249.2 348.698L248 349.721L248.3 351.561L248 352.89L247 354.117V355.957L244.7 357.491L244.6 354.321L246.1 352.583L245 350.947L246 348.391L246.2 346.04H244.7L244.1 344.506L242.6 342.973L241.1 342.155L240.5 343.688L238.9 343.893L238.6 345.529L238.4 342.052L237.9 339.496L237 338.269L235.6 339.292L236.9 336.327H235.4L234.5 334.589L235.4 333.055L233.4 332.033L232.8 328.352L230.7 330.192L229 331.521L229.5 333.157L227.7 333.771L228 335.816L226.2 336.838L227.7 339.496L225.9 340.621L226.1 342.359V343.995L224.1 343.893L225.1 346.04L223.6 347.267L223.3 350.947L222.1 351.561L223.1 353.401L221.1 354.219L221.7 355.651L220.8 358.513L218.3 357.593L218.7 355.548L217.5 354.219L217.7 352.277L216.1 351.05V348.085L214.4 348.289L213.4 345.426L212.9 343.177L211.1 344.711L208.9 345.631L209.8 346.756L209.6 348.187L207.5 349.107L208.9 349.721L208.3 351.254L206.2 352.072L208.5 354.219L208.1 356.775H206L206.4 357.798V359.842L203.7 360.047L204.2 360.456H192.3L191.8 359.331L193.2 358.718L191.1 357.798L191 356.366L191.8 355.242L189.6 354.321L187.9 352.788L187.4 354.935L186.4 357.9L184.6 357.695V360.456H184.4L183.1 358.002H180.8L181.3 355.957L179.9 355.242L179.4 351.97L178.9 350.947L177 352.072L177.2 353.606H176.6L176.7 353.503L174.7 353.606V351.97L174.8 350.232L173.1 349.107L174.6 346.449L172.7 345.426L173.1 343.382L171.2 342.768L171.7 341.132L170.1 339.803L168 337.963L167.3 341.643L165.3 342.666L166.2 344.199L165.3 345.938H163.9L165.1 348.903L163.7 347.88L162.9 349.107L162.4 351.663L162.1 355.139L161.9 353.503L160.2 353.299L159.6 351.765L158.1 352.583L156.6 354.117L156 355.651H154.5L154.8 358.002L155 358.718L154.8 359.229V360.456H152.5L152.8 359.331L152.6 359.127L152.8 358.411L152.2 356.98L151.3 356.468L151.8 355.651L150.8 355.037L151.5 353.81L150.4 352.583L150 350.947L148.8 349.925L147.4 348.494L146.6 346.756L145.4 348.187L143.7 349.107L144.1 350.232L142.6 350.947L143.3 352.072L142.8 353.299L141.6 354.117L142 355.753L141.6 356.877L140.7 357.9V359.433L138.8 360.456H138.3L138.2 358.002L139.7 356.673L138.6 355.242L139.6 352.992L139.8 350.947H138.4L137.7 349.721L136.2 348.391L134.7 347.676L134.1 349.005L132.5 349.107L132.3 350.538L132 347.573L131.5 345.426L130.6 344.302L129.3 345.222L130.5 342.768H129L128.2 341.234L129 339.905L127 338.985L126.4 335.918L124.3 337.554L122.7 338.576L123.2 340.008L121.3 340.519L121.7 342.257L119.8 343.177L121.3 345.426L119.6 346.449L119.7 347.778V349.209L117.7 349.107L118.7 350.947L117.2 352.072L117 355.242L115.7 355.753L115.8 355.855L115.5 355.651L115 356.775L114.8 357.9L114.7 358.002L114.8 358.104L114.5 360.456H112.1L112.4 359.127L111.1 358.002L111.4 356.264L109.7 355.344V352.686L108 352.89L107 350.436L106.5 348.596L104.8 349.925L102.5 350.641L103.4 351.663L103.3 352.788L101.2 353.606L102.5 354.117L101.9 355.446L99.8002 356.162L102.2 358.002L101.8 360.149H99.7002L99.8002 360.456H92.1002L91.4002 359.842L93.1002 358.513L90.3002 358.309V356.366L90.7002 355.242H88.6002L88.2002 352.686L90.6002 350.641L88.5002 349.721L87.8002 348.187L89.2002 347.573L87.1002 346.653L87.0002 345.222L87.8002 344.097L85.6002 343.177L83.9002 341.643L83.4002 343.893L82.4002 346.756L80.6002 346.551V349.618L79.0002 350.743L79.2002 352.686L78.0002 354.015L78.4002 356.06L75.9002 356.98L75.0002 354.117L75.6002 352.686L73.6002 351.868L74.6002 350.129L73.4002 349.414L73.2002 345.733L71.7002 344.506L72.7002 342.359L70.7002 342.461V340.825L70.8002 339.19L69.0002 337.963L70.5002 335.304L68.7002 334.282L69.0002 332.237L67.2002 331.624L67.7002 329.988L66.1002 328.761L63.9002 326.818L63.3002 330.499L61.3002 331.521L62.2002 333.055L61.3002 334.793H59.8002L61.1002 337.758L59.7002 336.736L58.8002 337.963L58.3002 340.519L58.1002 343.995L57.9002 342.359L56.2002 342.155L55.6002 340.621L54.1002 341.439L52.6002 342.973L52.0002 344.506H50.5002L50.8002 346.858L51.8002 349.414L50.6002 351.05L52.1002 352.788L52.0002 355.957L49.7002 354.424V352.583L48.8002 351.356L48.4002 350.129L48.8002 348.187L47.5002 347.164L47.0002 345.733L47.8002 344.506L46.3002 343.586L46.7002 342.359L44.9002 341.132L43.8002 339.496L42.9002 341.541L41.6002 343.177L40.3002 344.506L39.9002 346.347L38.8002 347.778L39.6002 349.209V350.436L38.2002 351.459L37.6002 353.094L38.2002 355.957L35.6002 355.855V354.117L34.6002 351.868L32.5002 350.845L32.1002 353.401L31.0002 353.094L30.2002 354.526L28.6002 355.242L29.6002 356.468L28.8002 357.9L28.6002 355.242L29.1002 351.868L26.6002 349.107L27.1002 347.062L25.1002 346.449L22.8002 342.359L21.1002 345.835L21.3002 347.778L19.9002 349.107L20.5002 350.743L17.8002 352.788L16.6002 351.459L16.7002 349.312L15.3002 348.698L15.7002 347.573H13.2002L13.3002 345.733L11.5002 344.506L11.0002 345.631L10.5002 349.414L9.10023 350.334V350.436L7.20023 349.516L5.90023 345.631L3.60023 342.359L4.90023 340.212L0 334.895V363.421V1831H411.7L414 343.893L413.5 344.506Z" fill="url(#paint3_linear_640_18402)"/>
</g>
<defs>
<linearGradient id="paint0_linear_640_18402" x1="73.7921" y1="401" x2="73.7921" y2="-101" gradientUnits="userSpaceOnUse">
<stop offset="0.0208333" stop-color="white"/>
<stop offset="0.205959" stop-color="white"/>
<stop offset="1" stop-color="#FDBC5B"/>
</linearGradient>
<linearGradient id="paint1_linear_640_18402" x1="207.11" y1="344.067" x2="207.153" y2="299.218" gradientUnits="userSpaceOnUse">
<stop stop-color="#CCD6E0"/>
<stop offset="1" stop-color="#C0D6E8"/>
</linearGradient>
<linearGradient id="paint2_linear_640_18402" x1="207.036" y1="380.782" x2="207.182" y2="333.35" gradientUnits="userSpaceOnUse">
<stop stop-color="#E9F1F7"/>
<stop offset="1" stop-color="#8AAEC9"/>
</linearGradient>
<linearGradient id="paint3_linear_640_18402" x1="207" y1="587" x2="207" y2="810" gradientUnits="userSpaceOnUse">
<stop stop-color="#175B7C"/>
<stop offset="1" stop-color="#F2F2F2"/>
</linearGradient>
<clipPath id="clip0_640_18402">
<rect width="360" height="1626" fill="white" transform="translate(0 205)"/>
</clipPath>
<clipPath id="clip1_640_18402">
<rect width="177" height="100" fill="white" transform="translate(237 205)"/>
</clipPath>
</defs>
</svg>
