<svg width="360" height="1158" viewBox="0 0 360 1158" fill="none" xmlns="http://www.w3.org/2000/svg">
<g clip-path="url(#clip0_635_11655)">
<rect width="360" height="134" fill="black"/>
<circle r="1.5" transform="matrix(-1 0 0 1 319.5 14.5)" fill="#E3EDF5"/>
<circle r="1.5" transform="matrix(-1 0 0 1 91.5 11.5)" fill="#E3EDF5"/>
<circle r="1.5" transform="matrix(-1 0 0 1 201.5 107.5)" fill="#E3EDF5"/>
<circle r="1" transform="matrix(-1 0 0 1 239 11)" fill="#E3EDF5"/>
<circle r="1" transform="matrix(-1 0 0 1 39 101)" fill="#E3EDF5"/>
<circle r="1" transform="matrix(-1 0 0 1 349 83)" fill="#E3EDF5"/>
<g clip-path="url(#clip1_635_11655)">
<path d="M330.37 34.09C330.25 34.18 330.11 34.27 329.94 34.37C329.92 34.17 329.87 33.98 329.8 33.8C328.66 31.24 327.2 29.96 325.4 29.96C323.22 29.96 321.14 30.67 319.15 32.09C317.07 33.51 316.02 35.12 316.02 36.92C316.02 37.77 316.16 38.96 316.45 40.47C316.45 41.13 316.17 41.75 315.6 42.32C315.03 42.89 314.42 43.17 313.75 43.17C312.8 43.17 312.14 42.98 311.76 42.6C311.38 42.13 310.77 41.89 309.91 41.89C309.34 41.89 308.3 42.55 306.78 43.88C305.17 45.21 304.22 45.87 303.94 45.87C303.09 45.11 301.86 44.73 300.25 44.73C298.73 44.73 297.31 45.2 295.99 46.15C294.66 47 294 47.9 294 48.85V49.28C343.8 47.98 385.9 47.46 420.31 47.72C420.4 47.37 420.45 46.95 420.45 46.44C420.45 43.6 418.98 42.18 416.05 42.18C414.16 42.27 412.83 42.61 412.07 43.17H411.08C411.27 42.6 411.32 42.13 411.22 41.75C411.03 40.99 410.23 40.61 408.8 40.61C407.37 40.61 406.29 40.8 405.53 41.18V39.47C405.62 38.71 405.34 38.33 404.68 38.33C404.49 38.33 404.16 38.42 403.69 38.61C403.6 38.63 403.5 38.63 403.41 38.61C403.5 38.39 403.55 37.91 403.55 37.19C403.55 32.83 401.56 30.65 397.58 30.65C392.65 30.65 389.91 32.31 389.34 35.62C388.77 38.84 388.16 40.45 387.49 40.45C386.92 40.45 386.26 40.31 385.5 40.02C384.74 39.64 384.32 39.45 384.22 39.45C383.94 39.45 383.23 39.78 382.09 40.44C380.86 41.01 380.05 41.29 379.67 41.29C379.01 41.29 378.44 40.72 377.96 39.58C377.58 38.35 376.82 37.73 375.69 37.73C374.65 37.73 373.85 37.87 373.27 38.16C373.3 38.27 373.3 38.36 373.27 38.44L372.84 38.72C372.96 38.51 373.1 38.32 373.27 38.15C374.6 35.11 375.26 33.45 375.26 33.18C375.26 31.76 375.17 30.81 374.98 30.34C374.41 29.01 373.09 28.35 371 28.35H370.57C370.47 25.17 369.57 22.28 367.87 19.68C365.41 15.89 361.71 14 356.79 14C352.15 14 348.17 15.33 344.85 17.98C341.35 20.73 339.59 24.28 339.59 28.64C339.59 30.44 339.78 32.33 340.16 34.32H340.02C339.74 33.75 339.45 33.28 339.17 32.9C338.51 32.24 337.65 31.91 336.61 31.91C334.43 31.91 332.35 32.62 330.36 34.04M458.66 42.71C458.66 40.34 458.57 38.87 458.38 38.31C457.72 36.7 456.11 35.89 453.55 35.89C449.38 35.89 446.92 36.79 446.16 38.59C445.78 39.54 445.83 40.77 446.3 42.28H444.88C443.65 41.81 442.75 41.57 442.18 41.57C441.52 41.57 440.9 42.04 440.33 42.99C439.86 43.94 439.38 44.41 438.91 44.41C438.25 44.41 437.54 44.03 436.78 43.27C436.02 42.42 435.55 41.99 435.36 41.99C435.08 41.99 434.46 42.18 433.51 42.56C432.47 42.94 431.71 43.37 431.24 43.84C430.29 44.5 429.82 45.26 429.82 46.11C429.78 46.82 429.73 47.34 429.68 47.67C433.85 47.78 443.32 47.69 458.1 47.39C458.48 46.26 458.67 44.69 458.67 42.7M471.03 41.14C469.89 41.14 468.8 41.57 467.76 42.42C466.38 43.62 465.71 45.23 465.77 47.25C470.23 47.13 475.06 46.99 480.26 46.82C480.54 46.02 480.69 45.45 480.69 45.11C480.69 43.4 479.79 42.55 477.99 42.55C475.43 43.02 474.11 43.26 474.01 43.26C473.35 43.26 472.78 42.93 472.3 42.27C471.92 41.51 471.49 41.13 471.02 41.13L471.03 41.14Z" fill="#4D7898"/>
<path fill-rule="evenodd" clip-rule="evenodd" d="M267.485 17.1375C265.391 17.162 263.266 17.5874 261.219 18.4572C252.814 22.0281 248.895 31.7367 252.466 40.142C256.037 48.5473 265.745 52.4664 274.151 48.8955C276.198 48.0257 277.979 46.7917 279.451 45.3012C272.946 45.3772 266.733 41.5861 264.032 35.2281C261.331 28.8701 262.915 21.7664 267.485 17.1375Z" fill="#E3EDF5"/>
</g>
<g clip-path="url(#clip2_635_11655)">
<path d="M395 134H-19V892.631H395V134Z" fill="url(#paint0_linear_635_11655)"/>
<path d="M88.1016 303.846L142.202 279.939L154.002 284.673L166.802 267.039L172.702 261.831L182.102 267.039L194.402 278.164L203.302 275.796L226.602 292.721L245.202 290.472L275.302 307.988L191.702 351.186L88.1016 303.846Z" fill="#BCD2E4"/>
<path d="M394.997 354.145L-19 352.5V330.25V275.098L13.1969 286.803L23.3969 284.081L30.4969 286.803L53.7969 278.045L69.9969 293.668L75.0969 290.117L89.7969 302.662L104.497 299.704L125.297 315.918L144.597 311.657L156.697 323.137L161.797 322.545L182.597 338.641L200.797 332.132L207.397 320.06L217.297 313.551L235.797 314.143L245.997 306.923L270.797 299.112L276.897 292.484L281.997 286.803L293.097 291.893L308.297 286.803L323.997 295.443L338.197 290.117H366.097L375.297 299.112L388 287L394.997 286.685" fill="url(#paint1_linear_635_11655)"/>
<path d="M394.997 382.55L-19 383V361.484V296.367L17.7969 305.149L39.2969 322.546H59.1969L83.5969 317.931L109.697 325.979L137.497 337.34L149.897 342.429L156.197 352.844L164.097 348.11L181.697 353.436L204.897 342.429L217.297 339.352L234.397 323.967L272.997 338.761H282.597L303.597 328.937L316.697 319.233L335.797 328.937H352.997L361.497 319.233L370.497 325.269L394.997 302.427" fill="url(#paint2_linear_635_11655)"/>
<path d="M-19 471H1347V2471H-19L-19 471Z" fill="url(#paint3_linear_635_11655)"/>
<path d="M404.5 346.506L403.9 348.04H402.4L402.7 350.391L403.7 352.947L402.5 354.583L404 356.321L404.988 353.5L402.688 351.966V350.126L401.788 348.899L401.388 347.57L401.788 345.73L400.488 344.707L399.988 343.276L400.788 342.049L399.288 341.129L399.988 340.72L397.5 338L397 335.5L395.888 339.084L394.588 340.72L393.288 342.049L392.888 343.889L391.788 345.321L392.588 346.752V347.979L391.188 349.001L390.588 350.637L391.188 353.5L387.5 359.286V357.651L386.5 355.401L384.4 354.379L384 356.935L382.9 356.628L382.1 358.06L380.5 358.775L381.5 360.002L380 362.456H370L370.1 361.74V359.695L368.8 359.491L368.9 357.446L369.7 356.321L368.5 354.992L368.6 352.845L367.2 352.232L367.6 351.107H365.1L365.2 349.267L363.4 348.04L362.9 349.164L362.4 352.947L361 353.868L361.5 356.219H359.7L359.4 355.503L360.8 354.788L358.6 353.97L358.5 352.538L359.4 351.414L357.1 350.494L355.4 348.96L354.9 351.107L353.9 354.072L352.2 353.868V356.833L350.6 358.06L350.8 360.002L349.6 361.331L349.8 362.456H346.9L346.6 361.433L347.2 360.002L345.2 359.184L346.2 357.344L345 356.73L344.7 353.05L343.2 351.823L344.2 349.573L342.2 349.778V348.142L342.3 346.404L340.6 345.279L342.1 342.621L340.2 341.599L340.6 339.554L338.7 338.94L339.2 337.304L337.6 335.975L335.5 334.135L334.9 337.816L332.9 338.838L333.8 340.372L332.9 342.11H331.4L332.6 345.075L331.3 344.052L330.4 345.279L329.9 347.835L329.7 351.312L329.4 349.573L327.8 349.471L327.2 347.938L325.7 348.756L324.2 350.289L323.6 351.823H322.1L322.3 354.174L323.3 356.73L322.2 358.366L323.7 360.002L323.6 362.456H322.5L321.2 361.74V359.9L320.3 358.673L319.9 357.344L320.3 355.503L319.1 354.481L318.6 353.05L319.3 351.823L317.8 350.903L318.2 349.573L316.5 348.449L315.3 346.813L314.5 348.858L313.1 350.494L311.9 351.823L311.5 353.663L310.4 355.094L311.1 356.526V357.753L309.7 358.775L309.1 360.411L309.6 362.456H307.1V361.433L306.1 359.184L304 358.162L303.7 360.718L302.5 360.411L301.8 361.842L300.2 362.456H288.5L288.6 361.229L289.3 360.002L288.1 358.775L288.2 356.628L286.9 356.015L287.2 354.788H284.7L284.9 353.05L283 351.823L282.5 352.947L282 356.73L281 357.446L280.5 356.219H278.2L278.6 353.868L277.3 352.947L276.8 349.164L276.3 348.04L274.4 349.267L274.5 351.107H272L272.4 352.232L271 352.845L271.2 354.992L269.9 356.321L270.7 357.446L270.8 359.491L269.6 359.695V361.74L269.7 362.456H259.6L258.1 360.002L259.1 358.775L257.5 358.06L256.7 356.628L255.6 356.935L255.2 354.379L253.1 355.401L252.1 357.651V359.286L249.5 359.491L250.1 356.628L249.5 354.992L248.2 353.97V352.743L248.9 351.312L247.8 349.88L247.4 348.04L246.2 346.711L244.8 345.075L243.9 343.03L242.8 344.666L241.1 345.893L241.4 347.12L239.9 348.04L240.7 349.267L240.2 350.698L239 351.721L239.3 353.561L239 354.89L238 356.117V357.957L235.7 359.491L235.6 356.321L237.1 354.583L236 352.947L237 350.391L237.2 348.04H235.7L235.1 346.506L233.6 344.973L232.1 344.155L231.5 345.688L229.9 345.893L229.6 347.529L229.4 344.052L228.9 341.496L228 340.269L226.6 341.292L227.9 338.327H226.4L225.5 336.589L226.4 335.055L224.4 334.033L223.8 330.352L221.7 332.192L220 333.521L220.5 335.157L218.7 335.771L219 337.816L217.2 338.838L218.7 341.496L216.9 342.621L217.1 344.359V345.995L215.1 345.893L216.1 348.04L214.6 349.267L214.3 352.947L213.1 353.561L214.1 355.401L212.1 356.219L212.7 357.651L211.8 360.513L209.3 359.593L209.7 357.548L208.5 356.219L208.7 354.277L207.1 353.05V350.085L205.4 350.289L204.4 347.426L203.9 345.177L202.1 346.711L199.9 347.631L200.8 348.756L200.6 350.187L198.5 351.107L199.9 351.721L199.3 353.254L197.2 354.072L199.5 356.219L199.1 358.775H197L197.4 359.798V361.842L194.7 362.047L195.2 362.456H183.3L182.8 361.331L184.2 360.718L182.1 359.798L182 358.366L182.8 357.242L180.6 356.321L178.9 354.788L178.4 356.935L177.4 359.9L175.6 359.695V362.456H175.4L174.1 360.002H171.8L172.3 357.957L170.9 357.242L170.4 353.97L169.9 352.947L168 354.072L168.2 355.606H167.6L167.7 355.503L165.7 355.606V353.97L165.8 352.232L164.1 351.107L165.6 348.449L163.7 347.426L164.1 345.382L162.2 344.768L162.7 343.132L161.1 341.803L159 339.963L158.3 343.643L156.3 344.666L157.2 346.199L156.3 347.938H154.9L156.1 350.903L154.7 349.88L153.9 351.107L153.4 353.663L153.1 357.139L152.9 355.503L151.2 355.299L150.6 353.765L149.1 354.583L147.6 356.117L147 357.651H145.5L145.8 360.002L146 360.718L145.8 361.229V362.456H143.5L143.8 361.331L143.6 361.127L143.8 360.411L143.2 358.98L142.3 358.468L142.8 357.651L141.8 357.037L142.5 355.81L141.4 354.583L141 352.947L139.8 351.925L138.4 350.494L137.6 348.756L136.4 350.187L134.7 351.107L135.1 352.232L133.6 352.947L134.3 354.072L133.8 355.299L132.6 356.117L133 357.753L132.6 358.877L131.7 359.9V361.433L129.8 362.456H129.3L129.2 360.002L130.7 358.673L129.6 357.242L130.6 354.992L130.8 352.947H129.4L128.7 351.721L127.2 350.391L125.7 349.676L125.1 351.005L123.5 351.107L123.3 352.538L123 349.573L122.5 347.426L121.6 346.302L120.3 347.222L121.5 344.768H120L119.2 343.234L120 341.905L118 340.985L117.4 337.918L115.3 339.554L113.7 340.576L114.2 342.008L112.3 342.519L112.7 344.257L110.8 345.177L112.3 347.426L110.6 348.449L110.7 349.778V351.209L108.7 351.107L109.7 352.947L108.2 354.072L108 357.242L106.7 357.753L106.8 357.855L106.5 357.651L106 358.775L105.8 359.9L105.7 360.002L105.8 360.104L105.5 362.456H103.1L103.4 361.127L102.1 360.002L102.4 358.264L100.7 357.344V354.686L99.0002 354.89L98.0002 352.436L97.5002 350.596L95.8002 351.925L93.5002 352.641L94.4002 353.663L94.3002 354.788L92.2002 355.606L93.5002 356.117L92.9002 357.446L90.8002 358.162L93.2002 360.002L92.8002 362.149H90.7002L90.8002 362.456H83.1002L82.4002 361.842L84.1002 360.513L81.3002 360.309V358.366L81.7002 357.242H79.6002L79.2002 354.686L81.6002 352.641L79.5002 351.721L78.8002 350.187L80.2002 349.573L78.1002 348.653L78.0002 347.222L78.8002 346.097L76.6002 345.177L74.9002 343.643L74.4002 345.893L73.4002 348.756L71.6002 348.551V351.618L70.0002 352.743L70.2002 354.686L69.0002 356.015L69.4002 358.06L66.9002 358.98L66.0002 356.117L66.6002 354.686L64.6002 353.868L65.6002 352.129L64.4002 351.414L64.2002 347.733L62.7002 346.506L63.7002 344.359L61.7002 344.461V342.825L61.8002 341.19L60.0002 339.963L61.5002 337.304L59.7002 336.282L60.0002 334.237L58.2002 333.624L58.7002 331.988L57.1002 330.761L54.9002 328.818L54.3002 332.499L52.3002 333.521L53.2002 335.055L52.3002 336.793H50.8002L52.1002 339.758L50.7002 338.736L49.8002 339.963L49.3002 342.519L49.1002 345.995L48.9002 344.359L47.2002 344.155L46.6002 342.621L45.1002 343.439L43.6002 344.973L43.0002 346.506H41.5002L41.8002 348.858L42.8002 351.414L41.6002 353.05L43.1002 354.788L43.0002 357.957L40.7002 356.424V354.583L39.8002 353.356L39.4002 352.129L39.8002 350.187L38.5002 349.164L38.0002 347.733L38.8002 346.506L37.3002 345.586L37.7002 344.359L35.9002 343.132L34.8002 341.496L33.9002 343.541L32.6002 345.177L31.3002 346.506L30.9002 348.347L29.8002 349.778L30.6002 351.209V352.436L29.2002 353.459L28.6002 355.094L29.2002 357.957L26.6002 357.855V356.117L25.6002 353.868L23.5002 352.845L23.1002 355.401L22.0002 355.094L21.2002 356.526L19.6002 357.242L20.6002 358.468L19.8002 359.9L19.6002 357.242L20.1002 353.868L17.6002 351.107L18.1002 349.062L16.1002 348.449L13.8002 344.359L12.1002 347.835L12.3002 349.778L10.9002 351.107L11.5002 352.743L8.80023 354.788L7.60023 353.459L7.70023 351.312L6.30023 350.698L6.70023 349.573H4.20023L4.30023 347.733L2.50023 346.506L2.00023 347.631L1.50023 351.414L0.100232 352.334V352.436L-1.79977 351.516L-3.09977 347.631L-5.39977 344.359L-4.09977 342.212L-9 336.895V365.421V1833H402.7L405 345.893L404.5 346.506Z" fill="url(#paint4_linear_635_11655)"/>
<circle cx="223" cy="200" r="1" fill="#E3EDF5"/>
<circle cx="272.5" cy="253.5" r="1.5" fill="#E3EDF5"/>
<circle cx="32.5" cy="184.5" r="1.5" fill="#E3EDF5"/>
<circle cx="119.5" cy="279.5" r="1.5" fill="#E3EDF5"/>
<circle cx="11" cy="266" r="1" fill="#E3EDF5"/>
</g>
</g>
<defs>
<linearGradient id="paint0_linear_635_11655" x1="187.694" y1="333.206" x2="188.668" y2="143.711" gradientUnits="userSpaceOnUse">
<stop stop-color="#175B7C"/>
<stop offset="1"/>
</linearGradient>
<linearGradient id="paint1_linear_635_11655" x1="188.11" y1="346.067" x2="188.153" y2="301.217" gradientUnits="userSpaceOnUse">
<stop stop-color="#ABC7E0"/>
<stop offset="1" stop-color="#8AB2D3"/>
</linearGradient>
<linearGradient id="paint2_linear_635_11655" x1="188.036" y1="382.782" x2="188.182" y2="335.35" gradientUnits="userSpaceOnUse">
<stop offset="0.1417" stop-color="#80A5C1"/>
<stop offset="1" stop-color="#5281A4"/>
</linearGradient>
<linearGradient id="paint3_linear_635_11655" x1="641.202" y1="471" x2="636.867" y2="1113.31" gradientUnits="userSpaceOnUse">
<stop offset="0.4375" stop-color="#145A75"/>
<stop offset="1" stop-color="#F2F2F2"/>
</linearGradient>
<linearGradient id="paint4_linear_635_11655" x1="198" y1="589" x2="198" y2="812" gradientUnits="userSpaceOnUse">
<stop stop-color="#175B7C"/>
<stop offset="1" stop-color="#F2F2F2"/>
</linearGradient>
<clipPath id="clip0_635_11655">
<rect width="360" height="1158" fill="white"/>
</clipPath>
<clipPath id="clip1_635_11655">
<rect width="114" height="41" fill="white" transform="translate(246 14)"/>
</clipPath>
<clipPath id="clip2_635_11655">
<rect width="360" height="1024" fill="white" transform="translate(0 134)"/>
</clipPath>
</defs>
</svg>
