<svg width="12" height="12" viewBox="0 0 12 12" fill="none" xmlns="http://www.w3.org/2000/svg">
<path d="M0 6C0 7.5913 0.632141 9.11742 1.75736 10.2426C2.88258 11.3679 4.4087 12 6 12C7.5913 12 9.11742 11.3679 10.2426 10.2426C11.3679 9.11742 12 7.5913 12 6C12 4.4087 11.3679 2.88258 10.2426 1.75736C9.11742 0.632141 7.5913 0 6 0C4.4087 0 2.88258 0.632141 1.75736 1.75736C0.632141 2.88258 0 4.4087 0 6ZM6.90469 2.16641L10.2461 5.67656C10.3281 5.76562 10.375 5.88047 10.375 6C10.375 6.11953 10.3281 6.23672 10.2461 6.32344L6.90469 9.83359C6.80625 9.93906 6.66797 10 6.52266 10C6.23437 10 6 9.76563 6 9.47734V7.25195H2.75C2.33516 7.25195 2 7.28984 2 6.875V5.25195C2 4.83711 2.33516 4.87891 2.75 4.87891H6V2.52266C6 2.23438 6.23437 2 6.52266 2C6.66797 2 6.80625 2.06094 6.90469 2.16641Z" fill="#D75426"/>
</svg>
