<svg width="113" height="113" viewBox="0 0 113 113" fill="none" xmlns="http://www.w3.org/2000/svg">
<g filter="url(#filter0_d_391_9381)">
<circle cx="54.5" cy="54.5" r="46.5" fill="white"/>
</g>
<path d="M41.9231 28.1639C43.1218 29.2814 43.2187 31.1772 42.1411 32.4202L33.4232 42.4646C32.8904 43.0798 32.1397 43.4439 31.3405 43.4565C30.5414 43.469 29.7786 43.1551 29.2095 42.5776L24.3541 37.5554C23.2281 36.3752 23.2281 34.4668 24.3541 33.2866C25.4802 32.1064 27.3327 32.1064 28.4588 33.2866L31.1347 36.0613L37.8063 28.3774C38.8839 27.1344 40.7123 27.034 41.911 28.1514L41.9231 28.1639ZM41.9231 48.2526C43.1218 49.3701 43.2187 51.266 42.1411 52.5089L33.4232 62.5533C32.8904 63.1685 32.1397 63.5326 31.3405 63.5452C30.5414 63.5577 29.7786 63.2438 29.2095 62.6663L24.3541 57.6441C23.2159 56.4639 23.2159 54.5555 24.3541 53.3878C25.4923 52.2202 27.3327 52.2076 28.4588 53.3878L31.1347 56.1626L37.8063 48.4786C38.8839 47.2357 40.7123 47.1352 41.911 48.2526H41.9231ZM50.6289 35.421C50.6289 33.1987 52.3604 31.4032 54.5035 31.4032H81.6259C83.769 31.4032 85.5005 33.1987 85.5005 35.421C85.5005 37.6433 83.769 39.4387 81.6259 39.4387H54.5035C52.3604 39.4387 50.6289 37.6433 50.6289 35.421ZM50.6289 55.5097C50.6289 53.2874 52.3604 51.4919 54.5035 51.4919H81.6259C83.769 51.4919 85.5005 53.2874 85.5005 55.5097C85.5005 57.732 83.769 59.5274 81.6259 59.5274H54.5035C52.3604 59.5274 50.6289 57.732 50.6289 55.5097ZM42.8797 75.5984C42.8797 73.3761 44.6111 71.5806 46.7543 71.5806H81.6259C83.769 71.5806 85.5005 73.3761 85.5005 75.5984C85.5005 77.8207 83.769 79.6161 81.6259 79.6161H46.7543C44.6111 79.6161 42.8797 77.8207 42.8797 75.5984ZM29.3185 69.5718C30.8599 69.5718 32.3382 70.2067 33.4281 71.3369C34.5181 72.4671 35.1304 74 35.1304 75.5984C35.1304 77.1967 34.5181 78.7296 33.4281 79.8598C32.3382 80.9901 30.8599 81.625 29.3185 81.625C27.7771 81.625 26.2988 80.9901 25.2088 79.8598C24.1189 78.7296 23.5065 77.1967 23.5065 75.5984C23.5065 74 24.1189 72.4671 25.2088 71.3369C26.2988 70.2067 27.7771 69.5718 29.3185 69.5718Z" fill="#F58000"/>
<defs>
<filter id="filter0_d_391_9381" x="0" y="0" width="113" height="113" filterUnits="userSpaceOnUse" color-interpolation-filters="sRGB">
<feFlood flood-opacity="0" result="BackgroundImageFix"/>
<feColorMatrix in="SourceAlpha" type="matrix" values="0 0 0 0 0 0 0 0 0 0 0 0 0 0 0 0 0 0 127 0" result="hardAlpha"/>
<feOffset dx="2" dy="2"/>
<feGaussianBlur stdDeviation="5"/>
<feComposite in2="hardAlpha" operator="out"/>
<feColorMatrix type="matrix" values="0 0 0 0 0 0 0 0 0 0 0 0 0 0 0 0 0 0 0.1 0"/>
<feBlend mode="normal" in2="BackgroundImageFix" result="effect1_dropShadow_391_9381"/>
<feBlend mode="normal" in="SourceGraphic" in2="effect1_dropShadow_391_9381" result="shape"/>
</filter>
</defs>
</svg>
