<svg width="113" height="114" viewBox="0 0 113 114" fill="none" xmlns="http://www.w3.org/2000/svg">
<g filter="url(#filter0_d_391_9387)">
<circle cx="54.5" cy="55" r="46.5" fill="white"/>
</g>
<path d="M52.5619 30.7815C52.5619 29.2399 53.174 27.7614 54.2635 26.6713C55.353 25.5812 56.8307 24.9688 58.3715 24.9688C59.9123 24.9688 61.39 25.5812 62.4795 26.6713C63.569 27.7614 64.1811 29.2399 64.1811 30.7815C64.1811 32.3232 63.569 33.8017 62.4795 34.8918C61.39 35.9819 59.9123 36.5943 58.3715 36.5943C56.8307 36.5943 55.353 35.9819 54.2635 34.8918C53.174 33.8017 52.5619 32.3232 52.5619 30.7815ZM48.5073 49.1039C48.3863 49.1524 48.2773 49.2008 48.1563 49.2492L47.188 49.6731C45.2031 50.5571 43.6781 52.2404 42.9882 54.2991L42.6735 55.2437C41.9957 57.2781 39.805 58.368 37.7716 57.6899C35.7383 57.0117 34.649 54.8198 35.3268 52.7853L35.6415 51.8408C37.0212 47.7113 40.0713 44.3447 44.0412 42.5766L45.0094 42.1528C47.5269 41.0387 50.2502 40.4574 53.0097 40.4574C58.4078 40.4574 63.2734 43.7029 65.343 48.6801L67.207 53.1486L69.7971 54.4444C71.7094 55.4011 72.484 57.7262 71.5278 59.6396C70.5717 61.553 68.2478 62.328 66.3355 61.3713L63.0918 59.7607C61.8452 59.131 60.8648 58.0895 60.3323 56.7937L59.1703 54.0084L56.8344 61.9405L62.8255 68.4799C63.4791 69.1943 63.9391 70.0542 64.1811 70.9987L66.9649 82.152C67.4853 84.2228 66.2266 86.3299 64.1448 86.8507C62.063 87.3714 59.9692 86.112 59.4487 84.0291L56.786 73.3602L48.2289 64.0234C46.4376 62.0737 45.7719 59.3489 46.4497 56.7937L48.4952 49.1039H48.5073ZM41.5116 73.1664L44.5374 65.6098C44.7916 65.9731 45.0821 66.3122 45.3846 66.6513L50.3107 72.0281L48.5557 76.4119C48.2652 77.1385 47.8295 77.8045 47.2728 78.3616L39.805 85.8334C38.2921 87.3472 35.8351 87.3472 34.3222 85.8334C32.8093 84.3197 32.8093 81.8614 34.3222 80.3476L41.5116 73.1664Z" fill="#F58000"/>
<defs>
<filter id="filter0_d_391_9387" x="0" y="0.5" width="113" height="113" filterUnits="userSpaceOnUse" color-interpolation-filters="sRGB">
<feFlood flood-opacity="0" result="BackgroundImageFix"/>
<feColorMatrix in="SourceAlpha" type="matrix" values="0 0 0 0 0 0 0 0 0 0 0 0 0 0 0 0 0 0 127 0" result="hardAlpha"/>
<feOffset dx="2" dy="2"/>
<feGaussianBlur stdDeviation="5"/>
<feComposite in2="hardAlpha" operator="out"/>
<feColorMatrix type="matrix" values="0 0 0 0 0 0 0 0 0 0 0 0 0 0 0 0 0 0 0.1 0"/>
<feBlend mode="normal" in2="BackgroundImageFix" result="effect1_dropShadow_391_9387"/>
<feBlend mode="normal" in="SourceGraphic" in2="effect1_dropShadow_391_9387" result="shape"/>
</filter>
</defs>
</svg>
