<?xml version="1.0" encoding="utf-8"?>
<!-- Generator: Adobe Illustrator 25.4.1, SVG Export Plug-In . SVG Version: 6.00 Build 0)  -->
<svg version="1.1" id="Layer_1" xmlns="http://www.w3.org/2000/svg" xmlns:xlink="http://www.w3.org/1999/xlink" x="0px" y="0px"
	 viewBox="0 0 40 40" style="enable-background:new 0 0 40 40;" xml:space="preserve">
<style type="text/css">
	.st0{fill:#F5F6FB;}
	.st1{fill:#D75527;}
</style>
<path class="st0" d="M31.4,40H8.6C3.8,40,0,36.2,0,31.4V8.6C0,3.8,3.8,0,8.6,0h22.8C36.2,0,40,3.8,40,8.6v22.8
	C40,36.2,36.2,40,31.4,40z"/>
<path class="st1" d="M33.8,31.5l-2.2,2.2l-9.9-9.8l2.2-2.2L33.8,31.5z M21.7,6.3c-2,0-4.1,0.4-5.9,1.2c-1.9,0.8-3.6,1.9-5,3.4
	c-2.9,2.9-4.5,6.8-4.5,10.8c0,4.1,1.6,8,4.5,10.8l22-21.7c-1.4-1.4-3.2-2.6-5-3.4C25.8,6.7,23.7,6.3,21.7,6.3z M10.9,28
	c-1.1-1.9-1.7-4.1-1.7-6.3c0-1.4,0.2-2.8,0.7-4.1c0.3,3,1.4,5.8,3.2,8.3L10.9,28z M15.3,23.7c-1-1.5-1.8-3.2-2.1-5
	c-0.4-1.8-0.4-3.6,0-5.4c0.9-0.2,1.8-0.3,2.7-0.3c2.8,0,5.5,0.9,7.8,2.4L15.3,23.7z M17.6,10c1.3-0.4,2.7-0.7,4.1-0.7
	c2.2,0,4.5,0.6,6.4,1.7l-2.1,2.1C23.5,11.5,20.6,10.4,17.6,10L17.6,10z"/>
</svg>
