<svg width="205" height="162" viewBox="0 0 205 162" fill="none" xmlns="http://www.w3.org/2000/svg">
    <path d="m.398 161.856 115.371-.027c.22 0 .398-.169.398-.378a.387.387 0 0 0-.376-.378l-.022-.001-115.372.027c-.22 0-.397.17-.397.379 0 .202.166.367.376.378h.022z" fill="#090E2B"/>
    <path fill-rule="evenodd" clip-rule="evenodd" d="M167.219 56.831H91.766c-.96 0-1.738-.74-1.738-1.655V4.413c0-.914.778-1.655 1.738-1.655h75.453c.96 0 1.738.741 1.738 1.655v50.763c0 .914-.778 1.655-1.738 1.655z" fill="#090E2B"/>
    <path fill-rule="evenodd" clip-rule="evenodd" d="M164.022 54.293H88.569c-.96 0-1.738-.74-1.738-1.655V1.875c0-.914.778-1.655 1.737-1.655h75.454c.96 0 1.737.741 1.737 1.655v50.763c0 .914-.777 1.655-1.737 1.655z" fill="#fff"/>
    <path d="M164.025 0H88.571c-1.084 0-1.962.838-1.962 1.87v50.763c0 1.033.878 1.87 1.962 1.87h75.454c1.084 0 1.963-.837 1.963-1.87V1.871c0-1.033-.879-1.871-1.963-1.871zM88.571.43h75.454c.835 0 1.512.645 1.512 1.44v50.763c0 .796-.677 1.44-1.512 1.44H88.571c-.835 0-1.511-.644-1.511-1.44V1.871c0-.796.676-1.441 1.511-1.441z" fill="#090E2B"/>
    <path fill-rule="evenodd" clip-rule="evenodd" d="M133.001 26.649h-31.526c-2.793 0-5.058-2.158-5.058-4.82 0-2.66 2.264-4.818 5.058-4.818h31.526c2.793 0 5.057 2.157 5.057 4.819 0 2.661-2.264 4.819-5.057 4.819z" fill="#F58000"/>
    <path fill-rule="evenodd" clip-rule="evenodd" d="M150.83 26.516c-2.793 0-5.057-2.157-5.057-4.82 0-2.66 2.264-4.818 5.057-4.818 2.793 0 5.058 2.158 5.058 4.819 0 2.662-2.265 4.82-5.058 4.82z" fill="#C7D2F2"/>
    <path d="M160.982 3.937a.35.35 0 0 1 .478 0 .311.311 0 0 1 .012.444l-.012.012-3.157 3.008a.35.35 0 0 1-.478 0 .311.311 0 0 1-.012-.443l.012-.012 3.157-3.009z" fill="#000"/>
    <path d="M157.825 3.937a.35.35 0 0 1 .466-.011l.012.011 3.157 3.009a.312.312 0 0 1 0 .455.35.35 0 0 1-.465.012l-.013-.012-3.157-3.008a.312.312 0 0 1 0-.456z" fill="#000"/>
    <path d="M141.275 32.77c.747 0 1.353.577 1.353 1.289 0 .704-.593 1.276-1.329 1.289H97.77c-.747 0-1.353-.577-1.353-1.29 0-.703.593-1.276 1.328-1.288h43.53zM122.618 40.433c.747 0 1.353.577 1.353 1.289 0 .704-.593 1.276-1.328 1.289H97.77c-.747 0-1.353-.577-1.353-1.29 0-.703.593-1.275 1.328-1.288H122.618z" fill="#C7D2F2"/>
    <path d="M200.189 41.473h-58.257c-2.657 0-4.811 2.052-4.811 4.584v38.392c0 2.532 2.154 4.584 4.811 4.584h58.257c2.657 0 4.81-2.052 4.81-4.584V46.057c0-2.532-2.153-4.584-4.81-4.584z" fill="#090E2B"/>
    <path d="M196.806 39.113h-58.257c-2.657 0-4.811 2.053-4.811 4.584V82.09c0 2.532 2.154 4.585 4.811 4.585h58.257c2.657 0 4.811-2.053 4.811-4.585V43.697c0-2.531-2.154-4.584-4.811-4.584z" fill="#fff"/>
    <path d="M196.809 38.894h-58.257c-2.782 0-5.036 2.148-5.036 4.799v38.392c0 2.65 2.254 4.799 5.036 4.799h58.257c2.781 0 5.036-2.149 5.036-4.8V43.694c0-2.65-2.255-4.8-5.036-4.8zm-58.257.43h58.257c2.532 0 4.585 1.956 4.585 4.369v38.392c0 2.413-2.053 4.369-4.585 4.369h-58.257c-2.532 0-4.585-1.956-4.585-4.37V43.694c0-2.413 2.053-4.37 4.585-4.37z" fill="#090E2B"/>
    <path d="M184.151 52.938c3.861-.904 7.442 3.213 10.88 12.167a.424.424 0 0 1-.268.551.458.458 0 0 1-.579-.255c-3.289-8.565-6.607-12.38-9.818-11.629-1.765.413-3.23 1.476-4.586 3.21l-.093.12c-.959 1.245-1.671 2.486-3.045 5.165l-.469.914c-1.401 2.723-2.129 3.97-3.174 5.292-1.494 1.89-3.156 3.063-5.191 3.493-1.452.308-2.635-.25-3.634-1.534l-.03-.04c-.726-.947-1.247-2.024-2.165-4.27l-.284-.696c-.876-2.14-1.39-3.205-2.073-4.139-.863-1.178-1.793-1.731-2.932-1.666-4.19.242-8.703 4.742-13.455 13.555a.462.462 0 0 1-.607.186.42.42 0 0 1-.195-.578c4.885-9.063 9.591-13.755 14.202-14.02 1.481-.086 2.676.615 3.695 1.99l.031.041c.723.988 1.25 2.068 2.118 4.182l.393.962c.847 2.064 1.34 3.078 1.98 3.92l.02.027c.812 1.06 1.666 1.469 2.741 1.241 1.801-.38 3.291-1.432 4.666-3.171l.094-.121c.962-1.236 1.676-2.475 3.038-5.125l.467-.912c1.399-2.723 2.124-3.975 3.146-5.289l.033-.042c1.472-1.88 3.102-3.063 5.094-3.53z" fill="#F58000"/>
    <path d="M192.257 53.816a.454.454 0 0 1 .551-.307c.24.06.385.295.322.525-2.797 10.187-6.391 14.97-10.915 14.146-1.958-.357-3.327-.291-4.344.136-.783.33-1.33.822-2.099 1.797l-.089.113-.458.596c-.197.256-.355.455-.517.65-.677.812-1.344 1.434-2.179 1.972-1.01.65-2.219 1.134-3.709 1.45-1.372.29-2.549.142-3.636-.398-.81-.401-1.452-.92-2.461-1.902l-.472-.463c-1.016-1-1.606-1.5-2.345-1.922-.941-.537-1.942-.783-3.132-.714-4.294.247-8.844 2.267-13.65 6.077a.466.466 0 0 1-.635-.056.417.417 0 0 1 .058-.605c4.942-3.918 9.666-6.015 14.173-6.274 1.375-.08 2.556.211 3.649.835l.074.042c.767.448 1.38.967 2.361 1.926l.473.464.087.085c.947.923 1.534 1.396 2.236 1.745.9.446 1.86.567 3.025.32 1.381-.292 2.485-.733 3.399-1.322.751-.483 1.354-1.046 1.977-1.794l.082-.1c.109-.133.221-.273.35-.44l.511-.664.032-.042c.892-1.146 1.547-1.748 2.531-2.162 1.206-.507 2.754-.582 4.878-.195 3.851.703 7.186-3.736 9.872-13.519z" fill="#009BA0"/>
    <path d="M185.345 55.082c1.058 0 1.916-.818 1.916-1.827s-.858-1.826-1.916-1.826c-1.059 0-1.917.817-1.917 1.826 0 1.009.858 1.827 1.917 1.827z" fill="#FF0057"/>
    <path d="M193.797 78.002h-53.295v.147h53.295v-.147z" fill="#C7D2F2"/>
    <g clip-path="url(#th9wstamta)" fill-rule="evenodd" clip-rule="evenodd">
        <path d="M50.005 94.927c0 .03-.025.053-.054.053l-6.828.037-.889.006a.054.054 0 0 1-.055-.053c0-.028.025-.052.053-.052l.883-.006 6.834-.037c.031 0 .054.024.056.052zM33.96 136.293v.001c-.004.022-.01.04-.013.06a18.016 18.016 0 0 1-1.707-.258 17.45 17.45 0 0 1-1.965-.485c.678.049 1.346.16 2.01.286.562.112 1.122.234 1.675.396zM29.433 155.861v.002c-.006.033-.014.062-.021.093l-.042.002-.906.029a68.5 68.5 0 0 1-1.813.024c-.604-.004-1.209-.006-1.81-.024-.115-.003-.23-.005-.344-.009l.014-.139.33-.009a57.49 57.49 0 0 1 1.81-.023c.605.001 1.209.003 1.813.023l.906.028c.02.002.042.002.063.003zM43.303 97.447v4.068c0 .027-.025.051-.055.051-.004 0-.006 0-.01-.002l-.976 1.474-1.277 5.594c-.004-.1-.01-.197-.015-.295l1.239-5.317.004-.008.993-1.468a.042.042 0 0 1-.011-.029v-4.068c0-.029.024-.05.053-.05.015 0 .03.005.042.016.008.009.013.02.013.034z" fill="#975445"/>
        <path d="M47.528 95.51v.003a.104.104 0 0 1-.107.1h-3.574v.686h.402c.059 0 .107.046.107.104a.104.104 0 0 1-.107.102h-1.022c-.057-.004-.101-.047-.101-.102 0-.05.036-.093.086-.102.006-.002.013-.002.02-.002h.401v-.788c0-.056.048-.102.107-.102h3.681c.06 0 .107.046.107.102z" fill="#EDFBFB"/>
        <path d="M48.977 95.513v1.784h-1.45v-.002a.104.104 0 0 0-.106-.102h-3.574v-.688h.402c.059 0 .107-.046.107-.102a.105.105 0 0 0-.107-.104h-.402v-.686h3.574a.104.104 0 0 0 .107-.1h1.449zM49.038 134.611c-.465.157-.936.291-1.41.424-.47.132-.947.25-1.423.368-.477.113-.953.226-1.436.322l-.72.145c-.244.042-.485.091-.728.126.232-.08.466-.147.7-.222l.708-.2c.471-.134.948-.252 1.424-.369.477-.112.953-.225 1.436-.323.48-.1.962-.196 1.449-.271zM50.595 118.486c-.088 2.791-.17 5.058-.242 6.292l.194-5.223.048-1.069z" fill="#975445"/>
        <path d="M49.002 155.27v.001c-.065 1.321-.105 2.119-.11 2.259l-.075.021h-5.616l-.113-2.238.261.011.42.011c.086.002.17.005.255.005.519.015 1.04.017 1.558.019a68.356 68.356 0 0 0 1.81-.024l.908-.027.292-.017c.135-.005.273-.012.41-.021z" fill="#0097A9"/>
        <path d="M48.596 155.222c0 .023-.002.045-.004.069l-.292.016-.907.028a68.35 68.35 0 0 1-1.812.024c-.518-.002-1.039-.004-1.557-.019-.086 0-.17-.003-.255-.005l-.42-.011-.007-.133c.142-.006.284-.009.427-.013.25-.007.5-.013.75-.016a68.35 68.35 0 0 1 2.873.016l.908.027.296.017z" fill="#975445"/>
        <path d="m29.777 155.878-.002.058c-.122.005-.242.011-.364.018l-.042.002-.906.029c-.604.018-1.208.022-1.813.024-.604-.004-1.208-.006-1.81-.024-.115-.003-.23-.005-.344-.009a42.453 42.453 0 0 1-.513-.018l-.005-.102c.177-.008.354-.013.532-.018l.33-.01c.602-.02 1.206-.021 1.81-.023.605.002 1.209.003 1.813.023l.906.028.063.003c.114.008.23.013.345.019zM24.162 160.382c-.003-.159-.037-.913-.098-2.152v-.603l5.613-.14-.084.625-.315.093h-.002l-.756.222c-.058.016-.09.072-.073.125a.108.108 0 0 0 .103.073c.011 0 .021 0 .032-.006l1.045-.305.343-.1.965.303-.34.1h-.002l-1.162.34a.102.102 0 0 0-.07.129c.01.042.055.071.102.071.008 0 .02 0 .029-.004l1.453-.425.343-.1 5.15 1.615c.237.106.155.446-.106.438l-12.17-.299z" fill="#2A4D52"/>
        <path d="m29.593 157.5.083-.025a.272.272 0 0 0-.006.023l-.078.002zM29.97 157.603l-.271-.084c0-.011 0-.027-.002-.049l-.02.005.028-.133.002-.007a5.88 5.88 0 0 0-.006.182l.27.086z" fill="#2A4D52"/>
        <path d="m29.97 157.602-.343.1-1.045.305c-.011.006-.02.006-.032.006a.106.106 0 0 1-.103-.073c-.017-.052.015-.109.072-.125l.757-.222h.002l.315-.092.078-.002a.19.19 0 0 1 .006-.024l.02-.005a.53.53 0 0 1 .002.049l.271.083z" fill="#EDFBFB"/>
        <path d="M29.676 157.475a.202.202 0 0 0-.006.023l-.078.002.084-.025zM31.288 158.016l-.343.1-1.453.425c-.01.004-.021.004-.029.004-.047 0-.091-.029-.103-.071a.102.102 0 0 1 .07-.129l1.164-.34h.002l.339-.1.353.111z" fill="#EDFBFB"/>
        <path d="M43.366 160.381c-.002-.161-.07-1.549-.131-2.83h5.624c-.005 0-.042.612-.042.612l-.225.065-.675.198c-.059.017-.09.073-.073.126a.106.106 0 0 0 .103.073c.01 0 .021 0 .031-.006l.959-.28h.004l.326-.096h.002l.964.303-.326.095h-.002l-1.079.316a.103.103 0 0 0-.07.129.106.106 0 0 0 .103.071c.01 0 .019 0 .03-.004l1.37-.401.329-.097h.002l5.054 1.588c.238.106.154.445-.107.438l-12.17-.3z" fill="#2A4D52"/>
        <path d="m48.817 157.552.075-.022-.002.022h-.073zM49.06 154.476l-.041.768c0 .009 0 .018-.002.026a213.835 213.835 0 0 0-.11 2.247l.013.004-.029.009.11-2.259v-.001c-.136.009-.274.016-.41.021l-.29.017-.909.027a68.35 68.35 0 0 1-1.81.024c-.52-.002-1.04-.004-1.558-.019.16-.061.326-.121.496-.178l1.061-.007a68.35 68.35 0 0 1 1.811.024l.908.027.296.016c.135.006.27.013.407.022l.037-.767v-.001h.02z" fill="#2A4D52"/>
        <path d="m49.267 157.631-.326.097h-.004l-.959.279c-.01.006-.02.006-.03.006a.105.105 0 0 1-.103-.073c-.017-.052.013-.109.072-.125l.675-.198.225-.066h.073l.001-.021.03-.009.346.11z" fill="#EDFBFB"/>
        <path d="m48.892 157.53-.002.022h-.073l.075-.022zM50.588 158.044l-.328.096h-.002l-1.369.401c-.012.004-.021.004-.03.004a.107.107 0 0 1-.103-.071.104.104 0 0 1 .07-.129l1.08-.316h.001l.326-.094h.002l.353.109z" fill="#EDFBFB"/>
        <path d="M50.005 94.927c0 .03-.025.053-.054.053l-6.828.037-.889.006a.054.054 0 0 1-.055-.053c0-.028.025-.052.053-.052l.883-.006 6.834-.037c.031 0 .054.024.056.052zM49.038 134.611c-.465.157-.936.291-1.41.424-.47.132-.947.25-1.423.368-.477.113-.953.226-1.436.322l-.72.145c-.244.042-.485.091-.728.126.232-.08.466-.147.7-.222l.708-.2c.471-.134.948-.252 1.424-.369.477-.112.953-.225 1.436-.323.48-.1.962-.196 1.449-.271zM43.303 97.447v4.068c0 .027-.025.051-.055.051-.004 0-.006 0-.01-.002l-.976 1.474-1.277 5.594v.005l-.214.932-.015-.314v-.006l.214-.912 1.239-5.317.003-.008.994-1.468a.043.043 0 0 1-.012-.029v-4.068c0-.029.025-.05.054-.05.015 0 .03.005.042.016.007.009.013.02.013.034zM48.892 157.53l-.002.022h-.073l.075-.022zM49.004 155.244l-.002.025a14.39 14.39 0 0 1-.41.022l-.292.016-.907.028c-.605.018-1.207.022-1.811.024-.519-.002-1.04-.004-1.558-.019-.086 0-.17-.003-.255-.005l-.42-.011-.26-.011-.007-.113c.086-.004.174-.007.26-.009.143-.006.284-.009.427-.013.25-.007.5-.013.75-.016a68.362 68.362 0 0 1 2.873.016l.908.027.296.017c.135.005.27.013.408.022zM51.055 108.467c-.242 6.795-.582 14.861-.917 22.472l.042-1.473.122-3.303.046-1.269.004-.087.001-.029.193-5.223.047-1.068.002-.051.248-5.487.149-3.305.063-1.177zM48.977 95.513v1.784h-1.45v-.002a.104.104 0 0 0-.106-.102h-3.574v-.688h.402c.059 0 .107-.046.107-.102a.105.105 0 0 0-.107-.104h-.402v-.686h3.574a.104.104 0 0 0 .107-.1h1.449z" fill="#0097A9"/>
        <path d="m43.123 95.016-.889.005a.054.054 0 0 1-.055-.052c0-.028.025-.052.053-.052l.883-.006.008.105z" fill="#0097A9"/>
        <path d="M46.205 135.404c-.477.113-.954.226-1.436.322l-.72.145c-.245.042-.485.091-.729.126.233-.08.467-.148.702-.222l.707-.2c.471-.134.948-.252 1.424-.369.477-.112.953-.225 1.436-.323.48-.1.962-.196 1.449-.271-.466.156-.936.291-1.41.424-.47.132-.947.25-1.423.368zm-13.965.693a17.44 17.44 0 0 1-1.965-.486c.678.05 1.346.16 2.009.286.562.112 1.123.234 1.676.396v.002c.097.027.192.056.29.087a18.695 18.695 0 0 1-2.01-.285zm18.97-40.585c.024-.993-.068-1.825-.055-2.441H35.027c-.26-.036-.826.624-.826.624s-.806 1.818-.806 1.785c-1.03 2.562-2.37 7.534-3.311 13.052-.942 5.517-5.212 38.433-6.257 47.332l.15-.008.533-.018.33-.009a60.67 60.67 0 0 1 1.81-.024c.605.002 1.21.004 1.814.024l.905.027.063.004c.114.007.23.013.345.018.086.004.17.007.254.013l.995-4.415 1.582-6.926.934-4.082.294-1.288c2.251-9.891 6.935-29.611 6.935-29.611v.004c.75 14.781 1.934 38.188 2.31 45.627l.26-.009c.143-.005.284-.009.427-.012.25-.008.5-.013.751-.017l1.062-.007a64.33 64.33 0 0 1 1.811.024l.908.027.295.016c.136.006.271.013.408.022l.036-.767v-.002c.224-4.554.658-13.627 1.095-23.471l.002-.035.002-.03.041-1.474.123-3.303.045-1.268.004-.087.002-.029.193-5.224.047-1.068.002-.051.248-5.487.149-3.304.063-1.178v-.009c.156-4.416.27-8.295.318-11.16l-.162-1.784zM29.676 157.475a.202.202 0 0 0-.006.023l-.078.002.084-.025z" fill="#0097A9"/>
        <path d="m33.542 140.468-3.507 15.425c-.002.01-.004.021-.008.03-.029.128-.055.248-.082.36l.08-.36c-.082.004-.166.01-.25.013l-.364.018-.042.002-.905.029c-.605.018-1.209.022-1.813.024-.605-.004-1.209-.006-1.811-.024-.115-.003-.23-.005-.343-.009a42.453 42.453 0 0 1-.514-.018l-.165-.007c.004-.029.005-.058.01-.088.049-.001.099-.005.15-.007.177-.007.354-.012.532-.018l.33-.009a60.67 60.67 0 0 1 1.81-.024c.605.002 1.21.004 1.814.024l.905.027.063.004.345.018c.086.004.17.007.254.013l.995-4.415 1.582-6.926.934-4.082zM34.25 136.382a18.022 18.022 0 0 1-2.01-.286c-.661-.13-1.319-.278-1.965-.485.679.049 1.346.16 2.01.286.562.112 1.122.234 1.675.396v.001c.097.028.193.057.29.088z" fill="#0097A9"/>
        <path d="M35.8 93.695v1.784h-2.405c0 .033.787-1.784.787-1.784H35.8zM36.229 95.48h6.003v-1.784H36.23v1.784zM43.126 94.587c0 .054.044.098.1.101h.407v.792h-.972v-1.784h.972v.787h-.4c-.008 0-.016 0-.021.002a.103.103 0 0 0-.086.102z" fill="#672448"/>
        <path d="M47.528 95.478v.002a.104.104 0 0 1-.107.1h-3.68a.104.104 0 0 1-.108-.1v-.793h.214v.69h3.574c.06 0 .107.044.107.1z" fill="#EDFBFB"/>
        <path d="M48.977 93.695v1.784h-1.45v-.001a.104.104 0 0 0-.106-.102h-3.574v-.689h.402c.059 0 .107-.045.107-.101a.105.105 0 0 0-.107-.104h-.402v-.687h3.574a.104.104 0 0 0 .107-.1h1.449zM51.394 93.695c-.004.538-.011 1.136-.021 1.784h-1.967v-1.784h1.988z" fill="#672448"/>
        <path d="M50.005 94.927c0 .03-.025.053-.054.053l-6.828.037-.889.006a.054.054 0 0 1-.055-.053c0-.028.025-.052.053-.052l.883-.006 6.834-.037c.031 0 .054.024.056.052z" fill="#2A4D52"/>
        <path d="m30.025 155.924-.08.36-.103.456-.08.352-.05.218-.005.022v.003l-.002.008a9.37 9.37 0 0 1-.029.132l-.084.026-.492.011-4.766.101-.27.006-.442.009.196-1.677c.055.002.11.006.166.007.17.008.341.013.513.019l.343.009c.602.018 1.207.02 1.81.023a68.493 68.493 0 0 0 1.814-.023l.905-.029.042-.002c.122-.008.242-.013.364-.018.084-.004.168-.01.25-.013z" fill="#0097A9"/>
        <path d="M43.27 101.511c0 .005 0 .009-.005.013l-.026.04-.976 1.473-1.277 5.594v.005l-.214.932v.004l-1.668 7.311-3.18 13.848-3.216 13.84-1.611 6.919-1.047 4.402-.007.029-.33 1.388.05-.218.08-.353.102-.456.08-.359.006-.033.995-4.415 1.583-6.926.934-4.082.293-1.288 1.941-8.479 3.209-13.843 1.77-7.603v-.005l.214-.912 1.24-5.318c0-.002.001-.006.003-.007l.993-1.468.023-.033-.034-.218v-.236l.074.454z" fill="#2A4D52"/>
        <path d="M43.304 97.447v4.068c0 .027-.025.051-.055.051-.004 0-.006 0-.01-.002-.013-.002-.027-.009-.033-.02a.042.042 0 0 1-.011-.029v-4.068c0-.029.025-.05.054-.05.015 0 .03.005.042.016.008.009.013.02.013.034zM49.038 134.611c-.465.157-.936.291-1.41.424-.47.132-.947.25-1.423.368-.477.113-.953.226-1.436.322l-.72.145c-.244.042-.485.091-.728.126.232-.08.466-.147.7-.222l.708-.2c.471-.134.948-.252 1.424-.369.477-.112.953-.225 1.436-.323.48-.1.962-.196 1.449-.271zM34.25 136.382a18.022 18.022 0 0 1-2.01-.286c-.661-.13-1.319-.278-1.965-.485.679.049 1.346.16 2.01.286.562.112 1.122.234 1.675.396v.001c.097.028.193.057.29.088zM51.168 106.341l-.098 3.303-.12 3.305-.244 6.605-.297 6.608-.15 3.303-.174 3.305.05-1.766.001-.034.002-.031.042-1.474.122-3.303.046-1.268.004-.087.002-.029.192-5.224.048-1.068.002-.051.248-5.486.148-3.305.063-1.178v-.009l.113-2.116zM30.275 155.909c-.076.005-.154.011-.233.014l-.015.002h-.002l-.25.013-.363.018-.043.002-.905.029a68.5 68.5 0 0 1-1.813.024c-.604-.004-1.209-.006-1.811-.024-.114-.003-.229-.005-.343-.009a42.71 42.71 0 0 1-.513-.018c-.056-.002-.11-.006-.166-.007a29.504 29.504 0 0 1-.791-.044c.267-.018.534-.033.8-.044l.151-.007c.177-.008.355-.013.532-.019l.33-.009a57.49 57.49 0 0 1 1.81-.023c.605.001 1.21.003 1.814.023l.905.028.063.003c.115.008.231.013.346.019a10.386 10.386 0 0 1 .497.029zM49.206 155.256a3.99 3.99 0 0 1-.19.013c-.005 0-.009.002-.014 0-.138.009-.275.017-.41.022l-.292.016-.908.028c-.604.018-1.207.022-1.81.024-.52-.002-1.04-.004-1.558-.019-.086 0-.17-.003-.256-.005l-.42-.011-.26-.011a33.117 33.117 0 0 1-1.13-.057 35.512 35.512 0 0 1 1.383-.065c.143-.006.284-.009.427-.013.25-.007.5-.013.752-.016.352-.004.707-.006 1.061-.008.604.002 1.207.006 1.811.024l.908.027.295.017c.136.005.271.013.408.022h.016c.063.003.124.007.187.012z" fill="#2A4D52"/>
        <path d="M43.725 70.936c-.06-.03-.117-.064-.176-.095a2.262 2.262 0 0 1 0-.001l.176.096zM49.248 73.948s0 .004-.004.004v-.004h.004zM51.565 75.154a4.267 4.267 0 0 0-.117-.061l.03.014c.03.015.058.03.087.047zM57.617 77.821zM64.373 74.466a15.061 15.061 0 0 0-2.985.794c-.063.023-.172-.126-.096-.155a15.04 15.04 0 0 1 2.988-.792c.068-.01.168.142.093.153zM78.74 60.618l-.069.36c.025-.13.046-.25.07-.36zM81.499 55.76c-.45.85-.954 1.684-1.457 2.51a16.965 16.965 0 0 1-1.151 1.699c-.021.024-.056.17-.105.41h-5.979c.181-.962.414-1.914.77-2.844.511-1.34 1.13-2.76 2.357-3.652.048-.035.106-.071.166-.055.263.078.22.854.211 1.048a5.56 5.56 0 0 1-.18 1.062c-.112.446-.432 1.23-.186 1.675.235.428.7.24 1.188-.173.028-.024.055-.045.082-.07.002 0 .002-.003.002-.003.679-.601 1.376-1.584 1.542-1.905.65-1.258 1.424-2.14 1.733-1.979.183.096-.8 2.434-.99 3.034.06-.038.134-.104.218-.189a12.92 12.92 0 0 0 .656-.747c.604-.725 1.315-1.598 1.666-1.677.42-.1-.463 1.71-.543 1.855z" fill="#975445"/>
        <path d="M64.373 74.465a15.05 15.05 0 0 0-2.985.794c-.063.023-.172-.126-.095-.155.962-.365 1.963-.63 2.987-.792.068-.01.168.142.093.153zm-17.947 11.2a36.413 36.413 0 0 0 2.578 3.276 31.829 31.829 0 0 0 1.845 1.911c.378.358.765.707 1.161 1.045.054.045.054.124.01.125-.014.002-.033-.007-.058-.027l-.247-.214c-.052-.044-.101-.09-.153-.133a31.692 31.692 0 0 1-2.959-3.007 38.056 38.056 0 0 1-2.552-3.333 48.77 48.77 0 0 1-2.212-3.574l-1.946-3.737a109.278 109.278 0 0 1-1.754-3.834c-.015-.034-.008-.065.034-.067.042-.004.082.053.097.084.07.16.14.317.208.477.56 1.268 1.138 2.528 1.752 3.774.618 1.257 1.27 2.5 1.97 3.717a47.57 47.57 0 0 0 2.226 3.517zM42.96 98.087c.07-.005.165.147.093.154-.883.077-1.767.131-2.654.16a49.11 49.11 0 0 1-4.655-.058 49.382 49.382 0 0 1-4.66-.498c-.064-.009-.15-.167-.06-.152a49.742 49.742 0 0 0 11.936.394zm1.995-.115 3.897-.337c.069-.006.166.147.094.152l-3.897.34c-.07.005-.168-.147-.093-.154zM42.33 65.773c.054.118-4.663.314-4.617.142-2.665.305-4.478 1.246-5.696 4.97-.622 1.901.412 9.228 1.367 14.946.007-.06.015-.12.02-.18.067-.71-.001-1.42-.081-2.126-.33-2.87-.673-5.737-1.009-8.606-.013-.105.135-.01.143.054.189 1.62.38 3.238.568 4.857l.258 2.18c.084.721.179 1.442.245 2.166.044.49.065.984.025 1.475v.002a5.258 5.258 0 0 1-.09.663c-.127.643-.348 1.263-.58 1.875-1.036 2.738-2.085 5.468-3.127 8.203-.002.005-.006.009-.01.012 0 .002 0 .002-.002.002l-.425 1.777s14.82 1.89 21.371-.053l.196.146 2.025-2.283s.599-.955.486-.74l1.18-1.421c-.103-.067-.208-.135-.31-.204-.464-.307-.921-.623-1.37-.948a88.075 88.075 0 0 0-.861-4.404c.013.234.027.469.038.703.002.046-.053.031-.078.018a.136.136 0 0 1-.067-.107l-.034-.643a62.293 62.293 0 0 0-.055-.85v-.004c.028-1.101-.108-2.178-.124-2.353-.229-2.451-1.363-9.322-1.977-10.833-.09-.223-.13-.462-.2-.69-.393-1.294-.889-2.572-1.596-3.744-.69-1.15-1.592-2.181-2.73-2.952a.194.194 0 0 1-.063-.069c-.006-.013-.01-.025-.006-.038.012-.038.046-.04.078-.018.143.096.283.196.418.3.044.034.088.067.132.103.002 0 .003.002.005.004 1.028.816 1.84 1.853 2.467 2.972.677 1.205 1.152 2.5 1.531 3.814.038.132.076.263.11.396.218.78.403 1.57.57 2.361-.026-.25-.055-.5-.081-.752-.056-.496-.134-.99-.237-1.478.412.216.824.428 1.234.635.017.006.032.017.045.024l.033.014.03.015.086.046c.029.012.06.027.088.043l.204.1c.233.116.465.23.7.343.667.324 1.336.638 2.018.94l.37.163c.435.19.873.373 1.32.554a56.63 56.63 0 0 0 2.47.927c1.476.51 3.039.976 4.736 1.392 1.365.334 2.741.38 4.055.17 3.13-.497 5.904-2.429 7.29-5.328.377-.79.734-1.588 1.065-2.397.227-.558.443-1.117.643-1.682.152-.422.295-.847.43-1.272.508-1.597 1.032-4.36 1.41-6.433l.188-1.041.055-.3.008-.044c.012-.058.021-.116.032-.17.008-.048.018-.095.025-.14.025-.131.046-.251.069-.36.004-.027.01-.055.015-.08l.029-.145.002-.013h-5.979a50.418 50.418 0 0 0-.251 1.524c-.023.147-.044.294-.065.44a58.368 58.368 0 0 1-.355 2.167 6.965 6.965 0 0 1-.051.26 6.166 6.166 0 0 1-.056.26c-.017.082-.034.165-.055.247-.04.176-.082.352-.128.527-.592 2.271-1.244 5.596-3.202 7.33a4.793 4.793 0 0 1-.34.275c-.04.027-.078.056-.118.084a4.301 4.301 0 0 1-.774.425c-2.158.916-5.105.256-8.112-.987l-.171-.07c-.054-.022-.105-.046-.159-.066a39.382 39.382 0 0 1-1.794-.825 57.177 57.177 0 0 1-2.548-1.332 55.392 55.392 0 0 1-1.165-.652c-.229-.13-.454-.26-.675-.389l-.33-.192c-.05-.027-.099-.058-.147-.085-.038-.022-.074-.042-.108-.064H52.2c-1.43-.838-1.897-1.168-3.678-2.14-2.478-1.354-5.79-1.29-6.194-1.343z" fill="#2A4D52"/>
        <path d="M54.628 70.64a55.95 55.95 0 0 1-.818-.457c-.116-.065-.233-.13-.347-.196l.347.195c.269.152.542.305.818.457zM64.373 74.466a15.061 15.061 0 0 0-2.985.794c-.063.023-.172-.126-.096-.155a15.04 15.04 0 0 1 2.988-.792c.068-.01.168.142.093.153zM68.644 73.135zM33.552 85.65v.003c-.013.201-.04.401-.076.6-.004.021-.008.041-.014.063l-.051-.305a51.63 51.63 0 0 1-.029-.177v-.003c.008-.06.016-.12.021-.18.067-.71-.002-1.42-.082-2.126-.33-2.87-.673-5.737-1.008-8.606-.013-.105.135-.01.143.055.189 1.618.38 3.237.568 4.856l.257 2.18c.084.721.18 1.442.246 2.166.044.49.065.984.025 1.475zM44.118 93.46h-.15c-.38-.353-.744-.721-1.095-1.098-1.718-1.847-3.128-3.951-4.373-6.111a35.672 35.672 0 0 1-2.757-5.954 30.7 30.7 0 0 1-.673-2.15c-.736-2.648-1.18-5.364-1.624-8.07-.017-.103.133-.009.143.055.055.332.108.663.164.995.45 2.722.936 5.447 1.755 8.093.063.203.13.406.197.61.038.094.076.187.116.28l-.011.027c.764 2.22 1.782 4.355 2.978 6.393 1.203 2.052 2.556 4.043 4.196 5.802.362.388.74.766 1.134 1.128zM49.248 73.948s0 .004-.004.004v-.004h.004z" fill="#2A4D52"/>
        <path d="M49.248 73.948s0 .004-.004.004v-.004h.004zM52.02 92.024c-.013.002-.032-.008-.057-.028-.082-.07-.166-.142-.248-.215.101.082.204.162.306.243zM33.552 85.653a5.305 5.305 0 0 1-.09.663c-.127.644-.348 1.263-.58 1.875-1.036 2.738-2.085 5.469-3.127 8.203-.002.006-.006.01-.01.013l.282-1.177.023-.09c0-.001 0-.003.002-.005a23.71 23.71 0 0 1 .978-3.085l2.274-5.768.002-.004.105-.267.141-.358zM43.052 98.241c-.883.076-1.767.13-2.654.16a49.449 49.449 0 0 1-9.315-.556c-.064-.01-.15-.167-.06-.153a49.74 49.74 0 0 0 11.936.394c.07-.005.165.148.093.155zM48.945 97.788c-1.3.113-2.599.228-3.897.34-.07.006-.168-.147-.093-.154l3.896-.338c.069-.006.166.147.094.153zM49.829 96.81l-.133.096a12.188 12.188 0 0 1-1.276-.465c-1.67-.712-3.15-1.764-4.453-2.982a21.73 21.73 0 0 1-1.094-1.097c-1.718-1.848-3.129-3.951-4.374-6.112a35.684 35.684 0 0 1-2.757-5.953l.067-.16c.765 2.22 1.783 4.355 2.978 6.393 1.203 2.051 2.557 4.043 4.196 5.801.362.389.74.767 1.134 1.128 1.16 1.067 2.46 1.997 3.907 2.671a12.45 12.45 0 0 0 1.805.68zM51.448 97.875c-.006.004-.012.007-.017.007v-.001c0-.004.004-.006.005-.006h.012z" fill="#2A4D52"/>
        <path d="M57.665 99.193c.002-.002.005 0 .007 0 .164.1.313.212.465.323.15.113.286.236.427.358.285.24.566.483.847.727a.005.005 0 0 1 0 .007c0 .002-.004.002-.006 0-.3-.225-.596-.452-.892-.681-.149-.113-.301-.224-.442-.345-.14-.124-.28-.247-.406-.382a.005.005 0 0 1 0-.007zm4.19-.52c-.894-.826-1.842-1.608-2.787-2.382-.645-.528-2.814-1.4-4.07-2.187-.142-.09-.283-.178-.422-.269l-1.18 1.42a2.975 2.975 0 0 1-.158.279 4.46 4.46 0 0 1-1.045 1.17l-1.073 1.293c.106-.036.21-.074.31-.114v-.002c0-.004.004-.005.006-.005h.012c.644.012 1.283.06 1.921.127.323.034.641.078.961.141.082.019.159.031.248.068a.203.203 0 0 1 .042.027l.021.02.042.036.09.077.363.305 2.925 2.414c.002.002.002.008 0 .009-.002.004-.008.004-.01.002a519.1 519.1 0 0 1-1.593-1.25c1.586 1.437 3.088 2.34 3.387 2.031.165-.172-.074-.683-.585-1.349 1.121.95 2.134 1.475 2.39 1.204.17-.185-1.988-2.547-2.466-3.18l.013.004a72.306 72.306 0 0 1-.856-.654c-.148-.114-.3-.223-.442-.345-.14-.124-.28-.247-.406-.383-.002-.002 0-.004.002-.006 0-.002.004-.002.006 0 .164.098.314.211.465.324.148.112.286.236.427.358.28.236.556.474.833.715h.002c.782.251 3.357 2.139 4.058 2.07.536-.049-1.275-1.828-1.431-1.968z" fill="#975445"/>
        <path d="m55.136 98.676 2.925 2.415c.002.002.002.007 0 .009-.002.003-.008.003-.01.002a440.34 440.34 0 0 1-1.6-1.256l-.115-.105c-.567-.52-2.093-1.8-2.13-1.566a.327.327 0 0 0-.002.072c.042.758 2.341 2.42 2.18 3.105-.144.605-2.185-.697-4.075-2.04-.499-.354-.985-.709-1.424-1.034l.235-.281c.106-.037.21-.075.31-.115v-.002c0-.003.004-.005.006-.005h.012c.644.013 1.283.06 1.921.127.323.035.641.078.961.142.082.018.159.03.248.067a.2.2 0 0 1 .042.027l.02.02.043.037.09.076.363.305zM57.493 97.179c-.002-.002 0-.004.002-.006 0-.002.004-.002.006 0 .164.098.314.211.465.324.148.112.286.236.427.358.28.236.556.474.833.715l-.027-.009h-.002a72.885 72.885 0 0 1-.856-.654c-.148-.114-.3-.223-.442-.345-.14-.123-.28-.247-.406-.383zM59.41 100.6a.006.006 0 0 1 0 .008h-.005c-.3-.226-.597-.453-.892-.682-.149-.112-.301-.223-.442-.345-.14-.124-.28-.247-.406-.382a.005.005 0 0 1 0-.007c.002-.002.005 0 .007 0 .164.1.313.213.465.324.15.112.286.236.427.358.285.239.566.483.847.726z" fill="#975445"/>
        <path d="m35.704 79.83-.099-.249a35.127 35.127 0 0 1-.536-1.433c-.735-2.65-1.18-5.365-1.624-8.07-.017-.104.134-.01.143.054l.164.995c.45 2.722.936 5.447 1.756 8.093.063.203.13.406.196.61zM52.02 92.024c-.013.002-.032-.008-.057-.028-.082-.07-.166-.142-.248-.215.101.082.204.162.306.243zM49.829 96.81l-.133.097a12.188 12.188 0 0 1-1.276-.465l-.397-.311a12.45 12.45 0 0 0 1.805.68z" fill="#2A4D52"/>
        <path d="M42.866 65.803c.241.072 3.818 4.15 1.332 4.229-2.397.076-5.498-1.868-6.486-4.116 0 0 4.753-.233 5.154-.113z" fill="#975445"/>
        <path d="m52.02 92.023-.305-.241c-.052-.044-.101-.09-.153-.133a31.732 31.732 0 0 1-2.959-3.007 38.111 38.111 0 0 1-2.552-3.334 48.788 48.788 0 0 1-2.212-3.573 68.771 68.771 0 0 1-1.946-3.737 109.446 109.446 0 0 1-1.754-3.834c-.015-.035-.008-.065.034-.067.042-.004.082.053.098.083.068.16.139.318.207.478.56 1.268 1.139 2.527 1.752 3.774a64.8 64.8 0 0 0 1.97 3.717c.692 1.2 1.43 2.378 2.226 3.517a36.414 36.414 0 0 0 2.578 3.276 31.919 31.919 0 0 0 1.845 1.911c.378.358.765.707 1.161 1.045.054.046.054.124.01.125z" fill="#2A8C79"/>
        <path d="M52.02 92.024c-.013.002-.032-.008-.057-.028-.082-.07-.166-.142-.248-.215.101.082.204.162.306.243zM52.073 88.982c.002.045-.053.03-.078.018a.136.136 0 0 1-.067-.107l-.034-.643c-.017-.284-.035-.567-.055-.85v-.004a75.408 75.408 0 0 0-.43-4.348 75.427 75.427 0 0 0-.8-4.969v-.005l-.027-.137c-.244-1.248-.505-2.498-.844-3.728-.065-.23-.13-.461-.2-.69-.393-1.294-.889-2.57-1.596-3.743-.69-1.15-1.592-2.182-2.73-2.952a.193.193 0 0 1-.063-.07c-.006-.012-.01-.025-.006-.037.012-.038.046-.04.078-.018.143.096.283.196.418.3.043.034.087.067.131.103.002 0 .004.002.006.004 1.027.815 1.84 1.853 2.467 2.972.677 1.204 1.151 2.5 1.53 3.813a38.785 38.785 0 0 1 .68 2.758c.001.002.003.004.001.006.132.612.252 1.226.368 1.838.33 1.734.599 3.478.807 5.227.179 1.516.314 3.034.404 4.553.002.002.002.004.002.006l.038.703zM64.373 74.466a15.061 15.061 0 0 0-2.985.794c-.063.023-.172-.126-.096-.155a15.04 15.04 0 0 1 2.988-.792c.068-.01.168.142.093.153zM49.83 96.81l-.134.096a12.218 12.218 0 0 1-1.275-.465c-1.67-.712-3.15-1.764-4.454-2.981-.379-.353-.743-.721-1.094-1.098-1.718-1.847-3.128-3.951-4.373-6.111a35.672 35.672 0 0 1-2.757-5.954 30.7 30.7 0 0 1-.673-2.15c-.736-2.648-1.18-5.364-1.624-8.07-.017-.103.133-.009.143.055.055.332.108.663.164.995.45 2.722.936 5.447 1.755 8.093.063.203.13.406.197.61l.105.307c.764 2.22 1.782 4.355 2.978 6.393 1.203 2.052 2.556 4.043 4.196 5.802.362.388.74.766 1.134 1.128 1.159 1.066 2.46 1.997 3.906 2.67a12.45 12.45 0 0 0 1.805.68z" fill="#2A8C79"/>
        <path d="M53.867 93.743c-.002.06-.006.122-.015.184-.03.223-.105.454-.172.661a4.425 4.425 0 0 1-.442.945 4.461 4.461 0 0 1-1.045 1.17l-.04.032c-.248.191-.53.36-.844.424-.351.07-.708-.01-1.047-.095-.19-.049-.38-.101-.566-.158l.133-.096c.097.027.197.055.296.08.335.087.692.182 1.043.125.326-.054.611-.225.865-.42.496-.38.898-.859 1.188-1.393a4.32 4.32 0 0 0 .497-1.531.463.463 0 0 0-.31-.14c-.067-.006-.155-.162-.063-.155.184.015.526.153.522.367zM33.553 85.65v.003c-.013.201-.04.401-.076.6l-.013.063c-.128.643-.35 1.263-.582 1.875-1.035 2.738-2.084 5.468-3.126 8.203-.002.005-.006.009-.01.012 0 .002 0 .002-.002.002-.042.03-.148-.078-.126-.134l.433-1.134c0-.002 0-.004.002-.005l1.31-3.438c.512-1.34 1.043-2.678 1.532-4.028.164-.454.313-.917.41-1.388l.002-.003c.03-.148.057-.295.076-.444v-.003c.008-.06.016-.12.021-.18.067-.71-.001-1.42-.082-2.126-.33-2.87-.672-5.737-1.008-8.606-.013-.105.135-.01.143.055.189 1.618.38 3.237.568 4.856l.258 2.18c.084.721.179 1.442.245 2.166.044.49.065.984.025 1.475zM43.052 98.241c-.883.076-1.767.13-2.654.16a49.449 49.449 0 0 1-9.315-.556c-.064-.01-.15-.167-.06-.153a49.74 49.74 0 0 0 11.936.394c.07-.005.165.148.093.155zM48.945 97.788c-1.3.113-2.599.228-3.897.34-.07.006-.168-.147-.093-.154l3.896-.338c.069-.006.166.147.094.153z" fill="#2A8C79"/>
        <path d="M81.057 54.487c-.067.24-.22.445-.357.65-.142.205-.295.4-.443.6a31.01 31.01 0 0 0-.888 1.194c.11-.222.24-.434.376-.641.137-.207.287-.406.435-.606l.46-.586c.078-.097.154-.195.225-.296.072-.1.145-.2.192-.315zM78.941 55.3a4.393 4.393 0 0 1-.32.667 5.132 5.132 0 0 1-.421.617 3.808 3.808 0 0 1-.532.536c-.2.156-.422.29-.666.37.455-.23.816-.577 1.123-.961.159-.188.296-.393.433-.597.135-.206.263-.416.383-.632zM74.483 59.789c.218-.276.5-.499.796-.695.3-.194.623-.353.957-.487.334-.135.681-.24 1.036-.313.177-.035.357-.057.535-.083.18-.018.361-.027.541-.037.003 0 .005.002.005.004s-.002.005-.004.005c-.177.033-.355.061-.531.09-.175.04-.352.066-.525.11a8.931 8.931 0 0 0-1.028.291 5.565 5.565 0 0 0-.96.458c-.3.184-.588.396-.815.662-.001.002-.004.003-.006.002-.002-.002-.003-.005-.001-.007zM58.061 101.091c.002.002.002.007 0 .009-.002.003-.007.003-.01.002a440.305 440.305 0 0 1-2.983-2.35l-.371-.297-.092-.075-.048-.04-.023-.02s-.002-.002-.01-.003c-.058-.024-.142-.039-.218-.053l-.101-.017c-.28-.043-.568-.07-.852-.107-.64-.08-1.278-.154-1.916-.252-.004 0-.006-.002-.006-.006v-.002c0-.003.004-.005.006-.005h.011c.644.013 1.283.06 1.922.127.322.035.64.078.96.142.082.018.159.03.248.067a.2.2 0 0 1 .042.027l.021.02.042.037.09.076.364.305 2.924 2.415zM59.41 100.6a.006.006 0 0 1 0 .008h-.005c-.3-.226-.597-.453-.892-.682-.149-.112-.301-.223-.442-.345-.14-.124-.28-.247-.406-.382a.005.005 0 0 1 0-.007c.002-.002.005 0 .007 0 .164.1.313.213.465.324.15.112.286.236.427.358.285.239.566.483.847.726zM59.241 98.588c-.002.002-.005.002-.007 0l-.035-.027h-.001a72.908 72.908 0 0 1-.857-.654c-.148-.114-.3-.223-.442-.345-.14-.123-.28-.247-.406-.383-.002-.002 0-.004.002-.006 0-.002.004-.002.006 0 .164.098.314.211.465.324.148.112.286.236.427.358.28.236.556.474.833.715h.002l.011.011c.002.002.004.006.002.007z" fill="#672448"/>
        <path d="M49.731 56.725c-.071-.02-.37-.221-.171-.209.11.081.693.37.171.21zm-11.76-.374-.017.036c-.494-.377-1.206.26-.506.55l-.002.015c-.719-.254-.087-.976.471-.66.005-1.628-3.276-.83-1.712 1.236l-.011.01c-1.97-2.253 2.043-3.03 1.777-1.187zm12.694-.972c-1.646-2.169-.81-5.335-2.352-7.526-1.216.525-3.654.899-5.407.923.048 2.423-1.688 5.155-3.984 6.301-4.017-2.465-5.963 4.473-1.194 4.253.032.01 4.394 2.74 4.43 2.733v.007c1.55.703 3.567 1.87 5.244.796 1.769-1.394 2.823-3.822 2.716-5.977 1.093.322 1.355-.965.547-1.51z" fill="#975445"/>
        <path d="m37.971 56.351-.017.036c-.493-.377-1.206.26-.505.551l-.002.014c-.72-.253-.088-.976.471-.659.005-1.628-3.277-.83-1.712 1.235l-.011.01c-1.97-2.252 2.043-3.03 1.776-1.187zM42.157 62.063v.008c-1.188-.538-2.447-1.02-3.477-1.748 0 0-.004 0-.004-.002-.32-.29-.906-.552-.947-.99.031.01 4.393 2.74 4.428 2.732zM49.732 56.726c-.072-.021-.371-.222-.172-.21.11.081.693.37.172.21z" fill="#975445"/>
        <path d="M49.732 56.726c-.072-.021-.371-.222-.172-.21.11.081.693.37.172.21zM37.971 56.351l-.017.036c-.493-.377-1.206.26-.505.551l-.002.014c-.72-.253-.088-.976.471-.659.005-1.628-3.277-.83-1.712 1.235l-.011.01c-1.97-2.252 2.043-3.03 1.776-1.187z" fill="#672348"/>
        <path d="M48.41 47.814c-1.272.564-3.69.932-5.503.963.047 2.422-1.689 5.154-3.985 6.3-4.016-2.464-5.963 4.474-1.193 4.254v.161l-.04-.043c-7.31-.482-7.288-12.109-.298-13.21.942-.956 3.502-1.817 6.575-2.11 5.25-.635 8.728 1.522 4.444 3.685z" fill="#561D3E"/>
        <path d="m42.174 63.497-.019-1.434c-.027.008-4.401-2.725-4.426-2.732.036 1.721.121 5.452.192 7.133h4.292l-.039-2.967z" fill="#975445"/>
        <path d="M42.186 63.502c-.586-.221-2.372-2.009-3.506-3.179 0 0-.004 0-.004-.002-.53-.547-.91-.954-.947-.99.031.01 4.394 2.74 4.428 2.732.004.206.015 1.258.029 1.44z" fill="#84473D"/>
        <path d="M48 54.374c-.372-1.043-1.883-.966-2.468-.042-.194-1.487 2.49-1.317 2.469.042zM47.741 51.242c-.692-.152-1.648.21-2.026.77.519-1.935 3.106-1.2 2.026-.77zM47.575 59.097c-.57 0-1.13-.27-1.465-.766a.09.09 0 0 1 .027-.127.096.096 0 0 1 .132.026c.47.698 1.439.893 2.157.436a.097.097 0 0 1 .131.026.09.09 0 0 1-.027.128 1.777 1.777 0 0 1-.956.277zM47.55 53.276c-.081-.14-.236-.189-.312-.325.032-.167.569.401.313.325z" fill="#561D3E"/>
    </g>
    <defs>
        <clipPath id="th9wstamta">
            <path fill="#fff" transform="translate(21.877 42.962)" d="M0 0h60.759v119.038H0z"/>
        </clipPath>
    </defs>
</svg>
