<?xml version="1.0" encoding="utf-8"?>
<!-- Generator: Adobe Illustrator 25.4.1, SVG Export Plug-In . SVG Version: 6.00 Build 0)  -->
<svg version="1.1" id="Layer_1" xmlns="http://www.w3.org/2000/svg" xmlns:xlink="http://www.w3.org/1999/xlink" x="0px" y="0px"
	 viewBox="0 0 129 120" style="enable-background:new 0 0 129 120;" xml:space="preserve">
<style type="text/css">
	.st0{clip-path:url(#SVGID_00000094595474753982244530000016519822165133240238_);}
	.st1{fill:#F2F2F2;}
	.st2{fill:#145A7B;}
	.st3{fill:#8786FA;}
	.st4{opacity:0.8;fill:#9197FA;enable-background:new    ;}
	.st5{opacity:0.7;fill:#8786FA;enable-background:new    ;}
	.st6{opacity:0.4;fill:#8786FA;enable-background:new    ;}
	.st7{fill:#E66242;}
	.st8{fill:#FF7654;}
	.st9{fill:#C45438;}
	.st10{fill:#FFBB17;}
	.st11{fill:#FFA993;}
	.st12{fill:#34395B;}
	.st13{fill:#FF7D71;}
	.st14{fill:url(#SVGID_00000065789537019765461760000003207453223660766903_);}
	.st15{fill:#CCCCCC;}
	.st16{fill:#FF8F85;}
	.st17{fill:url(#SVGID_00000058556525202962620530000018269215987774593959_);}
	.st18{fill:url(#SVGID_00000055692931817659184450000012820307321033453713_);}
	.st19{fill:#634E96;}
	.st20{fill:#00A99D;}
	.st21{fill:#E6E6E6;}
	.st22{fill:#454A68;}
	.st23{fill:#EDEDED;}
	.st24{fill:url(#SVGID_00000137105280717514762550000011535880974527551418_);}
	.st25{fill:#561D3E;}
	.st26{fill:#FFAD98;}
	.st27{fill-rule:evenodd;clip-rule:evenodd;fill:#773830;}
	.st28{fill-rule:evenodd;clip-rule:evenodd;fill:#FFB29E;}
	.st29{fill-rule:evenodd;clip-rule:evenodd;fill:#561D3E;}
	.st30{fill-rule:evenodd;clip-rule:evenodd;fill:#FFA993;}
	.st31{fill-rule:evenodd;clip-rule:evenodd;fill:#FF8F85;}
	.st32{fill-rule:evenodd;clip-rule:evenodd;fill:#672448;}
</style>
<g>
	<defs>
		<rect id="SVGID_1_" width="129" height="120"/>
	</defs>
	<clipPath id="SVGID_00000142898729023592437330000011090377436517903241_">
		<use xlink:href="#SVGID_1_"  style="overflow:visible;"/>
	</clipPath>
	<g style="clip-path:url(#SVGID_00000142898729023592437330000011090377436517903241_);">
		<path class="st1" d="M108,1.1H24.7c-3.1,0-5.7,2.5-5.7,5.7v103.9c0,3.1,2.5,5.7,5.7,5.7H108c3.1,0,5.7-2.5,5.7-5.7V6.7
			C113.7,3.6,111.2,1.1,108,1.1z"/>
		<path class="st2" d="M48.3,0v4.1c0,2.2,2.5,4.1,5.7,4.1h24.8c3.1,0,5.7-1.8,5.7-4.1V0H48.3z"/>
		<path class="st3" d="M42.4,54.6c-0.9,1.7-2.1,2.6-3.5,2.6c-0.1,0-0.3,0-0.4,0c0.4-0.3,0.7-0.7,1-1.1c1-0.3,1.7-1.4,2-1.9
			c1-1.8,1.1-4,0.5-4.5c-0.2-0.2-0.6-0.1-0.9,0c0-0.4,0-0.8,0-1.1c0.8-0.2,1.3,0,1.6,0.3C43.8,49.9,43.5,52.7,42.4,54.6z"/>
		<path class="st3" d="M34.8,57.1c-0.1,0-0.3,0-0.4,0c-1.4,0-2.6-0.9-3.5-2.6c-1.1-1.9-1.4-4.7-0.2-5.8c0.3-0.3,0.8-0.5,1.6-0.3
			c0,0.3,0,0.7,0,1.1c-0.4-0.1-0.7-0.2-0.9,0c-0.6,0.5-0.5,2.7,0.5,4.5c0.3,0.5,1,1.6,2,1.9C34.1,56.4,34.4,56.8,34.8,57.1z"/>
		<path class="st4" d="M41,48.1v0.4c0,0.3,0,0.7,0,1.1c0,2.1-0.3,4.6-1.5,6.4c-0.3,0.4-0.6,0.8-1,1.1c-0.1,0.1-0.1,0.1-0.2,0.1
			l2.1,2.1c0.3,0.5,0.1,0.9-0.4,0.9h-6.7c-0.6,0-0.8-0.4-0.4-0.9l2.1-2.1c-0.1,0-0.1-0.1-0.2-0.1c-0.4-0.3-0.7-0.7-1-1.1l0,0
			c-1.3-1.8-1.5-4.4-1.5-6.4c0-0.4,0-0.8,0-1.1v-0.4c0,0,2.1-1.5,4.4-1.5S41,48.1,41,48.1z"/>
		<path class="st4" d="M36.3,79.1c-3.7-0.5-9.5-3.8-9.1-4.9c0.4-1.1,8.5-4.7,11.1-4.3c2.7,0.4,7.7,5.4,7.7,6.5
			c0,1.1-3.3,1.8-4.7,2.1C39.5,78.9,36.3,79.1,36.3,79.1z"/>
		<path class="st3" d="M42.2,76c-2.4-2.3-8.4-1.9-9.7-0.9c-0.5,2.2,0.4,5.9,0.4,5.9s4.7-0.9,9.4,0.7C42.3,78.6,42.2,76,42.2,76z"/>
		<path class="st4" d="M39.9,96.5l-1-2c-0.2-0.4-0.7-0.7-1.2-0.7h-2.1c-0.4,0-1,0.3-1.2,0.7l-1,2l-0.7-0.4l1-2
			c0.3-0.6,1.2-1.2,1.9-1.2h2.1c0.7,0,1.6,0.5,1.9,1.2l1,2L39.9,96.5z"/>
		<path class="st4" d="M43.8,103.1c0,0.3-0.1,0.5-0.3,0.7c-0.2,0.2-0.5,0.3-0.7,0.3H30.5c-0.3,0-0.5-0.1-0.7-0.3
			c-0.2-0.2-0.3-0.5-0.3-0.7v-7.4c0-0.3,0.1-0.5,0.3-0.7c0.2-0.2,0.5-0.3,0.7-0.3h12.3c0.3,0,0.5,0.1,0.7,0.3
			c0.2,0.2,0.3,0.5,0.3,0.7V103.1z"/>
		<path class="st3" d="M30.3,99.6c0.1,0.3,0.2,0.5,0.4,0.7c0.2,0.2,0.5,0.3,0.8,0.3h10.3c0.3,0,0.6-0.1,0.8-0.3
			c0.2-0.2,0.4-0.4,0.4-0.7l0.7-3.9c0-0.1,0-0.3,0-0.4c0-0.1-0.1-0.2-0.2-0.3c-0.1-0.1-0.2-0.2-0.3-0.2s-0.2-0.1-0.4-0.1H30.5
			c-0.1,0-0.3,0-0.4,0.1c-0.1,0.1-0.2,0.1-0.3,0.2c-0.1,0.1-0.1,0.2-0.2,0.3c0,0.1,0,0.3,0,0.4L30.3,99.6z"/>
		<path class="st5" d="M74.1,47.9c0,0.6-0.6,1.2-1.4,1.2H51.4c-0.8,0-1.4-0.5-1.4-1.2c0-0.7,0.6-1.2,1.4-1.2h21.4
			C73.5,46.7,74.1,47.2,74.1,47.9z"/>
		<path class="st6" d="M103.8,52.3c0,0.4-0.4,0.8-0.9,0.8h-52c-0.5,0-0.9-0.4-0.9-0.8c0-0.4,0.4-0.8,0.9-0.8h52
			C103.4,51.5,103.8,51.9,103.8,52.3z"/>
		<path class="st6" d="M103.8,55.2c0,0.4-0.4,0.8-0.9,0.8h-52c-0.5,0-0.9-0.4-0.9-0.8c0-0.4,0.4-0.8,0.9-0.8h52
			C103.4,54.5,103.8,54.8,103.8,55.2z"/>
		<path class="st6" d="M103.8,58.3c0,0.4-0.4,0.8-0.9,0.8h-52c-0.5,0-0.9-0.4-0.9-0.8c0-0.4,0.4-0.8,0.9-0.8h52
			C103.4,57.5,103.8,57.9,103.8,58.3z"/>
		<path class="st5" d="M74.1,70.8c0,0.6-0.6,1.2-1.4,1.2H51.4c-0.8,0-1.4-0.5-1.4-1.2c0-0.7,0.6-1.2,1.4-1.2h21.4
			C73.5,69.6,74.1,70.1,74.1,70.8z"/>
		<path class="st6" d="M103.8,75.2c0,0.4-0.4,0.8-0.9,0.8h-52c-0.5,0-0.9-0.4-0.9-0.8c0-0.4,0.4-0.8,0.9-0.8h52
			C103.4,74.4,103.8,74.8,103.8,75.2z"/>
		<path class="st6" d="M103.8,78.1c0,0.4-0.4,0.8-0.9,0.8h-52c-0.5,0-0.9-0.4-0.9-0.8c0-0.4,0.4-0.8,0.9-0.8h52
			C103.4,77.4,103.8,77.7,103.8,78.1z"/>
		<path class="st6" d="M103.8,81.2c0,0.4-0.4,0.8-0.9,0.8h-52c-0.5,0-0.9-0.4-0.9-0.8s0.4-0.8,0.9-0.8h52
			C103.4,80.4,103.8,80.8,103.8,81.2z"/>
		<path class="st5" d="M74.1,93.7c0,0.7-0.6,1.2-1.4,1.2H51.4c-0.8,0-1.4-0.5-1.4-1.2s0.6-1.2,1.4-1.2h21.4
			C73.5,92.5,74.1,93,74.1,93.7z"/>
		<path class="st6" d="M103.8,98.1c0,0.4-0.4,0.8-0.9,0.8h-52c-0.5,0-0.9-0.4-0.9-0.8c0-0.4,0.4-0.8,0.9-0.8h52
			C103.4,97.3,103.8,97.7,103.8,98.1z"/>
		<path class="st6" d="M103.8,101c0,0.4-0.4,0.8-0.9,0.8h-52c-0.5,0-0.9-0.4-0.9-0.8c0-0.4,0.4-0.8,0.9-0.8h52
			C103.4,100.3,103.8,100.6,103.8,101z"/>
		<path class="st6" d="M103.8,104.1c0,0.4-0.4,0.8-0.9,0.8h-52c-0.5,0-0.9-0.4-0.9-0.8s0.4-0.8,0.9-0.8h52
			C103.4,103.3,103.8,103.7,103.8,104.1z"/>
		<path class="st5" d="M53.3,21.1c0,0.7-0.6,1.2-1.4,1.2H30.6c-0.8,0-1.4-0.5-1.4-1.2c0-0.7,0.6-1.2,1.4-1.2h21.4
			C52.7,19.9,53.3,20.5,53.3,21.1z"/>
		<path class="st6" d="M83,27.7c0,0.4-0.4,0.8-0.9,0.8h-52c-0.5,0-0.9-0.4-0.9-0.8c0-0.4,0.4-0.8,0.9-0.8h52
			C82.6,26.9,83,27.2,83,27.7z"/>
		<path class="st6" d="M83,30.8c0,0.4-0.4,0.8-0.9,0.8h-52c-0.5,0-0.9-0.4-0.9-0.8s0.4-0.8,0.9-0.8h52C82.6,30.1,83,30.4,83,30.8z"
			/>
		<path class="st6" d="M83,34c0,0.4-0.4,0.8-0.9,0.8h-52c-0.5,0-0.9-0.4-0.9-0.8c0-0.4,0.4-0.8,0.9-0.8h52C82.6,33.2,83,33.6,83,34z
			"/>
		<path class="st7" d="M107.3,72.7c-0.5,0-0.9-0.2-1.2-0.5l-5.5-5.4c-0.5-0.5-1.8-1-2.5-1H83.4c-0.7,0-2,0.5-2.5,1l-5.5,5.4
			c-0.3,0.3-0.8,0.5-1.2,0.5c-0.5,0-0.9-0.2-1.2-0.5c-0.3-0.3-0.5-0.8-0.5-1.2c0-0.5,0.2-0.9,0.5-1.2l5.5-5.4c1.2-1.1,3.3-2,4.9-2
			h14.7c1.6,0,3.8,0.9,4.9,2l5.5,5.4c0.3,0.3,0.5,0.8,0.5,1.2c0,0.5-0.2,0.9-0.5,1.2c-0.2,0.2-0.4,0.3-0.6,0.4
			C107.8,72.6,107.6,72.7,107.3,72.7L107.3,72.7z"/>
		<path class="st7" d="M129,73.4v41.8c0,1.2-0.5,2.3-1.3,3.1c-0.8,0.8-1.9,1.3-3.1,1.3H56.8c-1.2,0-2.3-0.5-3.1-1.3
			c-0.8-0.8-1.3-1.9-1.3-3.1V73.4c0-0.1,0-0.2,0-0.3c0.1-1.1,0.6-2.1,1.4-2.9c0.8-0.7,1.9-1.2,2.9-1.2h67.9c1.2,0,2.3,0.5,3.1,1.3
			C128.5,71.1,129,72.2,129,73.4L129,73.4z"/>
		<path class="st8" d="M128.2,70.8l-7.7,23.4c-0.7,2.3-3.3,4.1-5.7,4.1H65.1c-2.4,0-4.9-1.9-5.7-4.1L52.5,73
			c0.1-1.1,0.6-2.1,1.4-2.9c0.8-0.7,1.9-1.2,2.9-1.2h67.9c0.7,0,1.4,0.2,2,0.5C127.2,69.8,127.8,70.3,128.2,70.8L128.2,70.8z"/>
		<path class="st9" d="M129,106.6v8.5c0,1.2-0.5,2.3-1.3,3.1c-0.8,0.8-1.9,1.3-3.1,1.3H122C122.8,114,125.4,109.3,129,106.6z"/>
		<path class="st9" d="M52.5,106.6v8.5c0,1.2,0.5,2.3,1.3,3.1c0.8,0.8,1.9,1.3,3.1,1.3h2.6C58.7,114,56.1,109.3,52.5,106.6z"/>
		<path class="st10" d="M96.9,100c0,0.1-0.1,0.3-0.2,0.4c-0.1,0.1-0.2,0.2-0.4,0.2H85.3c-0.1,0-0.3-0.1-0.4-0.2s-0.2-0.2-0.2-0.4
			v-3.8c0-0.1,0.1-0.3,0.2-0.4s0.2-0.2,0.4-0.2h11.1c0.1,0,0.3,0.1,0.4,0.2c0.1,0.1,0.2,0.2,0.2,0.4L96.9,100z"/>
		<path class="st11" d="M14.3,91.6c0.2,3.8-0.2,11-0.7,16.8c-0.2,2.3-0.8,5.7,0.8,7.3c0,4.1-4.9,3.8-5.4-2.4
			c0.2-1.2,0.3-2.4,0.3-3.5C9.1,108.6,7.4,97,7.9,92.9c0.4-4.1,2.7-3.2,3.2-3C11.5,90.1,14.3,91.6,14.3,91.6z"/>
		<path class="st12" d="M13.7,115c0.7,1,2.7,3.4,2.2,4.5c-0.1,0.2-0.4,0.4-0.6,0.5h-3.9c-1.2,0-2.2-1.6-2.2-1.6S9,119.5,9,120H8.5
			c0,0-1.3-4.3,0.4-6.6c1.4,0.6,1.1,3.6,3.9,4.3C14.1,117.9,13.7,115,13.7,115z"/>
		<path class="st11" d="M25.6,91.6c0.2,3.8-0.2,11-0.7,16.8c-0.2,2.3-0.8,5.7,0.8,7.3c0,4.1-4.9,3.8-5.4-2.4
			c0.2-1.2,0.3-2.4,0.3-3.5c-0.1-1.3-1.7-12.8-1.3-16.9c0.4-4.1,2.7-3.2,3.2-3C22.8,90.1,25.6,91.6,25.6,91.6z"/>
		<path class="st12" d="M25,115c0.7,1,2.7,3.4,2.2,4.5c-0.1,0.2-0.4,0.4-0.6,0.5h-3.9c-1.2,0-2.2-1.6-2.2-1.6s-0.3,1.1-0.3,1.6h-0.4
			c0,0-1.3-4.3,0.4-6.6c1.4,0.6,1.1,3.6,3.9,4.3C25.3,117.9,25,115,25,115z"/>
		<path class="st13" d="M14.3,91.6c0,1.1,0.1,2.5,0,4.1c-2.2-0.1-4.4-0.5-6.5-1c0-0.6,0-1.1,0.1-1.7c0.4-4.1,2.7-3.2,3.2-3
			C11.5,90.1,14.3,91.6,14.3,91.6z"/>
		<path class="st13" d="M25.6,94c-2.1,0.8-4.3,1.4-6.5,1.6c0-0.9,0-1.7,0.1-2.6c0.4-4.1,2.7-3.2,3.2-3c0.5,0.2,3.2,1.6,3.2,1.6
			C25.6,92.2,25.6,93.1,25.6,94z"/>
		
			<linearGradient id="SVGID_00000173118853495644427340000010749759393376371594_" gradientUnits="userSpaceOnUse" x1="13.2467" y1="70.2729" x2="17.9522" y2="29.6133" gradientTransform="matrix(1 0 0 -1 0 122)">
			<stop  offset="0" style="stop-color:#34395B"/>
			<stop  offset="1" style="stop-color:#292F52"/>
		</linearGradient>
		<path style="fill:url(#SVGID_00000173118853495644427340000010749759393376371594_);" d="M27.9,90.7c-6.2,3.4-12.7,4-18.6,2.3l0,0
			c-1.2-0.4-2.4-0.8-3.5-1.3l0,0C5.1,88,5.4,70.7,8.1,63.2c1.1-0.6,2.2-1.3,3.1-1.9c3.9-2.6,5.8-4.5,7.2-3.9c1.7,0.7,8,4,8,4
			C27.1,65.4,29.1,81.3,27.9,90.7z"/>
		<g>
			<path class="st15" d="M6.6,70.2l3.4,2.3c0,0,3.6-2.3,4.9-3.1c1.2-0.8,5.9-3.3,3.2-6.4S6.9,68.2,6.9,68.2L6.6,70.2z"/>
		</g>
		<g>
			<path class="st15" d="M23.6,64.1c1.6,6.5,3.4,16.5,0.9,28.2c1.1-0.4,2.3-1,3.3-1.5c1.2-9.4-0.8-25.3-1.6-29.2
				c0,0-0.5-0.3-1.2-0.6c-1,0.5-1.9,1-2.2,0.7C23.3,63,23.6,64.1,23.6,64.1z"/>
		</g>
		<path class="st16" d="M39.6,62.4c2.1,0.3,2.6,1.6,5.4,2.1c1.7,0.3,2.8-1.1,3.8-2.5c1-1.5-1.4-1.8-2.7-1.7
			c-1.3,0.1-0.9-0.5-1.6-1.2c-0.6-0.6-2.3,0.3-2.7,0.2c-0.5,0-1.5-0.4-1.5-0.4L39.6,62.4z"/>
		
			<linearGradient id="SVGID_00000046324234628211936570000000828910044113024673_" gradientUnits="userSpaceOnUse" x1="41.7388" y1="71.3139" x2="25.0195" y2="71.3139" gradientTransform="matrix(1 0 0 -1 0 122)">
			<stop  offset="0" style="stop-color:#554482"/>
			<stop  offset="1" style="stop-color:#2E3459"/>
		</linearGradient>
		<path style="fill:url(#SVGID_00000046324234628211936570000000828910044113024673_);" d="M25.3,38.2c1.6,1,3,2.2,3.6,4.5
			c0.6,2.3,2.9,11.6,2.9,11.6c1.2,1.2,8.8,4.1,9.6,4.3c0.7,1.6,0.1,3.4-1,4.5c-1.4-0.1-10.2-3-13.1-5.8c-1.3-1.2-2.3-5.7-2.3-5.7
			L25.3,38.2z"/>
		<g>
			<path class="st15" d="M25,51.7c0,0,1,4.5,2.3,5.7c1.1,1.1,3,2.1,5.1,3.1c-5.6-3.3-4.8-5.2-4.6-6.7c0.2-2.7-0.8-8.3-1.3-10.3
				c0,0-0.7,1.2-1.4,2.8L25,51.7z"/>
		</g>
		
			<linearGradient id="SVGID_00000034811342697899396650000004306950416807048855_" gradientUnits="userSpaceOnUse" x1="12.8131" y1="89.7985" x2="20.1538" y2="57.6097" gradientTransform="matrix(1 0 0 -1 0 122)">
			<stop  offset="0" style="stop-color:#614D94"/>
			<stop  offset="1" style="stop-color:#333A63"/>
		</linearGradient>
		<path style="fill:url(#SVGID_00000034811342697899396650000004306950416807048855_);" d="M26.7,61.8c-2.5,2.6-4.9,2.2-4.9,2.2
			l-2.1-2.6c0,0-1.2,2.6-2.4,3c-0.7,0.2-2.9,0.1-5-0.1l-0.1,0c-1.6-0.2-3.2-0.6-3.9-1c2.6-6.8-1.3-10.1-1-14.7c0-0.1,0-0.2,0-0.3
			c0.4-3.7-3.1-5.4-2.8-8.4c2.4-2.2,8.8-4.7,8.8-4.7l5.3-0.3c1.8,0.6,5.5,2.4,6.4,3.3c1,0.9,2.2,10.1,0.7,13
			C24.5,54,25.6,57.8,26.7,61.8z"/>
		<g>
			<path class="st15" d="M13.2,64.3c1.9,0.2,3.7,0.2,4.3,0c1.2-0.4,2.4-3,2.4-3l2.1,2.6c0,0,2.4,0.3,4.9-2.2c-0.2-0.5-0.3-1-0.4-1.5
				c-1,1.1-1.8,1.2-3.3,0.8c-0.5-0.1-9.2-6.2-9.2-6.2S13.1,61.4,13.2,64.3z"/>
		</g>
		<path class="st19" d="M11.2,36.2c-3.5,4.4,1.8,3.5,1.1,6.1c-1.3,5,5.4,6.6,7.3,8.9c7.3-8.5,2.1-10,3.2-12.6
			c0.3-0.8-1.6-2.8-1.6-2.8l-2.2-0.9l-5.3,0.3L11.2,36.2z"/>
		<path class="st20" d="M12.8,35.5c0.2,6.1,6.2,9.9,6.8,15c3.3-6.8,0.8-11.4,0.4-13.6C19.6,34.8,12.8,35.5,12.8,35.5z"/>
		<g>
			<path class="st21" d="M20.2,37.8c-1.1,1-3.4,1.9-7.3-0.9l-0.1-1.2L20,37L20.2,37.8z"/>
		</g>
		<path class="st22" d="M19.6,51.8c0,0,0,0.1,0.1,0.4c0,0.1,0.1,0.3,0.1,0.4c0,0.2,0.1,0.4,0.1,0.5c0,0.2,0.1,0.4,0.1,0.6
			c0,0.2,0.1,0.5,0.1,0.7c0,0.3,0.1,0.5,0.1,0.8c0,0.3,0,0.5,0,0.8c0,0.3,0,0.5,0,0.8c0,0.3,0,0.5,0,0.8c0,0.5-0.1,1-0.1,1.4
			S20,59.7,20,60c0,0.2-0.1,0.4-0.1,0.4l-0.1,0c0,0,0-0.1,0-0.4c0-0.2,0-0.6,0-1c0-0.2,0-0.4,0-0.6c0-0.2,0-0.5,0-0.7s0-0.5,0-0.8
			c0-0.3,0-0.5,0-0.8c0-0.3,0-0.5,0-0.8c0-0.3,0-0.5,0-0.8c0-0.2,0-0.5,0-0.7c0-0.2,0-0.4-0.1-0.6c0-0.2,0-0.4-0.1-0.5
			c0-0.2,0-0.3-0.1-0.4c0-0.2,0-0.4,0-0.4L19.6,51.8z"/>
		<g>
			<path class="st15" d="M12.4,64.2c-0.4,0-2.6-0.3-3.7-0.9c-0.1,0-0.1-0.1-0.1-0.1c2.6-6.8-1.3-10.1-1-14.7l0.8-4.3
				c-0.1,2.9,2.6,10.4,2.2,13.7C10.1,61.4,10.1,63.3,12.4,64.2L12.4,64.2z"/>
		</g>
		<path class="st23" d="M19.9,60L8.8,72.7L0,65.3l11.1-12.7L19.9,60z"/>
		<path class="st11" d="M12.9,62.1c0.5,0.4,3.8,0.4,3.4,1.7c-0.1,0.4,1.7,1.2,0.3,2.9c-1.4,1.7-3.3,2.2-3.8,1
			c-0.6-1.1-0.9-2.1-1.6-3.1c-0.7-1-0.7-2.7,0.1-2.5C11.8,62.1,12.4,62.1,12.9,62.1L12.9,62.1z"/>
		
			<linearGradient id="SVGID_00000088834321015275569340000006338527624919676093_" gradientUnits="userSpaceOnUse" x1="1.0254" y1="69.7144" x2="12.946" y2="69.7144" gradientTransform="matrix(1 0 0 -1 0 122)">
			<stop  offset="0" style="stop-color:#554482"/>
			<stop  offset="1" style="stop-color:#2E3459"/>
		</linearGradient>
		<path style="fill:url(#SVGID_00000088834321015275569340000006338527624919676093_);" d="M4.8,39.9c-0.9,1-4.4,13.6-3.6,15.6
			c0.8,2,9.8,9.2,9.8,9.2s2.1-1.3,2-3c-0.8-1-6.7-7.5-6.7-7.8c-0.1-0.3,1.4-3.3,1.4-3.3s2.1-4.6,0-8.4C6.5,40.1,4.8,39.9,4.8,39.9z"
			/>
		<path class="st1" d="M104.6,34.5c4.4-4.4,4.4-11.6,0-16c-4.4-4.4-11.6-4.4-16,0c-4.4,4.4-4.4,11.6,0,16
			C93.1,38.9,100.2,38.9,104.6,34.5z"/>
		<path class="st4" d="M96.6,36.3c5.4,0,9.7-4.4,9.7-9.7s-4.4-9.7-9.7-9.7c-5.4,0-9.7,4.4-9.7,9.7S91.3,36.3,96.6,36.3z"/>
		<path class="st25" d="M91.8,30.2c-0.2-3.3-0.9-11.8,3.5-10.6c2.1-2,4.8,0,5.2,2c0.7,3.5,0.3,7.3,0.7,8.7
			C101.5,31.5,91.8,30.2,91.8,30.2z"/>
		<path class="st20" d="M104,34.6c0,0-2,2.1-7,2.3c-5.1,0.3-7-2.5-7-2.5s1-3.7,1.3-4.2c0.3-0.6,2.4-2.6,4.3-3c0,0,0.8-0.4,2.3-0.2
			c1.5,0.2,4,2.2,4.4,2.8C102.7,30.3,104,34.6,104,34.6z"/>
		<path class="st26" d="M93.6,23.5c0,5.5,5.3,6.3,5.7,0.4c-1.4-3.2-2.3-3.5-3.1-3.5C95.4,20.4,93.6,23.5,93.6,23.5z"/>
		<path class="st25" d="M95.4,21.5c-0.1,0.6-1.1,2.4-1.8,2.4c-0.8,0-0.1-2.7,0.9-3.3s3.2-1.7,4,0c0.8,1.7,1.4,2.8,0.8,3.3
			C98.8,24.4,96.2,23.7,95.4,21.5z"/>
		<path class="st26" d="M99.3,23.9c0.5-0.1,1,0.8-0.3,1.8C99,25,99.3,23.9,99.3,23.9z"/>
		<path class="st26" d="M93.6,23.9c-0.5,0-1,0.9,0.4,1.7C94.2,24.1,93.6,23.9,93.6,23.9z"/>
		<path class="st27" d="M21.6,21.8c-0.4,1.8-2.3,3-3.9,3.8c0.7-0.5,1.4-1,2-1.5C20.4,23.4,21.1,22.6,21.6,21.8z"/>
		<path class="st27" d="M11.6,28.9C11.6,28.9,11.6,28.9,11.6,28.9C11.6,28.9,11.6,28.9,11.6,28.9z"/>
		<path class="st27" d="M11.6,28.9C11.6,28.9,11.6,28.9,11.6,28.9C11.6,28.9,11.6,28.9,11.6,28.9"/>
		<path class="st27" d="M13.8,31.3L13.8,31.3c-0.9,0.2-2-0.5-2.2-1.5c0-0.1,0-0.2,0-0.3C11.6,30.6,12.7,31.5,13.8,31.3L13.8,31.3
			L13.8,31.3z"/>
		<path class="st27" d="M14.1,29L14.1,29c-0.4-0.3-0.9,0.3-0.4,0.5v0C13.2,29.3,13.7,28.7,14.1,29c0-1.3-2.6-0.7-1.3,1l0,0
			C11.2,28.2,14.3,27.5,14.1,29"/>
		<path class="st28" d="M23.2,29.1c-0.1,0-0.3-0.2-0.1-0.2C23.2,29,23.6,29.2,23.2,29.1z M14.1,29L14.1,29c-0.4-0.3-0.9,0.3-0.4,0.5
			v0C13.2,29.3,13.7,28.7,14.1,29c0-1.3-2.6-0.7-1.3,1l0,0C11.2,28.2,14.3,27.5,14.1,29L14.1,29z M24.1,28.3
			c-0.1-0.1-0.2-0.3-0.3-0.4l0,0c-1.9-1.9-0.7-4.1-1.9-5.9c0,0,0,0,0,0c-0.7,2.6-3.6,3.7-5.9,4.6c-0.5,0.3-1.1,0.5-1.7,0.8
			c0.5,0.2,1,0.5,1.1,1.1c0.1,0.3,0,0.9-0.4,1c-0.7,0.1-1-1.2-0.2-1c0.3,0.3-0.4,0.2-0.1,0.6c0.5,0.5,0.7-1-0.6-1.3
			c-0.8-0.3-1.9,0.1-2.3,0.8c0,0.1-0.1,0.1-0.1,0.2c0,0,0,0.1-0.1,0.1c0,0,0,0,0,0c0,0.1,0,0.1-0.1,0.2c0,0,0,0.1,0,0.1l0,0
			c0,0,0,0,0,0c0,0.1,0,0.1,0,0.2c0,0.1,0,0.2,0,0.2c0,1.1,1.2,2,2.2,1.8v0v0c0,0,3.4,2.1,3.4,2.1c1.2,0.5,2.8,1.5,4.1,0.8
			c1.5-1.1,2.3-3.4,2.2-5C24.4,29,24.3,28.7,24.1,28.3"/>
		<path class="st27" d="M23.2,29.1c-0.1,0-0.3-0.2-0.1-0.2C23.2,29,23.6,29.2,23.2,29.1z"/>
		<path class="st29" d="M11.6,28.9C11.6,28.9,11.6,28.9,11.6,28.9C11.6,28.9,11.6,28.9,11.6,28.9L11.6,28.9z M11.6,28.9
			C11.6,28.9,11.6,28.9,11.6,28.9C11.6,28.9,11.6,28.9,11.6,28.9z M13.8,31.3c-1.1,0.2-2.2-0.7-2.2-1.8c0,0.1,0,0.2,0,0.3
			C11.8,30.8,12.9,31.5,13.8,31.3L13.8,31.3L13.8,31.3z M11.6,29.1C11.6,29.2,11.6,29.2,11.6,29.1C11.6,29.2,11.6,29.1,11.6,29.1
			C11.6,29.1,11.6,29.1,11.6,29.1L11.6,29.1z"/>
		<path class="st29" d="M30.3,29.6c0.5-1.8-0.5-3.7-1.7-5C30.2,25.7,31,27.8,30.3,29.6z M26.7,21.1c-0.1-2.2-1.4-4.4-3.4-5.3
			c1.8,0.3,3.4,1.6,3.8,3.5c0.3,1.2-0.1,2.5,0.3,3.7C26.9,22.5,26.7,21.8,26.7,21.1L26.7,21.1z M21.6,21.9c-0.4,1.8-2.3,3-3.9,3.7
			c0.7-0.5,1.4-1,2-1.5C20.4,23.4,21.1,22.6,21.6,21.9C21.6,21.8,21.6,21.8,21.6,21.9L21.6,21.9z M14.8,18.4L14.8,18.4
			c-1.9-0.9-4,0.7-5,2.3c0.5-2.2,3.1-3.4,5.1-2.4C14.8,18.3,14.8,18.4,14.8,18.4L14.8,18.4z M8.9,23.1c-1.8,1-2.5,3-1.5,4.7
			c-0.8,1.1-1.6,2.9-1.1,4.3c-1.7-0.3,0.4-3.5,0.4-4.5C7,26.1,5.4,25.3,7.3,24c0.5-0.4,1.2-0.6,1.6-1.1C8.9,23,8.9,23,8.9,23.1
			L8.9,23.1z M30.8,27.9c-0.1-2.2-2.3-3.1-3.2-4.9c-0.4-2,0.2-4.3-1.4-5.9c-2.9-2.8-8.9-2.5-11.2,1c-1.7-1-4.1-0.3-5,1.4
			c-0.8,1.7-0.5,3.2-2.6,4.1c-2.6,1.5-0.4,2.4-1,4.2c-0.4,1.1-2.1,4.2,0,4.6c0.8,1.4,2.4,0.8,3.7,1.1c1.3,0.6,2.6,1.3,3.9,1.4
			c0-0.4-0.1-3-0.1-3.5c-0.9,0.2-2-0.5-2.2-1.5c-0.1-0.3-0.1-0.5,0-0.8c0,0,0,0,0,0l0,0c0,0,0-0.1,0-0.1c0-0.1,0-0.1,0.1-0.2
			c0,0,0,0,0,0c0,0,0,0,0,0c0,0,0,0,0,0c0-0.1,0.1-0.1,0.1-0.2c0,0,0,0,0,0c0-0.1,0.1-0.1,0.1-0.2c0.5-0.8,1.5-1.1,2.3-0.8
			c1.5,0.4,1,2.2,0.5,1.1c0.1-0.1,0.4-0.1,0.2-0.3c-0.8-0.2-0.5,1.1,0.2,1c0.4-0.1,0.5-0.7,0.4-1c-0.1-0.5-0.6-0.9-1.1-1.1
			c0.6-0.2,1.1-0.5,1.7-0.8c2.3-0.9,5.1-2,5.9-4.6c0,0,0,0,0,0c1.2,1.8,0,4,1.9,5.9c0.4,0.5,0.9,1.1-0.3,1.3c0.1,1.6-0.6,3.9-2.2,5
			c-1.3,0.7-2.9-0.2-4.1-0.8c0,0.7,0,2.2,0,2.9c0.4-0.1,1-0.1,1.3,0.1c0.2,0.1,0.4,0.3,0.7,0.3c0.5,0.1,0.9-0.2,1.3-0.5
			c2-1.4,3,1.1,4.8,0.7c0.9-0.2,1.4-1.8,1.7-3.1C27.6,31.4,31,32.2,30.8,27.9"/>
		<path class="st27" d="M13.8,31.3L13.8,31.3c-0.1,0-0.2,0-0.4,0C13.6,31.3,13.7,31.3,13.8,31.3"/>
		<path class="st27" d="M13.8,31.3L13.8,31.3c-0.1,0-0.2,0-0.4,0C13.6,31.3,13.7,31.3,13.8,31.3"/>
		<path class="st27" d="M13.8,31.3L13.8,31.3c-0.1,0-0.2,0-0.4,0C13.6,31.3,13.7,31.3,13.8,31.3"/>
		<path class="st30" d="M18.9,36.5c0-0.8,0-2.3-0.1-3.1c0,0-5-2.1-5-2.1c0.1,1.7,0.2,4,0.3,5.7h4.8L18.9,36.5z"/>
		<path class="st27" d="M14.1,28.5c-1.1-1-2.4,0.4-1.3,1.5l0,0c-1.3-1.7,1.3-2.3,1.3-1c-0.4-0.2-0.9,0.3-0.4,0.5v0
			c-0.5-0.2,0-0.8,0.4-0.5c0-0.1,0.1-0.2,0-0.3C14.2,28.7,14.1,28.6,14.1,28.5"/>
		<path class="st31" d="M18.9,35.6c-0.7-0.3-5-4.2-5.1-4.3c0,0,5.1,2.8,5.1,2.8c0,0.2-0.1,2.3-0.1,0.8"/>
		<path class="st32" d="M23.2,29.1c-0.1,0-0.3-0.2-0.1-0.2C23.2,29,23.6,29.2,23.2,29.1z"/>
		<path class="st32" d="M14.1,29L14.1,29c-0.4-0.3-0.9,0.3-0.4,0.5v0C13.2,29.3,13.7,28.7,14.1,29c0-1.3-2.6-0.7-1.3,1l0,0
			C11.2,28.2,14.3,27.5,14.1,29"/>
		<path class="st29" d="M21.7,27.1c-0.3-0.8-1.5-0.8-1.9,0C19.6,25.9,21.7,26,21.7,27.1z"/>
		<path class="st29" d="M21.5,24.6c-0.5-0.1-1.3,0.2-1.6,0.6C20.3,23.7,22.3,24.3,21.5,24.6z"/>
		<path class="st29" d="M21.4,31c-0.2,0-0.4-0.1-0.6-0.2c-0.2-0.1-0.4-0.3-0.5-0.5c0,0,0,0,0-0.1c0,0,0,0,0,0c0,0,0,0,0,0
			c0,0,0,0,0,0c0,0,0,0,0,0c0,0,0,0,0,0c0.1,0.1,0.2,0.2,0.3,0.3c0.1,0.1,0.3,0.2,0.4,0.2c0.2,0,0.3,0,0.5,0c0.2,0,0.3-0.1,0.4-0.2
			c0,0,0,0,0,0c0,0,0,0,0,0c0,0,0,0,0,0c0,0,0,0,0,0c0,0,0,0,0,0.1c0,0,0,0,0,0C21.9,30.9,21.6,31,21.4,31"/>
		<path class="st29" d="M21.3,26.3c-0.1-0.1-0.2-0.2-0.2-0.3C21.1,25.9,21.5,26.3,21.3,26.3z"/>
		<path class="st28" d="M14,36c0,0-0.8,0.4-0.2,0.9c0,0,3.6,2.3,5.5,0.6c0,0,0.8-0.2-0.4-1.5H14z"/>
	</g>
</g>
</svg>
