<svg width="141" height="120" viewBox="0 0 141 120" fill="none" xmlns="http://www.w3.org/2000/svg">
    <g clip-path="url(#kow0xv9c3a)">
        <path fill-rule="evenodd" clip-rule="evenodd" d="M121.478 47.902c.326.269.643.461 1.017.73a30.331 30.331 0 0 1 4.521 4.184 34.245 34.245 0 0 1 6.43 10.788c6.325 16.835.058 37.94-14.569 49.054-17.401 13.226-39.35 7.976-48.084-10.922a34.352 34.352 0 0 1-1.229-2.995 5.136 5.136 0 0 0-7.937-2.658c-20.76 13.686-45.848 6.843-55.974-15.309-9.742-21.383-1.737-49.821 17.996-63.728 12.14-8.552 25.913-9.924 37.373-5.193 1.43.586 2.88 1.21 4.28 1.786 8.255 3.272 16.73 7.121 22.66 14.214 2.141 2.543 3.926 5.5 6.585 7.419 3.628 2.61 8.292 2.88 12.563 4.079a31.215 31.215 0 0 1 9.905 4.731 42.142 42.142 0 0 1 4.242 3.61l.231.21" fill="#D9FFF5"/>
        <path fill-rule="evenodd" clip-rule="evenodd" d="M118.148 112.063c-6.364 2.361-12.592 2.591-18.236-.087l-.202-.105c-.355-.183-1.094-.567-1.65-.835l-.519-.25a48.189 48.189 0 0 0-4.117-1.718 48.16 48.16 0 0 0-14.109-2.879 44.764 44.764 0 0 0-19.08 3.215l-.25.096c-8.004 3.129-16.738 2.505-23.034-1.814a22.148 22.148 0 0 1-6.18-6.718 66.17 66.17 0 0 1-4.445-8.725l-1.477-3.301a48.465 48.465 0 0 0-5.356-9.492 21.407 21.407 0 0 0-3.676-3.84 9.596 9.596 0 0 0-1.19-.815l-.7-.422a9.225 9.225 0 0 1-1.824-1.306l-.115-.124a8.549 8.549 0 0 1-.528-.576l-.576-.807a9.662 9.662 0 0 0-.854-.883l-.346-.297a32.352 32.352 0 0 1-2.802-2.688 26.192 26.192 0 0 1-4.905-7.61C-1.747 51.05.057 38.63 6.114 29.004a42 42 0 0 1 24.618-18.053 30.03 30.03 0 0 1 17.276.24c.6.207 1.19.444 1.766.71l.748.346.759.345c.287.122.582.225.883.307l.326.106a5.47 5.47 0 0 1 1.324.528 60.052 60.052 0 0 1 5.701 3.896l.163.125 1.162.883 2.514 1.92a75.612 75.612 0 0 0 6.872 4.895l.356.21c2.639 1.594 5.758 2.525 11.67 3.657l.797.154 4.319.806c1.286.24 2.4.46 3.474.682l.96.21c3.129.682 5.931 1.412 8.638 2.295a62.9 62.9 0 0 1 19.858 10.413 70.735 70.735 0 0 1 10.125 9.684 39.15 39.15 0 0 1 9.339 30.127 37.831 37.831 0 0 1-11.748 23.035 35.459 35.459 0 0 1-9.866 5.538zM48.084 11.421l-.144-.134a29.983 29.983 0 0 0-17.17-.23A41.846 41.846 0 0 0 6.19 29.08C.116 38.679-1.64 51.041 2.065 60.024a25.827 25.827 0 0 0 4.885 7.573c.875.945 1.804 1.84 2.783 2.677l.403.346c.292.258.562.541.806.844l.595.701a8.4 8.4 0 0 0 .432.48l.087.096a8.244 8.244 0 0 0 1.92 1.41l.69.413c.378.224.743.468 1.095.73l.115.096a21.362 21.362 0 0 1 3.695 3.839 48.877 48.877 0 0 1 5.509 9.828l1.459 3.263c3.724 8.264 6.296 12.324 10.461 15.165 6.354 4.376 15.155 4.962 23.179 1.698l.345-.134a45.035 45.035 0 0 1 18.802-3.09 48.148 48.148 0 0 1 14.147 2.879 48.592 48.592 0 0 1 4.444 1.862c.71.345 1.92.96 2.054 1.046l.211.096c5.547 2.553 11.671 2.303 17.919 0a35.369 35.369 0 0 0 9.818-5.5 37.667 37.667 0 0 0 11.69-22.919 39.005 39.005 0 0 0-9.3-30.021 71.032 71.032 0 0 0-10.106-9.617 62.965 62.965 0 0 0-19.762-10.366 93.775 93.775 0 0 0-9.156-2.39c-1.066-.22-2.14-.441-3.379-.671l-.883-.173-4.559-.845c-5.912-1.132-9.089-2.044-11.737-3.59l-.23-.134a67.562 67.562 0 0 1-6.882-4.847l-3.148-2.428-.807-.614-.72-.547a59.005 59.005 0 0 0-5.211-3.522 5.208 5.208 0 0 0-1.18-.452l-.346-.105a7.43 7.43 0 0 1-.873-.298l-.135-.115-1.334-.604c-.797-.336-1.248-.528-1.756-.71l-.02.047z" fill="#8CE7CD"/>
        <path fill-rule="evenodd" clip-rule="evenodd" d="M51.952 114.875a4.749 4.749 0 0 0 5.707 4.606 4.749 4.749 0 0 0 3.707-3.745 4.749 4.749 0 0 0-4.663-5.66 4.8 4.8 0 0 0-4.75 4.799z" fill="#A6A7A6"/>
        <path fill-rule="evenodd" clip-rule="evenodd" d="M48.66 114.875a4.798 4.798 0 1 0 9.597 0 4.798 4.798 0 0 0-9.597 0z" fill="#6E6E6E"/>
        <path fill-rule="evenodd" clip-rule="evenodd" d="M89.21 114.875a4.75 4.75 0 1 0 9.5-.096 4.75 4.75 0 0 0-9.5.096z" fill="#A6A7A6"/>
        <path fill-rule="evenodd" clip-rule="evenodd" d="M85.919 114.875a4.749 4.749 0 0 0 5.706 4.606 4.749 4.749 0 0 0 3.707-3.745 4.749 4.749 0 0 0-4.662-5.66 4.8 4.8 0 0 0-4.751 4.799z" fill="#6E6E6E"/>
        <path d="M66.848 3.292v58.172h-1.67V3.292h1.67zM84.786 1.833v58.172h-1.67V1.833h1.67z" fill="#C95C34"/>
        <path fill-rule="evenodd" clip-rule="evenodd" d="M62.942 5.125h23.312a2.563 2.563 0 0 0 0-5.125H62.942a2.562 2.562 0 1 0 0 5.125z" fill="#4E2253"/>
        <path fill-rule="evenodd" clip-rule="evenodd" d="M55.859 111.948h43.324a5.382 5.382 0 0 0 4.962-3.342 5.4 5.4 0 0 0 .403-2.062V30.646a5.4 5.4 0 0 0-1.564-3.813 5.382 5.382 0 0 0-3.801-1.59H55.859a5.384 5.384 0 0 0-5.366 5.403v75.898a5.384 5.384 0 0 0 5.366 5.404z" fill="#FED600"/>
        <path fill-rule="evenodd" clip-rule="evenodd" d="M47.46 111.948h43.315a5.394 5.394 0 0 0 5.375-5.404V30.646a5.394 5.394 0 0 0-5.375-5.404H47.461a5.394 5.394 0 0 0-5.375 5.404v75.898a5.395 5.395 0 0 0 5.375 5.404z" fill="#FED600"/>
        <path fill-rule="evenodd" clip-rule="evenodd" d="M42.815 42.959c0 .067 13.907.125 31.049.125 17.141 0 31.077-.03 31.077-.125 0-.096-13.897-.115-31.048-.115-17.151 0-31.078.115-31.078.115zM42.815 31.28c0 .066 13.907.124 31.049.124 17.141 0 31.077-.058 31.077-.125s-13.897-.115-31.048-.115c-17.151 0-31.049 0-31.049.115" fill="#FE86CF"/>
        <path fill-rule="evenodd" clip-rule="evenodd" d="M99.067 87.108a2.88 2.88 0 0 0 2.928-2.879V58.901a2.937 2.937 0 0 0-2.928-2.88 2.88 2.88 0 0 0-2.879 2.88v25.251a2.88 2.88 0 0 0 2.88 2.88" fill="#4E2253"/>
        <path fill-rule="evenodd" clip-rule="evenodd" d="M88.26 107.984a2.996 2.996 0 0 0 2.128-.884 3.007 3.007 0 0 0 .876-2.13V40.512a3.004 3.004 0 0 0-6.008 0v64.458a3.01 3.01 0 0 0 .877 2.13 2.996 2.996 0 0 0 2.127.884zM73.778 107.984a2.996 2.996 0 0 0 2.127-.884 3.008 3.008 0 0 0 .877-2.13V40.512a3.004 3.004 0 0 0-6.009 0v64.458a3.014 3.014 0 0 0 3.005 3.014zM59.295 107.984a3.015 3.015 0 0 0 2.127-.884 3 3 0 0 0 .877-2.13V40.512a3.004 3.004 0 1 0-5.999 0v64.458a3.006 3.006 0 0 0 2.995 3.014z" fill="#E0B100"/>
        <path fill-rule="evenodd" clip-rule="evenodd" d="M49.84 75.025a30.203 30.203 0 0 1-2.427 4.127 24.15 24.15 0 0 1-2.035 2.342c.71.557 1.507.144 2.236.384.36-.73.787-1.423 1.277-2.073a2.927 2.927 0 0 1 1.41-.96 2.284 2.284 0 0 1 2.362.442c.59.54 1.03 1.225 1.276 1.986.135.375.23.759.346 1.123a4.798 4.798 0 0 0 2.418.288 19.752 19.752 0 0 1-3.186-7.352c-1.22 0-2.41-.374-3.628-.24" fill="#FE86CF"/>
        <path fill-rule="evenodd" clip-rule="evenodd" d="M49.457 75.496c1.21-.144 2.38.268 3.59.23a29.753 29.753 0 0 1-.576-6.373c0-.317.326-.288.412-.633v-.644l-.47-.307c-.365-.355 0-.863-.384-1.18-.374.259-.096.7-.288 1.017-.192.317-.566 0-.71.355a.893.893 0 0 0 0 .835c.346.663 0 1.296-.125 1.92a15.358 15.358 0 0 1-1.535 4.568c.007.075.03.146.067.212" fill="#2BD5F7"/>
        <path fill-rule="evenodd" clip-rule="evenodd" d="M45.042 81.84a23.794 23.794 0 0 0 2.006-2.343 29.442 29.442 0 0 0 2.39-4.117.757.757 0 0 1-.058-.211 14.751 14.751 0 0 0 1.526-4.511c.125-.614.48-1.238.125-1.92a.864.864 0 0 1 0-.825c.134-.336.528-.163.71-.346.183-.326-.096-.758.279-1.017.441.317 0 .826.383 1.171l.47.307v.634c-.086.336-.431.307-.412.623a29.02 29.02 0 0 0 .576 6.297 19.964 19.964 0 0 0 3.138 7.352 4.635 4.635 0 0 1-2.39-.298c-.105-.355-.21-.74-.335-1.113a4.664 4.664 0 0 0-1.258-1.987 2.227 2.227 0 0 0-2.332-.442 2.879 2.879 0 0 0-1.392.96c-.483.65-.904 1.344-1.257 2.073-.72-.24-1.507.173-2.207-.384l.038.096zm5.384-18.582a170.135 170.135 0 0 1-6.536 3.695 3.417 3.417 0 0 0-1.804 3.024v10.47c.47.99.902 1.863 1.43 2.822 1.843 1.488 3.58 3.11 5.48 4.511.28.228.545.472.797.73.787.144 1.343-.375 1.92-.71 1.046-.634 2.14-1.171 3.205-1.776 2.975-1.67 5.989-3.263 8.983-4.904l2.438-1.344a3.444 3.444 0 0 0 .528-5.644L54.39 63.71a3.387 3.387 0 0 0-3.839-.355" fill="#A9497A"/>
        <path fill-rule="evenodd" clip-rule="evenodd" d="m12.938 37.383-.068-5.173a.96.96 0 0 1 .874-.96.902.902 0 0 1 .835.528l1.727 3.695 18.764-.057a4.358 4.358 0 0 1 3.753 2.12c.213.553.33 1.137.345 1.728l-9.252.355-7.17 6.517a4.27 4.27 0 0 1-2.399 1.085l-1.132.124 5.029-7.6-9.07-.097a2.246 2.246 0 0 1-1.41-.47 2.34 2.34 0 0 1-.865-1.795" fill="#009497"/>
        <path fill-rule="evenodd" clip-rule="evenodd" d="M22.449 35.282h4.3L22.4 31.644a3.236 3.236 0 0 0-2.687-.662h-.26l2.995 4.3z" fill="#16ADAD"/>
        <path fill-rule="evenodd" clip-rule="evenodd" d="M39.168 63.595a.653.653 0 0 1-.307.643 2.879 2.879 0 0 1-.825.537c-1.392.298-1.824 1.42-2.37 2.476-.548 1.056-1.239 1.094-1.738.087a5.385 5.385 0 0 0-2.947-2.88.826.826 0 0 1 0-1.583 5.182 5.182 0 0 0 2.937-2.88c.442-.96 1.248-.873 1.7.087.517 1.123 1.045 2.169 2.418 2.534a1.516 1.516 0 0 1 1.103 1.027M31.125 11.729a.624.624 0 0 1-.297.633c-.279.192-.528.48-.835.538-1.382.297-1.814 1.43-2.361 2.476-.547 1.046-1.248 1.094-1.737.086a5.413 5.413 0 0 0-2.947-2.879.825.825 0 0 1 0-1.584 5.135 5.135 0 0 0 2.937-2.879c.451-.96 1.257-.883 1.699.077.576 1.094 1.075 2.13 2.495 2.495a1.497 1.497 0 0 1 1.094 1.037M116.881 51.127a.387.387 0 0 1-.173.374c-.13.13-.283.233-.451.308-.758.163-.96.815-1.296 1.42-.336.605-.681.633-.96 0a3.039 3.039 0 0 0-1.602-1.632.492.492 0 0 1-.393-.48.493.493 0 0 1 .393-.48 2.883 2.883 0 0 0 1.612-1.66c.24-.556.681-.508.96.048a2.173 2.173 0 0 0 1.324 1.46.833.833 0 0 1 .605.585" fill="#FBCF1F"/>
    </g>
    <defs>
        <clipPath id="kow0xv9c3a">
            <path fill="#fff" d="M0 0h140.03v120H0z"/>
        </clipPath>
    </defs>
</svg>
