<?xml version="1.0" encoding="utf-8"?>
<!-- Generator: Adobe Illustrator 25.4.1, SVG Export Plug-In . SVG Version: 6.00 Build 0)  -->
<svg width="186" height="186" viewBox="0 0 186 186" fill="none" xmlns="http://www.w3.org/2000/svg">
<g opacity="0.3">
<path d="M90.8 173.714C136.529 173.714 173.6 136.618 173.6 90.8571C173.6 45.0964 136.529 8 90.8 8C45.0708 8 8 45.0964 8 90.8571C8 136.618 45.0708 173.714 90.8 173.714Z" fill="#551B57" style="mix-blend-mode:difference"/>
</g>
<g filter="url(#filter0_d_9659_485958)">
<circle cx="91" cy="91" r="83" fill="white"/>
</g>
<path opacity="0.3" d="M91.9795 141.297C124.047 141.297 150.043 139.766 150.043 137.879C150.043 135.991 124.047 134.461 91.9795 134.461C59.9119 134.461 33.916 135.991 33.916 137.879C33.916 139.766 59.9119 141.297 91.9795 141.297Z" fill="#F58000"/>
<path d="M134.828 43.3174H49.1301C46.3864 43.3174 44.1621 45.5432 44.1621 48.2888V119.007C44.1621 121.753 46.3864 123.979 49.1301 123.979H134.828C137.572 123.979 139.796 121.753 139.796 119.007V48.2888C139.796 45.5432 137.572 43.3174 134.828 43.3174Z" fill="white" stroke="#F58000" stroke-width="2" stroke-linejoin="round"/>
<path d="M49.1305 43.3174H134.829C135.481 43.3174 136.127 43.446 136.73 43.6958C137.332 43.9456 137.88 44.3118 138.341 44.7735C138.803 45.2351 139.169 45.7832 139.418 46.3863C139.668 46.9895 139.797 47.6359 139.797 48.2888V67.9052H44.2246V48.2888C44.2245 46.981 44.7394 45.7258 45.6577 44.7953C46.576 43.8647 47.8237 43.3337 49.1305 43.3174V43.3174Z" fill="#EDB39D"/>
<path d="M139.797 84.332V118.511C139.797 119.961 139.221 121.352 138.196 122.377C137.171 123.403 135.781 123.979 134.332 123.979H96.0781C96.0781 123.979 117.937 117.143 139.797 84.332Z" fill="white"/>
<path d="M139.797 84.332V118.511C139.797 119.961 139.221 121.352 138.196 122.377C137.171 123.403 135.781 123.979 134.332 123.979H96.0781C96.0781 123.979 117.937 117.143 139.797 84.332Z" stroke="#F58000" stroke-width="2" stroke-linejoin="round"/>
<path d="M49.1305 43.3174H134.829C135.481 43.3174 136.127 43.446 136.73 43.6958C137.332 43.9456 137.88 44.3118 138.341 44.7735C138.803 45.2351 139.169 45.7832 139.418 46.3863C139.668 46.9895 139.797 47.6359 139.797 48.2888V67.9052H44.2246V48.2888C44.2245 46.981 44.7394 45.7258 45.6577 44.7953C46.576 43.8647 47.8237 43.3337 49.1305 43.3174V43.3174Z" stroke="#F58000" stroke-width="2" stroke-linejoin="round"/>
<path d="M64.655 51.5206C63.0174 51.5206 61.4165 51.0347 60.0549 50.1243C58.6932 49.2138 57.632 47.9198 57.0053 46.4057C56.3786 44.8917 56.2146 43.2257 56.5341 41.6185C56.8536 40.0112 57.6422 38.5348 58.8002 37.3761C59.9581 36.2173 61.4335 35.4281 63.0397 35.1084C64.6458 34.7887 66.3107 34.9528 67.8236 35.5799C69.3366 36.2071 70.6298 37.2691 71.5396 38.6316C72.4494 39.9942 72.935 41.5962 72.935 43.2349" stroke="#F58000" stroke-width="2" stroke-linecap="round" stroke-linejoin="round"/>
<path d="M93.3464 51.5206C91.7088 51.5206 90.1079 51.0347 88.7463 50.1243C87.3847 49.2138 86.3234 47.9198 85.6967 46.4057C85.07 44.8917 84.906 43.2257 85.2255 41.6185C85.545 40.0112 86.3336 38.5348 87.4916 37.3761C88.6495 36.2173 90.1249 35.4281 91.7311 35.1084C93.3372 34.7887 95.0021 34.9528 96.515 35.5799C98.028 36.2071 99.3212 37.2691 100.231 38.6316C101.141 39.9942 101.626 41.5962 101.626 43.2349" stroke="#F58000" stroke-width="2" stroke-linecap="round" stroke-linejoin="round"/>
<path d="M122.036 51.5206C120.398 51.5206 118.797 51.0347 117.436 50.1243C116.074 49.2138 115.013 47.9198 114.386 46.4057C113.759 44.8917 113.595 43.2257 113.915 41.6185C114.234 40.0112 115.023 38.5348 116.181 37.3761C117.339 36.2173 118.814 35.4281 120.421 35.1084C122.027 34.7887 123.692 34.9528 125.204 35.5799C126.717 36.2071 128.011 37.2691 128.92 38.6316C129.83 39.9942 130.316 41.5962 130.316 43.2349" stroke="#F58000" stroke-width="2" stroke-linecap="round" stroke-linejoin="round"/>
<path d="M44.1621 81.5977H139.796" stroke="#F58000" stroke-width="2" stroke-linecap="round" stroke-linejoin="round"/>
<path d="M44.1621 95.2695H101.315" stroke="#F58000" stroke-width="2" stroke-linecap="round" stroke-linejoin="round"/>
<path d="M44.1621 108.94H101.315" stroke="#F58000" stroke-width="2" stroke-linecap="round" stroke-linejoin="round"/>
<path d="M63.2891 67.9258V123.979" stroke="#F58000" stroke-width="2" stroke-linecap="round" stroke-linejoin="round"/>
<path d="M82.416 67.9258V123.979" stroke="#F58000" stroke-width="2" stroke-linecap="round" stroke-linejoin="round"/>
<path d="M101.543 67.9258V86.4858" stroke="#F58000" stroke-width="2" stroke-linecap="round" stroke-linejoin="round"/>
<path d="M120.67 67.9258V88.9715" stroke="#F58000" stroke-width="2" stroke-linecap="round" stroke-linejoin="round"/>
<path d="M63.2889 81.5977H44.1621V95.2691H63.2889V81.5977Z" fill="#EDB39D" stroke="#F58000" stroke-width="2" stroke-linejoin="round"/>
<path d="M82.4159 108.94H63.2891V123.979H82.4159V108.94Z" fill="#EDB39D" stroke="#F58000" stroke-width="2" stroke-linejoin="round"/>
<path d="M101.543 67.9258H82.416V81.5972H101.543V67.9258Z" fill="#EDB39D" stroke="#F58000" stroke-width="2" stroke-linejoin="round"/>
<path d="M139.797 84.332C117.937 117.143 96.0781 123.979 96.0781 123.979C99.1851 118.537 101.1 112.496 101.696 106.257C102.292 100.018 101.555 93.7237 99.535 87.7913C99.4652 87.5972 99.4494 87.3878 99.4893 87.1854C99.5291 86.9831 99.6231 86.7953 99.7612 86.6422C99.8994 86.4891 100.076 86.3764 100.274 86.3161C100.471 86.2558 100.68 86.2502 100.881 86.2999C107.194 88.0192 126.238 92.2449 139.797 84.332Z" fill="white" stroke="#F58000" stroke-width="2" stroke-linecap="round" stroke-linejoin="round"/>
<path d="M78.3184 59.7236H105.642" stroke="#F58000" stroke-width="2" stroke-linecap="round" stroke-linejoin="round"/>
<path d="M120.67 59.7236H131.6" stroke="#F58000" stroke-width="2" stroke-linecap="round" stroke-linejoin="round"/>
<path d="M63.289 59.7236H52.3594" stroke="#F58000" stroke-width="2" stroke-linecap="round" stroke-linejoin="round"/>
<defs>
<filter id="filter0_d_9659_485958" x="0" y="0" width="186" height="186" filterUnits="userSpaceOnUse" color-interpolation-filters="sRGB">
<feFlood flood-opacity="0" result="BackgroundImageFix"/>
<feColorMatrix in="SourceAlpha" type="matrix" values="0 0 0 0 0 0 0 0 0 0 0 0 0 0 0 0 0 0 127 0" result="hardAlpha"/>
<feOffset dx="2" dy="2"/>
<feGaussianBlur stdDeviation="5"/>
<feComposite in2="hardAlpha" operator="out"/>
<feColorMatrix type="matrix" values="0 0 0 0 0 0 0 0 0 0 0 0 0 0 0 0 0 0 0.1 0"/>
<feBlend mode="normal" in2="BackgroundImageFix" result="effect1_dropShadow_9659_485958"/>
<feBlend mode="normal" in="SourceGraphic" in2="effect1_dropShadow_9659_485958" result="shape"/>
</filter>
</defs>
</svg>