<svg width="98" height="98" viewBox="0 0 98 98" fill="none" xmlns="http://www.w3.org/2000/svg">
    <path fill-rule="evenodd" clip-rule="evenodd" d="M67.53 94H28.553A5.553 5.553 0 0 1 23 88.448V8.552A5.553 5.553 0 0 1 28.554 3H67.53a5.553 5.553 0 0 1 5.554 5.552v79.896A5.553 5.553 0 0 1 67.53 94z" fill="#090E2B"/>
    <path fill-rule="evenodd" clip-rule="evenodd" d="M66.08 6.733h-5.903v1.522a3.76 3.76 0 0 1-3.763 3.756H39.668a3.76 3.76 0 0 1-3.763-3.756V6.733h-5.902A3.268 3.268 0 0 0 26.733 10v76.925a3.268 3.268 0 0 0 3.27 3.265H66.08a3.268 3.268 0 0 0 3.27-3.265V9.999a3.268 3.268 0 0 0-3.27-3.266z" fill="#fff"/>
    <path clip-rule="evenodd" d="M37.684 71.523h-4.715a2.028 2.028 0 0 1-2.036-2.02V64.83c0-1.115.911-2.018 2.036-2.018h4.715c1.125 0 2.037.903 2.037 2.018v4.674a2.028 2.028 0 0 1-2.037 2.019z" stroke="#C7D2F2" stroke-width="5" stroke-linecap="round" stroke-linejoin="round" stroke-dasharray="10 12"/>
    <path fill-rule="evenodd" clip-rule="evenodd" d="M37.587 71.632h-4.67a2.03 2.03 0 0 1-2.018-2.04v-4.724a2.03 2.03 0 0 1 2.017-2.04h4.671a2.03 2.03 0 0 1 2.018 2.04v4.723a2.03 2.03 0 0 1-2.018 2.04z" fill="#0097A9"/>
    <path fill-rule="evenodd" clip-rule="evenodd" d="M63.68 44.773H32.942c-1.128 0-2.043-.904-2.043-2.02V26.22c0-1.115.915-2.019 2.043-2.019H63.68c1.129 0 2.044.904 2.044 2.02v16.533c0 1.115-.915 2.019-2.044 2.019z" fill="#F58000"/>
    <path fill-rule="evenodd" clip-rule="evenodd" d="M37.587 58.605h-4.67a2.019 2.019 0 0 1-2.018-2.02v-4.674c0-1.115.903-2.02 2.017-2.02h4.671c1.114 0 2.018.905 2.018 2.02v4.675c0 1.115-.903 2.02-2.018 2.02z" fill="#B73F7C"/>
    <path d="M65.274 49.892h-22.17a.449.449 0 0 0 0 .898h22.17a.449.449 0 0 0 0-.898zM65.274 63.547h-22.17a.449.449 0 0 0 0 .898h22.17a.449.449 0 0 0 0-.898zM59.44 53.217H43.105a.449.449 0 0 0 0 .898H59.44a.449.449 0 0 0 0-.898zM59.44 66.781H43.105a.449.449 0 0 0 0 .899H59.44a.449.449 0 0 0 0-.899zM55.536 56.54H43.15a.494.494 0 0 0 0 .988h12.386a.494.494 0 0 0 0-.988zM55.58 70.105H43.106a.449.449 0 0 0 0 .898H55.58a.449.449 0 0 0 0-.898z" fill="#E7EAFD"/>
    <path opacity=".3" d="M49 98c27.062 0 49-21.938 49-49S76.062 0 49 0 0 21.938 0 49s21.938 49 49 49z" fill="#D9D9D9"/>
</svg>
