<svg width="402" height="252" viewBox="0 0 402 252" fill="none" xmlns="http://www.w3.org/2000/svg">
<path d="M173.751 42.8799C173.94 42.8799 174.094 43.0337 174.094 43.2232C174.094 43.406 173.951 43.5555 173.771 43.5659L173.751 43.5665L164.572 43.5664V50.37L183.689 50.3701C183.871 50.3701 184.021 50.513 184.031 50.6932L184.032 50.7134C184.032 50.8962 183.889 51.0456 183.709 51.056L183.689 51.0566L174.094 51.0565V57.8604L183.689 57.8604C183.878 57.8604 184.032 58.0141 184.032 58.2037C184.032 58.3865 183.889 58.5359 183.709 58.5464L183.689 58.547L164.572 58.5469V65.3503L183.689 65.3504C183.871 65.3504 184.021 65.4933 184.031 65.6734L184.032 65.6936C184.032 65.8764 183.889 66.0258 183.709 66.0363L183.689 66.0369L173.755 66.0368L173.751 66.037L154.634 66.0369V72.8405L164.229 72.8406C164.411 72.8406 164.561 72.9835 164.571 73.1637L164.572 73.1839C164.572 73.3667 164.429 73.5161 164.249 73.5265L164.229 73.5271H154.291C154.108 73.5271 153.959 73.3842 153.948 73.204L153.948 73.1839L153.948 66.0367L148.651 66.0368C148.462 66.0368 148.308 65.8831 148.308 65.6935C148.308 65.5107 148.451 65.3613 148.631 65.3508L148.651 65.3502L163.886 65.3502V58.5468L148.651 58.5468C148.469 58.5468 148.319 58.4039 148.309 58.2238L148.308 58.2036C148.308 58.0208 148.451 57.8714 148.631 57.8609L148.651 57.8603L153.948 57.8603V51.0564L144.769 51.0565C144.579 51.0565 144.426 50.9029 144.426 50.7133C144.426 50.5305 144.568 50.381 144.749 50.3706L144.769 50.37L163.886 50.3699V43.5664H157.177C156.995 43.5664 156.845 43.4235 156.835 43.2433L156.834 43.2231C156.834 43.0403 156.977 42.8909 157.157 42.8805L157.177 42.8799H173.751ZM173.408 51.0566H154.634V57.8603H173.408V51.0566Z" fill="black" fill-opacity="0.08"/>
<path d="M287.167 98.6616C287.349 98.6616 287.499 98.8045 287.509 98.9847L287.51 99.0049L287.51 106.152L297.105 106.152C297.294 106.152 297.448 106.306 297.448 106.495C297.448 106.678 297.305 106.827 297.125 106.838L297.105 106.838L277.988 106.838V113.642L289.187 113.642C289.37 113.642 289.519 113.785 289.53 113.965L289.53 113.985C289.53 114.168 289.388 114.317 289.208 114.328L289.187 114.328H267.656C267.467 114.328 267.313 114.174 267.313 113.985C267.313 113.802 267.456 113.653 267.636 113.642L267.656 113.642L277.302 113.642L277.301 106.838L267.656 106.838C267.473 106.838 267.324 106.695 267.314 106.515L267.313 106.495C267.313 106.429 267.332 106.368 267.363 106.316L267.364 99.0049C267.364 98.8221 267.506 98.6726 267.686 98.6622L267.707 98.6616H287.167ZM286.824 99.348H268.05V106.152H286.824V99.348Z" fill="black" fill-opacity="0.08"/>
<path fill-rule="evenodd" clip-rule="evenodd" d="M178.954 138.197H268.707V0.436035H178.954V138.197Z" fill="#E7EAFD"/>
<path fill-rule="evenodd" clip-rule="evenodd" d="M183.872 67.2535H221.717V6.03906H183.872V67.2535Z" fill="white"/>
<path fill-rule="evenodd" clip-rule="evenodd" d="M225.946 67.2535H263.791V6.03906H225.946V67.2535Z" fill="white"/>
<path fill-rule="evenodd" clip-rule="evenodd" d="M183.872 132.711H221.717V71.4961H183.872V132.711Z" fill="white"/>
<path fill-rule="evenodd" clip-rule="evenodd" d="M225.946 132.711H263.791V71.4961H225.946V132.711Z" fill="white"/>
<path fill-rule="evenodd" clip-rule="evenodd" d="M178.954 197.466H200.221V0.436035H178.954V197.466Z" fill="#C7D2F2"/>
<path fill-rule="evenodd" clip-rule="evenodd" d="M196.052 31.1153L195.992 52.4112L195.876 95.0042L195.99 137.597L196.051 158.894L196.219 180.19L196.387 158.894L196.446 137.597L196.561 95.0042L196.446 52.4112L196.385 31.1153L196.219 9.81885L196.052 31.1153Z" fill="white"/>
<path fill-rule="evenodd" clip-rule="evenodd" d="M186.217 33.7584L186.121 52.7812L186.041 90.8253L186.12 128.87L186.216 147.892L186.383 166.914L186.552 147.892L186.648 128.87L186.727 90.8253L186.647 52.7812L186.551 33.7584L186.383 14.7363L186.217 33.7584Z" fill="white"/>
<path fill-rule="evenodd" clip-rule="evenodd" d="M191.134 41.5908L191.074 63.8601L190.959 108.398L191.073 152.936L191.133 175.205L191.301 197.473L191.469 175.205L191.529 152.936L191.643 108.398L191.528 63.8601L191.468 41.5908L191.301 19.3223L191.134 41.5908Z" fill="white"/>
<path fill-rule="evenodd" clip-rule="evenodd" d="M182.675 34.2809L182.614 57.5942L182.499 104.22L182.613 150.846L182.674 174.159L182.842 197.472L183.01 174.159L183.07 150.846L183.184 104.22L183.069 57.5942L183.009 34.2809L182.842 10.9683L182.675 34.2809Z" fill="white"/>
<path fill-rule="evenodd" clip-rule="evenodd" d="M247.44 197.466H268.706V0.436035H247.44V197.466Z" fill="#C7D2F2"/>
<path fill-rule="evenodd" clip-rule="evenodd" d="M251.275 31.1153L251.215 52.4112L251.1 95.0042L251.214 137.597L251.274 158.894L251.442 180.19L251.61 158.894L251.671 137.597L251.784 95.0042L251.67 52.4112L251.609 31.1153L251.442 9.81885L251.275 31.1153Z" fill="white"/>
<path fill-rule="evenodd" clip-rule="evenodd" d="M261.109 33.7584L261.014 52.7812L260.933 90.8253L261.012 128.87L261.108 147.892L261.276 166.914L261.444 147.892L261.54 128.87L261.619 90.8253L261.538 52.7812L261.443 33.7584L261.276 14.7363L261.109 33.7584Z" fill="white"/>
<path fill-rule="evenodd" clip-rule="evenodd" d="M256.192 41.5908L256.131 63.8601L256.016 108.398L256.131 152.936L256.19 175.205L256.359 197.473L256.527 175.205L256.587 152.936L256.701 108.398L256.586 63.8601L256.525 41.5908L256.359 19.3223L256.192 41.5908Z" fill="white"/>
<path fill-rule="evenodd" clip-rule="evenodd" d="M264.653 34.2809L264.592 57.5942L264.477 104.22L264.592 150.846L264.651 174.159L264.82 197.472L264.988 174.159L265.048 150.846L265.162 104.22L265.047 57.5942L264.986 34.2809L264.82 10.9683L264.653 34.2809Z" fill="white"/>
<path fill-rule="evenodd" clip-rule="evenodd" d="M127.904 46.3817C127.904 55.9613 120.239 63.7272 110.785 63.7272C101.33 63.7272 93.666 55.9613 93.666 46.3817C93.666 36.802 101.33 29.0361 110.785 29.0361C120.239 29.0361 127.904 36.802 127.904 46.3817Z" fill="#C7D2F2"/>
<path fill-rule="evenodd" clip-rule="evenodd" d="M126.046 46.3839C126.046 54.9246 119.213 61.8484 110.783 61.8484C102.354 61.8484 95.5211 54.9246 95.5211 46.3839C95.5211 37.8432 102.354 30.9194 110.783 30.9194C119.213 30.9194 126.046 37.8432 126.046 46.3839Z" fill="#F9FAFA"/>
<path fill-rule="evenodd" clip-rule="evenodd" d="M112.062 46.368C112.062 47.0829 111.49 47.6627 110.784 47.6627C110.078 47.6627 109.506 47.0829 109.506 46.368C109.506 45.6526 110.078 45.0728 110.784 45.0728C111.49 45.0728 112.062 45.6526 112.062 46.368Z" fill="#C7D2F2"/>
<path fill-rule="evenodd" clip-rule="evenodd" d="M110.496 34.3113H111.11V31.4824H110.496V34.3113Z" fill="#C7D2F2"/>
<path fill-rule="evenodd" clip-rule="evenodd" d="M110.496 61.2967H111.11V58.4678H110.496V61.2967Z" fill="#C7D2F2"/>
<path fill-rule="evenodd" clip-rule="evenodd" d="M122.724 46.6987H125.515V46.0767H122.724V46.6987Z" fill="#C7D2F2"/>
<path fill-rule="evenodd" clip-rule="evenodd" d="M96.0901 46.6987H98.8821V46.0767H96.0901V46.6987Z" fill="#C7D2F2"/>
<path fill-rule="evenodd" clip-rule="evenodd" d="M110.464 45.9263L110.808 36.1191L111.152 45.9263H110.464Z" fill="#C7D2F2"/>
<path fill-rule="evenodd" clip-rule="evenodd" d="M110.409 46.56L103.814 39.3735L110.895 46.068L110.409 46.56Z" fill="#C7D2F2"/>
<path d="M305.12 23.5513C305.309 23.5513 305.463 23.705 305.463 23.8946C305.463 24.0774 305.32 24.2269 305.14 24.2373L305.12 24.2379L295.94 24.2378V31.0414L310.512 31.0415C310.695 31.0415 310.844 31.1844 310.855 31.3646L310.855 31.3848C310.855 31.5676 310.712 31.717 310.532 31.7274L310.512 31.728L305.463 31.7279V38.5318L315.057 38.5318C315.247 38.5318 315.4 38.6855 315.4 38.8751C315.4 39.0579 315.258 39.2073 315.078 39.2178L315.057 39.2184L295.94 39.2183V46.0217L307.14 46.0217C307.323 46.0217 307.472 46.1646 307.483 46.3448L307.483 46.365C307.483 46.5478 307.34 46.6972 307.16 46.7077L307.14 46.7083H295.598H295.593H285.609C285.42 46.7083 285.266 46.5545 285.266 46.3649C285.266 46.1821 285.409 46.0326 285.589 46.0222L285.609 46.0216L295.254 46.0216L295.254 39.2183L285.609 39.2182C285.426 39.2182 285.277 39.0753 285.267 38.8951L285.266 38.875C285.266 38.8093 285.284 38.748 285.316 38.6958V31.5638C285.284 31.5117 285.266 31.4503 285.266 31.3847C285.266 31.2019 285.409 31.0524 285.589 31.042L285.609 31.0414L295.254 31.0413V24.2378H288.546C288.364 24.2378 288.214 24.0949 288.204 23.9147L288.203 23.8945C288.203 23.7117 288.346 23.5623 288.526 23.5519L288.546 23.5513H305.12ZM304.777 31.728H286.002V38.5316H304.777V31.728Z" fill="black" fill-opacity="0.08"/>
<path fill-rule="evenodd" clip-rule="evenodd" d="M284.462 203.917C284.462 203.917 284.481 197.373 281.962 192.186C278.968 186.022 267.871 178.314 261.304 180.28C258.392 181.152 263.768 188.853 271.598 196.853C274.895 200.222 283.007 205.343 284.462 203.917Z" fill="#009BA0"/>
<path fill-rule="evenodd" clip-rule="evenodd" d="M286.166 187.962C286.166 187.962 288.195 184.836 288.481 177.783C288.698 172.439 286.379 168.338 285.177 166.429C283.827 164.284 281.172 160.736 279.582 163.777C277.991 166.819 277.131 173.823 278.634 178.594C280.138 183.364 282.507 186.775 286.166 187.962Z" fill="#009BA0"/>
<path fill-rule="evenodd" clip-rule="evenodd" d="M278.968 212.02C278.968 212.02 275.127 215.814 266.965 214.744C259.688 213.789 255.156 210.115 255.215 208.412C255.274 206.709 263.892 202.943 270.932 205.626C277.971 208.31 278.968 212.02 278.968 212.02Z" fill="#009BA0"/>
<path fill-rule="evenodd" clip-rule="evenodd" d="M294.464 205.283C294.464 205.283 291.388 201.42 291.471 192.26C291.554 183.1 296.279 172.19 297.817 172.055C299.356 171.92 301.72 177.326 301.129 189.274C300.817 195.58 299.143 202.097 294.464 205.283Z" fill="#009BA0"/>
<path fill-rule="evenodd" clip-rule="evenodd" d="M299.913 210.055C299.913 210.055 304.814 211.723 308.996 209.389C314.942 206.07 317.664 201.316 317.786 198.405C317.907 195.494 311.677 197.612 308.757 199.208C305.816 200.817 299.454 206.788 299.913 210.055Z" fill="#009BA0"/>
<path fill-rule="evenodd" clip-rule="evenodd" d="M297.391 179.564C297.138 187.103 296.59 194.645 295.292 202.084C294.624 205.805 293.678 209.462 292.629 213.086C291.579 216.682 290.319 220.266 290.389 224.054C290.399 224.345 289.922 224.361 289.931 224.053C289.874 220.232 291.164 216.579 292.237 212.971C293.299 209.363 294.258 205.716 294.939 202.019C296.265 194.612 296.846 187.073 297.131 179.557C297.13 179.498 297.168 178.765 297.214 178.749C297.443 178.669 297.396 179.454 297.391 179.564Z" fill="black"/>
<path fill-rule="evenodd" clip-rule="evenodd" d="M282.773 170.003C284.07 176.668 285.402 183.415 286.837 190.056C288.879 201.257 289.614 212.666 289.65 224.04C289.652 224.321 289.189 224.348 289.192 224.04C289.156 212.696 288.424 201.311 286.387 190.142C284.977 183.503 283.686 176.735 282.502 170.054C282.485 169.972 282.338 168.985 282.49 169.02C282.559 169.036 282.758 169.913 282.773 170.003Z" fill="black"/>
<path fill-rule="evenodd" clip-rule="evenodd" d="M267.968 184.391C282.617 195.794 288.04 205.919 288.739 224.559C288.742 224.848 288.273 224.869 288.281 224.556C287.982 212.879 284.932 200.952 276.403 192.531C273.747 189.683 270.379 186.667 267.299 184.288C267.191 184.216 266.895 183.924 267.121 183.974C267.251 184.002 267.904 184.34 267.968 184.391Z" fill="black"/>
<path fill-rule="evenodd" clip-rule="evenodd" d="M260.295 208.55C266.048 208.122 271.927 208.853 277.312 210.973C282.881 213.105 286.393 218.664 287.3 224.392C287.349 224.677 286.904 224.769 286.85 224.473C285.106 214.521 278.32 210.448 268.878 209.139C266.045 208.727 262.904 208.528 260.042 208.727C259.917 208.742 260.155 208.56 260.295 208.55Z" fill="black"/>
<path fill-rule="evenodd" clip-rule="evenodd" d="M312.347 201.241C303.425 207.01 292.903 213.766 291.289 225.165C291.252 225.457 290.778 225.391 290.838 225.091C291.997 216.572 298.546 210.245 305.263 205.542C307.521 203.946 309.823 202.419 312.164 200.947C312.255 200.89 313.085 200.425 313.082 200.591C313.081 200.678 312.446 201.18 312.347 201.241Z" fill="black"/>
<path fill-rule="evenodd" clip-rule="evenodd" d="M293.376 238.523H284.867C282.296 238.523 280.211 235.521 280.211 232.948V219.773H298.033V232.948C298.033 235.521 295.948 238.523 293.376 238.523Z" fill="#FFB201"/>
<path fill-rule="evenodd" clip-rule="evenodd" d="M98.6372 119.489C95.3686 112.846 92.1962 110.43 91.1895 109.654C92.1188 111.516 99.4588 132.718 100.474 138.27C97.0667 131.55 95.3097 130.098 94.6744 129.444C92.9547 127.675 90.8023 126.417 89.5631 125.797C90.1056 126.551 96.4556 134.179 98.7015 140.853L100.483 144.035H109.389C109.389 144.035 110.318 140.944 111.789 139.579C113.261 138.214 118.806 131.381 119.658 127.345C117.602 129.727 111.066 138.214 109.903 139.579C112.769 131.462 113.199 130.712 115.648 126.211C118.097 121.709 123.174 115.119 123.406 114.964C120.773 116.361 113.031 121.243 109.36 130.914C107.825 134.956 107.345 137.53 107.345 137.53C107.345 137.53 109.003 129.452 108.925 121.536C108.848 113.619 109.389 95.8643 109.389 95.8643C109.389 95.8643 105.859 102.064 104.551 112.115C104.067 115.831 103.659 131.099 103.814 134.792C103.814 134.792 101.811 125.939 98.6372 119.489Z" fill="#009BA0"/>
<path fill-rule="evenodd" clip-rule="evenodd" d="M109.986 153.416H99.726C98.2179 153.416 96.9954 151.33 96.9954 149.816V139.571H113.002V149.529C113.002 151.194 111.645 153.416 109.986 153.416Z" fill="#FFB201"/>
<path fill-rule="evenodd" clip-rule="evenodd" d="M67.1334 238.856H126.701V156.36H67.1334V238.856Z" fill="#F0F1FF"/>
<path fill-rule="evenodd" clip-rule="evenodd" d="M64.2744 156.367H129.559V153.277H64.2744V156.367Z" fill="white"/>
<path fill-rule="evenodd" clip-rule="evenodd" d="M129.559 156.367H150.139V153.277H129.559V156.367Z" fill="#BACCFF"/>
<path fill-rule="evenodd" clip-rule="evenodd" d="M126.698 238.856H146.821V156.36H126.698V238.856Z" fill="#C7D2F2"/>
<path fill-rule="evenodd" clip-rule="evenodd" d="M73.6511 194.469H120.185V168.152H73.6511V194.469Z" stroke="white" stroke-width="6"/>
<path fill-rule="evenodd" clip-rule="evenodd" d="M92.6327 181.073H101.779V175.81H92.6327V181.073Z" fill="white"/>
<path fill-rule="evenodd" clip-rule="evenodd" d="M73.6511 227.645H120.185V201.328H73.6511V227.645Z" stroke="white" stroke-width="6"/>
<path fill-rule="evenodd" clip-rule="evenodd" d="M92.6327 214.26H101.779V208.997H92.6327V214.26Z" fill="white"/>
<path d="M351.666 238.433C351.847 238.433 351.994 238.784 351.994 239.216C351.994 239.634 351.857 239.975 351.684 239.998L351.666 239.999H50.3282C50.1469 239.999 50 239.648 50 239.216C50 238.798 50.1373 238.457 50.3101 238.434L50.3282 238.433H351.666Z" fill="#090E2B"/>
<path d="M326.068 30.3555H227.033C222.516 30.3555 218.855 34.0256 218.855 38.553V107.207C218.855 111.734 222.516 115.405 227.033 115.405H326.068C330.585 115.405 334.246 111.734 334.246 107.207V38.553C334.246 34.0256 330.585 30.3555 326.068 30.3555Z" fill="#090E2B"/>
<path d="M320.317 26.1279H221.282C216.765 26.1279 213.104 29.7981 213.104 34.3254V102.98C213.104 107.507 216.765 111.177 221.282 111.177H320.317C324.834 111.177 328.495 107.507 328.495 102.98V34.3254C328.495 29.7981 324.834 26.1279 320.317 26.1279Z" fill="white"/>
<path d="M320.318 25.7446H221.283C216.555 25.7446 212.722 29.5868 212.722 34.3264V102.981C212.722 107.72 216.555 111.562 221.283 111.562H320.318C325.047 111.562 328.88 107.72 328.88 102.981V34.3264C328.88 29.5868 325.047 25.7446 320.318 25.7446ZM221.283 26.5131H320.318C324.623 26.5131 328.113 30.0113 328.113 34.3264V102.981C328.113 107.296 324.623 110.794 320.318 110.794H221.283C216.978 110.794 213.488 107.296 213.488 102.981V34.3264C213.488 30.0113 216.978 26.5131 221.283 26.5131Z" fill="#090E2B"/>
<path d="M298.805 50.8579C305.368 49.2425 311.456 56.6051 317.301 72.6166C317.447 73.0152 317.242 73.4566 316.845 73.6024C316.447 73.7483 316.007 73.5434 315.861 73.1448C310.27 57.8289 304.629 51.0071 299.171 52.3505C296.17 53.0892 293.68 54.9894 291.375 58.089L291.216 58.3045C289.586 60.5306 288.376 62.7503 286.039 67.5417L285.243 69.1765C282.862 74.0455 281.623 76.2764 279.847 78.6393C277.307 82.0194 274.482 84.1162 271.023 84.8861C268.554 85.4353 266.543 84.4383 264.845 82.142L264.793 82.072C263.559 80.3776 262.674 78.4514 261.114 74.436L260.63 73.1896C259.141 69.3638 258.267 67.4584 257.106 65.7889C255.639 63.682 254.058 62.6931 252.122 62.8104C244.999 63.2421 237.326 71.2888 229.249 87.0496C229.056 87.4272 228.593 87.576 228.217 87.3821C227.84 87.1881 227.692 86.7249 227.885 86.3473C236.191 70.1412 244.19 61.7512 252.029 61.2762C254.546 61.1237 256.577 62.3771 258.311 64.8347L258.363 64.9095C259.592 66.6753 260.487 68.6067 261.964 72.3871L262.632 74.1084C264.071 77.7989 264.91 79.6112 265.998 81.1187L266.032 81.1657C267.411 83.0597 268.863 83.7921 270.69 83.3856C273.753 82.704 276.285 80.8247 278.622 77.7145L278.784 77.4981C280.418 75.2869 281.633 73.0729 283.947 68.3339L284.742 66.702C287.119 61.8337 288.351 59.5945 290.09 57.2453L290.145 57.1703C292.647 53.8068 295.419 51.6914 298.805 50.8579Z" fill="#FFB201"/>
<path d="M312.582 52.4331C312.689 52.0225 313.108 51.7767 313.518 51.8841C313.927 51.9915 314.173 52.4115 314.065 52.8221C309.311 71.0396 303.202 79.5931 295.511 78.1183C292.182 77.4798 289.855 77.5978 288.126 78.3623C286.795 78.951 285.865 79.8313 284.558 81.575L284.407 81.7782L283.628 82.8439C283.293 83.301 283.024 83.6575 282.749 84.0056C281.599 85.4576 280.464 86.5708 279.045 87.5326C277.327 88.696 275.272 89.5608 272.74 90.1242C270.407 90.6433 268.406 90.3786 266.558 89.4141C265.182 88.6961 264.089 87.7686 262.375 86.0122L261.573 85.1837C259.844 83.3976 258.843 82.5028 257.585 81.7477C255.986 80.7877 254.284 80.3472 252.262 80.4697C244.962 80.9121 237.226 84.5248 229.057 91.3373C228.732 91.6087 228.248 91.5643 227.978 91.238C227.707 90.9117 227.751 90.4272 228.077 90.1557C236.478 83.1497 244.508 79.3998 252.169 78.9355C254.507 78.7938 256.514 79.3133 258.373 80.4291L258.498 80.505C259.802 81.306 260.845 82.2329 262.513 83.9479L263.316 84.7787L263.464 84.9308C265.075 86.5804 266.072 87.4276 267.266 88.0508C268.795 88.8484 270.427 89.0644 272.408 88.6237C274.756 88.1012 276.633 87.3116 278.186 86.2592C279.462 85.3945 280.488 84.3879 281.548 83.0499L281.686 82.8732C281.872 82.6349 282.062 82.3829 282.281 82.086L283.149 80.8978L283.205 80.8226C284.721 78.774 285.834 77.6959 287.507 76.9561C289.557 76.0497 292.189 75.9162 295.799 76.6086C302.347 77.8643 308.016 69.9272 312.582 52.4331Z" fill="#009BA0"/>
<path d="M300.83 54.6916C302.63 54.6916 304.089 53.2292 304.089 51.4254C304.089 49.6215 302.63 48.1592 300.83 48.1592C299.031 48.1592 297.572 49.6215 297.572 51.4254C297.572 53.2292 299.031 54.6916 300.83 54.6916Z" fill="#FF0057"/>
<path d="M315.207 95.6797H224.606V95.9357H315.207V95.6797Z" fill="#C7D2F2"/>
<path fill-rule="evenodd" clip-rule="evenodd" d="M143.209 226.321C143.209 226.321 142.526 225.935 140.91 226.116C140.473 226.165 139.81 226.65 138.256 227.554C136.196 228.752 133.365 230.763 132.404 232.953C130.086 238.23 133.314 238.852 133.893 238.999C134.473 239.146 137.382 236.393 137.382 236.393L139.865 233.017L143.588 229.815L143.209 226.321Z" fill="#090E2B"/>
<path fill-rule="evenodd" clip-rule="evenodd" d="M142.317 226.343C141.275 226.516 136.577 228.935 134.56 231.066C132.98 232.735 132.069 234.629 132.088 236.71C132.103 238.408 133.449 238.893 134.034 238.945C136.675 239.179 138.293 238.728 139.799 237.578C140.881 236.752 143.682 233.459 144.443 232.807C145.071 232.27 146.655 230.549 146.655 229.472C146.655 227.163 143.359 226.17 142.317 226.343Z" fill="#D75426"/>
<path fill-rule="evenodd" clip-rule="evenodd" d="M143.731 220.56C143.731 220.56 141.955 226.942 141.786 227.164C141.708 227.268 138.874 229.138 139.286 229.232C139.769 229.344 141.308 227.72 142.838 229.382C144.189 230.851 143.498 231.578 143.277 232.104C142.992 232.781 143.013 232.631 143.262 232.434C145.132 230.956 146.057 230.058 146.407 229.032C146.655 228.306 150.746 222.822 150.746 222.822L143.731 220.56Z" fill="#CA8F67"/>
<path fill-rule="evenodd" clip-rule="evenodd" d="M139.123 232.221C138.783 231.575 139.17 230.952 139.328 231.58C139.408 231.896 139.957 232.691 140.933 233.099C141.128 233.173 141.446 233.576 140.621 233.483C140.068 233.333 139.389 232.723 139.123 232.221Z" fill="#FFB201"/>
<path fill-rule="evenodd" clip-rule="evenodd" d="M137.714 233.306C137.46 232.625 137.59 232.188 137.962 232.685C137.972 232.698 138.356 233.991 139.571 234.398C140.097 234.398 140.213 234.684 140.097 234.715C138.756 235.07 137.897 233.795 137.714 233.306Z" fill="#FFB201"/>
<path fill-rule="evenodd" clip-rule="evenodd" d="M167.741 224.443L169.198 234.109C169.198 234.109 170.61 234.956 172.84 235.503C175.07 236.051 178.94 235.727 179.015 235.503C179.089 235.279 180.456 233.565 178.227 232.669C175.997 231.772 175.325 231.238 175.084 229.99C174.98 229.455 175.285 223.893 175.285 223.893L167.741 224.443Z" fill="#CA8F67"/>
<mask id="mask0_2591_101181" style="mask-type:alpha" maskUnits="userSpaceOnUse" x="167" y="237" width="23" height="3">
<path fill-rule="evenodd" clip-rule="evenodd" d="M167.914 237.274H189.249V239.134H167.914V237.274Z" fill="white"/>
</mask>
<g mask="url(#mask0_2591_101181)">
<path fill-rule="evenodd" clip-rule="evenodd" d="M189.249 239.134H168.252C168.057 238.488 167.887 237.811 167.917 237.274L188.965 237.753C189.09 238.154 189.186 238.629 189.249 239.134Z" fill="#090E2B"/>
</g>
<path fill-rule="evenodd" clip-rule="evenodd" d="M168.621 230.682C168.621 230.682 170.084 231.69 170.526 232.674C171.558 232.92 175.418 232.992 175.183 232.688C174.434 231.718 175.418 230.767 176.007 230.767C176.597 230.767 180.709 233.677 181.249 233.677C181.789 233.677 187.303 235.884 187.99 236.327C188.678 236.769 188.953 237.854 188.953 237.854H167.929C167.929 237.854 167.196 232.299 168.621 230.682Z" fill="#D75426"/>
<path fill-rule="evenodd" clip-rule="evenodd" d="M177.965 232.56C178.047 231.416 179.624 231.887 178.944 232.207C178.625 232.148 178.383 232.322 178.283 232.615C178.233 232.799 177.945 232.748 177.965 232.56Z" fill="#FFB201"/>
<path fill-rule="evenodd" clip-rule="evenodd" d="M178.987 233.328C179.069 232.184 180.646 232.655 179.966 232.974C179.646 232.916 179.405 233.09 179.304 233.383C179.255 233.567 178.966 233.516 178.987 233.328Z" fill="#FFB201"/>
<path fill-rule="evenodd" clip-rule="evenodd" d="M181.277 127.691C181.277 127.691 184.162 130.803 184.698 140.974C185.235 151.144 179.777 173.275 179.53 176.345C179.282 179.416 179.261 186.382 178.193 189.778C177.438 192.182 175.83 223.741 176.156 225.37C176.474 226.955 166.447 226.327 165.042 226.35C163.638 226.372 163.872 204.17 162.838 200.332C162.775 200.098 162.717 199.715 162.662 199.203C160.55 204.117 158.421 208.56 157.016 211.26C153.72 217.591 151.556 222.213 151.492 223.885C151.443 225.187 149.057 224.879 147.333 224.226C145.611 223.574 140.976 220.853 140.785 219.51C140.593 218.167 143.868 208.139 148.288 190.204C149.755 184.254 154.044 179.603 154.263 178.034C154.702 174.886 150.171 154.081 150.764 144.888C151.502 133.449 157.197 127.699 157.197 127.699L167.718 128.12L181.277 127.691Z" fill="#001386"/>
<path fill-rule="evenodd" clip-rule="evenodd" d="M153.937 133.05C150.983 138.187 155.813 135.172 164.516 135.395C169.056 135.511 174.644 132.946 181.277 127.699L157.301 127.691C155.885 129.827 154.764 131.613 153.937 133.05Z" fill="#001386"/>
<path fill-rule="evenodd" clip-rule="evenodd" d="M170.318 178.68C169.214 185.372 165.929 191.844 163.458 197.957C163.272 198.339 162.781 199.373 162.903 198.937C163.004 198.578 163.141 198.226 163.282 197.881C165.483 192.111 167.539 186.256 169.214 180.309C169.343 179.825 169.471 179.291 169.547 178.795C170.53 171.221 170.5 163.538 171.08 155.921C171.233 153.814 171.435 151.217 171.747 149.126C171.758 149.033 171.857 149.085 171.821 149.626C170.941 159.49 171.422 171.988 170.318 178.68Z" fill="#090E2B"/>
<path fill-rule="evenodd" clip-rule="evenodd" d="M175.92 85.3032C177.696 86.3178 180.406 88.426 182.018 93.3536C183.372 97.4947 186.471 103.474 186.571 104.075C188.173 104.676 194.577 107.878 194.577 107.878C194.577 107.878 190.163 115.019 189.8 115.019C189.436 115.019 187.283 114.908 185.199 114.744C178.392 114.207 178.043 109.532 177.705 107.625C176.613 101.453 176.43 85.9666 175.92 85.3032Z" fill="#D75426"/>
<path fill-rule="evenodd" clip-rule="evenodd" d="M165.399 75.6973C165.399 75.6973 166.875 83.0371 165.883 83.7995C165.387 84.1801 163.268 84.7408 163.268 84.7408C163.268 84.7408 168.487 88.9067 171.678 89.0139C174.868 89.1213 177.001 87.175 176.647 86.4694C176.119 85.4136 172.381 84.4709 172.241 83.5313C172.082 82.4595 172.152 77.7689 172.152 77.7689L165.399 75.6973Z" fill="#CA8F67"/>
<path fill-rule="evenodd" clip-rule="evenodd" d="M164.673 85.1868C164.673 85.1868 170.441 88.9207 172.211 88.4689C173.422 88.1596 173.276 85.6404 173.411 84.5356C174.526 84.6444 176.792 85.7985 177.594 87.4719C178.658 89.692 178.772 94.6024 179.532 98.5497C181.23 107.368 179.438 126.164 179.438 126.164C179.438 126.164 169.923 130.703 167.378 128.512C166.069 127.385 169.394 121.429 169.655 111.845C169.915 102.261 170.236 99.2509 169.257 96.0453C168.277 92.8396 164.673 85.1868 164.673 85.1868Z" fill="white"/>
<path fill-rule="evenodd" clip-rule="evenodd" d="M163.43 84.5356C161.376 84.9529 155.719 86.4089 155.547 87.9522C155.396 89.304 153.921 106.121 155.913 108.64C158.298 111.657 154.54 120.881 153.022 123.342C150.381 127.622 145.917 131.157 151.076 131.064C156.449 130.968 170.392 138.323 170.392 128.378C170.392 117.593 171.819 107.153 171.83 103.046C171.868 89.0162 165.579 85.5147 163.43 84.5356Z" fill="#D75426"/>
<path fill-rule="evenodd" clip-rule="evenodd" d="M176.121 85.4356C177.778 86.4619 182.14 93.1092 181.294 99.3784C180.763 103.317 180.291 116.286 181.384 120.694C182.476 125.102 184.377 128.792 184.352 131.221C184.341 132.328 180.022 132.885 178.761 132.38C175.769 131.181 176.05 128.348 176.479 122.698C177.49 109.393 177.461 86.7071 173.363 84.5356C174.347 84.5724 175.663 85.1517 176.121 85.4356Z" fill="#D75426"/>
<path fill-rule="evenodd" clip-rule="evenodd" d="M178.565 90.7516C179.8 93.1356 181.129 95.6477 181.25 98.3546C181.404 101.77 181.014 105.672 180.895 109.095C180.86 109.988 180.827 110.883 180.825 111.776C180.827 111.829 180.738 111.833 180.739 111.777C180.653 107.614 181.172 102.535 180.983 98.3662C180.862 95.7013 179.553 93.1211 178.477 90.6939C178.458 90.6597 178.545 90.7142 178.565 90.7516Z" fill="#090E2B"/>
<path fill-rule="evenodd" clip-rule="evenodd" d="M190.533 109.882L175.246 111.18C174.985 111.201 174.165 111.545 174.137 111.805C174.137 111.805 174.016 112.477 174.722 112.477H190.533V109.882Z" fill="white"/>
<path fill-rule="evenodd" clip-rule="evenodd" d="M211.37 112.478H187.435L194.039 94.8968C194.44 93.9043 195.288 92.9121 196.628 92.9121L216.638 92.9272C218.789 92.9116 219.059 93.7116 218.596 94.9721C217.264 98.6022 213.838 108.766 212.66 111.614C212.444 112.137 211.935 112.478 211.37 112.478Z" fill="white"/>
<path fill-rule="evenodd" clip-rule="evenodd" d="M216.532 92.794C211.007 92.7806 203.341 92.7694 197.802 92.7554C195.871 92.6351 194.673 92.9628 193.873 94.8743C192.089 99.6389 190.025 105.201 188.295 110.003L176.023 111.114C177.188 111.02 188.362 110.213 188.394 110.11C190.36 105.199 192.425 99.4359 194.387 94.5402C195.19 93.056 196.3 93.0091 197.802 93.0696L201.964 93.0674C204.687 93.0809 211.823 93.0414 214.452 93.0606C215.397 93.1709 218.377 92.645 218.637 93.859C218.685 95.0127 217.98 96.1647 217.644 97.2686C217.34 98.2664 216.273 101.208 216.273 101.208C215.181 104.295 213.955 108.004 212.794 111.034C212.357 112.418 211.778 112.432 210.48 112.399C209.823 112.404 208.113 112.476 207.437 112.481C207.356 112.483 207.274 112.538 207.358 112.54C208.553 112.525 210.351 112.589 211.529 112.55C212.316 112.506 212.751 111.777 212.962 111.101C214.217 107.857 215.346 104.567 216.498 101.287C216.944 99.9312 218.077 96.6665 218.58 95.3891C219.386 93.3423 218.437 92.7316 216.532 92.794Z" fill="#090E2B"/>
<path fill-rule="evenodd" clip-rule="evenodd" d="M172.442 111.366C172.395 111.369 172.367 111.372 172.366 111.372L172.442 111.366Z" fill="black"/>
<path fill-rule="evenodd" clip-rule="evenodd" d="M199.559 112.429H203.82C205.331 112.457 204.54 109.359 206.191 109.66C207.601 109.917 207.537 110.746 207.391 112.417C207.676 112.059 208.218 111.941 208.404 112.063C208.67 112.236 208.372 112.288 207.924 113.008C207.406 113.84 205.933 114.619 204.177 114.766C203.649 114.811 200.613 115.275 200.613 115.275L199.559 112.429Z" fill="#CA8F67"/>
<path fill-rule="evenodd" clip-rule="evenodd" d="M174.701 110.893C174.701 110.893 175.885 110.047 176.901 110.167C178.256 110.326 178.364 109.713 178.711 110.247C178.787 110.364 178.548 110.741 177.92 110.881C177.073 111.069 177.428 111.593 177.428 111.593C177.428 111.593 180.37 112.296 180.784 112.37C181.012 112.411 181.074 113.063 179.346 113.577C178.445 113.845 177.158 113.852 175.64 113.903C175.218 113.918 170.362 115.404 170.362 115.404L170.063 112.979L169.911 110.459L174.701 110.893Z" fill="#CA8F67"/>
<path fill-rule="evenodd" clip-rule="evenodd" d="M189.846 115.021C189.846 115.021 202.038 115.515 202.798 115.379C203.557 115.242 202.018 112.457 202.018 112.457H191.002L189.846 115.021Z" fill="#D75426"/>
<path fill-rule="evenodd" clip-rule="evenodd" d="M204.054 102.982H204.052C203.507 102.982 203.268 102.752 203.174 102.615C203.104 102.514 203.129 102.374 203.231 102.304C203.333 102.234 203.472 102.259 203.542 102.361C203.618 102.471 203.804 102.534 204.052 102.534H204.054C204.436 102.534 204.703 102.389 204.828 102.304C204.93 102.233 205.069 102.26 205.139 102.361C205.208 102.463 205.183 102.603 205.081 102.673C204.792 102.872 204.427 102.982 204.054 102.982Z" fill="#090E2B"/>
<path fill-rule="evenodd" clip-rule="evenodd" d="M202.513 103.339C202.21 104.132 201.326 104.776 200.538 104.776C199.751 104.776 199.358 104.132 199.662 103.339C199.965 102.545 200.85 101.902 201.637 101.902C202.425 101.902 202.817 102.545 202.513 103.339Z" fill="#FF00A4"/>
<path fill-rule="evenodd" clip-rule="evenodd" d="M208.119 103.339C207.815 104.132 206.931 104.776 206.144 104.776C205.356 104.776 204.964 104.132 205.267 103.339C205.571 102.545 206.455 101.902 207.242 101.902C208.03 101.902 208.422 102.545 208.119 103.339Z" fill="#FF00A4"/>
<path fill-rule="evenodd" clip-rule="evenodd" d="M202.999 101.437C202.92 101.646 202.687 101.815 202.48 101.815C202.272 101.815 202.169 101.646 202.249 101.437C202.329 101.228 202.562 101.059 202.769 101.059C202.976 101.059 203.079 101.228 202.999 101.437Z" fill="#090E2B"/>
<path fill-rule="evenodd" clip-rule="evenodd" d="M206.955 101.437C206.876 101.646 206.643 101.815 206.436 101.815C206.228 101.815 206.125 101.646 206.205 101.437C206.285 101.228 206.517 101.059 206.725 101.059C206.932 101.059 207.035 101.228 206.955 101.437Z" fill="#090E2B"/>
<path fill-rule="evenodd" clip-rule="evenodd" d="M163.27 99.8001C162.185 102.667 156.159 109.068 156.159 109.068C156.159 109.068 170.255 110.534 172.338 110.534C172.386 111.268 171.773 116.837 171.773 116.837C165.638 117.708 146.163 120.227 144.621 115.068C141.408 104.319 154.016 89.651 155.635 87.6676C157.903 84.8892 164.721 95.9661 163.27 99.8001Z" fill="#D75426"/>
<path fill-rule="evenodd" clip-rule="evenodd" d="M172.304 110.464C166.891 110.206 161.96 109.306 156.535 108.828C158.446 106.778 160.303 104.667 161.897 102.358C162.444 101.544 162.94 100.735 163.265 99.8029C163.275 99.7732 163.353 99.5317 163.323 99.521C162.057 102.109 159.976 104.59 158.006 106.743C157.345 107.459 156.671 108.166 155.984 108.854C155.871 108.961 155.714 109.153 156.108 109.179C160.267 109.457 164.432 109.977 168.583 110.365C169.974 110.467 170.703 110.531 172.102 110.536C172.327 110.537 172.389 110.462 172.304 110.464Z" fill="#090E2B"/>
<path fill-rule="evenodd" clip-rule="evenodd" d="M171.829 116.813C166.32 117.575 160.951 118.319 155.386 118.147C155.288 118.137 155.38 118.23 155.487 118.241C159.314 118.657 167.628 117.773 168.878 117.532C171.21 117.081 171.729 116.971 171.829 116.813Z" fill="#090E2B"/>
<path fill-rule="evenodd" clip-rule="evenodd" d="M178.618 64.2438C178.618 64.2438 178.872 63.0468 180.733 63.1826C183.742 63.402 184.286 66.3462 183.595 69.2308C183.109 71.2628 182.459 72.8637 182.664 73.9894C183.056 76.1457 184.167 76.2469 185.024 78.6121C186.386 82.3676 182.959 82.6415 182.926 83.3154C182.766 86.5813 181.699 88.0837 179.823 88.7982C177.057 89.8517 174.154 88.4713 172.686 85.9025C171.457 83.7517 172.686 81.3924 172.686 81.3924L179.42 74.8884L178.618 64.2438Z" fill="#090E2B"/>
<path fill-rule="evenodd" clip-rule="evenodd" d="M178.19 62.9079C178.19 62.9079 180.162 63.8799 181.093 66.6029C181.616 68.134 181.416 70.0144 181.707 72.6639C182.43 79.2419 180.495 84.3745 176.899 84.2515C172.629 84.1054 168.934 81.5489 166.884 80.0626C164.834 78.576 164.458 76.7195 164.437 73.7802C164.416 70.8409 164.523 64.5234 166.416 64.3376C168.309 64.1518 174.354 59.9916 178.19 62.9079Z" fill="#CA8F67"/>
<path fill-rule="evenodd" clip-rule="evenodd" d="M165.576 75.1347C165.579 76.1454 169.603 78.8237 167.463 82.5996C168.916 84.1135 168.506 90.0749 162.26 89.228C159.519 92.9025 153.708 91.3976 154.38 87.4618C152.663 87.1274 151.823 84.3164 152.063 82.7277C152.684 78.6112 156.597 78.0988 156.597 78.0988C156.106 73.3694 160.409 74.491 159.811 71.2353C159.22 68.0163 159.865 63.5521 163.245 63.0282C163.706 58.4015 169.666 56.3159 173.852 58.5157C174.84 57.6086 181.586 56.545 181.445 62.7421C181.397 64.8464 179.767 67.6647 177.393 68.1458C175.717 68.4855 172.746 67.8934 171.727 69.1468C170.334 70.8612 170.096 71.2821 167.98 72.3643C167.16 72.7836 166.58 72.3643 166.58 72.3643C166.58 72.3643 165.568 72.6549 165.576 75.1347Z" fill="#090E2B"/>
<path fill-rule="evenodd" clip-rule="evenodd" d="M166.55 76.1626C165.641 76.6959 164.399 76.0288 163.679 75.5426C162.119 74.4889 162.18 72.781 163.432 71.8598C164.347 71.1869 165.624 71.3225 166.783 72.3035C167.781 73.149 167.576 75.5602 166.55 76.1626Z" fill="#CA8F67"/>
<path fill-rule="evenodd" clip-rule="evenodd" d="M164.164 72.7652C164.813 72.646 165.542 72.7317 166.004 73.4153C166.215 73.7277 166.218 74.0837 166.327 74.4416C166.339 74.4806 166.214 74.5732 166.036 74.1429C165.806 73.5835 165.388 73.2309 165.025 73.0777C164.551 72.8784 163.982 73.013 163.897 72.93C163.808 72.8436 164.092 72.7785 164.164 72.7652Z" fill="black"/>
<path fill-rule="evenodd" clip-rule="evenodd" d="M165.938 73.9732C165.61 73.8037 164.984 74.1067 164.958 74.0418C164.879 73.841 165.723 73.4904 166 73.7163C166.203 73.8822 166.171 74.0936 165.938 73.9732Z" fill="black"/>
<path fill-rule="evenodd" clip-rule="evenodd" d="M168.946 81.4217C169.059 81.4708 169.659 81.8176 169.923 81.9586C170.408 82.2175 170.895 82.473 171.389 82.7064C171.644 82.8273 172.256 83.0414 172.173 83.1133C172.015 83.2511 170.639 82.7357 169.768 82.1602C169.305 81.8543 168.754 81.3379 168.946 81.4217Z" fill="#090E2B"/>
<path fill-rule="evenodd" clip-rule="evenodd" d="M170.589 71.4235C170.49 70.3808 173.22 69.1148 174.714 69.4606C175.23 69.5773 176.262 70.0231 175.676 70.6394C175.515 70.7824 175.305 70.7578 175.119 70.7083C173.03 70.0764 170.659 72.1504 170.589 71.4235Z" fill="#090E2B"/>
<path fill-rule="evenodd" clip-rule="evenodd" d="M180.756 69.7991C181.158 70.0406 181.647 70.738 181.176 70.68C180.705 70.622 179.7 70.3624 178.981 70.5613C178.734 70.5932 178.538 70.6882 178.295 70.6872C177.735 70.7267 177.519 70.0342 177.954 69.6852C178.445 69.2908 179.944 69.2596 180.756 69.7991Z" fill="#090E2B"/>
<path fill-rule="evenodd" clip-rule="evenodd" d="M178.347 76.6355C178.222 77.2655 177.45 77.3268 176.947 77.1841C176.538 77.068 176.432 76.8293 176.57 76.7527C176.795 76.628 177.517 76.975 177.784 76.6437C178.259 76.053 176.801 73.8811 177.264 74.2301C177.877 74.6913 178.43 76.215 178.347 76.6355Z" fill="#090E2B"/>
<path fill-rule="evenodd" clip-rule="evenodd" d="M179.402 78.7643C179.312 78.8482 179.114 79.1763 178.903 79.3938C178.427 79.8828 177.59 80.0719 177.08 80.0247C176.122 79.936 175.651 79.365 175.385 79.223C175.119 79.0811 175.563 78.8161 175.923 78.8103C176.282 78.8044 176.532 78.8829 177.244 79.1046C177.702 79.2477 178.667 78.8773 178.93 78.6796C179.432 78.3026 179.621 78.5596 179.402 78.7643Z" fill="#090E2B"/>
<path fill-rule="evenodd" clip-rule="evenodd" d="M175.399 73.2771C175.478 74.2565 174.248 74.8799 173.205 74.3906C172.667 74.1388 172.393 73.7595 172.524 73.6011C172.608 73.4996 172.847 73.6438 172.927 73.6912C173.985 74.3215 174.822 73.7526 175.078 73.1881C175.178 72.9678 175.374 72.9624 175.399 73.2771Z" fill="#090E2B"/>
<path fill-rule="evenodd" clip-rule="evenodd" d="M180.797 72.9823C180.714 73.3799 180.56 73.581 180.366 73.7224C179.799 74.1345 178.876 73.722 178.699 73.3423C178.567 73.0583 178.751 73.0514 178.967 73.186C179.309 73.3999 179.634 73.4437 179.85 73.4029C180.263 73.3246 180.46 72.9073 180.609 72.7354C180.69 72.642 180.861 72.6729 180.797 72.9823Z" fill="#090E2B"/>
</svg>
