<svg width="29" height="28" viewBox="0 0 29 28" fill="none" xmlns="http://www.w3.org/2000/svg">
<path d="M24.8333 17.6679H26.8333V6.98731C26.8333 6.67677 26.7611 6.37177 26.6167 6.07231C26.4722 5.77285 26.2667 5.5344 26 5.35694L19 0.366002C18.6444 0.122001 18.2556 0 17.8333 0C17.4111 0 17.0222 0.122001 16.6667 0.366002L9.66667 5.35694C9.4 5.5344 9.19444 5.77285 9.05 6.07231C8.90556 6.37177 8.83333 6.67677 8.83333 6.98731V11.2462H10.8333V6.95404L17.8333 2.06292L24.8333 6.95404V17.6679ZM19.1667 8.8506C18.9889 8.8506 18.8333 8.78405 18.7 8.65096C18.5667 8.51787 18.5 8.3626 18.5 8.18514C18.5 8.00768 18.5667 7.85241 18.7 7.71932C18.8333 7.58623 18.9889 7.51968 19.1667 7.51968C19.3444 7.51968 19.5 7.58623 19.6333 7.71932C19.7667 7.85241 19.8333 8.00768 19.8333 8.18514C19.8333 8.3626 19.7667 8.51787 19.6333 8.65096C19.5 8.78405 19.3444 8.8506 19.1667 8.8506ZM16.5 8.8506C16.3222 8.8506 16.1667 8.78405 16.0333 8.65096C15.9 8.51787 15.8333 8.3626 15.8333 8.18514C15.8333 8.00768 15.9 7.85241 16.0333 7.71932C16.1667 7.58623 16.3222 7.51968 16.5 7.51968C16.6778 7.51968 16.8333 7.58623 16.9667 7.71932C17.1 7.85241 17.1667 8.00768 17.1667 8.18514C17.1667 8.3626 17.1 8.51787 16.9667 8.65096C16.8333 8.78405 16.6778 8.8506 16.5 8.8506ZM19.1667 11.5124C18.9889 11.5124 18.8333 11.4459 18.7 11.3128C18.5667 11.1797 18.5 11.0244 18.5 10.847C18.5 10.6695 18.5667 10.5142 18.7 10.3812C18.8333 10.2481 18.9889 10.1815 19.1667 10.1815C19.3444 10.1815 19.5 10.2481 19.6333 10.3812C19.7667 10.5142 19.8333 10.6695 19.8333 10.847C19.8333 11.0244 19.7667 11.1797 19.6333 11.3128C19.5 11.4459 19.3444 11.5124 19.1667 11.5124ZM16.5 11.5124C16.3222 11.5124 16.1667 11.4459 16.0333 11.3128C15.9 11.1797 15.8333 11.0244 15.8333 10.847C15.8333 10.6695 15.9 10.5142 16.0333 10.3812C16.1667 10.2481 16.3222 10.1815 16.5 10.1815C16.6778 10.1815 16.8333 10.2481 16.9667 10.3812C17.1 10.5142 17.1667 10.6695 17.1667 10.847C17.1667 11.0244 17.1 11.1797 16.9667 11.3128C16.8333 11.4459 16.6778 11.5124 16.5 11.5124ZM17.9 25.354L26.1667 22.7587C26.0333 22.5812 25.8667 22.3539 25.6667 22.0766C25.4667 21.7993 25.2333 21.6607 24.9667 21.6607H17.0333C16.9889 21.6607 16.7889 21.644 16.4333 21.6108C16.0778 21.5775 15.7333 21.4832 15.4 21.3279L13.2 20.6625C12.9333 20.5738 12.7333 20.3963 12.6 20.1301C12.4667 19.8639 12.4444 19.5978 12.5333 19.3316C12.6222 19.0654 12.7944 18.8657 13.05 18.7327C13.3056 18.5996 13.5667 18.5885 13.8333 18.6994L16.9333 19.7308C16.8889 19.7308 17.05 19.7198 17.4167 19.6976C17.7833 19.6754 18.3111 19.6643 19 19.6643H19.3C19.3 19.3981 19.25 19.1375 19.15 18.8824C19.05 18.6273 18.8778 18.4443 18.6333 18.3334L10.4667 15.239H7.66667V22.3594L17.9 25.354ZM17.4667 27.2505L7.66667 24.4556C7.62222 25.0545 7.37222 25.5203 6.91667 25.8531C6.46111 26.1858 6.04444 26.3522 5.66667 26.3522H2.5C1.94444 26.3522 1.47222 26.1581 1.08333 25.7699C0.694444 25.3817 0.5 24.9103 0.5 24.3558V15.239C0.5 14.6845 0.694444 14.2131 1.08333 13.8249C1.47222 13.4367 1.94444 13.2426 2.5 13.2426H10.4333C10.5444 13.2426 10.6611 13.2537 10.7833 13.2759C10.9056 13.2981 11.0222 13.3314 11.1333 13.3757L19.3 16.4368C19.9 16.6586 20.4056 17.0191 20.8167 17.5182C21.2278 18.0173 21.4333 18.7327 21.4333 19.6643H25.2333C26.1667 19.6643 26.9444 19.997 27.5667 20.6625C28.1889 21.3279 28.5 22.2263 28.5 23.3576C28.5 23.6016 28.4444 23.8179 28.3333 24.0064C28.2222 24.195 28.0444 24.3336 27.8 24.4223L18.6 27.2505C18.4222 27.2949 18.2333 27.3171 18.0333 27.3171C17.8333 27.3171 17.6444 27.2949 17.4667 27.2505ZM2.5 24.3558H5.63333V15.239H2.5V24.3558Z" fill="#D75426"/>
</svg>
