<?xml version="1.0" encoding="utf-8"?>
<!-- Generator: Adobe Illustrator 25.4.1, SVG Export Plug-In . SVG Version: 6.00 Build 0)  -->
<svg version="1.1" id="Layer_1" xmlns="http://www.w3.org/2000/svg" xmlns:xlink="http://www.w3.org/1999/xlink" x="0px" y="0px"
	 viewBox="0 0 40 40" style="enable-background:new 0 0 40 40;" xml:space="preserve">
<style type="text/css">
	.st0{fill:#F5F6FB;}
	.st1{fill:#D75527;}
</style>
<path class="st0" d="M31.4,40H8.6C3.8,40,0,36.2,0,31.4V8.6C0,3.8,3.8,0,8.6,0h22.8C36.2,0,40,3.8,40,8.6v22.8
	C40,36.2,36.2,40,31.4,40z"/>
<path class="st1" d="M20,12.4c2.6,0,5.2,0.7,7.4,2.1c2.2,1.4,4,3.4,5.1,5.7c-1.1,2.3-2.9,4.3-5.1,5.7C25.2,27.3,22.6,28,20,28
	s-5.2-0.7-7.4-2.1s-4-3.4-5.1-5.7c1.1-2.3,2.9-4.3,5.1-5.7C14.8,13.1,17.4,12.4,20,12.4z M20,9.6c-3.4,0-6.7,1-9.5,2.9
	c-2.8,1.9-4.9,4.6-6.2,7.7c1.2,3.1,3.4,5.8,6.2,7.7c2.8,1.9,6.1,2.9,9.5,2.9s6.7-1,9.5-2.9c2.8-1.9,4.9-4.6,6.2-7.7
	c-1.2-3.1-3.4-5.8-6.2-7.7C26.7,10.6,23.4,9.6,20,9.6z M20,16.7c0.7,0,1.4,0.2,2,0.6c0.6,0.4,1,0.9,1.3,1.6c0.3,0.6,0.3,1.4,0.2,2.1
	c-0.1,0.7-0.5,1.3-1,1.8c-0.5,0.5-1.1,0.8-1.8,1c-0.7,0.1-1.4,0.1-2.1-0.2c-0.6-0.3-1.2-0.7-1.6-1.3c-0.4-0.6-0.6-1.3-0.6-2
	c0-0.9,0.4-1.8,1-2.5C18.2,17,19.1,16.7,20,16.7z M20,13.8c-1.3,0-2.5,0.4-3.6,1.1c-1.1,0.7-1.9,1.7-2.4,2.9
	c-0.5,1.2-0.6,2.5-0.4,3.7c0.2,1.2,0.9,2.4,1.7,3.3c0.9,0.9,2,1.5,3.3,1.7c1.2,0.2,2.5,0.1,3.7-0.4s2.2-1.3,2.9-2.4
	c0.7-1.1,1.1-2.3,1.1-3.6c0-1.7-0.7-3.3-1.9-4.5C23.3,14.5,21.7,13.8,20,13.8z"/>
</svg>
