<svg width="260" height="200" viewBox="0 0 260 200" fill="none" xmlns="http://www.w3.org/2000/svg">
<path opacity="0.1" d="M4.55478 88.9336H31.5575V125.307H6.53162C6.4651 125.681 6.40125 126.057 6.33207 126.433H31.5575V155.767C31.5122 155.767 31.4723 155.738 31.4297 155.722C30.7167 155.444 30.009 155.149 29.3012 154.834L28.8489 154.631C28.1394 154.3 27.4299 153.949 26.7204 153.579C26.473 153.45 26.2256 153.316 25.9808 153.18C22.0421 150.999 18.4639 148.236 15.3702 144.986C15.2798 144.899 15.1946 144.807 15.1042 144.723C14.6731 144.26 14.2501 143.792 13.8404 143.314L13.3774 142.785C12.8932 142.199 12.4249 141.597 11.9699 140.987C11.9034 140.897 11.8396 140.808 11.7704 140.724C9.92005 138.188 8.38368 135.443 7.19412 132.546C7.15687 132.459 7.12494 132.365 7.09035 132.283C6.72496 131.356 6.40125 130.418 6.11922 129.47C5.99683 129.073 5.87977 128.681 5.77866 128.268C5.74141 128.147 5.70949 128.029 5.68022 127.91C4.16898 122.081 3.99072 116.025 3.99072 110.011V107.908C3.99072 105.476 4.01999 103.028 4.06256 100.582C4.06256 99.9485 4.08917 99.3174 4.10247 98.6811C4.13972 97.0666 4.19293 95.4521 4.26211 93.8376C4.27807 93.3879 4.29936 92.9409 4.3233 92.4939C4.32333 92.2357 4.33665 91.9777 4.36321 91.7208C4.43771 90.7874 4.49092 89.8592 4.55478 88.9336Z" fill="#6C63FF"/>
<path opacity="0.1" d="M31.5568 48.4346H16.7451C19.1531 44.7103 21.7838 41.1314 24.6232 37.7168C26.8236 35.0453 29.1463 32.4421 31.5568 29.9336V48.4346Z" fill="#6C63FF"/>
<path opacity="0.1" d="M31.5572 49.5605V87.8089H4.63965C4.63965 87.6985 4.65827 87.5854 4.66625 87.475C4.6902 87.1726 4.71415 86.8702 4.74075 86.5704C4.77002 86.2181 4.80195 85.8631 4.83653 85.5187C4.87112 85.1742 4.90837 84.7535 4.94828 84.3722C4.98819 83.9909 5.02544 83.6044 5.07067 83.2231C5.1159 82.8418 5.15581 82.4606 5.2037 82.0819C5.25159 81.7033 5.29416 81.3194 5.34471 80.9407C5.38462 80.6252 5.42719 80.3123 5.46976 79.9967C5.53096 79.5524 5.59481 79.1054 5.66399 78.6636C5.66833 78.5972 5.67812 78.5312 5.69326 78.4664C6.17915 75.2326 6.84083 72.027 7.67542 68.8635C8.54874 65.5449 9.6647 62.2934 11.0145 59.1345C12.4485 55.8297 14.1275 52.6341 16.0378 49.5737L31.5572 49.5605Z" fill="#6C63FF"/>
<path d="M38.0039 88.9302V125.306H87.6778V88.9302H38.0039ZM38.0039 126.429V157.667C38.2886 157.736 38.5706 157.801 38.85 157.857C39.2305 157.941 39.6083 158.017 39.9941 158.083C40.0685 158.096 40.1431 158.109 40.2255 158.117C40.3745 158.146 40.5315 158.17 40.6832 158.193C41.0663 158.254 41.4468 158.304 41.8272 158.343C42.0108 158.364 42.1917 158.383 42.3753 158.398L42.8196 158.438C43.0591 158.459 43.2985 158.475 43.5327 158.482C43.679 158.482 43.828 158.498 43.977 158.504H45.6106C45.8078 158.507 46.0049 158.5 46.2013 158.482V158.482C46.3382 158.486 46.4752 158.479 46.611 158.461H46.7254C46.8393 158.465 46.9532 158.458 47.066 158.443H47.1458L47.9121 158.375C48.1781 158.348 48.4203 158.314 48.6757 158.283L49.2078 158.212C51.3426 157.867 53.446 157.354 55.4975 156.676C60.1297 155.193 64.6634 153.118 69.2955 151.599C75.2819 149.64 81.8989 148.677 87.6831 151.073V126.429H38.0039ZM87.6778 48.4336V0.00387447C82.219 -0.0602751 76.7806 0.672486 71.5384 2.17845C58.959 5.8045 47.6753 13.6693 38.0146 23.7139V48.431H40.5076V49.5538H38.0146V87.8074H87.6884V49.5564H50.7323V48.4336H87.6778ZM151.482 32.0835C148.369 31.9573 145.278 30.8266 142.479 29.0806C137.128 25.7412 132.855 20.5848 128.079 16.233C118.155 7.1692 105.85 1.69989 93.2252 0.343077V48.4336H164.139L164.314 48.2206L151.482 32.0835ZM157.942 30.7688L164.791 39.3935V28.5074C162.497 28.8335 160.488 29.6092 157.95 30.7582L157.942 30.7688ZM164.791 165.424V126.429H150.197C150.157 126.264 150.117 126.095 150.072 125.927C150.117 126.095 150.152 126.264 150.194 126.429H93.2358V154.63C93.7679 155.09 94.3001 155.574 94.8322 156.066C95.4016 156.592 95.9656 157.147 96.5323 157.691L97.1017 158.233C97.3678 158.496 97.6498 158.759 97.9265 159.006C98.4764 159.518 99.0315 160.022 99.592 160.52C99.8714 160.783 100.153 161.02 100.435 161.267C104.86 165.154 109.581 168.698 114.558 171.867C115.665 172.568 116.78 173.252 117.902 173.92C118.653 174.359 119.406 174.796 120.161 175.219C121.3 175.855 122.446 176.469 123.599 177.06C134.092 182.492 145.381 186.266 157.056 188.243C159.621 188.678 162.193 189.019 164.772 189.268V165.422L164.791 165.424ZM93.2358 49.5564V87.8074H164.807V49.5564H93.2358ZM93.2358 88.9302V125.306H164.807V88.9302H93.2358ZM170.354 28.4522V40.5951L179.097 29.5881C176.205 29.0518 173.287 28.6682 170.354 28.439V28.4522ZM170.354 88.9433V125.306H239.961V88.9302L170.354 88.9433ZM239.706 168.311L239.953 126.429H170.354V189.686C174.838 189.903 179.33 189.841 183.806 189.502H183.886C186.014 189.348 188.143 189.124 190.271 188.829H190.309C201.735 187.285 212.826 183.89 223.135 178.782L239.706 168.311ZM253.384 94.928C253.12 94.2268 252.849 93.5256 252.573 92.8244C252.054 91.5097 251.508 90.2318 250.942 88.9538H245.511V125.306H259.243C259.243 115.009 256.965 104.491 253.389 94.907L253.384 94.928ZM245.511 126.442V162.466C249.49 158.135 252.699 153.17 255.002 147.781C257.83 141.081 259.126 133.826 259.232 126.437L245.511 126.442ZM245.511 78.3439V87.81H250.439C248.949 84.553 247.311 81.3932 245.525 78.3308L245.511 78.3439ZM198.307 35.5886C197.945 35.4308 197.58 35.2704 197.216 35.1153C193.397 33.4956 189.468 32.1408 185.458 31.0606L172.081 47.9077L171.815 48.2206L171.985 48.4362H219.61C213.1 43.2688 205.947 38.9467 198.325 35.5754L198.307 35.5886ZM221.007 49.5695H171.33L170.354 50.595V87.8074H239.972V69.7823C234.572 62.2519 228.198 55.4522 221.012 49.5564L221.007 49.5695Z" fill="#F0F1FE"/>
<path d="M31.5572 68.8535V87.8094H4.63965C4.63965 87.699 4.65827 87.5859 4.66625 87.4755C4.6902 87.1731 4.71415 86.8707 4.74075 86.5709C4.77002 86.2186 4.80195 85.8636 4.83653 85.5191C4.87112 85.1747 4.90837 84.754 4.94828 84.3727C4.98819 83.9914 5.02544 83.6049 5.07067 83.2236C5.1159 82.8423 5.15581 82.4611 5.2037 82.0824C5.25159 81.7038 5.29416 81.3199 5.34471 80.9412C5.38462 80.6257 5.42719 80.3128 5.46976 79.9972C5.53096 79.5529 5.59481 79.1059 5.66399 78.6641C5.66833 78.5977 5.67812 78.5317 5.69326 78.4669C6.17915 75.2331 6.84083 72.0275 7.67542 68.864L31.5572 68.8535Z" fill="#C9D2EF"/>
<path d="M4.55478 88.9336H31.5575V125.307H6.53162C6.4651 125.681 6.40125 126.057 6.33207 126.433H31.5575V155.767C31.5122 155.767 31.4723 155.738 31.4297 155.722C30.7167 155.444 30.009 155.149 29.3012 154.834L28.8489 154.631C28.1394 154.3 27.4299 153.949 26.7204 153.579C26.473 153.45 26.2256 153.316 25.9808 153.18C22.0421 150.999 18.4639 148.236 15.3702 144.986C15.2798 144.899 15.1946 144.807 15.1042 144.723C14.6731 144.26 14.2501 143.792 13.8404 143.314L13.3774 142.785C12.8932 142.199 12.4249 141.597 11.9699 140.987C11.9034 140.897 11.8396 140.808 11.7704 140.724C9.92005 138.188 8.38368 135.443 7.19412 132.546C7.15687 132.459 7.12494 132.365 7.09035 132.283C6.72496 131.356 6.40125 130.418 6.11922 129.47C5.99683 129.073 5.87977 128.681 5.77866 128.268C5.74141 128.147 5.70949 128.029 5.68022 127.91C4.16898 122.081 3.99072 116.025 3.99072 110.011V107.908C3.99072 105.476 4.01999 103.028 4.06256 100.582C4.06256 99.9485 4.08917 99.3174 4.10247 98.6811C4.13972 97.0666 4.19293 95.4521 4.26211 93.8376C4.27807 93.3879 4.29936 92.9409 4.3233 92.4939C4.32333 92.2357 4.33665 91.9777 4.36321 91.7208C4.43771 90.7874 4.49092 89.8592 4.55478 88.9336Z" fill="#C9D2EF"/>
<path d="M58.3073 55.0339V87.8077H38.0015V55.0339H40.8962V43.9375H52.7786V55.0339H58.3073Z" fill="#C9D2EF"/>
<path d="M58.3074 88.9316H38.0068V125.305H58.3074V88.9316Z" fill="#C9D2EF"/>
<path opacity="0.1" d="M38.0039 126.434H58.3071V156.673C55.9122 157.353 53.4716 157.865 51.0037 158.206L50.3971 158.279C50.0991 158.313 49.8038 158.342 49.5111 158.371C49.2184 158.4 48.9151 158.421 48.6198 158.44H48.5267C48.399 158.44 48.2606 158.455 48.1356 158.458H47.9999C47.8402 158.458 47.6806 158.474 47.521 158.479C47.2948 158.492 47.0687 158.495 46.8372 158.497H44.9535L44.44 158.479C44.1739 158.479 43.8865 158.45 43.6098 158.432L43.099 158.395L42.4631 158.337C42.0161 158.298 41.5718 158.248 41.1328 158.187L40.6007 158.114L40.3346 158.077C39.8903 158.008 39.4513 157.935 39.0043 157.851C38.677 157.795 38.3524 157.727 38.0225 157.661L38.0039 126.434Z" fill="#6C63FF"/>
<path d="M164.799 51.1641H150.381V87.8058H164.799V51.1641Z" fill="#C9D2EF"/>
<path d="M164.801 88.9316V125.308H93.2329V109.618H131.354V118.874H150.38V88.9316H164.801Z" fill="#C9D2EF"/>
<path d="M165.033 165.432H164.805V189.295C162.22 189.044 159.648 188.703 157.089 188.272C145.408 186.288 134.114 182.507 123.618 177.065C120.542 175.477 117.527 173.743 114.572 171.864C109.595 168.694 104.873 165.151 100.447 161.265C99.3239 160.276 98.2145 159.264 97.1183 158.23C96.36 157.512 95.6044 156.776 94.8434 156.061C94.3113 155.569 93.7792 155.085 93.2471 154.623V126.432H150.192C150.152 126.264 150.115 126.095 150.073 125.93C150.118 126.095 150.158 126.264 150.198 126.432H164.802V165.417C164.879 165.419 164.954 165.427 165.033 165.432Z" fill="#C9D2EF"/>
<path opacity="0.1" d="M202.404 48.4343H193.01V45.0843H197.227V35.1055C197.591 35.258 197.956 35.4157 198.318 35.5761V45.0843H202.41L202.404 48.4343Z" fill="#6C63FF"/>
<path d="M225.04 87.8089H178.916L178.932 87.8221L178.913 87.8089H170.354V51.1672H172.78V78.2508H183.859V62.211H193.012V49.5605H202.407V62.2215H211.559V78.2613H225.04V87.8089Z" fill="#C9D2EF"/>
<path d="M170.354 88.9316V125.308H225.04V88.9316H170.354ZM239.887 168.126L239.961 139.333H225.04V126.449H170.354V189.688C174.838 189.904 179.33 189.843 183.806 189.504H183.886C186.014 189.35 188.143 189.125 190.271 188.831H190.309C201.735 187.286 212.826 183.892 223.135 178.784" fill="#C9D2EF"/>
<path d="M246.483 126.434H259.254C259.142 133.82 257.849 141.075 255.021 147.774C252.72 153.164 249.513 158.129 245.536 162.46V139.321H246.496L246.483 126.434Z" fill="#C9D2EF"/>
<path d="M259.248 125.308H246.477V94.9082H253.395C256.965 104.493 259.235 115.011 259.248 125.308Z" fill="#C9D2EF"/>
<path opacity="0.1" d="M164.801 61.3516H157.078V72.8398H164.801V61.3516Z" fill="#6C63FF"/>
<path opacity="0.1" d="M164.801 85.1641H157.078V87.8093H164.801V85.1641Z" fill="#6C63FF"/>
<path opacity="0.1" d="M164.801 88.9316H157.078V96.6491H164.801V88.9316Z" fill="#6C63FF"/>
<path opacity="0.1" d="M164.801 108.975H157.078V120.463H164.801V108.975Z" fill="#6C63FF"/>
<path opacity="0.1" d="M164.801 132.787H157.078V144.275H164.801V132.787Z" fill="#6C63FF"/>
<path opacity="0.1" d="M164.801 165.418C164.878 165.416 164.955 165.421 165.03 165.434H164.801V168.103H157.085V156.602H164.801V165.418Z" fill="#6C63FF"/>
<path opacity="0.1" d="M164.801 180.408V189.283C162.217 189.032 159.645 188.691 157.085 188.26V180.408H164.801Z" fill="#6C63FF"/>
<path opacity="0.1" d="M126.339 124.463H93.2329V125.307H126.339V124.463Z" fill="#6C63FF"/>
<path opacity="0.1" d="M126.339 126.43H93.2329V129.664H126.339V126.43Z" fill="#6C63FF"/>
<path opacity="0.1" d="M126.339 140.268H93.2329V145.469H126.339V140.268Z" fill="#6C63FF"/>
<path opacity="0.1" d="M126.34 156.068V161.269H100.444C99.321 160.284 98.2107 159.273 97.1127 158.235C96.3544 157.517 95.6015 156.781 94.8379 156.068H126.34Z" fill="#6C63FF"/>
<path opacity="0.1" d="M126.339 171.871V177.067H123.604C120.534 175.477 117.518 173.742 114.558 171.863L126.339 171.871Z" fill="#6C63FF"/>
<path opacity="0.1" d="M190.327 92.457H183.809V99.9353H190.327V92.457Z" fill="#6C63FF"/>
<path opacity="0.1" d="M51.0219 57.6133H43.4551V65.0915H51.0219V57.6133Z" fill="#6C63FF"/>
<path opacity="0.1" d="M51.0219 74.9844H43.4551V82.4626H51.0219V74.9844Z" fill="#6C63FF"/>
<path opacity="0.1" d="M51.0219 92.3555H43.4551V99.8337H51.0219V92.3555Z" fill="#6C63FF"/>
<path opacity="0.1" d="M51.0219 109.723H43.4551V117.201H51.0219V109.723Z" fill="#6C63FF"/>
<path opacity="0.1" d="M51.0219 127.094H43.4551V134.572H51.0219V127.094Z" fill="#6C63FF"/>
<path opacity="0.1" d="M51.0219 144.463H43.4551V151.941H51.0219V144.463Z" fill="#6C63FF"/>
<path opacity="0.1" d="M215.207 92.457H208.688V99.9353H215.207V92.457Z" fill="#6C63FF"/>
<path opacity="0.1" d="M190.327 110.902H183.809V118.381H190.327V110.902Z" fill="#6C63FF"/>
<path opacity="0.1" d="M215.207 110.902H208.688V118.381H215.207V110.902Z" fill="#6C63FF"/>
<path opacity="0.1" d="M190.327 129.346H183.809V136.824H190.327V129.346Z" fill="#6C63FF"/>
<path opacity="0.1" d="M215.207 129.346H208.688V136.824H215.207V129.346Z" fill="#6C63FF"/>
<path opacity="0.1" d="M190.327 147.793H183.809V155.271H190.327V147.793Z" fill="#6C63FF"/>
<path opacity="0.1" d="M215.207 147.793H208.688V155.271H215.207V147.793Z" fill="#6C63FF"/>
<path opacity="0.1" d="M190.327 166.238H183.809V173.717H190.327V166.238Z" fill="#6C63FF"/>
<path opacity="0.1" d="M215.207 166.238H208.688V173.717H215.207V166.238Z" fill="#6C63FF"/>
<path opacity="0.1" d="M183.809 189.504V184.682H190.322V188.818L183.809 189.504Z" fill="#6C63FF"/>
<path opacity="0.1" d="M5.66113 78.459V82.7372H31.557V78.459H5.66113ZM8.24194 82.4689H6.1294V78.7219H8.2579L8.24194 82.4689ZM10.8201 82.4689H8.69158V78.7219H10.8201V82.4689ZM13.3929 82.4689H11.2644V78.7219H13.3929V82.4689ZM15.9711 82.4689H13.8426V78.7219H15.9711V82.4689ZM18.5465 82.4689H16.418V78.7219H18.5465V82.4689ZM21.1247 82.4689H18.9962V78.7219H21.1247V82.4689ZM23.7028 82.4689H21.5743V78.7219H23.7028V82.4689ZM26.2783 82.4689H24.1498V78.7219H26.2783V82.4689ZM28.8538 82.4689H26.7253V78.7219H28.8538V82.4689ZM31.4293 82.4689H29.3008V78.7219H31.4293V82.4689Z" fill="#6C63FF"/>
<path opacity="0.1" d="M5.66113 90.9102V95.1936H31.557V90.9102H5.66113ZM8.24194 94.9306H6.1294V91.181H8.2579L8.24194 94.9306ZM10.8201 94.9306H8.69158V91.181H10.8201V94.9306ZM13.3929 94.9306H11.2644V91.181H13.3929V94.9306ZM15.9711 94.9306H13.8426V91.181H15.9711V94.9306ZM18.5465 94.9306H16.418V91.181H18.5465V94.9306ZM21.1247 94.9306H18.9962V91.181H21.1247V94.9306ZM23.7028 94.9306H21.5743V91.181H23.7028V94.9306ZM26.2783 94.9306H24.1498V91.181H26.2783V94.9306ZM28.8538 94.9306H26.7253V91.181H28.8538V94.9306ZM31.4293 94.9306H29.3008V91.181H31.4293V94.9306Z" fill="#6C63FF"/>
<path opacity="0.1" d="M5.66113 103.363V107.649H31.557V103.363H5.66113ZM8.24194 107.371H6.1294V103.631H8.2579L8.24194 107.371ZM10.8201 107.371H8.69158V103.631H10.8201V107.371ZM13.3929 107.371H11.2644V103.631H13.3929V107.371ZM15.9711 107.371H13.8426V103.631H15.9711V107.371ZM18.5465 107.371H16.418V103.631H18.5465V107.371ZM21.1247 107.371H18.9962V103.631H21.1247V107.371ZM23.7028 107.371H21.5743V103.631H23.7028V107.371ZM26.2783 107.371H24.1498V103.631H26.2783V107.371ZM28.8538 107.371H26.7253V103.631H28.8538V107.371ZM31.4293 107.371H29.3008V103.631H31.4293V107.371Z" fill="#6C63FF"/>
<path opacity="0.1" d="M5.66113 115.814V120.087H31.557V115.814H5.66113ZM8.24194 119.822H6.1294V116.08H8.2579L8.24194 119.822ZM10.8201 119.822H8.69158V116.08H10.8201V119.822ZM13.3929 119.822H11.2644V116.08H13.3929V119.822ZM15.9711 119.822H13.8426V116.08H15.9711V119.822ZM18.5465 119.822H16.418V116.08H18.5465V119.822ZM21.1247 119.822H18.9962V116.08H21.1247V119.822ZM23.7028 119.822H21.5743V116.08H23.7028V119.822ZM26.2783 119.822H24.1498V116.08H26.2783V119.822ZM28.8538 119.822H26.7253V116.08H28.8538V119.822ZM31.4293 119.822H29.3008V116.08H31.4293V119.822Z" fill="#6C63FF"/>
<path opacity="0.1" d="M5.77295 128.266C5.87671 128.668 5.99378 129.07 6.11617 129.467V128.534H8.24467V132.268H7.10592C7.14051 132.354 7.1751 132.449 7.20969 132.531H31.5571V128.266H5.77295ZM10.8281 132.273H8.69964V128.534H10.8281V132.273ZM13.401 132.273H11.2725V128.534H13.401V132.273ZM15.9791 132.273H13.8506V128.534H15.9791V132.273ZM18.5546 132.273H16.4261V128.534H18.5546V132.273ZM21.1327 132.273H19.0042V128.534H21.1327V132.273ZM23.7109 132.273H21.5824V128.534H23.7109V132.273ZM26.2864 132.273H24.1579V128.534H26.2864V132.273ZM28.8618 132.273H26.7334V128.534H28.8618V132.273ZM31.4373 132.273H29.3088V128.534H31.4373V132.273Z" fill="#6C63FF"/>
<path opacity="0.1" d="M11.7812 140.719C11.8478 140.803 11.9116 140.898 11.9808 140.982H13.3883V142.786C13.5399 142.964 13.6889 143.143 13.8432 143.311V140.971H15.9717V144.723H15.115C15.2002 144.81 15.2826 144.902 15.3811 144.986H31.5657V140.719H11.7812ZM18.5419 144.723H16.4134V140.987H18.5419V144.723ZM21.12 144.723H18.9915V140.987H21.12V144.723ZM23.6982 144.723H21.5697V140.987H23.6982V144.723ZM26.2737 144.723H24.1452V140.987H26.2737V144.723ZM28.8492 144.723H26.7207V140.987H28.8492V144.723ZM31.4246 144.723H29.2961V140.987H31.4246V144.723Z" fill="#6C63FF"/>
<path opacity="0.1" d="M25.9912 153.169C26.2333 153.305 26.4808 153.432 26.7309 153.568V153.437H28.8594V154.618L29.3117 154.825V153.434H31.4402V155.709C31.4805 155.73 31.5234 155.746 31.5679 155.756V153.166L25.9912 153.169Z" fill="#6C63FF"/>
<path opacity="0.1" d="M150.072 125.927C150.117 126.095 150.152 126.264 150.195 126.429C150.157 126.264 150.117 126.095 150.072 125.927ZM40.5156 48.4258V49.5486H50.7511V48.4258H40.5156ZM150.072 125.927C150.117 126.095 150.152 126.264 150.195 126.429C150.157 126.264 150.117 126.095 150.072 125.927ZM150.072 125.927C150.117 126.095 150.152 126.264 150.195 126.429C150.157 126.264 150.117 126.095 150.072 125.927Z" fill="#6C63FF"/>
<path opacity="0.1" d="M98.0143 87.0879C98.411 87.0879 98.7326 86.77 98.7326 86.3779C98.7326 85.9858 98.411 85.668 98.0143 85.668C97.6175 85.668 97.2959 85.9858 97.2959 86.3779C97.2959 86.77 97.6175 87.0879 98.0143 87.0879Z" fill="black"/>
<path opacity="0.1" d="M99.337 117.82C99.7338 117.82 100.055 117.502 100.055 117.11C100.055 116.718 99.7338 116.4 99.337 116.4C98.9403 116.4 98.6187 116.718 98.6187 117.11C98.6187 117.502 98.9403 117.82 99.337 117.82Z" fill="black"/>
<path opacity="0.1" d="M98.7296 102.453C99.1263 102.453 99.448 102.135 99.448 101.743C99.448 101.351 99.1263 101.033 98.7296 101.033C98.3329 101.033 98.0112 101.351 98.0112 101.743C98.0112 102.135 98.3329 102.453 98.7296 102.453Z" fill="black"/>
<path opacity="0.1" d="M36.1868 200C50.5049 200 62.112 198.157 62.112 195.885C62.112 193.612 50.5049 191.77 36.1868 191.77C21.8688 191.77 10.2617 193.612 10.2617 195.885C10.2617 198.157 21.8688 200 36.1868 200Z" fill="#6C63FF"/>
<path d="M37.0222 117.053H35.354V154.173H37.0222V117.053Z" fill="#535461"/>
<path d="M47.5054 154.061L47.4016 155.734L47.2526 158.1L47.1914 159.084L47.0451 161.45L46.9813 162.434L46.8323 164.8L45.1507 191.639C45.077 192.793 44.5611 193.877 43.7081 194.668C42.855 195.46 41.7288 195.901 40.5585 195.902H31.8157C30.6452 195.901 29.519 195.46 28.6663 194.667C27.8136 193.875 27.2986 192.791 27.2261 191.637L25.5526 164.782L25.4036 162.415L25.3504 161.432L25.2014 159.065L25.1402 158.082L24.9912 155.715L24.8848 154.043C24.8668 153.732 24.9109 153.422 25.0146 153.128C25.1183 152.834 25.2795 152.564 25.489 152.332C25.6986 152.1 25.9523 151.911 26.2358 151.776C26.5192 151.641 26.8268 151.562 27.141 151.545H45.1614C45.4734 151.547 45.7819 151.61 46.0692 151.731C46.3565 151.851 46.6171 152.026 46.836 152.246C47.0549 152.465 47.2278 152.726 47.345 153.011C47.4621 153.297 47.5212 153.603 47.5187 153.911C47.5107 153.961 47.5081 154.011 47.5054 154.061Z" fill="#C85C35"/>
<path d="M47.3983 155.734L47.2493 158.093H25.1182L24.9692 155.734H47.3983Z" fill="#F4B43F"/>
<path d="M47.1886 159.076L47.0423 161.437H25.3316L25.1826 159.076H47.1886Z" fill="#F4B43F"/>
<path d="M46.9809 162.422L46.8319 164.781H25.5389L25.3926 162.422H46.9809Z" fill="#F4B43F"/>
<path d="M22.4237 130.966C32.1376 137.914 36.1924 148.779 36.1924 148.779C36.1924 148.779 24.4857 148.382 14.7691 141.434C5.05245 134.487 1.0083 123.625 1.0083 123.625C1.0083 123.625 12.7097 124.019 22.4237 130.966Z" fill="#43999E"/>
<path d="M1 123.625C1 123.625 13.1537 130.291 17.0515 135.81C20.9494 141.329 36.1947 148.779 36.1947 148.779" stroke="#535461" stroke-width="2" stroke-miterlimit="10"/>
<path d="M28.6969 116.971C33.9836 120.75 36.1946 126.664 36.1946 126.664C36.1946 126.664 29.8224 126.448 24.5331 122.669C19.2437 118.891 17.0381 112.975 17.0381 112.975C17.0381 112.975 23.4076 113.19 28.6969 116.971Z" fill="#43999E"/>
<path d="M17.0381 112.975C17.0381 112.975 23.6524 116.603 25.7729 119.606C27.8934 122.609 36.1946 126.664 36.1946 126.664" stroke="#535461" stroke-width="2" stroke-miterlimit="10"/>
<path d="M43.8704 126.365C37.7962 132.962 36.5244 141.584 36.5244 141.584C36.5244 141.584 45.089 139.507 51.1578 132.907C57.2267 126.307 58.5171 117.688 58.5171 117.688C58.5171 117.688 49.9446 119.767 43.8704 126.365Z" fill="#43999E"/>
<path d="M58.5092 117.689C58.5092 117.689 50.5965 124.452 48.585 129.112C46.5736 133.771 36.5244 141.584 36.5244 141.584" stroke="#535461" stroke-width="2" stroke-miterlimit="10"/>
<path d="M195.119 106.07C195.137 106.042 195.16 106.019 195.188 106.002C195.204 105.99 195.223 105.984 195.243 105.984C195.262 105.984 195.282 105.99 195.297 106.002C195.314 106.023 195.327 106.047 195.335 106.073C195.349 106.1 195.369 106.124 195.394 106.143C195.419 106.161 195.448 106.174 195.478 106.181L195.444 106.444L195.119 106.07Z" fill="#727A9C"/>
<path d="M205.474 158.791C205.474 162.315 202.409 165.168 198.626 165.168H140.432C136.652 165.168 133.584 162.315 133.584 158.791V77.2144C133.584 73.6935 136.652 70.8379 140.432 70.8379H198.628C202.412 70.8379 205.477 73.6935 205.477 77.2144L205.474 158.791Z" fill="#494C59"/>
<path d="M199.395 159.9H139.664V77.043H184.458L199.395 77.1508V159.9Z" fill="white"/>
<path d="M177.368 67.3363C177.192 63.442 173.757 60.334 169.532 60.334C165.307 60.334 161.87 63.442 161.694 67.3363H156.519V80.3391H182.567V67.3363H177.368ZM169.532 70.2734C167.973 70.2734 166.712 69.098 166.712 67.6439C166.712 66.1898 167.973 65.0145 169.532 65.0145C171.091 65.0145 172.35 66.1898 172.35 67.6439C172.35 69.098 171.089 70.2734 169.532 70.2734Z" fill="#9E989C"/>
<path d="M149.798 94.14H142.71V87.1719H149.798V94.14ZM143.362 93.4984H149.146V87.8056H143.362V93.4984Z" fill="#564F53"/>
<path d="M149.798 103.421H142.71V96.4531H149.798V103.421ZM143.362 102.78H149.146V97.0947H143.362V102.78Z" fill="#564F53"/>
<path d="M149.798 112.79H142.71V105.822H149.798V112.79ZM143.362 112.151H149.146V106.464H143.362V112.151Z" fill="#564F53"/>
<path d="M169.598 88.2031H152.895V88.8447H169.598V88.2031Z" fill="#564F53"/>
<path d="M196.159 92.5293H152.895V93.1709H196.159V92.5293Z" fill="#564F53"/>
<path d="M169.598 97.334H152.895V97.9756H169.598V97.334Z" fill="#564F53"/>
<path d="M196.159 101.658H152.895V102.3H196.159V101.658Z" fill="#564F53"/>
<path d="M169.598 106.383H152.895V107.024H169.598V106.383Z" fill="#564F53"/>
<path d="M196.159 110.709H152.895V111.351H196.159V110.709Z" fill="#564F53"/>
<path d="M147.691 89.1113L145.629 91.0282L144.82 90.2499L144.227 90.8626L145.64 92.1799L148.282 89.6635L147.691 89.1113Z" fill="#43999E"/>
<path d="M183.694 79.1543H155.502V80.356H183.694V79.1543Z" fill="#A0939A"/>
<path d="M96.646 111.971H66.0781V145.749H96.646V111.971Z" fill="#CCCCCC"/>
<path d="M81.7554 187.009L81.2233 194.109C81.1794 194.706 81.3772 195.296 81.7734 195.749C82.1695 196.203 82.7315 196.482 83.3359 196.525C83.4377 196.532 83.5399 196.532 83.6418 196.525L87.3295 196.305C87.6378 196.286 87.9259 196.146 88.1304 195.918C88.335 195.689 88.4392 195.389 88.4203 195.084C88.4177 195.013 88.407 194.943 88.3884 194.874L86.3424 186.783L81.7554 187.009Z" fill="#E6E6E6"/>
<path d="M112.618 191.206C116.957 192.21 120.068 193.635 122.095 195.565C122.82 196.242 123.765 196.641 124.761 196.691C126.038 196.756 127.084 196.614 127.869 196.267C128.07 196.18 128.243 196.041 128.372 195.865C128.5 195.689 128.578 195.482 128.598 195.266C128.62 195.045 128.583 194.823 128.489 194.622C128.396 194.421 128.249 194.248 128.065 194.122L117.779 186.891L113.416 188.621L112.394 189.628C112.3 189.721 112.226 189.831 112.175 189.952C112.124 190.073 112.098 190.203 112.098 190.334C112.098 190.465 112.124 190.595 112.175 190.716C112.226 190.837 112.3 190.947 112.394 191.04C112.459 191.106 112.533 191.162 112.615 191.206H112.618Z" fill="#E6E6E6"/>
<path d="M99.2545 75.3622L69.8359 75.0992C69.9078 70.8658 70.9002 66.7059 73.0846 62.9852C74.516 60.5398 74.4867 57.8814 74.1488 55.6411C73.6167 52.1807 74.8539 48.644 77.6076 46.4379C79.707 44.7545 82.3562 43.8867 85.0574 43.9978L85.6294 44.0214C87.4885 44.0969 89.2988 44.6323 90.8941 45.5787C92.4895 46.5251 93.819 47.8521 94.7607 49.4382C95.7172 51.1337 96.103 53.086 95.8622 55.0126C95.6759 56.827 96.1282 58.6571 97.1659 60.5056C98.9671 64.5761 99.3556 69.7719 99.2545 75.3622Z" fill="#2F2E41"/>
<path d="M118.938 187.268L113.164 188.756L85.0469 128.218L86.8109 187.268H81.0373C74.862 159.487 63.722 127.423 68.7186 117.303L98.5948 115.564L118.938 187.268Z" fill="#145A7B"/>
<path d="M84.7965 65.1989C89.0945 65.1989 92.5788 61.7554 92.5788 57.5076C92.5788 53.2599 89.0945 49.8164 84.7965 49.8164C80.4984 49.8164 77.0142 53.2599 77.0142 57.5076C77.0142 61.7554 80.4984 65.1989 84.7965 65.1989Z" fill="#FFB9B9"/>
<path d="M91.5759 71.6491L78.7729 70.905C80.0261 68.0599 80.5263 65.3174 80.0261 62.7168H89.5671C89.5458 64.7152 90.5515 68.1677 91.5759 71.6491Z" fill="#FFB9B9"/>
<path d="M99.6077 117.798L71.4902 119.783L74.377 70.5327L79.2726 69.168L84.796 70.4091L90.3168 67.6797L93.8315 68.9208L99.6077 117.798Z" fill="#145A7B"/>
<path d="M76.261 153.278L57.0566 148.936C62.7663 130.22 73.055 87.4066 69.7345 72.1557L79.7757 67.6855L76.261 153.278Z" fill="#E6E6E6"/>
<path d="M66.9726 99.1911L59.6904 94.721L65.9003 76.7512C66.5917 74.8964 67.918 73.3392 69.6491 72.3494L71.7431 71.1504L70.4872 89.2622L66.9726 99.1911Z" fill="#E6E6E6"/>
<path d="M116.303 149.183C110.24 152.649 95.0902 154.581 88.4359 152.162C87.9464 135.252 86.9859 87.4194 90.0696 67.1855L101.114 71.6557L100.113 85.0476C94.8294 96.5069 110.163 136.428 116.303 149.183Z" fill="#E6E6E6"/>
<path d="M115.423 96.9565L108.643 94.7241L99.6079 84.5506L101.114 71.6504L116.176 92.4916L115.423 96.9565Z" fill="#E6E6E6"/>
<path d="M94.1802 106.615C94.2913 107.096 94.5909 107.514 95.0133 107.777C95.4358 108.04 95.9466 108.127 96.4338 108.019L102.186 106.73L101.356 103.102L95.5903 104.395C95.1037 104.504 94.6807 104.8 94.4143 105.217C94.1479 105.634 94.0599 106.139 94.1696 106.62L94.1802 106.615Z" fill="#FFB9B9"/>
<path d="M91.5758 55.5224C87.2522 53.7659 82.9819 53.6397 78.7728 55.2752L77.0142 49.0723H93.0817L91.5758 55.5224Z" fill="#2F2E41"/>
<path d="M99.3579 102.414L102.62 108.37C108.109 106.855 112.869 102.085 117.432 96.4607L116.178 92.4902L108.396 94.4755L99.3579 102.414Z" fill="#E6E6E6"/>
<path d="M96.9714 90.136H95.9683C95.9683 76.0998 93.0416 66.3155 90.1948 66.3155L89.9287 65.3242C92.4856 65.3242 94.1139 69.3947 95.0318 72.8103C96.2876 77.4409 96.9714 83.5938 96.9714 90.136Z" fill="#3F3D56"/>
<path d="M73.8768 86.6616H72.8711C72.8711 73.806 75.8164 65.8203 80.1506 65.8203L79.9005 66.8116C76.9019 66.8116 73.8768 72.9488 73.8768 86.6616Z" fill="#3F3D56"/>
<path d="M98.9531 90.7828C99.1753 89.4296 98.2455 88.1545 96.8763 87.9349C95.5071 87.7152 94.217 88.6341 93.9947 89.9873C93.7725 91.3405 94.7023 92.6156 96.0715 92.8352C97.4407 93.0549 98.7308 92.136 98.9531 90.7828Z" fill="#3F3D56"/>
<path d="M69.8597 92.6142H68.854C68.854 89.0565 70.8814 86.1641 73.3771 86.1641V87.1554C71.4348 87.1554 69.8597 89.6061 69.8597 92.6142Z" fill="#3F3D56"/>
<path d="M77.8923 92.6142H76.8892C76.8892 89.6061 75.3115 87.1554 73.3745 87.1554V86.1641C75.8649 86.1641 77.8923 89.0565 77.8923 92.6142Z" fill="#3F3D56"/>
<path d="M77.3893 93.8518C77.9433 93.8518 78.3923 93.4079 78.3923 92.8605C78.3923 92.313 77.9433 91.8691 77.3893 91.8691C76.8353 91.8691 76.3862 92.313 76.3862 92.8605C76.3862 93.4079 76.8353 93.8518 77.3893 93.8518Z" fill="#3F3D56"/>
<path d="M69.3571 93.8518C69.911 93.8518 70.3601 93.4079 70.3601 92.8605C70.3601 92.313 69.911 91.8691 69.3571 91.8691C68.8031 91.8691 68.354 92.313 68.354 92.8605C68.354 93.4079 68.8031 93.8518 69.3571 93.8518Z" fill="#3F3D56"/>
<path d="M56.8042 83.7344L63.07 84.8414L77.3895 104.965L69.7827 103.195L56.8042 83.7344Z" fill="#6C63FF"/>
<path d="M55.6942 83.4917C55.5531 83.4917 55.4178 83.5471 55.318 83.6457C55.2182 83.7443 55.1621 83.8781 55.1621 84.0176C55.1632 84.1186 55.1936 84.2172 55.2499 84.3016L68.6355 104.372C68.7106 104.485 68.8269 104.565 68.9601 104.596L75.186 106.042C75.2908 106.067 75.4007 106.059 75.5011 106.02C75.6015 105.982 75.6877 105.914 75.7482 105.826C75.8088 105.738 75.8408 105.634 75.8402 105.527C75.8396 105.421 75.8063 105.317 75.7447 105.23L61.0474 84.575C60.9665 84.4627 60.8442 84.3862 60.7068 84.362L55.7874 83.4943C55.7565 83.49 55.7253 83.4891 55.6942 83.4917V83.4917Z" fill="#3F3D56"/>
<path d="M64.043 97.8406L64.4155 101.543L70.2848 100.975C70.5308 100.951 70.7696 100.879 70.9875 100.764C71.2055 100.649 71.3983 100.492 71.5551 100.304C71.7119 100.115 71.8295 99.8972 71.9011 99.6634C71.9728 99.4296 71.9972 99.1842 71.973 98.9411C71.9487 98.698 71.8762 98.462 71.7596 98.2466C71.643 98.0312 71.4847 97.8406 71.2936 97.6856C71.1025 97.5307 70.8824 97.4145 70.6458 97.3436C70.4093 97.2728 70.1609 97.2487 69.915 97.2727L64.043 97.8406Z" fill="#FFB9B9"/>
<path d="M58.9375 97.4133C58.9459 98.6762 59.4591 99.8845 60.3651 100.775C61.2712 101.666 62.4967 102.166 63.7745 102.167H64.7403L65.4427 96.3826L59.6239 94.3105L58.9375 97.4133Z" fill="#E6E6E6"/>
<path d="M147.691 98.4434L145.629 100.363L144.82 99.5819L144.227 100.195L145.64 101.515L148.282 98.9955L147.691 98.4434Z" fill="#43999E"/>
<path d="M147.691 107.771L145.629 109.691L144.82 108.91L144.227 109.523L145.64 110.843L148.282 108.324L147.691 107.771Z" fill="#43999E"/>
<path d="M149.894 121.954H142.806V114.988H149.894V121.954ZM143.458 121.315H149.242V115.627H143.458V121.315Z" fill="#564F53"/>
<path d="M169.692 115.545H152.988V116.187H169.692V115.545Z" fill="#564F53"/>
<path d="M196.253 119.871H152.988V120.513H196.253V119.871Z" fill="#564F53"/>
<path d="M149.894 131.533H142.806V124.564H149.894V131.533ZM143.458 130.891H149.242V125.206H143.458V130.891Z" fill="#564F53"/>
<path d="M169.692 125.123H152.988V125.765H169.692V125.123Z" fill="#564F53"/>
<path d="M196.253 129.447H152.988V130.089H196.253V129.447Z" fill="#564F53"/>
<path d="M150.056 141.693H142.968V134.725H150.056V141.693ZM143.62 141.051H149.404V135.364H143.62V141.051Z" fill="#B83F7A"/>
<path d="M169.857 135.283H153.153V135.925H169.857V135.283Z" fill="#564F53"/>
<path d="M196.418 139.605H153.153V140.247H196.418V139.605Z" fill="#564F53"/>
<path d="M147.949 136.668L145.884 138.587L145.078 137.809L144.485 138.422L145.898 139.739L148.54 137.223L147.949 136.668Z" fill="#F6C645"/>
<path d="M149.963 151.428H142.873V144.463H149.963V151.428ZM143.524 150.789H149.311V145.102H143.524V150.789Z" fill="#B83F7A"/>
<path d="M169.761 145.02H153.057V145.661H169.761V145.02Z" fill="#564F53"/>
<path d="M196.322 149.346H153.057V149.987H196.322V149.346Z" fill="#564F53"/>
<path d="M147.853 146.41L145.791 148.33L144.985 147.549L144.389 148.161L145.805 149.481L148.444 146.962L147.853 146.41Z" fill="#F6C645"/>
<path d="M148.755 161.081H141.667V154.115H148.755V161.081ZM142.319 160.442H148.103V154.754H142.319V160.442Z" fill="#B83F7A"/>
<path d="M146.648 156.061L144.584 157.98L143.777 157.199L143.184 157.812L144.597 159.132L147.239 156.615L146.648 156.061Z" fill="#F6C645"/>
<path d="M147.731 133.086V154.174V175.263H164.437H181.146V154.174V133.086H164.437H147.731Z" fill="#B83F7A"/>
<path d="M177.519 136.135H151.28V143.305H177.519V136.135Z" fill="#552356"/>
<path d="M158.727 146.584H151.28V153.944H158.727V146.584Z" fill="#D389AD"/>
<path d="M158.727 155.736H151.28V163.096H158.727V155.736Z" fill="#D389AD"/>
<path d="M158.727 164.889H151.28V172.249H158.727V164.889Z" fill="#D389AD"/>
<path d="M168.066 146.584H160.619V153.944H168.066V146.584Z" fill="#D389AD"/>
<path d="M177.634 146.584H170.187V153.944H177.634V146.584Z" fill="#D389AD"/>
<path d="M177.634 155.584H170.187V172.247H177.634V155.584Z" fill="#E37F38"/>
<path d="M168.066 155.736H160.619V163.096H168.066V155.736Z" fill="#D389AD"/>
<path d="M168.066 164.889H160.619V172.249H168.066V164.889Z" fill="#D389AD"/>
<path d="M174.973 163.668H173.816H172.656V163.476V163.287H173.816H174.973V163.476V163.668Z" fill="#552356"/>
<path d="M174.973 164.735H173.816H172.656V164.543V164.354H173.816H174.973V164.543V164.735Z" fill="#552356"/>
<path d="M171.815 138.223C171.668 138.184 171.514 138.184 171.368 138.223C171.162 138.407 171.004 138.637 170.905 138.893C170.837 139.321 170.812 139.754 170.83 140.187C170.89 140.509 171.006 140.817 171.174 141.1C171.363 141.217 171.589 141.261 171.809 141.223C172.02 141.036 172.179 140.799 172.27 140.534C172.328 140.12 172.35 139.701 172.336 139.283C172.318 139.038 171.95 138.268 171.815 138.223Z" fill="#552356"/>
<path d="M171.613 137.749C171.421 137.747 171.232 137.793 171.063 137.883C170.895 137.972 170.751 138.103 170.647 138.261C170.374 138.703 170.242 139.217 170.269 139.734C170.247 140.243 170.373 140.747 170.631 141.188C170.726 141.343 170.86 141.472 171.021 141.561C171.181 141.65 171.362 141.696 171.546 141.695C171.744 141.701 171.939 141.655 172.113 141.562C172.287 141.47 172.434 141.335 172.539 141.169C172.798 140.715 172.92 140.197 172.89 139.676C172.916 139.18 172.8 138.687 172.554 138.253C172.457 138.094 172.318 137.964 172.153 137.875C171.987 137.787 171.801 137.743 171.613 137.749V137.749ZM171.575 141.296C171.451 141.29 171.331 141.248 171.229 141.175C171.128 141.103 171.051 141.003 171.006 140.888C170.715 140.137 170.715 139.307 171.006 138.556C171.047 138.435 171.127 138.33 171.232 138.257C171.337 138.183 171.464 138.145 171.593 138.147C171.722 138.149 171.847 138.192 171.95 138.268C172.053 138.345 172.129 138.452 172.166 138.574C172.308 138.934 172.372 139.319 172.355 139.705C172.373 140.101 172.306 140.496 172.161 140.864C172.118 140.986 172.04 141.092 171.935 141.169C171.831 141.246 171.705 141.29 171.575 141.296V141.296Z" fill="white"/>
<path d="M167.624 138.257L167.675 138.454L167.725 138.651L168.06 138.473L168.396 138.294H168.404H168.409V139.961V141.628H168.662H168.914V139.719V137.812H168.691H168.467L168.047 138.033L167.624 138.257Z" fill="white"/>
<path d="M174.861 138.223C174.716 138.184 174.562 138.184 174.417 138.223C174.21 138.407 174.051 138.637 173.951 138.893C173.884 139.321 173.859 139.755 173.877 140.187C173.937 140.509 174.053 140.817 174.22 141.1C174.409 141.217 174.636 141.261 174.856 141.223C175.067 141.036 175.225 140.799 175.316 140.534C175.374 140.12 175.396 139.701 175.383 139.283C175.367 139.038 174.992 138.268 174.861 138.223Z" fill="#552356"/>
<path d="M174.659 137.747C174.467 137.745 174.279 137.792 174.11 137.881C173.941 137.971 173.798 138.101 173.693 138.259C173.42 138.702 173.289 139.215 173.315 139.732C173.295 140.241 173.421 140.745 173.677 141.186C173.772 141.342 173.907 141.47 174.067 141.559C174.228 141.648 174.409 141.694 174.592 141.693C174.79 141.699 174.985 141.653 175.159 141.561C175.333 141.468 175.48 141.333 175.585 141.168C175.845 140.713 175.966 140.195 175.936 139.674C175.962 139.178 175.847 138.686 175.604 138.252C175.505 138.092 175.366 137.961 175.2 137.873C175.034 137.784 174.848 137.741 174.659 137.747ZM174.624 141.294C174.499 141.288 174.379 141.246 174.277 141.174C174.176 141.102 174.098 141.002 174.052 140.886C173.762 140.135 173.762 139.305 174.052 138.554C174.094 138.433 174.173 138.329 174.278 138.255C174.384 138.182 174.51 138.143 174.639 138.145C174.768 138.147 174.893 138.19 174.996 138.266C175.099 138.343 175.175 138.45 175.212 138.572C175.355 138.932 175.42 139.317 175.401 139.703C175.419 140.099 175.353 140.494 175.207 140.863C175.165 140.984 175.087 141.09 174.983 141.167C174.879 141.244 174.754 141.288 174.624 141.294Z" fill="white"/>
<path d="M139.225 132.174C136.817 135.237 130.57 138.193 124.692 138.222C124.692 138.295 124.751 139.418 124.839 153.21C125.985 162.765 130.785 167.89 139.355 172.844C146.161 169.176 153.416 162.655 153.762 153.144L153.472 138.216C147.119 137.296 142.197 135.129 139.225 132.174Z" fill="#145A7B"/>
<path d="M143.362 147.848L137.394 153.64L135.061 151.287L133.339 153.136L137.431 157.114L145.067 149.517L143.362 147.848Z" fill="white"/>
<path d="M139.225 128.771C136.413 132.345 129.115 135.797 122.264 135.821C122.264 135.905 122.333 137.217 122.431 153.318C123.762 164.469 129.376 170.454 139.377 176.234C147.324 171.955 155.79 164.343 156.192 153.241L155.851 135.821C148.442 134.751 142.684 132.221 139.225 128.771ZM139.356 172.836C130.786 167.882 125.986 162.757 124.839 153.202C124.751 139.405 124.703 138.282 124.693 138.214C130.57 138.196 136.817 135.24 139.225 132.166C142.205 135.122 147.127 137.288 153.473 138.214L153.763 153.141C153.409 162.647 146.143 169.168 139.348 172.836H139.356Z" fill="#2194C1"/>
<g clip-path="url(#clip0_5937_200950)">
<path d="M83.5637 56.4929C83.0027 56.0392 82.3261 55.7503 81.6097 55.6584C80.9195 55.6254 80.231 55.751 79.5972 56.0254C80.1828 55.5705 80.9066 55.3288 81.6488 55.3402C82.3832 55.3995 83.0899 55.6466 83.7005 56.0578L83.5637 56.4929Z" fill="#7C431D"/>
<path d="M86.1951 60.7695C85.7868 60.9706 85.3456 61.097 84.8925 61.1429C84.4329 61.1134 83.982 61.0034 83.5605 60.8182C83.5605 60.8182 84.1923 61.7144 84.9088 61.7924C85.6252 61.8703 86.1951 60.7695 86.1951 60.7695Z" fill="#BA7343"/>
<path d="M86.0944 56.4211C86.6607 55.9857 87.3372 55.7159 88.0484 55.6418C88.7398 55.6259 89.4254 55.7704 90.0512 56.0639C89.4606 55.5951 88.7314 55.3338 87.9767 55.3203C87.2641 55.3499 86.5762 55.5895 86 56.0087L86.0944 56.4211Z" fill="#7C431D"/>
<path d="M81.3102 57.8654C81.3196 57.9903 81.3665 58.1096 81.4446 58.2077C81.5228 58.3059 81.6287 58.3784 81.7486 58.416C81.8685 58.4535 81.9969 58.4544 82.1173 58.4184C82.2377 58.3824 82.3445 58.3113 82.424 58.2142C82.5034 58.117 82.5518 57.9984 82.563 57.8736C82.5741 57.7487 82.5474 57.6235 82.4864 57.5139C82.4254 57.4043 82.3328 57.3155 82.2207 57.2589C82.1085 57.2023 81.9819 57.1806 81.8573 57.1965C81.6978 57.2176 81.5524 57.2985 81.4508 57.4228C81.3491 57.5471 81.2988 57.7054 81.3102 57.8654Z" fill="#3D3F0B"/>
<path d="M83.6648 57.944C83.6648 57.944 82.8898 56.9309 81.7858 56.9698C80.6818 57.0088 80.7176 57.3952 80.4245 57.3498C80.2453 57.3175 80.0816 57.2273 79.9588 57.0932C80.0277 57.2995 80.1584 57.4797 80.3333 57.6095C80.2188 57.6713 80.0854 57.6886 79.9588 57.6582C79.7948 57.6303 79.6466 57.5437 79.542 57.4147C79.542 57.4147 79.7276 57.9245 80.0891 57.8888C80.4506 57.853 80.9847 57.2848 81.636 57.301C82.3623 57.3033 83.0704 57.5277 83.6648 57.944V57.944Z" fill="#30251B"/>
<path d="M88.4978 57.7107C88.4978 57.8345 88.461 57.9555 88.3921 58.0585C88.3231 58.1615 88.2252 58.2418 88.1105 58.2894C87.9959 58.3369 87.8697 58.3495 87.7478 58.3256C87.626 58.3017 87.514 58.2423 87.426 58.155C87.3379 58.0677 87.2778 57.9563 87.2532 57.8349C87.2286 57.7136 87.2406 57.5877 87.2876 57.4731C87.3347 57.3586 87.4148 57.2605 87.5177 57.1912C87.6206 57.122 87.7418 57.0847 87.866 57.084C87.9489 57.0832 88.0312 57.0988 88.108 57.1299C88.1849 57.161 88.2547 57.2071 88.3135 57.2654C88.3723 57.3238 88.4189 57.3932 88.4505 57.4696C88.4821 57.5461 88.4982 57.628 88.4978 57.7107V57.7107Z" fill="#3D3F0B"/>
<path d="M86.1494 58.0288C86.1494 58.0288 86.8007 56.941 87.9145 56.8631C89.0283 56.7852 89.025 57.1878 89.3116 57.0969C89.4865 57.047 89.6399 56.9409 89.7479 56.7949C89.6998 57.0101 89.586 57.2052 89.4223 57.3534C89.5439 57.3999 89.6785 57.3999 89.8001 57.3534C89.9611 57.3092 90.1002 57.2075 90.1909 57.0677C90.1909 57.0677 90.0573 57.5937 89.6958 57.5937C89.3344 57.5937 88.7612 57.0872 88.1164 57.1651C87.387 57.2434 86.6998 57.5451 86.1494 58.0288V58.0288Z" fill="#30251B"/>
<path d="M87.1071 62.5938C86.8746 62.9517 86.5611 63.2501 86.1917 63.465C85.8223 63.6799 85.4074 63.8052 84.9805 63.8309C83.6258 63.8861 82.9419 62.6165 82.9419 62.6165C82.9419 62.6165 84.4236 63.1685 85.2215 63.0321C86.0194 62.8957 87.1071 62.5938 87.1071 62.5938Z" fill="#A03227"/>
<path d="M87.172 62.5098C86.8855 62.604 86.5845 62.6468 86.283 62.6364C86.055 62.6039 85.7229 62.565 85.5926 62.5617C85.3698 62.5631 85.1536 62.6372 84.9771 62.7728C84.828 62.6761 84.6607 62.6109 84.4854 62.5812C84.2656 62.5928 84.0475 62.6254 83.834 62.6786C83.5255 62.7129 83.2132 62.6797 82.9189 62.5812C82.9189 62.5812 83.186 63.2501 84.9641 63.2306C86.7422 63.2111 87.172 62.5098 87.172 62.5098Z" fill="#7F271B"/>
</g>
<defs>
<clipPath id="clip0_5937_200950">
<rect width="10.6328" height="8.51056" fill="white" transform="translate(79.5518 55.3203)"/>
</clipPath>
</defs>
</svg>
