<?xml version="1.0" encoding="utf-8"?>
<!-- Generator: Adobe Illustrator 25.4.1, SVG Export Plug-In . SVG Version: 6.00 Build 0)  -->
<svg version="1.1" id="Layer_1" xmlns="http://www.w3.org/2000/svg" xmlns:xlink="http://www.w3.org/1999/xlink" x="0px" y="0px"
	 viewBox="0 0 40 40" style="enable-background:new 0 0 40 40;" xml:space="preserve">
<style type="text/css">
	.st0{fill:#F5F6FB;}
	.st1{fill:#D75527;}
</style>
<path class="st0" d="M31.4,40H8.6C3.8,40,0,36.2,0,31.4V8.6C0,3.8,3.8,0,8.6,0h22.8C36.2,0,40,3.8,40,8.6v22.8
	C40,36.2,36.2,40,31.4,40z"/>
<path class="st1" d="M17.8,22H14v-4.4h3.7v-3.7h4.5v3.7H26V22h-3.7v3.7h-4.5V22z M20,5.7L8,10.1v9c0,7.5,5.1,14.4,12,16.1
	c6.9-1.7,12-8.7,12-16.1v-9L20,5.7z M29,19.2c0,2.8-0.8,5.6-2.4,7.9c-1.6,2.3-3.9,4.1-6.6,5.1c-2.7-1-5-2.8-6.6-5.1
	C11.8,24.7,11,22,11,19.2v-7l9-3.3l9,3.3V19.2z"/>
</svg>
