<svg xmlns="http://www.w3.org/2000/svg" width="173" height="128" viewBox="0 0 173 128" fill="none">
  <g clip-path="url(#clip0_2980_149941)">
    <path d="M169.373 84.2056C173.326 77.9603 173.089 70.0945 167.792 64.4421C164.234 60.6475 158.661 57.9992 155.657 53.928C153.444 50.9634 152.772 47.4851 152.218 44.0858C150.558 34.0064 149.135 23.4527 141.941 14.8358C131.546 2.4244 108.897 -3.34653 90.7144 1.9896C84.5482 3.80784 79.054 6.65378 73.0854 8.82776C66.8178 11.0558 60.2994 12.5028 53.6777 13.1362C45.6142 13.9267 37.4322 13.6105 29.4082 14.4406C21.3842 15.2706 13.0836 17.4446 7.86602 22.1088C1.30455 27.9983 0.988336 36.5361 2.64847 44.1648C3.55759 48.3547 4.98055 52.5445 4.26907 56.7739C3.55759 61.1219 0.55354 65.1931 0.0792166 69.5806C-0.434633 74.0472 1.69982 78.4742 4.9015 82.2292C13.6765 92.5853 31.266 98.3167 47.3534 96.0241C53.9544 95.0755 60.1601 92.941 66.7611 92.0319C80.9513 90.016 95.3391 93.6525 109.253 96.538C126.131 100.056 144.906 101.953 159.373 93.2572C163.523 90.767 167.08 87.8421 169.373 84.2056Z" fill="#EAEAEA"/>
    <path d="M78.1449 110.882C110.825 110.882 137.317 108.954 137.317 106.574C137.317 104.195 110.825 102.266 78.1449 102.266C45.4653 102.266 18.9731 104.195 18.9731 106.574C18.9731 108.954 45.4653 110.882 78.1449 110.882Z" fill="#D1D1D1"/>
    <path d="M103.719 128.004C117.21 128.004 128.146 126.446 128.146 124.525C128.146 122.604 117.21 121.047 103.719 121.047C90.2276 121.047 79.291 122.604 79.291 124.525C79.291 126.446 90.2276 128.004 103.719 128.004Z" fill="#D1D1D1"/>
    <path d="M25.4553 85.7448C29.408 87.8793 31.8982 91.0019 34.9023 94.085C38.1039 97.4052 40.5151 101.318 40.9104 106.022C31.6215 107.01 19.052 107.445 11.3442 101.042C8.45876 98.6306 6.44289 95.4289 4.58512 92.1482C2.96452 89.3022 1.42297 86.3772 0 83.4127C8.41923 81.1202 17.7871 81.5945 25.4553 85.7448Z" fill="#2FAC66"/>
    <path d="M41.1079 105.032L37.3528 103.57C31.7005 101.317 26.0877 98.6683 21.384 94.9923C21.2654 94.9133 21.1863 94.8342 21.0678 94.7552C20.7911 94.518 20.4749 94.2808 20.1982 94.0437C17.3273 91.6177 14.9633 88.6493 13.2414 85.3082L13.1229 85.0711C12.9252 84.6363 12.6881 84.2015 12.4904 83.7667C10.5122 79.5789 9.12861 75.1353 8.37962 70.5647C8.30762 70.2121 8.25484 69.8558 8.22152 69.4975C7.62222 65.454 7.51604 61.3527 7.9053 57.2837C7.94483 57.007 7.94483 56.6908 7.98436 56.4141C8.14246 56.4141 8.26104 56.4536 8.41915 56.4536C12.9241 57.081 17.159 58.9723 20.633 61.9083C20.9097 62.1455 21.2259 62.3826 21.5026 62.6593C25.0644 65.7854 28.0248 69.5362 30.238 73.7269C30.2842 73.8227 30.337 73.9151 30.3961 74.0035C30.5937 74.3593 30.7914 74.715 30.9495 75.0708C32.73 78.4279 34.3138 81.8858 35.6927 85.4268C35.8904 85.9011 36.088 86.415 36.2461 86.8893C36.5623 87.7589 36.8785 88.589 37.1552 89.4586C38.0643 92.0673 38.8153 94.7156 39.4873 97.3639C39.764 98.194 40.5941 104.795 41.1079 105.032Z" fill="#5CC78B"/>
    <path d="M39.6058 104.438C38.8548 104.162 38.1038 103.845 37.3528 103.569C35.1393 100.723 33.3606 97.5211 31.6214 94.3194H31.3447C28.6872 93.8446 25.9631 93.8849 23.3207 94.438C22.6488 94.5961 22.0164 94.7938 21.3839 94.9914C21.2653 94.9123 21.1863 94.8333 21.0677 94.7542C20.791 94.5171 20.4748 94.2799 20.1981 94.0428C21.2752 93.6306 22.3861 93.3131 23.5184 93.0941C24.6766 92.8497 25.8534 92.7042 27.0363 92.6593C27.7873 92.6198 29.8822 93.0941 30.4751 92.8174L30.7123 92.6988C29.4474 90.3272 28.2221 87.9556 26.7991 85.7026C22.0164 83.8448 17.7475 84.082 13.0833 85.1097C12.8461 84.6749 12.6485 84.2401 12.4508 83.8053C16.5221 82.1452 21.3444 82.4218 25.5343 83.7262C23.2417 80.1293 20.8306 76.6114 18.4194 73.0935C18.2997 73.1198 18.1747 73.1059 18.0637 73.054C14.9015 71.1962 11.6998 70.8009 8.34005 70.6428C8.26804 70.2902 8.21526 69.9339 8.18194 69.5756C11.3046 69.4965 14.4272 69.9709 17.1941 71.3543C13.9924 66.7297 10.8302 62.105 7.86572 57.3618C7.90525 57.0851 7.90525 56.7689 7.94478 56.4922C8.10288 56.4922 8.22147 56.5317 8.37957 56.5317C11.6603 61.0378 14.8225 65.702 17.9056 70.3661C18.2266 67.4201 19.1409 64.5696 20.5934 61.9864C20.8701 62.2236 21.1863 62.4608 21.463 62.7374C20.1191 65.6624 18.8937 68.5084 18.8542 71.8286C21.3839 75.7023 26.6805 83.7658 26.7991 83.9634C27.3078 80.3938 28.4738 76.9495 30.238 73.805C30.2841 73.9008 30.3369 73.9933 30.3961 74.0817C30.5937 74.4374 30.7913 74.7932 30.9494 75.1489C29.2256 78.2279 28.238 81.6643 28.064 85.1887C28.0515 85.376 27.9826 85.5552 27.8663 85.7026C29.1312 87.7975 30.2775 89.9715 31.4633 92.1455C32.6096 90.762 33.3606 88.1137 34.3488 86.9279C34.7661 86.4256 35.215 85.9503 35.6927 85.5049C35.8903 85.9793 36.0879 86.4931 36.246 86.9674C34.4278 88.7857 33.3211 91.0387 32.2538 93.7265C32.7677 94.7147 33.3211 95.7424 33.8744 96.7306C35.5756 99.449 37.4922 102.027 39.6058 104.438Z" fill="#2FAC66"/>
    <path d="M101.9 93.0547H55.8516V104.992H101.9V93.0547Z" fill="#3A73A4"/>
    <path fill-rule="evenodd" clip-rule="evenodd" d="M45.1396 106.26H112.652C112.902 106.257 113.142 106.156 113.319 105.979C113.496 105.802 113.597 105.562 113.6 105.311V103.691C113.597 103.44 113.496 103.201 113.319 103.023C113.142 102.846 112.902 102.745 112.652 102.742H45.1396C44.8889 102.745 44.6494 102.846 44.4722 103.023C44.2949 103.201 44.194 103.44 44.1909 103.691V105.311C44.194 105.562 44.2949 105.802 44.4722 105.979C44.6494 106.156 44.8889 106.257 45.1396 106.26Z" fill="#1F496B"/>
    <path fill-rule="evenodd" clip-rule="evenodd" d="M25.0997 12.3828H132.652C133.46 12.3828 134.234 12.7035 134.805 13.2743C135.375 13.845 135.696 14.6192 135.696 15.4264V90.0532C135.696 90.8604 135.375 91.6346 134.805 92.2053C134.234 92.7761 133.46 93.0968 132.652 93.0968H25.0997C24.2925 93.0968 23.5184 92.7761 22.9476 92.2053C22.3768 91.6346 22.0562 90.8604 22.0562 90.0532V15.3869C22.0716 14.5881 22.3984 13.8271 22.967 13.2659C23.5356 12.7047 24.3009 12.3878 25.0997 12.3828Z" fill="white"/>
    <path fill-rule="evenodd" clip-rule="evenodd" d="M25.0997 12.3828H132.652C133.46 12.3828 134.234 12.7035 134.805 13.2743C135.375 13.845 135.696 14.6192 135.696 15.4264V90.0532C135.696 90.8604 135.375 91.6346 134.805 92.2053C134.234 92.7761 133.46 93.0968 132.652 93.0968H25.0997C24.2925 93.0968 23.5184 92.7761 22.9476 92.2053C22.3768 91.6346 22.0562 90.8604 22.0562 90.0532V15.3869C22.0716 14.5881 22.3984 13.8271 22.967 13.2659C23.5356 12.7047 24.3009 12.3878 25.0997 12.3828ZM26.0484 16.3355V89.065H131.704V16.3355H26.0484Z" fill="#19619E"/>
    <path fill-rule="evenodd" clip-rule="evenodd" d="M101.9 93.1747H55.8515C55.82 93.1747 55.7899 93.1622 55.7676 93.1399C55.7454 93.1177 55.7329 93.0875 55.7329 93.0561C55.7329 93.0246 55.7454 92.9945 55.7676 92.9722C55.7899 92.95 55.82 92.9375 55.8515 92.9375H101.9C101.931 92.9394 101.96 92.9525 101.982 92.9743C102.004 92.9962 102.017 93.0252 102.019 93.0561C102.058 93.0956 101.979 93.1747 101.9 93.1747Z" fill="black"/>
    <path d="M80.3109 82.5807C85.3296 82.5807 89.3981 78.5122 89.3981 73.4935C89.3981 68.4747 85.3296 64.4062 80.3109 64.4062C75.2921 64.4062 71.2236 68.4747 71.2236 73.4935C71.2236 78.5122 75.2921 82.5807 80.3109 82.5807Z" fill="#8FBFE8"/>
    <path d="M84.7417 69.1025C83.0065 71.2804 81.374 73.5335 79.8444 75.8774C78.3463 74.4465 77.0775 73.2884 75.694 71.9959C75.0458 71.3832 73.856 72.3002 74.6031 73.324C75.9628 75.162 77.6664 76.4545 79.3463 77.9881C79.4487 78.0871 79.5723 78.1614 79.7077 78.2054C79.8431 78.2494 79.9867 78.262 80.1277 78.2422C80.2687 78.2224 80.4033 78.1707 80.5213 78.0911C80.6394 78.0114 80.7377 77.9059 80.8088 77.7826C82.4452 75.2292 84.1805 72.7785 86.054 70.395C86.7853 69.478 85.4927 68.1499 84.7417 69.1025Z" fill="white"/>
    <path d="M109.648 56.7728C100.003 57.2867 83.9553 53.2944 84.9434 68.1961V114.087C83.9157 128.949 100.003 124.996 109.648 125.51C117.711 125.51 121.071 122.15 121.071 114.087V68.1961C121.031 60.1326 117.672 56.7728 109.648 56.7728Z" fill="#19619E"/>
    <path d="M96.3667 123.26C89.6076 123.26 87.1569 120.928 87.1569 114.05V68.1992C86.2083 54.9972 101.308 59.8986 109.49 58.9895C116.249 58.9895 118.699 61.3215 118.699 68.1992V114.09C119.648 127.252 104.588 122.391 96.3667 123.26Z" fill="white"/>
    <path d="M107.513 120.133H98.3428C97.5127 120.133 97.5127 121.042 98.3428 121.042H107.513C108.343 121.042 108.343 120.133 107.513 120.133Z" fill="#19619E"/>
    <path d="M92.5722 61.2812H91.6631C90.833 61.2812 90.833 62.1904 91.6631 62.1904H92.5722C93.4023 62.1904 93.4023 61.2812 92.5722 61.2812Z" fill="#19619E"/>
    <path d="M95.497 61.2812H94.5879C93.7578 61.2812 93.7578 62.1904 94.5879 62.1904H95.497C96.2875 62.1904 96.2875 61.2812 95.497 61.2812Z" fill="#19619E"/>
    <path d="M109.529 61.2812C109.409 61.2812 109.293 61.3291 109.208 61.4144C109.123 61.4996 109.075 61.6153 109.075 61.7358C109.075 61.8564 109.123 61.972 109.208 62.0572C109.293 62.1425 109.409 62.1904 109.529 62.1904C109.65 62.1904 109.765 62.1425 109.851 62.0572C109.936 61.972 109.984 61.8564 109.984 61.7358C109.984 61.6153 109.936 61.4996 109.851 61.4144C109.765 61.3291 109.65 61.2812 109.529 61.2812Z" fill="#19619E"/>
    <path d="M110.992 61.2812C110.871 61.2812 110.755 61.3291 110.67 61.4144C110.585 61.4996 110.537 61.6153 110.537 61.7358C110.537 61.8564 110.585 61.972 110.67 62.0572C110.755 62.1425 110.871 62.1904 110.992 62.1904C111.112 62.1904 111.228 62.1425 111.313 62.0572C111.398 61.972 111.446 61.8564 111.446 61.7358C111.446 61.6153 111.398 61.4996 111.313 61.4144C111.228 61.3291 111.112 61.2812 110.992 61.2812Z" fill="#19619E"/>
    <path d="M112.454 61.2812C112.334 61.2812 112.218 61.3291 112.133 61.4144C112.047 61.4996 112 61.6153 112 61.7358C112 61.8564 112.047 61.972 112.133 62.0572C112.218 62.1425 112.334 62.1904 112.454 62.1904C112.575 62.1904 112.69 62.1425 112.775 62.0572C112.861 61.972 112.909 61.8564 112.909 61.7358C112.909 61.6153 112.861 61.4996 112.775 61.4144C112.69 61.3291 112.575 61.2812 112.454 61.2812Z" fill="#19619E"/>
    <path d="M113.877 61.2812C113.756 61.2812 113.641 61.3291 113.555 61.4144C113.47 61.4996 113.422 61.6153 113.422 61.7358C113.422 61.8564 113.47 61.972 113.555 62.0572C113.641 62.1425 113.756 62.1904 113.877 62.1904C113.997 62.1904 114.113 62.1425 114.198 62.0572C114.284 61.972 114.331 61.8564 114.331 61.7358C114.331 61.6153 114.284 61.4996 114.198 61.4144C114.113 61.3291 113.997 61.2812 113.877 61.2812Z" fill="#19619E"/>
    <path d="M102.928 112.986C105.351 112.986 107.316 111.022 107.316 108.598C107.316 106.175 105.351 104.211 102.928 104.211C100.505 104.211 98.5405 106.175 98.5405 108.598C98.5405 111.022 100.505 112.986 102.928 112.986Z" fill="#8FBFE8"/>
    <path d="M105.071 106.484C104.224 107.53 103.433 108.618 102.699 109.745C101.987 109.061 101.355 108.512 100.699 107.879C100.395 107.579 99.8214 108.018 100.177 108.512C100.865 109.329 101.626 110.081 102.45 110.761C102.5 110.807 102.559 110.843 102.623 110.865C102.688 110.886 102.756 110.894 102.824 110.887C102.892 110.881 102.957 110.86 103.016 110.826C103.075 110.791 103.126 110.745 103.165 110.69C103.956 109.457 104.782 108.275 105.687 107.132C106.059 106.646 105.426 106.018 105.071 106.484Z" fill="white"/>
    <path d="M133.64 46.4128C133.64 46.4128 136.921 42.5787 132.968 41.0767C127.988 39.1399 122.454 39.2585 120.438 36.6892C118.422 34.12 114.351 26.5703 114.351 26.5703L112.138 27.1632C112.138 27.1632 115.537 35.5429 117.869 38.9818C120.201 42.4206 130.32 47.401 133.64 46.4128Z" fill="#F5A784"/>
    <path d="M143.285 49.1441L143.68 48.907C141.625 52.1482 142.178 56.2985 142.613 58.2748C139.428 59.0977 136.123 59.3519 132.85 59.0259C132.185 58.7462 131.55 58.402 130.953 57.9982C130.953 57.9982 130.162 51.2786 129.53 49.4603C129.35 48.8447 129.269 48.2041 129.292 47.563L131.545 41.3178C132.059 41.0411 131.032 41.0806 131.822 40.9621C131.941 40.9225 132.059 40.9225 132.178 40.883C133.364 40.7249 134.431 40.6458 134.431 40.6458L134.787 37.1675C134.945 35.3492 138.7 36.1398 138.7 36.1398V40.6063C138.7 40.6854 139.53 40.7644 140.558 40.8039C140.665 40.7955 140.772 40.809 140.874 40.8435C142.099 40.9621 143.443 41.0806 143.838 41.3573C144.668 41.9502 144.194 47.7607 143.285 49.1441Z" fill="#F5A784"/>
    <path d="M143.246 61.0796C142.771 61.9492 141.032 62.1468 140.281 62.1073C138.898 62.0282 137.554 61.4353 136.249 61.0005C135.743 60.8873 135.226 60.8342 134.708 60.8424C134.312 60.8029 130.518 59.538 130.597 59.3799C130.597 59.3799 131.229 56.8502 129.925 51.9488C129.615 51.047 129.377 50.1217 129.214 49.182C129.168 48.6497 129.222 48.1136 129.372 47.6009C129.509 47.0473 129.722 46.5153 130.004 46.0198C131.912 46.3281 133.842 46.4867 135.775 46.4941C137.514 46.5337 139.411 46.1779 141.111 45.9407C141.783 45.8222 142.416 45.7431 142.969 45.6641L144.51 46.5337L143.72 48.9053C143.313 50.1944 143.022 51.5172 142.85 52.858C142.682 53.8517 142.577 54.855 142.534 55.862C142.541 56.6564 142.607 57.4491 142.732 58.2336C142.811 58.6289 142.89 59.0637 143.008 59.459C143.127 59.8542 143.285 60.1309 143.364 60.4867C143.367 60.6904 143.327 60.8925 143.246 61.0796Z" fill="#DE6236"/>
    <path d="M130.36 103.529C130.036 103.451 129.705 103.411 129.372 103.411C128.912 103.386 128.452 103.467 128.028 103.648C126.921 104.28 127.237 106.375 127.277 107.442C127.316 110.684 127.158 120.289 127.198 120.328C127.158 120.881 127.079 122.067 126.763 122.66C126.527 123.003 126.216 123.287 125.854 123.49C125.02 124.043 124.076 124.407 123.087 124.557C123.087 124.557 122.217 124.874 123.047 125.348C123.877 125.822 129.332 124.874 129.372 124.36C129.411 123.846 129.451 123.332 129.49 122.937C129.565 122.127 129.684 121.322 129.846 120.526C130.32 118.787 130.716 117.008 131.071 115.269C131.743 112.146 133.008 108.47 131.862 105.347C131.625 104.675 131.269 103.924 130.597 103.608C130.513 103.6 130.432 103.573 130.36 103.529Z" fill="#F5A784"/>
    <path d="M129.332 124.36C129.293 124.874 123.838 125.823 123.008 125.349C122.178 124.874 123.047 124.558 123.047 124.558C124.034 124.401 124.977 124.037 125.814 123.491C127.04 123.587 128.271 123.397 129.411 122.938C129.411 123.333 129.372 123.807 129.332 124.36Z" fill="#112545"/>
    <path d="M145.736 101.716C145.425 101.848 145.132 102.021 144.866 102.23C144.476 102.467 144.161 102.81 143.957 103.218C143.443 104.404 144.985 105.906 145.617 106.736C147.554 109.305 153.167 117.131 153.206 117.131C153.523 117.606 154.155 118.594 154.234 119.266C154.247 119.674 154.166 120.08 153.997 120.452C153.668 121.392 153.127 122.244 152.416 122.942C152.416 122.942 151.902 123.693 152.851 123.614C153.799 123.535 157.594 119.503 157.357 119.068C157.12 118.633 156.803 118.199 156.606 117.843C156.168 117.169 155.797 116.454 155.499 115.708C154.827 114.048 154.116 112.388 153.365 110.728C152.021 107.803 150.874 104.127 148.107 102.309C147.475 101.913 146.764 101.518 146.052 101.676C145.945 101.664 145.837 101.678 145.736 101.716Z" fill="#F5A784"/>
    <path d="M130.597 59.3828C130.597 59.3828 126.288 65.4304 126.763 87.2888L125.221 118.713C125.221 118.713 132.929 120.689 137 118.713C137 118.713 133.561 94.957 133.917 89.8185C134.391 83.3891 135.209 76.9898 136.368 70.648C136.368 70.648 136.763 89.1466 137.514 93.6922C138.265 98.2378 148.621 118.713 148.621 118.713C148.621 118.713 155.578 117.369 157.594 113.258L144.827 92.5064C144.558 92.0973 144.433 91.6107 144.471 91.1229C144.668 88.2375 145.419 77.7233 145.34 72.6243C145.261 68.5531 145.419 65.0352 143.325 60.3315C143.325 60.2919 135.735 62.0706 130.597 59.3828Z" fill="#112545"/>
    <path d="M157.278 119.069C157.554 119.504 153.72 123.496 152.771 123.615C151.823 123.733 152.337 122.943 152.337 122.943C153.026 122.228 153.564 121.381 153.918 120.453C154.973 119.804 155.855 118.909 156.487 117.844C156.724 118.199 157.001 118.634 157.278 119.069Z" fill="#112545"/>
    <path d="M138.74 36.6511V37.995C137.591 38.9898 136.108 39.5124 134.589 39.4575L134.827 37.244C135.578 36.2558 137.949 36.5325 138.74 36.6511Z" fill="#E0855C"/>
    <path d="M140.795 33.4531C140.584 33.5239 140.394 33.6461 140.242 33.8089C140.065 33.9508 139.918 34.1253 139.807 34.3227C139.767 34.4018 139.886 34.4413 139.925 34.4018C140.042 34.2933 140.147 34.1742 140.242 34.046C140.316 34.1334 140.411 34.2013 140.518 34.2437C140.597 34.2832 140.676 34.1646 140.637 34.0856C140.613 34.0384 140.579 33.9966 140.538 33.9626C140.498 33.9287 140.45 33.9033 140.4 33.8879C140.561 33.7915 140.708 33.6716 140.834 33.5322C140.874 33.5322 140.834 33.4531 140.795 33.4531Z" fill="#E0855C"/>
    <path d="M112.296 27.601C111.879 26.8707 111.374 26.1937 110.794 25.5851C110.122 24.9132 108.857 23.174 108.817 22.502C108.85 22.3982 108.876 22.2926 108.896 22.1858C108.896 22.1463 108.936 22.1463 108.936 22.1068C109.037 21.9019 109.17 21.7149 109.331 21.5534L109.371 21.5139C109.521 21.3773 109.695 21.27 109.885 21.1976C109.89 21.1976 109.895 21.1966 109.9 21.1946C109.905 21.1926 109.909 21.1897 109.913 21.1861C109.916 21.1824 109.919 21.178 109.921 21.1732C109.923 21.1684 109.924 21.1633 109.924 21.1581C110.101 21.0821 110.287 21.029 110.478 21C110.478 21 111.663 22.8182 112.256 23.2135C112.256 23.2135 111.821 21.9486 112.098 21.6324L112.375 21.5534C112.375 21.5534 112.968 22.8578 113.323 23.4111C113.836 24.3708 114.171 25.4153 114.312 26.4942C114.312 26.4942 113.284 28.1148 112.296 27.601Z" fill="#F5A784"/>
    <path d="M109.885 21.1958C109.895 21.1958 109.905 21.1916 109.913 21.1842C109.92 21.1768 109.924 21.1667 109.924 21.1562C110.399 21.9863 110.992 22.7373 111.545 23.5279C111.545 23.5383 111.541 23.5484 111.533 23.5558C111.526 23.5632 111.516 23.5674 111.505 23.5674C110.799 22.904 110.246 22.0947 109.885 21.1958Z" fill="#E0855C"/>
    <path d="M109.292 21.5552L109.332 21.5156C109.806 22.3457 110.399 23.0967 110.952 23.8872C110.952 23.8977 110.948 23.9078 110.941 23.9152C110.933 23.9226 110.923 23.9268 110.913 23.9268C110.219 23.2527 109.668 22.4462 109.292 21.5552Z" fill="#E0855C"/>
    <path d="M108.857 22.1884C108.857 22.1489 108.896 22.1489 108.896 22.1094C109.36 22.8935 109.875 23.6462 110.438 24.3624C110.438 24.3676 110.437 24.3727 110.435 24.3775C110.433 24.3823 110.43 24.3867 110.426 24.3904C110.423 24.394 110.418 24.3969 110.414 24.3989C110.409 24.4009 110.404 24.4019 110.398 24.4019C109.741 23.7752 109.217 23.0224 108.857 22.1884Z" fill="#E0855C"/>
    <path d="M132.732 28.9062C132.732 28.9062 129.648 33.1752 131.862 39.2623C131.099 40.8517 130.944 42.6656 131.427 44.3613C131.427 44.3613 130.399 46.7724 131.467 48.9069C131.22 49.6583 131.128 50.4519 131.196 51.2398C131.264 52.0277 131.491 52.7938 131.862 53.492C132.178 54.0849 130.479 58.1957 132.534 58.1957C134.313 58.1957 133.245 54.3616 133.404 53.6106C133.693 52.1292 133.639 50.6013 133.245 49.144C134 47.8716 134.28 46.3736 134.036 44.9146C134.036 44.9146 135.498 42.5826 134.747 40.962L134.945 37.4836C134.906 37.5231 135.103 29.4992 132.732 28.9062Z" fill="#112545"/>
    <path d="M140.123 27.9141C139.071 31.6673 138.604 35.5604 138.74 39.4559C138.74 39.4559 138.186 41.1556 138.898 43.962C138.898 43.962 137.791 46.3336 138.74 48.5076C139.174 49.5353 138.344 50.9978 138.542 52.065C141.111 52.6579 140.321 50.1282 140.479 48.8633C140.676 47.4008 141.665 46.3336 141.427 44.5944C141.427 44.5944 142.969 42.3414 142.258 40.6813C142.297 40.7208 144.748 31.3134 140.123 27.9141Z" fill="#112545"/>
    <path d="M132.692 32.858C132.692 32.858 130.992 26.9685 136.407 27.008C142.692 27.008 142.178 31.8698 141.151 33.53C140.123 35.1901 132.494 35.4668 132.692 32.858Z" fill="#112545"/>
    <path d="M133.245 30.3279C132.85 30.8813 132.732 31.9486 132.692 33.2134C132.573 37.008 134.392 38.3914 135.617 38.3914C136.842 38.3914 139.57 37.8381 139.965 34.3597C140.163 32.6205 140.163 31.1185 139.767 30.2489C138.937 28.3121 135.024 27.8378 133.245 30.3279Z" fill="#F5A784"/>
    <path d="M136.131 34.6781C135.973 34.6385 135.577 34.7571 135.498 34.5595C135.419 34.3619 135.696 33.5318 135.736 33.3737L135.854 32.8994L135.815 32.8598C135.775 32.8598 135.736 32.8203 135.696 32.8203C135.538 33.4132 135.419 34.0456 135.301 34.6385C135.301 34.6781 135.34 34.7571 135.38 34.7571C135.617 34.7571 135.854 34.7967 136.091 34.7967C136.17 34.8362 136.21 34.7176 136.131 34.6781Z" fill="#E0855C"/>
    <path d="M136.526 35.5884C136.327 35.7249 136.095 35.8067 135.854 35.8256C135.645 35.7927 135.433 35.7795 135.222 35.786C135.182 35.786 135.182 35.8256 135.182 35.8651C135.34 36.1023 135.736 36.1023 135.973 36.1023C136.111 36.1017 136.247 36.0692 136.37 36.0075C136.493 35.9458 136.601 35.8565 136.684 35.7465C136.763 35.6279 136.645 35.5489 136.526 35.5884Z" fill="#E0855C"/>
    <path d="M136.21 29.1025C136.266 29.3836 136.42 29.6357 136.645 29.814C136.899 29.9573 137.183 30.0385 137.475 30.0512C137.759 30.0978 138.015 30.2538 138.186 30.486C138.244 30.6794 138.284 30.8779 138.305 31.0789C138.376 31.3741 138.561 31.6295 138.819 31.7904C139.068 31.874 139.296 32.0086 139.49 32.1856C139.586 32.349 139.665 32.5211 139.728 32.6995C139.807 32.8576 140.004 33.0157 140.162 32.9366C140.514 32.3675 140.755 31.7373 140.874 31.0789C140.936 30.5561 140.867 30.0261 140.674 29.5364C140.481 29.0466 140.169 28.6124 139.767 28.2725C139.372 27.9428 138.905 27.7103 138.404 27.5936C137.903 27.4769 137.382 27.4793 136.882 27.6005C136.131 27.7981 136.052 28.391 136.21 29.1025Z" fill="#112545"/>
    <path d="M139.728 33.4919C139.728 33.4919 140.32 31.9109 141.269 32.7409C142.218 33.571 140.913 35.824 139.49 35.6264C139.451 35.6659 139.253 34.0453 139.728 33.4919Z" fill="#F5A784"/>
    <path d="M133.641 32.8997V32.9392C133.825 32.9194 134.01 32.9194 134.194 32.9392C134.352 32.9787 134.471 33.0578 134.629 33.0973C134.668 33.0973 134.668 33.0578 134.668 33.0182C134.51 32.6625 133.878 32.6625 133.641 32.8997Z" fill="#112545"/>
    <path d="M138.107 33.2523C137.91 32.9756 137.238 32.857 137.04 33.1732C137.04 33.2127 137.04 33.2523 137.08 33.2523C137.238 33.2918 137.356 33.2127 137.514 33.2127C137.692 33.2418 137.865 33.295 138.028 33.3708C138.068 33.3708 138.107 33.2918 138.107 33.2523Z" fill="#112545"/>
    <path d="M134.787 31.6724C134.55 31.5538 134.115 31.5143 133.957 31.7515C133.917 31.791 133.957 31.8701 134.036 31.8701C134.115 31.8701 134.273 31.791 134.352 31.791C134.472 31.7846 134.592 31.7979 134.708 31.8305C134.827 31.9096 134.906 31.7515 134.787 31.6724Z" fill="#112545"/>
    <path d="M138.028 32.0289C137.91 31.7127 137.317 31.6732 137.08 31.8708C137.069 31.8828 137.061 31.8972 137.058 31.9128C137.054 31.9284 137.054 31.9447 137.058 31.9603C137.062 31.9758 137.069 31.9902 137.08 32.0022C137.091 32.0141 137.104 32.0233 137.119 32.0289C137.263 32.0489 137.41 32.0489 137.554 32.0289C137.678 32.0504 137.798 32.0904 137.91 32.1475C137.949 32.187 138.028 32.108 138.028 32.0289Z" fill="#112545"/>
    <path d="M145.024 44.4024C145.032 44.0988 145.019 43.7951 144.985 43.4933C144.971 42.897 144.778 42.3187 144.432 41.8332C143.325 40.5288 141.783 42.1889 141.111 43.098C138.898 46.0625 136.566 48.8294 134.234 51.6754C132.415 53.9284 130.716 56.4186 128.581 58.3554C125.933 60.7666 115.972 66.9723 115.972 66.9723L117.039 68.9486C117.039 68.9486 127.554 63.8892 131.151 61.1223C133.647 59.1459 136.011 57.0068 138.226 54.7189C139.728 53.2169 141.428 51.5963 142.574 49.8176C143.443 48.4737 144.59 46.8135 144.945 45.2325C144.954 44.9544 144.98 44.6771 145.024 44.4024Z" fill="#F5A784"/>
    <path d="M117.988 68.5098C117.224 68.8723 116.549 69.3987 116.012 70.0514C115.3 70.8419 113.522 72.3439 112.77 72.423C112.648 72.4174 112.528 72.3906 112.415 72.3439C112.385 72.3398 112.357 72.3259 112.336 72.3044C112.113 72.2153 111.911 72.0807 111.743 71.9091L111.703 71.8696C111.541 71.7176 111.418 71.5274 111.348 71.3162C111.348 71.2767 111.348 71.2767 111.308 71.2372C111.232 71.0328 111.179 70.8207 111.15 70.6047C111.15 70.6047 113.008 69.1818 113.442 68.5098C113.442 68.5098 112.099 69.0632 111.782 68.747L111.703 68.4308C111.703 68.4308 113.087 67.6798 113.64 67.2845C114.56 66.7113 115.645 66.461 116.723 66.573C116.723 66.573 118.502 67.3635 117.988 68.5098Z" fill="#F5A784"/>
    <path d="M111.308 71.2424C111.308 71.2029 111.308 71.2029 111.268 71.1634C112.134 70.5648 112.965 69.9182 113.758 69.2266C113.769 69.2266 113.779 69.2307 113.786 69.2381C113.794 69.2455 113.798 69.2556 113.798 69.2661C113.128 70.1049 112.277 70.7807 111.308 71.2424Z" fill="#E0855C"/>
    <path d="M111.743 71.8748L111.703 71.8353C112.569 71.2367 113.4 70.5901 114.193 69.8984C114.204 69.8984 114.214 69.9026 114.221 69.91C114.229 69.9174 114.233 69.9275 114.233 69.938C113.523 70.725 112.68 71.3806 111.743 71.8748Z" fill="#E0855C"/>
    <path d="M112.414 72.3035C112.385 72.2994 112.357 72.2855 112.335 72.264C113.156 71.7011 113.935 71.0803 114.668 70.4062C114.673 70.4063 114.678 70.4073 114.683 70.4093C114.687 70.4112 114.692 70.4142 114.695 70.4178C114.699 70.4215 114.702 70.4259 114.704 70.4306C114.706 70.4354 114.707 70.4406 114.707 70.4458C114.086 71.2232 113.304 71.8569 112.414 72.3035Z" fill="#E0855C"/>
    <path d="M80.2395 58.2173C77.5251 58.2263 74.8432 57.6274 72.3904 56.4647C69.9377 55.3019 67.7764 53.6047 66.0652 51.4977C64.318 49.4057 63.0812 46.9361 62.4524 44.284C61.8078 41.6549 61.7418 38.9172 62.2587 36.2601C62.781 33.5917 63.8865 31.0718 65.496 28.8804C67.1116 26.708 69.1911 24.9229 71.5831 23.6549C73.9765 22.3826 76.6203 21.6523 79.3274 21.5157C82.0344 21.3791 84.7384 21.8395 87.2476 22.8644C89.4956 23.7687 91.5249 25.1418 93.2004 26.8922C94.9069 28.601 96.269 30.6219 97.2124 32.845C98.1451 35.0808 98.6299 37.4779 98.6393 39.9005C98.6331 42.32 98.1495 44.7145 97.2162 46.9467C96.2829 49.1789 94.9182 51.205 93.2004 52.9088C91.5144 54.6457 89.4878 56.0156 87.2476 56.9327C85.0182 57.8154 82.6371 58.2519 80.2395 58.2173ZM80.2395 24.0423C77.1081 24.0437 74.0464 24.9675 71.4369 26.6985C68.8375 28.4237 66.8105 30.8835 65.6138 33.7646C64.4172 36.6457 64.1051 39.8178 64.7173 42.8769C65.2882 45.9611 66.8083 48.7899 69.0653 50.968C71.2855 53.1667 74.0939 54.6766 77.1525 55.316C80.2154 55.9608 83.4026 55.6447 86.2792 54.4108C89.1772 53.2201 91.6548 51.193 93.3958 48.5882C95.1368 45.9834 96.0623 42.919 96.0542 39.7859C96.0426 35.616 94.3914 31.618 91.4573 28.6551C88.4591 25.7188 84.436 24.0645 80.2395 24.0423Z" fill="#E66326"/>
    <path d="M73.9155 37.6366L86.7302 42.1663L84.7222 27.3438L73.9155 37.6366Z" fill="#E66326"/>
    <path d="M73.9155 37.6319L80.2398 39.8968L84.7064 27.4062L73.9155 37.6319Z" fill="#F69320"/>
    <path d="M86.6628 42.1626L73.8481 37.6328L75.8561 52.4554L86.6628 42.1626Z" fill="#E66326"/>
    <path d="M86.6628 42.1641L80.1922 39.8359L75.8442 52.4569L86.6628 42.1641Z" fill="#F69320"/>
    <path d="M102.972 94.7387C101.318 94.7418 99.6839 94.3741 98.1907 93.6627C96.6974 92.9514 95.3826 91.9143 94.3429 90.6279C93.2795 89.3533 92.5247 87.8505 92.1373 86.2364C91.7428 84.6306 91.7023 82.9581 92.0188 81.3351C92.3373 79.7045 93.0122 78.1645 93.9951 76.8251C94.976 75.4955 96.2413 74.4016 97.6988 73.6234C99.1522 72.8443 100.76 72.3964 102.407 72.3116C104.054 72.2269 105.699 72.5075 107.225 73.1333C108.594 73.6848 109.829 74.5216 110.849 75.5879C111.888 76.633 112.718 77.8674 113.292 79.2244C113.859 80.5916 114.153 82.0566 114.158 83.5367C114.144 85.7578 113.48 87.9263 112.248 89.7744C111.016 91.6225 109.27 93.0693 107.225 93.9363C105.873 94.4794 104.428 94.7521 102.972 94.7387ZM102.972 73.8605C101.065 73.8616 99.2001 74.4254 97.6118 75.4812C96.0268 76.537 94.7913 78.0401 94.0622 79.7995C93.3331 81.559 93.1433 83.4954 93.5168 85.3629C93.8609 87.2449 94.7824 88.9731 96.1533 90.3077C97.5057 91.6462 99.2159 92.5658 101.078 92.956C102.944 93.3494 104.885 93.1561 106.636 92.4026C108.409 91.6794 109.924 90.44 110.984 88.8452C112.215 86.9871 112.769 84.762 112.553 82.5437C112.337 80.3254 111.364 78.2489 109.798 76.663C107.974 74.8761 105.525 73.8707 102.972 73.8605Z" fill="#E66326"/>
    <path d="M99.1099 82.1715L106.909 84.9384L105.687 75.8828L99.1099 82.1715Z" fill="#E66326"/>
    <path d="M99.1099 82.1713L102.972 83.5547L105.687 75.9062L99.1099 82.1713Z" fill="#F69320"/>
    <path d="M106.869 84.9388L99.0703 82.1719L100.292 91.2275L106.869 84.9388Z" fill="#E66326"/>
    <path d="M106.869 84.9386L102.916 83.5156L100.276 91.2273L106.869 84.9386Z" fill="#F69320"/>
  </g>
  <defs>
    <clipPath id="clip0_2980_149941">
      <rect width="172.084" height="128" fill="white"/>
    </clipPath>
  </defs>
</svg>