<svg width="29" height="28" viewBox="0 0 29 28" fill="none" xmlns="http://www.w3.org/2000/svg">
<path d="M6.17 23.494C5.86667 23.494 5.61583 23.3948 5.4175 23.1964C5.21917 22.998 5.12 22.7471 5.12 22.4436V12.6399C5.12 12.3598 5.225 12.1205 5.435 11.9221C5.645 11.7237 5.89 11.6245 6.17 11.6245C6.47333 11.6245 6.72417 11.7237 6.9225 11.9221C7.12083 12.1205 7.22 12.3714 7.22 12.6749V22.4786C7.22 22.7588 7.115 22.998 6.905 23.1964C6.695 23.3948 6.45 23.494 6.17 23.494ZM14.64 23.494C14.3367 23.494 14.0858 23.3948 13.8875 23.1964C13.6892 22.998 13.59 22.7471 13.59 22.4436V12.6399C13.59 12.3598 13.695 12.1205 13.905 11.9221C14.115 11.7237 14.36 11.6245 14.64 11.6245C14.9433 11.6245 15.1942 11.7237 15.3925 11.9221C15.5908 12.1205 15.69 12.3714 15.69 12.6749V22.4786C15.69 22.7588 15.585 22.998 15.375 23.1964C15.165 23.3948 14.92 23.494 14.64 23.494ZM1.515 27.6957C1.235 27.6957 0.995833 27.5906 0.7975 27.3805C0.599167 27.1705 0.5 26.9254 0.5 26.6452C0.5 26.3418 0.599167 26.0909 0.7975 25.8925C0.995833 25.694 1.24667 25.5948 1.55 25.5948H27.485C27.765 25.5948 28.0042 25.6999 28.2025 25.91C28.4008 26.12 28.5 26.3651 28.5 26.6452C28.5 26.9487 28.4008 27.1996 28.2025 27.398C28.0042 27.5964 27.7533 27.6957 27.45 27.6957H1.515ZM22.83 23.494C22.5267 23.494 22.2758 23.3948 22.0775 23.1964C21.8792 22.998 21.78 22.7471 21.78 22.4436V12.6399C21.78 12.3598 21.885 12.1205 22.095 11.9221C22.305 11.7237 22.55 11.6245 22.83 11.6245C23.1333 11.6245 23.3842 11.7237 23.5825 11.9221C23.7808 12.1205 23.88 12.3714 23.88 12.6749V22.4786C23.88 22.7588 23.775 22.998 23.565 23.1964C23.355 23.3948 23.11 23.494 22.83 23.494ZM15.55 0.280108L27.73 7.21277C27.9633 7.32949 28.15 7.49872 28.29 7.72047C28.43 7.94222 28.5 8.18148 28.5 8.43824C28.5 8.76504 28.3717 9.02764 28.115 9.22605C27.8583 9.42446 27.5667 9.52366 27.24 9.52366H1.76C1.43333 9.52366 1.14167 9.42446 0.885 9.22605C0.628333 9.02764 0.5 8.76504 0.5 8.43824C0.5 8.18148 0.575833 7.94806 0.7275 7.73798C0.879167 7.52789 1.07167 7.35283 1.305 7.21277L13.45 0.280108C13.7767 0.0933691 14.1267 0 14.5 0C14.8733 0 15.2233 0.0933691 15.55 0.280108ZM5.19 7.42286H23.81H5.19ZM5.19 7.42286H23.81L14.5 2.10081L5.19 7.42286Z" fill="#D75426"/>
</svg>

