<svg width="28" height="28" viewBox="0 0 28 28" fill="none" xmlns="http://www.w3.org/2000/svg">
<path d="M13.9692 28C11.6718 28 9.45641 27.3355 7.32308 26.0066C5.18974 24.6777 3.49744 23.1685 2.24615 21.479V24.3841C2.24615 24.7138 2.13846 24.9868 1.92308 25.2031C1.70769 25.4194 1.44615 25.5276 1.13846 25.5276C0.810256 25.5276 0.538462 25.4194 0.323077 25.2031C0.107692 24.9868 0 24.7138 0 24.3841V18.7285C0 18.3782 0.117949 18.0898 0.353846 17.8631C0.589744 17.6365 0.882051 17.5232 1.23077 17.5232H6.86154C7.18974 17.5232 7.46154 17.6313 7.67692 17.8477C7.89231 18.064 8 18.3267 8 18.6358C8 18.9448 7.89231 19.2075 7.67692 19.4238C7.46154 19.6402 7.18974 19.7483 6.86154 19.7483H3.78462C4.83077 21.273 6.30769 22.6534 8.21539 23.8896C10.1231 25.1258 12.041 25.7439 13.9692 25.7439C16.9846 25.7439 19.6103 24.7292 21.8462 22.6998C24.0821 20.6703 25.3436 18.1516 25.6308 15.1435C25.6513 14.855 25.7692 14.6078 25.9846 14.4018C26.2 14.1957 26.4615 14.0927 26.7692 14.0927C27.1179 14.0927 27.3949 14.2112 27.6 14.4481C27.8051 14.6851 27.8974 14.9581 27.8769 15.2671C27.7128 17.0596 27.2359 18.7336 26.4462 20.2892C25.6564 21.8447 24.6359 23.1943 23.3846 24.3377C22.1333 25.4812 20.7026 26.3775 19.0923 27.0265C17.4821 27.6755 15.7744 28 13.9692 28ZM1.23077 13.9073C0.902564 13.9073 0.625641 13.7888 0.4 13.5519C0.174359 13.3149 0.0820513 13.0419 0.123077 12.7329C0.266667 10.961 0.728205 9.30243 1.50769 7.75717C2.28718 6.21192 3.29744 4.8624 4.53846 3.70861C5.77949 2.55482 7.21026 1.64827 8.83077 0.988962C10.4513 0.329654 12.1744 0 14 0C16.2974 0 18.5179 0.664459 20.6615 1.99338C22.8051 3.3223 24.5026 4.83149 25.7538 6.52097V3.61589C25.7538 3.28624 25.8615 3.01324 26.0769 2.79691C26.2923 2.58057 26.5538 2.47241 26.8615 2.47241C27.1897 2.47241 27.4615 2.58057 27.6769 2.79691C27.8923 3.01324 28 3.28624 28 3.61589V9.27152C28 9.62178 27.8821 9.91023 27.6462 10.1369C27.4103 10.3635 27.1179 10.4768 26.7692 10.4768H21.1385C20.8103 10.4768 20.5385 10.3687 20.3231 10.1523C20.1077 9.93598 20 9.67329 20 9.36424C20 9.05519 20.1077 8.79249 20.3231 8.57616C20.5385 8.35982 20.8103 8.25165 21.1385 8.25165H24.2154C23.1487 6.6858 21.6564 5.29507 19.7385 4.07947C17.8205 2.86387 15.9077 2.25607 14 2.25607C10.9846 2.25607 8.35897 3.27079 6.12308 5.30022C3.88718 7.32965 2.6359 9.83812 2.36923 12.8256C2.34872 13.1347 2.23077 13.3922 2.01538 13.5982C1.8 13.8043 1.53846 13.9073 1.23077 13.9073ZM13.9692 22.8698C13.7231 22.8698 13.5026 22.7822 13.3077 22.6071C13.1128 22.4319 13.0154 22.2104 13.0154 21.9426V21.2627C12.2769 21.0773 11.6205 20.7734 11.0462 20.351C10.4718 19.9286 9.97949 19.3672 9.56923 18.6667C9.40513 18.4194 9.3641 18.1722 9.44615 17.9249C9.52821 17.6777 9.72308 17.4923 10.0308 17.3687C10.2359 17.3068 10.441 17.3274 10.6462 17.4305C10.8513 17.5335 11.0154 17.6777 11.1385 17.8631C11.4256 18.44 11.8462 18.8882 12.4 19.2075C12.9538 19.5269 13.559 19.6865 14.2154 19.6865C15.0359 19.6865 15.7026 19.4599 16.2154 19.0066C16.7282 18.5533 16.9846 18.0074 16.9846 17.3687C16.9846 16.7299 16.759 16.2149 16.3077 15.8234C15.8564 15.4319 14.9641 14.989 13.6308 14.4945C12.1128 13.9176 11.0769 13.3201 10.5231 12.702C9.96923 12.0839 9.69231 11.2494 9.69231 10.1987C9.69231 9.27152 9.98462 8.48859 10.5692 7.84989C11.1538 7.21118 11.9897 6.80942 13.0769 6.64459V6.05739C13.0769 5.76895 13.1744 5.54746 13.3692 5.39294C13.5641 5.23841 13.7846 5.16115 14.0308 5.16115C14.2769 5.16115 14.4923 5.23841 14.6769 5.39294C14.8615 5.54746 14.9538 5.76895 14.9538 6.05739V6.64459C15.6103 6.727 16.1795 6.90728 16.6615 7.18543C17.1436 7.46358 17.559 7.84989 17.9077 8.34437C18.0718 8.57101 18.1231 8.80795 18.0615 9.05519C18 9.30243 17.8462 9.48786 17.6 9.61148C17.3949 9.7351 17.1744 9.77631 16.9385 9.7351C16.7026 9.69389 16.5026 9.57027 16.3385 9.36424C16.0308 8.99338 15.6872 8.71523 15.3077 8.5298C14.9282 8.34437 14.4923 8.25165 14 8.25165C13.2615 8.25165 12.6718 8.42163 12.2308 8.76159C11.7897 9.10154 11.5692 9.55997 11.5692 10.1369C11.5692 10.7962 11.8051 11.337 12.2769 11.7594C12.7487 12.1817 13.6205 12.6093 14.8923 13.0419C16.3487 13.5158 17.3744 14.0824 17.9692 14.7417C18.5641 15.401 18.8615 16.2767 18.8615 17.3687C18.8615 18.5018 18.5077 19.4135 17.8 20.1038C17.0923 20.794 16.1231 21.2009 14.8923 21.3245V21.9426C14.8923 22.231 14.8 22.4577 14.6154 22.6225C14.4308 22.7873 14.2154 22.8698 13.9692 22.8698Z" fill="#D75426"/>
</svg>
