<svg width="48" height="48" viewBox="0 0 48 48" fill="none" xmlns="http://www.w3.org/2000/svg">
<rect x="0.2" y="0.2" width="47.6" height="47.6" rx="9.8" fill="white" stroke="#D9D9D9" stroke-width="0.4"/>
<path d="M23.9749 38C23.6399 38 23.3628 37.8898 23.1438 37.6694C22.9247 37.4491 22.8152 37.1704 22.8152 36.8333V34.7333C21.5782 34.5259 20.5216 34.0852 19.6454 33.4111C18.7692 32.737 18.0863 31.8815 17.5966 30.8444C17.4678 30.5593 17.4678 30.2611 17.5966 29.95C17.7255 29.6389 17.9445 29.4185 18.2538 29.2889C18.5373 29.1593 18.8272 29.1593 19.1236 29.2889C19.4199 29.4185 19.6454 29.6259 19.8 29.9111C20.2639 30.7926 20.8695 31.4537 21.6169 31.8944C22.3642 32.3352 23.2275 32.5556 24.2068 32.5556C25.4438 32.5556 26.4618 32.2444 27.2607 31.6222C28.0595 31 28.459 30.1444 28.459 29.0556C28.459 27.9148 28.1046 27.0333 27.3959 26.4111C26.6873 25.7889 25.3536 25.1537 23.395 24.5056C21.5396 23.9093 20.1544 23.1185 19.2395 22.1333C18.3247 21.1481 17.8672 19.9167 17.8672 18.4389C17.8672 17.013 18.3247 15.8204 19.2395 14.8611C20.1544 13.9019 21.3463 13.3574 22.8152 13.2278V11.1667C22.8152 10.8296 22.9247 10.5509 23.1438 10.3306C23.3628 10.1102 23.6399 10 23.9749 10C24.3099 10 24.5869 10.1102 24.806 10.3306C25.025 10.5509 25.1346 10.8296 25.1346 11.1667V13.2278C26.0623 13.3574 26.8934 13.6426 27.6279 14.0833C28.3623 14.5241 28.9744 15.0944 29.464 15.7944C29.6444 16.0537 29.6831 16.3324 29.58 16.6306C29.4769 16.9287 29.2708 17.1426 28.9615 17.2722C28.678 17.4019 28.3817 17.4148 28.0724 17.3111C27.7632 17.2074 27.5055 17.013 27.2993 16.7278C26.9385 16.2611 26.494 15.9176 25.9657 15.6972C25.4374 15.4769 24.7995 15.3667 24.0522 15.3667C22.8667 15.3667 21.9261 15.6389 21.2303 16.1833C20.5345 16.7278 20.1866 17.4667 20.1866 18.4C20.1866 19.3852 20.5732 20.1824 21.3463 20.7917C22.1194 21.4009 23.5497 22.0296 25.6371 22.6778C27.3895 23.2222 28.6845 24.0065 29.522 25.0306C30.3596 26.0546 30.7784 27.3444 30.7784 28.9C30.7784 30.5333 30.3016 31.8491 29.3481 32.8472C28.3946 33.8454 26.9901 34.487 25.1346 34.7722V36.8333C25.1346 37.1704 25.025 37.4491 24.806 37.6694C24.5869 37.8898 24.3099 38 23.9749 38Z" fill="#D75426"/>
</svg>
