<svg width="256" height="160" viewBox="0 0 256 160" fill="none" xmlns="http://www.w3.org/2000/svg">
    <g clip-path="url(#6ze01xi44a)">
        <path opacity=".465" fill-rule="evenodd" clip-rule="evenodd" d="M251.2 134.001H37.8l-7.9-128.9h225.9L251.2 134z" fill="#EECDCD"/>
        <path opacity=".66" fill-rule="evenodd" clip-rule="evenodd" d="m220.1 55.5-1.4-.5 1.7-4.6 1.6.1-1.9 5zM221.6 63.8c.5.9.8 1.9.9 2.8.1.9-.4 1.4-1.1 1.5-.8.1-1.4-.4-1.6-1.1-.2-.7.6-1.1.2-2.7-.2-.9.9-1.9 1.6-.5z" fill="#FDE1E1"/>
        <path fill-rule="evenodd" clip-rule="evenodd" d="M180.6 113.901c0 .4-.3.6-.6.6-.4 0-.6-.3-.6-.6 0-.4.3-.6.6-.6s.6.3.6.6zM230 113.901c0 .4-.3.6-.6.6-.4 0-.6-.3-.6-.6 0-.4.3-.6.6-.6s.6.3.6.6zM205.3 113.901c0 .4-.3.6-.6.6-.4 0-.6-.3-.6-.6 0-.4.3-.6.6-.6s.6.3.6.6z" fill="#FBCECE"/>
        <path fill-rule="evenodd" clip-rule="evenodd" d="M22.3 135.1c-.1.3-.2.5-.3.8 0 .1-.1 0-.2 0 0 0-.1-.1-.1-.2.1-.3.2-.5.3-.8 0-.1.1 0 .2 0s.1.1.1.2zM22.6 133.3l-.6.6h-.1s-.1 0-.1-.1c0 0-.1-.1 0-.2l.6-.6h.1s.1 0 .1.1v.2zM39.9 124.5v.2h-.1s0-.1.1-.2zM43.9 128.1c-.3.4-.6.7-1 1.1 0 .1-.2 0-.2-.1s-.1-.1 0-.2c.3-.4.6-.7 1-1.1 0-.1.1 0 .2.1.1 0 .1.1 0 .2zM44 159.9c0 .1-.1.1-.1 0-.2-.2-.4-.3-.6-.5-.1 0-.1-.1-.1-.2s.1-.1.1 0c.2.2.4.3.6.5 0 .1.1.1.1.2zM44.3 131.1c-.2.3-.4.6-.8.8-.1 0-.1 0-.2-.1 0 0-.1-.1 0-.2.3-.2.6-.5.7-.8 0-.1.1 0 .2 0 0 .2.1.2.1.3zM44.3 158.8c0 .1-.1 0-.2 0-.4-.3-.8-.6-1.2-1 0 0-.1-.1-.1-.2s.1 0 .2 0c.4.3.8.6 1.2 1 0 0 .1.1.1.2zM49.5 132.7c-.1 0-.3-.3-.1-.3.1 0 .2.3.1.3zM49.6 131.8c-.1 0-.3-.3-.1-.3.1 0 .3.3.1.3zM54.6 158c-.1 0-.3-.3-.1-.3.1.1.2.3.1.3zM54.7 128.001s0 .1 0 0l-.1.1c-.2-.2-.4-.4-.4-.7v-.1h.2s.1 0 .1.1c0 0 0 .1.1.1.1.2.1.4.1.5zM55.4 124.401c-.1 0-.3-.3-.1-.3.1.1.2.3.1.3zM55.9 123.3l-.3.3h-.1s-.1 0-.1-.1c0 0-.1-.1 0-.2l.3-.3h.1s.1 0 .1.1v.2z" fill="#EDB39D"/>
        <path fill-rule="evenodd" clip-rule="evenodd" d="M22.3 135.1c-.1.3-.2.5-.3.8 0 .1-.1 0-.2 0 0 0-.1-.1-.1-.2.1-.3.2-.5.3-.8 0-.1.1 0 .2 0s.1.1.1.2zM22.6 133.3l-.6.6h-.1s-.1 0-.1-.1c0 0-.1-.1 0-.2l.6-.6h.1s.1 0 .1.1v.2zM40.3 124.7c-.1 0-.1 0 0 0l-.1-.2h-.3v-.1h.4v.3zM43.9 128.1c-.3.4-.6.7-1 1.1 0 .1-.2 0-.2-.1s-.1-.1 0-.2c.3-.4.6-.7 1-1.1 0-.1.1 0 .2.1.1 0 .1.1 0 .2zM44 159.9c0 .1-.1.1-.1 0-.2-.2-.4-.3-.6-.5-.1 0-.1-.1-.1-.2s.1-.1.1 0c.2.2.4.3.6.5 0 .1.1.1.1.2zM44.3 131.1c-.2.3-.4.6-.8.8-.1 0-.1 0-.2-.1 0 0-.1-.1 0-.2.3-.2.6-.5.7-.8 0-.1.1 0 .2 0 0 .2.1.2.1.3zM44.3 158.8c0 .1-.1 0-.2 0-.4-.3-.8-.6-1.2-1 0 0-.1-.1-.1-.2s.1 0 .2 0c.4.3.8.6 1.2 1 0 0 .1.1.1.2zM49.5 132.7c-.1 0-.3-.3-.1-.3.1 0 .2.3.1.3zM49.6 131.8c-.1 0-.3-.3-.1-.3.1 0 .3.3.1.3zM54.6 158c-.1 0-.3-.3-.1-.3.1.1.2.3.1.3zM54.7 128.001s0 .1 0 0l-.1.1c-.2-.2-.4-.4-.4-.7v-.1h.2s.1 0 .1.1c0 0 0 .1.1.1.1.2.1.4.1.5zM55.4 124.401c-.1 0-.3-.3-.1-.3.1.1.2.3.1.3zM55.9 123.3l-.3.3h-.1s-.1 0-.1-.1c0 0-.1-.1 0-.2l.3-.3h.1s.1 0 .1.1v.2z" fill="#2A8C79"/>
        <path fill-rule="evenodd" clip-rule="evenodd" d="M44.3 158.8c0 .1-.1 0-.2 0-.4-.3-.8-.6-1.2-1 0 0-.1-.1-.1-.2s.1 0 .2 0c.4.3.8.6 1.2 1 0 0 .1.1.1.2zM44 159.9c0 .1-.1.1-.1 0-.2-.2-.4-.3-.6-.5-.1 0-.1-.1-.1-.2s.1-.1.1 0c.2.2.4.3.6.5 0 .1.1.1.1.2zM54.6 158c-.1 0-.3-.3-.1-.3.1.1.2.3.1.3zM22.6 133.3l-.6.6h-.1s-.1 0-.1-.1c0 0-.1-.1 0-.2l.6-.6h.1s.1 0 .1.1v.2zM22.3 135.1c-.1.3-.2.5-.3.8 0 .1-.1 0-.2 0 0 0-.1-.1-.1-.2.1-.3.2-.5.3-.8 0-.1.1 0 .2 0s.1.1.1.2zM43.9 128.1c-.3.4-.6.7-1 1.1 0 .1-.2 0-.2-.1s-.1-.1 0-.2c.3-.4.6-.7 1-1.1 0-.1.1 0 .2.1.1 0 .1.1 0 .2zM44.3 131.1c-.2.3-.4.6-.8.8-.1 0-.1 0-.2-.1 0 0-.1-.1 0-.2.3-.2.6-.5.7-.8 0-.1.1 0 .2 0 0 .2.1.2.1.3zM55.9 123.3l-.3.3h-.1s-.1 0-.1-.1c0 0-.1-.1 0-.2l.3-.3h.1s.1 0 .1.1v.2zM55.4 124.401c-.1 0-.3-.3-.1-.3.1.1.2.3.1.3zM49.5 132.7c-.1 0-.3-.3-.1-.3.1 0 .2.3.1.3zM49.6 131.8c-.1 0-.3-.3-.1-.3.1 0 .3.3.1.3zM54.7 128.001s0 .1 0 0l-.1.1c-.2-.2-.4-.4-.4-.7v-.1h.2s.1 0 .1.1c0 0 0 .1.1.1.1.2.1.4.1.5z" fill="#EEF8F9"/>
        <path fill-rule="evenodd" clip-rule="evenodd" d="M22.3 135.1c-.1.3-.2.5-.3.8 0 .1-.1 0-.2 0 0 0-.1-.1-.1-.2.1-.3.2-.5.3-.8 0-.1.1 0 .2 0s.1.1.1.2zM22.6 133.3l-.6.6h-.1s-.1 0-.1-.1c0 0-.1-.1 0-.2l.6-.6h.1s.1 0 .1.1v.2zM40.3 124.7c-.1 0-.1 0 0 0l-.1-.2h-.3v-.1h.4v.3zM43.9 128.1c-.3.4-.6.7-1 1.1 0 .1-.2 0-.2-.1s-.1-.1 0-.2c.3-.4.6-.7 1-1.1 0-.1.1 0 .2.1.1 0 .1.1 0 .2zM44 159.9c0 .1-.1.1-.1 0-.2-.2-.4-.3-.6-.5-.1 0-.1-.1-.1-.2s.1-.1.1 0c.2.2.4.3.6.5 0 .1.1.1.1.2zM44.3 131.1c-.2.3-.4.6-.8.8-.1 0-.1 0-.2-.1 0 0-.1-.1 0-.2.3-.2.6-.5.7-.8 0-.1.1 0 .2 0 0 .2.1.2.1.3zM44.3 158.8c0 .1-.1 0-.2 0-.4-.3-.8-.6-1.2-1 0 0-.1-.1-.1-.2s.1 0 .2 0c.4.3.8.6 1.2 1 0 0 .1.1.1.2zM49.5 132.7c-.1 0-.3-.3-.1-.3.1 0 .2.3.1.3zM49.6 131.8c-.1 0-.3-.3-.1-.3.1 0 .3.3.1.3zM54.6 158c-.1 0-.3-.3-.1-.3.1.1.2.3.1.3zM54.7 128.001s0 .1 0 0l-.1.1c-.2-.2-.4-.4-.4-.7v-.1h.2s.1 0 .1.1c0 0 0 .1.1.1.1.2.1.4.1.5zM55.4 124.401c-.1 0-.3-.3-.1-.3.1.1.2.3.1.3zM55.9 123.3l-.3.3h-.1s-.1 0-.1-.1c0 0-.1-.1 0-.2l.3-.3h.1s.1 0 .1.1v.2z" fill="#2A8C79"/>
        <path fill-rule="evenodd" clip-rule="evenodd" d="M44.3 158.8c0 .1-.1 0-.2 0-.4-.3-.8-.6-1.2-1 0 0-.1-.1-.1-.2s.1 0 .2 0c.4.3.8.6 1.2 1 0 0 .1.1.1.2zM44 159.9c0 .1-.1.1-.1 0-.2-.2-.4-.3-.6-.5-.1 0-.1-.1-.1-.2s.1-.1.1 0c.2.2.4.3.6.5 0 .1.1.1.1.2zM54.6 158c-.1 0-.3-.3-.1-.3.1.1.2.3.1.3zM22.6 133.3l-.6.6h-.1s-.1 0-.1-.1c0 0-.1-.1 0-.2l.6-.6h.1s.1 0 .1.1v.2zM22.3 135.1c-.1.3-.2.5-.3.8 0 .1-.1 0-.2 0 0 0-.1-.1-.1-.2.1-.3.2-.5.3-.8 0-.1.1 0 .2 0s.1.1.1.2zM43.9 128.1c-.3.4-.6.7-1 1.1 0 .1-.2 0-.2-.1s-.1-.1 0-.2c.3-.4.6-.7 1-1.1 0-.1.1 0 .2.1.1 0 .1.1 0 .2zM44.3 131.1c-.2.3-.4.6-.8.8-.1 0-.1 0-.2-.1 0 0-.1-.1 0-.2.3-.2.6-.5.7-.8 0-.1.1 0 .2 0 0 .2.1.2.1.3zM55.9 123.3l-.3.3h-.1s-.1 0-.1-.1c0 0-.1-.1 0-.2l.3-.3h.1s.1 0 .1.1v.2zM55.4 124.401c-.1 0-.3-.3-.1-.3.1.1.2.3.1.3zM49.5 132.7c-.1 0-.3-.3-.1-.3.1 0 .2.3.1.3zM49.6 131.8c-.1 0-.3-.3-.1-.3.1 0 .3.3.1.3zM54.7 128.001s0 .1 0 0l-.1.1c-.2-.2-.4-.4-.4-.7v-.1h.2s.1 0 .1.1c0 0 0 .1.1.1.1.2.1.4.1.5z" fill="#EEF8F9"/>
        <path fill-rule="evenodd" clip-rule="evenodd" d="M22.3 135.1c-.1.3-.2.5-.3.8 0 .1-.1 0-.2 0 0 0-.1-.1-.1-.2.1-.3.2-.5.3-.8 0-.1.1 0 .2 0s.1.1.1.2zM22.6 133.3l-.6.6h-.1s-.1 0-.1-.1c0 0-.1-.1 0-.2l.6-.6h.1s.1 0 .1.1v.2zM40.3 124.7c-.1 0-.1 0 0 0l-.1-.2h-.3v-.1h.4v.3zM43.9 128.1c-.3.4-.6.7-1 1.1 0 .1-.2 0-.2-.1s-.1-.1 0-.2c.3-.4.6-.7 1-1.1 0-.1.1 0 .2.1.1 0 .1.1 0 .2zM44 159.9c0 .1-.1.1-.1 0-.2-.2-.4-.3-.6-.5-.1 0-.1-.1-.1-.2s.1-.1.1 0c.2.2.4.3.6.5 0 .1.1.1.1.2zM44.3 131.1c-.2.3-.4.6-.8.8-.1 0-.1 0-.2-.1 0 0-.1-.1 0-.2.3-.2.6-.5.7-.8 0-.1.1 0 .2 0 0 .2.1.2.1.3zM44.3 158.8c0 .1-.1 0-.2 0-.4-.3-.8-.6-1.2-1 0 0-.1-.1-.1-.2s.1 0 .2 0c.4.3.8.6 1.2 1 0 0 .1.1.1.2zM49.5 132.7c-.1 0-.3-.3-.1-.3.1 0 .2.3.1.3zM49.6 131.8c-.1 0-.3-.3-.1-.3.1 0 .3.3.1.3zM54.6 158c-.1 0-.3-.3-.1-.3.1.1.2.3.1.3zM54.7 128.001s0 .1 0 0l-.1.1c-.2-.2-.4-.4-.4-.7v-.1h.2s.1 0 .1.1c0 0 0 .1.1.1.1.2.1.4.1.5zM55.4 124.401c-.1 0-.3-.3-.1-.3.1.1.2.3.1.3zM55.9 123.3l-.3.3h-.1s-.1 0-.1-.1c0 0-.1-.1 0-.2l.3-.3h.1s.1 0 .1.1v.2z" fill="#2A8C79"/>
        <path fill-rule="evenodd" clip-rule="evenodd" d="M44.3 158.8c0 .1-.1 0-.2 0-.4-.3-.8-.6-1.2-1 0 0-.1-.1-.1-.2s.1 0 .2 0c.4.3.8.6 1.2 1 0 0 .1.1.1.2zM44 159.9c0 .1-.1.1-.1 0-.2-.2-.4-.3-.6-.5-.1 0-.1-.1-.1-.2s.1-.1.1 0c.2.2.4.3.6.5 0 .1.1.1.1.2zM54.6 158c-.1 0-.3-.3-.1-.3.1.1.2.3.1.3zM22.6 133.3l-.6.6h-.1s-.1 0-.1-.1c0 0-.1-.1 0-.2l.6-.6h.1s.1 0 .1.1v.2zM22.3 135.1c-.1.3-.2.5-.3.8 0 .1-.1 0-.2 0 0 0-.1-.1-.1-.2.1-.3.2-.5.3-.8 0-.1.1 0 .2 0s.1.1.1.2zM43.9 128.1c-.3.4-.6.7-1 1.1 0 .1-.2 0-.2-.1s-.1-.1 0-.2c.3-.4.6-.7 1-1.1 0-.1.1 0 .2.1.1 0 .1.1 0 .2zM44.3 131.1c-.2.3-.4.6-.8.8-.1 0-.1 0-.2-.1 0 0-.1-.1 0-.2.3-.2.6-.5.7-.8 0-.1.1 0 .2 0 0 .2.1.2.1.3zM55.9 123.3l-.3.3h-.1s-.1 0-.1-.1c0 0-.1-.1 0-.2l.3-.3h.1s.1 0 .1.1v.2zM55.4 124.401c-.1 0-.3-.3-.1-.3.1.1.2.3.1.3zM49.5 132.7c-.1 0-.3-.3-.1-.3.1 0 .2.3.1.3zM49.6 131.8c-.1 0-.3-.3-.1-.3.1 0 .3.3.1.3zM54.7 128.001s0 .1 0 0l-.1.1c-.2-.2-.4-.4-.4-.7v-.1h.2s.1 0 .1.1c0 0 0 .1.1.1.1.2.1.4.1.5z" fill="#EEF8F9"/>
        <path fill-rule="evenodd" clip-rule="evenodd" d="M94.2 108.6c-1.2.1-5.7-3.3-6.9-3.7.8 1.1 4.4 5.3 4.1 5.6-.4.5-2.1-.4-4-2.1.9 1.2 1.2 2.1 1 2.4-.5.6-3.2-1.1-5.9-3.8-1-.9-3.5-3.2-3.6-2.8-.2 1.3 3.9 4.4 3.7 5.6-.3 1.1-3.7-1.2-6.9-3.6-2.1-1.6-4.1-3.1-5-3.8.4-.1 5.2-3.2 8.7-4.3.5-.2.9-.5 1.1-.9 2.1 1.3 5.5 2.8 6.5 3.7 1.6 1.3 3.2 2.8 4.7 4.2.3.3 3.4 3.4 2.5 3.5z" fill="#EDB39D"/>
        <path fill-rule="evenodd" clip-rule="evenodd" d="M76.5 101.6c.8.2 1.6.3 2.3.4.8.1 1.6.2 2.3.3.8.1 1.6.2 2.3.5.7.4 1.4.7 2.1 1.1-.7-.4-1.4-.7-2.1-1.1-.7-.4-1.5-.5-2.3-.6-.8-.1-1.6-.2-2.3-.3-.7-.3-1.5-.3-2.3-.3 0-.1 0-.1 0 0 0-.1 0-.1 0 0zM87.9 108.301l-2.1-2.1-1.1-1.1c-.4-.4-.7-.7-1.1-1 .3.4.7.7 1 1.1.4.4.7.7 1.1 1l2.2 2.1c0 .1 0 .1 0 0zM86.2 109.7l-3.1-2.6c-.5-.4-1.1-.9-1.6-1.3s-1.1-.8-1.6-1.3c.5.4 1 .9 1.5 1.3s1.1.9 1.6 1.3l3.2 2.6c0 .1 0 .1 0 0 0 .1 0 .1 0 0z" fill="#2A8C79"/>
        <path fill-rule="evenodd" clip-rule="evenodd" d="M94.2 108.6c-1.2.1-5.7-3.3-6.9-3.7.8 1.1 4.4 5.3 4.1 5.6-.4.5-2.1-.4-4-2.1.9 1.2 1.2 2.1 1 2.4-.5.6-3.2-1.1-5.9-3.8-1-.9-3.5-3.2-3.6-2.8-.2 1.3 3.9 4.4 3.7 5.6-.3 1.1-3.7-1.2-6.9-3.6-2.1-1.6-4.1-3.1-5-3.8.4-.1 5.2-3.2 8.7-4.3.5-.2.9-.5 1.1-.9 2.1 1.3 5.5 2.8 6.5 3.7 1.6 1.3 3.2 2.8 4.7 4.2.3.3 3.4 3.4 2.5 3.5z" fill="#EDB39D"/>
        <path fill-rule="evenodd" clip-rule="evenodd" d="M76.5 101.6c.8.2 1.6.3 2.3.4.8.1 1.6.2 2.3.3.8.1 1.6.2 2.3.5.7.4 1.4.7 2.1 1.1-.7-.4-1.4-.7-2.1-1.1-.7-.4-1.5-.5-2.3-.6-.8-.1-1.6-.2-2.3-.3-.7-.3-1.5-.3-2.3-.3 0-.1 0-.1 0 0 0-.1 0-.1 0 0zM87.9 108.301l-2.1-2.1-1.1-1.1c-.4-.4-.7-.7-1.1-1 .3.4.7.7 1 1.1.4.4.7.7 1.1 1l2.2 2.1c0 .1 0 .1 0 0zM86.2 109.7l-3.1-2.6c-.5-.4-1.1-.9-1.6-1.3s-1.1-.8-1.6-1.3c.5.4 1 .9 1.5 1.3s1.1.9 1.6 1.3l3.2 2.6c0 .1 0 .1 0 0 0 .1 0 .1 0 0z" fill="#672448"/>
        <path fill-rule="evenodd" clip-rule="evenodd" d="M16.5 118.8c0 .1-.1.3-.1.4 0 .2-.1.4-.1.6 0 .2-.1.4-.1.6-.1.4-.1.8-.2 1.2-.1.7-.2 1.3-.4 2 0 .2-.1.3-.1.5s-.1.4-.2.6c-.3 1-1.8 6.2-2.9 3.2-.2-.4-.1-1.5-.1-2.6.1-1.6.3-3.5-.2-4-.2-.3-.5-.4-.8-.4-.9.1-1.9 1.7-2.7 3.2-.4.7-.7 1.4-.9 2-.1.4-.2.6-.3.8-.7 2.9-1.9 5-2.5 4.8-.4-.1.5-5.4.6-6.7-.8.9-2.8 6-3.8 6.5-.8.4.2-3.7.3-4.1.5-2 1.2-3.9 1.8-5.8.4-1.3.9-2.7 1.5-4 .2-.4.4-.7.5-1.1l2.3-6.8c.3.7.5 1.3.8 1.7 1.6 1.9 3.2 3.7 4.8 5.6.7.7 1.8 1.5 2.8 1.8z" fill="#EDB39D"/>
        <path fill-rule="evenodd" clip-rule="evenodd" d="M16.5 118.8c0 .1-.1.3-.1.4 0 .2-.1.4-.1.6 0 .2-.1.4-.1.6-.1.4-.1.8-.2 1.2-.1.7-.2 1.3-.4 2 0 .2-.1.3-.1.5s-.1.4-.2.6c-.3 1-1.8 6.2-2.9 3.2-.2-.4-.1-1.5-.1-2.6.1-1.6.3-3.5-.2-4-.2-.3-.5-.4-.8-.4-.9.1-1.9 1.7-2.7 3.2-.4.7-.7 1.4-.9 2-.1.4-.2.6-.3.8-.7 2.9-1.9 5-2.5 4.8-.4-.1.5-5.4.6-6.7-.8.9-2.8 6-3.8 6.5-.8.4.2-3.7.3-4.1.5-2 1.2-3.9 1.8-5.8.4-1.3.9-2.7 1.5-4 .2-.4.4-.7.5-1.1l2.3-6.8c.3.7.5 1.3.8 1.7 1.6 1.9 3.2 3.7 4.8 5.6.7.7 1.8 1.5 2.8 1.8z" fill="#EDB39D"/>
        <path fill-rule="evenodd" clip-rule="evenodd" d="M16.5 118.8c0 .1-.1.3-.1.4 0 .2-.1.4-.1.6 0 .2-.1.4-.1.6-.1.4-.1.8-.2 1.2-.1.7-.2 1.3-.4 2 0 .2-.1.3-.1.5s-.1.4-.2.6c-.3 1-1.8 6.2-2.9 3.2-.2-.4-.1-1.5-.1-2.6.1-1.6.3-3.5-.2-4-.2-.3-.5-.4-.8-.4-.9.1-1.9 1.7-2.7 3.2-.4.7-.7 1.4-.9 2-.1.4-.2.6-.3.8-.7 2.9-1.9 5-2.5 4.8-.4-.1.5-5.4.6-6.7-.8.9-2.8 6-3.8 6.5-.8.4.2-3.7.3-4.1.5-2 1.2-3.9 1.8-5.8.4-1.3.9-2.7 1.5-4 .2-.4.4-.7.5-1.1l2.3-6.8c.3.7.5 1.3.8 1.7 1.6 1.9 3.2 3.7 4.8 5.6.7.7 1.8 1.5 2.8 1.8z" fill="#EDB39D"/>
        <path fill-rule="evenodd" clip-rule="evenodd" d="m7.6 127.1 1-2.7c.4-.9.8-1.8 1.4-2.5.3-.4.7-.7 1.1-1 .4-.3.8-.5 1.2-.7.8-.4 1.6-1 2.2-1.7-.5.8-1.4 1.3-2.2 1.8-.8.5-1.7.9-2.3 1.7-.6.7-1 1.6-1.4 2.4l-1 2.7c0 .1 0 0 0 0zM5.3 128.301l.4-3 .2-1.5.3-1.5h.1c.1 0 0 0 0 .1l-.3 1.5-.3 1.5-.4 2.9c.1 0 .1 0 0 0z" fill="#672449"/>
        <path fill-rule="evenodd" clip-rule="evenodd" d="M64.9 82.7c-.4-.3-.6-.6-.9-.9-1.3-1.5-2.4-3.1-3.2-4.9-.2-.4-.3-.8-.4-1.2-.8-2.4-1-5-1.3-7.5-.6-5.1-1-12.6-4.5-16.6-1.3-1.5-6-5.2-11.2-2.6-.1 0-.1.1-.2.1 0 0 .1.2.2.5 0 0 0 .1.1.1.2.4.4.9.5 1.2.4.8.8 1.7 1.2 2.5.4.8.7 1.5.7 2.4v.5c0 .1 0 .1-.1.2 0 .1 0 .1-.1.2 0 0 0 .1-.1.1 0 .1-.1.2-.1.3 0 .1-.1.1-.1.2l-.1.1-.2.2c-.1.1-.2.1-.2.1h-.1s-.1 0-.1.1H43.5c-.5-.1-.9-.3-1.3-.5-.9-.5-1.6-1.3-2.2-2.2-1.5-2-3-3.9-4.5-5.9h-.9c-.1 0-.3.1-.4.1-.5-.1-1.3-.1-1.9-.1-5.8.1-9.5 7.6-11.3 10.7-3.6 6.6-1.6 6.6-4.5 13.4-2.1 4.7-8 13.3-8.9 18.1-.7 3.8-2.6 10.9-.8 14.6.4.8.8 2.6 1.3 3.9.3.7.5 1.3.8 1.7 1.6 1.9 3.2 3.7 4.8 5.6.5.6 1.6 1.4 2.6 1.8 1.1.4 2.1.1 2.4-1.6 0-.4.1-.7.1-1.1l.3.3c.2.2.4.4.6.5.1.1.2.1.3.2.2.2.4.4.7.5 1.3 1 2.8 1.7 4.4 2.2 3.9 1.2 8 .9 12.1.9h3.2c4.5.1 18.2 1 20.6-7.5 1.4-4.9-3-17-3-17 4 2.3 12 6 12.7 5.9.4-.1 5.2-3.2 8.7-4.3.5-.2.9-.5 1.1-.9.5-.8.4-2-.4-2.7-3.7-2.9-12-8.7-15.2-11.7z" fill="#2B4D53"/>
        <path fill-rule="evenodd" clip-rule="evenodd" d="M18.6 115.2c.1 0 .2.1.2.2v.5c-.1.5-.5 1-1 1.3-.1 0-.3-.2-.2-.3.5-.2.9-.7.9-1.3v-.3c.1 0 .1-.1.1-.1zM7.7 102.1c.1 0 .2.1.2.2.3 1.1.7 2.1 1.2 3.1l.3.6.1.2c1.8 3.1 4.5 5.8 7 8.3v.1s-.1 0-.1-.1l-2.4-2.4c-1.7-1.8-3.3-3.7-4.6-5.8-.8-1.3-1.4-2.7-1.8-4.3 0 .1 0 .1.1.1zm27.5-45.4.1.1c.1.5.3 1.1.4 1.6.1.3.2.7.3 1 .2.5.3 1.1.4 1.6.7 3.2 1.2 6.4.7 9.7-.3 1.8-.9 3.7-1.8 5.2-1 1.6-2.6 2.9-3.4 4.6-.8 1.6-.9 3.4-.8 5.1v.2c.1 1.8.3 3.7 0 5.5-.1.6-.3 1.2-.5 1.8l-.1.3v.1c-.1.1-.1.3-.2.4-.4.9-1.1 1.7-1.5 2.5-1 1.8-1.2 3.9-1.7 5.9-.4 1.8-1 3.6-2 5.2-.9 1.6-2.1 3-3.5 4.1.4-.3.7-.6 1-.9 1.3-1.3 2.4-2.8 3.2-4.5.7-1.5 1.1-3.1 1.4-4.8l.2-.7c.2-1 .4-1.9.7-2.8.3-.9.8-1.7 1.2-2.4l.1-.2.9-1.5v-.2c.1-.3.3-.6.4-.9.3-.9.4-1.8.4-2.7.1-3.5-.9-7.3 1.3-10.4.5-.8 1.2-1.4 1.8-2.2.6-.7 1.1-1.5 1.5-2.4.8-1.7 1.2-3.6 1.4-5.5.2-2.7-.2-5.3-.8-7.9-.1-.5-.3-1.1-.4-1.6l-.2-1c-.1-.5-.3-1-.4-1.5l-.3-.8h.2zM8.8 98.9c.1 0 .2.1.2.2-.1.5 0 1.1.3 1.5 0 0 .1.1 0 .2-.1 0-.1-.1-.2-.1-.4-.5-.6-1.2-.3-1.8-.1 0-.1 0 0 0zm68-1.4c-.6.4-1.2.8-2 1.2-2.2 1.1-4.8 1.4-7.2 1.1-.2 0-.4-.1-.6-.1-.1 0-.3-.3-.1-.3.1 0 .3.1.4.1.6.1 1.2.2 1.9.2 2.7 0 5.3-.8 7.5-2.3 0-.2.2 0 .1.1zm-69.1-.3c.1 0 .1 0 0 0l.2.2v1.1h-.1c-.1 0-.1-.1-.1-.2v-1.1zm43.9-36c.2.3.4.6.5.9 1.4 2.5 2.2 5.3 2.8 8.1.6 3 1.1 6.1 1.5 9.2.2 1.3.3 2.6.4 3.9l.1 1 .1.9.1 1v-.1c-.1-.6-.1-1.2-.2-1.8l.1.4v.3c.1.4.1.8.2 1.2v1.1c0 .4.1.8.1 1.2l.1.6-.2-.2v.3c.2 2 .3 4 .4 6v1c0 .9-.3-1.2-.3-1.8v-1.3c0-.4 0-.7-.1-1-.1-.9-.1-1.8-.2-2.7l-.1-.9c0-.2 0-.4-.1-.6-.2-2.4-.4-4.7-.7-7.1-.1-.9-.2-1.7-.3-2.6-.4-3-.8-6-1.5-8.9-.6-2.8-1.6-5.6-3.1-8.1.1-.1.3-.1.4 0zM72.5 92s.1 0 0 0l.2.2v1.1h-.1c-.1 0-.1-.1-.1-.2V92s-.1 0 0 0zm1 .3c.1 0 .3.3.1.3-.1 0-.3-.3-.1-.3zM25.1 57.5c-.2.2-.4.4-.5.7-1.3 1.8-2 3.9-2.6 6-.6 2.1-1 4.4-1.6 6.5-.7 2.2-1.7 4.4-2.8 6.4-1.1 2.1-2.4 4.1-3.5 6.2-1.1 2.1-2.1 4.2-2.8 6.5-.1 0-.2-.2-.2-.3.1-.3.2-.5.3-.8.7-2.2 1.8-4.4 3-6.4 1.2-2.1 2.4-4.1 3.5-6.2 1.1-2.1 2-4.2 2.6-6.5.6-2.2 1-4.4 1.6-6.6.6-2.1 1.4-4.1 2.9-5.8 0-.1.2.2.1.3zm-.1 31c.2.1.2.2.2.2V89.5h-.1c-.1 0-.1-.1-.1-.2v-.8c-.1 0-.1.1 0 0zm.5-.4c.1 0 .1.1.2.2l.2.7v.1c-.1 0-.1-.1-.2-.2l-.2-.7c-.1-.1-.1-.1 0-.1zm31.8-26.4c0 .3-.1.5-.1.7-.2 2-.1 4 .2 6 .1.4.1.9.2 1.3.3 1.5.7 3 1.3 4.5.7 1.9 1.6 3.7 2.7 5.4 1.1 1.7 2.4 3.3 3.8 4.7 1 1 2.1 1.9 3.3 2.8.5.3.9.6 1.4.9.1.1.1.2.1.3h-.1c-.2-.1-.4-.3-.6-.4l-.1-.1-.1-.1c-1.6-1.1-3.2-2.4-4.5-3.8-1.4-1.5-2.7-3.1-3.7-4.8-1.1-1.7-2-3.6-2.6-5.5-.5-1.5-1-3.1-1.2-4.8-.1-.4-.1-.8-.2-1.2-.3-2-.3-4.1 0-6.1 0-.1.2.1.2.2zM45.1 50.8c.1 0 .1 0 .2.1 0 0 0 .1.1.1.5 1.2 1 2.5 1.4 3.8.1.4.3.9.4 1.4l.1.4c.1.3.1.5.2.7.1.3.1.6.1.8 0 .4-.2.8-.6 1-.1.1-.2.1-.3.1-.2.1-.4.1-.6.1H45.4c-.2 0-.4-.1-.5-.1-.9-.2-1.7-.5-2.4-.9-.4-.2-.9-.5-1.3-.7-.4-.2-.7-.5-1-.8-.1-.1-.2-.2-.4-.3 0 0-.1-.1 0-.2.1 0 .2 0 .2.1l.1.1.1.1c.7.7 1.7 1.3 2.7 1.8.5.2 1 .4 1.6.5.2 0 .4.1.5.1h.2c.1 0 .3 0 .4.1h.4c.2 0 .4 0 .6-.1.3-.1.4-.2.6-.4.2-.3.2-.7.1-1.1l-.1-.2v-.1c-.4-2-1.1-4-1.9-5.9l-.2-.5c-.1 0-.2 0 0 0zm3.6 6.7.9 1.2s.1.1 0 .2c-.1 0-.1 0-.2-.1l-.4-.6-.4-.6s-.1-.1 0-.2l.1.1zm-.9-.9c.1 0 .3.3.1.3-.1 0-.3-.3-.1-.3zm-12.6-6.3c0 .1.1.2.1.3.3.8.7 1.5 1.2 2.1l.1.1.1.1s.1.1.1.2h-.2c-.7-.7-1.3-1.6-1.6-2.6v-.2c-.1-.2.1-.1.2 0z" fill="#4E9993"/>
        <path fill-rule="evenodd" clip-rule="evenodd" d="M46.1 55.8V56.4c0 .1 0 .1-.1.2 0 0 0 .1-.1.1 0 .1-.1.2-.1.3 0 .1-.1.1-.1.2s-.1.1-.1.1l-.2.2c-.1.1-.2.1-.2.1h-.1s-.1 0-.1.1H43.8c-.5-.1-.9-.3-1.3-.5-.9-.5-1.6-1.3-2.2-2.2-1.5-2-3-3.9-4.5-5.9h-.1c1.8-.2 3.8-.3 6-.4.7 0 1.9.2 1.9.2s.1.2.2.5c0 0 0 .1.1.1.2.4.4.9.5 1.2.4.8.8 1.7 1.2 2.5.1.9.5 1.7.5 2.6z" fill="#EDB39D"/>
        <path fill-rule="evenodd" clip-rule="evenodd" d="M46.4 56v.6c0 .1 0 .1-.1.2 0 .1 0 .1-.1.2 0 0 0 .1-.1.1 0 .1-.1.2-.2.3 0 .1-.1.1-.1.2s-.1.1-.2.1c-.1.1-.2.1-.2.2-.1.1-.2.1-.3.1H45s-.1 0-.1.1H43.6c-.5-.1-1-.3-1.5-.5-1-.6-1.7-1.4-2.4-2.2-1.6-2-3.2-4.1-4.9-6.1h-.1c1.9-.2 4.1-.3 6.5-.4.8 0 2.1.2 2.1.2s.1.2.3.5c0 0 0 .1.1.1.2.4.4.9.6 1.2.4.9.8 1.8 1.3 2.6.4.8.8 1.6.8 2.5z" fill="#EDB39D"/>
        <path fill-rule="evenodd" clip-rule="evenodd" d="M33 37.7s.1 0 .2.1c-.1-.1-.1-.1-.2-.1zm.5.1s0 .1 0 0c0 .1 0 .1 0 0zm.4.2h.2-.2zm.8 0h-.4.4zm.4 0s-.1 0 0 0zm.3 1.8v-1.9h-.2.1c0 .6 0 1.9.1 2.5h.1l-.1-.6zm18.8-20.3c.1.3.2.5.3.8-.1-.2-.2-.5-.3-.8zm.5 1.9c0-.1 0-.1 0 0zm.5 2.7c-.1-.5-.2-1.1-.3-1.7.1.9.3 1.7.4 2.6 0-.3-.1-.5-.1-.9zm-.3-1.8v.1-.1zm.5 3.1c.1.3.1.6.2.9 0-.3-.1-.6-.2-.9zm1.1 3.7c-.3-.9-.6-1.8-.8-2.8.5 1.8.6 2.8 1.2 3.5-.2-.2-.3-.4-.4-.7z" fill="#672448"/>
        <path fill-rule="evenodd" clip-rule="evenodd" d="M18.8 6.7c2.9-5.5 10.5-7.2 14.9-2.4-.3-.2-.6-.4-1-.6-4.7-2.9-10.8-1.5-13.9 3zM17 12.1c-.1 2.3.5 4.6 1.8 6.4.7 1.1 1.6 1.9 2.6 2.7.7.5 1.5.9 2.3 1.2h-.4c-4.6-.6-7-6-6.3-10.3zm32.8.4c-1.5-.7-3.1-1-4.7-1.1-2.1-.1-4.4.1-6.6.4 1.6-.7 2-3.2.5-4.2-.2 0-.2.2-.1.3.8 1.3.2 3-1.2 3.5.3-.2 0-.9-.2-1.6-.1-.4-.3-.7-.4-1-.5-1.2-1.1-2.3-1.9-3.4C24.3-8.9 8 13.7 21.2 22.1c1.1.5 2.2.8 3.4.8-1.2 3.7-.8 7.9 1.1 11.3 1.9 3.6 5.5 6.4 9.7 6.2 0-.6 6.5-.7 6.5-1.3-.9.1 12.6-13.6 15-9.4 3.4-.2 4.8-4.5 5.3-7.2 1.3-5.5-3.6-12.3-9.6-10.7C56 10.5 60 11 63 13.3c.3.3.5-.1.2-.4-3.9-2.8-9.6-3.3-13.4-.4z" fill="#571E3E"/>
        <path fill-rule="evenodd" clip-rule="evenodd" d="M32.9 37.5c.1 0 .1.1.2.1-.1-.1-.2-.1-.2-.1zm.2.1c.1 0 .1 0 .2.1-.1-.1-.1-.1-.2-.1zm.4.1c.1 0 .1 0 0 0 .1 0 .1 0 0 0zm.3.1h.2-.2c-.1 0-.1 0 0 0zm.4 0h.2-.2zm1.7-.2c.1 0 .1 0 0 0zm6.9 4.8c.2.2.4.3.7.4l-.7-.4z" fill="#EDB39D"/>
        <path fill-rule="evenodd" clip-rule="evenodd" d="M42.8 42.4c.1-.1.6.3.7.3-.3-.1-.5-.2-.7-.3zm-6.9-4.8c.1 0 .1 0 0 0zm-1.7.2h.2-.2zm-.4 0c-.1 0-.1 0 0 0h.2-.2zm-.3-.1c.1 0 .1 0 0 0 .1 0 .1 0 0 0zm-.4-.1c.1 0 .1 0 .2.1-.1-.1-.1-.1-.2-.1zm-.2-.1c.1 0 .1.1.2.1-.1-.1-.2-.1-.2-.1zM58.3 32c-.2-.9-1.1-1.4-1.5-2.2-1.2-1.9-1.7-6-2.1-8.5-.1-2-1.7-4.3-3.2-5.2.6.6-1.6 7.8-2.1 5.9.6-1.7 1.6-3.4 1.7-5.3-.4 1.5-1.4 3.5-2.8 5.5-1.5 2.2-3.3 4.4-5.2 6.2-1 .9-1.9 1.8-3 2.5-.9.4-1.7 1.1-2 2.1-1 2 .5 3.3 2.5 3.1 1.8 1.2-4.8.7-3-3.5.1-.2.1-.3.2-.4-1.4-3.4-6.2-3.2-7.1 1-.1.7 0 1.5.3 2.2 0 .1.1.2.1.3.1.1.2.3.2.4 0 .1.1.1.1.2 0 0 0 .1.1.1.3.4.6.6.9.9.1.1.2.1.3.2.8.4 1.7.6 2.6.5.1 3.6.3 8.6.4 12.2h7.2c0-1.6 0-6.1-.1-7.7 2.8 1.3 6.5 3.6 9.5 1.5 2.9-2.5 4.6-6.9 4.3-10.6.9.4 1.8-.5 1.7-1.4z" fill="#EDB39D"/>
        <path fill-rule="evenodd" clip-rule="evenodd" d="M32.1 37c-.1 0-.1-.1 0 0-.1 0-.1 0 0 0zM33.1 37.5c-.1 0-.1-.1-.2-.1 0 .1.1.1.2.1zM33.3 37.6c-.1 0-.1 0-.2-.1.1.1.1.1.2.1zM43.5 42.8c-.2-.1-.4-.2-.7-.3v-.1s.6.3.7.4z" fill="#EDB39D"/>
        <path fill-rule="evenodd" clip-rule="evenodd" d="M42.9 44.9c-1.4-.5-7.6-7.2-7.6-7.2l7.5 4.6c0 .4.1 2.3.1 2.6z" fill="#E6A48D"/>
        <path fill-rule="evenodd" clip-rule="evenodd" d="M55.9 33.1c-.1 0-.6-.4-.3-.4.2.2 1.2.7.3.4zM36.1 32.9c-.9-.6-2.1.6-.9 1.1-1.2-.4-.1-1.7.9-1.1-.1-3-5.6-1.5-2.9 2.1-3.4-3.8 3.3-5.4 2.9-2.1z" fill="#672448"/>
        <path fill-rule="evenodd" clip-rule="evenodd" d="M52.1 23.4c-1.2-.3-2.8.4-3.4 1.3.8-3.3 5.2-2 3.4-1.3zM51.8 37.3c-1 0-1.9-.5-2.5-1.3-.1-.1 0-.2 0-.2.1-.1.2 0 .2 0 .8 1.2 2.4 1.6 3.6.8.1-.1.2 0 .2 0 .1.1 0 .2 0 .2-.4.4-1 .5-1.5.5zM51.6 27.6c0 .7-.3 1.3-.8 1.3-.4 0-.9-.5-.9-1.3 0-.7.3-1.3.8-1.3.5.1.9.6.9 1.3z" fill="#571E3E"/>
        <path fill-rule="evenodd" clip-rule="evenodd" d="M48.5 28.4c-.1 0-.2-.1-.1-.2.4-1.5 2-2.3 3.4-1.9.1 0 .1.1.1.2s-.1.1-.2.1c-1.3-.4-2.7.4-3 1.7-.1.1-.1.1-.2.1z" fill="#571E3E"/>
        <path fill-rule="evenodd" clip-rule="evenodd" d="M137.6 135.701v.1c-.1.2-.1.5-.2.7l-.6 2.4c-.2.6-.3 1.2-.5 1.7 0 .1-.1.2-.1.2-.1 0-.1 0-.1-.1.3-1.2.6-2.5.9-3.7.1-.5.2-1 .3-1.4.2-.7.3-1.5.5-2.2 0-.1.1-.2.1-.2.1 0 .1 0 .1.1-.1.8-.2 1.6-.4 2.4zm9.3-15.4h-16.7c-.2.4-5.9 10.4-6.4 11.3.6.7.1.6-.2.3-.9 1.5-1.9 3.6-1.2 4.1l.6.6c1.6 1.4 3.1 2.4 4.5 3.2l1.2.6c1.6.8 3.3 1.3 5 1.6.7.2 1.4.3 2.1.4.1-.4.2-.8.3-1.1 1.1.2 2.3.4 3.3.5.4 0 .8 0 1.2.1 1.6 0 3.2-.2 4.7-.5.8-.2 5.1-.9 5.1-.9 0-.2-3.4-19.5-3.5-20.2z" fill="#2B4D53"/>
        <path fill-rule="evenodd" clip-rule="evenodd" d="M131 130.6c-1.1 2.3-4.1 2.9-6.4 2-.4-.1-.8-.4-1-.7.1-.1.1-.2.2-.3.6.7 1.6 1 2.5 1.1 1.2.2 2.4-.1 3.4-.8.5-.4.9-.8 1.2-1.4l.1-.1h.1c-.1.1-.1.1-.1.2z" fill="#2B4D53"/>
        <path fill-rule="evenodd" clip-rule="evenodd" d="M143.2 144.9c.3.3.6.5.9.7.4.1.8.2 1.1.3.3 0 .7 0 1-.1 0-.1 0-.2-.1-.3-.3.1-.6.2-.9.2-.6-.1-1.4-.3-2-.8zM127.8 144.101c.2.3.4.7.7.9.3.2.7.5 1 .6.4.1.8.2 1.1.1l.3-.3h-.3c-.4 0-.7 0-1.1-.1-.6-.1-1.3-.5-1.7-1.2z" fill="#672449"/>
        <path fill-rule="evenodd" clip-rule="evenodd" d="M131 130.6c-1.1 2.3-4.1 2.9-6.4 2-.4-.1-.8-.4-1-.7.1-.1.1-.2.2-.3.6.7 1.6 1 2.5 1.1 1.2.2 2.4-.1 3.4-.8.5-.4.9-.8 1.2-1.4l.1-.1h.1c-.1.1-.1.1-.1.2zM138.1 133.401c-.1.8-.3 1.5-.5 2.2v.2c-.1.2-.1.5-.1.7l-.6 2.4c-.1.6-.3 1.2-.5 1.7 0 .1-.1.1-.1.1-.1 0-.1 0-.1-.1.3-1.2.6-2.5.9-3.7.1-.5.2-1 .3-1.4.2-.7.3-1.5.5-2.2 0 .1 0 .1.2.1 0-.1 0-.1 0 0zM140.4 110v1.1l-.1 2.3-.1 6.4c0 1.7-.1 3.5-.2 5.2 0 .5 0 1-.1 1.5v.4c0 .6-.1 1.3-.1 1.9v1.4V125c.1-1.7.1-3.4.2-5.2l.2-6.4.1-2.5.1-.9v-.4.4zm-1 2c0-.2.1-.5.1-.8.1-.5.3-.9.5-1.4v-.1l.1-.1c.1-.1.2 0 .1.2v.1c-.1.1-.1.2-.1.3-.2.4-.3.8-.4 1.1-.1.5 0 1-.3 1.4-.1.2-.3.1-.2-.1.2-.1.2-.3.2-.6zm-.3 1.1-.1.1H138.7v-.2l.1-.1H139.1c.1 0 0 0 0 0 .1.1.1.1 0 .2 0 0 .1 0 0 0zm-1.3-1c-.1.2-.2.5-.3.7l-.1.1c-.1.2-.3.4-.4.6-.3.4-.7.7-1 1-.1 0-.1.1-.2.1-.3.2-.6.5-.8.8-.1.1-.2.2-.3.4 0 0 0 .1-.1.1 0 .1-.1.1-.1.1-.1.1-.1.3-.2.4 0 .1-.1.3-.1.4 0 0 0 .1-.1.1 0 0 0 .1-.1.1 0 .1-.1.1-.1.2-.3.4-.5 1-.7 1.5-.1.2-.2.5-.3.8-.1.2-.1.5-.1.8 0 .4.2.8.3 1.3v.3l.3 1.5.1.3c-.2-.6-.3-1.1-.4-1.7v-.2c-.1-.5-.3-1-.4-1.6 0-.3 0-.6.1-.8.1-.2.2-.5.3-.8.2-.5.4-1 .7-1.5 0-.1.1-.1.1-.2s.1-.1.1-.2c.1-.1.1-.2.1-.4 0-.1.1-.3.2-.4.1-.1.1-.2.2-.4s.2-.2.3-.4c0-.1.1-.1.1-.1.2-.2.5-.4.8-.7.1-.1.2-.2.3-.2.3-.3.6-.5.9-.8.1-.2.2-.3.4-.5 0-.1.1-.1.1-.1.1 0 .3-.3.4-.6 0-.1.1-.2.1-.2.2-.4.3-.8.3-1.3 0 .5-.1.9-.3 1.4-.1 0-.1.1-.1.1zm-2.6 15.4-.6-.6c-.1-.1-.2-.2-.3-.2 0 .1.1.1.1.2.1.2.3.4.4.6.2.4.5.8.7 1.3.1.2-.1.4-.3.2-.4-.3-1-1-1.3-1.4.2.5 1.2 1.6.8 2.1-.1.2-1.1-1.1-1.7-1.8.2.7.7 2.2.4 2.3-.3 0-.9-1-1.2-1.7-.1-.2-.7-.8-1-.9-.1 0-.2-.3-.3-.7v-.1c.9-.2 3.2-1.1 3.3-1.3.2.2.5.3.8.6.3.2.6.5.8.8l.1.1c.2.2.6.8.3.9-.4.2-.9-.3-1-.4zm-5.2-1.7s-.1 0 0 0c-.1-.5-.2-1-.3-1.4-.1-.5-.1-.9-.2-1.4 0-.2-.1-.4-.2-.7l-.3-.6c-.1-.1-.1-.2-.1-.4 0-.1 0-.3-.1-.4v-.8c0 .1.1.2.1.4 0 .1 0 .2.1.3v.2c.1.2.1.4.2.5.1.2.2.4.2.7.1.2.1.5.1.7.1.4.1.9.2 1.4.1.6.2 1.1.3 1.5zm8.1-19.5-.9-.1h-.4c-.1 0-.3 0-.4.1-.1 0-.1 0-.2.1-1.4.3-2.7.5-4.2 2.5-3-.3-4.8.8-5-.1-.2-.9 2.6-2.4 5.9-3 2-.3 3.3-.4 4.2-.2h.1v-.2h-.1c-1.5-.2-3.2-.1-5 .2-2.9.6-5.4 2-6.8 3.6-1 1.1 1.2 2.3 1.4 3.5.3 1.3.8 2.3 1.8 2.9-.2.8-.3 1.5-.4 2.1-.1.8.1 1.5.4 2.6-.6 1.1-1.2 2.5-2.4 4.1-1.1 1.7.2 3.6.9 3.9.3.1.5.4.8.5.1.1.3.1.5.2 1.7.7 3.6 1.1 5.5 1.4h.1c.8.1 1.5.2 2.3.2 1.1.1 2.3.1 3.4.1v-2.1l.1-1.9v-.4l.4-13.2.1-1.8.1-1.4v-3.6c.1.1-2.2 0-2.2 0z" fill="#98D6D2"/>
        <path fill-rule="evenodd" clip-rule="evenodd" d="m137.3 105.6-.1.6H136.9c-.1 0-.3 0-.4.1-.1 0-.1 0-.2.1-1.4.3-2.7.5-4.2 2.5-3-.3-4.8.8-5-.1-.2-.9 2.6-2.4 5.9-3 2.1-.3 3.4-.4 4.3-.2 0 0-.1 0 0 0zM138.1 110.601c0 .5-.1.9-.3 1.4v-.1c.2-.5.3-.9.3-1.3zM139.2 113c0 .1-.1.1 0 0l-.2.2H138.7v-.2l.1-.1H139.1c.1 0 0 0 .1.1zM140.4 109.5v1.5l-.1 2.3-.1.1.1-2.5v-1.1l.1-.3z" fill="#98D6D2"/>
        <path fill-rule="evenodd" clip-rule="evenodd" d="M137.3 105.6v.6H137c-.1 0-.3 0-.4.1-.1 0-.1 0-.2.1-1.4.3-2.7.5-4.2 2.5-3-.3-4.8.8-5-.1-.2-.9 2.6-2.4 5.9-3 2-.3 3.3-.3 4.2-.2 0 0-.1 0 0 0z" fill="#2B4D53"/>
        <path fill-rule="evenodd" clip-rule="evenodd" d="M163.6 113.901v-.2c0-.2-.1-.3-.1-.4 0-.1-.1-.2-.1-.3-.1-.1-.1-.2-.2-.2-.1-.2-.2-.3-.4-.4l-.1-.1-.1-.1-.2-.2c.2.1.4.2.5.3.1.2.2.3.4.5.2.3.3.7.3 1.1zm3.7-1.8c-.1-.2-1.3.3-2.3.8.7-.9 1.6-2.2 1.5-2.6v-.1c-.1-.1-.6.2-1.2.6-.3.2-.6.5-1 .8l-.1-.1c.4-.8 1.1-1.8 1.3-2.4.1-.2.1-.4 0-.4h-.2c-.5.2-1.5 1.4-2.2 2.1.1-.3.2-.7.2-1 .1-.8.2-1.4.1-1.5-.3-.1-1.2 1.8-1.7 2.9 0 0 0 .1-.1.1v-.1c0-.9-.5-1.9-.7-1.9-.6 0-.6 1.4-.6 2.5l.2-.2c.2 0 3.3 2.9 3.3 3.2.8-.2 3.8-2.2 3.5-2.7zm-5.2 4.1s.1 0 0 0c.1 0 0 0 0 0zm-18.1-2.4-.7-2.6.7 2.6.2 1.1.1.1-.3-1.2zm4.6 3.6c-.1 0-.1-.1-.2-.1-.2-.6-.5-1.2-.8-1.7l-1-2 .9 2c.2.6.5 1.1.8 1.7 0 0 0 .1.1.1h.2zm-3-5.7c0 .1 0 .1.1.2 0-.1 0-.1-.1-.2zm.6.2-.3-.1c-.1 0-.1.1-.1.1v.1l.1.1h.2c.1 0 .1 0 .1-.2 0 .1 0 .1 0 0z" fill="#F8DBCF"/>
        <path fill-rule="evenodd" clip-rule="evenodd" d="M163.6 113.9c-.1-.4-.2-.8-.4-1.1-.1-.2-.2-.3-.4-.4-.1-.2-.3-.3-.4-.4.2.1.4.2.5.3.1.2.3.3.4.5.2.3.3.7.3 1.1zM163.3 115.4c-.1.1-.2.2-.5.4-.2.1-.3.2-.5.3 0 0 .1 0 .1-.1.1-.1.2-.1.3-.2.1 0 .1-.1.2-.1.1-.1.3-.2.4-.3zM161.7 111.401c0-.1 0-.1.1-.1l-.1.1z" fill="#F8DBCF"/>
        <path fill-rule="evenodd" clip-rule="evenodd" d="M163.6 113.9c-.1-.4-.2-.8-.4-1.1-.1-.2-.2-.3-.4-.4-.1-.2-.3-.3-.4-.4.2.1.4.2.5.3.1.2.3.3.4.5.2.3.3.7.3 1.1z" fill="#672449"/>
        <path fill-rule="evenodd" clip-rule="evenodd" d="M146.2 112c0 .1-.1.2-.2.2h-.2s-.1 0-.1-.1v-.1c0-.1.1-.1.1-.1h.2c.2 0 .2 0 .2.1zM144 113.7s-.1 0 0 0l-.7-2.6-.4-1.6.4 1.6.7 2.6zM145.7 111.901s0-.1-.1-.1c.1 0 .1 0 .1.1zM148.4 117.301c-.1 0-.1-.1 0 0-.3-.6-.6-1.1-.8-1.7l-.9-2 1 2c.2.5.4 1.1.7 1.7zM164 115c-.2.2-.6.5-1.1.8-.2.1-.3.2-.4.2.1-.1.2-.1.3-.2.1 0 .1-.1.2-.1.1-.1.3-.2.4-.3.2-.2.4-.4.6-.4-.1 0-.1 0 0 0z" fill="#98D6D2"/>
        <path fill-rule="evenodd" clip-rule="evenodd" d="M138.1 110.601c0 .5-.1.9-.3 1.4v-.1c.2-.5.3-.9.3-1.3zM139.2 113c0 .1-.1.1 0 0l-.2.2H138.7v-.2l.1-.1H139.1c.1 0 0 0 .1.1zM147.1 128.8c-.6.4-2.1 1.1-4.6 1-.8 0-1.6-.1-2.6-.3v-.8l.1-1.9v-.4l.4-13.2.1-1.8.1-1.4V109.4c.4.1.7.1 1 .1.4 0 .7-.1.8-.3l.1.2V109.7l.4 1.8.5 2 .2 1 2.7 11.5.2.6.6 2.2zM140.4 109.5v1.5l-.1 2.3-.1.1.1-2.5v-1.1l.1-.3zM144.3 114.9s-.1 0 0 0l-.4-1.2-.6-2.6-.4-1.6.4 1.6.7 2.6.3 1.2z" fill="#EEF8F9"/>
        <path fill-rule="evenodd" clip-rule="evenodd" d="M136 128c-.2.1-.7-.4-.8-.5l-.6-.6c-.1-.1-.2-.2-.3-.2 0 .1.1.1.1.2.1.2.3.4.4.6.2.4.5.8.7 1.3.1.2-.1.4-.3.2-.4-.3-1-1-1.3-1.4.2.5 1.2 1.6.8 2.1-.2.2-1.1-1.1-1.7-1.8.2.7.7 2.2.4 2.3-.3 0-.9-1-1.2-1.7-.1-.2-.7-.8-1-.9-.1 0-.2-.3-.3-.7v-.1c.9-.2 3.2-1.1 3.3-1.3.2.2.4.3.8.6.3.2.6.5.8.8l.1.1c0 .3.5.8.1 1zM133.6 123.7c0-.1-.1-.2-.1-.3l.1.3zM138.1 110.601c0 .5-.1.9-.3 1.4v-.1c.2-.5.3-.9.3-1.3zM139.2 113c0 .1-.1.1 0 0l-.2.2H138.7v-.2l.1-.1H139.1c.1 0 0 0 .1.1zM134.6 115.9s0 .1 0 0c-.1.1-.1.1 0 0 0 0 0 .1 0 0zM140.4 109.5v1.5l-.1 2.3-.1.1.1-2.5v-1.1l.1-.3z" fill="#98D6D2"/>
        <path fill-rule="evenodd" clip-rule="evenodd" d="M134.6 115.9c0 .1-.1.1-.1.1s.1 0 .1-.1z" fill="#2B4D53"/>
        <path fill-rule="evenodd" clip-rule="evenodd" d="M136 128c-.2.1-.7-.4-.8-.5l-.6-.6c-.1-.1-.2-.2-.3-.2 0 .1.1.1.1.2.1.2.3.4.4.6.2.4.5.8.7 1.3.1.2-.1.4-.3.2-.4-.3-1-1-1.3-1.4.2.5 1.2 1.6.8 2.1-.2.2-1.1-1.1-1.7-1.8.2.7.7 2.2.4 2.3-.3 0-.9-1-1.2-1.7-.1-.2-.7-.8-1-.9-.1 0-.2-.3-.3-.7v-.1c.9-.2 3.2-1.1 3.3-1.3.2.2.4.3.8.6.3.2.6.5.8.8l.1.1c0 .3.5.8.1 1z" fill="#F8DBCF"/>
        <path fill-rule="evenodd" clip-rule="evenodd" d="M137.9 111.9c0 .1-.1.2-.1.2-.1.2-.2.5-.3.7l-.1.1c-.1.2-.3.4-.4.6-.3.4-.7.7-1 1-.1 0-.1.1-.2.1-.3.2-.6.5-.8.8-.1.1-.2.2-.3.4 0 0 0 .1-.1.1s0 0 0 .1v.1c-.1.1-.1.3-.2.4 0 .1-.1.3-.1.4 0 0 0 .1-.1.1 0 0 0 .1-.1.1 0 .1-.1.1-.1.2-.3.5-.5 1-.7 1.5-.1.2-.2.5-.3.8-.1.2-.1.5-.1.8 0 .4.2.8.3 1.3v.3l.3 1.5c0 .1 0 .2.1.3-.2-.6-.3-1.1-.4-1.7v-.2c-.1-.5-.3-1-.4-1.6 0-.3 0-.6.1-.8.1-.2.2-.5.3-.8.2-.5.4-1 .7-1.5 0-.1.1-.1.1-.2s.1-.1.1-.2c.1-.1.1-.2.1-.4 0-.1.1-.3.2-.4.1-.1.1-.2.2-.4.1-.1.2-.2.3-.4 0-.1.1-.1.1-.1.2-.2.5-.5.8-.7.1-.1.2-.2.3-.2.3-.3.6-.5.9-.8.1-.2.2-.3.4-.5 0-.1.1-.1.1-.2.1-.2.3-.5.4-.8-.1.2-.1.1 0 0zM130.7 111c-.4.8-.7 1.6-1 2.4-.1.4-.3.8-.4 1.2-.1.4-.3.8-.4 1.2 0-.2 0-.3.1-.5.1-.3.1-.5.2-.8.1-.4.3-.8.4-1.2.3-.6.5-1.2.8-1.8v.1s0-.1.1-.1v-.4c.1 0 .1-.1.2-.1z" fill="#2B4D53"/>
        <path fill-rule="evenodd" clip-rule="evenodd" d="M146.9 125.7c0 .1.1.3.1.4 0 .2.1.3.1.4.2 1 .5 2.1.7 3.1-.1-.6-.3-1.2-.5-1.8-.1-.4-.2-.9-.3-1.3-.1-.3-.1-.5-.2-.8-.1-.4-.2-.7-.3-1.1-.4-1.7-.8-3.3-1.2-5l-1.1-4.8-.3-1.1-.6-2.6-.4-1.6.4 1.6.7 2.6.3 1.1 1.1 4.7c.4 1.7.8 3.3 1.2 5 .1.5.2.8.3 1.2zm-3-16.1c.4 0 .6.3.8.6.1.1.1.3.1.4.1.4.3 1.1.8 1.1.1 0 .1.1.1.2s-.1.2-.2.1c-.5 0-.8-.6-.9-1.1-.1-.2-.1-.4-.2-.6 0 0 0-.1-.1-.1-.1-.1-.2-.3-.4-.4h-.2c-.2 0-.1-.3 0-.3.1.1.1.1.2.1zm2 2.3h.2s.1 0 .1.1v.1c0 .1-.1.1-.1.1h-.2s-.1 0-.1-.1v-.1l.1-.1zm14.5 0c0 .1 0 .1 0 0-.5.3-.9.5-1.4.8-.4.2-.8.4-1.2.4-.4 0-.7.1-1.1 0-.3-.1-.6-.2-1-.1-1.1.3-1.8 0-2.9-.2-1.7-.2-4-3.1-5.5-3.8-.9-.4-1.4-1.3-2.3-1.6-.4-.2-.8-.2-1.1-.2h-.2c-.3-.3-.7-.6-1.1-.8h-2v2.8l2 .2v.2l.4 1.8.5 2 .2 1 2.7 11.5.1.6.5 2.3.3 1.4c.7-.2 1.4-.3 2-.5 1-.3 2-.7 3-1.1.1-.1.2-.1.3-.2l.1-.1c.9-1.4-1-3.4-1.7-4.6-.5-.7-1.1-1.4-1.4-2.2-.5-1-.7-2.1-.9-3.2-.1-.3-.2-.6-.2-.9-.1 0-.1 0-.1-.1 0 .1.1.1.1.2 0-.1-.1-.2-.1-.2s0-.1-.1-.1c-.3-.5-.5-1.1-.8-1.7l-.9-2 1 2c.3.6.5 1.1.8 1.7.1 0 .1.1.2.1 1.6 1 3.7 2 6.3 2 .9 0 4.2-1.3 4.9-1.9.5-.4 1.2-.5 1.9-1 .1-.1.2-.1.3-.2.1 0 .1-.1.1-.1s.1 0 .1-.1h.1s.1 0 .1-.1c.1-.1.2-.1.3-.2.1 0 .1-.1.2-.1.1-.1.3-.2.4-.3.2-.1.4-.3.5-.3 0 0 .1 0 .1-.1 0-.3-3.1-3.2-3.3-3.2 0 .1-.2.2-.2.2z" fill="#98D6D2"/>
        <path fill-rule="evenodd" clip-rule="evenodd" d="M144.3 114.9s-.1 0 0 0l-.4-1.2-.6-2.6-.4-1.6.4 1.6.7 2.6.3 1.2zM148.4 117.401c0 .1.1.2.1.2 0-.1-.1-.2-.1-.2l-.1-.1c-.3-.5-.5-1.1-.8-1.7l-.9-2 1 2c.3.6.5 1.1.8 1.8l.1.1c0-.1 0-.1-.1-.1zM138.1 110.601c0 .5-.1.9-.3 1.4v-.1c.2-.5.3-.9.3-1.3z" fill="#98D6D2"/>
        <path fill-rule="evenodd" clip-rule="evenodd" d="M148.5 117.601c-.1-.1-.1-.1-.1-.2 0 0 0-.1-.1-.1-.3-.5-.5-1.1-.8-1.7l-.9-2 1 2c.3.6.5 1.1.8 1.7v.1s.1.1.1.2zM140.3 113.4l-.1 6.4c0 1.7-.1 3.5-.2 5.2 0 .5 0 1-.1 1.5v.4c0 .6-.1 1.3-.1 1.9v1.4V125c.1-1.7.1-3.4.2-5.2l.3-6.4c0 .1-.1.1 0 0zM140.4 109.5v1.5l-.1 2.3-.1.1.1-2.5v-1.1l.1-.3zM133.6 123.7c0-.1-.1-.2-.1-.3l.1.3zM138.1 110.601c0 .5-.1.9-.3 1.4v-.1c.2-.5.3-.9.3-1.3zM130 125.8s0 .1 0 0c0 0-.1 0 0 0-.1-.5-.2-1-.3-1.4-.1-.5-.1-.9-.2-1.4 0-.2-.1-.5-.2-.7l-.3-.6c-.1-.1-.1-.2-.1-.4 0-.1 0-.2-.1-.4v-.7c0 .1.1.2.1.4 0 .1 0 .2.1.3v.1c.1.2.1.4.1.5.1.2.2.4.2.7.1.2.1.5.1.7.1.5.2.9.2 1.4.2.6.3 1.1.4 1.5zM147.8 129.601c-.2-.6-.3-1.2-.5-1.8-.1-.4-.2-.9-.3-1.3-.1-.3-.1-.5-.2-.8-.1-.4-.2-.7-.3-1.1-.4-1.7-.8-3.3-1.2-5l-1.1-4.8.1.1 1.1 4.7c.4 1.7.8 3.3 1.2 5 .1.4.1.7.2 1.1 0 .1.1.3.1.4 0 .2.1.3.1.4.3 1 .6 2.1.8 3.1z" fill="#2B4D53"/>
        <path fill-rule="evenodd" clip-rule="evenodd" d="M144.3 114.9s-.1 0 0 0l-.4-1.2-.6-2.6-.4-1.6.4 1.6.7 2.6.3 1.2zM145.7 111.9c0 .1-.1.2-.1.1-.5 0-.8-.6-.9-1.1-.1-.2-.1-.4-.2-.6 0 0 0-.1-.1-.1-.1-.2-.2-.3-.4-.4h-.1c-.2 0-.2-.3 0-.3h.1c.4 0 .6.3.8.6.1.1.1.3.1.4.1.4.3 1.1.8 1.1-.1.2 0 .3 0 .3z" fill="#2B4D53"/>
        <path fill-rule="evenodd" clip-rule="evenodd" d="M145.7 111.901s0-.1-.1-.1c.1 0 .1 0 .1.1zM140.3 109.9s-.1 0 0 0c-.1.2-.1.2-.2.3-.2.4-.3.8-.4 1.1-.1.5 0 1-.3 1.4-.1.2-.3.1-.2-.1.1-.2.2-.5.2-.7 0-.2.1-.5.1-.8.1-.5.3-.9.5-1.4v-.1l.1-.1c.1.2.3.3.2.4zM146.2 112c0 .1-.1.2-.2.2h-.2s-.1 0-.1-.1v-.1c0-.1.1-.1.1-.1h.2c.2 0 .2 0 .2.1zM139.2 113c0 .1-.1.1 0 0l-.2.2H138.7v-.2l.1-.1H139.1c.1 0 0 0 .1.1z" fill="#2B4D53"/>
        <path fill-rule="evenodd" clip-rule="evenodd" d="M156.5 94.2c-.2-.2-.5-.3-.8-.4 1.2-17.3-23.5-19.8-24.9-2.6v.1c-1.3.6-2.3 1.9-2.5 3.4-.4 3.1 3.1 5.5 5.9 4.6.8 1.3 1.8 2.3 3 3.2-.1 1.5-.1 3.8-.2 5.3.2.2.4.4.7.5.5.3 1.1.6 1.8.8.8.2 2.6.9 2.9-.3v-4.3c6.1 1.3 11.2-1.1 12.8-7.5 1.4.2 2.4-1.8 1.3-2.8z" fill="#F8DBCF"/>
        <path fill-rule="evenodd" clip-rule="evenodd" d="M134.3 95.3c-.3-.1-.5-.2-.8-.2-.2 0-.5.1-.7.2-.2.2-.2.5-.1.7.1.2.3.4.5.5-.2-.1-.5-.2-.6-.5-.1-.2-.1-.5.1-.8.2-.2.4-.3.7-.3.2 0 .5 0 .7.2.1-.3.1-.7-.1-1-.2-.3-.6-.5-.9-.6-.4-.1-.8-.2-1.1-.2-.4 0-.8.1-1.1.3-.7.4-.9 1.1-.9 1.9 0 .8.3 1.5.7 2.1-.3-.3-.5-.6-.7-1-.2-.4-.3-.8-.3-1.2 0-.4 0-.8.2-1.2.2-.4.5-.7.8-.9.4-.2.8-.3 1.2-.3.4 0 .8.1 1.2.2.4.2.8.4 1 .7.3.6.4 1.1.2 1.4zM154.9 97.1h-.4s-.4-.1-.3-.2h.2c.2 0 .3.1.5.1.1 0 .1.1 0 .1z" fill="#672449"/>
        <path fill-rule="evenodd" clip-rule="evenodd" d="M146.6 97.6c0 1.5-1.2 2.7-2.7 2.7-1.5 0-2.7-1.2-2.7-2.7 0-1.5 1.2-2.7 2.7-2.7 1.5.1 2.7 1.3 2.7 2.7zM142.5 106.501c-.8-.3-3.3-2.1-4.4-3.2-.3-.3-.8-.7-.8-.7s2.8 1.6 5.2 2v1.9z" fill="#F1BFB6"/>
        <path fill-rule="evenodd" clip-rule="evenodd" d="M157.6 88.5c.1-.5.2-1 .1-1.6-.3-2.8-3.2-6.1-7.1-8.3.2.1.4.2.7.3 2.2.9 4.4 2.4 5.7 4.5.7 1.1 1.1 2.3 1.2 3.6 0 .3.1.7 0 1-.1.4-.4.5-.6.5zm-2.3.2c-1.3-.1-2.7-.4-3.9-.8-1.2-.4-2.4-.8-3.5-1.4-.6-.3-1.2-.5-1.7-.9.2.1.4.2.6.2 1.9.6 5.9 2.1 8.5 2.7.4.1.7.2 1 .2h-1zM134.9 79c0-.1 0-.1 0 0 .3-1.3 1-2.5 1.9-3.4 1.8-1.8 4.4-2.6 6.9-2.4.5 0 1.2.1 1.6.5.1.1.2.2.2.3-1-.9-4.6-.5-6.8.6-1.8.8-3.2 2.8-3.8 4.4zm9.9 10.9c-.1.3-.1.5-.3.8-.4.6-1.2.5-1.8.4-1.2-.4-2.2-1.1-3.2-2-1.1-1.1-1.2-1.8-1.2-1.8 2.4 3.3 5.6 4.1 6.5 2.8v-.2zm13.5-3.5c-.2-1.3-.8-2.6-1.5-3.6-1.5-2.1-3.8-3.5-6.2-4.4-.6-.2-1.2-.4-1.8-.5-1.7-.7-3.5-1.1-4.9-1.1.1-.1.2-.1.4-.2.6-.4 1.1-.9 1.4-1.6.2-.5.2-1.2-.2-1.6-.5-.4-1.2-.4-1.7-.5-1.4-.1-2.8.2-4.1.7-2.2.9-4.1 2.7-4.9 5-.3-1.2-.7-2-.9-1.9-.2.1-.2 1-.1 2.3-1-1.2-2-2-2.3-1.7-.3.2.1 1.1.8 2.2 0 0 0 .1.1.1-3.4 1.4-5.5 4.6-5.5 12.4 0 6.5 4.3 10.2 10.6 10.6-1.1-.8-2.1-1.9-2.9-3.1l-.2-.2c-1.7.5-3.5 0-4.8-1.4-.8-.9-1.2-2.1-1.1-3.2.1-2 1.7-3.8 3.8-3.3 1 .3 2.4 1.2 3 2 .2.3 2.6-5.9 2.6-5.9s1 1.6 2.1 2.4c.5.4 1.1.8 1.7 1.1.6.3 1.3.5 1.9.5.6-.1 1.1-.5 1.4-1.2.2-.7.2-1.5 0-2.3-.2-.8-.6-1.6-1-2.3-.2-.3-.4-.7-.5-1 .5.2.9.4 1.4.6 1.3.8 2.7 1.5 4.1 2.1 1.2.5 2.5 1 3.8 1.3.9.2 1.8.4 2.8.4.5 0 .9 0 1.3-.1.5-.1 1.3-.1 1.5-.7.1-.3.1-.5.1-.8-.1-.5-.2-.8-.2-1.1z" fill="#571E3E"/>
        <path fill-rule="evenodd" clip-rule="evenodd" d="M146.8 88.8c-.1.1-.1.1-.2 0l-.1-.1h-.4c-.1.2-.2.4 0 .6v.2h-.2c-.2-.3-.2-.7.1-1 .3-.2.7-.3.9-.1 0 .3 0 .4-.1.4zM149.9 94.1c-.2 0-.3-.2-.4-.4 0-.1-.1-.3-.1-.4-.1-.2-.1-.2-.3-.3-.1-.1-.2-.2-.4-.2H148.4c-.6 0-1.1.4-1.3 1-.1.2-.3.3-.4.3-.2-.1-.3-.2-.2-.5.2-.9 1.1-1.6 2-1.5.9.1 1.7.8 1.8 1.7 0 .1-.3.3-.4.3zM154.6 98.7c-.1.4-.3.7-.5 1-.1.2-.2.3-.3.5-.1.2-.2.3-.3.5-.1.1-.1.2-.2.4-.1.1-.1.2-.2.2-.2.2-.4.5-.6.7-.1.2-.2.3-.4.4-.3.1-.6.2-.9.2-2.2.2-4.1-1.8-4.2-2.7v-.2c.2-.7 1.9-.7 3.8-.8 1.9-.1 3.3-.5 3.8-.2z" fill="#571E3E"/>
        <path d="M184.2 160.001v-33.9l-96-13.8 7.1 47.6h88.9v.1z" fill="#F599A1"/>
        <path d="m85.9 112.101-.4.1c.1.3.2.7.3.9.1.2.1.3.1.4v.2l-2 .3 2-.3c.2 1.2-.6 2.2-1.6 2.5l6.5 43.8H93l-7.1-47.9zM88.1 111.801l-2.1.3 2.1.3v-.6z" fill="#F37988"/>
        <path d="m95.3 160.001-7.1-47.6-2.1-.3h-.2l7.1 47.9h2.3zM83.6 114.001h.3l-.2-1.6 1.8-.3c-.1-.2-.1-.3-.2-.5-.4-1.1-1.1-2.6-2.3-4.1-2.5-3.1-6.9-5.9-14.3-5.9-1.2 0-2.3 1-2.3 2.3 0 1.2 1 2.3 2.3 2.3 6.1 0 9.2 2.3 10.8 4.2.8 1 1.4 2.1 1.6 2.9.1.4.2.7.3.9 0 .1 0 .2.1.2.2 1.2 1.3 2.1 2.6 1.9.1 0 .2 0 .3-.1l-.3-2.2h-.5z" fill="#F37988"/>
        <path d="m83.9 114 2-.3v-.2c0-.1-.1-.3-.1-.4-.1-.3-.1-.5-.3-.9l-1.8.3.2 1.5zM85.9 113.7l-2 .3.3 2.2c1.1-.3 1.8-1.4 1.7-2.5z" fill="#F37988"/>
        <path d="M38.4 131.7c.3-1.4.5-2.9.8-4.3.1-.6.3-1.2.4-1.8.1-.3.1-.6.2-.8h-.1c0-.1 0-.1.1-.2h.1v-.1h.4v.4h-.1c0 .3 0 .6.1 1 .1 1.2.8 16.8 1.7 34.3h14.4l.7-10.6.1-24V119c.2-6.5.3-12.5.4-16.5v-5.1h-27c-3.8 3.1-4.7 6.4-6.2 9.5-1.5 3.2-3.8 19.7-4 21-.8 7.3-1.9 19.9-3.1 32.2h14.9c3-13.3 5.6-24.9 6.2-28.4zm18.8-14.8v.9-.9z" fill="#2B4D53"/>
        <path d="M245.3 33.5c1.2 0 2.2-1 2.2-2.2v-7.6c0-3.4-2.4-6.2-5.6-6.8v-1h.7v-2.7h-6.3v2.7h.7v1c-3.2.7-5.6 3.5-5.6 6.8v7.6c0 1.2 1 2.2 2.2 2.2h-6.9c1.2 0 2.2-1 2.2-2.2v-7.6c0-3.4-2.4-6.2-5.6-6.8v-1h.7v-2.7h-6.3v2.7h.7v1c-3.2.7-5.6 3.5-5.6 6.8v7.6c0 1.2 1 2.2 2.2 2.2h-7.9c1.2 0 2.2-1 2.2-2.2v-7.6c0-3.4-2.4-6.2-5.6-6.8v-1h.7v-2.7h-6.3v2.7h.7v1c-3.2.7-5.6 3.5-5.6 6.8v7.6c0 1.2 1 2.2 2.2 2.2h-6.9c1.2 0 2.2-1 2.2-2.2v-7.6c0-3.4-2.4-6.2-5.6-6.8v-1h.7v-2.7h-6.3v2.7h.7v1c-3.2.7-5.6 3.5-5.6 6.8v7.6c0 1.2 1 2.2 2.2 2.2h-53.4l1.9-10.5h1.5v-3.4h-18.3V23h1.5l1.9 10.5h-7.8L106 23h1.5v-3.4H89.7V23h1.5l1.9 10.5H76v2.4h177.5v-2.4h-8.2zM193.9 59.7v-9.5c0-1-.5-1.9-1.3-2.4l-1.2-.7v-2.7h-3.1v2.7l-1.2.7c-.8.5-1.3 1.4-1.3 2.4v18.2h-4.2V50.2c0-1-.5-1.9-1.3-2.4l-1.2-.7v-2.7H176v2.7l-1.2.7c-.8.5-1.3 1.4-1.3 2.4v18.2H169V50.2c0-1-.5-1.9-1.3-2.4l-1.2-.7v-2.7h-3.1v2.7l-1.2.7c-.8.5-1.3 1.4-1.3 2.4v18.2h-4.2V50.2c0-1-.5-1.9-1.3-2.4l-1.2-.7v-2.7h-3.1v2.7l-1.2.7c-.8.5-1.3 1.4-1.3 2.4v18.2h-19.1V49.8c0-1-.5-1.9-1.3-2.4l-1.2-.7V44h-3.1v2.7l-1.2.7c-.8.5-1.3 1.4-1.3 2.4v18.6h-4.2V49.8c0-1-.5-1.9-1.3-2.4l-1.2-.7V44H111v2.7l-1.2.7c-.8.5-1.3 1.4-1.3 2.4v18.6h-4.2V49.8c0-1-.5-1.9-1.3-2.4l-1.2-.7V44h-3.1v2.7l-1.2.7c-1 .6-1.5 1.5-1.5 2.4v18.6h-4.2V49.8c0-1-.5-1.9-1.3-2.4l-1.2-.7V44h-3.1v2.7l-1.2.7c-.8.5-1.3 1.4-1.3 2.4v18.6h-4.2V49.8c0-1-.5-1.9-1.3-2.4l-1.2-.7V44h-3.1v2.7l-1.2.7c-.8.5-1.3 1.4-1.3 2.4v18.6h-12v2.4h194.1v-2.4h-59.6v-8.7zM239.2 97.4h1.5V94h-18.3v3.4h1.5l1.8 10.101H218l1.9-10.5h1.5v-3.4h-3.7l1.9-10.5h1.5v-3.5h-18.3v3.5h1.5l1.9 10.5h-3.1V97h1.5l1.9 10.5h-7.8l1.9-10.5h1.5v-3.4h-18.3V97h1.5l1.9 10.5h-12.9v2.4h73.2v-2.4h-10.2l1.9-10.1z" fill="#F4D7D6"/>
    </g>
    <defs>
        <clipPath id="6ze01xi44a">
            <path fill="#fff" d="M0 0h255.8v160H0z"/>
        </clipPath>
    </defs>
</svg>