<svg width="294" height="268" viewBox="0 0 294 268" fill="none" xmlns="http://www.w3.org/2000/svg">
    <g clip-path="url(#c1b5wmhhga)">
        <path d="M286.338 42.634a59.961 59.961 0 0 0-1.917-6.1c-.21-.51-.36-.991-.599-1.502l-.63-1.472-.659-1.442c-.209-.48-.479-.962-.719-1.442a61.437 61.437 0 0 0-6.92-10.756c-.329-.42-.659-.842-1.018-1.232l-1.049-1.202-1.079-1.172c-.359-.39-.748-.78-1.108-1.141a80.562 80.562 0 0 0-4.703-4.327 58.4 58.4 0 0 0-5.153-3.785 63.257 63.257 0 0 0-5.512-3.245 64.099 64.099 0 0 0-5.842-2.614 59.617 59.617 0 0 0-6.082-1.923 57.91 57.91 0 0 0-12.642-1.683c-8.538-.18-17.016 1.503-24.895 4.868a56.192 56.192 0 0 0-11.084 6.31 55.695 55.695 0 0 0-9.377 8.652c-2.816 3.215-5.423 6.61-8.029 9.975-2.606 3.365-5.302 6.73-8.238 9.824a53.868 53.868 0 0 1-4.704 4.357c-1.647 1.352-3.445 2.554-5.302 3.605l-1.408.782-.719.36-.719.33c-.959.481-1.978.812-2.966 1.202l-.39.15-.389.12-.779.241-.779.24-.389.12c-.12.03-.27.06-.39.09-1.048.241-2.067.542-3.115.722-.54.09-1.049.21-1.588.3l-1.588.21c-.27.03-.539.09-.779.09l-.779.06-1.588.151c-2.127.12-4.284.18-6.411.09a91.1 91.1 0 0 1-6.381-.48l-1.587-.21-.779-.09-.779-.121-1.588-.24-1.588-.27c-8.418-1.533-16.626-3.877-24.955-5.62-4.164-.9-8.358-1.592-12.582-2.012-4.224-.39-8.508-.42-12.702.15A39.207 39.207 0 0 0 48.89 52.428c-3.025 2.975-5.752 6.25-8.058 9.825a106.654 106.654 0 0 0-6.321 11.086c-3.805 7.632-6.95 15.594-10.306 23.435-.839 1.953-1.678 3.936-2.576 5.889l-2.667 5.829c-1.767 3.876-3.475 7.812-5.033 11.777a160.815 160.815 0 0 0-2.216 5.979 110.547 110.547 0 0 0-1.918 6.099 80.34 80.34 0 0 0-2.516 12.499 54.641 54.641 0 0 0-.03 12.709 45.612 45.612 0 0 0 3.175 12.258 50.014 50.014 0 0 0 6.351 10.967 56.198 56.198 0 0 0 8.778 9.133 63.185 63.185 0 0 0 22.259 11.928 76.374 76.374 0 0 0 12.432 2.674c4.224.541 8.449.781 12.703.721 4.254-.06 8.478-.33 12.702-.871a126.183 126.183 0 0 0 12.552-2.193c8.299-1.833 16.477-4.327 24.506-7.091 8.058-2.764 16.027-5.829 24.026-8.773a642.903 642.903 0 0 1 12.043-4.296c4.044-1.382 8.119-2.644 12.253-3.726a105.54 105.54 0 0 1 12.552-2.554 72.875 72.875 0 0 1 12.792-.601c.27 0 .54 0 .779.03l.779.06 1.588.121c.539.06 1.048.12 1.588.18.539.06 1.048.15 1.587.21 2.127.331 4.225.751 6.292 1.202 4.164.931 8.298 2.013 12.462 2.944 4.164.932 8.358 1.653 12.612 1.803 2.127.09 4.254 0 6.351-.27 1.049-.12 2.098-.331 3.146-.541 1.049-.21 2.067-.511 3.056-.841a32.029 32.029 0 0 0 2.966-1.142c.479-.21.958-.421 1.438-.661l.719-.361.719-.36c1.887-.992 3.714-2.163 5.452-3.425a62.543 62.543 0 0 0 9.377-8.653 94.912 94.912 0 0 0 7.819-10.125 83.212 83.212 0 0 0 6.441-11.057 53.48 53.48 0 0 0 2.426-5.919l.27-.751.12-.39.12-.391.449-1.532c.27-1.052.539-2.073.689-3.125l.15-.781c.03-.27.06-.541.12-.781l.119-.781c.03-.271.09-.541.09-.782l.15-1.592.09-1.592.449-6.4c.6-8.533 1.109-17.065 1.468-25.598.36-8.533.57-17.096.48-25.628-.06-4.267-.21-8.533-.54-12.8a113.435 113.435 0 0 0-.629-6.369c-.359-2.223-.749-4.326-1.228-6.4zm0 0a73.062 73.062 0 0 1 1.168 6.309c.27 2.133.48 4.236.659 6.37.33 4.266.48 8.532.54 12.799.12 8.562-.09 17.095-.45 25.628-.359 8.533-.868 17.065-1.438 25.598l-.449 6.4-.09 1.592-.15 1.592c-.03.271-.06.541-.09.782l-.119.781c-.03.27-.06.54-.12.781l-.15.781c-.18 1.052-.449 2.103-.689 3.125l-.449 1.532-.12.391-.12.39-.27.751a56.442 56.442 0 0 1-2.426 5.949 86.774 86.774 0 0 1-6.411 11.087 98.468 98.468 0 0 1-7.789 10.185 62.94 62.94 0 0 1-9.377 8.713c-1.708 1.292-3.535 2.434-5.393 3.455l-.719.391-.719.36c-.479.241-.958.451-1.468.661a36.15 36.15 0 0 1-6.081 2.013 36.603 36.603 0 0 1-3.176.571c-2.127.27-4.254.361-6.411.3-2.127-.09-4.254-.27-6.381-.6a106.683 106.683 0 0 1-6.291-1.172c-4.164-.902-8.298-1.983-12.462-2.884-4.164-.902-8.359-1.623-12.613-1.773-4.254-.15-8.508.06-12.702.661a103.473 103.473 0 0 0-12.492 2.584c-4.104 1.081-8.179 2.373-12.193 3.755-4.044 1.382-8.029 2.855-12.013 4.327-7.999 2.974-15.938 6.039-23.996 8.863-8.059 2.824-16.238 5.348-24.596 7.181a128.894 128.894 0 0 1-12.612 2.193c-4.254.541-8.508.841-12.792.871-4.284.06-8.538-.18-12.792-.721a77.783 77.783 0 0 1-12.553-2.674 64.364 64.364 0 0 1-22.558-12.078 56.624 56.624 0 0 1-8.927-9.254c-2.637-3.425-4.794-7.18-6.471-11.146a46.226 46.226 0 0 1-3.206-12.499c-.48-4.296-.45-8.623.06-12.889a79.198 79.198 0 0 1 2.576-12.619c.57-2.073 1.229-4.116 1.918-6.129.719-2.013 1.438-4.026 2.246-6.039 1.588-3.966 3.296-7.902 5.063-11.808l2.667-5.828a499.666 499.666 0 0 0 2.576-5.86c3.355-7.84 6.53-15.803 10.366-23.464a100.018 100.018 0 0 1 6.38-11.147 59.11 59.11 0 0 1 8.209-9.915A40.031 40.031 0 0 1 71.3 40.891c4.254-.57 8.568-.54 12.822-.12 4.254.45 8.478 1.111 12.642 2.043 8.358 1.773 16.537 4.176 24.925 5.708l1.558.27 1.588.241.779.12.779.09 1.587.21c2.127.241 4.224.421 6.351.481s4.254.03 6.381-.06l1.588-.12.779-.06c.27-.03.539-.06.779-.09l1.588-.21c.539-.09 1.048-.18 1.558-.27 1.048-.181 2.067-.451 3.115-.692.12-.03.27-.06.39-.09l.389-.12.749-.24.749-.24.39-.121.359-.15c.989-.39 2.007-.721 2.966-1.202l.719-.33c.24-.12.479-.21.719-.331l1.408-.751a34.63 34.63 0 0 0 5.272-3.575c1.648-1.352 3.236-2.765 4.704-4.297 2.966-3.064 5.632-6.4 8.268-9.764 2.637-3.365 5.243-6.76 8.059-9.945a58.452 58.452 0 0 1 9.407-8.653c3.475-2.494 7.19-4.627 11.114-6.31a60.082 60.082 0 0 1 24.925-4.837c4.254.09 8.508.661 12.642 1.713 2.067.51 4.105 1.172 6.112 1.923a67.998 67.998 0 0 1 5.842 2.614 51.029 51.029 0 0 1 5.512 3.244 63.57 63.57 0 0 1 5.153 3.816 58.322 58.322 0 0 1 4.703 4.327c.36.39.749.75 1.108 1.141l1.079 1.172 1.048 1.202c.36.39.66.841 1.019 1.232 1.318 1.682 2.576 3.395 3.745 5.197a60.188 60.188 0 0 1 3.175 5.559c.24.48.48.961.689 1.442l.659 1.472.63 1.472c.209.48.389.992.569 1.502.779 2.013 1.408 4.056 1.947 6.13z" fill="#FEE"/>
        <path d="M84.062 218.036c-14.77 1.802-28.1.781-39.814-3.065a63.54 63.54 0 0 1-24.536-14.722c-7.22-7-12.162-15.383-14.29-24.276-2.156-9.074-1.707-18.989 1.409-30.285 2.756-9.975 7.25-19.83 11.623-29.084 2.037-4.296 3.955-8.803 5.872-13.19C35.38 77.756 46.794 51.196 80.407 53.42c8.748.57 17.376 2.764 25.704 4.867 4.404 1.112 8.957 2.254 13.481 3.155 16.267 3.245 28.91 2.073 38.676-3.545 7.609-4.387 13.211-11.508 18.664-18.388 3.415-4.326 6.92-8.773 10.934-12.589 7.31-6.97 16.657-11.867 26.962-14.241 10.306-2.344 20.821-1.983 30.498 1.052 19.562 6.129 35.41 23.134 40.353 43.324 4.374 17.847.929 62.824-.39 79.769-.149 2.103-.299 3.756-.359 4.928-.629 9.374-4.703 18.958-12.732 30.165-10.096 14.031-20.521 21.842-31.845 23.915-9.168 1.683-18.395-.631-27.322-2.854-5.063-1.262-10.276-2.554-15.458-3.155-14.62-1.622-29.209 2.434-42.84 7.061-5.572 1.893-11.204 3.966-16.657 5.949-12.103 4.416-24.655 9.013-37.387 12.108a136.103 136.103 0 0 1-16.627 3.095zM70.522 54.501c-3.836.451-7.61 1.443-11.145 2.975-5.513 2.373-10.366 5.979-14.83 11.056-8.328 9.434-13.96 22.534-19.412 35.243-1.888 4.387-3.835 8.923-5.872 13.22-4.344 9.193-8.808 19.018-11.564 28.933-3.085 11.147-3.535 20.911-1.408 29.864 2.097 8.713 6.95 16.976 14.02 23.856a63.01 63.01 0 0 0 24.207 14.512c15.817 5.167 34.66 5.167 55.991-.03 12.702-3.095 25.195-7.662 37.298-12.078 5.452-1.983 11.114-4.056 16.686-5.949 13.691-4.657 28.43-8.743 43.199-7.091 5.243.571 10.486 1.893 15.579 3.155 8.837 2.193 17.974 4.477 26.962 2.854 11.114-2.013 21.33-9.734 31.306-23.585 7.969-11.057 11.953-20.491 12.582-29.714.09-1.172.21-2.825.36-4.928 1.288-16.885 4.733-61.802.389-79.498-4.883-19.89-20.491-36.655-39.784-42.694-9.527-2.975-19.922-3.335-30.048-1.022-10.126 2.314-19.353 7.151-26.573 14.001-3.954 3.756-7.459 8.202-10.844 12.499-5.483 6.94-11.145 14.121-18.904 18.598-9.946 5.708-22.768 6.91-39.245 3.635-4.553-.901-9.107-2.043-13.541-3.185-8.298-2.103-16.896-4.266-25.554-4.837-3.295-.24-6.59-.15-9.856.21z" fill="#D8F3FF"/>
        <path d="M21.06 191.175c6.651 4.988 14.17 8.653 22.2 10.756a79.305 79.305 0 0 0 12.192 2.284c4.104.451 8.239.631 12.373.541 4.134-.091 8.268-.391 12.372-.902a135.33 135.33 0 0 0 12.223-2.103c7.16-1.532 14.77-3.665 23.877-6.7 2.696-.901 5.392-1.833 8.088-2.764-2.696.931-5.392 1.863-8.088 2.764-9.018 2.975-16.597 5.078-23.877 6.64-4.404.931-8.388 1.622-12.223 2.073-4.104.511-8.208.811-12.342.902a94.639 94.639 0 0 1-12.373-.541 83.424 83.424 0 0 1-12.163-2.284 63.762 63.762 0 0 1-22.139-10.756 53.416 53.416 0 0 1-8.927-8.533 46.805 46.805 0 0 1-5.063-7.481c.27.661.57 1.322.869 1.953a44.048 44.048 0 0 0 4.044 5.649c2.636 3.124 5.632 6.009 8.958 8.502zM31.036 79.078c1.978-3.635 4.194-7.15 6.681-10.455 2.457-3.335 5.333-6.34 8.508-8.984 1.768-1.472 3.685-2.764 5.662-3.906a40.688 40.688 0 0 0-5.692 3.906 52.674 52.674 0 0 0-8.538 8.984 82.664 82.664 0 0 0-6.71 10.455c-.6 1.112-1.199 2.224-1.798 3.365-.33.691-.659 1.412-.959 2.133.9-1.892 1.858-3.695 2.846-5.498z" fill="#FEE"/>
        <path d="M283.492 47.5c-5.033-19.859-20.851-36.714-40.413-42.693-19.563-5.979-42.211-.69-56.95 13.52-10.336 9.975-17.046 23.976-29.449 31.217-11.504 6.76-25.824 6.4-38.945 3.906-13.092-2.494-25.884-6.94-39.215-7.722C55.96 44.436 43.619 56.004 34.63 71.627a64.858 64.858 0 0 1 2.487-3.485 52.587 52.587 0 0 1 8.628-9.074 41.455 41.455 0 0 1 10.815-6.4 43.948 43.948 0 0 1 12.193-2.854c2.067-.21 4.164-.27 6.26-.24.99.03 2.068.06 3.116.15l.54.03c.33.03.659.03.988.06l1.558.15c4.524.451 8.957 1.262 12.313 1.953 3.025.601 6.051 1.292 8.987 1.953 4.973 1.112 10.126 2.284 15.249 3.095a88.037 88.037 0 0 0 12.252 1.142c.54.03 1.049.03 1.528 0h1.558l1.738-.09c.419-.03.868-.03 1.318-.09l1.558-.15c.269-.03.509-.06.749-.09l1.617-.211c.24-.03.45-.06.659-.09l1.528-.27.27-.06.449-.091 2.247-.54 2.217-.662c.15-.06.3-.09.449-.15l.27-.09 1.438-.541c.3-.12.599-.24.899-.39l.509-.21c.719-.301 1.408-.662 2.127-.992l.659-.33.33-.181.958-.601.48-.3c.269-.18.569-.331.838-.511l1.468-1.022c.33-.24.689-.48 1.019-.75l.539-.422c.629-.48 1.258-.991 1.828-1.532l1.168-1.021 1.108-1.052c1.498-1.442 2.936-3.004 4.224-4.477.24-.27.48-.54.719-.84.42-.512.869-.992 1.289-1.503l1.977-2.374 1.078-1.291c2.247-2.705 4.584-5.529 7.04-8.143l1.618-1.682 1.708-1.623c.239-.24.509-.45.749-.69.149-.12.269-.241.419-.361a60.393 60.393 0 0 1 4.943-3.816 58.638 58.638 0 0 1 10.995-5.889 63.763 63.763 0 0 1 24.326-4.717c2.157.03 4.224.15 6.231.36 2.067.241 4.104.572 6.141 1.022 2.037.451 4.045.992 6.022 1.683a56.666 56.666 0 0 1 5.782 2.313 59.303 59.303 0 0 1 15.428 10.456c1.528 1.412 2.966 2.944 4.314 4.507.12.15.24.27.359.42.21.27.45.511.659.781l.959 1.202.929 1.262c.21.27.389.54.599.811l.3.451a53.75 53.75 0 0 1 7.849 16.915v.03c.509 2.013.868 4.086 1.138 6.13.03.33.09.66.12 1.021.09.691.179 1.382.239 2.103l.15 1.532.12 1.563c.27 3.755.389 7.811.419 12.438.03 7.331-.179 15.233-.689 24.877-.389 7.241-.898 14.903-1.707 24.817l-.33 4.657c-.03.331-.06.661-.09 1.022-.03.18-.03.36-.059.541a39.308 39.308 0 0 1-1.199 6.159 45.984 45.984 0 0 1-2.127 5.889 56.798 56.798 0 0 1-2.816 5.558c-.899 1.622-1.947 3.305-3.295 5.318-1.169 1.713-2.367 3.425-3.655 5.047-1.348 1.773-2.756 3.456-3.925 4.838-1.318 1.472-2.756 3.064-4.314 4.536-1.587 1.593-3.355 3.035-4.673 4.117a50.859 50.859 0 0 1-5.153 3.575 44.205 44.205 0 0 1-5.572 2.854l-2.187.841c-.18.061-.329.121-.509.151l-.27.09-1.498.45c-.179.061-.359.091-.539.151l-.21.06-.779.18c-3.744.871-7.819 1.112-12.462.751-4.194-.33-8.388-1.142-12.283-1.983-1.138-.24-2.307-.511-3.445-.751-2.846-.631-5.752-1.262-8.658-1.773a90.568 90.568 0 0 0-6.111-.871c-.42-.06-.869-.09-1.288-.09l-1.768-.12c-.329-.03-.659-.03-.988-.03h-1.109c-.329 0-.659-.03-.989-.03-4.104.03-8.208.36-12.252 1.021a108.953 108.953 0 0 0-12.043 2.644c-7.999 2.194-15.878 4.988-23.517 7.722-1.798.631-3.595 1.292-5.393 1.953-5.872 2.133-11.953 4.326-17.975 6.339-9.137 3.065-16.776 5.198-23.966 6.73-4.434.932-8.448 1.623-12.283 2.103l-.27.03c-4.163.511-8.238.782-12.162.872-4.164.09-8.329-.09-12.463-.541a84.268 84.268 0 0 1-12.282-2.284 64.629 64.629 0 0 1-22.439-10.876 53.92 53.92 0 0 1-9.077-8.653 8.21 8.21 0 0 1-.48-.601c7.4 11.508 19.533 20.13 32.685 24.337 18.094 5.768 37.807 4.176 56.23-.481 18.425-4.657 35.95-12.198 53.895-18.478 13.84-4.837 28.4-8.923 42.96-7.421 14.379 1.503 28.49 8.383 42.69 5.679 13.241-2.524 23.577-12.98 31.396-24.006 6.351-8.953 11.773-19.078 12.432-30.015.659-11.026 5.153-64.776.12-84.666z" fill="#D8F3FF"/>
        <path d="M139.454 186.187c7.669-2.704 15.578-5.498 23.637-7.661 4.014-1.082 8.059-1.983 12.163-2.614a78.243 78.243 0 0 1 12.432-.991c.33 0 .69 0 1.019.03l.539.03.54.03c.329 0 .659.03 1.018.03l1.798.12c.419.03.868.06 1.318.12a78.77 78.77 0 0 1 6.171.902c2.906.54 5.842 1.201 8.688 1.832 1.138.271 2.307.511 3.445.751 3.865.842 7.999 1.653 12.163 2.013 4.524.391 8.508.151 12.193-.691l.749-.18.239-.06c.18-.03.33-.06.48-.12l1.498-.451.269-.09c.15-.06.3-.09.45-.15l2.157-.781a40.586 40.586 0 0 0 5.452-2.764 48.97 48.97 0 0 0 5.063-3.486c1.408-1.141 3.056-2.493 4.613-4.056 1.528-1.442 2.966-3.004 4.284-4.476 1.199-1.382 2.577-3.005 3.925-4.778a78.533 78.533 0 0 0 3.625-5.017c1.318-1.953 2.366-3.635 3.265-5.228a62.822 62.822 0 0 0 2.786-5.498 49.665 49.665 0 0 0 2.127-5.799 37.85 37.85 0 0 0 1.199-6.039c.03-.18.03-.36.06-.541l.089-.991.12-1.562.24-3.095c.779-9.915 1.348-17.546 1.737-24.787.54-9.614.749-17.516.719-24.817-.03-4.597-.149-8.653-.389-12.409l-.12-1.562-.15-1.532c-.06-.691-.149-1.412-.209-2.073-.03-.33-.09-.661-.12-.992a59.896 59.896 0 0 0-1.109-6.069 52.555 52.555 0 0 0-4.523-11.477 58.781 58.781 0 0 0-3.236-5.258c-.12-.15-.209-.3-.329-.45-.18-.27-.39-.541-.569-.782l-.929-1.231-.959-1.202c-.21-.27-.419-.511-.629-.751-.12-.15-.24-.27-.359-.421a60.327 60.327 0 0 0-4.284-4.447 54.249 54.249 0 0 0-4.734-3.965c-3.295-2.464-6.83-4.597-10.545-6.31a55.368 55.368 0 0 0-5.722-2.283 57.769 57.769 0 0 0-5.932-1.653 69.288 69.288 0 0 0-6.081-.991 57.405 57.405 0 0 0-6.141-.33 62.702 62.702 0 0 0-24.027 4.686 55.683 55.683 0 0 0-10.785 5.769 58.698 58.698 0 0 0-4.853 3.786l-.389.36c-.24.21-.509.42-.719.661l-1.678 1.622-1.618 1.653c-2.456 2.584-4.763 5.408-6.98 8.112l-1.048 1.292-1.977 2.373c-.42.511-.869 1.022-1.289 1.533l-.719.841a85.298 85.298 0 0 1-4.284 4.567l-1.108 1.081-1.168 1.052c-.6.57-1.259 1.082-1.888 1.592-.18.15-.359.27-.539.421-.33.27-.689.54-1.049.781l-1.497 1.052c-.3.18-.6.36-.869.54l-.48.271-.988.6-.36.181-.629.33c-.689.361-1.408.752-2.187 1.052l-.539.24c-.3.12-.629.271-.929.391l-1.468.541-.269.09c-.15.06-.33.12-.48.18l-2.246.661-2.277.541c-.18.03-.33.06-.509.09l-.27.06-1.528.3c-.24.06-.479.091-.689.121l-1.618.24c-.239.03-.509.06-.779.09l-1.527.15c-.45.06-.899.06-1.349.09l-1.767.091-1.558.03c-.509 0-1.048.03-1.558 0a90.15 90.15 0 0 1-12.402-1.112c-5.153-.78-10.336-1.953-15.339-3.064a394.761 394.761 0 0 0-8.987-1.923c-3.325-.661-7.73-1.472-12.193-1.893l-1.528-.15c-.33-.03-.659-.03-.989-.06l-.539-.03c-1.048-.09-2.097-.09-3.055-.12-2.038-.03-4.075.06-6.112.24-.39.03-.749.09-1.138.12A41.989 41.989 0 0 0 57.19 53.93c-3.775 1.532-7.31 3.605-10.456 6.22a51.202 51.202 0 0 0-8.388 8.893 89.255 89.255 0 0 0-6.62 10.365c-3.296 5.949-6.112 12.288-8.868 18.418l-1.797 3.966a467.824 467.824 0 0 1-2.427 5.257c-.33.721-.66 1.443-.989 2.134C9.017 127.81.18 148.301 5.063 168.281c.39 1.171.839 2.343 1.348 3.485a44.881 44.881 0 0 0 6.441 10.335 52.329 52.329 0 0 0 8.838 8.443 63.257 63.257 0 0 0 21.899 10.666 82.161 82.161 0 0 0 12.073 2.253 93.1 93.1 0 0 0 12.283.541c4.074-.09 8.148-.36 12.193-.871h.09c3.804-.451 7.788-1.142 12.162-2.073 7.25-1.563 14.8-3.666 23.787-6.64 6.021-1.983 12.103-4.146 17.975-6.25 1.707-.691 3.505-1.322 5.302-1.983z" fill="#D8F3FF"/>
        <path fill-rule="evenodd" clip-rule="evenodd" d="M134.781 218.006c2.486 11.807 4.943 34.461 4.943 34.581.03 1.022.21 3.906.21 4.657V258.176c.06.27.149.57.299.811.12.21.24.42.33.571l.03.06c0 .03.03.03.03.06l.12.18c.089.03.179.03.269.06a7.92 7.92 0 0 0 3.116-.42c.09-.421.18-.842.239-1.262.03-.241 0-.481-.03-.721l-.029-.061c-.03-.03-.03-.09-.06-.12-.06-.18-.15-.36-.24-.571-.539-1.322-1.588-5.137-1.588-5.137.539-7.572 1.618-40.2.929-56.394-.03-1.022-.539-29.234-1.258-35.423-.929-8.052-5.632-16.134-12.583-14.872-5.782 1.051-6.8 5.888-6.71 11.807.06 1.562 9.047 47.441 11.983 61.262z" fill="#F5A37B"/>
        <path fill-rule="evenodd" clip-rule="evenodd" d="M139.934 258.205c.06.301.15.571.299.812.12.21.24.42.33.57l.03.06c.03.031.03.061.03.061l.12.18c.958 1.502 1.977 1.833 2.157 1.802.179-.03.898-.6 1.258-2.313.06-.24.12-.541.18-.841.03-.09.03-.18.03-.271.03-.24 0-.48-.03-.721-.03-.24-.12-.48-.24-.691l-.03-.03h-.06l-4.104.421c-.03.3-.03.631.03.961z" fill="#910C22"/>
        <path fill-rule="evenodd" clip-rule="evenodd" d="M94.757 221.491c.66-10.066.81-20.1 1.259-30.135 0-.181.03-.361.03-.541.18-3.876.42-7.752.749-11.658.27-3.004.479-6.94.838-11.236a9.059 9.059 0 0 1 1.169-3.696 8.888 8.888 0 0 1 2.636-2.854 8.733 8.733 0 0 1 3.595-1.442 8.827 8.827 0 0 1 3.865.21l.179.06c2.217.631 4.135 2.103 5.273 4.146a8.93 8.93 0 0 1 .869 6.67c-1.828 6.88-3.445 13.731-3.955 17.907-1.557 12.859-8.777 43.775-14.919 58.227l-1.797 7.481.42 2.163-.21.09a223.45 223.45 0 0 1-5.153 2.975 4.93 4.93 0 0 1-.69-.871l-.03-.031c-.03-.03-.03-.06-.06-.09l-.03-.03c.9-1.202 1.948-2.584 2.667-3.575.15-1.442 2.547-22.594 3.295-33.77z" fill="#F5A37B"/>
        <path fill-rule="evenodd" clip-rule="evenodd" d="m95.416 255.922-.599 4.957h-.869l.24-2.884s-1.468.991-3.086 2.103l-.569.391c-.21.12-.39.27-.599.39-3.385-.03-7.13-.12-6.171-.42.03 0 .06-.03.06-.03-.12-.061-.09-.091.15-.181.898-.3 2.905-1.171 4.913-2.103h.03c.03.06.06.12.09.15l.06.121.03.03c.209.3.449.601.718.841a218.832 218.832 0 0 0 5.063-3.125l.54-.24z" fill="#910C22"/>
        <path d="M154.793 227.26c.03.541-15.518 6.129-28.46 2.013 1.288.18-1.828-24.577-2.696-36.685-.839-11.387-.869-32.989-3.955-64.897-.779.601-.18 55.433-.988 68.292-.39 6.309-1.918 32.689-2.098 33.861-14.319.811-30.107-4.928-30.107-4.928s3.205-25.538 4.853-37.556c2.217-16.134 4.464-32.268 6.92-48.372 2.277-14.902 3.715-30.706 10.216-44.466.329-.661.899-1.202 1.228-1.863 5.423-4.537 17.496-1.322 20.132 0 .959.48 1.827.841 2.606 1.562 4.164 3.726 7.19 10.666 8.119 13.55 2.007 6.13 2.157 12.709 3.205 19.049 1.528 9.103 3.565 55.312 5.453 66.699 1.827 10.937 5.542 33.621 5.542 33.621s.03.06.03.12z" fill="#FFF5F5"/>
        <path d="M140.743 113.269c-9.796 0-12.313-14.272-12.313-14.422 0-.03 0-.09.03-.12s.06-.06.09-.06.09 0 .12.03.06.06.06.09c.03.15 2.696 15.353 13.211 14.121.03 0 .09 0 .12.03s.06.06.06.09 0 .091-.03.121-.06.06-.09.06c-.449.03-.869.06-1.258.06zM104.613 108.072c-.269 0-.509-.09-.719-.21-.03-.031-.06-.061-.06-.091s0-.09.03-.12.06-.06.09-.06h.12c.15.09.33.15.479.18.18 0 .36-.03.51-.09 2.307-.991 4.224-8.983 4.254-9.043 0-.03.03-.06.06-.09s.06-.03.12-.03c.029 0 .029 0 .059.03.03 0 .03.03.03.03 0 .03.03.03.03.06v.06c-.09.33-1.977 8.232-4.433 9.254-.21.06-.39.12-.57.12z" fill="#910F30"/>
        <path d="M118.005 101.462c-3.565 0-7.13-1.112-10.516-4.146 0 0-.03-.03-.03-.06v-.12c0-.03.03-.03.03-.06 0 0 .03-.03.06-.03h.12c.03 0 .03.03.06.03 8.448 7.631 18.304 2.854 26.213-.962l.03-.03c.03 0 .03-.03.06-.03h.06c.03 0 .03.03.06.03s.03.03.03.06v.12c0 .03-.03.03-.03.06 0 0-.03.03-.06.03l-.03.03c-4.883 2.344-10.485 5.078-16.057 5.078z" fill="#910F30"/>
        <path d="M108.478 97.886c-.03 0-.06 0-.06-.03-.03-.03-.06-.06-.06-.09v-.12l1.169-2.103c0-.03.03-.03.03-.03.03 0 .03-.03.06-.03h.06c.03 0 .03 0 .059.03l.03.03c0 .03.03.03.03.06v.06c0 .03 0 .03-.03.06l-1.168 2.073c0 .03-.03.06-.06.06 0 .03-.03.03-.06.03zM112.043 100.23h-.06c-.03 0-.06-.03-.09-.06s-.03-.09 0-.121l.809-2.493c0-.03.03-.03.03-.06s.03-.03.06-.03.03 0 .06-.03h.06c.03 0 .06.03.089.06.03.03.03.09 0 .12l-.808 2.494c0 .03-.03.06-.06.06-.03.06-.06.06-.09.06zM131.516 97.526c-.03 0-.06 0-.09-.03l-.06-.06-.689-1.532c-.03-.03-.03-.09 0-.12 0-.03.03-.06.09-.09h.119c.03 0 .03.03.06.03 0 0 .03.03.03.06l.689 1.502v.12c0 .03-.03.03-.03.06 0 0-.03.03-.059.03-.03.03-.03.03-.06.03zM125.464 99.869c-.03 0-.06 0-.09-.03s-.03-.06-.06-.09l-.419-1.503v-.06c0-.03 0-.03.03-.06 0-.03.03-.03.03-.06.03 0 .03-.03.06-.03h.06c.03 0 .03 0 .06.03.03 0 .03.03.06.03 0 .03.03.03.03.06l.419 1.503v.12c0 .03-.06.06-.09.06l-.09.03zM118.124 116.514a1.67 1.67 0 0 1-1.108-.45c-.3-.301-.45-.691-.45-1.112l-.269-13.61c0-.03.03-.091.03-.121 0 0 .03-.03.06-.03h1.498c.03 0 .09.03.09.03.029.03.029.061.059.091l.27 15.052v.06c0 .03-.03.03-.03.06 0 0-.03.03-.06.03h-.09zm-1.558-15.052.27 13.46c0 .3.12.631.33.841.209.241.479.391.809.421l-.27-14.722h-1.139z" fill="#910F30"/>
        <path d="M119.862 131.717c-.03 0-.06 0-.09-.03s-.06-.06-.06-.09l-1.737-19.86v-.06c0-.03.03-.03.03-.06s.03-.03.059-.03c.03 0 .03 0 .06-.03h.06c.03 0 .03.03.06.03s.03.03.03.06 0 .03.03.06l1.738 19.86c0 .03 0 .09-.03.12-.06.03-.09.03-.15.03zM116.926 226.208h-.03l-29.927-6.129c-.03 0-.03 0-.06-.03-.03 0-.03-.03-.03-.03 0-.03-.03-.03-.03-.06v-.061c0-.03 0-.03.03-.06 0-.03.03-.03.03-.03.03 0 .03-.03.06-.03h.06l29.927 6.129c.03 0 .03 0 .06.031.03 0 .03.03.03.03 0 .03.03.03.03.06v.06c0 .03-.03.06-.06.09-.03 0-.06.03-.09.03zM126.992 226.809c-.03 0-.09-.03-.12-.03-.03-.03-.03-.06-.03-.12 0-.061.03-.091.03-.121.03-.03.06-.03.12-.03l27.202-2.764c.03 0 .09 0 .12.03s.06.06.06.09 0 .09-.03.121c-.03.03-.06.06-.09.06l-27.202 2.764h-.06z" fill="#910F30"/>
        <path d="M132.444 94.22c-3.115 1.233-7.369 2.254-12.073 2.254-4.493 0-8.807-.841-11.893-1.953.629-1.322 2.157-2.734 2.996-3.906 5.991-1.502 15.967.42 16.926.902.959.48 3.265 1.983 4.044 2.704z" fill="#F5A37B"/>
        <path fill-rule="evenodd" clip-rule="evenodd" d="M133.822 31.337c-.24.541-.599.932-1.138 1.262-.09.06-.21.12-.3.18-.689.36-1.498.571-1.917.631-.12.42-.24.691-.42 1.112-.719 1.742-1.947 3.425-3.295 4.687 0 0-.09 5.168.06 6.79.21 2.133.899 3.185.929 3.335 0 0 1.707 2.974 5.033 3.936 0 0-5.213 2.373-9.857 2.283-4.254-.09-8.598-2.343-8.598-2.343.869-.3 1.528-.631 2.427-1.142.569-.33 1.738-1.532 1.738-1.532.03-.12 1.018-1.563 1.048-1.713.03-.06.45-.66.779-2.614.24-1.382.09-3.695.09-3.695-.27.03-.629.09-.899.09-2.576.09-4.224-1.232-5.332-3.275-.24-.45-.45-.931-.659-1.442-.6-1.562-.899-3.425-1.049-5.258-.12-1.682-.18-4.086-.03-6.069.06-.63.42-3.876.869-5.017.06-.15.329-.992.359-1.112.659-1.472.989-2.163 1.888-3.245.928-1.082 2.157-1.893 3.415-2.373 2.996-1.172 6.95.21 9.047 2.493.33.36.629.751.899 1.142a13.91 13.91 0 0 1 1.168 2.193c.12.3.24.571.33.872.27.87.479 1.742.599 2.643.06.391.449 2.825.12 3.035 0 0 .09-.06.12-.06.629-.33 1.348-.27 1.737-.09.39.18.689.51.869.871.18.36.33.781.33 1.262.089.6-.12 1.652-.36 2.163z" fill="#F5A37B"/>
        <path fill-rule="evenodd" clip-rule="evenodd" d="M126.782 39.209c-4.045 2.584-5.872 3.515-6.291 3.275 0 .12 0 .27.03.54 0 .572-.09 2.945-.09 2.945s2.756.901 6.291-3.906c0-1.021.06-2.824.06-2.854z" fill="#F28761"/>
        <path fill-rule="evenodd" clip-rule="evenodd" d="M130.886 31.818c.51-.24.899-.601 1.199-1.022.149-.21.269-.45.359-.72.03-.121.09-.241.12-.392.03-.12.03-.27.06-.39 0 .15 0 .27.03.42 0 .15-.03.271-.06.421-.06.27-.18.541-.36.781-.299.451-.809.812-1.348.902zM118.574 42.454c.389 0 .749.06 1.138 0 .39-.06.839-.09 1.228-.18.39-.09.749-.18 1.139-.331.359-.12.719-.3 1.018-.57-.119.15-.269.27-.449.39s-.359.21-.539.3c-.36.18-.749.27-1.139.36-.389.09-.779.15-1.198.15-.389.06-.809.06-1.198-.12z" fill="#3A1F28"/>
        <path fill-rule="evenodd" clip-rule="evenodd" d="M139.963 35.844c-.029 1.202-.239 2.764-1.108 3.425-.06.03-.12.06-.18.06a.271.271 0 0 1-.239-.12.324.324 0 0 1 .06-.42c.539-.391.838-1.443.868-2.945 0-.841-.12-2.043-.868-3.035-.42-.57-.899-1.021-1.408-1.532l-.719-.72-.09-.091c.179.42.359.841.599 1.262.12.24.269.45.419.66.09.151.18.271.3.421a5.634 5.634 0 0 1 1.048 3.666 5.384 5.384 0 0 1-1.348 3.335c-.809.931-1.887 1.532-3.115 1.652-.27.03-.51.03-.779 0-.33-.03-.629-.03-.959-.03.33-.33.539-.66.539-.901.03-.962-.779-1.863-.869-1.953.03.12.69 2.133-.659 2.854-.059.03-.089.06-.149.09-.629.06-1.259.18-1.858.361l-.958-1.502s.119.78.479 1.652c-.39.12-.779.27-1.138.45-.3.151-.749.241-1.109.271l.03-3.635c1.348-1.262 2.546-2.854 3.295-4.567.18-.39.33-.811.45-1.202a6.189 6.189 0 0 0 1.857-.6c.09-.06.18-.09.27-.15.479-.301.839-.722 1.108-1.233.33-.72.45-1.532.45-2.133 0-.48-.12-.841-.3-1.232-.18-.39-.449-.69-.809-.871-.599-.27-.988-.21-1.588 0-.09.03-.539.24-.629.3-.359.24-.599.391-.898.782-.12.15-.24.33-.33.51-.24.451-2.996-.78-3.325-.961-1.798-.871-3.326-2.133-4.674-3.605-.779-.842-1.528-1.743-2.157-2.704-.599-.932-.479-2.254-.479-3.305 0 .75-.39 1.502-.33 2.313.03.811.24 1.592.6 2.313.089.15.029.33-.12.391-.06.03-.09.03-.15.03-.12 0-.21-.06-.27-.15-.809-1.532-.868-3.576-.269-5.228-.629.751-1.079 1.622-1.139 2.764 0 .15-.15.27-.299.27h-.03c-.18 0-.3-.15-.27-.33.06-1.232.599-2.343 1.408-3.245-2.756 1.382-5.003 4.387-5.362 7.481-.45 3.696-.809 11.628 2.187 15.503-.21.03-.39.03-.6.03-.689 0-1.378-.09-1.977-.3l-.719-1.142s.06.421.24.962c-.24-.09-.449-.21-.659-.33-1.918-2.584-1.977-6.88-1.019-11.297.09-.421.21-.842.33-1.262a13.347 13.347 0 0 0-1.079 4.176c-.329 3.335.39 7 1.678 8.533.12.12.09.33-.03.42-.06.06-.12.06-.18.06a.27.27 0 0 1-.239-.12c-1.408-1.652-2.157-5.438-1.828-8.983.27-2.825 1.228-5.168 2.666-6.7.15-.45.21-.902.24-1.382.06-1.112-.09-2.254.18-3.275a14.672 14.672 0 0 1 3.325-6.25c.33-.36.659-.66.989-.93 1.288-1.023 3.085-1.653 4.793-1.593 1.078.06 2.097.36 2.936 1.051.06.06.15.12.21.18 1.108.992 2.486 1.563 3.924 1.743-.539-1.142-.749-2.253-.659-3.305 0-.18.15-.3.33-.27.179.03.269.15.269.33-.09.812.06 1.653.39 2.524-.03-1.112.179-2.103.629-2.944.09-.15.269-.21.419-.12.15.06.21.27.12.39-.389.751-.569 1.652-.569 2.644.479-1.112 1.048-2.133 1.647-2.854a7.005 7.005 0 0 1 1.948-1.593c2.007-1.051 4.374-.961 6.081.481 2.277 1.923 2.457 5.498.39 8.052-.03.03-.03.06-.06.06-.719.841-1.798 1.743-3.056 2.494.09 1.472-.09 3.155-.359 5.017 0 .09-.03.18-.03.27-.18 1.233-.15 2.464.119 3.636.3.541.659 1.022 1.049 1.442l.719.721c.509.511 1.048 1.022 1.498 1.623.809 1.142.958 2.494.958 3.395z" fill="#EEC5CF"/>
        <path fill-rule="evenodd" clip-rule="evenodd" d="m122.738 66.099-3.026 3.155-3.925-7.451-4.553-8.233c1.887-.18 1.018-.39 5.183-.39 1.677 0 7.879.06 18.603.21l-12.282 12.709z" fill="#F5A37B"/>
        <path fill-rule="evenodd" clip-rule="evenodd" d="M142.63 108.582c-.24.751-.869 1.923-1.198 1.893-.989-.15-1.978-.661-2.307-1.893a67.18 67.18 0 0 0-1.199-3.846c-.659 1.473-2.666 4.056-2.456 3.486.24-.691.569-1.953.899-3.245-1.109 1.382-2.786 2.944-2.607 2.494.39-.962.929-2.404 1.438-3.726-1.228.931-3.115 2.013-2.786 1.592.899-1.232 2.547-3.245 3.535-4.416-.209-.09-.359-.12-.419-.06-.809.901-4.044 1.322-3.445.961.898-.541 2.726-2.043 4.134-3.094.06-.06.299.09.629.3a11.24 11.24 0 0 1 1.857 1.773c.21.33.42.661.629 1.021.51.901.989 1.923 1.468 2.944l10.725-21.752-20.521-20.34c-1.168-1.172-1.647-2.614-1.528-3.996.18-1.863 1.438-3.666 3.625-4.537 2.906-1.172 6.351-.24 7.969 2.163l1.738 2.614 15.368 22.864c1.198 1.773 1.138 3.906-.15 5.619l-15.398 21.181z" fill="#F5A37B"/>
        <path fill-rule="evenodd" clip-rule="evenodd" d="m84.751 68.863-6.41-2.103-5.693-17.666 6.411 2.103c.3.09.66.48.78.871l5.242 16.314c.12.361-.03.571-.33.481z" fill="#E54363"/>
        <path fill-rule="evenodd" clip-rule="evenodd" d="m84.152 68.653-5.722-1.892c-.3-.09-.659-.481-.779-.842L72.41 49.605c-.12-.36.03-.57.33-.48l5.721 1.892c.39.12.809.601.959 1.052l5.153 15.984c.15.45-.03.72-.42.6z" fill="#462831"/>
        <path fill-rule="evenodd" clip-rule="evenodd" d="m75.194 53.6-.419-.15c-.21-.06-.42-.3-.48-.54l-.838-2.615c-.09-.24.03-.36.21-.3l.419.15c.21.06.42.3.48.54l.838 2.615c.09.21 0 .36-.21.3z" fill="#E54363"/>
        <path fill-rule="evenodd" clip-rule="evenodd" d="M80.677 55.223c-.06-.03-.09-.06-.09-.09l-.24-.721c0-.03 0-.06.03-.06s.06.06.09.09l.24.72c0 .06 0 .06-.03.06zM80.258 53.871h-.03c-.03 0-.06-.03-.06-.09l-.15-.451c0-.03 0-.06.03-.06h.03c.03 0 .06.03.06.09l.15.451c.03.03 0 .06-.03.06zM81.156 56.665c-.06-.03-.09-.06-.09-.09l-.24-.721c0-.03 0-.06.03-.06s.06.06.09.09l.24.721c.03.06 0 .09-.03.06z" fill="#462831"/>
        <path fill-rule="evenodd" clip-rule="evenodd" d="M74.416 50.956c.09.21 0 .36-.15.3-.15-.03-.36-.24-.45-.45-.09-.21 0-.36.15-.3s.36.24.45.45z" fill="#fff"/>
        <path fill-rule="evenodd" clip-rule="evenodd" d="M82.954 78.147c-.06 0-.12-.03-.18-.06-.48-.33-.06-2.013.959-3.726 1.018-1.712 2.216-2.824 2.726-2.493.06.03.09.09.12.15-.57-.03-1.648 1.022-2.547 2.554-.898 1.562-1.348 3.034-1.078 3.575z" fill="#E54363"/>
        <path fill-rule="evenodd" clip-rule="evenodd" d="M83.493 79.139c-.06 0-.12 0-.18-.06-.509-.3-.18-1.983.72-3.786.898-1.772 2.036-2.974 2.576-2.674.06.03.09.09.15.15-.57 0-1.558 1.142-2.367 2.735-.869 1.622-1.198 3.124-.899 3.635z" fill="#E54363"/>
        <path fill-rule="evenodd" clip-rule="evenodd" d="M96.375 91.217c.39.51 2.157.54 3.655-1.082.899-.991 1.648-2.764 2.427-4.567.629-1.412 1.348-2.764 2.007-4.116 2.876-5.769 6.77-10.876 9.077-16.975.569-1.563 1.168-3.215.809-4.777-1.228-5.318-7.699-4.687-9.557.15-1.917 4.957-3.655 9.975-5.392 14.992-1.288 3.726-5.722 12.8-3.026 16.375z" fill="#F5A37B"/>
        <path fill-rule="evenodd" clip-rule="evenodd" d="M99.94 86.59c-1.079-1.292-2.097-2.644-3.116-3.906-3.175-3.876-6.95-6.13-10.545-9.404-1.858-1.713-3.775-6.37-5.782-7.872-.39-.3-1.498-1.111-2.726-1.923v.481c.03.15.03.27.03.42 0 1.413-.12 2.795-.06 4.207 1.348 1.773 2.816 3.756 3.565 4.927 5.332 8.082 6.83 9.344 11.324 15.113.36.48.749.931 1.138 1.382 1.438 1.652 3.775 1.953 5.603.691.03 0 .03-.03.06-.03 1.288-.871 1.557-2.854.509-4.086z" fill="#F5A37B"/>
        <path fill-rule="evenodd" clip-rule="evenodd" d="M86.19 76.615c-.9 1.773-2.038 2.975-2.547 2.674-.06-.03-.09-.09-.15-.15.57 0 1.558-1.142 2.367-2.734.809-1.592 1.138-3.095.839-3.636.06 0 .12 0 .18.06.539.331.21 2.014-.69 3.786z" fill="#E54363"/>
        <path fill-rule="evenodd" clip-rule="evenodd" d="M85.8 75.834c-1.019 1.712-2.217 2.824-2.727 2.493-.06-.03-.09-.09-.12-.15.57.03 1.618-1.022 2.547-2.554.899-1.532 1.348-3.004 1.079-3.575.06 0 .12.03.18.06.479.36.06 2.013-.96 3.725z" fill="#E54363"/>
        <path fill-rule="evenodd" clip-rule="evenodd" d="M84.242 70.426c-.63-2.734-1.708-5.559-4.074-6.85v-.722c.21-.42.449-.78.808-1.051.84-.571 2.247-.721 2.906-1.683.06-.12.03-.39-.03-.6 0-.09.03-.21 0-.301-.06.03-.09.03-.15.06l-.359.15c-.18.09-.36.15-.57.24-.03.03-.119.03-.149.06l-.03.03-3.085 1.142-.72 1.172c-.06.06-.09.12-.12.18v.03l-.03.03c.09-.99.09-2.042.09-2.042.78-.932 2.936-2.524 3.386-3.095.3-.36.51-.781.54-1.232 0-.09-.03-.18-.09-.24 0-.09-.03-.18-.06-.27-.06.03-.09.06-.15.09l-.36.27c-.18.12-.36.27-.54.39-.03.03-.12.06-.149.12-.03.03-.03.06-.03.09l-3.805 2.945c-.18.15-.3.36-.33.601l-.149 1.532h-.03v.21l-.03.301c-.36-.48-.629-.961-.599-1.412 0-.3.959-1.833 1.468-2.884.27-.571.51-1.262.3-1.743.03-.09 0-.15-.06-.24s-.09-.21-.18-.3c-.03.06-.09.09-.12.15-.09.12-.18.24-.24.39-.12.18-.27.39-.39.571-.03.03-.089.09-.089.15v.06l-1.648 2.404c.03-1.653.06-3.605-.39-4.297-.06-.09-.209-.12-.359-.12-.03-.03-.09-.06-.12-.09-.09-.03-.18-.09-.27-.12v1.142l-.179 7.751 2.157 3.065L81.546 74c0 .12 3.085-1.923 2.696-3.575z" fill="#F5A37B"/>
        <path fill-rule="evenodd" clip-rule="evenodd" d="m152.666 71.988-8.688 4.807-7.43-8.262-6.71 21.933-.36 1.141s-5.123 1.563-10.066 1.563c-4.643 0-9.107-1.563-9.137-1.563l-.12-1.141-.719-10.366c-.779-.6-1.378-1.592-1.707-2.283-.42-.932-.51-1.352-1.408.45l-8.628-3.455s5.243-15.743 10.335-19.98c.869-.72 2.816-1.622 3.925-1.622h1.917s.21 8.082 5.962 8.533c5.752.45 14.26-8.533 14.26-8.533l4.434.39c1.138.21 2.606 2.134 3.235 3.095l10.905 15.293z" fill="#AA4A7A"/>
        <path fill-rule="evenodd" clip-rule="evenodd" d="M109.317 80.04a9.597 9.597 0 0 1-2.277-3.305 11.132 11.132 0 0 1-.929-3.936 12.41 12.41 0 0 1 .42-4.056c.389-1.322.988-2.554 1.827-3.636l-.03.06.899-3.515c.3-1.172.599-2.343.929-3.485-.24 1.172-.51 2.343-.779 3.545l-.809 3.516v.03l-.03.03a11.173 11.173 0 0 0-1.738 3.545 12.442 12.442 0 0 0-.449 3.936c.06 1.322.33 2.644.839 3.876a11.373 11.373 0 0 0 2.127 3.395z" fill="#FF92A2"/>
        <path fill-rule="evenodd" clip-rule="evenodd" d="M116.357 35.304s1.618 1.171 2.007 1.201c.39.03 2.786-1.051 2.786-1.051s-3.385 0-4.793-.15z" fill="#fff"/>
        <path fill-rule="evenodd" clip-rule="evenodd" d="M117.376 29.625c0 .3-.09.6-.24.871-.06.15-.15.27-.21.39-.06.121-.15.271-.179.392-.09.27.149.45.419.57.27.12.569.21.839.36-.3-.09-.599-.12-.869-.24-.15-.06-.3-.12-.419-.24-.12-.12-.18-.33-.12-.48.06-.15.15-.301.209-.421l.24-.39c.12-.271.27-.512.33-.812z" fill="#271018"/>
        <path fill-rule="evenodd" clip-rule="evenodd" d="M119.562 37.376c-.269.3-.689.481-1.108.45-.419-.03-.839-.21-1.079-.54.3.27.69.45 1.079.45.419.06.809-.09 1.108-.36z" fill="#462831"/>
        <path fill-rule="evenodd" clip-rule="evenodd" d="M119.443 29.174c-.15-.12-.33-.21-.509-.27-.57-.21-1.139-.18-1.588.06 0 .06-.509-.27.06-.48.509-.181 1.108-.181 1.707.03.21.09.18.06.36.18.03.15-.03.48-.03.48zM129.359 28.873l-1.259-.24-.149-.6 1.887.33-.479.51z" fill="#C01A29"/>
        <path fill-rule="evenodd" clip-rule="evenodd" d="M127.831 30.255a4.25 4.25 0 0 1-5.392 2.674c-2.097-.72-3.296-2.914-2.757-5.047l.09-.36c0-.03.03-.06.03-.121a4.208 4.208 0 0 1 5.333-2.554c2.247.781 3.445 3.185 2.696 5.408zm-2.576-5.708c-2.337-.781-4.884.42-5.752 2.704-.03.06-.03.12-.06.18s-.03.15-.06.21c-.659 2.344.629 4.838 2.966 5.619a4.586 4.586 0 0 0 5.812-2.884 4.598 4.598 0 0 0-2.906-5.83z" fill="#C01A29"/>
        <path fill-rule="evenodd" clip-rule="evenodd" d="m117.316 27.792-.09-.45a4.653 4.653 0 0 0-2.966-3.155 4.586 4.586 0 0 0-5.812 2.884c-.809 2.403.479 5.018 2.876 5.829 2.397.81 5.003-.481 5.812-2.915.24-.69.3-1.472.18-2.193zM128.22 28.182l-.089-.45a4.544 4.544 0 0 0-2.906-3.095c-2.367-.811-4.914.48-5.722 2.854-.809 2.374.479 4.928 2.846 5.739a4.534 4.534 0 0 0 5.722-2.854 4.564 4.564 0 0 0 .149-2.194z" fill="#E45A68" fill-opacity=".3"/>
        <path fill-rule="evenodd" clip-rule="evenodd" d="M116.776 29.895a4.234 4.234 0 0 1-5.332 2.674c-2.217-.751-3.385-3.155-2.666-5.348a4.234 4.234 0 0 1 5.332-2.674 4.258 4.258 0 0 1 2.846 3.485c.03.27.03.511.03.782-.03.36-.09.72-.21 1.081zm.54-2.103-.09-.45a4.653 4.653 0 0 0-2.966-3.155 4.586 4.586 0 0 0-5.812 2.884c-.809 2.403.479 5.018 2.876 5.829 2.397.81 5.003-.481 5.812-2.915.24-.69.3-1.472.18-2.193z" fill="#C01A29"/>
        <path fill-rule="evenodd" clip-rule="evenodd" d="M110.695 29.264c-.03 0-.03 0-.06-.03s-.03-.06 0-.09l3.326-2.825c.03-.03.06-.03.089 0 .03.03.03.06 0 .09l-3.325 2.825c0 .03 0 .03-.03.03zM111.983 29.475c-.03 0-.03 0-.06-.03s-.03-.06 0-.09l2.726-2.314c.03-.03.06-.03.09 0s.03.06 0 .09l-2.726 2.314c0 .03 0 .03-.03.03zM120.581 30.286c-.03 0-.03 0-.06-.03s-.03-.09 0-.09l3.984-3.395c.03-.03.09-.03.09 0 .03.03.03.09 0 .09l-3.984 3.395c0 .03-.03.03-.03.03zM122.289 30.406c-.03 0-.03 0-.06-.03s-.03-.09 0-.09l3.116-2.675c.03-.03.09-.03.09 0 .029.03.029.09 0 .09l-3.116 2.674c0 .03-.03.03-.03.03z" fill="#fff" fill-opacity=".2"/>
        <path d="M220.341 215.782a15.393 15.393 0 0 1 6.59 3.485l.24.06c-.21-3.154-.689-6.219-2.426-9.163-.989-1.863-2.337-3.485-3.955-4.867-2.816-2.584-6.501-4.447-10.245-3.906-2.936.45-3.446 3.395-2.098 5.678 1.139 1.953 2.846 3.575 4.614 4.928 1.827 1.442 4.074 2.493 6.261 3.695.36-.03.689 0 1.019.09zM242.12 167.921c-.15 3.425.33 7.391-1.048 10.635-2.277 5.348-7.61 7.782-11.534 11.658-.18.21-.42.36-.659.481-.24.06-.51.06-.749 0a1.28 1.28 0 0 1-.599-.451c-1.289-1.653-.54-6.039-.33-7.992.3-3.215 1.049-6.37 2.696-9.194 2.217-3.845 6.112-6.88 10.635-7.18 1.109-.03 1.648 1.081 1.588 2.043z" fill="#355E0B"/>
        <path d="M209.646 179.488a8.715 8.715 0 0 1-.27-4.476c.659-2.855 3.235-4.297 6.021-4.237 3.536.06 5.842 2.915 7.49 5.799 1.618 2.794 7.34 11.988 1.977 13.79-3.205 1.082-8.388-1.802-10.725-3.845-2.097-1.923-3.655-4.327-4.493-7.031z" fill="#218919"/>
        <path d="M226.662 176.634v67.42c0 .902-.03 1.833 0 2.734v.121c0 .06.03.15.09.18.06.06.119.09.209.09.06 0 .15-.03.21-.09s.09-.12.09-.18v-67.421c0-.901.03-1.833 0-2.734v-.12c0-.06-.03-.151-.09-.181a.272.272 0 0 0-.21-.09c-.06 0-.149.03-.209.09-.06.03-.09.091-.09.181z" fill="#462831"/>
        <path d="M236.937 185.978a8.572 8.572 0 0 1 1.918-.481c3.355-.45 9.466 2.314 8.328 6.61-.419 1.562-2.007 2.434-3.445 3.095a58.146 58.146 0 0 1-9.227 3.275c-1.438.42-2.936.691-4.434.751-.869 0-2.067 0-2.756-.511-.3-.21.24-2.644.809-3.696 1.198-2.163 2.516-4.326 4.284-6.069a12.766 12.766 0 0 1 4.523-2.974z" fill="#355E0B"/>
        <path d="M239.903 189.763c-.03-.03-.06-.06-.09-.06h-.09a90.772 90.772 0 0 0-5.991 3.636 65.248 65.248 0 0 0-6.92 5.227l.089.271a62.96 62.96 0 0 1 7.011-5.288 79.485 79.485 0 0 1 5.991-3.636l.03-.03c.03-.03.03-.06.03-.09-.06.03-.06 0-.06-.03z" fill="#462831"/>
        <path d="M235.709 218.666c.839-1.141 1.108-2.523.15-4.176-.12-.24-.3-.45-.51-.631-.209-.18-.449-.3-.719-.36-.719-.15-1.408.27-1.977.721-1.677 1.442-2.966 3.936-3.505 6.069-.09.391-.15.811.12 1.112.359.42 1.019.33 1.558.18 1.647-.421 3.774-1.442 4.883-2.915z" fill="#355E0B"/>
        <path d="M209.196 227.049c4.913-2.463 11.294-3.936 16.687-2.313-2.397-1.532-6.052-3.906-6.621-4.176-2.157-.992-4.583-2.104-6.98-1.443-2.576.721-5.452 3.876-4.014 6.64.239.511.569.932.928 1.292z" fill="#218919"/>
        <path d="M227.081 226.297h-.03l-.03-.03c-.03-.06-3.655-6.039-15.668-3.034h-.06c-.03 0-.03-.03-.03-.06v-.06s0-.031.03-.031h.03c3.505-.871 8.508-1.532 12.523.391 2.396 1.142 3.295 2.644 3.325 2.704v.09l-.03.03c-.03-.03-.03 0-.06 0z" fill="#462831"/>
        <path d="M229.897 185.136c.27-.3.569-.601.839-.901 2.336-2.404 5.183-4.537 8.448-5.528 2.606-.782 7.4-1.112 8.059 2.523.149.842-.06 1.713-.33 2.524-1.288 3.906-4.134 7.391-7.939 8.893-1.827.721-12.253-1.352-11.953-2.734.389-1.802 1.588-3.395 2.876-4.777z" fill="#218919"/>
        <path d="M206.56 181.2c-1.378-1.081-2.697-2.674-2.397-4.386.15-.962.809-1.773 1.588-2.374 2.576-2.013 6.381-1.802 9.317-.33s5.212 3.936 7.399 6.399c1.618 1.803 4.284 4.207 4.015 6.55-6.621.361-14.65-1.652-19.922-5.859zM235.889 199.017c1.228-1.052 2.876-2.013 4.404-1.442.839.3 1.468 1.051 1.887 1.832 1.408 2.704.569 6.13-1.258 8.563-1.828 2.434-4.464 4.086-7.07 5.679-1.888 1.171-4.554 3.184-6.651 2.553.779-6.129 3.955-13.099 8.688-17.185z" fill="#355E0B"/>
        <path d="M237.806 204.876c-6.531 2.884-9.526 8.623-10.755 11.808-.06.15-.12.33-.179.45.059.09.119.15.149.241 1.019-2.945 3.955-9.284 10.905-12.289 0-.06-.06-.12-.12-.21z" fill="#462831"/>
        <path d="M217.315 193.939c3.715.15 6.92.871 7.819 4.116-1.228-4.416-4.973-8.563-8.418-10.786-2.337-1.532-5.393-3.095-8.299-2.494-2.726.541-7.759 4.387-4.493 7.361 2.756 2.464 8.538 1.623 13.391 1.803z" fill="#355E0B"/>
        <path d="M226.931 202.112c-.03 0-.03-.03-.06-.03-.03-.03-.03-.03-.03-.06a19.726 19.726 0 0 0-3.984-7.241c-2.756-3.155-7.819-6.67-16.357-5.528-.03 0-.06 0-.09-.03s-.06-.06-.06-.09 0-.06.03-.09.06-.06.09-.06c8.628-1.172 13.781 2.403 16.597 5.618 1.857 2.133 3.205 4.627 4.044 7.331v.06c0 .03 0 .03-.03.06l-.03.03s-.03.03-.06.03h-.06z" fill="#462831"/>
        <path d="M236.098 202.081c-3.684.421-6.83 1.383-7.489 4.687.899-4.506 4.314-8.893 7.609-11.417 2.217-1.712 5.153-3.485 8.089-3.124 2.756.36 8.088 3.785 5.033 7-2.607 2.704-8.418 2.284-13.242 2.854z" fill="#218919"/>
        <path d="M227.081 210.945c-.06 0-.09-.03-.12-.061-.03-.03-.03-.06-.03-.09a19.743 19.743 0 0 1 3.475-7.601c2.547-3.425 7.43-7.391 16.118-6.85.03 0 .06.03.09.06.029.03.029.06.029.09v.06c0 .03-.029.03-.029.03s-.03.03-.06.03h-.06c-8.568-.541-13.392 3.365-15.878 6.73-1.648 2.224-2.816 4.807-3.445 7.511 0 .03-.03.061-.06.061s0 .03-.03.03z" fill="#462831"/>
        <path d="M209.226 191.325c.929 2.434 1.528 5.408 3.296 7.391 2.935 3.305 7.339 3.786 11.084 5.619.18.09.389.18.599.18.18 0 .39-.06.539-.18.15-.12.27-.271.33-.451.539-1.502-1.079-4.477-1.678-5.829-.988-2.223-2.276-4.326-4.134-5.948-2.516-2.224-6.051-3.486-9.377-2.614-.809.24-.928 1.141-.659 1.832zM226.991 222.422c-1.258-1.893-2.726-3.635-4.314-5.228-1.348-1.682-2.726-3.245-4.853-4.176a10.071 10.071 0 0 0-3.715-1.021c-2.336-.271-4.853.09-6.56 1.712-1.319 1.262-.54 2.945.958 3.606 1.259.57 2.696.781 4.075.811 1.917.09 3.984-.421 5.991-.541 1.558-.09 3.056.03 4.464.841.509.301.958.631 1.348 1.022a34.166 34.166 0 0 1 2.367 3.124l.06.06h.059c.03 0 .03 0 .06-.03l.03-.03s0-.03.03-.06v-.09zM231.725 209.864a35.476 35.476 0 0 1 5.662-3.726c1.767-1.232 3.565-2.313 5.841-2.554 1.289-.21 2.577-.18 3.865.09 2.337.421 4.614 1.503 5.752 3.546.899 1.592-.36 2.974-1.977 3.185-1.378.18-2.816-.061-4.134-.421-1.858-.481-3.685-1.592-5.573-2.253-1.468-.541-2.935-.872-4.523-.541-.539.12-1.079.33-1.588.601-1.108.691-2.157 1.472-3.176 2.283-.03.03-.059.03-.089.03h-.06c-.03 0-.03-.03-.06-.03-.03-.03-.03-.06-.03-.09s.09-.09.09-.12z" fill="#218919"/>
        <path d="M205.302 206.468c2.277 1.532 4.613 3.696 7.369 4.357 4.524 1.051 13.931-3.215 13.931-3.215s-3.655-3.185-5.003-3.996c-2.217-1.322-4.614-2.344-7.19-2.614-3.535-.391-7.31.691-9.647 3.485-.569.691-.119 1.563.54 1.983z" fill="#355E0B"/>
        <path d="M227.051 207.76a81.75 81.75 0 0 0-6.89-1.322c-3.325-.48-7.699-.991-12.013-.661-.03 0-.06 0-.09-.03s-.03-.06-.06-.09v-.06c0-.03 0-.03.03-.03l.03-.03h.06c4.344-.331 8.748.18 12.073.661 2.277.33 4.613.781 6.89 1.322.03 0 .06.03.09.06s.03.06.03.09-.03.06-.06.06-.06.03-.09.03z" fill="#462831"/>
        <path d="M233.762 212.687c-2.637-.931-5.093-1.292-6.651.721 2.157-2.734 5.961-4.597 9.017-5.197 2.097-.421 4.674-.661 6.531.54 1.738 1.142 4.164 5.168.989 6.34-2.637.991-6.441-1.172-9.886-2.404z" fill="#218919"/>
        <path d="M242.839 213.018h-.03s-.03 0-.03-.03c-4.344-3.485-8.298-3.215-10.875-2.373a13.19 13.19 0 0 0-4.613 2.674c-.03.03-.03.03-.06.03s-.03 0-.06-.03-.03-.03-.03-.06 0-.03.03-.061a12.822 12.822 0 0 1 4.674-2.704c2.636-.841 6.65-1.111 11.024 2.404.03.03.03.03.03.06-.03.03-.03.06-.06.09z" fill="#462831"/>
        <path d="M227.051 227.95c-.06 0-.09-.03-.12-.06s-.03-.06-.03-.09c1.079-4.657 3.446-8.563 6.471-10.726 0 0 .03-.03.06-.03h.06c.03 0 .03 0 .06.03l.03.03s.03.03.03.06v.06c0 .03 0 .03-.03.06l-.03.03c-2.966 2.134-5.303 5.979-6.351 10.576 0 .03-.03.06-.06.06h-.09zM241.491 228.281c-1.438.631-2.966 1.622-4.584 1.713-2.666.12-4.733-1.593-7.13-2.434a.712.712 0 0 1-.329-.18.575.575 0 0 1-.15-.301c-.03-.12 0-.24.06-.33.419-.872 2.396-1.442 3.235-1.743a10.152 10.152 0 0 1 4.314-.751c2.037.15 4.045 1.142 5.093 2.944.24.481-.12.932-.509 1.082z" fill="#218919"/>
        <path d="M240.383 227.349c-.06-.03-5.662-1.502-13.422-.12h-.059l-.03-.03v-.06l.03-.03c3.205-.571 6.44-.751 9.676-.481a22.52 22.52 0 0 1 3.775.601c.03 0 .03 0 .03.03v.06s0 .03-.03.03h.03z" fill="#355E0B"/>
        <path d="M226.782 206.979a79.41 79.41 0 0 0-4.434-5.438c-2.247-2.524-5.243-5.739-8.778-8.232-.03-.03-.06-.06-.06-.09s0-.061.03-.091l.03-.03s.03-.03.06-.03h.06c.03 0 .03 0 .06.03 3.535 2.524 6.591 5.769 8.838 8.293a79.453 79.453 0 0 1 4.433 5.438c.03.03.03.06.03.09s-.03.06-.06.09-.06.03-.09.03c-.059-.03-.089-.03-.119-.06z" fill="#218919"/>
        <path d="M227.231 188.351c-3.296-6.34-9.227-8.953-12.463-9.945a15.283 15.283 0 0 0-2.247-.541h-.06c-.03 0-.03 0-.03.03l-.029.03s0 .03-.03.03c0 .03 0 .06.03.09.029.031.059.031.089.031.09 0 9.976 1.532 14.56 10.455a.51.51 0 0 1 .18-.18zM226.812 189.493a81.052 81.052 0 0 0 4.164-5.679c1.857-2.794 4.194-6.55 5.752-10.606 0-.03.03-.06.06-.06s.059-.03.089 0c.03 0 .06.03.06.06v.09c-1.557 4.086-3.894 7.842-5.782 10.636a80.733 80.733 0 0 1-4.164 5.679l-.03.03s-.03 0-.06.03h-.059c-.03 0-.03 0-.06-.03l-.06-.06c.06-.03.06-.06.09-.09z" fill="#462831"/>
        <path d="M247.962 244.925v.451c-.21 9.674-8.239 17.366-17.915 17.366h-7.13c-9.677 0-17.705-7.692-17.915-17.366v-.451c0-4.446 3.415-13.52 4.164-15.593h34.631c.689 2.103 4.165 11.117 4.165 15.593z" fill="#EF7E31"/>
        <path d="M242.33 231.676h-31.037c-.03 0-.06 0-.09-.03s-.03-.06-.03-.09 0-.06.03-.09.06-.03.09-.03h31.067c.03 0 .059 0 .089.03s.03.06.03.09v.06c0 .03-.03.03-.03.03s-.03.03-.059.03h-.06zM212.851 255.081h-.06c-.03 0-.03-.03-.06-.03l-2.456-2.885-.03-.03v-.12c0-.03.03-.03.03-.03l.03-.03h.119c.03 0 .03.03.03.03l2.457 2.884.03.03v.121c0 .03-.03.03-.03.03 0 .03-.03.03-.06.03zM213.121 253.699h-.06c-.03 0-.03-.03-.03-.03l-1.318-1.383-.03-.03v-.12c0-.03.03-.03.03-.03l.03-.03h.119c.03 0 .03.03.03.03l1.318 1.382.03.03v.12c0 .031-.03.031-.03.031l-.03.03h-.059z" fill="#462831"/>
    </g>
    <defs>
        <clipPath id="c1b5wmhhga">
            <path fill="#fff" d="M0 0h293.618v268H0z"/>
        </clipPath>
    </defs>
</svg>
