<svg width="30" height="30" viewBox="0 0 30 30" fill="none" xmlns="http://www.w3.org/2000/svg">
    <path d="M15 14.969c-1.375 0-2.5-.438-3.375-1.313s-1.313-2-1.313-3.375.438-2.5 1.313-3.375 2-1.312 3.375-1.312 2.5.437 3.375 1.312 1.313 2 1.313 3.375-.438 2.5-1.313 3.375-2 1.313-3.375 1.313zM5 25v-2.938c0-.791.198-1.468.594-2.03.396-.563.906-.99 1.531-1.282 1.396-.625 2.734-1.094 4.016-1.406A16.233 16.233 0 0 1 15 16.875c1.292 0 2.573.162 3.844.484 1.27.323 2.604.787 4 1.391a3.768 3.768 0 0 1 1.562 1.281c.396.563.594 1.24.594 2.032V25H5zm1.875-1.875h16.25v-1.063c0-.333-.099-.65-.297-.953a1.881 1.881 0 0 0-.734-.672c-1.334-.645-2.552-1.088-3.657-1.328-1.104-.24-2.25-.359-3.437-.359-1.188 0-2.344.12-3.469.36-1.125.239-2.344.682-3.656 1.328-.292.145-.531.37-.719.671a1.78 1.78 0 0 0-.281.953v1.063zM15 13.094c.813 0 1.484-.266 2.016-.797.53-.531.797-1.203.797-2.016 0-.812-.266-1.484-.797-2.015-.532-.532-1.203-.797-2.016-.797s-1.484.265-2.016.797c-.53.53-.796 1.203-.796 2.015 0 .813.265 1.485.796 2.016.532.531 1.204.797 2.016.797z" fill="#D75426"/>
</svg>
