<?xml version="1.0" encoding="utf-8"?>
<!-- Generator: Adobe Illustrator 25.4.1, SVG Export Plug-In . SVG Version: 6.00 Build 0)  -->
<svg version="1.1" id="Layer_1" xmlns="http://www.w3.org/2000/svg" xmlns:xlink="http://www.w3.org/1999/xlink" x="0px" y="0px"
	 viewBox="0 0 172 120" style="enable-background:new 0 0 172 120;" xml:space="preserve">
<style type="text/css">
	.st0{fill:#E6E7E8;}
	.st1{fill:#F04D5B;}
	.st2{fill:#E84054;}
	.st3{fill:#D2394F;}
	.st4{fill:#FFFFFF;}
	.st5{fill:#58595B;}
	.st6{fill:#414042;}
	.st7{fill:#262626;}
	.st8{fill:#F27788;}
	.st9{fill:#333333;}
	.st10{fill:#F9B099;}
	.st11{fill-rule:evenodd;clip-rule:evenodd;fill:#2B4D53;}
	.st12{fill-rule:evenodd;clip-rule:evenodd;fill:#2A8C79;}
	.st13{fill-rule:evenodd;clip-rule:evenodd;fill:#985547;}
	.st14{fill-rule:evenodd;clip-rule:evenodd;fill:#EEF8F9;}
	.st15{fill-rule:evenodd;clip-rule:evenodd;fill:#98D6D2;}
	.st16{fill-rule:evenodd;clip-rule:evenodd;fill:#672449;}
	.st17{fill-rule:evenodd;clip-rule:evenodd;fill:#F490A0;}
	.st18{fill-rule:evenodd;clip-rule:evenodd;fill:#7DC0BB;}
	.st19{fill:#985547;}
	.st20{fill:#85483E;}
	.st21{fill:#571E3E;}
	.st22{fill-rule:evenodd;clip-rule:evenodd;fill:#571E3E;}
	.st23{fill-rule:evenodd;clip-rule:evenodd;fill:#EDB39D;}
	.st24{fill-rule:evenodd;clip-rule:evenodd;fill:#DA9070;}
	.st25{fill-rule:evenodd;clip-rule:evenodd;fill:#175B7C;}
	.st26{fill-rule:evenodd;clip-rule:evenodd;fill:#672448;}
	.st27{fill-rule:evenodd;clip-rule:evenodd;fill:#01988A;}
	.st28{fill-rule:evenodd;clip-rule:evenodd;fill:#FFFFFF;}
	.st29{fill-rule:evenodd;clip-rule:evenodd;fill:#E6A48D;}
</style>
<path class="st0" d="M85.8,93C38.4,93,0,95.8,0,99.1c0,1.9,12.1,3.6,31.2,4.7c0,0,0,0.1,0,0.1c0,3.2,8.1,5.9,18.1,5.9
	c8.8,0,16.2-2.1,17.8-4.8c6,0.1,12.3,0.1,18.7,0.1c47.4,0,85.8-2.7,85.8-6.1C171.5,95.8,133.1,93,85.8,93z"/>
<path class="st1" d="M4.7,93l-1.1-9.4C1.9,81,4.1,79,4.1,79c10-11,22.7-16.4,22.7-16.4c3.6-1.4,27-2.9,27-2.9l23.9-15.9
	c17.7-7.4,38.3-1.1,38.3-1.1c29.9,8.7,48.2,20.4,48.2,20.4c0.2,0.2,0.4,0.4,0.6,0.7L151,65.2c-1.4,0.1-0.5,1.3-0.5,1.3l1.5,1.6
	c0.9,0.9,1.8,0.8,1.8,0.8l13.5-0.5c0.7,1.7,0.9,3,0.9,3c0.3,3,1.5,7.5,1.5,7.5c0.8,3-0.3,3.7-0.3,3.7l0.2,7.5c0,0,0.2,1.8-1.4,2.3
	c-0.1,0-0.1,0-0.1,0l-19.2,4h-4.2c1.5-3,2.4-6.6,2.4-10.5c0-10.1-6-18.2-13.4-18.2c-7.4,0-13.4,8.1-13.4,18.2
	c0,3.9,0.9,7.5,2.4,10.5H49c1.5-3,2.4-6.6,2.4-10.5c0-10.1-6-18.2-13.4-18.2c-7.4,0-13.4,8.1-13.4,18.2c0,3.9,0.9,7.5,2.4,10.5H5.3
	C0.5,96.3,4.7,93,4.7,93z"/>
<path class="st2" d="M4.6,93.1H11h10.6c0-28,16.3-27.4,16.3-27.4c16.5,0,16.3,27.2,16.3,27.2H118c0-7.2,1.8-14.8,1.8-14.8
	c4-15,18.3-12.9,18.3-12.9l12.2,0.5c0,0.3,0.3,0.7,0.3,0.7l1.5,1.6c0.9,0.9,1.8,0.8,1.8,0.8l13.5-0.5c0.7,1.7,0.9,3,0.9,3
	c0.3,3,1.5,7.5,1.5,7.5c0.8,3-0.3,3.7-0.3,3.7l0.2,7.5c0,0,0.2,1.8-1.4,2.3c-0.1,0-0.1,0-0.1,0l-19.2,4h-4.2c1.5-3,2.4-6.6,2.4-10.5
	c0-10.1-6-18.2-13.4-18.2c-7.4,0-13.4,8.1-13.4,18.2c0,3.9,0.9,7.5,2.4,10.5H49c1.5-3,2.4-6.6,2.4-10.5c0-10.1-6-18.2-13.4-18.2
	c-7.4,0-13.4,8.1-13.4,18.2c0,3.9,0.9,7.5,2.4,10.5H5.3C1,96.3,3.9,93.7,4.6,93.1z"/>
<path class="st3" d="M98,69.7h5.7c0.4,0,0.8-0.3,0.8-0.7v-1.2c0-0.4-0.3-0.7-0.8-0.7H98c-0.4,0-0.7,0.3-0.7,0.7V69
	C97.2,69.4,97.6,69.7,98,69.7z"/>
<path class="st4" d="M167.6,68.3l-13.7,0.5c0,0-0.9,0.1-1.8-0.8l-1.5-1.6c0,0-0.9-1.2,0.5-1.3l13.8-1.2c0,0,0.6-0.4,1.4,0.6
	C166.2,64.6,168.9,68,167.6,68.3z"/>
<path class="st5" d="M123.9,85.9c0,7.5,4.5,13.6,10,13.6c5.5,0,10-6.1,10-13.6c0-7.5-4.5-13.6-10-13.6
	C128.4,72.3,123.9,78.4,123.9,85.9z M124.7,85.9c0-7,4.2-12.6,9.3-12.6c5.1,0,9.3,5.6,9.3,12.6c0,7-4.2,12.6-9.3,12.6
	C128.8,98.5,124.7,92.8,124.7,85.9z"/>
<path d="M121.4,85.9c0,9.4,5.6,17,12.6,17c6.9,0,12.6-7.6,12.6-17c0-9.4-5.6-17-12.6-17C127,68.9,121.4,76.5,121.4,85.9z
	 M123.9,85.9c0-7.5,4.5-13.6,10-13.6c5.5,0,10,6.1,10,13.6c0,7.5-4.5,13.6-10,13.6C128.4,99.4,123.9,93.4,123.9,85.9z"/>
<path class="st5" d="M28,85.9c0,7.5,4.5,13.6,10,13.6c5.5,0,10-6.1,10-13.6c0-7.5-4.5-13.6-10-13.6S28,78.4,28,85.9z M28.7,85.9
	c0-7,4.2-12.6,9.3-12.6c5.1,0,9.3,5.6,9.3,12.6c0,7-4.2,12.6-9.3,12.6C32.8,98.5,28.7,92.8,28.7,85.9z"/>
<path d="M25.4,85.9c0,9.4,5.6,17,12.6,17s12.6-7.6,12.6-17c0-9.4-5.6-17-12.6-17S25.4,76.5,25.4,85.9z M28,85.9
	c0-7.5,4.5-13.6,10-13.6c5.5,0,10,6.1,10,13.6c0,7.5-4.5,13.6-10,13.6S28,93.4,28,85.9z"/>
<path class="st6" d="M134,67.7c7.4,0,13.4,8.1,13.4,18.2c0,3.3-0.6,6.4-1.8,9h-1c1.2-2.6,1.9-5.7,1.9-9c0-9.4-5.6-17-12.6-17
	c-6.9,0-12.6,7.6-12.6,17c0,3.3,0.7,6.4,1.9,9h-1c-1.1-2.7-1.8-5.8-1.8-9C120.5,75.8,126.5,67.7,134,67.7z"/>
<path class="st6" d="M38,67.7c7.4,0,13.4,8.1,13.4,18.2c0,3.3-0.6,6.4-1.8,9h-1c1.2-2.6,1.9-5.7,1.9-9c0-9.4-5.6-17-12.6-17
	s-12.6,7.6-12.6,17c0,3.3,0.7,6.4,1.9,9h-1c-1.1-2.7-1.8-5.8-1.8-9C24.5,75.8,30.5,67.7,38,67.7z"/>
<path class="st6" d="M130.9,51.8c0,0-25.1-12.5-42.2-8.2c0,0-12.2,4.1-22.3,15.6c0,0-0.7,1.2,0.9,1.2L106,59c0,0,23-1.1,26.5-3.4
	C132.5,55.7,135.3,54.3,130.9,51.8z"/>
<path class="st6" d="M78.6,43.7c0.4-0.1,2-0.5,2,0.4c0,0.5-0.7,1.3-0.9,1.5c0,0-10.1,6.9-17.7,14.9c0,0-1.2,0.8-8.1-0.7L77.6,44
	C78,43.8,78.3,43.8,78.6,43.7z"/>
<path class="st7" d="M108.7,44.2c11.9,2.5,22.2,7.7,22.2,7.7c4.4,2.5,1.6,3.8,1.6,3.8C129,57.9,106,59,106,59l-0.8,0L108.7,44.2z"/>
<path d="M72.7,62.3c2.3,0,4.2-1.6,4.2-3.7c0-2-1.9-3.7-4.2-3.7c-2.3,0-4.2,1.6-4.2,3.7C68.5,60.6,70.4,62.3,72.7,62.3z"/>
<path class="st6" d="M3.6,83.6h7.2c0,0,0.8-0.2,1.1,1.6l0.8,6.6c0,0,0.1,1.4-1.1,1.4h-7l0-0.1c0,0,0,0,0,0L3.6,83.6z"/>
<path class="st6" d="M159.6,83.8l9.9-1.3l0.2,7.5c0,0,0,0.1,0,0.3l-10,2.2c-0.7,0.1-0.8-1-0.8-1l-0.1-6.5
	C158.9,83.9,159.6,83.8,159.6,83.8z"/>
<path class="st3" d="M60.1,92H88c4.9,0,8-1.7,8-1.8c0,0,0,0,0,0c4.9-5.8,7.5-12.1,8.8-16.4c1.4-4.5,1.7-7.8,1.7-8
	c0.4-2.7-1.1-6.7-1.2-6.9c0-0.1-0.2-0.2-0.2-0.1c-0.1,0.1-0.1,0.2-0.1,0.3c0,0,1.5,4.1,1.1,6.6c0,0,0,0,0,0c0,0-0.3,3.3-1.7,7.9
	c-1.3,4.2-3.9,10.4-8.7,16.2c-0.3,0.2-3.2,1.7-7.8,1.7H60.2c-0.2-1-0.9-5.8-1.1-11.6c-0.2-5.9,0.1-14.1,3-19.3c0.1-0.1,0-0.2,0-0.3
	c-0.1-0.1-0.2-0.1-0.2,0c-1.3,2.4-2.2,5.5-2.7,9.3c-0.4,3-0.5,6.5-0.4,10.3c0.2,6.5,1.1,11.8,1.2,11.8C59.9,91.9,60,92,60.1,92z"/>
<path class="st2" d="M97.9,67h5.9c0.4,0,0.6,0.6,0.6,1.4h-7.2C97.2,67.6,97.5,67,97.9,67z"/>
<path d="M70.9,59.1l-2.1,2.8c0,0-0.2,0.3-0.7,0.3h-0.9c0,0-1-0.1-0.3-1l3.4-2.8c0,0,0.4-0.3,0.7,0C70.9,58.5,71.2,58.7,70.9,59.1z"
	/>
<path class="st0" d="M21.4,69.4c2-1.9,3.1-4,2.4-4.8c-0.7-0.7-2.9,0.2-4.9,2.1c-2,1.9-3.1,4-2.4,4.8C17.2,72.2,19.4,71.2,21.4,69.4z
	"/>
<path class="st8" d="M166.1,67.6l-8.7,0.3c0,0-0.6,0.1-1.2-0.5l-1-1c0,0-0.6-0.7,0.3-0.8l8.8-0.8c0,0,0.4-0.2,0.9,0.4
	C165.2,65.2,166.9,67.4,166.1,67.6z"/>
<path class="st8" d="M23.1,75.7h2.5c0.4,0,0.7-0.3,0.7-0.7v-0.2c0-0.4-0.3-0.7-0.7-0.7h-2.5c-0.4,0-0.7,0.3-0.7,0.7v0.2
	C22.3,75.3,22.7,75.7,23.1,75.7z"/>
<path d="M160.5,86C160.5,86,160.5,86,160.5,86l9.1-1.3c0.2,0,0.3-0.3,0.3-0.5c0-0.3-0.2-0.4-0.4-0.4l-9.1,1.3
	c-0.2,0-0.3,0.3-0.3,0.5C160.1,85.8,160.3,86,160.5,86z"/>
<path d="M160.5,88.4C160.5,88.4,160.5,88.4,160.5,88.4l9.1-1.5c0.2,0,0.3-0.3,0.3-0.5c0-0.3-0.2-0.4-0.4-0.4l-9.1,1.5
	c-0.2,0-0.3,0.3-0.3,0.5C160.2,88.2,160.3,88.4,160.5,88.4z"/>
<path d="M160.5,90.8C160.5,90.8,160.5,90.8,160.5,90.8l9.1-1.9c0.2,0,0.3-0.3,0.3-0.5c0-0.3-0.2-0.4-0.4-0.4l-9,1.9
	c-0.2,0-0.3,0.3-0.3,0.5C160.2,90.7,160.3,90.8,160.5,90.8z"/>
<path d="M3.9,86.3h6.3c0.2,0,0.3-0.2,0.3-0.5c0-0.3-0.2-0.5-0.3-0.5H3.9c-0.2,0-0.3,0.2-0.3,0.5C3.5,86,3.7,86.3,3.9,86.3z"/>
<path d="M4.2,88.8h6.3c0.2,0,0.3-0.2,0.3-0.5c0-0.3-0.2-0.5-0.3-0.5H4.2c-0.2,0-0.3,0.2-0.3,0.5C3.8,88.6,4,88.8,4.2,88.8z"/>
<path d="M4.5,91.3h6.3c0.2,0,0.3-0.2,0.3-0.5c0-0.3-0.2-0.5-0.3-0.5H4.5c-0.2,0-0.3,0.2-0.3,0.5C4.2,91.1,4.3,91.3,4.5,91.3z"/>
<path class="st4" d="M133.6,101.7c9.2,0,16.7-7.5,16.7-16.7s-7.5-16.7-16.7-16.7c-9.2,0-16.7,7.5-16.7,16.7S124.4,101.7,133.6,101.7
	z"/>
<path class="st9" d="M133.9,82c0.2,0,0.3-0.1,0.3-0.3c0-0.2-0.1-0.3-0.3-0.3c-0.2,0-0.3,0.1-0.3,0.3C133.6,81.9,133.8,82,133.9,82z"
	/>
<path class="st9" d="M131.7,87.4c-0.1,0.1-0.1,0.4,0.1,0.5c0.1,0.1,0.4,0.1,0.5-0.1c0.1-0.1,0.1-0.4-0.1-0.5
	C132.1,87.2,131.9,87.3,131.7,87.4z"/>
<path class="st9" d="M133.9,86.7c0.9,0,1.7-0.8,1.7-1.7s-0.8-1.7-1.7-1.7c-0.9,0-1.7,0.8-1.7,1.7S133,86.7,133.9,86.7z"/>
<path class="st9" d="M137.5,81.7l7.8-1.6c-0.6-1.4-1.5-2.7-2.6-3.9c-2.1-2.1-4.7-3.3-7.6-3.6l0.9,7.9
	C136.5,80.9,137.1,81.2,137.5,81.7z"/>
<path class="st9" d="M131.9,80.6l0.9-7.9c-2.9,0.3-5.5,1.5-7.6,3.6c-1.1,1.1-2,2.4-2.6,3.9l7.8,1.6
	C130.9,81.2,131.4,80.9,131.9,80.6z"/>
<path class="st9" d="M137,83.6c-0.2,0.1-0.3,0.2-0.2,0.4c0.1,0.2,0.2,0.3,0.4,0.2c0.2-0.1,0.3-0.2,0.2-0.4
	C137.3,83.7,137.2,83.6,137,83.6z"/>
<path class="st9" d="M136.1,87.9c0.1-0.1,0.2-0.3,0.1-0.5c-0.1-0.1-0.3-0.2-0.5-0.1c-0.1,0.1-0.2,0.3-0.1,0.5
	C135.7,88,135.9,88,136.1,87.9z"/>
<path class="st9" d="M133.9,67.1c-9.9,0-17.9,8-17.9,17.9s8,17.9,17.9,17.9c9.9,0,17.9-8,17.9-17.9S143.8,67.1,133.9,67.1z
	 M145.9,90c-0.7,1.5-1.6,2.9-2.8,4.1c-1.2,1.2-2.6,2.1-4.1,2.8c-1.6,0.7-3.3,1-5.1,1c-1.8,0-3.5-0.3-5.1-1c-1.5-0.7-2.9-1.6-4.1-2.8
	c-1.2-1.2-2.1-2.6-2.8-4.1c-0.7-1.6-1-3.3-1-5.1s0.3-3.5,1-5.1c0.7-1.5,1.6-2.9,2.8-4.1c1.2-1.2,2.6-2.1,4.1-2.8
	c1.6-0.7,3.3-1,5.1-1c1.8,0,3.5,0.3,5.1,1c1.5,0.7,2.9,1.6,4.1,2.8c1.2,1.2,2.1,2.6,2.8,4.1c0.7,1.6,1,3.3,1,5.1
	C147,86.7,146.6,88.4,145.9,90z"/>
<path class="st9" d="M130.5,83.8c-0.1,0.2,0,0.4,0.2,0.4c0.2,0.1,0.4,0,0.4-0.2c0.1-0.2,0-0.4-0.2-0.4
	C130.8,83.6,130.6,83.7,130.5,83.8z"/>
<path class="st9" d="M146,82.2l-7.2,3.3c-0.1,0.6-0.3,1.2-0.6,1.8l3.9,6.9c0.2-0.2,0.4-0.4,0.6-0.6c2.3-2.3,3.6-5.4,3.6-8.7
	C146.3,84,146.2,83.1,146,82.2z"/>
<path class="st9" d="M133.9,89.8c-0.3,0-0.6,0-0.9-0.1l-5.4,5.9c1.9,1.1,4.1,1.7,6.3,1.7s4.4-0.6,6.3-1.7l-5.4-5.9
	C134.6,89.7,134.3,89.8,133.9,89.8z"/>
<path class="st9" d="M129.2,85.5l-7.2-3.3c-0.2,0.9-0.3,1.8-0.3,2.7c0,3.3,1.3,6.4,3.6,8.7c0.2,0.2,0.4,0.4,0.6,0.6l3.9-6.9
	C129.4,86.8,129.3,86.2,129.2,85.5z"/>
<path class="st4" d="M37.6,102.7c9.2,0,16.7-7.5,16.7-16.7s-7.5-16.7-16.7-16.7c-9.2,0-16.7,7.5-16.7,16.7S28.4,102.7,37.6,102.7z"
	/>
<path class="st9" d="M38,83c0.2,0,0.3-0.1,0.3-0.3c0-0.2-0.1-0.3-0.3-0.3c-0.2,0-0.3,0.1-0.3,0.3C37.6,82.9,37.8,83,38,83z"/>
<path class="st9" d="M35.8,88.4c-0.1,0.1-0.1,0.4,0.1,0.5c0.1,0.1,0.4,0.1,0.5-0.1c0.1-0.1,0.1-0.4-0.1-0.5
	C36.1,88.2,35.9,88.3,35.8,88.4z"/>
<path class="st9" d="M38,87.7c0.9,0,1.7-0.8,1.7-1.7c0-0.9-0.8-1.7-1.7-1.7c-0.9,0-1.7,0.8-1.7,1.7C36.3,86.9,37,87.7,38,87.7z"/>
<path class="st9" d="M41.5,82.7l7.8-1.6c-0.6-1.4-1.5-2.7-2.6-3.9c-2.1-2.1-4.7-3.3-7.6-3.6l0.9,7.9C40.6,81.9,41.1,82.3,41.5,82.7z
	"/>
<path class="st9" d="M35.9,81.6l0.9-7.9c-2.9,0.3-5.5,1.5-7.6,3.6c-1.1,1.1-2,2.4-2.6,3.9l7.8,1.6C34.9,82.3,35.4,81.9,35.9,81.6z"
	/>
<path class="st9" d="M41,84.6c-0.2,0.1-0.3,0.2-0.2,0.4c0.1,0.2,0.2,0.3,0.4,0.2c0.2-0.1,0.3-0.2,0.2-0.4
	C41.4,84.7,41.2,84.6,41,84.6z"/>
<path class="st9" d="M40.1,88.9c0.1-0.1,0.2-0.3,0.1-0.5c-0.1-0.1-0.3-0.2-0.5-0.1c-0.1,0.1-0.2,0.3-0.1,0.5
	C39.7,89,40,89,40.1,88.9z"/>
<path class="st9" d="M38,68.1c-9.9,0-17.9,8-17.9,17.9c0,9.9,8,17.9,17.9,17.9s17.9-8,17.9-17.9C55.8,76.1,47.8,68.1,38,68.1z
	 M50,91.1c-0.7,1.5-1.6,2.9-2.8,4.1C46,96.4,44.6,97.3,43,98c-1.6,0.7-3.3,1-5.1,1c-1.8,0-3.5-0.3-5.1-1c-1.5-0.7-2.9-1.6-4.1-2.8
	c-1.2-1.2-2.1-2.6-2.8-4.1c-0.7-1.6-1-3.3-1-5.1s0.3-3.5,1-5.1c0.7-1.5,1.6-2.9,2.8-4.1c1.2-1.2,2.6-2.1,4.1-2.8
	c1.6-0.7,3.3-1,5.1-1c1.8,0,3.5,0.3,5.1,1c1.5,0.7,2.9,1.6,4.1,2.8c1.2,1.2,2.1,2.6,2.8,4.1c0.7,1.6,1,3.3,1,5.1S50.6,89.4,50,91.1z
	"/>
<path class="st9" d="M34.5,84.9c-0.1,0.2,0,0.4,0.2,0.4c0.2,0.1,0.4,0,0.4-0.2c0.1-0.2,0-0.4-0.2-0.4C34.8,84.6,34.6,84.7,34.5,84.9
	z"/>
<path class="st9" d="M50,83.2l-7.2,3.3c-0.1,0.6-0.3,1.2-0.6,1.8l3.9,6.9c0.2-0.2,0.4-0.4,0.6-0.6c2.3-2.3,3.6-5.4,3.6-8.7
	C50.3,85,50.2,84.1,50,83.2z"/>
<path class="st9" d="M38,90.8c-0.3,0-0.6,0-0.9-0.1l-5.4,5.9c1.9,1.1,4.1,1.7,6.3,1.7c2.3,0,4.4-0.6,6.3-1.7l-5.4-5.9
	C38.6,90.8,38.3,90.8,38,90.8z"/>
<path class="st9" d="M33.2,86.6L26,83.2c-0.2,0.9-0.3,1.8-0.3,2.7c0,3.3,1.3,6.4,3.6,8.7c0.2,0.2,0.4,0.4,0.6,0.6l3.9-6.9
	C33.5,87.8,33.3,87.2,33.2,86.6z"/>
<path class="st10" d="M50.1,74.2l-1-0.4c0,0,1.7,1.1,2.5,0.7c0,0,0.2,0,0-0.3c0,0-1.6-0.6-2.3-1.1c0,0,1.5,1,2.7,1.3
	c0,0,0.6-0.1,0.2-0.6c0.4,0,0.2-0.4,0.2-0.4s-0.3-0.3-1-0.8c0,0-1.1-0.8-2.2-1.9c0,0,1.3-0.3,1.1-1l-2,0.3l-1.9,0.4l-0.6,1l1.2,1.6
	c0,0,1.3,1.1,2.2,1.5C49.3,74.4,51.8,75.2,50.1,74.2z"/>
<path class="st11" d="M76.2,65.4c0,0.2,0,0.3,0,0.5V65.4z M61.8,54.8c-2,1.7-2.6,3.4-3.4,5.2c-0.8,1.7-2.1,10.7-2.1,11.4
	c-1,9.6-3.4,36.1-3.4,36.1c0,0,0,0,0,0s0,0,0,0c0,0,0,0.1,0,0.1c0,0.2,0,0.3,0,0.5c-0.2,2.6-0.6,5.9-0.7,7.1c0,0,0,0.1,0,0.1
	c0,0,0,0.1,0,0.1c0,0,0,0.1,0,0.1c0,0,0,0,0,0.1c0,0,0,0,0,0v0v0c0,0,0,0,0,0h0.1l4.4,0.2c0,0,8.6-37.3,9.6-42.4
	c0.2-0.8,0.3-1.6,0.4-2.3c0.1-0.3,0.1-0.7,0.2-1c0-0.2,0.1-0.3,0.1-0.5c0,0,0,0,0,0c0,0,0-0.1,0-0.1h0c0,0,0,0,0-0.1h0.2
	c0,0.1,0,0.1,0,0.2c0,0,0,0,0,0c0,0.2,0,0.3,0,0.5c0.1,1.4,1.9,37,2.2,44.3c0,0.1,0,0.1,0,0.2c0,0,0,0.1,0,0.2c0,0.1,0,0.2,0,0.3
	c0,0,0,0.1,0,0.1c0,0,0,0.1,0,0.1c0,0,0,0,0,0c0,0,0,0.1,0,0.1c0,0,0,0,0,0.1c0,0,0,0,0,0c0,0.1,0,0.1,0,0.1l4.7,0l2.2-32.7l0-13v0
	l0-2.4v-1v0c0.1-3.5,0.2-6.8,0.2-8.9c0-0.2,0-0.3,0-0.4c0-0.3,0-0.6,0-0.8c0-0.3,0-0.6,0-0.8c0-0.3,0-0.7,0-0.7L61.8,54.8L61.8,54.8
	z"/>
<path class="st12" d="M76.2,65.4v0.5C76.2,65.7,76.2,65.6,76.2,65.4z"/>
<path class="st13" d="M55.7,92.5c0,0-0.1-0.2,0-0.2C55.7,92.4,55.8,92.5,55.7,92.5z"/>
<path class="st13" d="M56.1,90.8c-0.1,0-0.1-0.1,0-0.1C56.1,90.7,56.1,90.8,56.1,90.8z"/>
<path class="st13" d="M56.2,113.2c-0.2,0.2-0.4,0.3-0.6,0.4c0,0-0.2-0.1-0.1-0.1c0.2-0.2,0.4-0.3,0.6-0.5
	C56.1,113.1,56.2,113.2,56.2,113.2z"/>
<path class="st13" d="M56.4,113.6C56.4,113.6,56.4,113.7,56.4,113.6c-0.2,0.1-0.3,0.2-0.4,0.3c0,0-0.1,0-0.1,0c0,0,0,0,0-0.1
	c0,0,0,0,0,0c0.1-0.1,0.3-0.2,0.4-0.3C56.4,113.5,56.4,113.6,56.4,113.6C56.4,113.6,56.4,113.6,56.4,113.6z"/>
<path class="st13" d="M57.3,75.2c0,0.1-0.1,0.3-0.2,0.4c0,0-0.1,0-0.1,0c0,0,0-0.1,0-0.1c0-0.1,0.1-0.3,0.2-0.4c0,0,0.1,0,0.1,0
	C57.3,75.1,57.3,75.2,57.3,75.2z"/>
<path class="st13" d="M57.4,100c-0.1,0-0.1-0.2-0.1-0.2C57.5,99.8,57.5,100,57.4,100z"/>
<path class="st13" d="M57.5,74.3c-0.1,0.1-0.2,0.2-0.3,0.3c0,0,0,0,0,0c0,0,0,0,0,0c0,0,0-0.1,0-0.1c0.1-0.1,0.2-0.2,0.3-0.3
	c0,0,0,0,0,0c0,0,0,0,0,0C57.5,74.2,57.5,74.3,57.5,74.3z"/>
<path class="st13" d="M60,95.4C60,95.5,60,95.5,60,95.4c-0.1,0.1-0.2,0.2-0.4,0.2c0,0-0.1,0-0.1,0c0,0,0,0,0,0c0,0,0,0,0,0
	c0.1,0,0.2-0.1,0.3-0.2C59.9,95.3,59.9,95.4,60,95.4C60,95.4,60,95.4,60,95.4z"/>
<path class="st13" d="M60.8,94.3c-0.3,0.2-0.5,0.4-0.8,0.7c0,0-0.2-0.1-0.1-0.1c0.3-0.2,0.5-0.4,0.8-0.7
	C60.7,94.2,60.8,94.3,60.8,94.3z"/>
<path class="st13" d="M52.1,115.5C52.1,115.5,52.1,115.5,52.1,115.5C52.1,115.5,52.1,115.5,52.1,115.5z"/>
<path class="st13" d="M52.9,107.5c0,0.2,0,0.3,0,0.5c-0.2,2.6-0.6,5.9-0.7,7.1c0,0,0,0.1,0,0.1c0,0,0,0.1,0,0.1c0,0,0,0.1,0,0.1
	c0,0,0,0,0,0.1c0-0.1,0-0.3,0-0.4c0.1-1.5,0.3-3,0.5-4.9c0-0.3,0.1-0.6,0.1-0.9c0,0,0-0.1,0-0.2c0-0.1,0-0.2,0-0.3c0,0,0-0.1,0-0.1
	c0,0,0-0.1,0-0.1c0-0.1,0-0.2,0-0.2c0,0,0-0.1,0-0.1c0-0.1,0-0.2,0-0.3C52.9,107.7,52.9,107.6,52.9,107.5z"/>
<path class="st13" d="M56.5,115.8c0,0.1,0,0.2-0.1,0.3c0,0.1,0,0.1,0,0.2c0,0,0,0.1,0,0.2c0,0.1,0,0.2,0,0.2c0,0,0,0.1,0,0.1
	c0,0.2,0,0.3,0,0.3h0l0,0c0,0,0,0,0,0c-0.1,0.1-0.2,0.7-0.2,0.7s-1.3,0-2,0c-0.8,0-1.7-0.2-2.2-0.6c0,0,0-0.1,0-0.1
	c0-0.1,0-0.2,0-0.3c0-0.1,0-0.3,0-0.4c0-0.1,0-0.3,0-0.4c0-0.1,0-0.2,0-0.3h0.1L56.5,115.8z"/>
<path class="st13" d="M61.9,90.3c-0.4,0.5-0.9,0.9-1.5,1.3c-0.1,0-0.2-0.1-0.1-0.1c0.5-0.4,1-0.8,1.5-1.3
	C61.8,90.1,61.9,90.2,61.9,90.3z"/>
<path class="st13" d="M66.8,69.5c0,0,0,0.1,0,0.1c0,0,0,0,0,0C66.8,69.6,66.8,69.6,66.8,69.5L66.8,69.5z"/>
<path class="st13" d="M69,71.5c-0.2,0.2-0.3,0.4-0.5,0.6c0,0-0.1,0-0.1,0c0,0,0-0.1,0-0.1c0.2-0.2,0.3-0.4,0.5-0.6c0,0,0.1,0,0.1,0
	C69,71.4,69.1,71.4,69,71.5z"/>
<path class="st13" d="M69.1,88.7C69.1,88.7,69,88.7,69.1,88.7c-0.2-0.1-0.3-0.2-0.4-0.2c0,0-0.1-0.1-0.1-0.1c0,0,0,0,0.1,0
	c0.1,0.1,0.2,0.2,0.3,0.3C69,88.6,69.1,88.7,69.1,88.7z"/>
<path class="st13" d="M69.2,93.6c-0.1,0-0.1-0.1,0-0.1C69.2,93.5,69.3,93.6,69.2,93.6z"/>
<path class="st13" d="M69.2,73.1c-0.1,0.2-0.2,0.3-0.4,0.4c0,0-0.1,0-0.1,0c0,0,0-0.1,0-0.1c0.2-0.1,0.3-0.3,0.4-0.4
	c0,0,0.1,0,0.1,0C69.2,73,69.2,73,69.2,73.1z"/>
<path class="st13" d="M69.2,88.1C69.2,88.1,69.2,88.1,69.2,88.1c-0.3-0.2-0.5-0.4-0.8-0.6c0,0,0-0.1,0-0.1c0,0,0.1,0,0.1,0
	c0.2,0.2,0.4,0.3,0.7,0.5C69.2,88,69.2,88.1,69.2,88.1z"/>
<path class="st13" d="M70.3,112.1l-0.4,0.6c0,0.1-0.2-0.1-0.1-0.1l0.4-0.6C70.2,112,70.3,112.1,70.3,112.1z"/>
<path class="st13" d="M70.4,112.8c0,0.1-0.1,0.1-0.2,0.2c0,0,0,0,0,0c0,0,0,0,0,0c0,0,0-0.1,0-0.1c0,0,0.1-0.1,0.2-0.2c0,0,0,0,0,0
	c0,0,0,0,0,0C70.4,112.8,70.5,112.8,70.4,112.8z"/>
<path class="st13" d="M72,74c-0.1,0-0.1-0.1,0-0.1C72,73.8,72.1,74,72,74z"/>
<path class="st13" d="M72.1,73.5c-0.1,0-0.1-0.1,0-0.1C72.1,73.3,72.2,73.5,72.1,73.5z"/>
<path class="st13" d="M74.8,87.7c-0.1,0-0.1-0.2,0-0.2C74.8,87.6,74.9,87.7,74.8,87.7z"/>
<path class="st13" d="M74.9,71.4C74.9,71.4,74.9,71.5,74.9,71.4C74.9,71.5,74.8,71.5,74.9,71.4c-0.2,0-0.3-0.2-0.3-0.3c0,0,0,0,0,0
	c0,0,0,0,0,0c0,0,0,0,0,0c0,0,0,0,0,0c0,0,0,0,0,0c0,0,0,0,0,0c0,0,0,0,0,0C74.9,71.2,74.9,71.3,74.9,71.4z"/>
<path class="st13" d="M75.2,69.5c-0.1,0-0.1-0.1-0.1-0.1C75.2,69.3,75.3,69.5,75.2,69.5z"/>
<path class="st13" d="M75.4,89.1c-0.7,0.6-1.4,1.2-2.1,1.8c-0.1,0-0.2-0.1-0.1-0.1c0.7-0.6,1.4-1.2,2.1-1.8
	C75.3,88.9,75.4,89.1,75.4,89.1z"/>
<path class="st13" d="M75.5,68.9L75.3,69c0,0,0,0,0,0c0,0,0,0,0,0c0,0,0-0.1,0-0.1c0-0.1,0.1-0.1,0.2-0.2c0,0,0,0,0,0c0,0,0,0,0,0
	C75.5,68.8,75.6,68.8,75.5,68.9z"/>
<path class="st13" d="M76.2,65.9v-0.5C76.2,65.6,76.2,65.7,76.2,65.9z"/>
<path class="st13" d="M74,115.7c0,0.4,0,0.8-0.1,1c0,0.2,0,0.3,0,0.4c-0.1,0.1-0.2,0.7-0.2,0.7s-1.3,0-2,0c-0.9,0-1.9-0.3-2.4-0.7
	c0,0-0.1,0-0.1,0c0-0.1,0-0.2,0-0.3c-0.1-1.5-0.2-3.2-0.3-5.8c0,0,0,0,0-0.1c0,0.1,0,0.2,0,0.3c0,0.2,0,0.4,0,0.6c0,0.3,0,0.5,0,0.7
	c0,0.1,0,0.2,0,0.3c0,0.1,0,0.2,0,0.2c0,0.2,0,0.3,0,0.4c0,0.1,0,0.2,0,0.3c0,0.2,0,0.4,0,0.6c0,0.1,0,0.1,0,0.2c0,0.1,0,0.1,0,0.2
	c0,0.1,0,0.2,0,0.3c0,0.1,0,0.1,0,0.1c0,0,0,0.1,0,0.1c0,0,0,0,0,0c0,0,0,0.1,0,0.1c0,0,0,0,0,0c0,0,0,0,0,0c0,0.1,0,0.1,0,0.1
	L74,115.7z"/>
<path class="st12" d="M55.7,92.5c0,0-0.1-0.2,0-0.2C55.7,92.4,55.8,92.5,55.7,92.5z"/>
<path class="st12" d="M56.1,90.8c-0.1,0-0.1-0.1,0-0.1C56.1,90.7,56.1,90.8,56.1,90.8z"/>
<path class="st12" d="M56.2,113.2c-0.2,0.2-0.4,0.3-0.6,0.4c0,0-0.2-0.1-0.1-0.1c0.2-0.2,0.4-0.3,0.6-0.5
	C56.1,113.1,56.2,113.2,56.2,113.2z"/>
<path class="st12" d="M56.4,113.6C56.4,113.6,56.4,113.7,56.4,113.6c-0.2,0.1-0.3,0.2-0.4,0.3c0,0-0.1,0-0.1,0c0,0,0,0,0-0.1
	c0,0,0,0,0,0c0.1-0.1,0.3-0.2,0.4-0.3C56.4,113.5,56.4,113.6,56.4,113.6C56.4,113.6,56.4,113.6,56.4,113.6z"/>
<path class="st12" d="M57.3,75.2c0,0.1-0.1,0.3-0.2,0.4c0,0-0.1,0-0.1,0c0,0,0-0.1,0-0.1c0-0.1,0.1-0.3,0.2-0.4c0,0,0.1,0,0.1,0
	C57.3,75.1,57.3,75.2,57.3,75.2z"/>
<path class="st12" d="M57.4,100c-0.1,0-0.1-0.2-0.1-0.2C57.5,99.8,57.5,100,57.4,100z"/>
<path class="st12" d="M57.5,74.3c-0.1,0.1-0.2,0.2-0.3,0.3c0,0,0,0,0,0c0,0,0,0,0,0c0,0,0-0.1,0-0.1c0.1-0.1,0.2-0.2,0.3-0.3
	c0,0,0,0,0,0c0,0,0,0,0,0C57.5,74.2,57.5,74.3,57.5,74.3z"/>
<path class="st12" d="M60,95.4C60,95.5,60,95.5,60,95.4c-0.1,0.1-0.2,0.2-0.4,0.2c0,0-0.1,0-0.1,0c0,0,0,0,0,0c0,0,0,0,0,0
	c0.1,0,0.2-0.1,0.3-0.2C59.9,95.3,59.9,95.4,60,95.4C60,95.4,60,95.4,60,95.4z"/>
<path class="st12" d="M60.8,94.3c-0.3,0.2-0.5,0.4-0.8,0.7c0,0-0.2-0.1-0.1-0.1c0.3-0.2,0.5-0.4,0.8-0.7
	C60.7,94.2,60.8,94.3,60.8,94.3z"/>
<path class="st12" d="M61.9,90.3c-0.4,0.5-0.9,0.9-1.5,1.3c-0.1,0-0.2-0.1-0.1-0.1c0.5-0.4,1-0.8,1.5-1.3
	C61.8,90.1,61.9,90.2,61.9,90.3z"/>
<path class="st12" d="M67.1,69.6C67,69.6,67,69.6,67.1,69.6L67,69.5h-0.2c0,0,0,0,0-0.1H67C67,69.5,67.1,69.6,67.1,69.6z"/>
<path class="st12" d="M69,71.5c-0.2,0.2-0.3,0.4-0.5,0.6c0,0-0.1,0-0.1,0c0,0,0-0.1,0-0.1c0.2-0.2,0.3-0.4,0.5-0.6c0,0,0.1,0,0.1,0
	C69,71.4,69.1,71.4,69,71.5z"/>
<path class="st12" d="M69.1,88.7C69.1,88.7,69,88.7,69.1,88.7c-0.2-0.1-0.3-0.2-0.4-0.2c0,0-0.1-0.1-0.1-0.1c0,0,0,0,0.1,0
	c0.1,0.1,0.2,0.2,0.3,0.3C69,88.6,69.1,88.7,69.1,88.7z"/>
<path class="st12" d="M69.2,93.6c-0.1,0-0.1-0.1,0-0.1C69.2,93.5,69.3,93.6,69.2,93.6z"/>
<path class="st12" d="M69.2,73.1c-0.1,0.2-0.2,0.3-0.4,0.4c0,0-0.1,0-0.1,0c0,0,0-0.1,0-0.1c0.2-0.1,0.3-0.3,0.4-0.4
	c0,0,0.1,0,0.1,0C69.2,73,69.2,73,69.2,73.1z"/>
<path class="st12" d="M69.2,88.1C69.2,88.1,69.2,88.1,69.2,88.1c-0.3-0.2-0.5-0.4-0.8-0.6c0,0,0-0.1,0-0.1c0,0,0.1,0,0.1,0
	c0.2,0.2,0.4,0.3,0.7,0.5C69.2,88,69.2,88.1,69.2,88.1z"/>
<path class="st12" d="M70.3,112.1l-0.4,0.6c0,0.1-0.2-0.1-0.1-0.1l0.4-0.6C70.2,112,70.3,112.1,70.3,112.1z"/>
<path class="st12" d="M70.4,112.8c0,0.1-0.1,0.1-0.2,0.2c0,0,0,0,0,0c0,0,0,0,0,0c0,0,0-0.1,0-0.1c0,0,0.1-0.1,0.2-0.2c0,0,0,0,0,0
	c0,0,0,0,0,0C70.4,112.8,70.5,112.8,70.4,112.8z"/>
<path class="st12" d="M72,74c-0.1,0-0.1-0.1,0-0.1C72,73.8,72.1,74,72,74z"/>
<path class="st12" d="M72.1,73.5c-0.1,0-0.1-0.1,0-0.1C72.1,73.3,72.2,73.5,72.1,73.5z"/>
<path class="st12" d="M74.8,87.7c-0.1,0-0.1-0.2,0-0.2C74.8,87.6,74.9,87.7,74.8,87.7z"/>
<path class="st12" d="M74.9,71.4C74.9,71.4,74.9,71.5,74.9,71.4C74.9,71.5,74.8,71.5,74.9,71.4c-0.2,0-0.3-0.2-0.3-0.3c0,0,0,0,0,0
	c0,0,0,0,0,0c0,0,0,0,0,0c0,0,0,0,0,0c0,0,0,0,0,0c0,0,0,0,0,0c0,0,0,0,0,0C74.9,71.2,74.9,71.3,74.9,71.4z"/>
<path class="st12" d="M75.2,69.5c-0.1,0-0.1-0.1-0.1-0.1C75.2,69.3,75.3,69.5,75.2,69.5z"/>
<path class="st12" d="M75.4,89.1c-0.7,0.6-1.4,1.2-2.1,1.8c-0.1,0-0.2-0.1-0.1-0.1c0.7-0.6,1.4-1.2,2.1-1.8
	C75.3,88.9,75.4,89.1,75.4,89.1z"/>
<path class="st12" d="M75.5,68.9L75.3,69c0,0,0,0,0,0c0,0,0,0,0,0c0,0,0-0.1,0-0.1c0-0.1,0.1-0.1,0.2-0.2c0,0,0,0,0,0c0,0,0,0,0,0
	C75.5,68.8,75.6,68.8,75.5,68.9z"/>
<path class="st14" d="M56.2,113.2c-0.2,0.2-0.4,0.3-0.6,0.4c0,0-0.2-0.1-0.1-0.1c0.2-0.2,0.4-0.3,0.6-0.5
	C56.1,113.1,56.2,113.2,56.2,113.2z"/>
<path class="st14" d="M56.4,113.6C56.4,113.6,56.4,113.7,56.4,113.6c-0.2,0.1-0.3,0.2-0.4,0.3c0,0-0.1,0-0.1,0c0,0,0,0,0-0.1
	c0,0,0,0,0,0c0.1-0.1,0.3-0.2,0.4-0.3C56.4,113.5,56.4,113.6,56.4,113.6C56.4,113.6,56.4,113.6,56.4,113.6z"/>
<path class="st14" d="M70.3,112.1l-0.4,0.6c0,0.1-0.2-0.1-0.1-0.1l0.4-0.6C70.2,112,70.3,112.1,70.3,112.1z"/>
<path class="st14" d="M70.4,112.8c0,0.1-0.1,0.1-0.2,0.2c0,0,0,0,0,0c0,0,0,0,0,0c0,0,0-0.1,0-0.1c0,0,0.1-0.1,0.2-0.2c0,0,0,0,0,0
	c0,0,0,0,0,0C70.4,112.8,70.5,112.8,70.4,112.8z"/>
<path class="st14" d="M60.8,94.3c-0.3,0.2-0.5,0.4-0.8,0.7c0,0-0.2-0.1-0.1-0.1c0.3-0.2,0.5-0.4,0.8-0.7
	C60.7,94.2,60.8,94.3,60.8,94.3z"/>
<path class="st14" d="M60,95.4C60,95.5,60,95.5,60,95.4c-0.1,0.1-0.2,0.2-0.4,0.2c0,0-0.1,0-0.1,0c0,0,0,0,0,0c0,0,0,0,0,0
	c0.1,0,0.2-0.1,0.3-0.2C59.9,95.3,59.9,95.4,60,95.4C60,95.4,60,95.4,60,95.4z"/>
<path class="st14" d="M69.2,88.1C69.2,88.1,69.2,88.1,69.2,88.1c-0.3-0.2-0.5-0.4-0.8-0.6c0,0,0-0.1,0-0.1c0,0,0.1,0,0.1,0
	c0.2,0.2,0.4,0.3,0.7,0.5C69.2,88,69.2,88.1,69.2,88.1z"/>
<path class="st14" d="M69.1,88.7C69.1,88.7,69,88.7,69.1,88.7c-0.2-0.1-0.3-0.2-0.4-0.2c0,0-0.1-0.1-0.1-0.1c0,0,0,0,0.1,0
	c0.1,0.1,0.2,0.2,0.3,0.3C69,88.6,69.1,88.7,69.1,88.7z"/>
<path class="st14" d="M61.9,90.3c-0.4,0.5-0.9,0.9-1.5,1.3c-0.1,0-0.2-0.1-0.1-0.1c0.5-0.4,1-0.8,1.5-1.3
	C61.8,90.1,61.9,90.2,61.9,90.3z"/>
<path class="st14" d="M75.4,89.1c-0.7,0.6-1.4,1.2-2.1,1.8c-0.1,0-0.2-0.1-0.1-0.1c0.7-0.6,1.4-1.2,2.1-1.8
	C75.3,88.9,75.4,89.1,75.4,89.1z"/>
<path class="st14" d="M74.8,87.7c-0.1,0-0.1-0.2,0-0.2C74.8,87.6,74.9,87.7,74.8,87.7z"/>
<path class="st14" d="M69.2,93.6c-0.1,0-0.1-0.1,0-0.1C69.2,93.5,69.3,93.6,69.2,93.6z"/>
<path class="st14" d="M55.7,92.5c0,0-0.1-0.2,0-0.2C55.7,92.4,55.8,92.5,55.7,92.5z"/>
<path class="st14" d="M56.1,90.8c-0.1,0-0.1-0.1,0-0.1C56.1,90.7,56.1,90.8,56.1,90.8z"/>
<path class="st14" d="M57.4,100c-0.1,0-0.1-0.2-0.1-0.2C57.5,99.8,57.5,100,57.4,100z"/>
<path class="st14" d="M57.5,74.3c-0.1,0.1-0.2,0.2-0.3,0.3c0,0,0,0,0,0c0,0,0,0,0,0c0,0,0-0.1,0-0.1c0.1-0.1,0.2-0.2,0.3-0.3
	c0,0,0,0,0,0c0,0,0,0,0,0C57.5,74.2,57.5,74.3,57.5,74.3z"/>
<path class="st14" d="M57.3,75.2c0,0.1-0.1,0.3-0.2,0.4c0,0-0.1,0-0.1,0c0,0,0-0.1,0-0.1c0-0.1,0.1-0.3,0.2-0.4c0,0,0.1,0,0.1,0
	C57.3,75.1,57.3,75.2,57.3,75.2z"/>
<path class="st14" d="M69,71.5c-0.2,0.2-0.3,0.4-0.5,0.6c0,0-0.1,0-0.1,0c0,0,0-0.1,0-0.1c0.2-0.2,0.3-0.4,0.5-0.6c0,0,0.1,0,0.1,0
	C69,71.4,69.1,71.4,69,71.5z"/>
<path class="st14" d="M69.2,73.1c-0.1,0.2-0.2,0.3-0.4,0.4c0,0-0.1,0-0.1,0c0,0,0-0.1,0-0.1c0.2-0.1,0.3-0.3,0.4-0.4
	c0,0,0.1,0,0.1,0C69.2,73,69.2,73,69.2,73.1z"/>
<path class="st14" d="M75.5,68.9L75.3,69c0,0,0,0,0,0c0,0,0,0,0,0c0,0,0-0.1,0-0.1c0-0.1,0.1-0.1,0.2-0.2c0,0,0,0,0,0c0,0,0,0,0,0
	C75.5,68.8,75.6,68.8,75.5,68.9z"/>
<path class="st14" d="M75.2,69.5c-0.1,0-0.1-0.1-0.1-0.1C75.2,69.3,75.3,69.5,75.2,69.5z"/>
<path class="st14" d="M72,74c-0.1,0-0.1-0.1,0-0.1C72,73.8,72.1,74,72,74z"/>
<path class="st14" d="M72.1,73.5c-0.1,0-0.1-0.1,0-0.1C72.1,73.3,72.2,73.5,72.1,73.5z"/>
<path class="st14" d="M74.9,71.4C74.9,71.4,74.9,71.5,74.9,71.4C74.9,71.5,74.8,71.5,74.9,71.4c-0.2,0-0.3-0.2-0.3-0.3c0,0,0,0,0,0
	c0,0,0,0,0,0c0,0,0,0,0,0c0,0,0,0,0,0c0,0,0,0,0,0c0,0,0,0,0,0c0,0,0,0,0,0C74.9,71.2,74.9,71.3,74.9,71.4z"/>
<path class="st12" d="M76.2,65.9v-0.5C76.2,65.6,76.2,65.7,76.2,65.9z"/>
<path class="st12" d="M55.7,92.5c0,0-0.1-0.2,0-0.2C55.7,92.4,55.8,92.5,55.7,92.5z"/>
<path class="st12" d="M56.1,90.8c-0.1,0-0.1-0.1,0-0.1C56.1,90.7,56.1,90.8,56.1,90.8z"/>
<path class="st12" d="M56.2,113.2c-0.2,0.2-0.4,0.3-0.6,0.4c0,0-0.2-0.1-0.1-0.1c0.2-0.2,0.4-0.3,0.6-0.5
	C56.1,113.1,56.2,113.2,56.2,113.2z"/>
<path class="st12" d="M56.4,113.6C56.4,113.6,56.4,113.7,56.4,113.6c-0.2,0.1-0.3,0.2-0.4,0.3c0,0-0.1,0-0.1,0c0,0,0,0,0-0.1
	c0,0,0,0,0,0c0.1-0.1,0.3-0.2,0.4-0.3C56.4,113.5,56.4,113.6,56.4,113.6C56.4,113.6,56.4,113.6,56.4,113.6z"/>
<path class="st12" d="M57.3,75.2c0,0.1-0.1,0.3-0.2,0.4c0,0-0.1,0-0.1,0c0,0,0-0.1,0-0.1c0-0.1,0.1-0.3,0.2-0.4c0,0,0.1,0,0.1,0
	C57.3,75.1,57.3,75.2,57.3,75.2z"/>
<path class="st12" d="M57.4,100c-0.1,0-0.1-0.2-0.1-0.2C57.5,99.8,57.5,100,57.4,100z"/>
<path class="st12" d="M57.5,74.3c-0.1,0.1-0.2,0.2-0.3,0.3c0,0,0,0,0,0c0,0,0,0,0,0c0,0,0-0.1,0-0.1c0.1-0.1,0.2-0.2,0.3-0.3
	c0,0,0,0,0,0c0,0,0,0,0,0C57.5,74.2,57.5,74.3,57.5,74.3z"/>
<path class="st12" d="M60,95.4C60,95.5,60,95.5,60,95.4c-0.1,0.1-0.2,0.2-0.4,0.2c0,0-0.1,0-0.1,0c0,0,0,0,0,0c0,0,0,0,0,0
	c0.1,0,0.2-0.1,0.3-0.2C59.9,95.3,59.9,95.4,60,95.4C60,95.4,60,95.4,60,95.4z"/>
<path class="st12" d="M60.8,94.3c-0.3,0.2-0.5,0.4-0.8,0.7c0,0-0.2-0.1-0.1-0.1c0.3-0.2,0.5-0.4,0.8-0.7
	C60.7,94.2,60.8,94.3,60.8,94.3z"/>
<path class="st12" d="M61.9,90.3c-0.4,0.5-0.9,0.9-1.5,1.3c-0.1,0-0.2-0.1-0.1-0.1c0.5-0.4,1-0.8,1.5-1.3
	C61.8,90.1,61.9,90.2,61.9,90.3z"/>
<path class="st12" d="M67.1,69.6C67,69.6,67,69.6,67.1,69.6L67,69.5h-0.2c0,0,0,0,0-0.1H67C67,69.5,67.1,69.6,67.1,69.6z"/>
<path class="st12" d="M69,71.5c-0.2,0.2-0.3,0.4-0.5,0.6c0,0-0.1,0-0.1,0c0,0,0-0.1,0-0.1c0.2-0.2,0.3-0.4,0.5-0.6c0,0,0.1,0,0.1,0
	C69,71.4,69.1,71.4,69,71.5z"/>
<path class="st12" d="M69.1,88.7C69.1,88.7,69,88.7,69.1,88.7c-0.2-0.1-0.3-0.2-0.4-0.2c0,0-0.1-0.1-0.1-0.1c0,0,0,0,0.1,0
	c0.1,0.1,0.2,0.2,0.3,0.3C69,88.6,69.1,88.7,69.1,88.7z"/>
<path class="st12" d="M69.2,93.6c-0.1,0-0.1-0.1,0-0.1C69.2,93.5,69.3,93.6,69.2,93.6z"/>
<path class="st12" d="M69.2,73.1c-0.1,0.2-0.2,0.3-0.4,0.4c0,0-0.1,0-0.1,0c0,0,0-0.1,0-0.1c0.2-0.1,0.3-0.3,0.4-0.4
	c0,0,0.1,0,0.1,0C69.2,73,69.2,73,69.2,73.1z"/>
<path class="st12" d="M69.2,88.1C69.2,88.1,69.2,88.1,69.2,88.1c-0.3-0.2-0.5-0.4-0.8-0.6c0,0,0-0.1,0-0.1c0,0,0.1,0,0.1,0
	c0.2,0.2,0.4,0.3,0.7,0.5C69.2,88,69.2,88.1,69.2,88.1z"/>
<path class="st12" d="M70.3,112.1l-0.4,0.6c0,0.1-0.2-0.1-0.1-0.1l0.4-0.6C70.2,112,70.3,112.1,70.3,112.1z"/>
<path class="st12" d="M70.4,112.8c0,0.1-0.1,0.1-0.2,0.2c0,0,0,0,0,0c0,0,0,0,0,0c0,0,0-0.1,0-0.1c0,0,0.1-0.1,0.2-0.2c0,0,0,0,0,0
	c0,0,0,0,0,0C70.4,112.8,70.5,112.8,70.4,112.8z"/>
<path class="st12" d="M72,74c-0.1,0-0.1-0.1,0-0.1C72,73.8,72.1,74,72,74z"/>
<path class="st12" d="M72.1,73.5c-0.1,0-0.1-0.1,0-0.1C72.1,73.3,72.2,73.5,72.1,73.5z"/>
<path class="st12" d="M74.8,87.7c-0.1,0-0.1-0.2,0-0.2C74.8,87.6,74.9,87.7,74.8,87.7z"/>
<path class="st12" d="M74.9,71.4C74.9,71.4,74.9,71.5,74.9,71.4C74.9,71.5,74.8,71.5,74.9,71.4c-0.2,0-0.3-0.2-0.3-0.3c0,0,0,0,0,0
	c0,0,0,0,0,0c0,0,0,0,0,0c0,0,0,0,0,0c0,0,0,0,0,0c0,0,0,0,0,0c0,0,0,0,0,0C74.9,71.2,74.9,71.3,74.9,71.4z"/>
<path class="st12" d="M75.2,69.5c-0.1,0-0.1-0.1-0.1-0.1C75.2,69.3,75.3,69.5,75.2,69.5z"/>
<path class="st12" d="M75.4,89.1c-0.7,0.6-1.4,1.2-2.1,1.8c-0.1,0-0.2-0.1-0.1-0.1c0.7-0.6,1.4-1.2,2.1-1.8
	C75.3,88.9,75.4,89.1,75.4,89.1z"/>
<path class="st12" d="M75.5,68.9L75.3,69c0,0,0,0,0,0c0,0,0,0,0,0c0,0,0-0.1,0-0.1c0-0.1,0.1-0.1,0.2-0.2c0,0,0,0,0,0c0,0,0,0,0,0
	C75.5,68.8,75.6,68.8,75.5,68.9z"/>
<path class="st14" d="M56.2,113.2c-0.2,0.2-0.4,0.3-0.6,0.4c0,0-0.2-0.1-0.1-0.1c0.2-0.2,0.4-0.3,0.6-0.5
	C56.1,113.1,56.2,113.2,56.2,113.2z"/>
<path class="st14" d="M56.4,113.6C56.4,113.6,56.4,113.7,56.4,113.6c-0.2,0.1-0.3,0.2-0.4,0.3c0,0-0.1,0-0.1,0c0,0,0,0,0-0.1
	c0,0,0,0,0,0c0.1-0.1,0.3-0.2,0.4-0.3C56.4,113.5,56.4,113.6,56.4,113.6C56.4,113.6,56.4,113.6,56.4,113.6z"/>
<path class="st14" d="M70.3,112.1l-0.4,0.6c0,0.1-0.2-0.1-0.1-0.1l0.4-0.6C70.2,112,70.3,112.1,70.3,112.1z"/>
<path class="st14" d="M70.4,112.8c0,0.1-0.1,0.1-0.2,0.2c0,0,0,0,0,0c0,0,0,0,0,0c0,0,0-0.1,0-0.1c0,0,0.1-0.1,0.2-0.2c0,0,0,0,0,0
	c0,0,0,0,0,0C70.4,112.8,70.5,112.8,70.4,112.8z"/>
<path class="st14" d="M60.8,94.3c-0.3,0.2-0.5,0.4-0.8,0.7c0,0-0.2-0.1-0.1-0.1c0.3-0.2,0.5-0.4,0.8-0.7
	C60.7,94.2,60.8,94.3,60.8,94.3z"/>
<path class="st14" d="M60,95.4C60,95.5,60,95.5,60,95.4c-0.1,0.1-0.2,0.2-0.4,0.2c0,0-0.1,0-0.1,0c0,0,0,0,0,0c0,0,0,0,0,0
	c0.1,0,0.2-0.1,0.3-0.2C59.9,95.3,59.9,95.4,60,95.4C60,95.4,60,95.4,60,95.4z"/>
<path class="st14" d="M69.2,88.1C69.2,88.1,69.2,88.1,69.2,88.1c-0.3-0.2-0.5-0.4-0.8-0.6c0,0,0-0.1,0-0.1c0,0,0.1,0,0.1,0
	c0.2,0.2,0.4,0.3,0.7,0.5C69.2,88,69.2,88.1,69.2,88.1z"/>
<path class="st14" d="M69.1,88.7C69.1,88.7,69,88.7,69.1,88.7c-0.2-0.1-0.3-0.2-0.4-0.2c0,0-0.1-0.1-0.1-0.1c0,0,0,0,0.1,0
	c0.1,0.1,0.2,0.2,0.3,0.3C69,88.6,69.1,88.7,69.1,88.7z"/>
<path class="st14" d="M61.9,90.3c-0.4,0.5-0.9,0.9-1.5,1.3c-0.1,0-0.2-0.1-0.1-0.1c0.5-0.4,1-0.8,1.5-1.3
	C61.8,90.1,61.9,90.2,61.9,90.3z"/>
<path class="st14" d="M75.4,89.1c-0.7,0.6-1.4,1.2-2.1,1.8c-0.1,0-0.2-0.1-0.1-0.1c0.7-0.6,1.4-1.2,2.1-1.8
	C75.3,88.9,75.4,89.1,75.4,89.1z"/>
<path class="st14" d="M74.8,87.7c-0.1,0-0.1-0.2,0-0.2C74.8,87.6,74.9,87.7,74.8,87.7z"/>
<path class="st14" d="M69.2,93.6c-0.1,0-0.1-0.1,0-0.1C69.2,93.5,69.3,93.6,69.2,93.6z"/>
<path class="st14" d="M55.7,92.5c0,0-0.1-0.2,0-0.2C55.7,92.4,55.8,92.5,55.7,92.5z"/>
<path class="st14" d="M56.1,90.8c-0.1,0-0.1-0.1,0-0.1C56.1,90.7,56.1,90.8,56.1,90.8z"/>
<path class="st14" d="M57.4,100c-0.1,0-0.1-0.2-0.1-0.2C57.5,99.8,57.5,100,57.4,100z"/>
<path class="st14" d="M57.5,74.3c-0.1,0.1-0.2,0.2-0.3,0.3c0,0,0,0,0,0c0,0,0,0,0,0c0,0,0-0.1,0-0.1c0.1-0.1,0.2-0.2,0.3-0.3
	c0,0,0,0,0,0c0,0,0,0,0,0C57.5,74.2,57.5,74.3,57.5,74.3z"/>
<path class="st14" d="M57.3,75.2c0,0.1-0.1,0.3-0.2,0.4c0,0-0.1,0-0.1,0c0,0,0-0.1,0-0.1c0-0.1,0.1-0.3,0.2-0.4c0,0,0.1,0,0.1,0
	C57.3,75.1,57.3,75.2,57.3,75.2z"/>
<path class="st14" d="M69,71.5c-0.2,0.2-0.3,0.4-0.5,0.6c0,0-0.1,0-0.1,0c0,0,0-0.1,0-0.1c0.2-0.2,0.3-0.4,0.5-0.6c0,0,0.1,0,0.1,0
	C69,71.4,69.1,71.4,69,71.5z"/>
<path class="st14" d="M69.2,73.1c-0.1,0.2-0.2,0.3-0.4,0.4c0,0-0.1,0-0.1,0c0,0,0-0.1,0-0.1c0.2-0.1,0.3-0.3,0.4-0.4
	c0,0,0.1,0,0.1,0C69.2,73,69.2,73,69.2,73.1z"/>
<path class="st14" d="M75.5,68.9L75.3,69c0,0,0,0,0,0c0,0,0,0,0,0c0,0,0-0.1,0-0.1c0-0.1,0.1-0.1,0.2-0.2c0,0,0,0,0,0c0,0,0,0,0,0
	C75.5,68.8,75.6,68.8,75.5,68.9z"/>
<path class="st14" d="M75.2,69.5c-0.1,0-0.1-0.1-0.1-0.1C75.2,69.3,75.3,69.5,75.2,69.5z"/>
<path class="st14" d="M72,74c-0.1,0-0.1-0.1,0-0.1C72,73.8,72.1,74,72,74z"/>
<path class="st14" d="M72.1,73.5c-0.1,0-0.1-0.1,0-0.1C72.1,73.3,72.2,73.5,72.1,73.5z"/>
<path class="st14" d="M74.9,71.4C74.9,71.4,74.9,71.5,74.9,71.4C74.9,71.5,74.8,71.5,74.9,71.4c-0.2,0-0.3-0.2-0.3-0.3c0,0,0,0,0,0
	c0,0,0,0,0,0c0,0,0,0,0,0c0,0,0,0,0,0c0,0,0,0,0,0c0,0,0,0,0,0c0,0,0,0,0,0C74.9,71.2,74.9,71.3,74.9,71.4z"/>
<path class="st12" d="M76.2,65.9v-0.5C76.2,65.6,76.2,65.7,76.2,65.9z"/>
<path class="st12" d="M55.7,92.5c0,0-0.1-0.2,0-0.2C55.7,92.4,55.8,92.5,55.7,92.5z"/>
<path class="st12" d="M56.1,90.8c-0.1,0-0.1-0.1,0-0.1C56.1,90.7,56.1,90.8,56.1,90.8z"/>
<path class="st12" d="M56.2,113.2c-0.2,0.2-0.4,0.3-0.6,0.4c0,0-0.2-0.1-0.1-0.1c0.2-0.2,0.4-0.3,0.6-0.5
	C56.1,113.1,56.2,113.2,56.2,113.2z"/>
<path class="st12" d="M56.4,113.6C56.4,113.6,56.4,113.7,56.4,113.6c-0.2,0.1-0.3,0.2-0.4,0.3c0,0-0.1,0-0.1,0c0,0,0,0,0-0.1
	c0,0,0,0,0,0c0.1-0.1,0.3-0.2,0.4-0.3C56.4,113.5,56.4,113.6,56.4,113.6C56.4,113.6,56.4,113.6,56.4,113.6z"/>
<path class="st12" d="M57.3,75.2c0,0.1-0.1,0.3-0.2,0.4c0,0-0.1,0-0.1,0c0,0,0-0.1,0-0.1c0-0.1,0.1-0.3,0.2-0.4c0,0,0.1,0,0.1,0
	C57.3,75.1,57.3,75.2,57.3,75.2z"/>
<path class="st12" d="M57.4,100c-0.1,0-0.1-0.2-0.1-0.2C57.5,99.8,57.5,100,57.4,100z"/>
<path class="st12" d="M57.5,74.3c-0.1,0.1-0.2,0.2-0.3,0.3c0,0,0,0,0,0c0,0,0,0,0,0c0,0,0-0.1,0-0.1c0.1-0.1,0.2-0.2,0.3-0.3
	c0,0,0,0,0,0c0,0,0,0,0,0C57.5,74.2,57.5,74.3,57.5,74.3z"/>
<path class="st12" d="M60,95.4C60,95.5,60,95.5,60,95.4c-0.1,0.1-0.2,0.2-0.4,0.2c0,0-0.1,0-0.1,0c0,0,0,0,0,0c0,0,0,0,0,0
	c0.1,0,0.2-0.1,0.3-0.2C59.9,95.3,59.9,95.4,60,95.4C60,95.4,60,95.4,60,95.4z"/>
<path class="st12" d="M60.8,94.3c-0.3,0.2-0.5,0.4-0.8,0.7c0,0-0.2-0.1-0.1-0.1c0.3-0.2,0.5-0.4,0.8-0.7
	C60.7,94.2,60.8,94.3,60.8,94.3z"/>
<path class="st12" d="M61.9,90.3c-0.4,0.5-0.9,0.9-1.5,1.3c-0.1,0-0.2-0.1-0.1-0.1c0.5-0.4,1-0.8,1.5-1.3
	C61.8,90.1,61.9,90.2,61.9,90.3z"/>
<path class="st12" d="M67.1,69.6C67,69.6,67,69.6,67.1,69.6L67,69.5h-0.2c0,0,0,0,0-0.1H67C67,69.5,67.1,69.6,67.1,69.6z"/>
<path class="st12" d="M69,71.5c-0.2,0.2-0.3,0.4-0.5,0.6c0,0-0.1,0-0.1,0c0,0,0-0.1,0-0.1c0.2-0.2,0.3-0.4,0.5-0.6c0,0,0.1,0,0.1,0
	C69,71.4,69.1,71.4,69,71.5z"/>
<path class="st12" d="M69.1,88.7C69.1,88.7,69,88.7,69.1,88.7c-0.2-0.1-0.3-0.2-0.4-0.2c0,0-0.1-0.1-0.1-0.1c0,0,0,0,0.1,0
	c0.1,0.1,0.2,0.2,0.3,0.3C69,88.6,69.1,88.7,69.1,88.7z"/>
<path class="st12" d="M69.2,93.6c-0.1,0-0.1-0.1,0-0.1C69.2,93.5,69.3,93.6,69.2,93.6z"/>
<path class="st12" d="M69.2,73.1c-0.1,0.2-0.2,0.3-0.4,0.4c0,0-0.1,0-0.1,0c0,0,0-0.1,0-0.1c0.2-0.1,0.3-0.3,0.4-0.4
	c0,0,0.1,0,0.1,0C69.2,73,69.2,73,69.2,73.1z"/>
<path class="st12" d="M69.2,88.1C69.2,88.1,69.2,88.1,69.2,88.1c-0.3-0.2-0.5-0.4-0.8-0.6c0,0,0-0.1,0-0.1c0,0,0.1,0,0.1,0
	c0.2,0.2,0.4,0.3,0.7,0.5C69.2,88,69.2,88.1,69.2,88.1z"/>
<path class="st12" d="M70.3,112.1l-0.4,0.6c0,0.1-0.2-0.1-0.1-0.1l0.4-0.6C70.2,112,70.3,112.1,70.3,112.1z"/>
<path class="st12" d="M70.4,112.8c0,0.1-0.1,0.1-0.2,0.2c0,0,0,0,0,0c0,0,0,0,0,0c0,0,0-0.1,0-0.1c0,0,0.1-0.1,0.2-0.2c0,0,0,0,0,0
	c0,0,0,0,0,0C70.4,112.8,70.5,112.8,70.4,112.8z"/>
<path class="st12" d="M72,74c-0.1,0-0.1-0.1,0-0.1C72,73.8,72.1,74,72,74z"/>
<path class="st12" d="M72.1,73.5c-0.1,0-0.1-0.1,0-0.1C72.1,73.3,72.2,73.5,72.1,73.5z"/>
<path class="st12" d="M74.8,87.7c-0.1,0-0.1-0.2,0-0.2C74.8,87.6,74.9,87.7,74.8,87.7z"/>
<path class="st12" d="M74.9,71.4C74.9,71.4,74.9,71.5,74.9,71.4C74.9,71.5,74.8,71.5,74.9,71.4c-0.2,0-0.3-0.2-0.3-0.3c0,0,0,0,0,0
	c0,0,0,0,0,0c0,0,0,0,0,0c0,0,0,0,0,0c0,0,0,0,0,0c0,0,0,0,0,0c0,0,0,0,0,0C74.9,71.2,74.9,71.3,74.9,71.4z"/>
<path class="st12" d="M75.2,69.5c-0.1,0-0.1-0.1-0.1-0.1C75.2,69.3,75.3,69.5,75.2,69.5z"/>
<path class="st12" d="M75.4,89.1c-0.7,0.6-1.4,1.2-2.1,1.8c-0.1,0-0.2-0.1-0.1-0.1c0.7-0.6,1.4-1.2,2.1-1.8
	C75.3,88.9,75.4,89.1,75.4,89.1z"/>
<path class="st12" d="M75.5,68.9L75.3,69c0,0,0,0,0,0c0,0,0,0,0,0c0,0,0-0.1,0-0.1c0-0.1,0.1-0.1,0.2-0.2c0,0,0,0,0,0c0,0,0,0,0,0
	C75.5,68.8,75.6,68.8,75.5,68.9z"/>
<path class="st12" d="M69.4,119L69.4,119L69.4,119C69.4,119,69.4,119,69.4,119L69.4,119C69.4,119,69.4,119,69.4,119z"/>
<path class="st12" d="M79.6,119L79.6,119H69.4c0,0,0,0,0,0l0-1.9h0c0,0,0.1,0,0.1,0c0.4,0.4,1.4,0.7,2.4,0.7c0.6,0,2,0,2,0
	s0-0.5,0.2-0.7c0.2,0,5.6,1.2,5.6,1.2C79.7,118.3,79.7,118.7,79.6,119z"/>
<path class="st11" d="M69.4,119L69.4,119L69.4,119C69.4,119,69.4,119,69.4,119L69.4,119C69.4,119,69.4,119,69.4,119z"/>
<path class="st11" d="M79.7,119.1c0,0.1-0.1,0.1-0.1,0.1H69.4c-0.1,0-0.1-0.1-0.1-0.1c0-0.1,0.1-0.1,0.1-0.1v0h0.1c0,0,0,0,0,0h10.1
	h0C79.6,119,79.7,119,79.7,119.1z"/>
<path class="st12" d="M61.8,119.2C61.8,119.2,61.7,119.3,61.8,119.2L61.8,119.2C61.7,119.2,61.7,119.2,61.8,119.2z"/>
<path class="st12" d="M61.9,119C61.9,119,61.9,119,61.9,119H51.7c0,0,0,0,0,0l0-1.9c0,0,0.1,0,0.1,0c0,0,0.1,0.1,0.1,0.1
	c0.5,0.3,1.4,0.6,2.2,0.6c0.6,0,2,0,2,0s0-0.5,0.2-0.7c0,0,0,0,0,0c0.6,0.1,5.6,1.2,5.6,1.2C62,118.3,62,118.7,61.9,119z"/>
<path class="st14" d="M56.2,113.2c-0.2,0.2-0.4,0.3-0.6,0.4c0,0-0.2-0.1-0.1-0.1c0.2-0.2,0.4-0.3,0.6-0.5
	C56.1,113.1,56.2,113.2,56.2,113.2z"/>
<path class="st14" d="M56.4,113.6C56.4,113.6,56.4,113.7,56.4,113.6c-0.2,0.1-0.3,0.2-0.4,0.3c0,0-0.1,0-0.1,0c0,0,0,0,0-0.1
	c0,0,0,0,0,0c0.1-0.1,0.3-0.2,0.4-0.3C56.4,113.5,56.4,113.6,56.4,113.6C56.4,113.6,56.4,113.6,56.4,113.6z"/>
<path class="st14" d="M70.3,112.1l-0.4,0.6c0,0.1-0.2-0.1-0.1-0.1l0.4-0.6C70.2,112,70.3,112.1,70.3,112.1z"/>
<path class="st14" d="M70.4,112.8c0,0.1-0.1,0.1-0.2,0.2c0,0,0,0,0,0c0,0,0,0,0,0c0,0,0-0.1,0-0.1c0,0,0.1-0.1,0.2-0.2c0,0,0,0,0,0
	c0,0,0,0,0,0C70.4,112.8,70.5,112.8,70.4,112.8z"/>
<path class="st14" d="M60.8,94.3c-0.3,0.2-0.5,0.4-0.8,0.7c0,0-0.2-0.1-0.1-0.1c0.3-0.2,0.5-0.4,0.8-0.7
	C60.7,94.2,60.8,94.3,60.8,94.3z"/>
<path class="st14" d="M60,95.4C60,95.5,60,95.5,60,95.4c-0.1,0.1-0.2,0.2-0.4,0.2c0,0-0.1,0-0.1,0c0,0,0,0,0,0c0,0,0,0,0,0
	c0.1,0,0.2-0.1,0.3-0.2C59.9,95.3,59.9,95.4,60,95.4C60,95.4,60,95.4,60,95.4z"/>
<path class="st14" d="M69.2,88.1C69.2,88.1,69.2,88.1,69.2,88.1c-0.3-0.2-0.5-0.4-0.8-0.6c0,0,0-0.1,0-0.1c0,0,0.1,0,0.1,0
	c0.2,0.2,0.4,0.3,0.7,0.5C69.2,88,69.2,88.1,69.2,88.1z"/>
<path class="st14" d="M69.1,88.7C69.1,88.7,69,88.7,69.1,88.7c-0.2-0.1-0.3-0.2-0.4-0.2c0,0-0.1-0.1-0.1-0.1c0,0,0,0,0.1,0
	c0.1,0.1,0.2,0.2,0.3,0.3C69,88.6,69.1,88.7,69.1,88.7z"/>
<path class="st14" d="M61.9,90.3c-0.4,0.5-0.9,0.9-1.5,1.3c-0.1,0-0.2-0.1-0.1-0.1c0.5-0.4,1-0.8,1.5-1.3
	C61.8,90.1,61.9,90.2,61.9,90.3z"/>
<path class="st14" d="M75.4,89.1c-0.7,0.6-1.4,1.2-2.1,1.8c-0.1,0-0.2-0.1-0.1-0.1c0.7-0.6,1.4-1.2,2.1-1.8
	C75.3,88.9,75.4,89.1,75.4,89.1z"/>
<path class="st14" d="M74.8,87.7c-0.1,0-0.1-0.2,0-0.2C74.8,87.6,74.9,87.7,74.8,87.7z"/>
<path class="st14" d="M69.2,93.6c-0.1,0-0.1-0.1,0-0.1C69.2,93.5,69.3,93.6,69.2,93.6z"/>
<path class="st14" d="M55.7,92.5c0,0-0.1-0.2,0-0.2C55.7,92.4,55.8,92.5,55.7,92.5z"/>
<path class="st14" d="M56.1,90.8c-0.1,0-0.1-0.1,0-0.1C56.1,90.7,56.1,90.8,56.1,90.8z"/>
<path class="st14" d="M57.4,100c-0.1,0-0.1-0.2-0.1-0.2C57.5,99.8,57.5,100,57.4,100z"/>
<path class="st14" d="M57.5,74.3c-0.1,0.1-0.2,0.2-0.3,0.3c0,0,0,0,0,0c0,0,0,0,0,0c0,0,0-0.1,0-0.1c0.1-0.1,0.2-0.2,0.3-0.3
	c0,0,0,0,0,0c0,0,0,0,0,0C57.5,74.2,57.5,74.3,57.5,74.3z"/>
<path class="st14" d="M57.3,75.2c0,0.1-0.1,0.3-0.2,0.4c0,0-0.1,0-0.1,0c0,0,0-0.1,0-0.1c0-0.1,0.1-0.3,0.2-0.4c0,0,0.1,0,0.1,0
	C57.3,75.1,57.3,75.2,57.3,75.2z"/>
<path class="st14" d="M69,71.5c-0.2,0.2-0.3,0.4-0.5,0.6c0,0-0.1,0-0.1,0c0,0,0-0.1,0-0.1c0.2-0.2,0.3-0.4,0.5-0.6c0,0,0.1,0,0.1,0
	C69,71.4,69.1,71.4,69,71.5z"/>
<path class="st14" d="M69.2,73.1c-0.1,0.2-0.2,0.3-0.4,0.4c0,0-0.1,0-0.1,0c0,0,0-0.1,0-0.1c0.2-0.1,0.3-0.3,0.4-0.4
	c0,0,0.1,0,0.1,0C69.2,73,69.2,73,69.2,73.1z"/>
<path class="st14" d="M75.5,68.9L75.3,69c0,0,0,0,0,0c0,0,0,0,0,0c0,0,0-0.1,0-0.1c0-0.1,0.1-0.1,0.2-0.2c0,0,0,0,0,0c0,0,0,0,0,0
	C75.5,68.8,75.6,68.8,75.5,68.9z"/>
<path class="st14" d="M75.2,69.5c-0.1,0-0.1-0.1-0.1-0.1C75.2,69.3,75.3,69.5,75.2,69.5z"/>
<path class="st14" d="M72,74c-0.1,0-0.1-0.1,0-0.1C72,73.8,72.1,74,72,74z"/>
<path class="st14" d="M72.1,73.5c-0.1,0-0.1-0.1,0-0.1C72.1,73.3,72.2,73.5,72.1,73.5z"/>
<path class="st14" d="M74.9,71.4C74.9,71.4,74.9,71.5,74.9,71.4C74.9,71.5,74.8,71.5,74.9,71.4c-0.2,0-0.3-0.2-0.3-0.3c0,0,0,0,0,0
	c0,0,0,0,0,0c0,0,0,0,0,0c0,0,0,0,0,0c0,0,0,0,0,0c0,0,0,0,0,0c0,0,0,0,0,0C74.9,71.2,74.9,71.3,74.9,71.4z"/>
<path class="st12" d="M76.2,65.9v-0.5C76.2,65.6,76.2,65.7,76.2,65.9z"/>
<path class="st11" d="M62,119.1c0,0.1-0.1,0.1-0.1,0.1h-0.2c0,0,0,0,0.1,0c0,0,0,0-0.1,0h-9.9c-0.1,0-0.2-0.1-0.2-0.1
	c0-0.1,0-0.1,0.1-0.1c0,0,0,0,0,0h10.1h0C62,119,62,119,62,119.1z"/>
<path class="st11" d="M61.8,119.2C61.8,119.2,61.7,119.3,61.8,119.2L61.8,119.2C61.7,119.2,61.7,119.2,61.8,119.2z"/>
<path class="st11" d="M57.9,109.6c0.1-0.3,0.2-0.6,0.2-1c0.2-0.9,0.4-1.9,0.6-2.8C58.5,107.2,58.2,108.4,57.9,109.6z M69,110.9
	C69,110.9,69,110.9,69,110.9c0,0.1,0,0.2,0,0.3C69,111,69,110.9,69,110.9z"/>
<path class="st11" d="M52.9,107.8c0,0.1,0,0.2,0,0.3c0,0,0,0.1,0,0.1c0,0.1,0,0.2,0,0.2c0,0,0,0.1,0,0.1c0,0.1,0,0.1,0,0.1
	c0,0.1,0,0.2,0,0.3c0,0.1,0,0.1,0,0.2c0,0.3-0.1,0.6-0.1,0.9c-0.2,1.8-0.4,4.1-0.5,5c0.1-1.2,0.5-4.5,0.7-7.1c0-0.2,0-0.3,0-0.5
	C52.9,107.6,52.9,107.7,52.9,107.8z"/>
<path class="st15" d="M63.7,26.4c0,0,3.2-0.1,4.7,0.5c1.5,0.6,0.4,3,0.4,3s-2.1,0.3-3.5,0c-1.4-0.3-2.3-0.7-2.3-0.7L63.7,26.4z"/>
<path class="st13" d="M71.5,42.8c-0.1-0.3-0.3-0.6-0.3-0.8c-0.1-0.2-0.5-1.1-0.6-1.4c-0.1-0.3-0.6-1.7-0.9-2.8l-0.2-1.6
	c0.2-0.2,0.6-0.3,1-0.4c0.2,0,0.4-0.1,0.6-0.1l0.1,1.8L71.5,42.8z"/>
<path class="st13" d="M75.3,42.6c-0.2-0.6-0.4-1.2-0.6-1.8c-0.1-0.3-0.2-0.7-0.4-1.1l-0.4-1c-0.1-0.3-0.3-0.7-0.4-1
	c-0.2-0.3-0.3-0.7-0.5-1c0,0,0,0,0,0h0c0.2,0.3,0.4,0.7,0.5,1c0.2,0.3,0.3,0.7,0.4,1l0.4,1c0.1,0.3,0.2,0.7,0.4,1.1
	c0.2,0.4,0.3,0.9,0.4,1.3C75.3,42.2,75.3,42.4,75.3,42.6z"/>
<path class="st13" d="M79.7,46.3c-0.1,0-0.1,0-0.2,0C79.5,46.2,79.6,46.2,79.7,46.3C79.7,46.2,79.7,46.3,79.7,46.3z"/>
<path class="st13" d="M95.8,60.8c-0.7,0.1-3.1-1.8-3.7-2c0.4,0.6,2.4,2.9,2.2,3c-0.2,0.3-1.2-0.2-2.2-1.1c0.5,0.6,0.7,1.1,0.5,1.3
	c-0.3,0.3-1.6-0.6-3.1-1.9c0,0-0.1-0.1-0.1-0.1c-0.2-0.2-0.5-0.5-0.8-0.8l0,0c-0.5-0.4-1-0.8-1.1-0.7c-0.1,0.7,2.1,2.4,2,3
	c-0.1,0.6-2-0.7-3.7-1.9c-0.1-0.1-0.2-0.1-0.3-0.2c0,0-0.1-0.1-0.1-0.1c1-0.7,2.6-1.8,2.8-1.9c0,0,0,0,0.1-0.1
	c0.4-0.3,1.8-1.2,2.2-1.5l0,0c-0.2,0.1-1.1,0.8-2.1,1.5c0,0-0.1,0-0.1,0.1c-1.1,0.8-2.3,1.6-2.7,1.9l0.1-0.1l2.8-1.8l0.1,0l1.8-1.2
	l0.3-0.2c0.5,0.3,1,0.5,1.2,0.7c0.9,0.7,1.7,1.5,2.5,2.3C94.7,59,96.3,60.7,95.8,60.8z"/>
<path class="st16" d="M88.5,57.3C88.4,57.3,88.4,57.3,88.5,57.3c-0.1,0.1-0.2,0-0.3,0c0,0,0,0,0.1-0.1
	C88.4,57.3,88.4,57.3,88.5,57.3z"/>
<path class="st16" d="M91.1,58.3c-0.4-0.2-0.8-0.4-1.1-0.6c-0.4-0.2-0.8-0.3-1.2-0.3c-0.1,0-0.1,0-0.1,0l0.1,0c0,0,0,0,0.1,0
	c0.4,0,0.9,0.1,1.2,0.3C90.3,57.9,90.7,58.1,91.1,58.3z"/>
<path class="st16" d="M92.4,60.7l-1.1-1.2c-0.2-0.2-0.4-0.4-0.6-0.6c-0.2-0.2-0.4-0.4-0.6-0.5c0.2,0.2,0.4,0.4,0.5,0.6
	c0.2,0.2,0.4,0.4,0.6,0.6L92.4,60.7C92.4,60.7,92.4,60.7,92.4,60.7C92.4,60.7,92.4,60.7,92.4,60.7z"/>
<path class="st16" d="M91.5,61.5l-1.7-1.4c-0.3-0.2-0.6-0.5-0.8-0.7c-0.3-0.2-0.6-0.4-0.9-0.7c0.3,0.2,0.6,0.5,0.8,0.7
	c0.3,0.2,0.6,0.5,0.9,0.7L91.5,61.5C91.5,61.5,91.5,61.5,91.5,61.5z"/>
<path class="st15" d="M88.5,53.8L88.5,53.8L88.5,53.8L88.5,53.8z M80.3,46.3c-0.2,0-0.4,0-0.7,0c-0.1,0-0.1,0-0.2,0
	c0.1,0,0.1,0,0.2,0c0.2-0.1,0.5-0.1,0.7-0.1c0.3,0,0.6,0,0.9,0C80.9,46.2,80.6,46.2,80.3,46.3z M88.1,53.1C88.1,53.1,88,53,88,53
	c-0.9-0.8-1.7-1.6-2.5-2.4c-0.2-0.2-0.4-0.4-0.5-0.6c-3.8-4-9.8-19-13.7-20.6l-0.1,0.3l0,0l-1.3,3.6l-0.1,0.2l0.2,0.2l1.2,1.1l0,0.9
	l0.1,1.8l0.3,5.4l0.7,12.3l0.5,9c0.6,1.4,1.2,2.3,1.8,2.2c0.4-0.1,0.8-0.1,1.2-0.1c0,0,0.1,0,0.2,0c0.8-0.1,1.6-0.2,2.4-0.2
	c0.2,0,0.8-0.1,1-0.1c0,0-0.5-3.9-0.7-6.3c0-0.1-0.1-0.7-0.1-1.5c0-0.5-0.1-1.1-0.1-1.7c0-0.9-0.1-1.9-0.2-2.9
	c0.7,0.8,1.4,1.6,1.7,1.9c0.3,0.3,0.6,0.7,1,1c0.3,0.3,0.6,0.6,0.9,0.8c0.2,0.2,0.4,0.4,0.6,0.6c0.2,0.2,0.5,0.5,0.9,0.9
	c0,0,0,0,0,0l0,0c0,0,0,0,0,0c0,0,0,0,0,0c0,0,0.1,0.1,0.2,0.1c0.1,0.1,0.2,0.2,0.3,0.3l0.5-0.5l0.1-0.1l3.8-3.7l0.1-0.1l0.5-0.4
	l0,0l0.1-0.1l0-0.1C88.8,53.7,88.5,53.4,88.1,53.1z"/>
<path class="st14" d="M90.7,55.7c0,0-0.1,0.1-0.1,0.1c-0.4,0.3-1.9,1.2-2.2,1.5c0,0-0.1,0-0.1,0.1c-0.1,0.1-1.7,1.2-2.8,1.9
	c-0.4,0.3-0.7,0.5-0.8,0.6c0,0,0,0,0,0c-0.2-0.2-0.4-0.3-0.6-0.5l-0.4-0.4h0c0.1,0.1,0.2,0.2,0.3,0.3l0.5-0.5l0.1-0.1l3.8-3.7
	l0.1-0.1l0.5-0.4l0.6,0.5C89.9,55,90.3,55.4,90.7,55.7z"/>
<path class="st14" d="M91,55.8l-0.2,0.1l-0.3,0.2l-1.8,1.2l-0.1,0l-2.8,1.8l-0.1,0.1c0.4-0.3,1.6-1.1,2.7-1.9c0,0,0.1,0,0.1-0.1
	c1-0.7,1.9-1.4,2.1-1.5c0,0,0.1-0.1,0.1-0.1L89,54.1l0.1-0.1c0.5,0.5,1,0.9,1.2,1.1C90.5,55.4,90.8,55.6,91,55.8z"/>
<path class="st14" d="M83.6,58.8l0.4,0.4C83.9,59.1,83.7,59,83.6,58.8L83.6,58.8z"/>
<path class="st14" d="M90.7,55.7c0,0-0.1,0-0.1,0.1c-0.2,0.1-1.1,0.8-2.1,1.5c0,0,0,0-0.1,0.1c-1.1,0.8-2.3,1.6-2.7,1.9c0,0,0,0,0,0
	c0,0,0,0,0,0l0,0c0,0,0,0,0,0l0,0l-0.8,0.5c0,0-0.1-0.1-0.1-0.1c0.1-0.1,0.4-0.3,0.8-0.6c1-0.7,2.6-1.8,2.8-1.9c0,0,0,0,0.1-0.1
	c0.4-0.3,1.8-1.2,2.2-1.5C90.6,55.8,90.6,55.7,90.7,55.7c-0.4-0.3-0.8-0.6-1.1-1L89,54.2l0,0L90.7,55.7z"/>
<path class="st16" d="M89,54.2L89,54.2l0.6,0.6c0.4,0.3,0.7,0.6,1.1,1c0,0-0.1,0-0.1,0.1c-0.4,0.3-1.9,1.2-2.2,1.5
	c-0.1,0-0.1,0-0.1,0.1c-0.1,0.1-1.7,1.2-2.8,1.9c-0.4,0.3-0.7,0.5-0.8,0.6c0,0-0.1,0-0.1,0L84,59.2l-0.4-0.4c0,0-0.1-0.1-0.1-0.2
	c0,0,0,0,0,0s0,0,0,0c0,0-0.1-0.1-0.1-0.1c0,0,0,0,0,0l0,0c0,0,0,0.1,0,0.1l1.2,1.3c0,0,0.1,0,0.1,0l1-0.7c0,0,0,0,0,0c0,0,0,0,0,0
	l0,0c0,0,0,0,0,0c0,0,0,0,0,0c0.4-0.3,1.6-1.1,2.7-1.9c0,0,0.1,0,0.1-0.1c1-0.7,1.9-1.4,2.1-1.5c0,0,0.1,0,0.1-0.1L89,54.2z"/>
<path class="st17" d="M71.2,29.4l-0.1,0.3l0,0l-1.3,3.6c-0.1-0.4-0.2-0.8-0.3-1.2c-0.3-1.6-0.2-2.7,0.9-2.9
	C70.6,29.2,70.9,29.3,71.2,29.4z"/>
<path class="st17" d="M71.2,37.5c-0.2-0.6-0.4-1.1-0.7-1.7c-0.3-0.7-0.5-1.4-0.7-2.1l1.2,1.1l0.1,0.9L71.2,37.5z"/>
<path class="st17" d="M81.2,46.1c-0.3,0.1-0.6,0.1-0.8,0.2c-0.2,0-0.4,0-0.7,0c-0.1,0-0.1,0-0.2,0c0,0,0.1,0,0.2,0
	c0.2-0.1,0.5-0.1,0.7-0.1C80.6,46.1,80.9,46,81.2,46.1z"/>
<path class="st17" d="M75.3,42.6c-0.2-0.6-0.4-1.2-0.6-1.8c-0.1-0.3-0.2-0.7-0.4-1.1l-0.4-1c-0.1-0.3-0.3-0.7-0.4-1
	c-0.2-0.3-0.3-0.7-0.5-1c0,0,0,0,0,0h0c0.2,0.3,0.4,0.7,0.5,1c0.2,0.3,0.3,0.7,0.4,1l0.4,1c0.1,0.3,0.2,0.7,0.4,1.1
	c0.2,0.4,0.3,0.9,0.4,1.3C75.3,42.2,75.3,42.4,75.3,42.6z"/>
<path class="st17" d="M88.5,53.8L88.5,53.8L88.5,53.8L88.5,53.8z"/>
<path class="st16" d="M81.2,46.1c-0.3,0.1-0.6,0.1-0.8,0.2c-0.2,0-0.4,0-0.7,0c-0.1,0-0.1,0-0.2,0c0,0,0.1,0,0.2,0
	c0.2-0.1,0.5-0.1,0.7-0.1C80.6,46.1,80.9,46,81.2,46.1z"/>
<path class="st13" d="M52.8,51.4c-0.7,2.3-1.3,4.8-2.3,6.8L52.8,51.4z"/>
<path class="st13" d="M54.3,64.7c0,0,0,0.1,0,0.2c0,0,0,0,0,0c-0.5,1.5-0.6,3.2-1,4.8c-0.1,0.6-1,3.3-1.6,1.7
	c-0.1-0.2-0.1-0.8,0-1.4c0-0.9,0.1-1.9-0.1-2.2c-0.1-0.1-0.2-0.2-0.4-0.2c-0.1,0-0.2,0-0.3,0.1c0,0-0.1,0.1-0.1,0.1
	c-0.4,0.4-0.9,1.2-1.2,2l0,0c-0.1,0.2-0.2,0.4-0.2,0.6c0,0.1-0.1,0.3-0.1,0.3c0,0,0,0,0,0.1v0c-0.4,1.5-1,2.7-1.4,2.6
	c-0.1,0,0-0.9,0.1-1.8l0-0.1c0.1-0.6,0.2-1.2,0.2-1.5v0c0-0.1,0-0.1,0-0.2c-0.4,0.5-1.5,3.2-2.1,3.5c-0.4,0.2,0.1-2,0.1-2.2
	c0.3-1.1,0.6-2.1,1-3.1c0.2-0.7,0.5-1.5,0.8-2.2c0.1-0.2,0.2-0.4,0.3-0.6l0.7-2.2l4.7,1.6l0.2,0.1l-0.5-0.2
	c-0.6-0.2-1.2-0.4-1.7-0.7c-0.6-0.2-1.1-0.4-1.7-0.7c-0.3-0.1-0.6-0.2-0.8-0.3l0-0.1c0.3,0.1,0.6,0.2,0.8,0.3
	c0.6,0.2,1.2,0.4,1.8,0.6c0.6,0.2,1.2,0.4,1.7,0.6L54.3,64.7z"/>
<path class="st13" d="M68.1,30.4c-0.5,0.5-2.2,0.3-3,0c0-0.1-1.1-0.8-1.1-0.8c0.4,0-1-1.1,3.2-1.1c1.5,0,1.7,0.5,1.7,0.5L68.1,30.4z
	"/>
<path class="st13" d="M56.5,50.6c-0.3,0.1-0.6,0.2-0.8,0.2c-0.3,0-0.6,0.1-0.9,0c0.3-0.1,0.6-0.2,0.8-0.2
	C56,50.6,56.2,50.5,56.5,50.6z"/>
<path class="st14" d="M62.1,44.2c0,0.4-0.1,0.7-0.2,1.1c-0.1,0.4-0.1,0.7-0.2,1.1l-0.3,1.1c-0.1,0.2-0.1,0.4-0.2,0.6
	c0-0.1,0-0.2,0-0.3c0-0.1,0.1-0.2,0.1-0.4l0.3-1.1c0.1-0.4,0.2-0.7,0.2-1.1C62,44.9,62,44.6,62.1,44.2
	C62.1,44.2,62.1,44.2,62.1,44.2C62.1,44.2,62.1,44.2,62.1,44.2z"/>
<path class="st15" d="M49.7,60.1L49.7,60.1L49.7,60.1L49.7,60.1z M67.4,38.3c-0.2-1.3-0.4-2.6-0.7-3.8c-0.2-1.1-0.4-2.2-0.5-3.3
	c0-0.2,0-0.3-0.1-0.5c-1.7-0.6-2-1.4-2-1.4l-0.4-2.8c0,0-2.3-0.2-2.4,0.4c-0.1,0.4,1.1,2.7,1.1,2.7c-0.2,0-0.5-0.1-0.7-0.1
	c-0.3,0-0.6,0-0.8,0.1c0,0-0.1,0-0.1,0.1c0,0,0,0,0,0c-0.4,0.3-0.8,0.8-1,1.9l-5.3,15.5l-1.5,4.5c-0.7,2.3-1.3,4.8-2.3,6.8
	c-0.2,0.4-0.4,0.8-0.6,1.1c-0.3,0.4-0.5,0.7-0.8,1.1l0.1,0l0.1,0.1l0,0l0.3,0.2L50,61l4.6,2.7l0.1,0.1l0.6,0.3l0,0
	c0.1-0.1,0.2-0.2,0.2-0.3c0-0.1,0.1-0.1,0.1-0.2l0,0l0-0.1c0,0,0,0,0,0c0,0,0,0,0,0l0,0c0,0,0,0.1,0,0.1l-0.7,1.2
	c-0.1,0.7-0.2,1.1-0.1,1.1c0.2,0,0.5,0,0.8,0c0,0,0.1,0,0.1,0c2.9,0.1,9,0.7,9,0.7c0.5,0,0.9-0.2,1.3-0.6c1-1.1,1.4-3.5,1.7-6.2
	c0-0.3,0.2-4.5,0.2-4.7c0-0.8,0.1-1.6,0.1-2.4c0-0.5,0-1,0-1.4c0,0,0-0.1,0-0.2C68.3,46,67.8,41.1,67.4,38.3z"/>
<path class="st14" d="M71.7,55.1c-1.1,0-2.3,0-3.5,0c0.1-0.8,0.1-1.6,0.1-2.4c0-0.5,0-1.4,0-1.4c0,0-0.6-10.2-1-13
	c-0.2-1.3-0.4-2.6-0.7-3.8c-0.2-1.1-0.4-2.2-0.5-3.3c0-0.2,0-0.3,0-0.5c0.8,0.3,1.6,0.2,2-0.3l1,2.8l0,0l0.1,0.9l0.3,2.2l0.2,1.6
	l1.7,14.9l0.2,1.5L71.7,55.1z"/>
<path class="st14" d="M75.3,42.6c-0.2-0.6-0.4-1.2-0.6-1.8c-0.1-0.3-0.2-0.7-0.4-1.1l-0.4-1c-0.1-0.3-0.3-0.7-0.4-1
	c-0.2-0.3-0.3-0.7-0.5-1c0,0,0,0,0,0h0c0.2,0.3,0.4,0.7,0.5,1c0.2,0.3,0.3,0.7,0.4,1l0.4,1c0.1,0.3,0.2,0.7,0.4,1.1
	c0.2,0.4,0.3,0.9,0.4,1.3C75.3,42.2,75.3,42.4,75.3,42.6z"/>
<path class="st17" d="M75.3,42.1c-0.1-0.4-0.3-0.9-0.4-1.3c-0.1-0.3-0.2-0.7-0.4-1.1l-0.4-1c-0.1-0.3-0.3-0.7-0.4-1
	c-0.2-0.3-0.3-0.7-0.5-1c0,0,0,0,0,0c0,0,0,0,0,0c0.2,0.3,0.3,0.7,0.5,1c0.1,0.3,0.3,0.7,0.4,1l0.4,1c0.1,0.3,0.2,0.7,0.4,1.1
	c0.2,0.6,0.4,1.2,0.6,1.8C75.3,42.4,75.3,42.2,75.3,42.1z M72.3,55.1l-0.7-12.3l-0.3-5.4l-0.1-1.8l0-0.9l-1.2-1.1l-0.2-0.2l0.1-0.2
	l1.3-3.6l0,0c0,0,0,0,0,0c-0.1,0-0.2,0-0.3,0c0,0-0.1,0-0.1,0c-0.1,0-0.7,0-1-0.1c0,0,0,0,0,0c0,0,0,0.1,0,0.2c0,0.1,0,0.1,0,0.2
	c0,0.1-0.1,1.1-0.2,2.1c0,0.4-0.1,0.8-0.1,1.1c0,0.1,0,0.2,0,0.2c0,0.3,0,0.5,0,0.5l0.3,2.2l0.2,1.6l1.7,14.9l0.2,1.5l0.1,0.8l1.1,9
	L72.3,55.1z"/>
<path class="st17" d="M62.1,44.2c0,0.4-0.1,0.7-0.2,1.1c-0.1,0.4-0.1,0.7-0.2,1.1l-0.3,1.1c0,0.2-0.1,0.4-0.2,0.6
	c0,0.2-0.1,0.3-0.1,0.5c-0.4,1.4-0.9,2.9-1.4,4.3c-0.3,0.7-0.5,1.4-0.8,2.1c-0.3,0.7-0.6,1.4-0.8,2.1c-0.6,1.4-1.2,2.7-1.8,4.1
	c0,0,0,0,0,0c0,0,0,0,0,0c0.6-1.4,1.1-2.8,1.7-4.2c0.3-0.7,0.6-1.4,0.8-2.1s0.6-1.4,0.8-2.1c0.5-1.4,1-2.8,1.5-4.2
	c0.1-0.2,0.1-0.5,0.2-0.7c0-0.1,0.1-0.2,0.1-0.4l0.3-1.1c0.1-0.4,0.2-0.7,0.2-1.1C62,44.9,62,44.6,62.1,44.2
	C62.1,44.2,62.1,44.2,62.1,44.2C62.1,44.2,62.1,44.2,62.1,44.2z"/>
<path class="st17" d="M55.9,63.6l-0.7,1.2c0-0.1,0-0.1,0-0.2c0-0.1,0-0.1,0-0.2c0,0,0,0,0,0c0-0.1,0-0.1,0-0.2l0,0
	c0.1-0.1,0.2-0.2,0.2-0.4c0-0.1,0.1-0.1,0.1-0.2l0,0l0-0.1l0,0c0,0,0,0,0,0l0,0C55.9,63.5,55.9,63.5,55.9,63.6z"/>
<path class="st14" d="M55.3,64.1c0,0.1,0,0.1,0,0.2c-0.1,0.2-0.3,0.4-0.4,0.6c0,0,0,0,0,0l-0.6-0.2l-1-0.4c-0.6-0.2-1.2-0.4-1.7-0.6
	c-0.6-0.2-1.2-0.4-1.8-0.6c-0.3-0.1-0.6-0.2-0.8-0.3c-0.3-0.1-0.6-0.2-0.9-0.3c0.3-0.4,0.6-0.8,0.8-1.2l0.4-0.7l0.3,0.2L50,61
	l4.6,2.7l0.1,0L55.3,64.1z"/>
<path class="st14" d="M53.7,64.7l-0.2-0.1L48.8,63l-0.6-0.2l-0.5-0.2c0.2-0.2,0.3-0.5,0.5-0.7c0.2-0.3,0.5-0.8,0.9-1.4l0.1,0.1
	L48,62.5c0.3,0.1,0.6,0.2,0.9,0.4c0.3,0.1,0.6,0.2,0.8,0.3c0.6,0.2,1.1,0.4,1.7,0.7c0.6,0.2,1.1,0.4,1.7,0.7L53.7,64.7z"/>
<path class="st14" d="M54.8,64.9c0,0,0,0.1-0.1,0.1l-0.6-0.2l-0.5-0.2l-0.5-0.2c-0.6-0.2-1.2-0.4-1.7-0.7c-0.6-0.2-1.1-0.4-1.7-0.7
	c-0.3-0.1-0.6-0.2-0.8-0.3c-0.3-0.1-0.6-0.2-0.9-0.4l1.3-1.9l0,0l-0.4,0.7c-0.3,0.4-0.6,0.8-0.8,1.2c0.3,0.1,0.6,0.2,0.9,0.3
	c0.3,0.1,0.6,0.2,0.8,0.3c0.6,0.2,1.2,0.4,1.8,0.6c0.6,0.2,1.2,0.4,1.7,0.6l1,0.4L54.8,64.9z"/>
<path class="st14" d="M55.7,63.8c-0.1,0.1-0.2,0.3-0.3,0.4c0,0,0,0,0,0c0,0,0,0,0,0c0-0.1,0-0.1,0-0.2l0,0
	C55.4,64,55.5,63.9,55.7,63.8L55.7,63.8L55.7,63.8z"/>
<path class="st16" d="M55.9,63.4L55.9,63.4C55.8,63.4,55.8,63.4,55.9,63.4c-0.1,0-0.2,0.2-0.3,0.3c-0.1,0.1-0.2,0.3-0.3,0.5
	c0,0,0,0,0,0.1c-0.2,0.3-0.4,0.7-0.4,0.7l-0.1,0l-0.6-0.2l-1-0.4c-0.6-0.2-1.2-0.4-1.7-0.6c-0.6-0.2-1.2-0.4-1.8-0.6
	c-0.3-0.1-0.6-0.2-0.8-0.3c-0.3-0.1-0.6-0.2-0.9-0.3c0.3-0.4,0.6-0.8,0.8-1.2l0.4-0.7l0,0L48,62.5c0.3,0.1,0.6,0.2,0.9,0.4
	c0.3,0.1,0.6,0.2,0.8,0.3c0.6,0.2,1.1,0.4,1.7,0.7c0.6,0.2,1.1,0.4,1.7,0.7l0.5,0.2l0.4,0.2l0.7,0.3c0,0,0.1,0,0.1,0l0.2-0.4
	l0.7-1.2C55.9,63.5,55.9,63.5,55.9,63.4z"/>
<path class="st17" d="M54.3,46.9l-1.5,4.5c0.2-0.7,0.4-1.5,0.7-2.2C53.8,48.5,54.1,47.7,54.3,46.9z"/>
<path class="st17" d="M56.5,50.6c-0.3,0.1-0.6,0.2-0.8,0.2c-0.3,0-0.6,0.1-0.9,0c0.3-0.1,0.6-0.2,0.8-0.2
	C56,50.6,56.2,50.5,56.5,50.6z"/>
<path class="st17" d="M49.7,60L49.7,60L49.7,60L49.7,60z"/>
<path class="st17" d="M62.1,44.2c0,0.4-0.1,0.7-0.2,1.1c-0.1,0.4-0.1,0.7-0.2,1.1l-0.3,1.1c0,0.2-0.1,0.4-0.2,0.6
	c0,0.2-0.1,0.3-0.1,0.5c-0.4,1.4-0.9,2.9-1.4,4.3c-0.3,0.7-0.5,1.4-0.8,2.1c-0.3,0.7-0.6,1.4-0.8,2.1c-0.6,1.4-1.2,2.7-1.8,4.1
	c0,0,0,0,0,0c0,0,0,0,0,0c0.6-1.4,1.1-2.8,1.7-4.2c0.3-0.7,0.6-1.4,0.8-2.1s0.6-1.4,0.8-2.1c0.5-1.4,1-2.8,1.5-4.2
	c0.1-0.2,0.1-0.5,0.2-0.7c0-0.1,0.1-0.2,0.1-0.4l0.3-1.1c0.1-0.4,0.2-0.7,0.2-1.1C62,44.9,62,44.6,62.1,44.2
	C62.1,44.2,62.1,44.2,62.1,44.2C62.1,44.2,62.1,44.2,62.1,44.2z"/>
<path class="st16" d="M56.5,50.6c-0.3,0.1-0.6,0.2-0.8,0.2c-0.3,0-0.6,0.1-0.9,0c0.3-0.1,0.6-0.2,0.8-0.2
	C56,50.6,56.2,50.5,56.5,50.6z"/>
<path class="st16" d="M62.1,44.2c0,0.4-0.1,0.7-0.2,1.1c-0.1,0.4-0.1,0.7-0.2,1.1l-0.3,1.1c0,0.2-0.1,0.4-0.2,0.6
	c0,0.2-0.1,0.3-0.1,0.5c-0.4,1.4-0.9,2.9-1.4,4.3c-0.3,0.7-0.5,1.4-0.8,2.1c-0.3,0.7-0.6,1.4-0.8,2.1c-0.6,1.4-1.2,2.7-1.8,4.1
	c0,0,0,0,0,0c0,0,0,0,0,0c0.6-1.4,1.1-2.8,1.7-4.2c0.3-0.7,0.6-1.4,0.8-2.1s0.6-1.4,0.8-2.1c0.5-1.4,1-2.8,1.5-4.2
	c0.1-0.2,0.1-0.5,0.2-0.7c0-0.1,0.1-0.2,0.1-0.4l0.3-1.1c0.1-0.4,0.2-0.7,0.2-1.1C62,44.9,62,44.6,62.1,44.2
	C62.1,44.2,62.1,44.2,62.1,44.2C62.1,44.2,62.1,44.2,62.1,44.2z"/>
<path class="st16" d="M78.2,53.8C78.2,53.8,78.2,53.8,78.2,53.8C78.2,53.8,78.2,53.8,78.2,53.8c-0.1-0.3-0.2-0.5-0.2-0.8
	c0-0.1-0.1-0.3-0.1-0.4c-0.2-1-0.5-2.1-0.7-3.1c-0.2-0.7-0.3-1.5-0.5-2.2c-0.2-0.7-0.4-1.4-0.6-2.2c-0.2-0.8-0.4-1.6-0.7-2.5
	c0-0.2,0-0.3,0-0.5c0.3,1,0.6,2,0.9,2.9c0.2,0.7,0.4,1.4,0.6,2.2c0.2,0.7,0.4,1.4,0.5,2.2c0.2,1.1,0.5,2.2,0.7,3.3
	c0,0.1,0,0.3,0.1,0.4C78.1,53.3,78.1,53.5,78.2,53.8z"/>
<path class="st16" d="M75.3,42.6c-0.2-0.6-0.4-1.2-0.6-1.8c-0.1-0.3-0.2-0.7-0.4-1.1l-0.4-1c-0.1-0.3-0.3-0.7-0.4-1
	c-0.2-0.3-0.3-0.7-0.5-1c0,0,0,0,0,0h0c0.2,0.3,0.4,0.7,0.5,1c0.2,0.3,0.3,0.7,0.4,1l0.4,1c0.1,0.3,0.2,0.7,0.4,1.1
	c0.2,0.4,0.3,0.9,0.4,1.3C75.3,42.2,75.3,42.4,75.3,42.6z"/>
<path class="st18" d="M72.8,64.1l-1.1-9l-0.1-0.8l-0.2-1.5l-1.7-14.9l-0.2-1.6L69.3,34l-0.1-0.9l0,0l-1-2.8c0,0,0.3-0.7,0.3-1.4
	c0-0.7-0.1-2-0.1-2l3,2l-0.2,0.5l-0.1,0.3l0,0l-1.3,3.6l-0.1,0.2l0.2,0.2l1.2,1.1l0,0.9l0.1,1.8l0.3,5.4l0.7,12.3L72.8,64.1z"/>
<path class="st16" d="M48.9,71l0.6-1.4c0.2-0.5,0.4-1,0.7-1.4c0.2-0.2,0.4-0.4,0.6-0.5c0.2-0.1,0.4-0.3,0.7-0.4
	c0.4-0.2,0.9-0.5,1.2-0.9c-0.3,0.4-0.7,0.7-1.2,1c-0.4,0.3-0.9,0.5-1.2,0.9c-0.3,0.4-0.6,0.8-0.8,1.3L48.9,71z"/>
<path class="st16" d="M47.7,71.7l0.2-1.6l0.1-0.8c0-0.3,0.1-0.6,0.1-0.8c0,0,0,0,0,0c0,0,0,0,0,0c0,0.3-0.1,0.5-0.1,0.8L48,70
	L47.7,71.7C47.7,71.7,47.7,71.7,47.7,71.7C47.7,71.7,47.7,71.7,47.7,71.7z"/>
<path class="st19" d="M76.4,20c-0.1-0.1-0.2-0.2-0.2-0.3l0,0c-0.2-0.2-0.4-0.5-0.5-0.8c0,0,0,0,0,0c-0.1-0.1-0.1-0.3-0.1-0.4
	c0,0,0,0,0-0.1c-0.2-0.5-0.3-1-0.4-1.6c0-0.7-0.2-1.4-0.4-2c-0.4-1.2-1.1-2.2-1.9-3.1c-0.1-0.1-0.3-0.3-0.4-0.4c0,0-0.1-0.1-0.1-0.1
	c-0.3-0.2-0.5-0.4-0.8-0.6c-0.3-0.2-0.5-0.3-0.8-0.5c0,0-0.1,0-0.1,0c-1.1-0.6-2.3-0.8-3.5-0.8c-1.2,0-2.4,0.3-3.4,0.9
	c-1.5,0.9-2.8,2.3-3.5,3.9c-0.7,1.6-1,4-0.4,5.7c0.5,1.6,1.7,2.5,3,3.4l0.3,0.2l0.2,0.1c0.2,0.1,0.3,0.2,0.5,0.3l0.1,0.1l0.1,0
	l0.1,0l0.1,0c0.4,0.2,0.7,0.3,0.7,0.3l0,4.7c0,0.2,0.2,0.4,0.4,0.4H68c0.2,0,0.4-0.2,0.4-0.4v-1.8l0-0.2l0-1l0.4,0.2l0.2,0.1
	c1.3,0.6,3,1.5,4.3,0.5c0.4-0.3,0.7-0.6,0.9-1c0.9-1.3,1.5-3,1.4-4.6c0.1,0,0.2,0,0.3,0c0.1,0,0.2,0,0.3-0.1c0,0,0.1-0.1,0.2-0.1
	c0.1-0.1,0.1-0.2,0.2-0.3c0-0.1,0.1-0.2,0.1-0.3S76.5,20.1,76.4,20z"/>
<path class="st20" d="M64.7,23.4L64.7,23.4C64.8,23.4,64.8,23.4,64.7,23.4z"/>
<path class="st20" d="M72,11.1c-1.4-0.2-3.5,1.5-4.6,2.6c-1.6,1.7-2,4-1.9,5.4c-0.2-0.3-0.5-0.6-0.8-0.8C64.4,18.1,64,18,63.6,18
	c-0.4,0-0.8,0.1-1.2,0.3c-0.3,0.2-0.6,0.5-0.8,0.9c-0.2,0.4-0.3,0.8-0.2,1.2c0,0.4,0.2,0.8,0.4,1.1c0.2,0.2,0.4,0.4,0.6,0.6
	c0.3,0.2,0.8,0.3,1.2,0.3c0,0,0.1,0,0.1,0h0c0.2,0,0.3,0,0.5-0.1c0.6,1.1,0.3,1.9,0.3,1.9s-0.4-0.2-0.7-0.4l-0.1,0l-0.1,0l-0.1,0
	l-0.1-0.1c-0.1-0.1-0.3-0.2-0.5-0.3l-0.2-0.1c-1.5-0.9-2.7-1.8-3.3-3.5s-0.3-4.1,0.4-5.7c0.7-1.6,2-3,3.5-3.9c1-0.6,2.2-0.9,3.4-0.9
	s2.4,0.3,3.5,0.8c0,0,0.1,0,0.1,0C71,10.4,71.5,10.7,72,11.1z"/>
<path class="st20" d="M68.5,27.3c-0.7-0.3-3.9-3.7-4-3.8l3.9,2.4v0l0,1L68.5,27.3z"/>
<path class="st21" d="M64.4,20.3L64.4,20.3L64.4,20.3c-0.2,0-0.3-0.1-0.4-0.1c0,0-0.1,0-0.2,0c0,0-0.1,0.1-0.1,0.1
	c0,0,0,0.1-0.1,0.2c0,0,0,0.1,0,0.2c0,0,0,0.1,0.1,0.1c0,0,0.1,0.1,0.2,0.1v0c-0.1,0-0.1,0-0.2-0.1c0,0-0.1-0.1-0.1-0.1
	c0,0,0-0.1,0-0.2c0-0.1,0-0.1,0.1-0.2c0.1-0.1,0.2-0.1,0.3-0.1C64.1,20.2,64.2,20.2,64.4,20.3c0-0.1,0-0.2,0-0.3
	c0-0.1,0-0.2-0.1-0.2c-0.1-0.1-0.3-0.2-0.4-0.3c-0.2,0-0.4-0.1-0.5-0.1c-0.2,0-0.3,0.1-0.5,0.2c-0.1,0.1-0.3,0.2-0.3,0.4
	c-0.1,0.2-0.1,0.3-0.1,0.5c0,0.4,0.2,0.7,0.4,1c-0.1-0.1-0.3-0.3-0.3-0.5c-0.1-0.2-0.1-0.4-0.2-0.6c0-0.2,0-0.4,0.1-0.6
	c0.1-0.2,0.2-0.3,0.4-0.4c0.2-0.1,0.4-0.2,0.6-0.2c0.2,0,0.4,0,0.6,0.1c0.2,0,0.4,0.2,0.5,0.3c0,0.1,0.1,0.2,0.1,0.3
	C64.4,20.1,64.4,20.2,64.4,20.3z"/>
<path class="st21" d="M75.4,21c-0.1,0-0.1-0.1-0.2-0.1c0,0,0-0.1,0,0C75.3,20.9,75.4,20.9,75.4,21c0.1,0,0.1,0,0.1,0c0,0,0,0,0,0
	C75.6,21.1,75.4,21,75.4,21z"/>
<path class="st21" d="M71,8.4c-2.1,0.1-3.8,0-5.2,0.7c-1.1,0.2-2,0.7-2.6,1.1c-1.6,1.1-2.5,2.3-3.2,3.9c-0.7,1.5-0.9,3.8-0.4,5.4
	c0.4,1.2,1.1,2.4,2.1,3.2c0.2,0.2,3,1.5,3.1,1.4c0,0,0.3-0.7-0.3-1.8c-0.2,0-0.3,0.1-0.5,0.1c0,0-0.1,0-0.1,0
	c-0.4,0-0.8-0.1-1.1-0.3c-0.2-0.1-0.4-0.3-0.6-0.5c-0.3-0.4-0.5-1-0.4-1.5c0-0.5,0.3-1,0.7-1.4c0.4-0.4,0.9-0.6,1.4-0.6
	c0.5,0,1,0.2,1.4,0.5c0,0,0,0.1,0.1,0.1c0,0,0,0,0,0c0.1,0.1,0.4,0.4,0.3,0.4c0.1,0.2,0.3,0.3,0.3,0.4c0.9-0.4,1.8-1.1,2.4-1.9
	c0.9-1.1,1.4-2.4,1.5-3.9c0.2,0,0.4,0,0.5,0c0.3,0,0.6,0,0.9,0c1.5-0.1,2.7-0.3,3.6-0.6l0.1,0c1.2-0.4,1.8-1.1,1.8-1.8
	C76.7,10.1,74.6,8.3,71,8.4z"/>
<path class="st22" d="M73.1,16.3c-0.6-0.1-1.5,0.2-1.8,0.7C71.7,15.2,74.1,15.9,73.1,16.3z"/>
<path class="st22" d="M72.9,18.6c0,0.4-0.2,0.7-0.4,0.7c-0.2,0-0.5-0.3-0.5-0.7c0-0.4,0.2-0.7,0.4-0.7
	C72.6,17.9,72.9,18.2,72.9,18.6z"/>
<path class="st22" d="M71.2,19L71.2,19c-0.1,0-0.1-0.1-0.1-0.1c0.2-0.8,1.1-1.2,1.9-1c0,0,0.1,0.1,0,0.1c0,0-0.1,0.1-0.1,0
	C72.2,17.8,71.4,18.2,71.2,19C71.2,19,71.2,19,71.2,19z"/>
<path class="st14" d="M74,23.7c-1.7,0.5-2.3-0.7-2.3-0.7s0.8,0.2,2.1,0.2C73.9,23.2,74,23.5,74,23.7z"/>
<path class="st15" d="M89.4,115.1C89.4,115.1,89.4,115.1,89.4,115.1c0,0,0-0.1,0-0.2h0C89.3,115,89.4,115.1,89.4,115.1z"/>
<path class="st15" d="M89.6,114c-0.1-0.1-0.2-0.2-0.3-0.3c0-0.1,0.1-0.1,0.2,0C89.5,113.8,89.5,113.9,89.6,114z"/>
<path class="st15" d="M90.4,114.8h-0.3c0,0.1,0,0.2,0,0.3l-0.2-0.3l0-0.1c-0.1-0.3-0.2-0.5-0.3-0.7c0.2,0.2,0.3,0.3,0.5,0.5
	C90.2,114.5,90.3,114.7,90.4,114.8L90.4,114.8z"/>
<path class="st15" d="M97.7,115.2L97.7,115.2C97.7,115.2,97.7,115.2,97.7,115.2L97.7,115.2z"/>
<path class="st15" d="M97.7,115.2L97.7,115.2C97.7,115.2,97.7,115.2,97.7,115.2L97.7,115.2z"/>
<path class="st11" d="M128.2,113.8C128.2,113.8,128.2,113.8,128.2,113.8l-0.5,0c0.1,0,0.2-0.1,0.3-0.1
	C128.1,113.6,128.3,113.7,128.2,113.8z"/>
<path class="st11" d="M151.2,112.7C151.1,112.7,151.1,112.7,151.2,112.7C151.1,112.7,151.1,112.7,151.2,112.7
	C151.1,112.7,151.1,112.7,151.2,112.7z"/>
<path class="st15" d="M151.2,112.7C151.1,112.7,151.1,112.7,151.2,112.7C151.1,112.7,151.1,112.7,151.2,112.7
	C151.1,112.7,151.1,112.7,151.2,112.7z"/>
<path class="st15" d="M128.2,113.8C128.2,113.8,128.2,113.8,128.2,113.8l-0.5,0c0.1,0,0.2-0.1,0.3-0.1
	C128.1,113.6,128.3,113.7,128.2,113.8z"/>
<path class="st23" d="M140.8,119.6c0,0.2,0.2,0.3,0.3,0.1l5.5-7.7c-0.4-0.3-0.9-0.7-1.3-1.1c-0.6-0.5-1.1-1-1.7-1.5
	c-1.1,0.8-2.4,1.7-3.8,2.7c0.9,0.8,1.9,1.5,2.8,2.2l-0.2,0.7L140.8,119.6z"/>
<path class="st24" d="M123.5,65.6C123.5,65.6,123.6,65.5,123.5,65.6C123.6,65.5,123.6,65.5,123.5,65.6c0-0.1-0.1-0.2-0.2-0.2
	c0,0,0,0,0,0c0,0,0,0,0,0c0,0,0,0,0,0c0,0,0,0,0,0.1c0,0,0,0,0,0C123.3,65.5,123.4,65.6,123.5,65.6
	C123.4,65.6,123.5,65.6,123.5,65.6L123.5,65.6C123.5,65.6,123.5,65.6,123.5,65.6z"/>
<path class="st24" d="M122.9,65.9C122.9,65.9,123,65.8,122.9,65.9c0-0.3-0.2-0.4-0.3-0.5c0,0-0.1,0-0.1,0c0,0,0,0,0,0.1c0,0,0,0,0,0
	C122.6,65.6,122.8,65.7,122.9,65.9C122.9,65.9,122.9,65.9,122.9,65.9z"/>
<path class="st24" d="M120.8,62.4c0,0.6,0.1,1.1,0.2,1.7c0.1,0.5,0.3,1.1,0.6,1.6c0.3,0.5,0.7,0.9,1.1,1.3c0.5,0.3,1,0.5,1.6,0.5
	c0.1,0,0.2,0,0.2,0c0,0,0-0.1,0-0.1c-0.1,0-0.2,0-0.2,0c-0.6,0-1.1-0.2-1.5-0.5c-0.4-0.3-0.8-0.8-1.1-1.2c-0.4-0.7-0.6-1.5-0.7-2.4
	c0.6,0,1.1,0.1,1.7,0.1c0.6,0,1.1,0,1.6,0c0,0,0-0.1,0-0.1c-0.5,0-1.1,0-1.6,0c-0.6,0-1.1,0-1.7,0.1c0-0.2,0-0.5,0-0.7h1.6l1.5,0
	c0,0,0-0.1,0-0.1l-1.4,0L120.8,62.4C120.8,62.3,120.8,62.3,120.8,62.4z"/>
<path class="st24" d="M111.3,60.3l4.7,10.8l7.1,16.4l5.9,13.6l0.6,1.4c0.1,0.1,0.2,0.2,0.3,0.3l-0.8-1.8l-5.9-13.6L116,71.1
	L111.3,60.3C111.3,60.3,111.3,60.3,111.3,60.3C111.3,60.3,111.3,60.3,111.3,60.3z"/>
<path class="st24" d="M109.5,65.6c0.2,1.1,0.3,2.3,0.6,3.4c0.4,2,1,4,1.6,5.9c0.3,0.9,0.7,1.8,1.1,2.7c0-0.1,0-0.2,0.1-0.2
	c0,0,0-0.1,0-0.1c-0.8-1.9-1.4-3.8-2-5.8c-0.5-2-0.9-4-1.2-6.1C109.6,65.4,109.4,65.5,109.5,65.6z"/>
<path class="st11" d="M105.5,59.8c0.1,0,0.2,0,0.3,0c1.2,0,2.3,0,3.5,0h2.2l2.2,0l5.8,0l2.6,0h0.4c0,0,0,0,0,0c0,0,0,0,0,0h-0.4
	l-2.7,0l-5.8,0l-2.2,0h-2.2h0c-1.2,0-2.3,0-3.5,0C105.7,59.9,105.6,59.9,105.5,59.8L105.5,59.8z M106.8,60.5c0.2-0.1,0.5-0.1,0.7,0
	c0,0,0.1-0.1,0.1-0.1c0.6,0.4,0.3,1.5-0.4,1.5c-0.4,0-0.7-0.3-0.8-0.6C106.3,61,106.5,60.7,106.8,60.5z M106.4,58.7
	C106.4,58.7,106.5,58.7,106.4,58.7C106.5,58.7,106.5,58.6,106.4,58.7L106.4,58.7c0.1-0.1,0.1-0.1,0.1-0.1c0.1,0,0.1,0.1,0.2,0.1
	c0,0,0,0,0,0c0,0,0,0,0,0c0,0,0,0-0.1,0h0c0,0,0,0,0,0C106.6,58.8,106.5,58.8,106.4,58.7C106.4,58.8,106.4,58.8,106.4,58.7z
	 M107.5,58.6C107.5,58.6,107.6,58.6,107.5,58.6c0.1-0.1,0.1-0.1,0.1-0.1c0.1,0.1,0.1,0.2,0.2,0.3c0,0,0,0,0,0c0,0,0,0,0,0
	c0,0-0.1,0-0.1,0C107.7,58.9,107.6,58.8,107.5,58.6C107.5,58.7,107.5,58.6,107.5,58.6z"/>
<path class="st25" d="M105.5,59.5L105.5,59.5l0.2-0.7H122c1.1,1,2.1,2.3,2.9,3.8l-0.6,0H124l-1.4,0h-1.7c0,0-0.1,0-0.1,0.1
	c0,0.6,0.1,1.1,0.2,1.7c0.1,0.5,0.3,1.1,0.6,1.6c0.3,0.5,0.6,0.9,1.1,1.3c0.5,0.3,1,0.5,1.6,0.5c0.1,0,0.2,0,0.2,0
	c0.5-0.1,0.9-0.2,1.3-0.5c0.3-0.2,0.5-0.4,0.7-0.7c2.4,7.1,3.3,16,5.6,19.6c3.6,5.7,13.7,21.4,13.7,21.7c0,0.2-0.9,0.9-2.3,2
	c-1.1,0.8-2.4,1.7-3.8,2.7c-2.9,1.9-6.1,3.7-7.6,4c-4.6-7.5-10.2-19.8-15.4-28.9c-1.2-2.2-2.3-4.3-3.2-6.3
	c-2.2,9.7-4.5,22.1-6.2,36.5c0,0.2-2.7-0.2-5.9-0.8c-1.5-0.3-3-0.6-4.5-0.8c-3.2-0.6-5.9-1.2-5.9-1.2L105.5,59.5z"/>
<path class="st23" d="M91,117.8L91,117.8c0,0.1,0,0.2,0.1,0.2l4.2,0.9l0.4,0.1l3.1,0.6l0.1,0c0.1,0,0.1,0,0.2,0l0.1,0
	c0,0,0.1,0,0.1,0l0.1,0c0.1,0,0.1,0,0.2,0c0,0,0,0,0.1,0c0.1,0,0.1,0,0.2,0c0,0,0.1,0,0.1,0c0,0,0,0,0.1,0c0,0,0,0,0.1,0
	c0.1,0,0.1,0,0.1,0h0h0v0c0-0.1,0.2-0.6,0.4-1.4c0-0.1,0.1-0.2,0.1-0.3c0.1-0.5,0.3-1,0.5-1.7c-1.5-0.3-3-0.5-4.5-0.8
	c-0.2,0.8-0.2,1.3-0.3,1.4l-0.7,0.1l-1.2,0.1l-0.4,0l-3.3,0.3C91.1,117.7,91.1,117.7,91,117.8C91.1,117.8,91,117.8,91,117.8z"/>
<path class="st11" d="M130.7,85C130.7,85,130.7,84.9,130.7,85c0.2-0.4,0.3-0.7,0.4-1c0,0,0-0.1,0-0.1c0,0-0.1,0-0.1,0.1
	C130.8,84.3,130.7,84.6,130.7,85C130.6,84.9,130.6,85,130.7,85z"/>
<path class="st11" d="M129.3,84.9C129.3,84.9,129.4,84.9,129.3,84.9c0.5-0.6,0.8-1.2,1.2-1.8c0,0,0-0.1,0-0.1c0,0-0.1,0-0.1,0.1
	C130,83.6,129.7,84.2,129.3,84.9C129.3,84.8,129.3,84.9,129.3,84.9z"/>
<path class="st11" d="M122.5,65.5c0.2,0.1,0.3,0.2,0.4,0.4c0,0,0.1,0,0.1,0c0,0,0.1-0.1,0-0.1c-0.1-0.2-0.2-0.3-0.4-0.4
	C122.5,65.4,122.5,65.4,122.5,65.5C122.5,65.4,122.4,65.4,122.5,65.5C122.4,65.5,122.4,65.5,122.5,65.5z M123.2,65.5
	c0.1,0,0.1,0.1,0.2,0.1c0,0,0,0,0,0l0,0c0,0,0,0,0,0c0,0,0,0,0-0.1c0,0,0,0,0,0c-0.1,0-0.1-0.1-0.2-0.1c0,0,0,0,0,0c0,0,0,0,0,0
	C123.3,65.4,123.3,65.4,123.2,65.5C123.2,65.4,123.2,65.4,123.2,65.5C123.2,65.5,123.2,65.5,123.2,65.5z M122.6,63.2
	c0.5,0,1.1,0,1.6,0c0,0,0,0,0,0c0.3,0,0.7,0,1,0c0.4,0.9,0.8,1.9,1.2,2.9c-0.2,0.3-0.4,0.5-0.7,0.7c-0.4,0.3-0.8,0.5-1.3,0.5
	c-0.1,0-0.2,0-0.2,0c-0.5,0-1.1-0.2-1.5-0.5s-0.8-0.8-1.1-1.2c-0.4-0.7-0.6-1.5-0.7-2.4C121.5,63.2,122.1,63.2,122.6,63.2z"/>
<path class="st11" d="M123.5,65.6C123.5,65.6,123.6,65.5,123.5,65.6C123.6,65.5,123.6,65.5,123.5,65.6c0-0.1-0.1-0.2-0.2-0.2
	c0,0,0,0,0,0c0,0,0,0,0,0c0,0,0,0,0,0c0,0,0,0,0,0.1c0,0,0,0,0,0C123.3,65.5,123.4,65.6,123.5,65.6
	C123.4,65.6,123.5,65.6,123.5,65.6L123.5,65.6C123.5,65.6,123.5,65.6,123.5,65.6z"/>
<path class="st11" d="M122.9,65.9C122.9,65.9,123,65.8,122.9,65.9c0-0.3-0.2-0.4-0.3-0.5c0,0-0.1,0-0.1,0c0,0,0,0,0,0.1c0,0,0,0,0,0
	C122.6,65.6,122.8,65.7,122.9,65.9C122.9,65.9,122.9,65.9,122.9,65.9z"/>
<path class="st11" d="M120.9,62.4c0,0.2,0,0.5,0,0.7c0.6-0.1,1.1-0.1,1.7-0.1c0.5,0,1.1,0,1.6,0c0,0,0.1,0,0.1,0c0.3,0,0.7,0,1,0
	c-0.1-0.2-0.2-0.5-0.3-0.7l-0.7,0H124l-1.5,0L120.9,62.4z"/>
<path class="st11" d="M120.8,62.4c0,0.6,0.1,1.1,0.2,1.7c0.1,0.5,0.3,1.1,0.6,1.6c0.3,0.5,0.7,0.9,1.1,1.3c0.5,0.3,1,0.5,1.6,0.5
	c0.1,0,0.2,0,0.2,0c0.5-0.1,0.9-0.2,1.3-0.5c0.3-0.2,0.5-0.4,0.7-0.7c0,0,0,0,0-0.1c-0.2,0.3-0.4,0.5-0.7,0.7
	c-0.4,0.3-0.8,0.5-1.3,0.5c-0.1,0-0.2,0-0.2,0c-0.5,0-1.1-0.2-1.5-0.5c-0.4-0.3-0.8-0.8-1.1-1.2c-0.4-0.7-0.6-1.5-0.7-2.4
	c0.6,0,1.1,0.1,1.7,0.1c0.5,0,1.1,0,1.6,0c0,0,0,0,0,0c0.3,0,0.7,0,1,0c0,0,0-0.1-0.1-0.1c-0.3,0-0.7,0-1,0c0,0-0.1,0-0.1,0
	c-0.5,0-1.1,0-1.6,0c-0.6,0-1.1,0-1.7,0.1c0-0.2,0-0.5,0-0.7h1.6l1.5,0h0.2l0.7,0c0,0,0-0.1-0.1-0.1l-0.6,0H124l-1.4,0L120.8,62.4
	C120.8,62.3,120.8,62.3,120.8,62.4z"/>
<path class="st11" d="M111.3,60.3l4.7,10.8l7.1,16.4l5.9,13.6l0.6,1.4l2.4,5.4l1.5,3.4l1.5,3.4c0,0,0,0,0,0l0,0l-1.4-3.4l-1.5-3.4
	l-2.2-5l-0.8-1.8l-5.9-13.6L116,71.1L111.3,60.3C111.3,60.3,111.3,60.3,111.3,60.3C111.3,60.3,111.3,60.3,111.3,60.3z"/>
<path class="st11" d="M110.6,72.4C110.6,72.4,110.6,72.4,110.6,72.4l0.1-0.2c0,0,0,0,0,0c0,0,0,0,0,0L110.6,72.4z"/>
<path class="st11" d="M109.5,65.6c0.2,1.1,0.3,2.3,0.6,3.4c0.4,2,1,4,1.6,5.9c0.3,0.9,0.7,1.8,1.1,2.7c0.3,0.8,0.7,1.6,1.1,2.4
	c0.1,0.2,0.2,0.4,0.3,0.6c0,0.1,0.2-0.1,0.1-0.1c-0.1-0.2-0.2-0.5-0.3-0.7c-0.4-0.8-0.7-1.6-1.1-2.4c0,0,0-0.1,0-0.1
	c-0.8-1.9-1.4-3.8-2-5.8c-0.5-2-0.9-4-1.2-6.1C109.6,65.4,109.4,65.5,109.5,65.6z"/>
<path class="st11" d="M111.3,60.3l4.7,10.8c0,0,0-0.1,0-0.1L111.3,60.3C111.3,60.3,111.3,60.3,111.3,60.3
	C111.3,60.3,111.3,60.3,111.3,60.3z"/>
<path class="st11" d="M109.5,65.6c0.2,1.1,0.3,2.3,0.6,3.4c0.4,2,1,4,1.6,5.9c0.3,0.9,0.7,1.8,1.1,2.7c0.3,0.8,0.7,1.6,1.1,2.4
	c0-0.1,0-0.2,0.1-0.2c-0.4-0.8-0.7-1.6-1.1-2.4c0,0,0-0.1,0-0.1c-0.8-1.9-1.4-3.8-2-5.8c-0.5-2-0.9-4-1.2-6.1
	C109.6,65.4,109.4,65.5,109.5,65.6z"/>
<path class="st11" d="M106.6,116.3l0.5,0.5c0,0,0.1,0,0.1,0c0,0,0-0.1,0-0.1l-0.5-0.5C106.7,116.1,106.7,116.2,106.6,116.3
	C106.6,116.2,106.6,116.3,106.6,116.3z"/>
<path class="st11" d="M106.4,116.5l0.3,0.3c0,0,0,0,0,0c0,0,0,0,0,0c0,0,0-0.1,0-0.1c-0.1-0.1-0.2-0.2-0.3-0.3c0,0,0,0,0,0
	C106.4,116.4,106.4,116.4,106.4,116.5C106.3,116.4,106.3,116.5,106.4,116.5z"/>
<path class="st11" d="M97.1,115.7C97.1,115.7,97.1,115.7,97.1,115.7C97.1,115.7,97.1,115.7,97.1,115.7L98,113l0.9-2.7l1.7-5.4
	l1.7-5.4l1.7-5.5l6.7-21.5l0.1-0.3c0,0,0,0,0,0c0,0,0,0,0,0l-0.1,0.2l-6.8,21.5l-1.7,5.4l-1.7,5.4l-1.7,5.5l-0.8,2.7L97.1,115.7z"/>
<path class="st11" d="M98,89c0.2,0.3,0.3,0.5,0.5,0.8c0,0.1,0.1-0.1,0.1-0.1l-0.5-0.8C98,88.8,97.9,89,98,89z"/>
<path class="st11" d="M97.8,90c0.1,0.2,0.2,0.3,0.4,0.5c0,0,0.1,0,0.1,0c0,0,0,0,0,0c0,0,0,0,0-0.1L98,89.9
	C97.9,89.9,97.9,89.9,97.8,90C97.9,89.9,97.9,89.9,97.8,90C97.8,90,97.8,90,97.8,90z"/>
<path class="st11" d="M92.4,112.8c0.2,0.1,0.3,0.3,0.3,0.5c0,0,0,0,0.1,0c0,0,0.1-0.1,0.1-0.1c0-0.2-0.1-0.4-0.3-0.5
	C92.5,112.7,92.5,112.7,92.4,112.8C92.4,112.8,92.4,112.8,92.4,112.8z"/>
<path class="st11" d="M141.1,119.7l5.5-7.7c-0.4-0.3-0.9-0.7-1.3-1.1l-2.9,4.1l-1.5,4.6C140.7,119.8,141,119.9,141.1,119.7z"/>
<path class="st11" d="M91.2,118c0,0,9.3,2,9.3,2c0.1-0.5,0.3-1.1,0.5-1.6l-4.9-1.1l-4.8,0.4C91,117.7,91,118,91.2,118z"/>
<path class="st14" d="M105.5,59.9c0.1,0,0.2,0,0.3,0c1.2,0,2.3,0,3.5,0h0h2.2l2.2,0l5.8,0l2.7,0h0.4c0,0,0,0,0,0c0,0,0,0,0,0h-0.4
	l-2.6,0l-5.8,0l-2.2,0h-2.2c-1.2,0-2.3,0-3.5,0C105.7,59.8,105.6,59.8,105.5,59.9L105.5,59.9z"/>
<path class="st14" d="M97.1,115.7C97.1,115.7,97.1,115.7,97.1,115.7C97.1,115.7,97.1,115.7,97.1,115.7L98,113l0.9-2.7l1.7-5.4
	l1.7-5.4l1.7-5.5l6.7-21.5l0.1-0.3c0,0,0,0,0,0c0,0,0,0,0,0l-0.1,0.2l-6.8,21.5l-1.7,5.4l-1.7,5.4l-1.7,5.5l-0.8,2.7L97.1,115.7z"/>
<path class="st14" d="M111.3,60.3l4.7,10.8l7.1,16.4l5.9,13.6l0.6,1.4l2.4,5.4l1.5,3.4l1.5,3.4c0,0,0,0,0,0l0,0l-1.4-3.4l-1.5-3.4
	l-2.2-5l-0.8-1.8l-5.9-13.6L116,71.1L111.3,60.3C111.3,60.3,111.3,60.3,111.3,60.3C111.3,60.3,111.3,60.3,111.3,60.3z"/>
<path class="st14" d="M120.8,62.3h1.7l1.4,0h0.3l0.6,0c0,0,0,0.1,0.1,0.1l-0.7,0H124l-1.5,0h-1.6C120.9,62.4,120.9,62.4,120.8,62.3
	l0,0.2h0.1c0,0.2,0,0.5,0,0.7c0,0,0,0,0,0c0.1,0.8,0.3,1.6,0.7,2.4c0.3,0.5,0.6,0.9,1.1,1.2c0.4,0.3,1,0.5,1.5,0.5
	c0.1,0,0.2,0,0.2,0c0.5,0,0.9-0.2,1.3-0.5c0.3-0.2,0.5-0.4,0.7-0.7c0,0,0,0,0,0.1c-0.2,0.2-0.4,0.5-0.7,0.7
	c-0.4,0.3-0.8,0.5-1.3,0.5c-0.1,0-0.2,0-0.2,0c-0.6,0-1.1-0.2-1.6-0.5c-0.5-0.3-0.8-0.8-1.1-1.3c-0.3-0.5-0.5-1-0.6-1.6
	C120.8,63.5,120.8,62.9,120.8,62.3C120.8,62.3,120.8,62.3,120.8,62.3z"/>
<path class="st14" d="M120.9,63.2C120.9,63.2,120.9,63.2,120.9,63.2C121,63.2,121,63.2,120.9,63.2c0.6,0,1.1,0.1,1.7,0.1
	c0.6,0,1.1,0,1.6,0c0,0,0,0,0.1,0c0.3,0,0.7,0,1,0c0,0,0-0.1,0-0.1c-0.3,0-0.7,0-1,0c0,0-0.1,0-0.1,0c-0.5,0-1.1,0-1.6,0
	C122.1,63.1,121.5,63.1,120.9,63.2C121,63.1,121,63.1,120.9,63.2C120.9,63.1,120.9,63.1,120.9,63.2z"/>
<path class="st14" d="M129.3,84.9C129.3,84.9,129.4,84.9,129.3,84.9c0.5-0.6,0.8-1.2,1.2-1.8c0,0,0-0.1,0-0.1c0,0-0.1,0-0.1,0.1
	C130,83.6,129.7,84.2,129.3,84.9C129.3,84.8,129.3,84.9,129.3,84.9z"/>
<path class="st14" d="M130.7,85C130.7,85,130.7,84.9,130.7,85c0.2-0.4,0.3-0.7,0.4-1c0,0,0-0.1,0-0.1c0,0-0.1,0-0.1,0.1
	C130.8,84.3,130.7,84.6,130.7,85C130.6,84.9,130.6,85,130.7,85z"/>
<path class="st14" d="M98,89c0.2,0.3,0.3,0.5,0.5,0.8c0,0.1,0.1-0.1,0.1-0.1l-0.5-0.8C98,88.8,97.9,89,98,89z"/>
<path class="st14" d="M97.8,90c0.1,0.2,0.2,0.3,0.4,0.5c0,0,0.1,0,0.1,0c0,0,0,0,0,0c0,0,0,0,0-0.1L98,89.9
	C97.9,89.9,97.9,89.9,97.8,90C97.9,89.9,97.9,89.9,97.8,90C97.8,90,97.8,90,97.8,90z"/>
<path class="st14" d="M92.4,112.8c0.2,0.1,0.3,0.3,0.3,0.5c0,0,0,0,0.1,0c0,0,0.1-0.1,0.1-0.1c0-0.2-0.1-0.4-0.3-0.5
	C92.5,112.7,92.5,112.7,92.4,112.8C92.4,112.8,92.4,112.8,92.4,112.8z"/>
<path class="st14" d="M106.6,116.3l0.5,0.5c0,0,0.1,0,0.1,0c0,0,0-0.1,0-0.1l-0.5-0.5C106.7,116.1,106.7,116.2,106.6,116.3
	C106.6,116.2,106.6,116.3,106.6,116.3z"/>
<path class="st14" d="M106.4,116.5l0.3,0.3c0,0,0,0,0,0c0,0,0,0,0,0c0,0,0-0.1,0-0.1c-0.1-0.1-0.2-0.2-0.3-0.3c0,0,0,0,0,0
	C106.4,116.4,106.4,116.4,106.4,116.5C106.3,116.4,106.3,116.5,106.4,116.5z"/>
<path class="st14" d="M106.5,58.8c0.1,0,0.1,0.1,0.2,0.1c0,0,0,0,0,0h0c0,0,0,0,0,0c0,0,0,0,0,0c0,0,0,0,0,0c-0.1,0-0.1-0.1-0.2-0.1
	c0,0,0,0,0,0l0,0C106.5,58.7,106.5,58.7,106.5,58.8C106.5,58.7,106.4,58.7,106.5,58.8C106.4,58.8,106.4,58.8,106.5,58.8z"/>
<path class="st14" d="M107.5,58.7c0.1,0.1,0.1,0.2,0.2,0.3c0,0,0.1,0,0.1,0c0,0,0,0,0,0c0,0,0,0,0,0c-0.1-0.1-0.1-0.2-0.2-0.3
	C107.6,58.5,107.6,58.5,107.5,58.7C107.5,58.6,107.5,58.6,107.5,58.7C107.5,58.6,107.5,58.7,107.5,58.7z"/>
<path class="st14" d="M121.1,59.1c0,0,0.1,0.1,0.1,0.1c0,0,0,0,0.1,0c0.1,0.1,0.1,0.1,0.2,0.2c0,0,0.1,0,0.1,0c0,0,0-0.1,0-0.1
	c0,0,0,0,0,0c0,0,0,0,0,0c-0.1-0.1-0.2-0.2-0.3-0.2C121.1,58.9,121.1,59,121.1,59.1C121.1,59,121,59.1,121.1,59.1z"/>
<path class="st14" d="M122.4,65.5C122.4,65.5,122.4,65.5,122.4,65.5c0.2,0.1,0.3,0.3,0.4,0.4c0,0,0.1,0,0.1,0c0,0,0-0.1,0-0.1
	c-0.1-0.2-0.2-0.3-0.4-0.4C122.5,65.4,122.5,65.4,122.4,65.5C122.5,65.4,122.4,65.4,122.4,65.5z"/>
<path class="st14" d="M123.2,65.5C123.2,65.5,123.2,65.5,123.2,65.5c0.1,0.1,0.1,0.1,0.2,0.1c0,0,0,0,0,0l0,0c0,0,0,0,0,0
	c0,0,0,0,0-0.1c0,0,0,0,0,0c-0.1,0-0.1-0.1-0.2-0.1C123.3,65.4,123.3,65.4,123.2,65.5C123.3,65.4,123.3,65.4,123.2,65.5
	C123.3,65.4,123.3,65.4,123.2,65.5C123.2,65.4,123.2,65.5,123.2,65.5z"/>
<path class="st14" d="M109.5,65.6c0.2,1.1,0.3,2.3,0.6,3.4c0.4,2,1,4,1.6,5.9c0.3,0.9,0.7,1.8,1.1,2.7c0.3,0.8,0.7,1.6,1.1,2.4
	c0.1,0.2,0.2,0.4,0.3,0.6c0,0.1,0.2-0.1,0.1-0.1c-0.1-0.2-0.2-0.5-0.3-0.7c-0.4-0.8-0.7-1.6-1.1-2.4c0,0,0-0.1,0-0.1
	c-0.8-1.9-1.4-3.8-2-5.8c-0.5-2-0.9-4-1.2-6.1C109.6,65.4,109.4,65.5,109.5,65.6z"/>
<path class="st14" d="M106.5,61.2c0,0.3,0.3,0.6,0.6,0.6c0.3,0.1,0.6-0.1,0.7-0.4c0.1-0.2,0-0.4-0.1-0.6c0,0-0.1,0-0.1,0
	C107.3,60.3,106.4,60.6,106.5,61.2z M106.8,60.5c0.2-0.1,0.5-0.1,0.7,0c0,0,0.1-0.1,0.1-0.1c0.6,0.4,0.3,1.5-0.4,1.5
	c-0.4,0-0.7-0.3-0.8-0.6C106.3,61,106.5,60.7,106.8,60.5z"/>
<path class="st23" d="M86.7,64.4c0.6,0.1,3-1.7,3.6-1.9c-0.4,0.6-2.3,2.7-2.2,2.9c0.2,0.2,1.1-0.2,2.1-1.1c-0.4,0.6-0.7,1.1-0.5,1.2
	c0.3,0.3,1.6-0.6,3.1-2c0.5-0.5,1.8-1.6,1.9-1.4c0.1,0.7-2,2.3-1.9,2.9c0.1,0.6,1.9-0.6,3.6-1.9c1.1-0.8,2.1-1.6,2.6-2
	c-0.2,0-2.7-1.6-4.5-2.2c-0.3-0.1-0.5-0.2-0.6-0.5c-1.1,0.7-2.8,1.4-3.4,1.9c-0.8,0.7-1.7,1.4-2.4,2.2
	C87.9,62.7,86.3,64.3,86.7,64.4z"/>
<path class="st12" d="M95.9,60.7c-0.4,0.1-0.8,0.1-1.2,0.2c-0.4,0-0.8,0.1-1.2,0.1c-0.4,0-0.8,0.1-1.2,0.3c-0.4,0.2-0.7,0.4-1.1,0.6
	h0v0c0.4-0.2,0.7-0.4,1.1-0.6c0.4-0.2,0.8-0.3,1.2-0.3c0.4,0,0.8-0.1,1.2-0.2C95.1,60.7,95.5,60.7,95.9,60.7
	C95.9,60.7,95.9,60.7,95.9,60.7z"/>
<path class="st12" d="M90,64.2l1.1-1.1c0.2-0.2,0.4-0.4,0.5-0.5c0.2-0.2,0.4-0.3,0.6-0.5h0v0c-0.2,0.2-0.3,0.4-0.5,0.6
	c-0.2,0.2-0.4,0.4-0.6,0.5L90,64.2C90,64.2,90,64.2,90,64.2C90,64.2,90,64.2,90,64.2z"/>
<path class="st12" d="M90.9,64.9l1.6-1.4c0.3-0.2,0.5-0.5,0.8-0.7c0.3-0.2,0.6-0.4,0.8-0.6c0,0,0,0,0,0c0,0,0,0,0,0
	c-0.3,0.2-0.5,0.5-0.8,0.7c-0.3,0.2-0.5,0.4-0.8,0.7L90.9,64.9C90.9,65,90.9,65,90.9,64.9C90.9,64.9,90.9,64.9,90.9,64.9z"/>
<path class="st23" d="M86.7,64.4c0.6,0.1,3-1.7,3.6-1.9c-0.4,0.6-2.3,2.7-2.2,2.9c0.2,0.2,1.1-0.2,2.1-1.1c-0.4,0.6-0.7,1.1-0.5,1.2
	c0.3,0.3,1.6-0.6,3.1-2c0.5-0.5,1.8-1.6,1.9-1.4c0.1,0.7-2,2.3-1.9,2.9c0.1,0.6,1.9-0.6,3.6-1.9c1.1-0.8,2.1-1.6,2.6-2
	c-0.2,0-2.7-1.6-4.5-2.2c-0.3-0.1-0.5-0.2-0.6-0.5c-1.1,0.7-2.8,1.4-3.4,1.9c-0.8,0.7-1.7,1.4-2.4,2.2
	C87.9,62.7,86.3,64.3,86.7,64.4z"/>
<path class="st26" d="M95.9,60.7c-0.4,0.1-0.8,0.1-1.2,0.2c-0.4,0-0.8,0.1-1.2,0.1c-0.4,0-0.8,0.1-1.2,0.3c-0.4,0.2-0.7,0.4-1.1,0.6
	h0v0c0.4-0.2,0.7-0.4,1.1-0.6c0.4-0.2,0.8-0.3,1.2-0.3c0.4,0,0.8-0.1,1.2-0.2C95.1,60.7,95.5,60.7,95.9,60.7
	C95.9,60.7,95.9,60.7,95.9,60.7z"/>
<path class="st26" d="M90,64.2l1.1-1.1c0.2-0.2,0.4-0.4,0.5-0.5c0.2-0.2,0.4-0.3,0.6-0.5h0v0c-0.2,0.2-0.3,0.4-0.5,0.6
	c-0.2,0.2-0.4,0.4-0.6,0.5L90,64.2C90,64.2,90,64.2,90,64.2C90,64.2,90,64.2,90,64.2z"/>
<path class="st26" d="M90.9,64.9l1.6-1.4c0.3-0.2,0.5-0.5,0.8-0.7c0.3-0.2,0.6-0.4,0.8-0.6c0,0,0,0,0,0c0,0,0,0,0,0
	c-0.3,0.2-0.5,0.5-0.8,0.7c-0.3,0.2-0.5,0.4-0.8,0.7L90.9,64.9C90.9,65,90.9,65,90.9,64.9C90.9,64.9,90.9,64.9,90.9,64.9z"/>
<path class="st23" d="M127.1,69.6c0,0.1,0,0.1,0,0.2c0,0.1,0,0.2,0,0.3c0,0.1,0,0.2,0.1,0.3c0,0.2,0.1,0.4,0.1,0.6
	c0,0.3,0.1,0.7,0.2,1c0,0.1,0,0.2,0.1,0.2c0,0.1,0,0.2,0.1,0.3c0.1,0.5,0.9,3.2,1.5,1.7c0.1-0.2,0.1-0.8,0-1.3
	c-0.1-0.8-0.1-1.8,0.1-2.1c0.1-0.1,0.3-0.2,0.4-0.2c0.5,0.1,1,0.9,1.4,1.7c0,0,0,0,0,0c0.2,0.4,0.3,0.7,0.4,1
	c0.1,0.2,0.1,0.3,0.1,0.4c0.4,1.5,1,2.6,1.3,2.5c0.2-0.1-0.3-2.8-0.3-3.5c0.4,0.5,1.4,3.1,2,3.4c0.4,0.2-0.1-1.9-0.1-2.1
	c-0.3-1-0.6-2-0.9-3c-0.2-0.7-0.5-1.4-0.8-2.1c-0.1-0.2-0.2-0.4-0.3-0.6l-1.2-3.5c-0.1,0.4-0.3,0.7-0.4,0.9c-0.8,1-1.7,1.9-2.5,2.9
	C128.2,69.1,127.7,69.5,127.1,69.6z"/>
<path class="st23" d="M127.1,69.6c0,0.1,0,0.1,0,0.2c0,0.1,0,0.2,0,0.3c0,0.1,0,0.2,0.1,0.3c0,0.2,0.1,0.4,0.1,0.6
	c0,0.3,0.1,0.7,0.2,1c0,0.1,0,0.2,0.1,0.2c0,0.1,0,0.2,0.1,0.3c0.1,0.5,0.9,3.2,1.5,1.7c0.1-0.2,0.1-0.8,0-1.3
	c-0.1-0.8-0.1-1.8,0.1-2.1c0.1-0.1,0.3-0.2,0.4-0.2c0.5,0.1,1,0.9,1.4,1.7c0,0,0,0,0,0c0.2,0.4,0.3,0.7,0.4,1
	c0.1,0.2,0.1,0.3,0.1,0.4c0.4,1.5,1,2.6,1.3,2.5c0.2-0.1-0.3-2.8-0.3-3.5c0.4,0.5,1.4,3.1,2,3.4c0.4,0.2-0.1-1.9-0.1-2.1
	c-0.3-1-0.6-2-0.9-3c-0.2-0.7-0.5-1.4-0.8-2.1c-0.1-0.2-0.2-0.4-0.3-0.6l-1.2-3.5c-0.1,0.4-0.3,0.7-0.4,0.9c-0.8,1-1.7,1.9-2.5,2.9
	C128.2,69.1,127.7,69.5,127.1,69.6z"/>
<path class="st23" d="M127.1,69.6c0,0.1,0,0.1,0,0.2c0,0.1,0,0.2,0,0.3c0,0.1,0,0.2,0.1,0.3c0,0.2,0.1,0.4,0.1,0.6
	c0,0.3,0.1,0.7,0.2,1c0,0.1,0,0.2,0.1,0.2c0,0.1,0,0.2,0.1,0.3c0.1,0.5,0.9,3.2,1.5,1.7c0.1-0.2,0.1-0.8,0-1.3
	c-0.1-0.8-0.1-1.8,0.1-2.1c0.1-0.1,0.3-0.2,0.4-0.2c0.5,0.1,1,0.9,1.4,1.7c0,0,0,0,0,0c0.2,0.4,0.3,0.7,0.4,1
	c0.1,0.2,0.1,0.3,0.1,0.4c0.4,1.5,1,2.6,1.3,2.5c0.2-0.1-0.3-2.8-0.3-3.5c0.4,0.5,1.4,3.1,2,3.4c0.4,0.2-0.1-1.9-0.1-2.1
	c-0.3-1-0.6-2-0.9-3c-0.2-0.7-0.5-1.4-0.8-2.1c-0.1-0.2-0.2-0.4-0.3-0.6l-1.2-3.5c-0.1,0.4-0.3,0.7-0.4,0.9c-0.8,1-1.7,1.9-2.5,2.9
	C128.2,69.1,127.7,69.5,127.1,69.6z"/>
<path class="st16" d="M131.8,74l-0.5-1.4c-0.2-0.5-0.4-0.9-0.7-1.3c-0.2-0.2-0.3-0.4-0.5-0.5c-0.2-0.1-0.4-0.3-0.6-0.4
	c-0.4-0.2-0.8-0.5-1.2-0.9c0,0,0,0,0,0c0,0,0,0,0,0c0.3,0.4,0.7,0.7,1.1,0.9c0.4,0.2,0.9,0.5,1.2,0.9c0.3,0.4,0.5,0.8,0.7,1.3
	L131.8,74C131.7,74,131.7,74,131.8,74C131.8,74,131.8,74,131.8,74z"/>
<path class="st16" d="M132.9,74.6l-0.2-1.6l-0.1-0.8c0-0.3-0.1-0.5-0.1-0.8c0,0,0,0,0,0c0,0,0,0,0,0c0.1,0.3,0.1,0.5,0.1,0.8
	l0.1,0.8L132.9,74.6C132.9,74.6,132.9,74.6,132.9,74.6z"/>
<path class="st27" d="M102,50.9c0.2-0.2,0.3-0.3,0.4-0.4c0.7-0.8,1.3-1.6,1.7-2.5c0.1-0.2,0.2-0.4,0.2-0.6c0.4-1.2,0.5-2.6,0.7-3.9
	c0.3-2.6,0.5-6.6,2.3-8.6c0.7-0.8,3.1-2.7,5.8-1.3c0,0,0.1,0,0.1,0c0,0-0.1,0.1-0.1,0.2c0,0,0,0,0,0.1c-0.1,0.2-0.2,0.4-0.3,0.6
	c-0.2,0.4-0.4,0.9-0.6,1.3c-0.2,0.4-0.4,0.8-0.4,1.2c0,0,0,0.1,0,0.1c0,0,0,0,0,0c0,0,0,0,0,0.1c0,0,0,0,0,0.1c0,0,0,0.1,0,0.1
	c0,0,0,0,0,0.1c0,0,0,0,0,0.1c0,0,0,0.1,0.1,0.1c0,0,0,0.1,0.1,0.1c0,0,0,0,0.1,0.1c0,0,0.1,0.1,0.1,0.1l0,0c0,0,0.1,0,0.1,0.1
	c0,0,0,0,0,0c0,0,0,0,0.1,0s0,0,0.1,0c0,0,0,0,0.1,0c0,0,0,0,0.1,0c0,0,0,0,0.1,0c0,0,0.1,0,0.1,0c0,0,0.1,0,0.1,0
	c0.1,0,0.1,0,0.2,0c0.2,0,0.5-0.1,0.7-0.3c0.5-0.3,0.8-0.7,1.2-1.1c0.8-1,1.6-2,2.3-3.1c0,0,0,0,0,0c0,0,0.1,0,0.1,0
	c0,0,0.1,0,0.1,0c0,0,0,0,0.1,0c0.1,0,0.2,0,0.2,0c0,0,0,0,0.1,0c0.1,0,0.1,0,0.2,0.1c0.2-0.1,0.7-0.1,1-0.1c3,0.1,5,3.9,5.9,5.6
	c1.9,3.4,0.8,3.4,2.3,7c1,2.3,4,6.8,4.5,9.3c0.4,2,1.4,5.7,0.4,7.5c-0.2,0.4-0.4,1.3-0.7,2.1c-0.1,0.4-0.3,0.7-0.4,0.9
	c-0.8,1-1.7,1.9-2.5,2.9c-0.3,0.3-0.8,0.8-1.4,0.9c-0.6,0.2-1.1,0.1-1.2-0.8c0-0.2,0-0.4-0.1-0.5c0,0-0.1,0.1-0.1,0.1
	c-0.1,0.1-0.2,0.2-0.3,0.3c0,0-0.1,0.1-0.1,0.1c-0.1,0.1-0.2,0.2-0.3,0.3c-0.7,0.5-1.5,0.9-2.3,1.2c-2,0.6-4.2,0.5-6.3,0.5
	c-0.4,0-0.9,0-1.3,0c0,0,0,0,0,0c-0.1,0-0.1,0-0.2,0c0,0,0,0-0.1,0c-2.4,0-9.5,0.5-10.7-3.9c-0.7-2.6,1.6-8.8,1.6-8.8
	c-2.1,1.2-6.2,3.1-6.6,3.1c-0.2,0-2.7-1.6-4.5-2.2c-0.3-0.1-0.5-0.2-0.6-0.5c-0.3-0.4-0.2-1,0.2-1.4C96,55.4,100.3,52.5,102,50.9z"
	/>
<path class="st28" d="M126,67.8L126,67.8L126,67.8C126,67.8,125.9,67.8,126,67.8c-0.1,0.2-0.1,0.3-0.1,0.3c0.1,0.3,0.2,0.5,0.5,0.7
	c0,0,0.1-0.1,0.1-0.1c-0.3-0.1-0.4-0.4-0.5-0.7C126,67.9,126,67.9,126,67.8C126.1,67.8,126,67.8,126,67.8z M131.7,61L131.7,61
	L131.7,61C131.6,61,131.6,61,131.7,61c-0.2,0.7-0.5,1.2-0.7,1.7c-0.1,0.1-0.1,0.2-0.2,0.3l-0.1,0.1c-0.9,1.6-2.3,3-3.6,4.3l0,0l0,0
	l0,0c0,0,0,0,0,0v0v0v0l0,0l0,0c0,0,0,0,0,0h0c0,0,0,0,0.1,0c0.4-0.4,0.8-0.8,1.3-1.3c0.9-0.9,1.7-1.9,2.4-3
	C131.2,62.5,131.5,61.8,131.7,61C131.7,61,131.7,61,131.7,61z M117.4,37.4L117.4,37.4L117.4,37.4L117.4,37.4L117.4,37.4L117.4,37.4
	L117.4,37.4L117.4,37.4L117.4,37.4L117.4,37.4c-0.2,0.4-0.2,0.6-0.3,0.9c0,0.2-0.1,0.3-0.1,0.5c-0.1,0.3-0.1,0.6-0.2,0.8
	c-0.4,1.6-0.6,3.3-0.4,5c0.1,1,0.4,1.9,0.9,2.7c0.5,0.9,1.3,1.5,1.8,2.4c0.4,0.8,0.4,1.8,0.4,2.7v0.1c0,0.9-0.1,1.9,0,2.9
	c0,0.3,0.1,0.6,0.2,0.9l0.1,0.1l0,0c0,0.1,0.1,0.1,0.1,0.2c0.2,0.5,0.5,0.9,0.8,1.3c0.5,0.9,0.7,2,0.9,3c0.2,0.9,0.5,1.9,1,2.7
	c0.5,0.8,1.1,1.5,1.8,2.1l0,0h0h0h0l0,0c0,0,0,0,0,0l0,0l0,0l0,0l0,0v0v0v0v0c0,0,0,0,0,0c-0.2-0.1-0.4-0.3-0.5-0.5
	c-0.7-0.7-1.2-1.5-1.7-2.3c-0.4-0.8-0.6-1.6-0.7-2.5l-0.1-0.4c-0.1-0.5-0.2-1-0.4-1.5c-0.2-0.4-0.4-0.9-0.7-1.3l-0.1-0.1
	c-0.2-0.3-0.3-0.5-0.5-0.8l0,0l0,0c-0.1-0.1-0.1-0.3-0.2-0.5c-0.1-0.4-0.2-0.9-0.2-1.4c-0.1-1.8,0.4-3.8-0.7-5.4
	c-0.3-0.4-0.6-0.7-0.9-1.1c-0.3-0.4-0.6-0.8-0.8-1.3c-0.4-0.9-0.6-1.9-0.7-2.8c-0.1-1.4,0.1-2.7,0.4-4.1c0.1-0.3,0.1-0.6,0.2-0.9
	l0.1-0.4c0.1-0.3,0.1-0.5,0.2-0.8L117.4,37.4L117.4,37.4L117.4,37.4L117.4,37.4L117.4,37.4L117.4,37.4
	C117.4,37.4,117.4,37.4,117.4,37.4z M131.1,59.3L131.1,59.3c-0.1,0-0.1,0.1-0.1,0.1c0.1,0.3,0,0.6-0.1,0.8c0,0,0,0.1,0,0.1
	c0,0,0.1,0,0.1-0.1C131.2,60,131.3,59.6,131.1,59.3C131.2,59.3,131.2,59.3,131.1,59.3z M95.8,58.6c0.3,0.2,0.7,0.4,1,0.6
	c1.2,0.5,2.5,0.7,3.8,0.6c0.1,0,0.2,0,0.3-0.1c0.1,0,0.1-0.2,0.1-0.1c-0.1,0-0.1,0-0.2,0c-0.3,0-0.6,0.1-1,0.1
	c-1.4,0-2.8-0.4-3.9-1.2C95.8,58.4,95.7,58.5,95.8,58.6z M131.7,58.4L131.7,58.4C131.7,58.4,131.6,58.4,131.7,58.4
	c-0.1,0-0.1,0.1-0.1,0.1v0.5c0,0,0,0,0,0h0c0,0,0,0,0,0c0,0,0.1-0.1,0.1-0.1L131.7,58.4C131.7,58.4,131.7,58.4,131.7,58.4z
	 M108.9,39.7c-0.1,0.2-0.2,0.3-0.3,0.5c-0.7,1.3-1.2,2.8-1.5,4.2c-0.3,1.6-0.5,3.2-0.8,4.8c-0.1,0.7-0.2,1.4-0.2,2l-0.1,0.5l0,0.5
	l0,0.5v0c0-0.3,0.1-0.6,0.1-0.9l0,0.2v0l0,0.1c0,0.2-0.1,0.4-0.1,0.6c0,0.1,0,0.1,0,0.2l0,0.2l0,0.2c0,0.2,0,0.4-0.1,0.6l0,0.3v0
	c0,0,0.1-0.1,0.1-0.1l0,0.1c-0.1,1-0.2,2.1-0.2,3.1l0,0.5c0,0.5,0.2-0.6,0.2-0.9l0-0.2l0-0.4c0-0.2,0-0.4,0-0.5
	c0-0.5,0.1-0.9,0.1-1.4l0-0.5c0-0.1,0-0.2,0-0.3c0.1-1.2,0.2-2.5,0.4-3.7c0,0,0,0,0,0c0.1-0.5,0.1-0.9,0.2-1.4
	c0.2-1.6,0.4-3.1,0.8-4.7C107.6,42.5,108.1,41,108.9,39.7C109,39.6,108.9,39.6,108.9,39.7z M98,55.7L98,55.7
	C98,55.7,98,55.7,98,55.7c-0.1,0-0.1,0.1-0.1,0.1v0.5c0,0,0,0,0,0h0c0,0,0,0,0,0c0,0,0.1-0.1,0.1-0.1L98,55.7
	C98,55.7,98,55.7,98,55.7z M97.5,55.9c-0.1,0-0.1,0.1-0.1,0.1h0C97.5,56,97.6,55.9,97.5,55.9z M122.7,37.8c0.1,0.1,0.2,0.2,0.3,0.3
	c0.7,0.9,1.1,2,1.3,3.1c0.3,1.1,0.5,2.3,0.8,3.4c0.4,1.2,0.9,2.3,1.5,3.3c0.6,1.1,1.2,2.1,1.8,3.2c0.6,1.1,1.1,2.2,1.5,3.4
	c0,0,0,0,0,0h0h0c0,0,0.1-0.1,0.1-0.1c0-0.1-0.1-0.3-0.1-0.4c-0.4-1.2-0.9-2.3-1.5-3.3c-0.6-1.1-1.2-2.1-1.8-3.2
	c-0.6-1.1-1-2.2-1.4-3.4c-0.3-1.1-0.5-2.3-0.8-3.4c-0.3-1.1-0.8-2.1-1.5-3C122.7,37.6,122.6,37.7,122.7,37.8z M122.7,53.9
	L122.7,53.9C122.7,53.9,122.7,53.9,122.7,53.9c-0.1,0-0.1,0.1-0.1,0.1v0.4c0,0,0,0,0,0h0c0,0,0,0,0,0c0,0,0.1-0.1,0.1-0.1
	L122.7,53.9C122.7,53.9,122.7,53.9,122.7,53.9z M122.4,53.7C122.4,53.7,122.4,53.7,122.4,53.7l-0.2,0.4c0,0,0,0,0,0.1h0h0
	c0,0,0.1,0,0.1-0.1L122.4,53.7C122.5,53.7,122.5,53.7,122.4,53.7z M105.9,40c0,0.1,0,0.3,0,0.4c0.1,1,0,2.1-0.1,3.1
	c0,0.2-0.1,0.4-0.1,0.7c-0.2,0.8-0.4,1.6-0.7,2.3c-0.4,1-0.8,1.9-1.4,2.8c-0.6,0.9-1.2,1.7-2,2.4c-0.5,0.5-1.1,1-1.7,1.4
	c-0.2,0.2-0.5,0.3-0.7,0.5c0,0-0.1,0.1,0,0.1h0c0,0,0,0,0,0c0.1-0.1,0.2-0.1,0.3-0.2l0,0l0,0c0.9-0.6,1.6-1.2,2.3-2
	c0.7-0.8,1.4-1.6,1.9-2.5c0.5-0.9,1-1.9,1.4-2.9c0.3-0.8,0.5-1.6,0.6-2.5c0-0.2,0.1-0.4,0.1-0.6c0.1-1,0.1-2.1,0-3.2
	C106,39.8,105.9,39.9,105.9,40z M112.3,34.3C112.2,34.3,112.2,34.3,112.3,34.3C112.2,34.4,112.2,34.4,112.3,34.3
	c-0.4,0.7-0.6,1.4-0.8,2c-0.1,0.2-0.1,0.5-0.2,0.7l0,0.2c0,0.1-0.1,0.3-0.1,0.4c0,0.1-0.1,0.3-0.1,0.4c0,0.2,0.1,0.4,0.3,0.5
	c0.1,0,0.1,0,0.2,0.1c0.1,0,0.2,0,0.3,0c0.1,0,0.1,0,0.2,0l0.1,0l0.1,0c0.1,0,0.2,0,0.3,0c0.4-0.1,0.9-0.3,1.2-0.4
	c0.2-0.1,0.5-0.2,0.7-0.4c0.2-0.1,0.3-0.3,0.5-0.4l0,0c0.1-0.1,0.1-0.1,0.2-0.2c0,0,0-0.1,0-0.1c0,0,0,0,0,0c0,0-0.1,0-0.1,0l-0.1,0
	l0,0c-0.4,0.4-0.9,0.7-1.4,0.9c-0.3,0.1-0.5,0.2-0.8,0.3c-0.1,0-0.2,0-0.3,0.1l-0.1,0c-0.1,0-0.1,0-0.2,0c0,0-0.1,0-0.1,0h-0.1
	c0,0,0,0,0,0c-0.1,0-0.2,0-0.3-0.1c-0.1,0-0.2-0.1-0.3-0.2c-0.1-0.2-0.1-0.4,0-0.6l0-0.1c0,0,0,0,0-0.1c0.2-1,0.6-2.1,1-3.1
	L112.3,34.3C112.3,34.3,112.3,34.3,112.3,34.3z M110.4,37.8l-0.5,0.6l0,0c0,0,0,0.1,0,0.1c0,0,0.1,0,0.1,0l0.2-0.3L110.4,37.8
	C110.5,37.8,110.5,37.8,110.4,37.8C110.5,37.7,110.4,37.8,110.4,37.8z M110.9,37.3c-0.1,0-0.1,0.1-0.1,0.1
	C110.9,37.5,110.9,37.3,110.9,37.3z M117.4,34c0,0.1,0,0.1-0.1,0.2c-0.1,0.4-0.4,0.8-0.7,1.1l0,0l0,0c0,0-0.1,0.1,0,0.1c0,0,0,0,0,0
	h0c0,0,0,0,0,0l0,0C117,35.1,117.3,34.6,117.4,34l0.1,0v0C117.5,33.9,117.4,34,117.4,34z"/>
<path class="st23" d="M111.6,37c0,0,0,0.1,0,0.1c0,0,0,0,0,0c0,0,0,0,0,0.1c0,0,0,0,0,0.1c0,0,0,0.1,0,0.1c0,0,0,0.1,0,0.1
	c0,0,0,0,0,0.1c0,0,0.1,0.1,0.1,0.1c0,0,0,0.1,0.1,0.1c0,0,0.1,0,0.1,0.1c0,0,0.1,0.1,0.1,0.1l0,0c0,0,0.1,0,0.1,0.1c0,0,0,0,0.1,0
	s0.1,0,0.1,0c0,0,0.1,0,0.1,0c0,0,0,0,0,0c0,0,0.1,0,0.1,0c0,0,0,0,0.1,0c0,0,0.1,0,0.1,0c0,0,0.1,0,0.1,0c0.1,0,0.2,0,0.2,0
	c0.3,0,0.5-0.1,0.8-0.3c0.5-0.3,0.9-0.7,1.2-1.2c0.8-1.1,1.7-2.1,2.5-3.2c0,0,0,0,0,0c-1-0.1-2.1-0.1-3.4-0.2
	c-0.4,0-1.1,0.1-1.1,0.1s-0.1,0.1-0.1,0.3c0,0,0,0,0,0.1c-0.1,0.2-0.2,0.5-0.3,0.6c-0.2,0.5-0.4,0.9-0.7,1.4
	C111.8,36.1,111.6,36.6,111.6,37z"/>
<path class="st23" d="M116.1,23.1C116.1,23.1,116.1,23.1,116.1,23.1C115.6,22.5,114.6,23.1,116.1,23.1z"/>
<path class="st23" d="M106.5,24.5c0.1,0,0.3-0.2,0.2-0.2C106.6,24.4,106.1,24.7,106.5,24.5z M116.8,24.4L116.8,24.4
	c0.5-0.3,1.1,0.3,0.5,0.5v0C117.9,24.8,117.4,24.1,116.8,24.4c0.1-1.5,2.9-0.8,1.5,1.1l0,0C120.1,23.5,116.6,22.7,116.8,24.4z
	 M105.3,23.9c0.1-0.5,0.7-0.8,0.9-1.3c0,0,0,0,0,0c0,0,0,0,0,0c0.8-1.9,0.7-4.3,1.8-6.1c0.1-0.1,0.1-0.2,0.2-0.3
	c-0.1,0.1-0.1,0.3-0.1,0.4c-0.1,0.3-0.1,0.8,0.3,0.8c0,0.3,0.2,0.6,0.5,0.6c0.1,0.1,0.3,0,0.2-0.1c-0.3,0-0.5-0.3-0.5-0.5
	c0.1,0,0.1-0.1,0.1-0.2c0-0.3-0.2-0.1-0.2,0.1c0,0-0.1,0-0.1-0.1c-0.2-0.3-0.1-0.8,0-1.1c2,3.1,5.4,5.2,8.8,6.5
	c-0.2,0.2-0.5,0.3-0.8,0.3c-0.1-0.1-0.2-0.2-0.3-0.3c-0.5-0.4-1.6,0.3-0.5,0.4c0.2,0,0.4,0,0.6,0c0.2,0.3,0.1,0.8-0.1,1.1
	c-0.3,0.3-0.7,0.6-1.2,0.5c-0.5,0.4,1.4,0.1,1.5-0.9c0.1-0.2,0-0.5,0-0.7c0.3,0,0.6-0.1,0.8-0.4c1.7-0.4,3.1,1.5,2.3,3c0,0,0,0,0,0
	c-0.2,0.3-0.4,0.6-0.7,0.8c0,0,0,0,0,0h0c0,0-0.1,0.1-0.1,0.1h0c-0.4,0.2-0.9,0.3-1.4,0.2v0l-3.9,2.4c-1.5,0.6-3.3,1.8-4.9,0.8
	c-1.5-1.3-2.4-3.6-2.2-5.5C105.7,24.9,105.3,24.4,105.3,23.9z"/>
<path class="st23" d="M117.2,27L117.2,27c0.2,0,0.5,0,0.7,0C117.7,27.1,117.4,27.1,117.2,27z"/>
<path class="st23" d="M118.7,24.6c0,0.3-0.2,0.7-0.4,0.9l0,0c1.8-2.1-1.8-2.8-1.5-1.1c0.4-0.3,1,0.3,0.4,0.5v0
	c0.6-0.2,0.1-0.9-0.4-0.6C116.8,23.2,118.9,23.4,118.7,24.6z"/>
<path class="st23" d="M113.3,30.5c0,0,0,2.9,0,3h3.8c0-0.4,0.2-6.1,0.2-6.5l-3.9,2.4C113.3,29.4,113.3,30.5,113.3,30.5z"/>
<path class="st23" d="M106.5,24.5c0.1,0,0.3-0.2,0.2-0.2C106.6,24.4,106.1,24.6,106.5,24.5z"/>
<path class="st16" d="M106.5,24.5c0.1,0,0.3-0.2,0.2-0.2C106.6,24.4,106.1,24.6,106.5,24.5z"/>
<path class="st16" d="M116.8,24.4L116.8,24.4c0.5-0.3,1.1,0.3,0.4,0.5v0C117.9,24.8,117.4,24.1,116.8,24.4c0.1-1.5,2.9-0.8,1.5,1.1
	l0,0C120.1,23.5,116.6,22.7,116.8,24.4z"/>
<path class="st22" d="M125,17.3c0.3-0.1,0.6-0.3,0.9-0.5c-0.5,0.7-1.6,0.9-2.4,1.1c-0.1,0-0.1-0.1-0.2-0.1
	C124,17.6,124.5,17.5,125,17.3z M115.9,12.1C115.9,12.1,115.9,12.1,115.9,12.1C115.9,12.1,115.9,12.1,115.9,12.1
	C115.9,12,115.9,12.1,115.9,12.1z M125,17.3c0.3-0.1,0.6-0.3,0.9-0.5c-0.5,0.7-1.6,0.9-2.4,1.1c-0.1,0-0.1-0.1-0.2-0.1
	C124,17.6,124.5,17.5,125,17.3z M115.9,12.1C115.9,12.1,115.9,12.1,115.9,12.1C115.9,12.1,115.9,12.1,115.9,12.1
	C115.9,12,115.9,12.1,115.9,12.1z M125,17.3c0.3-0.1,0.6-0.3,0.9-0.5c-0.5,0.7-1.6,0.9-2.4,1.1c-0.1,0-0.1-0.1-0.2-0.1
	C124,17.6,124.5,17.5,125,17.3z M115.9,12.1C115.9,12.1,115.9,12.1,115.9,12.1C115.9,12.1,115.9,12.1,115.9,12.1
	C115.9,12,115.9,12.1,115.9,12.1z M125,17.3c0.3-0.1,0.6-0.3,0.9-0.5c-0.5,0.7-1.6,0.9-2.4,1.1c-0.1,0-0.1-0.1-0.2-0.1
	C124,17.6,124.5,17.5,125,17.3z M118.2,27C118.2,27,118.2,27,118.2,27C118.2,27,118.2,27,118.2,27z M117.2,27c0.2,0,0.5,0,0.7,0
	C117.7,27.1,117.4,27.1,117.2,27L117.2,27z M117.2,28.4l0-0.9l0,1.6L117.2,28.4z M115.9,12.1C115.9,12.1,115.9,12.1,115.9,12.1
	C115.9,12.1,115.9,12.1,115.9,12.1C115.9,12,115.9,12.1,115.9,12.1z M115.9,12.1C115.9,12.1,115.9,12.1,115.9,12.1
	C115.9,12.1,115.9,12.1,115.9,12.1C115.9,12,115.9,12.1,115.9,12.1z M125,17.3c0.3-0.1,0.6-0.3,0.9-0.5c-0.5,0.7-1.6,0.9-2.4,1.1
	c-0.1,0-0.1-0.1-0.2-0.1C124,17.6,124.5,17.5,125,17.3z M115.9,12.1C115.9,12.1,115.9,12.1,115.9,12.1
	C115.9,12.1,115.9,12.1,115.9,12.1C115.9,12,115.9,12.1,115.9,12.1z M125,17.3c0.3-0.1,0.6-0.3,0.9-0.5c-0.5,0.7-1.6,0.9-2.4,1.1
	c-0.1,0-0.1-0.1-0.2-0.1C124,17.6,124.5,17.5,125,17.3z M125,17.3c0.3-0.1,0.6-0.3,0.9-0.5c-0.5,0.7-1.6,0.9-2.4,1.1
	c-0.1,0-0.1-0.1-0.2-0.1C124,17.6,124.5,17.5,125,17.3z M115.9,12.1C115.9,12.1,115.9,12.1,115.9,12.1
	C115.9,12.1,115.9,12.1,115.9,12.1C115.9,12,115.9,12.1,115.9,12.1z"/>
<path class="st22" d="M112.6,12.1c1.1-0.4,2.2-0.5,3.2-0.1c0,0,0,0,0,0.1c0,0,0,0,0,0c1.1,0.4,1.9,1.4,2.4,2.4
	c-0.7-3.3-5.5-3.6-7.7-1.6L112.6,12.1z M116.1,23C115.4,22.5,114.6,23.1,116.1,23C116.1,23,116.1,23,116.1,23z M119.4,27.8
	c0.8-0.3,1.3-1,1.3-1.9c-0.1,0-0.1,0-0.1,0C120.2,26.6,119.8,27.2,119.4,27.8z M120.7,25.7c0,0,0,0.1-0.1,0.1L120.7,25.7
	C120.7,25.8,120.7,25.7,120.7,25.7z M120.9,25.8c0.5-0.1,1-0.3,1.4-0.6c1.2-0.8,1.4-3-0.1-3.7c1.2,1.4,0.4,3.8-1.4,4.1
	C120.9,25.7,120.9,25.7,120.9,25.8z M130.2,7.2c0.1,0,0.1,0.1,0.2,0.1c2.5-1.7,0.4-4.8-1.7-5.8C130.6,3.2,131.3,5.6,130.2,7.2z
	 M131.4,9c0-0.1-0.1-0.2-0.1-0.3c0.4,1.2-0.2,2.9-1,4C131.3,11.8,131.8,10.3,131.4,9z M104.6,18.6c0.3-1.1,1-2,2-2.4
	c-0.6-0.8,0-0.8,0.6-0.4c-0.3-1.1,0-2.2,0.1-0.2c0.1-0.6,0.3-1.2,0.7-1.6c0.6-0.7,1.6-1.1,2.5-0.9c2.1-2.3,7.3-2,7.9,1.5
	c0.8-0.6,1.4-0.1,0.8,0.9c0.1,0,0.2,0,0.4,0c0.2-0.2,0.4-0.4,0.7-0.5c-3.2-2.6-2.1-8.9,1.9-10c-1.9-4,2.5-6.4,6-3.8
	c2.5,0.8,5.1,4.3,2.3,6.3c4,3.6-2.2,7.2-4.6,9.6c0.4-0.5,1-0.9,1.4-1.4c-1.4,0.7-2.4,1.8-4,2.2c0.1,0,0.1,0,0.2,0
	c0.1,0,0.1,0.1,0.2,0.1c-0.2,0-0.4,0-0.7,0.1c0.2,0,0.6,0.2,0.5,0.5c0.3,0,1.4,1,0.9,1.1c-0.1-0.2-0.2-0.4-0.4-0.6
	c-0.2-0.2-0.4-0.3-0.6-0.3c-0.6,0.4-0.8-0.3,0-0.2c-0.1-0.4-0.7-0.4-1.1-0.4c0,0.3-0.1,0.6-0.3,1c1.4,0.4,1.5,1.8,0.2,2.3
	c2.4,1.1,0.9,4.4-1.3,4.6c-0.1,1.9-2.2,2.6-3.7,3.1c0-0.3,0-1.7,0-2c0.5,0.1,1,0,1.4-0.2c0,0,0.1,0,0.1-0.1h0c0,0,0,0,0.1,0
	c0.3-0.2,0.5-0.5,0.7-0.8c0,0,0,0,0,0c0.8-1.5-0.7-3.4-2.3-3c-0.2,0.3-0.5,0.4-0.8,0.4c0.1,0.2,0.1,0.4,0,0.7c-0.1,1-2,1.3-1.5,0.9
	c0.4,0.1,0.9-0.1,1.2-0.5c0.3-0.3,0.3-0.8,0.1-1.1c-0.2,0-0.4,0-0.6,0c-1.1-0.1,0-0.8,0.5-0.4c0.1,0.1,0.2,0.2,0.3,0.3
	c0.3,0,0.6,0,0.7-0.3c-3.4-1.3-6.8-3.4-8.8-6.5c-0.1,0.3-0.3,0.8,0,1.1c0,0,0.1,0.1,0.1,0.1c0-0.2,0.3-0.4,0.2-0.1
	c0,0.1-0.1,0.1-0.1,0.2c0,0.3,0.2,0.5,0.5,0.5c0.1,0.1-0.1,0.2-0.2,0.1c-0.3,0-0.5-0.3-0.5-0.6c-0.4,0-0.4-0.5-0.3-0.8
	c0-0.1,0.1-0.3,0.1-0.4c-0.1,0.1-0.1,0.2-0.2,0.3c-1.1,1.8-1,4.2-1.8,6.1c0,0,0,0,0,0C104.6,22,104.1,20.1,104.6,18.6z"/>
<path class="st29" d="M113.3,30.8c0.7-0.3,3.8-3.6,3.9-3.7l-3.9,2.4C113.3,29.6,113.3,30.6,113.3,30.8z"/>
<path class="st22" d="M108.4,23c0.3-1,1.6-0.9,2.2,0C110.7,21.6,108.4,21.7,108.4,23z"/>
<path class="st22" d="M108.6,20.1c0.6-0.1,1.4,0.2,1.8,0.7C110,19,107.7,19.7,108.6,20.1z"/>
<path class="st22" d="M108.8,27.3c0.5,0,1-0.2,1.3-0.7c0,0,0-0.1,0-0.1c0,0-0.1,0-0.1,0c-0.4,0.6-1.3,0.8-1.9,0.4c0,0-0.1,0-0.1,0
	c0,0,0,0.1,0,0.1C108.2,27.2,108.5,27.3,108.8,27.3z"/>
<path class="st22" d="M108.8,22c0.1-0.1,0.2-0.2,0.3-0.3C109,21.5,108.6,22,108.8,22z"/>
</svg>
