<?xml version="1.0" encoding="utf-8"?>
<!-- Generator: Adobe Illustrator 25.4.1, SVG Export Plug-In . SVG Version: 6.00 Build 0)  -->
<svg version="1.1" id="Layer_1" xmlns="http://www.w3.org/2000/svg" xmlns:xlink="http://www.w3.org/1999/xlink" x="0px" y="0px"
	 viewBox="0 0 130 120" style="enable-background:new 0 0 130 120;" xml:space="preserve">
<style type="text/css">
	.st0{clip-path:url(#SVGID_00000121965298677558596340000013175222271451025834_);}
	.st1{fill:#6A7E89;}
	.st2{fill:#DCDFF0;}
	.st3{fill:#FFFFFF;}
	.st4{fill:#C1C6E5;}
	.st5{fill:#F7931E;}
	.st6{fill:#F15A24;}
	.st7{fill:url(#SVGID_00000065046712629889391370000010827231957882298017_);}
	.st8{fill:url(#SVGID_00000108297279915177815240000006157448241628334521_);}
	.st9{fill:url(#SVGID_00000088111825073739318290000007631013004813676959_);}
	.st10{fill:#DEE1F1;}
	.st11{fill:#00A99D;}
	.st12{fill:#145A7B;}
	.st13{fill:url(#SVGID_00000140715512511808838940000015794367862931832241_);}
	.st14{fill:#FFB6B6;}
	.st15{fill:#2F2E41;}
	.st16{fill:#9E616A;}
	.st17{fill:#93278F;}
</style>
<g>
	<defs>
		<rect id="SVGID_1_" width="129.1" height="120"/>
	</defs>
	<clipPath id="SVGID_00000019657349582783887590000013985228302624971936_">
		<use xlink:href="#SVGID_1_"  style="overflow:visible;"/>
	</clipPath>
	<g style="clip-path:url(#SVGID_00000019657349582783887590000013985228302624971936_);">
		<path class="st1" d="M126.9,0H2.2C1,0,0,1,0,2.2v92c0,1.2,1,2.2,2.2,2.2h124.7c1.2,0,2.2-1,2.2-2.2v-92C129.1,1,128.1,0,126.9,0z"
			/>
		<path class="st2" d="M124.5,11.7H4.6c-1.2,0-2.1,1-2.1,2.1v78.3c0,1.2,1,2.1,2.1,2.1h119.9c1.2,0,2.1-1,2.1-2.1V13.8
			C126.6,12.6,125.7,11.7,124.5,11.7z"/>
		<path class="st3" d="M66.4,15.6H8.1c-1.4,0-2.5,1.1-2.5,2.5v38.2c0,1.4,1.1,2.5,2.5,2.5h58.3c1.4,0,2.5-1.1,2.5-2.5V18.1
			C68.8,16.7,67.7,15.6,66.4,15.6z"/>
		<path class="st3" d="M123.6,63H5.8c-0.1,0-0.2,0.1-0.2,0.2v29.5c0,0.1,0.1,0.2,0.2,0.2h117.9c0.1,0,0.2-0.1,0.2-0.2V63.1
			C123.8,63.1,123.7,63,123.6,63z"/>
		<path class="st4" d="M17,67.6h-6.6c0,0-0.1,0-0.1,0.1v1.9c0,0,0,0.1,0.1,0.1H17c0,0,0.1,0,0.1-0.1L17,67.6
			C17,67.6,17,67.6,17,67.6z"/>
		<path class="st4" d="M118.8,67.6H18.7c0,0-0.1,0-0.1,0.1v1.9c0,0,0,0.1,0.1,0.1h100.1c0,0,0.1,0,0.1-0.1L118.8,67.6
			C118.8,67.6,118.8,67.6,118.8,67.6z"/>
		<path class="st4" d="M17,72h-6.6c0,0-0.1,0-0.1,0.1V74c0,0,0,0.1,0.1,0.1H17c0,0,0.1,0,0.1-0.1L17,72C17,72,17,72,17,72z"/>
		<path class="st4" d="M118.8,72H18.7c0,0-0.1,0-0.1,0.1V74c0,0,0,0.1,0.1,0.1h100.1c0,0,0.1,0,0.1-0.1L118.8,72
			C118.8,72,118.8,72,118.8,72z"/>
		<path class="st4" d="M17,76.4h-6.6c0,0-0.1,0-0.1,0.1v1.9c0,0,0,0.1,0.1,0.1H17c0,0,0.1,0,0.1-0.1L17,76.4
			C17,76.4,17,76.4,17,76.4z"/>
		<path class="st4" d="M118.8,76.4H18.7c0,0-0.1,0-0.1,0.1v1.9c0,0,0,0.1,0.1,0.1h100.1c0,0,0.1,0,0.1-0.1L118.8,76.4
			C118.8,76.4,118.8,76.4,118.8,76.4z"/>
		<path class="st4" d="M17,80.8h-6.6c0,0-0.1,0-0.1,0.1v1.9c0,0,0,0.1,0.1,0.1H17c0,0,0.1,0,0.1-0.1L17,80.8
			C17,80.8,17,80.8,17,80.8z"/>
		<path class="st4" d="M118.8,80.8H18.7c0,0-0.1,0-0.1,0.1v1.9c0,0,0,0.1,0.1,0.1h100.1c0,0,0.1,0,0.1-0.1L118.8,80.8
			C118.8,80.8,118.8,80.8,118.8,80.8z"/>
		<path class="st4" d="M17,85.2h-6.6c0,0-0.1,0-0.1,0.1v1.9c0,0,0,0.1,0.1,0.1H17c0,0,0.1,0,0.1-0.1L17,85.2
			C17,85.2,17,85.2,17,85.2z"/>
		<path class="st4" d="M118.8,85.2H18.7c0,0-0.1,0-0.1,0.1v1.9c0,0,0,0.1,0.1,0.1h100.1c0,0,0.1,0,0.1-0.1L118.8,85.2
			C118.8,85.2,118.8,85.2,118.8,85.2z"/>
		<path class="st5" d="M20.9,40h-6.1v9.3h6.1V40z"/>
		<path class="st6" d="M30.1,34.5H24v14.8h6.1V34.5z"/>
		<path class="st5" d="M39.2,29.1h-6.1v20.2h6.1V29.1z"/>
		<path class="st6" d="M48.4,23h-6.1v26.3h6.1V23z"/>
		<path class="st5" d="M57.6,33h-6.1v16.3h6.1V33z"/>
		<path class="st4" d="M27.7,21.7H14.1c0,0-0.1,0-0.1,0.1v1.7c0,0,0,0.1,0.1,0.1h13.6c0,0,0.1,0,0.1-0.1L27.7,21.7
			C27.8,21.8,27.7,21.7,27.7,21.7z"/>
		<path class="st4" d="M23.3,26.6h-9.2c0,0-0.1,0-0.1,0.1v1.7c0,0,0,0.1,0.1,0.1h9.2c0,0,0.1,0,0.1-0.1L23.3,26.6
			C23.3,26.6,23.3,26.6,23.3,26.6z"/>
		
			<linearGradient id="SVGID_00000166676649861158970610000008818392305334977211_" gradientUnits="userSpaceOnUse" x1="7.9011" y1="117.072" x2="11.0322" y2="117.072" gradientTransform="matrix(1 0 0 -1 0 122)">
			<stop  offset="0" style="stop-color:#FFFFFF"/>
			<stop  offset="1" style="stop-color:#DFE2F3"/>
		</linearGradient>
		<path style="fill:url(#SVGID_00000166676649861158970610000008818392305334977211_);" d="M11,5.2c0.1-0.9-0.4-1.7-1.3-1.8
			S8.1,3.8,7.9,4.7C7.8,5.5,8.4,6.3,9.2,6.5C10.1,6.6,10.9,6,11,5.2z"/>
		
			<linearGradient id="SVGID_00000165934147275019757070000009516805704909900476_" gradientUnits="userSpaceOnUse" x1="3528.96" y1="117.072" x2="3614.8701" y2="117.072" gradientTransform="matrix(1 0 0 -1 0 122)">
			<stop  offset="0" style="stop-color:#FFFFFF"/>
			<stop  offset="1" style="stop-color:#DFE2F3"/>
		</linearGradient>
		<path style="fill:url(#SVGID_00000165934147275019757070000009516805704909900476_);" d="M16.9,5.2c0.1-0.9-0.4-1.7-1.3-1.8
			c-0.9-0.1-1.7,0.4-1.8,1.3c-0.1,0.9,0.4,1.7,1.3,1.8C16,6.6,16.8,6,16.9,5.2z"/>
		
			<linearGradient id="SVGID_00000083052640326192718250000016971424644700921992_" gradientUnits="userSpaceOnUse" x1="3707.6299" y1="117.4155" x2="3793.74" y2="117.4155" gradientTransform="matrix(1 0 0 -1 0 122)">
			<stop  offset="0" style="stop-color:#FFFFFF"/>
			<stop  offset="1" style="stop-color:#DFE2F3"/>
		</linearGradient>
		<path style="fill:url(#SVGID_00000083052640326192718250000016971424644700921992_);" d="M23.1,4.8C23.2,4,22.7,3.2,21.8,3
			c-0.9-0.1-1.7,0.4-1.8,1.3c-0.1,0.9,0.4,1.7,1.3,1.8C22.2,6.3,23,5.7,23.1,4.8z"/>
		<path class="st3" d="M121.3,15.9H74.3c-1.4,0-2.5,1.1-2.5,2.5v38.2c0,1.4,1.1,2.5,2.5,2.5h47.1c1.4,0,2.5-1.1,2.5-2.5V18.3
			C123.8,17,122.7,15.9,121.3,15.9z"/>
		<path class="st10" d="M94.3,35.2c0,1.2-0.3,2.5-0.8,3.6c-0.7,1.4-1.7,2.6-2.9,3.5c-1.3,0.9-2.7,1.4-4.3,1.6c-0.3,0-0.5,0-0.8,0
			c-4.9,0-8.9-3.9-8.9-8.7s4-8.7,8.9-8.7c2.2,0,4.3,0.8,6,2.3c0.9,0.8,1.6,1.8,2.1,2.9C94.1,32.8,94.3,34,94.3,35.2L94.3,35.2z"/>
		<path class="st5" d="M78.5,31c-0.6,1.1-1,2.2-1.1,3.5l8.7,1l-1.9-8.5c-1.2,0.2-2.3,0.7-3.3,1.4C80,29,79.2,29.9,78.5,31z"/>
		<path class="st11" d="M77.4,34.4c-0.2,1.5,0.1,3.1,0.7,4.5c0.6,1.4,1.6,2.6,2.9,3.5l5.1-7L77.4,34.4z"/>
		<path class="st10" d="M110,26.6c-2.2,0-4.3,0.8-6,2.3c-0.9,0.8-1.6,1.8-2.1,2.9c-0.5,1.1-0.7,2.3-0.8,3.5c0,1.2,0.3,2.5,0.8,3.6
			c0.7,1.4,1.7,2.6,2.9,3.5c1.3,0.9,2.7,1.4,4.3,1.6c0.3,0,0.5,0,0.8,0c4.9,0,8.9-3.9,8.9-8.7S114.9,26.6,110,26.6z M110,40.6
			c-0.2,0-0.3,0-0.5,0h0c-0.9-0.1-1.9-0.4-2.6-1c-0.8-0.5-1.4-1.3-1.8-2.2v0c-0.3-0.7-0.5-1.4-0.5-2.2c0-0.7,0.2-1.5,0.5-2.2
			c0.3-0.7,0.8-1.3,1.3-1.8c1-0.9,2.3-1.4,3.7-1.4c3,0,5.5,2.4,5.5,5.4C115.5,38.2,113,40.6,110,40.6z"/>
		<path class="st6" d="M104.5,35.2c0,0.8,0.2,1.5,0.5,2.2v0l-3.1,1.4c-0.5-1.1-0.8-2.3-0.8-3.6c0-1.2,0.3-2.4,0.8-3.5
			c0.5-1.1,1.2-2.1,2.1-2.9l2.3,2.4c-0.6,0.5-1,1.1-1.3,1.8C104.7,33.7,104.5,34.5,104.5,35.2L104.5,35.2z"/>
		<path class="st12" d="M109.5,40.5l-0.3,3.3c-1.5-0.1-3-0.7-4.3-1.6c-1.3-0.9-2.3-2.1-2.9-3.5l3.1-1.4c0.4,0.9,1,1.6,1.8,2.2
			C107.6,40.1,108.5,40.5,109.5,40.5L109.5,40.5z"/>
		
			<linearGradient id="SVGID_00000114766986308743272800000012358319390704149689_" gradientUnits="userSpaceOnUse" x1="85.4696" y1="74.8184" x2="85.4696" y2="72.8555" gradientTransform="matrix(1 0 0 -1 0 122)">
			<stop  offset="0" style="stop-color:#FBFFFF"/>
			<stop  offset="1" style="stop-color:#BCC2E6"/>
		</linearGradient>
		<path style="fill:url(#SVGID_00000114766986308743272800000012358319390704149689_);" d="M88.8,47.2h-6.6c0,0-0.1,0-0.1,0.1v1.9
			c0,0,0,0.1,0.1,0.1h6.6c0,0,0.1,0,0.1-0.1L88.8,47.2C88.8,47.2,88.8,47.2,88.8,47.2z"/>
		<path class="st4" d="M114,47.2h-6.6c0,0-0.1,0-0.1,0.1v1.9c0,0,0,0.1,0.1,0.1h6.6c0,0,0.1,0,0.1-0.1L114,47.2
			C114.1,47.2,114,47.2,114,47.2z"/>
		<path class="st14" d="M100,75.4c-0.2-0.2-0.3-0.4-0.4-0.7c-0.1-0.3-0.1-0.5-0.1-0.8c0-0.3,0.1-0.5,0.2-0.8
			c0.1-0.2,0.3-0.4,0.5-0.6c0.1-0.1,0.2-0.1,0.3-0.2l-1.4-7.2l3.7,1.5l0.8,6.6c0.5,1,0.1,2.3-1,2.8c-0.4,0.2-0.9,0.3-1.4,0.2
			C100.7,76,100.3,75.8,100,75.4L100,75.4z"/>
		<path class="st14" d="M65.3,47.7c0.3,1.1,1.4,1.7,2.6,1.4c0.1,0,0.2-0.1,0.4-0.1l5.2,5.2l0.9-3.8l-5.1-4.4c-0.6-1-1.9-1.3-2.9-0.8
			C65.5,45.8,65,46.8,65.3,47.7z"/>
		<path class="st14" d="M99.1,117.6h-2.7l-1.3-9.7h3.9L99.1,117.6z"/>
		<path class="st15" d="M99.8,120h-8.6v-0.1c0-1.7,1.5-3.2,3.3-3.2h5.2L99.8,120z"/>
		<path class="st14" d="M90.4,117.5l-2.5-0.8l1.9-9.6l3.7,1.1L90.4,117.5z"/>
		<path class="st15" d="M90.3,120l-8.2-2.4l0-0.1c0.6-1.7,2.4-2.6,4.2-2.1l5,1.5L90.3,120z"/>
		<path class="st15" d="M87.3,68.1c0,0-3.9,5.9-2.5,11.1c1.4,5.2,2.9,15.3,2.9,15.3l7.5,19.2l5.6-0.2l-5.6-22.2l0.2-13.4
			c0,0,3.9-6.4,3.1-8.4C97.8,67.3,87.3,68.1,87.3,68.1z"/>
		<path class="st15" d="M100.1,70.1c0,0,0.5,5.8-1,8.3C97.6,80.9,96,90.2,96,90.2l-2.6,20.9l-5.3-1.6l4.5-23.1l3.6-16.5L100.1,70.1z
			"/>
		<path class="st12" d="M86.8,51.1l-8.3,8.8l-9.8-8.8l4-2.1l5.4,3.1l8.5-9.8c2.2-0.1,4.1,1.5,4.2,3.6c0,0.2,0,0.4,0,0.6
			C90.5,48.5,88.8,51.1,86.8,51.1z"/>
		<path class="st14" d="M95.2,37c3,0,5.5-2.3,5.5-5.2c0-2.9-2.5-5.2-5.5-5.2c-3,0-5.5,2.3-5.5,5.2C89.7,34.7,92.2,37,95.2,37z"/>
		<path class="st12" d="M101.8,48.8L104,71l-6.9-0.3L101.8,48.8z"/>
		<path class="st16" d="M29.3,116.9h2.1l1-7.5h-3V116.9z"/>
		<path class="st15" d="M28.7,116.3h4.1c1.4,0,2.6,1.1,2.6,2.4v0.1h-6.6V116.3z"/>
		<path class="st16" d="M48.2,116.9h2.1l1-7.5h-3V116.9z"/>
		<path class="st15" d="M47.7,116.3h4.1c1.4,0,2.6,1.1,2.6,2.4v0.1h-6.6L47.7,116.3z"/>
		<path class="st16" d="M45.7,56.6l1.3,8.1l-12.8,0.2l1.7-7.8L45.7,56.6z"/>
		<path class="st15" d="M46.7,62.7l4.1,10.2l0.5,42.4h-3.4l-8.2-34.1l-7.6,33.2h-3.4l2.4-37.3c0,0-0.7-7.5,2.9-11.9l0.9-2.4
			L46.7,62.7z"/>
		<path class="st16" d="M29.3,70.7c1.3-0.3,2.1-1.7,1.8-2.9c0-0.1-0.1-0.3-0.2-0.4l5.4-16.7l-4-0.7l-5,16.4c-1.2,0.6-1.7,2.1-1,3.3
			C27,70.5,28.2,71,29.3,70.7L29.3,70.7z"/>
		<path class="st16" d="M61,46.3c-0.1,0.1-0.1,0.2-0.1,0.3l-11,3.5l-2.1-1.8l-3.2,2.7l3.4,3.5c0.3,0.3,0.7,0.5,1.1,0.5
			c0.4,0.1,0.8,0,1.2-0.2L62,49.3c1.2,0.7,2.7,0.3,3.4-0.8s0.3-2.5-0.8-3.2c-1.2-0.7-2.7-0.3-3.4,0.8C61.1,46.2,61.1,46.3,61,46.3
			L61,46.3z"/>
		<path class="st17" d="M49.5,50.4l-4,3.3C45.3,53.9,45,54,44.7,54c-0.3,0-0.5-0.1-0.7-0.3c0,0-0.1-0.1-0.1-0.1L41,49.3
			c-0.3-0.3-0.4-0.6-0.6-0.9c-0.1-0.3-0.2-0.7-0.1-1.1c0-0.4,0.1-0.7,0.3-1.1c0.2-0.3,0.4-0.6,0.7-0.8c0.6-0.5,1.4-0.7,2.1-0.7
			c0.8,0.1,1.5,0.4,2,0.9l4,3.2c0.1,0.1,0.2,0.2,0.3,0.3c0.1,0.1,0.1,0.2,0.1,0.4c0,0.1,0,0.3,0,0.4c0,0.1-0.1,0.2-0.2,0.3
			C49.6,50.4,49.5,50.4,49.5,50.4L49.5,50.4z"/>
		<path class="st17" d="M35.7,54.9l-5-1.8c-0.1,0-0.2-0.1-0.3-0.2c-0.1-0.1-0.2-0.2-0.2-0.3c-0.1-0.1-0.1-0.3-0.1-0.4
			c0-0.1,0-0.3,0.1-0.4c0,0,0-0.1,0.1-0.1l2.6-4.4c0.6-1.4,2.3-2.1,3.8-1.5c1.5,0.6,2.2,2.2,1.6,3.6l-1.2,4.9
			c-0.1,0.3-0.2,0.5-0.5,0.6C36.4,55,36.1,55,35.8,55C35.8,54.9,35.7,54.9,35.7,54.9L35.7,54.9z"/>
		<path class="st16" d="M39.4,42.2c3,0,5.4-2.3,5.4-5.1c0-2.8-2.4-5.1-5.4-5.1c-3,0-5.4,2.3-5.4,5.1C34,39.9,36.4,42.2,39.4,42.2z"
			/>
		<path class="st16" d="M38.2,41.9l-0.2,2l4.3,0v-2l-3.7-0.7L38.2,41.9z"/>
		<path class="st15" d="M43.1,35l3.5,0c0.1-0.7-0.3-1.5-0.8-2.1c-0.5-0.6-1.2-1-1.8-1.4c-0.7-0.4-1.4-0.9-2.1-1c-0.7-0.1-1.3,0-2,0
			l-2.7,0.4c-1,0.1-2,0.3-2.8,0.8c-1.1,0.7-1.5,2.1-1.8,3.3l-1.9,6.7l11.2,1.1c0.4,0.1,0.8,0.1,1.2,0c0.2,0,0.4-0.1,0.5-0.3
			c0.1-0.1,0.2-0.3,0.3-0.5c0-0.4-0.3-0.8-0.6-1.1C42.5,40,42.1,39,42,38c-0.1-1.1,0.2-2.1,0.7-3L43.1,35z"/>
		<path class="st17" d="M36.4,61.1c-0.1,0-0.1,0-0.2,0l0,0c-0.2,0-0.5-0.2-0.6-0.3c-0.2-0.2-0.3-0.4-0.3-0.6
			c-0.1-1.6-0.8-4.5-1.9-8.5c-1-3.6,1.3-7.2,5.1-8.2c1-0.3,2.1-0.3,3.2-0.1c1.1,0.2,2.1,0.6,2.9,1.3c0.7,0.5,1.4,1.2,1.8,2
			c0.5,0.8,0.8,1.6,0.9,2.5c0.6,4.6-0.5,9.2-1,11c-0.1,0.2-0.2,0.4-0.4,0.6c-0.2,0.1-0.4,0.2-0.7,0.2L36.4,61.1L36.4,61.1z"/>
		<path class="st14" d="M93.2,36.6l-0.1,2.9l4.7-0.2l-0.2-3L93.2,36.6z"/>
		<path class="st15" d="M101.8,30.6c-0.2-1.1-1-2.2-2.1-2.6c-0.5-1.3-1.7-2.2-3-2.6c-2.6-0.8-5.4,0.2-6.8,2.4
			c-0.1,0.2-0.4,0.5-0.4,0.7c0,0.2,0.4,0.5,0.6,0.6c0.5,0.3,1,0.6,1.5,0.9c2,1,1.3,2.5,1.3,4.2c0,0.8,0.3,1.6,1,2
			c1.1,0.7,2.7,0.4,3.8,0.1c1.3-0.3,2.5-1.4,3.2-2.5C101.6,32.9,102,31.7,101.8,30.6z"/>
		<path class="st12" d="M102,42l-4.2-2.7l-6.3-0.2l-2.2,2l-3.4,1.6l-0.3,26.5c0,0,10.1,4.6,15.5,2.4l2.6-20.6
			C104.8,47,102,42,102,42z"/>
	</g>
</g>
</svg>
