<?xml version="1.0" encoding="utf-8"?>
<!-- Generator: Adobe Illustrator 25.4.1, SVG Export Plug-In . SVG Version: 6.00 Build 0)  -->
<svg version="1.1" id="Layer_1" xmlns="http://www.w3.org/2000/svg" xmlns:xlink="http://www.w3.org/1999/xlink" x="0px" y="0px"
	 viewBox="0 0 153 115" style="enable-background:new 0 0 153 115;" xml:space="preserve">
<style type="text/css">
	.st0{opacity:0.1;enable-background:new    ;}
	.st1{fill:#333332;}
	.st2{fill:#F37421;}
	.st3{fill:#404040;}
	.st4{fill:#303030;}
	.st5{fill:#515251;}
	.st6{fill:#FFFFFF;}
	.st7{fill:#E6E6E5;}
	.st8{fill:#C2C2C0;}
	.st9{fill:#D7D7D5;}
	.st10{fill:#71C1EC;}
	.st11{fill:#5692B2;}
	.st12{fill:#E3E2E1;}
	.st13{fill:#F47944;}
	.st14{fill:#BD5B2D;}
	.st15{opacity:0.2;fill:#FFFFFF;enable-background:new    ;}
	.st16{fill:#F4F4F5;}
	.st17{fill:#E3E3E3;}
	.st18{fill:#EAEAEA;}
	.st19{fill:#4B4A4A;}
	.st20{fill:#5C5C5B;}
	.st21{fill:#F58A47;}
	.st22{fill:#9E9E9D;}
	.st23{fill:#E2E2E2;}
	.st24{fill:#737372;}
	.st25{fill:#EBAC7D;}
	.st26{fill:#EDB78C;}
	.st27{fill:#EFD3BB;}
	.st28{fill:#D69162;}
	.st29{fill:#CD3330;}
	.st30{fill:#9E5A3E;}
</style>
<path class="st0" d="M75,87.1c38.8,0,70.2-0.3,70.2-0.6c0-0.3-31.4-0.6-70.2-0.6c-38.8,0-70.2,0.3-70.2,0.6
	C4.8,86.9,36.2,87.1,75,87.1z"/>
<path class="st1" d="M135.1,71.4h-9v-1h9c1,0,1.9-0.2,2.8-0.6l5.2-2.5l0.4,0.9l-5.2,2.5C137.3,71.1,136.2,71.4,135.1,71.4
	L135.1,71.4z"/>
<path class="st1" d="M85.6,65.7H65.8v5h19.8V65.7z"/>
<path class="st1" d="M149,58.8H64.1v9.4H149V58.8z"/>
<path class="st2" d="M65.8,23.9v50.5c0,0.4-0.1,0.7-0.4,1c-0.2,0.3-0.6,0.4-0.9,0.4H11.1c0,0-11.1-1.2-11.1-4.1V61.3
	c0,0,0.4-1.8,1.7-2.1c0.1,0,0.2,0,0.3,0v-8.4c0-0.4,0.1-0.7,0.2-1.1c0.2-0.3,0.4-0.6,0.6-0.9c0.8-0.7,2.2-1.5,4.5-2
	c4.3-1,16.7-4.6,16.7-4.6s9.2-10.5,15.7-15.7c2.1-1.7,3.9-2.7,5-2.7L65.8,23.9z"/>
<path class="st3" d="M16.8,66.4l-3.9,9.4h-1.9c0,0-11.1-1.2-11.1-4.1V61.3c0,0,0.4-1.8,1.7-2.1l0.3,0H11C11,59.2,15,61.5,16.8,66.4z
	"/>
<path class="st4" d="M35.5,73.9c0,0.6,0,1.3-0.1,1.9H10.6c-0.1-0.6-0.1-1.3-0.1-1.9c0-2.6,0.7-5.1,1.9-7.2c1.3-2.2,3.1-3.9,5.2-5
	c2.1-1.1,4.5-1.5,6.9-1.2c2.4,0.3,4.6,1.4,6.4,3c0.1,0.1,0.2,0.2,0.3,0.3c1.3,1.3,2.4,2.8,3.1,4.5C35.1,70.1,35.5,72,35.5,73.9z"/>
<path class="st5" d="M31.2,82.7c4.5-4.9,4.5-12.8,0-17.7c-4.5-4.9-11.9-4.9-16.5,0c-4.5,4.9-4.5,12.8,0,17.7
	C19.3,87.6,26.7,87.6,31.2,82.7z"/>
<path class="st6" d="M28.5,79.8c3.1-3.3,3.1-8.7,0-12c-3.1-3.3-8-3.3-11.1,0c-3.1,3.3-3.1,8.7,0,12C20.5,83.1,25.5,83.1,28.5,79.8z"
	/>
<path class="st7" d="M27.3,78.5c2.4-2.6,2.4-6.8,0-9.4c-2.4-2.6-6.3-2.6-8.7,0c-2.4,2.6-2.4,6.8,0,9.4S24.9,81.1,27.3,78.5z"/>
<path class="st7" d="M27.3,78.5c2.4-2.6,2.4-6.8,0-9.4c-2.4-2.6-6.3-2.6-8.7,0c-2.4,2.6-2.4,6.8,0,9.4S24.9,81.1,27.3,78.5z"/>
<path class="st6" d="M25.8,76.8c1.5-1.6,1.5-4.3,0-6c-1.5-1.6-4-1.6-5.5,0c-1.5,1.6-1.5,4.3,0,6C21.7,78.5,24.2,78.5,25.8,76.8z"/>
<path class="st8" d="M23,75.3c0.8,0,1.4-0.7,1.4-1.5s-0.6-1.5-1.4-1.5c-0.8,0-1.4,0.7-1.4,1.5S22.2,75.3,23,75.3z"/>
<path class="st9" d="M23,75c0.6,0,1.1-0.5,1.1-1.1c0-0.6-0.5-1.1-1.1-1.1c-0.6,0-1.1,0.5-1.1,1.1C21.9,74.5,22.4,75,23,75z"/>
<path class="st5" d="M23,69c0.3,0,0.6-0.3,0.6-0.6c0-0.3-0.3-0.6-0.6-0.6s-0.6,0.3-0.6,0.6C22.4,68.7,22.7,69,23,69z"/>
<path class="st5" d="M28.1,74.5c0.3,0,0.6-0.3,0.6-0.6s-0.3-0.6-0.6-0.6c-0.3,0-0.6,0.3-0.6,0.6S27.8,74.5,28.1,74.5z"/>
<path class="st5" d="M27.2,70.1c0,0.1,0,0.2-0.1,0.3c-0.1,0.1-0.1,0.2-0.3,0.2c-0.1,0-0.2,0.1-0.3,0c-0.1,0-0.2-0.1-0.3-0.2
	c-0.1-0.1-0.1-0.2-0.2-0.3c0-0.1,0-0.2,0-0.3c0-0.1,0.1-0.2,0.2-0.3c0.1-0.1,0.2-0.1,0.3-0.1c0.1,0,0.3,0.1,0.4,0.2
	S27.2,69.9,27.2,70.1L27.2,70.1z"/>
<path class="st5" d="M18,74.5c0.3,0,0.6-0.3,0.6-0.6s-0.3-0.6-0.6-0.6c-0.3,0-0.6,0.3-0.6,0.6S17.6,74.5,18,74.5z"/>
<path class="st5" d="M18.8,70.1c0,0.1,0,0.2,0.1,0.3c0.1,0.1,0.1,0.2,0.3,0.2c0.1,0,0.2,0.1,0.3,0c0.1,0,0.2-0.1,0.3-0.2
	c0.1-0.1,0.1-0.2,0.2-0.3c0-0.1,0-0.2,0-0.3c0-0.1-0.1-0.2-0.2-0.3c-0.1-0.1-0.2-0.1-0.3-0.1c-0.1,0-0.3,0.1-0.4,0.2
	C18.9,69.8,18.8,69.9,18.8,70.1L18.8,70.1z"/>
<path class="st5" d="M23,79.9c0.3,0,0.6-0.3,0.6-0.6c0-0.3-0.3-0.6-0.6-0.6s-0.6,0.3-0.6,0.6C22.4,79.6,22.7,79.9,23,79.9z"/>
<path class="st5" d="M27.2,77.6c0-0.1,0-0.2-0.1-0.3C27,77.2,27,77.1,26.9,77c-0.1,0-0.2-0.1-0.3,0c-0.1,0-0.2,0.1-0.3,0.2
	c-0.1,0.1-0.1,0.2-0.2,0.3c0,0.1,0,0.2,0,0.3c0,0.1,0.1,0.2,0.2,0.3c0.1,0.1,0.2,0.1,0.3,0.1c0.1,0,0.1,0,0.2,0
	c0.1,0,0.1-0.1,0.2-0.1c0.1-0.1,0.1-0.1,0.1-0.2C27.2,77.8,27.2,77.7,27.2,77.6L27.2,77.6z"/>
<path class="st5" d="M18.8,77.6c0-0.1,0-0.2,0.1-0.3c0.1-0.1,0.1-0.2,0.3-0.2c0.1,0,0.2-0.1,0.3,0c0.1,0,0.2,0.1,0.3,0.2
	c0.1,0.1,0.1,0.2,0.2,0.3c0,0.1,0,0.2,0,0.3c0,0.1-0.1,0.2-0.2,0.3c-0.1,0.1-0.2,0.1-0.3,0.1c-0.1,0-0.1,0-0.2,0
	c-0.1,0-0.1-0.1-0.2-0.1c-0.1-0.1-0.1-0.1-0.1-0.2C18.9,77.8,18.8,77.7,18.8,77.6L18.8,77.6z"/>
<path class="st10" d="M42.8,26.7c0,0-13.6,13.3-15,14.8c-1.4,1.5-3.8,0.9-3.8,0.9s9.2-10.5,15.7-15.7H42.8z"/>
<path class="st10" d="M25.1,42.2c-0.2,0-0.5,0-0.7,0c1.5-1.7,9.6-10.7,15.4-15.3h2.5C40.1,29,28.9,39.9,27.7,41.3
	C26.9,42.1,25.9,42.2,25.1,42.2z"/>
<path class="st11" d="M41.8,27.1c-2.9,2.8-13,12.8-14.3,14.1c-0.7,0.7-1.7,0.9-2.4,0.9c-0.1,0-0.2,0-0.3,0c0.8-0.9,2.7-3,4.9-5.3
	c2.8-2.9,6.8-7,10.1-9.6L41.8,27.1z M39.7,26.7c-0.2,0.1-0.3,0.3-0.5,0.4c-5.7,4.6-13.2,13-14.9,14.9c-0.2,0.2-0.3,0.4-0.3,0.4
	c0.4,0.1,0.7,0.1,1.1,0.1c0.8,0,1.9-0.2,2.7-1c1.4-1.5,15-14.8,15-14.8L39.7,26.7z"/>
<path class="st10" d="M62.3,26.9l-1.7,18.6H28.7c-0.1,0-0.2,0-0.3-0.1c-0.1-0.1-0.2-0.2-0.2-0.3c0-0.2-0.1-0.3,0-0.5
	c0-0.2,0.1-0.3,0.3-0.4L46,26.9H62.3z"/>
<path class="st11" d="M46,26.7L28.3,43.9c-0.1,0.1-0.3,0.3-0.3,0.5c-0.1,0.2,0,0.4,0,0.6c0,0.2,0.1,0.3,0.3,0.4
	c0.1,0.1,0.3,0.1,0.4,0.1h32l1.8-19H46z M60.4,45.2H28.7c-0.1,0-0.2,0-0.2-0.1c-0.1,0-0.1-0.1-0.1-0.2c0-0.1,0-0.3,0-0.4
	c0-0.1,0.1-0.2,0.2-0.3l17.5-17.2h16L60.4,45.2z"/>
<path class="st8" d="M145.8,0H67c-0.7,0-1.2,0.6-1.2,1.3v57.9c0,0.7,0.5,1.3,1.2,1.3h78.8c0.7,0,1.2-0.6,1.2-1.3V1.3
	C147,0.6,146.5,0,145.8,0z"/>
<path class="st12" d="M145.2,2.6H68v55.5h77.2V2.6z"/>
<path class="st1" d="M120,72.7l-39.8-5.6l0.2-2.2l39.8,5.6L120,72.7z"/>
<path class="st5" d="M134,82.1c4.5-4.9,4.5-12.8,0-17.7c-4.5-4.9-11.9-4.9-16.5,0c-4.5,4.9-4.5,12.8,0,17.7
	C122.1,87,129.5,87,134,82.1z"/>
<path class="st6" d="M128.8,81.1c4-1.8,5.9-6.7,4.2-11c-1.7-4.3-6.3-6.4-10.3-4.6c-4,1.8-5.9,6.7-4.2,11
	C120.2,80.8,124.8,82.9,128.8,81.1z"/>
<path class="st7" d="M130.2,78c2.4-2.6,2.4-6.8,0-9.4c-2.4-2.6-6.3-2.6-8.7,0c-2.4,2.6-2.4,6.8,0,9.4
	C123.9,80.6,127.8,80.6,130.2,78z"/>
<path class="st7" d="M130.2,78c2.4-2.6,2.4-6.8,0-9.4c-2.4-2.6-6.3-2.6-8.7,0c-2.4,2.6-2.4,6.8,0,9.4
	C123.9,80.6,127.8,80.6,130.2,78z"/>
<path class="st6" d="M128.6,76.3c1.5-1.6,1.5-4.3,0-6c-1.5-1.6-4-1.6-5.5,0c-1.5,1.6-1.5,4.3,0,6C124.6,77.9,127.1,77.9,128.6,76.3z
	"/>
<path class="st8" d="M125.8,74.8c0.8,0,1.4-0.7,1.4-1.5c0-0.8-0.6-1.5-1.4-1.5s-1.4,0.7-1.4,1.5C124.4,74.1,125.1,74.8,125.8,74.8z"
	/>
<path class="st9" d="M125.8,74.4c0.6,0,1.1-0.5,1.1-1.1c0-0.6-0.5-1.1-1.1-1.1s-1.1,0.5-1.1,1.1C124.8,73.9,125.2,74.4,125.8,74.4z"
	/>
<path class="st5" d="M125.8,68.4c0.3,0,0.6-0.3,0.6-0.6s-0.2-0.6-0.6-0.6c-0.3,0-0.6,0.3-0.6,0.6S125.5,68.4,125.8,68.4z"/>
<path class="st5" d="M130.9,73.9c0.3,0,0.6-0.3,0.6-0.6c0-0.3-0.2-0.6-0.6-0.6c-0.3,0-0.6,0.3-0.6,0.6
	C130.4,73.6,130.6,73.9,130.9,73.9z"/>
<path class="st5" d="M129.5,70.1c0.3,0,0.6-0.3,0.6-0.6s-0.2-0.6-0.6-0.6c-0.3,0-0.6,0.3-0.6,0.6S129.2,70.1,129.5,70.1z"/>
<path class="st5" d="M120.8,73.9c0.3,0,0.6-0.3,0.6-0.6c0-0.3-0.2-0.6-0.6-0.6c-0.3,0-0.6,0.3-0.6,0.6
	C120.2,73.6,120.5,73.9,120.8,73.9z"/>
<path class="st5" d="M121.7,69.5c0,0.1,0,0.2,0.1,0.3c0.1,0.1,0.1,0.2,0.3,0.2c0.1,0,0.2,0.1,0.3,0c0.1,0,0.2-0.1,0.3-0.2
	c0.1-0.1,0.1-0.2,0.2-0.3c0-0.1,0-0.2,0-0.3c0-0.1-0.1-0.2-0.2-0.3c-0.1-0.1-0.2-0.1-0.3-0.1c-0.1,0-0.3,0.1-0.4,0.2
	C121.7,69.2,121.7,69.4,121.7,69.5L121.7,69.5z"/>
<path class="st5" d="M125.8,79.4c0.3,0,0.6-0.3,0.6-0.6s-0.2-0.6-0.6-0.6c-0.3,0-0.6,0.3-0.6,0.6S125.5,79.4,125.8,79.4z"/>
<path class="st5" d="M129.5,77.6c0.3,0,0.6-0.3,0.6-0.6c0-0.3-0.2-0.6-0.6-0.6c-0.3,0-0.6,0.3-0.6,0.6
	C128.9,77.4,129.2,77.6,129.5,77.6z"/>
<path class="st5" d="M121.7,77c0-0.1,0-0.2,0.1-0.3c0.1-0.1,0.1-0.2,0.3-0.2c0.1,0,0.2-0.1,0.3,0c0.1,0,0.2,0.1,0.3,0.2
	c0.1,0.1,0.1,0.2,0.2,0.3c0,0.1,0,0.2,0,0.3c0,0.1-0.1,0.2-0.2,0.3c-0.1,0.1-0.2,0.1-0.3,0.1c-0.1,0-0.1,0-0.2,0
	c-0.1,0-0.1-0.1-0.2-0.1c-0.1-0.1-0.1-0.1-0.1-0.2C121.7,77.2,121.7,77.1,121.7,77z"/>
<path class="st13" d="M31.5,50.7h-3.4c-0.1,0-0.2,0.1-0.2,0.3v1.2c0,0.1,0.1,0.3,0.2,0.3h3.4c0.1,0,0.2-0.1,0.2-0.3V51
	C31.8,50.9,31.6,50.7,31.5,50.7z"/>
<path class="st14" d="M30.5,50.7h1.1c0.1,0,0.1,0,0.1,0.1c0,0,0.1,0.1,0.1,0.2v1.2c0,0.1,0,0.1-0.1,0.2c0,0-0.1,0.1-0.1,0.1h-1.1
	V50.7L30.5,50.7z"/>
<path class="st15" d="M59.5,73.1H38.8c-0.2,0-0.4-0.1-0.5-0.2c-0.1-0.1-0.2-0.3-0.2-0.5c0-0.2,0.1-0.4,0.2-0.5
	c0.1-0.1,0.3-0.2,0.5-0.2h20.7c0.2,0,0.4,0.1,0.5,0.2c0.1,0.1,0.2,0.3,0.2,0.5l0,0c0,0.2-0.1,0.4-0.2,0.5
	C59.8,73,59.7,73.1,59.5,73.1L59.5,73.1z"/>
<path class="st16" d="M15,48.7c-0.3,1-0.6,2-1,2.9c-0.2,0.4-0.4,0.9-0.6,1.4c-0.1,0.2-0.1,0.3-0.2,0.5c-0.4,0.8-0.8,1.6-1.2,2.3
	c-0.8,1.3,1.8,2.5,0.8,3.5H1.7l0.3-8.2l10.6-1.5l0.6-0.6L15,48.7z"/>
<path class="st17" d="M14,51.6c-0.2,0.6-0.5,1.2-0.8,1.9c-0.4,0.8-0.8,1.6-1.2,2.3l-3.6-0.5c0,0,1-3.6,2.2-3.6L14,51.6z"/>
<path class="st18" d="M13.2,53.5c-0.9,2,1.2,4.2-0.4,5.8H3.4c0.3-2,1.2-5.8,4.5-5.8H13.2z"/>
<path class="st19" d="M137,62.9h14.4v4.4h-13.8c-0.2,0-0.3-0.1-0.5-0.2c-0.1-0.1-0.2-0.3-0.2-0.5V62.9z"/>
<path class="st20" d="M151.2,70.6l-6.2-4.4v-5.4h6.2V70.6z"/>
<path class="st21" d="M153,62V67h-1.8v-6.3h0.7c0.3,0,0.6,0.1,0.8,0.4C152.9,61.3,153,61.6,153,62L153,62z"/>
<path class="st2" d="M153,67v2.4c0,0.3-0.1,0.6-0.3,0.8c-0.2,0.2-0.5,0.3-0.8,0.3h-0.7V67H153z"/>
<path class="st1" d="M115.1,69.3H88.3v-4.5H117L115.1,69.3z"/>
<path class="st20" d="M106.7,62h-37c-1,0-1.8,0.9-1.8,1.9v8c0,1.1,0.8,1.9,1.8,1.9h37c1,0,1.8-0.9,1.8-1.9v-8
	C108.5,62.9,107.7,62,106.7,62z"/>
<path class="st22" d="M56.7,50.3c1.6,0,2.9-0.6,2.9-1.4s-1.3-1.4-2.9-1.4s-2.9,0.6-2.9,1.4S55.1,50.3,56.7,50.3z"/>
<path class="st23" d="M59.8,49.8H53c-0.2,0-0.4-0.1-0.5-0.2c-0.1-0.1-0.2-0.3-0.2-0.5l0,0c0-0.2,0.1-0.4,0.2-0.5
	c0.1-0.1,0.3-0.2,0.5-0.2h6.8c0.2,0,0.4,0.1,0.5,0.2c0.1,0.1,0.2,0.3,0.2,0.5l0,0c0,0.2-0.1,0.4-0.2,0.5
	C60.2,49.7,60,49.8,59.8,49.8L59.8,49.8z"/>
<path class="st24" d="M77.5,62h-3.1v11.9h3.1V62z"/>
<path class="st24" d="M101.9,62h-3.1v11.9h3.1V62z"/>
<path class="st21" d="M15,48.7c-0.3,1-0.6,2-1,2.9c-0.2,0.4-0.4,0.9-0.6,1.4c-0.1,0.2-0.1,0.3-0.2,0.5c-0.3,0.6-0.6,1.2-0.9,1.8
	c-0.1,0.2-0.2,0.4-0.3,0.6c-0.8,1.3,1.8,2.5,0.8,3.5H11c1-1.3,2-2.6,2.9-4c1.2-1.9-1.2-4.1-0.7-6.3L15,48.7z"/>
<path class="st14" d="M12.3,55.2c-0.1,0.2-0.2,0.4-0.3,0.6c-0.8,1.3,1.8,2.5,0.8,3.5H11c1-1.3,2-2.6,2.9-4H12.3z"/>
<path class="st10" d="M40.6,27.7L30.4,37.9c0,0-5.3,4.2-5.5,4.1c-0.2,0-0.3,0-0.4-0.1c1.7-1.9,9.2-10.2,14.9-14.9H40L40.6,27.7z"/>
<path class="st25" d="M116.2,81H84.6v34h31.6V81z"/>
<path class="st26" d="M84.6,115V81h31.6L84.6,115z"/>
<path class="st27" d="M103.6,81h-6.5v7.9h6.5V81z"/>
<path class="st28" d="M125.8,81h-9.6v34h9.6V81z"/>
<path class="st28" d="M113.6,106.2H99v6.3h14.7V106.2z"/>
<path class="st25" d="M102.5,47H70.9v34h31.6V47z"/>
<path class="st26" d="M70.9,81V47h31.6L70.9,81z"/>
<path class="st27" d="M89.9,47h-6.5v7.9h6.5V47z"/>
<path class="st28" d="M112.1,47h-9.6v34h9.6V47z"/>
<path class="st28" d="M99.9,72.2H85.2v6.3h14.7V72.2z"/>
<path class="st25" d="M87.7,81H56.1v34h31.6V81z"/>
<path class="st26" d="M56.1,115V81h31.6L56.1,115z"/>
<path class="st27" d="M75.1,81h-6.5v7.9h6.5V81z"/>
<path class="st28" d="M97.3,81h-9.6v34h9.6V81z"/>
<path class="st28" d="M85.1,106.2H70.4v6.3h14.7V106.2z"/>
<path class="st29" d="M103.6,12c-1.8-3.7-4.8-6.5-8.5-7.7C91.4,3,87.4,3.3,84,5.2c-3.4,1.9-6,5.2-7.2,9.1c-1.2,4-0.8,8.2,0.9,11.9
	l11.3,23.6c0.2,0.3,0.4,0.6,0.7,0.8c0.3,0.2,0.6,0.3,0.9,0.3c0.3,0,0.7-0.1,0.9-0.3c0.3-0.2,0.5-0.5,0.7-0.8l11.3-23.6
	c1.1-2.2,1.6-4.7,1.6-7.2S104.6,14.2,103.6,12L103.6,12z M90.7,26.5c-1.5,0-2.9-0.5-4.2-1.4c-1.2-0.9-2.2-2.1-2.8-3.6
	c-0.6-1.5-0.7-3.1-0.4-4.6c0.3-1.6,1-3,2-4.1c1-1.1,2.4-1.9,3.8-2.2c1.4-0.3,3-0.2,4.3,0.5c1.4,0.6,2.5,1.6,3.4,3
	c0.8,1.3,1.3,2.9,1.3,4.5c0,2.1-0.8,4.2-2.2,5.7C94.5,25.6,92.6,26.5,90.7,26.5L90.7,26.5z"/>
<path class="st30" d="M72.7,110.7l-0.6-0.2c0.3-1.2,1-2.1,2-2.7c0.1-0.1,0.3-0.1,0.5-0.1c0.1,0,0.2,0.1,0.3,0.2
	c0.1,0.1,0.1,0.2,0.2,0.3l0.5,1.1c0.1-0.4,0.4-0.8,0.7-1.1l0.3-0.2l0.2,0.3c0.2,0.4,0.4,0.7,0.6,1c0.2-0.4,0.4-0.9,0.7-1.2l0.4-0.4
	l0.1,0.6c0.1,0.6,0.4,1.1,0.8,1.5l1.3-2.5l0.2,0.9c0.1,0.5,0.4,1,0.8,1.4l0.5-1.2c0-0.1,0.1-0.2,0.1-0.2c0.1-0.1,0.1-0.1,0.2-0.1
	c0.1,0,0.2,0,0.3,0c0.1,0,0.2,0.1,0.2,0.1c0.3,0.2,0.5,0.5,0.7,0.9l-0.6,0.3c-0.1-0.2-0.2-0.4-0.4-0.6l-0.7,1.8l-0.3-0.2
	c-0.5-0.3-0.9-0.7-1.2-1.3l-0.6,1.2c0,0.1-0.1,0.2-0.2,0.2c-0.1,0.1-0.1,0.1-0.2,0.1c-0.1,0-0.2,0-0.3,0c-0.1,0-0.2-0.1-0.2-0.2
	c-0.3-0.4-0.6-0.8-0.8-1.3c-0.2,0.3-0.4,0.7-0.5,1.1l-0.2,0.6l-0.4-0.5c-0.3-0.4-0.6-0.8-0.8-1.2c-0.1,0.2-0.2,0.3-0.3,0.5
	c0,0.1-0.2,0.6-0.5,0.6c-0.2,0-0.4-0.1-0.5-0.4l-0.5-1.2l0-0.1l0,0C73.5,108.9,72.9,109.7,72.7,110.7z"/>
<path class="st30" d="M87.4,77l-0.6-0.2c0.3-1.2,1-2.1,2-2.7C89,74,89.1,74,89.3,74c0.1,0,0.2,0.1,0.3,0.2c0.1,0.1,0.1,0.2,0.2,0.3
	l0.5,1.1c0.1-0.4,0.4-0.8,0.7-1.1l0.3-0.2l0.2,0.3c0.2,0.4,0.4,0.7,0.6,1c0.2-0.4,0.4-0.9,0.7-1.2l0.4-0.4l0.1,0.6
	c0.1,0.6,0.4,1.1,0.8,1.5l1.3-2.5l0.2,0.9c0.1,0.5,0.4,1,0.8,1.4l0.5-1.2c0-0.1,0.1-0.1,0.1-0.2c0.1-0.1,0.1-0.1,0.2-0.1
	c0.1,0,0.2,0,0.3,0c0.1,0,0.2,0.1,0.2,0.1c0.3,0.2,0.5,0.5,0.7,0.9l-0.6,0.3c-0.1-0.2-0.2-0.4-0.4-0.6l-0.7,1.8l-0.3-0.2
	c-0.5-0.3-0.9-0.7-1.2-1.3l-0.6,1.2c0,0.1-0.1,0.2-0.2,0.2c-0.1,0.1-0.2,0.1-0.2,0.1c-0.1,0-0.2,0-0.3,0c-0.1,0-0.1-0.1-0.2-0.2
	c-0.3-0.4-0.6-0.8-0.8-1.3c-0.2,0.3-0.4,0.7-0.5,1.1l-0.2,0.6l-0.4-0.5c-0.3-0.4-0.6-0.8-0.8-1.2c-0.1,0.2-0.2,0.3-0.3,0.5
	c0,0.1-0.2,0.6-0.5,0.6c-0.2,0-0.4-0.1-0.5-0.4l-0.5-1.2c0,0,0-0.1,0-0.1l0,0C88.3,75.2,87.7,76,87.4,77L87.4,77z"/>
<path class="st30" d="M101.2,110.7l-0.6-0.2c0.3-1.2,1-2.1,2-2.7c0.1-0.1,0.3-0.1,0.5-0.1c0.1,0,0.2,0.1,0.3,0.2
	c0.1,0.1,0.1,0.2,0.2,0.3l0.5,1.1c0.1-0.4,0.4-0.8,0.7-1.1l0.3-0.2l0.2,0.3c0.2,0.4,0.4,0.7,0.6,1c0.2-0.4,0.4-0.9,0.7-1.2l0.4-0.4
	l0.1,0.6c0.1,0.6,0.4,1.1,0.8,1.5l1.3-2.5l0.2,0.9c0.1,0.5,0.4,1,0.8,1.4l0.5-1.2c0-0.1,0.1-0.2,0.1-0.2c0.1-0.1,0.1-0.1,0.2-0.1
	c0.1,0,0.2,0,0.3,0c0.1,0,0.2,0.1,0.2,0.1c0.3,0.2,0.5,0.5,0.7,0.9l-0.6,0.3c-0.1-0.2-0.2-0.4-0.4-0.6l-0.7,1.8l-0.3-0.2
	c-0.5-0.3-0.9-0.7-1.2-1.3l-0.6,1.2c0,0.1-0.1,0.2-0.2,0.2c-0.1,0.1-0.2,0.1-0.2,0.1c-0.1,0-0.2,0-0.3,0c-0.1,0-0.2-0.1-0.2-0.2
	c-0.3-0.4-0.6-0.8-0.8-1.3c-0.2,0.3-0.4,0.7-0.5,1.1l-0.2,0.6l-0.4-0.5c-0.3-0.4-0.6-0.8-0.8-1.2c-0.1,0.2-0.2,0.3-0.3,0.5
	c0,0.1-0.2,0.6-0.5,0.6c-0.2,0-0.4-0.1-0.5-0.4l-0.5-1.2c0,0,0-0.1,0-0.1l0,0C102.1,108.9,101.4,109.7,101.2,110.7L101.2,110.7z"/>
</svg>
