<?xml version="1.0" encoding="utf-8"?>
<!-- Generator: Adobe Illustrator 25.4.1, SVG Export Plug-In . SVG Version: 6.00 Build 0)  -->
<svg version="1.1" id="Layer_1" xmlns="http://www.w3.org/2000/svg" xmlns:xlink="http://www.w3.org/1999/xlink" x="0px" y="0px"
	 viewBox="0 0 146 118" style="enable-background:new 0 0 146 118;" xml:space="preserve">
<style type="text/css">
	.st0{clip-path:url(#SVGID_00000036965936369150639890000013400176253559085490_);}
	.st1{fill:#7A6C32;}
	.st2{fill:#BFA845;}
	.st3{fill:#697C2B;}
	.st4{fill:#E68531;}
	.st5{fill:#D75426;}
	.st6{fill:#E0702A;}
	.st7{fill:#804018;}
	.st8{fill:#A6531F;}
	.st9{fill:#FF9914;}
	.st10{fill:#BD8F55;}
	.st11{fill:#FFCAA6;}
	.st12{fill:#3B7193;}
	.st13{fill:#145A7B;}
	.st14{fill:#8DC0D6;}
</style>
<g>
	<defs>
		<rect id="SVGID_1_" width="145.5" height="118"/>
	</defs>
	<clipPath id="SVGID_00000145027302160312964820000006320559219505931949_">
		<use xlink:href="#SVGID_1_"  style="overflow:visible;"/>
	</clipPath>
	<g style="clip-path:url(#SVGID_00000145027302160312964820000006320559219505931949_);">
		<path class="st1" d="M100.3,86.9c0.7-4.4,1.3-8.7,2-13.1c0.4-2.5,0.8-5,1.4-7.4c0.7-2.7,1.7-5.2,2.9-7.7c2.6-5.8,5.8-11.5,10.2-16
			c4.2-4.4,9.7-7.6,15.5-8.3c0.2,0,0.4,0,0.6-0.1c0.7,15.8-5.6,31.9-16.7,42.5c-5.6,5.4-12.6,9.7-15.9,16.9c0,0,0-0.1,0-0.1
			c-0.1-0.2-0.1-0.5-0.1-0.7C99.7,91,100,88.9,100.3,86.9z"/>
		<path class="st2" d="M100,93c0.5-1.4,1.1-2.8,1.6-4.2c4.1-10.2,8.3-20.8,13.6-30.6c5.2-9.7,10.8-17.5,17-23.8c0.2,0,0.4,0,0.6-0.1
			c-6.3,6.3-12,14.2-17.3,24c-5.3,9.8-9.5,20.3-13.6,30.5c-0.6,1.6-1.3,3.1-1.8,4.8c-0.7,1.9-1.3,3.9-1.8,5.9L98,99.5
			C98.5,97.3,99.2,95.1,100,93z"/>
		<path class="st3" d="M74.5,17.9c-6.9-4.3-15.8-5.5-23.5-3c6-3.8,9.5-5.3,9.5-5.3L69,9.9L74.5,17.9z"/>
		<path class="st2" d="M62,9.3c0.3-0.1,0.7-0.1,1-0.2c4.3-0.7,8.7-0.4,12.9,1c7.4,2.5,13.4,8.9,18,15.4c1.8,2.6,3.4,5.3,4.8,8.1
			c7.6,15.8,8.6,34.7,5.3,51.9c0,0,0,0.1,0,0.1c-0.1,0.5-0.2,1.1-0.4,1.6c-0.2,0.6-0.5,1.1-0.9,1.5c0-6.9-2.1-13.6-6-19.1
			c-3.9-5.5-9.4-9.6-13.2-15.1c-5.4-7.8-6.9-17.7-9.6-26.8c-1.1-3.8-2.5-7.5-4.6-10.8c-2.1-3.3-5.1-6-8.6-7.3
			C61,9.5,61.5,9.4,62,9.3z"/>
		<path class="st1" d="M63,9.1c3.3,0.7,6.7,2.2,9.9,4.3c3.7,2.5,7.3,5.9,11.2,10.7c5.2,6.3,9.4,13,12.4,19.7
			c5.2,11.9,7.7,25.9,7.4,41.8c-0.1,4-0.4,8.2-0.8,12.4l-0.4,0c0.4-3.7,0.6-7.3,0.8-10.8c0.6-16.5-1.9-31-7.3-43.2
			c-3-6.7-7.1-13.3-12.3-19.6c-3.9-4.8-7.4-8.1-11.1-10.6c-3.5-2.3-7.2-3.9-10.7-4.5C62.3,9.2,62.6,9.1,63,9.1z"/>
		<path class="st4" d="M118.4,118H88.7l-2.9-32.4h35.5L118.4,118z"/>
		<path class="st5" d="M86.7,95l34-2.1l0.7-7.3H85.8L86.7,95z"/>
		<path class="st4" d="M122.1,91.3H85l-1.1-9.9h39.3L122.1,91.3z"/>
		<path class="st5" d="M80.1,62.2c-1.2-3.1-3.3-6.1-5.7-9.8c-12.6-20-26.3-13.6-30.9-8.4c-4.6,5.2-4,8.1-17.7,10.3
			C12.1,56.3,6.3,66.1,6.3,66.1s53.2,25.5,62.7,22c4.4-1.6,9.1-5.3,11.3-10.6C82,73.3,82.4,68.2,80.1,62.2z"/>
		<path class="st4" d="M3.3,69c0,0,4.3-10,23.4-12C45.7,55,37,43.7,50.3,42.6c13.3-1.1,22.5,14.6,22.5,14.6S83,78.1,72.2,86.4
			c-10.8,8.4-14.4-0.7-23,14.2c-8.6,14.9-24.5,26.2-40.4,4.1C-7,82.5,3.3,69,3.3,69z"/>
		<path class="st6" d="M22.5,78.3l-3.1,2c-0.2,0.1-0.3,0.4-0.1,0.7l10,16.9c0.1,0.2,0.4,0.3,0.6,0.2l3.1-2c0.2-0.1,0.3-0.4,0.1-0.7
			l-10-16.9C23,78.3,22.7,78.2,22.5,78.3z"/>
		<path class="st7" d="M44.6,65.4l72.5-46.2l5.7,9.7L52,80.1l-1-8.5L44.6,65.4z"/>
		<path class="st8" d="M44.9,66.5L118.7,19l4.9,8.4L51.7,78.9L51,71.6L44.9,66.5z"/>
		<path class="st7" d="M145,16.4l-20.5,15.4c-0.2,0.1-0.4,0.2-0.6,0.1s-0.4-0.2-0.5-0.4l-8.6-14c-0.1-0.2-0.2-0.4-0.1-0.6
			c0-0.2,0.2-0.4,0.4-0.5l21-13c0.2-0.1,0.4-0.2,0.6-0.1s0.4,0.2,0.5,0.4l8,11.6c0.1,0.2,0.2,0.4,0.1,0.6
			C145.3,16,145.2,16.2,145,16.4z"/>
		<path class="st8" d="M142.5,16.1l-17.9,13.7c-0.2,0.1-0.3,0.1-0.5,0.1c-0.2,0-0.3-0.2-0.4-0.3l-7-11.4c-0.1-0.2-0.1-0.4-0.1-0.5
			c0-0.2,0.1-0.4,0.3-0.5l18.5-11.2c0.2-0.1,0.3-0.1,0.5-0.1c0.2,0,0.3,0.2,0.4,0.3l6.4,9c0.1,0.2,0.1,0.4,0.1,0.5
			C142.7,15.9,142.6,16,142.5,16.1z"/>
		<path class="st9" d="M118.6,8.9l-1.1,0.7c-0.3,0.2-0.5,0.5-0.5,0.9c-0.1,0.3,0,0.7,0.2,1c0.2,0.3,0.5,0.5,0.8,0.6
			c0.3,0.1,0.7,0,1-0.2l0.1-0.1l0.9,1.4c0,0.1,0.1,0.1,0.1,0.2c0.1,0,0.1,0.1,0.2,0.1c0.1,0,0.1,0,0.2,0c0.1,0,0.1,0,0.2-0.1
			c0.1,0,0.1-0.1,0.1-0.1c0-0.1,0.1-0.1,0.1-0.2c0-0.1,0-0.1,0-0.2c0-0.1,0-0.1-0.1-0.2l-0.9-1.4l0.1-0.1c0.1-0.1,0.3-0.2,0.4-0.4
			c0.1-0.1,0.2-0.3,0.2-0.5c0-0.2,0-0.4,0-0.5c0-0.2-0.1-0.3-0.2-0.5c-0.1-0.1-0.2-0.3-0.3-0.4c-0.1-0.1-0.3-0.2-0.5-0.2
			c-0.2,0-0.3,0-0.5,0C118.9,8.8,118.7,8.8,118.6,8.9z"/>
		<path class="st9" d="M124.6,5l-1.1,0.7c-0.1,0.1-0.3,0.2-0.4,0.4c-0.1,0.1-0.2,0.3-0.2,0.5c0,0.2,0,0.4,0,0.5
			c0,0.2,0.1,0.3,0.2,0.5c0.1,0.2,0.2,0.3,0.4,0.4c0.1,0.1,0.3,0.2,0.5,0.2c0.2,0,0.3,0,0.5,0c0.2,0,0.3-0.1,0.5-0.2l0.1-0.1
			l0.9,1.4c0,0.1,0.1,0.1,0.1,0.1c0.1,0,0.1,0.1,0.2,0.1c0.1,0,0.1,0,0.2,0c0.1,0,0.1,0,0.2-0.1c0.1,0,0.1-0.1,0.1-0.1
			c0-0.1,0.1-0.1,0.1-0.2c0-0.1,0-0.1,0-0.2s0-0.1-0.1-0.2L126,7.9l0-0.6c0.3-0.2,0.5-0.5,0.5-0.9c0.1-0.3,0-0.7-0.2-1
			c-0.2-0.3-0.5-0.5-0.8-0.6C125.3,4.8,124.9,4.9,124.6,5L124.6,5z"/>
		<path class="st9" d="M130.7,1.2L129.6,2c-0.1,0.1-0.3,0.2-0.4,0.4c-0.1,0.1-0.2,0.3-0.2,0.5c0,0.2,0,0.4,0,0.5
			c0,0.2,0.1,0.3,0.2,0.5s0.2,0.3,0.4,0.4s0.3,0.2,0.5,0.2c0.2,0,0.3,0,0.5,0c0.2,0,0.3-0.1,0.5-0.2l0.1-0.1l0.9,1.4
			c0.1,0.1,0.2,0.2,0.3,0.2c0.1,0,0.3,0,0.4-0.1c0.1-0.1,0.2-0.2,0.2-0.3c0-0.1,0-0.3-0.1-0.4L132,3.6l0.1-0.1
			c0.1-0.1,0.3-0.2,0.4-0.4c0.1-0.1,0.2-0.3,0.2-0.5c0-0.2,0-0.4,0-0.5c0-0.2-0.1-0.3-0.2-0.5s-0.2-0.3-0.4-0.4
			c-0.1-0.1-0.3-0.2-0.5-0.2c-0.2,0-0.3,0-0.5,0C131,1.1,130.8,1.1,130.7,1.2L130.7,1.2z"/>
		<path class="st9" d="M143.9,22.8l1.1-0.7c0.3-0.2,0.5-0.5,0.5-0.9c0.1-0.3,0-0.7-0.2-1c-0.2-0.3-0.5-0.5-0.8-0.6
			c-0.3-0.1-0.7,0-0.9,0.2l-0.1,0.1l-0.9-1.4c0-0.1-0.1-0.1-0.1-0.2c-0.1,0-0.1-0.1-0.2-0.1c-0.1,0-0.1,0-0.2,0
			c-0.1,0-0.1,0-0.2,0.1c-0.1,0-0.1,0.1-0.1,0.1c0,0.1-0.1,0.1-0.1,0.2c0,0.1,0,0.1,0,0.2c0,0.1,0,0.1,0.1,0.2l0.9,1.4l-0.1,0.1
			c-0.1,0.1-0.3,0.2-0.4,0.4c-0.1,0.1-0.2,0.3-0.2,0.5c0,0.2,0,0.4,0,0.5c0,0.2,0.1,0.3,0.2,0.5c0.1,0.1,0.2,0.3,0.3,0.4
			c0.1,0.1,0.3,0.2,0.5,0.2c0.2,0,0.3,0,0.5,0S143.8,22.9,143.9,22.8L143.9,22.8z"/>
		<path class="st9" d="M138,27.2l1.1-0.7c0.1-0.1,0.3-0.2,0.4-0.4c0.1-0.1,0.2-0.3,0.2-0.5c0-0.2,0-0.4,0-0.5c0-0.2-0.1-0.3-0.2-0.5
			c-0.1-0.1-0.2-0.3-0.4-0.4c-0.1-0.1-0.3-0.2-0.5-0.2c-0.2,0-0.3,0-0.5,0c-0.2,0-0.3,0.1-0.5,0.2l-0.1,0.1l-0.9-1.4
			c0-0.1-0.1-0.1-0.1-0.1c-0.1,0-0.1-0.1-0.2-0.1c-0.1,0-0.1,0-0.2,0c-0.1,0-0.1,0-0.2,0.1c-0.1,0-0.1,0.1-0.1,0.1s-0.1,0.1-0.1,0.2
			c0,0.1,0,0.1,0,0.2c0,0.1,0,0.1,0.1,0.2l0.9,1.4l-0.1,0.1c-0.1,0.1-0.3,0.2-0.4,0.4c-0.1,0.1-0.2,0.3-0.2,0.5c0,0.2,0,0.4,0,0.5
			c0,0.2,0.1,0.3,0.2,0.5c0.1,0.2,0.2,0.3,0.4,0.4c0.1,0.1,0.3,0.2,0.5,0.2c0.2,0,0.3,0,0.5,0C137.7,27.4,137.8,27.3,138,27.2z"/>
		<path class="st9" d="M132.1,31.8l1.1-0.7c0.1-0.1,0.3-0.2,0.4-0.4c0.1-0.1,0.2-0.3,0.2-0.5c0-0.2,0-0.4,0-0.5
			c0-0.2-0.1-0.3-0.2-0.5c-0.1-0.1-0.2-0.3-0.4-0.4c-0.1-0.1-0.3-0.2-0.5-0.2c-0.2,0-0.3,0-0.5,0c-0.2,0-0.3,0.1-0.5,0.2l-0.1,0.1
			l-0.9-1.4c-0.1-0.1-0.2-0.2-0.3-0.2s-0.3,0-0.4,0.1c-0.1,0.1-0.2,0.2-0.2,0.3c0,0.1,0,0.3,0.1,0.4l0.9,1.4l-0.1,0.1
			c-0.3,0.2-0.5,0.5-0.5,0.9c-0.1,0.3,0,0.7,0.2,1c0.2,0.3,0.5,0.5,0.8,0.6C131.5,32,131.8,31.9,132.1,31.8L132.1,31.8z"/>
		<path class="st5" d="M50.5,87.3c5-5.3,5-13.9,0-19.1c-5-5.3-13.1-5.3-18.1,0c-5,5.3-5,13.9,0,19.1S45.5,92.6,50.5,87.3z"/>
		<path class="st7" d="M41.5,87.3c5,0,9-4.3,9-9.5c0-5.3-4-9.5-9-9.5s-9,4.3-9,9.5C32.5,83,36.5,87.3,41.5,87.3z"/>
		<path class="st10" d="M22.7,82.9l-0.2-0.3l95.5-61.7l4-4.2l0.2,0.2l-4.1,4.2L22.7,82.9z"/>
		<path class="st10" d="M24.3,85.3L24.1,85l94.6-63.1l9.4-8.8l0.2,0.3l-9.5,8.8L24.3,85.3z"/>
		<path class="st10" d="M25.6,87.1l-0.2-0.3l94.3-63.7l15.6-14.2l0.2,0.3l-15.6,14.2L25.6,87.1z"/>
		<path class="st10" d="M29.4,93.6l-0.2-0.3l92.7-66.4l5.3-2.2l0.1,0.3l-5.3,2.2L29.4,93.6z"/>
		<path class="st10" d="M28,91.1l-0.2-0.3l93.5-64.9l11.5-5.5l0.1,0.3l-11.5,5.4L28,91.1z"/>
		<path class="st10" d="M26.9,89.1l-0.2-0.3l93.9-64.3l18.7-9.1l0.1,0.3l-18.7,9.1L26.9,89.1z"/>
		<path class="st9" d="M23.5,82.5c0,0.1,0,0.3,0,0.4c-0.1,0.1-0.1,0.3-0.3,0.3c-0.1,0.1-0.2,0.1-0.4,0.1s-0.3,0-0.4-0.1
			c-0.1-0.1-0.2-0.2-0.3-0.3c-0.1-0.1-0.1-0.3,0-0.4c0-0.1,0.1-0.3,0.2-0.4c0.1-0.1,0.2-0.2,0.4-0.2c0.2,0,0.4,0,0.5,0.1
			C23.3,82.1,23.5,82.3,23.5,82.5z"/>
		<path class="st9" d="M24.8,84.9c0,0.1,0,0.3,0,0.4c-0.1,0.1-0.1,0.3-0.3,0.3c-0.1,0.1-0.2,0.1-0.4,0.1s-0.3,0-0.4-0.1
			s-0.2-0.2-0.3-0.3c-0.1-0.1-0.1-0.3,0-0.4c0-0.1,0.1-0.3,0.2-0.4c0.1-0.1,0.2-0.2,0.4-0.2c0.1,0,0.2,0,0.3,0
			c0.1,0,0.2,0.1,0.3,0.1c0.1,0.1,0.1,0.1,0.2,0.2S24.8,84.8,24.8,84.9z"/>
		<path class="st9" d="M26,86.8c0,0.1,0,0.3,0,0.4c-0.1,0.1-0.1,0.3-0.3,0.3c-0.1,0.1-0.2,0.1-0.4,0.1c-0.1,0-0.3,0-0.4-0.1
			c-0.1-0.1-0.2-0.2-0.3-0.3c-0.1-0.1-0.1-0.3,0-0.4c0-0.1,0.1-0.3,0.2-0.4c0.1-0.1,0.2-0.2,0.4-0.2c0.1,0,0.2,0,0.3,0
			c0.1,0,0.2,0.1,0.3,0.1c0.1,0.1,0.1,0.1,0.2,0.2C26,86.7,26,86.7,26,86.8z"/>
		<path class="st9" d="M27.3,88.9c0,0.1,0,0.3,0,0.4c-0.1,0.1-0.1,0.3-0.3,0.3c-0.1,0.1-0.2,0.1-0.4,0.1c-0.1,0-0.3,0-0.4-0.1
			S26,89.5,26,89.4c-0.1-0.1-0.1-0.3,0-0.4c0-0.1,0.1-0.3,0.2-0.4c0.1-0.1,0.2-0.2,0.4-0.2c0.1,0,0.2,0,0.3,0c0.1,0,0.2,0.1,0.3,0.1
			c0.1,0.1,0.1,0.1,0.2,0.2S27.3,88.8,27.3,88.9z"/>
		<path class="st9" d="M28.5,90.9c0,0.1,0,0.3,0,0.4c-0.1,0.1-0.1,0.3-0.3,0.3c-0.1,0.1-0.2,0.1-0.4,0.1s-0.3,0-0.4-0.1
			s-0.2-0.2-0.3-0.3c-0.1-0.1-0.1-0.3,0-0.4c0-0.1,0.1-0.3,0.2-0.4c0.1-0.1,0.2-0.2,0.4-0.2c0.2,0,0.4,0,0.5,0.1
			C28.4,90.5,28.5,90.7,28.5,90.9z"/>
		<path class="st9" d="M29.9,93.4c0,0.1,0,0.3,0,0.4c-0.1,0.1-0.1,0.3-0.3,0.3s-0.2,0.1-0.4,0.1c-0.1,0-0.3,0-0.4-0.1
			c-0.1-0.1-0.2-0.2-0.3-0.3c-0.1-0.1-0.1-0.3,0-0.4c0-0.1,0.1-0.3,0.2-0.4c0.1-0.1,0.2-0.2,0.4-0.2c0.1,0,0.2,0,0.3,0
			c0.1,0,0.2,0.1,0.3,0.1c0.1,0.1,0.1,0.1,0.2,0.2S29.9,93.3,29.9,93.4z"/>
		<path class="st9" d="M122.8,17.4c0.6-0.4,0.7-1.3,0.3-1.9c-0.4-0.6-1.2-0.7-1.8-0.3c-0.6,0.4-0.7,1.3-0.3,1.9
			C121.4,17.7,122.2,17.8,122.8,17.4z"/>
		<path class="st9" d="M128.5,13.7c0.7,0,1.3-0.6,1.3-1.4c0-0.7-0.6-1.4-1.3-1.4c-0.7,0-1.3,0.6-1.3,1.4
			C127.2,13,127.8,13.7,128.5,13.7z"/>
		<path class="st9" d="M135.3,9.8c0.7-0.2,1.1-0.9,0.9-1.6c-0.2-0.7-0.9-1.2-1.6-1c-0.7,0.2-1.1,0.9-0.9,1.6
			C133.9,9.5,134.6,10,135.3,9.8z"/>
		<path class="st9" d="M128.7,24.2c-0.2-0.2-0.4-0.3-0.7-0.3c-0.3,0-0.5,0.1-0.7,0.2c-0.2,0.1-0.4,0.3-0.5,0.6
			c-0.1,0.2-0.1,0.5-0.1,0.8c0,0.3,0.1,0.5,0.3,0.7c0.2,0.2,0.4,0.3,0.6,0.4c0.2,0.1,0.5,0.1,0.7,0c0.2-0.1,0.4-0.3,0.6-0.5
			c0.1-0.1,0.2-0.3,0.2-0.5c0-0.2,0.1-0.4,0-0.5c0-0.2-0.1-0.3-0.2-0.5C128.9,24.5,128.8,24.3,128.7,24.2z"/>
		<path class="st9" d="M134.7,19.5c-0.2-0.2-0.4-0.3-0.7-0.3c-0.3,0-0.5,0.1-0.7,0.2c-0.2,0.1-0.4,0.3-0.5,0.6
			c-0.1,0.2-0.1,0.5-0.1,0.8c0,0.3,0.1,0.5,0.3,0.7c0.2,0.2,0.4,0.3,0.6,0.4c0.2,0.1,0.5,0.1,0.7,0c0.2-0.1,0.4-0.3,0.6-0.5
			c0.1-0.1,0.2-0.3,0.2-0.5c0-0.2,0.1-0.4,0-0.5c0-0.2-0.1-0.3-0.2-0.5S134.8,19.6,134.7,19.5z"/>
		<path class="st9" d="M140.5,14.7c-0.2-0.2-0.4-0.3-0.7-0.3c-0.3,0-0.5,0.1-0.7,0.2c-0.2,0.1-0.4,0.3-0.5,0.6
			c-0.1,0.2-0.1,0.5-0.1,0.8c0,0.3,0.1,0.5,0.3,0.7c0.2,0.2,0.4,0.3,0.6,0.4c0.2,0.1,0.5,0.1,0.7,0c0.2-0.1,0.4-0.3,0.6-0.5
			c0.1-0.1,0.2-0.3,0.2-0.5c0-0.2,0.1-0.4,0-0.5c0-0.2-0.1-0.3-0.2-0.5C140.8,14.9,140.7,14.8,140.5,14.7z"/>
		<path class="st11" d="M99.6,34.5l0-0.4C99.6,34.4,99.6,34.5,99.6,34.5z"/>
		<path class="st12" d="M51.2,5h-8.8l-1-3.2c-0.2-0.5-0.5-1-0.9-1.3C40.1,0.2,39.5,0,39,0h-9.8c-0.5,0-1,0.2-1.4,0.5
			c-0.4,0.3-0.7,0.8-0.9,1.3l-1,3.2H13.8c-1,0-1.9,0.4-2.6,1.1c-0.7,0.7-1.1,1.7-1.1,2.7v23.8c0,1,0.4,2,1.1,2.7
			c0.7,0.7,1.6,1.1,2.6,1.1h37.4c1,0,1.9-0.4,2.6-1.1c0.7-0.7,1.1-1.7,1.1-2.7V8.9c0-1-0.4-2-1.1-2.7C53.1,5.4,52.1,5,51.2,5z"/>
		<path class="st13" d="M17.2,36.5H14c-1,0-2-0.4-2.7-1.2c-0.7-0.8-1.1-1.8-1.1-2.9v-25c0-1.1,0.4-2.1,1.1-2.9
			C12,3.9,12.9,3.4,14,3.4h3.2c1,0,2,0.4,2.7,1.2C20.6,5.4,21,6.4,21,7.5v25c0,1.1-0.4,2.1-1.1,2.9C19.2,36.1,18.2,36.5,17.2,36.5z"
			/>
		<path class="st13" d="M34.2,32.2c6,0,10.9-5.1,10.9-11.5c0-6.3-4.9-11.5-10.9-11.5s-10.9,5.1-10.9,11.5
			C23.3,27.1,28.2,32.2,34.2,32.2z"/>
		<path class="st14" d="M34.2,29.3c-1.6,0-3.2-0.5-4.5-1.4c-1.3-0.9-2.4-2.3-3-3.8c-0.6-1.6-0.8-3.3-0.5-4.9
			c0.3-1.7,1.1-3.2,2.2-4.4c1.1-1.2,2.6-2,4.1-2.3c1.6-0.3,3.2-0.2,4.7,0.5c1.5,0.6,2.7,1.7,3.6,3.1c0.9,1.4,1.4,3.1,1.4,4.7
			c0,2.3-0.9,4.4-2.4,6C38.4,28.4,36.3,29.3,34.2,29.3z"/>
		<path class="st4" d="M44.9,34.1c1.5,0,2.7-1.3,2.7-2.8c0-1.6-1.2-2.8-2.7-2.8s-2.7,1.3-2.7,2.8C42.2,32.9,43.5,34.1,44.9,34.1z"/>
	</g>
</g>
</svg>
