<svg width="264" height="169" viewBox="0 0 264 169" fill="none" xmlns="http://www.w3.org/2000/svg">
    <g clip-path="url(#xeiv5x1uqa)">
        <g opacity=".75">
            <path opacity=".75" d="M215.924 23.18c0 2.022-.606 4-1.743 5.681a10.322 10.322 0 0 1-4.642 3.767c-1.89.774-3.97.977-5.976.582a10.383 10.383 0 0 1-5.297-2.799 10.194 10.194 0 0 1-2.83-5.236c-.4-1.984-.195-4.04.588-5.91a10.255 10.255 0 0 1 3.81-4.59 10.428 10.428 0 0 1 5.747-1.723c2.743 0 5.374 1.078 7.314 2.996a10.168 10.168 0 0 1 3.029 7.232z" fill="#FFB839"/>
            <path d="M212.716 23.18c0 1.395-.419 2.76-1.203 3.92a7.124 7.124 0 0 1-3.203 2.6 7.214 7.214 0 0 1-4.124.4 7.162 7.162 0 0 1-3.655-1.93 7.03 7.03 0 0 1-1.953-3.614 6.98 6.98 0 0 1 .406-4.077 7.073 7.073 0 0 1 2.629-3.168 7.197 7.197 0 0 1 3.965-1.189c1.893 0 3.709.744 5.047 2.067a7.016 7.016 0 0 1 2.091 4.99z" fill="#FFB839" style="mix-blend-mode:color-burn" opacity=".5"/>
            <path opacity=".75" d="M71.983 62.677a6.804 6.804 0 0 1-1.169 3.81 6.92 6.92 0 0 1-3.113 2.526 7.01 7.01 0 0 1-4.008.39 6.96 6.96 0 0 1-3.551-1.877 6.835 6.835 0 0 1-1.899-3.511 6.786 6.786 0 0 1 .395-3.963 6.876 6.876 0 0 1 2.555-3.078 7.004 7.004 0 0 1 6.508-.634c.842.345 1.607.85 2.25 1.487a6.854 6.854 0 0 1 1.504 2.225 6.79 6.79 0 0 1 .528 2.625z" fill="#FFB839"/>
            <path d="M70.034 62.677a4.89 4.89 0 0 1-.84 2.74 4.975 4.975 0 0 1-2.239 1.815 5.04 5.04 0 0 1-2.881.28 5.005 5.005 0 0 1-2.553-1.349 4.913 4.913 0 0 1-1.365-2.524 4.88 4.88 0 0 1 .284-2.85 4.943 4.943 0 0 1 1.836-2.212 5.027 5.027 0 0 1 4.68-.456c.605.248 1.154.611 1.617 1.069.464.458.83 1.002 1.081 1.6.251.598.38 1.24.38 1.887z" fill="#FFB839" style="mix-blend-mode:color-burn" opacity=".5"/>
            <path opacity=".75" d="M264 86.719a6.81 6.81 0 0 1-1.171 3.809 6.925 6.925 0 0 1-3.114 2.524 7.013 7.013 0 0 1-4.008.388 6.958 6.958 0 0 1-3.55-1.878 6.83 6.83 0 0 1-1.897-3.512 6.782 6.782 0 0 1 .395-3.962 6.873 6.873 0 0 1 2.555-3.077 6.995 6.995 0 0 1 6.509-.633c.842.345 1.607.85 2.251 1.488a6.81 6.81 0 0 1 2.03 4.853z" fill="#FFB839"/>
            <path d="M262.05 86.719c0 .975-.292 1.928-.841 2.739a4.975 4.975 0 0 1-2.238 1.816 5.038 5.038 0 0 1-2.881.28 5.004 5.004 0 0 1-2.553-1.35 4.886 4.886 0 0 1-1.081-5.373 4.948 4.948 0 0 1 1.837-2.213 5.028 5.028 0 0 1 6.297.613 4.921 4.921 0 0 1 1.081 1.6c.251.599.38 1.24.379 1.888z" fill="#FFB839" style="mix-blend-mode:color-burn" opacity=".5"/>
        </g>
        <path d="M166.302 168.211c-.126.435.146.789.602.789h2.897a1.162 1.162 0 0 0 1.056-.789l28.777-99.988c.125-.435-.145-.788-.603-.788h-2.9a1.169 1.169 0 0 0-1.056.788l-28.773 99.988zM132.514 168.211c-.125.435.146.789.602.789h2.897c.236-.01.464-.091.653-.232.189-.14.33-.335.404-.557l28.777-99.988c.125-.435-.146-.788-.602-.788h-2.897a1.169 1.169 0 0 0-1.056.788l-28.778 99.988z" fill="#E6E6FF"/>
        <path d="M173.727 144.84h-33.381v3.746h33.381v-3.746zM182.568 119.038h-33.381v3.746h33.381v-3.746zM188.996 93.235h-33.381v3.745h33.381v-3.745zM197.704 67.435h-33.381v3.745h33.381v-3.745z" fill="#E6E6FF"/>
        <path d="M93.909 110.198a4.275 4.275 0 0 0-.667-1.581 4.334 4.334 0 0 0-1.238-1.2 4.414 4.414 0 0 0-3.345-.586l-15.011 3.361a4.202 4.202 0 0 0-1.566.689 4.15 4.15 0 0 0-1.155 1.252 4.107 4.107 0 0 0-.405 3.293l6.772 23.138c.685 2.341 3.262 4.256 5.728 4.256h12.996c2.466 0 4.087-1.95 3.605-4.346l-5.714-28.276z" fill="#D75426"/>
        <path d="M195.662 116.783c0 26.921-25.552 48.75-57.069 48.75-31.518 0-57.07-21.821-57.07-48.745 0-26.924 25.552-48.745 57.07-48.745 31.517 0 57.069 21.82 57.069 48.74z" fill="#D75426"/>
        <path d="M96.834 142.876c-.461-.175-.784.078-.72.557l3.312 24.686c.038.241.161.46.346.621.186.16.422.251.668.257h13.58c.245-.005.479-.097.661-.259.181-.161.298-.382.329-.622l1.793-16.757a1.214 1.214 0 0 0-.18-.716 1.233 1.233 0 0 0-.563-.483l-19.226-7.284zM182.636 142.876c.46-.175.784.078.719.557l-3.311 24.686a1.055 1.055 0 0 1-1.013.878H165.45a1.03 1.03 0 0 1-.661-.258 1.007 1.007 0 0 1-.33-.623l-1.792-16.757a1.22 1.22 0 0 1 .743-1.199l19.226-7.284zM187.653 102.712s8.019 1.75 10.588-2.99c2.912-5.373 6.499-6.315 6.612.775.112 7.09-7.396 18.612-18.713 21.049-11.316 2.436-6.498-9.084-6.498-9.084l8.011-9.75z" fill="#D75426"/>
        <path d="M187.96 46.137s-1.754-2.8-5.866-4.943c-7.795-4.068-19.486-9.49-21.658-10.431-3.35-1.452-7.22 4.394-3.891 8.22 3.329 3.827 8 8.42 12.163 11.297 4.789 3.31 7.355 4.292 11.163 2.886 4.694-1.733 6.602-4.307 8.089-7.03z" fill="#145A7B"/>
        <path d="M158.892 66.07s5.413-1.432 5.807-1.558c.436-.141 1.127-.393 1.221 1.022.094 1.414.153 1.857.153 1.857s-6.284.076-6.961.005c-.677-.07-1.216-.56-.22-1.327z" fill="#0097A9"/>
        <path d="M155.382 34.314c-.603 3.28 1.456 6.374 2.863 11.55 1.407 5.176 5.247 19.447 5.247 19.447s0 .425.96.408c.98-.017.605-.899.605-.899s-.528-3-.281-5.596c.247-2.597.207-14.447.142-17.634-.064-3.187.564-8.523-3.158-9.56-3.526-.983-6.067.593-6.378 2.284z" fill="#145A7B"/>
        <path style="mix-blend-mode:color-burn" opacity=".75" d="M182.098 41.194c-2.966-1.547-6.491-3.288-9.845-4.907l-.18-.086-.196-.093a658.15 658.15 0 0 0-3.742-1.786c.028.313.124.605.188.963.103.582-.658.855-2.212 1.71-1.554.853-3.698 2.425-5.184 4.133-1.487 1.709-1.175-.82-1.486-3.28-.311-2.46-1.589-5.125-1.004-5.546.414-.299 1.716-.974 2.442-1.343-.172-.076-.322-.143-.441-.194-1.885-.818-3.936.678-4.773 2.824a2.255 2.255 0 0 0-.282.728 6.72 6.72 0 0 0-.105 1.141v.159c0 .154.007.308.021.464 0 .06.01.121.016.18v.036c.269 2.632 1.804 5.438 2.927 9.57l.282 1.042.156.579c.047.173.094.343.142.526l.534 1.967c.241-.225.572-.65.845-1.404.485-1.367.105-1.66.9-2.145.794-.486 1.14.472 1.485 4.742.346 4.27 1.605 13.222 1.736 14.316.13 1.094-.596 1.486-1.761 1.486h-3.005c-.48 0-1.185-.333-.664-.904-.995.767-.456 1.266.22 1.335.677.069 6.961-.006 6.961-.006s-.057-.443-.153-1.857c-.077-1.124-.525-1.199-.925-1.114-.131-.894-.412-3.17-.217-5.2.163-1.686.201-7.27.188-11.853.012.012.026.02.039.032.174.149.349.293.525.44-.108-2.957-1.028-3.02 1.719-5.009 2.903-2.101 2.969-1.48 4.369-.41s1.763 2.704 2.132 4.408c.499 2.308 1.262 5.473 1.654 6.83 1.441.265 2.841.104 4.466-.496 4.696-1.733 6.6-4.307 8.092-7.03-.002-.005-1.753-2.804-5.864-4.948z" fill="url(#eppxf9wolb)"/>
        <path d="M150.603 32.09c-2.422-.544-11.005-3.21-13.155-3.703-2.149-.492-.924-.242-3.09-.625-2.167-.382-3.144.601-4.668-.81-1.236-1.142.919-2.938 2.999-3.183 2.142-.252 1.196 2.278 3.287 2.471 2.09.194 5.625.872 8.886 1.028 3.261.156 5.614.398 7.469.972 1.487.464 2.661 1.373 2.247 2.645-.672 2.06-2.897 1.448-3.975 1.205z" fill="#FFB680"/>
        <path d="M134.188 25.235c.238-.968-.282-1.627-.006-1.95.297-.345.838.215 1.212.743.53.752-.103 2.09.714 2.74.225 1.08-1.92-1.533-1.92-1.533zM156.85 30.595s-2.543 1.232-3.546 1.63c-1.003.398-1.658-.909-1.766-1.816-.108-.907 1.503-2.3 3.494-3.3 1.991-1 2.079 3.138 1.818 3.486z" fill="#FFB680"/>
        <path d="M170.774 26.537c-3.663 2.414-15.12 5.279-15.12 5.279s-1.221-.893-1.503-2.336c-.328-1.71.289-2.677.289-2.677L169.556 18s1.127-.458 1.784.258c2.385 2.59 2.235 6.44-.566 8.28z" fill="#0097A9"/>
        <path style="mix-blend-mode:color-burn" opacity=".75" d="M172.887 23.468c-1.649.39-3.256.94-4.797 1.64 0 0-8.555 4.005-11.134 4.71-2.28.62-2.368-.656-3.549-1.74a10.85 10.85 0 0 0-.503.372 6.153 6.153 0 0 0-.577-.21c-1.18-.365-2.565-.595-4.254-.755-.136.764-.388 2.202-.632 3.756 1.348.384 2.491.7 3.162.85.762.17 2.094.521 3.046-.01a52.462 52.462 0 0 0 1.539-.696c.145.156.302.3.47.43 0 0 11.457-2.864 15.12-5.278a4.859 4.859 0 0 0 2.109-3.07z" fill="url(#y3mv5ugqrc)"/>
        <path d="M111.406 77.638s-5.65-5.17-15.3-5.757c-9.65-.587-13.383.887-13.383.887s-1.794 18.313 11.951 25.844c13.746 7.532 19.421-6.647 19.421-6.647l-2.689-14.327z" fill="#D75426"/>
        <path d="M105.468 107.62c0 .63-.189 1.246-.543 1.77a3.217 3.217 0 0 1-1.445 1.174 3.258 3.258 0 0 1-3.512-.69 3.179 3.179 0 0 1-.882-1.632 3.15 3.15 0 0 1 .183-1.84 3.187 3.187 0 0 1 1.187-1.43 3.241 3.241 0 0 1 1.79-.537c.854 0 1.674.335 2.278.932a3.17 3.17 0 0 1 .944 2.253zM157.523 81.718c-.063-.032-6.92-3.378-18.075-3.378-10.613 0-18.661 2.92-18.741 2.95l-1.572-4.15c.356-.132 8.844-3.23 20.313-3.23 12.308 0 19.798 3.701 20.11 3.86l-2.035 3.948z" fill="#7F7F7F" style="mix-blend-mode:multiply"/>
        <path d="M194.895 168.211c.125.435-.147.789-.602.789h-2.898a1.162 1.162 0 0 1-1.056-.789l-28.777-99.988c-.125-.435.146-.788.602-.788h2.897a1.153 1.153 0 0 1 1.056.788l28.778 99.988zM228.682 168.211c.125.435-.148.789-.603.789h-2.897a1.176 1.176 0 0 1-.653-.232 1.157 1.157 0 0 1-.404-.557l-28.776-99.988c-.126-.435.145-.788.602-.788h2.896c.236.01.464.09.653.231.189.14.33.335.404.557l28.778 99.988z" fill="#A6A6A6"/>
        <path d="M220.85 144.84h-33.381v3.746h33.381v-3.746zM212.009 119.038h-33.381v3.746h33.381v-3.746zM205.582 93.235h-33.381v3.745h33.381v-3.745zM196.873 67.435h-33.381v3.745h33.381v-3.745z" fill="#A6A6A6"/>
        <path d="M198.045 88.743c-.94-1.08-1.336-.47-1.597-.1-.136.186-1.315 1.677-2.311 2.926l.01.016-1.092.306c-.984.782-.441 1.335.239 1.335h1.908a399.232 399.232 0 0 0 4.094-3.082s-.317-.322-1.251-1.401z" fill="#0097A9"/>
        <path d="M177.95 62.872c.505 3.294 3.466 5.562 6.494 10.008 3.027 4.446 11.338 16.714 11.338 16.714s.261.521 1.053-.016c.82-.558.237-1.172.237-1.172s-1.454-2.447-2.066-4.984c-.612-2.537-4.54-13.734-5.644-16.726-1.104-2.993-2.264-8.243-6.122-8.033-3.664.206-5.551 2.509-5.29 4.209z" fill="#145A7B"/>
        <path d="M173.903 32.684s-1.195 3.072-.443 7.607c1.428 8.6 4.116 21.09 4.669 23.369.851 3.517 8.522 4.89 8.853-.147.429-6.56 2.082-13.136 1.887-18.154-.224-5.774-.981-8.39-4.414-10.543-4.228-2.655-7.455-2.603-10.552-2.133z" fill="#145A7B"/>
        <path d="M168.332 12.672c-2.863.631-6.333-.144-7.185-3.334-.832-3.115.282-4.845 1.364-6.519.178-.278.363-.564.534-.85l.177.104c-.17.289-.357.577-.538.857-1.055 1.637-2.147 3.329-1.338 6.353.817 3.06 4.171 3.797 6.94 3.187l.046.202z" fill="#1F163C"/>
        <path d="M166.105 13.263c-1.904.423-4.45-3.057-4.488-6.896-.037-3.838 2.328-7.841 6.771-5.828 4.213 1.909 8.11 1.857 9.126 4.105 1.058 2.345-2.078 7.836-1.878 9.995.2 2.16-4.2-.476-4.2-.476l-5.331-.9z" fill="#1F163C"/>
        <path d="M169.409 34.383c-1.314-7.319-1.109-7.222-1.596-12.454-.344-3.729 3.85-5.765 8.799-6.932 4.822-1.135 6.98 1.712 7.707 6.74 1.262 8.729 3.641 12.822 4.562 19.423.139.993-3.945 4.003-12.1 1.95-7.266-1.825-7.372-8.727-7.372-8.727z" fill="#514EDD"/>
        <path d="M169.409 34.383c-1.314-7.319-1.109-7.222-1.596-12.454-.344-3.729 3.85-5.765 8.799-6.932 4.822-1.135 6.98 1.712 7.707 6.74 1.262 8.729 3.641 12.822 4.562 19.423.139.993-3.945 4.003-12.1 1.95-7.266-1.825-7.372-8.727-7.372-8.727z" fill="#0097A9"/>
        <path style="mix-blend-mode:color-burn" opacity=".5" d="m180.453 19.938-4.651-.7c-.77 2.6-3.833 11.444-4.714 13.062-.616 1.13-.981 1.595-1.691 2.043l.009.044a9.863 9.863 0 0 0 1.086 3.914l2.396-1.378 3.764-6.901 3.802-5.467-.001-4.617z" fill="url(#m60qp10and)"/>
        <path d="M173.985 11.047c1.139.954.894 2.115 1.873 4.143.503 1.042-.158 4.297-3.533 4.731-2.201.283-.475-2.294-.775-3.41-.3-1.116-1.69-4.51-1.69-4.51s3.237-1.696 4.125-.954zM173.249 7.84c.526.286.607 1.138.18 1.906-.428.768-1.198 1.16-1.723.874-.525-.285-.605-1.137-.178-1.905.426-.768 1.197-1.158 1.721-.874z" fill="#FFB680"/>
        <path d="M171.742 8.395c-.038-.085-4.286.576-6.856-1.47-.737.238-.714 1.17-.353 2.299.47 1.486.657 2.677 2.232 5.142 1.485 2.321 2.812 3.37 4.783 1.15 1.113-1.852 2.013-2.793 2.442-4.473-1.423-.987-1.46-1.845-2.248-2.648z" fill="#FFB680"/>
        <path d="M175.854 9.376a.106.106 0 0 1-.079-.014.112.112 0 0 1-.046-.064c-.638-2.865-4.078-2.93-6.842-2.984-1.55-.029-2.889-.055-3.59-.524-1.993-1.333-.788-4.35-.776-4.38a.107.107 0 0 1 .136-.057c.025.01.045.03.056.055a.102.102 0 0 1 .001.079c-.012.028-1.154 2.893.7 4.134.65.434 1.96.464 3.475.488 2.835.055 6.367.122 7.043 3.144a.104.104 0 0 1-.013.077.106.106 0 0 1-.065.046z" fill="#2B1963"/>
        <path d="m176.201 10.12-.128-.162c1.775-1.382 2.798-4.198 2.234-6.15-.219-.76-.782-1.699-2.214-1.857-.883-.093-1.674-.167-2.372-.228-2.216-.194-3.817-.334-5.856-1.123l.075-.19c2.012.777 3.6.917 5.799 1.113.699.062 1.492.13 2.378.228 1.206.132 2.055.843 2.39 2.002.584 2.018-.472 4.934-2.306 6.366z" fill="#1F163C"/>
        <path d="M158.42 43.075c.51-10.413-7.615-19.263-18.147-19.766-10.531-.504-19.482 7.529-19.992 17.941-.509 10.413 7.615 19.263 18.147 19.767 10.532.504 19.483-7.53 19.992-17.942z" fill="#FFB839"/>
        <path style="mix-blend-mode:color-burn" opacity=".5" d="M139.347 23.285c-1.305 0-2.607.13-3.885.391 8.683 1.775 15.215 9.379 15.215 18.486 0 9.108-6.532 16.707-15.215 18.485 1.278.261 2.579.392 3.884.391 10.544 0 19.092-8.45 19.092-18.876 0-10.426-8.548-18.877-19.091-18.877z" fill="url(#lr5lcof62e)"/>
        <path d="m154.968 40.325 3.309-.576a18.39 18.39 0 0 0-.304-1.722l-3.31.577c.135.567.237 1.142.305 1.721zm-28.556-12.044 2.16 2.546c.429-.4.88-.777 1.352-1.127l-2.16-2.543c-.467.355-.918.73-1.352 1.124zm-4.022 5.21 2.911 1.661c.266-.52.561-1.026.885-1.513l-2.912-1.66c-.317.489-.611.993-.884 1.512zm16.078-10.186v3.324a16.354 16.354 0 0 1 1.766 0v-3.325a18.617 18.617 0 0 0-.883-.022c-.295 0-.595.011-.883.023zm-6.471 1.43 1.149 3.124c.542-.23 1.097-.43 1.662-.597l-1.155-3.122c-.566.174-1.119.373-1.661.598l.005-.003zm14.708 0c-.545-.222-1.1-.42-1.663-.595l-1.151 3.126c.565.168 1.119.367 1.661.597l1.153-3.128zm-22.671 13.866-3.316-.574a20.182 20.182 0 0 0-.304 1.722l3.309.576c.069-.579.171-1.154.306-1.721l.005-.003zm28.251-10.323c-.434-.396-.885-.77-1.354-1.124l-2.16 2.544c.47.35.92.727 1.348 1.128l2.166-2.548zm4.023 5.21a18.812 18.812 0 0 0-.885-1.512l-2.911 1.66c.323.488.618.993.883 1.513l2.913-1.66zm-3.794 17.194 2.911 1.66c.317-.489.612-.993.885-1.513l-2.912-1.66a15.435 15.435 0 0 1-.889 1.516l.005-.003zm-3.741 3.939 2.16 2.542c.468-.353.92-.727 1.354-1.122l-2.16-2.547c-.431.401-.885.778-1.359 1.13l.005-.003zm5.895-8.904 3.309.576c.126-.564.227-1.138.305-1.72l-3.309-.578a15.28 15.28 0 0 1-.31 1.724l.005-.002zM143.89 57.059l1.152 3.125a19.232 19.232 0 0 0 1.66-.6l-1.149-3.122c-.543.23-1.098.429-1.663.597zm-20.167-13.061-3.308.577c.075.583.176 1.156.304 1.721l3.309-.577a15.453 15.453 0 0 1-.305-1.721zm2.688 12.044c.434.395.885.77 1.354 1.124l2.16-2.542c-.471-.351-.922-.728-1.351-1.128l-2.163 2.546zm-4.022-5.21c.272.519.567 1.023.885 1.513l2.912-1.66a15.358 15.358 0 0 1-.885-1.514l-2.912 1.661zm9.599 8.753c.541.224 1.095.424 1.661.599l1.156-3.126a15.462 15.462 0 0 1-1.661-.597l-1.156 3.124zm6.48-1.89v3.322c.293.013.587.021.883.021.297 0 .59-.008.883-.021v-3.323a16.32 16.32 0 0 1-.883.026 16.2 16.2 0 0 1-.883-.026z" fill="#FFBF40" style="mix-blend-mode:multiply" opacity=".5"/>
        <path d="M146.003 46.348c0-1.324-.379-2.428-1.137-3.312-.758-.884-2.154-1.79-4.186-2.715a19.45 19.45 0 0 1-.421-.195c-2.323-1.052-3.484-2.19-3.483-3.416 0-.777.265-1.396.794-1.857.53-.46 1.244-.692 2.142-.695a3.208 3.208 0 0 1 1.69.444c.492.296.944.764 1.356 1.403l2.612-1.333a4.577 4.577 0 0 0-2.121-2.492c-.671-.381-1.49-.589-2.377-.72V29.06h-3.053v2.415c-1.113.222-2.066.666-2.849 1.368-1.137 1.03-1.706 2.372-1.707 4.029 0 1.277.376 2.358 1.127 3.242.752.884 2.263 1.874 4.535 2.968.149.065.365.167.646.306 2.003.935 3.005 2 3.005 3.193 0 .917-.292 1.65-.877 2.195-.585.546-1.374.82-2.367.82-1.05 0-1.911-.24-2.584-.716-.673-.477-1.137-1.168-1.391-2.075l-2.668 1.222c.347 1.48 1.079 2.618 2.198 3.415.81.577 1.792.937 2.933 1.097v2.718h3.052v-2.774c1.315-.231 2.418-.743 3.287-1.546 1.229-1.136 1.843-2.666 1.844-4.59z" fill="#FFB41D" style="mix-blend-mode:color-burn"/>
        <path d="M100.238 159.61c-5.3 9.008-16.986 12.072-26.1 6.828-9.115-5.243-12.21-16.796-6.907-25.807 5.302-9.011 16.986-12.071 26.1-6.829 9.115 5.243 12.208 16.795 6.907 25.808z" fill="#FFB839"/>
        <path style="mix-blend-mode:color-burn" opacity=".75" d="M93.331 133.805a19.207 19.207 0 0 0-13.635-2.135c1.952.42 3.825 1.14 5.55 2.135 9.11 5.241 12.21 16.795 6.906 25.808a18.9 18.9 0 0 1-5.275 5.782 19.127 19.127 0 0 1-7.19 3.176c7.873 1.691 16.282-1.701 20.551-8.958 5.301-9.015 2.209-20.57-6.907-25.808z" fill="url(#15of4u0htf)"/>
        <path d="m98.173 156.298 3.153 1.146a18.68 18.68 0 0 0 .613-1.641l-3.155-1.146a15.254 15.254 0 0 1-.611 1.641zm-18.561-24.607.573 3.275a16.021 16.021 0 0 1 1.74-.303l-.571-3.272c-.585.075-1.168.174-1.742.3zm-6.127 2.507 1.67 2.878a16.05 16.05 0 0 1 1.535-.868l-1.67-2.879c-.527.265-1.038.554-1.535.867v.002zm19.072-.815-1.69 2.872a14.28 14.28 0 0 1 1.529.882l1.69-2.872a18.68 18.68 0 0 0-1.53-.884v.002zm-6.32-1.978-.595 3.271c.585.071 1.166.174 1.74.309l.593-3.273a18.81 18.81 0 0 0-1.739-.309v.002zm12.713 7.31c-.353-.462-.729-.91-1.127-1.342l-2.583 2.13c.403.425.78.873 1.132 1.341l2.578-2.129zm-26.647.718-2.569-2.144a18.6 18.6 0 0 0-1.137 1.337l2.566 2.143c.354-.467.735-.913 1.14-1.338v.002zm29.67 5.117a18.749 18.749 0 0 0-.6-1.643l-3.158 1.125c.229.538.428 1.087.595 1.646l3.163-1.128zm.828 6.5c.029-.583.029-1.165 0-1.747l-3.36-.01c.034.582.034 1.165 0 1.747l3.36.01zM90.78 164.027l1.671 2.879a19.885 19.885 0 0 0 1.534-.867l-1.67-2.879c-.495.318-1.008.609-1.536.869v-.002zm-5.236 1.546.573 3.272a19.304 19.304 0 0 0 1.742-.299l-.575-3.273c-.574.133-1.155.234-1.74.302v-.002zm9.624-4.767 2.567 2.145c.398-.425.777-.871 1.138-1.337l-2.566-2.143c-.354.467-.735.913-1.14 1.337v-.002zm-15.08 4.448-.599 3.28c.578.13 1.158.233 1.74.308l.594-3.271a15.939 15.939 0 0 1-1.735-.315v-.002zm-10.792-21.312-3.154-1.147a18.879 18.879 0 0 0-.611 1.64l3.158 1.147c.171-.557.374-1.105.607-1.64zm-3.8 11.749c.174.557.374 1.105.6 1.644l3.157-1.126a15.377 15.377 0 0 1-.595-1.646l-3.162 1.128zm-.828-6.5a18.07 18.07 0 0 0 0 1.748l3.36.01c-.033-.582-.031-1.165.004-1.747l-3.364-.011zm3.85 12.339c.355.463.731.911 1.127 1.344l2.584-2.13a15.465 15.465 0 0 1-1.133-1.342l-2.578 2.128zm6.556 1.579-1.69 2.873a17.803 17.803 0 0 0 1.527.878l1.69-2.873a13.615 13.615 0 0 1-1.525-.88l-.002.002z" fill="#FFBF40" style="mix-blend-mode:multiply" opacity=".5"/>
        <path d="M87.36 157.048c.674-1.145.908-2.287.701-3.428-.206-1.141-.952-2.617-2.237-4.428a22.7 22.7 0 0 1-.265-.377c-1.472-2.067-1.896-3.628-1.274-4.684.395-.672.938-1.077 1.631-1.214.694-.138 1.428.017 2.205.464.52.286.949.711 1.237 1.226.275.5.427 1.128.459 1.885l2.936.147a4.537 4.537 0 0 0-.563-3.21c-.386-.662-.989-1.249-1.69-1.804l1.22-2.068-2.64-1.517-1.232 2.088c-1.074-.36-2.128-.452-3.16-.232-1.502.323-2.676 1.201-3.522 2.634-.65 1.105-.873 2.226-.67 3.365.203 1.138 1.005 2.742 2.406 4.811.094.131.23.326.403.586 1.257 1.804 1.581 3.222.973 4.254-.465.793-1.091 1.279-1.878 1.46-.786.181-1.607.026-2.462-.464-.907-.523-1.531-1.155-1.871-1.904-.34-.748-.389-1.578-.145-2.485l-2.929-.27c-.453 1.453-.399 2.801.164 4.045.406.901 1.072 1.701 1.977 2.406l-1.382 2.349 2.638 1.518 1.409-2.399c1.252.453 2.464.565 3.63.299 1.643-.37 2.953-1.388 3.932-3.053z" fill="#FFB41D" style="mix-blend-mode:color-burn"/>
        <path d="M129.21 26.163c.613 1.235 2.036.711 3.336.082 1.3-.63 1.698-1.3 1.322-2.171-.375-.871-1.945-.198-3.044.312-1.1.51-1.883 1.24-1.614 1.777z" fill="#FFB680"/>
        <path d="m54.352 121.224.315.045c2.284.326 4.646.665 6.927.122 2.683-.638 6.95-3.044 7.978-5.899.375-1.032.458-2.168.54-3.264.063-.836.128-1.699.32-2.493.648-2.661 2.076-4.994 3.922-6.4l-.254-.324c-1.918 1.461-3.402 3.878-4.07 6.63-.201.825-.268 1.705-.33 2.556-.082 1.071-.165 2.177-.52 3.157-.981 2.72-5.092 5.023-7.682 5.64-2.204.524-4.526.192-6.77-.13l-.318-.045-.058.405zM74.611 97.32c-1.86 5.478-8.922 3.474-15.385 1.827-5.174-1.318-8.054 4.126-10.862 8.162-2.808 4.037-5.307 6.418-9.879.331-6.611-8.802-.292-17.57 9.008-16.207 8.407 1.23 12.751-.053 17.516-2.254 7-3.234 11.69 1.994 9.602 8.14z" fill="#1F163C"/>
        <path d="M71.976 92.762s7.636-.371 6.077 5.402c-1.71 6.329-8.822 6.921-9.91 11.979-1.57 7.302-11.767 17.389-21.329 7.864-7.239-7.211-5.196-3.888 1.739-12.951 6.934-9.063 19.13-12.795 23.423-12.294z" fill="#1F163C"/>
        <path d="m38.086 102.349.415-.016c-.011-.301-.026-.61-.04-.929-.142-3.213-.305-6.856 1.797-9.31 2.793-3.259 7.356-2.919 11.77-2.59 3.15.235 6.406.479 9.026-.58.65-.263 1.29-.564 1.91-.857 2.296-1.08 4.463-2.101 7.055-1.278 2.675.85 5.175 3.964 4.485 7.075l.404.088c.738-3.326-1.918-6.65-4.762-7.553-2.749-.873-5.093.23-7.359 1.3-.615.29-1.25.59-1.889.847-2.53 1.02-5.737.782-8.84.557-4.516-.338-9.187-.687-12.115 2.733-2.206 2.575-2.033 6.466-1.894 9.593l.037.92z" fill="#1F163C"/>
        <path d="M37.476 104.3a.211.211 0 0 0 .188.033.21.21 0 0 0 .084-.05.21.21 0 0 0 .05-.083c1.933-5.977 9.802-8.793 16.224-8.41 6.292.376 10.637 1.34 10.68 1.349a.21.21 0 0 0 .157-.026.205.205 0 0 0 .066-.282.208.208 0 0 0-.129-.092c-.043-.01-4.422-.98-10.746-1.357-6.579-.394-14.65 2.52-16.644 8.692a.204.204 0 0 0 .07.226z" fill="#2B1963"/>
        <path d="M66.905 124.211c2.378.707 11.176 2.567 13.292 3.185 2.116.617.596 1.103 2.666 1.845 1.68.603 1.458-.118 3.392-.341 2.254-.26 3.246 1.986 3.904 1.094.934-1.265-5.515-3.343-7.122-3.842-1.999-.623-5.814-1.885-8.734-3.339-2.92-1.453-5.083-2.389-6.983-2.793-1.523-.323-2.1-.88-2.856.229-1.997 2.941 1.382 3.647 2.441 3.962z" fill="#FFB680"/>
        <path d="M83.466 128.367c.401.914 1.63 1.242 1.605 1.665-.027.451-1.213.214-1.834.013-.882-.286-1.597-1.63-1.597-1.63l1.826-.048z" fill="#FFB680"/>
        <path d="M62.076 119.907s1.61 2.303 2.288 3.137c.678.833 1.896.007 2.441-.733.546-.74-.182-2.732-1.418-4.57-1.236-1.837-3.365 1.737-3.311 2.166z" fill="#0097A9"/>
        <path d="M53.669 109.52c1.878 3.529 8.846 12.029 8.846 12.029s1.502-.186 2.463-1.313c1.127-1.333 1.072-2.475 1.072-2.475L60.5 106.494s-2.59-5.077-4.969-4.358c-3.384 1.026-3.43 4.444-1.863 7.384zM35.631 166.756c-1.42-.487-5.392-1.507-5.783-1.638-.434-.147-1.12-.409-1.236 1.008-.116 1.417-.18 1.857-.18 1.857s6.282.165 6.96.103c.68-.061 1.442-.918.24-1.33z" fill="#0097A9"/>
        <path d="M44.32 111.739s2.521 2.152 4.021 6.5c2.843 8.251 6.43 20.516 7.03 22.785.927 3.498-5.519 6.363-8.82 2.513-3.3-3.851-7.16-9.127-9.382-13.644-2.555-5.2-3.136-7.855-1.136-11.354 2.465-4.309 5.335-5.768 8.288-6.8z" fill="#145A7B"/>
        <path d="M54.32 143.85c-3.1 2.859-5.155 4.801-9.034 8.548-3.878 3.747-14.128 13.722-14.128 13.722s-.273.322-1.108.031c-.765-.265-.39-.874-.39-.874s2.001-2.315 3.125-4.678c1.123-2.362 7.264-12.535 8.96-15.245 1.696-2.71 3.908-7.614 7.643-6.637 3.543.938 5.617 4.5 4.932 5.133z" fill="#145A7B"/>
        <path d="M1.165 137.123c1.082-1.034 3.798-4.073 4.095-4.359.329-.316.875-.801-.35-1.546s-1.597-.999-1.597-.999-2.989 5.464-3.242 6.093c-.252.63.177 1.685 1.094.811z" fill="#0097A9"/>
        <path d="M49.249 113.191s.618 3.236-.945 7.562c-2.966 8.209-7.878 20.018-8.836 22.163-1.475 3.308-8.324 1.586-8.486-3.459-.161-5.045.541-13.202 1.644-18.107 1.27-5.641 2.541-7.738 6.309-9.246 4.64-1.852 7.35.081 10.314 1.087z" fill="#145A7B"/>
        <path d="M35.249 144.469c-3.973-1.455-6.652-2.403-11.778-4.152-5.126-1.75-19.665-6.65-19.665-6.65s-.132-.459.067-.855c.36-.719.948-.535.948-.535s2.992.731 5.628.665c2.636-.066 14.59.803 17.8 1.088 3.21.285 8.64.041 9.427 3.781.745 3.549-1.549 6.98-2.427 6.658z" fill="#145A7B"/>
        <path d="M32.344 117.694s10.592-14.556 22.51-18.008c1.89-.756 4.539-.954 5.925.491.68.71.901 1.323 1.778 3.14 1.427 2.956-2.546 6.856-4.87 9.629-6.899 8.229-6.3 11.428-6.3 11.428s-3.466 3.602-11.227.397c-6.919-2.851-7.816-7.077-7.816-7.077z" fill="#0097A9"/>
        <path d="M65.927 98.631c-1.479-.195-3.005.958-5.146 1.7-.525.185-1.322 1.318.485 3.986 1.02 1.508.27 2.914.816 3.114 1.563-1.902.53-3.366 1.243-3.73 1.039-.529 4.655-1.409 4.655-1.409s-.9-3.508-2.053-3.66z" fill="#FFB680"/>
        <path d="M67.704 98.1c.95-.02 3.461 2.084 6.716 1.555.524.566-2.73 4.409-5.329 5.787-2.449 1.3-4.132 1.338-4.746-1.554-.047-2.152-.785-3.261-.32-4.928 2.035-.602 2.403-.833 3.68-.86zM56.866 125.043c1.127 2.19 4.529 10.424 5.517 12.374.988 1.95 1.203.386 2.307 2.269.9 1.529-.978 2.068-.603 3.962.376 1.895.93 2.894.276 2.887-1.351-.014-1.937-4.655-2.723-6.128-.973-1.834-2.902-5.327-4.863-7.907-1.961-2.581-3.276-4.526-4.013-6.303-.59-1.426-1.247-1.89-.282-2.819 2.584-2.475 3.884.689 4.384 1.665z" fill="#FFB680"/>
        <path d="M63.927 140.425c.98.23 1.523 1.368 1.94 1.269.445-.105 0-1.218-.311-1.787-.44-.807-1.903-1.264-1.903-1.264l.274 1.782zM52.041 120.496s-.076 2.799-.027 3.868c.05 1.069 1.525 1.114 2.404.836.88-.279 1.49-2.307 1.586-4.512.095-2.204-3.75-.57-3.962-.192z" fill="#FFB680"/>
        <path d="M51.46 107.205c-.588 3.944-.046 14.873-.046 14.873s1.329.727 2.771.378c1.71-.414 2.348-1.372 2.348-1.372l2.254-12.332s.94-5.609-1.409-6.417c-3.345-1.153-5.427 1.582-5.917 4.87z" fill="#0097A9"/>
        <path d="M122.709 168.999h37.863a13.87 13.87 0 0 0-.007-4.203h-37.864a13.87 13.87 0 0 0 .008 4.203z" fill="#FFCA55"/>
        <path d="M140.749 168.999h1.767l.009-4.203h-1.767l-.009 4.203zm-5.209 0h1.768l.008-4.203h-1.766l-.01 4.203zm-5.207 0h1.766l.01-4.203h-1.768l-.008 4.203zm-5.21 0h1.768l.008-4.203h-1.767l-.009 4.203zm20.834 0h1.768l.009-4.203h-1.768l-.009 4.203zm10.425-4.203-.01 4.203h1.768l.008-4.203h-1.766zm-5.217 4.203h1.765l.009-4.203h-1.765l-.009 4.203z" fill="#FFBF40" style="mix-blend-mode:multiply" opacity=".5"/>
        <path d="M123.457 156.392h37.863a13.845 13.845 0 0 0-.007-4.204h-37.864a13.909 13.909 0 0 0 .008 4.204z" fill="#FFCA55"/>
        <path d="M141.497 156.392h1.767l.009-4.204h-1.768l-.008 4.204zm-5.209 0h1.768l.008-4.204h-1.766l-.01 4.204zm-5.207 0h1.766l.009-4.204h-1.767l-.008 4.204zm-5.209 0h1.768l.008-4.204h-1.766l-.01 4.204zm20.833 0h1.768l.008-4.204h-1.766l-.01 4.204zm10.425-4.204-.009 4.204h1.768l.008-4.204h-1.767zm-5.217 4.204h1.768l.009-4.204h-1.767l-.01 4.204z" fill="#FFBF40" style="mix-blend-mode:multiply" opacity=".5"/>
        <path d="M123.457 143.784h37.863c.212-1.394.209-2.81-.007-4.203h-37.864c-.21 1.393-.208 2.81.008 4.203z" fill="#FFCA55"/>
        <path d="M141.497 143.784h1.767l.009-4.203h-1.768l-.008 4.203zm-5.209 0h1.768l.008-4.203h-1.766l-.01 4.203zm-5.207 0h1.766l.009-4.203h-1.767l-.008 4.203zm-5.209 0h1.768l.008-4.203h-1.766l-.01 4.203zm20.833 0h1.768l.008-4.203h-1.766l-.01 4.203zm10.425-4.203-.009 4.203h1.768l.008-4.203h-1.767zm-5.217 4.203h1.768l.009-4.203h-1.767l-.01 4.203z" fill="#FFBF40" style="mix-blend-mode:multiply" opacity=".5"/>
        <path d="M122.294 160.594h37.867c.211-1.393.208-2.81-.008-4.202h-37.866a13.832 13.832 0 0 0 .007 4.202z" fill="#FFB839"/>
        <path d="M140.335 160.594h1.766l.01-4.202h-1.765l-.011 4.202zm-5.209 0h1.767l.009-4.202h-1.767l-.009 4.202zm-5.208 0h1.766l.01-4.202h-1.768l-.008 4.202zm-5.21 0h1.769l.008-4.202h-1.767l-.01 4.202zm20.835 0h1.767l.009-4.202h-1.767l-.009 4.202zm10.425-4.202-.008 4.202h1.766l.009-4.202h-1.767zm-5.217 4.202h1.767l.009-4.202h-1.767l-.009 4.202z" fill="#FFBF40" style="mix-blend-mode:multiply" opacity=".5"/>
        <path d="M121.461 147.987h37.863a13.87 13.87 0 0 0-.008-4.203h-37.864a13.838 13.838 0 0 0 .009 4.203z" fill="#FFB839"/>
        <path d="M139.5 147.987h1.768l.009-4.203h-1.767l-.01 4.203zm-5.207 0h1.766l.01-4.203h-1.768l-.008 4.203zm-5.21 0h1.768l.009-4.203h-1.767l-.01 4.203zm-5.207 0h1.767l.009-4.203h-1.768l-.008 4.203zm20.833 0h1.767l.01-4.203h-1.768l-.009 4.203zm10.424-4.203-.008 4.203h1.767l.009-4.203h-1.768zm-5.217 4.203h1.768l.009-4.203h-1.768l-.009 4.203z" fill="#FFBF40" style="mix-blend-mode:multiply" opacity=".5"/>
        <path d="M124.039 164.797h37.863c.211-1.393.209-2.81-.007-4.202h-37.864a13.864 13.864 0 0 0 .008 4.202z" fill="#FFC043"/>
        <path d="M142.079 164.797h1.767l.008-4.202h-1.766l-.009 4.202zm-5.209 0h1.767l.009-4.202h-1.767l-.009 4.202zm-5.209 0h1.768l.009-4.202h-1.767l-.01 4.202zm-5.207 0h1.767l.009-4.202h-1.768l-.008 4.202zm20.833 0h1.767l.01-4.202h-1.769l-.008 4.202zm10.424-4.202-.008 4.202h1.766l.01-4.202h-1.768zm-5.217 4.202h1.768l.008-4.202h-1.766l-.01 4.202z" fill="#FFBF40" style="mix-blend-mode:multiply" opacity=".5"/>
        <path d="M125.75 135.378h37.864c.21-1.393.208-2.81-.009-4.202h-37.863a13.864 13.864 0 0 0 .008 4.202z" fill="#FFB839"/>
        <path d="M143.789 135.378h1.767l.01-4.202h-1.768l-.009 4.202zm-5.208 0h1.765l.008-4.202h-1.764l-.009 4.202zm-5.208 0h1.766l.01-4.202h-1.768l-.008 4.202zm-5.209 0h1.768l.009-4.202h-1.768l-.009 4.202zm20.834 0h1.767l.009-4.202h-1.767l-.009 4.202zm10.425-4.202-.009 4.202h1.768l.008-4.202h-1.767zm-5.216 4.202h1.766l.01-4.202h-1.768l-.008 4.202z" fill="#FFBF40" style="mix-blend-mode:multiply" opacity=".5"/>
        <path d="M122.333 139.581h37.864c.21-1.394.207-2.811-.009-4.203h-37.863a13.87 13.87 0 0 0 .008 4.203z" fill="#FFC043"/>
        <path d="M140.372 139.581h1.768l.008-4.203h-1.766l-.01 4.203zm-5.208 0h1.767l.009-4.203h-1.767l-.009 4.203zm-5.209 0h1.769l.008-4.203h-1.767l-.01 4.203zm-5.207 0h1.767l.009-4.203h-1.768l-.008 4.203zm20.833 0h1.767l.009-4.203h-1.768l-.008 4.203zm10.424-4.203-.009 4.203h1.767l.009-4.203h-1.767zm-5.218 4.203h1.768l.009-4.203h-1.768l-.009 4.203z" fill="#FFBF40" style="mix-blend-mode:multiply" opacity=".5"/>
        <path d="M125.75 152.191h37.864c.21-1.393.208-2.81-.009-4.202h-37.863a13.864 13.864 0 0 0 .008 4.202z" fill="#FFC043"/>
        <path d="M143.789 152.191h1.767l.009-4.202h-1.767l-.009 4.202zm-5.208 0h1.765l.008-4.202h-1.764l-.009 4.202zm-5.208 0h1.766l.009-4.202h-1.767l-.008 4.202zm-5.209 0h1.768l.009-4.202h-1.768l-.009 4.202zm20.834 0h1.767l.009-4.202h-1.768l-.008 4.202zm10.425-4.202-.013 4.202h1.768l.008-4.202h-1.763zm-5.216 4.202h1.766l.009-4.202h-1.767l-.008 4.202z" fill="#FFBF40" style="mix-blend-mode:multiply" opacity=".5"/>
        <path style="mix-blend-mode:color-burn" opacity=".5" d="M159.324 147.987a13.87 13.87 0 0 0-.008-4.203h2.005a13.87 13.87 0 0 0-.007-4.203h-1.117c.21-1.393.207-2.81-.008-4.202h3.424a13.87 13.87 0 0 0-.008-4.203h-8.846a13.87 13.87 0 0 1 .008 4.203h-3.425c.217 1.392.219 2.809.008 4.202h1.118c.215 1.393.217 2.81.007 4.203h-2.005a13.87 13.87 0 0 1 .007 4.203h4.282c.216 1.392.219 2.809.008 4.202h-2.299c.215 1.392.217 2.809.007 4.203h-1.171c.215 1.393.218 2.809.008 4.203h1.737c.215 1.393.218 2.809.007 4.203h-1.338c.217 1.392.219 2.809.009 4.202h8.846c.211-1.393.208-2.81-.008-4.202h1.337a13.87 13.87 0 0 0-.007-4.203h-1.733c.211-1.393.208-2.81-.009-4.203h1.172a13.902 13.902 0 0 0-.007-4.203h2.299c.211-1.394.208-2.81-.008-4.202h-4.285z" fill="url(#n6ifvf1uxg)"/>
        <path d="M157.725 47.306c-1.006-.033-1.832.924-2.208.721-.401-.218.324-1.177.774-1.644.639-.664 1.463-.683 2.491-1.54.5-.415-1.057 2.463-1.057 2.463z" fill="#FFB680"/>
        <path d="M172.196 38.89c-1.864.91-8.214 4.943-11.833 7.096-.703.418-.358 1.515-1.173 2.989-1.397 2.53-3.416 3.528-3.769 3.37-.488-.218-.647-1.372 1.186-3.667 1.597-2.004.819-2.8 1.034-2.949 2.339-1.601 4.821-4.803 7.231-6.55 2.63-1.912 4.405-3.644 6.211-4.353 1.448-.57 3.011-.236 3.346 1.06.582 2.257-1.24 2.52-2.233 3.003z" fill="#FFB680"/>
        <path d="M176.074 34.208s-1.268 2.503-1.822 3.422c-.554.92-1.878.27-2.517-.388-.639-.657-.214-2.729.751-4.717.966-1.988 3.58 1.25 3.588 1.683z" fill="#FFB680"/>
        <path d="M183.475 23.71c-2.002 3.89-7.607 12.186-7.607 12.186s-1.518.022-2.623-.96c-1.309-1.162-1.408-2.303-1.408-2.303l4.337-14.649s1.408-2.658 3.866-2.277c3.496.54 4.961 5.043 3.435 8.004z" fill="#0097A9"/>
    </g>
    <defs>
        <linearGradient id="eppxf9wolb" x1="139.88" y1="63.114" x2="255.015" y2="-11.252" gradientUnits="userSpaceOnUse">
            <stop stop-color="#fff"/>
            <stop offset="1" stop-color="#B7B7B7"/>
        </linearGradient>
        <linearGradient id="y3mv5ugqrc" x1="32355.9" y1="3741.49" x2="59918.7" y2="-12960.8" gradientUnits="userSpaceOnUse">
            <stop stop-color="#fff"/>
            <stop offset="1" stop-color="#B7B7B7"/>
        </linearGradient>
        <linearGradient id="m60qp10and" x1="22029.1" y1="3458.9" x2="13635.1" y2="10606" gradientUnits="userSpaceOnUse">
            <stop stop-color="#fff"/>
            <stop offset="1" stop-color="#B7B7B7"/>
        </linearGradient>
        <linearGradient id="lr5lcof62e" x1="36650.7" y1="5279.66" x2="36650.7" y2="33062.2" gradientUnits="userSpaceOnUse">
            <stop stop-color="#fff"/>
            <stop offset="1" stop-color="#B7B7B7"/>
        </linearGradient>
        <linearGradient id="15of4u0htf" x1="19195.8" y1="43553.6" x2="34998.9" y2="75985.7" gradientUnits="userSpaceOnUse">
            <stop stop-color="#fff"/>
            <stop offset="1" stop-color="#B7B7B7"/>
        </linearGradient>
        <linearGradient id="n6ifvf1uxg" x1="22733.9" y1="41054" x2="22733.9" y2="78628.2" gradientUnits="userSpaceOnUse">
            <stop stop-color="#fff"/>
            <stop offset="1" stop-color="#B7B7B7"/>
        </linearGradient>
        <clipPath id="xeiv5x1uqa">
            <path fill="#fff" d="M0 0h264v169H0z"/>
        </clipPath>
    </defs>
</svg>
