<?xml version="1.0" encoding="utf-8"?>
<!-- Generator: Adobe Illustrator 25.4.1, SVG Export Plug-In . SVG Version: 6.00 Build 0)  -->
<svg version="1.1" id="Layer_1" xmlns="http://www.w3.org/2000/svg" xmlns:xlink="http://www.w3.org/1999/xlink" x="0px" y="0px"
	 viewBox="0 0 98 98" style="enable-background:new 0 0 98 98;" xml:space="preserve">
<style type="text/css">
	.st0{opacity:0.3;fill:#D9D9D9;enable-background:new    ;}
	.st1{opacity:0.3;fill:#F58000;enable-background:new    ;}
	.st2{fill:#FFFFFF;stroke:#F58000;stroke-width:2;stroke-linejoin:round;}
	.st3{fill:#EDB39D;}
	.st4{fill:#FFFFFF;}
	.st5{fill:none;stroke:#F58000;stroke-width:2;stroke-linejoin:round;}
	.st6{fill:none;stroke:#F58000;stroke-width:2;stroke-linecap:round;stroke-linejoin:round;}
	.st7{fill:#EDB39D;stroke:#F58000;stroke-width:2;stroke-linejoin:round;}
	.st8{fill:#FFFFFF;stroke:#F58000;stroke-width:2;stroke-linecap:round;stroke-linejoin:round;}
</style>
<path class="st0" d="M49,98c27.1,0,49-21.9,49-49S76.1,0,49,0S0,21.9,0,49S21.9,98,49,98z"/>
<path class="st1" d="M49.7,78.8c19,0,34.4-0.9,34.4-2c0-1.1-15.4-2-34.4-2s-34.4,0.9-34.4,2C15.3,77.9,30.7,78.8,49.7,78.8z"/>
<path class="st2" d="M75.1,20.9H24.3c-1.6,0-2.9,1.3-2.9,2.9v41.8c0,1.6,1.3,2.9,2.9,2.9h50.7c1.6,0,2.9-1.3,2.9-2.9V23.8
	C78,22.2,76.7,20.9,75.1,20.9z"/>
<path class="st3" d="M24.3,20.9h50.7c0.4,0,0.8,0.1,1.1,0.2c0.4,0.1,0.7,0.4,1,0.6c0.3,0.3,0.5,0.6,0.6,1c0.1,0.4,0.2,0.7,0.2,1.1
	v11.6H21.4V23.8c0-0.8,0.3-1.5,0.8-2.1C22.8,21.2,23.6,20.9,24.3,20.9z"/>
<path class="st4" d="M78,45.1v20.2c0,0.9-0.3,1.7-0.9,2.3s-1.4,0.9-2.3,0.9H52.1C52.1,68.6,65.1,64.5,78,45.1z"/>
<path class="st5" d="M78,45.1v20.2c0,0.9-0.3,1.7-0.9,2.3s-1.4,0.9-2.3,0.9H52.1C52.1,68.6,65.1,64.5,78,45.1z"/>
<path class="st5" d="M24.3,20.9h50.7c0.4,0,0.8,0.1,1.1,0.2c0.4,0.1,0.7,0.4,1,0.6c0.3,0.3,0.5,0.6,0.6,1c0.1,0.4,0.2,0.7,0.2,1.1
	v11.6H21.4V23.8c0-0.8,0.3-1.5,0.8-2.1C22.8,21.2,23.6,20.9,24.3,20.9L24.3,20.9z"/>
<path class="st6" d="M33.5,25.7c-1,0-1.9-0.3-2.7-0.8c-0.8-0.5-1.4-1.3-1.8-2.2c-0.4-0.9-0.5-1.9-0.3-2.8c0.2-1,0.7-1.8,1.3-2.5
	c0.7-0.7,1.6-1.2,2.5-1.3c1-0.2,1.9-0.1,2.8,0.3c0.9,0.4,1.7,1,2.2,1.8c0.5,0.8,0.8,1.8,0.8,2.7"/>
<path class="st6" d="M50.5,25.7c-1,0-1.9-0.3-2.7-0.8c-0.8-0.5-1.4-1.3-1.8-2.2c-0.4-0.9-0.5-1.9-0.3-2.8c0.2-1,0.7-1.8,1.3-2.5
	c0.7-0.7,1.6-1.2,2.5-1.3c1-0.2,1.9-0.1,2.8,0.3c0.9,0.4,1.7,1,2.2,1.8c0.5,0.8,0.8,1.8,0.8,2.7"/>
<path class="st6" d="M67.5,25.7c-1,0-1.9-0.3-2.7-0.8c-0.8-0.5-1.4-1.3-1.8-2.2c-0.4-0.9-0.5-1.9-0.3-2.8c0.2-1,0.7-1.8,1.3-2.5
	c0.7-0.7,1.6-1.2,2.5-1.3c1-0.2,1.9-0.1,2.8,0.3c0.9,0.4,1.7,1,2.2,1.8c0.5,0.8,0.8,1.8,0.8,2.7"/>
<path class="st6" d="M21.4,43.5H78"/>
<path class="st6" d="M21.4,51.6h33.8"/>
<path class="st6" d="M21.4,59.7h33.8"/>
<path class="st6" d="M32.7,35.4v33.1"/>
<path class="st6" d="M44,35.4v33.1"/>
<path class="st6" d="M55.4,35.4v11"/>
<path class="st6" d="M66.7,35.4v12.4"/>
<path class="st7" d="M32.7,43.5H21.4v8.1h11.3V43.5z"/>
<path class="st7" d="M44,59.7H32.7v8.9H44V59.7z"/>
<path class="st7" d="M55.4,35.4H44v8.1h11.3V35.4z"/>
<path class="st8" d="M78,45.1C65.1,64.5,52.1,68.6,52.1,68.6c1.8-3.2,3-6.8,3.3-10.5c0.4-3.7-0.1-7.4-1.3-10.9c0-0.1-0.1-0.2,0-0.4
	c0-0.1,0.1-0.2,0.2-0.3c0.1-0.1,0.2-0.2,0.3-0.2c0.1,0,0.2,0,0.4,0C58.7,47.3,70,49.8,78,45.1z"/>
<path class="st6" d="M41.6,30.6h16.2"/>
<path class="st6" d="M66.7,30.6h6.5"/>
<path class="st6" d="M32.7,30.6h-6.5"/>
</svg>
