<svg width="284" height="174" viewBox="0 0 284 174" fill="none" xmlns="http://www.w3.org/2000/svg">
    <path d="M273.479 0H10.121c-5.523 0-10 4.477-10 10v153.39c0 5.523 4.477 10 10 10H273.48c5.523 0 10-4.477 10-10V10c0-5.523-4.477-10-10-10z" fill="#fff"/>
    <path d="M194.173 148.112c0 4.995-4.238 9.007-9.46 9.007h-80.679c-5.222 0-9.46-4.012-9.46-9.007V33.074c0-4.995 4.238-9.007 9.46-9.007h80.603c5.222 0 9.46 4.012 9.46 9.007v115.038h.076z" fill="#552356"/>
    <path d="M185.772 149.626h-82.797V32.846h62.06l20.737.152v116.628z" fill="#fff"/>
    <path d="M118.339 86.053h-10.823v54.946h10.823V86.053z" fill="#D389AD"/>
    <path d="M118.414 86.053h-10.293v54.946h10.293V86.053z" fill="#D389AD"/>
    <path d="M155.196 19.148c-.227-5.524-4.995-9.838-10.823-9.838-5.827 0-10.595 4.39-10.822 9.838h-7.19v18.316h36.101V19.148h-7.266zm-10.823 4.163c-2.194 0-3.935-1.665-3.935-3.709 0-2.043 1.741-3.708 3.935-3.708 2.195 0 3.936 1.665 3.936 3.708 0 2.044-1.816 3.709-3.936 3.709zM117.051 56.915h-9.839v-9.839h9.839v9.839zm-8.93-.908h8.022V48.06h-8.022v7.947zM117.051 70.008h-9.839v-9.84h9.839v9.84zm-8.93-.908h8.022v-7.947h-8.022V69.1zM117.051 83.252h-9.839v-9.839h9.839v9.839zm-8.93-.908h8.022V74.32h-8.022v8.023z" fill="#B83F7A"/>
    <path d="M144.449 48.589H121.29v.908h23.159v-.908zM181.231 54.72H121.29v.908h59.941v-.908zM144.449 61.456H121.29v.908h23.159v-.908zM181.231 67.586H121.29v.908h59.941v-.908zM144.449 74.246H121.29v.908h23.159v-.908zM181.231 80.3H121.29v.908h59.941V80.3z" fill="#D389AD"/>
    <path d="m113.721 49.498-2.346 2.27-.908-.908-.606.681 1.514 1.59 2.952-2.952-.606-.681zM113.721 62.817l-2.346 2.27-.908-.907-.606.68 1.514 1.59 2.952-2.952-.606-.68zM113.721 76.214l-2.346 2.27-.908-.908-.606.757 1.514 1.514 2.952-2.952-.606-.681z" fill="#F6C645"/>
    <path d="M181.155 141.453h-74.018V85.599h.454l73.64-.303v56.157h-.076zm-73.185-.908h72.277v-54.34l-72.277.302v54.038z" fill="#B83F7A"/>
    <path d="M118.868 86.053h-.908v55.021h.908V86.053z" fill="#B83F7A"/>
    <path d="M181.307 95.664h-73.186v.908h73.186v-.908zM181.307 104.671h-73.186v.908h73.186v-.908zM181.307 113.677h-73.186v.908h73.186v-.908zM181.307 122.759h-73.186v.908h73.186v-.908zM181.307 131.765h-73.186v.908h73.186v-.908z" fill="#B83F7A"/>
    <path d="M163.976 35.799h-39.053v1.665h39.053v-1.665z" fill="#D389AD"/>
    <path d="M84.81 92.485c-3.481 4.541-12.639 8.931-21.19 8.931 0 .076.075 1.741.226 22.175 1.665 14.153 8.704 21.721 21.191 28.987 9.915-5.449 20.511-15.061 21.04-29.138l-.454-22.024c-9.309-1.287-16.499-4.541-20.813-8.93z" fill="#E37F38"/>
    <path d="M84.81 87.49c-4.087 5.298-14.758 10.369-24.748 10.445 0 .15.076 2.043.227 25.883 1.968 16.499 10.141 25.354 24.748 33.831 11.58-6.358 23.992-17.559 24.597-33.982l-.529-25.733C98.282 96.346 89.881 92.561 84.81 87.49zm.152 65.088c-12.488-7.341-19.527-14.91-21.192-28.987-.151-20.359-.227-22.024-.227-22.175 8.552 0 17.71-4.39 21.191-8.93 4.39 4.389 11.504 7.568 20.813 8.93l.455 22.024c-.455 14.153-11.05 23.764-21.04 29.138z" fill="#F6C544"/>
    <path d="m90.865 115.721-8.704 8.552-3.405-3.482-2.498 2.725 5.903 5.903 11.201-11.276-2.497-2.422z" fill="#fff"/>
    <path d="M169.045 96.344V160.447h50.254V96.343h-50.254z" fill="#B83F7A"/>
    <path d="M213.85 100.96h-39.431v10.898h39.431V100.96z" fill="#552356"/>
    <path d="M185.62 116.854h-11.201v11.201h11.201v-11.201zM185.62 130.779h-11.201v11.201h11.201v-11.201zM185.62 144.705h-11.201v11.201h11.201v-11.201zM199.621 116.854H188.42v11.201h11.201v-11.201zM214.001 116.854H202.8v11.201h11.201v-11.201z" fill="#D389AD"/>
    <path d="M214.001 130.552H202.8v25.354h11.201v-25.354z" fill="#E37F38"/>
    <path d="M199.621 130.779H188.42v11.201h11.201v-11.201zM199.621 144.705H188.42v11.201h11.201v-11.201z" fill="#D389AD"/>
    <path d="M209.99 142.812h-3.481v-.53h3.481v.53zM209.99 144.478h-3.481v-.606h3.481v.606zM205.222 104.14c-.227-.076-.53-.076-.681 0-.151.075-.605.757-.681.984-.076.302-.151 1.589-.076 1.967 0 .379.379 1.211.53 1.363.151.151.757.227.984.227.227-.076.605-.757.681-1.06.076-.303.151-1.513.076-1.892-.076-.303-.606-1.514-.833-1.589z" fill="#552356"/>
    <path d="M204.919 103.459c-.605 0-1.059.303-1.438.757-.378.53-.53 1.286-.53 2.27s.227 1.741.53 2.195c.303.53.833.757 1.362.757.606 0 1.136-.303 1.514-.757.379-.53.53-1.286.53-2.27 0-.909-.151-1.665-.53-2.195-.303-.53-.832-.757-1.438-.757zm0 5.374c-.378 0-.681-.228-.832-.606-.227-.378-.303-.984-.303-1.741 0-.757.151-1.362.303-1.816.227-.378.529-.606.832-.606.379 0 .681.227.908.682.227.378.303.983.303 1.74s-.076 1.363-.303 1.741c-.227.378-.529.606-.908.606zM198.94 104.215l.076.303.076.303.53-.303.529-.227v5.071h.757V103.534h-.681l-.605.379-.682.302z" fill="#fff"/>
    <path d="M209.839 104.14c-.227-.076-.53-.076-.681 0-.152.075-.606.757-.682.984-.075.302-.151 1.589-.075 1.967 0 .379.378 1.211.53 1.363.151.151.756.227.983.227.227-.076.606-.757.682-1.06.075-.303.151-1.513.075-1.892-.075-.303-.681-1.514-.832-1.589z" fill="#552356"/>
    <path d="M209.536 103.459c-.606 0-1.06.303-1.438.757-.379.53-.53 1.286-.53 2.27s.227 1.741.53 2.195c.303.53.832.757 1.362.757.606 0 1.135-.303 1.514-.757.378-.53.53-1.286.53-2.27 0-.909-.152-1.665-.53-2.195-.379-.53-.833-.757-1.438-.757zm-.076 5.374c-.378 0-.681-.228-.832-.606-.227-.378-.303-.984-.303-1.741 0-.757.151-1.362.303-1.816.227-.378.529-.606.832-.606.379 0 .681.227.908.682.227.378.303.983.303 1.74s-.076 1.363-.303 1.741c-.227.378-.529.606-.908.606z" fill="#fff"/>
    <path d="M141.345 135.021a1.982 1.982 0 0 0-2.346-1.513l-6.66 1.513c-1.06.227-1.665 1.287-1.363 2.346l3.028 10.369c.302 1.06 1.438 1.892 2.573 1.892h5.752c1.135 0 1.816-.908 1.589-1.968l-2.573-12.639z" fill="#E37F38"/>
    <path d="M186.604 138.049c0 12.109-11.353 21.948-25.354 21.948-14.002 0-25.354-9.839-25.354-21.948 0-12.11 11.352-21.948 25.354-21.948 14.001 0 25.354 9.838 25.354 21.948z" fill="#E37F38"/>
    <path d="M142.632 149.78c-.227-.075-.378 0-.303.227l1.438 11.126c0 .227.227.378.454.378h6.055c.227 0 .454-.151.454-.378l.833-7.569c0-.227-.152-.454-.303-.529l-8.628-3.255zM180.777 149.779c.227-.075.378 0 .302.227l-1.438 11.126c0 .227-.227.378-.454.378h-6.054c-.227 0-.455-.151-.455-.378l-.832-7.568c0-.228.151-.455.303-.53l8.628-3.255zM183.046 131.69s3.557.757 4.693-1.362c1.286-2.422 2.876-2.876 2.951.379.076 3.178-3.254 8.4-8.325 9.46-4.995 1.06-2.876-4.087-2.876-4.087l3.557-4.39zM149.141 120.413s-2.498-2.347-6.812-2.574c-4.313-.302-5.979.379-5.979.379s-.832 8.249 5.298 11.655c6.131 3.406 8.628-3.027 8.628-3.027l-1.135-6.433z" fill="#E37F38"/>
    <path d="M146.492 133.885a1.437 1.437 0 1 1-2.876 0c0-.757.606-1.438 1.438-1.438.757 0 1.438.681 1.438 1.438zM169.652 122.23s-3.103-1.513-8.023-1.513c-4.692 0-8.325 1.286-8.325 1.362l-.681-1.892c.151-.076 3.935-1.438 9.006-1.438 5.449 0 8.779 1.665 8.931 1.741l-.908 1.74z" fill="#fff"/>
</svg>
