<svg xmlns="http://www.w3.org/2000/svg" width="161" height="101" viewBox="0 0 161 101" fill="none">
  <path d="M28.8655 95.9929C28.8655 95.9929 0.981093 93.9367 10.1856 59.7079C15.2281 40.9549 54.032 2.92202 95.5735 0.807617C135.857 -1.24253 146.995 20.9337 137.347 45.3413C127.7 69.7489 144.208 62.6745 143.779 78.0949C143.35 93.5153 133.703 96.4204 133.703 96.4204L28.8655 95.9929Z" fill="#F1F5F9"/>
  <path d="M80.5 100.675C124.683 100.675 160.5 99.2081 160.5 97.3982C160.5 95.5883 124.683 94.1211 80.5 94.1211C36.3172 94.1211 0.5 95.5883 0.5 97.3982C0.5 99.2081 36.3172 100.675 80.5 100.675Z" fill="#C6CDD0"/>
  <path d="M101.903 58.2965L90.2702 42.0312L90.2431 42.0651L90.2153 42.0312L78.8184 58.2965H83.8615V96.2563H96.8603V58.2965H101.903Z" fill="#D2DEE5"/>
  <path d="M49.5099 58.2965L37.8766 42.0312L37.8495 42.0651L37.8217 42.0312L26.4248 58.2965H31.468V96.2563H44.4667V58.2965H49.5099Z" fill="#D2DEE5"/>
  <path d="M74.8356 47.3167L63.2023 31.0508L63.1752 31.0853L63.1481 31.0515L51.7512 47.3167H56.7937V96.2584H69.7931V47.3167H74.8356Z" fill="#D2DEE5"/>
  <path d="M128.297 47.3167L116.663 31.0508L116.636 31.0853L116.609 31.0515L105.212 47.3167H110.255V96.2584H123.254V47.3167H128.297Z" fill="#D2DEE5"/>
  <path d="M76.1329 47.7482C76.1329 47.7482 76.6782 52.5763 79.1551 57.2414C81.7146 62.0627 81.7254 62.986 81.7254 62.986C79.1679 61.506 77.4523 61.9071 70.1598 60.2087C69.2157 60.783 69.0897 61.5784 69.5421 62.3657L84.3655 69.708C85.815 70.2633 87.3179 68.7772 87.3463 67.1823C87.4594 60.8946 87.3666 53.5084 85.4011 47.2578L76.1323 47.7482H76.1329Z" fill="#E37829"/>
  <path d="M81.2027 17.5462L80.9379 17.3189C80.9379 17.3189 80.5051 16.936 79.6625 16.8731C78.8199 16.8102 77.5304 15.5819 78.0058 14.9792C78.4813 14.3766 77.086 13.9633 78.4894 13.0968C79.8928 12.2304 82.0791 12.4299 82.2572 13.5521C82.4354 14.6742 82.902 16.5593 82.902 16.5593L81.202 17.5455L81.2027 17.5462Z" fill="#EEC09D"/>
  <path d="M70.1598 60.2072C69.5178 59.6654 68.8289 59.217 68.0216 58.9843C68.0216 58.9843 67.1303 58.481 66.3825 61.2874C65.6348 64.0938 64.5992 65.1807 65.0632 67.3885C65.6754 70.3024 69.5848 62.3852 69.5848 62.3852C69.597 61.6283 69.7826 60.818 70.1598 60.2072Z" fill="#294482"/>
  <path d="M74.2375 29.9875C73.4999 30.6132 76.7286 33.6752 79.1404 32.3353C82.0765 30.7045 84.4864 28.651 85.9588 27.2779C86.2446 27.0114 86.3577 26.6231 86.2534 26.2687C85.2585 22.8807 84.6408 21.3074 82.804 16.1289C82.0555 16.2892 81.3803 16.5537 81.192 17.5027C82.0542 21.3074 81.9919 23.44 82.428 25.7046C78.69 28.0145 75.5717 28.8552 74.2361 29.9882L74.2375 29.9875Z" fill="#294482"/>
  <path d="M72.8957 47.7025C72.8957 47.7025 71.7626 51.746 72.7393 57.3046C73.7484 63.0485 73.0806 68.139 73.0806 68.139C73.0806 68.139 71.9143 67.5053 64.8731 67.5025C63.3722 67.5025 61.1534 67.4491 61.1534 67.4491C60.3101 68.0119 60.8594 69.575 60.8594 69.575L74.5605 73.6523C76.0899 74.0521 77.3036 73.2857 77.8427 71.7057C79.9688 65.4761 82.3407 53.1833 82.1795 47.6477C82.0169 42.0533 72.8944 47.7039 72.8944 47.7039L72.8957 47.7025Z" fill="#E8924C"/>
  <path d="M72.413 50.5118C72.413 50.5118 80.1823 50.5767 85.4016 47.1231C83.9251 43.6592 81.5057 43.018 81.5924 38.6282C81.7015 33.1386 78.5581 34.6098 77.0674 30.0063C76.8744 29.4097 73.3341 28.9491 71.6348 29.6505C70.3743 30.1713 69.1342 31.1859 68.9059 32.5285C68.6181 34.2222 68.7515 36.8588 70.7048 40.2996C73.7479 45.6593 72.5715 47.5465 72.4123 50.5111L72.413 50.5118Z" fill="white"/>
  <path d="M61.1544 67.4503C60.4582 66.9923 59.7246 66.6318 58.8977 66.502C58.8977 66.502 57.9576 66.113 57.5207 68.9931C57.0838 71.8732 56.1736 73.0819 56.8752 75.2166C57.8011 78.0345 60.8605 69.5762 60.8605 69.5762C60.79 68.8233 60.8456 68.1037 61.1544 67.4503Z" fill="#294482"/>
  <path d="M71.8024 28.3795C71.8024 28.3795 74.3409 28.5039 75.7463 27.6612C74.0158 23.3174 74.8618 21.3754 74.7954 18.6056C74.767 17.4219 72.4784 16.5 72.4784 16.5C69.3343 18.4717 71.8024 28.3795 71.8024 28.3795Z" fill="#2D2D2D"/>
  <path d="M69.0402 24.9119C69.0402 24.9119 70.5316 28.3913 70.556 29.8753C70.5811 31.3593 75.0269 32.3144 75.0269 32.3144C75.0269 32.3144 75.0811 29.4938 73.9446 28.927C72.808 28.3595 71.9127 26.3066 71.7711 25.2562C71.6295 24.2058 69.0396 24.9119 69.0396 24.9119H69.0402Z" fill="#CD9C7C"/>
  <path d="M75.0997 21.6591C75.8034 24.577 74.4447 27.3489 73.8988 27.7405C73.6523 27.9177 73.3922 28.0665 73.0955 28.0016C71.8825 27.7364 67.944 27.0445 66.8258 23.3899C66.1369 21.1382 67.5958 18.7905 69.8573 18.2101C72.2408 17.5987 74.5172 19.2464 75.099 21.6591H75.0997Z" fill="#EEC09D"/>
  <path d="M66.4364 28.8467C66.177 26.8277 65.5139 25.6129 64.4269 23.8908C63.6019 22.5847 63.0201 20.6968 64.3361 18.6264C66.7934 14.7615 72.8091 16.0345 73.8454 17.2986C74.3087 17.8641 69.8439 19.8676 69.8439 19.8676C68.9106 22.6374 71.5406 28.8771 71.5406 28.8771C67.3711 30.2455 66.4879 29.2512 66.4879 29.2512L66.4357 28.846L66.4364 28.8467Z" fill="#3D3D3D"/>
  <path d="M76.7741 20.4489C76.7741 20.4489 74.8668 20.2027 69.6387 21.8734C66.2942 22.9421 69.443 17.0703 71.8914 16.3222C73.9755 15.6851 76.877 16.3926 76.7748 20.4489H76.7741Z" fill="#3D3D3D"/>
  <path d="M70.6389 30.2617C70.6389 30.2617 71.2369 31.9723 74.2475 34.6265C75.4017 35.6438 77.0963 36.6448 76.5023 40.2926C76.1833 42.2528 81.8651 50.4114 72.431 54.0619C68.1559 53.5425 66.2649 51.606 65.6499 48.9126C65.6499 48.9126 73.0921 49.1594 71.4368 43.2769C70.6599 40.5179 66.7532 35.7263 68.4322 32.1035C68.8495 31.2033 70.6389 30.2617 70.6389 30.2617Z" fill="#294482"/>
  <path d="M74.1265 29.1479C74.1265 29.1479 76.2044 31.6756 77.0964 32.5759C78.9902 34.488 80.9577 34.8479 80.4098 38.8799C80.4098 38.8799 80.5859 47.9212 88.0186 48.1735C88.6674 46.6509 88.8259 45.0871 87.9637 43.4374C86.2278 43.4124 82.9998 44.8152 81.9669 38.2339C81.9669 38.2339 83.1393 35.6359 80.1219 33.0399C79.0227 32.0943 78.7118 31.4578 77.8943 30.2978C77.4181 29.6221 76.6691 29.1878 75.8455 29.1094L74.1265 29.1479Z" fill="#294482"/>
  <path d="M54.1615 22.3051C53.9982 22.1719 53.9515 21.8932 53.9515 21.8932C53.9515 21.8932 53.6968 21.3751 52.941 20.9984C52.1851 20.6209 51.459 18.9956 52.1269 18.6181C52.7954 18.2407 51.6616 17.3296 53.2891 17.0597C54.9167 16.7898 56.8639 17.8024 56.6025 18.9083C56.341 20.0142 56.0566 21.9352 56.0566 21.9352L54.1608 22.3051H54.1615Z" fill="#EEC09D"/>
  <path d="M70.7488 31.2184C71.6097 31.6472 73.2603 35.1753 70.5226 35.3958C66.2516 35.7394 58.8907 34.8236 57.1094 34.2311C56.7409 34.1086 56.3901 33.9781 56.2478 33.6392C54.8851 30.3993 54.814 26.9849 53.9504 21.893C54.6901 21.5927 55.3965 21.569 56.0562 21.9349C57.9939 26.5614 58.9049 29.3779 58.9421 30.3662C65.6881 31.4944 69.1328 30.4135 70.7488 31.2184Z" fill="#294482"/>
  <path d="M38.6078 77.6653C38.5909 77.5328 38.087 78.1868 37.9115 78.289C37.7361 78.3911 35.1482 78.6793 34.2324 80.3601C33.3167 82.0409 32.401 81.0805 32.401 81.0805C32.401 81.0805 31.8023 80.6205 32.2581 79.6769C32.7139 78.7334 31.9892 78.7753 31.7068 77.5652C31.4244 76.3552 32.0895 75.8161 31.9127 75.1904C31.7359 74.5648 31.1081 73.5955 31.7705 72.6053C32.4322 71.615 37.8777 75.1268 38.2664 75.344C38.6552 75.5611 38.6078 77.6653 38.6078 77.6653Z" fill="#80BB50"/>
  <path d="M39.5718 84.6047C35.8826 79.2876 37.7668 76.4345 37.7668 76.4345C37.7668 76.4345 39.6185 72.9484 46.4958 74.1132C46.5243 75.6344 46.2087 77.9936 44.4788 80.3637L52.7561 86.9504C52.7561 86.9504 57.1891 84.6385 57.3834 80.4726C58.6703 82.6066 59.0442 84.7711 59.1451 86.0819C59.2548 87.5091 58.3696 88.8355 57.0001 89.2583C55.8981 89.5985 54.7989 89.5978 54.7989 89.5978H38.1474C37.4857 89.5978 36.8606 89.3191 36.4765 88.8436C34.0477 85.8384 40.1949 85.5023 39.5725 84.6047H39.5718Z" fill="#80BB50"/>
  <path d="M52.756 86.9505L44.4788 80.3638C46.2086 77.9931 46.5242 75.6345 46.4958 74.1133C47.7115 74.3189 49.0851 74.67 50.6327 75.2117C54.089 76.4211 56.1527 78.4327 57.3827 80.4727C57.189 84.6386 52.7554 86.9505 52.7554 86.9505H52.756Z" fill="#67A53D"/>
  <path d="M39.0068 75.3132C39.1111 75.3084 39.2106 75.3565 39.2723 75.441C39.5947 75.8813 39.9076 77.3363 38.5841 78.6789C38.3857 78.8805 37.623 78.3651 37.623 78.3651C37.623 78.3651 38.8666 76.6504 38.2658 75.3443L39.0068 75.3125V75.3132Z" fill="#395B26"/>
  <path d="M58.1321 93.7351C58.1714 93.8142 58.1951 93.9001 58.1951 93.9907V96.8208C58.1951 97.2029 57.8077 97.5127 57.3302 97.5127H36.5723C36.491 97.5127 36.4131 97.5005 36.3386 97.4836C36.466 97.7386 36.7762 97.9192 37.1405 97.9192H57.8984C58.3759 97.9192 58.7634 97.6094 58.7634 97.2273V94.3972C58.7634 94.0807 58.4951 93.8162 58.1321 93.7344V93.7351Z" fill="#A77014"/>
  <path d="M38.0594 97.5138H38.6277V93.707H37.1403C36.6628 93.707 36.2754 94.0168 36.2754 94.399V97.229C36.2754 97.3196 36.2984 97.4055 36.3384 97.4847C36.4129 97.5016 36.4908 97.5138 36.572 97.5138H38.0594Z" fill="#FFD940"/>
  <path d="M39.9685 93.707V97.5138H40.8266H41.3949V93.707H39.9685Z" fill="#FFD940"/>
  <path d="M38.6282 93.707V97.5138H39.3996H39.9685V93.707H38.6282Z" fill="#FFE064"/>
  <path d="M41.3948 93.707V97.5138H45.4586H46.0275V93.707H41.3948Z" fill="#FFE064"/>
  <path d="M46.0273 93.707V97.5138H52.0844H52.6527V93.707H46.0273Z" fill="#FFD940"/>
  <path d="M52.6525 93.707V97.5138H57.3293C57.8068 97.5138 58.1942 97.204 58.1942 96.8218V93.9918C58.1942 93.9012 58.1712 93.8152 58.1312 93.7361C58.0567 93.7192 57.9788 93.707 57.8975 93.707H52.6519H52.6525Z" fill="#E4AC1F"/>
  <path d="M54.6706 93.707H53.5876V97.5138H54.6706V93.707Z" fill="#CC9029"/>
  <path d="M56.6665 93.707H55.5835V97.5138H56.6665V93.707Z" fill="#CC9029"/>
  <path d="M57.9461 89.5742C57.9847 89.652 58.0078 89.7366 58.0078 89.8252V92.5997C58.0078 92.9744 57.6278 93.2781 57.1598 93.2781H36.8083C36.7284 93.2781 36.6525 93.2666 36.5793 93.2497C36.704 93.5 37.0088 93.6772 37.3657 93.6772H57.7172C58.1859 93.6772 58.5652 93.3735 58.5652 92.9988V90.2242C58.5652 89.9138 58.3024 89.6547 57.9461 89.5742Z" fill="#A77014"/>
  <path d="M38.2661 93.2824H38.8235V89.5508H37.3653C36.8966 89.5508 36.5173 89.8545 36.5173 90.2292V93.0038C36.5173 93.0924 36.5404 93.1769 36.579 93.2547C36.6521 93.2709 36.728 93.2831 36.8079 93.2831H38.2661V93.2824Z" fill="#FFD940"/>
  <path d="M40.1375 89.5508V93.2831H40.9793H41.5361V89.5508H40.1375Z" fill="#FFD940"/>
  <path d="M38.8237 89.5508V93.2831H39.5803H40.1377V89.5508H38.8237Z" fill="#FFE064"/>
  <path d="M41.5359 89.5508V93.2831H45.5204H46.0779V89.5508H41.5359Z" fill="#FFE064"/>
  <path d="M46.0779 89.5508V93.2831H52.0164H52.5739V89.5508H46.0779Z" fill="#FFD940"/>
  <path d="M52.574 89.5476V93.2792H57.1593C57.628 93.2792 58.0073 92.9755 58.0073 92.6008V89.8262C58.0073 89.7376 57.9842 89.6531 57.9456 89.5753C57.8725 89.5591 57.7966 89.5469 57.7167 89.5469H52.574V89.5476Z" fill="#E4AC1F"/>
  <path d="M54.5522 89.5469H53.4902V93.2785H54.5522V89.5469Z" fill="#CC9029"/>
  <path d="M56.5095 89.5469H55.4475V93.2785H56.5095V89.5469Z" fill="#CC9029"/>
  <path d="M109.242 78.2891C109.279 78.3628 109.301 78.4433 109.301 78.5278V81.1698C109.301 81.5263 108.939 81.8158 108.493 81.8158H89.1146C89.0387 81.8158 88.9662 81.8049 88.8965 81.7887C89.0157 82.0268 89.3049 82.1959 89.6456 82.1959H109.024C109.471 82.1959 109.832 81.9071 109.832 81.5499V78.908C109.832 78.6124 109.582 78.3655 109.243 78.2891H109.242Z" fill="#A77014"/>
  <path d="M90.5029 81.8155H91.0339V78.2617H89.6455C89.1991 78.2617 88.8381 78.5505 88.8381 78.9077V81.5497C88.8381 81.6342 88.8598 81.7147 88.8971 81.7884C88.9668 81.804 89.0393 81.8155 89.1151 81.8155H90.5036H90.5029Z" fill="#FFD940"/>
  <path d="M92.2844 78.2656V81.8187H93.0857H93.616V78.2656H92.2844Z" fill="#FFD940"/>
  <path d="M91.0332 78.2656V81.8187H91.7539H92.2849V78.2656H91.0332Z" fill="#FFE064"/>
  <path d="M93.6167 78.2656V81.8187H97.4109H97.9413V78.2656H93.6167Z" fill="#FFE064"/>
  <path d="M97.9409 78.2656V81.8187H103.596H104.127V78.2656H97.9409Z" fill="#FFD940"/>
  <path d="M104.127 78.2656V81.8194H108.494C108.94 81.8194 109.301 81.5299 109.301 81.1734V78.5314C109.301 78.4469 109.279 78.3664 109.242 78.2927C109.172 78.2771 109.1 78.2656 109.024 78.2656H104.127Z" fill="#E4AC1F"/>
  <path d="M106.011 78.2617H105V81.8155H106.011V78.2617Z" fill="#CC9029"/>
  <path d="M107.873 78.2617H106.862V81.8155H107.873V78.2617Z" fill="#CC9029"/>
  <path d="M109.267 74.3438C109.305 74.4175 109.326 74.498 109.326 74.5825V77.2245C109.326 77.581 108.965 77.8705 108.519 77.8705H89.14C89.0641 77.8705 88.9916 77.8596 88.9219 77.8434C89.0411 78.0815 89.3303 78.2506 89.671 78.2506H109.05C109.496 78.2506 109.857 77.9611 109.857 77.6046V74.9627C109.857 74.6671 109.607 74.4202 109.268 74.3438H109.267Z" fill="#A77014"/>
  <path d="M90.5278 77.8702H91.0588V74.3164H89.6704C89.2247 74.3164 88.863 74.6059 88.863 74.9624V77.6044C88.863 77.6889 88.8847 77.7694 88.922 77.8431C88.9917 77.8587 89.0642 77.8702 89.1401 77.8702H90.5285H90.5278Z" fill="#FFD940"/>
  <path d="M92.3098 74.3203V77.8734H93.1111H93.6421V74.3203H92.3098Z" fill="#FFD940"/>
  <path d="M91.0586 74.3203V77.8734H91.7786H92.3096V74.3203H91.0586Z" fill="#FFE064"/>
  <path d="M93.6421 74.3203V77.8734H97.4356H97.9667V74.3203H93.6421Z" fill="#FFE064"/>
  <path d="M97.9663 74.3203V77.8734H103.621H104.151V74.3203H97.9663Z" fill="#FFD940"/>
  <path d="M104.152 74.3203V77.8741H108.518C108.965 77.8741 109.326 77.5846 109.326 77.2281V74.5861C109.326 74.5016 109.304 74.4211 109.267 74.3474C109.197 74.3318 109.125 74.3203 109.049 74.3203H104.152Z" fill="#E4AC1F"/>
  <path d="M106.036 74.3203H105.025V77.8741H106.036V74.3203Z" fill="#CC9029"/>
  <path d="M107.899 74.3203H106.887V77.8741H107.899V74.3203Z" fill="#CC9029"/>
  <path d="M88.5307 94.0312C88.568 94.105 88.5896 94.1855 88.5896 94.27V96.912C88.5896 97.2685 88.228 97.558 87.7823 97.558H68.4034C68.3275 97.558 68.2551 97.5471 68.1853 97.5309C68.3045 97.769 68.5937 97.9381 68.9344 97.9381H88.3133C88.7596 97.9381 89.1207 97.6486 89.1207 97.2921V94.6502C89.1207 94.3546 88.8707 94.1077 88.5314 94.0312H88.5307Z" fill="#A77014"/>
  <path d="M69.7915 97.5577H70.3225V94.0039H68.934C68.4877 94.0039 68.1267 94.2927 68.1267 94.6499V97.2918C68.1267 97.3764 68.1484 97.4569 68.1856 97.5306C68.2554 97.5462 68.3279 97.5577 68.4037 97.5577H69.7922H69.7915Z" fill="#FFD940"/>
  <path d="M71.573 94.0039V97.5577H72.3742H72.9046V94.0039H71.573Z" fill="#FFD940"/>
  <path d="M70.3218 94.0039V97.5577H71.0424H71.5734V94.0039H70.3218Z" fill="#FFE064"/>
  <path d="M72.905 94.0039V97.5577H76.6993H77.2296V94.0039H72.905Z" fill="#FFE064"/>
  <path d="M77.2295 94.0039V97.5577H82.8849H83.4153V94.0039H77.2295Z" fill="#FFD940"/>
  <path d="M83.415 94.0039V97.5577H87.7816C88.2279 97.5577 88.5889 97.2682 88.5889 96.9117V94.2697C88.5889 94.1852 88.5673 94.1047 88.53 94.031C88.4602 94.0154 88.3878 94.0039 88.3119 94.0039H83.415Z" fill="#E4AC1F"/>
  <path d="M85.2991 94.0039H84.2878V97.5577H85.2991V94.0039Z" fill="#CC9029"/>
  <path d="M87.1614 94.0039H86.1501V97.5577H87.1614V94.0039Z" fill="#CC9029"/>
  <path d="M88.5554 90.0859C88.5926 90.1597 88.6143 90.2402 88.6143 90.3247V92.9667C88.6143 93.3231 88.2526 93.6126 87.807 93.6126H68.428C68.3522 93.6126 68.2797 93.6018 68.21 93.5856C68.3292 93.8237 68.6184 93.9928 68.9591 93.9928H88.338C88.7843 93.9928 89.1453 93.7033 89.1453 93.3468V90.7048C89.1453 90.4093 88.8954 90.1624 88.5561 90.0859H88.5554Z" fill="#A77014"/>
  <path d="M69.8164 93.6124H70.3474V90.0586H68.959C68.5126 90.0586 68.1516 90.3481 68.1516 90.7046V93.3465C68.1516 93.4311 68.1733 93.5116 68.2105 93.5853C68.2803 93.6009 68.3528 93.6124 68.4286 93.6124H69.8171H69.8164Z" fill="#FFD940"/>
  <path d="M71.5979 90.0586V93.6124H72.3992H72.9302V90.0586H71.5979Z" fill="#FFD940"/>
  <path d="M70.3469 90.0586V93.6124H71.0676H71.5979V90.0586H70.3469Z" fill="#FFE064"/>
  <path d="M72.9304 90.0586V93.6124H76.724H77.255V90.0586H72.9304Z" fill="#FFE064"/>
  <path d="M77.2549 90.0586V93.6124H82.9097H83.4407V90.0586H77.2549Z" fill="#FFD940"/>
  <path d="M83.4404 90.0586V93.6124H87.807C88.2533 93.6124 88.6143 93.3229 88.6143 92.9664V90.3244C88.6143 90.2399 88.5927 90.1594 88.5554 90.0857C88.4856 90.0701 88.4132 90.0586 88.3373 90.0586H83.4404Z" fill="#E4AC1F"/>
  <path d="M85.324 90.0586H84.3127V93.6124H85.324V90.0586Z" fill="#CC9029"/>
  <path d="M87.1872 90.0586H86.176V93.6124H87.1872V90.0586Z" fill="#CC9029"/>
  <path d="M108.447 82.1992C108.485 82.2729 108.506 82.3534 108.506 82.438V85.08C108.506 85.4364 108.145 85.7259 107.699 85.7259H88.3201C88.2443 85.7259 88.1718 85.7151 88.1021 85.6989C88.2213 85.937 88.5105 86.1061 88.8511 86.1061H108.23C108.676 86.1061 109.037 85.8166 109.037 85.4601V82.8181C109.037 82.5225 108.787 82.2757 108.448 82.1992H108.447Z" fill="#A77014"/>
  <path d="M89.708 85.7256H90.239V82.1719H88.8505C88.4049 82.1719 88.0432 82.4614 88.0432 82.8178V85.4598C88.0432 85.5444 88.0649 85.6249 88.1021 85.6986C88.1719 85.7141 88.2444 85.7256 88.3202 85.7256H89.7087H89.708Z" fill="#FFD940"/>
  <path d="M91.49 82.1758V85.7289H92.2912H92.8216V82.1758H91.49Z" fill="#FFD940"/>
  <path d="M90.2383 82.1758V85.7289H90.9589H91.4899V82.1758H90.2383Z" fill="#FFE064"/>
  <path d="M92.8218 82.1758V85.7289H96.616H97.1463V82.1758H92.8218Z" fill="#FFE064"/>
  <path d="M97.1465 82.1758V85.7289H102.802H103.332V82.1758H97.1465Z" fill="#FFD940"/>
  <path d="M103.332 82.1758V85.7295H107.699C108.145 85.7295 108.506 85.44 108.506 85.0836V82.4416C108.506 82.3571 108.484 82.2766 108.447 82.2028C108.377 82.1873 108.305 82.1758 108.229 82.1758H103.332Z" fill="#E4AC1F"/>
  <path d="M105.216 82.1758H104.205V85.7295H105.216V82.1758Z" fill="#CC9029"/>
  <path d="M107.079 82.1758H106.068V85.7295H107.079V82.1758Z" fill="#CC9029"/>
  <path d="M109.242 86.1328C109.279 86.2065 109.301 86.287 109.301 86.3716V89.0136C109.301 89.37 108.939 89.6595 108.493 89.6595H89.1146C89.0387 89.6595 88.9662 89.6487 88.8965 89.6325C89.0157 89.8706 89.3049 90.0397 89.6456 90.0397H109.024C109.471 90.0397 109.832 89.7502 109.832 89.3937V86.7517C109.832 86.4561 109.582 86.2092 109.243 86.1328H109.242Z" fill="#A77014"/>
  <path d="M90.5027 89.6592H91.0337V86.1055H89.6452C89.1989 86.1055 88.8379 86.395 88.8379 86.7514V89.3934C88.8379 89.478 88.8596 89.5585 88.8968 89.6322C88.9666 89.6477 89.039 89.6592 89.1149 89.6592H90.5034H90.5027Z" fill="#FFD940"/>
  <path d="M92.2842 86.1055V89.6592H93.0854H93.6158V86.1055H92.2842Z" fill="#FFD940"/>
  <path d="M91.033 86.1055V89.6592H91.7536H92.2846V86.1055H91.033Z" fill="#FFE064"/>
  <path d="M93.616 86.1055V89.6592H97.4102H97.9405V86.1055H93.616Z" fill="#FFE064"/>
  <path d="M97.9407 86.1055V89.6592H103.596H104.126V86.1055H97.9407Z" fill="#FFD940"/>
  <path d="M104.126 86.1055V89.6592H108.493C108.939 89.6592 109.3 89.3697 109.3 89.0133V86.3713C109.3 86.2867 109.278 86.2063 109.241 86.1325C109.171 86.117 109.099 86.1055 109.023 86.1055H104.126Z" fill="#E4AC1F"/>
  <path d="M106.01 86.1055H104.999V89.6592H106.01V86.1055Z" fill="#CC9029"/>
  <path d="M107.874 86.1055H106.863V89.6592H107.874V86.1055Z" fill="#CC9029"/>
  <path d="M108.452 90.0664C108.489 90.1401 108.511 90.2206 108.511 90.3052V92.9472C108.511 93.3036 108.149 93.5931 107.704 93.5931H88.3248C88.2489 93.5931 88.1765 93.5823 88.1067 93.5661C88.2259 93.8041 88.5151 93.9732 88.8558 93.9732H108.235C108.681 93.9732 109.042 93.6837 109.042 93.3273V90.6853C109.042 90.3897 108.792 90.1428 108.453 90.0664H108.452Z" fill="#A77014"/>
  <path d="M89.7129 93.5928H90.2439V90.0391H88.8554C88.4091 90.0391 88.0481 90.3286 88.0481 90.685V93.327C88.0481 93.4116 88.0698 93.492 88.107 93.5658C88.1768 93.5813 88.2493 93.5928 88.3251 93.5928H89.7136H89.7129Z" fill="#FFD940"/>
  <path d="M91.4954 90.043V93.5961H92.2966H92.8269V90.043H91.4954Z" fill="#FFD940"/>
  <path d="M90.2437 90.043V93.5961H90.9643H91.4953V90.043H90.2437Z" fill="#FFE064"/>
  <path d="M92.8267 90.043V93.5961H96.6209H97.1512V90.043H92.8267Z" fill="#FFE064"/>
  <path d="M97.1514 90.043V93.5961H102.807H103.337V90.043H97.1514Z" fill="#FFD940"/>
  <path d="M103.337 90.043V93.5967H107.703C108.15 93.5967 108.511 93.3072 108.511 92.9508V90.3088C108.511 90.2242 108.489 90.1437 108.452 90.07C108.382 90.0545 108.31 90.043 108.234 90.043H103.337Z" fill="#E4AC1F"/>
  <path d="M105.221 90.043H104.21V93.5967H105.221V90.043Z" fill="#CC9029"/>
  <path d="M107.084 90.043H106.073V93.5967H107.084V90.043Z" fill="#CC9029"/>
  <path d="M109.569 93.9727C109.606 94.0464 109.627 94.1269 109.627 94.2114V96.8534C109.627 97.2099 109.266 97.4994 108.82 97.4994H89.4412C89.3654 97.4994 89.2929 97.4885 89.2231 97.4723C89.3423 97.7104 89.6316 97.8795 89.9722 97.8795H109.351C109.797 97.8795 110.159 97.59 110.159 97.2335V94.5915C110.159 94.296 109.909 94.0491 109.569 93.9727H109.569Z" fill="#A77014"/>
  <path d="M90.8291 97.4991H91.3601V93.9453H89.9717C89.5253 93.9453 89.1643 94.2348 89.1643 94.5913V97.2333C89.1643 97.3178 89.186 97.3983 89.2232 97.472C89.293 97.4876 89.3655 97.4991 89.4413 97.4991H90.8298H90.8291Z" fill="#FFD940"/>
  <path d="M92.6111 93.9453V97.4991H93.4123H93.9433V93.9453H92.6111Z" fill="#FFD940"/>
  <path d="M91.3604 93.9453V97.4991H92.081H92.6113V93.9453H91.3604Z" fill="#FFE064"/>
  <path d="M93.9434 93.9453V97.4991H97.7369H98.2679V93.9453H93.9434Z" fill="#FFE064"/>
  <path d="M98.2681 93.9453V97.4991H103.923H104.454V93.9453H98.2681Z" fill="#FFD940"/>
  <path d="M104.454 93.9453V97.4991H108.82C109.267 97.4991 109.628 97.2096 109.628 96.8531V94.2111C109.628 94.1266 109.606 94.0461 109.569 93.9724C109.499 93.9568 109.426 93.9453 109.35 93.9453H104.454Z" fill="#E4AC1F"/>
  <path d="M106.338 93.9453H105.327V97.4991H106.338V93.9453Z" fill="#CC9029"/>
  <path d="M108.201 93.9453H107.19V97.4991H108.201V93.9453Z" fill="#CC9029"/>
  <path d="M113.334 78.5118L117.933 76.8479C112.802 74.2404 106.422 75.861 103.205 80.7858C102.841 81.3432 102.535 81.9215 102.281 82.512L106.878 80.8481C108.626 79.1801 110.985 78.3576 113.334 78.5118Z" fill="#FFD940"/>
  <path d="M104.755 84.0866L101.485 85.2771C101.386 85.9156 101.34 86.5575 101.351 87.1973L104.28 86.1374C104.351 85.4448 104.508 84.7562 104.755 84.0859V84.0866Z" fill="#FFD940"/>
  <path d="M120.685 90.1915L124.013 88.9868C124.116 88.3997 124.17 87.8092 124.181 87.2188L121.206 88.2753C121.109 88.9239 120.937 89.5665 120.685 90.1908V90.1915Z" fill="#FFD940"/>
  <path d="M117.43 79.8738C117.902 80.1815 118.333 80.5299 118.723 80.908L121.651 79.8488C121.242 79.3428 120.784 78.8673 120.282 78.4297L117.013 79.6201C117.153 79.7006 117.293 79.7845 117.43 79.8738Z" fill="#FFD940"/>
  <path d="M108.105 94.1499C107.716 93.8962 107.356 93.6148 107.022 93.3125L104.046 94.3697C104.454 94.852 104.908 95.3038 105.404 95.7211L108.729 94.5178C108.518 94.4042 108.309 94.2831 108.105 94.1499H108.105Z" fill="#FFD940"/>
  <path d="M118.285 93.517C116.72 94.8428 114.741 95.5442 112.734 95.5381L107.867 97.3109C112.951 99.7324 119.168 98.0854 122.33 93.2445C122.648 92.7574 122.923 92.2549 123.158 91.7422L118.285 93.517Z" fill="#FFD940"/>
  <path d="M118.285 93.5156L112.734 95.5367C114.741 95.5428 116.72 94.8407 118.285 93.5156Z" fill="#E4AC1F"/>
  <path d="M110.664 92.0234L107.023 93.3167C107.356 93.619 107.716 93.9004 108.106 94.1541C108.31 94.2873 108.519 94.4084 108.73 94.522L112.439 93.1801L110.665 92.0241L110.664 92.0234Z" fill="#E4AC1F"/>
  <path d="M108.225 80.3606L110.376 79.582C109.63 79.7437 108.906 80.0048 108.225 80.3606Z" fill="#E4AC1F"/>
  <path d="M112.58 81.7526C112.629 81.7904 112.682 81.8283 112.738 81.8648C113.234 82.1875 113.755 82.3999 114.298 82.5128L117.593 81.3203C117.356 81.1269 117.108 80.9422 116.845 80.7718C116.457 80.5188 116.055 80.3037 115.646 80.1211L104.755 84.0875C104.509 84.7578 104.352 85.4463 104.28 86.139L111.398 83.5633L112.579 81.7532L112.58 81.7526Z" fill="#E4AC1F"/>
  <path d="M113.603 90.9766L114.061 91.2749L112.937 92.9963L120.373 90.3056C120.551 89.6975 120.659 89.078 120.698 88.457L113.603 90.9766Z" fill="#E4AC1F"/>
  <path d="M112.738 81.8623C112.682 81.8258 112.629 81.7886 112.58 81.75L111.398 83.56L114.298 82.5103C113.755 82.3966 113.234 82.1849 112.739 81.8623H112.738Z" fill="#FFD940"/>
  <path d="M113.603 90.9805L110.664 92.0241L112.438 93.1801L112.935 93.0002L114.06 91.2781L113.603 90.9805Z" fill="#FFD940"/>
  <path d="M105.342 82.8146C105.429 82.6604 105.522 82.5082 105.62 82.358C105.988 81.7953 106.412 81.2927 106.878 80.8477L102.281 82.5116C101.893 83.4098 101.629 84.3385 101.485 85.2773L104.755 84.0869C104.914 83.654 105.108 83.2279 105.343 82.8153L105.342 82.8146Z" fill="#FFE064"/>
  <path d="M117.013 79.6229L120.282 78.4324C119.884 78.0861 119.459 77.7615 119.005 77.4652C118.655 77.2373 118.297 77.0323 117.933 76.8477L113.334 78.5116C114.596 78.5941 115.854 78.9573 117.014 79.6229H117.013Z" fill="#FFE064"/>
  <path d="M110.376 79.5851L108.225 80.3636C107.121 80.9399 106.129 81.763 105.343 82.8182C105.108 83.2308 104.914 83.6563 104.755 84.0898L115.646 80.1235C113.954 79.3706 112.107 79.2103 110.376 79.5851Z" fill="#ECB22F"/>
  <path d="M119.915 91.6695C119.817 91.8197 119.714 91.9658 119.608 92.1078C119.215 92.6361 118.769 93.1048 118.284 93.5147L123.157 91.7398C123.565 90.8484 123.849 89.9237 124.013 88.9883L120.684 90.1929C120.48 90.6996 120.224 91.1947 119.914 91.6695H119.915Z" fill="#FFE064"/>
  <path d="M108.73 94.5202L105.404 95.7235C105.759 96.0218 106.132 96.3039 106.531 96.5636C106.965 96.8463 107.412 97.0925 107.867 97.309L112.735 95.5362C111.372 95.5321 109.997 95.2007 108.731 94.5195L108.73 94.5202Z" fill="#FFE064"/>
  <path d="M120.372 90.3086L112.936 92.9993L112.705 93.353L112.438 93.1792L108.729 94.5212C109.996 95.2023 111.371 95.5337 112.734 95.5378L118.284 93.5167C118.768 93.1062 119.215 92.6374 119.608 92.1098C119.938 91.5302 120.19 90.9255 120.372 90.3086Z" fill="#ECB22F"/>
  <path d="M112.705 93.3492L112.935 92.9961L112.439 93.176L112.705 93.3492Z" fill="#FFD940"/>
  <path d="M104.28 86.1367L101.352 87.1966C101.396 89.794 102.328 92.3419 104.046 94.3711L107.023 93.3139C104.985 91.4653 104.009 88.778 104.28 86.1367Z" fill="#FFE064"/>
  <path d="M121.206 88.2781L124.181 87.2215C124.226 84.5735 123.348 81.9511 121.65 79.8516L118.723 80.9108C120.713 82.8439 121.605 85.607 121.206 88.2774V88.2781Z" fill="#FFE064"/>
  <path d="M120.685 90.1918C120.937 89.5675 121.109 88.9243 121.206 88.2763C121.605 85.6052 120.714 82.8428 118.723 80.9097C118.333 80.5309 117.902 80.1832 117.43 79.8755C117.292 79.7862 117.153 79.7023 117.013 79.6218C115.853 78.9563 114.596 78.5937 113.334 78.5105C110.984 78.3563 108.626 79.1788 106.878 80.8468C106.412 81.2918 105.987 81.7944 105.619 82.3572C105.521 82.5073 105.429 82.6602 105.342 82.8137C106.128 81.7586 107.12 80.9354 108.224 80.3591C108.906 80.0033 109.63 79.7422 110.375 79.5806C112.107 79.2059 113.953 79.3662 115.645 80.119C116.055 80.3016 116.456 80.5167 116.844 80.7697C117.107 80.9408 117.356 81.1248 117.593 81.3182C119.769 83.0965 120.868 85.7817 120.697 88.4569C120.657 89.0778 120.55 89.6974 120.371 90.3054C120.19 90.9223 119.937 91.5263 119.608 92.1067C119.713 91.9646 119.816 91.8192 119.915 91.6684C120.225 91.1936 120.48 90.6984 120.685 90.1918H120.685Z" fill="#A77014"/>
  <path d="M107.302 89.8327L108.658 87.7575L109.943 88.5949L112.608 84.5155C112.334 84.4235 111.994 84.2457 111.587 83.9805C111.457 83.896 111.353 83.8189 111.275 83.7499L111.397 83.5625L104.279 86.1382C104.008 88.7795 104.984 91.4668 107.022 93.3154L110.663 92.0221L107.302 89.8327H107.302Z" fill="#ECB22F"/>
  <path d="M116.111 82.4533L117.469 83.3373L112.814 90.4645L113.603 90.9785L120.698 88.459C120.869 85.7838 119.77 83.0985 117.594 81.3203L114.298 82.5128C114.376 82.529 114.453 82.55 114.533 82.5615C115.173 82.6582 115.7 82.6224 116.112 82.4533H116.111Z" fill="#ECB22F"/>
  <path d="M112.814 90.4643L117.469 83.3372L116.111 82.4531C115.699 82.6215 115.172 82.6581 114.532 82.5613C114.453 82.5492 114.376 82.5289 114.298 82.5126L111.397 83.5624L111.275 83.7498C111.353 83.8188 111.457 83.8959 111.587 83.9804C111.994 84.2456 112.334 84.4241 112.608 84.5154L109.943 88.5948L108.658 87.7574L107.302 89.8326L110.664 92.022L113.603 90.9784L112.814 90.4643Z" fill="#FFE064"/>
  <ellipse cx="72.7722" cy="23.1484" rx="0.466064" ry="0.5" fill="#333333"/>
  <ellipse cx="74.4922" cy="23.4727" rx="0.361816" ry="0.5" fill="#333333"/>
  <ellipse cx="73.2381" cy="26.2441" rx="1" ry="0.38656" transform="rotate(18.8837 73.2381 26.2441)" fill="#333333"/>
  <ellipse cx="73.1846" cy="26.4006" rx="0.748877" ry="0.216732" transform="rotate(18.8837 73.1846 26.4006)" fill="#B30000"/>
</svg>