<svg width="1366" height="984" viewBox="0 0 1366 984" fill="none" xmlns="http://www.w3.org/2000/svg">
<g clip-path="url(#clip0_1558_20817)">
<path d="M1366 0H0V984H1366V0Z" fill="url(#paint0_linear_1558_20817)"/>
<path d="M107.102 136.846L161.202 112.939L173.002 117.673L185.802 100.039L191.702 94.8311L201.102 100.039L213.402 111.164L222.302 108.796L245.602 125.721L264.202 123.472L294.302 140.988L210.702 184.186L107.102 136.846Z" fill="#BCD2E4"/>
<path d="M413.997 187.145L0 185.5V163.25V108.098L32.1969 119.804L42.3969 117.082L49.4969 119.804L72.7969 111.046L88.9969 126.668L94.0969 123.118L108.797 135.663L123.497 132.704L144.297 148.918L163.597 144.657L175.697 156.137L180.797 155.546L201.597 171.641L219.797 165.132L226.397 153.06L236.297 146.551L254.797 147.143L264.997 139.923L289.797 132.112L295.897 125.485L300.997 119.804L312.097 124.893L327.297 119.804L342.997 128.443L357.197 123.118H385.097L394.297 132.112L407 120L413.997 119.685" fill="url(#paint1_linear_1558_20817)"/>
<path d="M413.997 215.55L0 216V194.484V129.367L36.7969 138.149L58.2969 155.546H78.1969L102.597 150.931L128.697 158.978L156.497 170.34L168.897 175.429L175.197 185.844L183.097 181.11L200.697 186.436L223.897 175.429L236.297 172.352L253.397 156.966L291.997 171.76H301.597L322.597 161.937L335.697 152.232L354.797 161.937H371.997L380.497 152.232L389.497 158.268L413.997 135.427" fill="url(#paint2_linear_1558_20817)"/>
<path d="M413.5 179.506L412.9 181.04H411.4L411.7 183.391L412.7 185.947L411.5 187.583L413 189.321L413.988 186.5L411.688 184.966V183.126L410.788 181.899L410.388 180.57L410.788 178.73L409.488 177.707L408.988 176.276L409.788 175.049L408.288 174.129L408.988 173.72L406.5 171L406 168.5L404.888 172.084L403.588 173.72L402.288 175.049L401.888 176.889L400.788 178.321L401.588 179.752V180.979L400.188 182.001L399.588 183.637L400.188 186.5L396.5 192.286V190.651L395.5 188.401L393.4 187.379L393 189.935L391.9 189.628L391.1 191.06L389.5 191.775L390.5 193.002L389 195.456H379L379.1 194.74V192.695L377.8 192.491L377.9 190.446L378.7 189.321L377.5 187.992L377.6 185.845L376.2 185.232L376.6 184.107H374.1L374.2 182.267L372.4 181.04L371.9 182.164L371.4 185.947L370 186.868L370.5 189.219H368.7L368.4 188.503L369.8 187.788L367.6 186.97L367.5 185.538L368.4 184.414L366.1 183.494L364.4 181.96L363.9 184.107L362.9 187.072L361.2 186.868V189.833L359.6 191.06L359.8 193.002L358.6 194.331L358.8 195.456H355.9L355.6 194.433L356.2 193.002L354.2 192.184L355.2 190.344L354 189.73L353.7 186.05L352.2 184.823L353.2 182.573L351.2 182.778V181.142L351.3 179.404L349.6 178.279L351.1 175.621L349.2 174.599L349.6 172.554L347.7 171.94L348.2 170.304L346.6 168.975L344.5 167.135L343.9 170.816L341.9 171.838L342.8 173.372L341.9 175.11H340.4L341.6 178.075L340.3 177.052L339.4 178.279L338.9 180.835L338.7 184.312L338.4 182.573L336.8 182.471L336.2 180.938L334.7 181.756L333.2 183.289L332.6 184.823H331.1L331.3 187.174L332.3 189.73L331.2 191.366L332.7 193.002L332.6 195.456H331.5L330.2 194.74V192.9L329.3 191.673L328.9 190.344L329.3 188.503L328.1 187.481L327.6 186.05L328.3 184.823L326.8 183.903L327.2 182.573L325.5 181.449L324.3 179.813L323.5 181.858L322.1 183.494L320.9 184.823L320.5 186.663L319.4 188.094L320.1 189.526V190.753L318.7 191.775L318.1 193.411L318.6 195.456H316.1V194.433L315.1 192.184L313 191.162L312.7 193.718L311.5 193.411L310.8 194.842L309.2 195.456H297.5L297.6 194.229L298.3 193.002L297.1 191.775L297.2 189.628L295.9 189.015L296.2 187.788H293.7L293.9 186.05L292 184.823L291.5 185.947L291 189.73L290 190.446L289.5 189.219H287.2L287.6 186.868L286.3 185.947L285.8 182.164L285.3 181.04L283.4 182.267L283.5 184.107H281L281.4 185.232L280 185.845L280.2 187.992L278.9 189.321L279.7 190.446L279.8 192.491L278.6 192.695V194.74L278.7 195.456H268.6L267.1 193.002L268.1 191.775L266.5 191.06L265.7 189.628L264.6 189.935L264.2 187.379L262.1 188.401L261.1 190.651V192.286L258.5 192.491L259.1 189.628L258.5 187.992L257.2 186.97V185.743L257.9 184.312L256.8 182.88L256.4 181.04L255.2 179.711L253.8 178.075L252.9 176.03L251.8 177.666L250.1 178.893L250.4 180.12L248.9 181.04L249.7 182.267L249.2 183.698L248 184.721L248.3 186.561L248 187.89L247 189.117V190.957L244.7 192.491L244.6 189.321L246.1 187.583L245 185.947L246 183.391L246.2 181.04H244.7L244.1 179.506L242.6 177.973L241.1 177.155L240.5 178.688L238.9 178.893L238.6 180.529L238.4 177.052L237.9 174.496L237 173.269L235.6 174.292L236.9 171.327H235.4L234.5 169.589L235.4 168.055L233.4 167.033L232.8 163.352L230.7 165.192L229 166.521L229.5 168.157L227.7 168.771L228 170.816L226.2 171.838L227.7 174.496L225.9 175.621L226.1 177.359V178.995L224.1 178.893L225.1 181.04L223.6 182.267L223.3 185.947L222.1 186.561L223.1 188.401L221.1 189.219L221.7 190.651L220.8 193.513L218.3 192.593L218.7 190.548L217.5 189.219L217.7 187.277L216.1 186.05V183.085L214.4 183.289L213.4 180.426L212.9 178.177L211.1 179.711L208.9 180.631L209.8 181.756L209.6 183.187L207.5 184.107L208.9 184.721L208.3 186.254L206.2 187.072L208.5 189.219L208.1 191.775H206L206.4 192.798V194.842L203.7 195.047L204.2 195.456H192.3L191.8 194.331L193.2 193.718L191.1 192.798L191 191.366L191.8 190.242L189.6 189.321L187.9 187.788L187.4 189.935L186.4 192.9L184.6 192.695V195.456H184.4L183.1 193.002H180.8L181.3 190.957L179.9 190.242L179.4 186.97L178.9 185.947L177 187.072L177.2 188.606H176.6L176.7 188.503L174.7 188.606V186.97L174.8 185.232L173.1 184.107L174.6 181.449L172.7 180.426L173.1 178.382L171.2 177.768L171.7 176.132L170.1 174.803L168 172.963L167.3 176.643L165.3 177.666L166.2 179.199L165.3 180.938H163.9L165.1 183.903L163.7 182.88L162.9 184.107L162.4 186.663L162.1 190.139L161.9 188.503L160.2 188.299L159.6 186.765L158.1 187.583L156.6 189.117L156 190.651H154.5L154.8 193.002L155 193.718L154.8 194.229V195.456H152.5L152.8 194.331L152.6 194.127L152.8 193.411L152.2 191.98L151.3 191.468L151.8 190.651L150.8 190.037L151.5 188.81L150.4 187.583L150 185.947L148.8 184.925L147.4 183.494L146.6 181.756L145.4 183.187L143.7 184.107L144.1 185.232L142.6 185.947L143.3 187.072L142.8 188.299L141.6 189.117L142 190.753L141.6 191.877L140.7 192.9V194.433L138.8 195.456H138.3L138.2 193.002L139.7 191.673L138.6 190.242L139.6 187.992L139.8 185.947H138.4L137.7 184.721L136.2 183.391L134.7 182.676L134.1 184.005L132.5 184.107L132.3 185.538L132 182.573L131.5 180.426L130.6 179.302L129.3 180.222L130.5 177.768H129L128.2 176.234L129 174.905L127 173.985L126.4 170.918L124.3 172.554L122.7 173.576L123.2 175.008L121.3 175.519L121.7 177.257L119.8 178.177L121.3 180.426L119.6 181.449L119.7 182.778V184.209L117.7 184.107L118.7 185.947L117.2 187.072L117 190.242L115.7 190.753L115.8 190.855L115.5 190.651L115 191.775L114.8 192.9L114.7 193.002L114.8 193.104L114.5 195.456H112.1L112.4 194.127L111.1 193.002L111.4 191.264L109.7 190.344V187.686L108 187.89L107 185.436L106.5 183.596L104.8 184.925L102.5 185.641L103.4 186.663L103.3 187.788L101.2 188.606L102.5 189.117L101.9 190.446L99.8002 191.162L102.2 193.002L101.8 195.149H99.7002L99.8002 195.456H92.1002L91.4002 194.842L93.1002 193.513L90.3002 193.309V191.366L90.7002 190.242H88.6002L88.2002 187.686L90.6002 185.641L88.5002 184.721L87.8002 183.187L89.2002 182.573L87.1002 181.653L87.0002 180.222L87.8002 179.097L85.6002 178.177L83.9002 176.643L83.4002 178.893L82.4002 181.756L80.6002 181.551V184.618L79.0002 185.743L79.2002 187.686L78.0002 189.015L78.4002 191.06L75.9002 191.98L75.0002 189.117L75.6002 187.686L73.6002 186.868L74.6002 185.129L73.4002 184.414L73.2002 180.733L71.7002 179.506L72.7002 177.359L70.7002 177.461V175.825L70.8002 174.19L69.0002 172.963L70.5002 170.304L68.7002 169.282L69.0002 167.237L67.2002 166.624L67.7002 164.988L66.1002 163.761L63.9002 161.818L63.3002 165.499L61.3002 166.521L62.2002 168.055L61.3002 169.793H59.8002L61.1002 172.758L59.7002 171.736L58.8002 172.963L58.3002 175.519L58.1002 178.995L57.9002 177.359L56.2002 177.155L55.6002 175.621L54.1002 176.439L52.6002 177.973L52.0002 179.506H50.5002L50.8002 181.858L51.8002 184.414L50.6002 186.05L52.1002 187.788L52.0002 190.957L49.7002 189.424V187.583L48.8002 186.356L48.4002 185.129L48.8002 183.187L47.5002 182.164L47.0002 180.733L47.8002 179.506L46.3002 178.586L46.7002 177.359L44.9002 176.132L43.8002 174.496L42.9002 176.541L41.6002 178.177L40.3002 179.506L39.9002 181.347L38.8002 182.778L39.6002 184.209V185.436L38.2002 186.459L37.6002 188.094L38.2002 190.957L35.6002 190.855V189.117L34.6002 186.868L32.5002 185.845L32.1002 188.401L31.0002 188.094L30.2002 189.526L28.6002 190.242L29.6002 191.468L28.8002 192.9L28.6002 190.242L29.1002 186.868L26.6002 184.107L27.1002 182.062L25.1002 181.449L22.8002 177.359L21.1002 180.835L21.3002 182.778L19.9002 184.107L20.5002 185.743L17.8002 187.788L16.6002 186.459L16.7002 184.312L15.3002 183.698L15.7002 182.573H13.2002L13.3002 180.733L11.5002 179.506L11.0002 180.631L10.5002 184.414L9.10023 185.334V185.436L7.20023 184.516L5.90023 180.631L3.60023 177.359L4.90023 175.212L0 169.895V198.421V1666H411.7L414 178.893L413.5 179.506Z" fill="#175B7C"/>
<path d="M514.102 151.015L568.202 127.108L580.002 131.842L592.802 114.207L598.702 109L608.102 114.207L620.402 125.332L629.302 122.965L652.602 139.89L671.202 137.641L701.302 155.157L617.702 198.355L514.102 151.015Z" fill="#BCD2E4"/>
<path d="M820.7 199.059L407 197.402V175.152V120L438.9 131.717L449.1 128.995L456.2 131.717L479.5 122.959L495.7 138.581L500.8 135.031L515.5 147.576L530.2 144.617L551 160.831L570.3 156.57L582.4 168.051L587.5 167.459L608.3 183.555L626.5 177.045L633.1 164.973L643 158.464L661.5 159.056L671.7 151.836L696.5 144.025L702.6 137.398L707.7 131.717L718.8 136.806L734 131.717L749.7 140.356L763.9 135.031H791.8L801 144.025L815.5 121.5L821.6 121.882" fill="url(#paint3_linear_1558_20817)"/>
<path d="M820.7 228.16L407 228.633V207.093V142L443.5 150.758L465 168.156H484.9L509.3 163.54L535.4 171.588L563.2 182.949L575.6 188.039L581.9 198.453L589.8 193.719L607.4 199.045L630.6 188.039L643 184.961L660.1 169.576L698.7 184.37H708.3L729.3 174.547L742.4 164.842L761.5 174.547H778.7L787.2 164.842L796.2 170.878L820.7 148.036" fill="url(#paint4_linear_1558_20817)"/>
<path d="M1124.9 138.846L1070.8 114.939L1059 119.673L1046.2 102.039L1040.3 96.8311L1030.9 102.039L1018.6 113.164L1009.7 110.796L986.398 127.721L967.798 125.472L937.698 142.988L1021.3 186.186L1124.9 138.846Z" fill="#B7CDDF"/>
<path d="M818.003 189.145L1232 187.489V165.239V110.087L1199.8 121.804L1189.6 119.082L1182.5 121.804L1159.2 113.046L1143 128.668L1137.9 125.118L1123.2 137.663L1108.5 134.704L1087.7 150.918L1068.4 146.657L1056.3 158.137L1051.2 157.546L1030.4 173.641L1012.2 167.132L1005.6 155.06L995.703 148.551L977.203 149.143L967.003 141.923L942.203 134.112L936.103 127.485L931.003 121.804L919.903 126.893L904.703 121.804L889.003 130.443L874.803 125.118H846.903L837.703 134.112L824.103 121.804L818.003 121.685" fill="url(#paint5_linear_1558_20817)"/>
<path d="M818.003 217.55L1232 218.04V196.5V131.407L1195.2 140.149L1173.7 157.546H1153.8L1129.4 152.931L1103.3 160.978L1075.5 172.34L1063.1 177.429L1056.8 187.844L1048.9 183.11L1031.3 188.436L1008.1 177.429L995.703 174.352L978.603 158.966L940.003 173.76H930.403L909.403 163.937L896.303 154.232L877.203 163.937H860.003L851.503 154.232L842.503 160.268L818 150.5" fill="url(#paint6_linear_1558_20817)"/>
<path d="M820.5 181.483L819.9 183.014H818.4L818.7 185.363L819.7 187.915L818.5 189.549L820 191.285L819.9 194.45L817.6 192.919V191.081L816.7 189.855L816.3 188.528L816.7 186.69L815.4 185.669L814.9 184.24L815.7 183.014L814.2 182.095L814.6 180.87L812.8 179.645L811.7 178.011L810.8 180.053L809.5 181.687L808.2 183.014L807.8 184.852L806.7 186.282L807.5 187.711V188.936L806.1 189.957L805.5 191.591L806.1 194.45L803.5 194.246V192.612L802.5 190.366L800.4 189.345L800 191.897L798.9 191.591L798.1 193.021L796.5 193.735L797.5 194.961L796 197.411H786L786.1 196.696V194.654L784.8 194.45L784.9 192.408L785.7 191.285L784.5 189.957L784.6 187.813L783.2 187.201L783.6 186.077H781.1L781.2 184.24L779.4 183.014L778.9 184.137L778.4 187.915L777 188.834L777.5 191.183H775.7L775.4 190.468L776.8 189.753L774.6 188.936L774.5 187.507L775.4 186.384L773.1 185.465L771.4 183.933L770.9 186.077L769.9 189.039L768.2 188.834V191.795L766.6 193.021L766.8 194.961L765.6 196.288L765.8 197.411H762.9L762.6 196.39L763.2 194.961L761.2 194.144L762.2 192.306L761 191.693L760.7 188.017L759.2 186.792L760.2 184.546L758.2 184.75V183.116L758.3 181.381L756.6 180.257L758.1 177.603L756.2 176.582L756.6 174.539L754.7 173.927L755.2 172.293L753.6 170.966L751.5 169.128L750.9 172.804L748.9 173.825L749.8 175.356L748.9 177.092H747.4L748.6 180.053L747.3 179.032L746.4 180.257L745.9 182.81L745.7 186.282L745.4 184.546L743.8 184.444L743.2 182.912L741.7 183.729L740.2 185.261L739.6 186.792H738.1L738.3 189.141L739.3 191.693L738.2 193.327L739.7 194.961L739.6 197.411H738.5L737.2 196.696V194.859L736.3 193.633L735.9 192.306L736.3 190.468L735.1 189.447L734.6 188.017L735.3 186.792L733.8 185.873L734.2 184.546L732.5 183.423L731.3 181.789L730.5 183.831L729.1 185.465L727.9 186.792L727.5 188.63L726.4 190.06L727.1 191.489V192.714L725.7 193.735L725.1 195.369L725.6 197.411H723.1V196.39L722.1 194.144L720 193.123L719.7 195.675L718.5 195.369L717.8 196.799L716.2 197.411H704.5L704.6 196.186L705.3 194.961L704.1 193.735L704.2 191.591L702.9 190.979L703.2 189.753H700.7L700.9 188.017L699 186.792L698.5 187.915L698 191.693L697 192.408L696.5 191.183H694.2L694.6 188.834L693.3 187.915L692.8 184.137L692.3 183.014L690.4 184.24L690.5 186.077H688L688.4 187.201L687 187.813L687.2 189.957L685.9 191.285L686.7 192.408L686.8 194.45L685.6 194.654V196.696L685.7 197.411H675.6L674.1 194.961L675.1 193.735L673.5 193.021L672.7 191.591L671.6 191.897L671.2 189.345L669.1 190.366L668.1 192.612V194.246L665.5 194.45L666.1 191.591L665.5 189.957L664.2 188.936V187.711L664.9 186.282L663.8 184.852L663.4 183.014L662.2 181.687L660.8 180.053L659.9 178.011L658.8 179.645L657.1 180.87L657.4 182.095L655.9 183.014L656.7 184.24L656.2 185.669L655 186.69L655.3 188.528L655 189.855L654 191.081V192.919L651.7 194.45L651.6 191.285L653.1 189.549L652 187.915L653 185.363L653.2 183.014H651.7L651.1 181.483L649.6 179.951L648.1 179.134L647.5 180.666L645.9 180.87L645.6 182.504L645.4 179.032L644.9 176.479L644 175.254L642.6 176.275L643.9 173.314H642.4L641.5 171.578L642.4 170.047L640.4 169.026L639.8 165.35L637.7 167.188L636 168.515L636.5 170.149L634.7 170.762L635 172.804L633.2 173.825L634.7 176.479L632.9 177.603L633.1 179.338V180.972L631.1 180.87L632.1 183.014L630.6 184.24L630.3 187.915L629.1 188.528L630.1 190.366L628.1 191.183L628.7 192.612L627.8 195.471L625.3 194.552L625.7 192.51L624.5 191.183L624.7 189.243L623.1 188.017V185.056L621.4 185.261L620.4 182.402L619.9 180.155L618.1 181.687L615.9 182.606L616.8 183.729L616.6 185.158L614.5 186.077L615.9 186.69L615.3 188.222L613.2 189.039L615.5 191.183L615.1 193.735H613L613.4 194.756V196.799L610.7 197.003L611.2 197.411H599.3L598.8 196.288L600.2 195.675L598.1 194.756L598 193.327L598.8 192.204L596.6 191.285L594.9 189.753L594.4 191.897L593.4 194.859L591.6 194.654V197.411H591.4L590.1 194.961H587.8L588.3 192.919L586.9 192.204L586.4 188.936L585.9 187.915L584 189.039L584.2 190.57H583.6L583.7 190.468L581.7 190.57V188.936L581.8 187.201L580.1 186.077L581.6 183.423L579.7 182.402L580.1 180.36L578.2 179.747L578.7 178.113L577.1 176.786L575 174.948L574.3 178.624L572.3 179.645L573.2 181.176L572.3 182.912H570.9L572.1 185.873L570.7 184.852L569.9 186.077L569.4 188.63L569.1 192.102L568.9 190.468L567.2 190.264L566.6 188.732L565.1 189.549L563.6 191.081L563 192.612H561.5L561.8 194.961L562 195.675L561.8 196.186V197.411H559.5L559.8 196.288L559.6 196.084L559.8 195.369L559.2 193.94L558.3 193.429L558.8 192.612L557.8 192L558.5 190.774L557.4 189.549L557 187.915L555.8 186.894L554.4 185.465L553.6 183.729L552.4 185.158L550.7 186.077L551.1 187.201L549.6 187.915L550.3 189.039L549.8 190.264L548.6 191.081L549 192.714L548.6 193.837L547.7 194.859V196.39L545.8 197.411H545.3L545.2 194.961L546.7 193.633L545.6 192.204L546.6 189.957L546.8 187.915H545.4L544.7 186.69L543.2 185.363L541.7 184.648L541.1 185.975L539.5 186.077L539.3 187.507L539 184.546L538.5 182.402L537.6 181.278L536.3 182.197L537.5 179.747H536L535.2 178.215L536 176.888L534 175.969L533.4 172.906L531.3 174.539L529.7 175.561L530.2 176.99L528.3 177.501L528.7 179.236L526.8 180.155L528.3 182.402L526.6 183.423L526.7 184.75V186.18L524.7 186.077L525.7 187.915L524.2 189.039L524 192.204L522.7 192.714L522.8 192.816L522.5 192.612L522 193.735L521.8 194.859L521.7 194.961L521.8 195.063L521.5 197.411H519.1L519.4 196.084L518.1 194.961L518.4 193.225L516.7 192.306V189.651L515 189.855L514 187.405L513.5 185.567L511.8 186.894L509.5 187.609L510.4 188.63L510.3 189.753L508.2 190.57L509.5 191.081L508.9 192.408L506.8 193.123L509.2 194.961L508.8 197.105H506.7L506.8 197.411H499.1L498.4 196.799L500.1 195.471L497.3 195.267V193.327L497.7 192.204H495.6L495.2 189.651L497.6 187.609L495.5 186.69L494.8 185.158L496.2 184.546L494.1 183.627L494 182.197L494.8 181.074L492.6 180.155L490.9 178.624L490.4 180.87L489.4 183.729L487.6 183.525V186.588L486 187.711L486.2 189.651L485 190.979L485.4 193.021L482.9 193.94L482 191.081L482.6 189.651L480.6 188.834L481.6 187.099L480.4 186.384L480.2 182.708L478.7 181.483L479.7 179.338L477.7 179.441V177.807L477.8 176.173L476 174.948L477.5 172.293L475.7 171.272L476 169.23L474.2 168.617L474.7 166.984L473.1 165.758L470.9 163.818L470.3 167.494L468.3 168.515L469.2 170.047L468.3 171.783H466.8L468.1 174.744L466.7 173.723L465.8 174.948L465.3 177.501L465.1 180.972L464.9 179.338L463.2 179.134L462.6 177.603L461.1 178.42L459.6 179.951L459 181.483H457.5L457.8 183.831L458.8 186.384L457.6 188.017L459.1 189.753L459 192.919L456.7 191.387V189.549L455.8 188.324L455.4 187.099L455.8 185.158L454.5 184.137L454 182.708L454.8 181.483L453.3 180.564L453.7 179.338L451.9 178.113L450.8 176.479L449.9 178.522L448.6 180.155L447.3 181.483L446.9 183.321L445.8 184.75L446.6 186.18V187.405L445.2 188.426L444.6 190.06L445.2 192.919L442.6 192.816V191.081L441.6 188.834L439.5 187.813L439.1 190.366L438 190.06L437.2 191.489L435.6 192.204L436.6 193.429L435.8 194.859L435.6 192.204L436.1 188.834L433.6 186.077L434.1 184.035L432.1 183.423L429.8 179.338L428.1 182.81L428.3 184.75L426.9 186.077L427.5 187.711L424.8 189.753L423.6 188.426L423.7 186.282L422.3 185.669L422.7 184.546H420.2L420.3 182.708L418.5 181.483L418 182.606L417.5 186.384L416.1 187.303V187.405L414.2 186.486L412.9 182.606L410.6 179.338L411.9 177.194L407.3 171.885L405 238V1666H818.7L821 180.87L820.5 181.483Z" fill="#175B7C"/>
<path d="M1230.5 180.613L1229.9 182.144L1228 184.866L1228.7 188.542L1229.7 191.094L1228.5 192.728L1230 194.463L1229.9 197.628L1227.6 196.097V194.259L1226.7 193.034L1226.3 191.707L1226.7 189.869L1225.4 188.848L1224.9 187.419L1225.7 186.194L1224.2 185.275L1224.6 184.05L1222.8 182.824L1221.7 181.191L1220.8 183.233L1219.5 184.866L1218.2 186.194L1217.8 188.031L1216.7 189.461L1217.5 190.89V192.115L1216.1 193.136L1215.5 194.769L1216.1 197.628L1213.5 197.424V195.79L1212.5 193.544L1210.4 192.523L1210 195.076L1208.9 194.769L1208.1 196.199L1206.5 196.913L1207.5 198.139L1206 200.589H1196L1196.1 199.874V197.832L1194.8 197.628L1194.9 195.586L1195.7 194.463L1194.5 193.136L1194.6 190.992L1193.2 190.379L1193.6 189.256H1191.1L1191.2 187.419L1189.4 186.194L1188.9 187.317L1188.4 191.094L1187 192.013L1187.5 194.361H1185.7L1185.4 193.646L1186.8 192.932L1184.6 192.115L1184.5 190.686L1185.4 189.563L1183.1 188.644L1181.4 187.112L1180.9 189.256L1179.9 192.217L1178.2 192.013V194.974L1176.6 196.199L1176.8 198.139L1175.6 199.466L1175.8 200.589H1172.9L1172.6 199.568L1173.2 198.139L1171.2 197.322L1172.2 195.484L1171 194.872L1170.7 191.196L1169.2 189.971L1170.2 187.725L1168.2 187.929V186.296L1168.3 184.56L1166.6 183.437L1168.1 180.783L1166.2 179.762L1166.6 177.72L1164.7 177.107L1165.2 175.474L1163.6 174.147L1161.5 172.309L1160.9 175.984L1158.9 177.005L1159.8 178.537L1158.9 180.272H1157.4L1158.6 183.233L1157.3 182.212L1156.4 183.437L1155.9 185.989L1155.7 189.461L1155.4 187.725L1153.8 187.623L1153.2 186.091L1151.7 186.908L1150.2 188.44L1149.6 189.971H1148.1L1148.3 192.319L1149.3 194.872L1148.2 196.505L1149.7 198.139L1149.6 200.589H1148.5L1147.2 199.874V198.036L1146.3 196.811L1145.9 195.484L1146.3 193.646L1145.1 192.625L1144.6 191.196L1145.3 189.971L1143.8 189.052L1144.2 187.725L1142.5 186.602L1141.3 184.968L1140.5 187.01L1139.1 188.644L1137.9 189.971L1137.5 191.809L1136.4 193.238L1137.1 194.667V195.892L1135.7 196.913L1135.1 198.547L1135.6 200.589H1133.1V199.568L1132.1 197.322L1130 196.301L1129.7 198.853L1128.5 198.547L1127.8 199.976L1126.2 200.589H1114.5L1114.6 199.364L1115.3 198.139L1114.1 196.913L1114.2 194.769L1112.9 194.157L1113.2 192.932H1110.7L1110.9 191.196L1109 189.971L1108.5 191.094L1108 194.872L1107 195.586L1106.5 194.361H1104.2L1104.6 192.013L1103.3 191.094L1102.8 187.317L1102.3 186.194L1100.4 187.419L1100.5 189.256H1098L1098.4 190.379L1097 190.992L1097.2 193.136L1095.9 194.463L1096.7 195.586L1096.8 197.628L1095.6 197.832V199.874L1095.7 200.589H1085.6L1084.1 198.139L1085.1 196.913L1083.5 196.199L1082.7 194.769L1081.6 195.076L1081.2 192.523L1079.1 193.544L1078.1 195.79V197.424L1075.5 197.628L1076.1 194.769L1075.5 193.136L1074.2 192.115V190.89L1074.9 189.461L1073.8 188.031L1073.4 186.194L1072.2 184.866L1070.8 183.233L1069.9 181.191L1068.8 182.824L1067.1 184.05L1067.4 185.275L1065.9 186.194L1066.7 187.419L1066.2 188.848L1065 189.869L1065.3 191.707L1065 193.034L1064 194.259V196.097L1061.7 197.628L1061.6 194.463L1063.1 192.728L1062 191.094L1063 188.542L1063.2 186.194H1061.7L1061.1 184.662L1059.6 183.131L1058.1 182.314L1057.5 183.845L1055.9 184.05L1055.6 185.683L1055.4 182.212L1054.9 179.66L1054 178.434L1052.6 179.455L1053.9 176.495H1052.4L1051.5 174.759L1052.4 173.228L1050.4 172.207L1049.8 168.531L1047.7 170.369L1046 171.696L1046.5 173.33L1044.7 173.942L1045 175.984L1043.2 177.005L1044.7 179.66L1042.9 180.783L1043.1 182.518V184.152L1041.1 184.05L1042.1 186.194L1040.6 187.419L1040.3 191.094L1039.1 191.707L1040.1 193.544L1038.1 194.361L1038.7 195.79L1037.8 198.649L1035.3 197.73L1035.7 195.688L1034.5 194.361L1034.7 192.421L1033.1 191.196V188.235L1031.4 188.44L1030.4 185.581L1029.9 183.335L1028.1 184.866L1025.9 185.785L1026.8 186.908L1026.6 188.338L1024.5 189.256L1025.9 189.869L1025.3 191.4L1023.2 192.217L1025.5 194.361L1025.1 196.913H1023L1023.4 197.934V199.976L1020.7 200.18L1021.2 200.589H1009.3L1008.8 199.466L1010.2 198.853L1008.1 197.934L1008 196.505L1008.8 195.382L1006.6 194.463L1004.9 192.932L1004.4 195.076L1003.4 198.036L1001.6 197.832V200.589H1001.4L1000.1 198.139H997.8L998.3 196.097L996.9 195.382L996.4 192.115L995.9 191.094L994 192.217L994.2 193.748H993.6L993.7 193.646L991.7 193.748V192.115L991.8 190.379L990.1 189.256L991.6 186.602L989.7 185.581L990.1 183.539L988.2 182.927L988.7 181.293L987.1 179.966L985 178.128L984.3 181.804L982.3 182.824L983.2 184.356L982.3 186.091H980.9L982.1 189.052L980.7 188.031L979.9 189.256L979.4 191.809L979.1 195.28L978.9 193.646L977.2 193.442L976.6 191.911L975.1 192.728L973.6 194.259L973 195.79H971.5L971.8 198.139L972 198.853L971.8 199.364V200.589H969.5L969.8 199.466L969.6 199.262L969.8 198.547L969.2 197.118L968.3 196.607L968.8 195.79L967.8 195.178L968.5 193.953L967.4 192.728L967 191.094L965.8 190.073L964.4 188.644L963.6 186.908L962.4 188.338L960.7 189.256L961.1 190.379L959.6 191.094L960.3 192.217L959.8 193.442L958.6 194.259L959 195.892L958.6 197.015L957.7 198.036V199.568L955.8 200.589H955.3L955.2 198.139L956.7 196.811L955.6 195.382L956.6 193.136L956.8 191.094H955.4L954.7 189.869L953.2 188.542L951.7 187.827L951.1 189.154L949.5 189.256L949.3 190.686L949 187.725L948.5 185.581L947.6 184.458L946.3 185.377L947.5 182.927H946L945.2 181.395L946 180.068L944 179.149L943.4 176.086L941.3 177.72L939.7 178.741L940.2 180.17L938.3 180.681L938.7 182.416L936.8 183.335L938.3 185.581L936.6 186.602L936.7 187.929V189.358L934.7 189.256L935.7 191.094L934.2 192.217L934 195.382L932.7 195.892L932.8 195.995L932.5 195.79L932 196.913L931.8 198.036L931.7 198.139L931.8 198.241L931.5 200.589H929.1L929.4 199.262L928.1 198.139L928.4 196.403L926.7 195.484V192.83L925 193.034L924 190.584L923.5 188.746L921.8 190.073L919.5 190.788L920.4 191.809L920.3 192.932L918.2 193.748L919.5 194.259L918.9 195.586L916.8 196.301L919.2 198.139L918.8 200.282H916.7L916.8 200.589H909.1L908.4 199.976L910.1 198.649L907.3 198.445V196.505L907.7 195.382H905.6L905.2 192.83L907.6 190.788L905.5 189.869L904.8 188.338L906.2 187.725L904.1 186.806L904 185.377L904.8 184.254L902.6 183.335L900.9 181.804L900.4 184.05L899.4 186.908L897.6 186.704V189.767L896 190.89L896.2 192.83L895 194.157L895.4 196.199L892.9 197.118L892 194.259L892.6 192.83L890.6 192.013L891.6 190.277L890.4 189.563L890.2 185.887L888.7 184.662L889.7 182.518L887.7 182.62V180.987L887.8 179.353L886 178.128L887.5 175.474L885.7 174.453L886 172.411L884.2 171.798L884.7 170.165L883.1 168.94L880.9 167L880.3 170.675L878.3 171.696L879.2 173.228L878.3 174.963H876.8L878.1 177.924L876.7 176.903L875.8 178.128L875.3 180.681L875.1 184.152L874.9 182.518L873.2 182.314L872.6 180.783L871.1 181.599L869.6 183.131L869 184.662H867.5L867.8 187.01L868.8 189.563L867.6 191.196L869.1 192.932L869 196.097L866.7 194.565V192.728L865.8 191.502L865.4 190.277L865.8 188.338L864.5 187.317L864 185.887L864.8 184.662L863.3 183.743L863.7 182.518L861.9 181.293L860.8 179.66L859.9 181.701L858.6 183.335L857.3 184.662L856.9 186.5L855.8 187.929L856.6 189.358V190.584L855.2 191.605L854.6 193.238L855.2 196.097L852.6 195.995V194.259L851.6 192.013L849.5 190.992L849.1 193.544L848 193.238L847.2 194.667L845.6 195.382L846.6 196.607L845.8 198.036L845.6 195.382L846.1 192.013L843.6 189.256L844.1 187.215L842.1 186.602L839.8 182.518L838.1 185.989L838.3 187.929L836.9 189.256L837.5 190.89L834.8 192.932L833.6 191.605L833.7 189.461L832.3 188.848L832.7 187.725H830.2L830.3 185.887L828.5 184.662L828 185.785L827.5 189.563L826.1 190.482V190.584L824.2 189.665L822.9 185.785L820.6 182.518L821.9 180.374L817.3 175.065L813.5 183.335V203.549V1666H1232V180L1230.5 180.613Z" fill="#175B7C"/>
<rect x="406" y="540" width="72" height="18" fill="#145A7B"/>
<path d="M1339.1 138.846L1393.2 114.939L1405 119.673L1417.8 102.039L1423.7 96.8311L1433.1 102.039L1445.4 113.164L1454.3 110.796L1477.6 127.721L1496.2 125.472L1526.3 142.988L1442.7 186.186L1339.1 138.846Z" fill="#B8CDDF"/>
<path d="M1646 189.145L1232 187.5V165.25V110.098L1264.2 121.804L1274.4 119.082L1281.5 121.804L1304.8 113.046L1321 128.668L1326.1 125.118L1340.8 137.663L1355.5 134.704L1376.3 150.918L1395.6 146.657L1407.7 158.137L1412.8 157.546L1433.6 173.641L1451.8 167.132L1458.4 155.06L1468.3 148.551L1486.8 149.143L1497 141.923L1521.8 134.112L1527.9 127.485L1533 121.804L1544.1 126.893L1559.3 121.804L1575 130.443L1589.2 125.118H1617.1L1626.3 134.112L1639 122L1646 121.685" fill="url(#paint7_linear_1558_20817)"/>
<path d="M1646 217.55L1232 218V196.484V131.367L1268.8 140.149L1290.3 157.546H1310.2L1334.6 152.931L1360.7 160.978L1388.5 172.34L1400.9 177.429L1407.2 187.844L1415.1 183.11L1432.7 188.436L1455.9 177.429L1468.3 174.352L1485.4 158.966L1524 173.76H1533.6L1554.6 163.937L1567.7 154.232L1586.8 163.937H1604L1612.5 154.232L1621.5 160.268L1646 137.427" fill="url(#paint8_linear_1558_20817)"/>
<path d="M1645.5 181.506L1644.9 183.04H1643.4L1643.7 185.391L1644.7 187.947L1643.5 189.583L1645 191.321L1645.99 188.5L1643.69 186.966V185.126L1642.79 183.899L1642.39 182.57L1642.79 180.73L1641.49 179.707L1640.99 178.276L1641.79 177.049L1640.29 176.129L1640.99 175.72L1638.5 173L1638 170.5L1636.89 174.084L1635.59 175.72L1634.29 177.049L1633.89 178.889L1632.79 180.321L1633.59 181.752V182.979L1632.19 184.001L1631.59 185.637L1632.19 188.5L1628.5 194.286V192.651L1627.5 190.401L1625.4 189.379L1625 191.935L1623.9 191.628L1623.1 193.06L1621.5 193.775L1622.5 195.002L1621 197.456H1611L1611.1 196.74V194.695L1609.8 194.491L1609.9 192.446L1610.7 191.321L1609.5 189.992L1609.6 187.845L1608.2 187.232L1608.6 186.107H1606.1L1606.2 184.267L1604.4 183.04L1603.9 184.164L1603.4 187.947L1602 188.868L1602.5 191.219H1600.7L1600.4 190.503L1601.8 189.788L1599.6 188.97L1599.5 187.538L1600.4 186.414L1598.1 185.494L1596.4 183.96L1595.9 186.107L1594.9 189.072L1593.2 188.868V191.833L1591.6 193.06L1591.8 195.002L1590.6 196.331L1590.8 197.456H1587.9L1587.6 196.433L1588.2 195.002L1586.2 194.184L1587.2 192.344L1586 191.73L1585.7 188.05L1584.2 186.823L1585.2 184.573L1583.2 184.778V183.142L1583.3 181.404L1581.6 180.279L1583.1 177.621L1581.2 176.599L1581.6 174.554L1579.7 173.94L1580.2 172.304L1578.6 170.975L1576.5 169.135L1575.9 172.816L1573.9 173.838L1574.8 175.372L1573.9 177.11H1572.4L1573.6 180.075L1572.3 179.052L1571.4 180.279L1570.9 182.835L1570.7 186.312L1570.4 184.573L1568.8 184.471L1568.2 182.938L1566.7 183.756L1565.2 185.289L1564.6 186.823H1563.1L1563.3 189.174L1564.3 191.73L1563.2 193.366L1564.7 195.002L1564.6 197.456H1563.5L1562.2 196.74V194.9L1561.3 193.673L1560.9 192.344L1561.3 190.503L1560.1 189.481L1559.6 188.05L1560.3 186.823L1558.8 185.903L1559.2 184.573L1557.5 183.449L1556.3 181.813L1555.5 183.858L1554.1 185.494L1552.9 186.823L1552.5 188.663L1551.4 190.094L1552.1 191.526V192.753L1550.7 193.775L1550.1 195.411L1550.6 197.456H1548.1V196.433L1547.1 194.184L1545 193.162L1544.7 195.718L1543.5 195.411L1542.8 196.842L1541.2 197.456H1529.5L1529.6 196.229L1530.3 195.002L1529.1 193.775L1529.2 191.628L1527.9 191.015L1528.2 189.788H1525.7L1525.9 188.05L1524 186.823L1523.5 187.947L1523 191.73L1522 192.446L1521.5 191.219H1519.2L1519.6 188.868L1518.3 187.947L1517.8 184.164L1517.3 183.04L1515.4 184.267L1515.5 186.107H1513L1513.4 187.232L1512 187.845L1512.2 189.992L1510.9 191.321L1511.7 192.446L1511.8 194.491L1510.6 194.695V196.74L1510.7 197.456H1500.6L1499.1 195.002L1500.1 193.775L1498.5 193.06L1497.7 191.628L1496.6 191.935L1496.2 189.379L1494.1 190.401L1493.1 192.651V194.286L1490.5 194.491L1491.1 191.628L1490.5 189.992L1489.2 188.97V187.743L1489.9 186.312L1488.8 184.88L1488.4 183.04L1487.2 181.711L1485.8 180.075L1484.9 178.03L1483.8 179.666L1482.1 180.893L1482.4 182.12L1480.9 183.04L1481.7 184.267L1481.2 185.698L1480 186.721L1480.3 188.561L1480 189.89L1479 191.117V192.957L1476.7 194.491L1476.6 191.321L1478.1 189.583L1477 187.947L1478 185.391L1478.2 183.04H1476.7L1476.1 181.506L1474.6 179.973L1473.1 179.155L1472.5 180.688L1470.9 180.893L1470.6 182.529L1470.4 179.052L1469.9 176.496L1469 175.269L1467.6 176.292L1468.9 173.327H1467.4L1466.5 171.589L1467.4 170.055L1465.4 169.033L1464.8 165.352L1462.7 167.192L1461 168.521L1461.5 170.157L1459.7 170.771L1460 172.816L1458.2 173.838L1459.7 176.496L1457.9 177.621L1458.1 179.359V180.995L1456.1 180.893L1457.1 183.04L1455.6 184.267L1455.3 187.947L1454.1 188.561L1455.1 190.401L1453.1 191.219L1453.7 192.651L1452.8 195.513L1450.3 194.593L1450.7 192.548L1449.5 191.219L1449.7 189.277L1448.1 188.05V185.085L1446.4 185.289L1445.4 182.426L1444.9 180.177L1443.1 181.711L1440.9 182.631L1441.8 183.756L1441.6 185.187L1439.5 186.107L1440.9 186.721L1440.3 188.254L1438.2 189.072L1440.5 191.219L1440.1 193.775H1438L1438.4 194.798V196.842L1435.7 197.047L1436.2 197.456H1424.3L1423.8 196.331L1425.2 195.718L1423.1 194.798L1423 193.366L1423.8 192.242L1421.6 191.321L1419.9 189.788L1419.4 191.935L1418.4 194.9L1416.6 194.695V197.456H1416.4L1415.1 195.002H1412.8L1413.3 192.957L1411.9 192.242L1411.4 188.97L1410.9 187.947L1409 189.072L1409.2 190.606H1408.6L1408.7 190.503L1406.7 190.606V188.97L1406.8 187.232L1405.1 186.107L1406.6 183.449L1404.7 182.426L1405.1 180.382L1403.2 179.768L1403.7 178.132L1402.1 176.803L1400 174.963L1399.3 178.643L1397.3 179.666L1398.2 181.199L1397.3 182.938H1395.9L1397.1 185.903L1395.7 184.88L1394.9 186.107L1394.4 188.663L1394.1 192.139L1393.9 190.503L1392.2 190.299L1391.6 188.765L1390.1 189.583L1388.6 191.117L1388 192.651H1386.5L1386.8 195.002L1387 195.718L1386.8 196.229V197.456H1384.5L1384.8 196.331L1384.6 196.127L1384.8 195.411L1384.2 193.98L1383.3 193.468L1383.8 192.651L1382.8 192.037L1383.5 190.81L1382.4 189.583L1382 187.947L1380.8 186.925L1379.4 185.494L1378.6 183.756L1377.4 185.187L1375.7 186.107L1376.1 187.232L1374.6 187.947L1375.3 189.072L1374.8 190.299L1373.6 191.117L1374 192.753L1373.6 193.877L1372.7 194.9V196.433L1370.8 197.456H1370.3L1370.2 195.002L1371.7 193.673L1370.6 192.242L1371.6 189.992L1371.8 187.947H1370.4L1369.7 186.721L1368.2 185.391L1366.7 184.676L1366.1 186.005L1364.5 186.107L1364.3 187.538L1364 184.573L1363.5 182.426L1362.6 181.302L1361.3 182.222L1362.5 179.768H1361L1360.2 178.234L1361 176.905L1359 175.985L1358.4 172.918L1356.3 174.554L1354.7 175.576L1355.2 177.008L1353.3 177.519L1353.7 179.257L1351.8 180.177L1353.3 182.426L1351.6 183.449L1351.7 184.778V186.209L1349.7 186.107L1350.7 187.947L1349.2 189.072L1349 192.242L1347.7 192.753L1347.8 192.855L1347.5 192.651L1347 193.775L1346.8 194.9L1346.7 195.002L1346.8 195.104L1346.5 197.456H1344.1L1344.4 196.127L1343.1 195.002L1343.4 193.264L1341.7 192.344V189.686L1340 189.89L1339 187.436L1338.5 185.596L1336.8 186.925L1334.5 187.641L1335.4 188.663L1335.3 189.788L1333.2 190.606L1334.5 191.117L1333.9 192.446L1331.8 193.162L1334.2 195.002L1333.8 197.149H1331.7L1331.8 197.456H1324.1L1323.4 196.842L1325.1 195.513L1322.3 195.309V193.366L1322.7 192.242H1320.6L1320.2 189.686L1322.6 187.641L1320.5 186.721L1319.8 185.187L1321.2 184.573L1319.1 183.653L1319 182.222L1319.8 181.097L1317.6 180.177L1315.9 178.643L1315.4 180.893L1314.4 183.756L1312.6 183.551V186.618L1311 187.743L1311.2 189.686L1310 191.015L1310.4 193.06L1307.9 193.98L1307 191.117L1307.6 189.686L1305.6 188.868L1306.6 187.129L1305.4 186.414L1305.2 182.733L1303.7 181.506L1304.7 179.359L1302.7 179.461V177.825L1302.8 176.19L1301 174.963L1302.5 172.304L1300.7 171.282L1301 169.237L1299.2 168.624L1299.7 166.988L1298.1 165.761L1295.9 163.818L1295.3 167.499L1293.3 168.521L1294.2 170.055L1293.3 171.793H1291.8L1293.1 174.758L1291.7 173.736L1290.8 174.963L1290.3 177.519L1290.1 180.995L1289.9 179.359L1288.2 179.155L1287.6 177.621L1286.1 178.439L1284.6 179.973L1284 181.506H1282.5L1282.8 183.858L1283.8 186.414L1282.6 188.05L1284.1 189.788L1284 192.957L1281.7 191.424V189.583L1280.8 188.356L1280.4 187.129L1280.8 185.187L1279.5 184.164L1279 182.733L1279.8 181.506L1278.3 180.586L1278.7 179.359L1276.9 178.132L1275.8 176.496L1274.9 178.541L1273.6 180.177L1272.3 181.506L1271.9 183.347L1270.8 184.778L1271.6 186.209V187.436L1270.2 188.459L1269.6 190.094L1270.2 192.957L1267.6 192.855V191.117L1266.6 188.868L1264.5 187.845L1264.1 190.401L1263 190.094L1262.2 191.526L1260.6 192.242L1261.6 193.468L1260.8 194.9L1260.6 192.242L1261.1 188.868L1258.6 186.107L1259.1 184.062L1257.1 183.449L1254.8 179.359L1253.1 182.835L1253.3 184.778L1251.9 186.107L1252.5 187.743L1249.8 194.5L1248.6 193.171L1248.7 191.024L1247.3 190.41L1247.7 189.286H1245.2L1245.3 187.445L1243.5 186.218L1243 187.343L1242.5 194.193L1241.1 192.046V195.216L1239.2 194.296L1237.9 190.41L1235.6 187.139L1236.9 184.992L1232 179.675V200.421V1668H1643.7L1646 180.893L1645.5 181.506Z" fill="#175B7C"/>
<path d="M0 304H1366V2304H0L0 304Z" fill="url(#paint9_linear_1558_20817)"/>
<path d="M348.37 40.09C348.25 40.18 348.11 40.27 347.94 40.37C347.92 40.17 347.87 39.98 347.8 39.8C346.66 37.24 345.2 35.96 343.4 35.96C341.22 35.96 339.14 36.67 337.15 38.09C335.07 39.51 334.02 41.12 334.02 42.92C334.02 43.77 334.16 44.96 334.45 46.47C334.45 47.13 334.17 47.75 333.6 48.32C333.03 48.89 332.42 49.17 331.75 49.17C330.8 49.17 330.14 48.98 329.76 48.6C329.38 48.13 328.77 47.89 327.91 47.89C327.34 47.89 326.3 48.55 324.78 49.88C323.17 51.21 322.22 51.87 321.94 51.87C321.09 51.11 319.86 50.73 318.25 50.73C316.73 50.73 315.31 51.2 313.99 52.15C312.66 53 312 53.9 312 54.85V55.28C361.8 53.98 403.9 53.46 438.31 53.72C438.4 53.37 438.45 52.95 438.45 52.44C438.45 49.6 436.98 48.18 434.05 48.18C432.16 48.27 430.83 48.61 430.07 49.17H429.08C429.27 48.6 429.32 48.13 429.22 47.75C429.03 46.99 428.23 46.61 426.8 46.61C425.37 46.61 424.29 46.8 423.53 47.18V45.47C423.62 44.71 423.34 44.33 422.68 44.33C422.49 44.33 422.16 44.42 421.69 44.61C421.6 44.63 421.5 44.63 421.41 44.61C421.5 44.39 421.55 43.91 421.55 43.19C421.55 38.83 419.56 36.65 415.58 36.65C410.65 36.65 407.91 38.31 407.34 41.62C406.77 44.84 406.16 46.45 405.49 46.45C404.92 46.45 404.26 46.31 403.5 46.02C402.74 45.64 402.32 45.45 402.22 45.45C401.94 45.45 401.23 45.78 400.09 46.44C398.86 47.01 398.05 47.29 397.67 47.29C397.01 47.29 396.44 46.72 395.96 45.58C395.58 44.35 394.82 43.73 393.69 43.73C392.65 43.73 391.85 43.87 391.27 44.16C391.3 44.27 391.3 44.36 391.27 44.44L390.84 44.72C390.96 44.51 391.1 44.32 391.27 44.15C392.6 41.11 393.26 39.45 393.26 39.18C393.26 37.76 393.17 36.81 392.98 36.34C392.41 35.01 391.09 34.35 389 34.35H388.57C388.47 31.17 387.57 28.28 385.87 25.68C383.41 21.89 379.71 20 374.79 20C370.15 20 366.17 21.33 362.85 23.98C359.35 26.73 357.59 30.28 357.59 34.64C357.59 36.44 357.78 38.33 358.16 40.32H358.02C357.74 39.75 357.45 39.28 357.17 38.9C356.51 38.24 355.65 37.91 354.61 37.91C352.43 37.91 350.35 38.62 348.36 40.04M476.66 48.71C476.66 46.34 476.57 44.87 476.38 44.31C475.72 42.7 474.11 41.89 471.55 41.89C467.38 41.89 464.92 42.79 464.16 44.59C463.78 45.54 463.83 46.77 464.3 48.28H462.88C461.65 47.81 460.75 47.57 460.18 47.57C459.52 47.57 458.9 48.04 458.33 48.99C457.86 49.94 457.38 50.41 456.91 50.41C456.25 50.41 455.54 50.03 454.78 49.27C454.02 48.42 453.55 47.99 453.36 47.99C453.08 47.99 452.46 48.18 451.51 48.56C450.47 48.94 449.71 49.37 449.24 49.84C448.29 50.5 447.82 51.26 447.82 52.11C447.78 52.82 447.73 53.34 447.68 53.67C451.85 53.78 461.32 53.69 476.1 53.39C476.48 52.26 476.67 50.69 476.67 48.7M489.03 47.14C487.89 47.14 486.8 47.57 485.76 48.42C484.38 49.62 483.71 51.23 483.77 53.25C488.23 53.13 493.06 52.99 498.26 52.82C498.54 52.02 498.69 51.45 498.69 51.11C498.69 49.4 497.79 48.55 495.99 48.55C493.43 49.02 492.11 49.26 492.01 49.26C491.35 49.26 490.78 48.93 490.3 48.27C489.92 47.51 489.49 47.13 489.02 47.13L489.03 47.14Z" fill="#4D7898"/>
<path fill-rule="evenodd" clip-rule="evenodd" d="M285.485 23.1375C283.391 23.162 281.266 23.5874 279.219 24.4572C270.814 28.0281 266.895 37.7367 270.466 46.142C274.037 54.5473 283.745 58.4664 292.151 54.8955C294.198 54.0257 295.979 52.7917 297.451 51.3012C290.946 51.3772 284.733 47.5861 282.032 41.2281C279.331 34.8701 280.915 27.7664 285.485 23.1375Z" fill="#E3EDF5"/>
<circle cx="223" cy="33" r="1" fill="#E3EDF5"/>
<circle cx="272.5" cy="86.5" r="1.5" fill="#E3EDF5"/>
<circle cx="32.5" cy="17.5" r="1.5" fill="#E3EDF5"/>
<circle cx="119.5" cy="112.5" r="1.5" fill="#E3EDF5"/>
<circle cx="393.5" cy="14.5" r="1.5" fill="#E3EDF5"/>
<circle cx="505.5" cy="124.5" r="1.5" fill="#E3EDF5"/>
<circle cx="621.5" cy="11.5" r="1.5" fill="#E3EDF5"/>
<circle cx="474" cy="11" r="1" fill="#E3EDF5"/>
<circle cx="11" cy="99" r="1" fill="#E3EDF5"/>
<circle cx="833" cy="33" r="1" fill="#E3EDF5"/>
<circle cx="882.5" cy="86.5" r="1.5" fill="#E3EDF5"/>
<circle cx="642.5" cy="17.5" r="1.5" fill="#E3EDF5"/>
<circle cx="729.5" cy="112.5" r="1.5" fill="#E3EDF5"/>
<circle cx="1003.5" cy="14.5" r="1.5" fill="#E3EDF5"/>
<circle cx="1115.5" cy="124.5" r="1.5" fill="#E3EDF5"/>
<circle cx="1231.5" cy="11.5" r="1.5" fill="#E3EDF5"/>
<circle cx="1084" cy="11" r="1" fill="#E3EDF5"/>
<circle cx="621" cy="99" r="1" fill="#E3EDF5"/>
<circle cx="1081" cy="33" r="1" fill="#E3EDF5"/>
<circle cx="1130.5" cy="86.5" r="1.5" fill="#E3EDF5"/>
<circle cx="890.5" cy="17.5" r="1.5" fill="#E3EDF5"/>
<circle cx="977.5" cy="112.5" r="1.5" fill="#E3EDF5"/>
<circle cx="1251.5" cy="14.5" r="1.5" fill="#E3EDF5"/>
<circle cx="1363.5" cy="124.5" r="1.5" fill="#E3EDF5"/>
<circle cx="1332" cy="11" r="1" fill="#E3EDF5"/>
<circle cx="869" cy="99" r="1" fill="#E3EDF5"/>
</g>
<defs>
<linearGradient id="paint0_linear_1558_20817" x1="280" y1="160.759" x2="280" y2="-74.5455" gradientUnits="userSpaceOnUse">
<stop offset="0.1875" stop-color="#114C68"/>
<stop offset="0.661458" stop-color="#030C10"/>
</linearGradient>
<linearGradient id="paint1_linear_1558_20817" x1="207.11" y1="179.067" x2="207.153" y2="134.217" gradientUnits="userSpaceOnUse">
<stop stop-color="#ABC7E0"/>
<stop offset="1" stop-color="#8AB2D3"/>
</linearGradient>
<linearGradient id="paint2_linear_1558_20817" x1="207.036" y1="215.782" x2="207.182" y2="168.35" gradientUnits="userSpaceOnUse">
<stop offset="0.1417" stop-color="#80A5C1"/>
<stop offset="1" stop-color="#5281A4"/>
</linearGradient>
<linearGradient id="paint3_linear_1558_20817" x1="613.813" y1="190.98" x2="613.856" y2="146.13" gradientUnits="userSpaceOnUse">
<stop stop-color="#ABC7E0"/>
<stop offset="1" stop-color="#8AB2D3"/>
</linearGradient>
<linearGradient id="paint4_linear_1558_20817" x1="613.74" y1="228.392" x2="613.885" y2="180.959" gradientUnits="userSpaceOnUse">
<stop offset="0.1417" stop-color="#80A5C1"/>
<stop offset="1" stop-color="#5281A4"/>
</linearGradient>
<linearGradient id="paint5_linear_1558_20817" x1="1024.89" y1="181.067" x2="1024.85" y2="136.217" gradientUnits="userSpaceOnUse">
<stop stop-color="#ABC7E0"/>
<stop offset="1" stop-color="#8AB2D3"/>
</linearGradient>
<linearGradient id="paint6_linear_1558_20817" x1="1024.96" y1="217.782" x2="1024.82" y2="170.35" gradientUnits="userSpaceOnUse">
<stop offset="0.1417" stop-color="#80A5C1"/>
<stop offset="1" stop-color="#5281A4"/>
</linearGradient>
<linearGradient id="paint7_linear_1558_20817" x1="1439.11" y1="181.067" x2="1439.15" y2="136.217" gradientUnits="userSpaceOnUse">
<stop stop-color="#ABC7E0"/>
<stop offset="1" stop-color="#8AB2D3"/>
</linearGradient>
<linearGradient id="paint8_linear_1558_20817" x1="1439.04" y1="217.782" x2="1439.18" y2="170.35" gradientUnits="userSpaceOnUse">
<stop offset="0.1417" stop-color="#80A5C1"/>
<stop offset="1" stop-color="#5281A4"/>
</linearGradient>
<linearGradient id="paint9_linear_1558_20817" x1="660.202" y1="304" x2="655.867" y2="946.306" gradientUnits="userSpaceOnUse">
<stop offset="0.4375" stop-color="#145A75"/>
<stop offset="1" stop-color="#F2F2F2"/>
</linearGradient>
<clipPath id="clip0_1558_20817">
<rect width="1366" height="984" fill="white"/>
</clipPath>
</defs>
</svg>
