<svg width="414" height="254" viewBox="0 0 414 254" fill="none" xmlns="http://www.w3.org/2000/svg">
    <g clip-path="url(#mzd45yd4sa)">
        <path d="M414.2.2H.3v149.499h413.9V.199z" fill="url(#98lh21g0zb)"/>
        <path d="m107.1 124.199 54.1-20.2 11.8 4 12.8-14.9 5.9-4.4 9.4 4.4 12.3 9.4 8.9-2 23.3 14.3 18.6-1.9 30.1 14.8-83.6 36.5-103.6-40z" fill="#D7E5F1"/>
        <path d="m414 166.698-413.7-1.4v-65.4l31.9 9.9 10.2-2.3 7.1 2.3 23.3-7.4 16.2 13.2 5.1-3 14.7 10.6 14.7-2.5 20.8 13.7 19.3-3.6 12.1 9.7 5.1-.5 20.8 13.6 18.2-5.5 6.6-10.2 9.9-5.5 18.5.5 10.2-6.1 24.8-6.6 6.1-5.6 5.1-4.8 11.1 4.3 15.2-4.3 15.7 7.3 14.2-4.5h27.9l9.2 7.6 13.6-10.4 6.1-.1" fill="url(#vqd2862bzc)"/>
        <path d="m414 190.698-413.7.4v-73.2l36.5 7.4 21.5 14.7h19.9l24.4-3.9 26.1 6.8 27.8 9.6 12.4 4.3 6.3 8.8 7.9-4 17.6 4.5 23.2-9.3 12.4-2.6 17.1-13 38.6 12.5h9.6l21-8.3 13.1-8.2 19.1 8.2H372l8.5-8.2 9 5.1 24.5-19.3" fill="url(#bmeszr7ygd)"/>
        <path fill-rule="evenodd" clip-rule="evenodd" d="M393.9 60.9c-.2 0-.4-.1-.6-.1-.4-.2-1.1-.2-1.9-.1-1.9 0-3.7.4-5.2 1.4-.8.5-2 1.5-2.8 2.1-.2.2-.5.4-.7.5l-.8.5c-.1.1-.2.1-.3.2-.1-.9-1.6-2.2-2.2-3.2-.1-.2-1.1-2.6-1.2-2.8-.1-.2-.2-.5-.3-.8-.3-.5-1.2-1.4-1.7-1.6.2.2.7.5.8.8 2.2 2.4-.1 4.6 1.2 6l.5.7c.5.7.2 1.2.1 1.5.2.2-.2.5-.5.7-.5 0-.8-.2-1.1-.4-.5-.5-.8-1.1-1.6-1.4-.6-.2-2-.1-2.4.2v.1H372.9h.2c-.9.2-2 0-2.1.5.4-.1 1.4 0 2.2.2.2.2.5.3 1 .4.2 0 1 .2 1.2.3.3.2.9.8 1.6 1.2.4.2.8.3 1.1.3.2.2 2.1 1.2 2.4 1.3 1.9.6 3 .4 4.8.1 1.2-.2 2.9-.2 4.2-.2.8.2 1.7.4 2.5.5-.8-.2-1.7-.5-2.5-.7-.6-.2-1.8-.6-2.3-.8-.7-.3-1.5-.6-2.3-.9-.2-.1-.4-.2-.5-.2 1-.1 2.1-.2 2.9-.5.6-.3 1-.7 1.5-1.4 2.8-4.1 4.2-3.5 4.9-4.1h.2v-.3zm-7.6 1.9-.2.2c.1-.1.1-.2.2-.2zM352 72.2c0-.2.2-.3.4-.4l.1-.1c.1-.1.2-.1.3-.1l.1-.1-.1.1.1-.1.4-.4c.4-.5.7-.5 1.4-.4.7.1.8.2 1.5.1.6-.1 1.3-.1 1.8-.2 0-.2-.1-.5-.2-.7-.4-.9-1.5-1.8-1.9-2.3-.8-1.1-1.1-3.9-.8-4.1.2-.1.3.1.4.2.1.1.1.1.1.2.1.1.1.1.1.2.7-.5.8.7 1.3.6.3-.1.4 0 .5.1.2.2.2.4.4.6.1.1.2.2.4.2.2.1.3.1.3.1.1.1.2.3.2.5.2.6.3.4.5.5.2.2 0 .5.3.8.1.1.2.2.3.2.1.1.2.2.2.7l.3.2c.5-.2 3.5-2.6 4-3.3.3-.5.9-1.6 1.2-2.2.1-.2.1-.4.3-.4.1.2.1.4.1.7l.3-.2c.1.3.1.6 0 .9l.1.1c-.1.1.1.1 0 0 0 0 .1 0 .2.1v.4c.1 0 0-.1.2 0l-.2.4c-.1.3.3-.2-.1.7l.1.1c.1.1.1-.1.1.2 0 .2-.3.7-.6.8.1.1.1.1.3.1 0 .4-.3.3-.2.5 0 .3-.2.2-.4.7l-.1.1-.1.1c-.1.1-.2.1-.3.1.2.2.1.2-.1.3-.1.1-.1 0-.2 0l.2.2-.6.1.4-.1c-.7 0-.5-.1-.6.2-.1.2-.2.2-.5.4l-.7.4c-.3.2-.3.4-.5.5-.2.1-.4.2-.4.7 1.3.4 1.7 1 2.6 1.6.2.2.5.3.8.5l.1.1.1.1c-.3.1-.3-.1-.4 0-.2.1 0 .1-.2.1-.1 0-.2-.1-.3-.1-.2 0-.1.2-.5.1-.5-.2-.1.2-.5.1l-.1-.1-.3-.1-.2.2-.1.1-.1.1c-.3-.1-.3.2-.5.1l-.1-.1c0 .2.1.2-.2.2-.2 0-.1 0-.3-.2l-.7.1s-.1-.1 0 0H361.1c-2.2 0-1.4-.1-.3-.1-.7-.1-1.5-.2-2.2-.3 0 0-.1 0-.2-.1-.4-.1-.8-.3-1-.4-.4-.3-.8-.8-1.2-1-1-.5-1.3-.2-2.6-.2-.3-.1-.6.1-1 .1-.3 0-.4.1-.6.2zM372.8 54.998c-.4 0-.8-.2-1.1-.3-.6-.3-1.2-.7-1.6-1.1-.4-.3-.9-.8-1.5-1.2.5.1 1.2.3 1.7.6.4-.4.4-.1.4-.8 0-.4 0-.7-.2-1.1-.1-.2-.3-.9-.4-1 0 0 0-.1-.1 0-.2-.3-.3-.7-.5-1-.1-.3-.3-.6-.4-.8v-.1c-.3-.3-.5-.6-.8-.8 0-.2.1-.3 0-.6-.2.1-.2.2-.4.4-.1 0-.2-.1-.3-.1 0-.4-.1-.8-.4-.9l-.1.8c-.1 0-.2-.1-.3-.1-.1-.4-.2-.8-.5-1v.8c-.2-.2-.5-.4-.7-.8h-.2v.4c0 .5.2 1.3.2 1.7v-.1h-.2c-.1.8-.1.9.1 1.6.2.6.1 1.2-.1 1.7h.2c0 .1 0 .2-.1.2s-.1 0-.1.1c-.5.3-.5.2-1.2.3-1.1.1-1.6.3-2.6-.1-.7-.2-1.3-.9-2.2-.7-.5.1-.6.3-1.1.4h-.4.2c-.5.2-1.1 0-1.2.6h.5c.2 0 .4.1.6.1.2 0 .3.1.5.2h.1c.4.1.6.2.6.2h.9c.1 0 .4 0 .5.1.7.3 1.2.6 1.5.8.1.1.2.3.4.6 0 .4-.2.8-.7 1.1-.8.5-2 1.1-2 2.1v.1c.3-.2.3-.2.5-.5-.3 1.2-1.2 2-2.2 2.6-.7.4-.7.1-1.4 0 .2 1 1.5.3 2.1 0-.2.4-.2.4-.5.6l-.6.3h-.1l-.2.1c.8.1 1.5-.2 1.8-.7 0 .2-.2.5-.4.6l-.2.2c-.2.2-.1 0-.2.3.6 0 .8-.3 1.1-.5-.1.3-.3.8-.2.9.4.2 1-.7 1.1-.9l-.1.6c.6 0 .9-.5 1-.8v.1l.1.4c.7-.2.8-.8 1.2-1.4.5.1.9.2.8-.4.8 0 .5.1.8-.4 1 0 .3-.2 1-.4s.2-.4.7-.5c.1 0 .3 0 .5-.1v-.4c.6 0 .6.1.8-.4.2-.6-.6-1.2-1-1.5.7.3.8.6 1.3.9 1.6.1 4.6-.6 5.3-1 .3 0 .3.1 0 0zm-7.3-7.3s.1 0 0 0c.1 0 .1 0 0 0 .1 0 .1 0 0 0 .1 0 .1 0 0 0 .1 0 .1 0 0 0 .1.1.1.1 0 0 0 .1.1.1 0 0 0 0-.1 0 0 0-.1 0-.1 0 0 0-.1 0-.1 0 0 0-.1 0-.1 0 0 0-.1 0-.1 0 0 0z" fill="#5281A4"/>
        <path d="m413.5 162.599-.6 1.5h-1.5l.3 2.3 1 2.5-1.2 1.6 1.5 1.7-.1 3.1-2.3-1.5v-1.8l-.9-1.2-.4-1.3.4-1.8-1.3-1-.5-1.4.8-1.2-1.5-.9.4-1.2-1.8-1.2-1.1-1.6-.9 2-1.3 1.6-1.3 1.3-.4 1.8-1.1 1.4.8 1.4v1.2l-1.4 1-.6 1.6.6 2.8-2.6-.2v-1.6l-1-2.2-2.1-1-.4 2.5-1.1-.3-.8 1.4-1.6.7 1 1.2-1.5 2.4h-10l.1-.7v-2l-1.3-.2.1-2 .8-1.1-1.2-1.3.1-2.1-1.4-.6.4-1.1h-2.5l.1-1.8-1.8-1.2-.5 1.1-.5 3.7-1.4.9.5 2.3h-1.8l-.3-.7 1.4-.7-2.2-.8-.1-1.4.9-1.1-2.3-.9-1.7-1.5-.5 2.1-1 2.9-1.7-.2v2.9l-1.6 1.2.2 1.9-1.2 1.3.2 1.1h-2.9l-.3-1 .6-1.4-2-.8 1-1.8-1.2-.6-.3-3.6-1.5-1.2 1-2.2-2 .2v-1.6l.1-1.7-1.7-1.1 1.5-2.6-1.9-1 .4-2-1.9-.6.5-1.6-1.6-1.3-2.1-1.8-.6 3.6-2 1 .9 1.5-.9 1.7h-1.5l1.2 2.9-1.3-1-.9 1.2-.5 2.5-.2 3.4-.3-1.7-1.6-.1-.6-1.5-1.5.8-1.5 1.5-.6 1.5h-1.5l.2 2.3 1 2.5-1.1 1.6 1.5 1.6-.1 2.4h-1.1l-1.3-.7v-1.8l-.9-1.2-.4-1.3.4-1.8-1.2-1-.5-1.4.7-1.2-1.5-.9.4-1.3-1.7-1.1-1.2-1.6-.8 2-1.4 1.6-1.2 1.3-.4 1.8-1.1 1.4.7 1.4v1.2l-1.4 1-.6 1.6.5 2h-2.5v-1l-1-2.2-2.1-1-.3 2.5-1.2-.3-.7 1.4-1.6.6h-11.7l.1-1.2.7-1.2-1.2-1.2.1-2.1-1.3-.6.3-1.2h-2.5l.2-1.7-1.9-1.2-.5 1.1-.5 3.7-1 .7-.5-1.2h-2.3l.4-2.3-1.3-.9-.5-3.7-.5-1.1-1.9 1.2.1 1.8H281l.4 1.1-1.4.6.2 2.1-1.3 1.3.8 1.1.1 2-1.2.2v2l.1.7h-10.1l-1.5-2.4 1-1.2-1.6-.7-.8-1.4-1.1.3-.4-2.5-2.1 1-1 2.2v1.6l-2.6.2.6-2.8-.6-1.6-1.3-1v-1.2l.7-1.4-1.1-1.4-.4-1.8-1.2-1.3-1.4-1.6-.9-2-1.1 1.6-1.7 1.2.3 1.2-1.5.9.8 1.2-.5 1.4-1.2 1 .3 1.8-.3 1.3-1 1.2v1.8l-2.3 1.5-.1-3.1 1.5-1.7-1.1-1.6 1-2.5.2-2.3h-1.5l-.6-1.5-1.5-1.5-1.5-.8-.6 1.5-1.6.2-.3 1.6-.2-3.4-.5-2.5-.9-1.2-1.4 1 1.3-2.9h-1.5l-.9-1.7.9-1.5-2-1-.6-3.6-2.1 1.8-1.7 1.3.5 1.6-1.8.6.3 2-1.8 1 1.5 2.6-1.8 1.1.2 1.7v1.6l-2-.1 1 2.1-1.5 1.2-.3 3.6-1.2.6 1 1.8-2 .8.6 1.4-.9 2.8-2.5-.9.4-2-1.2-1.3.2-1.9-1.6-1.2v-2.9l-1.7.2-1-2.8-.5-2.2-1.8 1.5-2.2.9.9 1.1-.2 1.4-2.1.9 1.4.6-.6 1.5-2.1.8 2.3 2.1-.4 2.5H206l.4 1v2l-2.7.2.5.4h-11.9l-.5-1.1 1.4-.6-2.1-.9-.1-1.4.8-1.1-2.2-.9-1.7-1.5-.5 2.1-1 2.9-1.8-.2v2.7h-.2l-1.3-2.4h-2.3l.5-2-1.4-.7-.5-3.2-.5-1-1.9 1.1.2 1.5h-.6l.1-.1-2 .1v-1.6l.1-1.7-1.7-1.1 1.5-2.6-1.9-1 .4-2-1.9-.6.5-1.6-1.6-1.3-2.1-1.8-.7 3.6-2 1 .9 1.5-.9 1.7h-1.4l1.2 2.9-1.4-1-.8 1.2-.5 2.5-.3 3.4-.2-1.6-1.7-.2-.6-1.5-1.5.8-1.5 1.5-.6 1.5h-1.5l.3 2.3.2.7-.2.5v1.2h-2.3l.3-1.1-.2-.2.2-.7-.6-1.4-.9-.5.5-.8-1-.6.7-1.2-1.1-1.2-.4-1.6-1.2-1-1.4-1.4-.8-1.7-1.2 1.4-1.7.9.4 1.1-1.5.7.7 1.1-.5 1.2-1.2.8.4 1.6-.4 1.1-.9 1v1.5l-1.9 1h-.5l-.1-2.4 1.5-1.3-1.1-1.4 1-2.2.2-2h-1.4l-.7-1.2-1.5-1.3-1.5-.7-.6 1.3-1.6.1-.2 1.4-.3-2.9-.5-2.1-.9-1.1-1.3.9 1.2-2.4H129l-.8-1.5.8-1.3-2-.9-.6-3-2.1 1.6-1.6 1 .5 1.4-1.9.5.4 1.7-1.9.9 1.5 2.2-1.7 1 .1 1.3v1.4l-2-.1 1 1.8-1.5 1.1-.2 3.1-1.3.5.1.1-.3-.2-.5 1.1-.2 1.1-.1.1.1.1-.3 2.3h-2.4l.3-1.3-1.3-1.1.3-1.7-1.7-.9v-2.6l-1.7.2-1-2.4-.5-1.8-1.7 1.3-2.3.7.9 1-.1 1.1-2.1.8 1.3.5-.6 1.3-2.1.7 2.4 1.8-.4 2.1h-2.1l.1.3h-7.7l-.7-.6 1.7-1.3-2.8-.2v-1.9l.4-1.1h-2.1l-.4-2.5 2.4-2-2.1-.9-.7-1.5 1.4-.6-2.1-.9-.1-1.4.8-1.1-2.2-.9-1.7-1.5-.5 2.2-1 2.8-1.8-.2v3l-1.6 1.1.2 1.9-1.2 1.3.4 2-2.5.9-.9-2.8.6-1.4-2-.8 1-1.7-1.2-.7-.2-3.6-1.5-1.2 1-2.1-2 .1v-1.6l.1-1.6-1.8-1.2 1.5-2.6-1.8-1 .3-2-1.8-.6.5-1.6-1.6-1.2-2.2-1.9-.6 3.6-2 1 .9 1.5-.9 1.7h-1.5l1.3 2.9-1.4-1-.9 1.2-.5 2.5-.2 3.4-.2-1.6-1.7-.2-.6-1.5-1.5.8-1.5 1.5-.6 1.5h-1.5l.3 2.3 1 2.5-1.2 1.6 1.5 1.7-.1 3.1-2.3-1.5v-1.8l-.9-1.2-.4-1.2.4-1.9-1.3-1-.5-1.4.8-1.2-1.5-.9.4-1.2-1.8-1.2-1.1-1.6-.9 2-1.3 1.6-1.3 1.3-.4 1.8-1.1 1.4.8 1.4v1.2l-1.4 1-.6 1.6.6 2.8-2.6-.1v-1.7l-1-2.2-2.1-1-.4 2.5-1.1-.3-.8 1.4-1.6.7 1 1.2-.8 1.4-.2-2.6.5-3.3-2.5-2.7.5-2-2-.6-2.3-4-1.7 3.4.2 1.9-1.4 1.3.6 1.6-2.7 2-1.2-1.3.1-2.1-1.4-.6.4-1.1h-2.5l.1-1.8-1.8-1.2-.5 1.1-.5 3.7-1.4.9v.1l-1.9-.9-1.3-3.8-2.3-3.2 1.3-2.1-4.6-5.2v100.6H414v-91.8l-.5.6z" fill="#175B7C"/>
    </g>
    <defs>
        <linearGradient id="98lh21g0zb" x1="206.944" y1="147.355" x2="207.475" y2="7.371" gradientUnits="userSpaceOnUse">
            <stop stop-color="#fff"/>
            <stop offset="1" stop-color="#DAF1FD"/>
        </linearGradient>
        <linearGradient id="vqd2862bzc" x1="207.113" y1="159.873" x2="207.143" y2="121.977" gradientUnits="userSpaceOnUse">
            <stop stop-color="#ABC7E0"/>
            <stop offset="1" stop-color="#8AB2D3"/>
        </linearGradient>
        <linearGradient id="bmeszr7ygd" x1="207.039" y1="190.894" x2="207.143" y2="150.817" gradientUnits="userSpaceOnUse">
            <stop offset=".142" stop-color="#80A5C1"/>
            <stop offset="1" stop-color="#5281A4"/>
        </linearGradient>
        <clipPath id="mzd45yd4sa">
            <path fill="#fff" d="M0 0h414v253.7H0z"/>
        </clipPath>
    </defs>
</svg>
