<svg width="41" height="28" viewBox="0 0 41 28" fill="none" xmlns="http://www.w3.org/2000/svg">
    <path d="M20.024 3.835a17.843 17.843 0 0 1 9.468 2.68 17.73 17.73 0 0 1 6.585 7.285 17.82 17.82 0 0 1-6.592 7.273 17.934 17.934 0 0 1-9.461 2.697c-3.345 0-6.623-.934-9.461-2.697A17.821 17.821 0 0 1 3.97 13.8a17.73 17.73 0 0 1 6.585-7.284 17.843 17.843 0 0 1 9.469-2.681zm0-3.624A21.601 21.601 0 0 0 7.91 3.936 21.452 21.452 0 0 0 .002 13.8a21.434 21.434 0 0 0 7.908 9.862 21.583 21.583 0 0 0 12.114 3.717c4.32 0 8.542-1.295 12.113-3.717a21.434 21.434 0 0 0 7.908-9.862 21.452 21.452 0 0 0-7.908-9.864A21.601 21.601 0 0 0 20.024.21zm0 9.06c.9 0 1.78.265 2.528.763a4.533 4.533 0 0 1 1.676 2.033 4.51 4.51 0 0 1-.987 4.936 4.57 4.57 0 0 1-4.959.982 4.547 4.547 0 0 1-2.042-1.668 4.515 4.515 0 0 1 .566-5.72 4.561 4.561 0 0 1 3.218-1.327zm0-3.624c-1.62 0-3.204.478-4.55 1.374a8.161 8.161 0 0 0-3.018 3.659 8.118 8.118 0 0 0-.466 4.71 8.142 8.142 0 0 0 2.242 4.176 8.225 8.225 0 0 0 8.926 1.767 8.183 8.183 0 0 0 3.676-3.003 8.128 8.128 0 0 0 1.38-4.53 8.153 8.153 0 0 0-2.404-5.76 8.228 8.228 0 0 0-5.786-2.393z" fill="#A6A6A6"/>
</svg>
