<svg width="1920" height="984" viewBox="0 0 1920 984" fill="none" xmlns="http://www.w3.org/2000/svg">
<g clip-path="url(#clip0_1558_19637)">
<path d="M1920 0H0V984H1920V0Z" fill="url(#paint0_linear_1558_19637)"/>
<g clip-path="url(#clip1_1558_19637)">
<path d="M384.102 133.846L438.202 109.939L450.002 114.673L462.802 97.0385L468.702 91.8311L478.102 97.0385L490.402 108.164L499.302 105.796L522.602 122.721L541.202 120.472L571.302 137.988L487.702 181.186L384.102 133.846Z" fill="#BCD2E4"/>
<path d="M690.997 184.145L277 182.5V160.25V105.098L309.197 116.804L319.397 114.082L326.497 116.804L349.797 108.046L365.997 123.668L371.097 120.118L385.797 132.663L400.497 129.704L421.297 145.918L440.597 141.657L452.697 153.137L457.797 152.546L478.597 168.641L496.797 162.132L503.397 150.06L513.297 143.551L531.797 144.143L541.997 136.923L566.797 129.112L572.897 122.485L577.997 116.804L589.097 121.893L604.297 116.804L619.997 125.443L634.197 120.118H662.097L671.297 129.112L684 117L690.997 116.685" fill="url(#paint1_linear_1558_19637)"/>
<path d="M690.997 212.55L277 213V191.484V126.367L313.797 135.149L335.297 152.546H355.197L379.597 147.931L405.697 155.978L433.497 167.34L445.897 172.429L452.197 182.844L460.097 178.11L477.697 183.436L500.897 172.429L513.297 169.352L530.397 153.966L568.997 168.76H578.597L599.597 158.937L612.697 149.232L631.797 158.937H648.997L657.497 149.232L666.497 155.268L690.997 132.427" fill="url(#paint2_linear_1558_19637)"/>
<path d="M690.5 176.506L689.9 178.04H688.4L688.7 180.391L689.7 182.947L688.5 184.583L690 186.321L690.988 183.5L688.688 181.966V180.126L687.788 178.899L687.388 177.57L687.788 175.73L686.488 174.707L685.988 173.276L686.788 172.049L685.288 171.129L685.988 170.72L683.5 168L683 165.5L681.888 169.084L680.588 170.72L679.288 172.049L678.888 173.889L677.788 175.321L678.588 176.752V177.979L677.188 179.001L676.588 180.637L677.188 183.5L673.5 189.286V187.651L672.5 185.401L670.4 184.379L670 186.935L668.9 186.628L668.1 188.06L666.5 188.775L667.5 190.002L666 192.456H656L656.1 191.74V189.695L654.8 189.491L654.9 187.446L655.7 186.321L654.5 184.992L654.6 182.845L653.2 182.232L653.6 181.107H651.1L651.2 179.267L649.4 178.04L648.9 179.164L648.4 182.947L647 183.868L647.5 186.219H645.7L645.4 185.503L646.8 184.788L644.6 183.97L644.5 182.538L645.4 181.414L643.1 180.494L641.4 178.96L640.9 181.107L639.9 184.072L638.2 183.868V186.833L636.6 188.06L636.8 190.002L635.6 191.331L635.8 192.456H632.9L632.6 191.433L633.2 190.002L631.2 189.184L632.2 187.344L631 186.73L630.7 183.05L629.2 181.823L630.2 179.573L628.2 179.778V178.142L628.3 176.404L626.6 175.279L628.1 172.621L626.2 171.599L626.6 169.554L624.7 168.94L625.2 167.304L623.6 165.975L621.5 164.135L620.9 167.816L618.9 168.838L619.8 170.372L618.9 172.11H617.4L618.6 175.075L617.3 174.052L616.4 175.279L615.9 177.835L615.7 181.312L615.4 179.573L613.8 179.471L613.2 177.938L611.7 178.756L610.2 180.289L609.6 181.823H608.1L608.3 184.174L609.3 186.73L608.2 188.366L609.7 190.002L609.6 192.456H608.5L607.2 191.74V189.9L606.3 188.673L605.9 187.344L606.3 185.503L605.1 184.481L604.6 183.05L605.3 181.823L603.8 180.903L604.2 179.573L602.5 178.449L601.3 176.813L600.5 178.858L599.1 180.494L597.9 181.823L597.5 183.663L596.4 185.094L597.1 186.526V187.753L595.7 188.775L595.1 190.411L595.6 192.456H593.1V191.433L592.1 189.184L590 188.162L589.7 190.718L588.5 190.411L587.8 191.842L586.2 192.456H574.5L574.6 191.229L575.3 190.002L574.1 188.775L574.2 186.628L572.9 186.015L573.2 184.788H570.7L570.9 183.05L569 181.823L568.5 182.947L568 186.73L567 187.446L566.5 186.219H564.2L564.6 183.868L563.3 182.947L562.8 179.164L562.3 178.04L560.4 179.267L560.5 181.107H558L558.4 182.232L557 182.845L557.2 184.992L555.9 186.321L556.7 187.446L556.8 189.491L555.6 189.695V191.74L555.7 192.456H545.6L544.1 190.002L545.1 188.775L543.5 188.06L542.7 186.628L541.6 186.935L541.2 184.379L539.1 185.401L538.1 187.651V189.286L535.5 189.491L536.1 186.628L535.5 184.992L534.2 183.97V182.743L534.9 181.312L533.8 179.88L533.4 178.04L532.2 176.711L530.8 175.075L529.9 173.03L528.8 174.666L527.1 175.893L527.4 177.12L525.9 178.04L526.7 179.267L526.2 180.698L525 181.721L525.3 183.561L525 184.89L524 186.117V187.957L521.7 189.491L521.6 186.321L523.1 184.583L522 182.947L523 180.391L523.2 178.04H521.7L521.1 176.506L519.6 174.973L518.1 174.155L517.5 175.688L515.9 175.893L515.6 177.529L515.4 174.052L514.9 171.496L514 170.269L512.6 171.292L513.9 168.327H512.4L511.5 166.589L512.4 165.055L510.4 164.033L509.8 160.352L507.7 162.192L506 163.521L506.5 165.157L504.7 165.771L505 167.816L503.2 168.838L504.7 171.496L502.9 172.621L503.1 174.359V175.995L501.1 175.893L502.1 178.04L500.6 179.267L500.3 182.947L499.1 183.561L500.1 185.401L498.1 186.219L498.7 187.651L497.8 190.513L495.3 189.593L495.7 187.548L494.5 186.219L494.7 184.277L493.1 183.05V180.085L491.4 180.289L490.4 177.426L489.9 175.177L488.1 176.711L485.9 177.631L486.8 178.756L486.6 180.187L484.5 181.107L485.9 181.721L485.3 183.254L483.2 184.072L485.5 186.219L485.1 188.775H483L483.4 189.798V191.842L480.7 192.047L481.2 192.456H469.3L468.8 191.331L470.2 190.718L468.1 189.798L468 188.366L468.8 187.242L466.6 186.321L464.9 184.788L464.4 186.935L463.4 189.9L461.6 189.695V192.456H461.4L460.1 190.002H457.8L458.3 187.957L456.9 187.242L456.4 183.97L455.9 182.947L454 184.072L454.2 185.606H453.6L453.7 185.503L451.7 185.606V183.97L451.8 182.232L450.1 181.107L451.6 178.449L449.7 177.426L450.1 175.382L448.2 174.768L448.7 173.132L447.1 171.803L445 169.963L444.3 173.643L442.3 174.666L443.2 176.199L442.3 177.938H440.9L442.1 180.903L440.7 179.88L439.9 181.107L439.4 183.663L439.1 187.139L438.9 185.503L437.2 185.299L436.6 183.765L435.1 184.583L433.6 186.117L433 187.651H431.5L431.8 190.002L432 190.718L431.8 191.229V192.456H429.5L429.8 191.331L429.6 191.127L429.8 190.411L429.2 188.98L428.3 188.468L428.8 187.651L427.8 187.037L428.5 185.81L427.4 184.583L427 182.947L425.8 181.925L424.4 180.494L423.6 178.756L422.4 180.187L420.7 181.107L421.1 182.232L419.6 182.947L420.3 184.072L419.8 185.299L418.6 186.117L419 187.753L418.6 188.877L417.7 189.9V191.433L415.8 192.456H415.3L415.2 190.002L416.7 188.673L415.6 187.242L416.6 184.992L416.8 182.947H415.4L414.7 181.721L413.2 180.391L411.7 179.676L411.1 181.005L409.5 181.107L409.3 182.538L409 179.573L408.5 177.426L407.6 176.302L406.3 177.222L407.5 174.768H406L405.2 173.234L406 171.905L404 170.985L403.4 167.918L401.3 169.554L399.7 170.576L400.2 172.008L398.3 172.519L398.7 174.257L396.8 175.177L398.3 177.426L396.6 178.449L396.7 179.778V181.209L394.7 181.107L395.7 182.947L394.2 184.072L394 187.242L392.7 187.753L392.8 187.855L392.5 187.651L392 188.775L391.8 189.9L391.7 190.002L391.8 190.104L391.5 192.456H389.1L389.4 191.127L388.1 190.002L388.4 188.264L386.7 187.344V184.686L385 184.89L384 182.436L383.5 180.596L381.8 181.925L379.5 182.641L380.4 183.663L380.3 184.788L378.2 185.606L379.5 186.117L378.9 187.446L376.8 188.162L379.2 190.002L378.8 192.149H376.7L376.8 192.456H369.1L368.4 191.842L370.1 190.513L367.3 190.309V188.366L367.7 187.242H365.6L365.2 184.686L367.6 182.641L365.5 181.721L364.8 180.187L366.2 179.573L364.1 178.653L364 177.222L364.8 176.097L362.6 175.177L360.9 173.643L360.4 175.893L359.4 178.756L357.6 178.551V181.618L356 182.743L356.2 184.686L355 186.015L355.4 188.06L352.9 188.98L352 186.117L352.6 184.686L350.6 183.868L351.6 182.129L350.4 181.414L350.2 177.733L348.7 176.506L349.7 174.359L347.7 174.461V172.825L347.8 171.19L346 169.963L347.5 167.304L345.7 166.282L346 164.237L344.2 163.624L344.7 161.988L343.1 160.761L340.9 158.818L340.3 162.499L338.3 163.521L339.2 165.055L338.3 166.793H336.8L338.1 169.758L336.7 168.736L335.8 169.963L335.3 172.519L335.1 175.995L334.9 174.359L333.2 174.155L332.6 172.621L331.1 173.439L329.6 174.973L329 176.506H327.5L327.8 178.858L328.8 181.414L327.6 183.05L329.1 184.788L329 187.957L326.7 186.424V184.583L325.8 183.356L325.4 182.129L325.8 180.187L324.5 179.164L324 177.733L324.8 176.506L323.3 175.586L323.7 174.359L321.9 173.132L320.8 171.496L319.9 173.541L318.6 175.177L317.3 176.506L316.9 178.347L315.8 179.778L316.6 181.209V182.436L315.2 183.459L314.6 185.094L315.2 187.957L312.6 187.855V186.117L311.6 183.868L309.5 182.845L309.1 185.401L308 185.094L307.2 186.526L305.6 187.242L306.6 188.468L305.8 189.9L305.6 187.242L306.1 183.868L303.6 181.107L304.1 179.062L302.1 178.449L299.8 174.359L298.1 177.835L298.3 179.778L296.9 181.107L297.5 182.743L294.8 184.788L293.6 183.459L293.7 181.312L292.3 180.698L292.7 179.573H290.2L290.3 177.733L288.5 176.506L288 177.631L287.5 181.414L286.1 182.334V182.436L284.2 181.516L282.9 177.631L280.6 174.359L281.9 172.212L277 166.895V195.421V1663H688.7L691 175.893L690.5 176.506Z" fill="#175B7C"/>
<path d="M791.102 148.015L845.202 124.108L857.002 128.842L869.802 111.207L875.702 106L885.102 111.207L897.402 122.332L906.302 119.965L929.602 136.89L948.202 134.641L978.302 152.157L894.702 195.355L791.102 148.015Z" fill="#BCD2E4"/>
<path d="M1097.7 196.059L684 194.402V172.152V117L715.9 128.717L726.1 125.995L733.2 128.717L756.5 119.959L772.7 135.581L777.8 132.031L792.5 144.576L807.2 141.617L828 157.831L847.3 153.57L859.4 165.051L864.5 164.459L885.3 180.555L903.5 174.045L910.1 161.973L920 155.464L938.5 156.056L948.7 148.836L973.5 141.025L979.6 134.398L984.7 128.717L995.8 133.806L1011 128.717L1026.7 137.356L1040.9 132.031H1068.8L1078 141.025L1092.5 118.5L1098.6 118.882" fill="url(#paint3_linear_1558_19637)"/>
<path d="M1097.7 225.16L684 225.633V204.093V139L720.5 147.758L742 165.156H761.9L786.3 160.54L812.4 168.588L840.2 179.949L852.6 185.039L858.9 195.453L866.8 190.719L884.4 196.045L907.6 185.039L920 181.961L937.1 166.576L975.7 181.37H985.3L1006.3 171.547L1019.4 161.842L1038.5 171.547H1055.7L1064.2 161.842L1073.2 167.878L1097.7 145.036" fill="url(#paint4_linear_1558_19637)"/>
<path d="M1401.9 135.846L1347.8 111.939L1336 116.673L1323.2 99.0385L1317.3 93.8311L1307.9 99.0385L1295.6 110.164L1286.7 107.796L1263.4 124.721L1244.8 122.472L1214.7 139.988L1298.3 183.186L1401.9 135.846Z" fill="#B7CDDF"/>
<path d="M1095 186.145L1509 184.489V162.239V107.087L1476.8 118.804L1466.6 116.082L1459.5 118.804L1436.2 110.046L1420 125.668L1414.9 122.118L1400.2 134.663L1385.5 131.704L1364.7 147.918L1345.4 143.657L1333.3 155.137L1328.2 154.546L1307.4 170.641L1289.2 164.132L1282.6 152.06L1272.7 145.551L1254.2 146.143L1244 138.923L1219.2 131.112L1213.1 124.485L1208 118.804L1196.9 123.893L1181.7 118.804L1166 127.443L1151.8 122.118H1123.9L1114.7 131.112L1101.1 118.804L1095 118.685" fill="url(#paint5_linear_1558_19637)"/>
<path d="M1095 214.55L1509 215.04V193.5V128.407L1472.2 137.149L1450.7 154.546H1430.8L1406.4 149.931L1380.3 157.978L1352.5 169.34L1340.1 174.429L1333.8 184.844L1325.9 180.11L1308.3 185.436L1285.1 174.429L1272.7 171.352L1255.6 155.966L1217 170.76H1207.4L1186.4 160.937L1173.3 151.232L1154.2 160.937H1137L1128.5 151.232L1119.5 157.268L1095 147.5" fill="url(#paint6_linear_1558_19637)"/>
<path d="M1097.5 178.483L1096.9 180.014H1095.4L1095.7 182.363L1096.7 184.915L1095.5 186.549L1097 188.285L1096.9 191.45L1094.6 189.919V188.081L1093.7 186.855L1093.3 185.528L1093.7 183.69L1092.4 182.669L1091.9 181.24L1092.7 180.014L1091.2 179.095L1091.6 177.87L1089.8 176.645L1088.7 175.011L1087.8 177.053L1086.5 178.687L1085.2 180.014L1084.8 181.852L1083.7 183.282L1084.5 184.711V185.936L1083.1 186.957L1082.5 188.591L1083.1 191.45L1080.5 191.246V189.612L1079.5 187.366L1077.4 186.345L1077 188.897L1075.9 188.591L1075.1 190.021L1073.5 190.735L1074.5 191.961L1073 194.411H1063L1063.1 193.696V191.654L1061.8 191.45L1061.9 189.408L1062.7 188.285L1061.5 186.957L1061.6 184.813L1060.2 184.201L1060.6 183.077H1058.1L1058.2 181.24L1056.4 180.014L1055.9 181.137L1055.4 184.915L1054 185.834L1054.5 188.183H1052.7L1052.4 187.468L1053.8 186.753L1051.6 185.936L1051.5 184.507L1052.4 183.384L1050.1 182.465L1048.4 180.933L1047.9 183.077L1046.9 186.039L1045.2 185.834V188.795L1043.6 190.021L1043.8 191.961L1042.6 193.288L1042.8 194.411H1039.9L1039.6 193.39L1040.2 191.961L1038.2 191.144L1039.2 189.306L1038 188.693L1037.7 185.017L1036.2 183.792L1037.2 181.546L1035.2 181.75V180.116L1035.3 178.381L1033.6 177.257L1035.1 174.603L1033.2 173.582L1033.6 171.539L1031.7 170.927L1032.2 169.293L1030.6 167.966L1028.5 166.128L1027.9 169.804L1025.9 170.825L1026.8 172.356L1025.9 174.092H1024.4L1025.6 177.053L1024.3 176.032L1023.4 177.257L1022.9 179.81L1022.7 183.282L1022.4 181.546L1020.8 181.444L1020.2 179.912L1018.7 180.729L1017.2 182.261L1016.6 183.792H1015.1L1015.3 186.141L1016.3 188.693L1015.2 190.327L1016.7 191.961L1016.6 194.411H1015.5L1014.2 193.696V191.859L1013.3 190.633L1012.9 189.306L1013.3 187.468L1012.1 186.447L1011.6 185.017L1012.3 183.792L1010.8 182.873L1011.2 181.546L1009.5 180.423L1008.3 178.789L1007.5 180.831L1006.1 182.465L1004.9 183.792L1004.5 185.63L1003.4 187.06L1004.1 188.489V189.714L1002.7 190.735L1002.1 192.369L1002.6 194.411H1000.1V193.39L999.1 191.144L997 190.123L996.7 192.675L995.5 192.369L994.8 193.799L993.2 194.411H981.5L981.6 193.186L982.3 191.961L981.1 190.735L981.2 188.591L979.9 187.979L980.2 186.753H977.7L977.9 185.017L976 183.792L975.5 184.915L975 188.693L974 189.408L973.5 188.183H971.2L971.6 185.834L970.3 184.915L969.8 181.137L969.3 180.014L967.4 181.24L967.5 183.077H965L965.4 184.201L964 184.813L964.2 186.957L962.9 188.285L963.7 189.408L963.8 191.45L962.6 191.654V193.696L962.7 194.411H952.6L951.1 191.961L952.1 190.735L950.5 190.021L949.7 188.591L948.6 188.897L948.2 186.345L946.1 187.366L945.1 189.612V191.246L942.5 191.45L943.1 188.591L942.5 186.957L941.2 185.936V184.711L941.9 183.282L940.8 181.852L940.4 180.014L939.2 178.687L937.8 177.053L936.9 175.011L935.8 176.645L934.1 177.87L934.4 179.095L932.9 180.014L933.7 181.24L933.2 182.669L932 183.69L932.3 185.528L932 186.855L931 188.081V189.919L928.7 191.45L928.6 188.285L930.1 186.549L929 184.915L930 182.363L930.2 180.014H928.7L928.1 178.483L926.6 176.951L925.1 176.134L924.5 177.666L922.9 177.87L922.6 179.504L922.4 176.032L921.9 173.479L921 172.254L919.6 173.275L920.9 170.314H919.4L918.5 168.578L919.4 167.047L917.4 166.026L916.8 162.35L914.7 164.188L913 165.515L913.5 167.149L911.7 167.762L912 169.804L910.2 170.825L911.7 173.479L909.9 174.603L910.1 176.338V177.972L908.1 177.87L909.1 180.014L907.6 181.24L907.3 184.915L906.1 185.528L907.1 187.366L905.1 188.183L905.7 189.612L904.8 192.471L902.3 191.552L902.7 189.51L901.5 188.183L901.7 186.243L900.1 185.017V182.056L898.4 182.261L897.4 179.402L896.9 177.155L895.1 178.687L892.9 179.606L893.8 180.729L893.6 182.158L891.5 183.077L892.9 183.69L892.3 185.222L890.2 186.039L892.5 188.183L892.1 190.735H890L890.4 191.756V193.799L887.7 194.003L888.2 194.411H876.3L875.8 193.288L877.2 192.675L875.1 191.756L875 190.327L875.8 189.204L873.6 188.285L871.9 186.753L871.4 188.897L870.4 191.859L868.6 191.654V194.411H868.4L867.1 191.961H864.8L865.3 189.919L863.9 189.204L863.4 185.936L862.9 184.915L861 186.039L861.2 187.57H860.6L860.7 187.468L858.7 187.57V185.936L858.8 184.201L857.1 183.077L858.6 180.423L856.7 179.402L857.1 177.36L855.2 176.747L855.7 175.113L854.1 173.786L852 171.948L851.3 175.624L849.3 176.645L850.2 178.176L849.3 179.912H847.9L849.1 182.873L847.7 181.852L846.9 183.077L846.4 185.63L846.1 189.102L845.9 187.468L844.2 187.264L843.6 185.732L842.1 186.549L840.6 188.081L840 189.612H838.5L838.8 191.961L839 192.675L838.8 193.186V194.411H836.5L836.8 193.288L836.6 193.084L836.8 192.369L836.2 190.94L835.3 190.429L835.8 189.612L834.8 189L835.5 187.774L834.4 186.549L834 184.915L832.8 183.894L831.4 182.465L830.6 180.729L829.4 182.158L827.7 183.077L828.1 184.201L826.6 184.915L827.3 186.039L826.8 187.264L825.6 188.081L826 189.714L825.6 190.837L824.7 191.859V193.39L822.8 194.411H822.3L822.2 191.961L823.7 190.633L822.6 189.204L823.6 186.957L823.8 184.915H822.4L821.7 183.69L820.2 182.363L818.7 181.648L818.1 182.975L816.5 183.077L816.3 184.507L816 181.546L815.5 179.402L814.6 178.278L813.3 179.197L814.5 176.747H813L812.2 175.215L813 173.888L811 172.969L810.4 169.906L808.3 171.539L806.7 172.561L807.2 173.99L805.3 174.501L805.7 176.236L803.8 177.155L805.3 179.402L803.6 180.423L803.7 181.75V183.18L801.7 183.077L802.7 184.915L801.2 186.039L801 189.204L799.7 189.714L799.8 189.816L799.5 189.612L799 190.735L798.8 191.859L798.7 191.961L798.8 192.063L798.5 194.411H796.1L796.4 193.084L795.1 191.961L795.4 190.225L793.7 189.306V186.651L792 186.855L791 184.405L790.5 182.567L788.8 183.894L786.5 184.609L787.4 185.63L787.3 186.753L785.2 187.57L786.5 188.081L785.9 189.408L783.8 190.123L786.2 191.961L785.8 194.105H783.7L783.8 194.411H776.1L775.4 193.799L777.1 192.471L774.3 192.267V190.327L774.7 189.204H772.6L772.2 186.651L774.6 184.609L772.5 183.69L771.8 182.158L773.2 181.546L771.1 180.627L771 179.197L771.8 178.074L769.6 177.155L767.9 175.624L767.4 177.87L766.4 180.729L764.6 180.525V183.588L763 184.711L763.2 186.651L762 187.979L762.4 190.021L759.9 190.94L759 188.081L759.6 186.651L757.6 185.834L758.6 184.099L757.4 183.384L757.2 179.708L755.7 178.483L756.7 176.338L754.7 176.441V174.807L754.8 173.173L753 171.948L754.5 169.293L752.7 168.272L753 166.23L751.2 165.617L751.7 163.984L750.1 162.758L747.9 160.818L747.3 164.494L745.3 165.515L746.2 167.047L745.3 168.783H743.8L745.1 171.744L743.7 170.723L742.8 171.948L742.3 174.501L742.1 177.972L741.9 176.338L740.2 176.134L739.6 174.603L738.1 175.42L736.6 176.951L736 178.483H734.5L734.8 180.831L735.8 183.384L734.6 185.017L736.1 186.753L736 189.919L733.7 188.387V186.549L732.8 185.324L732.4 184.099L732.8 182.158L731.5 181.137L731 179.708L731.8 178.483L730.3 177.564L730.7 176.338L728.9 175.113L727.8 173.479L726.9 175.522L725.6 177.155L724.3 178.483L723.9 180.321L722.8 181.75L723.6 183.18V184.405L722.2 185.426L721.6 187.06L722.2 189.919L719.6 189.816V188.081L718.6 185.834L716.5 184.813L716.1 187.366L715 187.06L714.2 188.489L712.6 189.204L713.6 190.429L712.8 191.859L712.6 189.204L713.1 185.834L710.6 183.077L711.1 181.035L709.1 180.423L706.8 176.338L705.1 179.81L705.3 181.75L703.9 183.077L704.5 184.711L701.8 186.753L700.6 185.426L700.7 183.282L699.3 182.669L699.7 181.546H697.2L697.3 179.708L695.5 178.483L695 179.606L694.5 183.384L693.1 184.303V184.405L691.2 183.486L689.9 179.606L687.6 176.338L688.9 174.194L684.3 168.885L682 235V1663H1095.7L1098 177.87L1097.5 178.483Z" fill="#175B7C"/>
<path d="M1507.5 177.613L1506.9 179.144L1505 181.866L1505.7 185.542L1506.7 188.094L1505.5 189.728L1507 191.463L1506.9 194.628L1504.6 193.097V191.259L1503.7 190.034L1503.3 188.707L1503.7 186.869L1502.4 185.848L1501.9 184.419L1502.7 183.194L1501.2 182.275L1501.6 181.05L1499.8 179.824L1498.7 178.191L1497.8 180.233L1496.5 181.866L1495.2 183.194L1494.8 185.031L1493.7 186.461L1494.5 187.89V189.115L1493.1 190.136L1492.5 191.769L1493.1 194.628L1490.5 194.424V192.79L1489.5 190.544L1487.4 189.523L1487 192.076L1485.9 191.769L1485.1 193.199L1483.5 193.913L1484.5 195.139L1483 197.589H1473L1473.1 196.874V194.832L1471.8 194.628L1471.9 192.586L1472.7 191.463L1471.5 190.136L1471.6 187.992L1470.2 187.379L1470.6 186.256H1468.1L1468.2 184.419L1466.4 183.194L1465.9 184.317L1465.4 188.094L1464 189.013L1464.5 191.361H1462.7L1462.4 190.646L1463.8 189.932L1461.6 189.115L1461.5 187.686L1462.4 186.563L1460.1 185.644L1458.4 184.112L1457.9 186.256L1456.9 189.217L1455.2 189.013V191.974L1453.6 193.199L1453.8 195.139L1452.6 196.466L1452.8 197.589H1449.9L1449.6 196.568L1450.2 195.139L1448.2 194.322L1449.2 192.484L1448 191.872L1447.7 188.196L1446.2 186.971L1447.2 184.725L1445.2 184.929V183.296L1445.3 181.56L1443.6 180.437L1445.1 177.783L1443.2 176.762L1443.6 174.72L1441.7 174.107L1442.2 172.474L1440.6 171.147L1438.5 169.309L1437.9 172.984L1435.9 174.005L1436.8 175.537L1435.9 177.272H1434.4L1435.6 180.233L1434.3 179.212L1433.4 180.437L1432.9 182.989L1432.7 186.461L1432.4 184.725L1430.8 184.623L1430.2 183.091L1428.7 183.908L1427.2 185.44L1426.6 186.971H1425.1L1425.3 189.319L1426.3 191.872L1425.2 193.505L1426.7 195.139L1426.6 197.589H1425.5L1424.2 196.874V195.036L1423.3 193.811L1422.9 192.484L1423.3 190.646L1422.1 189.625L1421.6 188.196L1422.3 186.971L1420.8 186.052L1421.2 184.725L1419.5 183.602L1418.3 181.968L1417.5 184.01L1416.1 185.644L1414.9 186.971L1414.5 188.809L1413.4 190.238L1414.1 191.667V192.892L1412.7 193.913L1412.1 195.547L1412.6 197.589H1410.1V196.568L1409.1 194.322L1407 193.301L1406.7 195.853L1405.5 195.547L1404.8 196.976L1403.2 197.589H1391.5L1391.6 196.364L1392.3 195.139L1391.1 193.913L1391.2 191.769L1389.9 191.157L1390.2 189.932H1387.7L1387.9 188.196L1386 186.971L1385.5 188.094L1385 191.872L1384 192.586L1383.5 191.361H1381.2L1381.6 189.013L1380.3 188.094L1379.8 184.317L1379.3 183.194L1377.4 184.419L1377.5 186.256H1375L1375.4 187.379L1374 187.992L1374.2 190.136L1372.9 191.463L1373.7 192.586L1373.8 194.628L1372.6 194.832V196.874L1372.7 197.589H1362.6L1361.1 195.139L1362.1 193.913L1360.5 193.199L1359.7 191.769L1358.6 192.076L1358.2 189.523L1356.1 190.544L1355.1 192.79V194.424L1352.5 194.628L1353.1 191.769L1352.5 190.136L1351.2 189.115V187.89L1351.9 186.461L1350.8 185.031L1350.4 183.194L1349.2 181.866L1347.8 180.233L1346.9 178.191L1345.8 179.824L1344.1 181.05L1344.4 182.275L1342.9 183.194L1343.7 184.419L1343.2 185.848L1342 186.869L1342.3 188.707L1342 190.034L1341 191.259V193.097L1338.7 194.628L1338.6 191.463L1340.1 189.728L1339 188.094L1340 185.542L1340.2 183.194H1338.7L1338.1 181.662L1336.6 180.131L1335.1 179.314L1334.5 180.845L1332.9 181.05L1332.6 182.683L1332.4 179.212L1331.9 176.66L1331 175.434L1329.6 176.455L1330.9 173.495H1329.4L1328.5 171.759L1329.4 170.228L1327.4 169.207L1326.8 165.531L1324.7 167.369L1323 168.696L1323.5 170.33L1321.7 170.942L1322 172.984L1320.2 174.005L1321.7 176.66L1319.9 177.783L1320.1 179.518V181.152L1318.1 181.05L1319.1 183.194L1317.6 184.419L1317.3 188.094L1316.1 188.707L1317.1 190.544L1315.1 191.361L1315.7 192.79L1314.8 195.649L1312.3 194.73L1312.7 192.688L1311.5 191.361L1311.7 189.421L1310.1 188.196V185.235L1308.4 185.44L1307.4 182.581L1306.9 180.335L1305.1 181.866L1302.9 182.785L1303.8 183.908L1303.6 185.338L1301.5 186.256L1302.9 186.869L1302.3 188.4L1300.2 189.217L1302.5 191.361L1302.1 193.913H1300L1300.4 194.934V196.976L1297.7 197.18L1298.2 197.589H1286.3L1285.8 196.466L1287.2 195.853L1285.1 194.934L1285 193.505L1285.8 192.382L1283.6 191.463L1281.9 189.932L1281.4 192.076L1280.4 195.036L1278.6 194.832V197.589H1278.4L1277.1 195.139H1274.8L1275.3 193.097L1273.9 192.382L1273.4 189.115L1272.9 188.094L1271 189.217L1271.2 190.748H1270.6L1270.7 190.646L1268.7 190.748V189.115L1268.8 187.379L1267.1 186.256L1268.6 183.602L1266.7 182.581L1267.1 180.539L1265.2 179.927L1265.7 178.293L1264.1 176.966L1262 175.128L1261.3 178.804L1259.3 179.824L1260.2 181.356L1259.3 183.091H1257.9L1259.1 186.052L1257.7 185.031L1256.9 186.256L1256.4 188.809L1256.1 192.28L1255.9 190.646L1254.2 190.442L1253.6 188.911L1252.1 189.728L1250.6 191.259L1250 192.79H1248.5L1248.8 195.139L1249 195.853L1248.8 196.364V197.589H1246.5L1246.8 196.466L1246.6 196.262L1246.8 195.547L1246.2 194.118L1245.3 193.607L1245.8 192.79L1244.8 192.178L1245.5 190.953L1244.4 189.728L1244 188.094L1242.8 187.073L1241.4 185.644L1240.6 183.908L1239.4 185.338L1237.7 186.256L1238.1 187.379L1236.6 188.094L1237.3 189.217L1236.8 190.442L1235.6 191.259L1236 192.892L1235.6 194.015L1234.7 195.036V196.568L1232.8 197.589H1232.3L1232.2 195.139L1233.7 193.811L1232.6 192.382L1233.6 190.136L1233.8 188.094H1232.4L1231.7 186.869L1230.2 185.542L1228.7 184.827L1228.1 186.154L1226.5 186.256L1226.3 187.686L1226 184.725L1225.5 182.581L1224.6 181.458L1223.3 182.377L1224.5 179.927H1223L1222.2 178.395L1223 177.068L1221 176.149L1220.4 173.086L1218.3 174.72L1216.7 175.741L1217.2 177.17L1215.3 177.681L1215.7 179.416L1213.8 180.335L1215.3 182.581L1213.6 183.602L1213.7 184.929V186.358L1211.7 186.256L1212.7 188.094L1211.2 189.217L1211 192.382L1209.7 192.892L1209.8 192.995L1209.5 192.79L1209 193.913L1208.8 195.036L1208.7 195.139L1208.8 195.241L1208.5 197.589H1206.1L1206.4 196.262L1205.1 195.139L1205.4 193.403L1203.7 192.484V189.83L1202 190.034L1201 187.584L1200.5 185.746L1198.8 187.073L1196.5 187.788L1197.4 188.809L1197.3 189.932L1195.2 190.748L1196.5 191.259L1195.9 192.586L1193.8 193.301L1196.2 195.139L1195.8 197.282H1193.7L1193.8 197.589H1186.1L1185.4 196.976L1187.1 195.649L1184.3 195.445V193.505L1184.7 192.382H1182.6L1182.2 189.83L1184.6 187.788L1182.5 186.869L1181.8 185.338L1183.2 184.725L1181.1 183.806L1181 182.377L1181.8 181.254L1179.6 180.335L1177.9 178.804L1177.4 181.05L1176.4 183.908L1174.6 183.704V186.767L1173 187.89L1173.2 189.83L1172 191.157L1172.4 193.199L1169.9 194.118L1169 191.259L1169.6 189.83L1167.6 189.013L1168.6 187.277L1167.4 186.563L1167.2 182.887L1165.7 181.662L1166.7 179.518L1164.7 179.62V177.987L1164.8 176.353L1163 175.128L1164.5 172.474L1162.7 171.453L1163 169.411L1161.2 168.798L1161.7 167.165L1160.1 165.94L1157.9 164L1157.3 167.675L1155.3 168.696L1156.2 170.228L1155.3 171.963H1153.8L1155.1 174.924L1153.7 173.903L1152.8 175.128L1152.3 177.681L1152.1 181.152L1151.9 179.518L1150.2 179.314L1149.6 177.783L1148.1 178.599L1146.6 180.131L1146 181.662H1144.5L1144.8 184.01L1145.8 186.563L1144.6 188.196L1146.1 189.932L1146 193.097L1143.7 191.565V189.728L1142.8 188.502L1142.4 187.277L1142.8 185.338L1141.5 184.317L1141 182.887L1141.8 181.662L1140.3 180.743L1140.7 179.518L1138.9 178.293L1137.8 176.66L1136.9 178.701L1135.6 180.335L1134.3 181.662L1133.9 183.5L1132.8 184.929L1133.6 186.358V187.584L1132.2 188.605L1131.6 190.238L1132.2 193.097L1129.6 192.995V191.259L1128.6 189.013L1126.5 187.992L1126.1 190.544L1125 190.238L1124.2 191.667L1122.6 192.382L1123.6 193.607L1122.8 195.036L1122.6 192.382L1123.1 189.013L1120.6 186.256L1121.1 184.215L1119.1 183.602L1116.8 179.518L1115.1 182.989L1115.3 184.929L1113.9 186.256L1114.5 187.89L1111.8 189.932L1110.6 188.605L1110.7 186.461L1109.3 185.848L1109.7 184.725H1107.2L1107.3 182.887L1105.5 181.662L1105 182.785L1104.5 186.563L1103.1 187.482V187.584L1101.2 186.665L1099.9 182.785L1097.6 179.518L1098.9 177.374L1094.3 172.065L1090.5 180.335V200.549V1663H1509V177L1507.5 177.613Z" fill="#175B7C"/>
<rect x="683" y="537" width="72" height="18" fill="#145A7B"/>
<path d="M1616.1 135.846L1670.2 111.939L1682 116.673L1694.8 99.0385L1700.7 93.8311L1710.1 99.0385L1722.4 110.164L1731.3 107.796L1754.6 124.721L1773.2 122.472L1803.3 139.988L1719.7 183.186L1616.1 135.846Z" fill="#B8CDDF"/>
<path d="M1923 186.145L1509 184.5V162.25V107.098L1541.2 118.804L1551.4 116.082L1558.5 118.804L1581.8 110.046L1598 125.668L1603.1 122.118L1617.8 134.663L1632.5 131.704L1653.3 147.918L1672.6 143.657L1684.7 155.137L1689.8 154.546L1710.6 170.641L1728.8 164.132L1735.4 152.06L1745.3 145.551L1763.8 146.143L1774 138.923L1798.8 131.112L1804.9 124.485L1810 118.804L1821.1 123.893L1836.3 118.804L1852 127.443L1866.2 122.118H1894.1L1903.3 131.112L1916 119L1923 118.685" fill="url(#paint7_linear_1558_19637)"/>
<path d="M1923 214.55L1509 215V193.484V128.367L1545.8 137.149L1567.3 154.546H1587.2L1611.6 149.931L1637.7 157.978L1665.5 169.34L1677.9 174.429L1684.2 184.844L1692.1 180.11L1709.7 185.436L1732.9 174.429L1745.3 171.352L1762.4 155.966L1801 170.76H1810.6L1831.6 160.937L1844.7 151.232L1863.8 160.937H1881L1889.5 151.232L1898.5 157.268L1923 134.427" fill="url(#paint8_linear_1558_19637)"/>
<path d="M1922.5 178.506L1921.9 180.04H1920.4L1920.7 182.391L1921.7 184.947L1920.5 186.583L1922 188.321L1922.99 185.5L1920.69 183.966V182.126L1919.79 180.899L1919.39 179.57L1919.79 177.73L1918.49 176.707L1917.99 175.276L1918.79 174.049L1917.29 173.129L1917.99 172.72L1915.5 170L1915 167.5L1913.89 171.084L1912.59 172.72L1911.29 174.049L1910.89 175.889L1909.79 177.321L1910.59 178.752V179.979L1909.19 181.001L1908.59 182.637L1909.19 185.5L1905.5 191.286V189.651L1904.5 187.401L1902.4 186.379L1902 188.935L1900.9 188.628L1900.1 190.06L1898.5 190.775L1899.5 192.002L1898 194.456H1888L1888.1 193.74V191.695L1886.8 191.491L1886.9 189.446L1887.7 188.321L1886.5 186.992L1886.6 184.845L1885.2 184.232L1885.6 183.107H1883.1L1883.2 181.267L1881.4 180.04L1880.9 181.164L1880.4 184.947L1879 185.868L1879.5 188.219H1877.7L1877.4 187.503L1878.8 186.788L1876.6 185.97L1876.5 184.538L1877.4 183.414L1875.1 182.494L1873.4 180.96L1872.9 183.107L1871.9 186.072L1870.2 185.868V188.833L1868.6 190.06L1868.8 192.002L1867.6 193.331L1867.8 194.456H1864.9L1864.6 193.433L1865.2 192.002L1863.2 191.184L1864.2 189.344L1863 188.73L1862.7 185.05L1861.2 183.823L1862.2 181.573L1860.2 181.778V180.142L1860.3 178.404L1858.6 177.279L1860.1 174.621L1858.2 173.599L1858.6 171.554L1856.7 170.94L1857.2 169.304L1855.6 167.975L1853.5 166.135L1852.9 169.816L1850.9 170.838L1851.8 172.372L1850.9 174.11H1849.4L1850.6 177.075L1849.3 176.052L1848.4 177.279L1847.9 179.835L1847.7 183.312L1847.4 181.573L1845.8 181.471L1845.2 179.938L1843.7 180.756L1842.2 182.289L1841.6 183.823H1840.1L1840.3 186.174L1841.3 188.73L1840.2 190.366L1841.7 192.002L1841.6 194.456H1840.5L1839.2 193.74V191.9L1838.3 190.673L1837.9 189.344L1838.3 187.503L1837.1 186.481L1836.6 185.05L1837.3 183.823L1835.8 182.903L1836.2 181.573L1834.5 180.449L1833.3 178.813L1832.5 180.858L1831.1 182.494L1829.9 183.823L1829.5 185.663L1828.4 187.094L1829.1 188.526V189.753L1827.7 190.775L1827.1 192.411L1827.6 194.456H1825.1V193.433L1824.1 191.184L1822 190.162L1821.7 192.718L1820.5 192.411L1819.8 193.842L1818.2 194.456H1806.5L1806.6 193.229L1807.3 192.002L1806.1 190.775L1806.2 188.628L1804.9 188.015L1805.2 186.788H1802.7L1802.9 185.05L1801 183.823L1800.5 184.947L1800 188.73L1799 189.446L1798.5 188.219H1796.2L1796.6 185.868L1795.3 184.947L1794.8 181.164L1794.3 180.04L1792.4 181.267L1792.5 183.107H1790L1790.4 184.232L1789 184.845L1789.2 186.992L1787.9 188.321L1788.7 189.446L1788.8 191.491L1787.6 191.695V193.74L1787.7 194.456H1777.6L1776.1 192.002L1777.1 190.775L1775.5 190.06L1774.7 188.628L1773.6 188.935L1773.2 186.379L1771.1 187.401L1770.1 189.651V191.286L1767.5 191.491L1768.1 188.628L1767.5 186.992L1766.2 185.97V184.743L1766.9 183.312L1765.8 181.88L1765.4 180.04L1764.2 178.711L1762.8 177.075L1761.9 175.03L1760.8 176.666L1759.1 177.893L1759.4 179.12L1757.9 180.04L1758.7 181.267L1758.2 182.698L1757 183.721L1757.3 185.561L1757 186.89L1756 188.117V189.957L1753.7 191.491L1753.6 188.321L1755.1 186.583L1754 184.947L1755 182.391L1755.2 180.04H1753.7L1753.1 178.506L1751.6 176.973L1750.1 176.155L1749.5 177.688L1747.9 177.893L1747.6 179.529L1747.4 176.052L1746.9 173.496L1746 172.269L1744.6 173.292L1745.9 170.327H1744.4L1743.5 168.589L1744.4 167.055L1742.4 166.033L1741.8 162.352L1739.7 164.192L1738 165.521L1738.5 167.157L1736.7 167.771L1737 169.816L1735.2 170.838L1736.7 173.496L1734.9 174.621L1735.1 176.359V177.995L1733.1 177.893L1734.1 180.04L1732.6 181.267L1732.3 184.947L1731.1 185.561L1732.1 187.401L1730.1 188.219L1730.7 189.651L1729.8 192.513L1727.3 191.593L1727.7 189.548L1726.5 188.219L1726.7 186.277L1725.1 185.05V182.085L1723.4 182.289L1722.4 179.426L1721.9 177.177L1720.1 178.711L1717.9 179.631L1718.8 180.756L1718.6 182.187L1716.5 183.107L1717.9 183.721L1717.3 185.254L1715.2 186.072L1717.5 188.219L1717.1 190.775H1715L1715.4 191.798V193.842L1712.7 194.047L1713.2 194.456H1701.3L1700.8 193.331L1702.2 192.718L1700.1 191.798L1700 190.366L1700.8 189.242L1698.6 188.321L1696.9 186.788L1696.4 188.935L1695.4 191.9L1693.6 191.695V194.456H1693.4L1692.1 192.002H1689.8L1690.3 189.957L1688.9 189.242L1688.4 185.97L1687.9 184.947L1686 186.072L1686.2 187.606H1685.6L1685.7 187.503L1683.7 187.606V185.97L1683.8 184.232L1682.1 183.107L1683.6 180.449L1681.7 179.426L1682.1 177.382L1680.2 176.768L1680.7 175.132L1679.1 173.803L1677 171.963L1676.3 175.643L1674.3 176.666L1675.2 178.199L1674.3 179.938H1672.9L1674.1 182.903L1672.7 181.88L1671.9 183.107L1671.4 185.663L1671.1 189.139L1670.9 187.503L1669.2 187.299L1668.6 185.765L1667.1 186.583L1665.6 188.117L1665 189.651H1663.5L1663.8 192.002L1664 192.718L1663.8 193.229V194.456H1661.5L1661.8 193.331L1661.6 193.127L1661.8 192.411L1661.2 190.98L1660.3 190.468L1660.8 189.651L1659.8 189.037L1660.5 187.81L1659.4 186.583L1659 184.947L1657.8 183.925L1656.4 182.494L1655.6 180.756L1654.4 182.187L1652.7 183.107L1653.1 184.232L1651.6 184.947L1652.3 186.072L1651.8 187.299L1650.6 188.117L1651 189.753L1650.6 190.877L1649.7 191.9V193.433L1647.8 194.456H1647.3L1647.2 192.002L1648.7 190.673L1647.6 189.242L1648.6 186.992L1648.8 184.947H1647.4L1646.7 183.721L1645.2 182.391L1643.7 181.676L1643.1 183.005L1641.5 183.107L1641.3 184.538L1641 181.573L1640.5 179.426L1639.6 178.302L1638.3 179.222L1639.5 176.768H1638L1637.2 175.234L1638 173.905L1636 172.985L1635.4 169.918L1633.3 171.554L1631.7 172.576L1632.2 174.008L1630.3 174.519L1630.7 176.257L1628.8 177.177L1630.3 179.426L1628.6 180.449L1628.7 181.778V183.209L1626.7 183.107L1627.7 184.947L1626.2 186.072L1626 189.242L1624.7 189.753L1624.8 189.855L1624.5 189.651L1624 190.775L1623.8 191.9L1623.7 192.002L1623.8 192.104L1623.5 194.456H1621.1L1621.4 193.127L1620.1 192.002L1620.4 190.264L1618.7 189.344V186.686L1617 186.89L1616 184.436L1615.5 182.596L1613.8 183.925L1611.5 184.641L1612.4 185.663L1612.3 186.788L1610.2 187.606L1611.5 188.117L1610.9 189.446L1608.8 190.162L1611.2 192.002L1610.8 194.149H1608.7L1608.8 194.456H1601.1L1600.4 193.842L1602.1 192.513L1599.3 192.309V190.366L1599.7 189.242H1597.6L1597.2 186.686L1599.6 184.641L1597.5 183.721L1596.8 182.187L1598.2 181.573L1596.1 180.653L1596 179.222L1596.8 178.097L1594.6 177.177L1592.9 175.643L1592.4 177.893L1591.4 180.756L1589.6 180.551V183.618L1588 184.743L1588.2 186.686L1587 188.015L1587.4 190.06L1584.9 190.98L1584 188.117L1584.6 186.686L1582.6 185.868L1583.6 184.129L1582.4 183.414L1582.2 179.733L1580.7 178.506L1581.7 176.359L1579.7 176.461V174.825L1579.8 173.19L1578 171.963L1579.5 169.304L1577.7 168.282L1578 166.237L1576.2 165.624L1576.7 163.988L1575.1 162.761L1572.9 160.818L1572.3 164.499L1570.3 165.521L1571.2 167.055L1570.3 168.793H1568.8L1570.1 171.758L1568.7 170.736L1567.8 171.963L1567.3 174.519L1567.1 177.995L1566.9 176.359L1565.2 176.155L1564.6 174.621L1563.1 175.439L1561.6 176.973L1561 178.506H1559.5L1559.8 180.858L1560.8 183.414L1559.6 185.05L1561.1 186.788L1561 189.957L1558.7 188.424V186.583L1557.8 185.356L1557.4 184.129L1557.8 182.187L1556.5 181.164L1556 179.733L1556.8 178.506L1555.3 177.586L1555.7 176.359L1553.9 175.132L1552.8 173.496L1551.9 175.541L1550.6 177.177L1549.3 178.506L1548.9 180.347L1547.8 181.778L1548.6 183.209V184.436L1547.2 185.459L1546.6 187.094L1547.2 189.957L1544.6 189.855V188.117L1543.6 185.868L1541.5 184.845L1541.1 187.401L1540 187.094L1539.2 188.526L1537.6 189.242L1538.6 190.468L1537.8 191.9L1537.6 189.242L1538.1 185.868L1535.6 183.107L1536.1 181.062L1534.1 180.449L1531.8 176.359L1530.1 179.835L1530.3 181.778L1528.9 183.107L1529.5 184.743L1526.8 191.5L1525.6 190.171L1525.7 188.024L1524.3 187.41L1524.7 186.286H1522.2L1522.3 184.445L1520.5 183.218L1520 184.343L1519.5 191.193L1518.1 189.046V192.216L1516.2 191.296L1514.9 187.41L1512.6 184.139L1513.9 181.992L1509 176.675V197.421V1665H1920.7L1923 177.893L1922.5 178.506Z" fill="#175B7C"/>
<path d="M277 301H1920V2301H277L277 301Z" fill="url(#paint9_linear_1558_19637)"/>
<path d="M625.37 37.09C625.25 37.18 625.11 37.27 624.94 37.37C624.92 37.17 624.87 36.98 624.8 36.8C623.66 34.24 622.2 32.96 620.4 32.96C618.22 32.96 616.14 33.67 614.15 35.09C612.07 36.51 611.02 38.12 611.02 39.92C611.02 40.77 611.16 41.96 611.45 43.47C611.45 44.13 611.17 44.75 610.6 45.32C610.03 45.89 609.42 46.17 608.75 46.17C607.8 46.17 607.14 45.98 606.76 45.6C606.38 45.13 605.77 44.89 604.91 44.89C604.34 44.89 603.3 45.55 601.78 46.88C600.17 48.21 599.22 48.87 598.94 48.87C598.09 48.11 596.86 47.73 595.25 47.73C593.73 47.73 592.31 48.2 590.99 49.15C589.66 50 589 50.9 589 51.85V52.28C638.8 50.98 680.9 50.46 715.31 50.72C715.4 50.37 715.45 49.95 715.45 49.44C715.45 46.6 713.98 45.18 711.05 45.18C709.16 45.27 707.83 45.61 707.07 46.17H706.08C706.27 45.6 706.32 45.13 706.22 44.75C706.03 43.99 705.23 43.61 703.8 43.61C702.37 43.61 701.29 43.8 700.53 44.18V42.47C700.62 41.71 700.34 41.33 699.68 41.33C699.49 41.33 699.16 41.42 698.69 41.61C698.6 41.63 698.5 41.63 698.41 41.61C698.5 41.39 698.55 40.91 698.55 40.19C698.55 35.83 696.56 33.65 692.58 33.65C687.65 33.65 684.91 35.31 684.34 38.62C683.77 41.84 683.16 43.45 682.49 43.45C681.92 43.45 681.26 43.31 680.5 43.02C679.74 42.64 679.32 42.45 679.22 42.45C678.94 42.45 678.23 42.78 677.09 43.44C675.86 44.01 675.05 44.29 674.67 44.29C674.01 44.29 673.44 43.72 672.96 42.58C672.58 41.35 671.82 40.73 670.69 40.73C669.65 40.73 668.85 40.87 668.27 41.16C668.3 41.27 668.3 41.36 668.27 41.44L667.84 41.72C667.96 41.51 668.1 41.32 668.27 41.15C669.6 38.11 670.26 36.45 670.26 36.18C670.26 34.76 670.17 33.81 669.98 33.34C669.41 32.01 668.09 31.35 666 31.35H665.57C665.47 28.17 664.57 25.28 662.87 22.68C660.41 18.89 656.71 17 651.79 17C647.15 17 643.17 18.33 639.85 20.98C636.35 23.73 634.59 27.28 634.59 31.64C634.59 33.44 634.78 35.33 635.16 37.32H635.02C634.74 36.75 634.45 36.28 634.17 35.9C633.51 35.24 632.65 34.91 631.61 34.91C629.43 34.91 627.35 35.62 625.36 37.04M753.66 45.71C753.66 43.34 753.57 41.87 753.38 41.31C752.72 39.7 751.11 38.89 748.55 38.89C744.38 38.89 741.92 39.79 741.16 41.59C740.78 42.54 740.83 43.77 741.3 45.28H739.88C738.65 44.81 737.75 44.57 737.18 44.57C736.52 44.57 735.9 45.04 735.33 45.99C734.86 46.94 734.38 47.41 733.91 47.41C733.25 47.41 732.54 47.03 731.78 46.27C731.02 45.42 730.55 44.99 730.36 44.99C730.08 44.99 729.46 45.18 728.51 45.56C727.47 45.94 726.71 46.37 726.24 46.84C725.29 47.5 724.82 48.26 724.82 49.11C724.78 49.82 724.73 50.34 724.68 50.67C728.85 50.78 738.32 50.69 753.1 50.39C753.48 49.26 753.67 47.69 753.67 45.7M766.03 44.14C764.89 44.14 763.8 44.57 762.76 45.42C761.38 46.62 760.71 48.23 760.77 50.25C765.23 50.13 770.06 49.99 775.26 49.82C775.54 49.02 775.69 48.45 775.69 48.11C775.69 46.4 774.79 45.55 772.99 45.55C770.43 46.02 769.11 46.26 769.01 46.26C768.35 46.26 767.78 45.93 767.3 45.27C766.92 44.51 766.49 44.13 766.02 44.13L766.03 44.14Z" fill="#4D7898"/>
<path fill-rule="evenodd" clip-rule="evenodd" d="M562.485 20.1375C560.391 20.162 558.266 20.5874 556.219 21.4572C547.814 25.0281 543.895 34.7367 547.466 43.142C551.037 51.5473 560.745 55.4664 569.151 51.8955C571.198 51.0257 572.979 49.7917 574.451 48.3012C567.946 48.3772 561.733 44.5861 559.032 38.2281C556.331 31.8701 557.915 24.7664 562.485 20.1375Z" fill="#E3EDF5"/>
<circle cx="500" cy="30" r="1" fill="#E3EDF5"/>
<circle cx="549.5" cy="83.5" r="1.5" fill="#E3EDF5"/>
<circle cx="309.5" cy="14.5" r="1.5" fill="#E3EDF5"/>
<circle cx="396.5" cy="109.5" r="1.5" fill="#E3EDF5"/>
<circle cx="670.5" cy="11.5" r="1.5" fill="#E3EDF5"/>
<circle cx="782.5" cy="121.5" r="1.5" fill="#E3EDF5"/>
<circle cx="898.5" cy="8.5" r="1.5" fill="#E3EDF5"/>
<circle cx="751" cy="8" r="1" fill="#E3EDF5"/>
<circle cx="288" cy="96" r="1" fill="#E3EDF5"/>
<circle cx="1110" cy="30" r="1" fill="#E3EDF5"/>
<circle cx="1159.5" cy="83.5" r="1.5" fill="#E3EDF5"/>
<circle cx="919.5" cy="14.5" r="1.5" fill="#E3EDF5"/>
<circle cx="1006.5" cy="109.5" r="1.5" fill="#E3EDF5"/>
<circle cx="1280.5" cy="11.5" r="1.5" fill="#E3EDF5"/>
<circle cx="1392.5" cy="121.5" r="1.5" fill="#E3EDF5"/>
<circle cx="1508.5" cy="8.5" r="1.5" fill="#E3EDF5"/>
<circle cx="1361" cy="8" r="1" fill="#E3EDF5"/>
<circle cx="898" cy="96" r="1" fill="#E3EDF5"/>
<circle cx="1358" cy="30" r="1" fill="#E3EDF5"/>
<circle cx="1407.5" cy="83.5" r="1.5" fill="#E3EDF5"/>
<circle cx="1167.5" cy="14.5" r="1.5" fill="#E3EDF5"/>
<circle cx="1254.5" cy="109.5" r="1.5" fill="#E3EDF5"/>
<circle cx="1528.5" cy="11.5" r="1.5" fill="#E3EDF5"/>
<circle cx="1640.5" cy="121.5" r="1.5" fill="#E3EDF5"/>
<circle cx="1756.5" cy="8.5" r="1.5" fill="#E3EDF5"/>
<circle cx="1609" cy="8" r="1" fill="#E3EDF5"/>
<circle cx="1146" cy="96" r="1" fill="#E3EDF5"/>
<g clip-path="url(#clip2_1558_19637)">
<path d="M169.898 133.846L115.798 109.939L103.998 114.673L91.1984 97.0385L85.2984 91.8311L75.8984 97.0385L63.5984 108.164L54.6984 105.796L31.3984 122.721L12.7984 120.472L-17.3015 137.988L66.2984 181.186L169.898 133.846Z" fill="#BCD2E4"/>
<path d="M-136.997 184.145L277 182.5V160.25V105.098L244.803 116.804L234.603 114.082L227.503 116.804L204.203 108.046L188.003 123.668L182.903 120.118L168.203 132.663L153.503 129.704L132.703 145.918L113.403 141.657L101.303 153.137L96.2031 152.546L75.4031 168.641L57.2031 162.132L50.6031 150.06L40.7031 143.551L22.2031 144.143L12.0031 136.923L-12.7969 129.112L-18.8969 122.485L-23.9969 116.804L-35.0969 121.893L-50.2969 116.804L-65.9969 125.443L-80.1969 120.118H-108.097L-117.297 129.112L-130 117L-136.997 116.685" fill="url(#paint10_linear_1558_19637)"/>
<path d="M-136.997 212.55L277 213V191.484V126.367L240.203 135.149L218.703 152.546H198.803L174.403 147.931L148.303 155.978L120.503 167.34L108.103 172.429L101.803 182.844L93.9031 178.11L76.3031 183.436L53.1031 172.429L40.7031 169.352L23.6031 153.966L-14.9969 168.76H-24.5969L-45.5969 158.937L-58.6969 149.232L-77.7969 158.937H-94.9969L-103.497 149.232L-112.497 155.268L-136.997 132.427" fill="url(#paint11_linear_1558_19637)"/>
<path d="M-136.5 176.506L-135.9 178.04H-134.4L-134.7 180.391L-135.7 182.947L-134.5 184.583L-136 186.321L-136.988 183.5L-134.688 181.966V180.126L-133.788 178.899L-133.388 177.57L-133.788 175.73L-132.488 174.707L-131.988 173.276L-132.788 172.049L-131.288 171.129L-131.988 170.72L-129.5 168L-129 165.5L-127.888 169.084L-126.588 170.72L-125.288 172.049L-124.888 173.889L-123.788 175.321L-124.588 176.752V177.979L-123.188 179.001L-122.588 180.637L-123.188 183.5L-119.5 189.286V187.651L-118.5 185.401L-116.4 184.379L-116 186.935L-114.9 186.628L-114.1 188.06L-112.5 188.775L-113.5 190.002L-112 192.456H-102L-102.1 191.74V189.695L-100.8 189.491L-100.9 187.446L-101.7 186.321L-100.5 184.992L-100.6 182.845L-99.2003 182.232L-99.6003 181.107H-97.1003L-97.2003 179.267L-95.4002 178.04L-94.9002 179.164L-94.4002 182.947L-93.0002 183.868L-93.5002 186.219H-91.7003L-91.4002 185.503L-92.8002 184.788L-90.6003 183.97L-90.5002 182.538L-91.4002 181.414L-89.1003 180.494L-87.4002 178.96L-86.9002 181.107L-85.9002 184.072L-84.2003 183.868V186.833L-82.6003 188.06L-82.8002 190.002L-81.6003 191.331L-81.8002 192.456H-78.9002L-78.6003 191.433L-79.2003 190.002L-77.2003 189.184L-78.2003 187.344L-77.0002 186.73L-76.7003 183.05L-75.2003 181.823L-76.2003 179.573L-74.2003 179.778V178.142L-74.3002 176.404L-72.6003 175.279L-74.1003 172.621L-72.2003 171.599L-72.6003 169.554L-70.7003 168.94L-71.2003 167.304L-69.6003 165.975L-67.5002 164.135L-66.9002 167.816L-64.9002 168.838L-65.8002 170.372L-64.9002 172.11H-63.4002L-64.6003 175.075L-63.3002 174.052L-62.4002 175.279L-61.9002 177.835L-61.7003 181.312L-61.4002 179.573L-59.8002 179.471L-59.2003 177.938L-57.7003 178.756L-56.2003 180.289L-55.6003 181.823H-54.1003L-54.3002 184.174L-55.3002 186.73L-54.2003 188.366L-55.7003 190.002L-55.6003 192.456H-54.5002L-53.2003 191.74V189.9L-52.3002 188.673L-51.9002 187.344L-52.3002 185.503L-51.1003 184.481L-50.6003 183.05L-51.3002 181.823L-49.8002 180.903L-50.2003 179.573L-48.5002 178.449L-47.3002 176.813L-46.5002 178.858L-45.1003 180.494L-43.9002 181.823L-43.5002 183.663L-42.4002 185.094L-43.1003 186.526V187.753L-41.7003 188.775L-41.1003 190.411L-41.6003 192.456H-39.1003V191.433L-38.1003 189.184L-36.0002 188.162L-35.7003 190.718L-34.5002 190.411L-33.8002 191.842L-32.2003 192.456H-20.5002L-20.6003 191.229L-21.3002 190.002L-20.1003 188.775L-20.2003 186.628L-18.9002 186.015L-19.2003 184.788H-16.7003L-16.9002 183.05L-15.0002 181.823L-14.5002 182.947L-14.0002 186.73L-13.0002 187.446L-12.5002 186.219H-10.2003L-10.6003 183.868L-9.30023 182.947L-8.80023 179.164L-8.30023 178.04L-6.40024 179.267L-6.50024 181.107H-4.00024L-4.40024 182.232L-3.00024 182.845L-3.20026 184.992L-1.90024 186.321L-2.70026 187.446L-2.80023 189.491L-1.60025 189.695V191.74L-1.70026 192.456H8.39975L9.89975 190.002L8.89975 188.775L10.4998 188.06L11.2997 186.628L12.3997 186.935L12.7997 184.379L14.8997 185.401L15.8997 187.651V189.286L18.4998 189.491L17.8997 186.628L18.4998 184.992L19.7997 183.97V182.743L19.0998 181.312L20.1998 179.88L20.5998 178.04L21.7998 176.711L23.1998 175.075L24.0998 173.03L25.1998 174.666L26.8998 175.893L26.5998 177.12L28.0998 178.04L27.2998 179.267L27.7998 180.698L28.9998 181.721L28.6998 183.561L28.9998 184.89L29.9998 186.117V187.957L32.2998 189.491L32.3998 186.321L30.8998 184.583L31.9998 182.947L30.9998 180.391L30.7998 178.04H32.2998L32.8998 176.506L34.3998 174.973L35.8998 174.155L36.4998 175.688L38.0998 175.893L38.3998 177.529L38.5998 174.052L39.0998 171.496L39.9998 170.269L41.3998 171.292L40.0998 168.327H41.5998L42.4998 166.589L41.5998 165.055L43.5998 164.033L44.1998 160.352L46.2998 162.192L47.9998 163.521L47.4998 165.157L49.2998 165.771L48.9998 167.816L50.7998 168.838L49.2998 171.496L51.0998 172.621L50.8998 174.359V175.995L52.8998 175.893L51.8998 178.04L53.3998 179.267L53.6998 182.947L54.8998 183.561L53.8998 185.401L55.8998 186.219L55.2998 187.651L56.1998 190.513L58.6998 189.593L58.2998 187.548L59.4998 186.219L59.2998 184.277L60.8998 183.05V180.085L62.5998 180.289L63.5998 177.426L64.0998 175.177L65.8998 176.711L68.0998 177.631L67.1998 178.756L67.3998 180.187L69.4998 181.107L68.0998 181.721L68.6998 183.254L70.7998 184.072L68.4998 186.219L68.8998 188.775H70.9998L70.5998 189.798V191.842L73.2998 192.047L72.7998 192.456H84.6998L85.1998 191.331L83.7998 190.718L85.8998 189.798L85.9998 188.366L85.1998 187.242L87.3998 186.321L89.0998 184.788L89.5998 186.935L90.5998 189.9L92.3998 189.695V192.456H92.5998L93.8998 190.002H96.1998L95.6998 187.957L97.0998 187.242L97.5998 183.97L98.0998 182.947L99.9998 184.072L99.7998 185.606H100.4L100.3 185.503L102.3 185.606V183.97L102.2 182.232L103.9 181.107L102.4 178.449L104.3 177.426L103.9 175.382L105.8 174.768L105.3 173.132L106.9 171.803L109 169.963L109.7 173.643L111.7 174.666L110.8 176.199L111.7 177.938H113.1L111.9 180.903L113.3 179.88L114.1 181.107L114.6 183.663L114.9 187.139L115.1 185.503L116.8 185.299L117.4 183.765L118.9 184.583L120.4 186.117L121 187.651H122.5L122.2 190.002L122 190.718L122.2 191.229V192.456H124.5L124.2 191.331L124.4 191.127L124.2 190.411L124.8 188.98L125.7 188.468L125.2 187.651L126.2 187.037L125.5 185.81L126.6 184.583L127 182.947L128.2 181.925L129.6 180.494L130.4 178.756L131.6 180.187L133.3 181.107L132.9 182.232L134.4 182.947L133.7 184.072L134.2 185.299L135.4 186.117L135 187.753L135.4 188.877L136.3 189.9V191.433L138.2 192.456H138.7L138.8 190.002L137.3 188.673L138.4 187.242L137.4 184.992L137.2 182.947H138.6L139.3 181.721L140.8 180.391L142.3 179.676L142.9 181.005L144.5 181.107L144.7 182.538L145 179.573L145.5 177.426L146.4 176.302L147.7 177.222L146.5 174.768H148L148.8 173.234L148 171.905L150 170.985L150.6 167.918L152.7 169.554L154.3 170.576L153.8 172.008L155.7 172.519L155.3 174.257L157.2 175.177L155.7 177.426L157.4 178.449L157.3 179.778V181.209L159.3 181.107L158.3 182.947L159.8 184.072L160 187.242L161.3 187.753L161.2 187.855L161.5 187.651L162 188.775L162.2 189.9L162.3 190.002L162.2 190.104L162.5 192.456H164.9L164.6 191.127L165.9 190.002L165.6 188.264L167.3 187.344V184.686L169 184.89L170 182.436L170.5 180.596L172.2 181.925L174.5 182.641L173.6 183.663L173.7 184.788L175.8 185.606L174.5 186.117L175.1 187.446L177.2 188.162L174.8 190.002L175.2 192.149H177.3L177.2 192.456H184.9L185.6 191.842L183.9 190.513L186.7 190.309V188.366L186.3 187.242H188.4L188.8 184.686L186.4 182.641L188.5 181.721L189.2 180.187L187.8 179.573L189.9 178.653L190 177.222L189.2 176.097L191.4 175.177L193.1 173.643L193.6 175.893L194.6 178.756L196.4 178.551V181.618L198 182.743L197.8 184.686L199 186.015L198.6 188.06L201.1 188.98L202 186.117L201.4 184.686L203.4 183.868L202.4 182.129L203.6 181.414L203.8 177.733L205.3 176.506L204.3 174.359L206.3 174.461V172.825L206.2 171.19L208 169.963L206.5 167.304L208.3 166.282L208 164.237L209.8 163.624L209.3 161.988L210.9 160.761L213.1 158.818L213.7 162.499L215.7 163.521L214.8 165.055L215.7 166.793H217.2L215.9 169.758L217.3 168.736L218.2 169.963L218.7 172.519L218.9 175.995L219.1 174.359L220.8 174.155L221.4 172.621L222.9 173.439L224.4 174.973L225 176.506H226.5L226.2 178.858L225.2 181.414L226.4 183.05L224.9 184.788L225 187.957L227.3 186.424V184.583L228.2 183.356L228.6 182.129L228.2 180.187L229.5 179.164L230 177.733L229.2 176.506L230.7 175.586L230.3 174.359L232.1 173.132L233.2 171.496L234.1 173.541L235.4 175.177L236.7 176.506L237.1 178.347L238.2 179.778L237.4 181.209V182.436L238.8 183.459L239.4 185.094L238.8 187.957L241.4 187.855V186.117L242.4 183.868L244.5 182.845L244.9 185.401L246 185.094L246.8 186.526L248.4 187.242L247.4 188.468L248.2 189.9L248.4 187.242L247.9 183.868L250.4 181.107L249.9 179.062L251.9 178.449L254.2 174.359L255.9 177.835L255.7 179.778L257.1 181.107L256.5 182.743L259.2 184.788L260.4 183.459L260.3 181.312L261.7 180.698L261.3 179.573H263.8L263.7 177.733L265.5 176.506L266 177.631L266.5 181.414L267.9 182.334V182.436L269.8 181.516L271.1 177.631L273.4 174.359L272.1 172.212L277 166.895V195.421V1663H-134.7L-137 175.893L-136.5 176.506Z" fill="#175B7C"/>
<path d="M277 301H-1366V2301H277L277 301Z" fill="url(#paint12_linear_1558_19637)"/>
<circle r="1" transform="matrix(-1 0 0 1 54 30)" fill="#E3EDF5"/>
<circle r="1.5" transform="matrix(-1 0 0 1 4.5 83.5)" fill="#E3EDF5"/>
<circle r="1.5" transform="matrix(-1 0 0 1 244.5 14.5)" fill="#E3EDF5"/>
<circle r="1.5" transform="matrix(-1 0 0 1 157.5 109.5)" fill="#E3EDF5"/>
<circle r="1" transform="matrix(-1 0 0 1 266 96)" fill="#E3EDF5"/>
</g>
</g>
</g>
<defs>
<linearGradient id="paint0_linear_1558_19637" x1="393.558" y1="160.759" x2="393.558" y2="-74.5455" gradientUnits="userSpaceOnUse">
<stop offset="0.1875" stop-color="#114C68"/>
<stop offset="0.661458" stop-color="#030C10"/>
</linearGradient>
<linearGradient id="paint1_linear_1558_19637" x1="484.11" y1="176.067" x2="484.153" y2="131.217" gradientUnits="userSpaceOnUse">
<stop stop-color="#ABC7E0"/>
<stop offset="1" stop-color="#8AB2D3"/>
</linearGradient>
<linearGradient id="paint2_linear_1558_19637" x1="484.036" y1="212.782" x2="484.182" y2="165.35" gradientUnits="userSpaceOnUse">
<stop offset="0.1417" stop-color="#80A5C1"/>
<stop offset="1" stop-color="#5281A4"/>
</linearGradient>
<linearGradient id="paint3_linear_1558_19637" x1="890.813" y1="187.98" x2="890.856" y2="143.13" gradientUnits="userSpaceOnUse">
<stop stop-color="#ABC7E0"/>
<stop offset="1" stop-color="#8AB2D3"/>
</linearGradient>
<linearGradient id="paint4_linear_1558_19637" x1="890.74" y1="225.392" x2="890.885" y2="177.959" gradientUnits="userSpaceOnUse">
<stop offset="0.1417" stop-color="#80A5C1"/>
<stop offset="1" stop-color="#5281A4"/>
</linearGradient>
<linearGradient id="paint5_linear_1558_19637" x1="1301.89" y1="178.067" x2="1301.85" y2="133.217" gradientUnits="userSpaceOnUse">
<stop stop-color="#ABC7E0"/>
<stop offset="1" stop-color="#8AB2D3"/>
</linearGradient>
<linearGradient id="paint6_linear_1558_19637" x1="1301.96" y1="214.782" x2="1301.82" y2="167.35" gradientUnits="userSpaceOnUse">
<stop offset="0.1417" stop-color="#80A5C1"/>
<stop offset="1" stop-color="#5281A4"/>
</linearGradient>
<linearGradient id="paint7_linear_1558_19637" x1="1716.11" y1="178.067" x2="1716.15" y2="133.217" gradientUnits="userSpaceOnUse">
<stop stop-color="#ABC7E0"/>
<stop offset="1" stop-color="#8AB2D3"/>
</linearGradient>
<linearGradient id="paint8_linear_1558_19637" x1="1716.04" y1="214.782" x2="1716.18" y2="167.35" gradientUnits="userSpaceOnUse">
<stop offset="0.1417" stop-color="#80A5C1"/>
<stop offset="1" stop-color="#5281A4"/>
</linearGradient>
<linearGradient id="paint9_linear_1558_19637" x1="1071.08" y1="301" x2="1067.47" y2="943.315" gradientUnits="userSpaceOnUse">
<stop offset="0.4375" stop-color="#145A75"/>
<stop offset="1" stop-color="#F2F2F2"/>
</linearGradient>
<linearGradient id="paint10_linear_1558_19637" x1="69.8899" y1="176.067" x2="69.8472" y2="131.217" gradientUnits="userSpaceOnUse">
<stop stop-color="#ABC7E0"/>
<stop offset="1" stop-color="#8AB2D3"/>
</linearGradient>
<linearGradient id="paint11_linear_1558_19637" x1="69.9635" y1="212.782" x2="69.8178" y2="165.35" gradientUnits="userSpaceOnUse">
<stop offset="0.1417" stop-color="#80A5C1"/>
<stop offset="1" stop-color="#5281A4"/>
</linearGradient>
<linearGradient id="paint12_linear_1558_19637" x1="-517.079" y1="301" x2="-513.475" y2="943.315" gradientUnits="userSpaceOnUse">
<stop offset="0.4375" stop-color="#145A75"/>
<stop offset="1" stop-color="#F2F2F2"/>
</linearGradient>
<clipPath id="clip0_1558_19637">
<rect width="1920" height="984" fill="white"/>
</clipPath>
<clipPath id="clip1_1558_19637">
<rect width="1923" height="1011" fill="white" transform="translate(0 7)"/>
</clipPath>
<clipPath id="clip2_1558_19637">
<rect width="277" height="2294" fill="white" transform="matrix(-1 0 0 1 277 7)"/>
</clipPath>
</defs>
</svg>
