<svg width="834" height="984" viewBox="0 0 834 984" fill="none" xmlns="http://www.w3.org/2000/svg">
<g clip-path="url(#clip0_1558_19275)">
<path d="M834 0H0V984H834V0Z" fill="url(#paint0_linear_1558_19275)"/>
<circle cx="289" cy="105" r="25" fill="#FFD179"/>
<path d="M63.37 105.09C63.25 105.18 63.11 105.27 62.94 105.37C62.92 105.17 62.87 104.98 62.8 104.8C61.66 102.24 60.2 100.96 58.4 100.96C56.22 100.96 54.14 101.67 52.15 103.09C50.07 104.51 49.02 106.12 49.02 107.92C49.02 108.77 49.16 109.96 49.45 111.47C49.45 112.13 49.17 112.75 48.6 113.32C48.03 113.89 47.42 114.17 46.75 114.17C45.8 114.17 45.14 113.98 44.76 113.6C44.38 113.13 43.77 112.89 42.91 112.89C42.34 112.89 41.3 113.55 39.78 114.88C38.17 116.21 37.22 116.87 36.94 116.87C36.09 116.11 34.86 115.73 33.25 115.73C31.73 115.73 30.31 116.2 28.99 117.15C27.66 118 27 118.9 27 119.85V120.28C76.8 118.98 118.9 118.46 153.31 118.72C153.4 118.37 153.45 117.95 153.45 117.44C153.45 114.6 151.98 113.18 149.05 113.18C147.16 113.27 145.83 113.61 145.07 114.17H144.08C144.27 113.6 144.32 113.13 144.22 112.75C144.03 111.99 143.23 111.61 141.8 111.61C140.37 111.61 139.29 111.8 138.53 112.18V110.47C138.62 109.71 138.34 109.33 137.68 109.33C137.49 109.33 137.16 109.42 136.69 109.61C136.6 109.63 136.5 109.63 136.41 109.61C136.5 109.39 136.55 108.91 136.55 108.19C136.55 103.83 134.56 101.65 130.58 101.65C125.65 101.65 122.91 103.31 122.34 106.62C121.77 109.84 121.16 111.45 120.49 111.45C119.92 111.45 119.26 111.31 118.5 111.02C117.74 110.64 117.32 110.45 117.22 110.45C116.94 110.45 116.23 110.78 115.09 111.44C113.86 112.01 113.05 112.29 112.67 112.29C112.01 112.29 111.44 111.72 110.96 110.58C110.58 109.35 109.82 108.73 108.69 108.73C107.65 108.73 106.85 108.87 106.27 109.16C106.3 109.27 106.3 109.36 106.27 109.44L105.84 109.72C105.96 109.51 106.1 109.32 106.27 109.15C107.6 106.11 108.26 104.45 108.26 104.18C108.26 102.76 108.17 101.81 107.98 101.34C107.41 100.01 106.09 99.35 104 99.35H103.57C103.47 96.17 102.57 93.28 100.87 90.68C98.41 86.89 94.71 85 89.79 85C85.15 85 81.17 86.33 77.85 88.98C74.35 91.73 72.59 95.28 72.59 99.64C72.59 101.44 72.78 103.33 73.16 105.32H73.02C72.74 104.75 72.45 104.28 72.17 103.9C71.51 103.24 70.65 102.91 69.61 102.91C67.43 102.91 65.35 103.62 63.36 105.04M191.66 113.71C191.66 111.34 191.57 109.87 191.38 109.31C190.72 107.7 189.11 106.89 186.55 106.89C182.38 106.89 179.92 107.79 179.16 109.59C178.78 110.54 178.83 111.77 179.3 113.28H177.88C176.65 112.81 175.75 112.57 175.18 112.57C174.52 112.57 173.9 113.04 173.33 113.99C172.86 114.94 172.38 115.41 171.91 115.41C171.25 115.41 170.54 115.03 169.78 114.27C169.02 113.42 168.55 112.99 168.36 112.99C168.08 112.99 167.46 113.18 166.51 113.56C165.47 113.94 164.71 114.37 164.24 114.84C163.29 115.5 162.82 116.26 162.82 117.11C162.78 117.82 162.73 118.34 162.68 118.67C166.85 118.78 176.32 118.69 191.1 118.39C191.48 117.26 191.67 115.69 191.67 113.7M204.03 112.14C202.89 112.14 201.8 112.57 200.76 113.42C199.38 114.62 198.71 116.23 198.77 118.25C203.23 118.13 208.06 117.99 213.26 117.82C213.54 117.02 213.69 116.45 213.69 116.11C213.69 114.4 212.79 113.55 210.99 113.55C208.43 114.02 207.11 114.26 207.01 114.26C206.35 114.26 205.78 113.93 205.3 113.27C204.92 112.51 204.49 112.13 204.02 112.13L204.03 112.14Z" fill="white"/>
<path d="M282.319 115.09C282.439 115.18 282.579 115.27 282.749 115.37C282.769 115.17 282.819 114.98 282.889 114.8C284.029 112.24 285.489 110.96 287.289 110.96C289.469 110.96 291.549 111.67 293.539 113.09C295.619 114.51 296.669 116.12 296.669 117.92C296.669 118.77 296.529 119.96 296.239 121.47C296.239 122.13 296.519 122.75 297.089 123.32C297.659 123.89 298.269 124.17 298.939 124.17C299.889 124.17 300.549 123.98 300.929 123.6C301.309 123.13 301.919 122.89 302.779 122.89C303.349 122.89 304.389 123.55 305.909 124.88C307.519 126.21 308.469 126.87 308.749 126.87C309.599 126.11 310.829 125.73 312.439 125.73C313.959 125.73 315.379 126.2 316.699 127.15C318.029 128 318.689 128.9 318.689 129.85V130.28C268.889 128.98 226.789 128.46 192.379 128.72C192.289 128.37 192.239 127.95 192.239 127.44C192.239 124.6 193.709 123.18 196.639 123.18C198.529 123.27 199.859 123.61 200.619 124.17H201.609C201.419 123.6 201.369 123.13 201.469 122.75C201.659 121.99 202.459 121.61 203.889 121.61C205.319 121.61 206.399 121.8 207.159 122.18V120.47C207.069 119.71 207.349 119.33 208.009 119.33C208.199 119.33 208.529 119.42 208.999 119.61C209.089 119.63 209.189 119.63 209.279 119.61C209.189 119.39 209.139 118.91 209.139 118.19C209.139 113.83 211.129 111.65 215.109 111.65C220.039 111.65 222.779 113.31 223.349 116.62C223.919 119.84 224.529 121.45 225.199 121.45C225.769 121.45 226.429 121.31 227.189 121.02C227.949 120.64 228.369 120.45 228.469 120.45C228.749 120.45 229.459 120.78 230.599 121.44C231.829 122.01 232.639 122.29 233.019 122.29C233.679 122.29 234.249 121.72 234.729 120.58C235.109 119.35 235.869 118.73 236.999 118.73C238.039 118.73 238.839 118.87 239.419 119.16C239.389 119.27 239.389 119.36 239.419 119.44L239.849 119.72C239.729 119.51 239.589 119.32 239.419 119.15C238.089 116.11 237.429 114.45 237.429 114.18C237.429 112.76 237.519 111.81 237.709 111.34C238.279 110.01 239.599 109.35 241.689 109.35H242.119C242.219 106.17 243.119 103.28 244.819 100.68C247.279 96.89 250.979 95 255.899 95C260.539 95 264.519 96.33 267.839 98.98C271.339 101.73 273.099 105.28 273.099 109.64C273.099 111.44 272.909 113.33 272.529 115.32H272.669C272.949 114.75 273.239 114.28 273.519 113.9C274.179 113.24 275.039 112.91 276.079 112.91C278.259 112.91 280.339 113.62 282.329 115.04M154.029 123.71C154.029 121.34 154.119 119.87 154.309 119.31C154.969 117.7 156.579 116.89 159.139 116.89C163.309 116.89 165.769 117.79 166.529 119.59C166.909 120.54 166.859 121.77 166.389 123.28H167.809C169.039 122.81 169.939 122.57 170.509 122.57C171.169 122.57 171.789 123.04 172.359 123.99C172.829 124.94 173.309 125.41 173.779 125.41C174.439 125.41 175.149 125.03 175.909 124.27C176.669 123.42 177.139 122.99 177.329 122.99C177.609 122.99 178.229 123.18 179.179 123.56C180.219 123.94 180.979 124.37 181.449 124.84C182.399 125.5 182.869 126.26 182.869 127.11C182.909 127.82 182.959 128.34 183.009 128.67C178.839 128.78 169.369 128.69 154.589 128.39C154.209 127.26 154.019 125.69 154.019 123.7M141.659 122.14C142.799 122.14 143.889 122.57 144.929 123.42C146.309 124.62 146.979 126.23 146.919 128.25C142.459 128.13 137.629 127.99 132.429 127.82C132.149 127.02 131.999 126.45 131.999 126.11C131.999 124.4 132.899 123.55 134.699 123.55C137.259 124.02 138.579 124.26 138.679 124.26C139.339 124.26 139.909 123.93 140.389 123.27C140.769 122.51 141.199 122.13 141.669 122.13L141.659 122.14Z" fill="white"/>
<path d="M333.37 80.09C333.25 80.18 333.11 80.27 332.94 80.37C332.92 80.17 332.87 79.98 332.8 79.8C331.66 77.24 330.2 75.96 328.4 75.96C326.22 75.96 324.14 76.67 322.15 78.09C320.07 79.51 319.02 81.12 319.02 82.92C319.02 83.77 319.16 84.96 319.45 86.47C319.45 87.13 319.17 87.75 318.6 88.32C318.03 88.89 317.42 89.17 316.75 89.17C315.8 89.17 315.14 88.98 314.76 88.6C314.38 88.13 313.77 87.89 312.91 87.89C312.34 87.89 311.3 88.55 309.78 89.88C308.17 91.21 307.22 91.87 306.94 91.87C306.09 91.11 304.86 90.73 303.25 90.73C301.73 90.73 300.31 91.2 298.99 92.15C297.66 93 297 93.9 297 94.85V95.28C346.8 93.98 388.9 93.46 423.31 93.72C423.4 93.37 423.45 92.95 423.45 92.44C423.45 89.6 421.98 88.18 419.05 88.18C417.16 88.27 415.83 88.61 415.07 89.17H414.08C414.27 88.6 414.32 88.13 414.22 87.75C414.03 86.99 413.23 86.61 411.8 86.61C410.37 86.61 409.29 86.8 408.53 87.18V85.47C408.62 84.71 408.34 84.33 407.68 84.33C407.49 84.33 407.16 84.42 406.69 84.61C406.6 84.63 406.5 84.63 406.41 84.61C406.5 84.39 406.55 83.91 406.55 83.19C406.55 78.83 404.56 76.65 400.58 76.65C395.65 76.65 392.91 78.31 392.34 81.62C391.77 84.84 391.16 86.45 390.49 86.45C389.92 86.45 389.26 86.31 388.5 86.02C387.74 85.64 387.32 85.45 387.22 85.45C386.94 85.45 386.23 85.78 385.09 86.44C383.86 87.01 383.05 87.29 382.67 87.29C382.01 87.29 381.44 86.72 380.96 85.58C380.58 84.35 379.82 83.73 378.69 83.73C377.65 83.73 376.85 83.87 376.27 84.16C376.3 84.27 376.3 84.36 376.27 84.44L375.84 84.72C375.96 84.51 376.1 84.32 376.27 84.15C377.6 81.11 378.26 79.45 378.26 79.18C378.26 77.76 378.17 76.81 377.98 76.34C377.41 75.01 376.09 74.35 374 74.35H373.57C373.47 71.17 372.57 68.28 370.87 65.68C368.41 61.89 364.71 60 359.79 60C355.15 60 351.17 61.33 347.85 63.98C344.35 66.73 342.59 70.28 342.59 74.64C342.59 76.44 342.78 78.33 343.16 80.32H343.02C342.74 79.75 342.45 79.28 342.17 78.9C341.51 78.24 340.65 77.91 339.61 77.91C337.43 77.91 335.35 78.62 333.36 80.04M461.66 88.71C461.66 86.34 461.57 84.87 461.38 84.31C460.72 82.7 459.11 81.89 456.55 81.89C452.38 81.89 449.92 82.79 449.16 84.59C448.78 85.54 448.83 86.77 449.3 88.28H447.88C446.65 87.81 445.75 87.57 445.18 87.57C444.52 87.57 443.9 88.04 443.33 88.99C442.86 89.94 442.38 90.41 441.91 90.41C441.25 90.41 440.54 90.03 439.78 89.27C439.02 88.42 438.55 87.99 438.36 87.99C438.08 87.99 437.46 88.18 436.51 88.56C435.47 88.94 434.71 89.37 434.24 89.84C433.29 90.5 432.82 91.26 432.82 92.11C432.78 92.82 432.73 93.34 432.68 93.67C436.85 93.78 446.32 93.69 461.1 93.39C461.48 92.26 461.67 90.69 461.67 88.7M474.03 87.14C472.89 87.14 471.8 87.57 470.76 88.42C469.38 89.62 468.71 91.23 468.77 93.25C473.23 93.13 478.06 92.99 483.26 92.82C483.54 92.02 483.69 91.45 483.69 91.11C483.69 89.4 482.79 88.55 480.99 88.55C478.43 89.02 477.11 89.26 477.01 89.26C476.35 89.26 475.78 88.93 475.3 88.27C474.92 87.51 474.49 87.13 474.02 87.13L474.03 87.14Z" fill="white"/>
<path d="M266.37 30.09C266.25 30.18 266.11 30.27 265.94 30.37C265.92 30.17 265.87 29.98 265.8 29.8C264.66 27.24 263.2 25.96 261.4 25.96C259.22 25.96 257.14 26.67 255.15 28.09C253.07 29.51 252.02 31.12 252.02 32.92C252.02 33.77 252.16 34.96 252.45 36.47C252.45 37.13 252.17 37.75 251.6 38.32C251.03 38.89 250.42 39.17 249.75 39.17C248.8 39.17 248.14 38.98 247.76 38.6C247.38 38.13 246.77 37.89 245.91 37.89C245.34 37.89 244.3 38.55 242.78 39.88C241.17 41.21 240.22 41.87 239.94 41.87C239.09 41.11 237.86 40.73 236.25 40.73C234.73 40.73 233.31 41.2 231.99 42.15C230.66 43 230 43.9 230 44.85V45.28C279.8 43.98 321.9 43.46 356.31 43.72C356.4 43.37 356.45 42.95 356.45 42.44C356.45 39.6 354.98 38.18 352.05 38.18C350.16 38.27 348.83 38.61 348.07 39.17H347.08C347.27 38.6 347.32 38.13 347.22 37.75C347.03 36.99 346.23 36.61 344.8 36.61C343.37 36.61 342.29 36.8 341.53 37.18V35.47C341.62 34.71 341.34 34.33 340.68 34.33C340.49 34.33 340.16 34.42 339.69 34.61C339.6 34.63 339.5 34.63 339.41 34.61C339.5 34.39 339.55 33.91 339.55 33.19C339.55 28.83 337.56 26.65 333.58 26.65C328.65 26.65 325.91 28.31 325.34 31.62C324.77 34.84 324.16 36.45 323.49 36.45C322.92 36.45 322.26 36.31 321.5 36.02C320.74 35.64 320.32 35.45 320.22 35.45C319.94 35.45 319.23 35.78 318.09 36.44C316.86 37.01 316.05 37.29 315.67 37.29C315.01 37.29 314.44 36.72 313.96 35.58C313.58 34.35 312.82 33.73 311.69 33.73C310.65 33.73 309.85 33.87 309.27 34.16C309.3 34.27 309.3 34.36 309.27 34.44L308.84 34.72C308.96 34.51 309.1 34.32 309.27 34.15C310.6 31.11 311.26 29.45 311.26 29.18C311.26 27.76 311.17 26.81 310.98 26.34C310.41 25.01 309.09 24.35 307 24.35H306.57C306.47 21.17 305.57 18.28 303.87 15.68C301.41 11.89 297.71 10 292.79 10C288.15 10 284.17 11.33 280.85 13.98C277.35 16.73 275.59 20.28 275.59 24.64C275.59 26.44 275.78 28.33 276.16 30.32H276.02C275.74 29.75 275.45 29.28 275.17 28.9C274.51 28.24 273.65 27.91 272.61 27.91C270.43 27.91 268.35 28.62 266.36 30.04M394.66 38.71C394.66 36.34 394.57 34.87 394.38 34.31C393.72 32.7 392.11 31.89 389.55 31.89C385.38 31.89 382.92 32.79 382.16 34.59C381.78 35.54 381.83 36.77 382.3 38.28H380.88C379.65 37.81 378.75 37.57 378.18 37.57C377.52 37.57 376.9 38.04 376.33 38.99C375.86 39.94 375.38 40.41 374.91 40.41C374.25 40.41 373.54 40.03 372.78 39.27C372.02 38.42 371.55 37.99 371.36 37.99C371.08 37.99 370.46 38.18 369.51 38.56C368.47 38.94 367.71 39.37 367.24 39.84C366.29 40.5 365.82 41.26 365.82 42.11C365.78 42.82 365.73 43.34 365.68 43.67C369.85 43.78 379.32 43.69 394.1 43.39C394.48 42.26 394.67 40.69 394.67 38.7M407.03 37.14C405.89 37.14 404.8 37.57 403.76 38.42C402.38 39.62 401.71 41.23 401.77 43.25C406.23 43.13 411.06 42.99 416.26 42.82C416.54 42.02 416.69 41.45 416.69 41.11C416.69 39.4 415.79 38.55 413.99 38.55C411.43 39.02 410.11 39.26 410.01 39.26C409.35 39.26 408.78 38.93 408.3 38.27C407.92 37.51 407.49 37.13 407.02 37.13L407.03 37.14Z" fill="white"/>
<path d="M107.102 126.846L161.202 102.939L173.002 107.673L185.802 90.0385L191.702 84.8311L201.102 90.0385L213.402 101.164L222.302 98.7965L245.602 115.721L264.202 113.472L294.302 130.988L210.702 174.186L107.102 126.846Z" fill="#E3EDF5"/>
<path d="M413.997 177.145L0 175.5V153.25V98.0981L32.1969 109.803L42.3969 107.081L49.4969 109.803L72.7969 101.045L88.9969 116.668L94.0969 113.117L108.797 125.662L123.497 122.704L144.297 138.918L163.597 134.657L175.697 146.137L180.797 145.545L201.597 161.641L219.797 155.132L226.397 143.06L236.297 136.551L254.797 137.143L264.997 129.923L289.797 122.112L295.897 115.484L300.997 109.803L312.097 114.893L327.297 109.803L342.997 118.443L357.197 113.117H385.097L394.297 122.112L407 110L413.997 109.685" fill="url(#paint1_linear_1558_19275)"/>
<path d="M413.997 205.55L0 206V184.484V119.367L36.7969 128.149L58.2969 145.546H78.1969L102.597 140.931L128.697 148.979L156.497 160.34L168.897 165.429L175.197 175.844L183.097 171.11L200.697 176.436L223.897 165.429L236.297 162.352L253.397 146.967L291.997 161.761H301.597L322.597 151.937L335.697 142.233L354.797 151.937H371.997L380.497 142.233L389.497 148.269L413.997 125.427" fill="url(#paint2_linear_1558_19275)"/>
<path d="M413.5 169.506L412.9 171.04H411.4L411.7 173.391L412.7 175.947L411.5 177.583L413 179.321L413.988 176.5L411.688 174.966V173.126L410.788 171.899L410.388 170.57L410.788 168.73L409.488 167.707L408.988 166.276L409.788 165.049L408.288 164.129L408.988 163.72L406.5 161L406 158.5L404.888 162.084L403.588 163.72L402.288 165.049L401.888 166.889L400.788 168.321L401.588 169.752V170.979L400.188 172.001L399.588 173.637L400.188 176.5L396.5 182.286V180.651L395.5 178.401L393.4 177.379L393 179.935L391.9 179.628L391.1 181.06L389.5 181.775L390.5 183.002L389 185.456H379L379.1 184.74V182.695L377.8 182.491L377.9 180.446L378.7 179.321L377.5 177.992L377.6 175.845L376.2 175.232L376.6 174.107H374.1L374.2 172.267L372.4 171.04L371.9 172.164L371.4 175.947L370 176.868L370.5 179.219H368.7L368.4 178.503L369.8 177.788L367.6 176.97L367.5 175.538L368.4 174.414L366.1 173.494L364.4 171.96L363.9 174.107L362.9 177.072L361.2 176.868V179.833L359.6 181.06L359.8 183.002L358.6 184.331L358.8 185.456H355.9L355.6 184.433L356.2 183.002L354.2 182.184L355.2 180.344L354 179.73L353.7 176.05L352.2 174.823L353.2 172.573L351.2 172.778V171.142L351.3 169.404L349.6 168.279L351.1 165.621L349.2 164.599L349.6 162.554L347.7 161.94L348.2 160.304L346.6 158.975L344.5 157.135L343.9 160.816L341.9 161.838L342.8 163.372L341.9 165.11H340.4L341.6 168.075L340.3 167.052L339.4 168.279L338.9 170.835L338.7 174.312L338.4 172.573L336.8 172.471L336.2 170.938L334.7 171.756L333.2 173.289L332.6 174.823H331.1L331.3 177.174L332.3 179.73L331.2 181.366L332.7 183.002L332.6 185.456H331.5L330.2 184.74V182.9L329.3 181.673L328.9 180.344L329.3 178.503L328.1 177.481L327.6 176.05L328.3 174.823L326.8 173.903L327.2 172.573L325.5 171.449L324.3 169.813L323.5 171.858L322.1 173.494L320.9 174.823L320.5 176.663L319.4 178.094L320.1 179.526V180.753L318.7 181.775L318.1 183.411L318.6 185.456H316.1V184.433L315.1 182.184L313 181.162L312.7 183.718L311.5 183.411L310.8 184.842L309.2 185.456H297.5L297.6 184.229L298.3 183.002L297.1 181.775L297.2 179.628L295.9 179.015L296.2 177.788H293.7L293.9 176.05L292 174.823L291.5 175.947L291 179.73L290 180.446L289.5 179.219H287.2L287.6 176.868L286.3 175.947L285.8 172.164L285.3 171.04L283.4 172.267L283.5 174.107H281L281.4 175.232L280 175.845L280.2 177.992L278.9 179.321L279.7 180.446L279.8 182.491L278.6 182.695V184.74L278.7 185.456H268.6L267.1 183.002L268.1 181.775L266.5 181.06L265.7 179.628L264.6 179.935L264.2 177.379L262.1 178.401L261.1 180.651V182.286L258.5 182.491L259.1 179.628L258.5 177.992L257.2 176.97V175.743L257.9 174.312L256.8 172.88L256.4 171.04L255.2 169.711L253.8 168.075L252.9 166.03L251.8 167.666L250.1 168.893L250.4 170.12L248.9 171.04L249.7 172.267L249.2 173.698L248 174.721L248.3 176.561L248 177.89L247 179.117V180.957L244.7 182.491L244.6 179.321L246.1 177.583L245 175.947L246 173.391L246.2 171.04H244.7L244.1 169.506L242.6 167.973L241.1 167.155L240.5 168.688L238.9 168.893L238.6 170.529L238.4 167.052L237.9 164.496L237 163.269L235.6 164.292L236.9 161.327H235.4L234.5 159.589L235.4 158.055L233.4 157.033L232.8 153.352L230.7 155.192L229 156.521L229.5 158.157L227.7 158.771L228 160.816L226.2 161.838L227.7 164.496L225.9 165.621L226.1 167.359V168.995L224.1 168.893L225.1 171.04L223.6 172.267L223.3 175.947L222.1 176.561L223.1 178.401L221.1 179.219L221.7 180.651L220.8 183.513L218.3 182.593L218.7 180.548L217.5 179.219L217.7 177.277L216.1 176.05V173.085L214.4 173.289L213.4 170.426L212.9 168.177L211.1 169.711L208.9 170.631L209.8 171.756L209.6 173.187L207.5 174.107L208.9 174.721L208.3 176.254L206.2 177.072L208.5 179.219L208.1 181.775H206L206.4 182.798V184.842L203.7 185.047L204.2 185.456H192.3L191.8 184.331L193.2 183.718L191.1 182.798L191 181.366L191.8 180.242L189.6 179.321L187.9 177.788L187.4 179.935L186.4 182.9L184.6 182.695V185.456H184.4L183.1 183.002H180.8L181.3 180.957L179.9 180.242L179.4 176.97L178.9 175.947L177 177.072L177.2 178.606H176.6L176.7 178.503L174.7 178.606V176.97L174.8 175.232L173.1 174.107L174.6 171.449L172.7 170.426L173.1 168.382L171.2 167.768L171.7 166.132L170.1 164.803L168 162.963L167.3 166.643L165.3 167.666L166.2 169.199L165.3 170.938H163.9L165.1 173.903L163.7 172.88L162.9 174.107L162.4 176.663L162.1 180.139L161.9 178.503L160.2 178.299L159.6 176.765L158.1 177.583L156.6 179.117L156 180.651H154.5L154.8 183.002L155 183.718L154.8 184.229V185.456H152.5L152.8 184.331L152.6 184.127L152.8 183.411L152.2 181.98L151.3 181.468L151.8 180.651L150.8 180.037L151.5 178.81L150.4 177.583L150 175.947L148.8 174.925L147.4 173.494L146.6 171.756L145.4 173.187L143.7 174.107L144.1 175.232L142.6 175.947L143.3 177.072L142.8 178.299L141.6 179.117L142 180.753L141.6 181.877L140.7 182.9V184.433L138.8 185.456H138.3L138.2 183.002L139.7 181.673L138.6 180.242L139.6 177.992L139.8 175.947H138.4L137.7 174.721L136.2 173.391L134.7 172.676L134.1 174.005L132.5 174.107L132.3 175.538L132 172.573L131.5 170.426L130.6 169.302L129.3 170.222L130.5 167.768H129L128.2 166.234L129 164.905L127 163.985L126.4 160.918L124.3 162.554L122.7 163.576L123.2 165.008L121.3 165.519L121.7 167.257L119.8 168.177L121.3 170.426L119.6 171.449L119.7 172.778V174.209L117.7 174.107L118.7 175.947L117.2 177.072L117 180.242L115.7 180.753L115.8 180.855L115.5 180.651L115 181.775L114.8 182.9L114.7 183.002L114.8 183.104L114.5 185.456H112.1L112.4 184.127L111.1 183.002L111.4 181.264L109.7 180.344V177.686L108 177.89L107 175.436L106.5 173.596L104.8 174.925L102.5 175.641L103.4 176.663L103.3 177.788L101.2 178.606L102.5 179.117L101.9 180.446L99.8002 181.162L102.2 183.002L101.8 185.149H99.7002L99.8002 185.456H92.1002L91.4002 184.842L93.1002 183.513L90.3002 183.309V181.366L90.7002 180.242H88.6002L88.2002 177.686L90.6002 175.641L88.5002 174.721L87.8002 173.187L89.2002 172.573L87.1002 171.653L87.0002 170.222L87.8002 169.097L85.6002 168.177L83.9002 166.643L83.4002 168.893L82.4002 171.756L80.6002 171.551V174.618L79.0002 175.743L79.2002 177.686L78.0002 179.015L78.4002 181.06L75.9002 181.98L75.0002 179.117L75.6002 177.686L73.6002 176.868L74.6002 175.129L73.4002 174.414L73.2002 170.733L71.7002 169.506L72.7002 167.359L70.7002 167.461V165.825L70.8002 164.19L69.0002 162.963L70.5002 160.304L68.7002 159.282L69.0002 157.237L67.2002 156.624L67.7002 154.988L66.1002 153.761L63.9002 151.818L63.3002 155.499L61.3002 156.521L62.2002 158.055L61.3002 159.793H59.8002L61.1002 162.758L59.7002 161.736L58.8002 162.963L58.3002 165.519L58.1002 168.995L57.9002 167.359L56.2002 167.155L55.6002 165.621L54.1002 166.439L52.6002 167.973L52.0002 169.506H50.5002L50.8002 171.858L51.8002 174.414L50.6002 176.05L52.1002 177.788L52.0002 180.957L49.7002 179.424V177.583L48.8002 176.356L48.4002 175.129L48.8002 173.187L47.5002 172.164L47.0002 170.733L47.8002 169.506L46.3002 168.586L46.7002 167.359L44.9002 166.132L43.8002 164.496L42.9002 166.541L41.6002 168.177L40.3002 169.506L39.9002 171.347L38.8002 172.778L39.6002 174.209V175.436L38.2002 176.459L37.6002 178.094L38.2002 180.957L35.6002 180.855V179.117L34.6002 176.868L32.5002 175.845L32.1002 178.401L31.0002 178.094L30.2002 179.526L28.6002 180.242L29.6002 181.468L28.8002 182.9L28.6002 180.242L29.1002 176.868L26.6002 174.107L27.1002 172.062L25.1002 171.449L22.8002 167.359L21.1002 170.835L21.3002 172.778L19.9002 174.107L20.5002 175.743L17.8002 177.788L16.6002 176.459L16.7002 174.312L15.3002 173.698L15.7002 172.573H13.2002L13.3002 170.733L11.5002 169.506L11.0002 170.631L10.5002 174.414L9.10023 175.334V175.436L7.20023 174.516L5.90023 170.631L3.60023 167.359L4.90023 165.212L0 159.895V188.421V1656H411.7L414 168.893L413.5 169.506Z" fill="#175B7C"/>
<path d="M514.102 141.015L568.202 117.108L580.002 121.842L592.802 104.207L598.702 99L608.102 104.207L620.402 115.332L629.302 112.965L652.602 129.89L671.202 127.641L701.302 145.157L617.702 188.355L514.102 141.015Z" fill="#E3EDF5"/>
<path d="M820.7 189.059L407 187.402V165.152V110L438.9 121.717L449.1 118.995L456.2 121.717L479.5 112.959L495.7 128.581L500.8 125.031L515.5 137.576L530.2 134.617L551 150.831L570.3 146.57L582.4 158.051L587.5 157.459L608.3 173.555L626.5 167.045L633.1 154.973L643 148.464L661.5 149.056L671.7 141.836L696.5 134.025L702.6 127.398L707.7 121.717L718.8 126.806L734 121.717L749.7 130.356L763.9 125.031H791.8L801 134.025L815.5 111.5L821.6 111.882" fill="url(#paint3_linear_1558_19275)"/>
<path d="M820.7 218.16L407 218.633V197.093V132L443.5 140.758L465 158.156H484.9L509.3 153.54L535.4 161.588L563.2 172.949L575.6 178.039L581.9 188.453L589.8 183.719L607.4 189.045L630.6 178.039L643 174.961L660.1 159.576L698.7 174.37H708.3L729.3 164.547L742.4 154.842L761.5 164.547H778.7L787.2 154.842L796.2 160.878L820.7 138.036" fill="url(#paint4_linear_1558_19275)"/>
<path d="M1231.7 197.059L818 195.402V173.152V118L849.9 129.717L860.1 126.995L867.2 129.717L890.5 120.959L906.7 136.581L911.8 133.031L926.5 145.576L941.2 142.617L962 158.831L981.3 154.57L993.4 166.051L998.5 165.459L1019.3 181.555L1037.5 175.045L1044.1 162.973L1054 156.464L1072.5 157.056L1082.7 149.836L1107.5 142.025L1113.6 135.398L1118.7 129.717L1129.8 134.806L1145 129.717L1160.7 138.356L1174.9 133.031H1202.8L1212 142.025L1226.5 119.5L1232.6 119.882" fill="url(#paint5_linear_1558_19275)"/>
<path d="M1231.7 226.16L818 226.633V205.093V140L854.5 148.758L876 166.156H895.9L920.3 161.54L946.4 169.588L974.2 180.949L986.6 186.039L992.9 196.453L1000.8 191.719L1018.4 197.045L1041.6 186.039L1054 182.961L1071.1 167.576L1109.7 182.37H1119.3L1140.3 172.547L1153.4 162.842L1172.5 172.547H1189.7L1198.2 162.842L1207.2 168.878L1231.7 146.036" fill="url(#paint6_linear_1558_19275)"/>
<path d="M820.5 171.483L819.9 173.014H818.4L818.7 175.363L819.7 177.915L818.5 179.549L820 181.285L819.9 184.45L817.6 182.919V181.081L816.7 179.855L816.3 178.528L816.7 176.69L815.4 175.669L814.9 174.24L815.7 173.014L814.2 172.095L814.6 170.87L812.8 169.645L811.7 168.011L810.8 170.053L809.5 171.687L808.2 173.014L807.8 174.852L806.7 176.282L807.5 177.711V178.936L806.1 179.957L805.5 181.591L806.1 184.45L803.5 184.246V182.612L802.5 180.366L800.4 179.345L800 181.897L798.9 181.591L798.1 183.021L796.5 183.735L797.5 184.961L796 187.411H786L786.1 186.696V184.654L784.8 184.45L784.9 182.408L785.7 181.285L784.5 179.957L784.6 177.813L783.2 177.201L783.6 176.077H781.1L781.2 174.24L779.4 173.014L778.9 174.137L778.4 177.915L777 178.834L777.5 181.183H775.7L775.4 180.468L776.8 179.753L774.6 178.936L774.5 177.507L775.4 176.384L773.1 175.465L771.4 173.933L770.9 176.077L769.9 179.039L768.2 178.834V181.795L766.6 183.021L766.8 184.961L765.6 186.288L765.8 187.411H762.9L762.6 186.39L763.2 184.961L761.2 184.144L762.2 182.306L761 181.693L760.7 178.017L759.2 176.792L760.2 174.546L758.2 174.75V173.116L758.3 171.381L756.6 170.257L758.1 167.603L756.2 166.582L756.6 164.539L754.7 163.927L755.2 162.293L753.6 160.966L751.5 159.128L750.9 162.804L748.9 163.825L749.8 165.356L748.9 167.092H747.4L748.6 170.053L747.3 169.032L746.4 170.257L745.9 172.81L745.7 176.282L745.4 174.546L743.8 174.444L743.2 172.912L741.7 173.729L740.2 175.261L739.6 176.792H738.1L738.3 179.141L739.3 181.693L738.2 183.327L739.7 184.961L739.6 187.411H738.5L737.2 186.696V184.859L736.3 183.633L735.9 182.306L736.3 180.468L735.1 179.447L734.6 178.017L735.3 176.792L733.8 175.873L734.2 174.546L732.5 173.423L731.3 171.789L730.5 173.831L729.1 175.465L727.9 176.792L727.5 178.63L726.4 180.06L727.1 181.489V182.714L725.7 183.735L725.1 185.369L725.6 187.411H723.1V186.39L722.1 184.144L720 183.123L719.7 185.675L718.5 185.369L717.8 186.799L716.2 187.411H704.5L704.6 186.186L705.3 184.961L704.1 183.735L704.2 181.591L702.9 180.979L703.2 179.753H700.7L700.9 178.017L699 176.792L698.5 177.915L698 181.693L697 182.408L696.5 181.183H694.2L694.6 178.834L693.3 177.915L692.8 174.137L692.3 173.014L690.4 174.24L690.5 176.077H688L688.4 177.201L687 177.813L687.2 179.957L685.9 181.285L686.7 182.408L686.8 184.45L685.6 184.654V186.696L685.7 187.411H675.6L674.1 184.961L675.1 183.735L673.5 183.021L672.7 181.591L671.6 181.897L671.2 179.345L669.1 180.366L668.1 182.612V184.246L665.5 184.45L666.1 181.591L665.5 179.957L664.2 178.936V177.711L664.9 176.282L663.8 174.852L663.4 173.014L662.2 171.687L660.8 170.053L659.9 168.011L658.8 169.645L657.1 170.87L657.4 172.095L655.9 173.014L656.7 174.24L656.2 175.669L655 176.69L655.3 178.528L655 179.855L654 181.081V182.919L651.7 184.45L651.6 181.285L653.1 179.549L652 177.915L653 175.363L653.2 173.014H651.7L651.1 171.483L649.6 169.951L648.1 169.134L647.5 170.666L645.9 170.87L645.6 172.504L645.4 169.032L644.9 166.479L644 165.254L642.6 166.275L643.9 163.314H642.4L641.5 161.578L642.4 160.047L640.4 159.026L639.8 155.35L637.7 157.188L636 158.515L636.5 160.149L634.7 160.762L635 162.804L633.2 163.825L634.7 166.479L632.9 167.603L633.1 169.338V170.972L631.1 170.87L632.1 173.014L630.6 174.24L630.3 177.915L629.1 178.528L630.1 180.366L628.1 181.183L628.7 182.612L627.8 185.471L625.3 184.552L625.7 182.51L624.5 181.183L624.7 179.243L623.1 178.017V175.056L621.4 175.261L620.4 172.402L619.9 170.155L618.1 171.687L615.9 172.606L616.8 173.729L616.6 175.158L614.5 176.077L615.9 176.69L615.3 178.222L613.2 179.039L615.5 181.183L615.1 183.735H613L613.4 184.756V186.799L610.7 187.003L611.2 187.411H599.3L598.8 186.288L600.2 185.675L598.1 184.756L598 183.327L598.8 182.204L596.6 181.285L594.9 179.753L594.4 181.897L593.4 184.859L591.6 184.654V187.411H591.4L590.1 184.961H587.8L588.3 182.919L586.9 182.204L586.4 178.936L585.9 177.915L584 179.039L584.2 180.57H583.6L583.7 180.468L581.7 180.57V178.936L581.8 177.201L580.1 176.077L581.6 173.423L579.7 172.402L580.1 170.36L578.2 169.747L578.7 168.113L577.1 166.786L575 164.948L574.3 168.624L572.3 169.645L573.2 171.176L572.3 172.912H570.9L572.1 175.873L570.7 174.852L569.9 176.077L569.4 178.63L569.1 182.102L568.9 180.468L567.2 180.264L566.6 178.732L565.1 179.549L563.6 181.081L563 182.612H561.5L561.8 184.961L562 185.675L561.8 186.186V187.411H559.5L559.8 186.288L559.6 186.084L559.8 185.369L559.2 183.94L558.3 183.429L558.8 182.612L557.8 182L558.5 180.774L557.4 179.549L557 177.915L555.8 176.894L554.4 175.465L553.6 173.729L552.4 175.158L550.7 176.077L551.1 177.201L549.6 177.915L550.3 179.039L549.8 180.264L548.6 181.081L549 182.714L548.6 183.837L547.7 184.859V186.39L545.8 187.411H545.3L545.2 184.961L546.7 183.633L545.6 182.204L546.6 179.957L546.8 177.915H545.4L544.7 176.69L543.2 175.363L541.7 174.648L541.1 175.975L539.5 176.077L539.3 177.507L539 174.546L538.5 172.402L537.6 171.278L536.3 172.197L537.5 169.747H536L535.2 168.215L536 166.888L534 165.969L533.4 162.906L531.3 164.539L529.7 165.561L530.2 166.99L528.3 167.501L528.7 169.236L526.8 170.155L528.3 172.402L526.6 173.423L526.7 174.75V176.18L524.7 176.077L525.7 177.915L524.2 179.039L524 182.204L522.7 182.714L522.8 182.816L522.5 182.612L522 183.735L521.8 184.859L521.7 184.961L521.8 185.063L521.5 187.411H519.1L519.4 186.084L518.1 184.961L518.4 183.225L516.7 182.306V179.651L515 179.855L514 177.405L513.5 175.567L511.8 176.894L509.5 177.609L510.4 178.63L510.3 179.753L508.2 180.57L509.5 181.081L508.9 182.408L506.8 183.123L509.2 184.961L508.8 187.105H506.7L506.8 187.411H499.1L498.4 186.799L500.1 185.471L497.3 185.267V183.327L497.7 182.204H495.6L495.2 179.651L497.6 177.609L495.5 176.69L494.8 175.158L496.2 174.546L494.1 173.627L494 172.197L494.8 171.074L492.6 170.155L490.9 168.624L490.4 170.87L489.4 173.729L487.6 173.525V176.588L486 177.711L486.2 179.651L485 180.979L485.4 183.021L482.9 183.94L482 181.081L482.6 179.651L480.6 178.834L481.6 177.099L480.4 176.384L480.2 172.708L478.7 171.483L479.7 169.338L477.7 169.441V167.807L477.8 166.173L476 164.948L477.5 162.293L475.7 161.272L476 159.23L474.2 158.617L474.7 156.984L473.1 155.758L470.9 153.818L470.3 157.494L468.3 158.515L469.2 160.047L468.3 161.783H466.8L468.1 164.744L466.7 163.723L465.8 164.948L465.3 167.501L465.1 170.972L464.9 169.338L463.2 169.134L462.6 167.603L461.1 168.42L459.6 169.951L459 171.483H457.5L457.8 173.831L458.8 176.384L457.6 178.017L459.1 179.753L459 182.919L456.7 181.387V179.549L455.8 178.324L455.4 177.099L455.8 175.158L454.5 174.137L454 172.708L454.8 171.483L453.3 170.564L453.7 169.338L451.9 168.113L450.8 166.479L449.9 168.522L448.6 170.155L447.3 171.483L446.9 173.321L445.8 174.75L446.6 176.18V177.405L445.2 178.426L444.6 180.06L445.2 182.919L442.6 182.816V181.081L441.6 178.834L439.5 177.813L439.1 180.366L438 180.06L437.2 181.489L435.6 182.204L436.6 183.429L435.8 184.859L435.6 182.204L436.1 178.834L433.6 176.077L434.1 174.035L432.1 173.423L429.8 169.338L428.1 172.81L428.3 174.75L426.9 176.077L427.5 177.711L424.8 179.753L423.6 178.426L423.7 176.282L422.3 175.669L422.7 174.546H420.2L420.3 172.708L418.5 171.483L418 172.606L417.5 176.384L416.1 177.303V177.405L414.2 176.486L412.9 172.606L410.6 169.338L411.9 167.194L407.3 161.885L405 228V1656H818.7L821 170.87L820.5 171.483Z" fill="#175B7C"/>
<path d="M1230.5 170.613L1229.9 172.144L1228 174.866L1228.7 178.542L1229.7 181.094L1228.5 182.728L1230 184.463L1229.9 187.628L1227.6 186.097V184.259L1226.7 183.034L1226.3 181.707L1226.7 179.869L1225.4 178.848L1224.9 177.419L1225.7 176.194L1224.2 175.275L1224.6 174.05L1222.8 172.824L1221.7 171.191L1220.8 173.233L1219.5 174.866L1218.2 176.194L1217.8 178.031L1216.7 179.461L1217.5 180.89V182.115L1216.1 183.136L1215.5 184.769L1216.1 187.628L1213.5 187.424V185.79L1212.5 183.544L1210.4 182.523L1210 185.076L1208.9 184.769L1208.1 186.199L1206.5 186.913L1207.5 188.139L1206 190.589H1196L1196.1 189.874V187.832L1194.8 187.628L1194.9 185.586L1195.7 184.463L1194.5 183.136L1194.6 180.992L1193.2 180.379L1193.6 179.256H1191.1L1191.2 177.419L1189.4 176.194L1188.9 177.317L1188.4 181.094L1187 182.013L1187.5 184.361H1185.7L1185.4 183.646L1186.8 182.932L1184.6 182.115L1184.5 180.686L1185.4 179.563L1183.1 178.644L1181.4 177.112L1180.9 179.256L1179.9 182.217L1178.2 182.013V184.974L1176.6 186.199L1176.8 188.139L1175.6 189.466L1175.8 190.589H1172.9L1172.6 189.568L1173.2 188.139L1171.2 187.322L1172.2 185.484L1171 184.872L1170.7 181.196L1169.2 179.971L1170.2 177.725L1168.2 177.929V176.296L1168.3 174.56L1166.6 173.437L1168.1 170.783L1166.2 169.762L1166.6 167.72L1164.7 167.107L1165.2 165.474L1163.6 164.147L1161.5 162.309L1160.9 165.984L1158.9 167.005L1159.8 168.537L1158.9 170.272H1157.4L1158.6 173.233L1157.3 172.212L1156.4 173.437L1155.9 175.989L1155.7 179.461L1155.4 177.725L1153.8 177.623L1153.2 176.091L1151.7 176.908L1150.2 178.44L1149.6 179.971H1148.1L1148.3 182.319L1149.3 184.872L1148.2 186.505L1149.7 188.139L1149.6 190.589H1148.5L1147.2 189.874V188.036L1146.3 186.811L1145.9 185.484L1146.3 183.646L1145.1 182.625L1144.6 181.196L1145.3 179.971L1143.8 179.052L1144.2 177.725L1142.5 176.602L1141.3 174.968L1140.5 177.01L1139.1 178.644L1137.9 179.971L1137.5 181.809L1136.4 183.238L1137.1 184.667V185.892L1135.7 186.913L1135.1 188.547L1135.6 190.589H1133.1V189.568L1132.1 187.322L1130 186.301L1129.7 188.853L1128.5 188.547L1127.8 189.976L1126.2 190.589H1114.5L1114.6 189.364L1115.3 188.139L1114.1 186.913L1114.2 184.769L1112.9 184.157L1113.2 182.932H1110.7L1110.9 181.196L1109 179.971L1108.5 181.094L1108 184.872L1107 185.586L1106.5 184.361H1104.2L1104.6 182.013L1103.3 181.094L1102.8 177.317L1102.3 176.194L1100.4 177.419L1100.5 179.256H1098L1098.4 180.379L1097 180.992L1097.2 183.136L1095.9 184.463L1096.7 185.586L1096.8 187.628L1095.6 187.832V189.874L1095.7 190.589H1085.6L1084.1 188.139L1085.1 186.913L1083.5 186.199L1082.7 184.769L1081.6 185.076L1081.2 182.523L1079.1 183.544L1078.1 185.79V187.424L1075.5 187.628L1076.1 184.769L1075.5 183.136L1074.2 182.115V180.89L1074.9 179.461L1073.8 178.031L1073.4 176.194L1072.2 174.866L1070.8 173.233L1069.9 171.191L1068.8 172.824L1067.1 174.05L1067.4 175.275L1065.9 176.194L1066.7 177.419L1066.2 178.848L1065 179.869L1065.3 181.707L1065 183.034L1064 184.259V186.097L1061.7 187.628L1061.6 184.463L1063.1 182.728L1062 181.094L1063 178.542L1063.2 176.194H1061.7L1061.1 174.662L1059.6 173.131L1058.1 172.314L1057.5 173.845L1055.9 174.05L1055.6 175.683L1055.4 172.212L1054.9 169.66L1054 168.434L1052.6 169.455L1053.9 166.495H1052.4L1051.5 164.759L1052.4 163.228L1050.4 162.207L1049.8 158.531L1047.7 160.369L1046 161.696L1046.5 163.33L1044.7 163.942L1045 165.984L1043.2 167.005L1044.7 169.66L1042.9 170.783L1043.1 172.518V174.152L1041.1 174.05L1042.1 176.194L1040.6 177.419L1040.3 181.094L1039.1 181.707L1040.1 183.544L1038.1 184.361L1038.7 185.79L1037.8 188.649L1035.3 187.73L1035.7 185.688L1034.5 184.361L1034.7 182.421L1033.1 181.196V178.235L1031.4 178.44L1030.4 175.581L1029.9 173.335L1028.1 174.866L1025.9 175.785L1026.8 176.908L1026.6 178.338L1024.5 179.256L1025.9 179.869L1025.3 181.4L1023.2 182.217L1025.5 184.361L1025.1 186.913H1023L1023.4 187.934V189.976L1020.7 190.18L1021.2 190.589H1009.3L1008.8 189.466L1010.2 188.853L1008.1 187.934L1008 186.505L1008.8 185.382L1006.6 184.463L1004.9 182.932L1004.4 185.076L1003.4 188.036L1001.6 187.832V190.589H1001.4L1000.1 188.139H997.8L998.3 186.097L996.9 185.382L996.4 182.115L995.9 181.094L994 182.217L994.2 183.748H993.6L993.7 183.646L991.7 183.748V182.115L991.8 180.379L990.1 179.256L991.6 176.602L989.7 175.581L990.1 173.539L988.2 172.927L988.7 171.293L987.1 169.966L985 168.128L984.3 171.804L982.3 172.824L983.2 174.356L982.3 176.091H980.9L982.1 179.052L980.7 178.031L979.9 179.256L979.4 181.809L979.1 185.28L978.9 183.646L977.2 183.442L976.6 181.911L975.1 182.728L973.6 184.259L973 185.79H971.5L971.8 188.139L972 188.853L971.8 189.364V190.589H969.5L969.8 189.466L969.6 189.262L969.8 188.547L969.2 187.118L968.3 186.607L968.8 185.79L967.8 185.178L968.5 183.953L967.4 182.728L967 181.094L965.8 180.073L964.4 178.644L963.6 176.908L962.4 178.338L960.7 179.256L961.1 180.379L959.6 181.094L960.3 182.217L959.8 183.442L958.6 184.259L959 185.892L958.6 187.015L957.7 188.036V189.568L955.8 190.589H955.3L955.2 188.139L956.7 186.811L955.6 185.382L956.6 183.136L956.8 181.094H955.4L954.7 179.869L953.2 178.542L951.7 177.827L951.1 179.154L949.5 179.256L949.3 180.686L949 177.725L948.5 175.581L947.6 174.458L946.3 175.377L947.5 172.927H946L945.2 171.395L946 170.068L944 169.149L943.4 166.086L941.3 167.72L939.7 168.741L940.2 170.17L938.3 170.681L938.7 172.416L936.8 173.335L938.3 175.581L936.6 176.602L936.7 177.929V179.358L934.7 179.256L935.7 181.094L934.2 182.217L934 185.382L932.7 185.892L932.8 185.995L932.5 185.79L932 186.913L931.8 188.036L931.7 188.139L931.8 188.241L931.5 190.589H929.1L929.4 189.262L928.1 188.139L928.4 186.403L926.7 185.484V182.83L925 183.034L924 180.584L923.5 178.746L921.8 180.073L919.5 180.788L920.4 181.809L920.3 182.932L918.2 183.748L919.5 184.259L918.9 185.586L916.8 186.301L919.2 188.139L918.8 190.282H916.7L916.8 190.589H909.1L908.4 189.976L910.1 188.649L907.3 188.445V186.505L907.7 185.382H905.6L905.2 182.83L907.6 180.788L905.5 179.869L904.8 178.338L906.2 177.725L904.1 176.806L904 175.377L904.8 174.254L902.6 173.335L900.9 171.804L900.4 174.05L899.4 176.908L897.6 176.704V179.767L896 180.89L896.2 182.83L895 184.157L895.4 186.199L892.9 187.118L892 184.259L892.6 182.83L890.6 182.013L891.6 180.277L890.4 179.563L890.2 175.887L888.7 174.662L889.7 172.518L887.7 172.62V170.987L887.8 169.353L886 168.128L887.5 165.474L885.7 164.453L886 162.411L884.2 161.798L884.7 160.165L883.1 158.94L880.9 157L880.3 160.675L878.3 161.696L879.2 163.228L878.3 164.963H876.8L878.1 167.924L876.7 166.903L875.8 168.128L875.3 170.681L875.1 174.152L874.9 172.518L873.2 172.314L872.6 170.783L871.1 171.599L869.6 173.131L869 174.662H867.5L867.8 177.01L868.8 179.563L867.6 181.196L869.1 182.932L869 186.097L866.7 184.565V182.728L865.8 181.502L865.4 180.277L865.8 178.338L864.5 177.317L864 175.887L864.8 174.662L863.3 173.743L863.7 172.518L861.9 171.293L860.8 169.66L859.9 171.701L858.6 173.335L857.3 174.662L856.9 176.5L855.8 177.929L856.6 179.358V180.584L855.2 181.605L854.6 183.238L855.2 186.097L852.6 185.995V184.259L851.6 182.013L849.5 180.992L849.1 183.544L848 183.238L847.2 184.667L845.6 185.382L846.6 186.607L845.8 188.036L845.6 185.382L846.1 182.013L843.6 179.256L844.1 177.215L842.1 176.602L839.8 172.518L838.1 175.989L838.3 177.929L836.9 179.256L837.5 180.89L834.8 182.932L833.6 181.605L833.7 179.461L832.3 178.848L832.7 177.725H830.2L830.3 175.887L828.5 174.662L828 175.785L827.5 179.563L826.1 180.482V180.584L824.2 179.665L822.9 175.785L820.6 172.518L821.9 170.374L817.3 165.065L813.5 173.335V193.549V1656H1232V170L1230.5 170.613Z" fill="#175B7C"/>
<rect x="406" y="530" width="72" height="18" fill="#145A7B"/>
<path d="M0 294H1366V2294H0L0 294Z" fill="url(#paint7_linear_1558_19275)"/>
</g>
<defs>
<linearGradient id="paint0_linear_1558_19275" x1="170.952" y1="160.759" x2="170.952" y2="-74.5455" gradientUnits="userSpaceOnUse">
<stop offset="0.1875" stop-color="white"/>
<stop offset="0.661458" stop-color="#F5D39F"/>
</linearGradient>
<linearGradient id="paint1_linear_1558_19275" x1="207.11" y1="169.067" x2="207.153" y2="124.217" gradientUnits="userSpaceOnUse">
<stop stop-color="#CCD6E0"/>
<stop offset="1" stop-color="#C0D6E8"/>
</linearGradient>
<linearGradient id="paint2_linear_1558_19275" x1="207.036" y1="205.782" x2="207.182" y2="158.35" gradientUnits="userSpaceOnUse">
<stop stop-color="#E9F1F7"/>
<stop offset="1" stop-color="#8AAEC9"/>
</linearGradient>
<linearGradient id="paint3_linear_1558_19275" x1="613.813" y1="180.98" x2="613.856" y2="136.13" gradientUnits="userSpaceOnUse">
<stop stop-color="#CCD6E0"/>
<stop offset="1" stop-color="#C0D6E8"/>
</linearGradient>
<linearGradient id="paint4_linear_1558_19275" x1="613.74" y1="218.392" x2="613.885" y2="170.959" gradientUnits="userSpaceOnUse">
<stop offset="0.1417" stop-color="#E9F1F6"/>
<stop offset="1" stop-color="#8AAEC9"/>
</linearGradient>
<linearGradient id="paint5_linear_1558_19275" x1="1024.81" y1="188.98" x2="1024.86" y2="144.13" gradientUnits="userSpaceOnUse">
<stop stop-color="#CCD6E0"/>
<stop offset="1" stop-color="#C0D6E8"/>
</linearGradient>
<linearGradient id="paint6_linear_1558_19275" x1="1024.74" y1="226.392" x2="1024.89" y2="178.959" gradientUnits="userSpaceOnUse">
<stop offset="0.1417" stop-color="#E9F1F6"/>
<stop offset="1" stop-color="#8AAEC9"/>
</linearGradient>
<linearGradient id="paint7_linear_1558_19275" x1="660.202" y1="294" x2="655.867" y2="936.306" gradientUnits="userSpaceOnUse">
<stop offset="0.4375" stop-color="#145A75"/>
<stop offset="1" stop-color="#F2F2F2"/>
</linearGradient>
<clipPath id="clip0_1558_19275">
<rect width="834" height="984" fill="white"/>
</clipPath>
</defs>
</svg>
