<svg width="113" height="113" viewBox="0 0 113 113" fill="none" xmlns="http://www.w3.org/2000/svg">
<g filter="url(#filter0_d_391_9390)">
<circle cx="54.5" cy="54.5" r="46.5" fill="white"/>
</g>
<path d="M73.7383 42.0221C74.5122 41.2484 74.5122 39.9938 73.7383 39.2201C72.9644 38.4463 71.7097 38.4463 70.9358 39.2201C70.1619 39.9938 70.1619 41.2484 70.9358 42.0221C71.7097 42.7959 72.9644 42.7959 73.7383 42.0221Z" fill="#F58000"/>
<path d="M78.1025 55.7339C79.1627 55.4624 79.802 54.3829 79.5305 53.3229C79.2589 52.2629 78.1793 51.6236 77.1191 51.8951C76.0589 52.1666 75.4196 53.246 75.6911 54.3061C75.9627 55.3661 77.0422 56.0053 78.1025 55.7339Z" fill="#F58000"/>
<path d="M81.6624 38.0534C82.4363 37.2796 82.4363 36.0251 81.6624 35.2513C80.8885 34.4775 79.6338 34.4775 78.8599 35.2513C78.086 36.0251 78.086 37.2796 78.8599 38.0534C79.6338 38.8271 80.8885 38.8271 81.6624 38.0534Z" fill="#F58000"/>
<path d="M79.3868 72.9131C80.4516 72.6602 81.1097 71.5921 80.8568 70.5275C80.6039 69.4629 79.5356 68.8048 78.4708 69.0577C77.406 69.3106 76.7479 70.3787 77.0008 71.4433C77.2537 72.5079 78.322 73.166 79.3868 72.9131Z" fill="#F58000"/>
<path d="M57.4985 65.2077C58.2063 66.9061 58.4752 68.2506 58.4752 69.0007C56.7342 68.9723 51.5959 67.4014 46.5992 62.4055C41.5883 57.3955 40.0313 52.2581 40.003 50.5314C41.0788 50.5314 43.3577 51.0692 46.1462 52.6826C45.6083 54.1545 44.9431 55.5839 44.1645 56.9567C44.8864 58.004 45.7641 59.1221 46.8257 60.2118C50.0955 55.032 51.879 49.0171 51.879 42.6059C51.879 37.143 50.5484 31.3263 48.0289 26.5144C47.5193 25.552 46.3303 25.1699 45.3536 25.6793C44.391 26.1888 44.0088 27.3777 44.5184 28.3542C46.7407 32.6 47.9156 37.7799 47.9156 42.6201C47.9156 44.7854 47.675 46.9083 47.2362 48.9463C43.0038 46.6253 39.1678 46.0875 37.356 47.899C37.0304 48.2245 36.7473 48.6916 36.6199 49.0595C36.6199 49.0595 35.5725 52.1307 34.1287 56.4048C34.2419 57.0417 34.4259 57.7351 34.709 58.4569C35.8839 61.4148 38.3327 64.7124 41.3052 67.6986L38.6583 70.3452C36.0113 67.6986 33.7323 64.8115 32.2177 62.0092C31.4817 64.1887 30.7173 66.439 29.9812 68.6185C31.241 70.5291 32.8689 72.4822 34.6949 74.3079L32.0479 76.9545C30.7598 75.6666 29.5708 74.3362 28.5091 72.9776C26.8105 78.0159 25.5083 81.8513 25.5083 81.8513C25.4658 81.9787 25.4375 82.106 25.4375 82.2475C25.4375 82.6155 25.5791 82.941 25.8197 83.1816C26.0603 83.4222 26.3859 83.5637 26.7539 83.5637C26.8955 83.5637 27.0229 83.5354 27.1503 83.493C27.1503 83.493 59.919 72.4256 59.919 72.4114C60.2871 72.2699 60.7542 72.001 61.0797 71.6755C62.5377 70.2178 62.4811 67.4297 61.1788 64.1746C59.9332 64.3727 58.73 64.7266 57.4985 65.2077Z" fill="#F58000"/>
<path d="M57.7404 51.252C58.1226 51.6341 58.6322 51.8322 59.1417 51.8322C59.6513 51.8322 60.1609 51.6341 60.5431 51.252C66.8704 44.9257 70.3666 36.4483 70.3666 27.4189C70.3666 26.3291 69.4749 25.4375 68.3849 25.4375C67.295 25.4375 66.4032 26.3291 66.4032 27.4189C66.4032 35.401 63.3316 42.8736 57.7404 48.4639C56.9619 49.2281 56.9619 50.4877 57.7404 51.252Z" fill="#F58000"/>
<path d="M39.9875 41.8834C39.9875 43.0015 40.6669 43.9214 41.8418 43.9214C43.0025 43.9214 43.9509 43.0156 43.9509 41.8834C43.9509 40.2276 43.4838 38.5151 42.6203 37.0432C42.0541 36.0667 40.766 35.7129 39.7469 36.2648C38.7277 36.8168 38.3738 38.0622 38.94 39.0387C39.4496 39.902 39.9875 40.9069 39.9875 41.8834Z" fill="#F58000"/>
<path d="M67.988 50.874C68.3561 51.4967 69.0214 51.8364 69.6866 51.8364C70.0264 51.8364 70.3802 51.7515 70.6916 51.5533C72.3195 50.5768 75.3628 49.4163 77.7974 49.1757C78.8874 49.0625 79.6801 48.1001 79.5668 47.0103C79.4536 45.9206 78.491 45.128 77.4011 45.2412C74.2304 45.5526 70.6492 46.9679 68.6675 48.1567C67.7474 48.7228 67.436 49.9399 67.988 50.874Z" fill="#F58000"/>
<path d="M73.2806 66.3655C71.8084 65.5164 70.0957 65.0352 68.4396 65.0352C67.3072 65.0352 66.4012 65.9834 66.4012 67.1439C66.4012 68.3044 67.3072 68.9979 68.4396 68.9979C69.4021 68.9979 70.4213 69.5357 71.2847 70.0452C71.5961 70.2292 71.95 70.3141 72.2756 70.3141C72.9833 70.3141 73.6769 69.932 74.0591 69.2385C74.597 68.2195 74.2573 66.9316 73.2806 66.3655Z" fill="#F58000"/>
<path d="M58.3115 29.5217C58.7463 28.5175 58.2846 27.351 57.2802 26.9162C56.2758 26.4815 55.1091 26.9431 54.6743 27.9473C54.2395 28.9515 54.7012 30.1181 55.7056 30.5528C56.71 30.9876 57.8767 30.5259 58.3115 29.5217Z" fill="#F58000"/>
<path d="M59.2109 39.3776C59.9847 38.6038 59.9847 37.3493 59.2109 36.5755C58.437 35.8018 57.1822 35.8018 56.4083 36.5755C55.6344 37.3493 55.6344 38.6038 56.4083 39.3776C57.1822 40.1514 58.437 40.1514 59.2109 39.3776Z" fill="#F58000"/>
<path d="M82.4969 60.9616C77.6842 58.4424 71.8665 57.1121 66.4027 57.1121C63.1895 57.1121 60.4576 57.4093 57.7398 58.1594C56.7914 56.9139 55.7298 55.6685 54.5266 54.4655C54.0171 53.956 53.5075 53.4749 52.9837 53.0078C52.5874 54.2957 52.1203 55.5694 51.5824 56.8007C51.6815 56.8998 51.7806 56.9989 51.8797 57.0979C52.6865 57.9046 53.3942 58.6972 54.0171 59.4756C53.6915 59.6171 53.3518 59.7728 53.012 59.9285C52.0212 60.3955 51.5966 61.5702 52.0637 62.5609C52.5308 63.5515 53.7056 63.9761 54.6965 63.5091C58.6882 61.6409 61.9438 61.0607 66.4027 61.0607C71.2295 61.0607 76.4102 62.2354 80.6709 64.4573C80.9681 64.613 81.2795 64.6838 81.591 64.6838C82.2987 64.6838 82.9923 64.3016 83.3462 63.6223C83.8416 62.6599 83.4594 61.4711 82.4969 60.9616Z" fill="#F58000"/>
<defs>
<filter id="filter0_d_391_9390" x="0" y="0" width="113" height="113" filterUnits="userSpaceOnUse" color-interpolation-filters="sRGB">
<feFlood flood-opacity="0" result="BackgroundImageFix"/>
<feColorMatrix in="SourceAlpha" type="matrix" values="0 0 0 0 0 0 0 0 0 0 0 0 0 0 0 0 0 0 127 0" result="hardAlpha"/>
<feOffset dx="2" dy="2"/>
<feGaussianBlur stdDeviation="5"/>
<feComposite in2="hardAlpha" operator="out"/>
<feColorMatrix type="matrix" values="0 0 0 0 0 0 0 0 0 0 0 0 0 0 0 0 0 0 0.1 0"/>
<feBlend mode="normal" in2="BackgroundImageFix" result="effect1_dropShadow_391_9390"/>
<feBlend mode="normal" in="SourceGraphic" in2="effect1_dropShadow_391_9390" result="shape"/>
</filter>
</defs>
</svg>
