<svg width="113" height="113" viewBox="0 0 113 113" fill="none" xmlns="http://www.w3.org/2000/svg">
<g filter="url(#filter0_d_391_9375)">
<ellipse cx="54.0006" cy="54.4948" rx="46.0006" ry="46.3191" fill="white"/>
</g>
<path d="M49.3705 27.4732H30.2036C28.0833 27.4732 26.3703 29.1981 26.3703 31.3331V39.053C26.3703 41.188 28.0833 42.9129 30.2036 42.9129H69.6635C70.1666 42.9129 70.6578 42.7078 71.0172 42.346L82.5173 36.5561C83.26 35.8082 83.26 34.5779 82.5173 33.83L71.0172 28.0401C70.6578 27.6783 70.1666 27.4732 69.6635 27.4732H57.0373C57.0373 25.3382 55.3243 23.6133 53.2039 23.6133C51.0836 23.6133 49.3705 25.3382 49.3705 27.4732ZM80.0376 54.4927C80.0376 52.3576 78.3245 50.6327 76.2042 50.6327H57.0373V46.7728H49.3705V50.6327H36.7443C36.2412 50.6327 35.7501 50.8378 35.3907 51.1997L23.8905 56.9895C23.1478 57.7374 23.1478 58.9678 23.8905 59.7156L35.3907 65.5055C35.7501 65.8674 36.2412 66.0724 36.7443 66.0724H76.2042C78.3245 66.0724 80.0376 64.3475 80.0376 62.2125V54.4927ZM57.0373 81.5121V69.9323H49.3705V81.5121C49.3705 83.6471 51.0836 85.372 53.2039 85.372C55.3243 85.372 57.0373 83.6471 57.0373 81.5121Z" fill="#F58000"/>
<defs>
<filter id="filter0_d_391_9375" x="0" y="0.175781" width="112.001" height="112.637" filterUnits="userSpaceOnUse" color-interpolation-filters="sRGB">
<feFlood flood-opacity="0" result="BackgroundImageFix"/>
<feColorMatrix in="SourceAlpha" type="matrix" values="0 0 0 0 0 0 0 0 0 0 0 0 0 0 0 0 0 0 127 0" result="hardAlpha"/>
<feOffset dx="2" dy="2"/>
<feGaussianBlur stdDeviation="5"/>
<feComposite in2="hardAlpha" operator="out"/>
<feColorMatrix type="matrix" values="0 0 0 0 0 0 0 0 0 0 0 0 0 0 0 0 0 0 0.1 0"/>
<feBlend mode="normal" in2="BackgroundImageFix" result="effect1_dropShadow_391_9375"/>
<feBlend mode="normal" in="SourceGraphic" in2="effect1_dropShadow_391_9375" result="shape"/>
</filter>
</defs>
</svg>
