<?xml version="1.0" encoding="utf-8"?>
<!-- Generator: Adobe Illustrator 25.4.1, SVG Export Plug-In . SVG Version: 6.00 Build 0)  -->
<svg version="1.1" id="Layer_1" xmlns="http://www.w3.org/2000/svg" xmlns:xlink="http://www.w3.org/1999/xlink" x="0px" y="0px"
	 viewBox="0 0 40 40" style="enable-background:new 0 0 40 40;" xml:space="preserve">
<style type="text/css">
	.st0{fill:#F5F6FB;}
	.st1{clip-path:url(#SVGID_00000049926778879843659000000013013118410550385564_);}
	.st2{fill:#D75527;}
</style>
<path class="st0" d="M31.4,40H8.6C3.8,40,0,36.2,0,31.4V8.6C0,3.8,3.8,0,8.6,0h22.8C36.2,0,40,3.8,40,8.6v22.8
	C40,36.2,36.2,40,31.4,40z"/>
<g>
	<defs>
		<rect id="SVGID_1_" x="7.3" y="6" width="25.5" height="28"/>
	</defs>
	<clipPath id="SVGID_00000105397139931414990520000001058925948691072699_">
		<use xlink:href="#SVGID_1_"  style="overflow:visible;"/>
	</clipPath>
	<g style="clip-path:url(#SVGID_00000105397139931414990520000001058925948691072699_);">
		<path class="st2" d="M32.7,13.8c0,1.4-0.4,2.8-1.2,4c-1.4,2-1.8,4.2-2.1,6.4c-0.3,2.5-0.8,4.9-1.3,7.3c-0.4,1.6-1.5,2.4-3,2.4
			c-1.5,0-2.5-1-2.9-2.6c-0.5-2-1-4-1.6-6c-0.1-0.3-0.4-0.6-0.6-0.8c-0.2,0.3-0.6,0.5-0.6,0.8c-0.6,2.1-1.1,4.2-1.7,6.2
			c-0.4,1.5-1.5,2.3-3,2.3c-0.7,0-1.4-0.2-1.9-0.7c-0.5-0.4-0.9-1-1-1.7c-0.6-3.1-1.1-6.2-1.6-9.3c-0.2-1.5-0.8-2.9-1.7-4.2
			c-1.9-2.9-1.8-5.9,0-8.8c2.1-3.4,6.3-4.3,9.7-2.1c1,0.6,1.8,1.1,3,0.2c4.8-3.6,10.3,0.1,11.2,4.7C32.6,12.7,32.7,13.3,32.7,13.8
			L32.7,13.8z M14.6,30.6l0.3,0c0.1-0.2,0.1-0.4,0.2-0.6c0.5-1.9,1-3.9,1.6-5.8c0.2-0.7,0.7-1.4,1.3-1.8c0.6-0.5,1.4-0.7,2.2-0.7
			c0.8,0,1.6,0.3,2.2,0.8c0.6,0.5,1,1.2,1.2,1.9c0.5,1.8,0.9,3.7,1.4,5.5c0.1,0.2,0.1,0.4,0.2,0.7h0.3c0.3-1.9,0.8-3.8,1-5.7
			c0.3-3.1,0.9-6.2,2.7-8.9c1.5-2.3,0.3-5.5-2.2-6.8c-0.7-0.3-1.4-0.5-2.1-0.3c-0.7,0.1-1.4,0.5-1.9,1.1c0.2,0.2,0.3,0.5,0.4,0.7
			c0.2,0.6,0.1,1.2-0.4,1.5c-0.5,0.2-1,0.3-1.5,0.3c-0.3,0-0.6-0.3-0.8-0.4c-1.4-0.9-2.8-1.8-4.3-2.7c-1-0.7-2.2-0.7-3.2-0.2
			c-2.5,1.2-3.5,4.2-2.3,6.7c0.1,0.2,0.2,0.3,0.3,0.5c0.9,1.5,1.8,3,2.1,4.8c0.2,1.4,0.3,2.7,0.5,4.1C13.9,27.1,14.3,28.9,14.6,30.6
			C14.6,30.6,14.6,30.6,14.6,30.6z"/>
	</g>
</g>
</svg>
