<svg width="24" height="24" viewBox="0 0 24 24" fill="none" xmlns="http://www.w3.org/2000/svg">
    <path d="M20.316 3.684C15.725-.905 8.28-.905 3.684 3.684c-4.596 4.591-4.589 12.036 0 16.632 4.591 4.591 12.036 4.591 16.63 0 4.598-4.591 4.59-12.041.002-16.632zM19.62 19.62c-4.2 4.2-11.04 4.2-15.24 0-4.2-4.2-4.2-11.04 0-15.24 4.2-4.2 11.04-4.2 15.24 0 4.205 4.2 4.205 11.04 0 15.24z" fill="#000"/>
    <path d="m16.76 6.574-4.771 4.76L7.24 6.595l-.667.667 4.747 4.738-4.747 4.737.667.667 4.748-4.737 4.77 4.759.668-.667L12.656 12l4.771-4.759-.667-.667z" fill="#000"/>
</svg>
