<svg width="45" height="46" viewBox="0 0 45 46" fill="none" xmlns="http://www.w3.org/2000/svg">
<path d="M40 40.5H5V5.5H40M40 0.5H5C3.67392 0.5 2.40215 1.02678 1.46447 1.96447C0.526784 2.90215 0 4.17392 0 5.5V40.5C0 41.8261 0.526784 43.0979 1.46447 44.0355C2.40215 44.9732 3.67392 45.5 5 45.5H40C41.3261 45.5 42.5979 44.9732 43.5355 44.0355C44.4732 43.0979 45 41.8261 45 40.5V5.5C45 4.17392 44.4732 2.90215 43.5355 1.96447C42.5979 1.02678 41.3261 0.5 40 0.5ZM27.4 23.725L20.525 32.575L15.625 26.675L8.75 35.5H36.25L27.4 23.725Z" fill="#A6A6A6"/>
</svg>
