<svg width="95" height="21" viewBox="0 0 95 21" fill="none" xmlns="http://www.w3.org/2000/svg">
    <path d="M47.754 20.48h1.713V1.563h-1.713V20.48zM71.363 1.564h5.47v1.577h-1.86v17.338h-1.722V3.141h-1.888V1.564zM46.186 1.564V20.48h-1.795L41.823 8.99v11.49H40.14V1.564h1.549l2.813 12.527V1.564h1.684zM8.907 1.564V20.48H7.223V4.265L5.144 20.48H3.741L1.696 4.265V20.48H0V1.564h2.868l1.643 11.402L6.06 1.564h2.847zM29.788 20.484a10.928 10.928 0 0 0 2.12-6.49c0-6.045-4.883-10.947-10.907-10.947S10.093 7.95 10.093 13.994c0 2.43.787 4.675 2.119 6.49h2.268a9.2 9.2 0 0 1-2.664-6.49c0-5.09 4.112-9.217 9.185-9.217 5.072 0 9.185 4.127 9.185 9.218a9.215 9.215 0 0 1-2.66 6.49h2.262zM80.764 14.509 79.624 4.08l-1.05 10.428h2.19zm2.276 5.97h-1.677l-.442-4.26h-2.509l-.409 4.26h-1.709l1.932-18.915h2.613l2.2 18.915zM62.558 18.075c0 .853-.498 1.288-1.07 1.288-.572 0-1.072-.435-1.072-1.288V3.789c0-.851.5-1.287 1.071-1.287.573 0 1.071.436 1.071 1.287l-.003.683v3.566h1.724v-2.75l-.005-.793c-.011-2.358-.93-3.48-2.846-3.48-1.708 0-2.819 1.214-2.819 3.08l.002.694v11.84l-.002.766c0 2.422.939 3.605 2.86 3.605 1.916 0 2.81-1.161 2.81-3.655v-6.882h-3.166v1.657h1.442v5.328l.003.627zM69.625 17.62v-4.917L65.696 9.76V4.264c0-2.16.97-3.265 2.867-3.265 1.924 0 2.8 1.097 2.813 3.524l.004.754v2.787h-1.755V4.326l-.005-.537c0-.851-.494-1.287-1.059-1.287-.567 0-1.06.436-1.06 1.287v5.15l3.88 2.94v5.687c0 2.225-.987 3.414-2.83 3.414-1.867 0-2.838-1.123-2.85-3.291l-.005-.749v-3.7H67.5v4.835c0 .853.494 1.288 1.061 1.288.565 0 1.06-.435 1.06-1.288l.004-.454zM34.774 3.053v7.49h.604c1.11 0 1.632-.51 1.632-1.597V5.092c0-1.553-.358-2.039-1.503-2.039h-.733zm4.323 17.426H37.38c-.236-.637-.339-1.234-.35-2.035l-.013-.968-.007-.49v-3.692c0-.775-.47-1.128-1.012-1.128h-1.224v8.313H33.09V1.564h2.195c2.466 0 3.415.905 3.415 3.326v3.55c0 1.592-.266 2.26-1.506 2.719l.052.018c1.172.343 1.434.79 1.447 2.28l.007.687v3.454c0 1.257.094 1.94.396 2.881zM85.17 3.053v7.49h.606c1.11 0 1.632-.51 1.632-1.597V5.092c0-1.553-.358-2.039-1.505-2.039h-.733zm4.323 17.426h-1.717c-.236-.637-.338-1.234-.35-2.035l-.014-.968-.004-.49v-3.692c0-.775-.471-1.128-1.014-1.128H85.17v8.313h-1.683V1.564h2.195c2.467 0 3.414.905 3.414 3.326v3.55c0 1.592-.264 2.26-1.504 2.719l.051.018c1.17.343 1.435.79 1.448 2.28l.005.687v3.454c0 1.257.095 1.94.397 2.881zM57.056 1.564V20.48H55.26L52.694 8.99v11.49H51.01V1.564h1.55l2.811 12.527V1.564h1.685zM90.974 3.475c0-1.054.853-1.912 1.903-1.912a1.91 1.91 0 0 1 1.904 1.912 1.91 1.91 0 0 1-1.904 1.912 1.91 1.91 0 0 1-1.903-1.912zm-.22 0c0 1.175.952 2.131 2.123 2.131A2.13 2.13 0 0 0 95 3.476a2.13 2.13 0 0 0-2.123-2.131c-1.17 0-2.122.956-2.122 2.13z" fill="#EA293C"/>
    <path d="M92.412 3.405h.627c.259 0 .44-.084.44-.363 0-.278-.181-.364-.44-.364h-.627v.727zm-.277-.97h.947c.33 0 .674.127.674.607 0 .268-.12.528-.485.587l.577.91h-.335l-.565-.893h-.536v.892h-.277V2.436z" fill="#EA293C"/>
</svg>
