<svg width="93" height="26" viewBox="0 0 93 26" fill="none" xmlns="http://www.w3.org/2000/svg">
<g clip-path="url(#clip0_22178_18766)">
<path d="M10.4164 22.4733V16.3628C10.4164 15.1326 9.88328 14.3534 8.653 14.3534C8.15067 14.3909 7.66373 14.5436 7.22992 14.7996C6.7961 15.0556 6.42707 15.4081 6.15142 15.8297V22.4733H5.2082V16.3218C5.2082 15.0916 4.71609 14.3124 3.44479 14.3124C2.93885 14.3545 2.44958 14.5134 2.01549 14.7767C1.58141 15.04 1.21435 15.4005 0.943218 15.8297V22.4322H0V13.7382H0.943218V15.0505C1.27309 14.6006 1.6972 14.228 2.18593 13.9588C2.67466 13.6897 3.21624 13.5304 3.77287 13.4922C5.12618 13.4922 5.86435 14.2714 6.0694 15.1326C6.38754 14.6365 6.82452 14.2277 7.34069 13.9433C7.84317 13.6571 8.40407 13.4889 8.98107 13.4512C10.5804 13.4512 11.3596 14.3534 11.3596 16.1168V22.4322L10.4164 22.4733Z" fill="#E76425"/>
<path d="M13.41 25.0159C13.6611 25.0998 13.9244 25.1414 14.1892 25.1389C14.7633 25.1389 15.1734 24.8928 15.5015 24.0727L16.1987 22.5143L12.5078 13.6973H13.533L16.7318 21.366L19.8895 13.6973H20.9148L16.4037 24.3597C15.9116 25.467 15.1734 26.0001 14.1482 26.0001C13.8298 25.9996 13.5128 25.9582 13.205 25.8771L13.41 25.0159Z" fill="#E76425"/>
<path d="M21.1606 10.375H23.2111L27.066 20.4633L30.9209 10.416H32.9714L28.2143 22.4318H25.9588L21.1606 10.375Z" fill="#6D6E70"/>
<path d="M50.9749 17.3876L46.2588 10.375H48.3503L51.8771 15.7472L55.3629 10.375H57.4544L52.7793 17.3876V22.4318H50.9749V17.3876Z" fill="#6D6E70"/>
<path d="M64.4259 19.9302H58.5206L57.5363 22.4318H55.5679L60.366 10.416H62.6215L67.4196 22.4318H65.4512L64.4259 19.9302ZM59.0537 18.3308H63.8928L61.4732 11.9744L59.0537 18.3308Z" fill="#6D6E70"/>
<path d="M74.104 10.2108C75.0311 10.1875 75.9497 10.3922 76.7792 10.8069C77.6086 11.2216 78.3236 11.8337 78.8611 12.5893L77.3848 13.4505C76.9971 12.9474 76.5005 12.5385 75.9324 12.2544C75.3642 11.9703 74.7392 11.8185 74.104 11.8101C71.6025 11.8101 69.716 13.7376 69.716 16.4442C69.716 19.1508 71.6025 21.0783 74.104 21.0783C75.2265 21.0639 76.3054 20.6411 77.1387 19.889V17.7155H73.2839V16.1161H78.9432V20.5452C78.3332 21.2225 77.5865 21.7628 76.7523 22.1304C75.9182 22.498 75.0156 22.6845 74.104 22.6777C70.6592 22.6777 67.8706 20.1761 67.8706 16.4442C67.8706 12.7124 70.6592 10.2108 74.104 10.2108Z" fill="#6D6E70"/>
<path d="M81.2808 10.375H89.3596V11.9744H83.0852V15.5012H89.2366V17.1006H83.0852V20.8324H89.3596V22.4318H81.2808V10.375Z" fill="#6D6E70"/>
<path d="M40.0253 23.7439C38.6198 23.7399 37.247 23.3196 36.0801 22.5363C34.9131 21.7529 34.0043 20.6415 33.4684 19.3422C32.9324 18.0429 32.7932 16.614 33.0684 15.2357C33.3436 13.8574 34.0208 12.5915 35.0146 11.5977C36.0085 10.6038 37.2744 9.92659 38.6527 9.65139C40.031 9.3762 41.4599 9.51538 42.7592 10.0514C44.0584 10.5873 45.1699 11.4961 45.9533 12.6631C46.7366 13.83 47.1569 15.2028 47.1609 16.6083C47.1658 17.5467 46.9846 18.4768 46.6277 19.3448C46.2708 20.2127 45.7454 21.0013 45.0818 21.6649C44.4183 22.3284 43.6297 22.8539 42.7617 23.2107C41.8938 23.5676 40.9637 23.7488 40.0253 23.7439ZM40.0253 10.4979C38.8167 10.4979 37.6354 10.8562 36.6305 11.5277C35.6257 12.1991 34.8425 13.1534 34.38 14.2699C33.9175 15.3865 33.7965 16.6151 34.0323 17.8004C34.268 18.9857 34.85 20.0744 35.7046 20.929C36.5591 21.7836 37.6479 22.3655 38.8332 22.6013C40.0185 22.8371 41.2471 22.716 42.3636 22.2536C43.4802 21.7911 44.4345 21.0079 45.1059 20.003C45.7773 18.9982 46.1357 17.8168 46.1357 16.6083C46.1314 14.989 45.4862 13.4373 44.3412 12.2924C43.1962 11.1474 41.6445 10.5022 40.0253 10.4979Z" fill="#E66325"/>
<path d="M37.5645 15.7474L42.5266 17.5109L41.7474 11.7695L37.5645 15.7474Z" fill="#E66325"/>
<path d="M37.5645 15.7474L40.025 16.6086L41.7474 11.7695L37.5645 15.7474Z" fill="#F6921E"/>
<path d="M42.5266 17.5115L37.5645 15.748L38.3436 21.4894L42.5266 17.5115Z" fill="#E66325"/>
<path d="M42.5267 17.5116L40.0251 16.6094L38.3438 21.4895L42.5267 17.5116Z" fill="#F6921E"/>
<path d="M91.328 22.3903C91.0669 22.3903 90.8166 22.2866 90.632 22.1021C90.4474 21.9175 90.3438 21.6671 90.3438 21.4061C90.3438 21.1451 90.4474 20.8947 90.632 20.7101C90.8166 20.5256 91.0669 20.4219 91.328 20.4219C91.589 20.4219 91.8393 20.5256 92.0239 20.7101C92.2085 20.8947 92.3122 21.1451 92.3122 21.4061C92.3122 21.6671 92.2085 21.9175 92.0239 22.1021C91.8393 22.2866 91.589 22.3903 91.328 22.3903ZM91.328 20.5449C91.1576 20.5449 90.9911 20.5954 90.8495 20.69C90.7079 20.7847 90.5975 20.9192 90.5323 21.0765C90.4672 21.2339 90.4501 21.4071 90.4833 21.5741C90.5166 21.7412 90.5986 21.8946 90.719 22.0151C90.8395 22.1355 90.9929 22.2175 91.16 22.2508C91.327 22.284 91.5002 22.2669 91.6575 22.2017C91.8149 22.1366 91.9494 22.0262 92.044 21.8846C92.1387 21.7429 92.1892 21.5764 92.1892 21.4061C92.1881 21.178 92.097 20.9596 91.9357 20.7983C91.7745 20.6371 91.556 20.546 91.328 20.5449ZM91.615 21.9802L91.328 21.5291H91.1229V21.9802H90.9999V20.873H91.451C91.495 20.8692 91.5393 20.8752 91.5808 20.8903C91.6224 20.9055 91.66 20.9295 91.6913 20.9608C91.7225 20.992 91.7466 21.0297 91.7617 21.0712C91.7769 21.1127 91.7828 21.157 91.7791 21.2011C91.7826 21.2822 91.7547 21.3615 91.7012 21.4226C91.6478 21.4837 91.5729 21.5218 91.492 21.5291L91.7791 21.9802H91.615ZM91.451 20.996H91.1229V21.4061H91.451C91.5041 21.4023 91.5541 21.3795 91.5918 21.3418C91.6294 21.3041 91.6522 21.2542 91.6561 21.2011C91.615 21.078 91.533 20.996 91.451 20.996Z" fill="#6D6E70"/>
<path d="M22.5142 4.79843V0.123349H25.7129V0.861519H23.3343V2.05079H25.6719V2.78896H23.3343V4.79843H22.5142ZM26.9432 4.79843V0.123349H27.7634V4.79843H26.9432ZM32.5205 4.79843L30.1009 1.43565V4.79843H29.2807V0.123349H30.1419L32.5205 3.3631V0.123349H33.3407V4.79843H32.5205ZM37.9747 4.79843L37.6467 3.89622H35.5142L35.1861 4.79843H34.2429L36.0883 0.123349H37.1135L38.959 4.79843H37.9747ZM36.5804 0.943538L35.7192 3.15805H37.4006L36.5804 0.943538ZM43.0599 4.79843L40.6403 1.43565V4.79843H39.8202V0.123349H40.6814L43.0599 3.3631V0.123349H43.8801V4.79843H43.0599ZM44.9053 2.46089C44.8966 2.13727 44.9545 1.81531 45.0756 1.51507C45.1967 1.21484 45.3784 0.942751 45.6092 0.715765C45.84 0.48878 46.1151 0.311757 46.4174 0.195725C46.7196 0.0796922 47.0425 0.0271361 47.3659 0.0413302C47.7418 0.0362702 48.1128 0.1279 48.4431 0.30743C48.7734 0.48696 49.0521 0.748365 49.2523 1.06657L48.5552 1.43565C48.4369 1.22412 48.2644 1.04799 48.0553 0.925429C47.8462 0.802874 47.6082 0.73834 47.3659 0.738491C47.1477 0.734579 46.9312 0.776041 46.7299 0.860247C46.5286 0.944453 46.347 1.06957 46.1967 1.22765C46.0463 1.38574 45.9304 1.57335 45.8564 1.77858C45.7823 1.98382 45.7517 2.2022 45.7665 2.41988C45.7548 2.63685 45.7875 2.85393 45.8627 3.05781C45.9378 3.26168 46.0538 3.44805 46.2036 3.60549C46.3534 3.76293 46.5337 3.88811 46.7336 3.97337C46.9334 4.05862 47.1486 4.10214 47.3659 4.10127C47.6071 4.09611 47.843 4.02935 48.0512 3.90733C48.2593 3.78531 48.4328 3.61208 48.5552 3.40411L49.2523 3.8142C49.0615 4.14398 48.786 4.41674 48.4543 4.60421C48.1226 4.79169 47.7468 4.88706 47.3659 4.88045C47.0425 4.89464 46.7196 4.84208 46.4174 4.72605C46.1151 4.61002 45.84 4.433 45.6092 4.20601C45.3784 3.97903 45.1967 3.70694 45.0756 3.4067C44.9545 3.10646 44.8966 2.78451 44.9053 2.46089ZM50.3596 4.79843V0.123349H51.1798V4.79843H50.3596ZM55.8139 4.79843L55.4858 3.89622H53.3533L53.0252 4.79843H52.082L53.9274 0.123349H54.9526L56.7981 4.79843H55.8139ZM54.4195 0.943538L53.5583 3.15805H55.2397L54.4195 0.943538ZM57.6183 4.79843V0.123349H58.4385V4.06026H60.4889V4.79843H57.6183Z" fill="#E9691F"/>
<path d="M1.84543 4.83914L0 0.123047H0.943218L2.37855 3.93693L3.81388 0.123047H4.7571L2.91167 4.83914H1.84543Z" fill="#E9691F"/>
<path d="M5.00297 2.4196C4.98965 2.0983 5.04312 1.77773 5.16 1.47815C5.27688 1.17856 5.45463 0.906482 5.68202 0.679093C5.90941 0.451704 6.18149 0.273953 6.48108 0.157073C6.78066 0.0401918 7.10123 -0.0132778 7.42253 4.27107e-05C7.74289 -0.00961156 8.06184 0.0463714 8.35976 0.164549C8.65768 0.282726 8.92827 0.460599 9.1549 0.687229C9.38153 0.913859 9.55941 1.18446 9.67758 1.48238C9.79576 1.7803 9.85174 2.09924 9.84209 2.4196C9.85541 2.7409 9.80194 3.06147 9.68506 3.36106C9.56818 3.66064 9.39043 3.93272 9.16304 4.16011C8.93565 4.3875 8.66357 4.56525 8.36398 4.68213C8.0644 4.79901 7.74383 4.85248 7.42253 4.83916C7.10123 4.85248 6.78066 4.79901 6.48108 4.68213C6.18149 4.56525 5.90941 4.3875 5.68202 4.16011C5.45463 3.93272 5.27688 3.66064 5.16 3.36106C5.04312 3.06147 4.98965 2.7409 5.00297 2.4196ZM8.98089 2.4196C8.98089 1.43537 8.36575 0.738213 7.42253 0.738213C7.20729 0.738154 6.99435 0.782567 6.79708 0.868669C6.59981 0.95477 6.42246 1.0807 6.27614 1.23857C6.12983 1.39643 6.01771 1.58283 5.94682 1.78606C5.87593 1.98929 5.84779 2.20498 5.86417 2.4196C5.86417 3.40383 6.47931 4.10099 7.42253 4.10099C8.36575 4.10099 8.98089 3.40383 8.98089 2.4196Z" fill="#E9691F"/>
<path d="M11.8108 4.83914V2.87068L10.0063 0.123047H10.9496L12.2619 2.13251L13.5332 0.123047H14.4764L12.672 2.87068V4.83914H11.8108Z" fill="#E9691F"/>
<path d="M17.7983 4.83914L17.4702 3.93693H15.2967L14.9686 4.83914H14.0254L15.8708 0.123047H16.8961L18.7415 4.83914H17.7983ZM16.4039 0.984246L15.5427 3.23977H17.2241L16.4039 0.984246Z" fill="#E9691F"/>
<path d="M62.2523 4.79901C62.0457 4.79901 61.8475 4.71692 61.7014 4.57079C61.5552 4.42467 61.4731 4.22648 61.4731 4.01983C61.4731 3.81318 61.5552 3.61499 61.7014 3.46887C61.8475 3.32274 62.0457 3.24065 62.2523 3.24065C62.3556 3.23722 62.4584 3.25504 62.5545 3.29298C62.6506 3.33093 62.7379 3.3882 62.8109 3.46124C62.884 3.53429 62.9412 3.62156 62.9792 3.71764C63.0171 3.81373 63.0349 3.91658 63.0315 4.01983C63.0315 4.12215 63.0114 4.22347 62.9722 4.31801C62.933 4.41254 62.8756 4.49844 62.8033 4.57079C62.7309 4.64315 62.645 4.70054 62.5505 4.7397C62.456 4.77885 62.3547 4.79901 62.2523 4.79901ZM62.2523 3.32267C62.0674 3.32267 61.8901 3.39612 61.7594 3.52686C61.6286 3.65761 61.5552 3.83493 61.5552 4.01983C61.5552 4.20473 61.6286 4.38205 61.7594 4.5128C61.8901 4.64354 62.0674 4.71699 62.2523 4.71699C62.4356 4.71182 62.6099 4.63672 62.7396 4.50708C62.8692 4.37744 62.9443 4.2031 62.9495 4.01983C62.937 3.83903 62.8596 3.66885 62.7314 3.5407C62.6033 3.41256 62.4331 3.33511 62.2523 3.32267ZM62.4574 4.47093L62.2113 4.10185H62.0473V4.47093H61.9243V3.56873H62.2933C62.3313 3.56759 62.3692 3.57424 62.4045 3.58826C62.4399 3.60229 62.472 3.62339 62.4989 3.65028C62.5257 3.67716 62.5468 3.70926 62.5609 3.74461C62.5749 3.77995 62.5815 3.81779 62.5804 3.85579C62.5839 3.92604 62.5604 3.99497 62.5146 4.04838C62.4688 4.10178 62.4043 4.1356 62.3343 4.14286L62.5804 4.51194H62.4574V4.47093ZM62.2933 3.69175H62.0473V4.01983H62.2933C62.3359 4.01695 62.376 3.99874 62.4061 3.96858C62.4363 3.93842 62.4545 3.89835 62.4574 3.85579C62.4592 3.83378 62.4563 3.81162 62.4487 3.79087C62.4411 3.77012 62.4291 3.75127 62.4135 3.73565C62.3979 3.72003 62.379 3.70801 62.3583 3.70042C62.3375 3.69284 62.3153 3.68988 62.2933 3.69175Z" fill="#E9691F"/>
<path d="M40.025 17.7532C40.6456 17.7532 41.1487 17.2501 41.1487 16.6295C41.1487 16.0089 40.6456 15.5059 40.025 15.5059C39.4044 15.5059 38.9014 16.0089 38.9014 16.6295C38.9014 17.2501 39.4044 17.7532 40.025 17.7532Z" fill="white"/>
</g>
<defs>
<clipPath id="clip0_22178_18766">
<rect width="92.3123" height="26" fill="white"/>
</clipPath>
</defs>
</svg>
