<svg width="20" height="20" viewBox="0 0 20 20" fill="none" xmlns="http://www.w3.org/2000/svg">
    <g clip-path="url(#a)">
        <path d="M10 0a10 10 0 1 0 10 10A10.011 10.011 0 0 0 10 0zM5.03 14.232l.93-2.327a.436.436 0 0 1 .093-.14l4.91-4.91a.428.428 0 0 1 .589 0l1.396 1.395a.417.417 0 0 1 0 .59l-4.91 4.91a.404.404 0 0 1-.14.092l-2.326.931a.43.43 0 0 1-.45-.092.417.417 0 0 1-.092-.45zm9.778-7.25-.698.697a.417.417 0 0 1-.59 0l-1.395-1.397a.417.417 0 0 1 0-.59l.698-.698a1.398 1.398 0 0 1 1.772-.173 1.404 1.404 0 0 1 .212 2.159l.001.002z" fill="#145A7B"/>
    </g>
    <defs>
        <clipPath id="a">
            <path fill="#fff" d="M0 0h20v20H0z"/>
        </clipPath>
    </defs>
</svg>
