<svg width="171" height="145" viewBox="0 0 171 145" fill="none" xmlns="http://www.w3.org/2000/svg">
<path fill-rule="evenodd" clip-rule="evenodd" d="M169.982 101.336C169.443 96.4187 166.468 91.9926 161.898 89.4475C156.015 86.1706 148.627 85.1756 139.919 85.8239C134.149 86.2538 128.672 87.6927 124.357 90.1958C119.069 93.2621 115.75 97.7722 114.929 103.788C113.84 111.763 117.636 117.411 124.98 120.679C130.715 123.232 138.442 124.129 144.731 123.39C145.599 123.287 146.467 123.16 147.329 123.007L147.416 122.992L147.34 123.311C146.678 126.079 145.974 128.041 145.297 128.803L145.173 128.938C144.809 129.34 144.683 129.609 144.914 129.963C145.152 130.33 145.446 130.311 145.92 130.126L146.029 130.082C146.623 129.834 147.531 129.278 148.513 128.552L148.732 128.388C151.453 126.327 153.918 123.658 155.387 120.835L155.468 120.678L155.741 120.564C160.112 118.71 163.775 116.072 166.533 112.63L166.675 112.451C169.286 109.128 170.408 105.219 169.982 101.336ZM124.872 91.0882C129.038 88.6716 134.369 87.2712 139.995 86.8521L140.521 86.815C148.817 86.2582 155.839 87.2524 161.398 90.3486C165.678 92.7327 168.457 96.8659 168.959 101.449C169.355 105.063 168.311 108.702 165.867 111.813C163.115 115.315 159.389 117.969 154.899 119.797C154.782 119.845 154.687 119.934 154.631 120.048C153.267 122.829 150.821 125.513 148.111 127.566C147.61 127.945 147.127 128.279 146.701 128.547L146.684 128.557L146.716 128.497C147.373 127.227 147.978 125.22 148.555 122.622L148.593 122.451C148.672 122.089 148.355 121.763 147.991 121.835C146.872 122.055 145.742 122.232 144.611 122.366C138.494 123.085 130.952 122.208 125.397 119.736C118.447 116.642 114.929 111.409 115.948 103.928C116.722 98.2454 119.846 94.0024 124.872 91.0882Z" fill="#F58000"/>
<path fill-rule="evenodd" clip-rule="evenodd" d="M29.793 73.8332C29.969 65.2565 35.7528 56.7942 45.874 52.7331C59.5127 47.2606 77.9396 47.7363 90.8777 55.0463C97.9285 59.03 102.041 67.2257 100.868 75.4957C99.897 82.3346 95.1852 87.5216 89.5355 90.8248C83.2479 94.501 75.6363 96.9794 67.8761 97.8003C71.8131 101.122 77.137 104.982 84.3461 109.355C84.3461 109.355 70.1693 104.461 59.9581 98.0426C53.4536 97.7367 47.1243 96.1463 41.6722 92.9789C33.3646 88.1521 29.6463 80.953 29.793 73.8332Z" fill="#F58000"/>
<path fill-rule="evenodd" clip-rule="evenodd" d="M35.1638 37.7289C35.1638 41.359 38.1024 44.3021 41.7255 44.3021C45.3485 44.3021 48.2871 41.359 48.2871 37.7289C48.2871 34.0989 45.3485 31.1562 41.7255 31.1562C38.1024 31.1562 35.1638 34.0989 35.1638 37.7289Z" fill="#96DAD5"/>
<path fill-rule="evenodd" clip-rule="evenodd" d="M72.9316 11.165C72.9316 12.4669 73.984 13.5218 75.2809 13.5218C76.5778 13.5218 77.6328 12.4669 77.6328 11.165C77.6328 9.86351 76.5778 8.80859 75.2809 8.80859C73.984 8.80859 72.9316 9.86351 72.9316 11.165Z" fill="#F58000"/>
<path fill-rule="evenodd" clip-rule="evenodd" d="M65.9081 11.165C65.9081 12.4669 66.9606 13.5218 68.26 13.5218C69.5569 13.5218 70.6094 12.4669 70.6094 11.165C70.6094 9.86351 69.5569 8.80859 68.26 8.80859C66.9606 8.80859 65.9081 9.86351 65.9081 11.165Z" fill="#F58000"/>
<path fill-rule="evenodd" clip-rule="evenodd" d="M58.8847 11.165C58.8847 12.4669 59.9371 13.5218 61.2366 13.5218C62.5335 13.5218 63.5859 12.4669 63.5859 11.165C63.5859 9.86351 62.5335 8.80859 61.2366 8.80859C59.9371 8.80859 58.8847 9.86351 58.8847 11.165Z" fill="#F58000"/>
<path fill-rule="evenodd" clip-rule="evenodd" d="M67.3999 1.33191C70.7065 1.33191 74.0439 1.87024 76.9233 2.9221C81.1048 4.45013 83.8555 7.7195 83.9353 11.2511C84.0048 14.263 82.1237 17.0066 78.7734 18.7781C76.4627 20.0019 73.7351 20.6883 70.6704 20.8197C69.5871 20.8662 68.8229 21.3971 68.4549 22.3555C67.9454 23.6873 68.3108 25.6018 68.9001 27.0748C67.2841 25.501 66.1648 23.4033 65.802 21.1736C65.7376 20.7756 65.4263 20.1618 65.3903 20.0932C65.3491 20.0134 65.2822 19.9499 65.2024 19.9122C65.1072 19.8684 64.6183 19.6476 64.2941 19.6028C63.7691 19.5304 63.2159 19.4853 62.6781 19.4421C61.762 19.3678 60.8125 19.2907 59.9762 19.0746C57.6501 18.4728 55.8154 17.3136 54.5185 15.6294C52.6787 13.2403 52.1357 10.7352 52.9488 8.38417C53.9549 5.47381 56.9476 3.07154 60.7559 2.11478C62.8428 1.59004 65.1123 1.33191 67.3999 1.33191ZM70.3025 29.1042C70.4209 29.1042 70.5366 29.0511 70.6164 28.9521C70.7451 28.7907 70.7296 28.558 70.583 28.4142C69.7235 27.5705 68.545 24.3676 69.2063 22.6439C69.4559 21.9901 69.9448 21.6569 70.7039 21.624C73.8895 21.4878 76.7303 20.7701 79.1491 19.4904C82.7773 17.5711 84.8153 14.5608 84.7381 11.2331C84.6506 7.3673 81.6914 3.80823 77.1986 2.16538C72.1089 0.305521 65.8895 -0.00524795 60.5604 1.33327C56.4921 2.35558 53.2834 4.95619 52.1897 8.1206C51.5567 9.94685 51.338 12.8185 53.8829 16.1218C55.2904 17.9508 57.2744 19.2064 59.7755 19.8541C60.6761 20.0881 61.6617 20.1676 62.6138 20.2447C63.1644 20.2895 63.6842 20.3313 64.1834 20.4006C64.3069 20.4176 64.5488 20.5069 64.7392 20.5877C64.8473 20.8143 64.9811 21.1329 65.0094 21.3037C65.5189 24.4379 67.4179 27.33 70.0863 29.0408C70.1532 29.083 70.2279 29.1042 70.3025 29.1042Z" fill="#F58000"/>
<path fill-rule="evenodd" clip-rule="evenodd" d="M102.5 69.8974C102.5 69.9303 102.527 69.955 102.558 69.955L109.944 69.9961L110.905 70.0022C110.938 70.0022 110.963 69.9776 110.965 69.9447C110.965 69.9138 110.938 69.8871 110.907 69.8871L109.952 69.881L102.56 69.8398C102.527 69.8398 102.502 69.8666 102.5 69.8974Z" fill="#DB9170"/>
<path fill-rule="evenodd" clip-rule="evenodd" d="M119.854 116.701V116.703C119.858 116.727 119.864 116.748 119.868 116.77C120.491 116.709 121.104 116.6 121.714 116.479C122.429 116.331 123.141 116.164 123.84 115.93C123.106 115.985 122.384 116.111 121.666 116.252C121.058 116.38 120.452 116.518 119.854 116.701Z" fill="#DB9170"/>
<path fill-rule="evenodd" clip-rule="evenodd" d="M124.751 138.839V138.841C124.757 138.878 124.765 138.911 124.774 138.946C124.788 138.946 124.805 138.948 124.819 138.948L125.799 138.981C126.452 139.001 127.106 139.006 127.76 139.008C128.413 139.003 129.067 139.001 129.719 138.981C129.842 138.977 129.966 138.975 130.09 138.971C130.086 138.919 130.08 138.868 130.075 138.814C129.956 138.81 129.838 138.808 129.719 138.804C129.067 138.781 128.413 138.779 127.76 138.777C127.106 138.779 126.452 138.781 125.799 138.804L124.819 138.835C124.797 138.837 124.774 138.837 124.751 138.839Z" fill="#DB9170"/>
<path fill-rule="evenodd" clip-rule="evenodd" d="M109.748 72.749V77.3515C109.748 77.3823 109.775 77.4091 109.807 77.4091C109.812 77.4091 109.814 77.4091 109.818 77.407L110.874 79.0741L112.255 85.4034C112.259 85.2903 112.266 85.1814 112.271 85.0704L110.931 79.0536C110.931 79.0515 110.929 79.0474 110.927 79.0453L109.853 77.3844C109.861 77.3741 109.865 77.3638 109.865 77.3515V72.749C109.865 72.7161 109.838 72.6914 109.807 72.6914C109.791 72.6914 109.775 72.6976 109.762 72.7099C109.754 72.7202 109.748 72.7325 109.748 72.749Z" fill="#DB9170"/>
<path fill-rule="evenodd" clip-rule="evenodd" d="M105.178 70.5604V70.5625C105.18 70.6262 105.23 70.6755 105.294 70.6755H109.16V71.4526H108.725C108.661 71.4526 108.609 71.504 108.609 71.5697C108.609 71.6335 108.661 71.6849 108.725 71.6849H109.83C109.892 71.6807 109.939 71.6314 109.939 71.5697C109.939 71.5122 109.9 71.4649 109.847 71.4546C109.84 71.4526 109.832 71.4526 109.824 71.4526H109.391V70.5604C109.391 70.4967 109.339 70.4453 109.275 70.4453H105.294C105.23 70.4453 105.178 70.4967 105.178 70.5604Z" fill="#EDFBFB"/>
<path fill-rule="evenodd" clip-rule="evenodd" d="M103.611 70.5625V72.5811H105.179V72.5791C105.179 72.5153 105.23 72.4639 105.294 72.4639H109.16V71.6849H108.725C108.661 71.6849 108.61 71.6335 108.61 71.5698C108.61 71.504 108.661 71.4526 108.725 71.4526H109.16V70.6756H105.294C105.23 70.6756 105.18 70.6262 105.179 70.5625H103.611Z" fill="#DB9170"/>
<path fill-rule="evenodd" clip-rule="evenodd" d="M103.545 114.801C104.048 114.978 104.557 115.13 105.069 115.28C105.578 115.43 106.093 115.563 106.609 115.697C107.124 115.824 107.64 115.952 108.162 116.061L108.941 116.225C109.205 116.273 109.465 116.328 109.729 116.367C109.477 116.277 109.224 116.201 108.97 116.116L108.205 115.89C107.696 115.738 107.18 115.605 106.665 115.473C106.149 115.346 105.634 115.218 105.112 115.107C104.592 114.994 104.071 114.885 103.545 114.801Z" fill="#DB9170"/>
<path fill-rule="evenodd" clip-rule="evenodd" d="M101.863 96.5547C101.958 99.7121 102.047 102.278 102.123 103.673L101.915 97.7634L101.863 96.5547Z" fill="#DB9170"/>
<path fill-rule="evenodd" clip-rule="evenodd" d="M103.584 138.172V138.174C103.654 139.668 103.697 140.571 103.704 140.729L103.784 140.754H109.859C109.859 140.733 109.904 139.82 109.98 138.221C109.886 138.225 109.793 138.229 109.698 138.234C109.547 138.238 109.395 138.242 109.244 138.246C109.152 138.248 109.061 138.252 108.968 138.252C108.407 138.268 107.844 138.271 107.283 138.273C106.63 138.271 105.978 138.266 105.324 138.246L104.343 138.215C104.238 138.209 104.133 138.203 104.027 138.197C103.881 138.19 103.733 138.182 103.584 138.172Z" fill="#96DAD5"/>
<path fill-rule="evenodd" clip-rule="evenodd" d="M104.024 138.119C104.024 138.146 104.026 138.17 104.028 138.197C104.133 138.203 104.238 138.209 104.343 138.216L105.325 138.246C105.979 138.267 106.63 138.271 107.284 138.273C107.845 138.271 108.408 138.269 108.969 138.253C109.062 138.253 109.152 138.249 109.245 138.246C109.395 138.242 109.548 138.238 109.699 138.234C109.701 138.185 109.705 138.135 109.707 138.084C109.552 138.078 109.4 138.074 109.245 138.07C108.975 138.061 108.705 138.055 108.432 138.051C108.051 138.047 107.667 138.045 107.284 138.043C106.63 138.045 105.979 138.049 105.325 138.07L104.343 138.101C104.236 138.107 104.131 138.113 104.024 138.119Z" fill="#DB9170"/>
<path fill-rule="evenodd" clip-rule="evenodd" d="M124.378 138.86C124.378 138.882 124.38 138.905 124.38 138.925C124.512 138.932 124.642 138.938 124.774 138.946C124.788 138.946 124.805 138.948 124.819 138.948L125.799 138.981C126.452 139.001 127.106 139.006 127.759 139.008C128.413 139.003 129.067 139.001 129.718 138.981C129.842 138.977 129.966 138.975 130.09 138.971C130.275 138.964 130.461 138.958 130.644 138.95C130.646 138.911 130.648 138.874 130.65 138.835C130.459 138.827 130.267 138.821 130.075 138.814C129.956 138.81 129.838 138.808 129.718 138.804C129.067 138.781 128.413 138.779 127.759 138.777C127.106 138.779 126.452 138.781 125.799 138.804L124.819 138.835C124.796 138.837 124.774 138.837 124.751 138.839C124.627 138.847 124.502 138.853 124.378 138.86Z" fill="#2A4D52"/>
<path fill-rule="evenodd" clip-rule="evenodd" d="M130.453 143.958C130.455 143.779 130.492 142.926 130.559 141.524V140.842L124.488 140.684L124.579 141.391L124.919 141.496H124.921L125.739 141.746C125.801 141.765 125.836 141.829 125.818 141.888C125.801 141.94 125.756 141.97 125.706 141.97C125.694 141.97 125.684 141.97 125.671 141.964L124.541 141.619L124.17 141.506L123.127 141.849L123.494 141.962H123.496L124.754 142.347C124.816 142.365 124.849 142.431 124.83 142.493C124.818 142.54 124.77 142.573 124.719 142.573C124.71 142.573 124.698 142.573 124.688 142.569L123.117 142.088L122.745 141.975L117.174 143.802C116.918 143.921 117.007 144.306 117.289 144.297L130.453 143.958Z" fill="#2A4D52"/>
<path fill-rule="evenodd" clip-rule="evenodd" d="M124.578 140.697L124.487 140.668C124.492 140.684 124.494 140.693 124.494 140.695L124.578 140.697Z" fill="#2A4D52"/>
<path fill-rule="evenodd" clip-rule="evenodd" d="M124.169 140.814L124.462 140.719C124.462 140.707 124.462 140.688 124.464 140.664L124.486 140.67C124.48 140.641 124.47 140.592 124.455 140.52C124.455 140.518 124.453 140.514 124.453 140.512C124.457 140.619 124.46 140.686 124.46 140.717L124.169 140.814Z" fill="#2A4D52"/>
<path fill-rule="evenodd" clip-rule="evenodd" d="M124.17 140.81L124.541 140.923L125.671 141.269C125.683 141.275 125.694 141.275 125.706 141.275C125.755 141.275 125.801 141.244 125.817 141.193C125.836 141.133 125.801 141.069 125.739 141.051L124.92 140.8H124.918L124.578 140.695L124.493 140.693C124.493 140.691 124.492 140.683 124.487 140.666L124.465 140.66C124.463 140.685 124.463 140.703 124.463 140.716L124.17 140.81Z" fill="#EDFBFB"/>
<path fill-rule="evenodd" clip-rule="evenodd" d="M124.487 140.668C124.492 140.684 124.494 140.693 124.494 140.695L124.578 140.697L124.487 140.668Z" fill="#EDFBFB"/>
<path fill-rule="evenodd" clip-rule="evenodd" d="M122.744 141.282L123.115 141.395L124.687 141.876C124.697 141.88 124.709 141.88 124.717 141.88C124.769 141.88 124.816 141.847 124.829 141.8C124.847 141.738 124.814 141.672 124.753 141.654L123.495 141.269H123.493L123.126 141.156L122.744 141.282Z" fill="#EDFBFB"/>
<path fill-rule="evenodd" clip-rule="evenodd" d="M109.68 143.957C109.682 143.774 109.756 142.203 109.822 140.754H103.739C103.744 140.755 103.785 141.447 103.785 141.447L104.028 141.521L104.758 141.745C104.822 141.763 104.855 141.827 104.836 141.887C104.822 141.938 104.775 141.969 104.725 141.969C104.715 141.969 104.702 141.969 104.692 141.963L103.655 141.646H103.651L103.298 141.537H103.296L102.253 141.88L102.605 141.987H102.607L103.774 142.345C103.834 142.363 103.869 142.429 103.851 142.491C103.836 142.538 103.791 142.571 103.739 142.571C103.729 142.571 103.719 142.571 103.706 142.567L102.226 142.113H102.224L101.869 142.004H101.867L96.4005 143.8C96.1427 143.92 96.2337 144.304 96.516 144.296L109.68 143.957Z" fill="#2A4D52"/>
<path fill-rule="evenodd" clip-rule="evenodd" d="M103.785 140.755L103.705 140.73C103.707 140.747 103.707 140.755 103.707 140.755H103.785Z" fill="#2A4D52"/>
<path fill-rule="evenodd" clip-rule="evenodd" d="M103.521 137.273C103.537 137.582 103.552 137.872 103.566 138.143C103.566 138.153 103.566 138.164 103.568 138.172C103.611 139.021 103.645 139.676 103.663 140.112C103.68 140.449 103.688 140.655 103.688 140.715L103.673 140.719L103.704 140.729C103.698 140.571 103.655 139.668 103.585 138.174V138.172C103.733 138.182 103.882 138.19 104.028 138.196C104.133 138.203 104.238 138.209 104.343 138.215L105.325 138.246C105.979 138.266 106.63 138.27 107.284 138.272C107.845 138.27 108.408 138.268 108.969 138.252C108.796 138.182 108.616 138.114 108.432 138.05C108.051 138.046 107.667 138.044 107.284 138.042C106.63 138.044 105.979 138.048 105.325 138.069L104.343 138.1C104.236 138.106 104.131 138.112 104.024 138.118C103.877 138.124 103.731 138.133 103.583 138.143C103.57 137.874 103.558 137.584 103.543 137.275V137.273H103.521Z" fill="#2A4D52"/>
<path fill-rule="evenodd" clip-rule="evenodd" d="M103.298 140.844L103.651 140.953H103.655L104.692 141.27C104.703 141.276 104.715 141.276 104.725 141.276C104.775 141.276 104.822 141.245 104.837 141.194C104.855 141.134 104.822 141.07 104.758 141.052L104.028 140.828L103.785 140.754H103.706C103.706 140.754 103.706 140.745 103.705 140.729L103.673 140.719L103.298 140.844Z" fill="#EDFBFB"/>
<path fill-rule="evenodd" clip-rule="evenodd" d="M103.705 140.73C103.707 140.747 103.707 140.755 103.707 140.755H103.785L103.705 140.73Z" fill="#EDFBFB"/>
<path fill-rule="evenodd" clip-rule="evenodd" d="M101.869 141.311L102.224 141.42H102.226L103.706 141.874C103.719 141.878 103.729 141.878 103.739 141.878C103.791 141.878 103.836 141.845 103.85 141.798C103.869 141.736 103.834 141.671 103.774 141.652L102.607 141.294H102.605L102.252 141.188H102.251L101.869 141.311Z" fill="#EDFBFB"/>
<path fill-rule="evenodd" clip-rule="evenodd" d="M102.5 69.8974C102.5 69.9303 102.527 69.955 102.558 69.955L109.944 69.9961L110.905 70.0022C110.938 70.0022 110.963 69.9776 110.965 69.9447C110.965 69.9138 110.938 69.8871 110.907 69.8871L109.952 69.881L102.56 69.8398C102.527 69.8398 102.502 69.8666 102.5 69.8974Z" fill="#96DAD5"/>
<path fill-rule="evenodd" clip-rule="evenodd" d="M103.545 114.801C104.048 114.978 104.557 115.13 105.069 115.28C105.578 115.43 106.093 115.563 106.609 115.697C107.124 115.824 107.64 115.952 108.162 116.061L108.941 116.225C109.205 116.273 109.465 116.328 109.729 116.367C109.477 116.277 109.224 116.201 108.97 116.116L108.205 115.89C107.696 115.738 107.18 115.605 106.665 115.473C106.149 115.346 105.634 115.218 105.112 115.107C104.592 114.994 104.071 114.885 103.545 114.801Z" fill="#96DAD5"/>
<path fill-rule="evenodd" clip-rule="evenodd" d="M109.747 72.749V77.3515C109.747 77.3823 109.774 77.4091 109.807 77.4091C109.811 77.4091 109.813 77.4091 109.817 77.407L110.873 79.0741L112.255 85.4034V85.4095L112.485 86.4641C112.492 86.3448 112.496 86.2256 112.502 86.1085V86.1023L112.271 85.0704L110.931 79.0536C110.931 79.0515 110.929 79.0474 110.927 79.0453L109.852 77.3844C109.861 77.3741 109.865 77.3638 109.865 77.3515V72.749C109.865 72.7161 109.838 72.6914 109.807 72.6914C109.791 72.6914 109.774 72.6976 109.762 72.7099C109.753 72.7202 109.747 72.7325 109.747 72.749Z" fill="#96DAD5"/>
<path fill-rule="evenodd" clip-rule="evenodd" d="M103.705 140.73C103.707 140.747 103.707 140.755 103.707 140.755H103.785L103.705 140.73Z" fill="#96DAD5"/>
<path fill-rule="evenodd" clip-rule="evenodd" d="M103.582 138.144C103.582 138.154 103.584 138.162 103.584 138.172C103.732 138.183 103.881 138.191 104.027 138.197C104.132 138.203 104.237 138.209 104.342 138.216L105.324 138.246C105.978 138.267 106.629 138.271 107.283 138.273C107.844 138.271 108.407 138.269 108.968 138.253C109.06 138.253 109.151 138.249 109.244 138.246C109.394 138.242 109.547 138.238 109.698 138.234C109.792 138.23 109.885 138.226 109.98 138.222C109.982 138.179 109.984 138.138 109.986 138.094C109.894 138.09 109.799 138.086 109.706 138.084C109.551 138.078 109.399 138.074 109.244 138.07C108.974 138.061 108.704 138.055 108.432 138.051C108.05 138.047 107.667 138.045 107.283 138.043C106.629 138.045 105.978 138.049 105.324 138.07L104.342 138.101C104.235 138.107 104.13 138.113 104.023 138.119C103.877 138.125 103.73 138.133 103.582 138.144Z" fill="#96DAD5"/>
<path fill-rule="evenodd" clip-rule="evenodd" d="M101.364 85.2188C101.626 92.9069 101.993 102.034 102.355 110.645L102.31 108.978L102.178 105.241L102.129 103.806L102.124 103.707L102.122 103.674L101.914 97.7643L101.863 96.5556L101.861 96.4981L101.592 90.2901L101.432 86.5508L101.364 85.2188Z" fill="#96DAD5"/>
<path fill-rule="evenodd" clip-rule="evenodd" d="M103.611 70.5625V72.5811H105.179V72.5791C105.179 72.5153 105.23 72.4639 105.294 72.4639H109.16V71.6849H108.725C108.661 71.6849 108.61 71.6335 108.61 71.5698C108.61 71.504 108.661 71.4526 108.725 71.4526H109.16V70.6756H105.294C105.23 70.6756 105.18 70.6262 105.179 70.5625H103.611Z" fill="#96DAD5"/>
<path fill-rule="evenodd" clip-rule="evenodd" d="M109.944 69.9979L110.905 70.0041C110.938 70.0041 110.963 69.9794 110.965 69.9465C110.965 69.9157 110.938 69.889 110.907 69.889L109.952 69.8828L109.944 69.9979Z" fill="#96DAD5"/>
<path fill-rule="evenodd" clip-rule="evenodd" d="M106.61 115.696C107.126 115.824 107.641 115.951 108.163 116.06L108.942 116.225C109.206 116.272 109.466 116.328 109.73 116.367C109.479 116.276 109.225 116.2 108.971 116.116L108.206 115.89C107.697 115.738 107.182 115.604 106.666 115.472C106.15 115.345 105.635 115.218 105.113 115.107C104.594 114.993 104.072 114.884 103.546 114.8C104.049 114.977 104.559 115.129 105.07 115.279C105.579 115.429 106.095 115.563 106.61 115.696ZM121.715 116.48C122.43 116.332 123.142 116.165 123.841 115.931C123.107 115.986 122.385 116.112 121.667 116.254C121.059 116.381 120.453 116.519 119.855 116.702V116.704C119.75 116.735 119.646 116.767 119.541 116.802C119.651 116.794 119.76 116.784 119.869 116.772C120.492 116.71 121.104 116.601 121.715 116.48ZM101.195 70.5612C101.171 69.4368 101.27 68.4953 101.255 67.7985H118.7C118.981 67.7579 119.594 68.5047 119.594 68.5052C119.594 68.5058 120.466 70.5612 120.466 70.5242C121.579 73.4234 123.028 79.0489 124.047 85.2918C125.066 91.5347 129.684 128.776 130.814 138.845C130.761 138.843 130.707 138.839 130.652 138.837C130.46 138.828 130.268 138.822 130.076 138.816C129.957 138.812 129.839 138.81 129.72 138.806C129.068 138.783 128.414 138.781 127.761 138.779C127.107 138.781 126.453 138.783 125.8 138.806L124.82 138.837C124.797 138.839 124.775 138.839 124.752 138.841C124.628 138.849 124.503 138.855 124.379 138.861C124.286 138.865 124.195 138.87 124.105 138.876L123.028 133.881L121.317 126.044L120.306 121.425L119.989 119.968C117.554 108.777 112.487 86.4656 112.487 86.4656V86.4697C111.677 103.194 110.396 129.677 109.988 138.095C109.895 138.09 109.8 138.086 109.707 138.084C109.553 138.078 109.4 138.074 109.246 138.07C108.975 138.062 108.705 138.055 108.433 138.051C108.052 138.047 107.668 138.045 107.285 138.043C106.631 138.045 105.979 138.049 105.326 138.07L104.344 138.101C104.237 138.107 104.132 138.113 104.025 138.119C103.878 138.125 103.732 138.134 103.583 138.144C103.571 137.875 103.559 137.585 103.544 137.276V137.274C103.303 132.121 102.833 121.855 102.36 110.718L102.358 110.679L102.356 110.644L102.311 108.977L102.179 105.24L102.13 103.805L102.125 103.706L102.123 103.673L101.915 97.7632L101.864 96.5545L101.861 96.497L101.593 90.289L101.433 86.5499L101.365 85.2178V85.2075C101.195 80.2103 101.072 75.8216 101.02 72.5799L101.195 70.5612Z" fill="#96DAD5"/>
<path fill-rule="evenodd" clip-rule="evenodd" d="M124.487 140.668C124.492 140.684 124.494 140.693 124.494 140.695L124.578 140.697L124.487 140.668Z" fill="#96DAD5"/>
<path fill-rule="evenodd" clip-rule="evenodd" d="M120.306 121.426C122.013 129.28 123.44 135.84 124.1 138.878C124.102 138.89 124.104 138.903 124.108 138.913C124.139 139.057 124.168 139.193 124.197 139.32L124.11 138.913C124.199 138.917 124.289 138.923 124.38 138.927C124.512 138.934 124.642 138.94 124.774 138.948C124.788 138.948 124.805 138.95 124.82 138.95L125.799 138.983C126.453 139.003 127.106 139.008 127.76 139.01C128.414 139.005 129.067 139.003 129.719 138.983C129.842 138.979 129.966 138.977 130.09 138.973C130.276 138.966 130.461 138.96 130.645 138.952C130.705 138.95 130.764 138.946 130.824 138.944C130.82 138.911 130.818 138.878 130.814 138.845C130.76 138.843 130.706 138.839 130.651 138.837C130.459 138.829 130.267 138.823 130.075 138.816C129.956 138.812 129.838 138.81 129.719 138.806C129.067 138.783 128.414 138.781 127.76 138.779C127.106 138.781 126.453 138.783 125.799 138.806L124.82 138.837C124.797 138.839 124.774 138.839 124.752 138.841C124.628 138.849 124.502 138.855 124.378 138.862C124.286 138.866 124.195 138.87 124.104 138.876L123.027 133.881L121.316 126.045L120.306 121.426Z" fill="#96DAD5"/>
<path fill-rule="evenodd" clip-rule="evenodd" d="M119.54 116.801C119.65 116.793 119.759 116.783 119.868 116.77C120.491 116.709 121.103 116.6 121.714 116.479C122.429 116.331 123.141 116.164 123.84 115.93C123.106 115.985 122.384 116.111 121.666 116.252C121.058 116.38 120.452 116.518 119.854 116.701V116.703C119.749 116.733 119.646 116.766 119.54 116.801Z" fill="#96DAD5"/>
<path fill-rule="evenodd" clip-rule="evenodd" d="M117.864 68.5039V70.5225H120.465C120.465 70.5595 119.614 68.5039 119.614 68.5039H117.864Z" fill="#672448"/>
<path fill-rule="evenodd" clip-rule="evenodd" d="M117.4 70.5225H110.907V68.5039H117.4V70.5225Z" fill="#672448"/>
<path fill-rule="evenodd" clip-rule="evenodd" d="M109.94 69.5112C109.94 69.5728 109.893 69.6222 109.831 69.6263H109.392V70.5225H110.443V68.5039H109.392V69.394H109.825C109.833 69.394 109.841 69.394 109.848 69.396C109.901 69.4063 109.94 69.4536 109.94 69.5112Z" fill="#672448"/>
<path fill-rule="evenodd" clip-rule="evenodd" d="M105.178 70.5231V70.5252C105.18 70.5889 105.229 70.6382 105.293 70.6382H109.275C109.339 70.6382 109.389 70.5889 109.391 70.5252V69.6289H109.16V70.408H105.293C105.229 70.408 105.178 70.4594 105.178 70.5231Z" fill="#EDFBFB"/>
<path fill-rule="evenodd" clip-rule="evenodd" d="M103.611 68.5039V70.5225H105.179V70.5205C105.179 70.4567 105.23 70.4054 105.294 70.4054H109.16V69.6263H108.725C108.661 69.6263 108.61 69.5749 108.61 69.5112C108.61 69.4454 108.661 69.394 108.725 69.394H109.16V68.617H105.294C105.23 68.617 105.18 68.5676 105.179 68.5039H103.611Z" fill="#672448"/>
<path fill-rule="evenodd" clip-rule="evenodd" d="M100.998 68.5039C101.002 69.1124 101.01 69.7887 101.02 70.5225H103.148V68.5039H100.998Z" fill="#672448"/>
<path fill-rule="evenodd" clip-rule="evenodd" d="M102.5 69.8974C102.5 69.9303 102.527 69.955 102.558 69.955L109.944 69.9961L110.905 70.0022C110.938 70.0022 110.963 69.9776 110.965 69.9447C110.965 69.9138 110.938 69.8871 110.907 69.8871L109.952 69.881L102.56 69.8398C102.527 69.8398 102.502 69.8666 102.5 69.8974Z" fill="#2A4D52"/>
<path fill-rule="evenodd" clip-rule="evenodd" d="M124.111 138.914L124.197 139.321L124.309 139.837L124.395 140.236L124.449 140.482L124.455 140.507V140.511C124.455 140.513 124.457 140.517 124.457 140.519C124.472 140.591 124.482 140.641 124.488 140.67L124.579 140.698L125.111 140.711L130.266 140.826L130.559 140.832L131.037 140.842C131.037 140.84 130.961 140.158 130.825 138.945C130.765 138.947 130.705 138.951 130.645 138.953C130.462 138.961 130.276 138.968 130.091 138.974C129.967 138.978 129.843 138.98 129.719 138.984C129.068 139.005 128.414 139.007 127.761 139.011C127.107 139.009 126.453 139.005 125.8 138.984L124.82 138.951C124.806 138.951 124.789 138.949 124.775 138.949C124.643 138.941 124.513 138.935 124.381 138.928C124.29 138.924 124.199 138.918 124.111 138.914Z" fill="#96DAD5"/>
<path fill-rule="evenodd" clip-rule="evenodd" d="M109.784 77.3498C109.784 77.356 109.784 77.3601 109.788 77.3642L109.817 77.4095L110.873 79.0766L112.254 85.4058V85.412L112.486 86.4665V86.4706L114.29 94.7424L117.729 110.41L121.208 126.07L122.95 133.898L124.082 138.879L124.091 138.912L124.447 140.482L124.394 140.235L124.307 139.837L124.196 139.321L124.109 138.914L124.103 138.877L123.027 133.881L121.315 126.045L120.305 121.426L119.987 119.969L117.888 110.375L114.418 94.7136L112.502 86.1109V86.1047L112.271 85.0728L110.931 79.056C110.931 79.054 110.929 79.0498 110.927 79.0478L109.852 77.3868L109.828 77.3498L109.865 77.1032V76.8359L109.784 77.3498Z" fill="#2A4D52"/>
<path fill-rule="evenodd" clip-rule="evenodd" d="M109.748 72.749V77.3515C109.748 77.3823 109.775 77.409 109.807 77.409C109.812 77.409 109.814 77.409 109.818 77.407C109.832 77.4049 109.847 77.3967 109.853 77.3844C109.861 77.3741 109.865 77.3638 109.865 77.3515V72.749C109.865 72.7161 109.838 72.6914 109.807 72.6914C109.791 72.6914 109.775 72.6976 109.762 72.7099C109.754 72.7202 109.748 72.7325 109.748 72.749Z" fill="#2A4D52"/>
<path fill-rule="evenodd" clip-rule="evenodd" d="M103.545 114.801C104.048 114.978 104.557 115.13 105.069 115.28C105.578 115.43 106.093 115.563 106.609 115.697C107.124 115.824 107.64 115.952 108.162 116.061L108.941 116.225C109.205 116.273 109.465 116.328 109.729 116.367C109.477 116.277 109.224 116.201 108.97 116.116L108.205 115.89C107.696 115.738 107.18 115.605 106.665 115.473C106.149 115.346 105.634 115.218 105.112 115.107C104.592 114.994 104.071 114.885 103.545 114.801Z" fill="#2A4D52"/>
<path fill-rule="evenodd" clip-rule="evenodd" d="M119.54 116.801C119.65 116.793 119.759 116.783 119.868 116.77C120.491 116.709 121.103 116.6 121.714 116.479C122.429 116.331 123.141 116.164 123.84 115.93C123.106 115.985 122.384 116.111 121.666 116.252C121.058 116.38 120.452 116.518 119.854 116.701V116.703C119.749 116.733 119.646 116.766 119.54 116.801Z" fill="#2A4D52"/>
<path fill-rule="evenodd" clip-rule="evenodd" d="M101.243 82.8125L101.348 86.5496L101.478 90.2887L101.742 97.763L102.063 105.239L102.226 108.976L102.414 112.716L102.36 110.718L102.358 110.678L102.356 110.644L102.311 108.976L102.179 105.239L102.13 103.804L102.125 103.706L102.123 103.673L101.915 97.763L101.864 96.5543L101.861 96.4967L101.593 90.2887L101.433 86.5496L101.364 85.2176V85.2073L101.243 82.8125Z" fill="#2A4D52"/>
<path fill-rule="evenodd" clip-rule="evenodd" d="M123.84 138.892C123.922 138.899 124.007 138.905 124.091 138.909C124.095 138.909 124.102 138.911 124.108 138.911H124.11C124.198 138.915 124.289 138.921 124.38 138.925C124.512 138.932 124.642 138.938 124.774 138.946C124.788 138.946 124.805 138.948 124.819 138.948L125.799 138.981C126.452 139.001 127.106 139.006 127.76 139.008C128.413 139.003 129.067 139.001 129.719 138.981C129.842 138.977 129.966 138.975 130.09 138.971C130.275 138.964 130.461 138.958 130.645 138.95C130.704 138.948 130.764 138.944 130.824 138.942C131.111 138.929 131.395 138.913 131.68 138.892C131.391 138.872 131.102 138.855 130.813 138.843C130.76 138.841 130.706 138.837 130.651 138.835C130.459 138.827 130.267 138.821 130.075 138.814C129.956 138.81 129.838 138.808 129.719 138.804C129.067 138.781 128.413 138.779 127.76 138.777C127.106 138.779 126.452 138.781 125.799 138.804L124.819 138.835C124.797 138.837 124.774 138.837 124.751 138.839C124.627 138.847 124.502 138.853 124.378 138.86C124.285 138.864 124.195 138.868 124.104 138.874C124.102 138.874 124.1 138.876 124.1 138.876C124.093 138.874 124.087 138.874 124.083 138.876C124 138.88 123.92 138.886 123.84 138.892Z" fill="#2A4D52"/>
<path fill-rule="evenodd" clip-rule="evenodd" d="M103.363 138.158C103.431 138.164 103.499 138.168 103.567 138.172C103.574 138.172 103.578 138.175 103.584 138.172C103.732 138.183 103.881 138.191 104.027 138.197C104.132 138.203 104.238 138.209 104.343 138.216L105.324 138.246C105.978 138.267 106.63 138.271 107.283 138.273C107.844 138.271 108.407 138.269 108.968 138.253C109.061 138.253 109.151 138.249 109.244 138.246C109.395 138.242 109.547 138.238 109.698 138.234C109.793 138.23 109.886 138.226 109.981 138.222C110.387 138.207 110.795 138.187 111.203 138.158C110.797 138.129 110.391 138.109 109.987 138.094C109.894 138.09 109.799 138.086 109.706 138.084C109.552 138.078 109.399 138.074 109.244 138.07C108.974 138.061 108.704 138.055 108.432 138.051C108.05 138.047 107.667 138.045 107.283 138.043C106.63 138.045 105.978 138.049 105.324 138.07L104.343 138.101C104.236 138.107 104.131 138.113 104.023 138.119C103.877 138.125 103.73 138.133 103.582 138.144H103.565C103.497 138.148 103.431 138.152 103.363 138.158Z" fill="#2A4D52"/>
<path fill-rule="evenodd" clip-rule="evenodd" d="M118.313 37.8634C118.249 37.8246 117.892 37.6373 117.529 37.4688C117.975 37.6355 118.389 37.8511 118.777 38.1307C119.138 38.3876 119.474 38.7001 119.787 39.0783C119.366 38.6119 118.851 38.1882 118.313 37.8634Z" fill="#DB9170"/>
<path fill-rule="evenodd" clip-rule="evenodd" d="M101.736 57.591C101.82 56.5653 101.911 55.5272 102.002 54.5117C101.926 55.4614 101.853 56.4399 101.736 57.591Z" fill="#DB9170"/>
<path fill-rule="evenodd" clip-rule="evenodd" d="M101.187 64.9439L119.174 64.8164C119.162 64.8863 119.149 64.9541 119.137 65.022L101.176 65.1494C101.181 65.0816 101.185 65.0137 101.187 64.9439Z" fill="#DB9170"/>
<path fill-rule="evenodd" clip-rule="evenodd" d="M103.409 67.691H103.411L118.676 67.582C118.663 67.6478 118.657 67.6828 118.657 67.6828C118.655 67.7218 118.589 67.7568 118.466 67.7894L103.644 67.8945L101.858 67.9068L101.085 67.9109C101.081 67.8534 101.078 67.7855 101.078 67.7054L101.792 67.7013L103.409 67.691Z" fill="#DB9170"/>
<path fill-rule="evenodd" clip-rule="evenodd" d="M64.2445 42.2254C64.5559 42.1575 65.3578 42.5214 66.1539 42.9078C66.156 42.9099 66.156 42.9099 66.1579 42.9099C66.4878 43.0702 66.8156 43.2326 67.1064 43.3704L67.1437 43.3868C67.3912 43.506 67.6095 43.6026 67.7807 43.6623C67.7871 43.6643 67.793 43.6664 67.8015 43.6705C67.8796 43.6952 67.9436 43.7137 67.9972 43.7219C67.5211 43.1956 65.4217 41.2613 65.5518 41.0783C65.7766 40.77 66.9622 41.3147 68.2096 42.2994C68.2921 42.3631 68.4282 42.4556 68.6055 42.5646C68.6799 42.6098 68.7601 42.6571 68.8467 42.7064C68.9148 42.7475 68.9808 42.7866 69.0488 42.8215C69.3996 43.0147 69.812 43.2182 70.2159 43.3786C70.2819 43.4053 70.35 43.43 70.4162 43.4526C70.7871 43.5903 71.1418 43.6808 71.4224 43.6808C71.4367 43.6808 71.4511 43.6808 71.4657 43.6787C71.7851 43.6684 71.9936 43.5307 72.006 43.1956C72.0287 42.6262 71.3358 41.9746 71.01 41.5696C70.7665 41.2675 70.5067 40.9242 70.317 40.5685C70.2118 40.3733 69.7932 39.6004 70.0118 39.3989C70.0613 39.3557 70.1378 39.364 70.2017 39.3783C71.8326 39.7237 73.1298 40.8892 74.2825 42.0198C76.5837 44.2748 77.965 47.2 80.0003 49.6708C81.9965 52.0965 84.7988 55.9981 88.2837 55.9117C90.8383 55.85 93.3973 53.8111 95.7294 51.1511C95.7727 51.1018 95.8181 51.0502 95.8616 50.9988C95.9027 50.9515 95.9418 50.9042 95.9853 50.859C96.445 50.3204 96.8968 49.7592 97.3358 49.1857C98.1894 48.0757 98.9998 46.9204 99.7545 45.8001C100.08 45.3191 100.394 44.8442 100.697 44.3817C100.732 44.3303 100.765 44.2769 100.798 44.2255C100.825 44.1864 100.85 44.1494 100.872 44.1104H100.874C101.864 42.5933 102.63 41.1484 103.425 40.2211C105.786 37.4667 109.648 36.9693 109.648 36.9693C110.24 36.813 110.889 36.7349 111.595 36.7637C111.91 36.776 112.217 36.7884 112.519 36.8007C112.568 36.8048 112.616 36.8048 112.665 36.8069C112.791 36.813 112.914 36.8171 113.036 36.8213C113.158 36.8254 113.279 36.8315 113.399 36.8356C113.426 36.8377 113.455 36.8377 113.481 36.8398C113.572 36.8439 113.659 36.848 113.747 36.8521C113.772 36.8521 113.797 36.8541 113.822 36.8562C114.882 36.9117 115.836 37.0001 116.694 37.2118C116.782 37.3532 119.787 39.0862 119.787 39.0803L119.789 39.0823C120.474 39.9046 121.053 41.0372 121.544 42.6057C121.573 42.6982 121.6 42.801 121.621 42.9161C121.623 42.9181 121.623 42.9202 121.623 42.9222C122.126 43.8658 122.668 44.7867 123.247 45.685C123.249 45.6891 123.254 45.6932 123.256 45.6973C124.116 47.0355 125.058 48.3203 126.076 49.5434C126.384 49.9155 126.699 50.2814 127.023 50.6411C127.056 50.676 127.087 50.713 127.122 50.748C128.081 51.8087 129.101 52.818 130.172 53.7615C132.392 55.7288 134.84 57.439 137.453 58.8533C138.125 59.2172 138.809 59.5604 139.502 59.8852C139.713 59.9839 139.925 60.0805 140.137 60.1751C141.366 60.7239 142.624 61.2093 143.905 61.6266C144.208 61.7273 144.511 61.8218 144.816 61.9143C146.373 62.383 148.903 62.6624 149.742 63.0386C150.973 63.5874 152.209 64.1447 153.402 64.7655C153.609 64.8703 156.062 66.2435 155.522 66.4614C154.805 66.7574 151.408 65.4438 150.596 65.4623C151.297 66.0009 154.297 67.9003 154.18 68.1532C154 68.5252 152.782 68.266 151.314 67.5794C152.058 68.1468 152.47 68.6278 152.355 68.8642C152.141 69.302 150.2 68.745 148.025 67.6185C147.27 67.2279 145.272 66.3091 145.311 66.5742C145.426 67.3903 148.54 68.5334 148.594 69.3516C148.641 70.0526 146.103 69.265 143.711 68.3893C142.129 67.8117 140.614 67.195 139.954 66.9442C139.246 66.677 138.548 66.3935 137.859 66.0914C137.62 65.9865 137.382 65.8796 137.145 65.7707C136.224 65.3534 135.32 64.901 134.43 64.422C133.545 63.943 132.673 63.4334 131.825 62.8969C131.372 62.6132 130.924 62.3211 130.483 62.021C130.454 62.0005 130.425 61.982 130.397 61.9594C130.038 61.7147 129.681 61.4642 129.328 61.2093C128.518 60.6193 127.724 60.0003 126.957 59.3569C126.588 59.0486 126.221 58.7341 125.862 58.4134C125.472 58.066 125.089 57.7124 124.711 57.3527C124.466 57.1204 124.225 56.884 123.985 56.6435C123.74 56.3989 123.497 56.1502 123.256 55.8994C123.198 55.8398 123.14 55.7802 123.085 55.7185C122.922 55.5458 122.761 55.3752 122.6 55.2005C122.099 54.6516 121.61 54.0927 121.138 53.5212C121.084 53.4575 121.035 53.3958 120.979 53.3321C120.928 53.7288 120.872 54.1254 120.816 54.5242C120.717 54.2097 102.288 51.5916 102.177 52.6227C102.153 52.8468 102.13 53.0669 102.109 53.2869C102.13 53.0669 102.149 52.849 102.169 52.6332C102.153 52.6517 102.138 52.6721 102.122 52.6906C102.027 52.8036 101.934 52.9169 101.839 53.0299C101.175 53.8172 100.485 54.5961 99.7545 55.369C99.4617 55.6794 99.1629 55.988 98.8575 56.2963C97.6659 57.5009 96.3648 58.6993 94.9088 59.9101C93.7396 60.8824 92.4158 61.5647 91.0301 61.9594C87.7308 62.8988 84.079 62.2083 81.3138 59.8875C80.5591 59.2544 79.8229 58.6025 79.1053 57.9303C78.6127 57.4658 78.1282 56.993 77.6578 56.5078C77.3033 56.1481 76.9567 55.7804 76.6187 55.4083C75.3444 54.0105 73.4863 51.4284 72.1091 49.4858C71.115 48.0839 70.3685 47.0129 70.2759 46.9656C69.5913 46.608 68.9313 46.1804 68.323 45.7631C67.4281 45.1505 66.5313 44.5318 65.6774 43.8699C65.5289 43.7589 63.7847 42.3179 64.2445 42.2254Z" fill="#DB9170"/>
<path fill-rule="evenodd" clip-rule="evenodd" d="M90.9018 55.3738C90.9039 55.378 90.9061 55.3821 90.9101 55.3821C91.1616 55.4684 91.3946 55.565 91.607 55.6986C91.8174 55.8281 92.0236 55.972 92.1906 56.1611C92.5226 56.5414 92.702 57.0574 92.6731 57.5795C92.6731 57.5836 92.6772 57.5898 92.6834 57.5898C92.6875 57.5898 92.6937 57.5857 92.6937 57.5816C92.737 57.3205 92.7288 57.0492 92.6649 56.7881C92.6009 56.527 92.4834 56.2783 92.3205 56.0584C92.1599 55.8405 91.9555 55.639 91.706 55.5177C91.4586 55.3985 91.1804 55.3348 90.9121 55.3615C90.9062 55.3636 90.9018 55.3677 90.9018 55.3738Z" fill="#672348"/>
<path fill-rule="evenodd" clip-rule="evenodd" d="M66.1577 42.9102C66.3578 43.1075 66.6155 43.2247 66.8588 43.3501C67.1083 43.4734 67.362 43.5823 67.6137 43.6975C68.1229 43.9154 68.626 44.1435 69.125 44.3861C68.8961 44.2278 68.6549 44.0901 68.4074 43.9606C68.2095 43.8578 68.0053 43.7632 67.8012 43.6707C67.7929 43.6666 67.7867 43.6646 67.7806 43.6625C67.7393 43.642 67.6981 43.6235 67.657 43.605L67.1434 43.3871L67.1065 43.3706L66.892 43.2802C66.764 43.2267 66.6361 43.1712 66.5124 43.1116C66.3907 43.054 66.2652 42.9965 66.1577 42.9102Z" fill="#672348"/>
<path fill-rule="evenodd" clip-rule="evenodd" d="M68.5961 42.5547C68.6002 42.5567 68.6023 42.5609 68.6064 42.5629C68.8147 42.7397 69.0415 42.8918 69.2766 43.0336C69.5137 43.1775 69.7632 43.3029 70.021 43.4098C70.2828 43.5106 70.5468 43.601 70.8251 43.6462C71.0231 43.6791 71.2231 43.6935 71.4231 43.6791C71.4376 43.6791 71.452 43.6791 71.4664 43.6771C71.5302 43.6709 71.5943 43.6627 71.6582 43.6483C71.2314 43.6647 70.8169 43.5846 70.4169 43.4509C70.3509 43.4283 70.2828 43.4037 70.2166 43.3769C70.1651 43.3584 70.1117 43.3358 70.0601 43.3153C69.8042 43.2187 69.5591 43.0912 69.3135 42.9658C69.225 42.9185 69.1364 42.8713 69.0497 42.8199C68.9817 42.7849 68.9157 42.7459 68.8477 42.7047C68.7631 42.6575 68.6784 42.6061 68.5961 42.5547Z" fill="#672348"/>
<path fill-rule="evenodd" clip-rule="evenodd" d="M70.7983 45.1374C70.7983 45.1395 70.8026 45.1395 70.8045 45.1395C70.99 45.0758 71.1717 45.0079 71.353 44.9401C71.5385 44.8825 71.72 44.8126 71.9076 44.7633C72.2788 44.6564 72.652 44.5516 73.0335 44.492C73.4171 44.4323 73.8047 44.4015 74.1924 44.42C74.578 44.4385 74.9698 44.4899 75.3327 44.6276C75.3348 44.6276 75.3368 44.6276 75.3391 44.6256C75.3409 44.6215 75.3391 44.6194 75.3368 44.6174C74.976 44.4652 74.5842 44.4015 74.1944 44.3686C73.8047 44.3398 73.4109 44.3604 73.0232 44.4097C72.6335 44.4591 72.2499 44.5434 71.8767 44.6646C71.6891 44.7263 71.5097 44.8024 71.3264 44.8723C71.1488 44.9524 70.9738 45.0408 70.8003 45.1292C70.7983 45.1313 70.7962 45.1333 70.7983 45.1374Z" fill="#672348"/>
<path fill-rule="evenodd" clip-rule="evenodd" d="M100.816 64.9457L101.187 64.9437L119.174 64.8162L122.455 64.7915L120.956 55.1424C120.927 54.9307 120.882 54.7252 120.816 54.5237C120.717 54.2092 120.575 53.907 120.393 53.6295C119.785 52.6921 119.3 51.6931 118.946 50.653V50.6509C118.946 50.6489 118.945 50.6489 118.943 50.6468C118.473 49.2613 118.232 47.808 118.232 46.3485C118.232 45.1048 118.407 43.855 118.76 42.634L119.752 39.2134V39.2114C119.758 39.1929 119.787 39.088 119.787 39.0798C119.366 38.6132 118.851 38.1897 118.312 37.8649C118.249 37.8259 117.892 37.6389 117.529 37.4703C117.525 37.4703 117.523 37.4683 117.521 37.4662C117.257 37.3655 116.98 37.2812 116.694 37.2113C116.549 37.4498 116.292 38.1568 116.292 38.1568C115.842 39.4868 108.6 45.9744 107.142 45.9805C107.142 45.9805 107.955 38.7694 109.301 37.3244C109.39 37.2298 109.456 37.1599 109.495 37.1188C109.501 37.1126 109.508 37.1044 109.514 37.1003L109.648 36.9688C109.637 36.9708 109.086 37.0627 109.044 37.0814C108.263 37.3939 107.689 38.0171 107.188 38.4467C106.819 38.7591 106.509 39.0839 106.262 39.384C104.404 41.6452 103.581 44.7739 102.942 47.847C102.534 49.8102 102.321 51.2779 102.177 52.6223C102.152 52.8463 102.13 53.0663 102.109 53.2862C102.084 53.5596 102.06 53.831 102.037 54.1044C102.024 54.24 102.014 54.3736 102.002 54.5093C101.925 55.459 101.853 56.4375 101.736 57.5886C101.734 57.6071 101.732 57.6318 101.73 57.6626C101.699 58.1334 101.637 60.0944 101.412 61.6834C101.266 62.738 101.041 63.8624 100.816 64.9457Z" fill="#2A8C79"/>
<path fill-rule="evenodd" clip-rule="evenodd" d="M116.695 37.2122C116.981 37.2821 117.258 37.3664 117.521 37.4671C117.134 37.2883 116.742 37.1341 116.695 37.2122Z" fill="#2A8C79"/>
<path fill-rule="evenodd" clip-rule="evenodd" d="M100.417 70.6005C100.483 70.6396 100.574 70.6766 100.689 70.7095C101.118 70.8328 101.875 70.915 102.859 70.9664C104.048 71.0281 105.57 71.0425 107.246 71.0302H107.249C113.49 70.9726 121.866 70.4978 123.157 70.4217C123.268 70.4155 123.328 70.4114 123.328 70.4114L122.916 67.7617L121.815 67.7699H121.813L121.501 67.772L118.466 67.7926L103.644 67.8974L101.858 67.9097L101.085 67.9138L100.947 67.9159H100.817L100.235 67.92C100.011 69.3055 99.9738 70.3354 100.417 70.6005Z" fill="#2A8C79"/>
<path fill-rule="evenodd" clip-rule="evenodd" d="M100.27 67.7116L100.848 67.7075H100.965L101.079 67.7054L101.792 67.7013L103.409 67.691H103.411L118.676 67.5821L121.334 67.5636L121.648 67.5615L122.885 67.5533L122.487 64.9961L119.138 65.0208L101.178 65.1482L100.775 65.1503C100.586 66.0588 100.402 66.9345 100.27 67.7116Z" fill="#2A8C79"/>
<path fill-rule="evenodd" clip-rule="evenodd" d="M100.775 65.1527L101.177 65.1506L119.138 65.0232L122.486 64.9985L122.456 64.793L119.175 64.8176L101.188 64.9451L100.816 64.9471C100.802 65.017 100.79 65.0849 100.775 65.1527Z" fill="#2A8C79"/>
<path fill-rule="evenodd" clip-rule="evenodd" d="M100.236 67.9185L100.817 67.9144H100.947L101.085 67.9124L101.859 67.9083L103.644 67.8959L118.466 67.7911L121.501 67.7705L121.813 67.7685H121.815L122.916 67.7602L122.885 67.5547L121.648 67.5629L121.334 67.565L118.677 67.5835L103.411 67.6924H103.409L101.793 67.7027L101.079 67.7068L100.966 67.7089H100.848L100.271 67.713C100.258 67.7808 100.246 67.8507 100.236 67.9185Z" fill="#2A8C79"/>
<path fill-rule="evenodd" clip-rule="evenodd" d="M128.63 55.5061C128.626 55.5102 128.626 55.5164 128.63 55.5205C128.634 55.5225 128.638 55.5225 128.643 55.5225C128.886 55.4115 129.121 55.3252 129.366 55.2759C129.609 55.2286 129.859 55.1916 130.111 55.2162C130.612 55.2676 131.098 55.5205 131.435 55.9213C131.439 55.9254 131.445 55.9254 131.449 55.9213C131.453 55.9193 131.455 55.9131 131.451 55.909C131.304 55.6911 131.113 55.4979 130.888 55.3499C130.661 55.2039 130.404 55.1011 130.135 55.0538C129.867 55.0025 129.583 54.9963 129.317 55.0765C129.053 55.1587 128.807 55.3026 128.63 55.5061Z" fill="#672348"/>
<path fill-rule="evenodd" clip-rule="evenodd" d="M145.271 65.9212C145.273 65.9232 145.276 65.9253 145.277 65.9253C145.731 65.8554 146.181 65.7691 146.626 65.6642C147.071 65.5635 147.515 65.4484 147.96 65.3415C148.402 65.2326 148.853 65.1277 149.307 65.1956C149.758 65.2572 150.212 65.3271 150.668 65.3662C150.672 65.3662 150.674 65.3641 150.674 65.3621C150.674 65.36 150.672 65.3559 150.67 65.3559C150.214 65.3086 149.764 65.2284 149.311 65.1565C148.853 65.0784 148.389 65.1812 147.946 65.2778C147.498 65.3765 147.049 65.4648 146.603 65.5656C146.156 65.6642 145.715 65.7814 145.276 65.915C145.273 65.915 145.271 65.9191 145.271 65.9212Z" fill="#672348"/>
<path fill-rule="evenodd" clip-rule="evenodd" d="M148.381 65.9299C148.381 65.9319 148.381 65.934 148.383 65.9361C148.624 66.0985 148.873 66.2423 149.123 66.3883C149.375 66.5322 149.634 66.6596 149.89 66.7912L151.432 67.5847C151.435 67.5867 151.437 67.5847 151.439 67.5826C151.441 67.5806 151.439 67.5764 151.437 67.5764L149.929 66.7193C149.678 66.5774 149.43 66.4294 149.172 66.2978C148.915 66.1683 148.657 66.0368 148.389 65.9258C148.385 65.9258 148.383 65.9258 148.381 65.9299Z" fill="#672348"/>
<path fill-rule="evenodd" clip-rule="evenodd" d="M100.775 65.1527L101.177 65.1506L119.138 65.0232L122.486 64.9985L122.456 64.793L119.175 64.8176L101.188 64.9451L100.816 64.9471C100.802 65.017 100.79 65.0849 100.775 65.1527Z" fill="#EDFBFB"/>
<path fill-rule="evenodd" clip-rule="evenodd" d="M100.236 67.9185L100.817 67.9144H100.947L101.085 67.9124L101.859 67.9083L103.644 67.8959L118.466 67.7911L121.501 67.7705L121.813 67.7685H121.815L122.916 67.7602L122.885 67.5547L121.648 67.5629L121.334 67.565L118.677 67.5835L103.411 67.6924H103.409L101.793 67.7027L101.079 67.7068L100.966 67.7089H100.848L100.271 67.713C100.258 67.7808 100.246 67.8507 100.236 67.9185Z" fill="#EDFBFB"/>
<path fill-rule="evenodd" clip-rule="evenodd" d="M109.112 41.2403C109.112 41.2424 109.112 41.2444 109.114 41.2444C109.256 41.2917 109.399 41.3349 109.541 41.376C109.611 41.3986 109.681 41.4253 109.755 41.4377C109.828 41.45 109.902 41.4603 109.978 41.4562C109.982 41.4562 109.982 41.4562 109.982 41.4521C109.982 41.4521 109.982 41.45 109.98 41.45C109.914 41.411 109.844 41.3863 109.772 41.3637C109.702 41.3411 109.628 41.3328 109.555 41.3185C109.409 41.2897 109.263 41.2629 109.116 41.2383C109.114 41.2383 109.112 41.2383 109.112 41.2403Z" fill="#672448"/>
<path fill-rule="evenodd" clip-rule="evenodd" d="M110.97 41.6726C110.968 41.6747 110.968 41.6788 110.97 41.6809C110.97 41.6829 110.972 41.685 110.974 41.685C111.095 41.6788 111.211 41.6541 111.322 41.6233C111.378 41.6089 111.434 41.5883 111.487 41.5698V41.5678C111.541 41.5472 111.597 41.5226 111.65 41.502C111.869 41.4177 112.085 41.3293 112.3 41.2389C112.304 41.2368 112.306 41.2327 112.304 41.2307C112.302 41.2286 112.3 41.2266 112.298 41.2266C112.071 41.2862 111.844 41.3458 111.621 41.4116C111.57 41.426 111.52 41.4383 111.469 41.4506C111.407 41.4671 111.345 41.4856 111.285 41.5102C111.178 41.5555 111.071 41.6048 110.97 41.6726Z" fill="#672448"/>
<path fill-rule="evenodd" clip-rule="evenodd" d="M102.795 26.6744C102.873 26.6507 103.197 26.4239 102.981 26.4379C102.861 26.5294 102.231 26.8559 102.795 26.6744ZM115.516 26.2509L115.534 26.292C116.068 25.865 116.839 26.5856 116.081 26.9149L116.083 26.9313C116.861 26.6439 116.178 25.8268 115.574 26.1851C115.568 24.3426 119.118 25.2459 117.425 27.583L117.438 27.5932C119.568 25.0454 115.227 24.1654 115.516 26.2509ZM101.785 25.1511C103.566 22.6977 102.662 19.1154 104.329 16.6367C105.645 17.23 108.281 17.653 110.177 17.681C110.126 20.4215 112.003 23.513 114.487 24.8099C118.831 22.0212 120.937 29.8709 115.778 29.6221C115.744 29.6332 111.025 32.7216 110.988 32.7138V32.722C109.31 33.5171 107.128 34.837 105.315 33.6224C103.402 32.0457 102.261 29.2984 102.377 26.8594C101.195 27.2242 100.912 25.7684 101.785 25.1511Z" fill="#DB9170"/>
<path fill-rule="evenodd" clip-rule="evenodd" d="M115.517 26.2539L115.536 26.295C116.069 25.8683 116.84 26.5886 116.082 26.9179L116.084 26.9344C116.862 26.647 116.179 25.8298 115.575 26.1881C115.569 24.3457 119.119 25.2489 117.427 27.586L117.439 27.5963C119.569 25.0485 115.228 24.1685 115.517 26.2539Z" fill="#DB9170"/>
<path fill-rule="evenodd" clip-rule="evenodd" d="M110.989 32.7167V32.7249C112.275 32.1166 113.636 31.5713 114.75 30.7474C114.75 30.7474 114.755 30.7474 114.755 30.7453C115.1 30.4164 115.734 30.1206 115.779 29.625C115.745 29.6361 111.027 32.7247 110.989 32.7167Z" fill="#DB9170"/>
<path fill-rule="evenodd" clip-rule="evenodd" d="M102.796 26.6746C102.874 26.6509 103.198 26.4241 102.982 26.4381C102.862 26.5296 102.232 26.8561 102.796 26.6746Z" fill="#DB9170"/>
<path fill-rule="evenodd" clip-rule="evenodd" d="M102.796 26.6746C102.874 26.6509 103.198 26.4241 102.982 26.4381C102.862 26.5296 102.232 26.8561 102.796 26.6746Z" fill="#672348"/>
<path fill-rule="evenodd" clip-rule="evenodd" d="M115.517 26.2539L115.536 26.295C116.069 25.8683 116.84 26.5886 116.082 26.9179L116.084 26.9344C116.862 26.647 116.179 25.8298 115.575 26.1881C115.569 24.3457 119.119 25.2489 117.427 27.586L117.439 27.5963C119.569 25.0485 115.228 24.1685 115.517 26.2539Z" fill="#672348"/>
<path fill-rule="evenodd" clip-rule="evenodd" d="M104.225 16.5934C105.601 17.2312 108.217 17.6479 110.178 17.6829C110.127 20.4234 112.004 23.5149 114.488 24.8118C118.832 22.0231 120.938 29.8727 115.779 29.624V29.8069L115.822 29.7576C123.728 29.212 123.704 16.0573 116.143 14.8112C115.125 13.7299 112.356 12.7555 109.032 12.4246C103.353 11.7059 99.5914 14.1462 104.225 16.5934Z" fill="#561D3E"/>
<path fill-rule="evenodd" clip-rule="evenodd" d="M110.971 34.3385C110.971 34.327 110.992 32.7269 110.991 32.7167C111.021 32.7257 115.752 29.6328 115.779 29.625C115.74 31.5727 115.648 35.7937 115.571 37.6954H110.929L110.971 34.3385Z" fill="#DB9170"/>
<path fill-rule="evenodd" clip-rule="evenodd" d="M110.958 34.3447C111.592 34.0937 113.524 32.0714 114.75 30.7474C114.75 30.7474 114.754 30.7474 114.754 30.7453C115.328 30.1266 115.74 29.6661 115.779 29.625C115.745 29.6361 111.027 32.7245 110.989 32.7167C110.985 32.9491 110.973 34.1389 110.958 34.3447Z" fill="#CE7755"/>
<path fill-rule="evenodd" clip-rule="evenodd" d="M104.949 20.4702C105.698 20.2977 106.731 20.7084 107.141 21.3413C106.579 19.1518 103.78 19.9841 104.949 20.4702Z" fill="#561D3E"/>
<path fill-rule="evenodd" clip-rule="evenodd" d="M105.216 23.1519C105.199 23.6031 105.426 23.9782 105.724 23.9898C106.023 24.0013 106.278 23.6448 106.296 23.1936C106.313 22.7424 106.086 22.3673 105.788 22.3557C105.49 22.3442 105.234 22.7007 105.216 23.1519Z" fill="#561D3E"/>
<path fill-rule="evenodd" clip-rule="evenodd" d="M107.245 23.6542C107.254 23.6542 107.264 23.6529 107.274 23.6499C107.328 23.6338 107.36 23.5767 107.343 23.5222C107.065 22.5832 106.072 22.0457 105.13 22.323C105.076 22.339 105.044 22.3961 105.06 22.4506C105.077 22.5051 105.134 22.5365 105.189 22.5201C106.021 22.2744 106.899 22.7505 107.146 23.5806C107.159 23.6252 107.2 23.6542 107.245 23.6542Z" fill="#561D3E"/>
<path fill-rule="evenodd" clip-rule="evenodd" d="M104.01 28.7364C104.025 29.0789 104.221 29.3484 104.447 29.3381C104.673 29.328 104.844 29.0423 104.829 28.6998C104.813 28.3574 104.618 28.0879 104.392 28.0979C104.165 28.108 103.994 28.3939 104.01 28.7364Z" fill="#561D3E"/>
</svg>
