<svg width="374" height="79" viewBox="0 0 374 79" fill="none" xmlns="http://www.w3.org/2000/svg">
    <path fill="#D8F3FF" d="M0 0h374v77H0z"/>
    <path d="M348.757 53.08c-3.286-3.741-8.213-6.08-13.62-6.08-8.35 0-15.331 5.546-17.384 13.029-.342-.067-.753-.067-1.095-.067-2.19 0-4.107 1.07-5.202 2.74-1.642-.735-3.49-1.136-5.475-1.136-3.97 0-7.529 1.67-9.924 4.41-1.095-.335-2.19-.468-3.354-.468C286.27 65.508 281 70.653 281 77h71.494c.411-5.813-.247-11.091.095-16.17.206-2.805.274-5.478.411-8.084-.411 0-.753-.067-1.095-.067-1.164-.067-2.19.134-3.148.401zM88.347 24.071c-3.074-5.785-9.078-9.785-16.084-9.785-3.36 0-6.434.928-9.15 2.5A10.846 10.846 0 0 0 54.106 12c-1.144 0-2.216.214-3.217.5-3.431-4-8.578-6.5-14.225-6.5-.787 0-1.644.071-2.43.143-.573.428-1.145.857-1.716 1.357C28.3 11 24.583 15 21.295 19.429a113.072 113.072 0 0 0-8.793 13.857C11.644 34.857 10.858 36.429 10 38h91c0-7.357-5.576-13.357-12.653-13.929z" fill="#fff"/>
    <path d="M368.894 55.947c-3.677-6.014-14.128-3.842-18.894-2.005V79h24V58.452c-.409-2.806-3.574-2.84-5.106-2.505z" fill="#fff"/>
</svg>
