<svg width="20" height="20" viewBox="0 0 20 20" fill="none" xmlns="http://www.w3.org/2000/svg">
    <path d="M10 15c.233 0 .43-.08.588-.238a.798.798 0 0 0 .237-.587c0-.233-.08-.43-.237-.588A.798.798 0 0 0 10 13.35c-.233 0-.43.08-.588.238a.798.798 0 0 0-.237.587c0 .233.08.43.237.587A.798.798 0 0 0 10 15zm0 5a9.676 9.676 0 0 1-3.875-.788 10.144 10.144 0 0 1-3.188-2.15 10.142 10.142 0 0 1-2.15-3.187A9.738 9.738 0 0 1 0 9.975C0 8.608.263 7.317.787 6.1a9.994 9.994 0 0 1 2.15-3.175A10.25 10.25 0 0 1 6.126.788a9.738 9.738 0 0 1 3.9-.788c1.367 0 2.658.263 3.875.787a10.098 10.098 0 0 1 3.175 2.138c.9.9 1.613 1.958 2.137 3.175A9.738 9.738 0 0 1 20 10a9.676 9.676 0 0 1-.788 3.875 10.25 10.25 0 0 1-2.137 3.188 9.994 9.994 0 0 1-3.175 2.15A9.738 9.738 0 0 1 10 20zm.075-8.825a.728.728 0 0 0 .75-.75V5.6a.728.728 0 0 0-.75-.75.728.728 0 0 0-.75.75v4.825a.728.728 0 0 0 .75.75z" fill="#B30000"/>
</svg>
