<svg width="24" height="24" viewBox="0 0 24 24" fill="none" xmlns="http://www.w3.org/2000/svg">
    <path d="M24 12c0 6.6-5.4 12-12 12-6.7 0-12-5.4-12-12C0 5.3 5.4 0 12.1 0 18.7 0 24 5.4 24 12zm-.9 0c0-6.1-5-11.1-11-11.1C5.9.9.9 5.8.9 12c0 6.1 5 11.1 11.1 11.1s11.1-5 11.1-11.1z" fill="#D75426"/>
    <path d="M8.8 16.6c.3-.1.7-.1 1-.2 0 .1 0 .2.1.3.4 1.4 1.4 2 2.8 1.6.2-.1.5-.2.7-.3.3-.1.6 0 .7.2.1.3 0 .5-.3.7-.8.4-1.7.6-2.6.4-1.1-.2-1.8-1-2.2-2.1-.1-.1-.2-.3-.2-.6zM13.6 14.2h-2.5v-.9h1.6v-2h.9v2.9zM18.3 9.1c0 .5-.4.9-.9.9s-.9-.4-.9-.9.4-.9.9-.9c.5-.1.9.4.9.9zM5.7 9c0-.5.4-.9.9-.9s.9.4.9.9-.4.9-.9.9c-.5.1-.9-.3-.9-.9z" fill="#D75426"/>
</svg>
