<svg width="73" height="99" viewBox="0 0 73 99" fill="none" xmlns="http://www.w3.org/2000/svg">
    <path opacity=".608" fill-rule="evenodd" clip-rule="evenodd" d="M60.412 60.432c-7.418 2.173-15.193-2.08-17.365-9.5-2.171-7.418 2.082-15.192 9.5-17.364 7.419-2.173 15.193 2.08 17.366 9.5 2.171 7.418-2.082 15.193-9.5 17.364zM52.208 89c0-5.523 4.477-10 10-10s10 4.477 10 10-4.477 10-10 10-10-4.477-10-10zm18.421 0a8.421 8.421 0 1 0-16.842 0 8.421 8.421 0 0 0 16.842 0zM7.88 23.695C2.528 22.345-.72 16.91.63 11.557c1.348-5.354 6.782-8.6 12.137-7.252 5.354 1.35 8.6 6.784 7.251 12.138-1.349 5.354-6.783 8.6-12.137 7.252zm11.33-7.456a9.165 9.165 0 1 0-17.773-4.478A9.165 9.165 0 0 0 19.21 16.24zM51.646 15.676A7.998 7.998 0 1 1 47.152.323a7.998 7.998 0 0 1 4.494 15.353z" fill="#fff"/>
</svg>
