<?xml version="1.0" encoding="utf-8"?>
<!-- Generator: Adobe Illustrator 25.4.1, SVG Export Plug-In . SVG Version: 6.00 Build 0)  -->
<svg version="1.1" id="Layer_1" xmlns="http://www.w3.org/2000/svg" xmlns:xlink="http://www.w3.org/1999/xlink" x="0px" y="0px"
	 viewBox="0 0 278 134" style="enable-background:new 0 0 278 134;" xml:space="preserve">
<style type="text/css">
	.st0{fill:#6D6E71;}
	.st1{fill:#E76425;}
	.st2{fill:#F7941D;}
	.st3{fill:url(#SVGID_1_);}
	.st4{fill:url(#SVGID_00000074438575974616341150000012172574099466955701_);}
	.st5{fill:url(#SVGID_00000063622722771871222850000018181777046483754368_);}
	.st6{fill:url(#SVGID_00000183231413727460330820000016542124087713266565_);}
	.st7{display:none;}
	.st8{display:inline;fill:#6D6E71;}
	.st9{fill:#FFFFFF;}
</style>
<g>
	<g>
		<g>
			<g>
				<path class="st0" d="M34.57,40.29h7.26l13.57,35.54l13.63-35.54h7.26L59.41,82.77h-7.96L34.57,40.29z"/>
				<path class="st0" d="M139.79,65l-16.63-24.71h7.32l12.49,18.98l12.36-18.98h7.39L146.15,65v17.77h-6.37V65z"/>
				<path class="st0" d="M187.36,73.98h-20.83l-3.44,8.79h-7.01l16.88-42.48h7.96l16.88,42.48h-7.01L187.36,73.98z M168.38,68.31
					h17.13l-8.6-22.48L168.38,68.31z"/>
				<path class="st0" d="M221.55,39.58c7.96,0,13.25,3.63,16.82,8.41l-5.16,2.99c-2.42-3.25-6.69-5.73-11.66-5.73
					c-8.85,0-15.48,6.75-15.48,16.31c0,9.49,6.62,16.37,15.48,16.37c4.71,0,8.73-2.29,10.76-4.2v-7.64h-13.63v-5.6h20v15.61
					c-4.08,4.52-9.93,7.52-17.13,7.52c-12.16,0-22.04-8.79-22.04-22.04S209.39,39.58,221.55,39.58z"/>
				<path class="st0" d="M246.83,40.29h28.53v5.6H253.2v12.42h21.72v5.6H253.2v13.25h22.17v5.6h-28.53V40.29z"/>
			</g>
			<g>
				<path class="st1" d="M38.14,32.34V10.82c0-4.33-1.85-7.01-6.18-7.01c-3.31,0-7.07,2.42-8.79,5.22v23.31H19.8V10.82
					c0-4.33-1.78-7.01-6.18-7.01c-3.25,0-6.94,2.48-8.79,5.29v23.24H1.52V1.59h3.31v4.65c1.27-1.97,5.48-5.41,9.93-5.41
					c4.78,0,7.32,2.8,8.09,5.8c1.72-2.87,5.86-5.8,10.19-5.8c5.67,0,8.41,3.18,8.41,9.36v22.16H38.14z"/>
				<path class="st1" d="M48.71,41.32c0.7,0.32,1.91,0.51,2.67,0.51c2.04,0,3.44-0.83,4.65-3.76l2.42-5.48L45.46,1.59h3.69
					l11.21,26.87L71.45,1.59h3.76L59.28,39.1c-1.66,3.88-4.27,5.73-7.9,5.73c-1.02,0-2.42-0.19-3.25-0.45L48.71,41.32z"/>
			</g>
			<g>
				<g>
					<path class="st1" d="M101.17,87.39c-13.86,0-25.13-11.27-25.13-25.13s11.27-25.13,25.13-25.13s25.13,11.27,25.13,25.13
						S115.02,87.39,101.17,87.39z M101.17,40.69c-11.89,0-21.57,9.68-21.57,21.57s9.68,21.57,21.57,21.57s21.57-9.68,21.57-21.57
						S113.06,40.69,101.17,40.69z"/>
				</g>
			</g>
			<g>
				<path class="st0" d="M155.34,125.49V108.6h1.32v6.63c0.99-1.39,2.53-2.28,4.25-2.28c3.27,0,5.47,2.56,5.47,6.43
					c0,3.92-2.23,6.41-5.47,6.41c-1.82,0-3.39-0.99-4.25-2.25v1.95H155.34z M160.68,124.6c2.74,0,4.28-2.25,4.28-5.22
					c0-2.96-1.54-5.24-4.28-5.24c-1.7,0-3.32,1.06-4.03,2.23v6.05C157.37,123.59,158.99,124.6,160.68,124.6z"/>
				<path class="st0" d="M169.22,129.06c0.28,0.13,0.76,0.2,1.06,0.2c0.81,0,1.37-0.33,1.85-1.49l0.96-2.18l-5.17-12.33h1.47
					l4.46,10.68l4.41-10.68h1.5l-6.33,14.91c-0.66,1.54-1.7,2.28-3.14,2.28c-0.41,0-0.96-0.08-1.29-0.18L169.22,129.06z"/>
			</g>
			<g>
				<g>
					<g>
						<g>
							<g>
								<path class="st2" d="M216.22,103.84c-5.98,0-10.82,4.85-10.82,10.82c0,5.98,4.85,10.82,10.82,10.82
									c5.98,0,10.82-4.85,10.82-10.82C227.04,108.69,222.19,103.84,216.22,103.84z M216.22,121.84c-3.96,0-6.99-3.21-6.99-7.17
									c0-3.96,3.02-7.17,6.99-7.17c3.96,0,6.99,3.21,6.99,7.17C223.2,118.62,220.18,121.84,216.22,121.84z"/>
								<linearGradient id="SVGID_1_" gradientUnits="userSpaceOnUse" x1="209.2307" y1="114.6648" x2="227.0393" y2="114.6648">
									<stop  offset="6.074620e-03" style="stop-color:#EF3B24"/>
									<stop  offset="0.25" style="stop-color:#F05123"/>
									<stop  offset="0.45" style="stop-color:#F37021"/>
									<stop  offset="1" style="stop-color:#F68B1F"/>
								</linearGradient>
								<path class="st3" d="M218.04,104.65c-4.97,0-8.81,4.48-8.81,10.01c0-3.96,3.02-7.17,6.99-7.17c3.96,0,6.99,3.21,6.99,7.17
									c0,3.96-3.03,7.17-6.99,7.17c-3.96,0-6.99-3.21-6.99-7.17c0,5.53,3.84,10.02,8.81,10.02c4.97,0,9-4.48,9-10.02
									C227.04,109.13,223.01,104.65,218.04,104.65z"/>
								
									<linearGradient id="SVGID_00000167365626562823656870000013214505649256900031_" gradientUnits="userSpaceOnUse" x1="194.2545" y1="123.8385" x2="203.4735" y2="104.0001">
									<stop  offset="0" style="stop-color:#F05123"/>
									<stop  offset="0.45" style="stop-color:#F37021"/>
									<stop  offset="1" style="stop-color:#F68B1F"/>
								</linearGradient>
								<path style="fill:url(#SVGID_00000167365626562823656870000013214505649256900031_);" d="M200.36,105.8
									c-0.95,2.13-7.98,17.89-7.98,17.89l2.52,1.6l0.94,0.01l9.42-20.98C204.26,103.86,201.32,103.67,200.36,105.8z"/>
								<path class="st2" d="M194.19,123.5c-0.79-1.78-6.93-15.58-7.87-17.7c-0.94-2.12-3.9-1.94-4.9-1.48l8.55,19.13
									c0.54,1.15,1.64,1.86,3.35,1.86c0.03,0,2.53,0,2.53,0S194.98,125.27,194.19,123.5z"/>
								
									<linearGradient id="SVGID_00000130621219383300944170000013084520960619613569_" gradientUnits="userSpaceOnUse" x1="260.1945" y1="105.0487" x2="269.3521" y2="125.0405">
									<stop  offset="0" style="stop-color:#F05123"/>
									<stop  offset="0.45" style="stop-color:#F37021"/>
									<stop  offset="1" style="stop-color:#F68B1F"/>
								</linearGradient>
								<path style="fill:url(#SVGID_00000130621219383300944170000013084520960619613569_);" d="M271.35,125.02
									c-1,0.47-3.94,0.65-4.9-1.48c-0.71-1.59-7.95-17.86-7.95-17.86l2.54-1.61h0.91L271.35,125.02z"/>
								<path class="st2" d="M262.72,119.9l-0.79-1.7c-0.59-1.35-1.54-1.69-2.74-1.69h-3.68c0,0,4.04-9.03,4.79-10.74
									c0.75-1.71,1.65-1.71,1.65-1.71s-2.5,0-2.53,0c-1.66,0-2.79,0.65-3.35,1.86l-8.59,19.07c1,0.47,3.94,0.67,4.9-1.48
									c0.96-2.15,1.77-3.94,1.77-3.94l6.81,0C262.29,119.59,262.72,119.9,262.72,119.9z"/>
								
									<linearGradient id="SVGID_00000087375914265376409130000016805119847975516604_" gradientUnits="userSpaceOnUse" x1="234.4931" y1="133.3891" x2="248.3156" y2="104.1447" gradientTransform="matrix(1 0 0.0163 1 -0.9011 0)">
									<stop  offset="0" style="stop-color:#F05123"/>
									<stop  offset="0.45" style="stop-color:#F37021"/>
									<stop  offset="1" style="stop-color:#F68B1F"/>
								</linearGradient>
								<path style="fill:url(#SVGID_00000087375914265376409130000016805119847975516604_);" d="M251.02,104.32
									c-1.01-0.47-3.92-0.66-4.88,1.48c-0.96,2.13-12.35,27.55-12.35,27.55c1.01,0.47,3.91,0.66,4.87-1.48L251.02,104.32z"/>
								<path class="st2" d="M239.96,123.49c-0.8-1.79-6.91-15.51-7.88-17.69c-0.97-2.18-3.9-1.94-4.9-1.48l8.55,19.12
									c0.54,1.15,1.65,1.86,3.35,1.86c0.03,0,2.53,0,2.53,0S240.76,125.28,239.96,123.49z"/>
							</g>
						</g>
					</g>
					<g class="st7">
						<path class="st8" d="M274.54,125.29c-0.87,0-1.58-0.71-1.58-1.58c0-0.88,0.71-1.58,1.58-1.58c0.88,0,1.58,0.7,1.58,1.58
							C276.12,124.58,275.43,125.29,274.54,125.29z M274.54,122.39c-0.73,0-1.32,0.58-1.32,1.32c0,0.72,0.59,1.32,1.32,1.32
							c0.73,0,1.32-0.6,1.32-1.32C275.87,122.97,275.28,122.39,274.54,122.39z M274.97,124.62l-0.47-0.72h-0.29v0.72h-0.28v-1.81
							h0.74c0.31,0,0.61,0.22,0.61,0.55c0,0.4-0.36,0.54-0.46,0.54l0.49,0.72H274.97z M274.67,123.04h-0.46v0.62h0.46
							c0.16,0,0.33-0.12,0.33-0.31C275,123.15,274.83,123.04,274.67,123.04z"/>
					</g>
				</g>
				<g>
					<path class="st0" d="M274.55,125.29c-0.87,0-1.58-0.71-1.58-1.58c0-0.88,0.71-1.58,1.58-1.58c0.88,0,1.58,0.7,1.58,1.58
						C276.13,124.58,275.43,125.29,274.55,125.29z M274.55,122.34c-0.76,0-1.37,0.61-1.37,1.37c0,0.75,0.62,1.37,1.37,1.37
						c0.76,0,1.37-0.62,1.37-1.37C275.93,122.94,275.31,122.34,274.55,122.34z M274.99,124.62l-0.47-0.71h-0.34v0.71h-0.22v-1.81
						h0.74c0.31,0,0.56,0.22,0.56,0.55c0,0.4-0.36,0.54-0.46,0.54l0.48,0.72H274.99z M274.69,123.02h-0.51v0.67h0.51
						c0.16,0,0.33-0.14,0.33-0.33C275.02,123.16,274.85,123.02,274.69,123.02z"/>
				</g>
			</g>
		</g>
	</g>
	<g>
		<polygon class="st1" points="92.41,59.15 109.93,65.37 107.22,45.11 		"/>
		<polygon class="st2" points="92.41,59.15 101.19,62.26 107.22,45.11 		"/>
		<polygon class="st1" points="109.93,65.37 92.41,59.15 95.16,79.41 		"/>
		<polygon class="st2" points="109.93,65.37 101.19,62.26 95.16,79.41 		"/>
		<circle class="st9" cx="101.18" cy="62.23" r="2.9"/>
	</g>
</g>
</svg>
