<?xml version="1.0" encoding="utf-8"?>
<!-- Generator: Adobe Illustrator 25.4.1, SVG Export Plug-In . SVG Version: 6.00 Build 0)  -->
<svg version="1.1" id="Layer_1" xmlns="http://www.w3.org/2000/svg" xmlns:xlink="http://www.w3.org/1999/xlink" x="0px" y="0px"
	 viewBox="0 0 219 67" style="enable-background:new 0 0 219 67;" xml:space="preserve">
<style type="text/css">
	.st0{fill:#6E6F72;}
	.st1{fill:#E66426;}
	.st2{fill:#F89521;}
	.st3{fill:url(#SVGID_1_);}
	.st4{fill:url(#SVGID_00000138555766702307859230000001229393973424066225_);}
	.st5{fill:url(#SVGID_00000159429242655624787970000002389267529362700718_);}
	.st6{fill:url(#SVGID_00000026846386039796258760000009835209444587491972_);}
	.st7{fill:#FFFFFF;}
</style>
<path class="st0" d="M51.54,2.29h5.03l9.39,24.59l9.45-24.59h5.03L68.78,31.68h-5.52L51.54,2.29z"/>
<path class="st0" d="M124.36,19.42L112.87,2.29h5.08l8.62,13.15l8.56-13.15h5.14l-11.49,17.13v12.32h-4.42V19.42z"/>
<path class="st0" d="M157.29,25.61h-14.42l-2.38,6.08h-4.86l11.71-29.39h5.52l11.66,29.39h-4.86L157.29,25.61z M144.14,21.68h11.88
	L150.05,6.1L144.14,21.68z"/>
<path class="st0" d="M180.99,1.79c4.59-0.11,8.95,2.04,11.66,5.8l-3.59,2.1c-1.93-2.49-4.92-3.98-8.07-3.98
	c-6.13,0-10.72,4.7-10.72,11.27s4.59,11.33,10.72,11.33c2.76-0.06,5.41-1.05,7.46-2.93v-5.3H179v-3.87h13.81v10.77
	c-3.04,3.37-7.35,5.25-11.88,5.19c-8.4,0-15.25-6.08-15.25-15.25S172.54,1.79,180.99,1.79z"/>
<path class="st0" d="M198.51,2.29h19.78v3.87h-15.41v8.62h15.03v3.87h-15.03v9.17h15.36v3.87h-19.78V2.29H198.51z"/>
<path class="st1" d="M25.58,31.68V16.77c0-2.98-1.27-4.86-4.25-4.86c-2.27,0-4.92,1.66-6.08,3.59v16.13h-2.32V16.71
	c0-2.98-1.22-4.86-4.25-4.86c-2.27,0-4.81,1.71-6.08,3.65v16.08H0.22V10.36h2.27v3.2c0.88-1.38,3.81-3.76,6.85-3.76
	c3.31,0,5.08,1.93,5.58,4.03c1.55-2.38,4.2-3.92,7.07-4.03c3.92,0,5.8,2.21,5.8,6.46v15.36L25.58,31.68L25.58,31.68z"/>
<path class="st1" d="M32.87,37.87c0.61,0.22,1.22,0.33,1.88,0.33c1.38,0,2.38-0.55,3.2-2.6l1.66-3.81l-9.01-21.44h2.54l7.73,18.62
	l7.68-18.62h2.6L40.16,36.32c-1.16,2.71-2.98,3.98-5.47,3.98c-0.77,0-1.49-0.11-2.27-0.33L32.87,37.87z"/>
<path class="st1" d="M97.68,34.89c-9.61,0-17.4-7.79-17.4-17.4s7.79-17.4,17.4-17.4c9.56,0,17.35,7.79,17.35,17.4
	S107.23,34.89,97.68,34.89z M97.68,2.57c-8.23,0-14.92,6.69-14.92,14.92S89.44,32.4,97.68,32.4s14.92-6.69,14.92-14.92
	C112.54,9.25,105.91,2.57,97.68,2.57z"/>
<path class="st0" d="M135.14,61.3V49.58h0.88v4.59c0.66-0.99,1.77-1.55,2.93-1.6c2.27,0,3.81,1.77,3.81,4.42
	c0,2.65-1.55,4.42-3.81,4.42c-1.16,0-2.27-0.61-2.93-1.55v1.38h-0.88L135.14,61.3L135.14,61.3z M138.84,60.63
	c1.88,0,2.98-1.55,2.98-3.59s-1.05-3.65-2.98-3.65c-1.1,0.06-2.15,0.61-2.76,1.55v4.2C136.68,60.08,137.73,60.63,138.84,60.63
	L138.84,60.63z"/>
<path class="st0" d="M144.75,63.73c0.22,0.11,0.5,0.17,0.72,0.17c0.55,0,0.94-0.22,1.27-1.05l0.66-1.49l-3.59-8.56h0.99l3.09,7.35
	l3.04-7.4h1.05l-4.36,10.33c-0.28,0.94-1.16,1.6-2.15,1.6c-0.28,0-0.61-0.06-0.88-0.11L144.75,63.73z"/>
<path class="st2" d="M177.29,46.27c-4.14,0-7.51,3.37-7.51,7.51s3.37,7.51,7.51,7.51c4.14,0,7.51-3.37,7.51-7.51l0,0
	C184.8,49.64,181.43,46.27,177.29,46.27z M177.29,58.76c-2.76,0.06-5.03-2.1-5.08-4.81c-0.06-2.76,2.1-5.03,4.81-5.08
	c2.76-0.06,5.03,2.1,5.08,4.81c0,0.06,0,0.11,0,0.11c0.06,2.71-2.04,4.92-4.75,4.97C177.4,58.76,177.35,58.76,177.29,58.76
	L177.29,58.76z"/>
<linearGradient id="SVGID_1_" gradientUnits="userSpaceOnUse" x1="396.4355" y1="-974.4376" x2="408.756" y2="-974.4376" gradientTransform="matrix(1 0 0 -1 -223.98 -920.71)">
	<stop  offset="0.01" style="stop-color:#EF3E25"/>
	<stop  offset="0.25" style="stop-color:#F05325"/>
	<stop  offset="0.45" style="stop-color:#F37124"/>
	<stop  offset="1" style="stop-color:#F68B21"/>
</linearGradient>
<path class="st3" d="M178.56,46.82c-3.43,0-6.08,3.09-6.08,6.91c0.06-2.65,2.32-4.75,4.97-4.7s4.75,2.32,4.7,4.97
	c-0.06,2.6-2.21,4.7-4.81,4.7c-2.71,0-4.86-2.21-4.86-4.86c0-0.06,0-0.06,0-0.11c0,3.81,2.65,6.91,6.08,6.91
	c3.43,0,6.24-3.09,6.24-6.91S181.99,46.82,178.56,46.82z"/>
<linearGradient id="SVGID_00000175319997097398912390000005787052182909120418_" gradientUnits="userSpaceOnUse" x1="386.0644" y1="-980.8293" x2="392.4511" y2="-967.0945" gradientTransform="matrix(1 0 0 -1 -223.98 -920.71)">
	<stop  offset="0" style="stop-color:#F05325"/>
	<stop  offset="0.45" style="stop-color:#F37124"/>
	<stop  offset="1" style="stop-color:#F68B21"/>
</linearGradient>
<path style="fill:url(#SVGID_00000175319997097398912390000005787052182909120418_);" d="M166.3,47.65l-5.52,12.38l1.77,1.1h0.66
	l6.52-14.53C169,46.27,166.96,46.16,166.3,47.65z"/>
<path class="st2" d="M162.04,59.86l-5.47-12.27c-0.66-1.44-2.71-1.33-3.37-1.05l5.91,13.26c0.44,0.88,1.38,1.38,2.32,1.27h1.77
	C163.2,61.13,162.59,61.13,162.04,59.86z"/>
<linearGradient id="SVGID_00000047776106995659989300000013139107259985441713_" gradientUnits="userSpaceOnUse" x1="431.6971" y1="-967.8255" x2="438.0341" y2="-981.6652" gradientTransform="matrix(1 0 0 -1 -223.98 -920.71)">
	<stop  offset="0" style="stop-color:#F05325"/>
	<stop  offset="0.45" style="stop-color:#F37124"/>
	<stop  offset="1" style="stop-color:#F68B21"/>
</linearGradient>
<path style="fill:url(#SVGID_00000047776106995659989300000013139107259985441713_);" d="M215.41,60.91
	c-0.66,0.33-2.71,0.44-3.37-1.05l-5.52-12.38l1.77-1.1h0.61L215.41,60.91z"/>
<path class="st2" d="M209.5,57.43l-0.55-1.16c-0.28-0.77-1.05-1.27-1.88-1.16h-2.54c0,0,2.82-6.24,3.31-7.46
	c0.5-1.22,1.16-1.16,1.16-1.16h-1.77c-0.99-0.11-1.88,0.44-2.32,1.27l-5.97,13.2c0.66,0.33,2.71,0.44,3.37-1.05s1.22-2.71,1.22-2.71
	h4.7C208.67,57.15,209.11,57.21,209.5,57.43z"/>
<linearGradient id="SVGID_00000009581071579644481300000005586704575950551977_" gradientUnits="userSpaceOnUse" x1="399.1514" y1="-987.1429" x2="408.7205" y2="-966.8998" gradientTransform="matrix(1 0 -0.02 -1 -227.9092 -920.71)">
	<stop  offset="0" style="stop-color:#F05325"/>
	<stop  offset="0.45" style="stop-color:#F37124"/>
	<stop  offset="1" style="stop-color:#F68B21"/>
</linearGradient>
<path style="fill:url(#SVGID_00000009581071579644481300000005586704575950551977_);" d="M201.38,46.6
	c-0.72-0.33-2.71-0.44-3.37,1.05l-8.56,19.06c0.72,0.33,2.71,0.44,3.37-1.05L201.38,46.6z"/>
<path class="st2" d="M193.7,59.86c-0.55-1.22-4.81-10.72-5.47-12.27c-0.66-1.55-2.71-1.33-3.37-1.05l5.91,13.26
	c0.44,0.88,1.38,1.38,2.32,1.27h1.77C194.86,61.13,194.31,61.13,193.7,59.86z"/>
<path class="st0" d="M217.68,61.13c-0.61,0-1.1-0.5-1.1-1.1s0.5-1.1,1.1-1.1c0.61,0,1.1,0.5,1.1,1.1S218.28,61.13,217.68,61.13z
	 M217.68,59.09c-0.55,0-0.94,0.44-0.94,0.94c0,0.55,0.44,0.94,0.94,0.94c0.5,0,0.94-0.44,0.94-0.94l0,0
	C218.62,59.47,218.23,59.09,217.68,59.09L217.68,59.09L217.68,59.09z M217.95,60.63l-0.33-0.5h-0.22v0.5h-0.17v-1.27h0.5
	c0.22,0,0.39,0.17,0.39,0.39l0,0c0,0.17-0.11,0.33-0.33,0.39l0.33,0.5L217.95,60.63z M217.79,59.53h-0.33v0.44h0.33
	c0.11,0,0.22-0.11,0.22-0.22S217.9,59.53,217.79,59.53z"/>
<polygon class="st1" points="91.6,15.33 103.7,19.64 101.82,5.61 "/>
<polygon class="st2" points="91.6,15.33 97.68,17.48 101.82,5.61 "/>
<polygon class="st1" points="103.7,19.64 91.6,15.33 93.48,29.36 "/>
<polygon class="st2" points="103.7,19.64 97.68,17.48 93.48,29.36 "/>
<circle class="st7" cx="97.68" cy="17.48" r="1.99"/>
</svg>
