<svg width="22" height="24" viewBox="0 0 22 24" fill="none" xmlns="http://www.w3.org/2000/svg">
    <path d="M11.5 5.8c3.3.2 6.4 1.8 8.3 5.2.8 1.4 1.2 3 1 4.6-.2 1.9-2.1 3.3-4.1 3-1.7-.2-3-1.4-3.2-3.1 0-.3 0-.6-.1-.9-.2-1.3-1.4-2-2.8-1.9-1.2.1-2.2 1.2-2.1 2.4.1 3.3 2.2 6.2 5.4 7.3.2.1.5.1.7.2.4.1.5.4.4.7-.1.4-.4.5-.8.4-3.7-.9-6.5-3.9-7-7.7-.1-1.1-.1-2.1.5-3 .9-1.2 2.4-1.8 4-1.5 1.4.3 2.5 1.5 2.8 2.9v.4c0 1.7 1.7 2.8 3.2 2.3 1.1-.3 1.8-1.3 1.8-2.5-.1-3.5-2.6-6.6-6.1-7.6-3.8-1.1-7.8.3-9.9 3.5-1.1 1.6-1.4 3.3-1.2 5.2.1 1.2.3 2.3.7 3.4.2.4 0 .7-.3.9-.3.1-.7 0-.8-.4-.9-2.4-1.2-4.9-.5-7.3.7-2.4 2.3-4.2 4.4-5.4 1.7-.7 3.4-1.1 5.7-1.1z" fill="#D75426"/>
    <path d="M5.4 15.7c0 2.6 1.2 4.9 3.2 6.9.1.1.2.3.3.5.1.3-.1.5-.3.6-.2.1-.5.1-.7-.1-2.5-2.5-3.9-5.4-3.6-9 .2-2.3 1.4-3.9 3.4-5 2.7-1.5 5.8-1.1 8.1 1 1.3 1.2 2 2.7 2.1 4.5 0 .5-.2.7-.6.7-.4 0-.6-.2-.6-.7 0-2.3-1.7-4.4-4.1-5-2.6-.7-5.3.5-6.5 2.8-.5.7-.7 1.6-.7 2.8z" fill="#D75426"/>
    <path d="M11.5 2.9c2.9 0 5.9 1.1 8.5 3.4.6.6 1.2 1.3 1.7 1.9.2.3.2.7-.1.9-.3.2-.6.2-.9-.2-1.9-2.6-4.4-4.1-7.5-4.6-4.1-.6-7.8.3-10.8 3.3-.4.4-.7.9-1.1 1.3-.2.4-.6.5-.9.2-.3-.2-.3-.6 0-.9C1.9 6.1 4 4.6 6.5 3.7c1.5-.5 3-.8 5-.8z" fill="#D75426"/>
    <path d="M11.2 0c2.3 0 4.7.6 7 1.8.4.2.5.5.3.8-.1.3-.5.4-.9.3-1.4-.7-2.8-1.2-4.3-1.5-3.1-.5-6.1-.1-8.8 1.4-.1.1-.3.1-.5.1-.3 0-.5-.2-.5-.5-.1-.2 0-.5.3-.6 1-.4 2.1-.9 3.1-1.2C8.3.1 9.6 0 11.2 0zM16.9 21.6c-3.2 0-5.8-2.2-6.4-5.3-.1-.3-.1-.7-.1-1 0-.4.2-.7.6-.7.4 0 .6.3.6.7.1 2.4 1.7 4.4 4 4.9.8.2 1.5.2 2.3.1h.3c.4 0 .6.2.7.5.1.3-.1.6-.5.7-.5 0-1 0-1.5.1z" fill="#D75426"/>
</svg>
