<svg width="129" height="162" viewBox="0 0 129 162" fill="none" xmlns="http://www.w3.org/2000/svg">
    <g clip-path="url(#a)">
        <path d="M13.37 52.452c-.196-2.924-.565-6.093-2.384-8.525-.074-.099-.173-.197-.27-.197-.542.025-.91 1.573-1.009 1.966-.172.712-.221 1.498-.27 2.21-.05.959.123 2.678-.615 3.416-.688.712-1.45.098-2.139-.983-.32-.27-.59-.59-.836-.91-.295-.417-.492-.884-.713-1.35a14.13 14.13 0 0 1-.442-1.45c-.099-.491-.197-.983-.222-1.498.099.49.222.982.37 1.474.147.49.294.958.49 1.425.296.786.69 1.523 1.23 2.161-.934-1.572-1.696-3.881-1.844-4.618-.516-2.85-1.475-5.012-2.163-4.865-.394.099.123 5.258.147 6.56-.098-.098-.196-.27-.295-.492.123.467.246.91.32 1.4-.32-.957-.64-1.915-1.008-2.849-.05-.098-.074-.221-.123-.32 0-.024-.025-.024-.025-.048-.737-1.77-1.573-3.882-2.188-4.226-.737-.418-.098 3.636-.024 3.98.368 1.94.836 3.857 1.327 5.773.32 1.302.713 2.678 1.205 4.005.024.049 0 .368-.025.86l11.31 3.243c.22-2.089.32-4.103.196-6.142zm-3.024 3.98c0 .024 0 0 0 0-.295-.664-.713-1.229-1.18-1.77a9.436 9.436 0 0 0-1.549-1.424c-.565-.418-1.18-.786-1.77-1.13-.295-.172-.614-.32-.934-.492a17.14 17.14 0 0 1-.959-.466c.344.122.664.245 1.008.368.32.148.64.295.959.467.64.344 1.23.737 1.77 1.18.541.441 1.082.933 1.524 1.473.492.54.886 1.13 1.131 1.794.025 0 .025 0 0 0z" fill="#F9DBCF"/>
        <path d="M7.716 53.14a13.846 13.846 0 0 0-1.77-1.179c-.32-.172-.64-.32-.959-.466-.32-.123-.664-.246-1.008-.369.32.172.64.32.959.467.32.172.64.32.934.491.615.344 1.23.713 1.77 1.13.566.418 1.082.91 1.55 1.425.466.54.884 1.106 1.155 1.77-.246-.664-.664-1.254-1.107-1.819a10.708 10.708 0 0 0-1.524-1.45z" fill="#672448"/>
        <path d="M61.903 47.244a5.17 5.17 0 0 0-.615-.05 4.29 4.29 0 0 0-4.302 4.3c0 .86.246 1.646.688 2.31a8.439 8.439 0 0 1 1.328-3.71 8.474 8.474 0 0 1 2.9-2.85zM26.844 143.746c-.074 0-.123-.025-.197-.025-.147-.024-.32-.024-.442-.024h-.025l-.049.024-.123.049-.221.099-.025.024c.148.221.295.418.467.639.295-.27.517-.54.615-.786zM48.725 123.011c2.163-1.818 4.228-3.759 6.22-5.774a142.142 142.142 0 0 0 5.851-6.314 196.676 196.676 0 0 0 5.458-6.535c-1.795 2.211-3.59 4.398-5.458 6.535a142.142 142.142 0 0 1-5.851 6.314c-2.016 1.99-4.081 3.931-6.22 5.774zM25.246 93.43c.368.246.713.517 1.081.787.025 0 .025.024.05.024-.025 0-.025 0-.05-.024-.344-.246-.713-.516-1.081-.786zM41.964 128.096a87.747 87.747 0 0 1-4.573 2.801 49.53 49.53 0 0 1-2.803 1.449 74.716 74.716 0 0 0 2.803-1.449 54.266 54.266 0 0 0 4.573-2.801zM67.14 103.43c-.074-.024-.197.049-.222.123.025-.074.148-.147.222-.123zM49.635 122.495a73.568 73.568 0 0 1-6.737 5.233 80.947 80.947 0 0 0 6.737-5.233zM34.614 132.347c-.124.049-.173.221-.099.246-.074-.025-.05-.197.099-.246zM28.638 134.803c.221-.074.467-.147.713-.246 1.057-.368 2.09-.737 3.122-1.13 1.303-2.825 2.828-5.798 4.13-8.279a166.717 166.717 0 0 1 7.868-18.745c.566-1.155 1.156-2.31 1.746-3.44.196-.491.393-.958.59-1.449.393-.959.811-1.892 1.278-2.801-.91.196-1.795.393-2.704.59-.025 0-.074.024-.099.024h-.073c-.025 0-.05 0-.074.025-.074.024-.123.024-.197.049.074-.025.123-.025.197-.05-.074.025-.123.025-.197.05-.049 0-.123.024-.197.049-.147.025-.294.05-.442.098-.516.099-1.008.197-1.524.295-1.45.27-2.901.541-4.352.762-.27.049-.516.073-.787.122a103.253 103.253 0 0 1-5.655.713c-.786.074-1.548.147-2.335.196-2.36.172-4.794.246-7.351.222v31.053c0 1.13.098 2.26.295 3.341 1.72-.343 3.639-.712 5.09-1.154l.958-.295zm6.22-33.756c-.934.123-1.893.221-2.852.319.959-.098 1.918-.196 2.852-.319zM30.36 144.066a45.374 45.374 0 0 0-1.796-.344c.566.098 1.131.196 1.672.319.025 0 .074 0 .123.025zM54.158 91.073c-1.966 2.015-3.614 4.349-5.064 6.732l-.443.737.443-.737c1.45-2.383 3.098-4.693 5.064-6.732zM72.893 131.192c.05-.417.099-.835.197-1.228-.098.393-.148.811-.197 1.228zM72.917 135.344c-.074-1.179-.148-2.359-.074-3.538-.074 1.204-.025 2.383.074 3.538zM22.64 91.417zM81.252 109.352c-1.279 3.12-2.557 6.215-3.836 9.335l-1.72 4.177 1.72-4.177c1.254-3.12 2.557-6.215 3.836-9.335zM81.499 109.204c-.075 0-.222.074-.247.148.025-.074.172-.148.247-.148zM54.158 91.073c1.82-1.892 3.959-3.489 6.368-4.57-2.41 1.081-4.549 2.703-6.368 4.57z" fill="#CDEEEC"/>
        <path d="m31.614 90.753.369-.049c.122-.024.22-.024.344-.049l.959-.147c.639-.099 1.278-.221 1.942-.344.32-.05.64-.123.959-.197a131.9 131.9 0 0 0 5.58-1.253c.615-.147 1.205-.32 1.82-.466.246-.074.516-.123.762-.197.516-.148 1.008-.27 1.5-.418.246-.073.492-.147.737-.196.099-.025.222-.074.32-.099.074-.024.172-.049.246-.073 3.171-.885 4.253-1.278 8.187-2.26 4.4-1.081 9.293-.05 11.457.466.147 0 .516.074 1.032.221l.885-3.07h-.049l.148-.516.713-2.162.024-.099h.025l-.811.148-.468.073c-3.024.492-7.13 1.229-9.318-1.572a8.345 8.345 0 0 1-1.303-2.653c-.958-2.973-1.253-6.486-.344-9.508H41.866c-10.72 0-19.496 8.746-19.496 19.433v5.11c2.729.442 5.925.295 9.244-.123z" fill="#CDEEEC"/>
        <path d="M60.846 86.38c-.098.05-.197.075-.32.124H60.5h.025c.098-.05.197-.074.32-.123zM26.402 143.476h-.27c-.025 0-.05.025-.1.025.025-.025.075-.025.1-.025.098 0 .196-.024.27 0zM49.732 97.239c-.245.417-.516.81-.762 1.228.295-.393.492-.835.762-1.228zM60.846 86.38l.959-.368c-.344.123-.664.246-.959.369zM94.454 73.556a6.111 6.111 0 0 1-2.237 1.253c-.099.025-.197.074-.32.099-.344.098-.713.171-1.082.245-.32.074-.64.148-.983.148-.123 0-.27-.05-.394 0-.147.049-.123.22-.147.294-.05.123-.099.222-.148.344-.639 1.302-2.237 2.187-3.712 2.482-.246.049-.492.073-.762.098h-.148l-.123.074a5.931 5.931 0 0 1-3.786.712h-.049c-.098-.024-.221 0-.32-.024l-.442-.148c-.295-.123-.615-.196-.91-.27-.074-.025-.246-.05-.369-.098l-2.852 9.532c.492.172.787.27.787.27 4.868 2.04 7.77 4.914 7.941 12.947.099 4.103-6.023 18.082-11.088 28.917-.049.295-.073.614-.098.909l1.008 12.677a54.64 54.64 0 0 1 .098 6.658c.05.565.074 1.105.123 1.67h5.95c10.72 0 19.496-8.746 19.496-19.433v-.246l18.784-16.534H99.887V85.816c0-4.914-1.844-9.385-4.892-12.825a5.87 5.87 0 0 1-.541.565z" fill="#CDEEEC"/>
        <path d="m74.171 153.377-.098 1.769.811.245c-.147-.712-.295-1.4-.492-2.063-.073.049-.196.098-.22.049z" fill="#145A7B"/>
        <path d="M65.491 154.385a97.624 97.624 0 0 1-6.957-1.524c2.286.615 4.622 1.106 6.957 1.524zM74.147 153.328zM55.068 152.222a79.932 79.932 0 0 1-2.189-.688c.713.245 1.45.466 2.189.688z" fill="#2A4D52"/>
        <path d="M47.987 152.345h3.196a83.855 83.855 0 0 1-3.344-.958l.148.958zM33.556 145.441c-.147.05-.295.123-.442.172-1.008.418-2.14.836-3.295 1.278-.369.147-.713.27-1.082.393a19.425 19.425 0 0 0 13.08 5.061h6.097l-.123-.983c-5.532-1.646-10.744-3.636-14.235-5.921z" fill="#145A7B"/>
        <path d="M48.209 149.545c-.124-.049-.346.147-.296.221-.05-.098.172-.27.296-.221zM55.388 152.001c.369.099.713.222 1.081.32a18.412 18.412 0 0 0-1.081-.32zM74.097 152.346c0-.074 0-.148-.024-.221 0 .098 0 .171.024.221zM30.777 144.139c.491.098 1.008.221 1.5.369-.64-.172-1.255-.32-1.894-.443.123.025.246.05.394.074zM71.024 155.218a89.98 89.98 0 0 1-5.09-.737 83.94 83.94 0 0 0 5.09.737z" fill="#2A4D52"/>
        <path d="m74.933 155.637-.885-.246-.073 1.548c.418.123.86.246 1.278.393a40.863 40.863 0 0 0-.32-1.695z" fill="#145A7B"/>
        <path d="M65.935 154.483c-.024 0-.049 0-.074-.025.025 0 .05 0 .074.025zM72.916 156.963c.025 0 .05.025.099.025.762.196 1.524.418 2.262.614-.762-.196-1.525-.418-2.262-.614-.025-.025-.074-.025-.099-.025zM74.883 155.391c.025.098.025.172.05.27-.025-.098-.025-.196-.05-.27zM65.665 155.662c0 .098-.025.196-.025.294 0-.098 0-.196.025-.294zM74.073 155.146l.811.245-.811-.245z" fill="#2A4D52"/>
        <path d="m47.766 151.387.123.983h.074l-.123-.958c-.025-.025-.05-.025-.074-.025zM74.048 155.416l.885.221-.885-.221zM74.072 155.146l-.024.27.885.245c-.025-.098-.025-.172-.05-.27l-.81-.245zM65.862 154.457l-.37-.073.37.073zM74.048 155.416l.885.221-.885-.221zM73.975 156.963c.418.123.86.246 1.278.393 0 .074.025.172.05.246a.874.874 0 0 0-.05-.246 37.87 37.87 0 0 0-1.278-.393z" fill="#EDFBFB"/>
        <path d="M73.975 156.963c.418.123.86.246 1.278.393a37.87 37.87 0 0 0-1.278-.393z" fill="#EDFBFB"/>
        <path d="M73.974 156.963v.172s-.369-.049-1.033-.172c.025 0 .05.025.099.025.762.196 1.524.418 2.262.614a.874.874 0 0 0-.05-.246 37.87 37.87 0 0 0-1.278-.393z" fill="#EDFBFB"/>
        <path d="M44.988 99.353c.074-.025.123-.025.197-.05.025 0 .05 0 .074-.024-.024 0-.049 0-.074.024-.074.025-.147.025-.197.05zM32.006 101.366zM1.766 56.53c.025-.27.05-.515.074-.761-.025.221-.05.467-.074.762z" fill="#F9DBCF"/>
        <path d="M41.743 88.739a38.213 38.213 0 0 0 1.794-.467c.246-.074.517-.123.763-.196-.246.073-.517.123-.763.196-.565.148-1.18.295-1.794.467zM13.813 86.085c.147.246.32.492.492.738-.172-.246-.345-.492-.492-.738zM73.188 134.313c.147 2.948.393 5.896.614 8.819.172 2.506.344 5.012.516 7.543a50.16 50.16 0 0 0-.098-6.658l-1.008-12.677c-.098.983-.074 1.99-.024 2.973z" fill="#2A4D52"/>
        <path d="M26.204 144.557c-1.524 1.351-5.212 2.972-5.262 4.176-.073 1.13 3.565.098 7.425-1.302l.172-.295a25.643 25.643 0 0 1-2.335-2.579z" fill="#F9DBCF"/>
        <path d="m28.54 147.137 1.696-2.874c-.59-.074-1.155-.172-1.745-.271-.566-.073-1.107-.172-1.672-.245-.099.245-.32.516-.615.786.713.933 1.5 1.793 2.336 2.604zM30.237 144.041c.05 0 .098.024.123.024-.05-.024-.098-.024-.123-.024z" fill="#F9DBCF"/>
        <path d="m28.54 147.136-.172.295c.123-.049.247-.098.37-.123a1.208 1.208 0 0 0-.197-.172z" fill="#F9DBCF"/>
        <path d="m33.089 145.614-.32-.713c-.172-.122-.32-.245-.491-.368h-.025c-.688-.074-1.352-.172-2.04-.27l-1.697 2.874.172.172c.369-.123.738-.27 1.082-.393 1.18-.467 2.311-.884 3.319-1.302zM30.36 144.065zM17.206 141.659c.664-.271 1.328-.541 1.992-.836-.664.295-1.328.565-1.992.836zM67.803 85.742c-.517-.148-.885-.222-1.033-.222.516.099.86.197 1.033.222zM76.457 88.518s-.295-.098-.787-.27l-.05.172c.517.123.837.172.837.098z" fill="#F9DBCF"/>
        <path d="M54.92 117.238c-1.991 2.014-4.056 3.955-6.22 5.773a75.744 75.744 0 0 1-6.736 5.11 87.068 87.068 0 0 1-4.573 2.801c-.91.516-1.844.983-2.803 1.45-.123.049-.172.221-.098.245a8.9 8.9 0 0 0 .713-.319c.123-.049.246-.123.368-.172l1.697-.884a59.294 59.294 0 0 0 5.605-3.465 80.933 80.933 0 0 0 6.737-5.232c2.163-1.868 4.229-3.858 6.22-5.897l5.802-6.363a237.774 237.774 0 0 0 5.507-6.658c.05-.049.05-.123-.024-.147-.074-.025-.197.049-.221.123-.222.27-.443.565-.664.835-1.795 2.211-3.59 4.398-5.458 6.535-1.893 2.113-3.811 4.226-5.852 6.265z" fill="#2A8C79"/>
        <path d="M34.515 132.592c.024 0 .073 0 .123-.024l.59-.295c-.246.098-.492.196-.713.319zM36.284 126.597c.074-.024.172-.098.197-.172l.442-1.253c.197-.565.394-1.105.59-1.646.566-2.211 1.45-4.274 1.574-4.594 1.82-4.741 7.892-17.762 9.908-20.44.246-.418.491-.835.762-1.229 0 0 0-.024.025-.024 1.475-2.359 3.146-4.619 5.162-6.56 1.967-1.916 4.254-3.464 6.86-4.373.049-.024.123-.049.147-.098.025-.025.025-.05.025-.074 0-.049-.025-.073-.05-.073h-.098l-.959.368c-.098.05-.196.074-.32.123h-.024c-2.409 1.056-4.548 2.678-6.367 4.57-1.967 2.014-3.614 4.348-5.065 6.731l-.443.737c-.86 1.425-1.647 2.899-2.433 4.373-.59 1.155-1.18 2.31-1.746 3.44a155.568 155.568 0 0 0-4.5 9.925c-1.204 2.899-2.31 5.847-3.367 8.82-.148.467-.32.909-.468 1.376-.024.073.099.073.148.073zM22.295 91.245c-.295-.148-.615-.32-.91-.442-.049-.025-.098 0-.172.024-.098.074-.172.172-.098.221l1.18.59v-.393zM22.295 91.638a30.745 30.745 0 0 1 2.95 1.818c.369.245.738.516 1.082.786.024 0 .024.024.05.024.122 0 .343-.196.22-.27-.344-.27-.713-.54-1.081-.786a28.122 28.122 0 0 0-2.877-1.769c-.123-.05-.221-.123-.344-.172v.369zM30.926 140.773l-.345-.761c.099.245.197.491.345.761zM30.064 138.194v.049c.025.098.05.197.05.295.024.123.049.221.073.319.099.369.222.737.345 1.081 0-.098-.492-1.916-.468-1.744zM74.195 152.616c.074.221.124.467.198.712.049-.049.098-.098.073-.147a8.93 8.93 0 0 1-.049-.811h-.197l-.025.246zM73.188 131.339c.025-.319.05-.614.099-.909-.05.123-.099.221-.148.344l.049.565zM74.294 150.87l-.074 1.474h.197c-.049-.565-.073-1.105-.123-1.67v.196z" fill="#2A8C79"/>
        <path d="M74.17 153.352c0 .025 0 .025 0 0 .05.05.148.025.222-.049-.074-.245-.123-.467-.197-.712l-.025.761zM74.736 125.861c2.262-5.528 4.549-11.031 6.81-16.534.025-.074 0-.098-.049-.123-.073 0-.22.074-.245.148-1.279 3.12-2.557 6.215-3.836 9.335l-1.72 4.177c-.566 1.376-1.156 2.776-1.697 4.176-.369.958-.688 1.917-.885 2.924l.073.786c.05-.098.099-.221.148-.344l.074-.368c.246-1.45.762-2.826 1.327-4.177z" fill="#2A8C79"/>
        <path d="m74.196 152.616.025-.246h-.099c.025.074.05.148.074.246zM72.868 131.314c-.024.172-.024.344-.049.516-.074 1.18 0 2.359.074 3.538.369 5.602.762 11.203 1.155 16.78l.074.221h.099l.073-1.474v-.197c-.172-2.506-.344-5.011-.516-7.542-.197-2.948-.443-5.872-.615-8.82-.049-.982-.073-1.99.025-2.972l-.05-.59c-.073.172-.171.344-.27.54z" fill="#2A8C79"/>
        <path d="m74.098 152.345.074.983v.024l.049-.761c-.025-.074-.05-.172-.074-.246h-.05z" fill="#2A8C79"/>
        <path d="m74.122 152.346-.074-.221c0 .073 0 .147.025.221h.049zM73.09 129.964c-.098.418-.148.811-.197 1.228v.123c.099-.196.173-.393.271-.59l-.074-.761zM65.492 154.384c-.025.098-.025.196-.05.295 0-.099.026-.197.05-.295zM65.787 154.728c.024-.098.024-.196.049-.27a.875.875 0 0 1-.05.27z" fill="#2A8C79"/>
        <path d="M55.51 152.345c2.04.614 4.13 1.13 6.22 1.597 1.23.27 2.483.516 3.713.737.024-.098.024-.196.049-.295a97.058 97.058 0 0 1-6.958-1.523c-.639-.172-1.254-.344-1.893-.516h-1.13z" fill="#2A8C79"/>
        <path d="M56.64 152.345c-.048-.025-.122-.025-.172-.049-.368-.099-.737-.221-1.081-.32-2.434-.712-4.819-1.547-7.18-2.456-.122-.05-.343.147-.294.221l.024.024a69.189 69.189 0 0 0 4.942 1.745c.738.245 1.45.466 2.188.687.148.05.295.074.443.123h1.13v.025zM65.787 154.728c.172.024.344.074.516.098 1.5.246 3 .467 4.5.639.122.025.368-.246.196-.27a90.899 90.899 0 0 1-5.09-.737c-.024 0-.049 0-.073-.025a.917.917 0 0 1-.05.295z" fill="#2A8C79"/>
        <path d="M65.787 154.728c.024-.098.024-.196.049-.27a.875.875 0 0 1-.05.27zM65.492 154.384c-.025.098-.025.196-.05.295 0-.099.026-.197.05-.295z" fill="#2A8C79"/>
        <path d="M65.762 154.728h.025c.024-.099.024-.197.049-.271l-.369-.073c-.024.098-.024.196-.049.295.123.024.221.049.344.049-.024.024-.024.024 0 0 0 0-.024 0 0 0zM65.787 154.728c.147.024.32.073.467.098h.024c-.147-.025-.32-.049-.491-.098z" fill="#2A8C79"/>
        <path d="M65.787 154.728c.172.024.344.073.516.098-.172-.025-.344-.049-.516-.098z" fill="#2A8C79"/>
        <path d="M65.787 154.728c0 .024 0 .024 0 0 .147.049.32.073.467.098-.148-.025-.295-.049-.467-.098z" fill="#2A8C79"/>
        <path d="M65.788 154.728h-.025s-.025 0-.025.024c.025 0 .05 0 .05-.024 0 .024 0 .024 0 0zM44.495 148.217c-2.384-.934-4.794-1.843-7.179-2.776-.123-.05-.393.196-.27.245a845.6 845.6 0 0 0 7.179 2.776c.123.074.393-.196.27-.245z" fill="#2A8C79"/>
        <path d="M2.431 46.728c0-.024-.025-.049-.025-.098-.147-.491-.32-.958-.467-1.45l-.54-1.424a8.15 8.15 0 0 1-.246-.713c-.074-.245-.148-.467-.173-.737 0 .516.173 1.007.295 1.474.123.369.246.737.394 1.106.246.761.516 1.4.762 1.842z" fill="#672448"/>
        <path d="M2.75 48.103a14.344 14.344 0 0 0-.32-1.4c-.221-.442-.492-1.081-.787-1.769.05.098.074.221.123.32.344.958.664 1.891.983 2.85zM6.56 50.143a.44.44 0 0 0 .124.172c.074.05.148.123.222.172-.124-.098-.222-.221-.345-.344z" fill="#672448"/>
        <path d="M4.84 46.556a14.35 14.35 0 0 1-.37-1.474c.025.516.124 1.007.222 1.499.123.491.27.982.443 1.45.196.466.417.933.712 1.35.246.344.517.664.836.91-.049-.05-.073-.123-.123-.173-.54-.638-.934-1.375-1.229-2.162a11.726 11.726 0 0 1-.492-1.4zM21.951 145.564c-.098.049-.197.098-.27.147 1.081-.466 2.163-.933 3.245-1.425l.836-.368c-.025-.025-.05-.049-.05-.074-1.18.418-2.9 1.253-3.76 1.72zM26.058 143.5l-.05.025-.098.049.098-.049.05-.025zM30.236 144.041a39.294 39.294 0 0 0-1.671-.319c.54.098 1.106.196 1.671.319z" fill="#672448"/>
        <path d="m26.007 143.795.123-.049.05-.025h.024c.123-.024.295 0 .443.025.073 0 .123.024.196.024.025-.049.025-.098.05-.147.024-.172-.468-.049-1.18.221.024.025.049.049.049.074l.024-.025.221-.098zM30.777 144.14c.492.098 1.008.221 1.5.368-.516-.123-1.008-.246-1.5-.368zM25.689 143.82c-.025-.025-.05-.074-.074-.098l-.787.368-6.909 3.219v.024h.025c1.254-.54 2.483-1.081 3.737-1.621h.025c.098-.049.196-.099.27-.148.836-.467 2.557-1.302 3.713-1.744z" fill="#672448"/>
        <path d="M30.236 144.041a39.294 39.294 0 0 0-1.672-.319 22.007 22.007 0 0 0-1.352-.197 4.118 4.118 0 0 0-.54-.049h-.516c-.025 0-.05.025-.1.025l-.048.024-.099.049-.221.099-.074.024c.025.025.05.074.074.098.713-.27 1.205-.393 1.18-.221a.351.351 0 0 1-.05.148c.566.073 1.107.172 1.673.245.59.099 1.155.172 1.745.271l.123-.197h-.123z" fill="#672448"/>
        <path d="m32.278 144.532-.025-.025c-.492-.123-.983-.245-1.5-.368-.147-.025-.27-.074-.418-.098l-.123.196c.713.123 1.377.221 2.066.295z" fill="#672448"/>
        <path d="M32.277 144.508c-.025 0-.025 0 0 0 0 0 0 .025 0 0 0 0 .024.025 0 0zM19.738 143.771s0-.025 0 0c0-.025 0-.025 0 0-.369.098-.713.246-1.082.368-.344.148-.663.32-1.008.467-.663.32-1.352.663-2.016.983v.024c.689-.294 1.377-.565 2.066-.859.344-.148.688-.271 1.032-.443a9.824 9.824 0 0 0 1.008-.54zM17.157 141.682c-.025-.024-.025-.024 0 0-.025 0-.025 0-.025.025v.025h.025c.025 0 .05-.025.074-.025-.05-.049-.074-.049-.074-.025z" fill="#672448"/>
        <path d="M19.198 140.823c.344-.147.688-.27 1.032-.442.345-.172.664-.344.984-.541-.369.099-.713.246-1.057.393-.345.148-.664.32-1.008.467l-1.992.958h.05a67.42 67.42 0 0 0 1.99-.835z" fill="#672448"/>
        <path d="M75.301 66.21c-.098-.27.295-.442.517-.49.27-.05.565-.05.835.024.32.098.59.27.812.491l.098.098h1.402l-.418-.294c-.689-.516-7.499-5.405-10.031-11.056-.27-.614-1.033-2.211-1.033-2.236a29.963 29.963 0 0 1-.737-2.088c-.025-.049-.025-.098-.05-.147l-.049.049c0 .024-.024.049-.049.074-.32.368-.54.81-.64 1.277-.024.074-.024.172-.048.246a.974.974 0 0 0 .098.59c.05.098.148.147.246.196a.661.661 0 0 1 .172-.197l.147-.147c.05-.025.074-.05.123-.05.025 0 .05-.024.099-.024.024 0 .024 0 .049.025 0 0 .025.024.025.049a.49.49 0 0 1-.05.32c0 .024 0 .024-.024.048a.63.63 0 0 1-.32.246 1.03 1.03 0 0 0 .05.81c.098.197.22.37.417.492l.295.148h.025c.074.024.074.073.024.147-.049.05-.172.123-.22.098l-.05-.024c-.074-.025-.123-.05-.197-.074h-.024c-.05-.025-.123-.074-.172-.098a1.181 1.181 0 0 1-.492-.786 1.115 1.115 0 0 1 .074-.688.582.582 0 0 1-.37-.221.646.646 0 0 1-.171-.369c-.05-.418.049-.86.246-1.228 0-.025.024-.05.024-.099.148-.294.32-.565.541-.81-.172.123-.32.27-.492.417.074-.049.074 0-.172.295-.049.074-.098.123-.147.197v.098c0 1.892-1.23 3.489-2.926 4.078-.049.074-.098.172-.123.221-.344.64-2.827 4.128-2.827 4.128s0-.025-.025-.025c-.024.025-.024.05-.024.05-.025.049-.074.098-.099.147-.172.245-.344.516-.516.761-.025.025-.025.05-.05.074a7.861 7.861 0 0 1-1.499 1.351l-.098.074c-.197.147-.443.27-.664.418a1.58 1.58 0 0 0-.64.688c-.073.22-.098.442-.073.663.025.245.098.491.197.688.074.123.147.245.246.344.147.147.32.245.516.32.197.048.393.073.59.048-.123.27-.197.565-.295.86h18.144a.478.478 0 0 1-.197-.197zm-16.693-.908a2.127 2.127 0 0 1-.516.171c-.05 0-.492.074-.394-.073.025-.025.05-.05.098-.05.025-.024.05-.024.099-.024.221-.024.418-.074.639-.172.074-.049.172.098.074.148zm6.27-4.423c-.222.221-.542.246-.788.467-.516.025.812-.81.787-.467zm2.433 3.66c-.59-2.161-3.393-3.12-4.696-1.252.738-2.703 5.925-1.597 4.696 1.253zm-2.41-7.32c-1.794-1.45 3.516-1.499 3.393 2.628-.393-1.326-1.991-2.555-3.392-2.628zM81.866 66.113a4.01 4.01 0 0 0-.762.27c1.82.074 3.59.393 5.261.934a4.94 4.94 0 0 0-1.991-1.155 5.105 5.105 0 0 0-2.508-.05z" fill="#F9DBCF"/>
        <path d="M62.64 55.573a4.305 4.305 0 0 0 2.926-4.078v-.098l-.025.024c-.713.983-2.36 3.292-2.9 4.152zM57.625 75.866a8.1 8.1 0 0 0 1.303 2.653c2.188 2.8 6.294 2.064 9.318 1.572l.467-.073.811-.148 9.097-2.53c.098-.295.22-.59.344-.86.27-.516.59-1.007.91-1.474.049-.074.59-.762.663-.713 1.697 1.106 2.68.91 4.229.467a4.235 4.235 0 0 0 2.262-1.916c.27-.467.467-.983.565-1.523.074-.713.099-1.548-.098-2.31a4.665 4.665 0 0 0-.91-1.45c-.073-.098-.172-.171-.245-.245a19.698 19.698 0 0 0-5.262-.934 4.932 4.932 0 0 0-1.426.934c.05-.123.074-.246.123-.368-.123.098-.246.196-.393.245a2.144 2.144 0 0 1-1.18.099c-.074-.025-.172-.025-.246-.05 0 .074 0 .123.024.197 0 .098 0 .196-.024.295-.025.294-.098.59-.246.835a.186.186 0 0 1-.05.098 2.975 2.975 0 0 1-.958.958 3.107 3.107 0 0 1-.64.32c-.196.074-.393.147-.59.172l-.073.024c-.59.123-1.205.05-1.77-.196-.123-.074.147-.295.27-.221.394.196.86.27 1.303.22h.05c.491-.048.983-.22 1.376-.515v-.025c.025 0 .05-.024.05-.049.147-.098.294-.22.417-.368.148-.172.27-.393.37-.614 0-.025.024-.05.024-.05.049-.122.098-.245.098-.393.025-.074.025-.147.025-.22v-.271a.882.882 0 0 0-.05-.27l-.467-.123a5.907 5.907 0 0 1-.934-.295l-.147-.05c-.197-.073-.37-.171-.541-.27-.05-.024-.099-.049-.123-.073H57.207c-.836 3.022-.517 6.535.418 9.508zm23.823-5.872c.074-.197.221-.393.393-.54a2.135 2.135 0 0 1 1.205-.394c.418-.024.836.025 1.254.148.418.123.787.344 1.106.663.32.32.492.737.541 1.18.025.442-.024.86-.197 1.277a2.962 2.962 0 0 1-.663 1.056c-.27.32-.615.565-.984.762a3.898 3.898 0 0 0 1.426-1.892c.148-.344.197-.737.148-1.13a2.171 2.171 0 0 0-.443-1.032c-.27-.27-.59-.491-.959-.614a3.203 3.203 0 0 0-1.18-.172c-.393 0-.787.098-1.106.32-.148.098-.246.245-.344.417-.074.172-.123.344-.099.516.246-.025.492 0 .713.074.27.073.492.27.615.491.05.123.074.27.05.418a.645.645 0 0 1-.173.368.798.798 0 0 1-.32.246c-.123.049-.27.074-.393.049v-.025a.988.988 0 0 0 .369-.073.575.575 0 0 0 .295-.246.862.862 0 0 0 .147-.344.643.643 0 0 0-.049-.368c-.074-.099-.147-.197-.246-.27a.86.86 0 0 0-.344-.148c-.246-.074-.492-.098-.737-.025l-.074.025v-.074a1.19 1.19 0 0 1 .049-.663zm-2.68 6.756-.049.025c.025 0 .025 0 .05-.025zm-19.644-5.184c.074-.073.197-.049.27.025a3.029 3.029 0 0 0 4.328.295c.074-.074.197-.05.27.024.074.074.05.197-.024.27a3.436 3.436 0 0 1-3.196.737 3.409 3.409 0 0 1-1.648-1.056c-.098-.123-.098-.246 0-.295zM78.277 78.52c0-.05.025-.1.05-.124.073-.27.171-.54.27-.835-2.016 1.18-8.384 4.914-9.884 5.11l-.885 3.071c1.992.54 6.147 1.94 7.867 2.53l2.852-9.532c-.172-.049-.27-.123-.27-.22z" fill="#F9DBCF"/>
        <path d="M77.81 66.874c.025.024.025.074.025.098v.025c.123.024.245.073.368.073.123.025.246.05.394.05.172.024.369 0 .54-.05.148-.049.296-.098.419-.22l.049-.025-.074-.05h-.025l-.147-.098a.34.34 0 0 1-.099-.073l-.32-.246h-1.4c.024.024.049.049.049.098.098.123.172.27.221.418zM67.803 85.742c-.123.172 5.63 2.137 7.818 2.678l.05-.172c-1.746-.565-5.9-1.966-7.868-2.506z" fill="#F9DBCF"/>
        <path d="M78.768 76.75c-.025 0-.025.024-.05.024l.05-.025zM80.588 66.382c.172 0 .344 0 .516.025.246-.098.492-.197.762-.27a4.832 4.832 0 0 1 2.508.049 4.94 4.94 0 0 1 1.992 1.154c.073.025.122.05.196.074-2.065-2.236-4.72-1.67-5.974-1.032z" fill="#F2C0B6"/>
        <path d="M79.898 66.899c-.024.024-.073.049-.098.073-.049.123-.074.246-.123.369a4.624 4.624 0 0 1 1.426-.934c-.172 0-.344 0-.516-.024-.369.172-.615.393-.689.516zM86.562 67.39c-.074-.025-.123-.05-.197-.074.099.074.172.172.246.246.393.417.688.909.91 1.45a3.258 3.258 0 0 0-.467-1.033 3.906 3.906 0 0 0-.492-.59zM68.885 82.032l.712-2.162H69.525l-.025.098-.713 2.162-.147.516h.049l.024-.098.172-.516z" fill="#F2C0B6"/>
        <path d="m78.646 77.339-9.097 2.53h.05l-.714 2.162-.172.516-.024.099c1.5-.172 7.867-3.907 9.883-5.11.024-.05.049-.123.074-.197z" fill="#F2C0B6"/>
        <path d="m81.375 70.731.073-.024a1.5 1.5 0 0 1 .738.024.862.862 0 0 1 .344.148c.099.074.172.172.246.27.05.123.074.246.05.369a.862.862 0 0 1-.148.344.984.984 0 0 1-.295.245.986.986 0 0 1-.37.074v.025a.73.73 0 0 0 .394-.05.63.63 0 0 0 .32-.245.645.645 0 0 0 .172-.369.82.82 0 0 0-.05-.418 1.017 1.017 0 0 0-.614-.49 1.175 1.175 0 0 0-.713-.075c0-.171.025-.368.099-.516.073-.171.196-.294.344-.417.32-.221.713-.32 1.106-.32.393 0 .787.05 1.18.172.369.123.688.344.959.615.246.294.393.663.443 1.031.049.369 0 .762-.148 1.13a3.898 3.898 0 0 1-1.426 1.892c.369-.196.713-.442.984-.761.294-.32.516-.664.663-1.057.172-.393.246-.835.197-1.277-.05-.442-.221-.86-.54-1.18a2.673 2.673 0 0 0-1.107-.663 3.59 3.59 0 0 0-1.254-.147c-.443 0-.86.147-1.205.393-.172.147-.295.32-.393.54a1.497 1.497 0 0 0-.074.664l.025.073zM58.535 65.153a2.725 2.725 0 0 1-.64.172c-.024 0-.073.025-.098.025-.049 0-.074.025-.098.05-.099.146.344.073.393.073.172-.025.344-.099.516-.172.099-.05 0-.197-.073-.148zM61.879 55.744c-.197.025-.394.05-.615.05a4.255 4.255 0 0 1-3.614-1.99c-.025.196-.05.392-.05.564-.024.688.05 1.376.222 2.04.025.098.05.22.074.319.074.27.172.54.295.786.295.663 1.303 2.113 1.45 2.334a44.262 44.262 0 0 0 1.746-2.948c.172-.369.32-.762.492-1.155zM123.194 32.797c-.934-1.842-2.311-3.464-3.983-4.741-3.442-4.152-8.605-5.724-12.022-3.489-2.311 1.499-3.368 4.422-2.827 7.813-3.86 0-7.523 2.26-9.736 5.92-.025.05-.05.074-.074.123l-.295.516-.098.221c-.222.443-.443.91-.615 1.376a15.263 15.263 0 0 0-.91 3.76c-.024.245-.024.466-.049.712v.958c.05 1.498.369 2.972.984 4.373.196.467.442.933.713 1.376l.172.27c-.197.049-.369.123-.541.172-.418.147-.836.32-1.205.491l-.811-.22c.762-.885 1.057-1.647.811-2.114-.074-.098-.147-.196-.246-.245-.098-.074-.221-.099-.344-.123-.123-.025-.246-.025-.344-.025a4.16 4.16 0 0 0-1.106.172c.049-.393.049-.786.024-1.18-.024-.196-.024-.392-.074-.564a7.311 7.311 0 0 0-2.04-3.98l-.123-.123-.246-.246-.516-.442-.05-.049-.073-.05a9.942 9.942 0 0 0-1.057-.712 5.43 5.43 0 0 0-.836-.442c-.172-.098-.345-.172-.517-.245-.368-.148-.737-.32-1.106-.418-2.975-.983-6.613-1.13-9.342.54a6.329 6.329 0 0 0-2.213-.614 3.453 3.453 0 0 0-.713 0c-.295.025-.615.05-.91.123a5.394 5.394 0 0 0-1.205.418l-.098.049c-.147.073-.27.147-.393.22-.099.05-.197.1-.27.173a6.935 6.935 0 0 0-2.066 2.162c-.147.245-.295.491-.393.761 0-.196.024-.393.049-.614.074-.59.221-1.154.418-1.695.074-.197-.27-.098-.295.025a6.603 6.603 0 0 0-.467 1.818c-.025.27-.05.54-.05.81v.025a11.829 11.829 0 0 0-.565-.516c-.418-.344-.885-.59-1.106-.418-.197.172-.148.615 0 1.057l.147.442c-.393.05-.786.147-1.155.27-.541.197-1.057.443-1.55.713a4.292 4.292 0 0 1 3.59 3.34 17.882 17.882 0 0 1 3.885-2.873c.369-.197.737-.394 1.106-.566.123-.073.246-.122.37-.172.663-.294 1.327-.54 2.015-.761.64-.221 1.278-.393 1.918-.54a.873.873 0 0 1 .246-.05 15.608 15.608 0 0 1 7.67.393 15.723 15.723 0 0 1 6.565 3.98c2.68 2.801 4.4 6.363 4.941 10.196.492 3.12-.098 7.321-1.598 10.466.86.688 1.672 1.474 2.41 2.31.393-.443.713-.959.959-1.5.098-.196.147-.417.22-.614a3.85 3.85 0 0 0 .124-.909c0-.294-.025-.614-.074-.909-.025-.098-.025-.196-.074-.27a4.422 4.422 0 0 0-1.573-2.408 5.437 5.437 0 0 0 1.844-.712l.295-.221a2.3 2.3 0 0 0 .393-.442c.123-.172.221-.344.27-.565.05-.148.074-.32.074-.492 0-.074 0-.172-.024-.245a1.512 1.512 0 0 0-.172-.566c0-.024-.025-.049-.05-.073a4.584 4.584 0 0 0-1.573-1.646c.467-.54.86-1.18 1.13-1.843l.271.025.222.073c.172.05.344.123.516.222.27.122.54.27.762.442a.926.926 0 0 1 .295.393.29.29 0 0 1-.025.245c-.049-.024-.123-.049-.172-.073a.9.9 0 0 0-.565-.098.978.978 0 0 0-.516.22c-.05.05-.123.123-.05.173.172.123.345.22.566.245.197.025.418 0 .615-.073.024 0 .049-.025.073-.025.246.123.467.295.664.491l.147.148c.025.024.05.074.074.098l.222.295c.098.172.196.344.27.516.025.049.049.098.074.172l.074.22c.049.197.098.394.098.59 0 .148.344 0 .319-.147 0-.049-.024-.098 0-.147-.024-.148-.049-.32-.098-.467-.024-.074-.024-.123-.074-.197 0-.024 0-.024-.024-.049a10.535 10.535 0 0 0-.221-.491c-.025-.05-.05-.098-.074-.123l-.148-.221a1.053 1.053 0 0 0-.147-.172 1.407 1.407 0 0 0-.27-.27c-.075-.074-.148-.123-.247-.197a3.191 3.191 0 0 0-.368-.245.517.517 0 0 0 .123-.32.755.755 0 0 0-.074-.32.78.78 0 0 0-.27-.294l-.074-.074c-.074-.049-.172-.098-.246-.172l-.099-.049-.123-.074.074.025.123.025.148.049c.196.049.418.073.614.123 2.926.565 6.811-.713 7.228-.91l.197-.098c.271-.123.541-.27.787-.393a11.088 11.088 0 0 0 1.795-1.228 21.946 21.946 0 0 0 2.458-.786 20.695 20.695 0 0 0 4.647-2.506 6.83 6.83 0 0 0 1.131-.54 8.625 8.625 0 0 0 3.294-3.22c.812-1.301 1.156-2.849 1.033-4.372a5.728 5.728 0 0 0-.984-2.629 5.863 5.863 0 0 0-.442-.737c1.721-.712 3.294-1.843 3.884-3.66.615-2.212-.098-4.447-1.057-6.315z" fill="#561D3E"/>
        <path d="M61.264 55.793c.196 0 .418-.025.614-.05a16.959 16.959 0 0 1 1.598-2.85 16.182 16.182 0 0 1 1.992-2.309 4.263 4.263 0 0 0-3.59-3.34 8.839 8.839 0 0 0-2.925 2.874c-.713 1.13-1.18 2.383-1.328 3.71.787 1.179 2.139 1.965 3.639 1.965zM92.585 70.682c-.22.492-.491.934-.762 1.376-.049.074-.098.172-.147.246-2.188 3.243-5.31 4.373-8.876 5.404l-.442.123c-.418.123-.787.197-1.156.27l-.172.05h-.049l-.049.024-.074.025-.196.049h-.05l-.172.05-.172.048-.172.025c-.59.123-1.032.221-1.303.246-.123.024-.197.049-.197.049h-.073l-.025.098c.123.05.295.074.369.098.32.05.614.148.91.27.147.074.294.123.442.148.098.024.246 0 .32.024h.049a5.835 5.835 0 0 0 3.786-.712l.123-.074h.147c.246 0 .517-.024.763-.098 1.475-.295 3.073-1.155 3.712-2.481.05-.123.123-.221.147-.344.025-.074 0-.27.148-.295.147-.05.27 0 .393 0 .32-.025.664-.074.984-.148.369-.073.737-.147 1.082-.245.098-.025.22-.074.32-.099a6.27 6.27 0 0 0 2.237-1.252c.196-.172.393-.369.565-.566-.738-.835-1.524-1.621-2.41-2.309z" fill="#561D3E"/>
        <path d="M65.713 51.199c.222-.295.222-.32.172-.295l-.024.025c-.369.344-.074.024.024-.025.172-.147.32-.295.492-.418a3.595 3.595 0 0 0-.54.811c0 .025-.025.05-.025.099a2.35 2.35 0 0 0-.246 1.228c.024.147.074.27.172.368a.925.925 0 0 0 .369.222 1.115 1.115 0 0 0-.074.687c.074.32.246.59.492.787.049.049.123.073.172.098h.024c.05.024.123.074.197.074l.05.024c.073.025.171-.049.22-.098.05-.05.074-.123-.024-.148h-.025a.832.832 0 0 1-.295-.147 1.354 1.354 0 0 1-.418-.491 1.037 1.037 0 0 1-.049-.811.63.63 0 0 0 .32-.246c0-.024 0-.024.024-.049a.468.468 0 0 0 .05-.32c0-.024 0-.024-.025-.048 0 0-.025-.025-.05-.025-.024 0-.048 0-.098.025-.049.024-.073.024-.123.049l-.147.147c-.05.074-.123.123-.172.197-.099-.05-.197-.098-.246-.197a.825.825 0 0 1-.098-.59c0-.073.024-.171.049-.245.098-.467.32-.91.64-1.278.024-.024.048-.049.048-.073l.05-.05c.024.05.024.099.049.148.196.712.442 1.4.737 2.088 0 .05.762 1.622 1.033 2.236 2.557 5.65 9.367 10.54 10.03 11.055l.419.295h1.057c.836-2.997 1.155-7.395-1.008-11.424-1.574-2.923-4.966-7.739-7.917-8.034a17.996 17.996 0 0 1 3.737-1.228.873.873 0 0 1 .246-.049 15.606 15.606 0 0 1 7.67.393 15.724 15.724 0 0 1 6.565 3.98c2.68 2.8 4.4 6.363 4.942 10.196.491 3.12-.099 7.296-1.598 10.465 1.5-3.144 2.09-7.345 1.598-10.465a18.629 18.629 0 0 0-4.942-10.196 15.724 15.724 0 0 0-6.564-3.98 15.606 15.606 0 0 0-7.67-.393c-.075 0-.148.024-.247.05a15.72 15.72 0 0 0-1.918.54c-.688.22-1.352.466-2.016.761-.122.05-.245.123-.368.172-.369.172-.738.369-1.107.565a17.88 17.88 0 0 0-3.884 2.875c.049.27.098.54.098.81.074 0 .123-.073.172-.147z" fill="#561D3E"/>
        <path d="m65.861 50.953.025-.024c-.099.049-.395.344-.025.024zM62.517 55.794c.025-.05.074-.123.123-.221-.246.074-.492.147-.762.172-.172.368-.32.761-.467 1.154a44.222 44.222 0 0 1-1.746 2.949l.025.024s2.483-3.44 2.827-4.078zM77.44 66.26a1.552 1.552 0 0 0-.81-.491c-.271-.074-.566-.099-.837-.025-.22.05-.59.197-.516.492a.44.44 0 0 0 .123.171h2.114c0-.073-.024-.122-.073-.147z" fill="#561D3E"/>
        <path d="M63.5 52.894c-.638.885-1.155 1.843-1.597 2.85.27-.049.516-.098.762-.172.54-.86 2.164-3.169 2.901-4.152l.025-.024c0-.27-.025-.54-.099-.811a17.654 17.654 0 0 0-1.991 2.31zM78.94 66.358l.32.246c.025.024.074.049.098.073l.148.099h.024l.074.049-.049.024a1.37 1.37 0 0 1-.418.221c-.172.05-.369.05-.54.05-.124 0-.247-.025-.394-.05l-.369-.073v-.025c0-.024-.025-.074-.025-.098a1.366 1.366 0 0 0-.22-.418c-.025-.024-.05-.049-.05-.098h-2.114c.049.024.073.049.123.074.172.098.368.196.54.27l.148.049c.295.123.615.221.934.295l.467.123c.025.098.025.196.05.27v.27c0 .074 0 .147-.025.221-.025.123-.05.27-.098.393 0 .025 0 .05-.025.05a1.78 1.78 0 0 1-.369.614c-.123.147-.246.27-.418.368l-.049.05v.024c-.418.27-.885.442-1.377.516h-.049c-.442.049-.91-.025-1.303-.221-.123-.074-.393.172-.27.22.54.271 1.18.345 1.77.197l.074-.024c.196-.05.393-.099.59-.172a5.15 5.15 0 0 0 .639-.32c.393-.245.713-.565.959-.958.049-.024.049-.073.049-.098.147-.27.221-.54.246-.835 0-.099.024-.197.024-.295 0-.074 0-.123-.024-.197.073.025.172.025.246.05.393.073.786.049 1.18-.099.147-.073.27-.147.393-.245.074-.197.123-.393.172-.59H78.94zM78.817 77.389c-.074.049-.172.098-.27.147-.099.27-.172.54-.27.835-.025.05-.025.099-.05.123 0 .099.123.172.246.221l.025-.098h.073c.025-.05.025-.516.246-1.228zM80.317 78.272c-.566.099-1.18.246-1.5.295.27-.049.713-.123 1.303-.245l.172-.025.172-.05.172-.048-.147.024-.172.05zM80.465 74.956c.32.197.664.369 1.008.467h.025c.073.025.123.05.196.05.86.245 1.77.245 2.656 0a5.03 5.03 0 0 0 1.622-.812 5.045 5.045 0 0 0 1.598-2.112c.32-.836.394-1.745.246-2.63a3.873 3.873 0 0 0-.27-.908c.197.737.172 1.572.098 2.31a4.964 4.964 0 0 1-.565 1.522 4.148 4.148 0 0 1-2.262 1.917c-1.55.466-2.532.638-4.229-.467-.074-.05-.59.639-.664.712-.32.467-.639.958-.91 1.474-.122.295-.245.565-.344.86l.222-.073c.22-.64.688-1.45 1.573-2.31zM81.006 78.126h.05l-.1.024.05-.025zM91.824 72.058zM78.62 78.641s.075-.024.198-.049c-.099.025-.173.025-.197.05 0 0 0-.025 0 0z" fill="#561D3E"/>
        <path d="m83.415 77.487-.811.246-.443.123c-.393.098-.762.172-1.106.27l.172-.05c.344-.073.737-.171 1.155-.27l.443-.122c3.565-1.007 6.712-2.162 8.875-5.405.05-.074.099-.172.148-.246l-.148.221c-2.065 3.047-4.966 4.25-8.285 5.233zM80.637 78.224h.025l.197-.049.074-.025-.271.074h-.025zM80.588 66.382c1.254-.638 3.884-1.203 5.95 1.008a19.4 19.4 0 0 1 6.023 3.292c1.5-3.17 2.09-7.346 1.598-10.466a18.63 18.63 0 0 0-4.942-10.196 15.724 15.724 0 0 0-6.564-3.98 15.607 15.607 0 0 0-7.67-.393c-.074 0-.148.025-.246.05-1.279.27-2.533.687-3.737 1.228 2.95.294 6.367 5.085 7.916 8.033 2.164 4.03 1.844 8.427 1.008 11.424h.393c.148-.024.197 0 .27 0z" fill="#561D3E"/>
        <path d="M80.587 66.383h-.615c-.049.196-.122.393-.172.59.025-.025.074-.05.099-.074.073-.123.32-.344.688-.516zM86.563 67.389c.172.196.344.393.516.614.221.295.369.639.467 1.032.123.294.221.614.27.909a4.795 4.795 0 0 1-.245 2.629 4.672 4.672 0 0 1-1.599 2.112 5.03 5.03 0 0 1-1.622.811c-.86.246-1.77.246-2.655 0-.074-.024-.123-.024-.197-.05h-.025a5.335 5.335 0 0 1-1.008-.466c-.885.86-1.352 1.67-1.598 2.334l.295-.074a2.148 2.148 0 0 1-.344.197c-.246.712-.221 1.18-.221 1.228.049 0 .123-.024.197-.024.32-.074.934-.197 1.5-.295l.171-.025.148-.024h.025l.294-.074.099-.025c.344-.098.713-.171 1.106-.27l.443-.123.811-.245c3.32-.983 6.22-2.187 8.285-5.209l.148-.22c.27-.443.516-.885.762-1.377-1.77-1.523-3.81-2.628-6.023-3.365zM78.818 77.388c.025-.049.025-.073.05-.122l-.223.073-.074.221c.099-.073.173-.122.247-.172z" fill="#561D3E"/>
        <path d="m79.162 77.192-.296.074c-.025.05-.025.074-.05.123.198-.098.321-.172.346-.197zM62.615 63.286c1.303-1.867 4.106-.909 4.696 1.253 1.23-2.85-3.958-3.955-4.696-1.253zM64.903 57.218c1.4.073 2.999 1.302 3.392 2.628.123-4.127-5.187-4.078-3.392-2.628zM60.748 72.892a3.359 3.359 0 0 0 3.196-.737c.073-.073.098-.196.024-.27-.074-.074-.196-.098-.27-.025a3.05 3.05 0 0 1-4.327-.294c-.074-.074-.197-.099-.27-.025-.074.074-.099.197-.025.27.467.54 1.057.91 1.672 1.081zM64.091 61.346c.246-.246.566-.246.787-.467.024-.344-1.303.491-.787.467z" fill="#561D3E"/>
        <path d="M65.861 154.458c.074-.418.173-.835.296-1.253-.148.418-.222.835-.296 1.253zM65.787 154.777c1.18.442 2.384.811 3.564 1.204 1.18.368 2.36.663 3.54.982-1.18-.319-2.384-.614-3.54-.982-1.18-.393-2.384-.762-3.564-1.204zM65.984 152.787c-.074 0-.123.049-.148.122.025-.073.074-.122.148-.122zM65.418 154.704c-.05.295-.098.614-.123.909.05-.319.074-.614.123-.909zM65.813 152.935c-.148.466-.247.958-.345 1.449.098-.491.222-.958.345-1.449z" fill="#2A4D52"/>
        <path d="M21.14 91.048c-.075-.049 0-.147.098-.22.049-.025.123-.05.172-.025.295.147.614.294.91.442v-.32c-2.607-.368-4.893-1.179-6.614-2.604a6.517 6.517 0 0 1-.836-.81l-.369-.443c-.049-.073-.123-.147-.172-.22a5.49 5.49 0 0 1-.492-.738c-2.729-4.496-2.065-11.448-1.893-16.288.025-.369.025-.737.05-1.106 0-.172.024-.344.024-.516 0-.196.025-.368.05-.54.024-.172.024-.369.048-.54.025-.173.05-.37.05-.541.147-1.327.32-2.629.516-3.956.049-.294.098-.614.123-.909.147-1.056.27-2.112.393-3.169l-11.31-3.243v.025c0 .098-.024.196-.024.295 0 .049 0 .123-.024.172-.025.22-.05.466-.074.761 0 .099-.025.197-.025.295 0 .123-.024.246-.024.368v.099c-.025.196-.05.417-.074.614-.074.663-.148 1.4-.246 2.162C.93 64.417.34 70.19.39 73.63c.025.909.05 1.842.098 2.751.05 1.229.148 2.457.246 3.686.172 1.793.394 3.562.64 5.33a19.178 19.178 0 0 0 10.768 14.52 19.123 19.123 0 0 0 7.769 1.867c.811.025 1.598.025 2.385.05V91.638a10.225 10.225 0 0 0-1.156-.59z" fill="#145A7B"/>
        <path d="m31.515 141.781.074.196.024-.049c-.024-.024-.024-.049-.049-.074l-.05-.073z" fill="#2A4D52"/>
        <path d="M29.67 101.563a67.9 67.9 0 0 0 2.336-.197c.959-.098 1.918-.196 2.852-.319a87.245 87.245 0 0 0 2.803-.393c.27-.049.516-.074.786-.123 1.475-.221 2.901-.491 4.352-.762.516-.098 1.008-.196 1.524-.294.148-.025.295-.05.443-.099.074-.024.123-.024.196-.049.074-.025.123-.025.197-.049.025 0 .05 0 .074-.025h.074c.024 0 .073-.024.098-.024a487.34 487.34 0 0 1 2.704-.59c-.467.91-.91 1.843-1.278 2.801-.197.491-.393.958-.59 1.449a76.01 76.01 0 0 1 2.434-4.373l.442-.737c1.476-2.407 3.098-4.717 5.065-6.731 1.82-1.892 3.958-3.489 6.368-4.57h.024c.099-.049.197-.098.32-.123l.959-.368h.098c.025.024.05.049.05.074 0 .024-.025.049-.025.073-.05.05-.123.099-.148.099-2.581.908-4.892 2.48-6.86 4.373-2.015 1.94-3.663 4.2-5.162 6.56 0 0 0 .024-.025.024-.246.417-.467.835-.762 1.228-1.352 2.26-2.557 4.594-3.712 6.953-.05.073-.074.172-.123.245-1.55 3.096-3 6.241-4.352 9.434a174.985 174.985 0 0 0-3.294 8.403c-.197.54-.394 1.105-.59 1.646l-.443 1.253a.283.283 0 0 1-.197.172c-.049 0-.172 0-.147-.074.147-.467.32-.909.467-1.376-1.303 2.481-2.827 5.454-4.13 8.279-1.033.394-2.09.787-3.123 1.131a8.016 8.016 0 0 0-.713.245l1.426 3.464v-.049c-.073-.467-.147-.933-.147-1.425 0-.442-.025-.933.049-1.4l.074-.369c.123-.417.835-.516 1.204-.442.172.025-.073.295-.196.27-.246-.049-.467-.024-.664.099-.05.27-.074.565-.099.835-.049.835 0 1.671.173 2.481a9.311 9.311 0 0 0 1.401 3.342l2.901-4.914.05-.098.835-1.401 14.014 4.005c.614-.344 1.205-.713 1.795-1.081 4.105-2.604 7.793-5.823 11.235-9.238 3.418-3.39 6.565-7.075 9.269-11.08v-.049c.123-.172.246-.319.369-.491.246-.369.491-.737.713-1.106 3.048-4.815 5.531-9.95 7.94-15.109.296-.639.59-1.253.886-1.892.025-.073.172-.147.27-.147.05 0 .074.025.05.098-2.385 5.135-4.77 10.27-7.671 15.134a7.95 7.95 0 0 1-.467.762 62.477 62.477 0 0 1-2.04 3.144c-2.533 3.685-5.434 7.125-8.606 10.319-3.59 3.611-7.45 7.026-11.752 9.753l-1.696 1.032 21.119 6.044c1.303 2.014 2.286 4.324 3.024 6.854-.393-5.601-.787-11.178-1.156-16.78-.073-1.179-.147-2.358-.073-3.537 0-.172.024-.344.049-.516v-.123c.049-.418.098-.835.196-1.229.197-1.007.517-1.965.885-2.923.541-1.401 1.131-2.776 1.697-4.177l1.72-4.176c1.28-3.12 2.558-6.216 3.836-9.336.025-.074.172-.147.246-.147.05 0 .074.024.05.122-2.263 5.504-4.55 11.007-6.81 16.535-.542 1.351-1.083 2.727-1.378 4.176l-.073.369c5.064-10.835 11.186-24.814 11.088-28.917-.172-8.058-3.074-10.908-7.941-12.947-3.147 3.931-10.13 6.093-14.629 4.644-4.647-1.5 4.425-7.666 4.917-7.666-2.139-.491-7.056-1.547-11.457-.466-3.933.958-4.99 1.375-8.187 2.26-.073.024-.147.049-.245.074-.099.024-.222.073-.32.098-.246.073-.492.123-.738.196-.491.148-.983.27-1.5.418-.245.074-.516.123-.762.197-.59.147-1.204.319-1.819.466-1.82.467-3.712.885-5.58 1.253-.32.074-.64.123-.96.197-.639.123-1.303.22-1.942.344l-.959.147c-.123 0-.22.025-.344.05l-.369.048c-3.319.443-6.49.565-9.293.172v.32c.123.049.221.123.344.172.984.54 1.942 1.13 2.877 1.769.369.245.737.516 1.082.786.122.098-.099.27-.222.27-.024 0-.024 0-.049-.025-.344-.27-.713-.54-1.082-.786a25.658 25.658 0 0 0-2.95-1.818v10.147c2.606.073 5.04-.025 7.4-.172zm32.92-6.437c.099-.025.221-.05.32-.098-.098.049-.197.073-.32.098-.123.025-.246.074-.393.098.147-.024.27-.049.393-.098zm-1.82 15.797a196.553 196.553 0 0 0 5.459-6.535c.221-.27.442-.565.664-.835.049-.049.147-.148.221-.123.074.024.074.098.025.147a201.45 201.45 0 0 1-5.508 6.658c-1.868 2.162-3.81 4.3-5.802 6.363-1.991 2.039-4.056 4.029-6.22 5.897a73.543 73.543 0 0 1-6.736 5.232 66.305 66.305 0 0 1-5.606 3.465c-.565.319-1.13.614-1.696.884-.123.049-.246.123-.369.172l-.59.295c-.05.024-.098.024-.123.024-.074-.024-.05-.172.098-.245.935-.467 1.869-.934 2.803-1.45a54.006 54.006 0 0 0 4.573-2.801 75.743 75.743 0 0 0 6.736-5.11c2.164-1.818 4.23-3.759 6.22-5.773 2.041-1.99 3.959-4.103 5.852-6.265zM74.098 152.345H56.667c.614.172 1.253.344 1.893.516a94.228 94.228 0 0 0 6.957 1.523c.099-.491.197-.982.345-1.474v-.024c.024-.074.073-.123.147-.123h.074l3.761 1.081 3.049.909.688.196.517.148.098-1.769v-.025a3.948 3.948 0 0 1-.098-.958zM61.706 153.942a109.774 109.774 0 0 1-6.22-1.597h-4.303c5.016 1.376 10.056 2.457 14.112 3.243.025-.295.074-.614.123-.909a49.191 49.191 0 0 1-3.712-.737z" fill="#145A7B"/>
        <path d="M55.068 152.221a73.538 73.538 0 0 1-2.188-.688 117.42 117.42 0 0 1-4.942-1.744c-.024 0-.024-.024-.024-.024-.025-.074.172-.271.295-.222 2.36.909 4.745 1.745 7.179 2.457.369.098.713.221 1.082.32.049.024.123.024.172.049h17.43c0-.074 0-.148-.024-.221-.737-2.531-1.745-4.84-3.024-6.855l-21.119-6.043c-.32.196-.664.368-.983.565-.934.515-1.918.982-2.901 1.4l1.377.393 4.77 1.4 12.464 3.661 5.704 1.671.959.27v.024l-.025.025-.91-.246-5.802-1.621-12.49-3.489-4.793-1.351-1.82-.516c-2.139.884-4.376 1.548-6.687 1.867-.098.025-.197.025-.32.049-.196.025-.418.049-.614.074a1.305 1.305 0 0 1-.738.221H36.95c-.099 0-.197-.024-.295-.049l-.222-.074c-.123 0-.245 0-.344.025-.393 0-.762.024-1.155 0-.689-.025-1.402-.049-2.04-.369-.542-.294-.96-.737-1.304-1.228l-.024.049 1.204 2.948.295.688c.148-.049.295-.123.443-.172 3.49 2.285 8.703 4.3 14.235 5.946l-1.131-8.697s0-.025.024-.025c0 0 .025 0 .025.025l1.156 8.721c1.106.32 2.212.639 3.343.958h4.303c-.099-.073-.246-.123-.394-.172zm14.358-5.355c-.049.024-.172.098-.221.024-.123-.147-.246-.319-.369-.467-.025-.024-.05-.073-.074-.098l-.22-.295c-.05-.073.048-.147.097-.196.05-.025.172-.099.222-.025.172.246.344.467.54.688.025.025.05.049.074.098.025.025.05.074.074.099.025.049-.074.147-.123.172zm-25.2 1.621a846.926 846.926 0 0 0-7.179-2.776c-.123-.049.148-.295.27-.246 2.385.934 4.795 1.867 7.18 2.776.122.025-.148.295-.271.246z" fill="#145A7B"/>
        <path d="M33.284 142.96c.64.295 1.353.32 2.041.32h.738c-.443-.369-.763-.934-.738-1.499 0-.098.024-.196.024-.295.148-.638.714-1.105 1.377-1.204.541-.098 1.131.025 1.55.394.048-.05.122-.099.171-.099.025 0 .05 0 .05.025.639.737.417 1.867-.222 2.53.148-.024.295-.024.467-.049.345-.049.689-.098 1.008-.172a26.199 26.199 0 0 0 5.41-1.572l-2.558-.737-.073-.025c-2.557-.761-4.967-1.474-7.548-2.285-.221-.073-.443-.122-.64-.196l.05-.098c.221.049.418.123.639.172 2.532.663 5.064 1.351 7.597 2.063l3.073.885a32.441 32.441 0 0 0 2.95-1.401c.345-.172.664-.368 1.008-.54l-14.013-4.005-.836 1.401-.05.098-2.9 4.914c.024.024.024.049.049.073.344.516.786 1.008 1.376 1.302zm6.245-6.338a.51.51 0 0 1 .123-.098c.05-.025.098-.05.148 0 .024 0 .024.024.024.049l.221.663c0 .025.025.049.025.098v.025c0 .024-.025.049-.025.074-.024.024-.073.073-.123.098-.049.024-.098.049-.147 0-.025 0-.025-.025-.025-.049-.073-.221-.147-.442-.22-.688 0-.025-.026-.049-.026-.074v-.024c0-.025 0-.05.025-.074zm-2.459-.418a.194.194 0 0 1 .099-.098.186.186 0 0 1 .123-.049h.024c.025 0 .05 0 .05.024.049.05.098.099.147.123.074.074.148.123.221.197v.098a.19.19 0 0 1-.098.098.186.186 0 0 1-.123.049h-.05c-.024 0-.024 0-.048-.024a1.567 1.567 0 0 0-.221-.197c-.05-.049-.099-.098-.148-.123v-.024c.025-.025.025-.049.025-.074z" fill="#145A7B"/>
        <path d="M38.3 142.789c.271-.418.37-.934.247-1.401-.074.025-.123.025-.148-.024-.442-1.204-2.606-1.253-2.827.147-.099.713.344 1.425.959 1.769.467-.025.934-.049 1.401-.098a1.86 1.86 0 0 0 .369-.393zM38.448 140.553c-.049 0-.148.049-.172.098a.208.208 0 0 1 .172-.098zM35.03 138.17c2.532.663 5.065 1.351 7.597 2.064l3.073.884-3.073-.884a428.139 428.139 0 0 0-7.597-2.064c-.221-.049-.418-.123-.639-.172l-.05.098.05-.098c.221.049.418.123.64.172zM37.736 136.524s.027-.027 0 0c.027-.027 0 0 0 0zM39.628 136.548c.05-.024.099-.049.148 0-.025-.049-.099-.024-.148 0-.05.025-.099.05-.123.099 0 .024-.025.049-.025.073 0-.024.025-.049.025-.073.049-.049.098-.099.123-.099zM36.481 143.525l.222.074a19.8 19.8 0 0 1-.222-.074zM47.422 141.608l4.77 1.4 12.464 3.661 5.704 1.671.959.27-.959-.27-5.704-1.671-12.465-3.661-4.77-1.4-1.376-.393 1.377.393zM39.53 136.818c.074.221.148.467.222.688 0 .024.024.024.024.049-.024 0-.024-.025-.024-.049a4.438 4.438 0 0 1-.222-.688zM37.22 136.424c.073.074.147.148.221.197-.074-.049-.148-.123-.222-.197zM40.071 137.359c0-.049-.025-.074-.025-.123 0 .024.025.049.025.123zM37.071 136.203a.19.19 0 0 1 .098-.098.186.186 0 0 1 .123-.049h.025c.024 0 .049 0 .049.024.05.049.098.099.148.123-.05-.049-.099-.098-.148-.123-.025-.024-.025-.024-.05-.024h-.024a.186.186 0 0 0-.123.049c-.024.024-.073.049-.098.098 0 .025-.025.049-.025.074.025-.025.025-.049.025-.074z" fill="#2A4D52"/>
        <path d="M35.326 141.756c0-.099.024-.197.024-.295-.024.123-.024.196-.024.295-.025.565.295 1.154.737 1.498a1.795 1.795 0 0 1-.737-1.498z" fill="#2A4D52"/>
        <path d="M65.787 154.777c-.05.295-.099.589-.123.884 3.27.639 5.876 1.057 7.252 1.278-1.18-.32-2.385-.614-3.54-.983-1.205-.368-2.41-.737-3.59-1.179zM72.892 155.097l-3.245-.885-3.516-1.007c-.123.418-.196.835-.295 1.253.025 0 .05 0 .074.025 1.697.294 3.393.54 5.09.737.171.024-.074.294-.197.27a89.75 89.75 0 0 1-4.5-.639 64.27 64.27 0 0 1 3.148.762c1.155.295 2.31.663 3.442 1.032.073.024.122.049.172.049.295.098.59.172.885.27l.073-1.548-.688-.172-.442-.147z" fill="#145A7B"/>
        <path d="M66.058 152.787h-.074c-.074 0-.123.049-.148.123v.024c.025-.123.124-.172.222-.147zM72.917 156.963c-1.18-.319-2.385-.614-3.54-.982-1.205-.393-2.385-.762-3.566-1.204-.049.295-.098.589-.123.884.025-.295.074-.589.123-.884 1.18.442 2.385.811 3.565 1.204 1.156.368 2.336.663 3.54.982zM69.819 153.868l-3.762-1.081 3.762 1.081zM65.96 153.156l.172.049c.025-.074.025-.123.05-.172l-.222.123zM66.132 153.205c-.123.418-.197.835-.296 1.253.099-.418.173-.835.296-1.253zM72.868 154.777l.689.196.516.172-.516-.172-.689-.196z" fill="#2A4D52"/>
        <path d="m69.82 153.868 3.048.909-3.048-.909-3.762-1.081h-.074.074l3.762 1.081zM65.837 152.885c0 .026 0 .026 0 0-.026.026-.026.026 0 0-.026.026-.026.026 0 0 0 .026 0 .026 0 0zM65.787 154.777c-.05.295-.099.589-.123.884.024-.295.073-.589.123-.884zM42.602 140.602l-.073-.025c-2.557-.762-4.967-1.474-7.548-2.285-.221-.073-.443-.123-.64-.196.222.073.419.147.64.196 2.581.811 4.99 1.523 7.548 2.285l.073.025 2.557.737-2.556-.737zM71.343 148.66s-.025 0 0 0l-.934-.245-5.803-1.622-12.49-3.488-4.793-1.352-1.82-.515 1.82.515 4.794 1.352 12.49 3.488 5.802 1.622.934.245s-.025 0 0 0c0-.024 0-.024 0 0 0-.024 0-.024 0 0z" fill="#2A4D52"/>
        <path d="m70.384 148.339-5.704-1.67-12.49-3.661-4.769-1.4-1.377-.393c-.172.074-.368.147-.54.221l1.819.516 4.794 1.351 12.49 3.489 5.802 1.621.91.246s.024 0 .024-.025v-.024l-.96-.271zM42.53 140.601l.073.024 2.557.737c.196-.073.369-.147.565-.221l-3.073-.884c-2.532-.688-5.065-1.401-7.597-2.064-.221-.049-.418-.123-.64-.172l-.048.098c.221.074.418.148.639.197 2.557.786 4.966 1.498 7.523 2.285zM46.684 142.665c-.025-.025-.05 0-.05 0l1.132 8.697c.024 0 .049.024.074.024l-1.156-8.721zM65.813 152.935c-.123.466-.247.958-.345 1.449.098-.491.222-.958.345-1.449zM65.295 155.613c.025-.295.074-.614.123-.909-.05.295-.074.59-.123.909zM73.36 155.22l-.467-.123-3.245-.885-3.516-1.007 3.516 1.007 3.245.885.467.123.688.196-.688-.196z" fill="#2A4D52"/>
        <path d="m72.892 155.096.492.123.688.172.025-.27-.517-.148-.688-.196c-.025.098 0 .196 0 .319zM65.737 154.753a1.474 1.474 0 0 0-.32-.049c-.048.295-.097.614-.122.909l.369.074c.024-.295.073-.59.123-.885 0-.024-.025-.024-.05-.049z" fill="#145A7B"/>
        <path d="m69.82 153.868-3.762-1.081c-.099-.025-.197.024-.222.122v.025c-.123.467-.245.958-.344 1.449l.369.074c.074-.418.172-.86.295-1.253l-.172-.049.221-.123c-.024.049-.024.123-.049.172l3.516 1.007 3.245.885c0-.098-.025-.221-.025-.319l-3.073-.909z" fill="#145A7B"/>
        <path d="m72.868 154.777.689.196.516.172-.516-.172-.689-.196zM69.82 153.868l3.048.909-3.048-.909zM72.893 155.096l.467.123.689.196-.689-.196-.467-.123z" fill="#2A4D52"/>
        <path d="m69.648 154.188-3.516-.983 3.516 1.007 3.245.885-3.245-.909z" fill="#145A7B"/>
        <path d="M72.916 156.644c-1.155-.344-2.286-.713-3.442-1.032-1.057-.271-2.09-.541-3.171-.762h-.025c1.082.221 2.14.516 3.196.786 1.156.295 2.287.664 3.442 1.008.05.024.123.049.172.049.296.098.59.172.886.27-.295-.098-.59-.172-.886-.27-.049-.025-.122-.025-.172-.049z" fill="#2A4D52"/>
        <path d="M72.917 156.644c-1.156-.344-2.286-.713-3.442-1.032-1.057-.271-2.09-.541-3.147-.762 1.057.221 2.114.491 3.172.762 1.13.319 2.261.663 3.417 1.032.074.024.123.049.172.049.295.098.59.172.885.27-.295-.098-.59-.172-.885-.27-.049-.025-.123-.025-.172-.049z" fill="#2A4D52"/>
        <path d="M72.916 156.645v.319h.025c.664.098 1.033.172 1.033.172v-.172c-.295-.098-.59-.172-.885-.27-.05-.025-.123-.025-.172-.049zM69.45 155.612c-1.057-.27-2.115-.54-3.196-.786-.148-.024-.32-.049-.467-.074v.025c1.18.442 2.384.811 3.564 1.204 1.18.368 2.36.663 3.54.983v-.32c-1.13-.344-2.261-.712-3.441-1.032z" fill="#145A7B"/>
        <path d="M65.738 154.752c.025.025.025.025.05.025v-.025h-.05zM37.662 136.622a.187.187 0 0 1-.123.049h-.05c-.024 0-.024 0-.05-.024.026 0 .026.024.05.024h.05a.404.404 0 0 0 .123-.049.19.19 0 0 0 .098-.098l-.098.098zM37.071 136.278s0 .025 0 0c.05.074.099.099.148.148-.05-.049-.098-.074-.148-.148 0 0 0 .025 0 0zM37.76 136.474v-.049a1.56 1.56 0 0 0-.222-.196c.074.073.148.122.222.196v.049z" fill="#2A4D52"/>
        <path d="M37.342 136.056h-.025a.186.186 0 0 0-.123.049.19.19 0 0 0-.098.098c0 .025-.025.049-.025.074v.024c.05.049.099.099.148.123.074.074.147.148.221.197.025 0 .025.024.05.024h.048c.05 0 .099-.024.123-.049a.19.19 0 0 0 .099-.098v-.098c-.074-.074-.148-.148-.222-.197-.049-.049-.098-.098-.147-.123-.025-.024-.05-.024-.05-.024zM39.48 136.72c0 .024.025.049.025.073 0 0 0-.049-.025-.073zM40.022 137.236l-.221-.663c0-.025-.025-.025-.025-.049.024 0 .024.024.024.049.1.221.173.442.222.663zM39.924 137.531c-.05.024-.099.049-.148 0 .024.024.098.024.148 0a.441.441 0 0 0 .123-.098c0-.025.025-.05.025-.074 0 .024-.025.049-.025.074a.51.51 0 0 0-.123.098z" fill="#2A4D52"/>
        <path d="M39.53 136.818c.073.221.147.467.22.688 0 .024.025.024.025.049.05.024.099 0 .148 0a.44.44 0 0 0 .123-.098c0-.025.024-.05.024-.074v-.025c0-.024-.024-.049-.024-.098l-.221-.663c0-.025-.025-.025-.025-.049-.05-.025-.098 0-.148 0-.049.024-.098.049-.123.098 0 .024-.024.049-.024.074v.024s0 .049.024.074zM69.45 146.595a.332.332 0 0 1-.074-.098 7.344 7.344 0 0 0-.54-.688c-.05-.074-.173-.025-.222.025-.049.024-.147.122-.098.196l.221.295c.025.049.05.074.074.098.123.172.246.32.369.467.049.074.172 0 .22-.025.05-.024.148-.122.1-.196 0-.025-.025-.049-.05-.074zM37.145 143.647c.27 0 .516-.098.737-.221-.221.123-.467.221-.737.221zM36.727 140.258c.54-.099 1.13.024 1.549.393a1.938 1.938 0 0 0-1.55-.393c-.663.122-1.228.565-1.376 1.203.148-.614.713-1.081 1.377-1.203zM38.251 143.108c.64-.664.86-1.794.221-2.531-.024-.024-.024-.024-.049-.024.025 0 .05 0 .05.024.639.737.417 1.867-.222 2.531z" fill="#2A4D52"/>
        <path d="M36.063 143.279c.172 0 .344 0 .516-.025-.614-.319-1.081-1.056-.959-1.769.197-1.375 2.36-1.351 2.828-.147.024.049.074.049.147.024.123.467.025.983-.245 1.401-.099.147-.222.27-.345.368.099 0 .197-.024.295-.024.64-.664.86-1.794.222-2.531-.025-.024-.025-.024-.05-.024-.049 0-.147.049-.172.098a1.942 1.942 0 0 0-1.549-.393c-.663.123-1.229.565-1.376 1.204-.025.098-.025.196-.025.295-.05.589.246 1.154.713 1.523zM36.481 143.525l.222.073c.098.025.196.049.295.049H37.146c.27 0 .515-.098.737-.221-.467.049-.934.074-1.402.099zM62.935 95.053c-.099.024-.222.073-.32.098-.123.025-.246.074-.393.098.123-.024.245-.073.393-.098.098-.05.197-.074.32-.098zM41.743 88.739a49.354 49.354 0 0 0 1.819-.467c.246-.074.516-.123.762-.196-.246.073-.516.123-.762.196-.59.148-1.205.32-1.82.467zM71.958 117.73v.049c.123-.197.246-.369.37-.541-.124.172-.247.32-.37.492zM33.09 145.613l-.297-.688c-.024 0-.024-.025-.049-.025l.345.713zM82.162 99.107c-2.385 5.134-4.77 10.269-7.67 15.133 2.9-4.864 5.285-9.999 7.67-15.133.024-.074 0-.099-.05-.099.05 0 .075.025.05.099zM35.227 132.274c.124-.05.247-.123.37-.172a2.45 2.45 0 0 0-.37.172zM61.657 110.236l-5.802 6.363a141.792 141.792 0 0 0 5.802-6.363zM67.163 103.578c.05-.05.05-.123-.024-.148.074.025.074.098.024.148zM34.638 132.568l.59-.295-.59.295zM37.49 123.502a152.541 152.541 0 0 1 3.294-8.402 163.59 163.59 0 0 1 4.352-9.434c.049-.074.074-.172.123-.246 1.18-2.334 2.385-4.692 3.712-6.953-2.016 2.678-8.088 15.699-9.908 20.441-.123.319-1.008 2.383-1.573 4.594zM61.927 86.086c0 .025-.024.049-.024.074.024-.025.024-.05.024-.074 0-.05-.024-.074-.05-.074.05 0 .05.025.05.074zM49.758 97.215s0 .025-.025.025c0-.025 0-.025.025-.025 1.475-2.358 3.146-4.618 5.162-6.56 1.967-1.915 4.254-3.463 6.86-4.372-2.582.909-4.893 2.481-6.86 4.373-2.04 1.94-3.687 4.2-5.163 6.56zM21.14 91.048l1.18.59a13.201 13.201 0 0 0-1.18-.59zM21.238 90.828c-.098.073-.172.172-.098.22-.1-.048 0-.171.098-.22zM21.386 90.778c.295.147.615.295.91.442-.295-.123-.59-.295-.91-.442zM22.64 91.417c-.123-.05-.222-.123-.345-.172.123.049.246.123.345.172zM26.377 94.242c.123 0 .344-.197.22-.27.124.098-.098.294-.22.27zM22.295 91.638a30.733 30.733 0 0 1 2.95 1.818 25.671 25.671 0 0 0-2.95-1.818zM82.112 98.983a.427.427 0 0 0-.27.148c-.295.639-.59 1.253-.885 1.892.295-.639.59-1.253.885-1.892a.427.427 0 0 1 .27-.148zM74.023 115.002c.148-.246.32-.516.468-.762-.59.86-1.205 1.72-1.82 2.555a4.987 4.987 0 0 0-.32.443c-.122.171-.245.368-.368.54l.024.344a67.735 67.735 0 0 0 2.016-3.12zM45.701 141.117l.344.098a34.672 34.672 0 0 0 2.901-1.4l-.295-.074a40.22 40.22 0 0 1-2.95 1.376zM39.727 142.91c-.32.123-.615.27-.934.393 2.31-.319 4.548-.982 6.687-1.867l-.344-.098a29.069 29.069 0 0 1-5.41 1.572zM45.701 141.117l.345.098-.345-.098z" fill="#2A4D52"/>
        <path d="m45.135 141.338.345.098h.025l-.37-.098z" fill="#2A4D52"/>
        <path d="M45.504 141.437c.172-.074.368-.148.54-.222l-.344-.098c-.196.074-.369.148-.565.221l.369.099zM51.627 138.219c4.302-2.727 8.162-6.142 11.751-9.754 3.172-3.194 6.073-6.633 8.605-10.318l-.024-.344c-2.705 3.98-5.852 7.665-9.269 11.08-3.442 3.415-7.13 6.633-11.236 9.237-.59.369-1.18.737-1.794 1.081l.27.074c.566-.369 1.131-.712 1.697-1.056z" fill="#2A4D52"/>
        <path d="M48.922 139.791c.344-.172.663-.369.983-.565l-.27-.074c-.32.196-.664.368-1.008.54l.294.099zM74.49 114.24c2.901-4.864 5.286-9.999 7.67-15.133.025-.074 0-.099-.049-.099a.427.427 0 0 0-.27.148c-.295.638-.59 1.253-.885 1.891-2.41 5.16-4.868 10.294-7.941 15.11-.246.368-.467.737-.713 1.105.098-.147.221-.295.32-.442.663-.86 1.278-1.72 1.868-2.58zM35.94 143.28l.197.27c.123 0 .245 0 .344-.025a2.306 2.306 0 0 1-.418-.245h-.123zM38.718 143.059c-.148.024-.295.049-.467.049a1.942 1.942 0 0 1-.37.295c.197-.025.419-.049.615-.074.099-.025.197-.025.32-.049.32-.123.615-.27.934-.393-.368.073-.688.123-1.032.172zM37.956 143.157a26.39 26.39 0 0 1-1.401.098l.024.025c.492.221.984.172 1.377-.123z" fill="#2A4D52"/>
        <path d="M36.063 143.28c.123.098.27.196.418.245a2.306 2.306 0 0 1-.418-.245zM38.252 143.107a1.911 1.911 0 0 1-.37.295c.123-.073.271-.172.37-.295z" fill="#2A4D52"/>
        <path d="m36.579 143.28-.025-.025c-.172 0-.344 0-.516.025.123.098.27.196.418.245.467-.024.934-.049 1.401-.098.148-.074.27-.196.37-.295-.1 0-.197.025-.296.025-.369.295-.86.344-1.352.123zM31.565 141.854c.024.025.024.049.05.074l.22-.344a9.124 9.124 0 0 1-1.401-3.341 9.315 9.315 0 0 1-.172-2.482c.024-.27.049-.565.098-.835.197-.123.418-.147.664-.098.123.024.393-.246.197-.27-.37-.074-1.082.024-1.205.442l-.074.368c-.073.467-.049.958-.049 1.401.025.491.074.958.148 1.425-.025-.172.467 1.646.516 1.793v.025l.344.761c.172.344.369.688.615 1.007l.049.074z" fill="#2A4D52"/>
        <path d="M32.94 143.157c.615.319 1.353.368 2.041.368h1.155l-.196-.27h-.615c-.688 0-1.401-.024-2.04-.319-.59-.295-1.033-.786-1.402-1.302-.024-.025-.024-.049-.049-.074l-.221.344c.369.516.787.983 1.327 1.253zM35.94 143.28l.197.245-.197-.245zM81.547 109.327c.025-.074 0-.098-.049-.123.05.025.074.049.05.123zM58.535 152.861c-.64-.172-1.254-.344-1.893-.516.639.197 1.253.369 1.893.516zM55.51 152.345c2.04.614 4.13 1.13 6.22 1.597a74.36 74.36 0 0 1-6.22-1.597zM48.208 149.545a91.717 91.717 0 0 0 7.179 2.457 102.867 102.867 0 0 1-7.179-2.457zM55.068 152.222c.148.049.295.074.443.123-.148-.025-.295-.074-.443-.123zM56.641 152.345c-.049-.025-.123-.025-.172-.05.05.025.123.05.172.05zM70.803 155.489c.124.025.37-.246.197-.27.198.024-.049.295-.197.27zM44.497 148.217c.148.049-.123.295-.27.245.122.074.394-.196.27-.245z" fill="#2A4D52"/>
        <path d="M17.919 147.334c0-.025 0-.025 0 0l6.908-3.219.787-.368a19.398 19.398 0 0 1-3.024-7.469c-1.647.32-3.122.639-3.86.983-2.237 1.032-4.474 2.064-6.638 3.218-.369.197-4.819 2.752-3.835 3.121 1.278.515 7.228-1.843 8.85-1.917.664-.319 1.328-.663 1.992-.958.344-.172.664-.344 1.008-.467.344-.147.688-.295 1.057-.393-.32.197-.664.369-.983.541-.344.172-.689.295-1.033.442-.664.27-1.328.565-1.991.835h.024c-1.254 1.008-6.687 4.521-6.49 4.963.344.688 2.557.172 5.212-1.106-1.352 1.057-2.09 1.941-1.869 2.359.394.786 3.737-.197 7.573-2.187a273.115 273.115 0 0 1-3.688 1.622zm-2.262-1.72c-.025 0-.025 0 0 0-.025 0-.025-.024 0 0 .664-.344 1.328-.688 2.016-1.007.344-.172.664-.344 1.008-.467.344-.147.688-.27 1.057-.393h.025v.025c-.32.196-.664.368-.984.54-.344.172-.688.295-1.032.442-.713.295-1.402.59-2.09.86z" fill="#F9DBCF"/>
        <path d="m25.689 143.697.221-.098.099-.049.049-.025c.024-.025.073-.025.098-.025.098 0 .172-.024.27 0h.246c.197.025.37.025.541.05.443.049.91.122 1.352.196.615.098 1.205.221 1.795.344l1.156-1.965-.615-1.352a10.42 10.42 0 0 1-.344-.761 5.543 5.543 0 0 1-.344-1.081c-.025-.098-.05-.221-.074-.32a1.225 1.225 0 0 1-.05-.294l-1.425-3.464-.96.294c-1.45.443-3.367.811-5.088 1.155a19.022 19.022 0 0 0 3.024 7.469l.049-.074z" fill="#F9DBCF"/>
        <path d="M32.278 144.507s.024.025 0 0c.172.148.32.27.491.393l-1.254-2.8-1.155 1.965c.64.123 1.278.27 1.918.442zM26.648 143.476c.196.025.368.025.54.049-.172-.024-.344-.024-.54-.049zM21.214 139.84c-.369.099-.713.246-1.057.393-.344.148-.664.32-1.008.467.344-.172.664-.344 1.008-.467.344-.147.688-.294 1.057-.393z" fill="#F9DBCF"/>
        <path d="M17.157 141.682c.664-.319 1.328-.663 1.992-.958.344-.172.663-.344 1.008-.467-.345.148-.664.32-1.008.467-.689.295-1.352.614-1.992.958zM31.515 141.781c-.222-.32-.418-.664-.615-1.008l.615 1.352.073-.123-.073-.221zM30.065 138.243l-1.426-3.464 1.426 3.464zM32.818 144.925l-1.205-2.948-.073.123 1.253 2.801s0 .024.025.024zM77.616 88.42l-.123.393c-.172.49-.688.786-1.18.638l-6.097-1.744a.936.936 0 0 1-.64-1.155l.222-.81c-.147-.025-.516-.123-1.032-.222-.492.025-9.589 6.167-4.918 7.666 4.5 1.45 11.457-.737 14.629-4.644-.025.05-.344 0-.86-.123z" fill="#F9DBCF"/>
        <path d="m70.19 87.707 6.098 1.744a.963.963 0 0 0 1.18-.638l.123-.393c-2.188-.54-7.966-2.506-7.818-2.678l-.222.81a.936.936 0 0 0 .64 1.155z" fill="#F9DBCF"/>
        <path fill-rule="evenodd" clip-rule="evenodd" d="M69.036 12.554c-4.548-.344-9.662-.05-13.768 2.26l-.246-.418.246.418c-2.778 1.548-4.5 4.226-4.819 7.076-.245 2.21.345 4.545 1.967 6.608 1.869 2.359 4.327 4.03 7.032 5.135.123.05.196.123.245.246.984 2.039 2.779 3.759 4.18 4.815.148.123.295.221.443.32a25.112 25.112 0 0 1-.296-.762c-.27-.811-.516-1.77-.737-2.727a.558.558 0 0 1 .123-.442.519.519 0 0 1 .442-.148c.738.148 1.451.246 2.189.344 3.392.393 8.408.074 12.366-1.695 1.967-.885 3.663-2.113 4.745-3.734 1.082-1.622 1.647-3.71 1.279-6.339-.492-3.93-2.754-6.51-5.655-8.23-2.95-1.695-6.565-2.482-9.736-2.727zm.074-.958-.025.491.025-.491c3.27.245 7.031 1.056 10.154 2.85 3.122 1.818 5.605 4.667 6.17 8.918l-.491.073.492-.073c.393 2.874-.197 5.183-1.426 7.026-1.23 1.843-3.074 3.17-5.163 4.078-4.155 1.843-9.368 2.187-12.883 1.77a15.746 15.746 0 0 1-1.5-.222c.172.688.344 1.327.541 1.892.27.786.54 1.351.762 1.597.099.098.172.196.221.295.025.049.074.122.074.22a.56.56 0 0 1-.074.418c-.098.172-.27.221-.368.246-.099.025-.172 0-.222 0-.098-.025-.22-.05-.32-.098-.417-.172-1.056-.565-1.794-1.13-1.426-1.081-3.27-2.85-4.376-5.012-2.754-1.155-5.31-2.875-7.278-5.356-1.77-2.26-2.433-4.864-2.163-7.321.344-3.194 2.262-6.118 5.31-7.837 4.377-2.408 9.712-2.678 14.334-2.334z" fill="#CDEEEC"/>
        <path fill-rule="evenodd" clip-rule="evenodd" d="M99.35 4.422a4.552 4.552 0 0 0-4.548 4.545 4.552 4.552 0 0 0 4.548 4.545 4.552 4.552 0 0 0 4.548-4.545 4.552 4.552 0 0 0-4.548-4.545zm-5.532 4.545A5.538 5.538 0 0 1 99.35 3.44a5.538 5.538 0 0 1 5.532 5.528 5.538 5.538 0 0 1-5.532 5.528 5.538 5.538 0 0 1-5.532-5.528z" fill="#96DAD5"/>
        <path fill-rule="evenodd" clip-rule="evenodd" d="M50.523 44.517c0 2.334-1.918 4.225-4.303 4.225-2.36 0-4.302-1.891-4.302-4.225 0-2.334 1.918-4.226 4.302-4.226 2.36 0 4.303 1.892 4.303 4.226zM95.735 19.654c0 1.056-.86 1.892-1.917 1.892-1.058 0-1.918-.86-1.918-1.892 0-1.056.86-1.892 1.918-1.892 1.057 0 1.917.835 1.917 1.892z" fill="#E68531"/>
    </g>
    <defs>
        <clipPath id="a">
            <path fill="#fff" transform="translate(.344)" d="M0 0h128.656v162H0z"/>
        </clipPath>
    </defs>
</svg>
