<svg width="148" height="96" viewBox="0 0 148 96" fill="none" xmlns="http://www.w3.org/2000/svg">
<g opacity="0.75">
<path opacity="0.75" d="M120.746 13.0447C120.746 14.1831 120.407 15.2959 119.771 16.2424C119.136 17.1889 118.233 17.9266 117.176 18.3622C116.119 18.7979 114.957 18.9119 113.835 18.6898C112.713 18.4677 111.683 17.9195 110.874 17.1146C110.065 16.3096 109.514 15.2841 109.291 14.1676C109.068 13.0511 109.182 11.8938 109.62 10.8421C110.058 9.79041 110.799 8.8915 111.75 8.25906C112.701 7.62663 113.819 7.28906 114.963 7.28906C116.497 7.28906 117.968 7.89546 119.052 8.97485C120.137 10.0542 120.746 11.5182 120.746 13.0447Z" fill="#FFB839"/>
<g style="mix-blend-mode:color-burn" opacity="0.5">
<path d="M118.95 13.0448C118.95 13.8303 118.716 14.5982 118.277 15.2513C117.839 15.9044 117.216 16.4135 116.487 16.7141C115.757 17.0147 114.955 17.0933 114.181 16.9401C113.407 16.7868 112.696 16.4086 112.138 15.8531C111.58 15.2977 111.2 14.59 111.046 13.8196C110.892 13.0492 110.971 12.2507 111.273 11.525C111.575 10.7993 112.086 10.179 112.742 9.74257C113.399 9.30617 114.17 9.07324 114.959 9.07324C116.018 9.07324 117.033 9.49168 117.781 10.2365C118.53 10.9813 118.95 11.9915 118.95 13.0448Z" fill="#FFB839"/>
</g>
<path opacity="0.75" d="M40.2682 35.2728C40.2682 36.0362 40.0408 36.7825 39.6147 37.4172C39.1885 38.0519 38.5828 38.5466 37.8742 38.8388C37.1656 39.1309 36.3858 39.2073 35.6335 39.0584C34.8812 38.9095 34.1902 38.5419 33.6478 38.0021C33.1055 37.4623 32.7361 36.7745 32.5865 36.0258C32.4368 35.2771 32.5136 34.501 32.8072 33.7958C33.1007 33.0905 33.5978 32.4877 34.2355 32.0636C34.8733 31.6395 35.6231 31.4131 36.3901 31.4131C36.8994 31.413 37.4037 31.5128 37.8743 31.7068C38.3448 31.9007 38.7724 32.185 39.1325 32.5434C39.4926 32.9018 39.7783 33.3274 39.9732 33.7957C40.168 34.264 40.2683 34.7659 40.2682 35.2728Z" fill="#FFB839"/>
<g style="mix-blend-mode:color-burn" opacity="0.5">
<path d="M39.178 35.2729C39.178 35.8217 39.0145 36.3582 38.7081 36.8146C38.4018 37.2709 37.9663 37.6266 37.4569 37.8366C36.9474 38.0466 36.3868 38.1016 35.846 37.9945C35.3051 37.8874 34.8083 37.6231 34.4184 37.2351C34.0285 36.847 33.763 36.3526 33.6554 35.8143C33.5478 35.276 33.603 34.7181 33.814 34.211C34.0251 33.704 34.3824 33.2706 34.8409 32.9657C35.2994 32.6608 35.8385 32.498 36.3899 32.498C36.7561 32.498 37.1186 32.5697 37.4569 32.7091C37.7952 32.8486 38.1026 33.053 38.3615 33.3106C38.6205 33.5683 38.8258 33.8743 38.9659 34.2109C39.106 34.5476 39.1781 34.9085 39.178 35.2729Z" fill="#FFB839"/>
</g>
<path opacity="0.75" d="M147.624 48.8028C147.623 49.5661 147.395 50.312 146.969 50.9464C146.542 51.5808 145.937 52.0751 145.228 52.3669C144.519 52.6586 143.74 52.7347 142.987 52.5854C142.235 52.4362 141.545 52.0684 141.002 51.5285C140.46 50.9886 140.091 50.3009 139.942 49.5522C139.792 48.8036 139.869 48.0276 140.163 47.3225C140.457 46.6174 140.954 46.0147 141.591 45.5907C142.229 45.1667 142.979 44.9404 143.746 44.9404C144.255 44.9404 144.76 45.0404 145.23 45.2345C145.701 45.4286 146.129 45.7132 146.489 46.0718C146.849 46.4305 147.135 46.8563 147.329 47.3249C147.524 47.7935 147.624 48.2957 147.624 48.8028Z" fill="#FFB839"/>
<g style="mix-blend-mode:color-burn" opacity="0.5">
<path d="M146.533 48.8027C146.533 49.3515 146.37 49.888 146.063 50.3442C145.757 50.8005 145.321 51.1561 144.812 51.366C144.302 51.576 143.742 51.6308 143.201 51.5237C142.66 51.4166 142.164 51.1523 141.774 50.7642C141.384 50.3761 141.118 49.8816 141.011 49.3434C140.903 48.8051 140.959 48.2472 141.17 47.7402C141.381 47.2332 141.738 46.7998 142.196 46.495C142.655 46.1901 143.194 46.0273 143.745 46.0273C144.112 46.0273 144.474 46.099 144.813 46.2385C145.151 46.3779 145.458 46.5824 145.717 46.8401C145.976 47.0979 146.181 47.4038 146.322 47.7406C146.462 48.0774 146.534 48.4383 146.533 48.8027Z" fill="#FFB839"/>
</g>
</g>
<path d="M93.0016 94.6633C92.9312 94.9079 93.083 95.1075 93.3382 95.1075H94.9575C95.0896 95.1019 95.2169 95.0565 95.3224 94.9771C95.4279 94.8978 95.5067 94.7883 95.5482 94.6633L111.637 38.3929C111.707 38.1483 111.556 37.9492 111.3 37.9492H109.679C109.547 37.9547 109.419 38.0001 109.314 38.0793C109.208 38.1586 109.13 38.268 109.088 38.3929L93.0016 94.6633Z" fill="#E6E6FF"/>
<path d="M74.111 94.6633C74.0406 94.9079 74.1924 95.1075 74.447 95.1075H76.0668C76.199 95.1018 76.3263 95.0563 76.4319 94.977C76.5375 94.8977 76.6164 94.7883 76.6581 94.6633L92.7466 38.3929C92.8169 38.1483 92.6652 37.9492 92.41 37.9492H90.7907C90.6586 37.9547 90.5313 38.0001 90.4258 38.0793C90.3203 38.1586 90.2415 38.268 90.2 38.3929L74.111 94.6633Z" fill="#E6E6FF"/>
<path d="M97.1512 81.5117H78.4883V83.6198H97.1512V81.5117Z" fill="#E6E6FF"/>
<path d="M102.097 66.9902H83.4336V69.0983H102.097V66.9902Z" fill="#E6E6FF"/>
<path d="M105.69 52.4707H87.0273V54.5783H105.69V52.4707Z" fill="#E6E6FF"/>
<path d="M110.557 37.9492H91.8945V40.0573H110.557V37.9492Z" fill="#E6E6FF"/>
<path d="M52.5256 62.0166C52.4624 61.698 52.3356 61.3953 52.1527 61.1264C51.9697 60.8575 51.7345 60.6279 51.4607 60.4512C51.187 60.2745 50.8804 60.1543 50.5592 60.0977C50.2379 60.0411 49.9085 60.0493 49.5904 60.1217L41.1978 62.0129C40.8822 62.0807 40.5841 62.2127 40.3223 62.4007C40.0605 62.5887 39.8406 62.8286 39.6765 63.1053C39.5124 63.382 39.4075 63.6895 39.3686 64.0084C39.3297 64.3274 39.3575 64.6509 39.4504 64.9587L43.2361 77.9797C43.6194 79.2976 45.0602 80.3752 46.439 80.3752H53.7049C55.0831 80.3752 55.9894 79.2778 55.7201 77.9295L52.5256 62.0166Z" fill="#D75426"/>
<path d="M109.415 65.7225C109.415 80.873 95.1294 93.1577 77.5082 93.1577C59.887 93.1577 45.6016 80.8771 45.6016 65.7251C45.6016 50.573 59.887 38.293 77.5082 38.293C95.1294 38.293 109.415 50.5725 109.415 65.7225Z" fill="#D75426"/>
<path d="M54.1607 80.4052C53.9029 80.3069 53.7223 80.4491 53.7585 80.7187L55.6099 94.6114C55.6315 94.7468 55.7 94.8704 55.8036 94.9607C55.9072 95.051 56.0393 95.1023 56.177 95.1058H63.7694C63.9061 95.1027 64.0371 95.051 64.1386 94.96C64.2402 94.869 64.3055 94.7448 64.3229 94.6098L65.3252 85.1794C65.3343 85.0381 65.2992 84.8974 65.2249 84.7766C65.1506 84.6559 65.0405 84.5609 64.9099 84.5048L54.1607 80.4052Z" fill="#D75426"/>
<path d="M102.135 80.4052C102.392 80.3069 102.573 80.4491 102.537 80.7187L100.685 94.6114C100.664 94.7467 100.595 94.8702 100.492 94.9605C100.388 95.0508 100.256 95.1022 100.119 95.1058H92.5259C92.3892 95.1027 92.2582 95.0511 92.1565 94.9601C92.0549 94.8691 91.9894 94.7448 91.972 94.6098L90.9702 85.1794C90.9611 85.0381 90.9961 84.8974 91.0705 84.7766C91.1448 84.6559 91.2548 84.5609 91.3855 84.5048L102.135 80.4052Z" fill="#D75426"/>
<path d="M104.939 57.8042C104.939 57.8042 109.422 58.7887 110.859 56.121C112.487 53.0974 114.492 52.5675 114.555 56.5573C114.618 60.5472 110.42 67.0318 104.093 68.4031C97.7664 69.7743 100.461 63.2912 100.461 63.2912L104.939 57.8042Z" fill="#D75426"/>
<path d="M105.108 25.964C105.108 25.964 104.128 24.389 101.829 23.1824C97.4707 20.893 90.9342 17.8416 89.7197 17.3123C87.8468 16.495 85.683 19.7851 87.5444 21.9386C89.4057 24.0922 92.0174 26.6768 94.3445 28.2958C97.0223 30.1582 98.4568 30.7111 100.586 29.9199C103.21 28.9448 104.277 27.4962 105.108 25.964Z" fill="#145A7B"/>
<path d="M88.8568 37.1819C88.8568 37.1819 91.8833 36.3767 92.1038 36.3056C92.3475 36.2262 92.7339 36.0845 92.7864 36.8804C92.8389 37.6763 92.872 37.9256 92.872 37.9256C92.872 37.9256 89.3588 37.9684 88.9802 37.9287C88.6017 37.889 88.3003 37.6136 88.8568 37.1819Z" fill="#0097A9"/>
<path d="M86.8962 19.3109C86.5591 21.1561 87.7101 22.8978 88.4966 25.8107C89.2832 28.7235 91.4302 36.755 91.4302 36.755C91.4302 36.755 91.4302 36.9938 91.9668 36.9844C92.515 36.975 92.3055 36.4785 92.3055 36.4785C92.3055 36.4785 92.0099 34.7901 92.148 33.329C92.2861 31.8678 92.264 25.1987 92.2278 23.4052C92.1915 21.6118 92.5428 18.609 90.462 18.0253C88.4903 17.4719 87.07 18.3593 86.8962 19.3109Z" fill="#145A7B"/>
<path style="mix-blend-mode:color-burn" opacity="0.75" d="M101.831 23.1824C100.173 22.3118 98.2015 21.332 96.3265 20.4211L96.2262 20.3725L96.1165 20.3203C95.394 19.9701 94.6883 19.6315 94.0241 19.3148C94.0399 19.4909 94.0934 19.6555 94.1291 19.8573C94.1869 20.1844 93.7616 20.338 92.8926 20.8188C92.0236 21.2996 90.8254 22.1838 89.9942 23.1453C89.163 24.1068 89.3374 22.6839 89.1636 21.2996C88.9898 19.9153 88.2751 18.4149 88.6023 18.1782C88.8338 18.01 89.5616 17.63 89.9674 17.4226C89.8713 17.3797 89.7873 17.3421 89.7212 17.3134C88.6668 16.853 87.5206 17.6948 87.0523 18.9025C86.9766 19.0291 86.9233 19.1677 86.8947 19.3122C86.857 19.5243 86.8373 19.7391 86.8359 19.9545V19.9754C86.8359 19.9984 86.8359 20.0213 86.8359 20.0438C86.8359 20.1306 86.8401 20.2173 86.848 20.3051C86.848 20.3385 86.8533 20.373 86.8569 20.4065C86.8569 20.4133 86.8569 20.4201 86.8569 20.4263C87.0071 21.9078 87.8651 23.4865 88.4931 25.8125L88.6506 26.3989C88.6789 26.5034 88.7078 26.6121 88.7383 26.7244C88.7645 26.8216 88.7908 26.9178 88.8175 27.0202C88.911 27.3656 89.0102 27.7356 89.1158 28.1275C89.2507 28.0011 89.4355 27.7617 89.5883 27.3374C89.8598 26.5682 89.6471 26.4036 90.0913 26.1303C90.5356 25.8569 90.7288 26.3957 90.922 28.799C91.1152 31.2024 91.8193 36.24 91.8923 36.8556C91.9653 37.4712 91.5594 37.6917 90.9078 37.6917H89.2276C88.9593 37.6917 88.5655 37.5041 88.8564 37.1832C88.3003 37.6149 88.6017 37.8955 88.9798 37.9342C89.3578 37.9729 92.8716 37.9311 92.8716 37.9311C92.8716 37.9311 92.8395 37.6818 92.786 36.8859C92.7429 36.2531 92.4925 36.2113 92.2688 36.2588C92.1953 35.7556 92.0383 34.4753 92.1475 33.3324C92.2383 32.3834 92.2599 29.2411 92.2525 26.6622C92.2594 26.6685 92.2672 26.6737 92.274 26.68C92.3717 26.7636 92.4694 26.8451 92.5676 26.9272C92.5077 25.2633 91.9931 25.2283 93.529 24.1089C95.1519 22.9263 95.1887 23.2759 95.9716 23.878C96.7544 24.48 96.9571 25.3997 97.1635 26.3586C97.4428 27.6577 97.8692 29.4387 98.0881 30.2022C98.8941 30.3516 99.6764 30.2607 100.585 29.9231C103.211 28.948 104.275 27.4994 105.109 25.9672C105.108 25.9641 104.129 24.389 101.831 23.1824Z" fill="url(#paint0_linear_3235_132683)"/>
<path d="M84.2229 18.0594C82.8688 17.7532 78.0702 16.2524 76.8683 15.9754C75.6665 15.6984 76.3517 15.839 75.1403 15.6237C73.929 15.4084 73.3829 15.9618 72.5308 15.168C71.8398 14.5247 73.0448 13.5141 74.2073 13.3761C75.405 13.2345 74.8762 14.6585 76.045 14.7672C77.2138 14.8759 79.1902 15.2579 81.0132 15.3457C82.8362 15.4335 84.152 15.5694 85.1891 15.8923C86.0202 16.1536 86.6766 16.6652 86.4455 17.3811C86.0696 18.5407 84.8257 18.1958 84.2229 18.0594Z" fill="#FFB680"/>
<path d="M75.0458 14.2011C75.1786 13.6565 74.8883 13.2855 75.0426 13.1037C75.2086 12.9098 75.511 13.2249 75.72 13.5217C76.0161 13.945 75.6622 14.6986 76.119 15.0644C76.245 15.6716 75.0458 14.2011 75.0458 14.2011Z" fill="#FFB680"/>
<path d="M87.7187 17.2187C87.7187 17.2187 86.2968 17.9116 85.7361 18.1358C85.1753 18.36 84.8093 17.6242 84.749 17.1137C84.6886 16.6031 85.5891 15.8192 86.7022 15.2564C87.8153 14.6936 87.8647 17.0227 87.7187 17.2187Z" fill="#FFB680"/>
<path d="M95.5036 14.9341C93.4558 16.2928 87.05 17.9049 87.05 17.9049C87.05 17.9049 86.3674 17.4022 86.2099 16.5901C86.0267 15.628 86.3716 15.084 86.3716 15.084L94.8225 10.129C94.8225 10.129 95.4526 9.87136 95.8202 10.2743C97.1533 11.7317 97.0698 13.8988 95.5036 14.9341Z" fill="#0097A9"/>
<path style="mix-blend-mode:color-burn" opacity="0.75" d="M96.6837 13.207C95.7615 13.427 94.8633 13.7362 94.0017 14.1304C94.0017 14.1304 89.2188 16.3843 87.7765 16.7804C86.5021 17.13 86.4528 16.4115 85.7922 15.8016C85.6946 15.8711 85.5985 15.9406 85.5113 16.0106C85.4058 15.9659 85.298 15.9265 85.1884 15.8925C84.5289 15.6872 83.7545 15.5576 82.8104 15.4677C82.7343 15.8978 82.5935 16.7072 82.457 17.5815C83.2105 17.7979 83.8495 17.975 84.2249 18.0597C84.6508 18.1558 85.3953 18.3534 85.9277 18.0544C86.1713 17.9499 86.4874 17.8041 86.7883 17.6625C86.8692 17.7502 86.957 17.8313 87.0508 17.905C87.0508 17.905 93.4566 16.2928 95.5044 14.9341C96.1115 14.5363 96.5356 13.9153 96.6837 13.207Z" fill="url(#paint1_linear_3235_132683)"/>
<path d="M62.31 43.6927C62.31 43.6927 59.1512 40.783 53.7561 40.4527C48.3611 40.1224 46.2734 40.9518 46.2734 40.9518C46.2734 40.9518 45.2706 51.2575 52.9554 55.4961C60.6403 59.7347 63.8132 51.755 63.8132 51.755L62.31 43.6927Z" fill="#D75426"/>
<g style="mix-blend-mode:multiply">
<path d="M58.9897 60.5649C58.9898 60.9195 58.8842 61.2662 58.6864 61.5611C58.4885 61.8561 58.2072 62.086 57.878 62.2217C57.5488 62.3575 57.1866 62.3931 56.8371 62.324C56.4876 62.2549 56.1665 62.0841 55.9146 61.8334C55.6626 61.5827 55.4909 61.2632 55.4214 60.9154C55.3518 60.5676 55.3875 60.2071 55.5238 59.8794C55.6601 59.5518 55.891 59.2717 56.1873 59.0747C56.4836 58.8776 56.8319 58.7725 57.1882 58.7725C57.6659 58.7725 58.124 58.9613 58.4619 59.2974C58.7997 59.6336 58.9896 60.0895 58.9897 60.5649Z" fill="#7F7F7F"/>
</g>
<g style="mix-blend-mode:multiply">
<g style="mix-blend-mode:multiply">
<path d="M88.0915 45.9871C88.0563 45.9694 84.2223 44.0865 77.9856 44.0865C72.0523 44.0865 67.5525 45.7295 67.5079 45.7462L66.6289 43.4108C66.8279 43.3366 71.5735 41.5928 77.9856 41.5928C84.8671 41.5928 89.0545 43.6763 89.2293 43.7651L88.0915 45.9871Z" fill="#7F7F7F"/>
</g>
</g>
<path d="M108.989 94.6633C109.059 94.9079 108.907 95.1075 108.653 95.1075H107.033C106.901 95.1019 106.773 95.0565 106.668 94.9771C106.562 94.8978 106.483 94.7883 106.442 94.6633L90.3529 38.3929C90.2831 38.1483 90.4349 37.9492 90.6895 37.9492H92.3093C92.4414 37.9547 92.5687 38.0001 92.6742 38.0793C92.7798 38.1586 92.8585 38.268 92.9 38.3929L108.989 94.6633Z" fill="#A6A6A6"/>
<path d="M127.876 94.6633C127.946 94.9079 127.794 95.1075 127.539 95.1075H125.92C125.787 95.1018 125.66 95.0563 125.555 94.977C125.449 94.8977 125.37 94.7883 125.328 94.6633L109.24 38.3929C109.17 38.1483 109.321 37.9492 109.576 37.9492H111.196C111.328 37.9548 111.455 38.0002 111.561 38.0794C111.666 38.1587 111.745 38.268 111.787 38.3929L127.876 94.6633Z" fill="#A6A6A6"/>
<path d="M123.499 81.5117H104.836V83.6198H123.499V81.5117Z" fill="#A6A6A6"/>
<path d="M118.554 66.9902H99.8906V69.0983H118.554V66.9902Z" fill="#A6A6A6"/>
<path d="M114.96 52.4707H96.2969V54.5783H114.96V52.4707Z" fill="#A6A6A6"/>
<path d="M110.093 37.9492H91.4297V40.0573H110.093V37.9492Z" fill="#A6A6A6"/>
<path d="M110.746 49.9413C110.221 49.3341 110 49.6769 109.854 49.8854C109.777 49.9899 109.119 50.8292 108.561 51.532L108.567 51.5409L107.957 51.7134C107.406 52.1534 107.71 52.4643 108.09 52.4643H109.157C110.088 51.7729 111.446 50.7299 111.446 50.7299C111.446 50.7299 111.269 50.5486 110.746 49.9413Z" fill="#0097A9"/>
<path d="M99.5133 35.3825C99.7957 37.2366 101.451 38.5127 103.144 41.0148C104.837 43.5169 109.483 50.4212 109.483 50.4212C109.483 50.4212 109.629 50.7144 110.072 50.4118C110.531 50.0982 110.205 49.7523 110.205 49.7523C110.205 49.7523 109.392 48.3753 109.049 46.9476C108.707 45.52 106.511 39.2187 105.894 37.5345C105.276 35.8502 104.628 32.8956 102.471 33.0142C100.423 33.1297 99.3678 34.4257 99.5133 35.3825Z" fill="#145A7B"/>
<path d="M97.25 18.394C97.25 18.394 96.5816 20.1232 97.0022 22.6755C97.8003 27.5156 99.3031 34.5442 99.6123 35.8266C100.088 37.8061 104.377 38.5785 104.562 35.7441C104.802 32.0521 105.726 28.3512 105.617 25.5272C105.492 22.2778 105.069 20.8057 103.149 19.5944C100.785 18.0998 98.9812 18.1291 97.25 18.394Z" fill="#145A7B"/>
<path d="M94.1366 7.13213C92.5357 7.48696 90.5955 7.05113 90.1193 5.25556C89.6541 3.50284 90.2768 2.52876 90.8817 1.58708C90.9815 1.43031 91.0849 1.26935 91.1805 1.1084L91.2797 1.16693C91.1841 1.32945 91.0797 1.49197 90.9788 1.64926C90.3887 2.57057 89.7785 3.5227 90.2306 5.22473C90.6874 6.94662 92.5624 7.36154 94.1109 7.01821L94.1366 7.13213Z" fill="#1F163C"/>
<path d="M92.8918 7.46403C91.8275 7.70233 90.4041 5.74371 90.3831 3.58338C90.3621 1.42305 91.6842 -0.829771 94.1683 0.303174C96.5237 1.37759 98.7027 1.34833 99.2709 2.61348C99.8621 3.93299 98.1089 7.0235 98.2207 8.23849C98.3326 9.45348 95.8726 7.97041 95.8726 7.97041L92.8918 7.46403Z" fill="#1F163C"/>
<path d="M94.7396 19.3494C94.0045 15.2304 94.1195 15.2848 93.847 12.3406C93.6548 10.2419 95.9997 9.09593 98.7663 8.43958C101.463 7.80047 102.669 9.40268 103.076 12.2324C103.781 17.1446 105.111 19.4482 105.626 23.1631C105.703 23.7218 103.42 25.416 98.8608 24.2606C94.7984 23.2337 94.7396 19.3494 94.7396 19.3494Z" fill="#514EDD"/>
<path d="M94.7396 19.3494C94.0045 15.2304 94.1195 15.2848 93.847 12.3406C93.6548 10.2419 95.9997 9.09593 98.7663 8.43958C101.463 7.80047 102.669 9.40268 103.076 12.2324C103.781 17.1446 105.111 19.4482 105.626 23.1631C105.703 23.7218 103.42 25.416 98.8608 24.2606C94.7984 23.2337 94.7396 19.3494 94.7396 19.3494Z" fill="#0097A9"/>
<path style="mix-blend-mode:color-burn" opacity="0.5" d="M100.912 11.2197L98.3114 10.8252C97.8809 12.2884 96.1681 17.2659 95.6756 18.1763C95.3311 18.8122 95.1274 19.0741 94.7305 19.3259L94.7352 19.351C94.7836 20.119 94.9904 20.8688 95.3427 21.5537L96.6822 20.7782L98.7866 16.8944L100.912 13.818L100.912 11.2197Z" fill="url(#paint2_linear_3235_132683)"/>
<path d="M97.2988 6.21722C97.9357 6.7539 97.7987 7.40712 98.3458 8.54843C98.6272 9.13476 98.2576 10.9669 96.3705 11.211C95.1397 11.3703 96.1048 9.92019 95.9373 9.29205C95.7698 8.66392 94.9922 6.7539 94.9922 6.7539C94.9922 6.7539 96.8021 5.79916 97.2988 6.21722Z" fill="#FFB680"/>
<path d="M96.8852 4.41258C97.1792 4.57301 97.2244 5.05274 96.9855 5.48491C96.7466 5.91708 96.316 6.13708 96.0225 5.97665C95.729 5.81622 95.6844 5.33649 95.9228 4.90432C96.1612 4.47215 96.5922 4.25267 96.8852 4.41258Z" fill="#FFB680"/>
<path d="M96.0424 4.72418C96.0214 4.67662 93.646 5.04817 92.2094 3.89746C91.7972 4.03072 91.8098 4.55591 92.012 5.19084C92.2745 6.02696 92.3795 6.69742 93.2601 8.08434C94.0902 9.39078 94.8321 9.98129 95.9342 8.73129C96.5564 7.68927 97.0594 7.1599 97.2994 6.21456C96.5039 5.65906 96.4829 5.1762 96.0424 4.72418Z" fill="#FFB680"/>
<path d="M98.3409 5.2759C98.3334 5.2776 98.3257 5.27781 98.3181 5.27652C98.3105 5.27523 98.3033 5.27246 98.2968 5.26839C98.2903 5.26431 98.2847 5.25899 98.2803 5.25275C98.2759 5.24651 98.2727 5.23945 98.2711 5.232C97.914 3.61985 95.9907 3.58275 94.4454 3.55296C93.579 3.53676 92.8303 3.52213 92.4386 3.25823C91.3244 2.50781 91.9981 0.809964 92.0049 0.792719C92.0108 0.77864 92.0221 0.767427 92.0362 0.761472C92.0503 0.755517 92.0662 0.75529 92.0805 0.760842C92.0947 0.76664 92.1061 0.777804 92.1121 0.7919C92.1181 0.805997 92.1183 0.821882 92.1125 0.836093C92.1057 0.852293 91.4672 2.46444 92.5037 3.1626C92.8671 3.40717 93.5995 3.42389 94.4465 3.43748C96.0316 3.46831 98.0064 3.50593 98.3845 5.20692C98.3878 5.22181 98.385 5.2374 98.3769 5.25031C98.3687 5.26322 98.3558 5.27241 98.3409 5.2759Z" fill="#2B1963"/>
<path d="M98.536 5.69407L98.4641 5.60314C99.4564 4.82555 100.029 3.24057 99.7132 2.14212C99.5909 1.71465 99.2763 1.18633 98.4756 1.09697C97.9815 1.04471 97.5394 1.00343 97.1493 0.968937C95.9101 0.859719 95.0154 0.78081 93.875 0.337143L93.917 0.229492C95.0422 0.667411 95.9301 0.745797 97.1593 0.856583C97.5504 0.891073 97.9936 0.929744 98.4887 0.984614C99.1629 1.05882 99.6376 1.45911 99.825 2.11129C100.152 3.24685 99.5615 4.88773 98.536 5.69407Z" fill="#1F163C"/>
<path d="M88.5929 24.2415C88.8778 18.3814 84.3354 13.4011 78.4471 13.1176C72.5589 12.834 67.5546 17.3547 67.2697 23.2147C66.9848 29.0747 71.5273 34.0551 77.4155 34.3386C83.3037 34.6221 88.308 30.1015 88.5929 24.2415Z" fill="#FFB839"/>
<path style="mix-blend-mode:color-burn" opacity="0.5" d="M77.9295 13.1045C77.2 13.1041 76.4723 13.1778 75.7578 13.3245C80.6121 14.3231 84.2639 18.6025 84.2639 23.7279C84.2639 28.8534 80.6121 33.1301 75.7578 34.1309C76.4721 34.2775 77.1996 34.3513 77.929 34.3509C83.8239 34.3509 88.603 29.5954 88.603 23.7279C88.603 17.8605 83.8244 13.1045 77.9295 13.1045Z" fill="url(#paint3_linear_3235_132683)"/>
<g style="mix-blend-mode:multiply" opacity="0.5">
<path d="M86.6669 22.6939L88.5168 22.3694C88.4747 22.0412 88.418 21.7182 88.3466 21.4005L86.4963 21.725C86.5715 22.0445 86.6285 22.368 86.6669 22.6939ZM70.7013 15.9156L71.9089 17.3485C72.1487 17.1232 72.4012 16.9115 72.665 16.7146L71.4574 15.2832C71.1962 15.4829 70.9442 15.6936 70.7013 15.9156ZM68.4524 18.8477L70.0801 19.7826C70.2289 19.4897 70.394 19.2054 70.5747 18.9308L68.947 17.9965C68.7699 18.272 68.605 18.5558 68.4524 18.8477ZM77.4415 13.1151V14.9859C77.6048 14.977 77.7697 14.9718 77.9356 14.9718C78.1015 14.9718 78.2659 14.977 78.4292 14.9859V13.1151C78.2654 13.1072 78.101 13.1025 77.9356 13.1025C77.7702 13.1025 77.6027 13.1088 77.4415 13.1151ZM73.8238 13.9204L74.4665 15.6783C74.7694 15.5488 75.0796 15.4366 75.3953 15.3423L74.7495 13.5854C74.4334 13.6833 74.124 13.7955 73.8212 13.9219L73.8238 13.9204ZM82.0469 13.9204C81.742 13.7953 81.432 13.6836 81.117 13.5854L80.4738 15.3444C80.7894 15.4388 81.0993 15.551 81.4021 15.6804L82.0469 13.9204ZM69.3718 21.7235L67.5178 21.4005C67.4478 21.7182 67.3911 22.0412 67.3477 22.3694L69.198 22.6939C69.2366 22.368 69.2938 22.0445 69.3692 21.725L69.3718 21.7235ZM85.1668 15.914C84.9242 15.6914 84.6719 15.4806 84.4097 15.2817L83.202 16.713C83.465 16.9104 83.7166 17.1223 83.9555 17.3479L85.1668 15.914ZM87.4157 18.8462C87.2638 18.5542 87.0989 18.2705 86.9211 17.9949L85.2934 18.9293C85.4739 19.2038 85.6388 19.4882 85.7875 19.7811L87.4157 18.8462ZM85.2944 28.5222L86.9221 29.4566C87.0996 29.1813 87.2645 28.8976 87.4167 28.6053L85.789 27.6704C85.6395 27.9639 85.4735 28.2488 85.2918 28.5238L85.2944 28.5222ZM83.2031 30.739L84.4107 32.1698C84.6726 31.9708 84.9249 31.7602 85.1679 31.538L83.9602 30.1045C83.7191 30.3305 83.4655 30.5429 83.2005 30.7405L83.2031 30.739ZM86.4989 25.728L88.3493 26.0525C88.4193 25.7348 88.476 25.412 88.5194 25.0842L86.6696 24.7591C86.6303 25.0856 86.5725 25.4096 86.4963 25.7295L86.4989 25.728ZM80.4733 32.1112L81.117 33.8697C81.432 33.7715 81.7415 33.6591 82.0453 33.5326L81.4026 31.7752C81.0993 31.9042 80.7891 32.0164 80.4733 32.1112ZM69.198 24.7607L67.3482 25.0852C67.3902 25.4134 67.4469 25.7363 67.5183 26.0541L69.3686 25.7295C69.2935 25.41 69.2365 25.0866 69.198 24.7607ZM70.7007 31.539C70.9433 31.7613 71.1957 31.9721 71.4579 32.1713L72.6655 30.7405C72.4021 30.5431 72.1499 30.3313 71.91 30.1061L70.7007 31.539ZM68.4519 28.6068C68.6041 28.8988 68.7692 29.1825 68.947 29.4581L70.5747 28.5238C70.3938 28.2493 70.2287 27.9649 70.0801 27.672L68.4519 28.6068ZM73.8186 33.5326C74.1214 33.6588 74.431 33.7711 74.7474 33.8697L75.3938 32.1107C75.078 32.0165 74.7678 31.9043 74.4649 31.7747L73.8186 33.5326ZM77.4415 32.4687V34.3385C77.6053 34.3458 77.7697 34.3505 77.9356 34.3505C78.1015 34.3505 78.2654 34.3458 78.4292 34.3385V32.4687C78.2659 32.4776 78.1015 32.4833 77.9356 32.4833C77.7697 32.4833 77.6022 32.4776 77.4415 32.4687Z" fill="#FFBF40"/>
</g>
<g style="mix-blend-mode:color-burn">
<path d="M81.6509 26.0837C81.6509 25.3385 81.439 24.7172 81.0151 24.2197C80.5912 23.7222 79.8111 23.2129 78.6748 22.6917C78.6171 22.6661 78.5383 22.6295 78.4396 22.5825C77.1409 21.9902 76.4918 21.3494 76.4921 20.6599C76.4921 20.2224 76.6402 19.874 76.9363 19.6148C77.2325 19.3556 77.6315 19.2253 78.1335 19.2239C78.4658 19.2176 78.7932 19.3042 79.0786 19.4737C79.3538 19.6402 79.6065 19.9032 79.8368 20.2628L81.297 19.5129C81.0884 18.9161 80.6661 18.4167 80.1109 18.1103C79.736 17.896 79.2781 17.779 78.782 17.7048V16.3555H77.0755V17.7142C76.4533 17.8391 75.9203 18.0894 75.4824 18.4844C74.8467 19.0635 74.5287 19.8191 74.5284 20.7514C74.5284 21.4704 74.7384 22.0787 75.1585 22.5762C75.5785 23.0737 76.4235 23.6304 77.6935 24.2464C77.777 24.2829 77.8977 24.3404 78.0547 24.4188C79.1749 24.9449 79.735 25.5437 79.735 26.2154C79.735 26.7317 79.5715 27.1435 79.2445 27.4508C78.9176 27.7581 78.4765 27.9117 77.9214 27.9117C77.3343 27.9117 76.8527 27.7776 76.4764 27.5093C76.1001 27.2411 75.8409 26.8518 75.6988 26.3414L74.207 27.0291C74.401 27.8621 74.8107 28.5027 75.4362 28.9511C75.8888 29.2756 76.438 29.4784 77.076 29.5683V31.0979H78.7825V29.5369C79.5176 29.4068 80.134 29.1189 80.6202 28.6668C81.307 28.0279 81.6506 27.1669 81.6509 26.0837Z" fill="#FFB41D"/>
</g>
<path d="M56.0669 89.8243C53.104 94.8933 46.5701 96.6178 41.4743 93.6668C36.3786 90.7158 34.6485 84.2144 37.613 79.1434C40.5775 74.0723 47.1098 72.3499 52.2056 75.3003C57.3014 78.2508 59.0309 84.7516 56.0669 89.8243Z" fill="#FFB839"/>
<path style="mix-blend-mode:color-burn" opacity="0.75" d="M52.2029 75.3025C49.9027 73.9656 47.1822 73.5367 44.5795 74.1006C45.6707 74.3369 46.7179 74.7425 47.6826 75.3025C52.7757 78.2519 54.5085 84.7538 51.5434 89.8264C50.799 91.1038 49.7944 92.2121 48.5942 93.0803C47.3941 93.9484 46.0248 94.5573 44.5742 94.8677C48.9764 95.8193 53.6778 93.9104 56.0642 89.8264C59.0282 84.7528 57.2992 78.2503 52.2029 75.3025Z" fill="url(#paint4_linear_3235_132683)"/>
<g style="mix-blend-mode:multiply" opacity="0.5">
<path d="M54.912 87.9594L56.6752 88.6043C56.8044 88.2998 56.9185 87.992 57.0176 87.6809L55.2539 87.036C55.1576 87.3501 55.0435 87.6583 54.912 87.9594ZM44.5346 74.1112L44.8554 75.9543C45.1764 75.8798 45.5012 75.8229 45.8284 75.7839L45.5086 73.9424C45.1815 73.9847 44.856 74.0406 44.5346 74.1117V74.1112ZM41.1091 75.5221L42.0432 77.1421C42.3199 76.9637 42.6064 76.8006 42.9012 76.6535L41.9671 75.0335C41.673 75.1823 41.387 75.3448 41.1091 75.5211V75.5221ZM51.7721 75.0638L50.827 76.6802C50.9735 76.7544 51.1184 76.8317 51.2618 76.9148C51.4051 76.9979 51.5443 77.0846 51.6818 77.1761L52.627 75.5598C52.4894 75.4714 52.3492 75.3847 52.2069 75.3021C52.0646 75.2196 51.9176 75.138 51.7721 75.0628V75.0638ZM48.2385 73.9502L47.9061 75.7913C48.2333 75.831 48.5579 75.8891 48.8785 75.9653L49.2109 74.1232C48.888 74.0469 48.5619 73.9946 48.2385 73.9492V73.9502ZM55.3468 78.0645C55.149 77.8042 54.939 77.5523 54.7167 77.3088L53.2723 78.5076C53.4975 78.7471 53.7089 78.999 53.9055 79.2622L55.3468 78.0645ZM40.4486 78.4684L39.0125 77.2618C38.7902 77.5008 38.5783 77.7516 38.3767 78.0143L39.8111 79.2204C40.0092 78.9577 40.222 78.7062 40.4486 78.4674V78.4684ZM57.0365 81.3483C56.9391 81.0348 56.8275 80.7265 56.7015 80.4234L54.9357 81.0567C55.0636 81.3591 55.1747 81.6682 55.2686 81.9827L57.0365 81.3483ZM57.4996 85.0064C57.5157 84.6782 57.5157 84.3504 57.4996 84.0229L55.6214 84.0171C55.64 84.3447 55.64 84.673 55.6214 85.0006L57.4996 85.0064ZM50.7787 92.3094L51.7133 93.9293C52.006 93.7799 52.2918 93.6172 52.5708 93.4413L51.6367 91.8213C51.3601 92.0004 51.0735 92.1637 50.7782 92.3104L50.7787 92.3094ZM47.8515 93.1794L48.1718 95.0205C48.4989 94.9792 48.8244 94.9238 49.1458 94.8522L48.8244 93.0101C48.5034 93.0852 48.1784 93.1421 47.851 93.1805L47.8515 93.1794ZM53.2318 90.4965L54.6674 91.7037C54.8896 91.4644 55.1018 91.2135 55.3037 90.9512L53.8687 89.7451C53.6708 90.0078 53.458 90.259 53.2313 90.4976L53.2318 90.4965ZM44.8014 92.9997L44.4664 94.8454C44.7895 94.9189 45.1138 94.9768 45.4393 95.0189L45.7712 93.1779C45.4446 93.137 45.1207 93.0779 44.8008 93.0007L44.8014 92.9997ZM38.7673 81.006L37.0041 80.3607C36.875 80.6655 36.761 80.9731 36.6623 81.2835L38.4281 81.9289C38.5237 81.6152 38.637 81.3071 38.7673 81.006ZM36.6429 87.6177C36.7402 87.9312 36.8519 88.2397 36.9779 88.5432L38.7432 87.9093C38.6149 87.6071 38.504 87.2979 38.4108 86.9833L36.6429 87.6177ZM36.1798 83.9596C36.164 84.2882 36.164 84.6162 36.1798 84.9437L38.0579 84.9494C38.0402 84.6218 38.0411 84.2934 38.0606 83.9659L36.1798 83.9596ZM38.3326 90.9042C38.531 91.1647 38.7411 91.4168 38.9626 91.6603L40.4071 90.4615C40.1818 90.222 39.9703 89.9699 39.7739 89.7064L38.3326 90.9042ZM41.9975 91.7925L41.0524 93.4094C41.1905 93.4977 41.3302 93.5839 41.4724 93.667C41.6147 93.7501 41.7602 93.828 41.9062 93.9037L42.8513 92.2869C42.7053 92.2132 42.5604 92.1359 42.4165 92.0528C42.2726 91.9697 42.134 91.8814 41.9986 91.7915L41.9975 91.7925Z" fill="#FFBF40"/>
</g>
<g style="mix-blend-mode:color-burn">
<path d="M48.8658 88.3817C49.2424 87.7375 49.373 87.0944 49.2575 86.4523C49.142 85.8103 48.7251 84.9797 48.0068 83.9607C47.97 83.9095 47.9205 83.8388 47.8582 83.7485C47.0356 82.5853 46.7982 81.7065 47.1462 81.1121C47.3667 80.7341 47.6707 80.5065 48.0582 80.4291C48.4457 80.3518 48.8565 80.4389 49.2906 80.6904C49.5815 80.8514 49.8213 81.0904 49.9826 81.3802C50.1359 81.6614 50.2213 82.015 50.2388 82.4411L51.8807 82.5236C52.0017 81.9035 51.8896 81.2608 51.5657 80.7176C51.3499 80.345 51.0128 80.0142 50.6206 79.7022L51.3031 78.5385L49.8272 77.6846L49.1383 78.8598C48.5376 78.6571 47.9485 78.6053 47.372 78.7292C46.5319 78.9111 45.8754 79.4051 45.4024 80.2112C45.0391 80.8331 44.9141 81.4644 45.0275 82.105C45.141 82.7457 45.5894 83.6482 46.3728 84.8125C46.4253 84.8862 46.5019 84.9959 46.598 85.1423C47.3009 86.1578 47.4824 86.9558 47.1425 87.5362C46.8821 87.9824 46.532 88.2564 46.0924 88.3582C45.6527 88.4599 45.1938 88.3728 44.7157 88.0969C44.2084 87.8027 43.8598 87.4468 43.6697 87.0256C43.4796 86.6044 43.4523 86.1372 43.5883 85.6272L41.9512 85.4751C41.6977 86.2924 41.7282 87.0512 42.0425 87.7515C42.2699 88.2584 42.6422 88.7088 43.1483 89.1055L42.3754 90.4276L43.8503 91.2815L44.6379 89.9316C45.3379 90.1867 46.0157 90.2494 46.6679 90.0999C47.586 89.8916 48.3187 89.3188 48.8658 88.3817Z" fill="#FFB41D"/>
</g>
<path d="M72.2642 14.7238C72.6071 15.4189 73.4026 15.1241 74.1293 14.7698C74.8559 14.4155 75.0786 14.0382 74.8686 13.548C74.6585 13.0579 73.7811 13.4367 73.1663 13.7236C72.5514 14.0105 72.1135 14.4218 72.2642 14.7238Z" fill="#FFB680"/>
<path d="M30.4102 68.2205L30.5866 68.2461C31.8635 68.4295 33.1841 68.6203 34.4595 68.3146C35.9591 67.9556 38.345 66.6016 38.9194 64.9946C39.1294 64.4141 39.1756 63.775 39.2218 63.1578C39.257 62.6875 39.2932 62.202 39.4009 61.7552C39.7626 60.2575 40.5613 58.9443 41.593 58.1531L41.4512 57.9707C40.3791 58.7932 39.5489 60.1535 39.1756 61.7019C39.0632 62.1665 39.026 62.6613 38.9908 63.1405C38.9451 63.7431 38.8989 64.3655 38.7009 64.9173C38.1517 66.4479 35.8535 67.7439 34.4054 68.0909C33.1731 68.3862 31.8751 68.1991 30.6202 68.0177L30.4427 67.9927L30.4102 68.2205Z" fill="#1F163C"/>
<path d="M41.7371 54.769C40.697 57.8521 36.749 56.7244 33.1355 55.7974C30.2429 55.0558 28.6325 58.1192 27.0626 60.3908C25.4926 62.6625 24.0954 64.0023 21.5394 60.5769C17.8429 55.6234 21.3761 50.6887 26.5758 51.4558C31.2757 52.1488 33.7046 51.426 36.3688 50.1875C40.2822 48.3679 42.9049 51.31 41.7371 54.769Z" fill="#1F163C"/>
<path d="M40.2655 52.2045C40.2655 52.2045 44.5349 51.9955 43.6632 55.2449C42.7076 58.8062 38.7308 59.1396 38.1227 61.9861C37.2454 66.0956 31.5442 71.7724 26.198 66.4118C22.1508 62.3535 23.2928 64.2238 27.1699 59.1234C31.047 54.0231 37.8655 51.9229 40.2655 52.2045Z" fill="#1F163C"/>
<path d="M21.3152 57.5982L21.5472 57.5893C21.5409 57.42 21.5331 57.246 21.5252 57.0668C21.4454 55.2581 21.3545 53.2081 22.5296 51.8274C24.0912 49.9932 26.6425 50.1844 29.1098 50.3694C30.8708 50.5016 32.6918 50.6391 34.1567 50.0428C34.5195 49.8955 34.8781 49.7256 35.2247 49.561C36.5079 48.9527 37.7198 48.3784 39.169 48.8414C40.6644 49.3201 42.0621 51.0723 41.6762 52.8235L41.9025 52.8726C42.3146 51.0012 40.8298 49.1299 39.2399 48.6219C37.703 48.1307 36.3924 48.7515 35.1254 49.3535C34.7815 49.5166 34.4261 49.6854 34.0695 49.8301C32.655 50.405 30.8619 50.2707 29.1271 50.1437C26.602 49.9535 23.9909 49.7575 22.3537 51.6821C21.1204 53.1312 21.217 55.3208 21.2947 57.0803C21.3015 57.2559 21.3083 57.4289 21.3152 57.5982Z" fill="#1F163C"/>
<path d="M20.9744 58.6978C20.9891 58.7091 21.0064 58.7166 21.0247 58.7199C21.0429 58.7231 21.0618 58.7219 21.0795 58.7164C21.0972 58.7108 21.1133 58.7011 21.1265 58.6881C21.1396 58.675 21.1494 58.659 21.155 58.6413C22.2356 55.2781 26.6346 53.6931 30.225 53.9089C33.743 54.1205 36.1724 54.6625 36.1966 54.6677C36.2265 54.6746 36.258 54.6694 36.2841 54.6533C36.3102 54.6371 36.3288 54.6113 36.3357 54.5815C36.3427 54.5517 36.3375 54.5203 36.3212 54.4944C36.305 54.4684 36.279 54.4499 36.2491 54.443C36.2249 54.4372 33.7766 53.8917 30.2408 53.679C26.5627 53.4574 22.0497 55.0972 20.9355 58.5708C20.928 58.5934 20.9277 58.6177 20.9347 58.6404C20.9417 58.6632 20.9555 58.6832 20.9744 58.6978Z" fill="#2B1963"/>
<path d="M37.4298 69.9028C38.7593 70.3005 43.6781 71.3477 44.8611 71.6953C46.0441 72.0428 45.1945 72.3161 46.3518 72.7336C47.2911 73.0728 47.1667 72.6672 48.2483 72.5418C49.5085 72.3955 50.0629 73.6591 50.431 73.1574C50.9529 72.4457 47.3473 71.2761 46.4489 70.995C45.3316 70.6444 43.1982 69.9342 41.5658 69.1163C39.9334 68.2985 38.7241 67.7718 37.6619 67.5444C36.8103 67.3626 36.4873 67.049 36.0652 67.673C34.9484 69.328 36.8376 69.7257 37.4298 69.9028Z" fill="#FFB680"/>
<path d="M46.6887 72.2412C46.9129 72.7554 47.6002 72.9399 47.586 73.1782C47.5708 73.4321 46.9077 73.2984 46.5606 73.1855C46.0675 73.0245 45.668 72.2684 45.668 72.2684L46.6887 72.2412Z" fill="#FFB680"/>
<path d="M34.7271 67.48C34.7271 67.48 35.6271 68.776 36.0062 69.2453C36.3853 69.7145 37.0663 69.2494 37.3714 68.8329C37.6764 68.4165 37.2695 67.2955 36.5785 66.2614C35.8875 65.2272 34.6967 67.2386 34.7271 67.48Z" fill="#0097A9"/>
<path d="M30.0295 61.6342C31.0797 63.62 34.9751 68.4037 34.9751 68.4037C34.9751 68.4037 35.8152 68.2992 36.3524 67.6647C36.9825 66.9148 36.9515 66.2721 36.9515 66.2721L33.8494 59.9311C33.8494 59.9311 32.4013 57.0742 31.0713 57.4787C29.1789 58.0561 29.1532 59.9797 30.0295 61.6342Z" fill="#0097A9"/>
<path d="M19.9465 93.8455C19.1521 93.5717 16.9321 92.9974 16.7132 92.9237C16.4706 92.8411 16.0873 92.6938 16.0222 93.4912C15.9571 94.2887 15.9219 94.5364 15.9219 94.5364C15.9219 94.5364 19.4335 94.6289 19.8131 94.5944C20.1928 94.5599 20.6191 94.0776 19.9465 93.8455Z" fill="#0097A9"/>
<path d="M24.8046 62.8848C24.8046 62.8848 26.2139 64.0956 27.0525 66.5428C28.6418 71.1859 30.6476 78.0886 30.9826 79.3652C31.5008 81.3338 27.8973 82.9465 26.0517 80.7793C24.2061 78.6122 22.0486 75.6429 20.8063 73.1011C19.3776 70.1747 19.0531 68.6807 20.1709 66.7116C21.5492 64.2863 23.1538 63.4653 24.8046 62.8848Z" fill="#145A7B"/>
<path d="M30.393 80.9543C28.6602 82.5633 27.5109 83.6565 25.3423 85.7651C23.1738 87.8737 17.4432 93.4872 17.4432 93.4872C17.4432 93.4872 17.2904 93.6686 16.8237 93.505C16.3963 93.3555 16.6063 93.0127 16.6063 93.0127C16.6063 93.0127 17.7247 91.7099 18.3527 90.3805C18.9806 89.0511 22.414 83.3257 23.3623 81.8008C24.3106 80.276 25.5471 77.5157 27.6353 78.0655C29.6164 78.5938 30.7757 80.5984 30.393 80.9543Z" fill="#145A7B"/>
<path d="M0.674585 77.1686C1.27946 76.5869 2.79848 74.8765 2.9644 74.7156C3.14817 74.5379 3.45323 74.2646 2.76855 73.8455C2.08386 73.4264 1.87594 73.2832 1.87594 73.2832C1.87594 73.2832 0.204651 76.358 0.0634078 76.7123C-0.0778349 77.0667 0.16212 77.6603 0.674585 77.1686Z" fill="#0097A9"/>
<path d="M27.5575 63.7006C27.5575 63.7006 27.9035 65.5217 27.0292 67.9564C25.3711 72.576 22.625 79.2216 22.0894 80.4287C21.2645 82.2907 17.4352 81.3213 17.3449 78.4821C17.2546 75.643 17.6474 71.0527 18.2638 68.2919C18.9737 65.1173 19.6846 63.9373 21.7912 63.0886C24.3855 62.0466 25.9003 63.1346 27.5575 63.7006Z" fill="#145A7B"/>
<path d="M19.7283 81.303C17.5073 80.4841 16.0093 79.9505 13.1435 78.966C10.2777 77.9815 2.14913 75.2238 2.14913 75.2238C2.14913 75.2238 2.07509 74.9657 2.18641 74.7425C2.38751 74.3381 2.7162 74.4415 2.7162 74.4415C2.7162 74.4415 4.38906 74.8528 5.86292 74.8157C7.33678 74.7786 14.0203 75.2677 15.815 75.4282C17.6097 75.5886 20.6456 75.4512 21.0851 77.5561C21.502 79.5534 20.2193 81.4843 19.7283 81.303Z" fill="#145A7B"/>
<path d="M18.1055 66.2331C18.1055 66.2331 24.0272 58.0418 30.6903 56.0988C31.7467 55.6734 33.2279 55.5621 34.0029 56.3753C34.3836 56.7745 34.507 57.1199 34.9969 58.1421C35.795 59.806 33.5734 62.0008 32.2744 63.5612C28.4172 68.1923 28.7517 69.9925 28.7517 69.9925C28.7517 69.9925 26.8142 72.0196 22.4751 70.2162C18.6069 68.6114 18.1055 66.2331 18.1055 66.2331Z" fill="#0097A9"/>
<path d="M36.8812 55.5074C36.0542 55.3977 35.201 56.0462 34.0038 56.4637C33.7103 56.5683 33.265 57.2058 34.2747 58.7072C34.845 59.5558 34.4265 60.347 34.731 60.4599C35.6053 59.3891 35.0272 58.5655 35.4262 58.3607C36.0069 58.0628 38.029 57.5674 38.029 57.5674C38.029 57.5674 37.5259 55.5937 36.8812 55.5074Z" fill="#FFB680"/>
<path d="M37.8771 55.2071C38.408 55.1956 39.812 56.3803 41.6319 56.0824C41.9249 56.4007 40.1055 58.5636 38.6527 59.3391C37.2833 60.0707 36.3424 60.0922 35.999 58.4648C35.9727 57.2535 35.56 56.6296 35.8199 55.691C36.9577 55.3524 37.1636 55.2223 37.8771 55.2071Z" fill="#FFB680"/>
<path d="M31.8154 70.3704C32.4455 71.6026 34.3472 76.2363 34.8996 77.3337C35.452 78.4311 35.5722 77.5511 36.1897 78.6109C36.6927 79.4711 35.6426 79.7747 35.8526 80.8407C36.0626 81.9068 36.373 82.4691 36.007 82.4654C35.2514 82.4576 34.9238 79.8457 34.4843 79.0164C33.9403 77.9843 32.8618 76.0189 31.7655 74.5667C30.6692 73.1144 29.9341 72.0196 29.5219 71.0194C29.1916 70.2173 28.8246 69.956 29.3644 69.4329C30.8088 68.0402 31.5355 69.8206 31.8154 70.3704Z" fill="#FFB680"/>
<path d="M35.7622 79.0278C36.3098 79.1568 36.6138 79.7975 36.847 79.7416C37.0959 79.6825 36.847 79.056 36.6732 78.7362C36.4274 78.282 35.6094 78.0244 35.6094 78.0244L35.7622 79.0278Z" fill="#FFB680"/>
<path d="M29.1183 67.8119C29.1183 67.8119 29.0753 69.3869 29.1031 69.9884C29.1309 70.5899 29.9558 70.6155 30.4473 70.4587C30.9387 70.302 31.2806 69.1607 31.3336 67.9201C31.3866 66.6795 29.2375 67.5992 29.1183 67.8119Z" fill="#FFB680"/>
<path d="M28.7941 60.3313C28.4649 62.5507 28.7678 68.7014 28.7678 68.7014C28.7678 68.7014 29.5108 69.1106 30.3173 68.9141C31.2729 68.6811 31.63 68.1423 31.63 68.1423L32.8901 61.2019C32.8901 61.2019 33.4152 58.0456 32.1025 57.5904C30.2322 56.9419 29.0682 58.4809 28.7941 60.3313Z" fill="#0097A9"/>
<path d="M68.6267 95.1074H89.7957C89.9138 94.3233 89.9124 93.5259 89.7915 92.7422H68.6225C68.5047 93.5263 68.5061 94.3237 68.6267 95.1074Z" fill="#FFCA55"/>
<g style="mix-blend-mode:multiply" opacity="0.5">
<path d="M78.7165 95.1074H79.7047L79.7094 92.7422H78.7218L78.7165 95.1074ZM75.8045 95.1074H76.7927L76.7974 92.7422H75.8098L75.8045 95.1074ZM72.893 95.1074H73.8807L73.8859 92.7422H72.8977L72.893 95.1074ZM69.9805 95.1074H70.9686L70.9734 92.7422H69.9852L69.9805 95.1074ZM81.6285 95.1074H82.6167L82.622 92.7422H81.6333L81.6285 95.1074ZM87.4568 92.7422L87.4515 95.1074H88.4397L88.4444 92.7422H87.4568ZM84.54 95.1074H85.5271L85.5319 92.7422H84.5453L84.54 95.1074Z" fill="#FFBF40"/>
</g>
<path d="M69.0446 88.0132H90.2137C90.3318 87.2289 90.3304 86.4313 90.2095 85.6475H69.0404C68.9226 86.4318 68.924 87.2293 69.0446 88.0132Z" fill="#FFCA55"/>
<g style="mix-blend-mode:multiply" opacity="0.5">
<path d="M79.134 88.0132H80.1221L80.1269 85.6475H79.1387L79.134 88.0132ZM76.2219 88.0132H77.2101L77.2148 85.6475H76.2272L76.2219 88.0132ZM73.3105 88.0132H74.2981L74.3034 85.6475H73.3152L73.3105 88.0132ZM70.3984 88.0132H71.3866L71.3913 85.6475H70.4042L70.3984 88.0132ZM82.046 88.0132H83.0342L83.0389 85.6475H82.0512L82.046 88.0132ZM87.8742 85.6475L87.8695 88.0132H88.8577L88.8624 85.6475H87.8742ZM84.9575 88.0132H85.9462L85.9509 85.6475H84.9633L84.9575 88.0132Z" fill="#FFBF40"/>
</g>
<path d="M69.0446 80.917H90.2137C90.3318 80.1328 90.3304 79.3355 90.2095 78.5518H69.0404C68.9226 79.3359 68.924 80.1332 69.0446 80.917Z" fill="#FFCA55"/>
<g style="mix-blend-mode:multiply" opacity="0.5">
<path d="M79.134 80.917H80.1221L80.1269 78.5518H79.1387L79.134 80.917ZM76.2219 80.917H77.2101L77.2148 78.5518H76.2272L76.2219 80.917ZM73.3105 80.917H74.2981L74.3034 78.5518H73.3152L73.3105 80.917ZM70.3984 80.917H71.3866L71.3913 78.5518H70.4042L70.3984 80.917ZM82.046 80.917H83.0342L83.0389 78.5518H82.0512L82.046 80.917ZM87.8742 78.5518L87.8695 80.917H88.8577L88.8624 78.5518H87.8742ZM84.9575 80.917H85.9462L85.9509 78.5518H84.9633L84.9575 80.917Z" fill="#FFBF40"/>
</g>
<path d="M68.3964 90.3788H89.5676C89.6852 89.5947 89.6836 88.7974 89.5629 88.0137H68.3922C68.2741 88.7978 68.2755 89.5951 68.3964 90.3788Z" fill="#FFB839"/>
<g style="mix-blend-mode:multiply" opacity="0.5">
<path d="M78.4827 90.3788H79.4703L79.4756 88.0137H78.489L78.4827 90.3788ZM75.5707 90.3788H76.5583L76.5636 88.0137H75.5754L75.5707 90.3788ZM72.6586 90.3788H73.6463L73.6515 88.0137H72.6634L72.6586 90.3788ZM69.7461 90.3788H70.7348L70.7395 88.0137H69.7513L69.7461 90.3788ZM81.3947 90.3788H82.3823L82.3876 88.0137H81.3994L81.3947 90.3788ZM87.2229 88.0137L87.2182 90.3788H88.2059L88.2111 88.0137H87.2229ZM84.3062 90.3788H85.2944L85.2991 88.0137H84.3114L84.3062 90.3788Z" fill="#FFBF40"/>
</g>
<path d="M67.9318 83.2832H89.1009C89.2188 82.499 89.2172 81.7016 89.0962 80.918H67.9271C67.8092 81.7021 67.8108 82.4995 67.9318 83.2832Z" fill="#FFB839"/>
<g style="mix-blend-mode:multiply" opacity="0.5">
<path d="M78.0168 83.2832H79.005L79.0102 80.918H78.022L78.0168 83.2832ZM75.1053 83.2832H76.0929L76.0982 80.918H75.11L75.1053 83.2832ZM72.1927 83.2832H73.1809L73.1862 80.918H72.198L72.1927 83.2832ZM69.2812 83.2832H70.2694L70.2742 80.918H69.286L69.2812 83.2832ZM80.9288 83.2832H81.917L81.9222 80.918H80.9341L80.9288 83.2832ZM86.757 80.918L86.7523 83.2832H87.7405L87.7452 80.918H86.757ZM83.8403 83.2832H84.8285L84.8337 80.918H83.845L83.8403 83.2832Z" fill="#FFBF40"/>
</g>
<path d="M69.3728 92.7421H90.5419C90.6599 91.958 90.6585 91.1607 90.5377 90.377H69.3686C69.2508 91.1611 69.2522 91.9584 69.3728 92.7421Z" fill="#FFC043"/>
<g style="mix-blend-mode:multiply" opacity="0.5">
<path d="M79.4587 92.7421H80.4464L80.4511 90.377H79.4634L79.4587 92.7421ZM76.5462 92.7421H77.5343L77.5391 90.377H76.5514L76.5462 92.7421ZM73.6342 92.7421H74.6223L74.6276 90.377H73.6394L73.6342 92.7421ZM70.7227 92.7421H71.7108L71.7156 90.377H70.7274L70.7227 92.7421ZM82.3702 92.7421H83.3584L83.3636 90.377H82.3749L82.3702 92.7421ZM88.1984 90.377L88.1937 92.7421H89.1814L89.1866 90.377H88.1984ZM85.2817 92.7421H86.2699L86.2746 90.377H85.2869L85.2817 92.7421Z" fill="#FFBF40"/>
</g>
<path d="M70.3301 76.1874H91.4991C91.617 75.4033 91.6155 74.6059 91.4944 73.8223H70.3253C70.2077 74.6064 70.2093 75.4037 70.3301 76.1874Z" fill="#FFB839"/>
<g style="mix-blend-mode:multiply" opacity="0.5">
<path d="M80.4152 76.1874H81.4034L81.4087 73.8223H80.4205L80.4152 76.1874ZM77.5037 76.1874H78.4903L78.4951 73.8223H77.5085L77.5037 76.1874ZM74.5917 76.1874H75.5794L75.5846 73.8223H74.5964L74.5917 76.1874ZM71.6797 76.1874H72.6679L72.6731 73.8223H71.6849L71.6797 76.1874ZM83.3278 76.1874H84.3154L84.3207 73.8223H83.3325L83.3278 76.1874ZM89.156 73.8223L89.1513 76.1874H90.1395L90.1442 73.8223H89.156ZM86.2398 76.1874H87.2275L87.2327 73.8223H86.2445L86.2398 76.1874Z" fill="#FFBF40"/>
</g>
<path d="M68.4199 78.5517H89.589C89.7066 77.7675 89.7051 76.9702 89.5843 76.1865H68.4152C68.2975 76.9707 68.2991 77.768 68.4199 78.5517Z" fill="#FFC043"/>
<g style="mix-blend-mode:multiply" opacity="0.5">
<path d="M78.5051 78.5517H79.4932L79.498 76.1865H78.5103L78.5051 78.5517ZM75.593 78.5517H76.5812L76.5865 76.1865H75.5983L75.593 78.5517ZM72.681 78.5517H73.6697L73.6744 76.1865H72.6863L72.681 78.5517ZM69.7695 78.5517H70.7577L70.763 76.1865H69.7743L69.7695 78.5517ZM81.4171 78.5517H82.4053L82.41 76.1865H81.4218L81.4171 78.5517ZM87.2453 76.1865L87.2401 78.5517H88.2282L88.233 76.1865H87.2453ZM84.328 78.5517H85.3162L85.3215 76.1865H84.3328L84.328 78.5517Z" fill="#FFBF40"/>
</g>
<path d="M70.3301 85.6488H91.4991C91.617 84.8649 91.6154 84.0677 91.4944 83.2842H70.3253C70.2077 84.0682 70.2093 84.8653 70.3301 85.6488Z" fill="#FFC043"/>
<g style="mix-blend-mode:multiply" opacity="0.5">
<path d="M80.4152 85.6488H81.4034L81.4086 83.2842H80.4205L80.4152 85.6488ZM77.5037 85.6488H78.4903L78.495 83.2842H77.5084L77.5037 85.6488ZM74.5917 85.6488H75.5794L75.5846 83.2842H74.5964L74.5917 85.6488ZM71.6797 85.6488H72.6679L72.6731 83.2842H71.6849L71.6797 85.6488ZM83.3277 85.6488H84.3154L84.3206 83.2842H83.3325L83.3277 85.6488ZM89.156 83.2842L89.1492 85.6488H90.1373L90.1421 83.2842H89.156ZM86.2398 85.6488H87.2274L87.2327 83.2842H86.2445L86.2398 85.6488Z" fill="#FFBF40"/>
</g>
<path style="mix-blend-mode:color-burn" opacity="0.5" d="M89.0988 83.283C89.2167 82.4988 89.2151 81.7015 89.094 80.9178H90.215C90.333 80.1337 90.3318 79.3364 90.2114 78.5526H89.5865C89.7041 77.7685 89.7027 76.9712 89.5823 76.1874H91.4967C91.6146 75.4033 91.613 74.6059 91.492 73.8223H86.5464C86.6673 74.606 86.6687 75.4033 86.5506 76.1874H84.6362C84.7571 76.9711 84.7585 77.7685 84.6404 78.5526H85.2652C85.3856 79.3364 85.387 80.1336 85.2695 80.9178H84.1484C84.269 81.7015 84.2704 82.4988 84.1526 83.283H86.5464C86.6673 84.0665 86.6687 84.8637 86.5506 85.6476H85.2652C85.3856 86.4315 85.387 87.229 85.2695 88.0133H84.6147C84.7352 88.797 84.7368 89.5943 84.6194 90.3785H85.5903C85.7106 91.1622 85.712 91.9595 85.5945 92.7437H84.8462C84.9673 93.5273 84.9689 94.3247 84.851 95.1089H89.7971C89.9147 94.3247 89.9131 93.5274 89.7924 92.7437H90.5401C90.6581 91.9596 90.6567 91.1622 90.5359 90.3785H89.5671C89.685 89.5944 89.6834 88.797 89.5624 88.0133H90.2171C90.3351 87.229 90.3339 86.4315 90.2135 85.6476H91.4988C91.6167 84.8637 91.6151 84.0665 91.4941 83.283H89.0988Z" fill="url(#paint5_linear_3235_132683)"/>
<path d="M88.2065 26.6219C87.6436 26.6031 87.1821 27.1419 86.9715 27.0274C86.7473 26.9046 87.1527 26.3653 87.4047 26.1025C87.7617 25.7283 88.2222 25.7178 88.7972 25.236C89.0765 25.0019 88.2065 26.6219 88.2065 26.6219Z" fill="#FFB680"/>
<path d="M96.2974 21.8855C95.2552 22.3976 91.7047 24.6677 89.6816 25.879C89.2883 26.1147 89.4816 26.7319 89.0258 27.5612C88.2445 28.9847 87.1161 29.547 86.9187 29.4576C86.6457 29.3354 86.5569 28.6858 87.5819 27.394C88.4745 26.2663 88.0397 25.8184 88.1594 25.7348C89.4674 24.8334 90.8551 23.0315 92.2024 22.048C93.6726 20.9726 94.6655 19.998 95.6747 19.5987C96.4844 19.2784 97.3586 19.466 97.5455 20.195C97.8711 21.4654 96.8524 21.6133 96.2974 21.8855Z" fill="#FFB680"/>
<path d="M98.4667 19.251C98.4667 19.251 97.7579 20.6594 97.4481 21.1767C97.1383 21.6941 96.3979 21.3283 96.0409 20.9583C95.6838 20.5883 95.9212 19.4224 96.461 18.3036C97.0007 17.1848 98.4625 19.007 98.4667 19.251Z" fill="#FFB680"/>
<path d="M102.601 13.3435C101.481 15.5321 98.3479 20.2008 98.3479 20.2008C98.3479 20.2008 97.4988 20.2133 96.8813 19.6604C96.1494 19.0067 96.0938 18.365 96.0938 18.365L98.5185 10.1208C98.5185 10.1208 99.3061 8.62468 100.68 8.83945C102.635 9.14359 103.454 11.677 102.601 13.3435Z" fill="#0097A9"/>
<defs>
<linearGradient id="paint0_linear_3235_132683" x1="78.2269" y1="35.5183" x2="142.846" y2="-5.94621" gradientUnits="userSpaceOnUse">
<stop stop-color="white"/>
<stop offset="1" stop-color="#B7B7B7"/>
</linearGradient>
<linearGradient id="paint1_linear_3235_132683" x1="18089.9" y1="2105.6" x2="33554.1" y2="-7204" gradientUnits="userSpaceOnUse">
<stop stop-color="white"/>
<stop offset="1" stop-color="#B7B7B7"/>
</linearGradient>
<linearGradient id="paint2_linear_3235_132683" x1="12316.3" y1="1946.57" x2="7597.4" y2="5938.17" gradientUnits="userSpaceOnUse">
<stop stop-color="white"/>
<stop offset="1" stop-color="#B7B7B7"/>
</linearGradient>
<linearGradient id="paint3_linear_3235_132683" x1="20491.1" y1="2971.24" x2="20491.1" y2="18606.4" gradientUnits="userSpaceOnUse">
<stop stop-color="white"/>
<stop offset="1" stop-color="#B7B7B7"/>
</linearGradient>
<linearGradient id="paint4_linear_3235_132683" x1="10732.2" y1="24510.7" x2="19661.6" y2="42716.4" gradientUnits="userSpaceOnUse">
<stop stop-color="white"/>
<stop offset="1" stop-color="#B7B7B7"/>
</linearGradient>
<linearGradient id="paint5_linear_3235_132683" x1="12710.3" y1="23104" x2="12710.3" y2="44249.7" gradientUnits="userSpaceOnUse">
<stop stop-color="white"/>
<stop offset="1" stop-color="#B7B7B7"/>
</linearGradient>
</defs>
</svg>
