<svg width="45" height="36" viewBox="0 0 45 36" fill="none" xmlns="http://www.w3.org/2000/svg">
<path d="M35 13.2443C35 20.5578 29.1796 26.4887 21.9999 26.4887C14.8201 26.4887 9 20.559 9 13.2443C9 5.92971 14.8207 0 22.0004 0C29.1802 0 35 5.92971 35 13.2443Z" fill="#D75426"/>
<path d="M32.372 13.2432C32.372 19.0794 27.7287 23.8105 21.9995 23.8105C16.2703 23.8105 11.627 19.08 11.627 13.2432C11.627 7.40632 16.2703 2.67578 21.9995 2.67578C27.7287 2.67578 32.372 7.4069 32.372 13.2432Z" fill="white"/>
<path d="M29.7257 13.2451C29.7257 17.5917 26.2671 21.1152 22.0004 21.1152C17.7337 21.1152 14.2754 17.5917 14.2754 13.2451C14.2754 8.89852 17.734 5.375 22.0004 5.375C26.2668 5.375 29.7257 8.89998 29.7257 13.2451Z" fill="#D75426"/>
<path d="M26.892 13.2453C26.8921 14.2311 26.6053 15.1948 26.0678 16.0145C25.5303 16.8343 24.7662 17.4732 23.8723 17.8505C22.9784 18.2279 21.9947 18.3266 21.0456 18.1344C20.0966 17.9421 19.2248 17.4675 18.5405 16.7705C17.8563 16.0734 17.3903 15.1853 17.2015 14.2185C17.0127 13.2516 17.1095 12.2494 17.4798 11.3387C17.85 10.4279 18.4771 9.64944 19.2816 9.10175C20.0862 8.55405 21.0321 8.26172 21.9997 8.26172C23.2971 8.26172 24.5414 8.78676 25.4589 9.72135C26.3763 10.6559 26.8919 11.9235 26.892 13.2453Z" fill="white"/>
<path d="M24.6955 13.2421C24.6955 13.7852 24.5374 14.3162 24.2412 14.7677C23.9451 15.2193 23.5241 15.5713 23.0316 15.7791C22.5391 15.987 21.9971 16.0414 21.4742 15.9354C20.9514 15.8294 20.4711 15.5679 20.0942 15.1839C19.7172 14.7998 19.4605 14.3105 19.3565 13.7779C19.2525 13.2452 19.3059 12.693 19.5099 12.1913C19.7139 11.6895 20.0594 11.2606 20.5026 10.9589C20.9459 10.6571 21.467 10.4961 22.0001 10.4961C22.715 10.4961 23.4005 10.7854 23.906 11.3004C24.4115 11.8154 24.6955 12.5138 24.6955 13.2421Z" fill="#953918"/>
<path d="M41.7381 13.8298L43.5597 13.1719L44.8872 13.6501L40.3068 19.0892L36.957 19.5064L41.7381 13.8298Z" fill="black"/>
<path d="M43.5586 13.1719L42.897 13.4108L37.8574 19.3942L40.3057 19.0892L44.8861 13.6501L43.5586 13.1719Z" fill="#145A7B"/>
<path d="M41.0139 13.1985L41.3386 11.4615L40.7093 10L36.1289 15.4392L36.2328 18.8751L41.0139 13.1985Z" fill="black"/>
<path d="M41.3386 11.4615L41.2442 11.9666L36.205 17.9503L36.1289 15.4392L40.7093 10L41.3386 11.4615Z" fill="#145A7B"/>
<path d="M23.7243 35.2185L41.7463 13.8202C41.7891 13.7721 41.8219 13.7157 41.843 13.6544C41.864 13.5931 41.8728 13.5281 41.8688 13.4633C41.8648 13.3985 41.8481 13.3352 41.8197 13.2771C41.7912 13.219 41.7517 13.1673 41.7033 13.125C41.6549 13.0827 41.5987 13.0507 41.538 13.0309C41.4773 13.0112 41.4134 13.004 41.3499 13.0098C41.2864 13.0156 41.2247 13.0343 41.1685 13.0648C41.1122 13.0953 41.0625 13.137 41.0223 13.1874L23 34.5853L23.7243 35.2185Z" fill="#231F20"/>
<path d="M2.4465 14.8339L1.03166 14.3477L0.000542164 14.7011L3.5583 18.7214L6.16016 19.0297L2.4465 14.8339Z" fill="black"/>
<path d="M1.03066 14.3477L1.54458 14.5242L5.45898 18.9467L3.5573 18.7214L-0.000454426 14.7011L1.03066 14.3477Z" fill="#145A7B"/>
<path d="M3.00839 14.3641L2.75622 13.0802L3.24498 12L6.80273 16.0202L6.72205 18.5599L3.00839 14.3641Z" fill="black"/>
<path d="M2.75622 13.0802L2.82952 13.4536L6.74366 17.8763L6.80273 16.0202L3.24498 12L2.75622 13.0802Z" fill="#145A7B"/>
<path d="M16.4374 30.6392L2.43912 14.8231C2.40589 14.7875 2.38035 14.7459 2.36401 14.7006C2.34766 14.6553 2.34084 14.6073 2.34396 14.5594C2.34707 14.5115 2.36005 14.4647 2.38212 14.4217C2.4042 14.3787 2.43493 14.3405 2.4725 14.3093C2.51007 14.278 2.55372 14.2544 2.60087 14.2398C2.64802 14.2251 2.69771 14.2198 2.74702 14.2241C2.79632 14.2284 2.84424 14.2422 2.88794 14.2648C2.93163 14.2873 2.97023 14.3181 3.00145 14.3554L17 30.1712L16.4374 30.6392Z" fill="#231F20"/>
</svg>
