<svg width="39" height="41" viewBox="0 0 39 41" fill="none" xmlns="http://www.w3.org/2000/svg">
    <g clip-path="url(#kwj1rdvsya)">
        <path d="M33.091 24.63c0 9.04-7.194 16.37-16.069 16.37S.952 33.67.952 24.63c0-9.042 7.196-16.372 16.07-16.372 8.876 0 16.07 7.33 16.07 16.371z" fill="#D75426"/>
        <path d="M29.843 24.629c0 7.214-5.74 13.062-12.821 13.062C9.94 37.691 4.2 31.844 4.2 24.629c0-7.215 5.74-13.063 12.822-13.063 7.082 0 12.821 5.848 12.821 13.063z" fill="#fff"/>
        <path d="M26.571 24.629c0 5.372-4.275 9.728-9.549 9.728-5.274 0-9.549-4.356-9.549-9.728 0-5.373 4.275-9.729 9.549-9.729 5.274 0 9.55 4.358 9.55 9.729z" fill="#D75426"/>
        <path d="M23.07 24.629c0 1.218-.355 2.41-1.02 3.423a6.073 6.073 0 0 1-2.713 2.27 5.944 5.944 0 0 1-3.494.35 6.013 6.013 0 0 1-3.097-1.686 6.198 6.198 0 0 1-1.655-3.154 6.268 6.268 0 0 1 .344-3.56 6.138 6.138 0 0 1 2.227-2.765 5.968 5.968 0 0 1 3.36-1.038 5.99 5.99 0 0 1 4.276 1.804 6.22 6.22 0 0 1 1.771 4.356z" fill="#fff"/>
        <path d="M20.355 24.629a3.44 3.44 0 0 1-.562 1.886 3.345 3.345 0 0 1-1.495 1.25 3.275 3.275 0 0 1-1.925.193 3.314 3.314 0 0 1-1.706-.93 3.414 3.414 0 0 1-.912-1.737 3.453 3.453 0 0 1 .19-1.961c.252-.62.679-1.15 1.227-1.524a3.289 3.289 0 0 1 1.85-.572c.885 0 1.732.358 2.357.995.625.636.976 1.5.976 2.4z" fill="#D75426"/>
        <path d="m35.69 3.832 1.82-.658 1.328.478-4.58 5.44-3.35.416 4.781-5.676z" fill="#000"/>
        <path d="m37.51 3.174-.66.239-5.04 5.983 2.448-.305 4.58-5.439-1.327-.478z" fill="#145A7B"/>
        <path d="m34.965 3.199.325-1.738L34.66 0l-4.58 5.44.104 3.435L34.965 3.2z" fill="#000"/>
        <path d="m35.29 1.461-.095.506-5.039 5.983-.076-2.51L34.66 0l.63 1.461z" fill="#145A7B"/>
        <path d="M17.676 25.218 35.698 3.82a.489.489 0 0 0 .074-.543.486.486 0 0 0-.282-.246.468.468 0 0 0-.516.156L16.952 24.585l.724.633z" fill="#231F20"/>
    </g>
    <defs>
        <clipPath id="kwj1rdvsya">
            <path fill="#fff" transform="translate(.952)" d="M0 0h37.886v41H0z"/>
        </clipPath>
    </defs>
</svg>
