<svg width="336" height="200" viewBox="0 0 336 200" fill="none" xmlns="http://www.w3.org/2000/svg">
    <path opacity=".465" fill-rule="evenodd" clip-rule="evenodd" d="M280.061 103.236c22.89-19.84 2.02-45.985-46.615-58.396l-.036-.01c-2.29-.584-4.055-1.576-5.103-2.885-5.07-6.327-11.85-12.443-20.322-18.064-39.307-26.083-100.107-31.661-135.8-12.46-35.692 19.202-32.761 55.912 6.546 81.995 20.166 13.382 45.99 21.367 71.179 23.377a18.45 18.45 0 0 1 2.861.443c48.166 11.676 104.747 5.54 127.29-14z" fill="#CDEEEC"/>
    <path fill-rule="evenodd" clip-rule="evenodd" d="M260.535 160.742a.385.385 0 0 1-.378-.447c.571-3.588 3.378-6.191 6.67-6.191.813 0 1.603.157 2.358.468a8.232 8.232 0 0 1-.076-1.12c0-4.138 3.041-7.504 6.776-7.504 1.025 0 2.045.26 2.963.754 1.621-1.327 3.539-2.027 5.563-2.027 3.253 0 6.29 1.889 7.993 4.954a5.143 5.143 0 0 1 1.598-.258c3.141 0 5.698 2.829 5.698 6.305 0 .631-.084 1.252-.252 1.852 1.836.107 3.559 1.037 4.77 2.589.13.167.102.41-.064.542a.382.382 0 0 1-.538-.064c-1.142-1.465-2.791-2.305-4.525-2.305l-.094.002-.064.002a.384.384 0 0 1-.367-.519c.245-.672.37-1.378.37-2.099 0-3.051-2.213-5.533-4.934-5.533-.553 0-1.104.108-1.639.32a.381.381 0 0 1-.479-.181c-1.538-2.982-4.401-4.835-7.473-4.835-1.925 0-3.748.697-5.273 2.015a.376.376 0 0 1-.441.039 5.517 5.517 0 0 0-2.812-.781c-3.314 0-6.012 3.02-6.012 6.732 0 .465.044.931.13 1.387a.4.4 0 0 1-.071.304c-.053.069-.102.138-.153.208a.38.38 0 0 1-.482.12 5.42 5.42 0 0 0-2.47-.595c-2.914 0-5.403 2.33-5.915 5.541a.383.383 0 0 1-.377.325z" fill="#2A8C79"/>
    <path fill-rule="evenodd" clip-rule="evenodd" d="M57.252 85.555c0 1.709-2.03 3.094-4.533 3.094-2.504 0-4.534-1.385-4.534-3.094 0-1.71 2.03-3.095 4.534-3.095 2.503 0 4.533 1.385 4.533 3.095zM62.14 91.61c0 .616-.732 1.116-1.635 1.116-.904 0-1.636-.5-1.636-1.116 0-.617.732-1.117 1.636-1.117.903 0 1.635.5 1.635 1.117z" fill="#96DAD5"/>
    <path fill-rule="evenodd" clip-rule="evenodd" d="M336 170.459c0-6.045-75.216-10.946-168-10.946S0 164.414 0 170.459c0 3.501 25.222 6.618 64.47 8.622-3.448 1.451-5.355 3.045-5.355 4.719 0 6.704 30.603 12.139 68.354 12.139 31.102 0 57.352-8.24 65.634-11.142a12.01 12.01 0 0 1 5.701-.547c8.856 1.295 35.819 4.941 58.706 4.941 37.751 0 68.353-5.435 68.353-12.14 0-.883-.535-1.744-1.542-2.573 7.536-1.245 11.679-2.6 11.679-4.019z" fill="#E7F7F6"/>
    <path fill-rule="evenodd" clip-rule="evenodd" d="M322.586 165.008c-.204-.915-1.588-1.56-3.406-1.711a1.992 1.992 0 0 0-.342-.781c-.997-1.39-3.742-1.862-6.794-1.343-.003-.004-.003-.008-.005-.012 3.498-3.576 3.692-8.516-.005-12.292-4.661-4.761-13.74-5.869-20.277-2.475-1.741.905-3.125 2.037-4.133 3.303a9.66 9.66 0 0 0-.93.647c-.895-1.221-2.267-2.002-3.804-2.002-2.325 0-4.27 1.787-4.765 4.181l-.122-.001c-6.369 0-11.736 3.121-13.375 7.378-3.774-.641-7.167-.058-8.401 1.661a2.457 2.457 0 0 0-.423.965c-2.246.187-3.957.984-4.209 2.115-.11.487.066.978.466 1.435h31.454l.068.092h38.626c.324-.37.466-.767.377-1.16zM112.333 166.635c0-5.465-3.652-9.895-8.157-9.895-.923 0-1.81.189-2.638.533-1.78-3.108-4.348-5.497-7.354-6.746-1.443-8.07-7.36-14.115-14.444-14.115-2.052 0-4.007.508-5.784 1.425-2.262-6.387-7.493-10.861-13.587-10.861-7.118 0-13.06 6.105-14.466 14.233-.106-.002-.21-.009-.317-.009-6.85 0-12.61 5.653-14.287 13.323-3.14.529-5.962 2.254-8.148 4.784-1.306-1.078-2.884-1.709-4.583-1.709-4.504 0-8.156 4.43-8.156 9.895H112.3c.02-.283.033-.568.033-.858z" fill="#2A4D52"/>
    <path fill-rule="evenodd" clip-rule="evenodd" d="M71.269 165.75c0 1.117-.547 2.112-1.405 2.76h-31.24c-.858-.648-1.405-1.643-1.405-2.76 0-1.959 1.68-3.545 3.752-3.545.578 0 1.876.126 3.44.347-1.445-.755-2.62-1.437-3.123-1.788-1.794-1.254-2.592-3.649-1.788-5.341.808-1.697 2.916-2.051 4.707-.793.503.351 1.575 1.247 2.84 2.387-.942-1.533-1.68-2.833-1.97-3.443-1.033-2.177-.741-4.735.654-5.711 1.398-.979 3.369-.007 4.406 2.169.289.607.848 2.032 1.474 3.79-.186-1.899-.286-3.473-.286-4.178 0-2.512 1.307-4.548 2.919-4.548s2.919 2.036 2.919 4.548c0 .705-.1 2.279-.286 4.178.625-1.758 1.185-3.183 1.474-3.79 1.037-2.176 3.007-3.148 4.405-2.169 1.395.976 1.691 3.534.654 5.711-.29.61-1.028 1.91-1.97 3.443 1.266-1.14 2.338-2.036 2.84-2.387 1.795-1.258 3.9-.904 4.707.793.808 1.692.007 4.087-1.788 5.341-.502.351-1.677 1.033-3.123 1.788 1.565-.221 2.863-.347 3.44-.347 2.072 0 3.753 1.586 3.753 3.545z" fill="#96DAD5"/>
    <path fill-rule="evenodd" clip-rule="evenodd" d="M119.591 167.65c0-2.971-1.985-5.38-4.433-5.38-.111 0-.221.007-.329.017-.982-4.04-4.06-6.99-7.708-6.99-3.724 0-6.855 3.073-7.767 7.243-1.17.197-2.258.7-3.21 1.439-1.474-2.169-3.706-3.552-6.204-3.552-2.365 0-4.49 1.239-5.96 3.21-1.261-3.382-4.065-5.737-7.324-5.737-3.011 0-5.634 2.01-7.01 4.983a3.698 3.698 0 0 0-1.027-.147c-2.319 0-4.22 2.161-4.416 4.914h55.388z" fill="#EDFBFB"/>
    <path fill-rule="evenodd" clip-rule="evenodd" d="M91.884 176.009c-.118-.297-.955-.256-2.049.057 1.066-1.519 1.496-2.925.959-3.412-.62-.562-2.308.299-3.899 1.941-.218-1.388-.593-2.304-1.018-2.304-.499 0-.927 1.257-1.116 3.057-.733-1.57-1.652-2.555-2.31-2.349-.8.25-.93 2.179-.333 4.419h8.19c1.036-.541 1.695-1.107 1.576-1.409z" fill="#2A8C79"/>
    <path fill-rule="evenodd" clip-rule="evenodd" d="M53.219 186.643c0 1.526-5.133 2.763-11.464 2.763s-11.464-1.237-11.464-2.763c0-1.527 5.133-2.764 11.464-2.764s11.464 1.237 11.464 2.764zM232.878 197.236c0 1.527-5.132 2.764-11.463 2.764-6.331 0-11.464-1.237-11.464-2.764 0-1.526 5.133-2.763 11.464-2.763s11.463 1.237 11.463 2.763zM15.63 182.496c0 .763-2.335 1.382-5.216 1.382-2.88 0-5.215-.619-5.215-1.382 0-.763 2.335-1.382 5.215-1.382s5.216.619 5.216 1.382z" fill="#96DAD5"/>
    <path fill-rule="evenodd" clip-rule="evenodd" d="m262.877 173.533-.053 1.2c0 .031-.003.063-.003.095.079-.09.227-.194.408-.28.301-.144.599-.15.627-.091.026.059-.166.287-.469.431-.242.116-.472.165-.576.13l-.049 1.165c-.002.063-.15.064-.148 0l.034-.814.03-.697c-.137.061-.461.024-.813-.103-.439-.159-.737-.449-.709-.534.031-.086.444-.118.882.04.299.108.541.253.65.378l.023-.535c.005-.144.013-.287.018-.431l.148.046z" fill="#2A4D52"/>
    <path fill-rule="evenodd" clip-rule="evenodd" d="m262.996 173.635-.071.01c-.956.12-1.767-.092-1.816-.473-.045-.38.689-.786 1.645-.906.953-.12 1.767.092 1.813.473.043.35-.577.722-1.42.872l-.151.024z" fill="#EDFBFB"/>
    <path fill-rule="evenodd" clip-rule="evenodd" d="M260.133 177.304c.01.222.02.445.028.668.003.017.003.035.003.053a.728.728 0 0 0-.227-.156c-.169-.08-.334-.084-.35-.051-.015.033.095.159.26.24.138.064.266.091.322.072l.028.648c.002.036.084.036.081 0l-.018-.453-.017-.387c.079.034.257.013.453-.058.245-.088.411-.249.393-.297-.015-.048-.245-.066-.489.023-.166.06-.301.14-.363.21-.005-.099-.007-.199-.012-.298-.003-.08-.008-.16-.01-.24l-.082.026z" fill="#2A4D52"/>
    <path fill-rule="evenodd" clip-rule="evenodd" d="M260.063 177.361c.013.003.026.004.041.006.53.067.982-.051 1.007-.263.028-.213-.382-.438-.913-.505-.532-.067-.984.051-1.009.263-.026.195.321.402.79.486l.084.013z" fill="#EDFBFB"/>
    <path fill-rule="evenodd" clip-rule="evenodd" d="M281.468 88.749c0 1.233-1.464 2.233-3.271 2.233-1.805 0-3.271-1-3.271-2.233s1.466-2.233 3.271-2.233c1.807 0 3.271 1 3.271 2.233z" fill="#96DAD5"/>
    <path fill-rule="evenodd" clip-rule="evenodd" d="M309.157 172.357h-4.087a.442.442 0 0 1-.222-.066h-6.305c0-.386.01-.762.031-1.139.094-2.022.41-3.843.879-5.268.602-1.792 1.441-2.946 2.371-3.041.041-.005.084-.005.125-.005.74 0 1.43.667 1.989 1.796.561 1.139.994 2.75 1.226 4.621.502-.983 1.188-1.71 1.95-1.71 1.224 0 2.262 1.881 2.629 3.688.12.561-.173 1.124-.586 1.124z" fill="#EDFBFB"/>
    <path fill-rule="evenodd" clip-rule="evenodd" d="M300.402 175.455h-3.656c-.356 0-.632-.473-.535-.957.028-.139.059-.281.097-.42.385-1.494 1.254-2.928 2.266-2.928 1.097 0 2.027 1.683 2.356 3.302.105.501-.155 1.003-.528 1.003z" fill="#2A4D52"/>
    <path fill-rule="evenodd" clip-rule="evenodd" d="M99.439 186.225c0 .437-1.69.791-3.772.791-2.084 0-3.773-.354-3.773-.791 0-.437 1.69-.79 3.773-.79s3.772.353 3.772.79z" fill="#2A8C79"/>
    <path fill-rule="evenodd" clip-rule="evenodd" d="m77.826 157.863-.002-.008c1.05-1.799 2.781-3.017 4.753-3.272 1.441-.187 2.87.135 4.143.93a4.506 4.506 0 0 1 2.04-.81c2.66-.344 5.128 1.771 5.502 4.717.034.266.05.535.048.804a4.408 4.408 0 0 1 1.635-.551c2.344-.303 4.577 1.291 5.309 3.792a.276.276 0 0 1-.229.353.275.275 0 0 1-.298-.196c-.655-2.238-2.637-3.668-4.712-3.399a3.897 3.897 0 0 0-1.704.651.273.273 0 0 1-.354-.041 7.61 7.61 0 0 0-.126-.134.277.277 0 0 1-.079-.21c.02-.332.008-.668-.034-.999-.336-2.642-2.529-4.543-4.888-4.237a3.964 3.964 0 0 0-1.93.815.271.271 0 0 1-.319.013c-1.203-.798-2.563-1.126-3.934-.949-2.037.264-3.8 1.657-4.697 3.678-.035-.316-.082-.632-.124-.947z" fill="#EDFBFB"/>
    <path fill-rule="evenodd" clip-rule="evenodd" d="M265.407 166.186v-.064l-.012.001c.005.021.01.041.012.063zM262.216 166.448c.005-.06.007-.116.01-.171l-.072.004.062.167zM264.628 164.017c-.002 1.945-.278 1.334-.321 2.013-.301-1.359-.612-1.374-.612-1.374s-.089.096-.375 1.567l2.076-.102c-.482-2.43-.768-2.104-.768-2.104zM262.223 163.868c0 1.48.061 1.418 0 2.409l1.096-.054c-.431-1.77-1.096-2.355-1.096-2.355zM265.499 164.743c-.071.6-.099.749-.092 1.379l.519-.025c-.1-.854-.411-1.436-.427-1.354zM269.012 166.371l.002-.048-.01.001.008.047zM266.09 166.61l.023-.129-.066.004c.015.04.028.081.043.125zM268.094 166.373l.908-.049c-.283-1.815-.566-1.567-.566-1.567-.117 1.37-.171 1.064-.377 1.434-.174-.836-.671-1.286-.556-.728-.043.164-.128.451-.288.958l.482-.026.397-.022z" fill="#96DAD5"/>
    <path fill-rule="evenodd" clip-rule="evenodd" d="M266.265 164.675c-.054.619-.212.819-.227 1.056-.033.096-.079.263-.112.364l.239-.011c-.01.108-.028.232-.053.396l1.208-.276c-.278-1.321-1.055-1.529-1.055-1.529zM269.187 165.289c-.102.451-.138.563-.171 1.036l.472-.026c-.036-.639-.283-1.072-.301-1.01zM270.011 165.548c.015-.042-.174.338-.37.744l.431-.023c-.043-.384-.074-.688-.061-.721zM316.788 166.31c-.002-.02-.002-.043-.002-.064l-.011.001c.003.021.008.041.013.063zM313.593 166.573c.005-.06.007-.116.012-.171l-.074.004.062.167z" fill="#96DAD5"/>
    <path fill-rule="evenodd" clip-rule="evenodd" d="M316.007 164.143c0 1.946-.278 1.335-.322 2.014-.301-1.36-.612-1.374-.612-1.374s-.086.096-.372 1.566l2.075-.101c-.484-2.431-.769-2.105-.769-2.105zM313.604 163.994c0 1.48.058 1.418 0 2.409l1.096-.054c-.431-1.77-1.096-2.355-1.096-2.355zM316.878 164.868c-.069.599-.099.749-.092 1.379l.519-.026c-.1-.853-.411-1.436-.427-1.353zM320.389 166.497l.002-.048-.01.001.008.047zM317.47 166.735l.02-.129-.066.004.046.125zM319.476 166.498l.905-.048c-.283-1.816-.563-1.568-.563-1.568-.118 1.371-.174 1.064-.38 1.434-.174-.836-.671-1.286-.556-.728-.043.164-.128.451-.288.958l.482-.026.4-.022z" fill="#96DAD5"/>
    <path fill-rule="evenodd" clip-rule="evenodd" d="M317.644 164.802c-.053.619-.214.819-.229 1.056-.031.096-.079.262-.112.364l.242-.011c-.013.108-.031.232-.056.396l1.208-.276c-.278-1.321-1.053-1.529-1.053-1.529zM320.562 165.415c-.102.451-.138.563-.171 1.036l.472-.026c-.036-.639-.281-1.072-.301-1.01zM321.386 165.672c.015-.042-.171.338-.37.744l.434-.023c-.044-.384-.077-.688-.064-.721z" fill="#96DAD5"/>
    <path fill-rule="evenodd" clip-rule="evenodd" d="m266.206 176.445-.039.907-.002.072a.996.996 0 0 1 .308-.212c.23-.108.454-.113.474-.068.021.044-.124.216-.354.325-.183.088-.357.125-.436.099l-.038.881c0 .048-.112.048-.11 0l.026-.616.023-.527c-.105.046-.35.019-.617-.078-.332-.12-.556-.339-.533-.404.023-.064.334-.089.665.031.227.081.408.191.492.285l.018-.404c.003-.108.008-.217.013-.326l.11.035z" fill="#2A4D52"/>
    <path fill-rule="evenodd" clip-rule="evenodd" d="M266.2 176.538a9.792 9.792 0 0 1-.056-.003c-.726-.045-1.3-.316-1.282-.606.018-.29.619-.489 1.346-.444.727.045 1.3.316 1.282.606-.015.267-.527.456-1.175.45l-.115-.003z" fill="#FF90A0"/>
    <path fill-rule="evenodd" clip-rule="evenodd" d="M292.352 166.341v-.058l.01.001c-.003.019-.008.038-.01.057zM295.518 166.581c-.003-.054-.008-.105-.01-.155l.071.003-.061.152zM293.126 164.367c.002 1.773.275 1.217.318 1.835.299-1.239.605-1.252.605-1.252s.089.087.372 1.428l-2.058-.093c.48-2.215.763-1.918.763-1.918z" fill="#96DAD5"/>
    <path fill-rule="evenodd" clip-rule="evenodd" d="M295.506 164.231c0 1.35-.059 1.293 0 2.196l-1.086-.049c.426-1.613 1.086-2.147 1.086-2.147zM292.262 165.026c.069.547.097.683.089 1.258l-.513-.024c.099-.778.408-1.31.424-1.234zM288.784 166.512l-.003-.043.011.001-.008.042zM291.677 166.728c-.008-.041-.016-.079-.021-.117l.064.004-.043.113zM289.69 166.513l-.897-.045c.28-1.655.558-1.429.558-1.429.118 1.25.171.97.378 1.308.17-.763.663-1.173.548-.664.043.149.127.411.288.873l-.479-.024-.396-.019z" fill="#96DAD5"/>
    <path fill-rule="evenodd" clip-rule="evenodd" d="M291.504 164.966c.051.565.209.746.225.963.03.087.079.239.112.332l-.24-.011c.013.099.031.212.056.362l-1.198-.252c.275-1.204 1.045-1.394 1.045-1.394zM288.613 165.526c.1.411.135.513.169.944l-.468-.023c.036-.583.279-.978.299-.921zM287.794 165.759c-.015-.038.169.307.365.678l-.429-.021c.044-.35.074-.628.064-.657zM285.98 165.79c-.049-.06-.388.029-.694.278-.066.054-.127.11-.181.165.028-.059.056-.125.082-.197.092-.266.069-.515.018-.533-.051-.018-.22.164-.311.43a1.456 1.456 0 0 0-.069.293c-.008-.02-.013-.039-.021-.058a1.185 1.185 0 0 0-.153-.281c.209-.408.294-.8-.005-.894-.107-.033-.464.33-.668.869l-.043.119a2.805 2.805 0 0 0-.14-.603c-.189-.549-.538-.925-.643-.888-.107.036-.153.55.036 1.099.051.149.11.286.171.407a4.514 4.514 0 0 0-.375-.341c-.632-.513-1.331-.696-1.43-.573-.528.662 1.672 2.014 2.231 1.848.15-.044.451-.373.693-.748.122.234.329.477.421.504.27.08 1.336-.575 1.081-.896zM299.106 174.689c.082-.102.66.049 1.185.474.113.093.22.188.312.282-.051-.1-.1-.213-.143-.337-.156-.454-.118-.88-.031-.91.087-.03.377.281.533.736.061.18.102.353.117.499.01-.032.023-.065.036-.099.168-.446.464-.746.553-.719.541.169-.426 1.519-.714 1.604-.464.138-2.284-.982-1.848-1.53zM306.333 171.979c-.048-.059-.387.029-.693.278-.066.054-.128.11-.184.165.031-.058.059-.125.084-.197.092-.266.069-.515.018-.532-.051-.019-.222.164-.311.43a1.209 1.209 0 0 0-.069.292c-.007-.019-.015-.038-.02-.058a1.065 1.065 0 0 0-.156-.28c.212-.408.296-.801-.002-.894-.107-.034-.467.33-.668.868-.015.04-.031.08-.043.119a3.036 3.036 0 0 0-.141-.603c-.188-.548-.538-.925-.645-.888-.104.037-.15.551.039 1.099.051.149.109.286.17.407a4.66 4.66 0 0 0-.374-.341c-.635-.513-1.331-.696-1.431-.572-.527.661 1.67 2.014 2.231 1.848.151-.045.451-.373.694-.748.122.233.329.476.42.503.271.081 1.336-.575 1.081-.896zM250.889 165.79c.048-.06.387.029.693.278.066.054.128.11.184.165a1.44 1.44 0 0 1-.084-.197c-.092-.266-.069-.515-.018-.533.051-.018.222.164.311.43.035.106.058.207.069.293.007-.02.012-.039.02-.058.043-.113.099-.208.153-.281-.209-.408-.293-.8.005-.894.107-.033.464.33.668.869l.043.119c.018-.177.067-.386.141-.603.188-.549.538-.925.642-.888.107.036.153.55-.036 1.099a3.239 3.239 0 0 1-.17.407 4.66 4.66 0 0 1 .374-.341c.635-.513 1.331-.696 1.431-.573.527.662-1.67 2.014-2.231 1.848-.151-.044-.451-.373-.694-.748-.122.234-.329.477-.42.504-.271.08-1.336-.575-1.081-.896zM101.674 167.321c-.048-.059-.386.029-.693.278-.067.054-.128.11-.182.165.03-.058.058-.125.083-.197.091-.266.069-.515.018-.533-.051-.018-.221.164-.312.431a1.432 1.432 0 0 0-.069.292l-.02-.058a1.15 1.15 0 0 0-.154-.281c.211-.407.295-.8-.005-.893-.106-.034-.464.329-.667.868l-.042.119a2.919 2.919 0 0 0-.142-.603c-.188-.549-.538-.925-.643-.888-.105.037-.15.551.037 1.099.051.149.11.286.171.407a4.503 4.503 0 0 0-.376-.341c-.633-.513-1.33-.696-1.429-.573-.528.662 1.67 2.014 2.23 1.849.15-.045.452-.373.695-.748.121.233.328.476.419.503.271.081 1.337-.575 1.081-.896zM68.856 168.193v-.064l-.012.001.012.063zM65.66 168.455l.012-.171-.072.004.06.167zM68.073 166.024c0 1.946-.277 1.335-.32 2.014-.3-1.36-.611-1.374-.611-1.374s-.089.095-.374 1.566l2.075-.101c-.483-2.43-.77-2.105-.77-2.105zM65.672 165.876c0 1.48.06 1.418 0 2.408l1.096-.053c-.43-1.77-1.096-2.355-1.096-2.355zM68.947 166.751c-.07.599-.098.749-.09 1.378l.517-.025c-.1-.853-.411-1.436-.427-1.353zM72.457 168.38l.003-.048-.01.001.007.047zM69.535 168.615l.02-.128-.065.004.045.124zM71.542 168.381l.906-.049c-.283-1.815-.565-1.568-.565-1.568-.117 1.371-.172 1.065-.379 1.435-.173-.836-.67-1.286-.555-.728-.044.164-.127.451-.289.958l.482-.026.4-.022z" fill="#96DAD5"/>
    <path fill-rule="evenodd" clip-rule="evenodd" d="M69.707 166.683c-.052.619-.212.818-.227 1.056-.032.096-.079.262-.113.364l.242-.011c-.013.107-.03.232-.056.396l1.21-.276c-.278-1.321-1.056-1.529-1.056-1.529zM72.63 167.297c-.102.451-.137.563-.171 1.035l.472-.025c-.036-.639-.282-1.072-.301-1.01zM73.452 167.553c.016-.042-.172.338-.37.744l.433-.023c-.044-.384-.076-.689-.063-.721zM35.526 167.956v-.063h-.012l.012.063zM32.334 168.219c.005-.06.008-.117.011-.171l-.072.003.061.168z" fill="#96DAD5"/>
    <path fill-rule="evenodd" clip-rule="evenodd" d="M34.75 165.789c-.001 1.945-.279 1.335-.322 2.013-.3-1.359-.61-1.374-.61-1.374s-.09.096-.375 1.567l2.076-.101c-.483-2.431-.77-2.105-.77-2.105zM32.346 165.64c0 1.48.06 1.418 0 2.408l1.096-.054c-.43-1.769-1.096-2.354-1.096-2.354zM35.62 166.514c-.07.599-.099.748-.091 1.378l.517-.025c-.1-.853-.412-1.436-.427-1.353zM39.129 168.142l.003-.047h-.01c.001.016.004.031.007.047zM36.209 168.38l.02-.128-.065.004.045.124z" fill="#96DAD5"/>
    <path fill-rule="evenodd" clip-rule="evenodd" d="m38.218 168.145.906-.049c-.283-1.816-.565-1.568-.565-1.568-.117 1.371-.172 1.064-.38 1.434-.172-.836-.67-1.286-.554-.728-.044.164-.127.451-.29.958l.483-.026.4-.021z" fill="#96DAD5"/>
    <path fill-rule="evenodd" clip-rule="evenodd" d="M36.383 166.445c-.053.62-.212.819-.227 1.056-.032.097-.08.263-.113.365l.241-.012c-.012.108-.03.233-.055.397l1.21-.276c-.279-1.321-1.056-1.53-1.056-1.53zM39.301 167.062c-.101.45-.137.563-.17 1.035l.472-.026c-.036-.638-.282-1.072-.302-1.009zM40.127 167.317c.016-.042-.172.337-.37.744l.433-.024c-.043-.383-.075-.688-.063-.72z" fill="#96DAD5"/>
    <path fill-rule="evenodd" clip-rule="evenodd" d="m76.418 177.027-.052 1.2-.004.095a1.37 1.37 0 0 1 .409-.28c.302-.144.599-.15.626-.091.028.059-.165.287-.467.431-.244.116-.474.165-.576.13l-.05 1.165c-.003.064-.151.064-.148 0l.035-.814.03-.697c-.14.061-.463.024-.815-.103-.438-.159-.737-.449-.707-.534.03-.086.444-.118.883.04.298.108.54.253.648.378l.024-.535.018-.431.146.046z" fill="#2A4D52"/>
    <path fill-rule="evenodd" clip-rule="evenodd" d="m76.54 177.131-.072.009c-.955.12-1.766-.092-1.814-.473-.046-.38.69-.786 1.644-.906.955-.12 1.767.092 1.814.473.043.35-.578.722-1.421.872l-.15.025z" fill="#EDFBFB"/>
    <path fill-rule="evenodd" clip-rule="evenodd" d="m80.763 181.202.029.668.002.053a.75.75 0 0 0-.227-.156c-.168-.08-.333-.083-.349-.05-.015.032.092.159.26.239.136.065.264.092.32.072l.029.649c.001.035.084.035.082 0l-.02-.453-.016-.388c.077.034.257.014.453-.057.245-.089.41-.25.393-.298-.016-.047-.246-.065-.49.023-.166.06-.301.141-.361.21-.005-.099-.01-.198-.013-.297l-.01-.24-.082.025z" fill="#2A4D52"/>
    <path fill-rule="evenodd" clip-rule="evenodd" d="m80.696 181.257.04.005c.532.067.983-.051 1.01-.263.026-.212-.384-.438-.915-.505-.532-.066-.983.051-1.01.264-.023.195.322.402.791.485l.084.014z" fill="#EDFBFB"/>
    <path fill-rule="evenodd" clip-rule="evenodd" d="m105.129 177.338-.028.668-.003.053a.76.76 0 0 1 .228-.156c.168-.08.333-.084.348-.051.016.033-.092.16-.26.24-.135.064-.263.091-.32.072l-.028.649c-.002.035-.084.035-.082 0l.019-.453.017-.388c-.078.034-.258.013-.454-.058-.244-.088-.41-.249-.393-.297.017-.048.247-.066.491.023.166.06.3.141.361.21l.013-.298.01-.24.081.026z" fill="#2A4D52"/>
    <path fill-rule="evenodd" clip-rule="evenodd" d="m105.197 177.396-.04.005c-.531.067-.983-.051-1.009-.263-.026-.212.383-.438.914-.505.532-.067.984.051 1.01.263.024.195-.321.402-.791.486l-.084.014z" fill="#EDFBFB"/>
    <path fill-rule="evenodd" clip-rule="evenodd" d="M265.524 179.793c-.035.036-.041.059-.041.069 0 .01.006.032.041.069a.695.695 0 0 0 .186.123c.176.088.441.171.778.241.67.141 1.606.229 2.641.229s1.969-.088 2.642-.229c.336-.07.601-.153.777-.241a.73.73 0 0 0 .186-.123c.036-.037.039-.059.039-.069 0-.01-.003-.033-.039-.069a.703.703 0 0 0-.186-.124 3.466 3.466 0 0 0-.777-.241c-.673-.14-1.607-.228-2.642-.228s-1.971.088-2.641.228a3.46 3.46 0 0 0-.778.241.67.67 0 0 0-.186.124zm.913-.616c.691-.146 1.644-.235 2.692-.235 1.048 0 1.999.089 2.693.235.346.072.634.16.838.261a.928.928 0 0 1 .255.174.36.36 0 0 1 .113.25.364.364 0 0 1-.113.25.926.926 0 0 1-.255.173 3.59 3.59 0 0 1-.838.262c-.694.145-1.645.234-2.693.234s-2.001-.089-2.692-.234a3.585 3.585 0 0 1-.839-.262.911.911 0 0 1-.255-.173.357.357 0 0 1-.114-.25c0-.1.048-.184.114-.25a.913.913 0 0 1 .255-.174c.204-.101.492-.189.839-.261z" fill="#2A8C79"/>
    <path fill-rule="evenodd" clip-rule="evenodd" d="M43.704 180.911a.097.097 0 0 0 .016-.024c.567-1.135 1.696-1.85 3.023-1.912 1.46-.068 2.8.654 3.592 1.928l.006.008h-6.637zm7.037 0h-.077c.002-.002.006-.006.006-.01a.193.193 0 0 0 0-.203 4.542 4.542 0 0 0-1.387-1.423 4.277 4.277 0 0 0-2.558-.69c-1.057.048-2 .471-2.682 1.175a3.8 3.8 0 0 0-.676.954.191.191 0 0 0 .018.197h-.077a.195.195 0 1 0 0 .389h7.433a.196.196 0 0 0 .197-.194.195.195 0 0 0-.197-.195z" fill="#2A4D52"/>
    <path fill-rule="evenodd" clip-rule="evenodd" d="M50.344 180.912h-6.637a.097.097 0 0 0 .016-.023c.567-1.137 1.695-1.852 3.023-1.913 1.46-.068 2.8.653 3.592 1.928l.006.008z" fill="#975445"/>
    <path fill-rule="evenodd" clip-rule="evenodd" d="M52.156 147.606c-1.252 13.575-2.483 27.017-2.871 31.669a4.277 4.277 0 0 0-2.558-.69c-1.058.049-2.001.472-2.683 1.176-.057-4.227-.22-18.272-.382-32.45a58.818 58.818 0 0 1 6.318.1c.764.054 1.489.121 2.176.195zM50.678 180.911h-.014c.002-.002.006-.006.006-.01l.008.01zM54.077 144.406l-.33-.101c-.001-.045-.003-.09-.007-.135l.337.236zM57.45 180.942c0 .021 0 .043-.002.065h-1.644c-.012-.302-.044-.882-.09-1.707v-.004a.19.19 0 0 0 .1.028c.039 0 .078.002.117.004a1.627 1.627 0 0 1 1.519 1.614z" fill="#975445"/>
    <path fill-rule="evenodd" clip-rule="evenodd" d="m63.026 179.691-1.327 1.316H57.84c.002-.022.002-.044.002-.065 0-1.074-.859-1.954-1.93-2.006-.034-.002-.067-.002-.1-.002a.198.198 0 0 0-.117.038v-.002c-.276-5.023-1-18.24-1.745-31.139 1.146.157 2.172.336 3.1.503 2.308.421 3.974.787 5.187.705-.053 1.121-.104 2.234-.157 3.34l-.002.037-.002.042c-.644 13.555-1.197 26.065-1.188 26.558l2.137.675zM67.144 181.01h-4.888l1.191-1.182 3.655 1.156c.016.008.03.016.042.026z" fill="#975445"/>
    <path fill-rule="evenodd" clip-rule="evenodd" d="M67.945 181.203a.195.195 0 0 1-.197.195H55.814a.196.196 0 0 1-.197-.195c0-.103.083-.188.188-.194h1.644c.002-.022.002-.044.002-.066a1.628 1.628 0 0 0-1.637-1.618.189.189 0 0 1-.098-.028.19.19 0 0 1-.099-.167.196.196 0 0 1 .197-.194 2.021 2.021 0 0 1 2.03 2.007c0 .022 0 .044-.002.066H61.7l1.328-1.316.421.135-1.191 1.181h5.49c.11 0 .197.087.197.194z" fill="#2A4D52"/>
    <path fill-rule="evenodd" clip-rule="evenodd" d="m62.08 152.38-.001.038-.002.042a2.242 2.242 0 0 1-.404.155 2.511 2.511 0 0 1-.701.094 2.517 2.517 0 0 1-.701-.1 2.25 2.25 0 0 1-.636-.293c.228.052.447.112.67.144.222.038.444.054.667.054a3.97 3.97 0 0 0 .67-.048c.145-.022.291-.05.439-.086zM49.322 152.02a1.938 1.938 0 0 1-.635.296 2.516 2.516 0 0 1-.702.095 2.515 2.515 0 0 1-.7-.101 2.28 2.28 0 0 1-.637-.293c.23.052.447.113.67.144.222.038.445.054.668.054a4.06 4.06 0 0 0 .669-.048c.222-.033.444-.081.667-.147z" fill="#672448"/>
    <path fill-rule="evenodd" clip-rule="evenodd" d="M44.962 108.855c-.72.973-4.062 9.768-5.91 20.501-1.85 10.733-2.009 18.012-2.009 17.912 0 0 11.69-.192 16.909.562 5.4.78 10.051 2.818 10.542-1.001l-.38-19.802s-1.376-19.534-1.312-19.534H46.536s-.854.389-1.575 1.362z" fill="#D75426"/>
    <path fill-rule="evenodd" clip-rule="evenodd" d="M43.32 147.322c-.053 0-.108.004-.163.006-.098.004-.199.008-.3.016-.02 0-.047 0-.068.004-.04 0-.08.002-.122.005l-.191.008h-.002a1.75 1.75 0 0 0-.102.008 14.072 14.072 0 0 1-.394-.676c-.099-.18-.134-.256-.146-.328a.328.328 0 0 1 .006-.133.526.526 0 0 0-.01-.245c-.051.089-.163.097-.276.101l-.087.004-.023-.024c-.104-.095-.183-.177-.138-.272.05-.098.154-.063.327-.008.055.019.118.035.146.043l.012.002-.085-.279.215.163c.173.133.324.268.466.414l.473.493-.183.113c.256.314.394.42.527.507l.119.078zM38.904 144.043a.714.714 0 0 0-.278-.139 6.545 6.545 0 0 0-.273-.121l-.014-.016-.014-.014c-.008-.004-.016-.012-.022-.016.13.014.343.095.568.266.07.042.13.076.183.114l-.15-.074zm2.119 1.312-.22-.046c-.196-.041-.396-.083-.595-.135l-.02-.006-.057-.324.09.038-.281-.322c-.166-.191-.36-.411-.563-.626l-.014-.012a3.174 3.174 0 0 0-1.22-.487c-.145-.028-.277-.05-.395-.068-.146-.021-.274-.039-.38-.069l-.08.169c.194.205.474.308.828.437l.144.052a.46.46 0 0 0 .266.127l.043.01c.1.048.201.103.307.175l.056-.092.281.066c.053.046.095.091.134.133.106.113.207.223.5.348l.105.046-.707-.126.878.509-.67-.173.696.38c.189.103.38.199.567.288l.18.092.084-.173a.038.038 0 0 0-.018-.012c.04-.002.069-.014.09-.054l.03-.068-.059-.077zM47.105 139.844l-.03.048a19.166 19.166 0 0 0-.328-.365c0-.004-.002-.01-.005-.011a.202.202 0 0 0 .106-.006l.012-.005c.018-.006.03-.012.046-.01.204.153.227.246.23.271.002.02-.009.04-.03.078zm6.646 4.298-.142-.122c-.055-.045-.096-.083-.128-.111.049-.006.091-.022.113-.079.017-.034.025-.094-.01-.165l-.01-.022-.015-.01a6.532 6.532 0 0 0-.814-.481 5.504 5.504 0 0 1-.933-.57c.015-.101-.052-.197-.076-.231l-.021-.022c-.221-.135-.439-.27-.647-.405-1.02-.662-1.941-1.339-2.511-1.842l.003-.012c-.013-.012-.03-.024-.044-.038l-.213-.179-.002.008c-.414-.331-.818-.61-1.324-.918-.308-.189-.63-.371-1.002-.586l-.018-.008c-.206-.135-.41-.268-.61-.395a98.935 98.935 0 0 0-4.334-2.677 64.625 64.625 0 0 0-2.43-1.345l-.003-.002a.352.352 0 0 1-.012.045.482.482 0 0 0-.011.046l-.062.235c-.006.029-.016.061-.024.093.09.044.182.095.271.143.749.415 1.407.872 1.802 1.252l.297.28-.112-.238c.037.02.084.045.141.079.078.046.168.098.259.153l.188.112c.093.055.176.101.25.143-.006.002-.016.002-.04-.002l-.473-.082.432.27c.193.121.3.173.366.183.055.008.078-.014.096-.056a.156.156 0 0 0-.01-.137c.146.056.227.05.274-.003.163.152.268.226.455.357.067.044.143.099.237.165l.022.016.15-.042c.256.163.358.271.468.384.126.133.256.266.615.485l.505.304-.43-.473c-.02-.02-.035-.04-.048-.056l.093.024c.083.018.167.04.24.044.267.24.55.494.834.745l.03.028c.44.387.894.791 1.263 1.14.057.138.135.249.643.654l.083-.163-.02-.024c.303.217.565.332.798.434.3.131.56.246.834.534l.34.362-.226-.475c.271.21.523.427.786.658.31.268.63.546.991.812-.094-.059-.197-.123-.296-.187a6.1 6.1 0 0 0-.534-.329l-.408-.199.336.369c.069.074.168.165.273.263l.133.123-.038.159.024.014c.084.046.162.091.274.189l.034.028.036-.028a.105.105 0 0 0 .034-.044c.069.032.14.064.218.097.22.1.47.217.717.33.146.07.292.137.43.199-.014.069.008.139.093.23-.17-.099-.346-.204-.528-.316l-.06.181.72.449.274.139.024-.085.085.066c.11.081.218.155.309.22.063.046.117.084.159.117l-.005.032.055.03c.024.012.05.026.073.03 0 0 0-.002.002-.002l.042.03-.006-.034c.016-.008.029-.024.04-.056.026-.077-.014-.117-.076-.165a.508.508 0 0 0-.115-.189c.13.074.256.14.355.177l.208.078.272.101-.278-.234zM63.442 148.728a.204.204 0 0 1-.035.02c-.063.034-.132.063-.201.093.069-.028.137-.058.2-.091l.036-.02c.038-.02.073-.04.107-.06-.034.02-.07.038-.107.058zm-.276.125a1.79 1.79 0 0 1 0 .002.233.233 0 0 0 .04-.014l-.04.012z" fill="#EDFBFB"/>
    <path fill-rule="evenodd" clip-rule="evenodd" d="M62.61 148.475a12.88 12.88 0 0 1-.335-.03c.132-.012.216-.028.261-.075.133.049.266.093.392.131a8.91 8.91 0 0 0-.319-.026zm1.447-.316a18.625 18.625 0 0 1-1.755-.415H62.3a14.129 14.129 0 0 1-.403-.116c-.292-.087-.581-.177-.863-.266-.674-.207-1.31-.407-1.85-.515l.05-.155c-.506-.226-.737-.195-.94-.169-.027.002-.054.006-.082.01-.152.014-.321.012-.612-.113.027-.012.043-.034.054-.062.05-.113-.053-.196-.26-.363-.048-.042-.114-.092-.167-.144l.089.034.065-.183c-.301-.147-.636-.3-.97-.455-.688-.318-1.395-.646-1.79-.88l-.056-.034-.048.054c-.053.067-.027.153.002.218a2.716 2.716 0 0 1-.319-.155l-.082.175a.693.693 0 0 1 .126.096c-.006.004-.012.006-.016.01a.416.416 0 0 0-.059.053l-.1.109.126.052c.381.155.675.302.935.433.303.152.551.275.829.36-.038.086.04.157.152.261l.612.208-.006.018c-.03.102.038.147.331.314l.026.01.027-.004c.06-.006.333.076.684.219l-.53.042 1.01.228c.128.044.268.105.402.161.394.167.583.243.675.155l.59.547-.074-.291c.235.12.461.235.668.354.246.141.479.269.73.4l.024.012c.118.057.24.121.373.179.153.059.299.115.448.161.05.017.099.035.152.051.199.06.425.112.709.157.07-.018.14-.041.207-.067l.04-.012a2.702 2.702 0 0 0 .342-.171c.033-.022.069-.044.1-.068.071-.045.138-.101.203-.159.032-.028.063-.055.095-.089l.092-.098.073-.085-.057-.012zM63.066 140.049l.016-.019-.071-.051a7.622 7.622 0 0 1-.12-.087l.098.035.026.008c.106.036.17.054.209.062.13.1.297.2.455.293l-.613-.241zm2.122 1.207-.007-.049-.037-.02a8.194 8.194 0 0 1-.763-.492l.062-.137-.726-.553-.087.155a25.194 25.194 0 0 0-.73-.501c-.646-.426-.857-.488-.95-.446-.01-.067-.043-.139-.074-.213a2.818 2.818 0 0 1-.047-.109l.288.03-.252-.211c-.31-.263-.48-.285-.66-.309a1.191 1.191 0 0 1-.563-.19c-.117-.201-.416-.371-.793-.581-.088-.052-.182-.104-.271-.158l.023-.025.004-.048c.005-.078-.033-.157-.265-.38a9.002 9.002 0 0 0-.287-.267c-.2-.181-.45-.41-.494-.499l-.014-.03-.025-.01c-.744-.304-1.052-.641-1.349-1.019l-.083-.107c-.267-.342-.542-.7-1.173-1.14-.366-.245-.432-.257-.482-.171-.028.047-.025.093.004.153-.06-.044-.12-.085-.181-.127-.004-.004-.005-.006-.011-.008l-.025-.126c-.046-.224-.206-.33-.405-.463-.162-.112-.363-.247-.558-.486l-.07.082c-.469-.388-.678-.495-.88-.601l-.09-.046a4.796 4.796 0 0 1-.517-.306 17.046 17.046 0 0 1-.809-.579l-.016-.008c-.06-.022-.117-.05-.172-.074-.176-.077-.3-.129-.386-.065l-.003.004c-.327-.305-.44-.43-.542-.541-.112-.124-.21-.233-.567-.546l-.286-.246-.135-.114.012.209c.005.056.034.12.09.241.042.085.084.181.113.267-.704-.611-1.09-.85-1.43-1.061a7.083 7.083 0 0 1-.44-.288l-.005-.08c-.016-.251-.299-.402-.688-.609a4.567 4.567 0 0 1-.66-.396l.16-.177-.1-.063a5.794 5.794 0 0 0-.272-.167c-.311-.193-.69-.43-1.042-.699a4.528 4.528 0 0 1-.513-.443l.34.021-.335-.21a13.13 13.13 0 0 1-1.733-1.357l-.233-.215a24.394 24.394 0 0 1-1.645-1.745l-.12-.221-.046-.085-.03.119c-.002.006-.003.012-.007.018l-.002.006c-.002.01-.003.022-.007.032l-.014.057-.03.118.005.008-.005-.004a.373.373 0 0 1-.013.042c-.003.019-.009.035-.014.053v.002l-.06.239a1.693 1.693 0 0 1-.029.109c.153.199.315.414.5.649l.023.026.034-.002c.124-.004.373.264.591.503l.032.034c.272.296.518.547.715.617.009.053.023.109.039.163.016.06.034.125.034.165l.016.066.033.03c.47.391.498.388.551.308a.113.113 0 0 0 .022-.08c.124.148.204.271.232.341l-.087.047.114.1c.407.348.446.366.507.31.037-.032.04-.075.037-.111l.057.02c.124.226.252.451.38.674l.023.024c.21.155.425.31.647.468 1.19.845 2.532 1.717 3.826 2.542.118.076.235.151.354.225l.265.169c.64.412 1.217.784 1.798 1.168.276.183.551.366.82.551.118.086.238.169.353.253.368.27.736.569 1.093.877l.25.215-.134-.342c.424.346.826.614 1.217.873.665.438 1.29.854 1.866 1.596l.016.02.336.107a.514.514 0 0 0 .003.108c.002.017.006.045.006.063a.243.243 0 0 1-.105-.022 2.056 2.056 0 0 0-.226-.107l-.059.183c.09.05.168.085.233.111.17.094.33.209.501.331.216.155.436.314.672.421l.414.189c.018.028.032.052.043.072l.002.006.002.004c-.013 0-.034.002-.064-.004l-.5-.086.452.275c.18.105.344.203.495.29.292.172.546.323.8.484.45.286.839.597 1.303 1.028l.023.014a.82.82 0 0 0 .18.056c.042.006.08.002.108-.014a.746.746 0 0 0 .101.221c.172.207.361.326.56.45.105.063.213.131.323.213l.018-.032.018-.032.329.292c.647.577 1.375 1.23 2.14 1.918l.038.038.007-.117.017-.275c.001-.024.003-.05.003-.077.002-.012.004-.026.002-.04.002-.006.002-.012.002-.02l.001-.02v-.002l.011-.189.007-.123c-.114-.122-.252-.281-.263-.357z" fill="#EDFBFB"/>
    <path fill-rule="evenodd" clip-rule="evenodd" d="m59.537 137.18-.07.182-.43-.153-.119-.412.62.383zM53.276 115.014l.06.002c.058.038.115.072.166.101l-.226-.103zm12.5 9.165-.044-.571-.018-.197c0-.002-.002-.002-.002-.003v-.002a.75.75 0 0 1-.032-.076 1.12 1.12 0 0 0-.272-.423l-.019-.016c-.506-.288-1.11-.835-1.694-1.368-.045-.041-.09-.079-.134-.121-.128-.113-.252-.228-.378-.338-.96-.848-1.524-1.186-1.823-1.093l-.164.05-.154-.098.253-.196-.087-.082c-.786-.743-1.71-1.188-2.452-1.548l-.177-.086c-.739-.353-1.434-.689-1.962-1.234l-.023-.016c-.313-.149-.666-.334-1.009-.513-.466-.244-.949-.495-1.329-.658l.08-.039-.233-.123c-.184-.1-.341-.179-.477-.251.012.004.022.01.031.014l.526.179-.447-.356c-.145-.113-.445-.35-.776-.531l-.632-.339.497.467-.06.097.227.197c-.15-.04-.199-.014-.232.045-.062.11.031.227.238.428l.016.014.256.063c.592.296.697.446.827.636.098.143.212.308.541.557.471.276.88.409 1.276.538.416.138.806.263 1.223.551.065.032.11.062.144.084l-.285.017.27.165c.482.3.846.41 1.167.507.22.068.432.131.658.251.002.461.671.817 1.442 1.226.754.389 1.675.926 2.11 1.586l.02.024c.268.185.556.415.857.668l.335.28c.404.34.82.688 1.252 1.01-.013.081.075.167.31.391.102.101.22.215.299.304l.073.084c-.002-.05-.008-.104-.012-.155zM54.62 124.183c-.12.046-.613-.123-1.181-.39.207.078.374.1.558.129.182.026.37.052.623.14v.121zm-1.727-.716c-.02-.028-.034-.054-.045-.07.073.076.138.139.197.195l-.152-.125zm12.951 5.107a5.614 5.614 0 0 1-.247-.06 50.886 50.886 0 0 0-2.004-.504.126.126 0 0 0 .017-.048c.014-.094-.05-.13-.162-.176-.016-.006-.032-.01-.05-.018-.628-.285-1.132-.381-1.62-.472-.394-.076-.773-.148-1.172-.321l.592-.16-.607-.032c-.415-.024-1.178-.383-1.985-.766a23.702 23.702 0 0 0-1.406-.63l-.323-.123.025.03a10.378 10.378 0 0 0-.454-.184l-.124-.046a9.578 9.578 0 0 1-.856-.373 4.057 4.057 0 0 1-.897-.582l-.04-.036.047-.167c-.33-.148-.72-.373-1.097-.593-.344-.199-.696-.404-1.007-.552l.202-.018-.253-.16c-.475-.295-.745-.347-.985-.392-.254-.046-.48-.09-.911-.403l.182-.088-.452-.253c-1.02-.577-2.07-1.171-3.12-1.657l-.047-.022a19.653 19.653 0 0 0-1.626-.746c-.584-.228-1.112-.363-1.566-.397l-.029.006a.137.137 0 0 0-.079.11c-.012.115.085.201.337.404.119.098.362.298.387.334l.013.053.042.012c.425.122.786.214 1.12.299.483.126.905.236 1.375.387l-.021.06a.134.134 0 0 0-.07.088.15.15 0 0 0 .003.092l-.013.036.023-.008c.006.012.009.021.016.033l.08.118.065-.187c.094-.008.272.028.419.057.31.062.427.086.464-.031a.98.98 0 0 1 .316.217c.092.084.192.175.403.275-.02-.002-.04-.002-.057-.002-.163-.006-.316-.012-.37.138l-.04.105.087.03.252.084c.11.034.216.068.324.106.017.052.072.096.15.153.031.026.084.068.095.086a.114.114 0 0 1-.005-.082.077.077 0 0 1 .02-.032.032.032 0 0 1 .003.004l-.018.11-.007.058c.722.213 1.125.502 1.593.841.353.254.719.517 1.26.776l.066-.175c.205.273.376.397.712.636.102.074.219.157.356.261l.016.01c.214.082.405.132.588.18.297.073.602.149 1.023.378 0 .016.002.032.007.046.026.1.152.218.568.483.059.036.117.076.177.114.203.129.51.325.537.406l.026.104.078-.052c.09-.054.503.132.79.262l.06.025c.444.206.647.296.752.272.134.044.26.097.38.149l-.057.156c.067.046.152.085.263.125l.33.152-.012.054c.155.068.258.08.351.092l.034.006-.025.097c.447.206.86.293 1.26.373.46.096.898.186 1.3.461l.025.014.027-.004c.053-.014.25.022.425.056.458.089.684.117.769.008a.737.737 0 0 1 .065.077c.084.106.17.216.492.341.089.036.197.07.326.108l.01.004.012-.002c.263-.03.488.072.747.189.076.034.158.072.242.106a2.622 2.622 0 0 1-.212-.002l-.445-.008.412.2c.298.143.683.207 1.084.267l.231.034.002-.1c0-.012 0-.026.002-.038 0-.088.003-.173.005-.263l.007-.281v-.002l.004-.1h-.002z" fill="#EDFBFB"/>
    <path fill-rule="evenodd" clip-rule="evenodd" d="m52.762 114.6-.093.166a1.631 1.631 0 0 0-.094-.053.11.11 0 0 1-.012.049.109.109 0 0 1-.107.065h-.01l-.007-.002c-.678-.191-1.158-.482-1.63-.784l-.066-.045a30.928 30.928 0 0 0-1.81-1.121l-.36-.205.376.02c-.175-.106-.362-.197-.541-.287-.316-.156-.583-.291-.745-.47l-.343-.382a6.209 6.209 0 0 0-.516-.312l.146.218-.396-.275c-.13-.091-.214-.168-.297-.24l-.093-.081.057.255-.222-.248a3.157 3.157 0 0 0-.465-.427l-.199-.142a5.758 5.758 0 0 0-.782-.402 7.486 7.486 0 0 1-.322-.148c-.087-.041-.17-.076-.249-.119l-.013-.008c.015-.027.035-.054.05-.082.058-.085.113-.169.166-.249.018-.027.038-.055.053-.08l.002.002c.073.066.195.146.36.238.123.052.249.105.37.154.202.082.39.156.556.246l-.063.179a.95.95 0 0 1 .115.072.767.767 0 0 1 .197.199h.04c.064-.004.143-.006.233.004-.1-.09-.185-.172-.224-.234l-.211-.324.319.174c.077.043.157.084.238.127.264.138.536.28.682.421l.551.526-.254-.142c.252.22.526.374.825.54.443.248.946.526 1.542 1.098l.252.243-.329-.072a1.232 1.232 0 0 1-.256-.095c.065.06.119.113.168.163.142.143.236.238.478.299l.048-.109c.177.087.35.169.523.249.322.152.625.293.934.462.53.287.985.595 1.428.969zM59.708 112.489c-.03.05-.077.071-.164.059-.094-.011-.238-.059-.463-.151l-.257-.107c-.377-.161-.804-.342-1.123-.39l.012-.093a6.115 6.115 0 0 0-.465-.24c-.335-.167-.569-.287-.663-.376a60.109 60.109 0 0 0-1.28-.374l-.068-.02.004-.079a.174.174 0 0 1 .054-.117.188.188 0 0 1 .11-.044 3.084 3.084 0 0 0-.369-.076 4.131 4.131 0 0 0-.289-.033c-.157-.02-.307-.036-.455-.076l-.002.006a30.954 30.954 0 0 1-2.02-.624l-.048-.014c-.429-.141-.813-.268-1.152-.324l.48.39-.564-.223a19.684 19.684 0 0 1-1.005-.431l-.577-.255c-.689-.296-1.229-.445-1.691-.471-.233.161-1.042.074-1.16.04l.017-.083c-.45-.026-.943-.07-1.412-.12l-.124-.014-.073-.008c.03-.033.058-.061.085-.089.094-.097.183-.247.242-.261.064-.004 1.734 0 1.734 0 .041.002.086-.002.127 0l.434.07c.161.012.32.032.478.06.59.105 1.144.304 1.678.497l.112.041c.252.094.548.197.833.285a23.48 23.48 0 0 0 1.533.391c.356.084.726.173 1.09.271.69.18 1.269.377 1.775.6.577.25 1.13.515 1.603.741l.252.119c.935.45 1.822.873 2.649 1.199l.02.008.011.018c.053.065.154.192.09.298z" fill="#EDFBFB"/>
    <path fill-rule="evenodd" clip-rule="evenodd" d="M61.018 112.778h-.024a.143.143 0 0 1-.018.098c-.021.037-.07.121-.439.093l-.094-.011a2.245 2.245 0 0 1-.703-.204l-.396-.203.439.015c.063.003.126.004.189.004l-.073-.076.09-.072c.078-.061.192-.029.409.059l.084.037c.144.058.305.127.45.17l.032.012.018.035c.006.011.008.023.012.035l.024.008zM64.704 114.817l-.057-.033c-.497-.279-.753-.316-.99-.343l-.029-.004c-.28-.031-.543-.063-1.104-.453l-.3-.208.144.012-.4-.178-.167-.07.12-.08c-.193-.094-.386-.129-.512-.152-.106-.02-.154-.029-.187-.064-.045-.061-.138-.176-.077-.274.061-.099.181-.079.558.088.114.051.24.111.364.172.25.119.508.245.665.283l.026.005.307.367c.223.096.402.152.556.193.104.026.199.045.287.064.238.049.447.092.737.258.004.039.012.08.015.119l.028.177c.004.041.012.082.016.121z" fill="#EDFBFB"/>
    <path fill-rule="evenodd" clip-rule="evenodd" d="M62.674 107.493H45.99s-.595-3.29-1.215-7.155h17.528c.3 3.976.455 7.115.37 7.155zM45.937 93.456a.133.133 0 0 1-.04.006.098.098 0 0 1-.09-.06l-.098-.234-1.855-4.409-.684.143a23.529 23.529 0 0 0-.018-.2l.74-.156a.1.1 0 0 1 .111.06l1.798 4.275.187.444a.101.101 0 0 1-.051.13zM47.936 87.777c-.128.665-.262 1.331-.4 1.995-.067.332-.124.666-.215.994a8.7 8.7 0 0 1-.319.968c-.002.004-.008.008-.014.006a.01.01 0 0 1-.006-.01c.026-.344.083-.678.148-1.012.065-.332.164-.656.252-.984.174-.656.35-1.31.534-1.961.002-.006.008-.008.014-.008.004.002.008.008.006.012zM55.04 78.457c0 .002 0 .004-.002.004-.136.046-.27.088-.408.13-.067.02-.134.045-.204.057-.07.012-.14.022-.213.02-.002-.002-.004-.002-.004-.004s0-.004.002-.004a.922.922 0 0 1 .199-.083c.067-.022.138-.03.207-.044.14-.028.28-.054.42-.078.001 0 .003 0 .003.002z" fill="#975445"/>
    <path fill-rule="evenodd" clip-rule="evenodd" d="M55.04 78.46c-.136.045-.27.087-.408.129-.067.02-.134.046-.205.057-.069.012-.14.022-.212.02-.002-.002-.004-.002-.004-.004s0-.004.002-.004a.92.92 0 0 1 .199-.083c.067-.022.138-.03.206-.044.14-.028.28-.053.42-.078.002 0 .004 0 .004.002s0 .005-.002.005zm-4.303.54-.004.002a1.54 1.54 0 0 1-.333-.06c-.108-.027-.209-.077-.313-.117a21.201 21.201 0 0 1-.616-.252l-.004-.002c-.004-.002-.006-.004-.004-.008.002-.002.004-.004.006-.004l.05.014c.2.053.4.107.598.165.106.03.216.052.319.095.104.044.204.092.3.157.003.002.003.006 0 .01zm4.437-1.093a.102.102 0 0 1 .006-.05c.004-.01.01-.018.015-.026a5.84 5.84 0 0 0-1.378-.258 8.681 8.681 0 0 0-1.15-.004c-.827.05-2.232.056-3.547.078-.84.011-1.644.031-2.241.075l.203.098h.002l1.485.703.002.002 2.613 1.24 4.459 2.115-.47-3.973z" fill="#975445"/>
    <path fill-rule="evenodd" clip-rule="evenodd" d="M50.738 78.992c.002.002.002.006 0 .01l-.004.002a1.534 1.534 0 0 1-.333-.06c-.108-.028-.209-.078-.313-.117a21.164 21.164 0 0 1-.617-.254l-.003-.001c-.004-.002-.006-.005-.004-.008.002-.002.004-.004.006-.004.017.004.033.01.05.013.2.054.4.108.598.166.106.03.216.052.319.096.104.043.204.091.3.157z" fill="#975445"/>
    <path fill-rule="evenodd" clip-rule="evenodd" d="M55.861 82.035a.102.102 0 0 1-.039.093.104.104 0 0 1-.059.018.1.1 0 0 1-.041-.008l-4.566-2.164-2.205-1.046v-.002l-2.298-1.09a.098.098 0 0 1-.052-.06H46.6a.121.121 0 0 1-.004-.026 8.27 8.27 0 0 1 .283-.026h.002l.203.097h.002l1.485.704.002.002 2.613 1.24 4.459 2.115-.469-3.974a.103.103 0 0 1 .006-.05c.004-.01.01-.017.016-.025l.173.06h.002l.004.05h.002l.483 4.092z" fill="#2A8C79"/>
    <path fill-rule="evenodd" clip-rule="evenodd" d="M56.384 82.666c-.41.034-2.853-1.144-5.234-2.349 0-.002-.002-.002-.002-.002a320.566 320.566 0 0 1-4.055-2.099c-.473-.248-.768-.405-.794-.417a.119.119 0 0 0-.024-.01c.093-.016.2-.028.32-.04 0 .008.001.018.003.026h.002a.098.098 0 0 0 .051.061l2.299 1.09v.002l2.205 1.045 4.565 2.165a.1.1 0 0 0 .042.008.104.104 0 0 0 .059-.018.102.102 0 0 0 .04-.094l-.483-4.092h-.002l-.004-.05.077.03c.116.044.226.091.332.141a.14.14 0 0 0-.08.02l-.012.01v.002c.002.01.006.05.016.113.102.708.679 4.458.679 4.458z" fill="#975445"/>
    <path fill-rule="evenodd" clip-rule="evenodd" d="M55.04 78.457c0 .002 0 .004-.002.004-.136.046-.27.088-.408.13-.067.02-.134.045-.204.057-.07.012-.14.022-.213.02-.002-.002-.004-.002-.004-.004s0-.004.002-.004a.922.922 0 0 1 .199-.083c.067-.022.138-.03.207-.044.14-.028.28-.054.42-.078.001 0 .003 0 .003.002zM61.255 87.55h-.005v-.002l.005.002zM65.153 88.219a12.67 12.67 0 0 1-.475-.044c-.064-.006-.13-.012-.194-.02a20.981 20.981 0 0 1-2.24-.369c.536.11 1.284.241 2.237.357l.103.012.096.012c.154.018.31.036.473.052zM89.26 68.219a22.738 22.738 0 0 1-4.142 10.709c-3.524 4.901-8.727 8.127-14.654 9.079a22.192 22.192 0 0 1-4.954.236l-.356-.025-.589-4.244c0-.038 3.407-1.705 3.689-1.856.14-.01.277-.024.417-.04h.002c.193-.02.386-.044.58-.072h.001c.136-.02.272-.04.406-.063 4.27-.726 8.01-3.067 10.556-6.605a16.573 16.573 0 0 0 3.046-11.349c-.092-.922-.904-1.387-1.12-2.2-.134-.507.332-.576.59-.5.609.18 1.123.462 1.523.951-.209-.616-.542-1.23-.81-1.832-.697-1.574-1.319-3.176-.825-3.616.213-.187.835 1.28 1.633 2.725.112.201.226.406.344.602-.058-.23-.116-.472-.169-.723-.447-1.982-.793-4.43-.5-4.567.303-.133 1.079 2.218 1.772 4.128.055.147.11.288.16.427l.07-.01c-.023-.14-.046-.286-.072-.433-.325-1.88-.615-3.922-.343-3.997.297-.088 1.095 2.276 1.702 4.231l.212.702c-.002-.2-.011-.405-.023-.61-.112-1.747-.553-3.506-.313-3.482.198.022.39.596.453.739.266.59.482 1.204.683 1.82a24.21 24.21 0 0 1 .782 3.08c.411 2.237.504 4.539.25 6.795zM41.362 104.497a2.648 2.648 0 0 1-.573-.101c-.187-.048-.36-.133-.54-.203a41.446 41.446 0 0 1-1.07-.437c-.003-.004-.005-.008-.003-.014.002-.004.006-.008.012-.006.372.098.742.199 1.112.306.184.054.375.092.552.167.177.074.352.157.516.271.006.002.006.01.004.014-.002.003-.006.003-.01.003zm3.637-9.587-1.496-5.04-.235.049-3.273.686-9.459 27.897c-.118.22-.232.445-.34.675a22.77 22.77 0 0 0-.932 2.481c-.384 1.189-.77 2.387-1.083 3.595-.053.209-.634 2.755-.15 2.521.613-.295 1.718-3.135 2.271-3.9a.006.006 0 0 1-.004.002c-.002-.002-.004-.004-.002-.008.248-.612.55-1.198.847-1.787.15-.294.295-.59.457-.876.165-.286.329-.573.512-.847.002-.004.006-.004.008-.002s.002.004.002.006c-.134.302-.286.594-.436.889-.15.294-.315.578-.474.868l-.467.871c-.154.29-.307.582-.441.882.032-.044.061-.079.089-.109-.067.815-.62 4.068-.377 4.144.42.127 1.115-1.205 1.562-2.982-.002-.002-.004-.003-.002-.007l.018-.046v-.002c.031-.113.079-.268.15-.457.073-.195.165-.42.271-.66l.008-.016.175-.467c.22-.545.467-1.089.841-1.55.188-.231.404-.44.645-.611.242-.169.496-.318.746-.467.502-.292 1.002-.602 1.367-1.065.002-.002.006-.002.007 0 .002 0 .002.004 0 .006-.319.503-.829.843-1.325 1.145-.5.298-1.012.584-1.38 1.039-.35.416-.595.909-.812 1.411.619-1.238 1.499-2.504 2.115-1.751.288.352.19 1.499.13 2.513-.043.683-.07 1.303.046 1.588.744 1.828 1.662-1.354 1.817-1.98.494-1.972.463-4.09 1.288-5.974.083-.191 3.468-10.505 6.584-20.003 0-.002.537-1.789.74-2.435l.04-.117c.003-.016.01-.03.013-.044a.093.093 0 0 1-.06-.065z" fill="#975445"/>
    <path fill-rule="evenodd" clip-rule="evenodd" d="M31.591 124.873a1.3 1.3 0 0 1-.012.044l-.002.004-.002.006c-.002-.002-.004-.004-.002-.008l.018-.046zM32.121 120.361c-.134.302-.285.594-.435.888-.15.294-.315.579-.474.869l-.467.87c-.154.291-.307.583-.441.883 0 .002-.002.002-.002.002l-.004.002c-.002-.002-.004-.004-.002-.008.248-.612.55-1.199.847-1.787.15-.294.295-.59.456-.876.166-.287.33-.573.513-.847.002-.004.005-.004.008-.002l.001.006zM35.803 119.577c.002 0 .002.004 0 .006-.32.502-.83.842-1.326 1.144-.5.299-1.012.585-1.38 1.04-.349.415-.595.908-.812 1.411a.03.03 0 0 0-.007.014c-.056.113-.11.225-.162.336l-.006.014c-.031.065-.06.131-.088.195l.175-.467c.218-.545.466-1.09.84-1.551.188-.23.404-.439.644-.61.243-.169.497-.318.747-.467.502-.292 1.002-.602 1.367-1.065.002-.002.005-.002.008 0zM41.37 104.494c-.002.004-.006.004-.01.004a2.71 2.71 0 0 1-.573-.102c-.187-.047-.36-.133-.54-.203a41.453 41.453 0 0 1-1.069-.437c-.003-.004-.005-.008-.003-.014.002-.004.005-.008.011-.006a44 44 0 0 1 1.113.306c.183.054.374.092.551.167.178.074.353.157.516.271.006.002.006.01.004.014zM43.265 89.919l-3.273.686.038-.11v-.002l.037-.107 3.177-.668c.008.065.013.133.021.2z" fill="#975445"/>
    <path fill-rule="evenodd" clip-rule="evenodd" d="M45.798 92.881c-.014.048-.03.096-.045.143l-.048.144-1.855-4.409-.683.143c.014.141.026.284.041.43-.941.13-2.645.55-3.001.638l.163-.481.038-.112.035-.107 2.706-.569.74-.155a.1.1 0 0 1 .111.06l1.798 4.275z" fill="#975445"/>
    <path fill-rule="evenodd" clip-rule="evenodd" d="M45.305 93.917c-.042.344-.045.442-.158.795l-1.483-4.988a.098.098 0 0 0-.114-.07l-.303.064-3.177.668.14-.416c.356-.087 2.06-.507 3.001-.638.268-.04.473-.053.57-.032.043.01 1.524 4.617 1.524 4.617z" fill="#975445"/>
    <path fill-rule="evenodd" clip-rule="evenodd" d="M60.809 80.543a20.27 20.27 0 0 1-2.972-1.494c-.158-.094-.849-.517-1.41-.777a6.436 6.436 0 0 0-.272-.118l.015.114.003.004.013.093.772 5.281a.1.1 0 0 1-.142.103l-5.557-2.832-1.757-.894-3.998-2.037-.011-.008-.006-.004c-.057.02-.114.041-.17.07-.025.01-.049.021-.074.033a3.063 3.063 0 0 0-1.593 1.753l-3.203 9.44 2.706-.568.74-.155a.1.1 0 0 1 .111.06l1.798 4.275.187.444a.101.101 0 0 1-.051.13.134.134 0 0 1-.04.007.098.098 0 0 1-.09-.06l-.098-.235-1.856-4.408-.683.143c.014.141.026.284.041.43.268-.04.473-.054.57-.032.043.01 1.524 4.617 1.524 4.617-.042.344-.045.441-.158.795l.026.09.015.05a.099.099 0 0 1-.066.124h-.006a.101.101 0 0 1-.022.004.092.092 0 0 1-.034-.006c-.003.014-.01.028-.013.044l-.04.117c-.203.646-.74 2.433-.74 2.435.008.048.016.095.021.141l.02.127.022.143c.004.034.01.07.016.104.005.035.012.073.015.109a132.999 132.999 0 0 1 .548 3.967c.004-.002.008-.002.012-.002H62.56c-.4-5.245-.73-9.502-.73-9.502l-.58-5.108v-.002s.003 0 .005.002l.045.012c.008.002.018.004.027.008l.07.02c.029.005.06.013.096.023.077.02.17.044.28.068l.039.01.22.05.109.023.104.022c.536.11 1.284.24 2.237.356l-.602-4.317a.102.102 0 0 1 .045-.097l2.4-1.569h.002l.327-.214c-1.996-.247-3.96-.644-5.846-1.401z" fill="#FF7800"/>
    <path fill-rule="evenodd" clip-rule="evenodd" d="M45.936 93.456a.133.133 0 0 1-.039.006.098.098 0 0 1-.09-.06l-.099-.234-1.855-4.409-.684.143c.014.141.026.284.042.43-.941.13-2.645.55-3.001.638l-.067.017.108-.485c.008-.03.014-.063.022-.095h.002l.135-.03.036-.107 2.706-.569.74-.155a.1.1 0 0 1 .11.06l1.799 4.275.187.444a.101.101 0 0 1-.052.13zM47.936 87.777c-.128.665-.262 1.331-.4 1.995-.067.332-.124.666-.215.994a8.7 8.7 0 0 1-.319.968c-.002.004-.008.008-.014.006a.01.01 0 0 1-.006-.01c.026-.344.083-.678.148-1.012.065-.332.164-.656.252-.984.174-.656.35-1.31.534-1.961.002-.006.008-.008.014-.008.004.002.008.008.006.012zM56.733 83.486l-5.54-2.822-1.776-.904-3.657-1.865-.016-.008c.173-.047.349-.08.53-.097.008.002.016.006.024.01.025.012.32.169.793.417a320.347 320.347 0 0 0 4.057 2.101c2.381 1.205 4.825 2.383 5.235 2.35 0 0-.578-3.751-.68-4.459-.01-.063-.014-.103-.016-.113v-.002l.012-.01a.14.14 0 0 1 .08-.02.564.564 0 0 1 .174.028c-.004.012-.006.028-.004.042l.002.018.01.067.004.026.768 5.241z" fill="#2A8C79"/>
    <path fill-rule="evenodd" clip-rule="evenodd" d="M56.958 83.647a.1.1 0 0 1-.099.113.083.083 0 0 1-.043-.01l-5.558-2.832-1.756-.895-3.998-2.037a.042.042 0 0 1-.012-.008l-.006-.004c.042-.018.083-.032.124-.046.046-.015.091-.03.136-.041l.016.008 3.657 1.864 1.776.904 5.54 2.823-.768-5.242-.004-.025-.01-.068-.002-.018a.101.101 0 0 1 .004-.042c.03.006.061.016.093.026l.106.038.016.113.002.004.014.094.772 5.28z" fill="#EDFBFB"/>
    <path fill-rule="evenodd" clip-rule="evenodd" d="M61.215 87.904c.002.004 0 .01-.004.012-.003.002-.01.002-.011-.002l-.024-.026c-.004-.029-.006-.059-.012-.088.018.033.036.069.051.104zM62.626 103.032H44.981c.008-.104-.012-.344-.047-.673h17.643c.016.223.032.448.05.673zM64.568 83.975l.59 4.243h-.003a25.5 25.5 0 0 1-.472-.051.048.048 0 0 0 0-.024l-.597-4.281 2.59-1.692.185-.12a.105.105 0 0 0 .045-.072c.449.051.9.099 1.35.14-.28.152-3.688 1.82-3.688 1.857z" fill="#2A8C79"/>
    <path fill-rule="evenodd" clip-rule="evenodd" d="M66.904 81.978a.107.107 0 0 1-.045.072l-.185.12-2.59 1.692.597 4.282a.048.048 0 0 1 0 .023l-.096-.012-.103-.011-.602-4.318a.102.102 0 0 1 .045-.097l2.4-1.568h.002l.327-.215c.052.008.1.014.152.02l.098.012zM62.575 102.357H44.932l-.012-.098a12.965 12.965 0 0 1-.012-.097c.004-.002.008-.002.012-.002h17.64l.007.099c.002.033.004.065.008.098zM45.936 93.456a.133.133 0 0 1-.04.006.098.098 0 0 1-.09-.06l-.098-.234-1.855-4.409-.684.143-2.796.587-.077.015a.07.07 0 0 1-.045-.002.099.099 0 0 1 .022-.195l.118-.025.055-.012 2.706-.569.74-.155a.1.1 0 0 1 .11.06l1.798 4.275.188.444a.101.101 0 0 1-.052.13z" fill="#EDFBFB"/>
    <path fill-rule="evenodd" clip-rule="evenodd" d="M45.12 94.976h-.005a.1.1 0 0 1-.022.004.09.09 0 0 1-.033-.006.093.093 0 0 1-.061-.066l-1.497-5.04-.234.05-.022-.201.304-.064c.05-.01.1.02.114.07l1.483 4.989.025.089.016.052a.099.099 0 0 1-.067.123zM43.265 89.919l-3.273.686-.258.054a.099.099 0 0 1-.116-.078.098.098 0 0 1 .074-.117l.375-.078 3.176-.668.022.2z" fill="#2A8C79"/>
    <path fill-rule="evenodd" clip-rule="evenodd" d="M64.682 88.165c.002.004 0 .006-.002.008-.066-.006-.13-.012-.196-.02l-.002-.011.103.011.097.012z" fill="#EDFBFB"/>
    <path fill-rule="evenodd" clip-rule="evenodd" d="M65.668 88.747a.099.099 0 0 1-.097-.086l-.644-4.61a.1.1 0 0 1 .053-.103l4.413-2.233a.099.099 0 0 1 .132.044.1.1 0 0 1-.044.133l-4.35 2.202.635 4.54a.1.1 0 0 1-.098.113z" fill="#2A8C79"/>
    <path fill-rule="evenodd" clip-rule="evenodd" d="M47.936 87.777c-.128.665-.262 1.331-.4 1.995-.067.332-.124.666-.215.994a8.7 8.7 0 0 1-.319.968c-.002.004-.008.008-.014.006a.01.01 0 0 1-.006-.01c.026-.344.083-.678.148-1.012.065-.332.164-.656.252-.984.174-.656.35-1.31.534-1.961.002-.006.008-.008.014-.008.004.002.008.008.006.012zM61.177 87.888a6.594 6.594 0 0 1-.388-.466c-.079-.099-.154-.198-.229-.3-.199-.272-.368-.566-.549-.852-.362-.57-.72-1.145-1.073-1.722-.004-.004-.002-.01.002-.014a.012.012 0 0 1 .014.002c.4.545.797 1.094 1.189 1.644.197.274.404.543.581.831a10.269 10.269 0 0 1 .44.787c.007.03.009.06.013.09z" fill="#2A4D52"/>
    <path fill-rule="evenodd" clip-rule="evenodd" d="M61.215 87.904c.002.004 0 .01-.004.012-.003.002-.01.002-.011-.002l-.024-.026c-.004-.029-.006-.059-.012-.088.018.033.036.069.051.104z" fill="#2A4D52"/>
    <path fill-rule="evenodd" clip-rule="evenodd" d="M41.37 104.494c-.002.004-.006.004-.01.004a2.71 2.71 0 0 1-.573-.102c-.187-.047-.36-.133-.54-.203a41.453 41.453 0 0 1-1.069-.437c-.003-.004-.005-.008-.003-.014.002-.004.005-.008.011-.006a44 44 0 0 1 1.113.306c.183.054.374.092.551.167.178.074.353.157.516.271.006.002.006.01.004.014zM71.696 81.666c.373.097.743.199 1.112.306.185.054.375.091.552.167.178.075.353.157.517.27a.01.01 0 0 1 .003.015.01.01 0 0 1-.01.004c-.198-.01-.387-.051-.573-.1-.186-.049-.36-.135-.539-.205a40.59 40.59 0 0 1-1.068-.438.01.01 0 0 1-.006-.013.01.01 0 0 1 .012-.006zM32.121 120.361c-.134.302-.285.594-.435.888-.15.294-.315.579-.474.869l-.467.87c-.154.291-.307.583-.441.883 0 .002-.002.002-.002.002l-.004.002c-.002-.002-.004-.004-.002-.008.248-.612.55-1.199.847-1.787.15-.294.295-.59.456-.876.166-.287.33-.573.513-.847.002-.004.005-.004.008-.002l.001.006zM35.801 119.577c.002 0 .002.004 0 .006-.319.502-.829.842-1.325 1.144-.5.299-1.012.585-1.38 1.04-.35.415-.595.908-.812 1.411a2.207 2.207 0 0 1-.047.107l-.656 1.636c0 .002-.004.004-.006.004-.002-.002-.004-.004-.002-.008l.018-.045v-.002l.421-1.117.008-.016.175-.467c.22-.545.467-1.09.841-1.551.188-.23.404-.439.644-.61.243-.169.497-.318.747-.467.502-.292 1.002-.602 1.367-1.065.002-.002.005-.002.007 0zM85.031 62.97c.122-.203.291-.374.477-.52.186-.147.395-.266.615-.355a2.442 2.442 0 0 1 1.388-.135c-.231.037-.456.063-.675.118-.22.048-.433.118-.64.201-.208.08-.407.185-.602.3a4.886 4.886 0 0 0-.563.391zM50.738 78.992c.002.002.002.006 0 .01l-.004.002a1.534 1.534 0 0 1-.333-.06c-.108-.028-.209-.078-.313-.117a21.164 21.164 0 0 1-.617-.254l-.003-.001c-.004-.002-.006-.005-.004-.008.002-.002.004-.004.006-.004.017.004.033.01.05.013.2.054.4.108.598.166.106.03.216.052.319.096.104.043.204.091.3.157zM55.04 78.457c0 .002 0 .004-.002.004-.136.046-.27.088-.408.13-.067.02-.134.045-.204.057-.07.012-.14.022-.213.02-.002-.002-.004-.002-.004-.004s0-.004.002-.004a.922.922 0 0 1 .199-.083c.067-.022.138-.03.207-.044.14-.028.28-.054.42-.078.001 0 .003 0 .003.002z" fill="#672448"/>
    <path fill-rule="evenodd" clip-rule="evenodd" d="M41.37 104.494c-.002.004-.006.004-.01.004a2.71 2.71 0 0 1-.573-.102c-.187-.047-.36-.133-.54-.203a41.453 41.453 0 0 1-1.069-.437c-.003-.004-.005-.008-.003-.014.002-.004.005-.008.011-.006a44 44 0 0 1 1.113.306c.183.054.374.092.551.167.178.074.353.157.516.271.006.002.006.01.004.014zM71.696 81.666c.373.097.743.199 1.112.306.185.054.375.091.552.167.178.075.353.157.517.27a.01.01 0 0 1 .003.015.01.01 0 0 1-.01.004c-.198-.01-.387-.051-.573-.1-.186-.049-.36-.135-.539-.205a40.59 40.59 0 0 1-1.068-.438.01.01 0 0 1-.006-.013.01.01 0 0 1 .012-.006zM35.801 119.577c.002 0 .002.004 0 .006-.319.502-.829.842-1.325 1.144-.5.299-1.012.585-1.38 1.04-.35.415-.595.908-.812 1.411a2.207 2.207 0 0 1-.047.107l-.656 1.636c0 .002-.004.004-.006.004-.002-.002-.004-.004-.002-.008l.018-.045v-.002l.421-1.117.008-.016.175-.467c.22-.545.467-1.09.841-1.551.188-.23.404-.439.644-.61.243-.169.497-.318.747-.467.502-.292 1.002-.602 1.367-1.065.002-.002.005-.002.007 0z" fill="#672448"/>
    <path fill-rule="evenodd" clip-rule="evenodd" d="M59.433 57.96c-.546 2.48-3.065 4.046-5.199 5.073a20.999 20.999 0 0 0 2.65-2.06c.98-.89 1.853-1.889 2.55-3.012zM46.06 67.565zM46.08 67.485c-.004.01-.003.017-.008.026 0-.01.004-.018.008-.026zM48.997 70.75v.01l-.005.002c-1.26.245-2.666-.666-2.937-1.976a2.35 2.35 0 0 1-.059-.46c.04 1.488 1.566 2.706 3 2.418v.006h.001zM49.437 67.634l-.015.04c-.52-.399-1.24.31-.508.616l-.002.014c-.747-.26-.119-1.065.468-.731-.007-1.76-3.411-.861-1.735 1.393l-.01.01c-2.095-2.393 2.02-3.38 1.802-1.342zM53.61 73.627h.002v-.005h-.003v.005z" fill="#975445"/>
    <path fill-rule="evenodd" clip-rule="evenodd" d="M61.594 67.746c-.073-.02-.388-.232-.181-.223.12.088.725.385.18.223zm-12.155-.111-.016.04c-.519-.4-1.24.31-.508.615l-.002.014c-.747-.26-.118-1.065.469-.731-.007-1.76-3.411-.86-1.735 1.393l-.01.01c-2.095-2.392 2.02-3.38 1.802-1.341zm13.301-.927a6.243 6.243 0 0 0-.404-.54l-.002-.004c-2.548-2.627-.914-5.515-2.493-7.982a.015.015 0 0 0-.004-.008c-.965 3.534-4.776 4.992-7.84 6.177-.727.377-1.488.734-2.243 1.032.624.273 1.317.707 1.432 1.439.087.43.048 1.246-.536 1.323-.896.145-1.326-1.64-.236-1.367.346.443-.56.272-.122.751.715.741.893-1.33-.841-1.81-1.119-.359-2.48.08-3.084 1.115-.055.095-.115.19-.152.294-.025.055-.05.112-.07.169-.002.002-.005.003-.005.006-.03.068-.045.145-.069.214a1.004 1.004 0 0 0-.031.157c-.002.002-.002.002 0 .004-.002.002-.004.004-.002.006l-.002.008c-.02.097-.03.199-.035.296a2.15 2.15 0 0 0-.004.33c.033 1.49 1.563 2.716 2.999 2.427v.006h.002v.016c.032.011 4.58 2.864 4.614 2.86v-.004h.002v.004c1.63.736 3.682 2.03 5.47 1.051 2.056-1.473 3.078-4.557 2.89-6.783 1.144-.193 1.1-.662.766-1.187z" fill="#975445"/>
    <path fill-rule="evenodd" clip-rule="evenodd" d="M61.592 67.745c-.073-.02-.387-.232-.181-.223.12.088.727.386.181.223z" fill="#975445"/>
    <path fill-rule="evenodd" clip-rule="evenodd" d="m46.051 67.603.008-.036c-.004.012-.008.024-.008.036zm.022-.092c.004-.009.004-.016.008-.026-.004.008-.008.016-.008.026zm2.919 3.234c-1.432.287-2.956-.933-2.996-2.419.007.156.022.312.06.461.27 1.313 1.678 2.22 2.94 1.976v-.018h-.005zm-2.984-2.872a.658.658 0 0 0-.006.087c.002-.045.008-.093.014-.14-.004.017-.006.035-.008.053z" fill="#BCD1D0"/>
    <path fill-rule="evenodd" clip-rule="evenodd" d="M71.117 68.5c.62-2.367-.692-4.939-2.237-6.718 2.095 1.474 3.187 4.259 2.237 6.718zm-4.921-11.516c-.116-3.003-1.82-5.947-4.548-7.179 2.431.384 4.598 2.195 5.083 4.689.36 1.654-.154 3.413.412 5.032-.662-.578-.831-1.572-.947-2.542zm-6.773 1.034c-.584 2.445-3.068 3.995-5.19 5.014a21.014 21.014 0 0 0 2.65-2.06c.981-.89 1.854-1.888 2.55-3.012-.002.02-.006.038-.01.058zm-9.108-4.665a.819.819 0 0 0-.04-.022c-.002-.004-.004-.004-.006-.004-2.489-1.259-5.284.923-6.65 3.107.632-2.955 4.133-4.651 6.806-3.284-.04.066-.077.133-.11.203zm-7.89 6.299c-2.473 1.292-3.405 4.055-2.004 6.344-1.124 1.51-2.133 3.9-1.509 5.825-2.325-.417.478-4.724.597-6.08.349-2.005-1.71-3.135.758-4.8h.002v-.002c.724-.514 1.58-.858 2.19-1.524-.014.086-.024.163-.034.237zm29.31 6.469c-.1-2.98-3.077-4.254-4.323-6.58-.586-2.665.33-5.792-1.9-7.919-3.92-3.812-11.864-3.372-14.961 1.314-2.308-1.285-5.44-.407-6.71 1.941-1.029 2.322-.647 4.327-3.415 5.492h-.002c-3.425 2.09-.474 3.215-1.38 5.625-.517 1.532-2.799 5.654.034 6.163 1.104 1.948 3.18 1.114 4.897 1.437 1.697.825 3.48 1.723 5.164 1.855-.017-.584-.13-4.111-.148-4.687-1.26.245-2.666-.666-2.936-1.976a2.582 2.582 0 0 1-.02-1.095l.002-.008c-.002-.002 0-.004.002-.006-.002-.002-.002-.002 0-.004a.925.925 0 0 1 .032-.157c.019-.07.039-.145.069-.214-.001-.003.002-.005.004-.006a1.793 1.793 0 0 1 .124-.294c-.01.02-.018.041-.028.063.034-.083.083-.156.126-.232.603-1.035 1.965-1.474 3.084-1.115 2.033.573 1.31 2.989.723 1.524.12-.14.489-.178.24-.465-1.09-.274-.66 1.513.237 1.367.584-.077.622-.894.535-1.323-.115-.732-.808-1.166-1.431-1.44a24.52 24.52 0 0 0 2.242-1.03c3.062-1.184 6.877-2.645 7.84-6.178a.016.016 0 0 1 .004.008c1.578 2.454-.057 5.349 2.493 7.982 0 .002.003.002.003.004.528.661 1.204 1.47-.363 1.727.19 2.223-.835 5.311-2.889 6.784-1.79.98-3.84-.318-5.473-1.052.011.935.038 2.91.048 3.86.56-.124 1.312-.132 1.685.179h.002c.282.165.56.424.902.467.607.074 1.195-.307 1.71-.664 2.618-1.92 3.955 1.466 6.489.966 1.181-.225 1.857-2.427 2.215-4.238.816-3.29 5.396-2.24 5.073-8.075z" fill="#BCD1D0"/>
    <path fill-rule="evenodd" clip-rule="evenodd" d="M48.999 70.745v.006a2.61 2.61 0 0 1-.49.03v-.004c.163.008.33-.007.49-.032zM53.61 73.627h.002v-.005h-.003v.005z" fill="#975445"/>
    <path fill-rule="evenodd" clip-rule="evenodd" d="M48.999 70.745v.006a2.61 2.61 0 0 1-.49.03v-.004c.163.008.33-.007.49-.032zM53.61 73.627h.002v-.005h-.003v.005z" fill="#975445"/>
    <path fill-rule="evenodd" clip-rule="evenodd" d="M48.999 70.745v.006a2.61 2.61 0 0 1-.49.03v-.004c.163.008.33-.007.49-.032zM53.663 77.769a4429.07 4429.07 0 0 0-.051-4.142c-.03.006-4.587-2.852-4.614-2.86.049 2.28.174 5.41.24 7.674h4.433l-.008-.672zM49.37 67.001c-1.496-1.414-3.208.582-1.733 1.974l.01-.01c-1.677-2.258 1.73-3.152 1.735-1.394-.588-.334-1.215.472-.469.732l.002-.014c-.732-.306-.01-1.015.508-.616A.675.675 0 0 0 49.37 67z" fill="#975445"/>
    <path fill-rule="evenodd" clip-rule="evenodd" d="M53.644 75.2c-.876-.348-4.526-4.304-4.646-4.433.032.01 4.582 2.866 4.616 2.86.004.22.016 1.382.03 1.574z" fill="#84473D"/>
    <path fill-rule="evenodd" clip-rule="evenodd" d="M61.592 67.745c-.073-.02-.387-.232-.181-.223.12.088.727.386.181.223zM49.437 67.634l-.015.04c-.52-.399-1.24.31-.508.616l-.002.014c-.747-.26-.119-1.065.468-.731-.007-1.76-3.411-.861-1.735 1.393l-.01.01c-2.095-2.393 2.02-3.38 1.802-1.342z" fill="#672448"/>
    <path fill-rule="evenodd" clip-rule="evenodd" d="M59.544 65.16c-.384-1.143-1.945-1.059-2.55-.047-.2-1.628 2.572-1.442 2.55.046zM59.277 61.732c-.716-.167-1.703.23-2.094.842.536-2.117 3.21-1.312 2.094-.842zM59.105 70.326a1.793 1.793 0 0 1-1.513-.839.102.102 0 0 1 .028-.14.096.096 0 0 1 .136.03 1.585 1.585 0 0 0 2.228.477.097.097 0 0 1 .136.029c.03.046.017.109-.028.14a1.76 1.76 0 0 1-.987.303zM59.079 63.96c-.085-.154-.245-.207-.323-.357.033-.183.587.44.323.357z" fill="#561D3E"/>
</svg>
