<?xml version="1.0" encoding="UTF-8"?> <svg xmlns="http://www.w3.org/2000/svg" xmlns:xlink="http://www.w3.org/1999/xlink" id="Layer_1" data-name="Layer 1" viewBox="0 0 582 182"><defs><style>.cls-1{fill:none;}.cls-2{clip-path:url(#clip-path);}.cls-3{fill:#cb333b;fill-rule:evenodd;}.cls-4{fill:#1b365d;}</style><clipPath id="clip-path"><rect class="cls-1" width="582" height="182"></rect></clipPath></defs><g class="cls-2"><path class="cls-3" d="M70.47,65.35,88.35,47.54H8.45A9.42,9.42,0,0,0-1,56.93v79.7l17.88-17.81V65.35ZM80,83.24v-.06H34.74V101H62.23Zm-45.3,53.39V118.82H80L62.16,136.63Z"></path><path class="cls-4" d="M141.68,84.68h-29.3V46.29h28.53v7.84H120.78v7.4h19V69h-19v7.74h20.9Z"></path><path class="cls-4" d="M176.12,46.35V84.68H169l-.5-3.46c-2.59,3.55-5.65,4.22-9,4.22-8,0-13.41-5.91-13.41-14.32,0-8.76,5.54-14.09,13.52-14.09a10.38,10.38,0,0,1,8.52,3.84V46.35ZM154.07,71.12c0,3.89,2.42,7,6.65,7,3.59,0,7.31-1.82,7.31-7,0-4.6-3.68-7-7.31-7C156.6,64.16,154.07,67,154.07,71.12Z"></path><path class="cls-4" d="M190,73.87c.38,2.63,2.91,4.88,7.37,4.88,2.14,0,5.12-.43,7-2.14l4.47,5c-2.91,2.85-7.53,4-11.66,4C187.34,85.56,182,79.64,182,71c0-8.15,5.61-14,14.4-14,9.24,0,15.35,5.71,13.59,16.84H190Zm12.87-5.76c-.16-2.9-3.18-4.34-6.49-4.34s-5.54,1.65-6.38,4.34Z"></path><path class="cls-4" d="M223.86,46.35V84.68H216V46.35Z"></path><path class="cls-4" d="M249.19,84.68V70.16c0-3.55-1.76-5.91-5.05-5.91-3.13,0-4.89,2.9-4.89,6V84.7h-7.91V57.59h6.92l.54,3.08A8,8,0,0,1,246,57a8.29,8.29,0,0,1,8,5c2.41-3.73,4.93-5,9-5,5.65,0,10.84,2.74,10.84,12.88V84.7h-8V70.07c0-3.46-.88-5.64-4.13-5.64S257,67.1,257,70.18V84.7h-7.82Z"></path><path class="cls-4" d="M301.71,57.59h7.41V84.68H302l-.45-3.39c-1.76,3.07-5.73,4.22-8.36,4.22-8.14,0-14-5.42-14-14.36S285.37,56.83,293.39,57c3.47,0,6.54,1.32,8,3.73ZM287.08,71.12a6.79,6.79,0,0,0,7.15,7.13,7,7,0,0,0,7.21-6.86c0-3.88-2.53-7.46-7.21-7.46A6.87,6.87,0,0,0,287.08,71.12Z"></path><path class="cls-4" d="M336.08,84.68V70.36c0-4.23-1.87-6.32-5.61-6.32s-6.15,3.08-6.15,6.64v14h-7.8V57.59h7.14l.27,3.46A10.23,10.23,0,0,1,332.72,57C338.83,57,344,59.73,344,70.32V84.68Z"></path><path class="cls-4" d="M112.38,135.3V97h28v7.84H121v9.11h18.26v7.61H121V135.3Z"></path><path class="cls-4" d="M149,96.59a4.46,4.46,0,1,1-4.51,4.45A4.27,4.27,0,0,1,149,96.59Zm3.94,11.56V135.3H145V108.15Z"></path><path class="cls-4" d="M178.6,135.3V121c0-4.22-1.87-6.31-5.61-6.31s-6.16,3.08-6.16,6.63v14H159V108.21h7.15l.27,3.47a10.2,10.2,0,0,1,8.79-4.07c6.11,0,11.34,2.74,11.34,13.33V135.3Z"></path><path class="cls-4" d="M213.29,108.21h7.41V135.3h-7.14l-.45-3.39c-1.76,3.08-5.73,4.22-8.37,4.22-8.13,0-14-5.41-14-14.36S197,107.45,205,107.63c3.47,0,6.54,1.33,8,3.73Zm-14.63,13.54a6.79,6.79,0,0,0,7.14,7.12A7,7,0,0,0,213,122c0-3.89-2.53-7.47-7.22-7.47a6.88,6.88,0,0,0-7.14,7.2Z"></path><path class="cls-4" d="M246.4,135.3V121c0-4.22-1.87-6.31-5.61-6.31s-6.16,3.08-6.16,6.63v14h-7.8V108.21H234l.27,3.47a10.2,10.2,0,0,1,8.79-4.07c6.11,0,11.31,2.74,11.31,13.33V135.3Z"></path><path class="cls-4" d="M284,131.84a13.89,13.89,0,0,1-10.62,4.34c-7.91,0-14.85-4.5-14.85-14.25,0-9.11,6.87-14.32,14.78-14.32,4,0,7,.83,9.85,3.84l-4.39,5a8.15,8.15,0,0,0-5.12-1.59c-4,0-7.14,2.51-7.14,7.08,0,4.33,3.29,6.78,7,6.78a8.56,8.56,0,0,0,5.49-2Z"></path><path class="cls-4" d="M291.39,96.59a4.46,4.46,0,1,1-4.51,4.45A4.26,4.26,0,0,1,291.39,96.59Zm3.94,11.56V135.3h-7.91V108.15Z"></path><path class="cls-4" d="M322.45,108.21h7.41V135.3h-7.14l-.45-3.39c-1.76,3.08-5.73,4.22-8.37,4.22-8.13,0-14-5.41-14-14.36s6.22-14.32,14.25-14.14c3.47,0,6.54,1.33,8,3.73Zm-14.63,13.54a6.78,6.78,0,0,0,7.14,7.12,7,7,0,0,0,7.21-6.85c0-3.89-2.52-7.47-7.21-7.47a6.88,6.88,0,0,0-7.14,7.2Z"></path><path class="cls-4" d="M344,97V135.3h-7.87V97Z"></path><path class="cls-4" d="M392.84,135.3h-29.3V96.91h28.53v7.84H371.94v7.4h19v7.51h-19v7.73h20.9Z"></path><path class="cls-4" d="M417.25,135.3V121c0-4.22-1.87-6.31-5.62-6.31s-6.15,3.08-6.15,6.63v14h-7.8V108.21h7.15l.27,3.47a10.2,10.2,0,0,1,8.79-4.07c6.11,0,11.31,2.74,11.31,13.33V135.3Z"></path><path class="cls-4" d="M437.15,139.19c.27,4.16,3.13,5.49,6.81,5.49,3.51,0,6.71-1.64,6.71-5,0-2.63-1.71-4.66-6.6-4.66-8.9,0-14.68-5.26-14.68-13.64,0-9.15,7.1-13.83,14.68-13.83,1.91,0,4.62.23,6.38,1.49l3-3.85,5.73,4.39-3.47,4.11a11.35,11.35,0,0,1,2.79,7.78,10.57,10.57,0,0,1-5.84,9.48c6,2.63,6,7.17,6,8.73,0,8.07-7.3,12-14.74,12-9.44,0-14.35-4.61-14.17-12.46Zm-.09-17.82c0,3.95,3,6.47,7,6.47,3.58,0,6.83-2.14,6.83-6.47a6.7,6.7,0,0,0-6.83-6.79C440.08,114.58,437.06,117,437.06,121.37Z"></path><path class="cls-4" d="M467.62,96.59a4.46,4.46,0,1,1-4.51,4.45A4.27,4.27,0,0,1,467.62,96.59Zm4,11.56V135.3h-7.94V108.15Z"></path><path class="cls-4" d="M497.26,135.3V121c0-4.22-1.87-6.31-5.61-6.31s-6.15,3.08-6.15,6.63v14h-7.8V108.21h7.14l.27,3.47a10.2,10.2,0,0,1,8.79-4.07c6.11,0,11.34,2.74,11.34,13.33V135.3Z"></path><path class="cls-4" d="M517.43,124.49c.39,2.63,2.91,4.88,7.37,4.88,2.15,0,5.12-.43,7-2.14l4.46,5c-2.91,2.85-7.53,4-11.65,4-9.85,0-15.24-5.91-15.24-14.52,0-8.16,5.61-14,14.4-14,9.24,0,15.35,5.71,13.6,16.83h-20Zm12.87-5.75c-.15-2.9-3.17-4.34-6.49-4.34s-5.54,1.64-6.38,4.34Z"></path><path class="cls-4" d="M559.18,116a10.72,10.72,0,0,0-6.43-1.91c-2.59,0-3.9.92-3.9,2.18,0,1.48,1.33,2.31,4,2.36,5.27.15,11.81,1.26,11.81,8.72,0,4.22-3.25,9-11.88,9A18.77,18.77,0,0,1,540,131.68l3.41-5.48a15,15,0,0,0,9.44,3.28c2.37,0,4.12-.88,4.08-2.2s-1-2.25-4.62-2.41c-5.05-.16-11.38-2.29-11.38-8.65,0-6,5.77-8.66,11.72-8.66a15.05,15.05,0,0,1,10.39,3.51Z"></path><path class="cls-4" d="M573.87,107.36a6.12,6.12,0,1,0,6.07,6.11A5.79,5.79,0,0,0,573.87,107.36Zm0,10.88c-2.93,0-4.55-1.93-4.55-4.77,0-2.69,1.65-4.81,4.55-4.81s4.58,2.12,4.58,4.79a4.44,4.44,0,0,1-4.58,4.79Z"></path><path class="cls-4" d="M574.46,110.26h-2.91v6.23h1.38v-2.07h.9l1.58,2.07h1.48v-.3l-1.64-1.93c2.3-.54,2-4-.79-4Zm0,3h-1.51v-1.73h1.53A.87.87,0,1,1,574.44,113.27Z"></path></g></svg> 