<?xml version="1.0" encoding="utf-8"?>
<!-- Generator: Adobe Illustrator 25.4.1, SVG Export Plug-In . SVG Version: 6.00 Build 0)  -->
<svg version="1.1" id="Layer_1" xmlns="http://www.w3.org/2000/svg" xmlns:xlink="http://www.w3.org/1999/xlink" x="0px" y="0px"
	 viewBox="0 0 188 91" style="enable-background:new 0 0 188 91;" xml:space="preserve">
<style type="text/css">
	.st0{fill:#6D6E71;}
	.st1{fill:#E76425;}
	.st2{fill:#F7941D;}
	.st3{fill:url(#SVGID_1_);}
	.st4{fill:url(#SVGID_00000179619149996737488600000003734997774587261577_);}
	.st5{fill:url(#SVGID_00000159441643596822435820000014755300742638726051_);}
	.st6{fill:url(#SVGID_00000062154900528811628060000009786340248443908517_);}
	.st7{display:none;}
	.st8{display:inline;fill:#6D6E71;}
	.st9{fill:#FFFFFF;}
</style>
<g>
	<g>
		<g>
			<g>
				<path class="st0" d="M25.71,27.19h4.78l8.93,23.39l8.97-23.39h4.78L42.06,55.15h-5.24L25.71,27.19z"/>
				<path class="st0" d="M94.96,43.46L84.02,27.19h4.82l8.22,12.49l8.13-12.49h4.86l-10.9,16.27v11.7h-4.19V43.46z"/>
				<path class="st0" d="M126.27,49.37h-13.71l-2.26,5.79h-4.61l11.11-27.96h5.24l11.11,27.96h-4.61L126.27,49.37z M113.78,45.64
					h11.28l-5.66-14.8L113.78,45.64z"/>
				<path class="st0" d="M148.78,26.73c5.24,0,8.72,2.39,11.07,5.53l-3.4,1.97c-1.59-2.14-4.4-3.77-7.67-3.77
					c-5.83,0-10.19,4.44-10.19,10.73c0,6.25,4.36,10.77,10.19,10.77c3.1,0,5.74-1.51,7.09-2.77v-5.03h-8.97v-3.69h13.16v10.27
					c-2.68,2.98-6.54,4.95-11.28,4.95c-8.01,0-14.5-5.79-14.5-14.51S140.77,26.73,148.78,26.73z"/>
				<path class="st0" d="M165.42,27.19h18.78v3.69h-14.59v8.17h14.29v3.69h-14.29v8.72h14.59v3.69h-18.78V27.19z"/>
			</g>
			<g>
				<path class="st1" d="M28.06,21.97V7.8c0-2.85-1.22-4.61-4.07-4.61c-2.18,0-4.65,1.59-5.78,3.44v15.34h-2.22V7.8
					c0-2.85-1.17-4.61-4.07-4.61c-2.14,0-4.57,1.63-5.78,3.48v15.3H3.96V1.72h2.18v3.06c0.84-1.3,3.6-3.56,6.54-3.56
					c3.14,0,4.82,1.84,5.32,3.81c1.13-1.89,3.86-3.81,6.71-3.81c3.73,0,5.53,2.1,5.53,6.16v14.59H28.06z"/>
				<path class="st1" d="M35.02,27.88c0.46,0.21,1.26,0.34,1.76,0.34c1.34,0,2.26-0.54,3.06-2.47l1.59-3.6L32.88,1.72h2.43
					l7.38,17.69l7.29-17.69h2.47L41.98,26.41c-1.09,2.56-2.81,3.77-5.2,3.77c-0.67,0-1.59-0.13-2.14-0.29L35.02,27.88z"/>
			</g>
			<g>
				<g>
					<path class="st1" d="M69.54,58.2c-9.12,0-16.54-7.42-16.54-16.54s7.42-16.54,16.54-16.54s16.54,7.42,16.54,16.54
						S78.66,58.2,69.54,58.2z M69.54,27.46c-7.83,0-14.2,6.37-14.2,14.2s6.37,14.2,14.2,14.2s14.2-6.37,14.2-14.2
						S77.37,27.46,69.54,27.46z"/>
				</g>
			</g>
			<g>
				<path class="st0" d="M105.2,83.27V72.15h0.87v4.37c0.65-0.92,1.67-1.5,2.8-1.5c2.15,0,3.6,1.68,3.6,4.23
					c0,2.58-1.47,4.22-3.6,4.22c-1.2,0-2.23-0.65-2.8-1.48v1.28H105.2z M108.72,82.69c1.8,0,2.82-1.48,2.82-3.43
					c0-1.95-1.02-3.45-2.82-3.45c-1.12,0-2.18,0.7-2.65,1.47v3.98C106.53,82.02,107.6,82.69,108.72,82.69z"/>
				<path class="st0" d="M114.33,85.62c0.18,0.08,0.5,0.13,0.7,0.13c0.53,0,0.9-0.22,1.22-0.98l0.63-1.43l-3.4-8.12h0.97l2.93,7.03
					l2.9-7.03h0.98l-4.17,9.82c-0.43,1.02-1.12,1.5-2.07,1.5c-0.27,0-0.63-0.05-0.85-0.12L114.33,85.62z"/>
			</g>
			<g>
				<g>
					<g>
						<g>
							<g>
								<path class="st2" d="M145.27,69.02c-3.93,0-7.12,3.19-7.12,7.12c0,3.93,3.19,7.12,7.12,7.12c3.93,0,7.12-3.19,7.12-7.12
									C152.39,72.21,149.2,69.02,145.27,69.02z M145.27,80.87c-2.61,0-4.6-2.11-4.6-4.72c0-2.61,1.99-4.72,4.6-4.72
									c2.61,0,4.6,2.11,4.6,4.72C149.87,78.75,147.87,80.87,145.27,80.87z"/>
								<linearGradient id="SVGID_1_" gradientUnits="userSpaceOnUse" x1="140.6688" y1="76.1481" x2="152.3902" y2="76.1481">
									<stop  offset="6.074620e-03" style="stop-color:#EF3B24"/>
									<stop  offset="0.25" style="stop-color:#F05123"/>
									<stop  offset="0.45" style="stop-color:#F37021"/>
									<stop  offset="1" style="stop-color:#F68B1F"/>
								</linearGradient>
								<path class="st3" d="M146.47,69.56c-3.27,0-5.8,2.95-5.8,6.59c0-2.61,1.99-4.72,4.6-4.72c2.61,0,4.6,2.11,4.6,4.72
									c0,2.61-1.99,4.72-4.6,4.72c-2.61,0-4.6-2.11-4.6-4.72c0,3.64,2.53,6.59,5.8,6.59c3.27,0,5.92-2.95,5.92-6.59
									C152.39,72.51,149.74,69.56,146.47,69.56z"/>
								
									<linearGradient id="SVGID_00000052064266639848784310000016890660073153703817_" gradientUnits="userSpaceOnUse" x1="130.8116" y1="82.1861" x2="136.8795" y2="69.1287">
									<stop  offset="0" style="stop-color:#F05123"/>
									<stop  offset="0.45" style="stop-color:#F37021"/>
									<stop  offset="1" style="stop-color:#F68B1F"/>
								</linearGradient>
								<path style="fill:url(#SVGID_00000052064266639848784310000016890660073153703817_);" d="M134.83,70.31
									c-0.63,1.4-5.25,11.78-5.25,11.78l1.66,1.05l0.62,0.01l6.2-13.81C137.4,69.03,135.46,68.91,134.83,70.31z"/>
								<path class="st2" d="M130.77,81.96c-0.52-1.17-4.56-10.25-5.18-11.65c-0.62-1.4-2.57-1.28-3.23-0.97l5.63,12.59
									c0.35,0.76,1.08,1.22,2.21,1.22c0.02,0,1.67,0,1.67,0S131.29,83.13,130.77,81.96z"/>
								
									<linearGradient id="SVGID_00000013178838515691689160000016657711233209346486_" gradientUnits="userSpaceOnUse" x1="174.2125" y1="69.8189" x2="180.2399" y2="82.9773">
									<stop  offset="0" style="stop-color:#F05123"/>
									<stop  offset="0.45" style="stop-color:#F37021"/>
									<stop  offset="1" style="stop-color:#F68B1F"/>
								</linearGradient>
								<path style="fill:url(#SVGID_00000013178838515691689160000016657711233209346486_);" d="M181.56,82.97
									c-0.66,0.31-2.6,0.43-3.22-0.97c-0.47-1.04-5.23-11.75-5.23-11.75l1.68-1.06h0.6L181.56,82.97z"/>
								<path class="st2" d="M175.87,79.59l-0.52-1.12c-0.39-0.89-1.01-1.11-1.8-1.11h-2.42c0,0,2.66-5.95,3.15-7.07
									c0.49-1.12,1.09-1.12,1.09-1.12s-1.64,0-1.67,0c-1.09,0-1.84,0.43-2.21,1.23l-5.65,12.55c0.66,0.31,2.59,0.44,3.23-0.97
									c0.63-1.42,1.16-2.59,1.16-2.59l4.49,0C175.59,79.39,175.87,79.59,175.87,79.59z"/>
								
									<linearGradient id="SVGID_00000138561338949695852260000000163923870111853985_" gradientUnits="userSpaceOnUse" x1="157.2345" y1="88.4722" x2="166.3323" y2="69.2239" gradientTransform="matrix(1 0 0.0163 1 -0.5425 0)">
									<stop  offset="0" style="stop-color:#F05123"/>
									<stop  offset="0.45" style="stop-color:#F37021"/>
									<stop  offset="1" style="stop-color:#F68B1F"/>
								</linearGradient>
								<path style="fill:url(#SVGID_00000138561338949695852260000000163923870111853985_);" d="M168.18,69.34
									c-0.66-0.31-2.58-0.43-3.21,0.97c-0.63,1.4-8.13,18.13-8.13,18.13c0.66,0.31,2.58,0.43,3.21-0.97L168.18,69.34z"/>
								<path class="st2" d="M160.89,81.96c-0.53-1.18-4.55-10.21-5.18-11.65c-0.64-1.43-2.57-1.28-3.23-0.97l5.62,12.59
									c0.35,0.76,1.08,1.23,2.21,1.23c0.02,0,1.67,0,1.67,0S161.42,83.14,160.89,81.96z"/>
							</g>
						</g>
					</g>
					<g class="st7">
						<path class="st8" d="M183.66,83.14c-0.57,0-1.04-0.47-1.04-1.04c0-0.58,0.47-1.04,1.04-1.04c0.58,0,1.04,0.46,1.04,1.04
							C184.7,82.67,184.24,83.14,183.66,83.14z M183.66,81.23c-0.48,0-0.87,0.38-0.87,0.87c0,0.48,0.39,0.87,0.87,0.87
							c0.48,0,0.87-0.39,0.87-0.87C184.53,81.61,184.14,81.23,183.66,81.23z M183.94,82.7l-0.31-0.47h-0.19v0.47h-0.18V81.5h0.49
							c0.2,0,0.4,0.14,0.4,0.36c0,0.27-0.24,0.35-0.3,0.35l0.32,0.48H183.94z M183.74,81.66h-0.3v0.41h0.3c0.1,0,0.22-0.08,0.22-0.2
							C183.96,81.74,183.84,81.66,183.74,81.66z"/>
					</g>
				</g>
				<g>
					<path class="st0" d="M183.66,83.14c-0.57,0-1.04-0.46-1.04-1.04c0-0.58,0.47-1.04,1.04-1.04c0.58,0,1.04,0.46,1.04,1.04
						C184.7,82.67,184.24,83.14,183.66,83.14z M183.66,81.2c-0.5,0-0.9,0.4-0.9,0.9c0,0.49,0.41,0.9,0.9,0.9c0.5,0,0.9-0.41,0.9-0.9
						C184.57,81.6,184.16,81.2,183.66,81.2z M183.95,82.7l-0.31-0.47h-0.22v0.47h-0.15v-1.19h0.48c0.2,0,0.37,0.14,0.37,0.36
						c0,0.26-0.23,0.35-0.3,0.35l0.32,0.47H183.95z M183.75,81.65h-0.34v0.44h0.34c0.1,0,0.22-0.09,0.22-0.21
						C183.97,81.74,183.86,81.65,183.75,81.65z"/>
				</g>
			</g>
		</g>
	</g>
	<g>
		<polygon class="st1" points="63.78,39.61 75.31,43.7 73.52,30.37 		"/>
		<polygon class="st2" points="63.78,39.61 69.56,41.66 73.52,30.37 		"/>
		<polygon class="st1" points="75.31,43.7 63.78,39.61 65.59,52.94 		"/>
		<polygon class="st2" points="75.31,43.7 69.56,41.66 65.59,52.94 		"/>
		<circle class="st9" cx="69.55" cy="41.63" r="1.91"/>
	</g>
</g>
</svg>
