<?xml version="1.0" encoding="utf-8"?>
<!-- Generator: Adobe Illustrator 25.4.1, SVG Export Plug-In . SVG Version: 6.00 Build 0)  -->
<svg version="1.1" id="Layer_1" xmlns="http://www.w3.org/2000/svg" xmlns:xlink="http://www.w3.org/1999/xlink" x="0px" y="0px"
	 viewBox="0 0 219 67" style="enable-background:new 0 0 219 67;" xml:space="preserve">
<style type="text/css">
	.st0{fill:#F7941D;}
	.st1{fill:url(#SVGID_1_);}
	.st2{fill:url(#SVGID_00000137100436726933437140000003003403821618211983_);}
	.st3{fill:url(#SVGID_00000161630276569155607660000003777159017700218550_);}
	.st4{fill:url(#SVGID_00000069381617729569465470000005672956812976541079_);}
	.st5{clip-path:url(#SVGID_00000183933109373485437910000005820520996120679310_);fill:#6D6E71;}
	.st6{clip-path:url(#SVGID_00000029749037827543030250000007161995620775166375_);fill:#6D6E71;}
	.st7{clip-path:url(#SVGID_00000012461050096688871750000002488806235276286888_);fill:#6D6E71;}
	.st8{clip-path:url(#SVGID_00000063634784684739948680000007932164989521016998_);fill:#6D6E71;}
	.st9{clip-path:url(#SVGID_00000012467047769114523780000015461368602077747103_);fill:#6D6E71;}
	.st10{clip-path:url(#SVGID_00000163777737000915260840000004053442393780239780_);fill:#E76425;}
	.st11{clip-path:url(#SVGID_00000093135470929265591180000015121473078100842630_);fill:#E76425;}
	.st12{clip-path:url(#SVGID_00000044144475393663547240000000578022674909254569_);fill:#6D6E71;}
	.st13{clip-path:url(#SVGID_00000142866109378600824460000005025927858929231016_);fill:#6D6E71;}
	.st14{clip-path:url(#SVGID_00000060721039114948874940000018284373288409158296_);fill:#6D6E71;}
</style>
<path class="st0" d="M177.4,46.3c-1.5,0-2.9,0.4-4.2,1.3c-1.2,0.8-2.2,2-2.8,3.4s-0.7,2.9-0.4,4.4s1,2.8,2.1,3.9
	c1.1,1.1,2.4,1.8,3.9,2.1s3,0.1,4.3-0.4c1.4-0.6,2.6-1.5,3.4-2.8c0.8-1.2,1.3-2.7,1.3-4.2c0-2-0.8-3.9-2.2-5.3
	C181.3,47.1,179.4,46.3,177.4,46.3L177.4,46.3z M177.4,58.8c-1,0-2-0.2-2.8-0.8c-0.8-0.5-1.5-1.3-1.9-2.2s-0.5-1.9-0.4-2.9
	c0.2-1,0.6-1.9,1.3-2.6c0.7-0.7,1.6-1.2,2.5-1.4s2-0.1,2.9,0.2c0.9,0.4,1.7,1,2.3,1.8s0.9,1.8,0.9,2.8v0.1c0,0.6-0.1,1.3-0.3,1.9
	c-0.2,0.6-0.6,1.1-1,1.6s-1,0.8-1.6,1.1C178.8,58.6,178.1,58.8,177.4,58.8L177.4,58.8z"/>
<linearGradient id="SVGID_1_" gradientUnits="userSpaceOnUse" x1="172.2514" y1="53.75" x2="184.9263" y2="53.75">
	<stop  offset="1.000000e-02" style="stop-color:#EF3B24"/>
	<stop  offset="0.25" style="stop-color:#F05123"/>
	<stop  offset="0.45" style="stop-color:#F37021"/>
	<stop  offset="1" style="stop-color:#F68B1F"/>
</linearGradient>
<path class="st1" d="M178.5,46.8c-3.5,0-6.3,3.1-6.3,6.9c0-1.3,0.6-2.5,1.5-3.5c1-0.9,2.2-1.4,3.6-1.4c1.3,0,2.6,0.5,3.6,1.5
	c0.9,0.9,1.5,2.2,1.5,3.5s-0.5,2.6-1.5,3.5c-0.9,0.9-2.2,1.4-3.6,1.5c-1.3,0-2.6-0.5-3.6-1.4s-1.5-2.2-1.5-3.5v-0.1
	c0,3.8,2.7,6.9,6.3,6.9c3.5,0,6.4-3.1,6.4-6.9C185,49.9,182.1,46.8,178.5,46.8z"/>
<linearGradient id="SVGID_00000161602148684638125120000004449133879761822365_" gradientUnits="userSpaceOnUse" x1="162.2359" y1="60.1796" x2="168.6349" y2="46.4174">
	<stop  offset="0" style="stop-color:#F05123"/>
	<stop  offset="0.45" style="stop-color:#F37021"/>
	<stop  offset="1" style="stop-color:#F68B1F"/>
</linearGradient>
<path style="fill:url(#SVGID_00000161602148684638125120000004449133879761822365_);" d="M166.4,47.7l-5.5,12.4l1.8,1.1h0.7
	l6.5-14.6C169.1,46.3,167.1,46.2,166.4,47.7z"/>
<linearGradient id="SVGID_00000030485217727262640520000010197599348200927115_" gradientUnits="userSpaceOnUse" x1="9797.9756" y1="12689.7686" x2="10013.4453" y2="12973.7686">
	<stop  offset="0" style="stop-color:#F05123"/>
	<stop  offset="0.45" style="stop-color:#F37021"/>
	<stop  offset="1" style="stop-color:#F68B1F"/>
</linearGradient>
<path style="fill:url(#SVGID_00000030485217727262640520000010197599348200927115_);" d="M215.6,61c-0.7,0.3-2.7,0.4-3.4-1.1
	l-5.5-12.4l1.8-1.1h0.6L215.6,61z"/>
<linearGradient id="SVGID_00000137819851676068820610000002464503413286730402_" gradientUnits="userSpaceOnUse" x1="-7947.3677" y1="10235.666" x2="-7504.8179" y2="9682.4648">
	<stop  offset="0" style="stop-color:#F05123"/>
	<stop  offset="0.45" style="stop-color:#F37021"/>
	<stop  offset="1" style="stop-color:#F68B1F"/>
</linearGradient>
<path style="fill:url(#SVGID_00000137819851676068820610000002464503413286730402_);" d="M201.6,46.6c-0.7-0.3-2.7-0.4-3.4,1.1
	l-8.6,19.1c0.7,0.3,2.7,0.4,3.4-1.1L201.6,46.6z"/>
<g>
	<defs>
		<rect id="SVGID_00000140013280967499201540000002804582457791932038_" width="219" height="67"/>
	</defs>
	<clipPath id="SVGID_00000029046797546644943980000013728267732451876500_">
		<use xlink:href="#SVGID_00000140013280967499201540000002804582457791932038_"  style="overflow:visible;"/>
	</clipPath>
	<path style="clip-path:url(#SVGID_00000029046797546644943980000013728267732451876500_);fill:#6D6E71;" d="M51.4,2.2h5l9.4,24.6
		l9.5-24.6h5L68.7,31.7h-5.5L51.4,2.2z"/>
</g>
<g>
	<defs>
		<rect id="SVGID_00000183944327327899312940000002232983754818192574_" width="219" height="67"/>
	</defs>
	<clipPath id="SVGID_00000036954346068701747370000005401053090680302759_">
		<use xlink:href="#SVGID_00000183944327327899312940000002232983754818192574_"  style="overflow:visible;"/>
	</clipPath>
	<path style="clip-path:url(#SVGID_00000036954346068701747370000005401053090680302759_);fill:#6D6E71;" d="M124.4,19.4L112.9,2.2
		h5.1l8.6,13.2l8.6-13.2h5.1l-11.5,17.2v12.3h-4.4V19.4z"/>
</g>
<g>
	<defs>
		<rect id="SVGID_00000176742899482794330530000009928311025777410190_" width="219" height="67"/>
	</defs>
	<clipPath id="SVGID_00000064355061588216143780000002278742045639243922_">
		<use xlink:href="#SVGID_00000176742899482794330530000009928311025777410190_"  style="overflow:visible;"/>
	</clipPath>
	<path style="clip-path:url(#SVGID_00000064355061588216143780000002278742045639243922_);fill:#6D6E71;" d="M157.4,25.6H143
		l-2.4,6.1h-4.9l11.7-29.5h5.5l11.7,29.5h-4.9L157.4,25.6z M144.2,21.6h11.9l-6-15.6L144.2,21.6z"/>
</g>
<g>
	<defs>
		<rect id="SVGID_00000127011559731477935560000009130223967898097281_" width="219" height="67"/>
	</defs>
	<clipPath id="SVGID_00000067236801922765973840000001382633957522551696_">
		<use xlink:href="#SVGID_00000127011559731477935560000009130223967898097281_"  style="overflow:visible;"/>
	</clipPath>
	<path style="clip-path:url(#SVGID_00000067236801922765973840000001382633957522551696_);fill:#6D6E71;" d="M181.1,1.7
		c2.3-0.1,4.5,0.4,6.6,1.5c2,1,3.8,2.5,5.1,4.4l-3.6,2.1c-1-1.2-2.2-2.2-3.6-2.9c-1.4-0.7-2.9-1.1-4.5-1.1
		c-6.1,0-10.7,4.7-10.7,11.3s4.6,11.3,10.7,11.3c2.8,0,5.4-1.1,7.5-2.9V20h-9.5v-3.9H193V27c-1.5,1.7-3.3,3-5.4,3.9
		c-2.1,0.9-4.3,1.3-6.5,1.3c-8.4,0-15.3-6.1-15.3-15.3S172.7,1.7,181.1,1.7z"/>
</g>
<g>
	<defs>
		<rect id="SVGID_00000132787188262363703510000016731524010509490103_" width="219" height="67"/>
	</defs>
	<clipPath id="SVGID_00000026137847477582816880000002230181306430944441_">
		<use xlink:href="#SVGID_00000132787188262363703510000016731524010509490103_"  style="overflow:visible;"/>
	</clipPath>
	<path style="clip-path:url(#SVGID_00000026137847477582816880000002230181306430944441_);fill:#6D6E71;" d="M198.7,2.2h19.8v3.9
		h-15.4v8.6h15.1v3.9h-15.1v9.2h15.4v3.9h-19.8V2.2L198.7,2.2z"/>
</g>
<g>
	<defs>
		<rect id="SVGID_00000015324104398096046880000018326268341436518022_" width="219" height="67"/>
	</defs>
	<clipPath id="SVGID_00000025434364573526218630000001195552864568027323_">
		<use xlink:href="#SVGID_00000015324104398096046880000018326268341436518022_"  style="overflow:visible;"/>
	</clipPath>
	<path style="clip-path:url(#SVGID_00000025434364573526218630000001195552864568027323_);fill:#E76425;" d="M25.4,31.7v-15
		c0-3-1.3-4.9-4.3-4.9c-2.3,0-4.9,1.7-6.1,3.6v16.2h-2.3V16.7c0-3-1.2-4.9-4.3-4.9c-2.3,0-4.8,1.7-6.1,3.7v16.1H0V10.3h2.3v3.2
		c0.9-1.4,3.8-3.8,6.9-3.8c3.3,0,5.1,1.9,5.6,4c0.8-1.2,1.8-2.2,3.1-2.9c1.2-0.7,2.6-1.1,4-1.2c3.9,0,5.8,2.2,5.8,6.5v15.4
		L25.4,31.7L25.4,31.7z"/>
</g>
<g>
	<defs>
		<rect id="SVGID_00000078027363443713158700000008107285936160327817_" width="219" height="67"/>
	</defs>
	<clipPath id="SVGID_00000142150646223321861960000002793169018888005039_">
		<use xlink:href="#SVGID_00000078027363443713158700000008107285936160327817_"  style="overflow:visible;"/>
	</clipPath>
	<path style="clip-path:url(#SVGID_00000142150646223321861960000002793169018888005039_);fill:#E76425;" d="M32.7,37.9
		c0.6,0.2,1.2,0.3,1.9,0.3c1.4,0,2.4-0.6,3.2-2.6l1.7-3.8l-9-21.5H33L40.7,29l7.7-18.7H51l-11,26c-1.2,2.7-3,4-5.5,4
		c-0.8,0-1.5-0.1-2.3-0.3L32.7,37.9z"/>
</g>
<g>
	<defs>
		<rect id="SVGID_00000006673633196585512010000001426215679331698308_" width="219" height="67"/>
	</defs>
	<clipPath id="SVGID_00000121240624317936610260000001075516537055763845_">
		<use xlink:href="#SVGID_00000006673633196585512010000001426215679331698308_"  style="overflow:visible;"/>
	</clipPath>
	<path style="clip-path:url(#SVGID_00000121240624317936610260000001075516537055763845_);fill:#6D6E71;" d="M135.2,61.3V49.6h0.9
		v4.6c0.3-0.5,0.8-0.9,1.3-1.2s1.1-0.4,1.7-0.5c2.3,0,3.8,1.8,3.8,4.4c0,2.7-1.6,4.4-3.8,4.4c-0.6,0-1.1-0.2-1.7-0.4
		c-0.5-0.3-0.9-0.7-1.3-1.1v1.4L135.2,61.3L135.2,61.3z M138.9,60.7c1.9,0,3-1.6,3-3.6s-1.1-3.7-3-3.7c-0.6,0-1.1,0.2-1.6,0.4
		c-0.5,0.3-0.9,0.6-1.2,1.1v4.2c0.3,0.5,0.7,0.8,1.2,1.1C137.8,60.5,138.3,60.7,138.9,60.7L138.9,60.7z"/>
</g>
<g>
	<defs>
		<rect id="SVGID_00000163770457607436593330000007195914251932085178_" width="219" height="67"/>
	</defs>
	<clipPath id="SVGID_00000173121152064479165570000006964858113254359206_">
		<use xlink:href="#SVGID_00000163770457607436593330000007195914251932085178_"  style="overflow:visible;"/>
	</clipPath>
	<path style="clip-path:url(#SVGID_00000173121152064479165570000006964858113254359206_);fill:#6D6E71;" d="M144.8,63.8
		c0.2,0.1,0.5,0.2,0.7,0.2c0.6,0,0.9-0.2,1.3-1.1l0.7-1.5l-3.6-8.6h1l3.1,7.4l3-7.4h1.1l-4.4,10.4c-0.1,0.5-0.4,0.9-0.8,1.2
		c-0.4,0.3-0.9,0.4-1.3,0.4c-0.3,0-0.6,0-0.9-0.1L144.8,63.8z"/>
</g>
<g>
	<defs>
		<rect id="SVGID_00000173865908107706812740000004541566391786555310_" width="219" height="67"/>
	</defs>
	<clipPath id="SVGID_00000085225316752138103520000005097379009388042931_">
		<use xlink:href="#SVGID_00000173865908107706812740000004541566391786555310_"  style="overflow:visible;"/>
	</clipPath>
	<path style="clip-path:url(#SVGID_00000085225316752138103520000005097379009388042931_);fill:#6D6E71;" d="M217.9,61.2
		c-0.2,0-0.4-0.1-0.6-0.2s-0.3-0.3-0.4-0.5s-0.1-0.4-0.1-0.6c0-0.2,0.1-0.4,0.3-0.6c0.2-0.2,0.4-0.3,0.6-0.3c0.2,0,0.4,0,0.6,0.1
		c0.2,0.1,0.4,0.2,0.5,0.4s0.2,0.4,0.2,0.6c0,0.3-0.1,0.6-0.3,0.8C218.5,61.1,218.2,61.2,217.9,61.2z M217.9,59.1
		c-0.2,0-0.5,0.1-0.7,0.3s-0.3,0.4-0.3,0.7s0.1,0.5,0.3,0.7s0.4,0.3,0.7,0.3c0.2,0,0.5-0.1,0.7-0.3s0.3-0.4,0.3-0.7l0,0
		c0-0.1,0-0.2-0.1-0.4c0-0.1-0.1-0.2-0.2-0.3c-0.1-0.1-0.2-0.2-0.3-0.2C218.1,59.1,218,59.1,217.9,59.1L217.9,59.1z M218.2,60.7
		l-0.3-0.5h-0.2v0.5h-0.2v-1.3h0.5c0.1,0,0.1,0,0.2,0c0,0,0.1,0,0.1,0.1l0.1,0.1c0,0,0,0.1,0,0.2c0,0.1,0,0.2-0.1,0.3
		s-0.1,0.1-0.2,0.1l0.3,0.5C218.4,60.7,218.2,60.7,218.2,60.7z M218,59.6h-0.3V60h0.3c0.1,0,0.1,0,0.2-0.1c0,0,0.1-0.1,0.1-0.2
		s0-0.1-0.1-0.2C218.1,59.6,218.1,59.6,218,59.6L218,59.6z"/>
</g>
<g>
	<defs>
		<rect id="SVGID_00000108994140973756365310000001346374885665110158_" width="219" height="67"/>
	</defs>
	<clipPath id="SVGID_00000164491269910398352350000016532290009196603266_">
		<use xlink:href="#SVGID_00000108994140973756365310000001346374885665110158_"  style="overflow:visible;"/>
	</clipPath>
</g>
<g>
	<defs>
		<rect id="SVGID_00000086667073840555963400000008274096862602140306_" width="219" height="67"/>
	</defs>
	<clipPath id="SVGID_00000072279933594736416770000010460414815312420266_">
		<use xlink:href="#SVGID_00000086667073840555963400000008274096862602140306_"  style="overflow:visible;"/>
	</clipPath>
</g>
<g>
	<defs>
		<rect id="SVGID_00000105414258938763685550000014506137743163834298_" width="219" height="67"/>
	</defs>
	<clipPath id="SVGID_00000013908987533188415810000013276966772340972181_">
		<use xlink:href="#SVGID_00000105414258938763685550000014506137743163834298_"  style="overflow:visible;"/>
	</clipPath>
</g>
<g>
	<defs>
		<rect id="SVGID_00000172426026021101886650000002360701047826137002_" width="219" height="67"/>
	</defs>
	<clipPath id="SVGID_00000041269983799457445190000003009086171447170231_">
		<use xlink:href="#SVGID_00000172426026021101886650000002360701047826137002_"  style="overflow:visible;"/>
	</clipPath>
</g>
<g>
	<defs>
		<rect id="SVGID_00000052082189451541103580000000610805386214680744_" width="219" height="67"/>
	</defs>
	<clipPath id="SVGID_00000085963648932024155850000010094602888610891690_">
		<use xlink:href="#SVGID_00000052082189451541103580000000610805386214680744_"  style="overflow:visible;"/>
	</clipPath>
</g>
<g>
	<defs>
		<rect id="SVGID_00000085934836412349268450000015165878824745933210_" width="219" height="67"/>
	</defs>
	<clipPath id="SVGID_00000082358643168236883200000011747043915803067560_">
		<use xlink:href="#SVGID_00000085934836412349268450000015165878824745933210_"  style="overflow:visible;"/>
	</clipPath>
</g>
<g>
	<defs>
		<rect id="SVGID_00000156548972907165060790000013183625898643199659_" width="219" height="67"/>
	</defs>
	<clipPath id="SVGID_00000022529027111852140620000017191110413092204693_">
		<use xlink:href="#SVGID_00000156548972907165060790000013183625898643199659_"  style="overflow:visible;"/>
	</clipPath>
</g>
<g>
	<defs>
		<rect id="SVGID_00000150083523485800653500000001527974596406191002_" width="219" height="67"/>
	</defs>
	<clipPath id="SVGID_00000153688881413120440710000016675701537712301449_">
		<use xlink:href="#SVGID_00000150083523485800653500000001527974596406191002_"  style="overflow:visible;"/>
	</clipPath>
</g>
<path class="st0" d="M162.1,59.9l-5.5-12.3c-0.7-1.4-2.7-1.3-3.4-1.1l5.9,13.3c0.2,0.4,0.5,0.8,1,1c0.4,0.2,0.9,0.3,1.4,0.3h1.8
	C163.3,61.2,162.7,61.2,162.1,59.9z"/>
<path class="st0" d="M209.7,57.5l-0.6-1.2c-0.1-0.4-0.4-0.7-0.7-0.9s-0.7-0.3-1.1-0.2h-2.5c0,0,2.8-6.3,3.3-7.5s1.2-1.2,1.2-1.2
	h-1.8c-0.5,0-0.9,0.1-1.4,0.3s-0.8,0.6-1,1l-6,13.2c0.7,0.3,2.7,0.4,3.4-1.1s1.2-2.7,1.2-2.7h4.7C208.9,57.2,209.3,57.3,209.7,57.5
	L209.7,57.5z"/>
<path class="st0" d="M193.9,59.9c-0.6-1.2-4.8-10.7-5.5-12.3s-2.7-1.3-3.4-1.1l5.9,13.3c0.2,0.4,0.5,0.8,1,1
	c0.4,0.2,0.9,0.3,1.4,0.3h1.8C195,61.2,194.5,61.2,193.9,59.9z"/>
</svg>
