<svg width="191" height="160" viewBox="0 0 191 160" fill="none" xmlns="http://www.w3.org/2000/svg">
<path d="M187.351 72.6084C182.496 64.1375 172.474 57.4581 173.207 47.7285C173.475 44.1772 175.249 40.8632 175.475 37.3082C175.773 32.5924 173.303 28.1194 170.289 24.474C158.786 10.5657 137.723 5.52279 121.136 12.6965C117.453 10.1513 114.765 6.18187 111.091 3.51951C103.476 -1.99848 92.437 -0.493858 84.3716 4.34584C82.9614 9.16696 77.6083 11.5128 72.8168 13.0583C66.3291 15.1509 59.7404 16.9183 53.0754 18.3539C41.3964 20.8695 28.4699 22.9173 20.6623 31.9358C18.9993 33.8561 17.6133 36.1077 17.2008 38.6115C16.5299 42.685 18.4961 46.8222 17.978 50.918C16.7504 60.6209 3.17165 64.3264 0.476768 73.7296C-0.960751 78.747 1.12036 84.0247 3.16357 88.8278C6.57597 96.8465 10.0791 105.013 15.8242 111.575C21.5693 118.137 30.0391 122.944 38.7344 122.106C40.9609 121.891 43.1799 121.316 45.4051 121.543C48.4373 121.853 51.1304 123.616 53.396 125.649C60.017 131.59 64.5588 140.47 72.9888 143.336C79.7844 145.647 87.3454 143.274 93.5129 139.612C96.7936 137.663 99.896 135.331 103.492 134.048C108.36 132.313 113.702 132.643 118.842 133.196C125.489 133.911 132.164 134.96 138.829 134.428C145.494 133.897 152.306 131.579 156.761 126.606C159.024 124.08 160.577 120.995 162.765 118.404C168.253 111.9 177.1 109.16 183.16 103.183C191.046 95.4057 192.855 82.2116 187.351 72.6084Z" fill="#F9E3CC"/>
<rect x="77.4995" y="3.98438" width="107" height="35" rx="1.5" fill="white" stroke="#D9D9D9"/>
<rect x="86.3501" y="14.4844" width="47" height="3" fill="#6E6E6E"/>
<rect x="86.2983" y="23.6875" width="58.7012" height="1.90654" fill="#6E6E6E"/>
<rect x="143.35" y="14.4844" width="17" height="2" fill="#6E6E6E"/>
<rect x="86.2983" y="29.5781" width="50.3153" height="1.90654" fill="#6E6E6E"/>
<circle cx="138.35" cy="15.4844" r="3" fill="#CE4225"/>
<path d="M179.194 19.7827C179.194 22.7772 176.769 25.2042 173.778 25.2042C170.787 25.2042 168.361 22.7772 168.361 19.7827C168.361 16.7882 170.787 14.3613 173.778 14.3613C176.769 14.3613 179.194 16.7882 179.194 19.7827Z" stroke="#0097A9" stroke-width="0.722531"/>
<path d="M173.776 18.4697C173.655 18.4697 173.539 18.4466 173.429 18.4003C173.325 18.3541 173.233 18.2934 173.152 18.2182C173.077 18.1373 173.016 18.0448 172.97 17.9408C172.924 17.831 172.901 17.7154 172.901 17.594C172.901 17.4726 172.924 17.3599 172.97 17.2558C173.016 17.146 173.077 17.0535 173.152 16.9784C173.233 16.8975 173.325 16.8339 173.429 16.7876C173.539 16.7414 173.655 16.7183 173.776 16.7183C173.898 16.7183 174.01 16.7414 174.114 16.7876C174.224 16.8339 174.317 16.8975 174.392 16.9784C174.473 17.0535 174.536 17.146 174.583 17.2558C174.629 17.3599 174.652 17.4726 174.652 17.594C174.652 17.7154 174.629 17.831 174.583 17.9408C174.536 18.0448 174.473 18.1373 174.392 18.2182C174.317 18.2934 174.224 18.3541 174.114 18.4003C174.01 18.4466 173.898 18.4697 173.776 18.4697ZM172.996 22.9609V18.7731H174.557V22.9609H172.996Z" fill="#0097A9"/>
<rect x="13.4995" y="26.9844" width="107" height="35" rx="1.5" fill="white" stroke="#D9D9D9"/>
<rect x="21.9995" y="37.6875" width="47" height="3" fill="#6E6E6E"/>
<circle cx="74.9995" cy="38.6875" r="3" fill="#4AA281"/>
<rect x="22.2983" y="46.6875" width="58.7012" height="1.90654" fill="#6E6E6E"/>
<rect x="79.9995" y="37.6875" width="17" height="2" fill="#6E6E6E"/>
<rect x="22.2983" y="52.5781" width="50.3153" height="1.90654" fill="#6E6E6E"/>
<path d="M64.3361 55.3438C64.3572 56.2017 64.8859 58.5215 67.8653 64.7184C71.338 71.9392 80.4091 85.4239 81.4981 94.1214V94.1295C81.7199 95.9036 81.6087 97.4782 81.049 98.7604C80.9429 99.0031 80.8183 99.2374 80.6762 99.461L74.0844 104.093C73.1377 103.826 72.1766 102.972 70.9783 101.519C69.8253 100.119 68.4536 98.1621 66.6663 95.6347C64.8157 93.017 63.6646 89.7222 62.9719 86.3004C61.0759 76.9431 62.6054 66.6399 62.6054 66.6399C62.7657 63.6275 63.5465 59.3007 64.0342 56.8149C64.1616 56.1911 64.2628 55.6851 64.3361 55.3438Z" fill="#9AC1A6"/>
<g style="mix-blend-mode:screen" opacity="0.61">
<path d="M64.5826 66.6094C64.91 69.3572 65.4262 72.0685 66.0574 74.7396C66.6742 77.4149 67.4278 80.0488 68.2981 82.6343C69.1685 85.2199 70.2482 87.7138 71.28 90.2281C71.7985 91.4835 72.3394 92.73 72.9027 93.9677C73.4543 95.2127 74.0538 96.4337 74.6197 97.6843L74.5303 97.74C73.702 96.6476 72.941 95.5059 72.2516 94.3214C71.8913 93.7372 71.5801 93.1264 71.2477 92.525C71.0843 92.2233 70.9371 91.9123 70.783 91.6063C70.629 91.3003 70.4724 90.9925 70.3308 90.6809C69.7472 89.4345 69.227 88.1595 68.7721 86.8608C68.5535 86.2073 68.3273 85.56 68.1229 84.8978C67.9074 84.2436 67.7123 83.5821 67.5129 82.9224C66.7333 80.2774 66.0748 77.5952 65.5554 74.8758C65.302 73.5131 65.0789 72.1503 64.895 70.7726C64.7112 69.395 64.5583 68.0174 64.4819 66.6224L64.5826 66.6094Z" fill="#7AC591"/>
</g>
<g style="mix-blend-mode:multiply" opacity="0.32">
<path d="M64.0396 56.8124C64.1638 56.193 64.2657 55.6863 64.3365 55.3438C64.3576 56.2017 64.8863 58.5215 67.8657 64.7184C71.3384 71.9392 80.4095 85.4239 81.4985 94.1214L78.8185 95.9612C78.8185 95.9612 76.548 83.1647 72.2441 76.922C68.3012 71.2077 64.6303 58.856 64.0396 56.8124Z" fill="#066F26"/>
</g>
<path d="M84.5834 102.782L81.2784 108.302L71.1723 107.236L70.0591 106.574C69.6862 106.351 69.3248 106.111 68.9763 105.852C66.8641 104.29 65.0793 102.043 63.5834 99.5256C58.8099 91.4945 56.9891 80.7169 56.9891 80.7169C56.1846 77.7182 55.5516 73.1182 55.2254 70.454C55.1447 69.7881 55.0832 69.2442 55.0391 68.875C55.3317 69.6927 56.5704 71.6532 61.3706 76.05C61.5806 76.2424 61.8005 76.439 62.0304 76.6397C63.3703 77.8111 65.0315 79.123 66.8418 80.5422L67.8718 81.3475C68.9173 82.1657 70.0001 83.015 71.0891 83.8872C73.195 85.5776 75.3234 87.3561 77.2535 89.1877C78.8184 90.6701 80.2528 92.1834 81.4369 93.7016C82.342 94.8625 83.1017 96.0258 83.6627 97.181V97.1891C84.4374 98.7848 84.8312 100.367 84.707 101.906C84.6855 102.2 84.6442 102.493 84.5834 102.782Z" fill="#9AC1A6"/>
<g style="mix-blend-mode:screen" opacity="0.61">
<path d="M58.8548 79.6328C60.0351 82.1143 61.39 84.4589 62.8388 86.7031C64.2601 88.9341 65.8082 91.0821 67.4756 93.1366C69.1262 95.1709 70.9427 97.0063 72.7194 98.8838C73.6106 99.8196 74.5205 100.735 75.449 101.631C76.3685 102.539 77.3258 103.399 78.2607 104.305L78.193 104.406C77.0589 103.793 75.9725 103.096 74.9427 102.32C74.4147 101.949 73.9245 101.525 73.4182 101.121C73.1698 100.917 72.93 100.694 72.6852 100.481C72.4404 100.268 72.1969 100.053 71.9615 99.8285C71.0061 98.9309 70.1061 97.9765 69.2666 96.9704C68.8516 96.455 68.4298 95.9471 68.0241 95.4218C67.6116 94.9045 67.2165 94.3687 66.8171 93.8391C65.2195 91.6794 63.7451 89.4319 62.4008 87.107C61.728 85.9301 61.0813 84.7252 60.47 83.4944C59.8587 82.2636 59.2748 81.0111 58.7598 79.7047L58.8548 79.6328Z" fill="#7AC591"/>
</g>
<g style="mix-blend-mode:multiply" opacity="0.32">
<path d="M55.2254 70.454C55.1447 69.7881 55.0832 69.2442 55.0391 68.875C55.331 69.6933 56.5704 71.6532 61.37 76.05C66.961 81.1722 79.8645 89.3562 83.6627 97.181L81.7015 100.393C81.7015 100.393 75.4787 89.2373 69.4062 85.5045C63.8493 82.0896 56.4356 72.1134 55.2254 70.454Z" fill="#066F26"/>
</g>
<path d="M176.725 70.6562C176.554 71.6158 175.544 73.9882 171.054 79.5855C165.818 86.107 153.064 97.0662 150.317 106.381V106.39C149.758 108.29 149.615 110.122 150.039 111.836C150.12 112.164 150.222 112.487 150.345 112.802L157.134 121.148C158.269 121.292 159.522 120.781 161.148 119.703C162.715 118.664 164.627 117.101 167.12 115.086C169.699 112.999 171.589 109.82 172.974 106.28C176.764 96.5997 176.774 84.2344 176.774 84.2344C177.107 80.7538 176.952 75.4959 176.817 72.4563C176.78 71.6969 176.747 71.0769 176.725 70.6562Z" fill="#9AC1A6"/>
<g style="mix-blend-mode:screen" opacity="0.61">
<path d="M174.506 83.2734C173.658 86.2245 172.598 89.0442 171.413 91.7647C170.258 94.4602 168.944 97.0854 167.479 99.6267C166.031 102.139 164.363 104.45 162.746 106.802C161.935 107.977 161.098 109.13 160.237 110.263C159.389 111.409 158.489 112.506 157.623 113.652L157.717 113.757C158.858 112.913 159.93 111.981 160.925 110.969C161.441 110.479 161.903 109.935 162.389 109.413C162.629 109.149 162.85 108.867 163.081 108.594C163.312 108.322 163.542 108.046 163.761 107.761C164.652 106.62 165.47 105.424 166.211 104.181C166.574 103.545 166.946 102.917 167.294 102.268C167.655 101.631 167.993 100.975 168.336 100.324C169.704 97.6722 170.917 94.9444 171.97 92.1538C172.495 90.7359 172.987 89.2957 173.435 87.8288C173.883 86.362 174.296 84.8741 174.623 83.3348L174.506 83.2734Z" fill="#7AC591"/>
</g>
<g style="mix-blend-mode:multiply" opacity="0.32">
<path d="M176.815 72.4563C176.78 71.6969 176.747 71.0769 176.724 70.6562C176.554 71.6158 175.544 73.9882 171.054 79.5855C165.818 86.107 153.064 97.0662 150.317 106.381L153.085 109.726C153.085 109.726 157.896 96.3358 163.92 91.3122C169.436 86.7134 175.783 74.4875 176.815 72.4563Z" fill="#066F26"/>
</g>
<path d="M145.327 95.1445L141.774 110.579C141.156 113.262 139.013 115.619 136.313 115.899C136.313 115.899 124.821 116.849 124.332 117.456C124.015 117.85 124.055 117.696 124.659 118.017C127.535 119.55 134.434 122.145 148.371 122.317C148.663 122.416 154.769 121.957 159.852 120.683C161.902 120.169 163.465 118.485 163.867 116.38C164.912 110.907 167.036 99.9644 167.932 95.3322C168.148 94.221 167.311 93.1865 166.197 93.184C162.819 93.176 155.908 93.0948 148.654 92.6315C147.09 92.5317 145.683 93.5947 145.327 95.1445Z" fill="#0F2C4A"/>
<path d="M118.208 153.32C118.019 153.32 117.832 153.277 117.663 153.193C117.493 153.11 117.344 152.989 117.229 152.839C117.114 152.689 117.035 152.515 116.998 152.33C116.961 152.145 116.967 151.953 117.016 151.771L125.718 119.229C125.758 119.072 125.83 118.924 125.928 118.794C126.026 118.665 126.149 118.555 126.289 118.473C126.43 118.391 126.585 118.338 126.747 118.316C126.908 118.294 127.072 118.304 127.23 118.346C127.387 118.388 127.535 118.46 127.664 118.56C127.793 118.659 127.902 118.782 127.983 118.923C128.064 119.064 128.116 119.22 128.136 119.381C128.156 119.542 128.144 119.706 128.101 119.862L119.399 152.407C119.329 152.668 119.175 152.9 118.959 153.065C118.744 153.23 118.48 153.32 118.208 153.32Z" fill="#FFC948"/>
<path d="M147.781 159.811H147.724C147.397 159.796 147.09 159.652 146.869 159.411C146.649 159.17 146.533 158.852 146.548 158.526L148.106 124.883C148.127 124.562 148.274 124.262 148.514 124.047C148.755 123.833 149.07 123.721 149.393 123.736C149.715 123.751 150.019 123.891 150.239 124.127C150.459 124.362 150.577 124.675 150.569 124.996L149.012 158.639C148.997 158.955 148.861 159.253 148.632 159.471C148.403 159.689 148.098 159.811 147.781 159.811Z" fill="#D9D9D9"/>
<path d="M163.492 154.093C163.207 154.092 162.931 153.993 162.711 153.812C162.49 153.632 162.34 153.381 162.284 153.102L155.676 120.077C155.642 119.918 155.641 119.753 155.671 119.594C155.702 119.434 155.763 119.282 155.853 119.146C155.943 119.011 156.059 118.894 156.194 118.803C156.329 118.712 156.481 118.649 156.641 118.618C156.801 118.586 156.966 118.586 157.125 118.618C157.285 118.65 157.437 118.713 157.572 118.804C157.707 118.895 157.823 119.012 157.913 119.148C158.002 119.283 158.064 119.436 158.094 119.595L164.706 152.622C164.77 152.942 164.704 153.274 164.522 153.545C164.341 153.816 164.059 154.005 163.738 154.068C163.657 154.085 163.575 154.093 163.492 154.093Z" fill="#D9D9D9"/>
<path d="M139.313 144.565H139.251C139.089 144.557 138.93 144.518 138.784 144.449C138.637 144.38 138.506 144.283 138.397 144.164C138.288 144.044 138.203 143.905 138.148 143.753C138.094 143.601 138.069 143.44 138.077 143.278L139.371 115.961C139.386 115.635 139.531 115.329 139.773 115.109C140.015 114.89 140.334 114.775 140.661 114.79C140.988 114.806 141.295 114.95 141.515 115.191C141.735 115.432 141.85 115.751 141.835 116.077L140.54 143.394C140.525 143.709 140.389 144.006 140.161 144.224C139.932 144.442 139.629 144.564 139.313 144.565Z" fill="#BF9736"/>
<path d="M139.313 144.565H139.251C139.089 144.557 138.93 144.518 138.784 144.449C138.637 144.38 138.506 144.283 138.397 144.164C138.288 144.044 138.203 143.905 138.148 143.753C138.094 143.601 138.069 143.44 138.077 143.278L139.371 115.961C139.386 115.635 139.531 115.329 139.773 115.109C140.015 114.89 140.334 114.775 140.661 114.79C140.988 114.806 141.295 114.95 141.515 115.191C141.735 115.432 141.85 115.751 141.835 116.077L140.54 143.394C140.525 143.709 140.389 144.006 140.161 144.224C139.932 144.442 139.629 144.564 139.313 144.565Z" fill="#A6A6A6"/>
<g style="mix-blend-mode:multiply" opacity="0.32">
<path d="M127.228 118.362C126.912 118.278 126.575 118.322 126.292 118.486C126.009 118.649 125.802 118.918 125.718 119.233L124.724 122.95L126.613 125.432L128.1 119.868C128.142 119.712 128.153 119.549 128.132 119.389C128.111 119.229 128.058 119.074 127.977 118.934C127.896 118.794 127.788 118.672 127.66 118.574C127.531 118.475 127.384 118.403 127.228 118.362Z" fill="#BF9736"/>
</g>
<path opacity="0.76" d="M150.223 132.469L150.569 124.996C150.577 124.675 150.459 124.362 150.239 124.127C150.019 123.891 149.715 123.751 149.393 123.736C149.07 123.721 148.755 123.833 148.514 124.047C148.274 124.262 148.127 124.562 148.106 124.883L147.683 134.007L150.223 132.469Z" fill="#A6A6A6"/>
<path opacity="0.76" d="M158.091 119.595C158.061 119.436 157.999 119.283 157.91 119.148C157.82 119.012 157.705 118.895 157.569 118.804C157.434 118.713 157.282 118.65 157.123 118.618C156.963 118.586 156.798 118.586 156.638 118.618C156.478 118.649 156.326 118.712 156.191 118.803C156.056 118.894 155.94 119.011 155.85 119.146C155.761 119.282 155.699 119.434 155.668 119.594C155.638 119.753 155.639 119.918 155.673 120.077L157.297 128.191L159.54 126.833L158.091 119.595Z" fill="#A6A6A6"/>
<path d="M131.152 122.013C131.152 122.013 137.444 124.964 147.583 124.909C147.747 125.073 158.438 124.382 161.669 120.547C161.647 120.57 147.089 118.188 147.089 118.188L133.663 121.357L131.152 122.013Z" fill="#0F2C4A"/>
<path d="M144.477 96.533L140.911 111.967C140.289 114.65 138.053 116.639 135.346 116.919L123.984 118.092C123.3 118.162 123.89 117.614 124.127 118.257C125.155 121.044 133.543 123.533 147.532 123.708C147.826 123.807 153.953 123.348 159.057 122.074C161.115 121.56 162.685 119.875 163.088 117.771C164.137 112.298 166.266 101.355 167.168 96.7232C167.384 95.6119 166.547 94.5774 165.429 94.575C162.039 94.5669 155.101 94.4858 147.819 94.0224C146.246 93.9202 144.835 94.9832 144.477 96.533Z" fill="#4482A1"/>
<path d="M144.782 95.3242L141.164 110.758C140.857 112.067 140.149 113.248 139.136 114.136C138.124 115.023 136.859 115.574 135.518 115.711L123.993 116.883C123.303 116.953 123.124 117.874 123.737 118.197C126.665 119.73 133.691 122.324 147.883 122.497C148.18 122.596 154.396 122.137 159.574 120.863C160.596 120.609 161.524 120.069 162.249 119.306C162.973 118.544 163.464 117.591 163.662 116.559C164.727 111.087 166.886 100.144 167.802 95.5119C167.853 95.2514 167.846 94.9827 167.782 94.7251C167.717 94.4675 167.596 94.2274 167.427 94.0221C167.258 93.8167 167.045 93.6512 166.805 93.5374C166.564 93.4235 166.301 93.3642 166.035 93.3637C162.595 93.3556 155.558 93.2745 148.171 92.8111C147.399 92.7627 146.635 92.9886 146.015 93.4487C145.394 93.9088 144.957 94.5733 144.782 95.3242Z" fill="#25566E"/>
<path d="M119.431 155.611L119.524 156.774C119.528 156.825 119.541 156.874 119.564 156.919C119.587 156.964 119.619 157.004 119.657 157.036C119.696 157.069 119.74 157.094 119.788 157.109C119.836 157.125 119.887 157.131 119.937 157.127L124.728 156.748C124.826 156.741 124.918 156.695 124.984 156.622C125.05 156.548 125.085 156.452 125.082 156.354L125.041 155.047L119.431 155.611Z" fill="#07203B"/>
<path d="M120.429 145.359L117.09 149.181L120.147 153.498L124.83 151.164C124.83 151.164 124.154 150.142 124.925 148.154L120.429 145.359Z" fill="white"/>
<path d="M117.251 148.391C117.251 148.391 118.793 149.361 119.713 151.309C120.391 152.182 122.02 153.313 124.713 150.914C124.728 150.953 125.867 153.082 125.041 155.038C125.033 155.1 124.057 155.626 121.252 155.737C120.268 155.773 119.295 155.957 118.365 156.281C117.243 156.677 115.703 157.143 114.855 157.102C114.781 157.108 107.05 158.016 105.74 154.636C105.595 154.277 105.882 153.142 108.189 153.183C108.189 153.183 112.213 153.307 114.12 151.121C114.154 151.044 116.056 148.781 117.251 148.391Z" fill="#0B223B"/>
<path d="M116.477 150.349C116.48 150.397 116.47 150.445 116.446 150.486C116.423 150.528 116.387 150.562 116.344 150.584C116.301 150.606 116.253 150.615 116.205 150.609C116.157 150.603 116.112 150.584 116.075 150.552C116.039 150.521 116.012 150.48 115.999 150.434C115.986 150.387 115.987 150.338 116.002 150.293C116.017 150.247 116.045 150.207 116.083 150.177C116.121 150.147 116.167 150.129 116.215 150.126C116.279 150.121 116.343 150.141 116.392 150.183C116.441 150.225 116.471 150.285 116.477 150.349Z" fill="#103052"/>
<path d="M115.413 151.082C115.417 151.13 115.407 151.178 115.383 151.22C115.36 151.262 115.324 151.296 115.281 151.317C115.239 151.339 115.19 151.348 115.143 151.342C115.095 151.336 115.05 151.317 115.014 151.286C114.977 151.255 114.95 151.214 114.937 151.167C114.924 151.121 114.925 151.072 114.94 151.027C114.955 150.981 114.983 150.941 115.021 150.912C115.058 150.882 115.104 150.864 115.152 150.86C115.216 150.855 115.28 150.876 115.329 150.917C115.378 150.959 115.408 151.018 115.413 151.082Z" fill="#103052"/>
<g style="mix-blend-mode:multiply" opacity="0.31">
<path d="M121.938 148.389C121.907 148.359 119.988 148.25 119.988 148.25L117.255 148.906C117.255 148.906 119.791 151.898 125.049 151.75C124.986 151.55 124.911 151.354 124.828 151.162C124.762 151.011 124.716 150.923 124.712 150.914C124.588 150.57 124.437 149.872 124.705 148.834C123.419 148.633 121.955 148.405 121.938 148.389Z" fill="#666666"/>
</g>
<g style="mix-blend-mode:screen" opacity="0.24">
<path d="M106.522 153.887C106.448 153.937 106.39 154.006 106.354 154.088C106.302 154.243 106.416 154.415 106.566 154.481C106.716 154.548 106.887 154.535 107.049 154.515C107.65 154.438 108.239 154.267 108.845 154.245C109.263 154.229 109.683 154.285 110.102 154.258C110.783 154.21 111.43 153.945 111.949 153.502C112.228 153.263 112.508 153.051 112.108 152.925C111.747 152.812 111.072 153.089 110.706 153.147C110.056 153.249 109.41 153.215 108.755 153.243C107.976 153.277 107.154 153.397 106.522 153.887Z" fill="#0F2D4B"/>
</g>
<path d="M106.351 141.463L106.543 142.615C106.559 142.716 106.615 142.805 106.698 142.865C106.781 142.924 106.885 142.948 106.985 142.931L111.726 142.146C111.824 142.13 111.911 142.077 111.971 141.998C112.03 141.919 112.056 141.821 112.045 141.723L111.892 140.422L106.351 141.463Z" fill="#07203B"/>
<path d="M147.012 72.2995L153.502 69.875C153.502 69.875 151.805 71.7773 151.775 71.7953C151.744 71.8132 149.853 72.5621 149.74 72.6142C149.627 72.6662 148.56 73.1097 148.537 73.1395C148.515 73.1692 147.305 73.5359 147.253 73.5167C147.202 73.4975 147.012 72.2995 147.012 72.2995Z" fill="#BFBFBF"/>
<path d="M140.017 84.7073L136.658 84.2854C137.093 83.4486 137.437 80.2349 137.635 79.2921C137.949 77.8005 138.583 76.325 138.905 75.6325C139.028 75.3696 139.244 75.162 139.513 75.0508C140.414 74.6791 142.572 73.8119 143.648 73.6496C144.35 73.5412 145.051 73.4322 145.753 73.3139L146.805 73.1361C147.156 73.0742 147.506 73.0122 147.856 72.9453L147.926 74.4524C149.816 76.945 150.784 85.3063 150.784 85.3063L147.779 114.978L137.491 112.34L139.103 84.4137C139.213 83.4541 141.046 84.7358 140.017 84.7073Z" fill="#0F2C4A"/>
<path d="M106.467 131.172L103.468 135.263L106.885 139.304L111.351 136.578C111.351 136.578 110.59 135.618 111.188 133.572L106.467 131.172Z" fill="white"/>
<path d="M103.56 134.461C103.56 134.461 105.179 135.297 106.263 137.159C107.012 137.971 108.733 138.959 111.211 136.34C111.229 136.377 112.546 138.402 111.891 140.421C111.891 140.483 110.959 141.091 108.178 141.44C107.201 141.56 106.247 141.825 105.349 142.228C104.265 142.717 102.771 143.313 101.923 143.343C101.849 143.355 94.2232 144.918 92.6291 141.661C92.4545 141.316 92.6421 140.162 94.9444 140.005C94.9444 140.005 98.9644 139.789 100.677 137.445C100.702 137.368 102.402 134.952 103.56 134.461Z" fill="#0B223B"/>
<path d="M104.145 135.531C104.152 135.578 104.146 135.627 104.126 135.67C104.106 135.714 104.074 135.751 104.033 135.776C103.993 135.801 103.945 135.814 103.897 135.812C103.849 135.811 103.803 135.795 103.764 135.767C103.725 135.739 103.695 135.701 103.678 135.656C103.661 135.611 103.658 135.562 103.668 135.515C103.679 135.469 103.704 135.426 103.739 135.394C103.774 135.361 103.818 135.339 103.865 135.331C103.929 135.321 103.994 135.336 104.046 135.373C104.099 135.411 104.134 135.467 104.145 135.531Z" fill="#103052"/>
<path d="M102.955 136.468C102.963 136.516 102.956 136.564 102.936 136.608C102.917 136.651 102.884 136.688 102.843 136.714C102.803 136.739 102.755 136.752 102.707 136.75C102.659 136.748 102.613 136.733 102.574 136.705C102.535 136.677 102.505 136.638 102.488 136.593C102.471 136.549 102.468 136.5 102.478 136.453C102.489 136.407 102.514 136.364 102.549 136.331C102.584 136.299 102.628 136.277 102.675 136.269C102.707 136.264 102.739 136.265 102.77 136.272C102.801 136.279 102.831 136.292 102.857 136.311C102.883 136.329 102.905 136.353 102.921 136.38C102.938 136.407 102.95 136.437 102.955 136.468Z" fill="#103052"/>
<path d="M101.959 137.289C101.966 137.336 101.96 137.384 101.94 137.428C101.92 137.472 101.888 137.508 101.847 137.534C101.807 137.559 101.759 137.572 101.711 137.57C101.663 137.569 101.617 137.553 101.578 137.525C101.539 137.497 101.509 137.458 101.492 137.414C101.475 137.369 101.472 137.32 101.482 137.273C101.493 137.227 101.518 137.184 101.553 137.151C101.588 137.119 101.632 137.097 101.679 137.089C101.743 137.079 101.808 137.094 101.86 137.131C101.913 137.169 101.948 137.225 101.959 137.289Z" fill="#103052"/>
<g style="mix-blend-mode:multiply" opacity="0.31">
<path d="M109.198 132.561L109.179 132.551C108.964 132.464 106.924 131.804 106.562 131.727C106.479 131.709 106.328 131.669 106.14 131.617L105.031 133.13C105.031 133.13 107.963 137.219 111.941 138.129C111.812 137.59 111.613 137.069 111.349 136.581C111.27 136.436 111.216 136.352 111.212 136.343C111.025 135.943 110.759 135.037 111.186 133.575L109.198 132.564L109.198 132.561Z" fill="#666666"/>
</g>
<path d="M117.741 149.512C117.745 149.56 117.735 149.608 117.711 149.65C117.688 149.691 117.652 149.725 117.61 149.747C117.567 149.769 117.519 149.777 117.471 149.772C117.423 149.766 117.378 149.747 117.342 149.716C117.305 149.684 117.279 149.643 117.266 149.597C117.252 149.551 117.253 149.502 117.268 149.457C117.283 149.411 117.311 149.371 117.349 149.341C117.386 149.312 117.432 149.294 117.48 149.29C117.512 149.287 117.544 149.291 117.574 149.301C117.604 149.311 117.633 149.326 117.657 149.347C117.681 149.368 117.701 149.393 117.716 149.421C117.73 149.45 117.739 149.48 117.741 149.512Z" fill="#103052"/>
<path d="M141.348 104.7L124.856 101.735C122.892 101.381 120.873 101.49 118.958 102.051L118.672 102.135C117.643 102.436 116.764 103.109 116.208 104.023L114.763 106.392C114.313 107.129 113.933 107.908 113.63 108.717C111.869 113.402 105.576 130.127 104.762 131.973C105.586 133.341 109.359 135.843 112.047 136.298C111.907 136.199 123.395 112.087 123.395 112.087C123.395 112.087 125.508 108.303 134.081 117.038C138.082 119.114 145.597 125.04 155.651 116.157C155.512 116.058 158.897 112.806 157.287 109.033C156.906 108.975 141.348 104.7 141.348 104.7Z" fill="#12365C"/>
<g style="mix-blend-mode:screen" opacity="0.17">
<path d="M115.073 110.544C115.377 109.736 115.757 108.957 116.207 108.219L117.652 105.85C118.208 104.936 119.087 104.263 120.115 103.962L120.402 103.878C122.316 103.317 124.336 103.208 126.3 103.562L142.792 106.528C142.792 106.528 154.147 109.648 157.691 110.594C157.635 110.057 157.498 109.532 157.285 109.037C156.906 108.975 141.348 104.7 141.348 104.7L124.856 101.735C122.892 101.381 120.873 101.489 118.958 102.05L118.672 102.135C117.643 102.436 116.764 103.109 116.208 104.023L114.763 106.392C114.313 107.13 113.933 107.908 113.629 108.717C111.869 113.402 105.576 130.127 104.762 131.973C105.025 132.407 105.589 132.964 106.322 133.526C107.491 130.702 113.38 115.051 115.073 110.544Z" fill="#3C1865"/>
</g>
<g style="mix-blend-mode:multiply" opacity="0.26">
<path d="M122.17 110.102C121.154 110.27 120.088 111.222 119.437 111.96C118.367 113.173 117.69 114.674 117.09 116.173C114.573 122.465 113.118 129.185 110.034 135.222C109.972 135.346 109.91 135.476 109.855 135.61C110.611 135.937 111.363 136.185 112.045 136.301C111.938 136.225 118.693 121.977 121.83 115.377C122.118 114.191 122.441 113.014 122.799 111.846C123.162 110.663 123.71 109.845 122.17 110.102Z" fill="#3E1762"/>
</g>
<path d="M131.791 113.607C131.791 113.607 126.65 108.736 123.665 109.964C122.895 110.009 120.659 112.798 120.659 112.798C120.659 112.798 118.807 114.695 118.006 123.147C117.748 123.067 117.078 146.347 116.837 148.588C117.742 149.179 118.937 151.197 125.082 150.61C125.182 150.471 125.255 146.782 125.255 146.782L125.756 145.077C125.948 144.171 125.96 143.471 125.839 142.741L125.818 140.573L126.816 131.842C126.816 131.842 127.954 125.601 128.457 121.656C128.508 121.257 128.641 120.873 128.848 120.528C129.055 120.183 129.332 119.885 129.66 119.652C129.989 119.419 130.362 119.257 130.757 119.175C131.152 119.094 131.559 119.095 131.954 119.178C135.817 119.999 141.724 121.371 144.192 120.895C144.276 120.905 138.079 120.444 131.791 113.607Z" fill="#103052"/>
<g style="mix-blend-mode:multiply" opacity="0.26">
<path d="M144.195 120.892C144.26 120.899 140.198 120.598 135.307 116.838C133.535 116.414 131.756 116.02 129.971 115.658C129.452 115.552 128.909 115.45 128.4 115.596C127.982 115.72 127.629 115.997 127.318 116.3C125.386 118.187 124.802 121.062 124.764 123.758C124.727 126.455 125.137 129.166 124.774 131.838C124.54 133.566 123.988 135.249 123.897 136.99C123.766 139.479 124.558 142.131 123.49 144.382C123.272 144.84 122.988 145.407 123.303 145.807C123.467 146.017 123.756 146.103 123.915 146.317C124.255 146.777 123.784 147.402 123.306 147.716C122.827 148.03 122.229 148.397 122.258 148.968C122.273 149.236 122.432 149.471 122.527 149.722C122.646 150.032 122.665 150.369 122.688 150.704C122.827 150.708 122.972 150.709 123.123 150.709C123.715 150.705 124.365 150.672 125.087 150.604C125.186 150.465 125.26 146.776 125.26 146.776L125.761 145.071C125.953 144.165 125.965 143.464 125.843 142.735L125.823 140.567L126.816 131.838C126.816 131.838 127.954 125.598 128.458 121.653C128.522 121.25 128.668 120.864 128.886 120.519C129.105 120.174 129.391 119.877 129.728 119.645C130.064 119.414 130.445 119.253 130.846 119.172C131.247 119.091 131.66 119.092 132.061 119.175C132.258 119.216 132.461 119.268 132.671 119.328C136.517 120.154 141.874 121.339 144.195 120.892Z" fill="#3E1762"/>
</g>
<g style="mix-blend-mode:screen" opacity="0.17">
<path d="M116.938 148.658L116.946 148.664C116.978 148.688 117.008 148.713 117.044 148.74L117.051 148.745C117.086 148.773 117.12 148.802 117.156 148.832L117.173 148.846L117.263 148.922C117.431 149.064 117.622 149.226 117.853 149.393C118.122 145.166 118.732 124.452 118.976 124.527C119.777 116.075 121.629 114.178 121.629 114.178C121.629 114.178 123.865 111.39 124.635 111.344C125.709 110.902 126.272 110.44 126.411 110.088C125.435 109.746 124.472 109.632 123.666 109.964C123.461 109.976 123.151 110.184 122.806 110.482C122.747 110.533 122.688 110.586 122.628 110.642C122.379 110.87 122.12 111.137 121.874 111.398C121.755 111.522 121.64 111.652 121.53 111.775L121.506 111.802L121.316 112.019L121.202 112.15C121.14 112.219 121.086 112.284 121.034 112.346L120.93 112.47L120.82 112.601C120.719 112.725 120.659 112.798 120.659 112.798C120.553 112.92 120.459 113.052 120.378 113.192C120.354 113.233 120.328 113.276 120.3 113.324L120.268 113.386L120.224 113.464C120.171 113.563 120.114 113.676 120.053 113.801C120.041 113.827 120.029 113.852 120.017 113.879C119.995 113.924 119.974 113.971 119.954 114.019C119.943 114.046 119.931 114.073 119.918 114.101C119.894 114.159 119.867 114.218 119.842 114.28C119.615 114.832 119.42 115.395 119.256 115.968C119.238 116.03 119.219 116.096 119.201 116.161C119.09 116.554 118.979 116.989 118.87 117.47C118.834 117.631 118.798 117.796 118.762 117.966C118.726 118.137 118.69 118.313 118.655 118.494C118.621 118.676 118.586 118.863 118.552 119.055C118.5 119.344 118.45 119.645 118.401 119.959C118.385 120.063 118.369 120.17 118.353 120.278C118.229 121.138 118.109 122.092 118.009 123.149C117.856 123.102 117.557 131.289 117.29 138.419C117.273 138.887 117.255 139.352 117.238 139.809C117.075 144.108 116.927 147.767 116.841 148.59C116.871 148.61 116.904 148.633 116.938 148.658Z" fill="#3C1865"/>
</g>
<g style="mix-blend-mode:multiply" opacity="0.26">
<path d="M136.688 118.489C140.735 120.684 146.739 123.087 154.259 117.308C154.214 116.742 154.122 116.18 153.982 115.629C153.659 114.277 153.12 112.52 151.855 111.732C150.533 110.908 150.215 112.471 149.764 113.449C148.672 115.822 146.596 117.653 144.128 118.51C141.743 119.337 139.095 119.265 136.688 118.489Z" fill="#3E1762"/>
</g>
<g style="mix-blend-mode:multiply" opacity="0.26">
<path d="M139.959 108.416C139.959 108.416 144.417 113.062 151.199 112.078C151.199 112.16 149.297 107.98 149.297 107.98L141.842 106.75L139.959 108.416Z" fill="#3E1762"/>
</g>
<path d="M140.772 82.8161C141.456 79.2462 144.354 75.529 147.227 73.351L153.349 71.7578C156.393 73.1534 158.816 75.0322 159.327 78.3784C159.964 82.5945 159.422 86.9041 157.761 90.8329C157.012 92.594 156.04 94.2659 155.497 96.1037C154.717 98.7512 154.904 101.674 155.984 104.207C156.196 104.703 156.543 106.548 156.083 106.825C151.859 109.369 146.901 109.849 142.894 109.395C140.575 109.133 137.493 106.014 137.306 104.946C136.404 99.7814 140.087 86.3859 140.772 82.8161Z" fill="white"/>
<path d="M159.459 86.5596C159.902 86.3353 160.188 86.1817 160.188 86.1817L162.099 80.1062C162.572 78.6041 163.114 77.0672 161.895 76.0656L158.928 74.3689L153.743 71.9531C153.743 71.9531 151.32 74.3405 150.022 77.7963C149.463 79.2886 147.625 91.7189 147.132 97.8663C146.263 108.742 149.693 119.967 149.693 119.967L154.896 118.442C156.629 117.934 158.128 116.837 159.134 115.341C160.141 113.846 160.59 112.046 160.405 110.255C160.073 107.05 159.765 102.905 159.748 98.4857C159.735 95.0459 159.609 90.6528 159.459 86.5596Z" fill="#0F2C4A"/>
<path d="M147.345 76.1549C147.345 76.1549 147.345 76.1488 147.345 76.1406C147.348 76.1515 147.348 76.1549 147.345 76.1549Z" fill="#021F42"/>
<path d="M146.73 74.2534C146.873 74.2825 147.276 73.1328 147.276 73.1328L147.525 73.1564L148.623 74.508C148.623 74.508 147.411 75.9909 147.343 76.1377C147.33 75.9791 146.598 74.2274 146.73 74.2534Z" fill="#FFC948"/>
<g style="mix-blend-mode:multiply" opacity="0.32">
<path d="M147.132 73.5179C147.342 73.8443 147.691 74.395 148.134 75.1123C148.399 74.784 148.628 74.5034 148.628 74.5034L147.529 73.1518L147.413 73.1406C147.364 73.1474 147.315 73.1536 147.268 73.158C147.247 73.2174 147.196 73.3556 147.132 73.5179Z" fill="#BF9736"/>
</g>
<path d="M147.672 75.6198C143.494 86.6669 144.623 99.8728 144.623 99.8728L142.368 101.249C142.368 101.249 141.703 100.134 141.456 99.6387C142.159 82.2168 145.858 78.0381 147.181 75.3361C147.368 74.9564 147.672 75.6198 147.672 75.6198Z" fill="#F58000"/>
<path d="M152.308 62.8125C152.237 63.0085 152.202 63.2152 152.203 63.4233C152.241 63.2151 152.276 63.012 152.308 62.8125Z" fill="#310137"/>
<g style="mix-blend-mode:multiply" opacity="0.26">
<path d="M159.748 98.4747C159.745 97.6508 159.736 96.7706 159.721 95.8526C159.632 95.8368 159.542 95.8322 159.452 95.8389C159.158 95.86 158.886 95.9963 158.629 96.1406C156.738 97.206 155.249 98.8395 153.664 100.321C152.08 101.803 150.274 103.198 148.135 103.589C147.758 103.659 147.392 103.776 147.044 103.938C147.11 105.435 147.234 106.896 147.392 108.288C149.199 108.85 154.665 107.498 155.924 106.343C157.883 104.547 158.062 104.622 158.651 101.594C158.75 101.089 159.422 100.864 159.774 100.457C159.759 99.804 159.751 99.1432 159.748 98.4747Z" fill="#3E1762"/>
</g>
<g style="mix-blend-mode:multiply" opacity="0.26">
<path d="M154.331 89.9496C154.042 89.9929 153.826 90.2283 153.648 90.4569C152.897 91.4108 152.343 92.5097 151.549 93.4302C151.252 93.7752 150.921 94.0998 150.603 94.4331C151.209 91.7162 151.898 89.0148 153.012 86.4677C154.34 83.4281 156.282 81.3969 158.541 79.0703C156.045 79.7517 154.239 82.3614 153.088 84.5127C151.496 87.489 150.418 90.7111 149.899 94.0441C149.833 94.4721 149.783 94.9293 149.832 95.3585C149.646 95.6232 149.5 95.9129 149.397 96.2189C149.225 96.7449 149.2 97.3383 148.862 97.7762C148.551 98.1751 148.041 98.3659 147.694 98.732C147.318 99.1285 147.023 100.129 147.482 100.582C147.724 100.821 148.009 100.706 148.312 100.737C148.713 100.776 149.024 100.969 149.381 101.135C150.145 101.492 151.096 101.515 151.803 101.057C152.387 100.681 152.739 100.043 153.053 99.4252C154.036 97.4919 154.888 95.4744 155.316 93.3497C155.482 92.524 155.582 91.6567 155.341 90.8496C155.197 90.3788 154.818 89.8765 154.331 89.9496Z" fill="#3E1762"/>
</g>
<g style="mix-blend-mode:screen" opacity="0.24">
<path d="M94.1521 140.343C93.8589 140.395 93.5477 140.467 93.3445 140.685C93.1414 140.904 93.1172 141.308 93.3719 141.463C93.5235 141.555 93.716 141.532 93.8918 141.505L96.3146 141.14C96.6743 141.086 97.0396 141.03 97.3707 140.882C97.9075 140.643 98.3802 140.159 98.7057 139.677C99.2543 138.866 98.2535 139.475 97.9012 139.643C96.7663 140.185 95.3741 140.127 94.1521 140.343Z" fill="#0F2D4B"/>
</g>
<path d="M33.6968 71.0781L38.3255 71.6282L38.2162 73.8384C38.2162 73.8384 36.652 74.1747 36.5432 74.2373C36.4345 74.2998 34.7889 73.8495 34.7075 73.6408C34.6261 73.432 34.5715 72.5877 34.3671 72.4248C34.1627 72.2619 33.6968 71.0781 33.6968 71.0781Z" fill="#A79FB7"/>
<path d="M44.0205 94.6734L47.5472 109.995C48.1604 112.659 50.2881 114.999 52.9681 115.277C52.9681 115.277 64.3769 116.22 64.8627 116.825C65.1777 117.216 65.1373 117.063 64.5378 117.383C61.6833 118.904 54.8342 121.48 40.9989 121.651C40.7082 121.749 34.6487 121.293 29.6006 120.028C27.5661 119.519 26.0137 117.846 25.6148 115.754C24.5774 110.322 22.472 99.463 21.5769 94.8599C21.3625 93.7567 22.1919 92.7296 23.2989 92.7271C26.6535 92.7191 33.5131 92.6386 40.7144 92.1783C42.2705 92.0792 43.6689 93.1347 44.0205 94.6734Z" fill="#0F2C4A"/>
<path d="M70.9408 152.427C71.1282 152.426 71.313 152.383 71.4809 152.3C71.6489 152.217 71.7955 152.097 71.9095 151.948C72.0235 151.8 72.1019 151.627 72.1386 151.444C72.1753 151.261 72.1693 151.072 72.1211 150.891L63.486 118.586C63.4446 118.431 63.373 118.286 63.2753 118.159C63.1777 118.031 63.0558 117.924 62.9167 117.844C62.7775 117.764 62.6239 117.711 62.4646 117.69C62.3052 117.669 62.1433 117.68 61.9879 117.721C61.8326 117.762 61.687 117.834 61.5593 117.931C61.4316 118.028 61.3245 118.15 61.2439 118.289C61.1634 118.427 61.111 118.58 61.0898 118.739C61.0686 118.898 61.079 119.06 61.1204 119.215L69.7604 151.52C69.8296 151.779 69.9828 152.009 70.1962 152.173C70.4096 152.337 70.6713 152.426 70.9408 152.427Z" fill="#FFC948"/>
<path d="M41.5837 158.879H41.6409C41.9652 158.864 42.2703 158.721 42.489 158.482C42.7078 158.243 42.8224 157.927 42.8075 157.603L41.2619 124.205C41.2577 124.042 41.221 123.882 41.154 123.734C41.087 123.586 40.9911 123.453 40.8719 123.343C40.7526 123.232 40.6124 123.146 40.4595 123.09C40.3066 123.034 40.1441 123.009 39.9814 123.017C39.8187 123.024 39.6591 123.064 39.512 123.134C39.365 123.204 39.2333 123.302 39.1248 123.423C39.0163 123.544 38.9331 123.686 38.8801 123.839C38.8271 123.993 38.8054 124.155 38.8162 124.317L40.3618 157.715C40.3766 158.029 40.5118 158.324 40.7393 158.541C40.9668 158.757 41.2692 158.878 41.5837 158.879Z" fill="#D9D9D9"/>
<path d="M25.987 153.191C26.2698 153.191 26.5438 153.093 26.7624 152.914C26.981 152.735 27.1306 152.486 27.1859 152.209L33.7498 119.422C33.785 119.263 33.7881 119.099 33.7589 118.94C33.7296 118.78 33.6687 118.627 33.5797 118.491C33.4907 118.355 33.3753 118.238 33.2403 118.147C33.1054 118.056 32.9536 117.993 32.7938 117.961C32.634 117.929 32.4695 117.93 32.3098 117.962C32.1501 117.995 31.9986 118.058 31.864 118.15C31.7294 118.242 31.6145 118.359 31.5261 118.495C31.4376 118.632 31.3773 118.785 31.3487 118.944L24.7836 151.732C24.748 151.909 24.7523 152.092 24.7962 152.267C24.8401 152.442 24.9226 152.605 25.0375 152.745C25.1525 152.885 25.2971 152.997 25.461 153.074C25.6249 153.151 25.8039 153.191 25.9851 153.191H25.987Z" fill="#D9D9D9"/>
<path d="M49.9906 143.74H50.0496C50.3739 143.725 50.6788 143.582 50.8973 143.342C51.1157 143.103 51.2298 142.786 51.2144 142.463L49.9297 115.345C49.9089 115.026 49.7632 114.727 49.5238 114.514C49.2845 114.3 48.9707 114.189 48.6501 114.204C48.3294 114.22 48.0275 114.36 47.8094 114.595C47.5913 114.829 47.4744 115.14 47.4839 115.46L48.7693 142.578C48.7843 142.891 48.9194 143.186 49.1468 143.403C49.3742 143.619 49.6763 143.74 49.9906 143.74Z" fill="#BF9736"/>
<path d="M49.9906 143.74H50.0496C50.3739 143.725 50.6788 143.582 50.8973 143.342C51.1157 143.103 51.2298 142.786 51.2144 142.463L49.9297 115.345C49.9089 115.026 49.7632 114.727 49.5238 114.514C49.2845 114.3 48.9707 114.189 48.6501 114.204C48.3294 114.22 48.0275 114.36 47.8094 114.595C47.5913 114.829 47.4744 115.14 47.4839 115.46L48.7693 142.578C48.7843 142.891 48.9194 143.186 49.1468 143.403C49.3742 143.619 49.6763 143.74 49.9906 143.74Z" fill="#A6A6A6"/>
<g style="mix-blend-mode:multiply" opacity="0.32">
<path d="M61.9883 117.721C62.1438 117.68 62.3059 117.669 62.4654 117.69C62.6249 117.712 62.7787 117.764 62.9179 117.845C63.057 117.925 63.1789 118.032 63.2765 118.16C63.3741 118.287 63.4455 118.433 63.4867 118.588L64.4732 122.276L62.5983 124.74L61.121 119.217C61.0793 119.062 61.0686 118.9 61.0896 118.741C61.1106 118.582 61.1628 118.428 61.2434 118.289C61.324 118.15 61.4312 118.029 61.559 117.931C61.6868 117.834 61.8327 117.762 61.9883 117.721Z" fill="#BF9736"/>
</g>
<path opacity="0.76" d="M39.1591 131.736L38.8162 124.317C38.8054 124.155 38.8271 123.993 38.8801 123.839C38.9331 123.686 39.0163 123.544 39.1248 123.423C39.2333 123.302 39.365 123.204 39.512 123.134C39.6591 123.064 39.8187 123.024 39.9814 123.017C40.1441 123.009 40.3066 123.034 40.4595 123.09C40.6124 123.146 40.7526 123.232 40.8719 123.343C40.9911 123.453 41.087 123.586 41.154 123.734C41.221 123.882 41.2577 124.042 41.2619 124.205L41.6806 133.262L39.1591 131.736Z" fill="#A6A6A6"/>
<path opacity="0.76" d="M31.3488 118.944C31.3774 118.785 31.4377 118.632 31.5261 118.495C31.6146 118.359 31.7295 118.242 31.8641 118.15C31.9987 118.058 32.1502 117.995 32.3099 117.962C32.4695 117.93 32.6341 117.929 32.7939 117.961C32.9536 117.993 33.1055 118.056 33.2404 118.147C33.3754 118.238 33.4907 118.355 33.5798 118.491C33.6688 118.627 33.7297 118.78 33.7589 118.94C33.7881 119.099 33.7851 119.263 33.7499 119.422L32.1347 127.475L29.9082 126.127L31.3488 118.944Z" fill="#A6A6A6"/>
<path d="M58.0916 121.345C58.0916 121.345 51.8458 124.274 41.7807 124.22C41.6179 124.382 31.0043 123.697 27.7969 119.89C27.8192 119.913 42.2715 117.547 42.2715 117.547L55.6005 120.694L58.0916 121.345Z" fill="#0F2C4A"/>
<path d="M44.8649 96.05L48.4059 111.372C49.0209 114.036 51.2405 116.01 53.9311 116.288L65.2101 117.452C65.8866 117.522 65.3032 116.978 65.0678 117.616C64.0477 120.382 55.7202 122.853 41.8339 123.025C41.5419 123.123 35.4595 122.667 30.3922 121.403C28.3496 120.893 26.789 119.22 26.3908 117.128C25.3497 111.696 23.2369 100.837 22.3404 96.234C22.1261 95.1314 22.9586 94.1044 24.0699 94.1019C27.4357 94.0939 34.3202 94.0133 41.5512 93.5531C43.1099 93.4558 44.5089 94.5114 44.8649 96.05Z" fill="#4482A1"/>
<path d="M44.5613 94.8548L48.1526 110.177C48.4571 111.476 49.1609 112.648 50.1657 113.529C51.1704 114.411 52.4261 114.957 53.7573 115.093L65.1997 116.257C65.8831 116.327 66.0645 117.242 65.4538 117.562C62.5471 119.082 55.5726 121.658 41.4844 121.83C41.1887 121.928 35.018 121.472 29.878 120.207C28.863 119.955 27.9414 119.419 27.2222 118.662C26.5029 117.904 26.016 116.958 25.8189 115.933C24.7628 110.501 22.619 99.6419 21.7101 95.0388C21.659 94.7801 21.6659 94.5134 21.7303 94.2577C21.7947 94.0021 21.9151 93.7638 22.0828 93.56C22.2505 93.3562 22.4613 93.1919 22.7002 93.079C22.9391 92.966 23.2001 92.9072 23.4645 92.9067C26.8812 92.8986 33.865 92.8181 41.198 92.3578C41.9642 92.3102 42.7225 92.535 43.3383 92.9921C43.9541 93.4493 44.3874 94.1092 44.5613 94.8548Z" fill="#25566E"/>
<path d="M40.2988 73.2704C40.7151 72.9821 41.2273 72.8661 41.7276 72.947C43.3739 73.2159 47.1168 75.0909 49.7756 86.0253C49.9545 86.6299 51.0181 87.4884 51.4393 87.9456C51.5165 88.0302 51.5585 88.1409 51.5567 88.2553L51.5517 89.1386C51.5511 89.218 51.5714 89.2961 51.6107 89.3652C51.6499 89.4342 51.7067 89.4918 51.7753 89.532L51.799 89.5462C51.9028 89.6075 51.9781 89.7073 52.0083 89.8237C52.027 89.8965 52.0634 89.9634 52.1144 90.0187C52.1654 90.0739 52.2294 90.1157 52.3005 90.1402C52.3717 90.1648 52.4478 90.1714 52.5222 90.1594C52.5965 90.1474 52.6667 90.1172 52.7264 90.0715L52.7823 90.0282C52.8353 89.9876 52.8965 89.9592 52.9617 89.945C53.0268 89.9307 53.0944 89.931 53.1594 89.9458C53.8931 90.1143 56.0954 91.0744 54.5038 96.4827C54.4775 96.57 54.4259 96.6475 54.3554 96.7054C54.285 96.7634 54.1989 96.7993 54.1081 96.8086C53.6055 96.8643 52.6171 97.3295 52.6171 97.3295L52.0456 97.6169C51.6095 97.8362 51.1284 97.9515 50.6401 97.9539C50.1518 97.9562 49.6696 97.8456 49.2314 97.6306L48.8587 97.4447C48.7192 97.3762 48.5973 97.2767 48.5024 97.1539C48.4075 97.031 48.3422 96.8881 48.3114 96.7361L48.1822 96.0981C48.1655 96.0137 48.125 95.9359 48.0654 95.8738L43.9653 91.5941C43.845 91.468 43.7696 91.3062 43.7503 91.1332C43.6851 90.5627 43.4242 89.1021 42.3917 87.3051C42.3745 87.2746 42.3536 87.2463 42.3296 87.2208C41.9991 86.882 39.5962 81.6948 39.4527 81.3906C39.4483 81.3807 39.4446 81.3721 39.4409 81.3615C39.3141 81.0264 37.2566 75.3672 40.2988 73.2704Z" fill="#0097A9"/>
<path d="M41.7282 72.9397L32.3477 72.4219L25.9019 74.3192L30.0641 82.9877C30.0641 82.9877 30.2722 107.067 30.0641 112.684C42.1997 115.445 49.2736 107.394 49.2736 107.394C49.2736 107.394 47.2447 95.1294 46.6583 88.0454C46.3395 84.1483 45.3151 80.3411 43.6348 76.8081C42.5886 74.6097 41.7282 72.9397 41.7282 72.9397Z" fill="#0097A9"/>
<path d="M95.2927 138.898L94.1577 139.191L94.6429 140.08L95.1287 139.988C95.1287 139.988 95.3722 139.54 95.3722 139.492C95.3722 139.445 95.2927 138.898 95.2927 138.898Z" fill="#1B0B38"/>
<path d="M85.2224 135.797L85.5796 135.823C85.5796 135.823 85.4554 136.232 85.4486 136.256C85.4417 136.281 85.3181 136.38 85.3013 136.353C85.2846 136.326 85.1678 136.093 85.1665 136.073C85.1653 136.053 85.2224 135.797 85.2224 135.797Z" fill="#1B0B38"/>
<path d="M86.0239 130.148L87.9945 132.274C87.941 132.212 87.2098 131.419 86.0308 130.141L86.0239 130.148Z" fill="#FFACA4"/>
<path d="M91.4213 136.015C90.5789 135.073 89.3793 133.779 87.9946 132.274C87.9412 132.212 87.21 131.419 86.0309 130.141C84.9543 131.308 83.8398 132.441 82.7036 133.551C83.4882 134.047 84.1548 134.423 84.7139 134.651C84.9671 134.751 85.1739 134.942 85.2944 135.186C85.4148 135.43 85.4404 135.709 85.3662 135.971C85.3515 136.033 85.3247 136.093 85.2873 136.145L85.4184 137.15L86.8161 138.32L87.4995 139.025C87.4995 139.025 90.3814 140.219 90.4963 140.392C90.6112 140.566 91.2455 141.054 91.353 141.264C91.4604 141.474 93.7906 141.597 93.7906 141.597C93.7906 141.597 94.7169 140.584 94.7542 140.404C94.7914 140.223 95.0778 139.474 95.0201 139.481C94.2665 139.665 91.4287 135.979 91.4213 136.015Z" fill="#FFACA4"/>
<path opacity="0.22" d="M91.4211 136.015C90.5787 135.073 89.3791 133.779 87.9944 132.274C87.941 132.212 87.2098 131.419 86.0307 130.141C85.8799 130.306 85.7279 130.469 85.5747 130.63C86.2351 131.238 86.8519 131.795 87.4148 132.29C88.9492 133.642 90.6837 135.639 91.5254 136.58C91.5329 136.544 93.5413 140.072 94.2955 139.888C94.3539 139.881 94.0669 140.631 94.0296 140.811C94.0085 140.912 93.7072 141.276 93.4475 141.576C93.655 141.589 93.7911 141.597 93.7911 141.597C93.7911 141.597 94.7173 140.584 94.7546 140.404C94.7919 140.223 95.0782 139.474 95.0205 139.481C94.2663 139.665 91.4285 135.979 91.4211 136.015Z" fill="white"/>
<path opacity="0.25" d="M86.7526 135.282C85.8282 134.335 84.4988 133.657 83.2738 132.984L82.7041 133.545C83.4887 134.041 84.1553 134.417 84.7144 134.644C84.9675 134.745 85.1742 134.936 85.2946 135.18C85.4151 135.423 85.4408 135.703 85.3667 135.965C85.3519 136.027 85.3251 136.086 85.2878 136.139L85.4189 137.143L86.8166 138.314L87.5 139.018C87.5 139.018 90.3818 140.213 90.4968 140.386C90.6117 140.56 91.246 141.048 91.3534 141.258C91.3569 141.264 91.3618 141.27 91.3677 141.275L91.3727 141.279C91.3802 141.285 91.3883 141.291 91.3969 141.295C91.4069 141.3 91.4187 141.306 91.4311 141.311L91.4435 141.316L91.4808 141.329L91.492 141.333L91.5379 141.346L91.5597 141.352L91.6001 141.361L91.6349 141.369L91.6783 141.378L91.7144 141.385L91.7467 141.391L91.8206 141.404L91.8467 141.409L91.8983 141.417L91.9194 141.42L92.0343 141.437H92.0374C90.9776 140.401 89.7333 138.796 89.7283 138.82C88.7176 137.688 87.7926 136.348 86.7526 135.282Z" fill="#E87D6E"/>
<path d="M87.1772 140.312C87.1772 140.312 87.2182 140.754 89.2446 143.989C89.2589 143.964 89.1825 144.278 89.1825 144.278L88.3656 143.535L87.2356 141.441L86.5615 140.419L87.1772 140.312Z" fill="#493C60"/>
<g style="mix-blend-mode:multiply" opacity="0.14">
<path d="M87.2356 141.443L86.5615 140.421L87.1772 140.312C87.1772 140.312 87.2101 140.664 88.6607 143.045L88.4898 143.091L88.0984 142.865L87.712 142.324L87.2356 141.443Z" fill="#4A2556"/>
</g>
<path d="M85.3532 136C85.3532 136 85.4221 136.299 87.3479 137.465C87.3628 137.487 90.8044 139.529 92.3277 140.275C92.2407 140.239 94.2063 140.943 95.2903 138.892C95.2151 138.912 98.5605 138.297 99.3059 138.824C99.3395 138.848 99.3643 138.882 99.3767 138.921C99.389 138.96 99.3882 139.002 99.3743 139.041C99.1575 139.631 95.9619 142.207 94.4529 142.667C94.1628 142.795 93.362 143.071 91.8394 141.998C91.8034 141.99 88.8115 139.778 86.9895 140.568C87.0398 140.597 89.1824 144.271 89.1824 144.271L88.7513 144.511C88.7513 144.511 87.2765 141.844 86.0446 140.409C86.0558 140.432 84.4481 139.275 84.5816 137.536C84.5456 137.529 84.7363 135.876 85.2078 135.785C85.2171 135.749 85.3532 136 85.3532 136Z" fill="#240F4B"/>
<path d="M86.3247 140.754L86.2154 140.617L86.1812 140.576C86.1359 140.521 86.0911 140.466 86.0464 140.414C86.0464 140.414 86.3701 140.749 86.9913 140.573C86.9941 140.576 86.9966 140.579 86.9987 140.583L87.0136 140.604V140.609C87.0205 140.62 87.0279 140.631 87.0366 140.645C87.0851 140.722 87.1652 140.853 87.2659 141.022C87.5721 141.532 88.0734 142.385 88.4835 143.084L87.8728 143.027C87.4037 142.253 86.894 141.505 86.3458 140.784C86.3427 140.777 86.334 140.765 86.3247 140.754Z" fill="#1B0B38"/>
<g style="mix-blend-mode:multiply" opacity="0.25">
<path d="M86.3529 135.626L86.3373 135.63C86.2194 135.655 86.0965 135.644 85.9851 135.598C85.9635 135.588 85.9399 135.583 85.9161 135.583C85.8923 135.583 85.8688 135.588 85.8472 135.598C85.731 135.671 85.9776 135.928 86.0286 135.977C86.1404 136.084 86.415 136.225 86.6883 136.068C86.7843 136.013 86.8648 135.935 86.9225 135.84C87.0412 135.647 87.076 135.437 86.9337 135.243C86.9234 135.225 86.9097 135.21 86.8933 135.198C86.877 135.186 86.8584 135.177 86.8386 135.173C86.7765 135.164 86.7237 135.224 86.6889 135.279C86.602 135.42 86.5106 135.585 86.3529 135.626Z" fill="#C6594E"/>
</g>
<path d="M88.5702 144.198L88.9958 143.959L89.0834 143.734C89.1355 143.819 89.189 143.903 89.2442 143.992C89.2585 143.967 89.1821 144.281 89.1821 144.281L88.751 144.52C88.751 144.52 88.6845 144.397 88.5684 144.198H88.5702Z" fill="#14082A"/>
<path opacity="0.47" d="M87.9946 132.265C87.9586 132.224 87.6089 131.843 87.0187 131.203L84.6611 133.73L84.8369 134.702C85.0449 134.817 85.2105 134.996 85.3097 135.212L89.0184 133.38L87.9946 132.265Z" fill="#E87D6E"/>
<g style="mix-blend-mode:screen" opacity="0.24">
<path d="M37.551 50.7893C36.747 50.7818 35.9549 50.9829 35.2524 51.3728C35.7323 51.2198 36.2334 51.1431 36.7372 51.1454C40.0669 51.1454 42.2822 54.0141 42.2822 59.14C42.2822 63.2109 41.3436 66.3713 39.5619 67.5024C41.8716 66.9034 43.0985 63.4395 43.0985 58.7863C43.0961 53.6579 40.8808 50.7893 37.551 50.7893Z" fill="#C6594E"/>
</g>
<path d="M35.6019 54.8862C35.6019 54.8862 35.8107 59.1461 32.0336 59.8485C31.9715 59.7866 30.5874 58.386 30.5874 58.386C30.5874 58.386 32.3921 55.2795 32.5269 54.8862C32.6617 54.4928 34.2763 53.3438 34.2763 53.3438L35.6019 54.8862Z" fill="#240F4B"/>
<path d="M35.2864 55.1944C35.2864 55.1944 38.4708 58.4155 43.0157 57.168C42.9958 56.9821 45.4 56.5027 45.4 56.5027L41.6794 53.3435L35.6032 51.1953C35.6032 51.1953 34.6459 52.1307 34.5819 52.4497C34.5179 52.7687 35.2864 55.1944 35.2864 55.1944Z" fill="#0A1D30"/>
<path d="M44.6588 53.839L40.6829 51.5334C39.0315 50.5757 37.1552 50.0708 35.2447 50.0703C34.5125 50.0704 33.7863 50.2011 33.1002 50.4562L31.1192 51.1934C30.0667 52.1558 29.4352 53.4917 29.3605 54.9137L29.3052 55.9575C29.3052 55.9575 31.7702 56.7231 31.8273 56.6308C31.8845 56.5385 36.5182 54.666 36.8369 54.6176C37.1556 54.5693 42.1348 55.6707 42.1348 55.6707C42.1348 55.6707 44.8278 56.1043 45.1228 55.8621C45.4179 55.6199 44.6588 53.839 44.6588 53.839Z" fill="#0F2C4A"/>
<path d="M46.2225 105.512C53.8568 103.5 62.9528 100.97 65.4992 101.008C65.5613 101.008 67.6934 101.464 69.0942 103.548C73.6534 110.327 83.0252 125.596 87.9423 131.209C86.9949 130.951 83.5738 134.905 83.5738 134.905C83.5738 134.905 78.4356 129.617 73.4087 125.382C73.2558 125.253 73.003 125.047 72.8421 124.927C71.609 124.013 66.9814 118.335 64.6121 112.467C64.458 112.082 64.1572 111.774 63.7758 111.611C63.3944 111.447 62.9635 111.441 62.5776 111.594C56.6852 113.939 49.9319 117.479 45.9045 119.903C43.7364 121.03 40.7744 120.894 38.2491 120.431C34.9771 119.834 32.5711 117.002 32.563 113.685C32.5524 109.353 42.1429 106.801 46.2225 105.512Z" fill="#FFC700"/>
<g style="mix-blend-mode:screen" opacity="0.31">
<path d="M69.0943 103.548C67.6934 101.464 65.5626 101.008 65.4992 101.008C62.9522 100.97 53.8568 103.5 46.2226 105.512C42.2933 106.751 33.2539 109.167 32.6016 113.214C34.8305 110.028 42.1684 108.046 45.6057 106.964C53.24 104.952 62.3366 102.422 64.8824 102.46C64.9445 102.46 67.0765 102.916 68.4774 105C72.8322 111.476 81.5772 125.695 86.6377 131.849C87.1844 131.415 87.6677 131.135 87.9423 131.21C83.0253 125.596 73.6535 110.327 69.0943 103.548Z" fill="#FFC948"/>
</g>
<g style="mix-blend-mode:multiply" opacity="0.5">
<path d="M83.8164 133.117C83.7841 132.896 83.6169 132.722 83.4579 132.566C80.8376 129.992 77.9961 127.646 75.4522 124.998C72.9082 122.35 70.6376 119.343 69.4424 115.876C69.0336 114.691 68.7255 113.411 67.8651 112.499C66.7736 111.342 64.9975 111.048 63.4358 111.357C62.8145 111.481 61.4118 111.817 60.5781 112.42C61.2515 112.132 61.9206 111.854 62.5779 111.593C62.9638 111.44 63.3947 111.446 63.7761 111.61C64.1575 111.774 64.4582 112.081 64.6124 112.466C66.9817 118.334 71.6093 124.012 72.8424 124.927C73.0033 125.046 73.2561 125.252 73.4089 125.381C77.5333 128.856 81.7334 133.038 83.1069 134.428C83.2635 134.225 83.4175 134.019 83.5635 133.809C83.7095 133.598 83.8524 133.366 83.8164 133.117Z" fill="#E7B400"/>
</g>
<path d="M87.2169 129.969L88.6594 131.542C88.6594 131.542 84.796 135.394 83.9797 135.869C83.9523 135.828 82.8372 134.363 82.2402 134.011C82.2396 133.848 85.178 130.81 87.2169 129.969Z" fill="#FFDF91"/>
<g style="mix-blend-mode:multiply" opacity="0.23">
<path d="M32.4338 86.6414C32.814 88.3424 32.85 90.0979 32.891 91.8404C32.9029 92.3508 32.9178 92.8736 33.0985 93.3512C33.4036 94.1565 34.1279 94.7139 34.8187 95.2312C35.3604 95.6363 35.9369 96.0544 36.6047 96.1455C37.2726 96.2365 38.0609 95.8698 38.1845 95.2064C38.2752 94.7195 37.9926 94.2351 37.636 93.8919C37.2794 93.5488 36.8414 93.2954 36.4892 92.9467C35.361 91.8317 35.3387 90.0681 35.0666 88.509C34.6942 86.4006 33.751 84.4338 32.3388 82.8213C31.6772 82.0693 30.3627 80.9561 29.3457 81.5824C30.6397 83.336 31.9095 84.2925 32.4338 86.6414Z" fill="#3E1762"/>
</g>
<g style="mix-blend-mode:multiply" opacity="0.5">
<path d="M45.9052 119.903C48.1565 118.549 51.2595 116.845 54.5874 115.196L48.0646 117.546C46.0145 118.284 43.9284 119.032 41.7516 119.148C39.5749 119.264 37.2564 118.666 35.7742 117.073C35.4363 116.709 35.1368 116.272 35.1045 115.778C35.038 114.742 36.0948 114.034 36.9955 113.513C38.7343 112.506 40.3838 111.353 41.9262 110.067C42.5642 109.536 45.5915 106.919 43.7122 106.536C43.5482 106.503 43.3842 106.474 43.2196 106.445C38.6778 107.897 32.5569 110.224 32.5649 113.685C32.573 117.002 34.979 119.835 38.251 120.432C40.7745 120.893 43.7365 121.031 45.9052 119.903Z" fill="#FFC948"/>
</g>
<path d="M76.8245 156.157L75.6597 156.023L75.7926 157.028L76.279 157.115C76.279 157.115 76.6679 156.783 76.6847 156.74C76.7015 156.697 76.8245 156.157 76.8245 156.157Z" fill="#1B0B38"/>
<path d="M68.5454 149.656L68.869 149.809C68.869 149.809 68.6044 150.146 68.5895 150.169C68.5746 150.192 68.4224 150.24 68.4174 150.206C68.4124 150.172 68.3863 149.916 68.3926 149.897C68.3988 149.877 68.5454 149.656 68.5454 149.656Z" fill="#1B0B38"/>
<path d="M72.625 142.711C70.9558 142.807 70.2643 143.531 68.592 143.521C68.6429 144.625 69.5679 146.942 69.5499 147.634C69.5269 148.525 68.4789 150.005 68.4789 150.005L68.2397 150.99L69.1225 152.583L69.507 153.486C69.507 153.486 71.7664 155.632 71.8106 155.836C71.8547 156.039 72.2715 156.721 72.2964 156.956C72.3212 157.19 74.452 158.139 74.452 158.139C74.452 158.139 75.6808 157.526 75.7802 157.371C75.8796 157.216 76.4176 156.619 76.361 156.605C74.4328 153.757 74.5365 148.134 72.625 142.711Z" fill="#FFACA4"/>
<path opacity="0.22" d="M72.3074 143.122C74.219 148.545 74.1152 154.168 76.0435 157.017C76.0503 157.017 76.0479 157.029 76.0385 157.047C76.2119 156.838 76.397 156.613 76.3628 156.605C74.437 153.756 74.5383 148.134 72.6267 142.711C70.9575 142.807 70.2661 143.531 68.5938 143.521C68.6013 143.656 68.6166 143.79 68.6397 143.923C70.0549 143.835 70.7631 143.211 72.3074 143.122Z" fill="white"/>
<g style="mix-blend-mode:multiply" opacity="0.25">
<path d="M70.219 149.095L70.204 149.09C70.091 149.047 69.9939 148.971 69.9257 148.871C69.9129 148.851 69.8958 148.834 69.8758 148.821C69.8557 148.809 69.8332 148.8 69.8096 148.797C69.6723 148.797 69.7387 149.145 69.7549 149.213C69.7903 149.364 69.945 149.628 70.2581 149.647C70.3685 149.653 70.4787 149.632 70.5786 149.585C70.7836 149.487 70.9278 149.33 70.9154 149.089C70.9166 149.048 70.9017 149.008 70.8737 148.978C70.8246 148.936 70.7495 148.959 70.6874 148.987C70.5401 149.058 70.3736 149.146 70.219 149.095Z" fill="#C6594E"/>
</g>
<path opacity="0.25" d="M70.3193 146.781L69.4353 146.937C69.5079 147.23 69.5533 147.472 69.5489 147.63C69.526 148.521 68.4779 150.001 68.4779 150.001L68.2388 150.985L69.1215 152.579L69.2116 152.79C69.8906 153.352 70.5553 153.887 70.5417 153.861C69.5906 151.664 70.3193 146.781 70.3193 146.781Z" fill="#E87D6E"/>
<path opacity="0.47" d="M73.8363 147.194C73.7089 146.582 73.5691 145.963 73.412 145.339L73.3989 145.312L68.9963 145.219L68.9795 145.318C69.2497 146.264 69.5604 147.221 69.5498 147.625C69.5299 147.896 69.4648 148.161 69.3572 148.411C70.0499 148.177 72.2689 147.441 73.8363 147.194Z" fill="#E87D6E"/>
<path d="M68.7422 154.573C68.7422 154.573 68.618 154.999 69.3467 158.745C69.3691 158.726 69.1864 158.992 69.1864 158.992L68.6894 158.007L68.3875 155.649L68.126 154.453L68.7422 154.573Z" fill="#493C60"/>
<g style="mix-blend-mode:multiply" opacity="0.14">
<path d="M68.3895 155.649L68.1279 154.453L68.7423 154.573C68.7423 154.573 68.646 154.913 69.1418 157.654L68.966 157.635L68.6821 157.285L68.5162 156.641L68.3895 155.649Z" fill="#4A2556"/>
</g>
<path d="M68.5922 149.897C68.5922 149.897 68.5488 150.2 69.926 151.979C69.9316 152.005 72.4078 155.143 73.5608 156.385C73.4931 156.323 75.0735 157.681 76.8241 156.155C76.7496 156.147 79.8383 156.724 80.5254 157.443C80.5514 157.47 80.5713 157.503 80.5838 157.538C80.5963 157.574 80.6011 157.612 80.5979 157.649C80.5947 157.687 80.5835 157.723 80.5651 157.756C80.5467 157.789 80.5215 157.818 80.4912 157.841C79.8768 158.278 76.2569 159.489 74.6828 159.378C74.3666 159.393 73.5192 159.365 72.4849 157.818C72.4538 157.798 70.459 154.658 68.4736 154.746C68.5103 154.792 69.1861 158.988 69.1861 158.988L68.6972 159.057C68.6972 159.057 68.2823 156.04 67.6486 154.26C67.6486 154.286 66.5677 152.629 67.3187 151.054C67.2877 151.034 68.0642 149.56 68.5339 149.644C68.5537 149.614 68.5922 149.897 68.5922 149.897Z" fill="#240F4B"/>
<path d="M68.6421 158.686L69.1254 158.615L69.2882 158.438C69.3068 158.535 69.3254 158.633 69.3453 158.735C69.3677 158.717 69.185 158.983 69.185 158.983L68.6961 159.052C68.6961 159.052 68.6775 158.916 68.6421 158.685V158.686Z" fill="#14082A"/>
<path d="M67.7868 154.683C67.7694 154.626 67.7514 154.57 67.7334 154.515C67.7284 154.499 67.7229 154.481 67.7173 154.464C67.6949 154.397 67.6719 154.33 67.6489 154.266C67.6489 154.266 67.8309 154.694 68.4739 154.753C68.4739 154.753 68.4739 154.758 68.4776 154.764V154.767C68.4776 154.773 68.4814 154.782 68.4839 154.792C68.4863 154.803 68.4839 154.796 68.4839 154.798C68.4839 154.81 68.4895 154.824 68.4926 154.84C68.5106 154.93 68.5379 155.081 68.5715 155.273C68.6727 155.859 68.833 156.831 68.9641 157.635L68.4149 157.363C68.256 156.473 68.0501 155.591 67.798 154.723L67.7868 154.683Z" fill="#1B0B38"/>
<path d="M74.2152 145.684C71.5277 138.73 69.264 122.111 67.2785 114.192C67.0338 113.216 66.1734 112.272 65.687 111.874C64.6731 111.041 63.0486 111.243 61.7999 111.649C57.4855 113.053 45.0566 120.268 45.0566 120.268C50.1799 119.927 54.7198 118.882 59.1808 118.855C58.9883 125.545 61.7148 133.536 62.628 134.92C62.738 135.087 62.9045 135.368 63.0008 135.539C66.2647 141.238 69.1385 147.146 69.1385 147.146C69.1385 147.146 73.4138 145.117 74.2152 145.684Z" fill="#E7B400"/>
<g style="mix-blend-mode:screen" opacity="0.15">
<path d="M47.9849 120.004C49.7647 119.805 51.4811 119.557 53.1578 119.344C51.4749 119.528 49.7566 119.776 47.9849 120.004Z" fill="#DD9F22"/>
<path d="M67.2785 114.192C67.0337 113.215 66.1733 112.271 65.6869 111.873C64.8091 111.152 63.4728 111.207 62.3198 111.501C62.9547 111.524 63.5573 111.687 64.0282 112.074C64.5146 112.473 65.3744 113.417 65.6198 114.393C67.5984 122.287 69.8547 138.823 72.5309 145.817C73.2876 145.597 73.9461 145.495 74.2151 145.685C71.5276 138.729 69.2633 122.109 67.2785 114.192Z" fill="#DD9F22"/>
<path d="M68.9282 146.712C69.0668 146.994 69.1413 147.146 69.1413 147.146C69.1413 147.146 70.9739 146.275 72.4636 145.832C71.866 145.601 70.1744 146.201 68.9282 146.712Z" fill="#DD9F22"/>
</g>
<g style="mix-blend-mode:multiply" opacity="0.2">
<path d="M68.995 145.092C66.105 138.92 62.2187 132.918 61.7695 126.12C61.6887 124.899 61.7173 123.642 61.303 122.493C60.9104 121.404 60.1195 120.325 60.414 119.205C60.5643 118.634 60.9731 117.976 60.5867 117.528C60.2897 117.182 59.7418 117.268 59.2989 117.379C56.0301 118.197 52.7005 118.752 49.3425 119.038C48.7604 119.088 48 119.032 47.252 119.014C45.9127 119.772 45.0566 120.268 45.0566 120.268C50.1799 119.928 54.7198 118.883 59.1808 118.855C58.9883 125.545 61.7148 133.536 62.628 134.921C62.738 135.088 62.9045 135.368 63.0008 135.54C65.677 140.213 68.0905 145.026 68.8732 146.608C68.9657 146.551 69.0459 146.476 69.1093 146.388C69.3715 146.015 69.1882 145.506 68.995 145.092Z" fill="#8B6518"/>
</g>
<path d="M73.9927 144.132L74.5823 146.245C74.5823 146.245 69.5913 147.975 68.6806 148.046C68.6738 147.999 68.3023 146.262 67.9233 145.706C67.9873 145.565 71.8526 144.009 73.9927 144.132Z" fill="#FFC700"/>
<path d="M30.9829 112.725C30.9829 112.725 42.9912 111.957 45.6917 105.683C45.8619 105.675 39.736 102.187 39.736 102.187L30.9829 99.3281V112.725Z" fill="#0097A9"/>
<g style="mix-blend-mode:multiply" opacity="0.23">
<path d="M47.158 92.7969C45.3341 92.7895 43.7059 94.2836 42.1932 95.45C38.9973 97.8937 35.0724 99.1992 31.0453 99.158C30.7502 99.1542 30.4514 99.1437 30.1538 99.1468C30.1569 100.505 30.1582 101.856 30.1575 103.157C31.2844 103.585 32.4927 103.803 33.6842 103.986C34.5651 104.121 35.4703 104.208 36.3443 104.034C38.0701 103.689 39.4213 102.391 40.6681 101.153L44.3575 97.4855C45.4453 96.4039 46.5573 95.2827 47.3022 93.9608C47.2533 93.5702 47.2052 93.1822 47.158 92.7969Z" fill="#3E1762"/>
</g>
<path d="M49.8813 92.4098C49.8621 92.3479 49.8496 92.3113 49.8447 92.294C49.8186 92.2252 49.7912 92.1558 49.762 92.0877C49.6931 91.9273 49.6167 91.7699 49.5328 91.6169C49.4218 91.3945 49.2775 91.1902 49.1048 91.0111C48.9265 90.8098 48.8755 90.751 48.732 90.6494L48.724 90.6432L48.6879 90.619L48.6761 90.611L48.6358 90.5843L48.624 90.5769L48.5656 90.5385C48.4929 90.492 48.4189 90.448 48.3432 90.4072L48.2742 90.3787C48.1073 90.3178 47.9365 90.2681 47.7629 90.23C47.5196 90.1711 47.308 90.0218 47.1715 89.8125C45.8825 90.3576 44.873 90.6977 44.873 90.6977C44.873 90.6977 40.4772 94.0848 37.0492 95.0957L35.1489 99.184L36.2814 101.485C36.2814 101.485 42.572 98.1508 45.9726 94.2756C46.0602 94.1393 46.4074 93.4598 48.2481 93.1135C48.3053 93.1408 49.1675 92.9785 50.0012 92.6849C49.9523 92.5973 49.9121 92.5052 49.8813 92.4098Z" fill="#FFACA4"/>
<path d="M49.8811 92.4022C49.8618 92.3402 49.8494 92.3037 49.8444 92.2863C49.8183 92.2176 49.791 92.1482 49.7618 92.0801C49.6928 91.9196 49.6164 91.7623 49.5325 91.6093C49.4816 91.517 49.4431 91.4489 49.4083 91.3906C49.4313 91.4408 49.4549 91.4904 49.4766 91.5405C49.5058 91.6087 49.5332 91.6774 49.5593 91.7468C49.5649 91.7641 49.5766 91.8019 49.5965 91.862C49.6257 91.9555 49.6638 92.0459 49.7102 92.1321C48.8765 92.4257 48.0143 92.588 47.9571 92.5608C46.1177 92.907 45.7691 93.5865 45.6816 93.7228C42.3797 97.4872 36.3501 100.74 36.0078 100.923L36.2774 101.471C36.2774 101.471 42.568 98.1376 45.9686 94.2624C46.0562 94.1261 46.4034 93.4466 48.2441 93.1003C48.3013 93.1275 49.1635 92.9653 49.9972 92.6716C49.9499 92.5857 49.911 92.4955 49.8811 92.4022Z" fill="#E87D6E"/>
<path opacity="0.22" d="M37.2013 95.5721C40.6292 94.5636 45.0251 91.174 45.0251 91.174C45.0251 91.174 46.037 90.8346 47.3236 90.2888C47.4599 90.4985 47.6715 90.6481 47.915 90.707C48.0886 90.7451 48.2594 90.7947 48.4263 90.8556L48.4952 90.8841C48.571 90.925 48.6449 90.969 48.7176 91.0155L48.776 91.0532L48.7878 91.0607L48.8282 91.0879L48.84 91.096L48.876 91.1201L48.8841 91.1263C49.0295 91.2273 49.0804 91.2861 49.2568 91.4881C49.4298 91.667 49.5742 91.8713 49.6849 92.0939C49.7687 92.2469 49.8452 92.4036 49.9141 92.5647C49.9315 92.6049 49.9464 92.6458 49.9626 92.6886L49.9893 92.6793C49.9426 92.5933 49.9043 92.5031 49.875 92.4098C49.8557 92.3479 49.8433 92.3113 49.8383 92.294C49.8122 92.2252 49.7849 92.1558 49.7557 92.0877C49.6867 91.9273 49.6103 91.7699 49.5265 91.6169C49.4154 91.3945 49.2711 91.1902 49.0984 91.0111C48.9201 90.8098 48.8692 90.751 48.7257 90.6494L48.7176 90.6432L48.6816 90.619L48.6698 90.611L48.6294 90.5843L48.6176 90.5769L48.5592 90.5385C48.4865 90.492 48.4126 90.448 48.3368 90.4072L48.2679 90.3787C48.101 90.3178 47.9302 90.2681 47.7566 90.23C47.5133 90.1711 47.3017 90.0218 47.1652 89.8125C45.8761 90.3576 44.8666 90.6977 44.8666 90.6977C44.8666 90.6977 40.4708 94.0848 37.0429 95.0957L35.1426 99.184L35.3389 99.5823L37.2013 95.5721Z" fill="white"/>
<path d="M25.9017 74.3204C26.5074 74.1345 27.2361 74.277 27.8275 74.4907C29.7713 75.1925 33.7912 78.0705 33.5931 89.8671C33.6216 90.5274 34.6622 91.6765 35.0343 92.2476C35.0675 92.2975 35.0889 92.3542 35.0971 92.4135C35.1052 92.4728 35.0999 92.5332 35.0815 92.5902L34.7945 93.4859C34.7698 93.5684 34.771 93.6565 34.798 93.7384C34.825 93.8202 34.8765 93.8919 34.9455 93.9437L34.9703 93.9635C35.0218 94.0036 35.0638 94.0547 35.0931 94.113C35.1224 94.1712 35.1384 94.2353 35.1399 94.3005C35.1399 94.6418 35.5642 94.8722 35.9475 94.7378L36.0301 94.7087C36.1901 94.6531 36.365 94.6582 36.5215 94.7229C37.372 95.0847 39.7817 96.6333 36.1022 101.711C35.978 101.879 35.7462 101.967 35.5108 101.939C34.8734 101.865 33.508 102.081 33.508 102.081L32.7122 102.224C31.4815 102.445 30.1962 102.179 29.2395 101.506L28.8351 101.221C28.5307 101.007 28.3642 100.688 28.3853 100.359L28.4294 99.6772C28.4345 99.5854 28.4087 99.4945 28.3561 99.4189L24.6592 94.0056C24.5526 93.853 24.5101 93.665 24.5406 93.4816C24.6418 92.885 24.7841 91.334 24.0821 89.2402C24.0708 89.2043 24.0545 89.1701 24.0336 89.1386C23.7342 88.7088 22.4184 82.8148 22.3402 82.4697C22.3376 82.4589 22.3358 82.4479 22.3346 82.4369C22.2886 82.0677 21.4909 75.6577 25.9017 74.3204Z" fill="#0097A9"/>
<path d="M59.0847 83.7041L52.2382 83.299C52.0375 83.2873 51.837 83.3242 51.6538 83.4068C51.4706 83.4893 51.3102 83.6149 51.1864 83.7729L42.8092 94.4824C42.7653 94.5392 42.7382 94.6071 42.731 94.6785C42.7237 94.7498 42.7366 94.8218 42.7682 94.8862C42.7998 94.9506 42.8488 95.0049 42.9097 95.043C42.9707 95.0811 43.0411 95.1015 43.113 95.1019H49.9881C50.1944 95.1018 50.398 95.0557 50.5841 94.967C50.7702 94.8782 50.934 94.7491 51.0634 94.589L59.3618 84.3285C59.4059 84.2735 59.4341 84.2075 59.4432 84.1377C59.4523 84.0678 59.442 83.9968 59.4135 83.9324C59.3849 83.868 59.3391 83.8126 59.2811 83.7724C59.2232 83.7321 59.1552 83.7085 59.0847 83.7041Z" fill="#D4D4D4"/>
<path d="M55.8521 91.2808C55.8521 91.2808 56.3621 90.569 55.4029 89.6331C55.4234 89.6535 54.1785 88.4326 53.648 88.8798C53.648 88.8798 53.3423 89.5922 54.2605 90.1187C54.1984 90.0983 54.7836 90.9438 54.5786 91.396C54.3599 91.8798 52.8118 91.2176 52.8118 91.2176L51.975 91.1972L51.5259 91.0547C51.5259 91.0547 50.5667 90.709 50.3424 91.2783C50.3629 91.2987 50.0784 91.9671 51.465 92.174C51.5669 92.236 52.3627 92.4181 52.3627 92.4181C52.3627 92.4181 53.5871 92.9675 54.0356 93.1304C54.0561 93.1304 52.6279 92.988 52.6279 92.988C52.1971 92.8963 51.7616 92.8283 51.3233 92.7842C51.2823 92.8046 49.4255 92.296 49.2826 92.97C49.2826 93.0319 49.1584 93.4786 49.9765 93.5597C49.9765 93.5801 49.8523 93.9871 50.8947 94.3532C50.8742 94.3941 51.8744 94.8822 51.8744 94.8822C51.8637 94.9311 51.8561 94.9805 51.8514 95.0303C51.8377 95.1603 51.8501 95.2918 51.8879 95.417C51.9256 95.5423 51.988 95.6588 52.0714 95.7597C52.1548 95.8607 52.2575 95.9441 52.3735 96.0051C52.4895 96.066 52.6165 96.1034 52.7472 96.1149C53.105 96.1401 53.4646 96.1088 53.8126 96.022C53.7505 96.0839 54.5879 95.8981 54.5879 95.8981L54.9557 95.3487L54.996 95.003L55.4247 94.5347L55.5266 93.8025L55.9888 93.0288L55.8328 92.4515L55.9888 91.8079L55.8521 91.2808Z" fill="#FFACA4"/>
<g opacity="0.31">
<path d="M52.2885 92.3973C51.9667 92.2567 51.7101 92.1415 51.7101 92.1415C51.7101 92.1415 50.9143 91.9556 50.8125 91.8974C50.7224 91.8838 50.6404 91.8683 50.564 91.8516C50.728 91.9816 51.0038 92.0993 51.4654 92.1706C51.548 92.2201 52.0878 92.3502 52.2885 92.3973Z" fill="#E87D6E"/>
<path d="M53.3603 92.8477H53.3858C53.3374 92.8297 53.279 92.8073 53.2144 92.7812L53.3603 92.8477Z" fill="#E87D6E"/>
<path d="M55.9878 91.8041L55.8524 91.2751C55.8524 91.2751 56.3624 90.5634 55.4032 89.6274C55.42 89.6435 54.6143 88.8543 54.0235 88.7812C54.2828 88.9497 54.5261 89.1415 54.7503 89.3542C55.7095 90.2902 55.1995 91.002 55.1995 91.002L55.3349 91.531L55.179 92.1746L55.3349 92.7519L54.8727 93.5256L54.7708 94.2577L54.3422 94.726L54.3018 95.0717L53.934 95.6211C53.934 95.6211 53.0978 95.807 53.1587 95.745C52.8298 95.8259 52.4908 95.8586 52.1523 95.8423C52.3143 95.9959 52.5236 96.0907 52.7462 96.1111C53.1041 96.1364 53.4636 96.105 53.8116 96.0182C53.7495 96.0801 54.5869 95.8943 54.5869 95.8943L54.9547 95.3449L54.9951 94.9992L55.4237 94.5309L55.5256 93.7987L55.9878 93.025L55.8319 92.4477L55.9878 91.8041Z" fill="#E87D6E"/>
</g>
<path opacity="0.22" d="M42.3815 58.9954C42.3815 53.7425 40.1109 50.8033 36.6991 50.8033C36.0268 50.7982 35.3609 50.9335 34.7441 51.2003C35.5261 50.6926 36.4413 50.4272 37.3744 50.4378C40.7862 50.4378 43.0561 53.3777 43.0561 58.6299C43.0561 63.1872 41.9081 66.63 39.7407 67.4619C41.4708 66.228 42.3815 63.0534 42.3815 58.9954Z" fill="white"/>
<path d="M30.3663 59.4687C29.9884 59.6036 29.6797 59.8825 29.5081 60.2443C29.3365 60.606 29.316 61.0209 29.4512 61.3977C29.7339 62.1807 30.8316 63.9919 32.6306 63.3458C33.6022 62.9971 33.0301 61.4764 32.7474 60.694C32.4648 59.9116 31.1546 59.1857 30.3663 59.4687Z" fill="#FFB47F"/>
<path d="M132.861 107.866C132.861 113.716 115.185 118.458 93.3817 118.458C71.5785 118.458 53.9027 113.716 53.9027 107.866C53.9027 107.189 53.5754 104.357 54.027 103.716C57.481 98.8115 74.0988 97.2734 93.3817 97.2734C112.93 97.2734 129.65 98.8351 132.799 103.84C133.161 104.419 132.861 107.263 132.861 107.866Z" fill="#2A5A78"/>
<path d="M93.3818 114.747C115.185 114.747 132.861 110.005 132.861 104.155C132.861 98.3049 115.185 93.5625 93.3818 93.5625C71.5782 93.5625 53.9028 98.3049 53.9028 104.155C53.9028 110.005 71.5782 114.747 93.3818 114.747Z" fill="#377493"/>
<path d="M90.5254 116.109H96.2407V158.355C96.2407 158.717 96.0967 159.063 95.8404 159.319C95.5841 159.575 95.2365 159.718 94.874 159.718H91.8921C91.5296 159.718 91.182 159.575 90.9257 159.319C90.6694 159.063 90.5254 158.717 90.5254 158.355V116.109Z" fill="#2A5A78"/>
<path d="M103.886 98.2871L103.879 98.3026L119.87 97.3004C120.105 97.2854 120.34 97.3185 120.562 97.3976L129.114 100.449L129.631 100.362V100.782C129.634 100.839 129.615 100.894 129.578 100.937C129.541 100.98 129.489 101.007 129.432 101.012L116.883 102.323L102.401 98.3955V97.9904L103.886 98.2871Z" fill="white"/>
<path d="M116.882 101.918L129.431 100.608C129.481 100.603 129.529 100.581 129.565 100.545C129.602 100.51 129.625 100.463 129.631 100.412C129.637 100.362 129.625 100.31 129.598 100.267C129.571 100.224 129.53 100.191 129.482 100.175L120.56 96.9914C120.339 96.9123 120.103 96.8792 119.869 96.8941L102.398 97.9893L116.882 101.918Z" fill="#919191"/>
<path d="M122.179 98.2702C122.179 98.2702 121.487 98.0646 119.699 99.9192C119.243 99.991 117.199 100.702 117.199 100.702C116.826 100.986 115.662 101.212 115.662 101.212C115.662 101.212 115.458 100.796 115.874 100.269C116.023 100.082 116.212 99.9299 116.428 99.8244C117.026 99.5246 118.32 98.9745 118.53 98.7249C118.506 98.7695 117.936 97.9741 117.936 97.9741C117.936 97.9741 116.439 97.5213 115.878 97.2686C115.96 97.2872 113.426 96.9242 113.426 96.9242L112.814 97.0877C112.814 97.0877 112.654 96.3747 113.296 95.9677C113.674 95.7819 114.286 95.7274 114.286 95.7274L114.616 95.6469C114.616 95.6469 114.955 95.2752 115.378 95.0937C115.333 95.0658 115.702 94.3145 116.518 94.0772C116.556 93.9905 120.564 93.249 122.477 93.9905C122.493 94.0642 122.19 97.2903 122.19 97.2903L122.179 98.2702Z" fill="#C6594E"/>
<g style="mix-blend-mode:multiply" opacity="0.54">
<path d="M122.476 93.9905C122.483 94.0227 122.43 94.6477 122.368 95.3458C120.184 94.4386 117.761 94.2721 115.473 94.8719C115.715 94.4909 116.087 94.209 116.519 94.0772C116.556 93.9905 120.564 93.249 122.476 93.9905Z" fill="#F4908C"/>
</g>
<path d="M120.917 93.1492C120.652 93.2694 119.811 93.6088 119.562 93.7606C119.923 93.5401 121.787 96.3282 122.062 98.2571C122.144 98.2676 123.28 98.4256 123.745 98.0657C123.559 96.9767 121.728 93.0866 120.917 93.1492Z" fill="white"/>
<path d="M139.57 75.1732C139.422 75.1906 139.279 75.2415 139.153 75.322C139.027 75.4025 138.921 75.5105 138.844 75.6378L133.329 84.6495C132.157 86.6449 130.688 88.451 128.972 90.0058C128.776 89.953 128.567 89.965 128.378 90.0402C128.19 90.1154 128.03 90.2496 127.924 90.4227L127.65 90.6153L126.753 90.5614L120.385 93.4071C120.385 93.4071 123.057 94.8232 122.063 98.2543C123.029 98.302 126.842 97.6175 128.933 97.5363C129.454 97.5174 129.971 97.4506 130.48 97.3369L131.261 97.1597C131.625 98.4054 130.478 102.326 131.59 103.002L137.154 104.045L138.724 96.5743L141.698 85.6375L143.898 74.6641L139.57 75.1732Z" fill="#0F2C4A"/>
<path d="M116.093 102.267L103.353 98.6431C103.078 98.5664 102.834 98.4071 102.653 98.187C102.473 97.9668 102.365 97.6964 102.344 97.4129L101.216 81.2132C101.207 81.0623 101.233 80.9114 101.292 80.7721C101.351 80.6329 101.441 80.509 101.556 80.4103C101.671 80.3116 101.807 80.2406 101.953 80.2029C102.1 80.1652 102.254 80.1618 102.402 80.193L115.023 82.7457C115.307 82.8018 115.565 82.9497 115.757 83.1666C115.949 83.3834 116.064 83.6572 116.084 83.9456L117.231 101.367C117.239 101.508 117.213 101.65 117.155 101.78C117.096 101.909 117.008 102.023 116.896 102.111C116.785 102.199 116.654 102.259 116.514 102.287C116.374 102.314 116.23 102.307 116.093 102.267Z" fill="white"/>
<path d="M115.626 102.509L103.051 98.884C102.779 98.8052 102.538 98.6449 102.36 98.4249C102.182 98.2048 102.077 97.9357 102.057 97.6538L100.944 81.4541C100.934 81.3044 100.959 81.1544 101.016 81.0157C101.074 80.877 101.162 80.7535 101.276 80.6547C101.389 80.5559 101.524 80.4846 101.669 80.4463C101.815 80.408 101.967 80.4038 102.115 80.4339L114.572 82.9866C114.854 83.0443 115.11 83.1929 115.299 83.4097C115.488 83.6264 115.601 83.8991 115.619 84.1859L116.75 101.61C116.759 101.75 116.734 101.891 116.677 102.02C116.62 102.149 116.533 102.262 116.422 102.35C116.312 102.438 116.182 102.499 116.044 102.526C115.905 102.554 115.762 102.548 115.626 102.509Z" fill="#A8A8A8"/>
<path d="M132.396 96.4612C133.099 96.626 133.504 96.8428 133.96 97.3365C134.415 97.855 134.871 98.3691 135.333 98.8944C135.773 99.0982 136.36 99.4587 136.762 99.6284C137.164 99.7982 137.383 99.779 137.748 99.914C137.527 100.579 137.241 101.224 137.079 101.911C136.948 102.472 136.91 103.06 136.844 103.628C136.466 103.38 135.912 102.98 135.572 102.761C134.972 102.373 134.566 102.119 133.975 101.757C133.522 101.834 132.288 101.757 131.983 101.753C131.3 101.746 131.149 101.793 130.605 101.717C131.385 100.495 132.107 99.4253 131.637 97.9485C131.207 97.7218 130.618 97.3947 130.221 97.1909C129.824 96.9871 129.724 96.5975 129.732 96.3008C129.743 95.9731 129.883 95.9421 130.089 95.8672C130.408 95.9787 130.576 96.0902 130.934 96.185C131.292 96.2797 132.054 96.3813 132.396 96.4612Z" fill="#C6594E"/>
<g style="mix-blend-mode:screen" opacity="0.25">
<path d="M136.57 102.322C136.73 101.634 137.013 100.991 137.232 100.322C136.912 100.233 136.592 100.146 136.271 100.061C135.793 99.813 135.314 99.5634 134.836 99.3119C134.387 98.8095 133.946 98.2756 133.502 97.7782C133.058 97.2808 132.658 97.0782 131.962 96.9227C131.624 96.8471 130.849 96.7369 130.501 96.6458C130.153 96.5548 130.018 96.4519 129.717 96.3535C129.724 96.3343 129.722 96.2859 129.726 96.2717C129.773 96.0673 129.863 95.8746 130.091 95.8672C130.408 95.9694 130.577 96.0877 130.934 96.1812C131.292 96.2748 132.053 96.3813 132.396 96.4612C133.099 96.6254 133.504 96.8428 133.96 97.3365C134.415 97.855 134.871 98.3691 135.333 98.8944C135.773 99.0982 136.36 99.4587 136.762 99.6284C137.164 99.7982 137.383 99.779 137.748 99.914C137.528 100.579 137.239 101.223 137.08 101.911C136.949 102.474 136.906 103.057 136.848 103.631L136.409 103.332C136.445 102.993 136.499 102.656 136.57 102.322Z" fill="#F4908C"/>
</g>
<path d="M129.114 97.2521C129.718 97.4639 130.813 97.6999 131.515 97.8988C131.542 97.9143 131.566 97.9333 131.587 97.9552C131.52 98.0753 131.515 98.3151 131.435 98.4166C131.183 98.7369 130.938 98.9741 130.441 98.8552C129.944 98.7363 129.151 98.338 128.639 98.1323C128.127 97.9267 127.736 97.6925 127.248 97.4931C127.15 97.4311 125.518 96.5373 126.052 96.2207C126.62 95.9915 127.341 96.5174 127.841 96.7349C128.341 96.9523 128.509 97.0402 129.114 97.2521Z" fill="#C6594E"/>
<path d="M128.594 99.1778C129.187 99.3823 130.232 99.5953 130.919 99.7731C130.943 99.7874 130.964 99.8052 130.982 99.8258C130.915 99.9435 130.893 100.177 130.811 100.274C130.553 100.579 130.324 100.824 129.838 100.718C129.352 100.612 128.595 100.222 128.098 100.036C127.601 99.8506 127.21 99.6152 126.732 99.4231C126.634 99.3612 125.002 98.4673 125.536 98.1508C126.102 97.9204 126.829 98.4481 127.324 98.6643C127.819 98.8805 128.001 98.974 128.594 99.1778Z" fill="#C6594E"/>
<path d="M129.084 100.224C129.689 100.348 130.722 100.381 131.409 100.494C131.434 100.505 131.456 100.52 131.476 100.54C131.435 100.663 131.38 100.896 131.334 101C131.212 101.296 130.997 101.545 130.721 101.707C130.091 101.544 129.27 101.329 128.689 101.162C128.109 100.995 127.776 100.864 127.241 100.707C127.14 100.661 125.377 99.935 125.89 99.5534C126.433 99.2511 127.234 99.7145 127.757 99.8631C128.28 100.012 128.478 100.097 129.084 100.224Z" fill="#C6594E"/>
<path d="M131.545 97.8614C131.949 97.8967 132.007 97.8843 132.271 97.701C132.301 97.6799 132.294 97.6564 132.337 97.639C132.36 97.6327 132.385 97.6337 132.407 97.6419C132.429 97.6501 132.448 97.6652 132.462 97.6849C132.554 97.8088 132.535 97.968 132.535 98.1141C132.535 99.0631 132.816 99.9105 133.084 100.808C132.737 100.994 132.398 101.197 132.063 101.405C131.573 101.48 131.088 101.56 130.609 101.715C130.417 101.607 130.004 101.552 129.856 101.433C129.639 101.258 130.074 99.4652 130.042 99.0291C130.018 98.6741 128.812 97.2364 129.385 97.4229C129.65 97.5121 131.142 97.8255 131.545 97.8614Z" fill="#C6594E"/>
<path d="M128.571 99.1731C129.081 99.3539 129.802 99.5032 130.363 99.6469C128.69 99.878 127.206 98.7116 125.727 98.0859C126.286 98.1262 126.841 98.4502 127.319 98.6633C127.796 98.8763 128.06 98.9922 128.571 99.1731Z" fill="#C6594E"/>
<path d="M128.678 98.2596C129.28 98.4708 130.356 98.7179 131.062 98.8945C131.087 98.9094 131.11 98.9277 131.13 98.949C131.063 99.0679 131.052 99.3052 130.971 99.4043C130.718 99.7177 130.48 99.9574 129.985 99.849C129.491 99.7406 128.711 99.3411 128.203 99.1392C127.695 98.9372 127.299 98.6987 126.813 98.5005C126.715 98.4386 125.083 97.5453 125.616 97.2288C126.185 96.999 126.906 97.5249 127.405 97.7423C127.904 97.9597 128.076 98.0458 128.678 98.2596Z" fill="#C6594E"/>
<g style="mix-blend-mode:multiply" opacity="0.54">
<path d="M125.816 99.6009C126.11 99.3624 125.845 99.5768 126.022 99.4609C126.385 99.9336 126.81 100.076 127.483 100.342C127.499 100.348 128.552 100.687 128.847 100.775C129.141 100.864 130.065 101.102 130.321 101.174C130.578 101.247 130.652 101.29 130.756 101.322C130.846 101.349 130.769 101.328 130.769 101.328C131.336 101.425 131.479 101.377 132.178 101.381C132.489 101.381 133.715 101.459 134.171 101.381C134.752 101.74 135.17 102 135.758 102.381C136.058 102.574 136.555 102.934 136.89 103.152C136.88 103.314 136.867 103.472 136.848 103.624C136.468 103.376 135.916 102.976 135.575 102.757C134.974 102.369 134.573 102.116 133.975 101.753C133.569 101.835 132.236 101.744 131.991 101.749C131.441 101.761 130.917 101.758 130.682 101.723C130.471 101.692 130.639 101.717 130.639 101.717C130.359 101.636 130.495 101.655 130.156 101.555C129.817 101.454 129.106 101.285 128.665 101.151C128.224 101.018 127.689 100.853 127.264 100.696C126.932 100.803 125.671 99.7217 125.816 99.6009Z" fill="#F4908C"/>
</g>
<path d="M163.71 77.8474C163.71 77.861 163.729 77.8907 163.714 78.3609C163.494 85.661 158.21 101.985 151.268 104.306C144.593 106.536 138.425 105.305 132.664 102.567C131.852 102.18 131.737 101.08 132.439 100.523C133.277 99.8524 133.798 99.137 134.501 97.8095C135.571 95.787 144.657 97.6565 147.4 97.6423C150.142 97.628 151.344 93.6586 151.752 91.1728C152.199 88.4547 154.371 85.3259 155.202 83.3926C156.133 81.2209 160.42 75.2903 162.039 76.1656C162.724 76.5348 163.612 77.2248 163.71 77.8474Z" fill="#0F2C4A"/>
<path d="M73.2052 105.367L63.2246 102.468L71.5286 100.398L81.5098 103.297L73.2052 105.367Z" fill="#C9D0D1"/>
<path d="M76.4256 104.226L66.4443 101.327L74.7483 99.2578L84.7295 102.157L76.4256 104.226Z" fill="#E6E6E6"/>
<path d="M77.2638 106.711L67.2832 103.812L75.5871 101.742L85.5678 104.641L77.2638 106.711Z" fill="#F7F7F7"/>
<path d="M28.6309 64.3616C29.1136 61.4025 28.9347 55.747 28.9496 55.7421L28.9813 54.6785C29.0584 53.2178 29.7479 52.1134 30.8257 51.1241C31.1494 50.8559 32.8137 50.0996 32.8137 50.0996C33.5166 49.8375 34.2611 49.7032 35.0116 49.7031C36.9703 49.7033 38.8939 50.2219 40.5858 51.2059L43.8429 53.1001C47.2901 54.9932 52.2693 59.0542 50.5832 66.2249C49.7346 69.2855 44.3983 74.7286 32.9155 71.2498C29.9641 70.3559 28.134 67.4043 28.6309 64.3616Z" fill="#0F2C4A"/>
<path d="M45.1738 63.1234C45.6131 64.9575 45.4925 67.0209 44.6359 68.6364C43.6487 70.5003 41.7938 71.575 39.9313 71.7955C38.0689 72.0161 36.1952 71.4679 34.4515 70.6706C33.2873 70.1379 32.0784 69.3983 31.5404 68.0777C31.1764 67.1844 31.1757 66.1574 31.1571 65.1663C31.1124 62.7721 30.9272 60.3272 31.4857 58.0235C32.0442 55.7198 33.5656 53.5375 35.5964 53.2643C37.1768 53.0518 38.6845 54.0076 40.0574 54.948C41.3825 55.8585 42.3703 56.8992 43.1014 58.4856C43.8115 60.0336 44.7613 61.4013 45.1738 63.1234Z" fill="#0A1D30"/>
<path d="M33.9375 73.0226L38.0873 73.3181L37.7674 64.2891H34.4065L33.9375 73.0226Z" fill="#FFACA4"/>
<path d="M37.9901 70.5906C36.1264 69.9328 34.8305 67.7908 34.2764 66.7049L34.4062 64.2891H37.767L37.9901 70.5906Z" fill="#E87D6E"/>
<path d="M33.697 71.0763C34.2766 71.6865 35.7924 72.8727 37.1796 73.2493C37.1386 73.3831 36.7571 76.1892 36.7571 76.1892L32.1377 72.4856C32.1377 72.4856 33.369 70.7307 33.697 71.0763Z" fill="white"/>
<path d="M37.1797 73.2569L38.3488 75.6678L39.736 72.8382C39.736 72.8382 38.3072 71.2505 38.2942 71.7077C38.2805 72.1822 37.1797 73.2569 37.1797 73.2569Z" fill="white"/>
<path d="M31.6924 58.8749C31.6924 64.1278 35.2663 67.6555 38.6781 67.6555C41.5314 67.6555 43.0565 63.8825 43.0565 58.6296C43.0565 53.3768 40.7865 50.4375 37.3747 50.4375C33.963 50.4375 31.6924 53.6227 31.6924 58.8749Z" fill="#FFACA4"/>
<path d="M30.3663 59.4687C29.9884 59.6036 29.6797 59.8825 29.5081 60.2443C29.3365 60.606 29.316 61.0209 29.4512 61.3977C29.7339 62.1807 30.8316 63.9919 32.6306 63.3458C33.6022 62.9971 33.0301 61.4764 32.7474 60.694C32.4648 59.9116 31.1546 59.1857 30.3663 59.4687Z" fill="#FFACA4"/>
<path d="M31.9225 60.9913C31.815 60.6927 31.1559 60.2604 30.7285 60.282C30.7074 60.2826 30.6865 60.286 30.6663 60.2919C30.587 60.3202 30.5141 60.3638 30.4517 60.4202C30.3893 60.4767 30.3388 60.5449 30.3029 60.6209C30.2671 60.6956 30.2465 60.7767 30.2424 60.8595C30.2384 60.9422 30.2509 61.0249 30.2793 61.1028C30.4253 61.5079 31.0447 62.6514 31.943 62.6087C32.0636 62.6012 32.1827 62.5777 32.2971 62.5387C32.3443 62.3231 32.2256 61.8195 31.9436 61.0396L31.9225 60.9913Z" fill="#E87D6E"/>
<path d="M35.3774 54.6349C35.3774 54.6349 35.6166 58.971 31.747 59.6883C31.6811 59.6226 30.2393 58.2215 30.2393 58.2215C30.2393 58.2215 32.0887 55.0388 32.2272 54.6349C32.3657 54.231 34.02 53.0547 34.02 53.0547L35.3774 54.6349Z" fill="#0F2C4A"/>
<path d="M35.0544 54.9498C35.0544 54.9498 38.9569 56.901 42.9744 56.9717C42.9539 56.7858 45.4177 56.2903 45.4177 56.2903L41.6052 53.0531L35.3793 50.8516C35.3793 50.8516 34.3984 51.8105 34.3325 52.1375C34.2667 52.4646 35.0544 54.9498 35.0544 54.9498Z" fill="#0F2C4A"/>
<path d="M42.5399 54.5657L36.7003 54.0311L33.8557 54.8364C33.8557 54.8364 31.4951 55.5581 31.3901 55.5581C31.2851 55.5581 30.5856 54.5155 30.8807 54.0342C31.1758 53.5529 32.6499 52.0564 32.8102 51.8426C32.9705 51.6289 35.4939 50.294 35.4939 50.294L37.3756 50.1875L38.5466 50.4408L39.7369 50.8559L41.1204 51.7912L43.5326 54.1451L42.5399 54.5657Z" fill="#0F2C4A"/>
<path d="M153.262 70.9289L146.995 74.6338L147.343 64.8032L152.958 63.4219L153.262 70.9289Z" fill="#AD4E44"/>
<g style="mix-blend-mode:multiply" opacity="0.54">
<path d="M147.324 65.3401L147.118 71.1449C148.236 70.6772 149.098 69.8224 149.719 68.9886C150.252 68.2664 150.575 67.4109 150.65 66.5171L150.804 64.7969H147.378L147.364 64.8006L147.324 65.3401Z" fill="#F4908C"/>
</g>
<path d="M153.262 58.9266C153.262 63.866 149.783 69.3202 146.393 69.0198C140.722 68.5168 141.24 58.1523 141.442 56.7976C142.2 51.7182 144.18 50.9922 147.587 50.9922C150.994 50.9922 153.262 53.9841 153.262 58.9266Z" fill="#C6594E"/>
<g style="mix-blend-mode:screen" opacity="0.36">
<path d="M148.442 51.9812C149.016 51.9785 149.586 52.0712 150.128 52.2556C149.283 51.4872 148.192 51.0423 147.049 51C143.97 51.0842 142.159 51.9911 141.442 56.7986C141.274 57.9223 140.89 65.2447 144 67.9963C141.823 64.7851 142.146 58.7944 142.297 57.7866C143.055 52.7059 145.035 51.9812 148.442 51.9812Z" fill="#F4908C"/>
</g>
<path d="M147.362 73.1422L146.602 74.8686L146.363 73.5894L147.013 72.3047L147.362 73.1422Z" fill="white"/>
<path d="M153.682 71.0042C153.712 71.2588 153.745 71.9402 153.745 71.9402C153.745 71.9402 151.311 74.5883 148.626 75.3583C147.775 73.9683 147.363 73.137 147.363 73.137C147.363 73.137 150.309 71.7123 153.503 69.875C153.502 69.8762 153.651 70.7435 153.682 71.0042Z" fill="white"/>
<path d="M156.907 56.0142C156.889 54.8682 156.53 53.7718 156.055 52.7311C155.744 52.0448 155.27 51.3405 155.021 51.1206C154.926 50.8524 155.136 51.4923 154.86 51.4514C154.664 51.4204 154.474 51.4867 154.301 51.5876C154.011 51.6663 153.816 51.924 153.556 52.1935C152.69 53.0773 152.057 54.1606 151.711 55.347C151.711 55.347 153.173 57.4054 152.312 62.815C152.555 62.1386 153.185 61.6511 153.809 61.1518C153.965 61.0279 154.124 60.9003 154.28 60.7696L154.286 61.4052C154.607 60.7368 155.28 60.3187 155.772 59.7649C156.657 58.7639 156.928 57.3509 156.907 56.0142Z" fill="#06203B"/>
<path d="M155.516 59.6345C155.567 58.6638 155.326 57.7142 154.985 56.8055C154.76 56.2065 154.401 55.584 154.202 55.3851C154.14 55.1528 154.279 55.7091 154.048 55.6564C153.882 55.6275 153.711 55.6566 153.564 55.7388C153.316 55.789 153.135 55.9959 152.897 56.209C152.114 56.9069 151.515 57.7869 151.155 58.771C151.155 58.771 152.985 58.8329 151.944 63.3549C152.189 62.7974 152.038 64.1874 152.594 63.8002C152.733 63.7036 152.875 63.6057 153.015 63.5041L152.984 64.0424C153.294 63.4955 153.886 63.1802 154.335 62.7416C155.146 61.9469 155.456 60.7668 155.516 59.6345Z" fill="#06203B"/>
<path d="M154.496 59.5591C154.985 59.663 155.412 59.9562 155.685 60.3743C155.957 60.7923 156.053 61.3012 155.949 61.789C155.731 62.8037 154.677 65.2251 152.346 64.7258C151.086 64.4564 151.539 62.4816 151.758 61.4669C151.977 60.4523 153.474 59.3404 154.496 59.5591Z" fill="#C6594E"/>
<g style="mix-blend-mode:multiply" opacity="0.54">
<path d="M152.797 61.7035C152.88 61.3163 153.622 60.6721 154.154 60.6281C154.181 60.624 154.209 60.624 154.236 60.6281C154.339 60.6497 154.436 60.6912 154.523 60.7504C154.61 60.8097 154.684 60.8853 154.741 60.9732C154.797 61.0598 154.836 61.1568 154.855 61.2586C154.874 61.3603 154.872 61.4648 154.851 61.566C154.738 62.0906 154.164 63.6101 153.046 63.7037C152.896 63.7144 152.745 63.7051 152.597 63.6758C152.502 63.4175 152.565 62.7751 152.783 61.7642L152.797 61.7035Z" fill="#F4908C"/>
</g>
<path d="M142.796 57.7267C142.555 57.6487 142.313 57.5646 142.071 57.4746C141.197 57.1525 140.429 56.5938 139.747 55.9607C138.228 54.5508 136.372 52.0526 137.518 49.8784C137.749 49.4392 138.216 49.0973 138.712 49.1295C139.112 49.1549 139.458 49.4051 139.813 49.586C141.347 50.3603 142.711 50.3981 144.361 49.8387C145.714 49.3804 147.007 48.7002 148.422 48.5051C149.837 48.31 151.48 48.7529 152.15 50.0091C152.199 50.1008 152.246 50.2011 152.336 50.2569C152.476 50.3424 152.655 50.2823 152.814 50.2389C153.516 50.0481 154.647 50.3993 155.236 51.4431C156.537 53.7567 153.683 55.9254 152.088 56.9171C149.029 58.8138 146.013 58.7773 142.796 57.7267Z" fill="#06203B"/>
<g style="mix-blend-mode:multiply" opacity="0.12">
<path d="M148.422 48.5049C147.007 48.7 145.713 49.3802 144.361 49.8386C142.71 50.3961 141.347 50.3601 139.813 49.5858C139.455 49.4049 139.112 49.1522 138.712 49.1293C138.283 49.1014 137.877 49.3529 137.625 49.7048C138.049 51.1666 139.035 52.4021 140.369 53.1414C142.306 54.1945 144.77 54.0799 146.721 53.0547C148.568 52.0846 150.04 50.3583 152.049 49.8336C151.324 48.7118 149.77 48.3197 148.422 48.5049Z" fill="#3E1762"/>
</g>
<path d="M114.194 42.7827C114.194 45.7772 111.769 48.2042 108.778 48.2042C105.787 48.2042 103.361 45.7772 103.361 42.7827C103.361 39.7882 105.787 37.3613 108.778 37.3613C111.769 37.3613 114.194 39.7882 114.194 42.7827Z" stroke="#0097A9" stroke-width="0.722531"/>
<path d="M108.776 41.4697C108.655 41.4697 108.539 41.4466 108.429 41.4003C108.325 41.3541 108.233 41.2934 108.152 41.2182C108.077 41.1373 108.016 41.0448 107.97 40.9408C107.924 40.831 107.901 40.7154 107.901 40.594C107.901 40.4726 107.924 40.3599 107.97 40.2558C108.016 40.146 108.077 40.0535 108.152 39.9784C108.233 39.8975 108.325 39.8339 108.429 39.7876C108.539 39.7414 108.655 39.7183 108.776 39.7183C108.898 39.7183 109.01 39.7414 109.114 39.7876C109.224 39.8339 109.317 39.8975 109.392 39.9784C109.473 40.0535 109.536 40.146 109.583 40.2558C109.629 40.3599 109.652 40.4726 109.652 40.594C109.652 40.7154 109.629 40.831 109.583 40.9408C109.536 41.0448 109.473 41.1373 109.392 41.2182C109.317 41.2934 109.224 41.3541 109.114 41.4003C109.01 41.4466 108.898 41.4697 108.776 41.4697ZM107.996 45.9609V41.7731H109.557V45.9609H107.996Z" fill="#0097A9"/>
<path d="M41.7005 60.8704C41.788 60.6181 41.644 60.3323 41.3752 60.2509C41.1087 60.1606 40.8133 60.2908 40.7351 60.5456C40.6476 60.798 40.7916 61.0838 41.0604 61.1652C41.3245 61.2644 41.6105 61.1317 41.7005 60.8704Z" fill="#1A264C"/>
<path d="M36.6361 60.253C36.7237 60.0007 36.5797 59.7149 36.3108 59.6335C36.0444 59.5432 35.749 59.6734 35.6708 59.9282C35.5926 60.1831 35.7273 60.4663 35.9961 60.5478C36.2508 60.6444 36.5462 60.5142 36.6361 60.253Z" fill="#1A264C"/>
<path d="M40.0274 63.7175C40.0274 63.7175 39.4279 63.1863 39.1517 63.2075C38.8848 63.2311 38.6919 63.5028 38.6919 63.5028C38.6919 63.5028 38.5878 63.1802 38.2744 63.1154C37.9611 63.0506 36.8175 63.4293 36.8175 63.4293C36.8175 63.4293 37.582 64.8796 38.5626 64.8851C39.5525 64.8932 40.0274 63.7175 40.0274 63.7175Z" fill="#EA6868"/>
<path d="M35.2489 59.4081C35.1928 59.3931 35.132 59.3579 35.1065 59.3035C35.0531 59.2036 35.0956 59.0819 35.1988 59.0334C35.2316 59.0232 35.9841 58.6824 36.8982 58.9365C37.0105 58.9665 37.0802 59.0803 37.0517 59.1867C37.0233 59.2932 36.8967 59.3545 36.7938 59.3269C36.0293 59.1129 35.4034 59.3924 35.401 59.4013C35.3378 59.4129 35.2956 59.4206 35.2489 59.4081Z" fill="#213361"/>
<path d="M40.4708 59.8573C40.4194 59.8245 40.3728 59.774 40.3683 59.7158C40.3477 59.6057 40.4159 59.5003 40.5307 59.4835C40.5635 59.4732 41.3784 59.3489 42.2073 59.8464C42.31 59.9119 42.3377 60.0334 42.2811 60.1324C42.2152 60.2289 42.0888 60.2521 41.9837 60.1955C41.3019 59.7849 40.6228 59.8885 40.611 59.8948C40.5619 59.8912 40.5151 59.8787 40.4708 59.8573Z" fill="#213361"/>
<path d="M38.4642 62.5988C39.0701 62.6563 39.3711 62.2804 39.4445 62.0433C39.4564 61.9989 39.4565 61.9609 39.4286 61.9154C39.0453 61.1758 39.3037 60.2845 39.3061 60.2756C39.3298 60.1869 39.2764 60.087 39.1829 60.062C39.0894 60.037 38.9862 60.0854 38.9625 60.1742C38.9506 60.2185 38.6733 61.1428 39.0679 61.9901C39.0043 62.1157 38.795 62.3735 38.2363 62.2146C38.1427 62.1895 38.0396 62.238 38.0158 62.3268C37.9921 62.4155 38.0456 62.5154 38.1391 62.5404C38.2606 62.5729 38.3659 62.5916 38.4642 62.5988Z" fill="#EA6868"/>
<path d="M36.8082 63.4309C36.8082 63.4309 38.7497 63.703 40.0181 63.719C40.0181 63.719 39.2871 64.5409 38.548 64.4193C37.8207 64.2913 36.8082 63.4309 36.8082 63.4309Z" fill="white"/>
<path d="M35.6803 61.7286C35.3624 61.6435 35.0681 61.4697 34.842 61.2286C34.5203 60.8953 34.3534 60.4702 34.3739 60.0193C34.4008 59.0946 35.2109 58.3889 36.1772 58.4477C37.1435 58.5065 37.9058 59.2905 37.8696 60.2127C37.8515 60.6548 37.6604 61.0696 37.3199 61.3684C36.9794 61.6672 36.5389 61.8156 36.0663 61.7843C35.9258 61.7848 35.8019 61.7611 35.6803 61.7286ZM36.516 58.6049C36.4037 58.5749 36.2891 58.5537 36.1604 58.5478C35.2526 58.4951 34.4942 59.1576 34.4628 60.024C34.4519 60.4395 34.6048 60.8418 34.9102 61.1612C35.2086 61.4692 35.6174 61.6642 36.0526 61.6855C36.4878 61.7069 36.9049 61.5712 37.2313 61.2877C37.5459 61.0105 37.7393 60.6248 37.7502 60.2093C37.7788 59.4657 37.2547 58.8025 36.516 58.6049Z" fill="#1A264C"/>
<path d="M40.7877 62.2289C40.4697 62.1438 40.1755 61.97 39.9494 61.7289C39.6277 61.3956 39.4608 60.9705 39.4812 60.5196C39.5081 59.5949 40.3182 58.8892 41.2845 58.948C41.7478 58.9768 42.1871 59.1704 42.5088 59.5037C42.8305 59.837 42.9974 60.262 42.9769 60.713C42.9589 61.1551 42.7677 61.5699 42.4272 61.8687C42.0868 62.1675 41.6462 62.3159 41.1736 62.2846C41.0356 62.2762 40.9092 62.2614 40.7877 62.2289ZM41.6233 59.1052C41.5111 59.0752 41.3871 59.0515 41.2678 59.0481C40.3599 58.9954 39.6015 59.6579 39.5701 60.5243C39.5388 61.3908 40.2521 62.1331 41.1599 62.1858C41.5951 62.2072 42.0122 62.0715 42.3386 61.7879C42.6533 61.5108 42.8466 61.1251 42.8576 60.7096C42.8685 60.2941 42.7156 59.8919 42.4102 59.5724C42.2004 59.3452 41.9225 59.1852 41.6233 59.1052Z" fill="#1A264C"/>
<path d="M32.3124 59.5542L32.3292 59.4541L34.4318 59.7979L34.4151 59.898L32.3124 59.5542Z" fill="#1A264C"/>
<path d="M37.8098 60.4732L37.7633 60.3847C38.8535 59.8681 39.5578 60.5319 39.5648 60.5433L39.4849 60.617C39.4546 60.5804 38.8296 59.9948 37.8098 60.4732Z" fill="#1A264C"/>
<path d="M147.672 61.5428C147.659 61.2072 147.919 60.9242 148.255 60.911C148.591 60.8971 148.875 61.1586 148.888 61.4936C148.901 61.8293 148.64 62.1124 148.304 62.1254C147.969 62.1394 147.685 61.8778 147.672 61.5428Z" fill="#0D0D25"/>
<path d="M142.227 60.6835C142.214 60.3479 142.475 60.0648 142.81 60.0517C143.146 60.0378 143.429 60.2986 143.443 60.6342C143.457 60.9699 143.195 61.253 142.86 61.266C142.524 61.28 142.241 61.0192 142.227 60.6835Z" fill="#0D0D25"/>
<path d="M149.812 60.5079C149.874 60.5053 149.937 60.4866 149.993 60.4496C150.157 60.3412 150.204 60.1203 150.095 59.9558C149.77 59.4602 148.802 58.7167 147.469 59.4517C147.297 59.5466 147.234 59.7633 147.329 59.9359C147.424 60.1085 147.642 60.1704 147.814 60.0755C148.908 59.4715 149.476 60.311 149.5 60.3472C149.571 60.4556 149.692 60.5126 149.813 60.5078L149.812 60.5079Z" fill="#0D0D25"/>
<path d="M144.075 59.7891C144.137 59.7865 144.2 59.7678 144.256 59.7308C144.42 59.6224 144.466 59.4016 144.358 59.237C144.033 58.7414 143.065 57.9979 141.732 58.7329C141.559 58.8279 141.497 59.0445 141.592 59.2171C141.687 59.3897 141.904 59.4517 142.077 59.3567C143.171 58.7527 143.739 59.5922 143.764 59.6283C143.835 59.7367 143.955 59.7937 144.076 59.789L144.075 59.7891Z" fill="#0D0D25"/>
<path d="M144.639 63.8769C145.234 64.1389 145.741 63.8026 145.747 63.7986C145.795 63.7657 145.807 63.7008 145.775 63.6522C145.742 63.6044 145.676 63.5915 145.628 63.6235C145.604 63.6394 145.04 64.0058 144.439 63.5025C144.341 63.4209 144.29 63.3531 144.285 63.3016C144.279 63.2295 144.362 63.1319 144.477 62.9981C144.741 62.689 145.183 62.172 145.282 61.039C145.287 60.9806 145.244 60.9295 145.186 60.9243C145.128 60.9192 145.076 60.962 145.071 61.0204C144.979 62.0852 144.58 62.5516 144.316 62.8598C144.173 63.0262 144.061 63.1581 144.074 63.3191C144.084 63.4332 144.154 63.5402 144.303 63.6647C144.417 63.7595 144.53 63.828 144.64 63.8768L144.639 63.8769Z" fill="#F4908C"/>
<path d="M147.134 64.8722C147.134 64.8722 144.667 65.2778 143.067 64.6099C143.067 64.6099 143.534 66.5002 144.981 66.5934C146.428 66.6868 147.134 64.8722 147.134 64.8722Z" fill="white"/>
</svg>
