<svg width="183" height="184" viewBox="0 0 183 184" fill="none" xmlns="http://www.w3.org/2000/svg">
<path opacity="0.5" d="M91.5 178.429C142.034 178.429 183 176.881 183 174.972C183 173.063 142.034 171.516 91.5 171.516C40.9659 171.516 0 173.063 0 174.972C0 176.881 40.9659 178.429 91.5 178.429Z" fill="#D5ECFF"/>
<path fill-rule="evenodd" clip-rule="evenodd" d="M139.249 30.2555C139.249 13.5458 126.268 0 110.256 0H74.6861C58.6736 0 45.6929 13.5458 45.6929 30.2555V95.66C45.6929 112.37 58.6736 125.916 74.6861 125.916H110.256C126.268 125.916 139.249 112.37 139.249 95.66V30.2555ZM74.6793 11.501H110.263L110.56 11.5035C120.376 11.6695 128.283 20.0187 128.283 30.2939V95.6815L128.28 95.992C128.121 106.228 120.115 114.474 110.263 114.474H74.6793L74.3817 114.472C64.5663 114.305 56.6592 105.956 56.6592 95.6815V30.2939L56.6615 29.9832C56.8208 19.7475 64.8268 11.501 74.6793 11.501Z" fill="#A6A6A6"/>
<path fill-rule="evenodd" clip-rule="evenodd" d="M30.892 63.5938H152.052L158.784 174.969H24.1609L30.892 63.5938Z" fill="#D9D9D9"/>
<path d="M91.4749 122.749C101.617 122.749 109.838 114.211 109.838 103.679C109.838 93.1471 101.617 84.6094 91.4749 84.6094C81.3331 84.6094 73.1116 93.1471 73.1116 103.679C73.1116 114.211 81.3331 122.749 91.4749 122.749Z" fill="#A6A6A6"/>
<path fill-rule="evenodd" clip-rule="evenodd" d="M85.4149 109.211H97.5338L102.583 153.844H80.3652L85.4149 109.211Z" fill="#A6A6A6"/>
<path fill-rule="evenodd" clip-rule="evenodd" d="M45.363 169.142L49.3959 173.137L55.5438 172.616L55.0509 170.922L47.5197 168.336L45.363 169.142Z" fill="#56ACF6"/>
<path fill-rule="evenodd" clip-rule="evenodd" d="M43.583 163.776C43.5964 163.581 44.2266 157.143 44.2266 157.143C44.2266 157.143 44.058 156.855 44.109 156.112C44.16 155.369 44.6205 154.696 47.6376 155.196C50.6547 155.697 50.8153 156.102 50.7939 156.415C50.7724 156.727 50.3841 157.446 50.3492 157.954C50.3143 158.462 50.2385 163.409 50.2385 163.409L43.583 163.776Z" fill="white"/>
<path fill-rule="evenodd" clip-rule="evenodd" d="M43.5127 163.521L42.9617 168.669L46.9511 167.88L50.7181 169.49L56.4427 171.668L61.2236 171.15L61.0226 169.867C61.0226 169.867 56.7271 167.523 55.7013 166.873C54.6748 166.223 54.2641 165.091 54.2641 165.091L52.6505 162.658C52.6505 162.658 50.9281 160.062 49.5527 159.839C48.1773 159.615 47.0012 159.866 47.263 160.442C47.5248 161.018 48.1737 162.033 48.1737 162.033L45.6601 161.507L44.2366 163.335L43.8594 163.767L44.0111 164.07" fill="#F4F0F1"/>
<path fill-rule="evenodd" clip-rule="evenodd" d="M43.8984 164.269C43.8984 164.269 43.8466 164.73 45.2517 165.193C46.6568 165.658 48.1654 166.382 48.3812 165.596C48.5972 164.81 48.2463 164.023 48.2463 164.023L49.5348 165.007C49.5348 165.007 50.1287 166.085 49.4496 167.133C48.7706 168.18 47.0677 168.222 47.0677 168.222L46.3458 167.535C46.3458 167.535 44.0893 166.205 43.6063 165.282C43.1232 164.359 43.8984 164.269 43.8984 164.269Z" fill="#F9C818"/>
<mask id="mask0_1700_254789" style="mask-type:alpha" maskUnits="userSpaceOnUse" x="39" y="160" width="24" height="17">
<path fill-rule="evenodd" clip-rule="evenodd" d="M39.6875 162.27L61.4792 160.68L62.4331 174.915L40.6415 176.505L39.6875 162.27Z" fill="white"/>
</mask>
<g mask="url(#mask0_1700_254789)">
<path fill-rule="evenodd" clip-rule="evenodd" d="M43.4112 162.39C43.4112 162.39 41.7617 166.467 41.9064 166.408C42.0512 166.35 42.9789 164.356 43.0176 165.119C43.0563 165.882 42.5756 166.859 42.675 167.707C42.675 167.707 43.4279 169.756 43.881 169.789C44.3342 169.823 46.4943 169.235 46.4943 169.235C46.4943 169.235 47.4793 167.901 49.5208 169.297C51.5623 170.692 54.1976 172.114 54.1976 172.114C54.1976 172.114 53.8771 172.395 53.8646 172.656C53.852 172.917 54.0125 173.273 54.0125 173.273L46.0258 172.071L41.7264 169.034L41.1943 169.093C41.1943 169.093 40.7009 169.41 40.6565 170.332C40.6122 171.254 40.6523 171.493 40.5196 171.778C40.3868 172.063 40.0463 172.628 41.0837 172.902C42.1211 173.177 49.9097 175.117 53.3408 175.412C56.7724 175.708 60.2937 174.692 61.247 173.72C62.1997 172.748 62.3477 171.972 62.1346 171.228C61.9216 170.484 61.5 169.587 60.5159 169.757C59.5312 169.928 58.9692 170.098 57.355 169.56C55.7409 169.023 55.1029 169.085 55.16 169.467C55.2165 169.849 56.4052 170.213 56.4052 170.213C56.4052 170.213 58.001 170.584 57.9896 170.748C57.9782 170.913 57.9233 171.058 56.476 170.942C55.0286 170.826 53.2945 170.496 51.0198 169.052C48.7447 167.608 48.0699 167.041 46.5757 167.217C45.0816 167.391 43.7425 168.108 43.3652 167.005C42.988 165.903 44.0185 164.442 44.0107 164.068C44.0028 163.695 43.5123 163.519 43.5123 163.519L43.415 162.016" fill="#15023F"/>
<path fill-rule="evenodd" clip-rule="evenodd" d="M43.6164 161.456C43.6164 161.456 43.5619 161.531 43.4147 162.017C43.2677 162.502 43.2167 163.999 43.7166 163.95C44.2166 163.901 44.6078 162.872 45.0512 162.29C45.4947 161.708 46.0542 161.545 46.532 161.818C47.0098 162.091 48.8557 161.972 48.8557 161.972C48.8557 161.972 48.3611 161.096 46.7215 161.079C46.7215 161.079 45.5626 160.679 44.8856 161.777C44.2087 162.876 43.7965 163.968 43.7468 163.044C43.7041 162.248 43.9442 161.761 43.8932 161.479C43.8421 161.199 43.6164 161.456 43.6164 161.456Z" fill="#451989"/>
<path fill-rule="evenodd" clip-rule="evenodd" d="M56.1858 167.079C56.1858 167.079 55.3119 167.213 52.7723 166.964C50.2334 166.714 50.7962 165.512 49.7609 165.194C48.7256 164.877 48.6139 164.828 48.0483 163.823C47.4833 162.818 46.0558 163.735 45.3757 163.564C44.6952 163.392 46.7321 161.439 46.7321 161.439C46.7321 161.439 47.834 161.13 48.8575 161.961C49.1455 162.195 49.7271 163.034 49.9031 163.231C50.0786 163.427 51.1464 163.832 52.096 165.074C53.0454 166.316 54.3814 165.964 54.647 166.041C54.912 166.117 52.6244 162.799 52.6244 162.799L52.6284 162.469C52.6284 162.469 54.0575 164.662 54.7567 165.639C55.4564 166.616 56.0322 166.859 56.1367 166.917C56.2407 166.975 56.1858 167.079 56.1858 167.079Z" fill="#E263AB"/>
<path fill-rule="evenodd" clip-rule="evenodd" d="M42.5744 164.401C42.5744 164.401 40.9389 168.287 41.0306 169.179C41.1222 170.07 42.9547 169.496 43.7268 171.207C44.499 172.918 45.6526 173.668 50.5387 174.557C55.4247 175.445 59.547 173.534 59.5676 173.236C59.5876 172.938 59.5556 172.363 59.5556 172.363C59.5556 172.363 52.519 173.557 49.6017 171.494C46.6843 169.431 46.5842 168.8 45.4886 169.093C44.3932 169.385 43.7495 169.012 42.9141 167.953C42.9141 167.953 42.831 167.423 43.1403 166.05C43.4496 164.676 43.1785 162.717 42.5744 164.401Z" fill="white"/>
<path fill-rule="evenodd" clip-rule="evenodd" d="M46.7884 161.239C46.7884 161.239 46.1914 160.561 47.1793 159.829C48.167 159.097 49.9313 159.641 50.4609 160.228C50.4609 160.228 49.4485 159.711 48.1891 159.847C46.9297 159.983 47.2255 160.36 47.8048 161.295L46.6663 161.143" fill="#451989"/>
<path fill-rule="evenodd" clip-rule="evenodd" d="M48.4729 161.991C48.6081 162.216 48.4928 162.546 48.2153 162.728C47.9378 162.91 47.6032 162.875 47.468 162.65C47.3327 162.425 47.4481 162.095 47.7256 161.913C48.0031 161.731 48.3377 161.767 48.4729 161.991Z" fill="#1F003C"/>
<path fill-rule="evenodd" clip-rule="evenodd" d="M47.6333 162.391C47.6333 162.391 47.699 161.91 48.5866 161.593C49.4742 161.275 51.1513 160.761 52.041 161.484C52.931 162.207 52.851 162.533 52.851 162.533C52.851 162.533 52.201 162.127 51.6985 161.953C51.1958 161.779 50.5143 161.711 49.8351 161.848C49.1559 161.984 48.4785 162.215 48.2597 162.31C48.0408 162.404 47.8376 162.866 47.6333 162.391Z" fill="#E8D9F3"/>
<path fill-rule="evenodd" clip-rule="evenodd" d="M49.6645 163.038C49.7997 163.263 49.6844 163.593 49.4069 163.775C49.1294 163.957 48.7948 163.922 48.6597 163.697C48.5244 163.472 48.6397 163.142 48.9172 162.96C49.1948 162.778 49.5292 162.813 49.6645 163.038Z" fill="#1F003C"/>
<path fill-rule="evenodd" clip-rule="evenodd" d="M48.8245 163.446C48.8245 163.446 48.8888 162.965 49.7428 162.646C50.5969 162.326 52.2103 161.807 53.0637 162.527C53.917 163.247 53.8393 163.574 53.8393 163.574C53.8393 163.574 53.2156 163.17 52.7329 162.997C52.2503 162.825 51.5954 162.759 50.9423 162.897C50.2891 163.036 49.6373 163.269 49.4267 163.364C49.2161 163.459 49.0195 163.921 48.8245 163.446Z" fill="#E8D9F3"/>
<path fill-rule="evenodd" clip-rule="evenodd" d="M50.9789 163.968C51.1141 164.193 50.9988 164.522 50.7213 164.704C50.4438 164.886 50.1093 164.852 49.9741 164.627C49.8389 164.402 49.9542 164.072 50.2316 163.89C50.5092 163.708 50.8437 163.743 50.9789 163.968Z" fill="#1F003C"/>
<path fill-rule="evenodd" clip-rule="evenodd" d="M50.1396 164.404C50.1396 164.404 50.1943 163.971 50.8748 163.677C51.5552 163.384 53.2753 162.995 53.9476 163.635C54.6199 164.275 54.2053 164.715 54.2053 164.715C54.2053 164.715 53.6289 164.121 53.2468 163.969C52.8646 163.818 52.3454 163.764 51.8254 163.894C51.3058 164.023 50.7864 164.237 50.6185 164.324C50.4506 164.411 50.2912 164.828 50.1396 164.404Z" fill="#E8D9F3"/>
</g>
<path fill-rule="evenodd" clip-rule="evenodd" d="M9.17969 161.866L12.9356 166.144L19.1036 166.072L18.7247 164.347L11.385 161.219L9.17969 161.866Z" fill="#56ACF6"/>
<path fill-rule="evenodd" clip-rule="evenodd" d="M9.19531 168.608L12.9513 172.886L19.1193 172.814L18.7403 171.089L11.4006 167.961L9.19531 168.608Z" fill="#56ACF6"/>
<path fill-rule="evenodd" clip-rule="evenodd" d="M7.5498 164.014C7.5498 163.818 7.73767 157.35 7.73767 157.35C7.73767 157.35 7.5498 157.075 7.5498 156.331C7.5498 155.586 7.96313 154.88 11.0068 155.154C14.0505 155.429 14.2384 155.82 14.2384 156.135C14.2384 156.448 13.9002 157.193 13.9002 157.702C13.9002 158.212 14.1632 163.152 14.1632 163.152L7.5498 164.014Z" fill="white"/>
<path fill-rule="evenodd" clip-rule="evenodd" d="M7.46104 163.779L7.26392 168.955L11.1892 167.871L15.0567 169.197L20.9157 170.943L25.649 170.07L25.3604 168.805C25.3604 168.805 20.9157 166.787 19.8478 166.215C18.7799 165.643 18.2924 164.544 18.2924 164.544L16.5167 162.238C16.5167 162.238 14.6209 159.778 13.2337 159.657C11.8465 159.537 10.6905 159.874 10.9911 160.429C11.2916 160.984 12.0083 161.949 12.0083 161.949L9.46522 161.611L8.17047 163.541L7.82369 163.999L7.9958 164.291" fill="#F4F0F1"/>
<path fill-rule="evenodd" clip-rule="evenodd" d="M7.89862 164.483C7.89862 164.483 7.8784 164.946 9.31166 165.304C10.745 165.662 12.2994 166.273 12.4609 165.472C12.6224 164.672 12.2186 163.914 12.2186 163.914L13.5712 164.798C13.5712 164.798 14.2373 165.831 13.6317 166.925C13.0261 168.021 11.3304 168.189 11.3304 168.189L10.5633 167.558C10.5633 167.558 8.22158 166.399 7.67654 165.514C7.1315 164.63 7.89862 164.483 7.89862 164.483Z" fill="#F9C818"/>
<path fill-rule="evenodd" clip-rule="evenodd" d="M7.283 162.656C7.283 162.656 5.91674 166.844 6.05714 166.775C6.19753 166.706 6.98639 164.648 7.07715 165.406C7.16802 166.165 6.7554 167.175 6.91265 168.013C6.91265 168.013 7.8038 170.001 8.25811 170.001C8.71242 170.001 10.8268 169.253 10.8268 169.253C10.8268 169.253 11.718 167.849 13.8498 169.089C15.9816 170.329 18.7076 171.55 18.7076 171.55C18.7076 171.55 18.4068 171.854 18.4124 172.116C18.4179 172.377 18.6019 172.72 18.6019 172.72L10.5536 172.116L6.0572 169.408L5.53046 169.505C5.53046 169.505 5.06015 169.859 5.07894 170.781C5.09773 171.704 5.15417 171.94 5.0413 172.234C4.92844 172.529 4.62743 173.118 5.68096 173.314C6.73444 173.51 14.636 174.864 18.0788 174.904C21.5216 174.943 24.9644 173.667 25.8486 172.627C26.7328 171.587 26.8269 170.801 26.5635 170.075C26.3001 169.349 25.8184 168.485 24.8482 168.729C23.878 168.972 23.3291 169.184 21.682 168.768C20.035 168.352 19.4032 168.462 19.4859 168.839C19.5687 169.215 20.7795 169.49 20.7795 169.49C20.7795 169.49 22.3965 169.741 22.3965 169.906C22.3965 170.07 22.3513 170.219 20.8998 170.212C19.4483 170.204 17.6962 170.004 15.3281 168.733C12.96 167.462 12.2482 166.948 10.7698 167.233C9.29143 167.519 8.00474 168.333 7.55305 167.262C7.10125 166.191 8.02918 164.656 7.99577 164.284C7.96241 163.912 7.46103 163.773 7.46103 163.773L7.26112 162.281" fill="#15023F"/>
<path fill-rule="evenodd" clip-rule="evenodd" d="M7.42065 161.686C7.42065 161.686 7.37147 161.765 7.25792 162.26C7.14442 162.755 7.196 164.252 7.69135 164.165C8.18664 164.079 8.50657 163.024 8.90898 162.411C9.31139 161.797 9.85832 161.593 10.3536 161.829C10.8489 162.066 12.6819 161.81 12.6819 161.81C12.6819 161.81 12.1286 160.972 10.4921 161.078C10.4921 161.078 9.30877 160.765 8.70872 161.911C8.10861 163.058 7.77228 164.178 7.65947 163.259C7.56231 162.469 7.76846 161.965 7.69831 161.688C7.62823 161.412 7.42065 161.686 7.42065 161.686Z" fill="#451989"/>
<path fill-rule="evenodd" clip-rule="evenodd" d="M20.345 166.381C20.345 166.381 19.4824 166.581 16.9326 166.521C14.3828 166.461 14.862 165.221 13.8076 164.981C12.7531 164.741 12.6383 164.701 12.0054 163.741C11.3731 162.781 10.0119 163.801 9.32191 163.681C8.63133 163.561 10.5294 161.46 10.5294 161.46C10.5294 161.46 11.6073 161.07 12.6851 161.823C12.9885 162.036 13.6259 162.829 13.815 163.012C14.0035 163.195 15.0961 163.518 16.1284 164.686C17.1605 165.855 18.4692 165.405 18.7393 165.461C19.0089 165.517 16.4996 162.378 16.4996 162.378L16.4813 162.049C16.4813 162.049 18.0567 164.13 18.821 165.052C19.5859 165.975 20.177 166.175 20.285 166.224C20.3924 166.274 20.345 166.381 20.345 166.381Z" fill="#E263AB"/>
<path fill-rule="evenodd" clip-rule="evenodd" d="M6.58936 164.719C6.58936 164.719 5.22412 168.718 5.37663 169.6C5.52909 170.483 7.31753 169.774 8.20478 171.423C9.09208 173.071 10.2941 173.734 15.2286 174.256C20.163 174.778 24.1439 172.565 24.1439 172.266C24.1439 171.968 24.0723 171.396 24.0723 171.396C24.0723 171.396 17.1356 173.112 14.0843 171.271C11.0331 169.431 10.8901 168.809 9.81745 169.182C8.74468 169.555 8.07728 169.232 7.17141 168.237C7.17141 168.237 7.05226 167.715 7.26675 166.322C7.48129 164.929 7.07671 162.995 6.58936 164.719Z" fill="white"/>
<path fill-rule="evenodd" clip-rule="evenodd" d="M10.5712 161.26C10.5712 161.26 9.92944 160.629 10.8646 159.825C11.7998 159.022 13.5968 159.433 14.1652 159.978C14.1652 159.978 13.12 159.538 11.8731 159.768C10.6263 159.997 10.9472 160.351 11.5889 161.241L10.4429 161.174" fill="#451989"/>
<path fill-rule="evenodd" clip-rule="evenodd" d="M12.3042 161.894C12.4544 162.108 12.362 162.445 12.0976 162.648C11.8333 162.85 11.4972 162.84 11.3469 162.626C11.1967 162.412 11.2891 162.074 11.5535 161.872C11.8178 161.67 12.1539 161.68 12.3042 161.894Z" fill="#1F003C"/>
<path fill-rule="evenodd" clip-rule="evenodd" d="M11.4968 162.358C11.4968 162.358 11.5294 161.874 12.393 161.491C13.2567 161.109 14.8943 160.472 15.8313 161.126C16.7682 161.781 16.7112 162.112 16.7112 162.112C16.7112 162.112 16.0349 161.755 15.5216 161.619C15.0084 161.483 14.324 161.466 13.6559 161.653C12.9878 161.84 12.3279 162.121 12.116 162.231C11.9042 162.342 11.7331 162.818 11.4968 162.358Z" fill="#E8D9F3"/>
<path fill-rule="evenodd" clip-rule="evenodd" d="M13.5659 162.824C13.7161 163.038 13.6237 163.376 13.3594 163.578C13.095 163.779 12.7589 163.77 12.6086 163.556C12.4584 163.342 12.5508 163.004 12.8152 162.802C13.0795 162.6 13.4156 162.609 13.5659 162.824Z" fill="#1F003C"/>
<path fill-rule="evenodd" clip-rule="evenodd" d="M12.7585 163.304C12.7585 163.304 12.7899 162.82 13.6198 162.437C14.4497 162.055 16.0235 161.417 16.9239 162.071C17.8243 162.726 17.7695 163.058 17.7695 163.058C17.7695 163.058 17.1196 162.701 16.6264 162.565C16.1331 162.429 15.4754 162.412 14.8334 162.599C14.1914 162.786 13.5571 163.066 13.3536 163.177C13.15 163.287 12.9857 163.763 12.7585 163.304Z" fill="#E8D9F3"/>
<path fill-rule="evenodd" clip-rule="evenodd" d="M14.9394 163.675C15.0897 163.889 14.9972 164.227 14.7329 164.429C14.4685 164.631 14.1324 164.621 13.9822 164.407C13.8319 164.193 13.9244 163.855 14.1887 163.653C14.4531 163.451 14.7892 163.461 14.9394 163.675Z" fill="#1F003C"/>
<path fill-rule="evenodd" clip-rule="evenodd" d="M14.1299 164.169C14.1299 164.169 14.1548 163.734 14.8134 163.39C15.472 163.047 17.1609 162.531 17.8755 163.119C18.59 163.707 18.2063 164.177 18.2063 164.177C18.2063 164.177 17.5908 163.627 17.1994 163.505C16.8079 163.383 16.2859 163.367 15.7764 163.535C15.267 163.703 14.7637 163.955 14.6022 164.054C14.4406 164.154 14.3101 164.581 14.1299 164.169Z" fill="#E8D9F3"/>
<path fill-rule="evenodd" clip-rule="evenodd" d="M53.6885 137.916C53.913 148 54.0255 162.422 54.0255 162.422L43.2511 162.856C43.2511 162.856 41.003 163.503 39.6077 135.277C39.4268 131.617 32.418 104.555 32.6428 107.766C32.9029 111.481 16.2397 160.983 16.2397 160.983L6.59961 160.913L19.5873 82.1875H44.3186C44.3186 82.1875 53.4635 127.832 53.6885 137.916Z" fill="#145A7B"/>
<path d="M34.2373 98.8594L32.3621 107.701L32.9198 107.83L34.795 98.9882L34.2373 98.8594Z" fill="#204EB2"/>
<path fill-rule="evenodd" clip-rule="evenodd" d="M29.021 43.2031C29.021 43.2031 28.8102 48.0392 26.1062 49.7464C23.6528 51.2952 28.8505 60.2829 34.4419 59.7468C37.5027 59.4533 38.22 50.7212 38.22 50.7212C38.22 50.7212 35.7486 50.2229 36.6615 46.2911L29.021 43.2031Z" fill="#ECAFA3"/>
<path fill-rule="evenodd" clip-rule="evenodd" d="M33.4981 48.1214C29.8732 47.664 27.2572 45.1775 26.8909 41.0527C25.837 41.2277 25.5885 38.3631 25.882 37.4429C26.1758 36.5213 27.1346 37.0602 27.1346 37.0602C27.1346 37.0602 27.2143 36.8417 27.27 36.6028C28.8535 29.8264 33.2886 30.0952 33.2886 30.0952C41.4382 30.5381 39.5287 39.2185 39.0631 41.5214C38.5974 43.8244 37.0022 48.563 33.4981 48.1214Z" fill="#ECAFA3"/>
<path fill-rule="evenodd" clip-rule="evenodd" d="M7.90719 67.1964C7.90719 67.1964 3.16261 75.947 5.83938 80.2792C8.51615 84.6113 12.3133 78.8867 13.874 72.4929C15.4347 66.0991 18.6619 62.2812 18.6619 62.2812L7.90719 67.1964Z" fill="#ECAFA3"/>
<path fill-rule="evenodd" clip-rule="evenodd" d="M18.8553 51.6684C23.5902 50.1407 25.0493 50.0547 25.0493 50.0547L30.0474 51.1785C30.0474 51.1785 32.7867 54.9347 33.0214 58.2826C33.0214 58.2826 33.0997 53.8732 34.8999 50.8518C34.8999 50.8518 42.8226 50.7759 45.8093 54.0296C50.5271 59.1689 50.438 68.1866 50.438 68.1866L42.6537 69.0219L45.8093 64.4376C45.8093 64.4376 46.0087 83.1144 45.5392 87.9322C39.5967 94.7711 18.2353 89.4779 18.2353 89.4779C18.2353 89.4779 18.6988 74.0236 18.777 69.7964C18.8553 65.5691 17.3568 66.1401 15.2911 71.3801C13.6024 75.6642 8.2334 66.782 8.2334 66.782C8.2334 66.782 11.5288 54.0321 18.8553 51.6684Z" fill="#0097A9"/>
<path fill-rule="evenodd" clip-rule="evenodd" d="M43.0251 74.9537C43.0251 74.9537 46.8692 73.5156 50.7779 74.3648C50.7779 74.3648 50.7271 73.0335 50.7676 71.2757C50.8002 69.832 51.5582 67.5976 48.8238 67.8383C45.6411 68.1183 44.277 68.1476 42.8933 68.8007C42.8933 68.8007 42.5639 73.5788 43.0251 74.9537Z" fill="#FCEBEC"/>
<path fill-rule="evenodd" clip-rule="evenodd" d="M6.4624 69.5845L8.13859 64.0811C8.13859 64.0811 14.343 62.7289 16.8012 68.324L14.9587 73.306C14.9587 73.306 11.5136 68.0055 6.4624 69.5845Z" fill="#145A7B"/>
<mask id="mask1_1700_254789" style="mask-type:alpha" maskUnits="userSpaceOnUse" x="22" y="49" width="9" height="6">
<path fill-rule="evenodd" clip-rule="evenodd" d="M22.1482 49.2578H30.1885V54.7228H22.1482V49.2578Z" fill="white"/>
</mask>
<g mask="url(#mask1_1700_254789)">
<path fill-rule="evenodd" clip-rule="evenodd" d="M25.1269 49.2638C25.1269 49.2638 21.962 50.3814 22.1568 50.6862C22.3516 50.991 27.9702 54.8899 28.3915 54.7173C28.8127 54.5447 30.3922 51.4213 30.1666 51.1074C29.9409 50.7935 25.3974 49.1466 25.1269 49.2638Z" fill="#145A7B"/>
</g>
<path fill-rule="evenodd" clip-rule="evenodd" d="M39.9734 50.6059C39.9734 50.6059 42.6974 52.6244 42.427 52.858C42.1566 53.0916 35.7016 55.1435 35.3456 54.852C34.9897 54.5604 34.336 51.0955 34.6385 50.8624C34.9411 50.6294 39.7464 50.4126 39.9734 50.6059Z" fill="#145A7B"/>
<path fill-rule="evenodd" clip-rule="evenodd" d="M10.2307 72.9373C11.7902 75.3198 10.8652 75.3633 11.5444 76.6737C12.2235 77.9842 12.8625 80.7192 13.642 80.6507C14.4216 80.5821 14.4625 80.1301 14.1588 79.2847C13.8552 78.4392 12.9653 75.7322 13.2988 75.6036C13.6322 75.475 14.709 80.8259 15.9444 80.7399C17.1798 80.6538 16.1431 77.9113 15.5842 76.6844C15.0254 75.4575 14.8355 74.5486 15.1886 74.6276C15.5416 74.7067 16.9025 80.6954 17.9076 80.5151C18.9126 80.335 18.4018 78.2312 17.8448 76.9888C17.2879 75.7464 16.4566 73.7888 16.4566 73.7888C16.4566 73.7888 17.8684 75.6983 18.5088 77.9774C19.1492 80.2565 19.543 80.3726 19.9029 80.1529C20.2627 79.9332 19.7856 77.2497 19.7856 77.2497C19.7856 77.2497 20.9905 75.1927 19.4749 73.3595C17.9592 71.5264 17.1121 69.5944 15.0228 68.5575C12.9335 67.5206 11.6355 68.3838 11.6355 68.3838C11.6355 68.3838 8.67121 70.5547 10.2307 72.9373Z" fill="#ECAFA3"/>
<path fill-rule="evenodd" clip-rule="evenodd" d="M40.6802 61.7197H35.4925C35.2813 61.7197 35.1101 61.5412 35.1101 61.3209V60.8519C35.1101 60.6317 35.2813 60.4531 35.4925 60.4531H40.6802C40.8913 60.4531 41.0625 60.6317 41.0625 60.8519V61.3209C41.0625 61.5412 40.8913 61.7197 40.6802 61.7197Z" fill="#145A7B"/>
<path fill-rule="evenodd" clip-rule="evenodd" d="M36.0666 81.7749L25.6303 78.7565C25.6303 78.7565 24.9815 78.0419 26.8919 77.8539C28.8022 77.6658 48.7622 77.1094 48.7622 77.1094L36.0666 81.7749Z" fill="#D75426"/>
<path fill-rule="evenodd" clip-rule="evenodd" d="M65.6524 81.7541H36.3805C35.8383 81.7541 35.3987 81.2955 35.3987 80.7298L38.056 60.6181C38.056 60.0524 38.4955 59.5938 39.0378 59.5938H68.3095C68.8521 59.5938 69.2913 60.0524 69.2913 60.6181L66.6342 80.7298C66.6342 81.2955 66.195 81.7541 65.6524 81.7541Z" fill="#F58000"/>
<path fill-rule="evenodd" clip-rule="evenodd" d="M58.7292 81.7641C58.7292 81.7641 58.5641 82.1122 58.3385 82.4794C58.1123 82.8465 57.9838 82.6319 57.5776 83.415C57.1721 84.1982 56.0165 85.752 53.1771 84.6811C50.3377 83.6101 50.3422 82.9306 50.4976 82.0386C50.653 81.1468 50.9054 80.9643 50.5998 79.4863C50.2943 78.0083 51.2105 76.1807 51.5555 76.0961L51.8999 76.0114C51.8999 76.0114 51.9667 74.5364 52.5254 74.4436C53.0846 74.351 53.1468 74.7495 53.1468 74.7495C53.1468 74.7495 53.317 74.4014 53.8283 74.454C54.3395 74.5066 54.5554 75.4985 54.761 76.6554C54.9667 77.8122 55.298 80.8632 55.4648 81.0004C55.631 81.1377 55.7806 81.0223 55.6555 80.3224C55.5305 79.6224 54.7131 76.8977 55.4408 76.651C56.1679 76.4044 56.5626 77.1745 57.0253 78.7606C57.4885 80.3466 57.6633 80.6101 57.6416 81.0371L57.7816 81.7641H58.7292Z" fill="#ECAFA3"/>
<path fill-rule="evenodd" clip-rule="evenodd" d="M53.1423 74.7319C53.1423 74.7319 53.1742 74.6284 53.14 75.3306C53.1274 75.5864 53.1406 75.9366 53.1993 76.4164C53.4185 78.2142 53.6862 81.0607 53.8289 81.9161C53.971 82.7716 53.5943 82.157 53.3763 80.1651C53.1583 78.1732 52.9539 75.7834 52.9551 75.6728C52.9562 75.4843 52.9602 74.9189 53.1423 74.7319Z" fill="black"/>
<path fill-rule="evenodd" clip-rule="evenodd" d="M51.9361 78.9703C51.988 79.751 52.1016 81.0447 52.1119 81.1819C52.1307 81.4267 52.1815 81.9008 52.1815 81.9008C52.1815 81.9008 52.0228 81.9487 51.871 80.4963C51.8334 80.136 51.7341 79.4775 51.7192 79.0439C51.7055 78.6451 51.6205 77.2171 51.7055 76.9945C51.7911 76.772 51.9218 76.6953 51.9218 76.6953C51.9218 76.6953 51.8876 78.2349 51.9361 78.9703Z" fill="black"/>
<path d="M35.9265 38.1797L36.1439 38.2525L36.1227 38.3236C36.1055 38.3816 36.0865 38.448 36.066 38.5216C36.0073 38.732 35.9486 38.958 35.8939 39.1906C35.833 39.4492 35.7808 39.6999 35.74 39.9367L35.7282 40.0068C35.629 40.6089 35.615 41.0688 35.7036 41.316L35.7088 41.33C36.2155 42.6389 35.5275 43.3027 34.0833 42.8379L34.0393 42.8234L34.1089 42.5964C35.4098 43.0311 35.9315 42.5414 35.4971 41.4194C35.3776 41.1105 35.396 40.5864 35.5153 39.8945C35.557 39.6524 35.6102 39.3969 35.6721 39.1337C35.7216 38.9239 35.7741 38.7195 35.827 38.5267L35.8468 38.455C35.8587 38.4122 35.8701 38.3719 35.881 38.3341L35.9089 38.2385L35.9265 38.1797Z" fill="black"/>
<path d="M30.2898 47.3017L30.4016 47.0938L30.4424 47.117L30.4798 47.1377C30.5364 47.1688 30.6009 47.2032 30.6726 47.2399L30.7038 47.2559C30.9449 47.3784 31.2115 47.501 31.4959 47.6154C32.1498 47.8785 32.796 48.058 33.3971 48.1163C33.6695 48.1427 33.9277 48.1433 34.1695 48.1163L34.2176 48.1105L34.2455 48.3471C33.9728 48.3821 33.6821 48.3833 33.376 48.3536C32.7512 48.2931 32.0857 48.1081 31.4137 47.8378C31.1229 47.7208 30.8504 47.5956 30.6037 47.4702L30.5104 47.4221C30.4708 47.4013 30.4335 47.3815 30.3989 47.3626L30.3342 47.327L30.2898 47.3017Z" fill="black"/>
<path fill-rule="evenodd" clip-rule="evenodd" d="M34.4519 44.6831C33.374 44.6831 32.5613 44.168 32.5232 44.1434C32.4427 44.0915 32.4178 43.9813 32.4675 43.8973C32.5172 43.8134 32.6228 43.7873 32.7033 43.8392C32.7194 43.8495 33.6741 44.4479 34.825 44.3022C34.9182 44.2904 35.0043 44.3601 35.0158 44.4582C35.0272 44.5561 34.9602 44.6453 34.8663 44.6572C34.7248 44.6752 34.5862 44.6831 34.4519 44.6831Z" fill="black"/>
<path fill-rule="evenodd" clip-rule="evenodd" d="M34.8947 42.975C34.664 42.975 34.3761 42.9279 34.0168 42.8078L34.0864 42.5808C34.7555 42.8043 35.2497 42.7861 35.478 42.5293C35.6723 42.3107 35.6711 41.911 35.4747 41.4037C35.3414 41.0596 35.3743 40.4068 35.5726 39.4636C35.7176 38.7733 35.9021 38.1701 35.904 38.1641L36.1214 38.2369C35.9212 38.8885 35.4529 40.7116 35.6863 41.3144C35.983 42.0807 35.8278 42.4862 35.6453 42.6914C35.5152 42.8379 35.2881 42.975 34.8947 42.975Z" fill="black"/>
<path fill-rule="evenodd" clip-rule="evenodd" d="M34.2034 37.412C34.1702 37.4213 34.1349 37.425 34.0988 37.4222C33.7467 37.395 32.7366 37.3435 32.2971 37.4307C31.8832 37.5128 31.3177 37.8951 31.1347 38.0355C30.9949 38.1427 30.7984 38.1116 30.6955 37.9659C30.5927 37.8202 30.6224 37.6152 30.762 37.5078C30.7934 37.4836 31.5397 36.9136 32.1797 36.7867C32.7905 36.6655 34.0902 36.7642 34.1452 36.7685C34.3183 36.7819 34.4481 36.9391 34.4353 37.1196C34.4252 37.2624 34.3288 37.377 34.2034 37.412Z" fill="black"/>
<path fill-rule="evenodd" clip-rule="evenodd" d="M38.8857 39.4083C38.8273 39.3837 38.7756 39.3402 38.7399 39.2801C38.6259 39.088 38.2555 38.5419 37.9165 38.3252C37.5547 38.094 36.6326 37.7943 36.3078 37.6982C36.145 37.6498 36.0502 37.4731 36.0964 37.3032C36.1425 37.1331 36.312 37.0343 36.475 37.0825C36.526 37.0976 37.7292 37.4552 38.2368 37.7796C38.7706 38.1206 39.2419 38.9101 39.2617 38.9436C39.3507 39.0939 39.3061 39.2911 39.162 39.384C39.0756 39.4396 38.9731 39.4452 38.8857 39.4083Z" fill="black"/>
<path fill-rule="evenodd" clip-rule="evenodd" d="M33.1605 39.4757C33.1605 39.6694 33.0101 39.8264 32.8246 39.8264C32.6392 39.8264 32.4888 39.6694 32.4888 39.4757C32.4888 39.282 32.6392 39.125 32.8246 39.125C33.0101 39.125 33.1605 39.282 33.1605 39.4757Z" fill="black"/>
<path fill-rule="evenodd" clip-rule="evenodd" d="M37.4569 39.882C37.4569 40.0757 37.3065 40.2327 37.121 40.2327C36.9356 40.2327 36.7852 40.0757 36.7852 39.882C36.7852 39.6883 36.9356 39.5312 37.121 39.5312C37.3065 39.5312 37.4569 39.6883 37.4569 39.882Z" fill="black"/>
<mask id="mask2_1700_254789" style="mask-type:alpha" maskUnits="userSpaceOnUse" x="25" y="26" width="16" height="14">
<path fill-rule="evenodd" clip-rule="evenodd" d="M25.9893 26.0156H40.7034V39.0449H25.9893V26.0156Z" fill="white"/>
</mask>
<g mask="url(#mask2_1700_254789)">
<path fill-rule="evenodd" clip-rule="evenodd" d="M26.3307 36.8213C26.3307 36.8213 25.2479 31.2649 26.9223 31.0985L28.5967 30.9322C28.5967 30.9322 27.3279 27.5086 30.2735 26.4841C33.2192 25.4596 36.0043 26.1094 37.3433 28.4925C38.6822 30.8756 40.0569 30.402 40.5914 32.7719C41.1258 35.1417 39.5225 39.0449 39.5225 39.0449C39.5225 39.0449 39.2979 34.1108 38.7613 33.551C38.2248 32.9911 36.013 35.04 33.1981 34.4107C30.3832 33.7813 28.63 31.2537 28.1209 34.7945C27.6119 38.3352 27.1358 37.2659 27.1358 37.2659C27.1358 37.2659 26.9613 36.7756 26.318 36.9434L26.3307 36.8213Z" fill="#711515"/>
</g>
<path fill-rule="evenodd" clip-rule="evenodd" d="M140.167 141.094L138.111 161.189C138.111 161.189 158.121 166.209 165.416 159.643L166.156 141.953L140.167 141.094Z" fill="#D60000"/>
<path fill-rule="evenodd" clip-rule="evenodd" d="M148.901 114.945C148.901 114.945 148.69 119.781 145.986 121.489C143.533 123.037 148.731 132.025 154.322 131.489C157.383 131.195 158.1 122.463 158.1 122.463C158.1 122.463 155.629 121.965 156.542 118.033L148.901 114.945Z" fill="#C26E5E"/>
<path fill-rule="evenodd" clip-rule="evenodd" d="M153.38 119.864C149.755 119.406 147.139 116.92 146.772 112.795C145.719 112.97 145.47 110.105 145.764 109.185C146.057 108.264 147.016 108.802 147.016 108.802C147.016 108.802 147.096 108.584 147.152 108.345C148.735 101.569 153.17 101.837 153.17 101.837C161.32 102.28 159.41 110.961 158.945 113.264C158.479 115.567 156.884 120.305 153.38 119.864Z" fill="#C26E5E"/>
<path fill-rule="evenodd" clip-rule="evenodd" d="M165.429 147.527C164.227 147.016 162.677 145.399 160.824 142.721C159.449 140.735 158.41 138.873 158.399 138.854L158.597 138.734C158.638 138.808 162.734 146.124 165.516 147.306L165.429 147.527Z" fill="#864A56"/>
<mask id="mask3_1700_254789" style="mask-type:alpha" maskUnits="userSpaceOnUse" x="132" y="121" width="36" height="37">
<path fill-rule="evenodd" clip-rule="evenodd" d="M132.969 121.234H167.463V157.986H132.969V121.234Z" fill="white"/>
</mask>
<g mask="url(#mask3_1700_254789)">
<path fill-rule="evenodd" clip-rule="evenodd" d="M146.219 121.234C146.219 121.234 136.069 122.237 133.976 133.237C131.882 144.237 131.632 157.212 147.761 157.884C163.891 158.555 165.262 155.724 165.251 155.106C165.239 154.487 165.525 144.297 166.839 136.55C168.152 128.803 168.267 124.631 158.214 122.069C158.214 122.069 153.758 128.266 146.219 121.234Z" fill="#D60000"/>
</g>
<path fill-rule="evenodd" clip-rule="evenodd" d="M153.929 125.757L155.129 120.035C155.129 120.035 155.072 119.082 156.5 119.141C157.928 119.201 168.038 119.022 168.038 119.022C168.038 119.022 168.838 118.903 169.066 119.678C169.295 120.453 166.324 133.444 166.324 133.444C166.324 133.444 166.382 134.338 165.411 134.338C164.439 134.338 152.501 134.815 152.501 134.815L153.929 125.757Z" fill="#204EB2"/>
<mask id="mask4_1700_254789" style="mask-type:alpha" maskUnits="userSpaceOnUse" x="152" y="118" width="18" height="17">
<path fill-rule="evenodd" clip-rule="evenodd" d="M152.469 118.977H169.108V134.837H152.469V118.977Z" fill="white"/>
</mask>
<g mask="url(#mask4_1700_254789)">
<path fill-rule="evenodd" clip-rule="evenodd" d="M153.959 125.752L152.537 134.774C153.253 134.746 164.478 134.299 165.412 134.299C165.71 134.299 165.939 134.213 166.091 134.043C166.317 133.792 166.298 133.44 166.298 133.437L166.297 133.432L166.298 133.428C166.328 133.298 169.264 120.435 169.041 119.677C168.822 118.936 168.075 119.037 168.044 119.042C167.939 119.044 157.912 119.22 156.5 119.161C155.977 119.139 155.597 119.251 155.371 119.491C155.145 119.732 155.159 120.021 155.159 120.024L155.159 120.028L155.158 120.032L153.959 125.752ZM152.469 134.837L153.903 125.74L155.102 120.023C155.1 119.983 155.099 119.697 155.329 119.451C155.567 119.197 155.963 119.08 156.502 119.102C157.913 119.161 167.938 118.984 168.039 118.983C168.044 118.982 168.862 118.869 169.095 119.659C169.323 120.431 166.49 132.848 166.355 133.437C166.357 133.483 166.364 133.827 166.134 134.083C165.97 134.266 165.727 134.358 165.412 134.358C164.453 134.358 152.623 134.83 152.504 134.835L152.469 134.837Z" fill="black"/>
</g>
<path fill-rule="evenodd" clip-rule="evenodd" d="M154.328 126.171L155.528 120.449C155.528 120.449 155.471 119.496 156.899 119.555C158.327 119.615 168.437 119.436 168.437 119.436C168.437 119.436 169.237 119.317 169.465 120.092C169.694 120.867 166.724 133.859 166.724 133.859C166.724 133.859 166.781 134.753 165.81 134.753C164.839 134.753 152.9 135.229 152.9 135.229L154.328 126.171Z" fill="#56ACF6"/>
<path fill-rule="evenodd" clip-rule="evenodd" d="M148.116 135.134C148.116 135.134 151.438 131.185 152.344 129.492C153.25 127.799 153.25 126.812 153.175 126.036C153.099 125.26 153.099 124.343 153.703 124.202C154.307 124.061 154.383 124.414 154.458 125.26C154.534 126.106 154.458 126.953 155.817 126.459C157.176 125.965 160.498 124.766 160.875 125.754C161.253 126.741 160.422 126.882 160.422 126.882C160.422 126.882 161.026 126.953 161.177 127.446C161.328 127.94 161.177 128.293 160.724 128.504C160.271 128.716 160.045 128.787 160.045 128.787C160.045 128.787 160.951 128.645 161.177 129.351C161.404 130.056 161.026 130.409 160.649 130.55C160.649 130.55 161.134 130.631 161.253 131.185C161.328 131.537 160.875 131.749 160.347 131.96C159.633 132.247 157.478 132.313 155.666 133.512C153.854 134.711 149.475 142.54 147.286 144.938C145.096 147.336 142.907 141.13 142.907 141.13C142.907 141.13 145.625 137.532 148.116 135.134Z" fill="#C26E5E"/>
<path fill-rule="evenodd" clip-rule="evenodd" d="M156.669 128.028L156.624 127.855L160.399 126.797L160.444 126.969L156.669 128.028Z" fill="black"/>
<path fill-rule="evenodd" clip-rule="evenodd" d="M156.669 129.871L156.624 129.699L160.399 128.641L160.444 128.813L156.669 129.871Z" fill="black"/>
<path fill-rule="evenodd" clip-rule="evenodd" d="M157.122 131.707L157.077 131.535L160.852 130.477L160.896 130.649L157.122 131.707Z" fill="black"/>
<mask id="mask5_1700_254789" style="mask-type:alpha" maskUnits="userSpaceOnUse" x="163" y="124" width="9" height="24">
<path fill-rule="evenodd" clip-rule="evenodd" d="M163.833 124.031H171.183V147.569H163.833V124.031Z" fill="white"/>
</mask>
<g mask="url(#mask5_1700_254789)">
<path fill-rule="evenodd" clip-rule="evenodd" d="M165.745 144.206C165.745 144.206 166.273 141.385 166.5 137.858C166.726 134.332 166.651 132.78 166.349 132.498C166.047 132.216 163.933 132.286 163.933 131.158C163.933 130.029 165.443 130.382 165.443 130.382C165.443 130.382 163.857 130.1 164.008 129.254C164.159 128.407 165.065 128.548 165.065 128.548C165.065 128.548 163.631 128.266 163.857 127.349C164.084 126.432 165.443 126.785 165.443 126.785C165.443 126.785 164.159 126.574 164.687 125.657C165.216 124.74 166.122 125.304 167.179 125.586C168.236 125.868 168.312 125.939 168.387 125.516C168.463 125.092 168.312 123.964 169.142 124.034C169.973 124.105 170.124 124.387 170.124 125.939C170.124 127.49 170.35 128.901 170.577 130.312C170.803 131.722 170.879 133.344 170.727 135.954C170.577 138.564 172.691 146.252 168.915 147.38C165.141 148.509 165.745 144.206 165.745 144.206Z" fill="#C26E5E"/>
</g>
<path fill-rule="evenodd" clip-rule="evenodd" d="M167.339 130.868L165.118 130.37L165.154 130.195L167.375 130.693L167.339 130.868Z" fill="black"/>
<path fill-rule="evenodd" clip-rule="evenodd" d="M167.286 129.141L165.065 128.644L165.101 128.469L167.322 128.966L167.286 129.141Z" fill="black"/>
<path fill-rule="evenodd" clip-rule="evenodd" d="M167.382 127.266L165.162 126.769L165.198 126.594L167.418 127.091L167.382 127.266Z" fill="black"/>
<path fill-rule="evenodd" clip-rule="evenodd" d="M169.427 126.117L168.333 125.87L168.369 125.695L169.464 125.942L169.427 126.117Z" fill="black"/>
<path fill-rule="evenodd" clip-rule="evenodd" d="M73.7246 169.805L75.324 175.935L72.4108 176.956L70.583 170.937L73.7246 169.805Z" fill="#F8D8B8"/>
<path fill-rule="evenodd" clip-rule="evenodd" d="M70.7493 170.516L72.8057 177.31L69.8354 178.323L67.6648 171.708L70.7493 170.516Z" fill="#E4F9FF"/>
<path fill-rule="evenodd" clip-rule="evenodd" d="M67.4416 171.008C67.4416 171.008 67.8986 171.008 68.4698 171.306C69.041 171.604 72.0113 175.716 70.2977 178.278C70.2977 178.278 70.0121 178.457 69.6693 178.516C69.3266 178.576 68.6983 179.649 67.613 180.245C67.613 180.245 67.8415 179.47 66.9847 177.146C66.1279 174.822 61.2155 162.486 58.8736 162.367C58.8736 162.367 59.7875 161.592 62.5864 164.929C65.2305 168.082 67.4416 171.008 67.4416 171.008Z" fill="#2E2C36"/>
<path fill-rule="evenodd" clip-rule="evenodd" d="M67.6109 180.244C67.6109 180.244 66.6399 181.972 65.0976 181.674C63.5554 181.376 63.1081 179.902 62.5889 178.672C62.0703 177.443 56.8204 163.916 56.8204 163.916C56.8204 163.916 57.3984 161.968 58.9812 162.345C60.8136 162.783 62.5272 166.835 62.5272 166.835L67.4967 177.562C67.4967 177.562 68.0108 179.111 67.6109 180.244Z" fill="#E4F9FF"/>
<mask id="mask6_1700_254789" style="mask-type:alpha" maskUnits="userSpaceOnUse" x="56" y="163" width="11" height="18">
<path fill-rule="evenodd" clip-rule="evenodd" d="M66.239 163.414H56.6268V180.907H66.239V163.414Z" fill="white"/>
</mask>
<g mask="url(#mask6_1700_254789)">
<path fill-rule="evenodd" clip-rule="evenodd" d="M66.239 179.625L59.8987 165.442C59.8987 165.442 58.5849 162.999 57.2711 163.476C55.9574 163.952 56.9855 166.157 57.4425 167.886C57.8995 169.614 62.4691 179.744 63.6686 180.698C64.5066 181.364 66.1819 180.281 66.239 179.625Z" fill="#2E2C36"/>
</g>
<path fill-rule="evenodd" clip-rule="evenodd" d="M69.6666 178.512C69.6666 178.512 70.2949 176.784 69.5524 174.698C68.8098 172.612 67.4389 171.003 67.4389 171.003C67.4389 171.003 68.8841 170.531 70.1036 173.568C71.3231 176.605 71.0946 178.214 69.6666 178.631" fill="#3B3D4A"/>
<path d="M66.411 171.402L65.8432 171.336L65.8369 171.403L65.8301 171.486C65.8278 171.515 65.8261 171.546 65.8238 171.578C65.8015 171.914 65.7964 172.265 65.8181 172.596C65.8341 172.83 65.8626 173.043 65.9072 173.229C65.9797 173.532 66.1836 173.77 66.5007 173.977L66.5344 173.998C66.7314 174.124 66.9491 174.228 67.3089 174.38L67.6785 174.534C68.0046 174.671 68.204 174.764 68.3879 174.872C68.6221 175.009 68.7815 175.302 68.8666 175.718C68.93 176.029 68.9443 176.363 68.9294 176.665L68.9266 176.712C68.9254 176.734 68.9243 176.753 68.9226 176.77L68.9197 176.804L69.4875 176.869L69.4921 176.821C69.4932 176.805 69.4943 176.787 69.496 176.766L69.4966 176.75C69.5189 176.387 69.5046 175.983 69.4252 175.594C69.3093 175.026 69.0711 174.588 68.6672 174.352C68.457 174.229 68.2405 174.127 67.8944 173.982L67.6168 173.866C66.8308 173.539 66.5218 173.337 66.4613 173.084C66.4258 172.936 66.4013 172.757 66.3881 172.555C66.3681 172.255 66.3733 171.93 66.3933 171.619L66.3973 171.561C66.399 171.542 66.4001 171.524 66.4018 171.507L66.4104 171.41L66.411 171.402Z" fill="white"/>
<path fill-rule="evenodd" clip-rule="evenodd" d="M139.972 178.086C139.972 178.086 139.345 180.702 139.056 181.171C138.767 181.64 133.4 184.163 131.687 183.99C129.974 183.818 127.095 182.681 126.717 181.824C126.34 180.968 126.848 178.325 127.39 177.838C127.933 177.352 139.972 178.086 139.972 178.086Z" fill="#E4F9FF"/>
<path fill-rule="evenodd" clip-rule="evenodd" d="M165.688 155.344C165.688 155.344 169.908 171.88 160.312 174.443C150.717 177.005 139.994 174.689 128.213 170.688C118.56 167.411 118.96 163.657 106.68 167.351C97.8934 169.995 75.2663 176.588 75.2663 176.588L72.9245 169.437C72.9245 169.437 106.68 151.262 120.102 151.679C125.13 151.835 140.961 155.194 140.961 155.194L165.688 155.344Z" fill="#204EB2"/>
<path fill-rule="evenodd" clip-rule="evenodd" d="M164.437 157.405C164.437 157.405 153.909 134.657 149.911 132.631C145.913 130.605 144.37 133.048 144.028 135.73C143.685 138.412 136.26 163.917 136.26 163.917L145.113 166.36L164.437 157.405Z" fill="#204EB2"/>
<path d="M150.477 153.664L145.022 165.574L145.279 165.703L150.734 153.793L150.477 153.664Z" fill="black"/>
<path fill-rule="evenodd" clip-rule="evenodd" d="M137.55 163.945L136.881 166.232C139.541 166.229 141.648 167.492 142.223 167.793L142.824 165.552L137.55 163.945Z" fill="#F7C8A9"/>
<path fill-rule="evenodd" clip-rule="evenodd" d="M135.407 170.557L141.225 172.066L142.432 167.501C142.432 167.501 142.416 167.494 142.318 167.442C141.742 167.141 139.455 166.029 136.795 166.031" fill="#E4F9FF"/>
<path fill-rule="evenodd" clip-rule="evenodd" d="M137.329 179.608C137.329 179.608 133.253 181.36 130.493 180.25C127.732 179.141 127.097 178.402 127.112 178.329C127.128 178.256 131.697 174.143 132.596 173.74C133.495 173.338 135.813 171.58 136.734 173.102C137.656 174.623 139.029 175.79 138.852 176.899C138.674 178.009 137.329 179.608 137.329 179.608Z" fill="#353644"/>
<path fill-rule="evenodd" clip-rule="evenodd" d="M141.089 172.895C141.089 172.895 140.864 176.83 139.843 178.662L137.177 179.724C137.177 179.724 137.947 177.606 137.315 176.766C136.684 175.927 136.322 174.998 136.314 174.459C136.305 173.92 134.001 173.301 134.001 173.301C134.001 173.301 133.617 174.209 132.932 174.201C132.246 174.193 128.713 176.871 128.713 176.871C128.713 176.871 129.578 175.919 130.485 174.904C131.391 173.89 134.569 170.672 134.569 170.672L141.089 172.895Z" fill="#2C262B"/>
<path fill-rule="evenodd" clip-rule="evenodd" d="M141.397 171.301C141.397 171.301 141.965 171.924 141.604 172.511C141.243 173.098 140.03 172.752 138.872 172.418C137.714 172.085 134.941 171.372 134.738 170.958C134.534 170.543 134.902 169.653 135.646 169.461C135.646 169.461 135.427 170.204 135.737 170.398C136.046 170.593 140.887 172.037 141.092 171.902C141.296 171.767 141.397 171.301 141.397 171.301Z" fill="#3E454F"/>
<path fill-rule="evenodd" clip-rule="evenodd" d="M137.256 174.487C137.256 174.487 135.749 172.789 134.069 173.249C134.069 173.249 133.517 173.364 133.716 172.983C133.916 172.602 134.207 172.61 134.207 172.61C134.207 172.61 134.171 172.235 134.474 172.184C134.474 172.184 134.383 171.796 134.798 171.771C134.798 171.771 134.93 170.886 135.827 171.341C136.724 171.796 138.464 172.144 138.24 172.641C138.016 173.138 137.886 172.925 137.886 172.925C137.886 172.925 137.99 173.255 137.748 173.564C137.505 173.874 137.543 173.699 137.543 173.699C137.543 173.699 137.82 174.314 137.256 174.487Z" fill="white"/>
<path fill-rule="evenodd" clip-rule="evenodd" d="M137.94 173.23C137.94 173.23 137.94 173.23 138.017 173.142C138.094 173.054 138.094 173.054 138.094 173.054L138.094 173.054L138.094 173.054L138.093 173.054L138.092 173.053C138.091 173.052 138.09 173.05 138.088 173.049C138.085 173.046 138.08 173.042 138.075 173.037C138.063 173.027 138.046 173.012 138.024 172.995C137.981 172.96 137.918 172.913 137.836 172.862C137.674 172.759 137.438 172.639 137.145 172.57L137.094 172.803C137.358 172.865 137.571 172.973 137.718 173.066C137.791 173.112 137.848 173.154 137.885 173.184C137.904 173.199 137.918 173.211 137.927 173.219C137.932 173.223 137.935 173.226 137.937 173.228C137.938 173.229 137.939 173.23 137.939 173.23L137.94 173.23L137.94 173.23Z" fill="black"/>
<path fill-rule="evenodd" clip-rule="evenodd" d="M134.548 171.664C134.548 171.664 134.548 171.664 134.533 171.782C134.518 171.901 134.518 171.901 134.518 171.901L134.518 171.901L134.519 171.901L134.524 171.902C134.529 171.902 134.535 171.903 134.544 171.904C134.561 171.907 134.586 171.911 134.617 171.917C134.68 171.928 134.768 171.945 134.866 171.968C135.066 172.015 135.301 172.085 135.469 172.181L135.578 171.972C135.381 171.859 135.121 171.783 134.916 171.735C134.813 171.711 134.721 171.693 134.655 171.681C134.622 171.676 134.596 171.671 134.577 171.668C134.568 171.667 134.561 171.666 134.556 171.665L134.55 171.664L134.548 171.664L134.548 171.664Z" fill="black"/>
<path fill-rule="evenodd" clip-rule="evenodd" d="M133.895 172.58C133.895 172.58 133.895 172.58 133.899 172.7C133.902 172.82 133.902 172.82 133.902 172.82L133.903 172.82L133.905 172.82L133.912 172.82C133.918 172.819 133.927 172.819 133.939 172.819C133.963 172.819 133.997 172.818 134.04 172.818C134.125 172.818 134.243 172.819 134.372 172.824C134.636 172.836 134.928 172.867 135.097 172.934L135.178 172.71C134.97 172.627 134.643 172.597 134.382 172.585C134.248 172.579 134.127 172.578 134.039 172.578C133.995 172.578 133.959 172.579 133.934 172.579C133.922 172.58 133.912 172.58 133.906 172.58L133.898 172.58L133.896 172.58L133.895 172.58Z" fill="black"/>
<path fill-rule="evenodd" clip-rule="evenodd" d="M137.644 174.08C137.644 174.08 137.644 174.08 137.72 173.99C137.795 173.9 137.795 173.9 137.795 173.9L137.795 173.9L137.794 173.9L137.793 173.898C137.792 173.897 137.79 173.896 137.788 173.894C137.783 173.889 137.776 173.884 137.768 173.876C137.751 173.861 137.726 173.84 137.693 173.814C137.629 173.763 137.535 173.691 137.417 173.612C137.18 173.455 136.844 173.266 136.448 173.141L136.382 173.369C136.752 173.486 137.069 173.664 137.294 173.814C137.406 173.888 137.494 173.955 137.554 174.004C137.584 174.028 137.607 174.047 137.622 174.06C137.63 174.067 137.636 174.072 137.639 174.075C137.641 174.077 137.643 174.078 137.643 174.079L137.644 174.079L137.644 174.08Z" fill="black"/>
<path fill-rule="evenodd" clip-rule="evenodd" d="M152.719 110.803C152.719 111.001 152.566 111.161 152.376 111.161C152.187 111.161 152.034 111.001 152.034 110.803C152.034 110.606 152.187 110.445 152.376 110.445C152.566 110.445 152.719 110.606 152.719 110.803Z" fill="black"/>
<path fill-rule="evenodd" clip-rule="evenodd" d="M157.258 111.608C157.258 111.806 157.105 111.966 156.916 111.966C156.726 111.966 156.573 111.806 156.573 111.608C156.573 111.41 156.726 111.25 156.916 111.25C157.105 111.25 157.258 111.41 157.258 111.608Z" fill="black"/>
<path fill-rule="evenodd" clip-rule="evenodd" d="M152.149 115.86C152.149 115.86 152.135 116.81 153.414 116.981C154.692 117.151 155.263 116.981 155.236 116.371C155.236 116.371 155.032 115.704 154.733 115.675C154.433 115.647 154.121 115.817 154.121 115.817C154.121 115.817 153.821 115.406 153.509 115.448C153.196 115.491 152.57 115.874 152.149 115.86Z" fill="#CE4129"/>
<mask id="mask7_1700_254789" style="mask-type:alpha" maskUnits="userSpaceOnUse" x="149" y="108" width="6" height="2">
<path fill-rule="evenodd" clip-rule="evenodd" d="M149.938 108.328H154.378V109.741H149.938V108.328Z" fill="white"/>
</mask>
<g mask="url(#mask7_1700_254789)">
<path fill-rule="evenodd" clip-rule="evenodd" d="M154.234 109.741C154.234 109.741 152.584 109.264 152.154 109.128C151.724 108.993 151.634 108.899 151.124 108.951C150.613 109.003 150.033 109.118 149.943 109.013C149.853 108.909 150.993 108.387 151.374 108.335C151.754 108.283 153.999 108.527 154.287 109.108C154.519 109.577 154.234 109.741 154.234 109.741Z" fill="black"/>
</g>
<path fill-rule="evenodd" clip-rule="evenodd" d="M154.397 116.379C153.465 116.249 152.351 116.077 152.001 115.894C151.746 115.761 151.652 115.795 151.651 115.795C151.651 115.795 151.733 115.488 152.103 115.681C152.464 115.869 153.942 116.075 154.427 116.142C155.277 116.26 155.354 116.215 155.451 116.157L155.564 116.364C155.47 116.42 155.381 116.454 155.18 116.454C155.016 116.454 154.776 116.431 154.397 116.379Z" fill="black"/>
<mask id="mask8_1700_254789" style="mask-type:alpha" maskUnits="userSpaceOnUse" x="156" y="109" width="4" height="2">
<path fill-rule="evenodd" clip-rule="evenodd" d="M156.192 109.383H159.105V110.407H156.192V109.383Z" fill="white"/>
</mask>
<g mask="url(#mask8_1700_254789)">
<path fill-rule="evenodd" clip-rule="evenodd" d="M156.195 109.973C156.195 109.973 156.231 109.6 156.668 109.435C157.105 109.27 158.632 109.54 158.747 109.629C158.861 109.719 159.069 109.936 159.105 110.407C159.105 110.407 158.94 110.048 158.639 109.988C158.337 109.929 157.399 110.198 156.804 110.19C156.209 110.183 156.18 110.108 156.195 109.973Z" fill="black"/>
</g>
<path fill-rule="evenodd" clip-rule="evenodd" d="M153.675 120.084C152.884 120.084 152.066 119.843 151.479 119.621C150.727 119.336 150.182 119.018 150.177 119.015L150.26 118.859C150.282 118.872 152.4 120.097 154.094 119.88L154.115 120.057C153.97 120.076 153.823 120.084 153.675 120.084Z" fill="black"/>
<path d="M155.812 109.93L156.029 110.003L156.008 110.074C155.991 110.132 155.972 110.198 155.951 110.272C155.893 110.482 155.834 110.708 155.779 110.941C155.718 111.199 155.666 111.45 155.625 111.687L155.614 111.757C155.514 112.359 155.5 112.819 155.589 113.066L155.594 113.08C156.101 114.389 155.413 115.053 153.969 114.588L153.925 114.573L153.994 114.346C155.295 114.781 155.817 114.291 155.383 113.169C155.263 112.861 155.281 112.336 155.401 111.644C155.442 111.402 155.496 111.147 155.558 110.884C155.607 110.674 155.66 110.469 155.712 110.277L155.732 110.205C155.744 110.162 155.756 110.122 155.766 110.084L155.794 109.988L155.812 109.93Z" fill="black"/>
<path d="M150.173 119.052L150.285 118.844L150.325 118.867L150.363 118.888C150.42 118.919 150.484 118.953 150.556 118.99L150.587 119.006C150.828 119.128 151.095 119.251 151.379 119.365C152.033 119.628 152.679 119.808 153.28 119.866C153.553 119.893 153.811 119.893 154.053 119.866L154.101 119.86L154.129 120.097C153.856 120.132 153.565 120.133 153.259 120.104C152.634 120.043 151.969 119.858 151.297 119.588C151.006 119.471 150.733 119.345 150.487 119.22L150.394 119.172C150.354 119.151 150.317 119.131 150.282 119.113L150.217 119.077L150.173 119.052Z" fill="black"/>
<path fill-rule="evenodd" clip-rule="evenodd" d="M154.778 114.709C154.548 114.709 154.26 114.662 153.9 114.542L153.97 114.315C154.639 114.539 155.133 114.52 155.362 114.264C155.556 114.045 155.555 113.645 155.358 113.138C155.225 112.794 155.258 112.141 155.456 111.198C155.601 110.508 155.786 109.904 155.788 109.898L156.005 109.971C155.805 110.623 155.336 112.446 155.57 113.049C155.867 113.815 155.711 114.221 155.529 114.426C155.399 114.572 155.172 114.709 154.778 114.709Z" fill="black"/>
<path fill-rule="evenodd" clip-rule="evenodd" d="M140.312 129.943C140.312 129.943 141.764 111.588 143.596 106.666C145.898 100.479 149.8 97.9629 153.156 99.1545C153.156 99.1545 157.939 98.5587 159.438 102.953C160.937 107.347 161.248 129.943 161.248 129.943H156.297C156.297 129.943 156.047 119.561 156.297 118.444C156.297 118.444 158.422 116.104 159.02 112.59C159.823 107.872 157.243 107.81 155.066 106.805C152.889 105.799 151.621 104.48 151.621 104.48C151.621 104.48 148.195 119.225 148.804 129.943H140.312Z" fill="#0F0F0F"/>
</svg>
