<svg width="177" height="130" viewBox="0 0 177 130" fill="none" xmlns="http://www.w3.org/2000/svg">
<path fill-rule="evenodd" clip-rule="evenodd" d="M128.335 26.7188C139.386 26.7188 148.427 35.7375 148.427 46.7601V78.0064H167.783L148.427 95.0494V95.31C148.427 106.333 139.386 115.351 128.335 115.351H88.6065C77.5558 115.351 68.5142 106.333 68.5142 95.31V46.7601C68.5142 35.7375 77.5558 26.7188 88.6065 26.7188H128.335Z" fill="#CDEEEC"/>
<mask id="mask0_185_9798" style="mask-type:alpha" maskUnits="userSpaceOnUse" x="-1" y="0" width="178" height="130">
<path fill-rule="evenodd" clip-rule="evenodd" d="M176.505 8.26704V78.0052L157.15 95.0482V95.3088C157.15 106.331 148.108 115.35 137.058 115.35H97.3291C94.2933 115.35 99.2957 125.67 88.2526 126.746C59.1001 129.586 -0.00012207 132.366 -0.00012207 126.746C-0.00012207 105.481 -0.00012207 8.26704 -0.00012207 8.26704C-0.00012207 -2.75568 176.505 -2.75568 176.505 8.26704Z" fill="white"/>
</mask>
<g mask="url(#mask0_185_9798)">
<path fill-rule="evenodd" clip-rule="evenodd" d="M120.975 141.814L120.811 141.058L120.293 138.69L120.266 138.569L120.239 138.435L121.233 138.104L121.248 138.388L121.432 141.393L121.635 144.734L121.644 144.873L120.975 141.814ZM120.273 136.237C120.268 136.222 120.264 136.211 120.264 136.199C120.255 136.17 120.254 136.141 120.249 136.114C120.25 136.106 120.247 136.095 120.248 136.086C120.245 136.063 120.245 136.039 120.245 136.014C120.243 135.982 120.242 135.954 120.248 135.924C120.249 135.911 120.248 135.899 120.25 135.891C120.254 135.841 120.265 135.788 120.281 135.738C120.288 135.72 120.29 135.703 120.296 135.685C120.311 135.639 120.328 135.593 120.35 135.549C120.395 135.462 120.454 135.381 120.52 135.311C120.539 135.293 120.559 135.278 120.577 135.26C120.586 135.249 120.596 135.242 120.606 135.234C120.614 135.223 120.625 135.22 120.635 135.213C120.689 135.167 120.751 135.13 120.818 135.1C120.854 135.085 120.89 135.069 120.926 135.057C121.448 134.888 122.009 135.173 122.178 135.695C122.348 136.217 122.062 136.778 121.54 136.947C121.504 136.959 121.465 136.967 121.427 136.976C121.344 136.995 121.26 136.998 121.177 136.992C121.164 136.992 121.152 136.992 121.139 136.988C121.123 136.989 121.102 136.988 121.084 136.982C121.067 136.979 121.055 136.979 121.036 136.973C121.024 136.973 121.011 136.969 120.993 136.963C120.952 136.951 120.912 136.94 120.87 136.925C120.842 136.914 120.818 136.901 120.789 136.887C120.769 136.877 120.748 136.863 120.729 136.853C120.694 136.832 120.659 136.811 120.625 136.785C120.582 136.75 120.541 136.711 120.503 136.67C120.49 136.654 120.473 136.64 120.462 136.619C120.388 136.529 120.33 136.426 120.292 136.308C120.285 136.286 120.276 136.26 120.273 136.237ZM118.896 132.001C118.891 131.986 118.888 131.975 118.888 131.963C118.878 131.934 118.878 131.905 118.873 131.878C118.874 131.87 118.87 131.859 118.872 131.85C118.869 131.827 118.868 131.803 118.869 131.778C118.866 131.746 118.866 131.718 118.872 131.688C118.872 131.675 118.872 131.663 118.873 131.655C118.878 131.605 118.889 131.552 118.905 131.502C118.912 131.484 118.914 131.467 118.92 131.448C118.934 131.403 118.952 131.357 118.974 131.313C119.018 131.225 119.078 131.145 119.144 131.075C119.163 131.056 119.182 131.042 119.201 131.024C119.21 131.013 119.219 131.006 119.229 130.998C119.238 130.987 119.249 130.984 119.259 130.977C119.313 130.931 119.375 130.894 119.442 130.864C119.477 130.849 119.513 130.833 119.55 130.821C120.072 130.651 120.632 130.937 120.802 131.459C120.972 131.981 120.686 132.542 120.164 132.711C120.127 132.723 120.089 132.731 120.051 132.74C119.968 132.758 119.884 132.762 119.801 132.756C119.788 132.756 119.776 132.756 119.763 132.752C119.747 132.753 119.726 132.752 119.708 132.745C119.691 132.743 119.678 132.743 119.66 132.737C119.647 132.737 119.634 132.733 119.616 132.726C119.576 132.715 119.535 132.704 119.494 132.689C119.466 132.678 119.442 132.665 119.412 132.65C119.393 132.641 119.372 132.627 119.352 132.617C119.318 132.596 119.282 132.575 119.249 132.549C119.205 132.514 119.164 132.475 119.126 132.434C119.114 132.418 119.096 132.404 119.086 132.383C119.011 132.293 118.954 132.19 118.916 132.072C118.908 132.05 118.9 132.024 118.896 132.001ZM117.501 127.669C117.499 127.65 117.496 127.63 117.494 127.611C117.485 127.532 117.488 127.454 117.501 127.381C117.505 127.343 117.514 127.308 117.526 127.271C117.534 127.232 117.542 127.197 117.56 127.162C117.578 127.116 117.6 127.072 117.623 127.032C117.642 127.002 117.658 126.976 117.677 126.946C117.712 126.893 117.758 126.846 117.805 126.802C117.82 126.785 117.836 126.772 117.855 126.757C117.883 126.732 117.913 126.71 117.948 126.691C117.971 126.675 117.994 126.66 118.022 126.646C118.036 126.638 118.046 126.63 118.061 126.626C118.072 126.622 118.085 126.614 118.096 126.61C118.121 126.598 118.147 126.59 118.176 126.58C118.694 126.412 119.259 126.7 119.428 127.218C119.597 127.74 119.308 128.302 118.79 128.47C118.735 128.488 118.682 128.501 118.627 128.507C118.611 128.508 118.596 128.513 118.584 128.513C118.577 128.515 118.568 128.514 118.561 128.516C118.542 128.518 118.522 128.521 118.501 128.519C118.497 128.521 118.497 128.521 118.496 128.517C118.476 128.519 118.456 128.518 118.435 128.516C118.414 128.515 118.394 128.517 118.376 128.511C118.338 128.507 118.3 128.499 118.261 128.492C118.243 128.489 118.226 128.487 118.208 128.48C118.208 128.48 118.203 128.478 118.199 128.479C118.171 128.468 118.145 128.46 118.116 128.449C118.092 128.437 118.064 128.425 118.035 128.411C118.011 128.398 117.986 128.386 117.96 128.37C117.93 128.351 117.899 128.329 117.872 128.309C117.828 128.275 117.787 128.235 117.749 128.195C117.736 128.178 117.719 128.164 117.708 128.143C117.634 128.053 117.576 127.95 117.538 127.832C117.52 127.777 117.507 127.724 117.501 127.669ZM120.273 136.237C120.268 136.222 120.264 136.211 120.264 136.199C120.255 136.17 120.254 136.141 120.249 136.114C120.25 136.106 120.247 136.095 120.248 136.086C120.245 136.063 120.245 136.039 120.245 136.014C120.243 135.982 120.242 135.954 120.248 135.924C120.249 135.911 120.248 135.899 120.25 135.891C120.254 135.841 120.265 135.788 120.281 135.738C120.288 135.72 120.29 135.703 120.296 135.685C120.311 135.639 120.328 135.593 120.35 135.549C120.395 135.462 120.454 135.381 120.52 135.311C120.539 135.293 120.559 135.278 120.577 135.26C120.586 135.249 120.596 135.242 120.606 135.234C120.614 135.223 120.625 135.22 120.635 135.213C120.689 135.167 120.751 135.13 120.818 135.1C120.854 135.085 120.89 135.069 120.926 135.057C121.448 134.888 122.009 135.173 122.178 135.695C122.348 136.217 122.062 136.778 121.54 136.947C121.504 136.959 121.465 136.967 121.427 136.976C121.344 136.995 121.26 136.998 121.177 136.992C121.164 136.992 121.152 136.992 121.139 136.988C121.123 136.989 121.102 136.988 121.084 136.982C121.067 136.979 121.055 136.979 121.036 136.973C121.024 136.973 121.011 136.969 120.993 136.963C120.952 136.951 120.912 136.94 120.87 136.925C120.842 136.914 120.818 136.901 120.789 136.887C120.769 136.877 120.748 136.863 120.729 136.853C120.694 136.832 120.659 136.811 120.625 136.785C120.582 136.75 120.541 136.711 120.503 136.67C120.49 136.654 120.473 136.64 120.462 136.619C120.388 136.529 120.33 136.426 120.292 136.308C120.285 136.286 120.276 136.26 120.273 136.237ZM118.896 132.001C118.891 131.986 118.888 131.975 118.888 131.963C118.878 131.934 118.878 131.905 118.873 131.878C118.874 131.87 118.87 131.859 118.872 131.85C118.869 131.827 118.868 131.803 118.869 131.778C118.866 131.746 118.866 131.718 118.872 131.688C118.872 131.675 118.872 131.663 118.873 131.655C118.878 131.605 118.889 131.552 118.905 131.502C118.912 131.484 118.914 131.467 118.92 131.448C118.934 131.403 118.952 131.357 118.974 131.313C119.018 131.225 119.078 131.145 119.144 131.075C119.163 131.056 119.182 131.042 119.201 131.024C119.21 131.013 119.219 131.006 119.229 130.998C119.238 130.987 119.249 130.984 119.259 130.977C119.313 130.931 119.375 130.894 119.442 130.864C119.477 130.849 119.513 130.833 119.55 130.821C120.072 130.651 120.632 130.937 120.802 131.459C120.972 131.981 120.686 132.542 120.164 132.711C120.127 132.723 120.089 132.731 120.051 132.74C119.968 132.758 119.884 132.762 119.801 132.756C119.788 132.756 119.776 132.756 119.763 132.752C119.747 132.753 119.726 132.752 119.708 132.745C119.691 132.743 119.678 132.743 119.66 132.737C119.647 132.737 119.634 132.733 119.616 132.726C119.576 132.715 119.535 132.704 119.494 132.689C119.466 132.678 119.442 132.665 119.412 132.65C119.393 132.641 119.372 132.627 119.352 132.617C119.318 132.596 119.282 132.575 119.249 132.549C119.205 132.514 119.164 132.475 119.126 132.434C119.114 132.418 119.096 132.404 119.086 132.383C119.011 132.293 118.954 132.19 118.916 132.072C118.908 132.05 118.9 132.024 118.896 132.001ZM117.501 127.669C117.499 127.65 117.496 127.63 117.494 127.611C117.485 127.532 117.488 127.454 117.501 127.381C117.505 127.343 117.514 127.308 117.526 127.271C117.534 127.232 117.542 127.197 117.56 127.162C117.578 127.116 117.6 127.072 117.623 127.032C117.642 127.002 117.658 126.976 117.677 126.946C117.712 126.893 117.758 126.846 117.805 126.802C117.82 126.785 117.836 126.772 117.855 126.757C117.883 126.732 117.913 126.71 117.948 126.691C117.971 126.675 117.994 126.66 118.022 126.646C118.036 126.638 118.046 126.63 118.061 126.626C118.072 126.622 118.085 126.614 118.096 126.61C118.121 126.598 118.147 126.59 118.176 126.58C118.694 126.412 119.259 126.7 119.428 127.218C119.597 127.74 119.308 128.302 118.79 128.47C118.735 128.488 118.682 128.501 118.627 128.507C118.611 128.508 118.596 128.513 118.584 128.513C118.577 128.515 118.568 128.514 118.561 128.516C118.542 128.518 118.522 128.521 118.501 128.519C118.497 128.521 118.497 128.521 118.496 128.517C118.476 128.519 118.456 128.518 118.435 128.516C118.414 128.515 118.394 128.517 118.376 128.511C118.338 128.507 118.3 128.499 118.261 128.492C118.243 128.489 118.226 128.487 118.208 128.48C118.208 128.48 118.203 128.478 118.199 128.479C118.171 128.468 118.145 128.46 118.116 128.449C118.092 128.437 118.064 128.425 118.035 128.411C118.011 128.398 117.986 128.386 117.96 128.37C117.93 128.351 117.899 128.329 117.872 128.309C117.828 128.275 117.787 128.235 117.749 128.195C117.736 128.178 117.719 128.164 117.708 128.143C117.634 128.053 117.576 127.95 117.538 127.832C117.52 127.777 117.507 127.724 117.501 127.669ZM120.273 136.237C120.268 136.222 120.264 136.211 120.264 136.199C120.255 136.17 120.254 136.141 120.249 136.114C120.25 136.106 120.247 136.095 120.248 136.086C120.245 136.063 120.245 136.039 120.245 136.014C120.243 135.982 120.242 135.954 120.248 135.924C120.249 135.911 120.248 135.899 120.25 135.891C120.254 135.841 120.265 135.788 120.281 135.738C120.288 135.72 120.29 135.703 120.296 135.685C120.311 135.639 120.328 135.593 120.35 135.549C120.395 135.462 120.454 135.381 120.52 135.311C120.539 135.293 120.559 135.278 120.577 135.26C120.586 135.249 120.596 135.242 120.606 135.234C120.614 135.223 120.625 135.22 120.635 135.213C120.689 135.167 120.751 135.13 120.818 135.1C120.854 135.085 120.89 135.069 120.926 135.057C121.448 134.888 122.009 135.173 122.178 135.695C122.348 136.217 122.062 136.778 121.54 136.947C121.504 136.959 121.465 136.967 121.427 136.976C121.344 136.995 121.26 136.998 121.177 136.992C121.164 136.992 121.152 136.992 121.139 136.988C121.123 136.989 121.102 136.988 121.084 136.982C121.067 136.979 121.055 136.979 121.036 136.973C121.024 136.973 121.011 136.969 120.993 136.963C120.952 136.951 120.912 136.94 120.87 136.925C120.842 136.914 120.818 136.901 120.789 136.887C120.769 136.877 120.748 136.863 120.729 136.853C120.694 136.832 120.659 136.811 120.625 136.785C120.582 136.75 120.541 136.711 120.503 136.67C120.49 136.654 120.473 136.64 120.462 136.619C120.388 136.529 120.33 136.426 120.292 136.308C120.285 136.286 120.276 136.26 120.273 136.237ZM118.896 132.001C118.891 131.986 118.888 131.975 118.888 131.963C118.878 131.934 118.878 131.905 118.873 131.878C118.874 131.87 118.87 131.859 118.872 131.85C118.869 131.827 118.868 131.803 118.869 131.778C118.866 131.746 118.866 131.718 118.872 131.688C118.872 131.675 118.872 131.663 118.873 131.655C118.878 131.605 118.889 131.552 118.905 131.502C118.912 131.484 118.914 131.467 118.92 131.448C118.934 131.403 118.952 131.357 118.974 131.313C119.018 131.225 119.078 131.145 119.144 131.075C119.163 131.056 119.182 131.042 119.201 131.024C119.21 131.013 119.219 131.006 119.229 130.998C119.238 130.987 119.249 130.984 119.259 130.977C119.313 130.931 119.375 130.894 119.442 130.864C119.477 130.849 119.513 130.833 119.55 130.821C120.072 130.651 120.632 130.937 120.802 131.459C120.972 131.981 120.686 132.542 120.164 132.711C120.127 132.723 120.089 132.731 120.051 132.74C119.968 132.758 119.884 132.762 119.801 132.756C119.788 132.756 119.776 132.756 119.763 132.752C119.747 132.753 119.726 132.752 119.708 132.745C119.691 132.743 119.678 132.743 119.66 132.737C119.647 132.737 119.634 132.733 119.616 132.726C119.576 132.715 119.535 132.704 119.494 132.689C119.466 132.678 119.442 132.665 119.412 132.65C119.393 132.641 119.372 132.627 119.352 132.617C119.318 132.596 119.282 132.575 119.249 132.549C119.205 132.514 119.164 132.475 119.126 132.434C119.114 132.418 119.096 132.404 119.086 132.383C119.011 132.293 118.954 132.19 118.916 132.072C118.908 132.05 118.9 132.024 118.896 132.001ZM117.501 127.669C117.499 127.65 117.496 127.63 117.494 127.611C117.485 127.532 117.488 127.454 117.501 127.381C117.505 127.343 117.514 127.308 117.526 127.271C117.534 127.232 117.542 127.197 117.56 127.162C117.578 127.116 117.6 127.072 117.623 127.032C117.642 127.002 117.658 126.976 117.677 126.946C117.712 126.893 117.758 126.846 117.805 126.802C117.82 126.785 117.836 126.772 117.855 126.757C117.883 126.732 117.913 126.71 117.948 126.691C117.971 126.675 117.994 126.66 118.022 126.646C118.036 126.638 118.046 126.63 118.061 126.626C118.072 126.622 118.085 126.614 118.096 126.61C118.121 126.598 118.147 126.59 118.176 126.58C118.694 126.412 119.259 126.7 119.428 127.218C119.597 127.74 119.308 128.302 118.79 128.47C118.735 128.488 118.682 128.501 118.627 128.507C118.611 128.508 118.596 128.513 118.584 128.513C118.577 128.515 118.568 128.514 118.561 128.516C118.542 128.518 118.522 128.521 118.501 128.519C118.497 128.521 118.497 128.521 118.496 128.517C118.476 128.519 118.456 128.518 118.435 128.516C118.414 128.515 118.394 128.517 118.376 128.511C118.338 128.507 118.3 128.499 118.261 128.492C118.243 128.489 118.226 128.487 118.208 128.48C118.208 128.48 118.203 128.478 118.199 128.479C118.171 128.468 118.145 128.46 118.116 128.449C118.092 128.437 118.064 128.425 118.035 128.411C118.011 128.398 117.986 128.386 117.96 128.37C117.93 128.351 117.899 128.329 117.872 128.309C117.828 128.275 117.787 128.235 117.749 128.195C117.736 128.178 117.719 128.164 117.708 128.143C117.634 128.053 117.576 127.95 117.538 127.832C117.52 127.777 117.507 127.724 117.501 127.669ZM120.273 136.237C120.268 136.222 120.264 136.211 120.264 136.199C120.255 136.17 120.254 136.141 120.249 136.114C120.25 136.106 120.247 136.095 120.248 136.086C120.245 136.063 120.245 136.039 120.245 136.014C120.243 135.982 120.242 135.954 120.248 135.924C120.249 135.911 120.248 135.899 120.25 135.891C120.254 135.841 120.265 135.788 120.281 135.738C120.288 135.72 120.29 135.703 120.296 135.685C120.311 135.639 120.328 135.593 120.35 135.549C120.395 135.462 120.454 135.381 120.52 135.311C120.539 135.293 120.559 135.278 120.577 135.26C120.586 135.249 120.596 135.242 120.606 135.234C120.614 135.223 120.625 135.22 120.635 135.213C120.689 135.167 120.751 135.13 120.818 135.1C120.854 135.085 120.89 135.069 120.926 135.057C121.448 134.888 122.009 135.173 122.178 135.695C122.348 136.217 122.062 136.778 121.54 136.947C121.504 136.959 121.465 136.967 121.427 136.976C121.344 136.995 121.26 136.998 121.177 136.992C121.164 136.992 121.152 136.992 121.139 136.988C121.123 136.989 121.102 136.988 121.084 136.982C121.067 136.979 121.055 136.979 121.036 136.973C121.024 136.973 121.011 136.969 120.993 136.963C120.952 136.951 120.912 136.94 120.87 136.925C120.842 136.914 120.818 136.901 120.789 136.887C120.769 136.877 120.748 136.863 120.729 136.853C120.694 136.832 120.659 136.811 120.625 136.785C120.582 136.75 120.541 136.711 120.503 136.67C120.49 136.654 120.473 136.64 120.462 136.619C120.388 136.529 120.33 136.426 120.292 136.308C120.285 136.286 120.276 136.26 120.273 136.237ZM118.896 132.001C118.891 131.986 118.888 131.975 118.888 131.963C118.878 131.934 118.878 131.905 118.873 131.878C118.874 131.87 118.87 131.859 118.872 131.85C118.869 131.827 118.868 131.803 118.869 131.778C118.866 131.746 118.866 131.718 118.872 131.688C118.872 131.675 118.872 131.663 118.873 131.655C118.878 131.605 118.889 131.552 118.905 131.502C118.912 131.484 118.914 131.467 118.92 131.448C118.934 131.403 118.952 131.357 118.974 131.313C119.018 131.225 119.078 131.145 119.144 131.075C119.163 131.056 119.182 131.042 119.201 131.024C119.21 131.013 119.219 131.006 119.229 130.998C119.238 130.987 119.249 130.984 119.259 130.977C119.313 130.931 119.375 130.894 119.442 130.864C119.477 130.849 119.513 130.833 119.55 130.821C120.072 130.651 120.632 130.937 120.802 131.459C120.972 131.981 120.686 132.542 120.164 132.711C120.127 132.723 120.089 132.731 120.051 132.74C119.968 132.758 119.884 132.762 119.801 132.756C119.788 132.756 119.776 132.756 119.763 132.752C119.747 132.753 119.726 132.752 119.708 132.745C119.691 132.743 119.678 132.743 119.66 132.737C119.647 132.737 119.634 132.733 119.616 132.726C119.576 132.715 119.535 132.704 119.494 132.689C119.466 132.678 119.442 132.665 119.412 132.65C119.393 132.641 119.372 132.627 119.352 132.617C119.318 132.596 119.282 132.575 119.249 132.549C119.205 132.514 119.164 132.475 119.126 132.434C119.114 132.418 119.096 132.404 119.086 132.383C119.011 132.293 118.954 132.19 118.916 132.072C118.908 132.05 118.9 132.024 118.896 132.001ZM117.501 127.669C117.499 127.65 117.496 127.63 117.494 127.611C117.485 127.532 117.488 127.454 117.501 127.381C117.505 127.343 117.514 127.308 117.526 127.271C117.534 127.232 117.542 127.197 117.56 127.162C117.578 127.116 117.6 127.072 117.623 127.032C117.642 127.002 117.658 126.976 117.677 126.946C117.712 126.893 117.758 126.846 117.805 126.802C117.82 126.785 117.836 126.772 117.855 126.757C117.883 126.732 117.913 126.71 117.948 126.691C117.971 126.675 117.994 126.66 118.022 126.646C118.036 126.638 118.046 126.63 118.061 126.626C118.072 126.622 118.085 126.614 118.096 126.61C118.121 126.598 118.147 126.59 118.176 126.58C118.694 126.412 119.259 126.7 119.428 127.218C119.597 127.74 119.308 128.302 118.79 128.47C118.735 128.488 118.682 128.501 118.627 128.507C118.611 128.508 118.596 128.513 118.584 128.513C118.577 128.515 118.568 128.514 118.561 128.516C118.542 128.518 118.522 128.521 118.501 128.519C118.497 128.521 118.497 128.521 118.496 128.517C118.476 128.519 118.456 128.518 118.435 128.516C118.414 128.515 118.394 128.517 118.376 128.511C118.338 128.507 118.3 128.499 118.261 128.492C118.243 128.489 118.226 128.487 118.208 128.48C118.208 128.48 118.203 128.478 118.199 128.479C118.171 128.468 118.145 128.46 118.116 128.449C118.092 128.437 118.064 128.425 118.035 128.411C118.011 128.398 117.986 128.386 117.96 128.37C117.93 128.351 117.899 128.329 117.872 128.309C117.828 128.275 117.787 128.235 117.749 128.195C117.736 128.178 117.719 128.164 117.708 128.143C117.634 128.053 117.576 127.95 117.538 127.832C117.52 127.777 117.507 127.724 117.501 127.669ZM120.273 136.237C120.268 136.222 120.264 136.211 120.264 136.199C120.255 136.17 120.254 136.141 120.249 136.114C120.25 136.106 120.247 136.095 120.248 136.086C120.245 136.063 120.245 136.039 120.245 136.014C120.243 135.982 120.242 135.954 120.248 135.924C120.249 135.911 120.248 135.899 120.25 135.891C120.254 135.841 120.265 135.788 120.281 135.738C120.288 135.72 120.29 135.703 120.296 135.685C120.311 135.639 120.328 135.593 120.35 135.549C120.395 135.462 120.454 135.381 120.52 135.311C120.539 135.293 120.559 135.278 120.577 135.26C120.586 135.249 120.596 135.242 120.606 135.234C120.614 135.223 120.625 135.22 120.635 135.213C120.689 135.167 120.751 135.13 120.818 135.1C120.854 135.085 120.89 135.069 120.926 135.057C121.448 134.888 122.009 135.173 122.178 135.695C122.348 136.217 122.062 136.778 121.54 136.947C121.504 136.959 121.465 136.967 121.427 136.976C121.344 136.995 121.26 136.998 121.177 136.992C121.164 136.992 121.152 136.992 121.139 136.988C121.123 136.989 121.102 136.988 121.084 136.982C121.067 136.979 121.055 136.979 121.036 136.973C121.024 136.973 121.011 136.969 120.993 136.963C120.952 136.951 120.912 136.94 120.87 136.925C120.842 136.914 120.818 136.901 120.789 136.887C120.769 136.877 120.748 136.863 120.729 136.853C120.694 136.832 120.659 136.811 120.625 136.785C120.582 136.75 120.541 136.711 120.503 136.67C120.49 136.654 120.473 136.64 120.462 136.619C120.388 136.529 120.33 136.426 120.292 136.308C120.285 136.286 120.276 136.26 120.273 136.237ZM118.896 132.001C118.891 131.986 118.888 131.975 118.888 131.963C118.878 131.934 118.878 131.905 118.873 131.878C118.874 131.87 118.87 131.859 118.872 131.85C118.869 131.827 118.868 131.803 118.869 131.778C118.866 131.746 118.866 131.718 118.872 131.688C118.872 131.675 118.872 131.663 118.873 131.655C118.878 131.605 118.889 131.552 118.905 131.502C118.912 131.484 118.914 131.467 118.92 131.448C118.934 131.403 118.952 131.357 118.974 131.313C119.018 131.225 119.078 131.145 119.144 131.075C119.163 131.056 119.182 131.042 119.201 131.024C119.21 131.013 119.219 131.006 119.229 130.998C119.238 130.987 119.249 130.984 119.259 130.977C119.313 130.931 119.375 130.894 119.442 130.864C119.477 130.849 119.513 130.833 119.55 130.821C120.072 130.651 120.632 130.937 120.802 131.459C120.972 131.981 120.686 132.542 120.164 132.711C120.127 132.723 120.089 132.731 120.051 132.74C119.968 132.758 119.884 132.762 119.801 132.756C119.788 132.756 119.776 132.756 119.763 132.752C119.747 132.753 119.726 132.752 119.708 132.745C119.691 132.743 119.678 132.743 119.66 132.737C119.647 132.737 119.634 132.733 119.616 132.726C119.576 132.715 119.535 132.704 119.494 132.689C119.466 132.678 119.442 132.665 119.412 132.65C119.393 132.641 119.372 132.627 119.352 132.617C119.318 132.596 119.282 132.575 119.249 132.549C119.205 132.514 119.164 132.475 119.126 132.434C119.114 132.418 119.096 132.404 119.086 132.383C119.011 132.293 118.954 132.19 118.916 132.072C118.908 132.05 118.9 132.024 118.896 132.001ZM117.501 127.669C117.499 127.65 117.496 127.63 117.494 127.611C117.485 127.532 117.488 127.454 117.501 127.381C117.505 127.343 117.514 127.308 117.526 127.271C117.534 127.232 117.542 127.197 117.56 127.162C117.578 127.116 117.6 127.072 117.623 127.032C117.642 127.002 117.658 126.976 117.677 126.946C117.712 126.893 117.758 126.846 117.805 126.802C117.82 126.785 117.836 126.772 117.855 126.757C117.883 126.732 117.913 126.71 117.948 126.691C117.971 126.675 117.994 126.66 118.022 126.646C118.036 126.638 118.046 126.63 118.061 126.626C118.072 126.622 118.085 126.614 118.096 126.61C118.121 126.598 118.147 126.59 118.176 126.58C118.694 126.412 119.259 126.7 119.428 127.218C119.597 127.74 119.308 128.302 118.79 128.47C118.735 128.488 118.682 128.501 118.627 128.507C118.611 128.508 118.596 128.513 118.584 128.513C118.577 128.515 118.568 128.514 118.561 128.516C118.542 128.518 118.522 128.521 118.501 128.519C118.497 128.521 118.497 128.521 118.496 128.517C118.476 128.519 118.456 128.518 118.435 128.516C118.414 128.515 118.394 128.517 118.376 128.511C118.338 128.507 118.3 128.499 118.261 128.492C118.243 128.489 118.226 128.487 118.208 128.48C118.208 128.48 118.203 128.478 118.199 128.479C118.171 128.468 118.145 128.46 118.116 128.449C118.092 128.437 118.064 128.425 118.035 128.411C118.011 128.398 117.986 128.386 117.96 128.37C117.93 128.351 117.899 128.329 117.872 128.309C117.828 128.275 117.787 128.235 117.749 128.195C117.736 128.178 117.719 128.164 117.708 128.143C117.634 128.053 117.576 127.95 117.538 127.832C117.52 127.777 117.507 127.724 117.501 127.669ZM120.264 136.199C120.255 136.17 120.254 136.141 120.249 136.114C120.25 136.106 120.247 136.095 120.248 136.086C120.245 136.063 120.245 136.039 120.245 136.014C120.243 135.982 120.242 135.954 120.248 135.924C120.249 135.911 120.248 135.899 120.25 135.891C120.254 135.841 120.265 135.788 120.281 135.738C120.288 135.72 120.29 135.703 120.296 135.685C120.311 135.639 120.328 135.593 120.35 135.549C120.395 135.462 120.454 135.381 120.52 135.311C120.539 135.293 120.559 135.278 120.577 135.26C120.586 135.249 120.596 135.242 120.606 135.234C120.614 135.223 120.625 135.22 120.635 135.213C120.689 135.167 120.751 135.13 120.818 135.1C120.854 135.085 120.89 135.069 120.926 135.057C121.448 134.888 122.009 135.173 122.178 135.695C122.348 136.217 122.062 136.778 121.54 136.947C121.504 136.959 121.465 136.967 121.427 136.976C121.344 136.995 121.26 136.998 121.177 136.992C121.164 136.992 121.152 136.992 121.139 136.988C121.123 136.989 121.102 136.988 121.084 136.982C121.067 136.979 121.055 136.979 121.036 136.973C121.024 136.973 121.011 136.969 120.993 136.963C120.952 136.951 120.912 136.94 120.87 136.925C120.842 136.914 120.818 136.901 120.789 136.887C120.769 136.877 120.748 136.863 120.729 136.853C120.694 136.832 120.659 136.811 120.625 136.785C120.582 136.75 120.541 136.711 120.503 136.67C120.49 136.654 120.473 136.64 120.462 136.619C120.388 136.529 120.33 136.426 120.292 136.308C120.285 136.286 120.276 136.26 120.273 136.237C120.268 136.222 120.264 136.211 120.264 136.199ZM118.888 131.963C118.878 131.934 118.878 131.905 118.873 131.878C118.874 131.87 118.87 131.859 118.872 131.85C118.869 131.827 118.868 131.803 118.869 131.778C118.866 131.746 118.866 131.718 118.872 131.688C118.872 131.675 118.872 131.663 118.873 131.655C118.878 131.605 118.889 131.552 118.905 131.502C118.912 131.484 118.914 131.467 118.92 131.448C118.934 131.403 118.952 131.357 118.974 131.313C119.018 131.225 119.078 131.145 119.144 131.075C119.163 131.056 119.182 131.042 119.201 131.024C119.21 131.013 119.219 131.006 119.229 130.998C119.238 130.987 119.249 130.984 119.259 130.977C119.313 130.931 119.375 130.894 119.442 130.864C119.477 130.849 119.513 130.833 119.55 130.821C120.072 130.651 120.632 130.937 120.802 131.459C120.972 131.981 120.686 132.542 120.164 132.711C120.127 132.723 120.089 132.731 120.051 132.74C119.968 132.758 119.884 132.762 119.801 132.756C119.788 132.756 119.776 132.756 119.763 132.752C119.747 132.753 119.726 132.752 119.708 132.745C119.691 132.743 119.678 132.743 119.66 132.737C119.647 132.737 119.634 132.733 119.616 132.726C119.576 132.715 119.535 132.704 119.494 132.689C119.466 132.678 119.442 132.665 119.412 132.65C119.393 132.641 119.372 132.627 119.352 132.617C119.318 132.596 119.282 132.575 119.249 132.549C119.205 132.514 119.164 132.475 119.126 132.434C119.114 132.418 119.096 132.404 119.086 132.383C119.011 132.293 118.954 132.19 118.916 132.072C118.908 132.05 118.9 132.024 118.896 132.001C118.891 131.986 118.888 131.975 118.888 131.963ZM117.494 127.611C117.485 127.532 117.488 127.454 117.501 127.381C117.505 127.343 117.514 127.308 117.526 127.271C117.534 127.232 117.542 127.197 117.56 127.162C117.578 127.116 117.6 127.072 117.623 127.032C117.642 127.002 117.658 126.976 117.677 126.946C117.712 126.893 117.758 126.846 117.805 126.802C117.82 126.785 117.836 126.772 117.855 126.757C117.883 126.732 117.913 126.71 117.948 126.691C117.971 126.675 117.994 126.66 118.022 126.646C118.036 126.638 118.046 126.63 118.061 126.626C118.072 126.622 118.085 126.614 118.096 126.61C118.121 126.598 118.147 126.59 118.176 126.58C118.694 126.412 119.259 126.7 119.428 127.218C119.597 127.74 119.308 128.302 118.79 128.47C118.735 128.488 118.682 128.501 118.627 128.507C118.611 128.508 118.596 128.513 118.584 128.513C118.577 128.515 118.568 128.514 118.561 128.516C118.542 128.518 118.522 128.521 118.501 128.519C118.497 128.521 118.497 128.521 118.496 128.517C118.476 128.519 118.456 128.518 118.435 128.516C118.414 128.515 118.394 128.517 118.376 128.511C118.338 128.507 118.3 128.499 118.261 128.492C118.243 128.489 118.226 128.487 118.208 128.48C118.208 128.48 118.203 128.478 118.199 128.479C118.171 128.468 118.145 128.46 118.116 128.449C118.092 128.437 118.064 128.425 118.035 128.411C118.011 128.398 117.986 128.386 117.96 128.37C117.93 128.351 117.899 128.329 117.872 128.309C117.828 128.275 117.787 128.235 117.749 128.195C117.736 128.178 117.719 128.164 117.708 128.143C117.634 128.053 117.576 127.95 117.538 127.832C117.52 127.777 117.507 127.724 117.501 127.669C117.499 127.65 117.496 127.63 117.494 127.611ZM117.568 124.582C117.858 124.476 118.15 124.373 118.442 124.27C118.602 124.214 118.763 124.157 118.923 124.101C119.076 124.048 119.23 123.994 119.387 123.938L123.817 137.573L123.319 137.731L121.259 138.384L121.24 138.102L123.571 137.328C122.825 135.16 122.103 132.988 121.406 130.803C121.047 129.688 120.689 128.573 120.346 127.452L119.345 124.208C118.157 124.57 116.943 124.912 115.701 125.282L119.871 137.778L120.028 138.5L120.029 138.503L120.039 138.545L120.088 138.757L120.065 138.764L115.677 125.258C116.301 125.039 116.93 124.81 117.568 124.582ZM117.501 127.669C117.499 127.65 117.496 127.63 117.494 127.611C117.485 127.532 117.488 127.454 117.501 127.381C117.505 127.343 117.514 127.308 117.526 127.271C117.534 127.232 117.542 127.197 117.56 127.162C117.578 127.116 117.6 127.072 117.623 127.032C117.642 127.002 117.658 126.976 117.677 126.946C117.712 126.893 117.758 126.846 117.805 126.802C117.82 126.785 117.836 126.772 117.855 126.757C117.883 126.732 117.913 126.71 117.948 126.691C117.971 126.675 117.994 126.66 118.022 126.646C118.036 126.638 118.046 126.63 118.061 126.626C118.072 126.622 118.085 126.614 118.096 126.61C118.121 126.598 118.147 126.59 118.176 126.58C118.694 126.412 119.259 126.7 119.428 127.218C119.597 127.74 119.308 128.302 118.79 128.47C118.735 128.488 118.682 128.501 118.627 128.507C118.611 128.508 118.596 128.513 118.584 128.513C118.577 128.515 118.568 128.514 118.561 128.516C118.542 128.518 118.522 128.521 118.501 128.519C118.497 128.521 118.497 128.521 118.496 128.517C118.476 128.519 118.456 128.518 118.435 128.516C118.414 128.515 118.394 128.517 118.376 128.511C118.338 128.507 118.3 128.499 118.261 128.492C118.243 128.489 118.226 128.487 118.208 128.48C118.208 128.48 118.203 128.478 118.199 128.479C118.171 128.468 118.145 128.46 118.116 128.449C118.092 128.437 118.064 128.425 118.035 128.411C118.011 128.398 117.986 128.386 117.96 128.37C117.93 128.351 117.899 128.329 117.872 128.309C117.828 128.275 117.787 128.235 117.749 128.195C117.736 128.178 117.719 128.164 117.708 128.143C117.634 128.053 117.576 127.95 117.538 127.832C117.52 127.777 117.507 127.724 117.501 127.669ZM118.896 132.001C118.891 131.986 118.888 131.975 118.888 131.963C118.878 131.934 118.878 131.905 118.873 131.878C118.874 131.87 118.87 131.859 118.872 131.85C118.869 131.827 118.868 131.803 118.869 131.778C118.866 131.746 118.866 131.718 118.872 131.688C118.872 131.675 118.872 131.663 118.873 131.655C118.878 131.605 118.889 131.552 118.905 131.502C118.912 131.484 118.914 131.467 118.92 131.448C118.934 131.403 118.952 131.357 118.974 131.313C119.018 131.225 119.078 131.145 119.144 131.075C119.163 131.056 119.182 131.042 119.201 131.024C119.21 131.013 119.219 131.006 119.229 130.998C119.238 130.987 119.249 130.984 119.259 130.977C119.313 130.931 119.375 130.894 119.442 130.864C119.477 130.849 119.513 130.833 119.55 130.821C120.072 130.651 120.632 130.937 120.802 131.459C120.972 131.981 120.686 132.542 120.164 132.711C120.127 132.723 120.089 132.731 120.051 132.74C119.968 132.758 119.884 132.762 119.801 132.756C119.788 132.756 119.776 132.756 119.763 132.752C119.747 132.753 119.726 132.752 119.708 132.745C119.691 132.743 119.678 132.743 119.66 132.737C119.647 132.737 119.634 132.733 119.616 132.726C119.576 132.715 119.535 132.704 119.494 132.689C119.466 132.678 119.442 132.665 119.412 132.65C119.393 132.641 119.372 132.627 119.352 132.617C119.318 132.596 119.282 132.575 119.249 132.549C119.205 132.514 119.164 132.475 119.126 132.434C119.114 132.418 119.096 132.404 119.086 132.383C119.011 132.293 118.954 132.19 118.916 132.072C118.908 132.05 118.9 132.024 118.896 132.001ZM120.273 136.237C120.268 136.222 120.264 136.211 120.264 136.199C120.255 136.17 120.254 136.141 120.249 136.114C120.25 136.106 120.247 136.095 120.248 136.086C120.245 136.063 120.245 136.039 120.245 136.014C120.243 135.982 120.242 135.954 120.248 135.924C120.249 135.911 120.248 135.899 120.25 135.891C120.254 135.841 120.265 135.788 120.281 135.738C120.288 135.72 120.29 135.703 120.296 135.685C120.311 135.639 120.328 135.593 120.35 135.549C120.395 135.462 120.454 135.381 120.52 135.311C120.539 135.293 120.559 135.278 120.577 135.26C120.586 135.249 120.596 135.242 120.606 135.234C120.614 135.223 120.625 135.22 120.635 135.213C120.689 135.167 120.751 135.13 120.818 135.1C120.854 135.085 120.89 135.069 120.926 135.057C121.448 134.888 122.009 135.173 122.178 135.695C122.348 136.217 122.062 136.778 121.54 136.947C121.504 136.959 121.465 136.967 121.427 136.976C121.344 136.995 121.26 136.998 121.177 136.992C121.164 136.992 121.152 136.992 121.139 136.988C121.123 136.989 121.102 136.988 121.084 136.982C121.067 136.979 121.055 136.979 121.036 136.973C121.024 136.973 121.011 136.969 120.993 136.963C120.952 136.951 120.912 136.94 120.87 136.925C120.842 136.914 120.818 136.901 120.789 136.887C120.769 136.877 120.748 136.863 120.729 136.853C120.694 136.832 120.659 136.811 120.625 136.785C120.582 136.75 120.541 136.711 120.503 136.67C120.49 136.654 120.473 136.64 120.462 136.619C120.388 136.529 120.33 136.426 120.292 136.308C120.285 136.286 120.276 136.26 120.273 136.237ZM117.501 127.669C117.499 127.65 117.496 127.63 117.494 127.611C117.485 127.532 117.488 127.454 117.501 127.381C117.505 127.343 117.514 127.308 117.526 127.271C117.534 127.232 117.542 127.197 117.56 127.162C117.578 127.116 117.6 127.072 117.623 127.032C117.642 127.002 117.658 126.976 117.677 126.946C117.712 126.893 117.758 126.846 117.805 126.802C117.82 126.785 117.836 126.772 117.855 126.757C117.883 126.732 117.913 126.71 117.948 126.691C117.971 126.675 117.994 126.66 118.022 126.646C118.036 126.638 118.046 126.63 118.061 126.626C118.072 126.622 118.085 126.614 118.096 126.61C118.121 126.598 118.147 126.59 118.176 126.58C118.694 126.412 119.259 126.7 119.428 127.218C119.597 127.74 119.308 128.302 118.79 128.47C118.735 128.488 118.682 128.501 118.627 128.507C118.611 128.508 118.596 128.513 118.584 128.513C118.577 128.515 118.568 128.514 118.561 128.516C118.542 128.518 118.522 128.521 118.501 128.519C118.497 128.521 118.497 128.521 118.496 128.517C118.476 128.519 118.456 128.518 118.435 128.516C118.414 128.515 118.394 128.517 118.376 128.511C118.338 128.507 118.3 128.499 118.261 128.492C118.243 128.489 118.226 128.487 118.208 128.48C118.208 128.48 118.203 128.478 118.199 128.479C118.171 128.468 118.145 128.46 118.116 128.449C118.092 128.437 118.064 128.425 118.035 128.411C118.011 128.398 117.986 128.386 117.96 128.37C117.93 128.351 117.899 128.329 117.872 128.309C117.828 128.275 117.787 128.235 117.749 128.195C117.736 128.178 117.719 128.164 117.708 128.143C117.634 128.053 117.576 127.95 117.538 127.832C117.52 127.777 117.507 127.724 117.501 127.669ZM118.896 132.001C118.891 131.986 118.888 131.975 118.888 131.963C118.878 131.934 118.878 131.905 118.873 131.878C118.874 131.87 118.87 131.859 118.872 131.85C118.869 131.827 118.868 131.803 118.869 131.778C118.866 131.746 118.866 131.718 118.872 131.688C118.872 131.675 118.872 131.663 118.873 131.655C118.878 131.605 118.889 131.552 118.905 131.502C118.912 131.484 118.914 131.467 118.92 131.448C118.934 131.403 118.952 131.357 118.974 131.313C119.018 131.225 119.078 131.145 119.144 131.075C119.163 131.056 119.182 131.042 119.201 131.024C119.21 131.013 119.219 131.006 119.229 130.998C119.238 130.987 119.249 130.984 119.259 130.977C119.313 130.931 119.375 130.894 119.442 130.864C119.477 130.849 119.513 130.833 119.55 130.821C120.072 130.651 120.632 130.937 120.802 131.459C120.972 131.981 120.686 132.542 120.164 132.711C120.127 132.723 120.089 132.731 120.051 132.74C119.968 132.758 119.884 132.762 119.801 132.756C119.788 132.756 119.776 132.756 119.763 132.752C119.747 132.753 119.726 132.752 119.708 132.745C119.691 132.743 119.678 132.743 119.66 132.737C119.647 132.737 119.634 132.733 119.616 132.726C119.576 132.715 119.535 132.704 119.494 132.689C119.466 132.678 119.442 132.665 119.412 132.65C119.393 132.641 119.372 132.627 119.352 132.617C119.318 132.596 119.282 132.575 119.249 132.549C119.205 132.514 119.164 132.475 119.126 132.434C119.114 132.418 119.096 132.404 119.086 132.383C119.011 132.293 118.954 132.19 118.916 132.072C118.908 132.05 118.9 132.024 118.896 132.001ZM120.273 136.237C120.268 136.222 120.264 136.211 120.264 136.199C120.255 136.17 120.254 136.141 120.249 136.114C120.25 136.106 120.247 136.095 120.248 136.086C120.245 136.063 120.245 136.039 120.245 136.014C120.243 135.982 120.242 135.954 120.248 135.924C120.249 135.911 120.248 135.899 120.25 135.891C120.254 135.841 120.265 135.788 120.281 135.738C120.288 135.72 120.29 135.703 120.296 135.685C120.311 135.639 120.328 135.593 120.35 135.549C120.395 135.462 120.454 135.381 120.52 135.311C120.539 135.293 120.559 135.278 120.577 135.26C120.586 135.249 120.596 135.242 120.606 135.234C120.614 135.223 120.625 135.22 120.635 135.213C120.689 135.167 120.751 135.13 120.818 135.1C120.854 135.085 120.89 135.069 120.926 135.057C121.448 134.888 122.009 135.173 122.178 135.695C122.348 136.217 122.062 136.778 121.54 136.947C121.504 136.959 121.465 136.967 121.427 136.976C121.344 136.995 121.26 136.998 121.177 136.992C121.164 136.992 121.152 136.992 121.139 136.988C121.123 136.989 121.102 136.988 121.084 136.982C121.067 136.979 121.055 136.979 121.036 136.973C121.024 136.973 121.011 136.969 120.993 136.963C120.952 136.951 120.912 136.94 120.87 136.925C120.842 136.914 120.818 136.901 120.789 136.887C120.769 136.877 120.748 136.863 120.729 136.853C120.694 136.832 120.659 136.811 120.625 136.785C120.582 136.75 120.541 136.711 120.503 136.67C120.49 136.654 120.473 136.64 120.462 136.619C120.388 136.529 120.33 136.426 120.292 136.308C120.285 136.286 120.276 136.26 120.273 136.237ZM117.501 127.669C117.499 127.65 117.496 127.63 117.494 127.611C117.485 127.532 117.488 127.454 117.501 127.381C117.505 127.343 117.514 127.308 117.526 127.271C117.534 127.232 117.542 127.197 117.56 127.162C117.578 127.116 117.6 127.072 117.623 127.032C117.642 127.002 117.658 126.976 117.677 126.946C117.712 126.893 117.758 126.846 117.805 126.802C117.82 126.785 117.836 126.772 117.855 126.757C117.883 126.732 117.913 126.71 117.948 126.691C117.971 126.675 117.994 126.66 118.022 126.646C118.036 126.638 118.046 126.63 118.061 126.626C118.072 126.622 118.085 126.614 118.096 126.61C118.121 126.598 118.147 126.59 118.176 126.58C118.694 126.412 119.259 126.7 119.428 127.218C119.597 127.74 119.308 128.302 118.79 128.47C118.735 128.488 118.682 128.501 118.627 128.507C118.611 128.508 118.596 128.513 118.584 128.513C118.577 128.515 118.568 128.514 118.561 128.516C118.542 128.518 118.522 128.521 118.501 128.519C118.497 128.521 118.497 128.521 118.496 128.517C118.476 128.519 118.456 128.518 118.435 128.516C118.414 128.515 118.394 128.517 118.376 128.511C118.338 128.507 118.3 128.499 118.261 128.492C118.243 128.489 118.226 128.487 118.208 128.48C118.208 128.48 118.203 128.478 118.199 128.479C118.171 128.468 118.145 128.46 118.116 128.449C118.092 128.437 118.064 128.425 118.035 128.411C118.011 128.398 117.986 128.386 117.96 128.37C117.93 128.351 117.899 128.329 117.872 128.309C117.828 128.275 117.787 128.235 117.749 128.195C117.736 128.178 117.719 128.164 117.708 128.143C117.634 128.053 117.576 127.95 117.538 127.832C117.52 127.777 117.507 127.724 117.501 127.669ZM118.896 132.001C118.891 131.986 118.888 131.975 118.888 131.963C118.878 131.934 118.878 131.905 118.873 131.878C118.874 131.87 118.87 131.859 118.872 131.85C118.869 131.827 118.868 131.803 118.869 131.778C118.866 131.746 118.866 131.718 118.872 131.688C118.872 131.675 118.872 131.663 118.873 131.655C118.878 131.605 118.889 131.552 118.905 131.502C118.912 131.484 118.914 131.467 118.92 131.448C118.934 131.403 118.952 131.357 118.974 131.313C119.018 131.225 119.078 131.145 119.144 131.075C119.163 131.056 119.182 131.042 119.201 131.024C119.21 131.013 119.219 131.006 119.229 130.998C119.238 130.987 119.249 130.984 119.259 130.977C119.313 130.931 119.375 130.894 119.442 130.864C119.477 130.849 119.513 130.833 119.55 130.821C120.072 130.651 120.632 130.937 120.802 131.459C120.972 131.981 120.686 132.542 120.164 132.711C120.127 132.723 120.089 132.731 120.051 132.74C119.968 132.758 119.884 132.762 119.801 132.756C119.788 132.756 119.776 132.756 119.763 132.752C119.747 132.753 119.726 132.752 119.708 132.745C119.691 132.743 119.678 132.743 119.66 132.737C119.647 132.737 119.634 132.733 119.616 132.726C119.576 132.715 119.535 132.704 119.494 132.689C119.466 132.678 119.442 132.665 119.412 132.65C119.393 132.641 119.372 132.627 119.352 132.617C119.318 132.596 119.282 132.575 119.249 132.549C119.205 132.514 119.164 132.475 119.126 132.434C119.114 132.418 119.096 132.404 119.086 132.383C119.011 132.293 118.954 132.19 118.916 132.072C118.908 132.05 118.9 132.024 118.896 132.001ZM120.273 136.237C120.268 136.222 120.264 136.211 120.264 136.199C120.255 136.17 120.254 136.141 120.249 136.114C120.25 136.106 120.247 136.095 120.248 136.086C120.245 136.063 120.245 136.039 120.245 136.014C120.243 135.982 120.242 135.954 120.248 135.924C120.249 135.911 120.248 135.899 120.25 135.891C120.254 135.841 120.265 135.788 120.281 135.738C120.288 135.72 120.29 135.703 120.296 135.685C120.311 135.639 120.328 135.593 120.35 135.549C120.395 135.462 120.454 135.381 120.52 135.311C120.539 135.293 120.559 135.278 120.577 135.26C120.586 135.249 120.596 135.242 120.606 135.234C120.614 135.223 120.625 135.22 120.635 135.213C120.689 135.167 120.751 135.13 120.818 135.1C120.854 135.085 120.89 135.069 120.926 135.057C121.448 134.888 122.009 135.173 122.178 135.695C122.348 136.217 122.062 136.778 121.54 136.947C121.504 136.959 121.465 136.967 121.427 136.976C121.344 136.995 121.26 136.998 121.177 136.992C121.164 136.992 121.152 136.992 121.139 136.988C121.123 136.989 121.102 136.988 121.084 136.982C121.067 136.979 121.055 136.979 121.036 136.973C121.024 136.973 121.011 136.969 120.993 136.963C120.952 136.951 120.912 136.94 120.87 136.925C120.842 136.914 120.818 136.901 120.789 136.887C120.769 136.877 120.748 136.863 120.729 136.853C120.694 136.832 120.659 136.811 120.625 136.785C120.582 136.75 120.541 136.711 120.503 136.67C120.49 136.654 120.473 136.64 120.462 136.619C120.388 136.529 120.33 136.426 120.292 136.308C120.285 136.286 120.276 136.26 120.273 136.237ZM117.501 127.669C117.499 127.65 117.496 127.63 117.494 127.611C117.485 127.532 117.488 127.454 117.501 127.381C117.505 127.343 117.514 127.308 117.526 127.271C117.534 127.232 117.542 127.197 117.56 127.162C117.578 127.116 117.6 127.072 117.623 127.032C117.642 127.002 117.658 126.976 117.677 126.946C117.712 126.893 117.758 126.846 117.805 126.802C117.82 126.785 117.836 126.772 117.855 126.757C117.883 126.732 117.913 126.71 117.948 126.691C117.971 126.675 117.994 126.66 118.022 126.646C118.036 126.638 118.046 126.63 118.061 126.626C118.072 126.622 118.085 126.614 118.096 126.61C118.121 126.598 118.147 126.59 118.176 126.58C118.694 126.412 119.259 126.7 119.428 127.218C119.597 127.74 119.308 128.302 118.79 128.47C118.735 128.488 118.682 128.501 118.627 128.507C118.611 128.508 118.596 128.513 118.584 128.513C118.577 128.515 118.568 128.514 118.561 128.516C118.542 128.518 118.522 128.521 118.501 128.519C118.497 128.521 118.497 128.521 118.496 128.517C118.476 128.519 118.456 128.518 118.435 128.516C118.414 128.515 118.394 128.517 118.376 128.511C118.338 128.507 118.3 128.499 118.261 128.492C118.243 128.489 118.226 128.487 118.208 128.48C118.208 128.48 118.203 128.478 118.199 128.479C118.171 128.468 118.145 128.46 118.116 128.449C118.092 128.437 118.064 128.425 118.035 128.411C118.011 128.398 117.986 128.386 117.96 128.37C117.93 128.351 117.899 128.329 117.872 128.309C117.828 128.275 117.787 128.235 117.749 128.195C117.736 128.178 117.719 128.164 117.708 128.143C117.634 128.053 117.576 127.95 117.538 127.832C117.52 127.777 117.507 127.724 117.501 127.669ZM118.896 132.001C118.891 131.986 118.888 131.975 118.888 131.963C118.878 131.934 118.878 131.905 118.873 131.878C118.874 131.87 118.87 131.859 118.872 131.85C118.869 131.827 118.868 131.803 118.869 131.778C118.866 131.746 118.866 131.718 118.872 131.688C118.872 131.675 118.872 131.663 118.873 131.655C118.878 131.605 118.889 131.552 118.905 131.502C118.912 131.484 118.914 131.467 118.92 131.448C118.934 131.403 118.952 131.357 118.974 131.313C119.018 131.225 119.078 131.145 119.144 131.075C119.163 131.056 119.182 131.042 119.201 131.024C119.21 131.013 119.219 131.006 119.229 130.998C119.238 130.987 119.249 130.984 119.259 130.977C119.313 130.931 119.375 130.894 119.442 130.864C119.477 130.849 119.513 130.833 119.55 130.821C120.072 130.651 120.632 130.937 120.802 131.459C120.972 131.981 120.686 132.542 120.164 132.711C120.127 132.723 120.089 132.731 120.051 132.74C119.968 132.758 119.884 132.762 119.801 132.756C119.788 132.756 119.776 132.756 119.763 132.752C119.747 132.753 119.726 132.752 119.708 132.745C119.691 132.743 119.678 132.743 119.66 132.737C119.647 132.737 119.634 132.733 119.616 132.726C119.576 132.715 119.535 132.704 119.494 132.689C119.466 132.678 119.442 132.665 119.412 132.65C119.393 132.641 119.372 132.627 119.352 132.617C119.318 132.596 119.282 132.575 119.249 132.549C119.205 132.514 119.164 132.475 119.126 132.434C119.114 132.418 119.096 132.404 119.086 132.383C119.011 132.293 118.954 132.19 118.916 132.072C118.908 132.05 118.9 132.024 118.896 132.001ZM120.273 136.237C120.268 136.222 120.264 136.211 120.264 136.199C120.255 136.17 120.254 136.141 120.249 136.114C120.25 136.106 120.247 136.095 120.248 136.086C120.245 136.063 120.245 136.039 120.245 136.014C120.243 135.982 120.242 135.954 120.248 135.924C120.249 135.911 120.248 135.899 120.25 135.891C120.254 135.841 120.265 135.788 120.281 135.738C120.288 135.72 120.29 135.703 120.296 135.685C120.311 135.639 120.328 135.593 120.35 135.549C120.395 135.462 120.454 135.381 120.52 135.311C120.539 135.293 120.559 135.278 120.577 135.26C120.586 135.249 120.596 135.242 120.606 135.234C120.614 135.223 120.625 135.22 120.635 135.213C120.689 135.167 120.751 135.13 120.818 135.1C120.854 135.085 120.89 135.069 120.926 135.057C121.448 134.888 122.009 135.173 122.178 135.695C122.348 136.217 122.062 136.778 121.54 136.947C121.504 136.959 121.465 136.967 121.427 136.976C121.344 136.995 121.26 136.998 121.177 136.992C121.164 136.992 121.152 136.992 121.139 136.988C121.123 136.989 121.102 136.988 121.084 136.982C121.067 136.979 121.055 136.979 121.036 136.973C121.024 136.973 121.011 136.969 120.993 136.963C120.952 136.951 120.912 136.94 120.87 136.925C120.842 136.914 120.818 136.901 120.789 136.887C120.769 136.877 120.748 136.863 120.729 136.853C120.694 136.832 120.659 136.811 120.625 136.785C120.582 136.75 120.541 136.711 120.503 136.67C120.49 136.654 120.473 136.64 120.462 136.619C120.388 136.529 120.33 136.426 120.292 136.308C120.285 136.286 120.276 136.26 120.273 136.237ZM117.501 127.669C117.499 127.65 117.496 127.63 117.494 127.611C117.485 127.532 117.488 127.454 117.501 127.381C117.505 127.343 117.514 127.308 117.526 127.271C117.534 127.232 117.542 127.197 117.56 127.162C117.578 127.116 117.6 127.072 117.623 127.032C117.642 127.002 117.658 126.976 117.677 126.946C117.712 126.893 117.758 126.846 117.805 126.802C117.82 126.785 117.836 126.772 117.855 126.757C117.883 126.732 117.913 126.71 117.948 126.691C117.971 126.675 117.994 126.66 118.022 126.646C118.036 126.638 118.046 126.63 118.061 126.626C118.072 126.622 118.085 126.614 118.096 126.61C118.121 126.598 118.147 126.59 118.176 126.58C118.694 126.412 119.259 126.7 119.428 127.218C119.597 127.74 119.308 128.302 118.79 128.47C118.735 128.488 118.682 128.501 118.627 128.507C118.611 128.508 118.596 128.513 118.584 128.513C118.577 128.515 118.568 128.514 118.561 128.516C118.542 128.518 118.522 128.521 118.501 128.519C118.497 128.521 118.497 128.521 118.496 128.517C118.476 128.519 118.456 128.518 118.435 128.516C118.414 128.515 118.394 128.517 118.376 128.511C118.338 128.507 118.3 128.499 118.261 128.492C118.243 128.489 118.226 128.487 118.208 128.48C118.208 128.48 118.203 128.478 118.199 128.479C118.171 128.468 118.145 128.46 118.116 128.449C118.092 128.437 118.064 128.425 118.035 128.411C118.011 128.398 117.986 128.386 117.96 128.37C117.93 128.351 117.899 128.329 117.872 128.309C117.828 128.275 117.787 128.235 117.749 128.195C117.736 128.178 117.719 128.164 117.708 128.143C117.634 128.053 117.576 127.95 117.538 127.832C117.52 127.777 117.507 127.724 117.501 127.669ZM118.896 132.001C118.891 131.986 118.888 131.975 118.888 131.963C118.878 131.934 118.878 131.905 118.873 131.878C118.874 131.87 118.87 131.859 118.872 131.85C118.869 131.827 118.868 131.803 118.869 131.778C118.866 131.746 118.866 131.718 118.872 131.688C118.872 131.675 118.872 131.663 118.873 131.655C118.878 131.605 118.889 131.552 118.905 131.502C118.912 131.484 118.914 131.467 118.92 131.448C118.934 131.403 118.952 131.357 118.974 131.313C119.018 131.225 119.078 131.145 119.144 131.075C119.163 131.056 119.182 131.042 119.201 131.024C119.21 131.013 119.219 131.006 119.229 130.998C119.238 130.987 119.249 130.984 119.259 130.977C119.313 130.931 119.375 130.894 119.442 130.864C119.477 130.849 119.513 130.833 119.55 130.821C120.072 130.651 120.632 130.937 120.802 131.459C120.972 131.981 120.686 132.542 120.164 132.711C120.127 132.723 120.089 132.731 120.051 132.74C119.968 132.758 119.884 132.762 119.801 132.756C119.788 132.756 119.776 132.756 119.763 132.752C119.747 132.753 119.726 132.752 119.708 132.745C119.691 132.743 119.678 132.743 119.66 132.737C119.647 132.737 119.634 132.733 119.616 132.726C119.576 132.715 119.535 132.704 119.494 132.689C119.466 132.678 119.442 132.665 119.412 132.65C119.393 132.641 119.372 132.627 119.352 132.617C119.318 132.596 119.282 132.575 119.249 132.549C119.205 132.514 119.164 132.475 119.126 132.434C119.114 132.418 119.096 132.404 119.086 132.383C119.011 132.293 118.954 132.19 118.916 132.072C118.908 132.05 118.9 132.024 118.896 132.001ZM120.273 136.237C120.268 136.222 120.264 136.211 120.264 136.199C120.255 136.17 120.254 136.141 120.249 136.114C120.25 136.106 120.247 136.095 120.248 136.086C120.245 136.063 120.245 136.039 120.245 136.014C120.243 135.982 120.242 135.954 120.248 135.924C120.249 135.911 120.248 135.899 120.25 135.891C120.254 135.841 120.265 135.788 120.281 135.738C120.288 135.72 120.29 135.703 120.296 135.685C120.311 135.639 120.328 135.593 120.35 135.549C120.395 135.462 120.454 135.381 120.52 135.311C120.539 135.293 120.559 135.278 120.577 135.26C120.586 135.249 120.596 135.242 120.606 135.234C120.614 135.223 120.625 135.22 120.635 135.213C120.689 135.167 120.751 135.13 120.818 135.1C120.854 135.085 120.89 135.069 120.926 135.057C121.448 134.888 122.009 135.173 122.178 135.695C122.348 136.217 122.062 136.778 121.54 136.947C121.504 136.959 121.465 136.967 121.427 136.976C121.344 136.995 121.26 136.998 121.177 136.992C121.164 136.992 121.152 136.992 121.139 136.988C121.123 136.989 121.102 136.988 121.084 136.982C121.067 136.979 121.055 136.979 121.036 136.973C121.024 136.973 121.011 136.969 120.993 136.963C120.952 136.951 120.912 136.94 120.87 136.925C120.842 136.914 120.818 136.901 120.789 136.887C120.769 136.877 120.748 136.863 120.729 136.853C120.694 136.832 120.659 136.811 120.625 136.785C120.582 136.75 120.541 136.711 120.503 136.67C120.49 136.654 120.473 136.64 120.462 136.619C120.388 136.529 120.33 136.426 120.292 136.308C120.285 136.286 120.276 136.26 120.273 136.237ZM117.501 127.669C117.499 127.65 117.496 127.63 117.494 127.611C117.485 127.532 117.488 127.454 117.501 127.381C117.505 127.343 117.514 127.308 117.526 127.271C117.534 127.232 117.542 127.197 117.56 127.162C117.578 127.116 117.6 127.072 117.623 127.032C117.642 127.002 117.658 126.976 117.677 126.946C117.712 126.893 117.758 126.846 117.805 126.802C117.82 126.785 117.836 126.772 117.855 126.757C117.883 126.732 117.913 126.71 117.948 126.691C117.971 126.675 117.994 126.66 118.022 126.646C118.036 126.638 118.046 126.63 118.061 126.626C118.072 126.622 118.085 126.614 118.096 126.61C118.121 126.598 118.147 126.59 118.176 126.58C118.694 126.412 119.259 126.7 119.428 127.218C119.597 127.74 119.308 128.302 118.79 128.47C118.735 128.488 118.682 128.501 118.627 128.507C118.611 128.508 118.596 128.513 118.584 128.513C118.577 128.515 118.568 128.514 118.561 128.516C118.542 128.518 118.522 128.521 118.501 128.519C118.497 128.521 118.497 128.521 118.496 128.517C118.476 128.519 118.456 128.518 118.435 128.516C118.414 128.515 118.394 128.517 118.376 128.511C118.338 128.507 118.3 128.499 118.261 128.492C118.243 128.489 118.226 128.487 118.208 128.48C118.208 128.48 118.203 128.478 118.199 128.479C118.171 128.468 118.145 128.46 118.116 128.449C118.092 128.437 118.064 128.425 118.035 128.411C118.011 128.398 117.986 128.386 117.96 128.37C117.93 128.351 117.899 128.329 117.872 128.309C117.828 128.275 117.787 128.235 117.749 128.195C117.736 128.178 117.719 128.164 117.708 128.143C117.634 128.053 117.576 127.95 117.538 127.832C117.52 127.777 117.507 127.724 117.501 127.669ZM118.896 132.001C118.891 131.986 118.888 131.975 118.888 131.963C118.878 131.934 118.878 131.905 118.873 131.878C118.874 131.87 118.87 131.859 118.872 131.85C118.869 131.827 118.868 131.803 118.869 131.778C118.866 131.746 118.866 131.718 118.872 131.688C118.872 131.675 118.872 131.663 118.873 131.655C118.878 131.605 118.889 131.552 118.905 131.502C118.912 131.484 118.914 131.467 118.92 131.448C118.934 131.403 118.952 131.357 118.974 131.313C119.018 131.225 119.078 131.145 119.144 131.075C119.163 131.056 119.182 131.042 119.201 131.024C119.21 131.013 119.219 131.006 119.229 130.998C119.238 130.987 119.249 130.984 119.259 130.977C119.313 130.931 119.375 130.894 119.442 130.864C119.477 130.849 119.513 130.833 119.55 130.821C120.072 130.651 120.632 130.937 120.802 131.459C120.972 131.981 120.686 132.542 120.164 132.711C120.127 132.723 120.089 132.731 120.051 132.74C119.968 132.758 119.884 132.762 119.801 132.756C119.788 132.756 119.776 132.756 119.763 132.752C119.747 132.753 119.726 132.752 119.708 132.745C119.691 132.743 119.678 132.743 119.66 132.737C119.647 132.737 119.634 132.733 119.616 132.726C119.576 132.715 119.535 132.704 119.494 132.689C119.466 132.678 119.442 132.665 119.412 132.65C119.393 132.641 119.372 132.627 119.352 132.617C119.318 132.596 119.282 132.575 119.249 132.549C119.205 132.514 119.164 132.475 119.126 132.434C119.114 132.418 119.096 132.404 119.086 132.383C119.011 132.293 118.954 132.19 118.916 132.072C118.908 132.05 118.9 132.024 118.896 132.001ZM120.273 136.237C120.268 136.222 120.264 136.211 120.264 136.199C120.255 136.17 120.254 136.141 120.249 136.114C120.25 136.106 120.247 136.095 120.248 136.086C120.245 136.063 120.245 136.039 120.245 136.014C120.243 135.982 120.242 135.954 120.248 135.924C120.249 135.911 120.248 135.899 120.25 135.891C120.254 135.841 120.265 135.788 120.281 135.738C120.288 135.72 120.29 135.703 120.296 135.685C120.311 135.639 120.328 135.593 120.35 135.549C120.395 135.462 120.454 135.381 120.52 135.311C120.539 135.293 120.559 135.278 120.577 135.26C120.586 135.249 120.596 135.242 120.606 135.234C120.614 135.223 120.625 135.22 120.635 135.213C120.689 135.167 120.751 135.13 120.818 135.1C120.854 135.085 120.89 135.069 120.926 135.057C121.448 134.888 122.009 135.173 122.178 135.695C122.348 136.217 122.062 136.778 121.54 136.947C121.504 136.959 121.465 136.967 121.427 136.976C121.344 136.995 121.26 136.998 121.177 136.992C121.164 136.992 121.152 136.992 121.139 136.988C121.123 136.989 121.102 136.988 121.084 136.982C121.067 136.979 121.055 136.979 121.036 136.973C121.024 136.973 121.011 136.969 120.993 136.963C120.952 136.951 120.912 136.94 120.87 136.925C120.842 136.914 120.818 136.901 120.789 136.887C120.769 136.877 120.748 136.863 120.729 136.853C120.694 136.832 120.659 136.811 120.625 136.785C120.582 136.75 120.541 136.711 120.503 136.67C120.49 136.654 120.473 136.64 120.462 136.619C120.388 136.529 120.33 136.426 120.292 136.308C120.285 136.286 120.276 136.26 120.273 136.237ZM117.501 127.669C117.499 127.65 117.496 127.63 117.494 127.611C117.485 127.532 117.488 127.454 117.501 127.381C117.505 127.343 117.514 127.308 117.526 127.271C117.534 127.232 117.542 127.197 117.56 127.162C117.578 127.116 117.6 127.072 117.623 127.032C117.642 127.002 117.658 126.976 117.677 126.946C117.712 126.893 117.758 126.846 117.805 126.802C117.82 126.785 117.836 126.772 117.855 126.757C117.883 126.732 117.913 126.71 117.948 126.691C117.971 126.675 117.994 126.66 118.022 126.646C118.036 126.638 118.046 126.63 118.061 126.626C118.072 126.622 118.085 126.614 118.096 126.61C118.121 126.598 118.147 126.59 118.176 126.58C118.694 126.412 119.259 126.7 119.428 127.218C119.597 127.74 119.308 128.302 118.79 128.47C118.735 128.488 118.682 128.501 118.627 128.507C118.611 128.508 118.596 128.513 118.584 128.513C118.577 128.515 118.568 128.514 118.561 128.516C118.542 128.518 118.522 128.521 118.501 128.519C118.497 128.521 118.497 128.521 118.496 128.517C118.476 128.519 118.456 128.518 118.435 128.516C118.414 128.515 118.394 128.517 118.376 128.511C118.338 128.507 118.3 128.499 118.261 128.492C118.243 128.489 118.226 128.487 118.208 128.48C118.208 128.48 118.203 128.478 118.199 128.479C118.171 128.468 118.145 128.46 118.116 128.449C118.092 128.437 118.064 128.425 118.035 128.411C118.011 128.398 117.986 128.386 117.96 128.37C117.93 128.351 117.899 128.329 117.872 128.309C117.828 128.275 117.787 128.235 117.749 128.195C117.736 128.178 117.719 128.164 117.708 128.143C117.634 128.053 117.576 127.95 117.538 127.832C117.52 127.777 117.507 127.724 117.501 127.669ZM118.896 132.001C118.891 131.986 118.888 131.975 118.888 131.963C118.878 131.934 118.878 131.905 118.873 131.878C118.874 131.87 118.87 131.859 118.872 131.85C118.869 131.827 118.868 131.803 118.869 131.778C118.866 131.746 118.866 131.718 118.872 131.688C118.872 131.675 118.872 131.663 118.873 131.655C118.878 131.605 118.889 131.552 118.905 131.502C118.912 131.484 118.914 131.467 118.92 131.448C118.934 131.403 118.952 131.357 118.974 131.313C119.018 131.225 119.078 131.145 119.144 131.075C119.163 131.056 119.182 131.042 119.201 131.024C119.21 131.013 119.219 131.006 119.229 130.998C119.238 130.987 119.249 130.984 119.259 130.977C119.313 130.931 119.375 130.894 119.442 130.864C119.477 130.849 119.513 130.833 119.55 130.821C120.072 130.651 120.632 130.937 120.802 131.459C120.972 131.981 120.686 132.542 120.164 132.711C120.127 132.723 120.089 132.731 120.051 132.74C119.968 132.758 119.884 132.762 119.801 132.756C119.788 132.756 119.776 132.756 119.763 132.752C119.747 132.753 119.726 132.752 119.708 132.745C119.691 132.743 119.678 132.743 119.66 132.737C119.647 132.737 119.634 132.733 119.616 132.726C119.576 132.715 119.535 132.704 119.494 132.689C119.466 132.678 119.442 132.665 119.412 132.65C119.393 132.641 119.372 132.627 119.352 132.617C119.318 132.596 119.282 132.575 119.249 132.549C119.205 132.514 119.164 132.475 119.126 132.434C119.114 132.418 119.096 132.404 119.086 132.383C119.011 132.293 118.954 132.19 118.916 132.072C118.908 132.05 118.9 132.024 118.896 132.001ZM120.273 136.237C120.268 136.222 120.264 136.211 120.264 136.199C120.255 136.17 120.254 136.141 120.249 136.114C120.25 136.106 120.247 136.095 120.248 136.086C120.245 136.063 120.245 136.039 120.245 136.014C120.243 135.982 120.242 135.954 120.248 135.924C120.249 135.911 120.248 135.899 120.25 135.891C120.254 135.841 120.265 135.788 120.281 135.738C120.288 135.72 120.29 135.703 120.296 135.685C120.311 135.639 120.328 135.593 120.35 135.549C120.395 135.462 120.454 135.381 120.52 135.311C120.539 135.293 120.559 135.278 120.577 135.26C120.586 135.249 120.596 135.242 120.606 135.234C120.614 135.223 120.625 135.22 120.635 135.213C120.689 135.167 120.751 135.13 120.818 135.1C120.854 135.085 120.89 135.069 120.926 135.057C121.448 134.888 122.009 135.173 122.178 135.695C122.348 136.217 122.062 136.778 121.54 136.947C121.504 136.959 121.465 136.967 121.427 136.976C121.344 136.995 121.26 136.998 121.177 136.992C121.164 136.992 121.152 136.992 121.139 136.988C121.123 136.989 121.102 136.988 121.084 136.982C121.067 136.979 121.055 136.979 121.036 136.973C121.024 136.973 121.011 136.969 120.993 136.963C120.952 136.951 120.912 136.94 120.87 136.925C120.842 136.914 120.818 136.901 120.789 136.887C120.769 136.877 120.748 136.863 120.729 136.853C120.694 136.832 120.659 136.811 120.625 136.785C120.582 136.75 120.541 136.711 120.503 136.67C120.49 136.654 120.473 136.64 120.462 136.619C120.388 136.529 120.33 136.426 120.292 136.308C120.285 136.286 120.276 136.26 120.273 136.237Z" fill="#FF90A0"/>
<path fill-rule="evenodd" clip-rule="evenodd" d="M103.009 125.029L134.117 114.922C134.117 114.922 140.745 119.252 147.032 132.93C153.317 146.609 178.755 188.612 178.755 188.612C178.752 188.617 178.752 188.617 178.749 188.622L178.648 189.02L176.835 196.48C176.793 196.574 176.151 197.365 176.102 197.45C176.019 197.595 175.906 197.7 175.764 197.812C175.719 197.851 174.494 198.709 174.445 198.745L167.828 201.666L165.98 202.133L163.794 203.087L156.3 206.36C155.154 206.862 153.744 206.991 152.437 206.733C152.428 206.731 152.42 206.73 152.411 206.729L152.405 206.71C152.398 206.713 152.395 206.718 152.394 206.726C150.615 206.357 149.04 205.263 148.619 203.379C148.265 201.799 147.733 200 147.058 198.036L147.049 198.007L139.723 182.057L139.728 182.071C139.728 182.071 144.397 196.755 145.191 201.16C145.15 201.185 141.048 203.911 141.007 203.937L138.789 205.174L134.203 207.536C134.01 207.644 133.097 207.845 132.901 207.942C132.895 207.948 132.884 207.951 132.873 207.955C132.273 208.198 131.665 208.429 131.053 208.635C130.821 208.719 130.589 208.795 130.357 208.87C129.7 209.075 129.013 209.188 128.326 209.249C127.635 209.311 126.942 209.321 126.247 209.283C124.86 209.217 123.48 208.986 122.124 208.667C119.412 208.015 116.769 207.049 114.244 205.848C114.239 205.846 114.235 205.844 114.232 205.848L103.009 125.029Z" fill="#FF90A0"/>
<path fill-rule="evenodd" clip-rule="evenodd" d="M106.628 141.141C106.656 141.152 106.686 141.155 106.712 141.15C106.717 141.153 106.724 141.15 106.728 141.149C106.769 141.136 106.805 141.108 106.819 141.067C110.425 132.833 107.231 124.854 107.197 124.776C107.17 124.703 107.086 124.67 107.016 124.692L107.009 124.695C106.933 124.724 106.895 124.809 106.931 124.883C106.961 124.962 110.052 132.698 106.642 140.734C106.617 140.807 106.586 140.874 106.554 140.95C106.524 141.02 106.556 141.107 106.628 141.141Z" fill="#672448"/>
<path fill-rule="evenodd" clip-rule="evenodd" d="M125.074 118.828C130.058 133.827 145.109 133.819 145.259 133.819C145.275 133.818 145.29 133.813 145.301 133.81C145.308 133.807 145.315 133.805 145.318 133.8C145.372 133.779 145.404 133.727 145.402 133.671C145.4 133.591 145.335 133.526 145.258 133.527C145.254 133.528 145.23 133.528 145.193 133.528C144.127 133.512 130.102 133.037 125.35 118.738C125.325 118.661 125.242 118.619 125.168 118.642L125.165 118.644C125.092 118.671 125.049 118.75 125.074 118.828Z" fill="#672448"/>
<path fill-rule="evenodd" clip-rule="evenodd" d="M119.874 137.783L120.109 138.483L120.242 138.44L121.236 138.109L121.243 138.106L123.573 137.333C122.828 135.164 122.106 132.992 121.409 130.808C121.05 129.693 120.692 128.577 120.348 127.457L119.347 124.213C118.16 124.575 116.945 124.916 115.703 125.287L119.874 137.783ZM115.665 125.267L115.679 125.263C116.303 125.044 116.933 124.815 117.57 124.587C117.861 124.481 118.152 124.378 118.444 124.275C118.605 124.218 118.765 124.162 118.926 124.106C119.079 124.052 119.232 123.998 119.389 123.943C119.452 123.923 119.524 123.957 119.544 124.019L119.545 124.023L120.679 127.35C121.06 128.458 121.425 129.571 121.791 130.684C122.526 132.908 123.235 135.142 123.919 137.383L123.92 137.387C123.945 137.464 123.901 137.552 123.82 137.578L123.322 137.736L121.262 138.389L121.25 138.392L120.421 138.654L120.064 138.77C119.998 138.791 119.925 138.754 119.907 138.687L115.665 125.267ZM120.269 138.573L120.242 138.44L121.236 138.109L121.25 138.392L120.421 138.654L120.296 138.694L120.269 138.573Z" fill="#672448"/>
<path fill-rule="evenodd" clip-rule="evenodd" d="M117.71 128.14C117.721 128.161 117.738 128.176 117.751 128.192C117.789 128.232 117.83 128.272 117.874 128.306C117.879 128.309 117.885 128.315 117.894 128.32C117.938 128.355 117.988 128.383 118.037 128.408C118.09 128.435 118.147 128.458 118.2 128.473C118.259 128.49 118.32 128.503 118.378 128.508C118.397 128.515 118.416 128.512 118.437 128.514C118.487 128.518 118.536 128.518 118.586 128.51C118.599 128.51 118.613 128.505 118.629 128.504C118.684 128.498 118.737 128.485 118.792 128.467C119.31 128.299 119.6 127.738 119.43 127.215C119.262 126.697 118.696 126.409 118.178 126.577C118.123 126.595 118.072 126.616 118.025 126.644C117.996 126.657 117.973 126.672 117.95 126.688C117.915 126.707 117.886 126.729 117.857 126.755C117.838 126.769 117.822 126.783 117.807 126.8C117.76 126.843 117.715 126.891 117.679 126.943C117.66 126.973 117.644 126.999 117.625 127.029C117.602 127.069 117.58 127.113 117.562 127.16C117.557 127.169 117.552 127.179 117.548 127.193C117.532 127.243 117.52 127.291 117.508 127.344C117.495 127.405 117.493 127.471 117.493 127.536C117.493 127.56 117.493 127.585 117.496 127.608C117.499 127.627 117.501 127.647 117.503 127.667C117.503 127.679 117.508 127.694 117.509 127.709C117.513 127.72 117.513 127.733 117.517 127.747C117.522 127.774 117.532 127.804 117.54 127.83C117.578 127.947 117.636 128.05 117.71 128.14ZM119.088 132.38C119.098 132.401 119.115 132.416 119.129 132.432C119.166 132.472 119.207 132.512 119.251 132.546C119.284 132.572 119.319 132.593 119.355 132.614C119.391 132.639 119.435 132.661 119.481 132.679C119.488 132.685 119.492 132.687 119.496 132.686C119.538 132.701 119.577 132.713 119.618 132.724C119.636 132.73 119.65 132.734 119.662 132.734C119.68 132.74 119.693 132.74 119.71 132.743C119.728 132.749 119.749 132.75 119.765 132.749C119.787 132.754 119.816 132.757 119.839 132.754C119.877 132.758 119.917 132.757 119.96 132.751C119.972 132.751 119.985 132.751 119.999 132.746C120.015 132.745 120.035 132.743 120.053 132.737C120.091 132.729 120.129 132.72 120.166 132.708C120.688 132.539 120.974 131.978 120.804 131.456C120.634 130.934 120.074 130.649 119.552 130.818C119.515 130.83 119.479 130.846 119.444 130.862C119.425 130.868 119.408 130.877 119.395 130.886C119.384 130.889 119.37 130.898 119.36 130.905C119.322 130.925 119.289 130.948 119.261 130.974C119.24 130.985 119.218 131.004 119.203 131.021C119.155 131.061 119.116 131.102 119.079 131.151C119.058 131.174 119.038 131.201 119.023 131.23C119.007 131.256 118.991 131.281 118.976 131.31C118.954 131.354 118.936 131.401 118.922 131.446C118.913 131.481 118.899 131.514 118.894 131.548C118.885 131.58 118.879 131.614 118.875 131.652C118.874 131.661 118.874 131.673 118.874 131.685C118.862 131.811 118.876 131.941 118.918 132.069C118.956 132.187 119.014 132.29 119.088 132.38ZM120.464 136.616C120.475 136.637 120.492 136.652 120.505 136.668C120.543 136.708 120.584 136.748 120.628 136.782C120.661 136.808 120.696 136.829 120.731 136.85C120.768 136.875 120.811 136.897 120.857 136.915C120.864 136.921 120.869 136.923 120.872 136.922C120.914 136.937 120.954 136.949 120.994 136.96C121.013 136.966 121.026 136.97 121.038 136.97C121.057 136.976 121.069 136.976 121.086 136.979C121.104 136.985 121.125 136.987 121.141 136.985C121.163 136.991 121.192 136.993 121.216 136.99C121.253 136.994 121.294 136.993 121.337 136.987C121.349 136.987 121.361 136.987 121.376 136.982C121.392 136.981 121.411 136.979 121.43 136.973C121.467 136.965 121.506 136.956 121.542 136.944C122.064 136.775 122.35 136.215 122.18 135.692C122.011 135.17 121.45 134.885 120.928 135.054C120.891 135.066 120.855 135.082 120.82 135.098C120.802 135.104 120.785 135.113 120.771 135.122C120.76 135.125 120.747 135.134 120.737 135.141C120.699 135.162 120.666 135.184 120.637 135.21C120.616 135.221 120.594 135.24 120.579 135.257C120.531 135.297 120.492 135.338 120.455 135.387C120.434 135.41 120.414 135.437 120.399 135.466C120.383 135.492 120.367 135.517 120.352 135.546C120.33 135.59 120.312 135.637 120.299 135.682C120.29 135.717 120.276 135.75 120.271 135.784C120.261 135.816 120.256 135.85 120.252 135.888C120.251 135.897 120.25 135.909 120.25 135.921C120.238 136.047 120.252 136.177 120.294 136.305C120.332 136.423 120.39 136.526 120.464 136.616ZM119.346 124.206L120.348 127.45C120.691 128.57 121.049 129.685 121.408 130.801C122.105 132.985 122.827 135.157 123.573 137.325L121.242 138.099L121.185 137.284L121.235 138.101L120.241 138.432L120.109 138.475L119.873 137.775L115.703 125.28C116.945 124.909 118.159 124.567 119.346 124.206Z" fill="#FF90A0"/>
<path fill-rule="evenodd" clip-rule="evenodd" d="M117.539 127.832C117.709 128.354 118.269 128.639 118.791 128.47C119.31 128.301 119.599 127.74 119.429 127.217C119.261 126.699 118.695 126.411 118.177 126.58C117.655 126.749 117.371 127.313 117.539 127.832Z" fill="#672448"/>
<path fill-rule="evenodd" clip-rule="evenodd" d="M102.789 75.5794C102.883 75.4797 102.971 75.3778 103.065 75.2783C103.143 75.1919 103.219 75.1021 103.291 75.0098C103.218 75.0985 103.142 75.1882 103.064 75.2746C102.971 75.3778 102.881 75.4761 102.789 75.5794Z" fill="#EDB39D"/>
<path fill-rule="evenodd" clip-rule="evenodd" d="M94.1232 85.1287C94.1232 85.1287 94.124 85.1311 94.1264 85.1303L94.1256 85.1279L94.1232 85.1287Z" fill="#EDB39D"/>
<path fill-rule="evenodd" clip-rule="evenodd" d="M90.4428 89.0175C90.4884 88.9701 90.5344 88.9227 90.5833 88.8743C90.5985 88.8571 90.6133 88.8401 90.6277 88.8232C90.6121 88.8365 90.5932 88.8548 90.5784 88.8718C90.5332 88.919 90.4872 88.9665 90.4428 89.0175Z" fill="#EDB39D"/>
<path fill-rule="evenodd" clip-rule="evenodd" d="M80.5204 98.2168C81.2955 97.5869 82.0478 96.9481 82.7863 96.3057C82.0466 96.9444 81.2943 97.5832 80.5204 98.2168Z" fill="#EDB39D"/>
<path fill-rule="evenodd" clip-rule="evenodd" d="M65.2822 95.6556C67.3592 95.3426 69.4653 95.2558 71.5628 95.3915C71.6996 95.3998 71.8113 95.0302 71.6451 95.0192C69.5476 94.8836 67.4426 94.9739 65.3621 95.2882C65.2225 95.3091 65.1313 95.6802 65.2822 95.6556Z" fill="#EDB39D"/>
<path fill-rule="evenodd" clip-rule="evenodd" d="M28.4638 76.6358C28.5748 76.8396 28.6977 77.068 28.8328 77.3209C28.6989 77.0716 28.5796 76.8421 28.4638 76.6358Z" fill="#EDB39D"/>
<path fill-rule="evenodd" clip-rule="evenodd" d="M19.9515 68.5286C21.3781 69.9677 22.8976 71.3399 24.412 72.6976C25.4406 73.6237 26.5643 74.5798 27.7501 75.4141C27.8061 75.4488 27.969 75.7251 28.222 76.1795L39.7539 72.4326C38.7713 70.5972 37.6966 68.8162 36.3973 67.1569C34.5312 64.767 32.4019 62.2798 29.4505 61.2427C29.3358 61.2027 29.1983 61.1661 29.0951 61.2362C28.6386 61.5593 29.2301 63.1031 29.3763 63.4906C29.6436 64.2005 30.0429 64.9041 30.4234 65.5245C30.9306 66.3598 32.0633 67.7439 31.8816 68.7989C31.711 69.8138 30.6898 69.7228 29.4769 69.1941C29.4066 69.1641 29.3404 69.1368 29.2726 69.1019C29.2689 69.1031 29.2677 69.0994 29.2677 69.0994C27.5628 68.3077 25.571 66.7556 25.0396 66.2087C22.9589 64.0715 20.8849 62.7696 20.3959 63.2903C20.1063 63.5999 23.541 67.716 24.2997 68.8111C24.1606 68.7709 23.9741 68.6851 23.7562 68.5648C23.302 68.3181 22.7034 67.9272 22.0574 67.5029C22.0404 67.4881 22.0197 67.4745 22.0002 67.4645C20.3578 66.3761 18.4116 65.0531 17.6832 65.1149C16.8089 65.1754 19.7014 68.2846 19.9515 68.5286Z" fill="#EDB39D"/>
<path fill-rule="evenodd" clip-rule="evenodd" d="M65.2834 95.6571C67.3607 95.344 69.4668 95.2573 71.5635 95.3932C71.7004 95.4015 71.8124 95.0318 71.6458 95.0209C69.5491 94.885 67.4442 94.9754 65.3629 95.2898C65.2237 95.3107 65.1328 95.6817 65.2834 95.6571ZM107.266 107.079C106.479 109.876 105.546 112.634 104.448 115.324C103.751 117.031 102.982 118.707 102.146 120.349C101.653 121.31 101.136 122.259 100.593 123.191C100.52 123.317 100.571 123.475 100.658 123.451C100.684 123.446 100.715 123.416 100.75 123.36C100.861 123.165 100.977 122.969 101.087 122.771C101.158 122.65 101.223 122.527 101.294 122.407C101.615 121.831 101.926 121.25 102.228 120.664C103.268 118.647 104.197 116.577 105.024 114.467C106.092 111.737 106.99 108.945 107.755 106.119C108.519 103.277 109.148 100.398 109.67 97.5005L110.967 88.7167C111.314 85.7702 111.591 82.8183 111.829 79.8588C111.836 79.7793 111.8 79.7217 111.718 79.7443C111.635 79.7631 111.595 79.9022 111.586 79.9743C111.558 80.341 111.527 80.705 111.499 81.0716C111.252 83.9896 110.966 86.8998 110.601 89.8071C110.237 92.7388 109.796 95.6626 109.247 98.5648C108.702 101.429 108.053 104.274 107.266 107.079ZM122.123 130.046C121.984 130.08 121.9 130.448 122.045 130.417C123.797 130.019 125.539 129.575 127.268 129.078C130.297 128.216 133.281 127.202 136.21 126.043C139.16 124.877 142.048 123.568 144.869 122.115C144.988 122.056 145.049 121.683 144.886 121.768C143.315 122.575 141.726 123.34 140.11 124.06C134.33 126.641 128.3 128.649 122.123 130.046ZM118.198 131.066C115.62 131.651 113.041 132.237 110.46 132.824C110.324 132.856 110.236 133.226 110.38 133.191C112.962 132.604 115.541 132.022 118.119 131.437C118.259 131.404 118.346 131.034 118.198 131.066ZM102.086 64.2505C102.061 64.5229 111.287 61.9642 111.086 61.6435C116.427 60.5911 120.543 61.3596 125.341 68.1344C127.79 71.5912 130.615 87.0686 132.533 99.2391C132.479 99.1225 132.425 99.006 132.375 98.8882C131.779 97.4922 131.444 96.0114 131.135 94.5345C129.883 88.518 128.66 82.5005 127.421 76.4839C127.377 76.2624 127.153 76.5504 127.181 76.6838C127.881 80.0784 128.578 83.4742 129.278 86.869L130.216 91.4427C130.528 92.9552 130.818 94.4748 131.166 95.98C131.403 97.0004 131.688 98.0136 132.088 98.9814L132.089 98.985C132.247 99.385 132.43 99.7726 132.63 100.151C132.652 100.192 132.673 100.23 132.698 100.271C133.367 101.493 134.201 102.608 135.052 103.702C138.85 108.594 142.668 113.464 146.477 118.344C146.485 118.354 146.494 118.359 146.504 118.364C146.505 118.368 146.505 118.368 146.509 118.367L148.498 121.696C148.498 121.696 121.154 134.809 107.242 134.983C107.148 135.119 107.055 135.259 106.959 135.4L101.552 132.049C101.552 132.049 99.7699 130.492 100.128 130.855L96.9177 128.719C97.0721 128.519 97.2297 128.317 97.3833 128.113C98.0749 127.201 98.7495 126.274 99.3998 125.335C98.8904 122.167 98.4802 118.751 98.1657 115.882C98.2937 116.365 98.4221 116.847 98.5545 117.329C98.5807 117.422 98.6778 117.358 98.7172 117.317C98.7765 117.249 98.7993 117.144 98.7755 117.058L98.4187 115.735C98.2654 115.15 98.1121 114.566 97.9662 113.979L97.9638 113.972C97.1846 111.761 96.739 109.497 96.6553 109.133C95.4839 104.027 93.1535 89.4103 93.3443 85.9664C93.3721 85.4589 93.2909 84.9511 93.276 84.4437C93.1832 81.5794 93.299 78.6838 93.8926 75.8688C94.4678 73.1086 95.5284 70.4548 97.2171 68.1824C97.2455 68.1447 97.2864 68.0705 97.293 68.0033C97.2957 67.9739 97.2947 67.9458 97.279 67.9225C97.2318 67.8524 97.1644 67.8702 97.1163 67.9347C96.9038 68.2192 96.7007 68.5088 96.5081 68.8031C96.4462 68.9004 96.3832 68.9941 96.3221 69.0952C96.3184 69.0964 96.3163 69.1012 96.3138 69.106C94.868 71.4012 93.9837 74.0098 93.5103 76.6679C92.997 79.53 92.9329 82.4494 93.065 85.3457C93.0791 85.6379 93.0915 85.9266 93.1126 86.2165C93.2071 87.9339 93.369 89.6456 93.5663 91.354C93.4525 90.83 93.3432 90.3045 93.2294 89.7804C93.0099 88.7419 92.836 87.6926 92.7132 86.639C92.0611 87.3346 91.4066 88.0229 90.7523 88.699C90.7228 88.7208 90.7005 88.7524 90.6795 88.7755C90.6607 88.7938 90.6414 88.8082 90.6266 88.8252C90.6106 88.8385 90.5917 88.8568 90.5773 88.8737C90.5313 88.9212 90.4861 88.9684 90.4413 89.0195C90.3949 89.0631 90.3456 89.1116 90.3009 89.1627C90.1904 89.2718 90.0844 89.3835 89.9731 89.4928C89.601 89.8739 89.228 90.2512 88.8494 90.6263C87.7751 91.699 86.6911 92.7545 85.5731 93.7926C85.3702 93.9805 85.1707 94.1673 84.9676 94.3552C84.2534 95.0101 83.5284 95.6563 82.7874 96.3036C82.0477 96.9423 81.2958 97.5809 80.5216 98.2147C79.903 98.7246 79.2732 99.226 78.6308 99.7274C76.1208 101.685 73.4114 103.606 70.412 105.512C67.999 107.044 65.3743 107.998 62.7034 108.399C56.3382 109.353 49.7179 107.183 45.1374 102.183C43.8899 100.82 42.6778 99.4287 41.5063 98.0003C40.7019 97.0136 39.9181 96.0161 39.1608 94.9979C38.5894 94.2404 38.034 93.4695 37.4934 92.6939C35.4651 89.7795 32.6366 84.5151 30.5453 80.556C30.1668 79.8415 29.8148 79.1713 29.4966 78.5673C29.3918 78.3697 29.2893 78.1794 29.1928 77.9952C29.1792 77.9671 29.1627 77.94 29.1495 77.9118C29.0888 77.8014 29.0322 77.6897 28.9746 77.5864C28.9289 77.4956 28.8794 77.406 28.8348 77.3188C28.701 77.0696 28.5817 76.84 28.4659 76.6337C28.4406 76.581 28.4117 76.5294 28.3839 76.4815C28.3309 76.3809 28.2814 76.2912 28.2328 76.2054C28.2292 76.1944 28.2232 76.1882 28.2208 76.1808L39.7526 72.4339C40.2662 73.4013 40.7539 74.377 41.2401 75.3614C41.3813 75.6448 41.5186 75.9295 41.6546 76.2106C42.2578 77.4415 42.8598 78.6688 43.5011 79.8792C43.5879 80.0461 43.6731 80.2095 43.7639 80.3752C43.8495 80.5384 43.9399 80.7042 44.034 80.8687C44.1245 81.0345 44.2134 81.1967 44.3115 81.3599C44.3984 81.5146 44.4864 81.673 44.5807 81.8254C44.7738 82.1569 44.9706 82.4873 45.1735 82.8117C47.8102 87.0367 51.2542 93.3573 56.172 95.6418C56.445 95.7686 56.7265 95.8844 57.007 95.9844C57.1021 96.0144 57.1948 96.0494 57.2899 96.0794C57.4814 96.1432 57.6742 96.1985 57.8682 96.2452C58.2575 96.3423 58.6544 96.4126 59.0624 96.4548C63.8271 96.9556 69.0783 93.7737 74.0599 89.3743L74.3442 89.1234C74.4328 89.0458 74.5166 88.9658 74.6064 88.8919C74.8551 88.6688 75.0985 88.4433 75.3452 88.2128C75.8353 87.7568 76.3218 87.2897 76.8055 86.8154C77.0457 86.5788 77.2851 86.3384 77.5242 86.0982C78.9152 84.699 80.2699 83.2506 81.5647 81.8054C81.9984 81.3271 82.4242 80.8472 82.842 80.37C83.0236 80.1646 83.2049 79.9594 83.3822 79.7554C83.7378 79.3472 84.0869 78.9451 84.4286 78.5454C84.5988 78.3438 84.7703 78.1458 84.9381 77.949C85.0158 77.8628 85.0911 77.7692 85.1651 77.6841C85.2243 77.6161 85.2806 77.5531 85.3328 77.4874L85.3365 77.4862C87.5436 74.8949 88.2266 73.9343 91.0223 70.8498C94.9129 66.5573 101.341 64.6104 102.086 64.2505Z" fill="#0097A9"/>
<path fill-rule="evenodd" clip-rule="evenodd" d="M81.5632 81.8078C81.9968 81.3295 82.4227 80.8496 82.8408 80.3723C83.0217 80.1671 83.2034 79.9618 83.3806 79.7578C83.2022 79.9581 83.0205 80.1635 82.8396 80.3686C82.4215 80.8459 81.9956 81.3258 81.5632 81.8078Z" fill="#2A4D52"/>
<path fill-rule="evenodd" clip-rule="evenodd" d="M65.2822 95.6556C67.3592 95.3426 69.4653 95.2558 71.5628 95.3915C71.6996 95.3998 71.8113 95.0302 71.6451 95.0192C69.5476 94.8836 67.4426 94.9739 65.3621 95.2882C65.2225 95.3091 65.1313 95.6802 65.2822 95.6556Z" fill="#2A4D52"/>
<path fill-rule="evenodd" clip-rule="evenodd" d="M56.1713 95.6424C56.4442 95.7691 56.7258 95.885 57.0062 95.9849C56.7246 95.8813 56.4442 95.7691 56.1713 95.6424Z" fill="#2A4D52"/>
<path fill-rule="evenodd" clip-rule="evenodd" d="M132.087 98.9855L132.088 98.9891C132.246 99.3889 132.429 99.7767 132.629 100.155C132.651 100.197 132.671 100.235 132.697 100.275C132.663 100.058 132.629 99.8419 132.595 99.6251C132.576 99.5015 132.556 99.3778 132.535 99.2505L132.532 99.2432C132.478 99.1266 132.424 99.01 132.374 98.8923C131.778 97.4963 131.443 96.0156 131.134 94.5386C129.882 88.5222 128.659 82.5045 127.419 76.488C127.376 76.2664 127.152 76.5545 127.179 76.6879C127.88 80.0825 128.577 83.4784 129.277 86.873L130.215 91.4468C130.527 92.9593 130.817 94.4789 131.164 95.9841C131.402 97.0045 131.687 98.0177 132.087 98.9855Z" fill="#2A4D52"/>
<path fill-rule="evenodd" clip-rule="evenodd" d="M116.843 121.408L117.134 121.314C117.633 120.362 118.093 119.388 118.522 118.407C120.621 113.591 121.958 108.448 122.939 103.296C123.802 98.7469 124.298 94.1423 124.341 89.5184C124.354 88.2334 124.334 86.947 124.275 85.6615C124.261 85.357 124.247 85.0524 124.225 84.7466C123.902 78.9242 122.973 73.1485 122.051 67.3949C122.016 67.1746 121.787 67.4602 121.811 67.5948C121.923 68.3024 122.038 69.005 122.15 69.7125C123.072 75.5028 123.926 81.3232 124.084 87.1909C124.097 87.6422 124.102 88.0959 124.107 88.5495C124.096 88.7646 124.083 88.9761 124.067 89.1886L124.107 89.2366C124.092 94.2093 123.532 99.1679 122.568 104.043C121.596 108.948 120.295 113.827 118.289 118.413C117.846 119.427 117.366 120.429 116.843 121.408Z" fill="#2A4D52"/>
<path fill-rule="evenodd" clip-rule="evenodd" d="M94.1232 85.1287C94.1232 85.1287 94.124 85.1311 94.1264 85.1303L94.1256 85.1279L94.1232 85.1287Z" fill="#2A4D52"/>
<path fill-rule="evenodd" clip-rule="evenodd" d="M94.1232 85.1287C94.1232 85.1287 94.124 85.1311 94.1264 85.1303L94.1256 85.1279L94.1232 85.1287Z" fill="#2A4D52"/>
<path fill-rule="evenodd" clip-rule="evenodd" d="M100.657 123.451C100.684 123.446 100.715 123.416 100.749 123.36C100.861 123.165 100.976 122.969 101.086 122.771C100.945 122.999 100.799 123.226 100.657 123.451Z" fill="#2A4D52"/>
<path fill-rule="evenodd" clip-rule="evenodd" d="M132.091 98.9826C132.249 99.3824 132.432 99.7702 132.632 100.148C132.654 100.19 132.674 100.228 132.7 100.269C133.369 101.49 134.203 102.606 135.055 103.699C138.852 108.592 142.67 113.461 146.479 118.342C146.487 118.352 146.496 118.357 146.506 118.362L145.188 116.156C145.154 116.102 145.119 116.044 145.085 115.99C145.084 115.986 145.083 115.982 145.077 115.98C143.896 114.018 142.589 112.138 141.162 110.349L132.983 100.1C132.978 100.097 132.976 100.093 132.976 100.093L132.599 99.6186L132.091 98.9826Z" fill="#2A4D52"/>
<path fill-rule="evenodd" clip-rule="evenodd" d="M122.042 130.42C123.795 130.021 125.537 129.577 127.266 129.08C130.295 128.218 133.279 127.204 136.208 126.045C139.158 124.879 142.046 123.571 144.867 122.117C144.986 122.058 145.048 121.685 144.884 121.77C143.313 122.578 141.724 123.342 140.108 124.062C134.329 126.643 128.298 128.652 122.121 130.049C121.981 130.082 121.898 130.45 122.042 130.42Z" fill="#2A4D52"/>
<path fill-rule="evenodd" clip-rule="evenodd" d="M108.029 131.77L108.35 131.881C109.013 131.405 109.656 130.895 110.265 130.356C110.348 130.284 110.426 130.214 110.504 130.14C113.257 127.652 115.419 124.596 117.133 121.315C117.633 120.364 118.093 119.389 118.522 118.408C120.62 113.592 121.957 108.45 122.938 103.298C123.802 98.7484 124.298 94.1438 124.34 89.5199L124.106 89.2381C124.092 94.2108 123.532 99.1694 122.567 104.044C121.595 108.95 120.294 113.828 118.289 118.415C117.846 119.429 117.366 120.43 116.843 121.409C115.308 124.294 113.412 126.992 111.065 129.263C110.812 129.512 110.552 129.751 110.287 129.987C109.571 130.622 108.818 131.22 108.029 131.77Z" fill="#2A4D52"/>
<path fill-rule="evenodd" clip-rule="evenodd" d="M94.4847 141.503C94.4799 141.501 94.4741 141.507 94.47 141.508C94.2199 141.813 94.0068 142.134 93.7858 142.454C93.5727 142.775 93.3896 143.111 93.1972 143.446C92.807 144.109 92.4232 144.779 92.0424 145.447C92.04 145.452 92.0423 145.46 92.0472 145.462C92.0484 145.466 92.0558 145.463 92.0582 145.458C92.4874 144.815 92.9117 144.169 93.3315 143.52C93.5438 143.199 93.7651 142.879 93.9572 142.545C94.1447 142.207 94.3352 141.869 94.4895 141.518C94.4924 141.513 94.49 141.506 94.4847 141.503ZM86.0611 143.077C87.2416 140.844 88.5558 138.669 89.8707 136.51C90.7659 135.036 94.3766 131.912 96.2825 129.532C96.4961 129.263 96.71 128.995 96.9183 128.724L100.129 130.86C100.203 130.937 100.281 131.014 100.357 131.086C100.441 131.169 100.527 131.247 100.617 131.323C101.438 132.048 102.382 132.64 103.401 133.036L106.322 134.982C106.093 134.975 105.869 134.963 105.648 134.945L105.646 134.941C105.644 134.934 105.636 134.933 105.632 134.934L105.61 134.941C104.375 135.371 103.174 135.866 101.987 136.403C101.388 136.675 100.803 136.962 100.227 137.292C100.081 137.38 99.9418 137.453 99.7928 137.583C99.7744 137.601 99.7513 137.629 99.7302 137.664L99.7026 137.718L99.6459 137.818L99.5229 138.029L99.0217 138.874L94.9684 145.594C94.966 145.599 94.9695 145.61 94.9744 145.613C94.9808 145.619 94.9915 145.615 94.9944 145.61C95.7467 144.435 96.499 143.259 97.2461 142.082C95.1321 145.984 92.828 148.753 92.0479 148.316C91.6178 148.069 91.7417 146.887 92.2887 145.217C90.7514 147.843 89.1442 149.54 88.4697 149.153C88.0206 148.884 90.6303 142.751 91.1371 141.172C91.1272 141.179 91.1236 141.181 91.1137 141.188C91.5272 140.57 91.9313 139.951 92.3347 139.328C92.5462 139.003 92.7687 138.687 92.9611 138.352C93.1479 138.014 93.3388 137.676 93.4919 137.321C93.4944 137.316 93.4895 137.314 93.485 137.311C93.4838 137.308 93.4761 137.31 93.4736 137.315C93.2219 137.616 93.0054 137.939 92.789 138.261C92.5767 138.582 92.3928 138.918 92.2011 139.253C91.8155 139.907 91.4392 140.562 91.0649 141.224L91.0612 141.225C89.7181 142.223 85.9917 147.657 84.5935 147.957C83.5276 148.194 85.8512 143.459 86.0611 143.077Z" fill="#EDB39D"/>
<path fill-rule="evenodd" clip-rule="evenodd" d="M124.11 88.5496C124.118 88.3638 124.126 88.1743 124.137 87.9837C124.189 86.9057 124.221 85.8263 124.228 84.7467C123.905 78.9243 122.976 73.1485 122.053 67.3949C122.018 67.1747 121.79 67.4603 121.813 67.5948C121.925 68.3024 122.04 69.0051 122.152 69.7126C123.074 75.5029 123.928 81.3233 124.087 87.191C124.099 87.6423 124.104 88.0959 124.11 88.5496Z" fill="#2A4D52"/>
<path fill-rule="evenodd" clip-rule="evenodd" d="M100.657 123.451C100.684 123.446 100.715 123.416 100.749 123.36C100.861 123.165 100.976 122.969 101.086 122.771C100.945 122.999 100.799 123.226 100.657 123.451Z" fill="#2A4D52"/>
<path fill-rule="evenodd" clip-rule="evenodd" d="M108.029 131.765L108.35 131.877C109.012 131.401 109.656 130.891 110.265 130.352C110.348 130.28 110.426 130.21 110.504 130.136C110.693 129.843 110.878 129.551 111.064 129.259C110.812 129.508 110.552 129.747 110.287 129.983C109.571 130.618 108.818 131.216 108.029 131.765Z" fill="#2A4D52"/>
<path fill-rule="evenodd" clip-rule="evenodd" d="M101.068 64.6514C100.65 64.9481 96.4332 75.4441 101.28 74.0459C105.953 72.6973 110.657 66.8191 111.083 61.6503C111.083 61.6503 101.763 64.1585 101.068 64.6514Z" fill="#EDB39D"/>
<path fill-rule="evenodd" clip-rule="evenodd" d="M100.655 123.459C100.798 123.233 100.944 123.007 101.085 122.778C101.155 122.658 101.221 122.535 101.292 122.414C101.613 121.838 101.924 121.258 102.226 120.672C103.266 118.655 104.195 116.585 105.021 114.474C106.09 111.745 106.988 108.953 107.753 106.127C108.516 103.285 109.146 100.406 109.668 97.5082C110.193 94.5936 110.615 91.6636 110.965 88.7245C111.312 85.778 111.589 82.8261 111.827 79.8665C111.833 79.7871 111.798 79.7294 111.716 79.752C111.633 79.7709 111.593 79.91 111.584 79.9821C111.557 80.3487 111.524 80.7128 111.497 81.0794C111.25 83.9973 110.964 86.9076 110.599 89.8148C110.235 92.7465 109.794 95.6702 109.245 98.5724C108.7 101.437 108.052 104.282 107.264 107.087C106.477 109.883 105.544 112.642 104.446 115.332C103.749 117.039 102.98 118.715 102.144 120.357C101.651 121.318 101.134 122.266 100.591 123.199C100.518 123.324 100.57 123.482 100.655 123.459Z" fill="white"/>
<path fill-rule="evenodd" clip-rule="evenodd" d="M100.657 123.451C100.684 123.446 100.715 123.416 100.749 123.36C100.861 123.165 100.976 122.969 101.086 122.771C100.945 122.999 100.799 123.226 100.657 123.451Z" fill="#2A8C79"/>
<path fill-rule="evenodd" clip-rule="evenodd" d="M98.5525 117.335C98.5787 117.428 98.6758 117.364 98.7152 117.323C98.7744 117.255 98.7972 117.15 98.7734 117.064L98.4166 115.741C98.2634 115.156 98.1101 114.572 97.9641 113.985L97.9617 113.978C97.2008 110.973 96.5232 107.949 95.93 104.91C95.2438 101.409 94.6689 97.8878 94.2071 94.3506L94.2035 94.3396C94.1916 94.2418 94.1768 94.145 94.165 94.0472C93.8152 91.3679 93.497 88.6744 93.3423 85.9724C93.3156 85.4648 93.2892 84.9571 93.2744 84.4497C93.1812 81.5854 93.2973 78.6897 93.8909 75.8747C94.4657 73.1146 95.5267 70.4607 97.215 68.1885C97.2435 68.1508 97.2844 68.0765 97.291 68.0093C97.294 67.9799 97.2926 67.9519 97.2773 67.9284C97.2298 67.8584 97.1624 67.8763 97.1142 67.9407C96.9018 68.2252 96.699 68.5147 96.5061 68.8091C96.4446 68.9063 96.3811 69.0001 96.3208 69.101C96.3168 69.1023 96.3143 69.1072 96.3118 69.1121C94.8666 71.407 93.982 74.0157 93.5082 76.6739C92.995 79.536 92.9313 82.4553 93.0637 85.3515C93.077 85.6439 93.0895 85.9326 93.1105 86.2225C93.2051 87.9399 93.3669 89.6517 93.5643 91.36C93.5655 91.3637 93.563 91.3686 93.5678 91.3711C93.7168 92.6927 93.8889 94.0109 94.0676 95.3228C94.5709 99.0376 95.1994 102.736 95.9492 106.407C96.6004 109.586 97.3381 112.745 98.1638 115.876C98.1613 115.881 98.1625 115.884 98.1637 115.888C98.292 116.371 98.4208 116.853 98.5525 117.335Z" fill="white"/>
<path fill-rule="evenodd" clip-rule="evenodd" d="M65.2822 95.6556C67.3592 95.3426 69.4653 95.2558 71.5628 95.3915C71.6996 95.3998 71.8113 95.0302 71.6451 95.0192C69.5476 94.8836 67.4426 94.974 65.3621 95.2882C65.2225 95.3091 65.1313 95.6802 65.2822 95.6556Z" fill="white"/>
<path fill-rule="evenodd" clip-rule="evenodd" d="M108.03 131.768L108.35 131.879C109.013 131.404 109.656 130.894 110.266 130.354C110.348 130.283 110.427 130.213 110.504 130.139C113.257 127.651 115.419 124.594 117.134 121.313C117.633 120.362 118.093 119.388 118.522 118.407C120.621 113.591 121.958 108.448 122.939 103.296C123.802 98.7469 124.298 94.1423 124.341 89.5184C124.354 88.2334 124.334 86.947 124.275 85.6615C124.261 85.357 124.247 85.0525 124.225 84.7466C123.902 78.9242 122.973 73.1485 122.051 67.3949C122.016 67.1746 121.787 67.4602 121.811 67.5948C121.923 68.3024 122.038 69.005 122.15 69.7125C123.072 75.5028 123.926 81.3232 124.084 87.1909C124.097 87.6421 124.102 88.0959 124.107 88.5495C124.108 88.7769 124.108 89.0044 124.107 89.2366C124.092 94.2093 123.532 99.1679 122.568 104.043C121.596 108.948 120.295 113.827 118.289 118.413C117.846 119.427 117.366 120.429 116.843 121.408C115.309 124.293 113.413 126.99 111.065 129.261C110.812 129.51 110.552 129.749 110.288 129.986C109.572 130.621 108.819 131.219 108.03 131.768Z" fill="white"/>
<path fill-rule="evenodd" clip-rule="evenodd" d="M98.2278 128.09C98.2713 128.21 98.3189 128.333 98.3779 128.452C98.5837 128.885 98.8792 129.305 99.1437 129.683C99.4429 130.102 99.7725 130.491 100.13 130.854C100.204 130.932 100.282 131.008 100.359 131.081C100.442 131.164 100.529 131.241 100.618 131.318C101.439 132.043 102.384 132.634 103.403 133.031L103.501 133.072C104.105 133.303 104.761 133.468 105.409 133.4C106.132 133.323 106.767 132.938 107.365 132.552C107.701 132.334 108.03 132.109 108.354 131.878L108.033 131.766C107.863 131.883 107.69 132 107.516 132.113C106.926 132.5 106.3 132.915 105.586 133.021C104.922 133.115 104.258 132.948 103.641 132.714C102.436 132.256 101.344 131.537 100.434 130.638C99.8245 130.039 99.2953 129.361 98.8681 128.622C98.7221 128.373 98.5895 128.115 98.4668 127.85C98.5688 127.626 98.7415 127.468 98.9742 127.372C99.0997 127.319 99.1661 126.948 98.994 127.02C98.6472 127.165 98.0795 127.658 98.2278 128.09Z" fill="#2A8C79"/>
<path fill-rule="evenodd" clip-rule="evenodd" d="M132.088 98.98L132.089 98.9837C132.247 99.3835 132.43 99.7713 132.63 100.15C132.652 100.191 132.672 100.229 132.698 100.27C133.367 101.491 134.201 102.607 135.052 103.7C138.85 108.593 142.668 113.462 146.477 118.343C146.485 118.353 146.494 118.358 146.504 118.363C146.505 118.366 146.505 118.366 146.509 118.365C146.609 118.398 146.744 118.114 146.663 118.014C146.135 117.34 145.611 116.665 145.083 115.991C145.082 115.987 145.081 115.984 145.075 115.981C143.481 113.938 141.885 111.891 140.289 109.845C138.418 107.452 136.517 105.078 134.684 102.653C134.069 101.837 133.477 100.992 132.98 100.101C132.976 100.098 132.974 100.095 132.974 100.095C132.819 99.8158 132.671 99.5347 132.536 99.2451L132.533 99.2377C132.479 99.1212 132.425 99.0046 132.375 98.8868C131.779 97.4909 131.444 96.0101 131.135 94.5332C129.883 88.5168 128.66 82.4991 127.42 76.4826C127.377 76.261 127.153 76.549 127.181 76.6825C127.881 80.0771 128.578 83.4729 129.278 86.8675L130.216 91.4414C130.528 92.9539 130.818 94.4735 131.165 95.9787C131.403 96.9991 131.688 98.0123 132.088 98.98Z" fill="#2A8C79"/>
<path fill-rule="evenodd" clip-rule="evenodd" d="M122.042 130.42C123.795 130.021 125.537 129.577 127.266 129.08C130.295 128.218 133.279 127.204 136.208 126.045C139.158 124.879 142.046 123.571 144.867 122.117C144.986 122.058 145.048 121.685 144.884 121.77C143.313 122.578 141.724 123.342 140.108 124.062C134.329 126.643 128.298 128.652 122.121 130.049C121.981 130.082 121.898 130.45 122.042 130.42Z" fill="#2A8C79"/>
<path fill-rule="evenodd" clip-rule="evenodd" d="M19.9652 65.6789C20.2508 66.1224 20.6815 66.4422 21.0809 66.7718C21.4893 67.0965 21.914 67.3963 22.3292 67.7082C23.1779 68.3085 24.0066 68.9259 24.8279 69.5668C24.4712 69.186 24.0808 68.8388 23.6804 68.505C23.2797 68.1714 22.8592 67.8632 22.443 67.5517L21.1696 66.6532C20.9563 66.5058 20.7458 66.3547 20.5418 66.1961C20.3371 66.039 20.1307 65.8805 19.9652 65.6789Z" fill="#672448"/>
<path fill-rule="evenodd" clip-rule="evenodd" d="M24.5807 65.9984C24.8959 66.4131 25.2585 66.7896 25.6375 67.1478C26.0191 67.5039 26.4255 67.8337 26.8557 68.133C27.2938 68.4179 27.7453 68.6903 28.2345 68.8847C28.7231 69.0747 29.2392 69.2079 29.7613 69.2171C28.7342 69.0362 27.8081 68.5594 26.9645 67.9737C26.533 67.6931 26.1339 67.3654 25.7357 67.037C25.3401 66.7054 24.9552 66.3593 24.5807 65.9984Z" fill="#672448"/>
<path fill-rule="evenodd" clip-rule="evenodd" d="M36.1315 72.2929C35.5291 71.8715 34.8384 71.5975 34.1376 71.3849C33.4322 71.1796 32.704 71.0617 31.9718 70.9991C31.2396 70.9366 30.5003 70.9406 29.7694 71.0159C29.4039 71.0558 29.0424 71.1233 28.6809 71.1818C28.3218 71.2602 27.967 71.3531 27.6136 71.4464C27.6084 71.4481 27.6052 71.4532 27.6065 71.4585C27.6076 71.463 27.6131 71.4661 27.6177 71.4654C27.9814 71.4212 28.3424 71.3674 28.7023 71.3151C29.0654 71.2853 29.4248 71.2279 29.7872 71.2085C30.5107 71.1592 31.2359 71.1126 31.9615 71.1537C32.6851 71.1963 33.4087 71.2937 34.112 71.4778C34.812 71.6638 35.508 71.9117 36.1199 72.3085C36.1242 72.3119 36.1296 72.311 36.1332 72.307C36.1368 72.303 36.1355 72.2965 36.1315 72.2929Z" fill="#672448"/>
<path fill-rule="evenodd" clip-rule="evenodd" d="M81.5097 50.9047C81.646 50.7751 81.7613 50.6157 81.8531 50.4476C81.8034 50.0734 81.3319 50.8995 81.1777 50.9716C80.9644 51.3136 81.4464 50.9965 81.5097 50.9047ZM103.949 42.7804L104.003 42.8443C104.706 41.7746 106.5 42.604 105.339 43.6419L105.354 43.6653C106.566 42.6997 104.882 41.6372 104.014 42.6292C102.889 39.3974 109.775 38.8261 108.124 44.058L108.153 44.0691C110.482 38.3103 102.228 39.184 103.949 42.7804ZM78.8201 48.7703C80.4067 43.4251 77.2105 37.9347 78.5508 32.4907C82.2961 35.6534 84.6499 33.3649 88.0961 33.9009C89.278 34.8386 90.4166 36.1443 92.0368 36.0972C92.7457 38.7708 94.8485 38.401 96.3891 39.618C98.1286 42.4693 102.644 41.9583 103.744 38.8832C103.768 38.8186 104.092 38.7416 104.159 38.7201C111.194 36.7896 113.592 47.2904 106.358 48.555C104.541 52.619 95.0536 63.7688 90.0395 61.8786C85.7129 60.1626 82.08 55.9117 80.8683 51.4831C78.9789 52.8198 77.6226 50.3798 78.8201 48.7703Z" fill="#EDB39D"/>
<path fill-rule="evenodd" clip-rule="evenodd" d="M103.949 42.782L104.002 42.846C104.706 41.7763 106.5 42.6058 105.339 43.6437L105.355 43.6671C106.566 42.7014 104.883 41.6388 104.014 42.6309C102.889 39.3994 109.775 38.8278 108.125 44.0598L108.153 44.0709C110.482 38.3123 102.228 39.1856 103.949 42.782Z" fill="#EED3C7"/>
<path fill-rule="evenodd" clip-rule="evenodd" d="M81.5097 50.9113C81.646 50.7816 81.7613 50.6222 81.853 50.4541C81.8034 50.0799 81.3319 50.906 81.1777 50.9781C80.9644 51.3201 81.4464 51.003 81.5097 50.9113Z" fill="#EED3C7"/>
<path fill-rule="evenodd" clip-rule="evenodd" d="M81.5097 50.9113C81.646 50.7816 81.7613 50.6222 81.853 50.4541C81.8034 50.0799 81.3319 50.906 81.1777 50.9781C80.9644 51.3201 81.4464 51.003 81.5097 50.9113Z" fill="#672348"/>
<path fill-rule="evenodd" clip-rule="evenodd" d="M103.949 42.782L104.002 42.846C104.706 41.7763 106.5 42.6058 105.339 43.6437L105.355 43.6671C106.566 42.7014 104.883 41.6388 104.014 42.6309C102.889 39.3994 109.775 38.8278 108.125 44.0598L108.153 44.0709C110.482 38.3123 102.228 39.1856 103.949 42.782Z" fill="#672348"/>
<path fill-rule="evenodd" clip-rule="evenodd" d="M75.7465 37.0103C75.7648 38.6305 76.9773 40.2976 78.942 41.9277C78.4521 38.781 77.8431 35.6705 78.5514 32.4929C82.2964 35.6557 84.6502 33.3672 88.0963 33.9037C89.2785 34.8408 90.4167 36.1468 92.0373 36.0995C92.7458 38.7732 94.8486 38.4034 96.3892 39.6204C98.1288 42.4717 102.644 41.9607 103.744 38.8856C103.768 38.821 104.092 38.744 104.159 38.7224C111.194 36.792 113.592 47.2928 106.358 48.5574L107.727 53.1089C110.971 53.3521 111.355 51.998 111.607 49.6732C117.443 50.8667 121.861 42.7458 118.166 38.2163C121.993 37.0109 122.635 33.3192 118.75 31.6928C121.892 26.6697 118.968 21.2029 112.707 21.0009C114.38 18.4212 113.336 16.8361 110.5 18.5142C108.549 9.71806 97.6919 5.40965 92.287 12.7077C87.6717 9.32358 81.6192 12.9956 80.8413 18.3577C78.7761 16.6988 77.6766 16.8581 78.995 19.1568C72.0944 20.8855 69.1544 33.9319 75.7465 37.0103Z" fill="#FFD8A9"/>
<path fill-rule="evenodd" clip-rule="evenodd" d="M100.52 59.7762L99.6136 56.863C99.6718 56.862 106.313 48.5892 106.356 48.5596C107.378 51.9312 109.75 59.8236 110.674 63.1154L102.397 65.8049L100.52 59.7762Z" fill="#EDB39D"/>
<path fill-rule="evenodd" clip-rule="evenodd" d="M100.501 59.7945C101.927 58.6179 106.21 48.8729 106.356 48.5596C106.302 48.5993 99.6814 56.8564 99.6096 56.8643C99.7351 57.2732 100.412 59.4311 100.501 59.7945Z" fill="#E5A38C"/>
<path fill-rule="evenodd" clip-rule="evenodd" d="M82.0931 38.2274C83.329 37.4846 85.4101 37.6206 86.5085 38.5154C84.2346 34.924 79.7274 38.0347 82.0931 38.2274Z" fill="#561D3E"/>
<path fill-rule="evenodd" clip-rule="evenodd" d="M84.1267 42.8758C84.3573 43.6933 84.9813 44.2324 85.5193 44.0804C86.0577 43.9282 86.3069 43.1423 86.0759 42.325C85.8449 41.5077 85.2213 40.9684 84.6829 41.1206C84.1445 41.2728 83.8957 42.0586 84.1267 42.8758Z" fill="#561D3E"/>
<path fill-rule="evenodd" clip-rule="evenodd" d="M88.0353 42.5921C88.0526 42.5864 88.0695 42.5785 88.085 42.5674C88.1727 42.5071 88.1954 42.3868 88.1347 42.2988C87.0925 40.7803 85.0088 40.3943 83.491 41.4359C83.4029 41.4962 83.3806 41.6165 83.4409 41.7046C83.5013 41.7927 83.6225 41.8155 83.7096 41.7547C85.0521 40.8327 86.8945 41.1756 87.8164 42.5176C87.8658 42.5898 87.9558 42.6179 88.0353 42.5921Z" fill="#561D3E"/>
<path fill-rule="evenodd" clip-rule="evenodd" d="M85.2232 53.5555C85.4495 54.1592 85.9554 54.5278 86.3532 54.3782C86.7507 54.2291 86.8895 53.619 86.6632 53.0152C86.4362 52.4117 85.9303 52.0431 85.5331 52.1921C85.1352 52.3413 84.9966 52.9518 85.2232 53.5555Z" fill="#561D3E"/>
<circle cx="50" cy="21" r="4.5" stroke="#CDEEEC" stroke-opacity="0.6"/>
<circle cx="19" cy="19" r="12.5" stroke="#CDEEEC" stroke-opacity="0.6"/>
<circle cx="12" cy="48" r="6.5" stroke="#CDEEEC" stroke-opacity="0.6"/>
</g>
</svg>
