<?xml version="1.0" encoding="utf-8"?>
<!-- Generator: Adobe Illustrator 25.4.1, SVG Export Plug-In . SVG Version: 6.00 Build 0)  -->
<svg version="1.1" id="Layer_1" xmlns="http://www.w3.org/2000/svg" xmlns:xlink="http://www.w3.org/1999/xlink" x="0px" y="0px"
	 viewBox="0 0 125 120" style="enable-background:new 0 0 125 120;" xml:space="preserve">
<style type="text/css">
	.st0{clip-path:url(#SVGID_00000141444892825715568860000007356735532811032215_);}
	.st1{fill:#073046;}
	.st2{fill:#022334;}
	.st3{fill:#2C98A9;}
	.st4{opacity:0.35;}
	.st5{fill:#FBB040;}
	.st6{fill:#226F77;}
	.st7{fill:#2B96A8;}
	.st8{fill:#32B6C3;}
	.st9{fill:#F7941D;}
	.st10{fill:#66BE66;}
	.st11{fill:#ABDCAB;}
	.st12{fill:#227179;}
	.st13{opacity:0.45;}
</style>
<g>
	<defs>
		<rect id="SVGID_1_" width="124.6" height="120"/>
	</defs>
	<clipPath id="SVGID_00000068647049692501522180000009816327469087287441_">
		<use xlink:href="#SVGID_1_"  style="overflow:visible;"/>
	</clipPath>
	<g style="clip-path:url(#SVGID_00000068647049692501522180000009816327469087287441_);">
		<path class="st1" d="M0,66.3l38.4-23.4l5.9,36.6L0,66.3z"/>
		<path class="st2" d="M38.4,42.9l52.4,2.2L55.5,72.4L42.9,71L38.4,42.9z"/>
		<path class="st3" d="M96.5,88.3l-12,11.2l-5.1,4.7l-17,15.8l-6.9-47.6L72,59.7l5.9-4.6l12.9-10L96.5,88.3z"/>
		<g class="st4">
			<path d="M78,55.1l6.6,43.8l-5.6,5.8l-7-45.4L78,55.1z"/>
		</g>
		<path class="st5" d="M77.9,55.1l6.6,44.3l-5.1,4.7L72,59.7L77.9,55.1z"/>
		<path class="st6" d="M124.5,67.1L111.8,82L88.2,69l-8-4.4l-28-15.4l14.1-14.4l26.6,14.8l7.9,4.4v0L124.5,67.1z"/>
		<path class="st7" d="M66.3,34.8L52.2,49.2L49,31.5l-1.2-6.5l-2-11.1L55.7,0l3.6,11.8l2.1,6.9L66.3,34.8z"/>
		<path class="st8" d="M124.5,67.1L100.8,54l-7.9-4.4L66.3,34.8l-4.9-16.1l-2.1-6.9L55.7,0l27.7,17.1l9,5.5l15.8,9.8l4.8,10.2
			l3.8,8.2L124.5,67.1z"/>
		<g class="st4">
			<path d="M116.8,50.8L61.7,19.2L49,31.5l1.4-4.7l10.3-10.7L113,46.4L116.8,50.8z"/>
		</g>
		<path class="st9" d="M116.8,50.8L61.6,18.5l-0.2,0.2L49,31.5l-1.2-6.5l11.6-13.1l0.1-0.1L113,42.6L116.8,50.8z"/>
		<g class="st4">
			<path d="M83.4,17.1l9.2,31.7L80.2,64.6l2.7,0.2L95,49.2l-9.1-28.8L83.4,17.1z"/>
		</g>
		<path class="st9" d="M100.9,54.3L88.2,69l-8-4.4l12.7-15l0.3-0.3l-9.8-32.1l9,5.5l8.5,31.3v0L100.9,54.3z"/>
		<g class="st4">
			<path d="M100.6,52.9c0,0-12.5,2.7-5.6,13.3c0,0,7.8,12.5,21.1,10.4c0,0,8.4-2.4,8-9c0,0-3.9,4.1-7.8,4.5c0,0,3.5-2.3,2-7.4
				c0,0-4.6,9.2-9.1,8.5c-4.6-0.7-7-2.4-9.2-8c-2.2-5.6,2-10.6,2-10.6L100.6,52.9z"/>
		</g>
		<path class="st9" d="M101,52.8c0,0-12.7,2.7-5.7,13.2c0,0,7.8,12.3,21.3,10.3c0,0,8.5-2.3,8-8.8c0,0-3.9,4.1-7.8,4.5
			c0,0,3.6-2.2,2-7.3c0,0-4.6,9.1-9.2,8.4c-4.6-0.7-7-2.3-9.3-7.8c-2.2-5.5,2-10.4,2-10.4L101,52.8z"/>
		<g class="st4">
			<path d="M90.8,36.8c0,0,18.7,11.9,10.1,16.1c0,0-6.4,1.7-7.5,5.3c0,0,1.1-1.3,3.8-1.5c2.6-0.2,9.4,0.8,12-1.8
				c2.6-2.7,4-7.4-3.3-13c-7.3-5.6-13.7-5.6-13.7-5.6L90.8,36.8z"/>
		</g>
		<path class="st5" d="M91.2,36.5c0,0,18.4,12,9.8,16.2c0,0-6.4,1.7-7.5,5.4c0,0,1.2-1.3,3.8-1.5c2.6-0.2,9.4,0.8,11.9-1.9
			c2.6-2.7,4-7.5-3.2-13.1C98.9,36.1,92.6,36,92.6,36L91.2,36.5z"/>
		<g class="st4">
			<path d="M85.9,68.6c-0.1,0.2-0.3,0.4-0.4,0.6c-1.2-0.3-4.4-0.7-11.2-0.6c-0.5,0-1,0-1.4,0.1c-7.2,0.9-3,13.1-3,13.1l-3.7-2.1
				L62,83.3c0,0-2.8-17.9,7.4-22.7c1.5-0.7,3.2-1.2,5.3-1.2c1.1,0,2.1,0.1,3.2,0.3c6.2,1.2,7.7,6,8.1,8.3c0,0,0,0.1,0,0.1
				C86,68.3,86,68.5,85.9,68.6z"/>
		</g>
		<path class="st9" d="M85.9,68.8c-0.1,0.2-0.3,0.4-0.4,0.6c-1.2-0.2-4.3-0.7-10.9-0.6c-0.5,0-0.9,0-1.4,0.1
			c-7.1,0.9-2.9,12.9-2.9,12.9l-3.6-2l-4.1,3.6c0,0-2.7-17.6,7.2-22.3c1.4-0.7,3.1-1.1,5.2-1.1c1,0,2.1,0.1,3.1,0.3
			c6.1,1.2,7.5,5.9,7.9,8.1c0,0,0,0.1,0,0.1C86,68.6,86,68.7,85.9,68.8z"/>
		<g class="st4">
			<path d="M85.8,68.3c0,0.1,0,0.3-0.1,0.4c-0.1,0.2-0.3,0.4-0.4,0.6c-1.1,1.4-2.7,2.6-4.6,3.6l0,0c-1.4,0.7-3.1,0.5-4.3-0.5
				c-1.4-1.1-2.7-2.4-3.7-3.8c-0.9-1.2-1.6-2.4-2.2-3.7c-0.6-1.3-1-2.8-1.3-4.2c-0.4-2.5-0.3-5.3,0.5-8.5C73.2,38.9,92.6,36,92.6,36
				l0.3,1.3c-2.5,0.7-5.1,1.9-9.9,5c-4.9,3-7.2,7.4-6.2,14.4c0.2,1.1,0.5,2.3,0.9,3.3c0.1,0.2,0.2,0.4,0.3,0.6
				c2.2,4.4,6.4,6.5,7.6,7.3h0c0.1,0.1,0.2,0.2,0.2,0.3C85.8,68.3,85.8,68.3,85.8,68.3z"/>
		</g>
		<path class="st5" d="M86,68.5c0,0.1,0,0.3-0.1,0.4c-0.1,0.2-0.3,0.4-0.4,0.6c-1.1,1.4-2.6,2.7-4.5,3.7l0,0
			c-0.7,0.4-1.4,0.5-2.1,0.4c-0.7-0.1-1.4-0.4-2-0.8c-1.4-1.1-2.6-2.4-3.6-3.8c-0.8-1.1-1.6-2.4-2.1-3.7c-0.6-1.3-1-2.7-1.2-4.2
			c-0.4-2.5-0.3-5.3,0.5-8.5C73.7,39.2,92.6,36,92.6,36l0.3,1.2c-2.4,0.7-4.9,2-9.7,5.1c-4.8,3.1-7,7.5-6.1,14.5
			c0.2,1.1,0.5,2.3,0.9,3.3c0.1,0.2,0.2,0.4,0.3,0.6c2.1,4.3,6.3,6.4,7.4,7.2l0,0c0.1,0.1,0.2,0.2,0.2,0.3C86,68.4,86,68.4,86,68.5z
			"/>
		<path class="st9" d="M92.6,35.8c6.1-2.5,13-7.9,18.5-12.9c5.9-1.7,11.1-1.9,13.4-1.9c-0.4,2.8-2.5,6.2-7.8,9.9
			C102,41.3,92.6,35.8,92.6,35.8z"/>
		<g class="st4">
			<path d="M92.5,35.3c0,0-1.4-7.1,10.7-18.6c0,0,9.8-10,17.6-3.3c0.9,0.8,1.9,1.9,2.7,3.2c0.9,1.3,1.2,2.9,0.9,4.5c0,0,0,0.1,0,0.1
				c-2.3,0-7.4,0.2-13.3,1.9C104.9,24.9,97.9,28.5,92.5,35.3z"/>
		</g>
		<path class="st5" d="M92.5,35c0,0-1.4-6.9,10.7-18.3c0,0,9.8-9.8,17.6-3.3c0.9,0.8,1.9,1.8,2.7,3.1c0.9,1.3,1.2,2.9,1,4.4
			c0,0,0,0.1,0,0.1c-2.3,0-7.5,0.2-13.4,1.9C104.9,24.7,97.8,28.2,92.5,35z"/>
		<path class="st9" d="M92.8,36.4c-1.3-6.7-5.4-14.8-9.3-21.4c-0.5-6.3,0.3-11.6,0.8-14C87,2,90,4.8,92.8,11
			C100.3,28.1,92.8,36.4,92.8,36.4z"/>
		<g class="st4">
			<path d="M91.9,36.6c0,0-7.4,0.1-16.7-14.6c0,0-8.2-12.1,0.3-18.8c1-0.8,2.3-1.5,3.8-2.2c1.5-0.6,3.4-0.6,4.9,0c0,0,0.1,0,0.1,0
				c-0.5,2.4-1.4,7.7-0.8,14.1C84.1,22,86.1,29.8,91.9,36.6z"/>
		</g>
		<path class="st5" d="M91.9,36.4c0,0-7.4,0-16.5-14.6c0,0-8-12,0.3-18.6c1-0.8,2.2-1.5,3.8-2.1c1.5-0.6,3.2-0.6,4.7-0.1l0.1,0
			c-0.5,2.4-1.3,7.7-0.8,14C84,21.7,86.1,29.6,91.9,36.4z"/>
		<g class="st4">
			<path d="M92.8,38c1.4,0,2.5-0.6,2.5-1.4c0-0.8-1.1-1.4-2.5-1.4s-2.5,0.6-2.5,1.4C90.3,37.4,91.4,38,92.8,38z"/>
		</g>
		<path class="st5" d="M92.9,37.8c1.3,0,2.4-0.6,2.4-1.3c0-0.7-1.1-1.3-2.4-1.3c-1.3,0-2.4,0.6-2.4,1.3
			C90.5,37.3,91.6,37.8,92.9,37.8z"/>
		<path class="st10" d="M4,50.5c5.2-5.9,15.5-12.3,17-20.9c3.8,15.7,7.6,25.5,17.6,34.5l-9,22.5C19.1,75.2,9.8,63.5,4,50.5z"/>
		<path class="st11" d="M10.9,48.4c0.1,2.1,0.3,4.2-1.1,5.5C7,55.2,19,72.6,23.9,76.4c4,5.8-0.2-0.1,1.8,1.8l6.2-6.7
			c-0.1-2,1.7-2.5,2.9-3.7L21.8,40.4c-1.9,0-2.6,1.4-4.3,0.1L10.9,48.4z M17.6,55.9c0.2-0.5,0.5-1,1-1.3c1.5-1,4-0.1,5.5,2
			c1.5,2.2,1.5,4.8-0.1,5.8c-1.5,1-4,0.1-5.5-2C17.4,59,17.1,57.2,17.6,55.9z"/>
		<path d="M24.9,58.3c0.8,1.2,0.8,1.2,0.7,2.5c-0.1,1.3-0.1,1.3-1.1,2.3l1.9,2.8l-0.7,0.5l-1.9-2.7c-0.7,0.6-0.7,0.6-1.5,0.9
			c-0.8,0.3-0.8,0.3-1.5,0.4l-1.1-1.5l0.1-0.1c0.2,0,0.2,0,0.6,0c0.4,0,0.4,0,0.8-0.1c0.4-0.1,0.4-0.1,0.9-0.3
			c0.5-0.2,0.5-0.2,0.9-0.5l-2.3-3.3c-0.3,0.1-0.3,0.1-0.5,0.2s-0.2,0.1-0.4,0.2c-1.1,0.4-1.1,0.4-2,0.1c-0.8-0.3-0.8-0.3-1.5-1.2
			c-0.8-1.1-0.8-1.1-0.7-2.4c0.1-1.3,0.1-1.3,1.2-2.4l-1.4-2.1l0.7-0.5l1.4,2.1c0.6-0.4,0.6-0.4,1.3-0.7c0.7-0.3,0.7-0.3,1.3-0.4
			l1,1.5l-0.1,0.1c-0.7,0-0.7,0-1.3,0.1c-0.6,0.1-0.6,0.1-1.4,0.6l2.3,3.3c0.1-0.1,0.3-0.1,0.4-0.2c0.2-0.1,0.2-0.1,0.4-0.2
			c1-0.4,1-0.4,1.9-0.2C24.2,57.3,24.2,57.3,24.9,58.3z M19.9,58l-2.2-3.2c-0.6,0.5-0.6,0.5-0.7,1.3c-0.1,0.7-0.1,0.7,0.3,1.4
			c0.5,0.7,0.5,0.7,1,0.8C18.9,58.4,18.9,58.4,19.9,58z M24,59.4c-0.5-0.7-0.5-0.7-1.1-0.8c-0.6-0.1-0.6-0.1-1.4,0.3l2.2,3.2
			c0.6-0.6,0.6-0.6,0.7-1.3C24.5,60.1,24.5,60.1,24,59.4z"/>
		<path class="st10" d="M19,52c6.4-4.6,17.9-8.5,21.3-16.5c0.1,16.1,1.6,26.5,9.3,37.6L35.7,92.9C28.1,79.5,21.7,66,19,52z"/>
		<path class="st11" d="M26.2,51.5c-0.4,2.1-0.6,4.2-2.3,5.1c-3.1,0.6,4.6,20.3,8.6,25.1c2.6,6.5-0.1-0.2,1.3,2.2l7.6-5.1
			c0.4-1.9,2.2-2,3.7-3l-6.5-29.6c-1.9-0.4-2.9,0.7-4.2-0.9L26.2,51.5z M31,60.4c0.3-0.5,0.7-0.8,1.2-1c1.7-0.7,3.9,0.8,4.9,3.2
			c1,2.5,0.3,5-1.4,5.6c-1.7,0.7-3.9-0.8-4.9-3.2C30.1,63.3,30.2,61.6,31,60.4z"/>
		<path d="M37.6,64.4c0.5,1.3,0.5,1.3,0.1,2.6s-0.4,1.3-1.7,2l1.2,3.1l-0.8,0.4l-1.2-3.1c-0.9,0.4-0.9,0.4-1.7,0.5
			c-0.8,0.2-0.8,0.1-1.5,0.1l-0.7-1.7l0.1,0c0.2,0.1,0.2,0.1,0.6,0.1c0.4,0.1,0.4,0.1,0.8,0.1c0.4,0,0.4,0,0.9-0.1
			c0.5-0.1,0.5-0.1,1-0.3l-1.5-3.7c-0.3,0.1-0.3,0.1-0.5,0.1c-0.2,0-0.2,0-0.5,0.1c-1.2,0.1-1.2,0.1-1.9-0.3
			c-0.7-0.5-0.7-0.5-1.2-1.5c-0.5-1.3-0.5-1.3-0.1-2.5c0.4-1.2,0.4-1.2,1.7-2l-0.9-2.4l0.8-0.4l0.9,2.3c0.7-0.3,0.7-0.3,1.4-0.4
			c0.8-0.1,0.8-0.1,1.3-0.1l0.7,1.7l-0.1,0c-0.6-0.2-0.6-0.2-1.3-0.2C33,58.7,33,58.7,32.1,59l1.5,3.7c0.2,0,0.3-0.1,0.5-0.1
			c0.3,0,0.3,0,0.4-0.1c1.1-0.2,1.1-0.2,1.9,0.2C37.1,63.3,37.1,63.3,37.6,64.4z M32.7,63l-1.4-3.6c-0.7,0.4-0.7,0.4-1,1.1
			c-0.3,0.7-0.3,0.7,0,1.4c0.3,0.8,0.3,0.8,0.8,1S31.7,63.1,32.7,63z M36.5,65.2c-0.3-0.8-0.3-0.8-0.9-1c-0.5-0.2-0.5-0.2-1.5,0
			l1.4,3.6c0.7-0.5,0.7-0.5,1-1.1C36.8,66.1,36.8,66.1,36.5,65.2z"/>
		<path class="st10" d="M34.3,36.6c7.3-2.9,19.4-4,24.6-10.9c-3.8,15.7-4.9,26.2,0,38.7L40.7,80.4C36.5,65.5,33.5,50.9,34.3,36.6z"
			/>
		<path class="st11" d="M41.4,37.9c-0.9,1.9-1.6,3.9-3.5,4.4c-3.1-0.2-0.4,20.8,2.3,26.4c0.9,6.9-0.1-0.2,0.8,2.4l8.6-3.1
			c0.8-1.8,2.6-1.4,4.3-2l0.8-30.3c-1.7-0.8-3,0-3.9-1.9L41.4,37.9z M43.9,47.7c0.4-0.4,0.9-0.6,1.4-0.7c1.8-0.2,3.6,1.7,3.9,4.3
			c0.3,2.6-0.9,4.9-2.7,5.1c-1.8,0.2-3.6-1.7-3.9-4.3C42.4,50.3,42.9,48.6,43.9,47.7L43.9,47.7z"/>
		<path d="M49.4,53.1c0.2,1.4,0.2,1.4-0.5,2.6c-0.7,1.1-0.7,1.1-2.1,1.6l0.4,3.3l-0.8,0.2l-0.4-3.3c-0.9,0.2-0.9,0.2-1.8,0.1
			c-0.9-0.1-0.8-0.1-1.5-0.3l-0.2-1.8l0.1,0c0.2,0.1,0.2,0.1,0.5,0.3c0.4,0.2,0.4,0.2,0.7,0.3c0.4,0.1,0.4,0.1,0.9,0.2
			c0.5,0,0.5,0,1.1,0l-0.5-4c-0.3,0-0.3,0-0.5,0c-0.2,0-0.2,0-0.5-0.1c-1.2-0.1-1.2-0.1-1.8-0.8c-0.6-0.7-0.6-0.7-0.8-1.8
			c-0.2-1.4-0.2-1.4,0.5-2.5c0.7-1.1,0.7-1.1,2.2-1.6L44,42.9l0.8-0.2l0.3,2.5c0.7-0.1,0.7-0.1,1.5-0.1c0.8,0.1,0.8,0.1,1.3,0.2
			l0.2,1.8l-0.1,0c-0.6-0.3-0.6-0.3-1.2-0.5c-0.6-0.2-0.6-0.2-1.6-0.1l0.5,4c0.2,0,0.3,0,0.5,0c0.3,0,0.3,0,0.4,0
			c1.1,0.1,1.1,0.1,1.8,0.7C49.2,51.9,49.2,51.9,49.4,53.1z M45,50.6l-0.5-3.8c-0.7,0.2-0.7,0.2-1.2,0.8c-0.5,0.6-0.5,0.6-0.3,1.4
			s0.1,0.8,0.6,1.2C43.9,50.5,43.9,50.5,45,50.6z M48.1,53.7c-0.1-0.9-0.1-0.9-0.6-1.2c-0.5-0.3-0.5-0.3-1.4-0.4l0.5,3.8
			c0.8-0.3,0.8-0.3,1.2-0.8S48.2,54.6,48.1,53.7L48.1,53.7z"/>
		<path class="st10" d="M31.4,38.4c7.3-2.9,19.4-4,24.6-10.9c-3.8,15.7-4.9,26.2,0,38.7L37.8,82.1C33.6,67.3,30.6,52.6,31.4,38.4z"
			/>
		<path class="st11" d="M38.5,39.7c-0.9,1.9-1.6,3.9-3.5,4.4c-3.1-0.2-0.4,20.8,2.3,26.4c0.9,6.9-0.1-0.2,0.8,2.4l8.6-3.1
			c0.8-1.8,2.6-1.4,4.3-2l0.8-30.3c-1.7-0.8-3,0-3.9-1.9L38.5,39.7z M41,49.4c0.4-0.4,0.9-0.6,1.4-0.7c1.8-0.2,3.6,1.7,3.9,4.3
			c0.3,2.6-0.9,4.9-2.7,5.1c-1.8,0.2-3.6-1.7-3.9-4.3C39.5,52.1,40,50.4,41,49.4L41,49.4z"/>
		<path d="M46.5,54.9c0.2,1.4,0.2,1.4-0.5,2.6c-0.7,1.1-0.7,1.1-2.1,1.6l0.4,3.3l-0.8,0.2L43,59.2c-0.9,0.2-0.9,0.2-1.8,0.1
			c-0.9-0.1-0.9-0.1-1.5-0.3l-0.2-1.8l0.1,0c0.2,0.1,0.2,0.1,0.5,0.3c0.4,0.2,0.4,0.2,0.7,0.3c0.4,0.1,0.4,0.1,0.9,0.2
			c0.5,0,0.5,0,1.1,0l-0.5-4c-0.3,0-0.3,0-0.5,0c-0.2,0-0.2,0-0.5-0.1c-1.2-0.1-1.2-0.1-1.8-0.8c-0.6-0.7-0.6-0.7-0.8-1.8
			c-0.2-1.4-0.2-1.4,0.5-2.5c0.7-1.1,0.7-1.1,2.2-1.6l-0.3-2.5l0.8-0.2l0.3,2.5c0.7-0.1,0.7-0.1,1.5-0.1c0.8,0.1,0.8,0.1,1.3,0.2
			l0.2,1.8l-0.1,0c-0.6-0.3-0.6-0.3-1.2-0.5c-0.6-0.2-0.6-0.2-1.6-0.1l0.5,4c0.2,0,0.3,0,0.5,0c0.3,0,0.3,0,0.4,0
			c1.1,0.1,1.1,0.1,1.8,0.7C46.3,53.7,46.3,53.6,46.5,54.9z M42.1,52.3l-0.5-3.8c-0.7,0.2-0.7,0.2-1.2,0.8c-0.5,0.6-0.5,0.6-0.3,1.4
			c0.1,0.8,0.1,0.8,0.6,1.2C41,52.2,41,52.2,42.1,52.3z M45.2,55.4c-0.1-0.9-0.1-0.9-0.6-1.2c-0.5-0.3-0.5-0.3-1.4-0.4l0.5,3.8
			c0.8-0.3,0.8-0.3,1.2-0.8C45.3,56.3,45.3,56.3,45.2,55.4L45.2,55.4z"/>
		<path class="st12" d="M62.4,120l-23.8-5.2l-8.3-1.8L9,108.2L0,66.3l21.3,2.3l9.3,1l24.9,2.7L62.4,120z"/>
		<g class="st13">
			<path d="M38.7,114.8l-9.6-2.1l-7.9-44l9.4,0.9L38.7,114.8z"/>
		</g>
		<path class="st5" d="M38.7,114.8l-8.3-1.8l-9-44.3l9.3,1L38.7,114.8z"/>
	</g>
</g>
</svg>
