<?xml version="1.0" encoding="utf-8"?>
<!-- Generator: Adobe Illustrator 25.4.1, SVG Export Plug-In . SVG Version: 6.00 Build 0)  -->
<svg version="1.1" id="Layer_1" xmlns="http://www.w3.org/2000/svg" xmlns:xlink="http://www.w3.org/1999/xlink" x="0px" y="0px"
	 viewBox="0 0 142 126" style="enable-background:new 0 0 142 126;" xml:space="preserve">
<style type="text/css">
	.st0{fill:#EDF6F9;}
	.st1{fill:#1B2E35;}
	.st2{fill:#D3E8EF;}
	.st3{fill:#FFFFFF;}
	.st4{fill:#B0CAD1;}
	.st5{fill:#F0AE2C;}
	.st6{fill:#FF9000;}
	.st7{fill:#F27900;}
	.st8{fill:#385A66;}
	.st9{fill:#0E1F23;}
	.st10{fill:#DCEBEF;}
	.st11{fill:#EDA49E;}
	.st12{fill:#149AC9;}
	.st13{fill:#56A7B6;}
	.st14{fill:#4E929B;}
	.st15{fill:#8C6239;}
	.st16{fill:#FF6B67;}
	.st17{fill:#603813;}
	.st18{fill:#F05455;}
	.st19{fill:#1A1A1A;}
	.st20{fill:#E6E6E6;}
	.st21{fill:#FFBF9C;}
	.st22{fill:#CE7755;}
	.st23{fill:#561D3E;}
	.st24{fill-rule:evenodd;clip-rule:evenodd;fill:#561D3E;}
	.st25{fill:#823A3A;}
	.st26{fill:#602B2B;}
	.st27{fill:#FAEDEC;}
	.st28{fill:#60381D;}
</style>
<path class="st0" d="M103,72.3h-2.8c-1.1,0-2.2,0.5-3,1.3c-0.8,0.8-1.2,1.9-1.2,3c0,1.1,0.4,2.2,1.2,3c0.8,0.8,1.9,1.3,3,1.3h2.8
	c1.1,0,2.2-0.5,3-1.3c0.8-0.8,1.2-1.9,1.2-3c0-1.1-0.4-2.2-1.2-3C105.2,72.7,104.1,72.3,103,72.3z"/>
<path class="st1" d="M100.2,72.3c-0.8,0-1.7,0.3-2.4,0.7c-0.7,0.5-1.3,1.1-1.6,1.9c-0.3,0.8-0.4,1.7-0.2,2.5
	c0.2,0.8,0.6,1.6,1.2,2.2c0.6,0.6,1.4,1,2.2,1.2c0.8,0.2,1.7,0.1,2.5-0.2c0.8-0.3,1.5-0.9,1.9-1.6c0.5-0.7,0.7-1.5,0.7-2.4
	c0-0.6-0.1-1.1-0.3-1.6c-0.2-0.5-0.5-1-0.9-1.4c-0.4-0.4-0.9-0.7-1.4-0.9C101.3,72.4,100.7,72.3,100.2,72.3z M100.2,78
	c-0.3,0-0.6-0.1-0.8-0.2c-0.2-0.2-0.4-0.4-0.5-0.7c-0.1-0.3-0.1-0.6-0.1-0.8c0.1-0.3,0.2-0.5,0.4-0.7c0.2-0.2,0.5-0.3,0.7-0.4
	c0.3-0.1,0.6,0,0.8,0.1c0.3,0.1,0.5,0.3,0.7,0.5c0.2,0.2,0.2,0.5,0.2,0.8c0,0.2,0,0.4-0.1,0.6c-0.1,0.2-0.2,0.3-0.3,0.5
	c-0.1,0.1-0.3,0.2-0.5,0.3C100.5,78,100.4,78,100.2,78L100.2,78z"/>
<path class="st2" d="M105.5,68.6c-0.6,1.5-3.1,3.7-5.4,3.7h3.1c2.2,0,4.8-2.2,5.4-3.7H105.5z"/>
<path class="st2" d="M28.4,98.3H7V123h21.5V98.3z"/>
<path class="st3" d="M20.1,98.3h-4.8v6.8h4.8V98.3z"/>
<path class="st4" d="M48.8,98.3H28.4V123h20.4V98.3z"/>
<path class="st2" d="M44.7,73.8H23.3v24.7h21.5V73.8z"/>
<path class="st3" d="M36.4,73.8h-4.8v6.8h4.8V73.8z"/>
<path class="st4" d="M65.2,73.8H44.7v24.7h20.4V73.8z"/>
<path class="st2" d="M78.7,50.7H48.4V123h30.2V50.7z"/>
<path class="st3" d="M67,50.7h-6.8v9.5H67V50.7z"/>
<path class="st4" d="M107.4,50.7H78.7V123h28.8V50.7z"/>
<path class="st5" d="M103.4,83H68.5V123h34.8V83z"/>
<path class="st0" d="M87.9,83H84v5.5h3.9V83z"/>
<path class="st6" d="M136.5,83h-33.1V123h33.1V83z"/>
<path class="st5" d="M108.8,54.9H84.4v28h24.3V54.9z"/>
<path class="st6" d="M84.4,70.3V54.9h24.3l-1.9,12.1L84.4,70.3z"/>
<path class="st6" d="M131.9,54.9h-23.2v28h23.2V54.9z"/>
<path class="st7" d="M131.9,54.9v12.1l-23.2,3.2V54.9H131.9z"/>
<path class="st5" d="M131.9,54.9l3.9,12.1h-23.2l-3.9-12.1H131.9z"/>
<path class="st5" d="M84.3,54.9l-3.9,12.1h24.5l3.9-12.1H84.3z"/>
<path class="st8" d="M68.9,118.2c-0.3-0.3-0.7-0.5-1.1-0.6c-0.7-0.2-1.4-0.2-2.1-0.3c-1.8,0-3.5,0-5.3,0.1c-1.6,0.1-2.6,0.1-3.2-1.4
	c-0.2-0.4-1.5-4.3-1.8-4.3h-0.4l-5.3,1.8c-0.1,0,2.7,10.2,3.1,11.2c0,0.1,0,0.1,0.1,0.1c0.1,0,0.1,0,0.2,0c1.5-0.3,3-0.6,4.4-1.1
	c2.1-0.7,4.1-1.4,6.2-2.2c1.1-0.4,2.2-0.8,3.2-1.3c0.9-0.4,1.5-1,2.4-1.4C69.3,118.7,69.1,118.4,68.9,118.2z"/>
<path class="st8" d="M11.6,123.4c0.2-0.4,0.3-0.8,0.3-1.2c0-0.7-0.2-1.4-0.5-2.1c-0.6-1.7-1.2-3.3-1.9-5c-0.6-1.5-0.9-2.4,0.3-3.5
	c0.3-0.3,3.5-2.8,3.4-3.1l-0.1-0.4l-3.4-4.4c0,0-8.8,5.9-9.6,6.6c0,0-0.1,0-0.1,0.1c0,0,0,0.1,0,0.1c0,0,0,0.1,0,0.1
	c0,0,0,0.1,0,0.1c0.8,1.3,1.6,2.6,2.5,3.8c1.4,1.7,2.7,3.4,4.1,5.1c0.7,0.9,1.5,1.8,2.3,2.6c0.6,0.7,1.5,1.1,2.1,1.8
	C11.3,123.9,11.5,123.6,11.6,123.4z"/>
<path class="st1" d="M45.3,58.1l-16.5-0.4c1.9,5.4,3.8,10.9,5.7,16.3c5.2,14.8,10.3,29.5,15.5,44.3c2.8-0.6,5.5-1.4,8.2-2.5
	C53.1,96.8,48.8,77.6,45.3,58.1z"/>
<path class="st9" d="M46.7,65.3c-0.4-2.4-0.9-4.8-1.3-7.2l-16.5-0.4c1.9,5.4,3.8,10.9,5.7,16.3c1.4,4.1,2.8,8.1,4.2,12.2
	C40.5,78.9,42.7,71.6,46.7,65.3z"/>
<path class="st1" d="M35.1,87.4c1-9.7,1.9-19.4,2.6-29.1l-14.5-2.2c0.4,0.6-0.1,3-0.1,3.7c-0.2,8.5,0.3,17-0.4,25.6
	c0,0.4-0.1,0.8-0.2,1.2c-0.2,0.5-0.6,1-0.9,1.4c-2.5,3-4.9,6.2-7.7,8.9c-3,3-6,6-9.1,8.9c-0.6,0.6,4.6,6.7,5.2,7.4
	c7.8-5.4,14.7-11.8,21.5-18.4c1.1-1,2.2-2.1,2.8-3.5C34.9,90,35,88.7,35.1,87.4z"/>
<path class="st9" d="M23.1,59.7c-0.1,2.9,0,5.7,0,8.5c4.2,2.8,8.5,5.3,13.2,7.2c0.5-5.7,1-11.4,1.5-17.1l-14.5-2.2
	C23.6,56.6,23.2,59.1,23.1,59.7z"/>
<path class="st9" d="M27.1,57.3c-0.2,3.8-0.4,7.6-0.6,11.5c-0.1,1.9-0.2,3.8-0.3,5.7c-0.1,1.9-0.1,3.8-0.2,5.7
	c-0.1,1.9-0.2,3.8-0.3,5.7c0,0.5-0.1,0.9-0.1,1.4c0,0.4,0,1-0.3,1.3c-0.2,0.4-0.6,0.7-0.9,1l-1,1c-2.7,2.7-5.4,5.4-8.1,8
	c-2.7,2.7-5.5,5.4-8.2,8l-1,1c-0.2,0.2,0.1,0.5,0.3,0.3c2.8-2.7,5.5-5.4,8.3-8.1c2.7-2.7,5.5-5.4,8.2-8.1l2.1-2
	c0.3-0.3,0.6-0.6,0.8-0.9c0.2-0.4,0.2-0.8,0.2-1.2c0.2-1.9,0.3-3.8,0.4-5.7c0.1-1.9,0.1-3.8,0.2-5.7c0.1-1.9,0.2-3.8,0.3-5.8
	l0.7-11.6c0-0.5,0.1-1,0.1-1.5C27.5,57,27.1,57,27.1,57.3L27.1,57.3z"/>
<path class="st9" d="M36.4,57.9l3.3,11.7L43,81.3c1.1,3.9,2.2,7.7,3.3,11.6c1.1,3.8,2.1,7.7,3.2,11.5c1.1,3.8,2.2,7.6,3.4,11.4
	c0.1,0.5,0.3,1,0.5,1.5c0.1,0.3,0.5,0.1,0.4-0.1c-1.2-3.8-2.3-7.6-3.4-11.5c-1.1-3.8-2.1-7.7-3.2-11.5c-1.1-3.8-2.2-7.7-3.3-11.6
	l-3.3-11.7c-1.1-3.9-2.2-7.7-3.3-11.6l-0.4-1.5C36.7,57.6,36.3,57.7,36.4,57.9L36.4,57.9z"/>
<path class="st9" d="M7,104c1.3,1.9,2.6,3.9,3.9,5.8c0.4,0.5,0.8,1.1,1.1,1.6c0.2,0.2,0.5,0,0.4-0.2c-1.4-1.9-2.7-3.8-4-5.8
	l-1.1-1.7C7.2,103.6,6.8,103.8,7,104L7,104z"/>
<path class="st9" d="M49.2,116.4l8.2-2.2c0.1,0,0.1-0.1,0.1-0.1c0,0,0-0.1,0-0.2s0-0.1-0.1-0.1c0,0-0.1,0-0.2,0l-8.2,2.2
	c0,0-0.1,0.1-0.1,0.1c0,0,0,0.1,0,0.2c0,0.1,0,0.1,0.1,0.1C49.1,116.4,49.2,116.4,49.2,116.4z"/>
<path class="st9" d="M57.4,119.4l1.3-1.7c0,0,0-0.1,0-0.2c0-0.1,0-0.1-0.1-0.1c0,0-0.1,0-0.2,0c-0.1,0-0.1,0-0.1,0.1l-1.3,1.7
	c0,0,0,0.1,0,0.2c0,0.1,0,0.1,0.1,0.1c0,0,0.1,0,0.2,0C57.4,119.5,57.4,119.5,57.4,119.4z"/>
<path class="st9" d="M60.8,119.6c0.1-0.7,0.2-1.4,0.3-2.1c0-0.1,0-0.1-0.1-0.1c0,0-0.1-0.1-0.1-0.1c-0.1,0-0.1,0-0.1,0.1
	c0,0-0.1,0.1-0.1,0.1c-0.1,0.7-0.2,1.4-0.3,2.1c0,0.1,0,0.1,0.1,0.1c0,0,0.1,0.1,0.1,0.1c0.1,0,0.1,0,0.1-0.1
	C60.7,119.7,60.8,119.6,60.8,119.6z"/>
<path class="st9" d="M63.8,119.3l-0.3-1.9c0-0.1,0-0.1-0.1-0.1c0,0-0.1,0-0.2,0c-0.1,0-0.1,0.1-0.1,0.1c0,0,0,0.1,0,0.2
	c0.1,0.6,0.2,1.2,0.3,1.9c0,0.1,0,0.1,0.1,0.1s0.1,0,0.2,0c0.1,0,0.1-0.1,0.1-0.1C63.8,119.4,63.8,119.3,63.8,119.3L63.8,119.3z"/>
<path class="st9" d="M6.8,113.8l2.5,0.5c0.1,0,0.1,0,0.2,0c0,0,0.1-0.1,0.1-0.1c0-0.1,0-0.1,0-0.2c0,0-0.1-0.1-0.1-0.1l-2.5-0.5
	c-0.1,0-0.1,0-0.2,0c0,0-0.1,0.1-0.1,0.1c0,0.1,0,0.1,0,0.2C6.7,113.7,6.7,113.7,6.8,113.8z"/>
<path class="st9" d="M8.2,117l1.7-0.5c0.3-0.1,0.1-0.5-0.1-0.4l-1.7,0.5C7.8,116.6,7.9,117,8.2,117z"/>
<path class="st9" d="M9.5,118.7l1.2-1c0,0,0.1-0.1,0.1-0.1s0-0.1-0.1-0.1c0,0-0.1-0.1-0.1-0.1c-0.1,0-0.1,0-0.1,0.1l-1.2,1
	c0,0-0.1,0.1-0.1,0.1c0,0.1,0,0.1,0.1,0.1c0,0,0.1,0.1,0.1,0.1C9.4,118.7,9.5,118.7,9.5,118.7z"/>
<path class="st9" d="M3.9,107.8c0.3,1,0.3,2.1,0,3.1c-0.3,1-0.8,1.9-1.6,2.6c-0.2,0.2,0.1,0.5,0.3,0.3C3.4,113,4,112,4.3,111
	c0.3-1.1,0.3-2.2,0-3.3c0-0.1-0.1-0.1-0.1-0.1c0,0-0.1,0-0.2,0c-0.1,0-0.1,0-0.1,0.1C3.9,107.7,3.9,107.7,3.9,107.8L3.9,107.8z"/>
<path class="st9" d="M51.8,120.7c0.5-0.2,1.1-0.2,1.6-0.2c0.5,0.1,1.1,0.2,1.5,0.5c0.5,0.3,0.9,0.7,1.2,1.1c0.3,0.5,0.5,1,0.6,1.5
	c0,0.3,0.4,0.2,0.4-0.1c-0.1-0.6-0.3-1.1-0.7-1.6c-0.3-0.5-0.8-0.9-1.3-1.2c-0.5-0.3-1.1-0.5-1.7-0.6c-0.6-0.1-1.2,0-1.8,0.2
	C51.4,120.4,51.5,120.8,51.8,120.7z"/>
<path class="st10" d="M65.7,117.3h-0.2c-0.2,0.7,0.1,1.5,0.5,2.2c-2.2,1.3-4.7,2-7.2,2.7l-6.2,1.6c0.2,0.5,0.3,0.9,0.3,1
	c0,0.1,0,0.1,0.1,0.1c0.1,0,0.1,0,0.2,0c1.5-0.3,3-0.6,4.4-1.1c2.1-0.7,4.1-1.4,6.2-2.2c1.1-0.4,2.2-0.8,3.2-1.3
	c0.9-0.4,1.5-1,2.4-1.4c-0.1-0.3-0.3-0.5-0.5-0.8c-0.3-0.3-0.7-0.5-1.1-0.6C67.2,117.4,66.4,117.4,65.7,117.3z"/>
<path class="st10" d="M11.4,120.1c0-0.1,0-0.1-0.1-0.2c-0.7,0-1.4,0.6-1.9,1.2c-2-1.6-3.4-3.8-4.9-6L1,109.7
	c-0.4,0.3-0.8,0.5-0.9,0.6c0,0-0.1,0-0.1,0.1s0,0.1,0,0.1c0,0,0,0.1,0,0.1c0,0,0,0.1,0,0.1c0.8,1.3,1.6,2.6,2.5,3.8
	c1.4,1.7,2.7,3.4,4.1,5.1c0.7,0.9,1.5,1.8,2.3,2.6c0.6,0.7,1.5,1.1,2.1,1.8c0.2-0.2,0.4-0.4,0.5-0.7c0.2-0.4,0.3-0.8,0.3-1.2
	C11.8,121.5,11.6,120.8,11.4,120.1z"/>
<path class="st11" d="M64.6,59.9L64.6,59.9C61.8,59,59,58,56.2,57.3c-2.6-0.7-5.3-1.3-7.6-2.9c-0.8-0.6-1.5-1.3-2.2-2
	c-2.5-2.7-5.3-5.6-7-8.9c-0.8-1.5-1.7-3.2-1.5-4.9c0.1-1.5,1.5-3.5,3.2-3.1c1.4,0.3,3.1,2.4,4,3.4c3.1,3.6,5.6,8,9.4,11
	c1.1,0.9,2.4,1.6,3.7,2.3c2.9,1.6,6.7,4.6,10.1,3.9c1.8-0.4,3.7-0.3,5.6-0.2c0.3,0,0.6,0.1,0.7,0.3c0.1,0.3-0.3,0.5-0.5,0.6
	c-1.1,0.4-2.2,0.6-3.4,0.6l5.7,2.1c0.2,0.1,0.4,0.2,0.5,0.3c0.1,0.3-0.1,0.6-0.3,0.8c-1.3,1.2-3,1.8-4.8,1.7
	C68.9,62.2,66.9,60.7,64.6,59.9z"/>
<path class="st12" d="M39.3,48.3c-3-4.5-6.3-10.1-3.2-15.4c0.4-0.6,0.8-1.2,1.4-1.6c0.6-0.4,1.4-0.5,2-0.3c0.5,0.2,0.8,0.5,1.2,0.9
	c1.6,1.7,3.1,3.4,4.4,5.3c1.4,2,2.8,4.1,3.9,6.3c0,0,0.1,0.1,0.1,0.2c0,0.1,0,0.1,0,0.2c0,0.1,0,0.1,0,0.2c0,0.1-0.1,0.1-0.1,0.1
	c-1.3,1.5-2.6,2.7-4.3,3.7c-0.4,0.2-4.2,2.3-4.5,1.8C39.9,49.3,39.6,48.8,39.3,48.3z"/>
<path class="st13" d="M28.9,66.9c6.3,0.5,12.7-0.3,18.7-2.2c-0.9-8.2-2.2-16.3-3.9-24.3c-0.6-2.9-1.4-6.4-3.5-8.7
	c-2.2-2.3-6-2.4-9.1-2.5c-3-0.1-6.5,0.3-8.5,2.8c-2.1,2.6-1.8,6.3-1.5,9.6c0.4,3.2,0.6,6.4,0.6,9.5c0,1.1-0.2,14.6,0.4,14.7
	C24.3,66.3,26.6,66.7,28.9,66.9z"/>
<path class="st14" d="M21.7,49.2c1.7,2.2,3.2,4.6,4.7,7c2.3,3.7,4.9,7.2,7.3,10.8c4.7-0.1,9.4-0.9,13.9-2.4
	c-0.9-8.2-2.2-16.3-3.9-24.3c-0.5-2.1-1-4.6-2.1-6.7c-2,6.4-3.7,13-6,19.2c0.1-0.4-3.6-3.7-4-4.1c-1.5-1.5-3-3-4.6-4.4
	c-1.5-1.5-3.1-2.9-4.7-4.3c-0.5-0.4-0.9-0.7-1.4-1.1c0,0.9,0.1,1.7,0.2,2.6C21.4,44.2,21.6,46.7,21.7,49.2z"/>
<path class="st15" d="M64.9,47.8L64.9,47.8c-1.5-2.9-2.9-5.8-4.5-8.5c1.3,0.3,2.6,0.6,4,0.6c0.6,0,1.3-0.1,1.8-0.4
	c0.5-0.3,1-0.9,0.9-1.5c-0.1-0.8-1-1.3-1.7-1.6c-3-1.3-6.2-2.7-9.5-2.5c-2.3,0.1-4.6,0.9-6.3,2.3c-1.8,1.5-3.5,3.3-4.5,5.5
	c-0.2,0.4-0.4,0.9-0.3,1.4c0,0.5,0.3,1,0.7,1.2c0.5,0.2,1.2-0.1,1.7-0.4c1.6-0.9,3-2.1,4.1-3.5c-0.6,3.7-0.3,7.9,0.1,11.6
	c-0.7,0.8-1.1,1.8-1.3,2.8c-0.1,0.3-0.1,0.7,0.1,1c0.2,0.2,0.4,0.3,0.7,0.4c0.7,0.2,1.3,0.1,2-0.1c0.6-0.2,1.2-0.6,1.6-1.1
	c1-1.2,1.1-2.8,1.1-4.3l0.1-2.1c1.2-0.3,2.3-0.7,3.4-1.3c0.5,1,0.9,1.9,1.6,2.8c1.5,1.9,4.7,2.8,6.7,1.1c0.4-0.3,0.7-0.7,0.8-1.1
	c0.1-0.5,0-1-0.4-1.3c-0.2-0.1-0.4-0.2-0.6-0.3c-0.6-0.2-1.2-0.4-1.9-0.5c-0.2,0-0.3,0-0.5-0.1C65,47.9,65,47.9,64.9,47.8z"/>
<path class="st16" d="M56.3,40c0.1,0.1,0.3,0.1,0.4,0.1c0.2,0,0.3-0.2,0.3-0.4c1.1-2.2,1.7-4.6,1.9-7c-1.5,0-3,0.2-4.5,0.5
	c-1.3,0.2-3.1,0.5-4.2,1.2c-0.2,0.1,2.3,2.9,2.6,3.1C53.8,38.5,55,39.4,56.3,40z"/>
<path class="st15" d="M59.4,30.8c-0.2-0.3-2.6-3.3-2.7-3.1c0.4-0.8,0.6-1.7,1.2-2.3c0.7-0.6,1.6-0.7,2.4-0.3c1.3,0.6,2,2.2,1.9,3.6
	c0,0.4-0.1,0.7-0.3,1c-0.2,0.3-0.5,0.4-0.8,0.5c-0.5,0.2-1,0.5-1.5,0.6c0,0-0.1,0-0.2,0C59.5,30.9,59.5,30.9,59.4,30.8z"/>
<path class="st17" d="M60.9,29.5c-0.4,0.5-1.7,1-2.1,0.2c-0.3-0.7-0.8-1.1-1.4-1.6c0.5-0.6,0.8-1.3,1.6-1.6c0.6-0.3,1.4-0.1,1.8,0.4
	c0.1,0.2,0.2,0.4,0.2,0.5C61.3,28.2,61.4,29,60.9,29.5z"/>
<path class="st18" d="M51,34.4c1.1,1.7,2.5,3.2,4.1,4.5c0.4,0.3,0.9,0.7,1.4,0.8c0,0,0.1,0,0.1,0c0,0,0.1-0.1,0.1-0.1
	c0.5-1.7,1-3.4,1.3-5.1c0.1-0.5,0.2-1,0.3-1.5c0-0.2-0.3-0.3-0.3-0.1c-0.3,1.7-0.7,3.5-1.2,5.2c-0.1,0.5-0.3,1-0.4,1.4l0.2-0.1
	c-0.5-0.1-0.9-0.3-1.3-0.6c-0.4-0.3-0.8-0.6-1.1-1c-0.7-0.7-1.4-1.4-2-2.1c-0.3-0.4-0.7-0.9-1-1.4C51.1,34.1,50.9,34.2,51,34.4
	L51,34.4z"/>
<path class="st15" d="M48.9,31.2c0.4-0.8,0.9-1.6,1.2-2.4c0.2-0.4,0.6-1.1,0.7-1.5c0.2-0.8-1.1-2.3-2-2.5c-0.9-0.2-1.9,0.1-2.6,0.8
	c-0.7,0.7-1.1,1.6-1.2,2.5c-0.1,0.7-0.1,1.5,0.4,2c0.3,0.2,0.6,0.4,0.9,0.5C47.1,31,48,31.2,48.9,31.2z"/>
<path class="st17" d="M49.2,26.5c-0.3-0.1-0.6-0.2-0.9-0.2c-0.3,0-0.6,0.1-0.9,0.3c-0.5,0.3-0.9,0.8-1.1,1.4
	c-0.1,0.4-0.1,0.9,0.2,1.2c0.1,0.1,0.2,0.2,0.4,0.2c0.7,0.3,1.6,0.5,2.4,0.4c0,0,0.1,0,0.1,0c0.1,0,0.1-0.1,0.1-0.2
	c0.2-0.6,0.4-1.1,0.7-1.6C50.2,27.4,49.8,26.8,49.2,26.5z"/>
<path class="st17" d="M50.3,28L50.3,28C50.3,28,50.3,28.1,50.3,28L50.3,28z"/>
<path class="st15" d="M49.8,27.1c-0.5,0.2-0.9,0.5-1.2,0.9c-0.4,0.6-0.6,1.3-0.8,2c-0.1,0.6-0.2,1.2-0.1,1.7
	c0.2,1.7,1.6,3.1,3.2,3.6c1.6,0.5,3.4,0.4,5,0.2c0.9-0.1,1.8-0.3,2.5-0.8c0.7-0.6,1.2-1.5,1.4-2.4c0.4-1.3,0.4-2.9-0.4-4
	c-1.1-1.5-2.8-1.6-4.5-1.8C53.1,26.2,51.5,26.2,49.8,27.1z"/>
<path class="st19" d="M52.2,33.1c0.3,0.6,1.1,0.7,1.7,0.4c0.7-0.4,0.9-1.2,0.7-2c0-0.2-0.3-0.1-0.3,0.1c0.1,0.7,0.6,1.4,1.3,1.4
	c0.6,0.1,1.3-0.4,1.3-1.1c0,0,0-0.1,0-0.1c0,0-0.1,0-0.1,0c0,0-0.1,0-0.1,0c0,0,0,0.1,0,0.1c0,0.5-0.6,0.8-1,0.8
	c-0.6-0.1-0.9-0.7-1-1.2l-0.3,0.1c0.1,0.6,0,1.3-0.6,1.6c-0.4,0.3-1.1,0.2-1.3-0.3C52.4,32.8,52.1,32.9,52.2,33.1L52.2,33.1z"/>
<path class="st19" d="M50.8,29.4c-0.1,0.4,0.2,0.7,0.5,0.8c0.4,0.1,0.8-0.1,1-0.4c0.1-0.2,0.2-0.4,0.2-0.6c0,0,0-0.1,0-0.1
	c0,0-0.1,0-0.1,0c0,0-0.1,0-0.1,0c0,0,0,0.1,0,0.1c0,0.3-0.2,0.7-0.6,0.8c-0.1,0-0.1,0-0.2,0c-0.1,0-0.1-0.1-0.2-0.1
	c-0.1,0-0.1-0.1-0.1-0.2c0-0.1,0-0.1,0-0.2C51.2,29.3,50.9,29.2,50.8,29.4z"/>
<path class="st19" d="M56.1,29.1c0,0.2,0.1,0.4,0.2,0.5c0.1,0.1,0.3,0.2,0.5,0.3c0.2,0,0.4,0,0.5-0.1c0.2-0.1,0.3-0.2,0.3-0.4
	c0.1-0.2,0.1-0.4,0-0.6c0,0,0-0.1-0.1-0.1c0,0-0.1,0-0.1,0c0,0-0.1,0-0.1,0.1c0,0,0,0.1,0,0.1c0,0.1,0,0.1,0,0.2
	c0,0.1,0,0.1-0.1,0.2c0,0.1-0.1,0.1-0.1,0.2c0,0-0.1,0.1-0.2,0.1c-0.1,0-0.1,0-0.2,0c-0.1,0-0.1,0-0.2-0.1c-0.1-0.1-0.1-0.1-0.2-0.2
	c0-0.1-0.1-0.1-0.1-0.2c0,0,0-0.1,0-0.1c0,0-0.1,0-0.1,0c0,0-0.1,0-0.1,0C56.1,29.1,56.1,29.1,56.1,29.1L56.1,29.1z"/>
<path class="st17" d="M55.1,32.2c0.6-0.3,0.9-1.1,0.3-1.5c-0.6-0.4-2.8,0-2.1,1c0.2,0.3,0.5,0.5,0.8,0.6
	C54.4,32.3,54.8,32.3,55.1,32.2z"/>
<path class="st17" d="M45.9,43.8c0.3,0.2,0.7-0.1,1-0.4c0.2-0.3,0.3-0.6,0.2-1C46.7,40.9,45.2,43.4,45.9,43.8z"/>
<path class="st17" d="M65.4,38c-0.2,0.2-0.4,0.4-0.5,0.7c-0.1,0.1-0.1,0.3,0,0.4c0.1,0.3,0.5,0.3,0.8,0.2
	C66.6,39.1,66.6,37.2,65.4,38z"/>
<path class="st17" d="M51.2,54.6c-0.3,0.4-0.5,0.9-0.5,1.4c0,0,0,0.1,0,0.1c0,0,0.1,0,0.1,0c0,0,0.1,0,0.1,0c0,0,0-0.1,0-0.1
	c0.1-0.5,0.2-0.9,0.5-1.3c0,0,0,0,0-0.1c0,0,0,0,0-0.1c0,0,0,0,0-0.1c0,0,0,0,0,0c0,0,0,0-0.1,0C51.3,54.5,51.3,54.5,51.2,54.6
	C51.2,54.5,51.2,54.5,51.2,54.6C51.2,54.6,51.2,54.6,51.2,54.6L51.2,54.6z"/>
<path class="st17" d="M52.7,54.8c-0.1,0.4-0.2,0.8-0.2,1.2c0,0,0,0.1,0,0.1c0,0,0.1,0,0.1,0c0,0,0.1,0,0.1,0c0,0,0-0.1,0-0.1
	c0-0.4,0-0.8,0.2-1.1c0,0,0-0.1,0-0.1c0,0-0.1-0.1-0.1-0.1C52.8,54.7,52.8,54.7,52.7,54.8C52.7,54.8,52.7,54.8,52.7,54.8L52.7,54.8z
	"/>
<path class="st17" d="M66.6,50.6c0.4,0.2,0.7,0.4,1,0.7c0,0,0.1,0,0.1,0c0,0,0.1,0,0.1,0c0,0,0-0.1,0-0.1s0-0.1,0-0.1
	c-0.3-0.3-0.7-0.6-1.2-0.7c0,0-0.1,0-0.1,0c0,0-0.1,0.1-0.1,0.1C66.5,50.4,66.5,50.5,66.6,50.6C66.6,50.5,66.6,50.6,66.6,50.6z"/>
<path class="st17" d="M67.3,49.7c0.2,0,0.4,0,0.5,0c0.2,0,0.3,0.1,0.5,0.2c0,0,0.1,0,0.1,0c0,0,0.1,0,0.1,0c0,0,0-0.1,0-0.1
	s0-0.1,0-0.1c-0.2-0.1-0.4-0.2-0.6-0.3c-0.2-0.1-0.5-0.1-0.7,0c0,0-0.1,0-0.1,0.1c0,0,0,0.1,0,0.1c0,0,0,0.1,0.1,0.1
	C67.3,49.7,67.3,49.7,67.3,49.7L67.3,49.7z"/>
<path class="st3" d="M51.4,27.1c-0.7,0.1-1.3,0.4-1.9,0.9c-0.1,0.1,0.1,0.3,0.2,0.2c0.5-0.4,1.1-0.7,1.7-0.8c0,0,0.1,0,0.1-0.1
	c0,0,0-0.1,0-0.1c0,0,0-0.1-0.1-0.1S51.4,27.1,51.4,27.1L51.4,27.1z"/>
<path class="st3" d="M49,29.1C49,29.1,49.1,29,49,29.1c0.1-0.1,0.1-0.1,0.1-0.1s0-0.1,0-0.1c0,0-0.1,0-0.1,0c0,0-0.1,0-0.1,0
	s0,0.1,0,0.1S48.9,29,49,29.1C48.9,29,49,29.1,49,29.1z"/>
<path class="st3" d="M47.9,38.8c-0.5,0.5-0.9,1-1.2,1.7c-0.1,0.2,0.2,0.3,0.3,0.1c0.3-0.6,0.7-1.1,1.2-1.6
	C48.2,38.9,48,38.7,47.9,38.8L47.9,38.8z"/>
<path class="st3" d="M52,50.4c0.2,0.3,0.5,0.6,0.9,0.7c0.2,0.1,0.3,0.1,0.5,0c0.2,0,0.3-0.1,0.4-0.2c0.1-0.1-0.1-0.4-0.2-0.2
	c-0.1,0.1-0.2,0.1-0.3,0.2c-0.1,0-0.2,0-0.4,0c-0.3-0.1-0.5-0.3-0.7-0.6c0,0-0.1-0.1-0.1-0.1c0,0-0.1,0-0.1,0c0,0-0.1,0.1-0.1,0.1
	C51.9,50.3,52,50.4,52,50.4z"/>
<path class="st3" d="M62.5,48.6c0.1,0.1,0.3,0.1,0.4,0c0.1,0,0.3-0.1,0.4-0.2c0.2-0.2,0.3-0.5,0.4-0.8c0,0,0,0,0-0.1c0,0,0,0,0-0.1
	c0,0,0,0,0,0c0,0,0,0-0.1,0c0,0,0,0-0.1,0c0,0,0,0-0.1,0c0,0,0,0,0,0c0,0,0,0,0,0.1c0,0.1-0.1,0.3-0.1,0.4c0,0.1-0.1,0.2-0.2,0.3
	c0,0,0,0-0.1,0.1l0,0l0,0c0,0,0,0-0.1,0c0,0,0,0,0,0l0,0c0,0-0.1,0-0.1,0c0,0,0,0,0,0h0h0h0h0c0,0,0,0,0,0l0,0c0,0,0,0,0,0
	c0,0-0.1,0-0.1,0c0,0-0.1,0-0.1,0.1C62.5,48.4,62.5,48.5,62.5,48.6C62.5,48.5,62.5,48.6,62.5,48.6L62.5,48.6z"/>
<path class="st3" d="M63.2,36.1l0.9,0.4c0,0,0.1,0,0.1,0c0,0,0.1,0,0.1-0.1c0,0,0-0.1,0-0.1c0,0,0-0.1-0.1-0.1l-0.9-0.4
	c0,0-0.1,0-0.1,0c0,0-0.1,0-0.1,0.1C63.1,36,63.1,36,63.2,36.1C63.2,36.1,63.2,36.1,63.2,36.1L63.2,36.1z"/>
<path class="st3" d="M63.2,38.2c-4.1,5.1-0.2,12.2,6,12.1c2.8,0,5.6-1.7,6.9-4.2c1.3-2.5,1.1-5.9-0.6-8.1c-1.9-2.4-4.9-3.2-7.8-2.5
	C65.7,36,64.2,36.9,63.2,38.2z"/>
<path class="st20" d="M75.4,38c-0.3-0.3-0.5-0.6-0.8-0.9c1.1,2.2,1.1,5,0,7.2c-1.3,2.5-4.1,4.1-6.9,4.2c-2,0-3.8-0.7-5.3-2
	c0.7,1.2,1.6,2.2,2.8,2.9c1.2,0.7,2.5,1,3.9,1c2.8,0,5.6-1.7,6.9-4.2C77.4,43.6,77.2,40.2,75.4,38z"/>
<path class="st19" d="M67.7,45.3c0.1,0.1,0.2,0.3,0.4,0.4c0.3,0.2,0.6,0,0.9-0.1l1.8-0.7c0.1,0,0.2-0.1,0.2-0.1
	c0.1-0.1,0.1-0.2,0.1-0.3c0.3-1,0.5-2,0.7-3c0,0,0-0.1,0-0.1c0,0,0-0.1,0-0.1c0,0,0-0.1-0.1-0.1c0,0-0.1,0-0.1,0c-1-0.4-2-1-3.1-1.1
	c-0.1,0-0.1,0-0.2,0c-0.1,0-0.1,0.1-0.1,0.1l-1.9,2.6c-0.1,0.1-0.1,0.2-0.1,0.3C66.3,43.6,67.2,44.7,67.7,45.3z"/>
<path class="st19" d="M64.2,41.9c0-0.1-0.1-0.2-0.1-0.3c-0.7-0.7-1.2-1.4-1.7-2.2c-0.7,1.2-1,2.6-0.9,4c0.9-0.3,1.8-0.8,2.6-1.3
	C64.1,42.1,64.2,42,64.2,41.9z"/>
<path class="st19" d="M67.6,35.5c-0.7,0.2-1.4,0.4-2,0.7c0.5,0.6,1.1,1.2,1.8,1.5c0.1,0,0.2,0.1,0.3,0c0.2,0,0.3-0.2,0.4-0.3
	c0.5-0.7,0.9-1.4,1.1-2.2C68.7,35.3,68.2,35.4,67.6,35.5z"/>
<path class="st19" d="M76.8,41.5c-0.2-1.3-0.6-2.5-1.4-3.5c0,0-0.1-0.1-0.1-0.1c-0.5,0.6-1,1.2-1.5,1.9c-0.1,0.2-0.2,0.4-0.1,0.6
	c0.1,0.1,0.1,0.1,0.2,0.1C74.9,40.9,75.8,41.2,76.8,41.5L76.8,41.5z"/>
<path class="st19" d="M68.9,50.3c-0.5-0.9-1-1.7-1.5-2.5c0-0.1-0.1-0.1-0.2-0.2c-0.1,0-0.2,0-0.3,0c-0.4,0.1-0.7,0.4-1,0.7L65,49.2
	C66.2,49.9,67.5,50.3,68.9,50.3z"/>
<path class="st19" d="M76,46.1c0.1-0.3,0.3-0.6,0.4-0.9l-1.9,0.3c-0.4,0.1-0.8,0.2-0.9,0.5c0,0.2,0,0.3,0,0.5c0.1,0.7,0.2,1.3,0.3,2
	C74.7,48,75.5,47.1,76,46.1z"/>
<path class="st19" d="M63.2,42c0.6,0,1.2,0.2,1.7,0.4c0.6,0.2,1.2,0.5,1.8,0.7c0.2,0.1,0.3-0.2,0.1-0.3c-0.6-0.2-1.2-0.5-1.8-0.7
	c-0.6-0.2-1.2-0.4-1.8-0.4C63,41.7,63,42,63.2,42L63.2,42z"/>
<path class="st19" d="M67.6,37.4c0.1,1,0.4,2,0.6,3c0,0,0,0.1,0.1,0.1c0,0,0.1,0,0.1,0c0,0,0.1,0,0.1-0.1c0,0,0-0.1,0-0.1
	c-0.3-1-0.5-2-0.6-3C67.9,37.1,67.6,37.2,67.6,37.4z"/>
<path class="st19" d="M70.8,41.9c1.2-0.7,2.4-1.2,3.6-1.7c0.2-0.1,0.1-0.3-0.1-0.3c-1.3,0.5-2.5,1-3.7,1.7c0,0,0,0.1-0.1,0.1
	c0,0,0,0.1,0,0.1C70.6,41.9,70.7,41.9,70.8,41.9C70.7,41.9,70.8,41.9,70.8,41.9L70.8,41.9z"/>
<path class="st19" d="M68.3,45.1l-0.9,1.8c-0.3,0.6-0.5,1.1-0.6,1.7c0,0.2,0.3,0.2,0.3,0c0.1-0.6,0.3-1.1,0.6-1.7
	c0.3-0.6,0.6-1.2,0.8-1.7C68.6,45.1,68.4,44.9,68.3,45.1L68.3,45.1z"/>
<path class="st19" d="M70.6,44.3c1.2,0.6,2.5,1.3,3.5,2.2c0.1,0.1,0.4-0.1,0.2-0.2c-1.1-0.9-2.3-1.6-3.6-2.2
	C70.5,44,70.4,44.3,70.6,44.3L70.6,44.3z"/>
<path class="st5" d="M81,38.7H60.9v23.2H81V38.7z"/>
<path class="st6" d="M81,51.4V38.7H60.9l1.6,10L81,51.4z"/>
<path class="st6" d="M60.9,38.7H41.7v23.2h19.2V38.7z"/>
<path class="st7" d="M41.7,38.7v10l19.2,2.7V38.7H41.7z"/>
<path class="st5" d="M41.7,38.7l-3.2,10h19.2l3.2-10H41.7z"/>
<path class="st5" d="M81.1,38.7l3.2,10H64.1l-3.2-10H81.1z"/>
<path class="st21" d="M49.4,59.9L49.4,59.9C46.6,59,43.8,58,41,57.3c-2.6-0.7-5.3-1.3-7.6-2.9c-0.8-0.6-1.5-1.3-2.2-2
	c-2.5-2.6-5.3-5.6-7-8.9c-0.8-1.5-1.7-3.2-1.5-4.9c0.1-1.5,1.5-3.5,3.2-3.1c1.4,0.3,3.1,2.4,4,3.4c3.1,3.6,5.6,8,9.4,11
	c1.1,0.9,2.4,1.6,3.7,2.3c2.9,1.6,6.7,4.6,10.1,3.9c1.8-0.4,3.7-0.3,5.6-0.2c0.3,0,0.6,0.1,0.7,0.3c0.1,0.3-0.3,0.5-0.5,0.6
	c-1.1,0.4-2.2,0.6-3.4,0.6l5.7,2.1c0.2,0.1,0.4,0.2,0.5,0.3c0.1,0.3-0.1,0.6-0.3,0.8c-1.3,1.2-3,1.8-4.8,1.7
	C53.7,62.2,51.7,60.7,49.4,59.9z"/>
<path class="st11" d="M34.9,45.5c-1.8-2.2-3.4-4.6-5.1-6.7c-0.9-1-2.6-3.1-4-3.4c-1.7-0.4-3.1,1.6-3.2,3.1c-0.1,1.7,0.7,3.4,1.5,4.9
	c1.5,2.9,3.9,5.5,6.1,7.9C32.3,49.9,33.9,47.9,34.9,45.5z"/>
<path class="st13" d="M25,48.3c-3-4.5-6.3-10.1-3.2-15.4c0.4-0.6,0.8-1.2,1.4-1.6c0.6-0.4,1.4-0.5,2-0.3c0.5,0.2,0.8,0.5,1.2,0.9
	c1.6,1.7,3.1,3.4,4.4,5.3c1.4,2,2.8,4.1,3.9,6.3c0,0,0.1,0.1,0.1,0.2s0,0.1,0,0.2c0,0.1,0,0.1,0,0.2c0,0.1-0.1,0.1-0.1,0.1
	c-1.3,1.5-2.6,2.7-4.3,3.7c-0.4,0.2-4.2,2.3-4.5,1.8C25.6,49.3,25.3,48.8,25,48.3z"/>
<path class="st1" d="M26.5,32.5c2.3,2.7,4.3,5.5,6.3,8.4c0.5,0.7,1,1.5,1.4,2.2c0.1,0.2,0.2,0.4,0.4,0.5c0.1,0.1,0.1,0.2,0.1,0.3
	c0,0.1-0.1,0.2-0.1,0.3c-0.2,0.3-0.5,0.6-0.7,0.9c-1,1.1-2.2,2.1-3.5,3c-1.5,0.9-3,1.6-4.7,2.1l0.2,0.1c-1.2-2.3-2.6-4.5-3.6-6.9
	c-0.1-0.2-0.5,0-0.4,0.2c1.1,2.4,2.4,4.6,3.6,6.9c0,0,0.1,0.1,0.1,0.1c0,0,0.1,0,0.1,0c3-0.9,5.9-2.5,8.1-4.9
	c0.3-0.3,0.5-0.6,0.8-0.9c0.2-0.3,0.6-0.6,0.5-1c-0.1-0.2-0.2-0.4-0.3-0.5c-0.1-0.2-0.3-0.4-0.4-0.6c-0.3-0.4-0.5-0.8-0.8-1.2
	c-1-1.5-2-3-3.1-4.5c-1.2-1.6-2.4-3.3-3.8-4.8C26.6,32,26.3,32.3,26.5,32.5L26.5,32.5z"/>
<path class="st21" d="M124.5,124.1c0.1-0.4,0.2-0.8,0.5-1.1c0.4-0.6,1-1,1.6-1.4c1.4-1.1,2.9-2.1,4.4-3c1.3-0.9,2.1-1.5,1.8-3
	c-0.1-0.5-1.3-4.3-1.1-4.5l0.3-0.2l5.3-1.7c0.1,0,3.8,9.9,4.1,10.9c0,0,0,0.1,0,0.1c0,0,0,0.1,0,0.1c0,0,0,0.1-0.1,0.1
	c0,0-0.1,0-0.1,0c-1.4,0.7-2.8,1.3-4.2,1.7c-2.1,0.6-4.2,1.3-6.3,1.9c-1.1,0.3-2.2,0.6-3.4,0.9c-0.9,0.2-1.8,0.1-2.7,0.2
	C124.4,124.7,124.4,124.4,124.5,124.1z"/>
<path class="st13" d="M130.6,123.9c2.1-0.6,4.2-1.3,6.3-1.9c1.4-0.4,2.9-1,4.2-1.7c0.1,0,0.1-0.1,0.1-0.1c0-0.1,0-0.1,0-0.2
	c-0.1-0.3-0.6-1.8-1.3-3.5c-2.3,1.1-4.8,2-7.2,2.8c0.2-0.7,0-1.4-0.5-1.9c-0.3,0.4-0.8,0.7-1.4,1.1c-1.5,1-2.9,2-4.4,3
	c-0.6,0.4-1.1,0.9-1.6,1.5c-0.2,0.3-0.4,0.7-0.5,1.1c-0.1,0.3,0,0.6,0.1,0.9c0.9-0.2,1.8,0,2.7-0.2
	C128.4,124.5,129.5,124.2,130.6,123.9z"/>
<path class="st10" d="M126.5,121.5l0.1-0.1c0.6,0.4,0.8,1.3,0.9,2c2.6-0.2,5-1.2,7.4-2.1l6-2.4c0.2,0.5,0.3,0.9,0.4,1
	c0,0,0,0.1,0,0.1c0,0,0,0.1,0,0.1c0,0,0,0.1-0.1,0.1c0,0-0.1,0-0.1,0c-1.4,0.7-2.8,1.3-4.2,1.7c-2.1,0.6-4.2,1.3-6.3,1.9
	c-1.1,0.3-2.2,0.6-3.4,0.9c-0.9,0.2-1.8,0.1-2.7,0.2c-0.1-0.3-0.1-0.6-0.1-0.9c0.1-0.4,0.2-0.8,0.5-1.1
	C125.3,122.4,125.9,122,126.5,121.5z"/>
<path class="st21" d="M96.3,122.7c0.2-0.4,0.5-0.7,0.8-0.9c0.6-0.4,1.3-0.7,1.9-0.9c1.7-0.6,3.4-1.1,5.1-1.6
	c1.5-0.4,2.5-0.7,2.6-2.3c0-0.5,0.1-4.5,0.3-4.6l0.4-0.1l5.6,0.1c0.1,0,0.6,10.6,0.6,11.6c0,0.1,0,0.1,0,0.2c0,0-0.1,0.1-0.2,0.1
	c-1.5,0.2-3.1,0.3-4.6,0.3c-2.2-0.1-4.4,0-6.5-0.1c-1.2,0-2.3-0.1-3.5-0.2c-0.9-0.1-1.7-0.5-2.7-0.6
	C96.1,123.2,96.2,122.9,96.3,122.7z"/>
<path class="st13" d="M113.5,124.1c0-0.1,0-0.1,0-0.2c0-0.4-0.1-2.1-0.2-4c-2.4,0.2-4.9,0.4-7.4,0.5c0.1-0.6,0.3-1.2,0.1-1.8
	c0,0,0-0.1,0-0.1c-0.4,0.4-1.1,0.6-1.9,0.8c-1.7,0.5-3.4,1-5.1,1.6c-0.7,0.2-1.4,0.5-1.9,0.9c-0.3,0.2-0.6,0.6-0.8,0.9
	c-0.1,0.3-0.2,0.6-0.2,0.9c0.9,0.1,1.7,0.5,2.7,0.6c1.2,0.1,2.3,0.2,3.5,0.2c2.2,0.1,4.4,0.1,6.5,0.1c1.5,0,3.1-0.1,4.6-0.3
	C113.4,124.2,113.5,124.1,113.5,124.1z"/>
<path class="st10" d="M99,120.8l0.2-0.1c0.4,0.6,0.3,1.5,0.2,2.2c2.5,0.6,5.1,0.4,7.7,0.3l6.4-0.4c0,0.5,0,0.9,0,1.1
	c0,0.1,0,0.1,0,0.2c0,0-0.1,0.1-0.2,0.1c-1.5,0.2-3.1,0.3-4.6,0.3c-2.2-0.1-4.4,0-6.5-0.1c-1.2,0-2.3-0.1-3.5-0.2
	c-0.9-0.1-1.7-0.5-2.7-0.6c0-0.3,0.1-0.6,0.2-0.9c0.2-0.4,0.5-0.7,0.8-0.9C97.7,121.3,98.4,121.1,99,120.8z"/>
<path class="st1" d="M108.2,57.6c0.1-1.7,0.2-3.4,0.3-5.1l13.4,0.2c1.4,0-0.9,11.7-1,12.7l-2.3,17.3c-0.8,5.8-1.5,11.6-2.2,17.4
	c-0.7,5.5-1.9,11.1-2.3,16.6c-1.4-0.1-2.8,0-4.2,0c-0.7,0-4.1,0.1-4.4-0.3c-0.1-0.1-0.1-0.3-0.1-0.5
	C106.4,96.5,107.3,77.1,108.2,57.6z"/>
<path class="st9" d="M121.9,52.8l-13.4-0.2c-0.1,1.7-0.3,3.4-0.3,5.1c-0.2,4-0.4,8.1-0.6,12.1c0.4,0.4,0.9,0.8,1.3,1.2
	c2.1,2.1,3.7,4.6,5.3,7l3.5,5.6c0.2,0.4,0.5,0.8,0.7,1.2c0.1-0.7,0.2-1.3,0.3-2l2.3-17.3C121.1,64.4,123.4,52.8,121.9,52.8z"/>
<path class="st1" d="M116,58.9c-0.3-1.7-0.6-3.4-0.8-5.1l13.1-2.8c1.4-0.3,1.8,11.6,1.9,12.6c0.6,5.8,1.6,15.9,2.4,21.6
	c0.4,2.6,6.7,27,6.2,27.4c-1.8,1.4-4.8,2.3-6.2,2.8c-0.2,0.1-0.4,0.1-0.6,0.1c-1-0.1-4.1-9.6-5-11.8c-1.7-4.4-3.3-8.9-4.9-13.4
	c-0.7-2-0.9-3.9-1.3-5.9C119.2,75.8,117.6,67.4,116,58.9z"/>
<path class="st9" d="M127,58.7c0,3.6,0.1,7.2,0.3,10.8c0.2,3.6,0.6,7.2,1.1,10.8c0.5,3.6,1.2,7.1,1.9,10.7c0.8,3.6,1.7,7.1,2.7,10.6
	c1,3.5,2.1,7,3.2,10.4l0.4,1.3c0.1,0.3,0.5,0.1,0.4-0.1c-1.1-3.5-2.2-6.9-3.2-10.4c-1-3.5-1.9-7-2.8-10.5c-0.8-3.5-1.5-7.1-2-10.7
	c-0.5-3.6-1-7.2-1.3-10.8c-0.3-3.6-0.4-7.2-0.4-10.8c0-0.4,0-0.9,0-1.3c0-0.1,0-0.1-0.1-0.1c0,0-0.1-0.1-0.1-0.1s-0.1,0-0.1,0.1
	C127.1,58.6,127,58.7,127,58.7L127,58.7z"/>
<path class="st9" d="M130.7,113.6c2.6-1.1,5.3-2,8-2.8c0.3-0.1,0.1-0.5-0.1-0.4c-2.7,0.8-5.4,1.8-8,2.8
	C130.4,113.3,130.5,113.7,130.7,113.6z"/>
<path class="st9" d="M116.2,60.2c-0.7,7.4-1.4,14.7-2,22.1c-0.6,7.3-1.3,14.7-1.9,22c-0.3,4.1-0.7,8.2-1,12.3c0,0.3,0.4,0.3,0.4,0
	c0.6-7.4,1.2-14.7,1.8-22.1c0.6-7.3,1.3-14.7,1.9-22c0.4-4.1,0.7-8.2,1.1-12.3C116.6,59.9,116.2,59.9,116.2,60.2L116.2,60.2z"/>
<path class="st9" d="M105.5,114c2.9,0,5.8,0.2,8.7,0.6c0.1,0,0.1,0,0.2,0c0,0,0.1-0.1,0.1-0.1c0-0.1,0-0.1,0-0.2
	c0,0-0.1-0.1-0.1-0.1c-2.3-0.3-4.6-0.5-6.9-0.6c-0.7,0-1.3,0-2,0C105.2,113.6,105.2,114,105.5,114L105.5,114z"/>
<path class="st9" d="M130.2,63.5c-0.1-1-0.5-12.9-1.9-12.6l-13.1,2.8c0.3,1.7,0.5,3.4,0.8,5.1c0.8,4.5,1.7,9.1,2.6,13.6
	c3.7-2.5,7.7-4.5,11.9-6C130.4,65.4,130.3,64.4,130.2,63.5z"/>
<path class="st13" d="M122,66.3c-2.3,0.2-4.7,0.1-7,0c-1.4-0.1-2.9-0.2-4.3-0.3c-0.3,0-3.2-0.5-3.2-0.7c-0.3-4.2-0.1-8.5,0.1-12.7
	c0.3-5.2,0.5-10.3,0.8-15.5c0.1-1.7,0.2-3.5,1.2-4.9c2.4-3.4,6.4-3.6,10.2-3.8c2.1-0.1,4.2,0.1,6.1,1c2.1,1,3.2,3.3,3.7,5.5
	c0.7,2.9,0.4,6.3,0.5,9.2l0.5,10.2l0.5,10.7c0,0.5-7,1.1-7.7,1.2C122.9,66.2,122.5,66.2,122,66.3z"/>
<path class="st21" d="M96.8,51.3c0.1,0.1,0.1,0.2,0.2,0.3c0.8,1.1,1.8,2.1,3.1,2.3c1.6,0.2,2.8-0.8,3.9-1.7c0.8-0.6,1.4-1.4,2-2.2
	c2.3-2.9,4.8-6.1,6.2-9.5c0.7-1.6,1.4-3.3,1.1-5.1c-0.2-1.5-1.8-3.3-3.4-2.8c-2.2,0.7-3.2,4-4.3,5.8c-1.5,2.4-2.9,5-5.1,6.8
	c-1.6-1.6-3.1-3.4-4.3-5.3c-1-1.5-2.8-3.8-2.6-5.7c0.1-1,0.5-1.9,0.4-2.9c0-0.3-0.1-0.6-0.3-0.8c-0.2-0.2-0.4-0.4-0.6-0.5l-2-1.3
	c-0.4-0.3-0.9-0.6-1.4-0.5c-0.7,0-1.3,0.7-1.6,1.3c-0.6,1.2-0.9,2.6-0.7,4c0.1,0.4,0.2,0.8,0.4,1.2c0.3,0.5,0.9,0.8,1.4,1.2
	c1.1,0.9,1.3,2,1.7,3.2c0.5,1.3,1.1,2.6,1.6,3.9C93.7,45.9,94.9,48.8,96.8,51.3z"/>
<path class="st11" d="M113.4,35.5c-0.2-1.5-1.8-3.3-3.4-2.8c-2.2,0.7-3.2,4-4.3,5.8c-1.2,2-2.4,4.1-4.1,5.9c0.8,2.4,2,4.7,3.5,6.8
	c0.3-0.4,0.6-0.7,0.9-1.1c2.3-2.9,4.8-6.1,6.2-9.5C112.9,38.9,113.6,37.2,113.4,35.5z"/>
<path class="st14" d="M107.4,56.4c7.9,2.2,15.7,4.8,23.6,6.9c-0.1-3-0.3-6.1-0.4-9.1c0-0.7-0.1-1.3-0.1-2c-3.4-0.8-6.7-2-10-3.3
	c-2.3-0.9-4.6-1.9-6.9-2.8c-1.2-0.5-2.4-1-3.6-1.4c-0.5-0.2-1.2-0.3-1.6-0.6c-0.2-0.1-0.3-0.2-0.4-0.4c-0.2,3-0.3,5.9-0.5,8.9
	C107.5,53.8,107.5,55.1,107.4,56.4z"/>
<path class="st13" d="M111.6,47.5c3-4.5,6.3-10.1,3.2-15.4c-0.4-0.6-0.7-1.3-1.3-1.8c-0.3-0.3-0.8-0.4-1.2-0.4
	c-1.3,0.1-2.6,1.7-3.4,2.6c-1.1,1.3-2.2,2.6-3.2,4c-1.4,2-2.8,4.1-3.9,6.3c0,0-0.1,0.1-0.1,0.2c0,0.1,0,0.1,0,0.2c0,0.1,0,0.1,0,0.2
	c0,0.1,0.1,0.1,0.1,0.1c1.3,1.5,2.6,2.7,4.3,3.7c0.4,0.2,4.2,2.3,4.5,1.8L111.6,47.5z"/>
<path class="st11" d="M129,33.7c-2.1-1.6-5-0.7-4.9,2.2c0,1,0.4,2,0.9,2.9c0.6,0.6,1,2.1,1.4,3c0.5,1,1.1,2.1,1.6,3.1
	c0.6,1.1,1.2,2.1,1.7,3.1c0.8,1.4,1.5,2.8,2.2,4.2c0.6,1,1.1,2.1,2.3,2.4c0.6,0.1,1.2,0.1,1.7-0.1c0.6-0.2,1-0.5,1.4-1
	c1.9-2.3-0.1-5.3-1.1-7.6c-1.4-3.1-2.9-6.1-4.7-9C130.8,35.7,130.1,34.5,129,33.7z"/>
<path class="st13" d="M136.6,43.3c0.1,0.1,0.1,0.2,0.1,0.3c0,0.2-0.1,0.3-0.2,0.5c-2,3.1-5.5,5.2-9.2,5.4c-2.3-3.3-4-7-5.2-10.8
	c-0.7-2.5-0.8-5.1,0.6-7.4c0.3-0.5,0.7-1.1,1.3-1.4c0.9-0.5,2.1-0.5,3,0c2.1,1.1,3.5,3.9,4.7,5.8C133.4,38.1,135.1,40.6,136.6,43.3z
	"/>
<path class="st1" d="M96.1,28.3l-12.4,3.7c-0.7,0.2-0.4,1.2,0.3,1l12.4-3.7C97.1,29.1,96.8,28.1,96.1,28.3z"/>
<path class="st1" d="M82.8,32.8c0.6-0.2,1.1-0.4,1.7-0.5c0,0,0,0,0,0s0,0,0,0s0,0,0,0c0,0,0,0,0,0c0,0,0,0,0,0c0,0,0,0,0,0
	c0,0,0,0,0,0c0,0,0,0,0,0c-0.6,0.1-1.2,0.3-1.7,0.5C82.7,32.7,82.7,32.9,82.8,32.8z"/>
<path class="st11" d="M89.5,30.6c0.6,0.4,1.4,0.7,1.4,1.3c0,0.2-0.1,0.4-0.1,0.6c-0.4,0.9-0.6,3.4,1.2,3c1.4-0.3,1.5-2.5,1.6-3.6
	c0.1-0.4,0.1-0.8,0-1.1c-0.2-0.5-0.8-0.7-1.4-0.8c-0.8-0.2-1.5-0.5-2.2-0.8c-0.3-0.1-0.7-0.3-1-0.1c-0.2,0.2-0.2,0.6-0.1,0.8
	C89,30.2,89.2,30.4,89.5,30.6z"/>
<path class="st1" d="M106.9,39l2.7,15.5c0,0.3,0.2,0.5,0.4,0.7c0.2,0.2,0.5,0.3,0.8,0.3h11.7c0.2,0,0.3,0,0.5-0.1
	c0.2-0.1,0.3-0.2,0.4-0.3c0.1-0.1,0.2-0.3,0.2-0.4c0-0.2,0.1-0.3,0-0.5l-2.7-15.5c0-0.3-0.2-0.5-0.4-0.7c-0.2-0.2-0.5-0.3-0.8-0.3
	H108c-0.2,0-0.3,0-0.5,0.1c-0.2,0.1-0.3,0.2-0.4,0.3c-0.1,0.1-0.2,0.3-0.2,0.4C106.8,38.7,106.8,38.9,106.9,39z"/>
<path class="st1" d="M122.5,32.7c-0.7,1.5-0.6,3.2-0.3,4.8c0.2,0.8,0.4,1.7,0.7,2.5c0.3,0.9,0.5,1.7,0.8,2.6
	c0.4,1.3,0.9,2.5,1.4,3.8c0.4,0.9,0.9,1.8,1.4,2.6c0.2,0.3,0.5,0.8,0.9,1c0.2,0.1,0.4,0.1,0.6,0c0.4-0.1,0.9-0.3,1.3-0.5
	c0.2-0.1,0-0.5-0.2-0.4c-0.3,0.2-0.7,0.4-1.1,0.5c-0.1,0-0.2,0-0.3,0.1c-0.1,0,0,0,0,0c0,0,0,0,0,0l0,0c0,0,0,0,0,0c0,0,0,0,0,0
	c-0.3-0.2-0.5-0.5-0.7-0.8c-0.5-0.8-1-1.6-1.3-2.5c-0.1-0.1-0.1-0.3-0.2-0.5l-0.1-0.2c0,0,0-0.1,0,0l-0.1-0.3
	c-0.3-0.8-0.6-1.6-0.9-2.4c-0.3-0.8-0.5-1.6-0.8-2.5c-0.2-0.8-0.5-1.6-0.7-2.4c-0.4-1.7-0.7-3.6,0.1-5.2
	C122.9,32.6,122.6,32.4,122.5,32.7L122.5,32.7z"/>
<path class="st21" d="M134.4,49c1,0,2.3-0.5,3,0.3c1.6,1.5,1,4.8-1,5.5c-2.5,0.9-6-0.1-8.5-0.6c-3.2-0.6-6.3-1.4-9.4-2.4
	c0.4-1.3,0.4-2,0.8-3.3C123.2,48.8,131.8,48.9,134.4,49z"/>
<path class="st21" d="M113.3,51.4c2.1,0.7,4,0.3,6.1,0.3l0.4-1.8c0.2-0.7-1.5-2.9-2-3.4c-1-1-2.2-1.7-3.6-2.1
	c-0.3-0.1-0.7-0.1-0.9,0.2s0.1,0.6,0.3,0.8l1.3,1.3l-4.9-0.7c-0.2-0.1-0.4,0-0.7,0c-0.6,0.2-0.6,1.1-0.3,1.7
	C109.8,49.3,111.4,50.7,113.3,51.4z"/>
<path class="st1" d="M108.7,34.6c-0.1,1.8-0.6,3.5-0.7,5.2c-0.2,1.8-0.2,3.7-0.3,5.5c0,1-0.1,2-0.1,3c0,0.3,0.4,0.3,0.4,0
	c0.1-1.8,0.2-3.6,0.3-5.5c0-0.9,0.1-1.8,0.2-2.7c0.1-0.9,0.2-1.8,0.4-2.6c0.2-1,0.3-1.9,0.4-2.9C109.1,34.4,108.7,34.4,108.7,34.6z"
	/>
<path class="st21" d="M43.7,19.2c-0.1-0.1-0.2-0.2-0.3-0.3l0-0.1c-0.2-0.3-0.4-0.6-0.6-1c0,0,0,0,0,0c-0.1-0.2-0.1-0.3-0.2-0.5
	c0,0,0-0.1,0-0.1c-0.2-0.6-0.4-1.3-0.5-1.9c-0.1-0.9-0.2-1.7-0.5-2.5c-0.5-1.4-1.3-2.7-2.4-3.7c-0.2-0.2-0.3-0.3-0.5-0.5
	c-0.1-0.1-0.1-0.1-0.2-0.2c-0.3-0.3-0.6-0.5-1-0.7c-0.3-0.2-0.6-0.4-1-0.6c0,0-0.1,0-0.1-0.1c-1.3-0.7-2.8-1-4.2-1
	c-1.5,0-2.9,0.4-4.2,1.2C26,8.3,24.5,10,23.6,12c-0.9,1.9-1.2,4.9-0.5,7c0.6,2,2,3.1,3.7,4.1l0.4,0.3l0.2,0.1
	c0.2,0.1,0.4,0.2,0.6,0.3l0.2,0.1l0.1,0.1l0.1,0l0.1,0c0.5,0.3,0.8,0.4,0.8,0.4l0.1,5.8c0,0.1,0.1,0.3,0.2,0.4
	c0.1,0.1,0.2,0.2,0.4,0.2h3.6c0.1,0,0.1,0,0.2,0c0.1,0,0.1-0.1,0.2-0.1c0,0,0.1-0.1,0.1-0.2c0-0.1,0-0.1,0-0.2v-2.2l0-0.3
	c0,0-0.1-1.3,0-1.3l0.4,0.2l0.2,0.1c1.6,0.7,3.7,1.8,5.3,0.6c0.5-0.3,0.8-0.8,1.1-1.3c1.1-1.6,1.8-3.7,1.7-5.6
	c0.1,0,0.2,0.1,0.3,0.1c0.1,0,0.2,0,0.3-0.1c0.1,0,0.1-0.1,0.2-0.1c0.1-0.1,0.2-0.2,0.2-0.3c0-0.1,0.1-0.2,0.1-0.4
	C43.9,19.5,43.8,19.4,43.7,19.2z"/>
<path class="st22" d="M29.5,23.4L29.5,23.4C29.5,23.4,29.5,23.4,29.5,23.4L29.5,23.4z"/>
<path class="st22" d="M38.4,8.4c-1.7-0.3-4.3,1.8-5.6,3.1c-2,2.1-2.4,4.9-2.3,6.6c-0.2-0.3-0.4-0.6-0.7-0.9c-0.3-0.2-0.6-0.4-1-0.5
	c-0.4-0.1-0.8-0.1-1.1,0c-0.4,0.1-0.7,0.2-1,0.4c-0.3,0.2-0.6,0.5-0.8,0.8s-0.3,0.7-0.4,1.1c-0.1,0.4,0,0.8,0.1,1.1
	c0.1,0.4,0.3,0.7,0.5,1c0.2,0.3,0.5,0.5,0.8,0.7c0.4,0.3,0.9,0.4,1.4,0.4c0,0,0.1,0,0.1,0h0c0.2,0,0.4,0,0.6-0.1
	c0.8,1.4,0.4,2.3,0.4,2.3s-0.5-0.3-0.9-0.5l-0.1,0l-0.1-0.1l-0.1-0.1l-0.2-0.1c-0.2-0.1-0.4-0.2-0.6-0.3l-0.2-0.1
	c-1.8-1.1-3.3-2.2-4-4.3c-0.7-2.1-0.4-5.1,0.5-7c0.9-2,2.4-3.7,4.3-4.8c1.3-0.7,2.7-1.1,4.2-1.2s2.9,0.3,4.2,1c0,0,0.1,0,0.1,0.1
	C37.2,7.4,37.8,7.9,38.4,8.4L38.4,8.4z"/>
<path class="st22" d="M34.1,28.2c-0.9-0.3-4.8-4.5-4.9-4.6l4.8,3v0.1l0,1.3V28.2z"/>
<path class="st23" d="M29,19.7L29,19.7L29,19.7c-0.2,0-0.3-0.1-0.5-0.1c-0.1,0-0.1,0-0.2,0c-0.1,0-0.1,0.1-0.2,0.1
	c0,0.1-0.1,0.1-0.1,0.2c0,0.1,0,0.1,0,0.2c0,0.1,0.1,0.1,0.1,0.2c0.1,0,0.1,0.1,0.2,0.1v0c-0.1,0-0.1,0-0.2-0.1
	c-0.1,0-0.1-0.1-0.1-0.2c0-0.1,0-0.2,0-0.2c0-0.1,0-0.2,0.1-0.2c0.1-0.1,0.3-0.2,0.4-0.2C28.7,19.5,28.8,19.6,29,19.7
	c0-0.2,0-0.3,0-0.4c0-0.1-0.1-0.2-0.1-0.3c-0.1-0.2-0.3-0.3-0.6-0.3c-0.2-0.1-0.4-0.1-0.7-0.1c-0.2,0-0.4,0.1-0.6,0.2
	c-0.2,0.1-0.3,0.3-0.4,0.5c-0.1,0.2-0.1,0.4-0.1,0.6c0,0.5,0.2,0.9,0.5,1.3c-0.2-0.2-0.3-0.4-0.4-0.6c-0.1-0.2-0.2-0.4-0.2-0.7
	c0-0.2,0-0.5,0.1-0.7c0.1-0.2,0.3-0.4,0.5-0.6c0.2-0.1,0.5-0.2,0.7-0.2c0.2,0,0.5,0,0.7,0.1c0.2,0.1,0.4,0.2,0.6,0.4
	c0.1,0.1,0.1,0.2,0.1,0.4C29.1,19.4,29.1,19.6,29,19.7L29,19.7z"/>
<path class="st23" d="M42.5,20.5c-0.1,0-0.2-0.1-0.3-0.2c0,0,0-0.1,0.1-0.1c0.1,0.1,0.2,0.1,0.3,0.2c0,0,0,0,0,0c0,0,0,0,0,0
	C42.8,20.6,42.5,20.5,42.5,20.5z"/>
<path class="st23" d="M42.5,7.1c-1.1-1.3-2.6-1.9-3.9-1.9c0.1-0.5,0.1-0.8-0.1-0.9c-0.2-0.1-0.5,0.2-1,0.8c-0.5-1-1.5-1.8-2.5-2.1
	c-1.5-0.5-2.9,0.1-3.9,1.2c-0.4-0.3-0.8-0.5-1.3-0.6c-3-0.9-5.9,1.1-6.5,4.5c-0.1,0.5-0.1,1.1-0.1,1.6c-0.8-0.2-1.3-0.1-1.4,0.3
	c-0.1,0.3,0.2,0.8,0.8,1.2c-1.8,0.7-2.8,2-2.7,3.5c0.1,0.9,0.6,1.8,1.4,2.5c-0.7,0.6-1,1.4-0.7,2c0.3,0.6,1.1,0.9,2,1
	c-0.2,0.6-0.2,1.2-0.1,1.8c0.1,0.6,0.4,1.2,0.8,1.6c1.1,1.3,2.9,1.6,4.2,0.9c0.7,1.4,2.4,0.5,2-0.8l-0.1-0.4c0-0.3-0.1-0.5-0.2-0.8
	l0-0.1c-0.1-0.1-0.1-0.3-0.2-0.4c-0.2,0.1-0.4,0.1-0.6,0.1h0c0,0-0.1,0-0.1,0c-0.4,0-0.8-0.1-1.2-0.3c-0.4-0.2-0.7-0.4-0.9-0.7
	c-0.1-0.2-0.2-0.4-0.4-0.6c-0.2-0.4-0.3-0.8-0.2-1.3c0-0.4,0.2-0.9,0.4-1.2c0.2-0.4,0.6-0.7,1-0.9c0.4-0.2,0.8-0.3,1.3-0.3
	c0.1,0,0.2,0,0.3,0c-0.1,0.1-0.2,0.3-0.2,0.5c0,0.1,0,0.3,0.1,0.4c0.1,0.1,0.2,0.2,0.3,0.3c0.1,0.1,0.3,0.1,0.4,0.1
	c0.1,0,0.3-0.1,0.4-0.1c0.1,0.2,0.2,0.3,0.3,0.5c0.2,0.1,0.3,0.2,0.5,0.3c0.1,0,0.1,0,0.2,0.1C31,19,31.2,19,31.4,19
	c0.5,0,0.9-0.1,1.3-0.4c0.4-0.3,0.6-0.7,0.8-1.1c0-0.1,0.1-0.2,0.1-0.2c0.1-0.1,0.1-0.1,0.2-0.2c0.3-0.1,0.6-0.4,0.8-0.7
	c0.2-0.3,0.3-0.6,0.4-1c0-0.1,0-0.2,0-0.3c0.5-0.2,1-0.6,1.2-1.1c0,0,0-0.1,0.1-0.1c0.1-0.1,0.2-0.3,0.3-0.4
	c0.1-0.1,0.3-0.2,0.4-0.3c0.2-0.1,0.3-0.1,0.5-0.1c0.6,0,1.2-0.1,1.7-0.3c0.5-0.2,1-0.6,1.4-1c0.1-0.1,0.2-0.2,0.2-0.3
	c0.2,0.4,0.4,0.8,0.6,1.2c0,0,0,0.1,0.1,0.1c0.2,0.5,0.4,1,0.5,1.6c0.1,0.5,0.1,1,0.3,1.5c0.7-1.1,1-2.1,0.8-2.9
	C44.4,11.7,44.2,9,42.5,7.1z"/>
<path class="st24" d="M39.4,17.6c-0.4-1.2-2-1.1-2.6,0C36.6,15.9,39.4,16.1,39.4,17.6z"/>
<path class="st24" d="M39.1,14.1c-0.7-0.2-1.8,0.2-2.2,0.9C37.5,12.7,40.3,13.6,39.1,14.1z"/>
<path class="st24" d="M39,22.9c-0.3,0-0.6-0.1-0.9-0.2c-0.3-0.2-0.5-0.4-0.7-0.6c0,0,0-0.1,0-0.1c0,0,0-0.1,0-0.1c0,0,0,0,0,0
	c0,0,0,0,0,0c0,0,0,0,0,0c0,0,0,0,0,0c0.1,0.2,0.3,0.3,0.5,0.5c0.2,0.1,0.4,0.2,0.6,0.3c0.2,0,0.4,0,0.7,0s0.4-0.1,0.6-0.2
	c0,0,0,0,0,0c0,0,0,0,0,0c0,0,0,0,0,0c0,0,0,0,0,0c0,0,0,0.1,0,0.1c0,0,0,0.1,0,0.1C39.7,22.8,39.3,22.9,39,22.9z"/>
<path class="st24" d="M38.9,16.4c-0.1-0.2-0.3-0.2-0.3-0.4C38.6,15.8,39.2,16.4,38.9,16.4z"/>
<path class="st21" d="M115.2,29.8c0,0.1,0,0.1,0.1,0.2c0.4,0.5,1.2,0.6,1.9,0.6c1.5,0.1,3,0.1,4.3-0.6c0.1,0,0.2-0.1,0.2-0.2
	c0.1-0.1,0.1-0.3,0-0.4c-0.2-1-0.2-2.1-0.1-3.1c0.1-1.9,0.6-3.7,1.1-5.5c0.2-0.6,0.6-1.2,0.4-1.8c-0.1-0.2-0.3-0.8-0.6-0.8
	c-0.3,0-0.5,0.6-0.7,0.8c-0.5,0.6-1.2,0.9-1.9,1.2c-0.7,0.4-1.3,0.8-1.9,1.3c-0.5,0.4-0.9,0.9-1.2,1.5c-0.2,0.3-0.3,0.7-0.4,1
	c-0.1,0.3-0.1,0.5-0.2,0.8c-0.2,0.9-0.2,1.8-0.4,2.7c-0.1,0.7-0.3,1.3-0.6,1.9C115.2,29.6,115.2,29.7,115.2,29.8z"/>
<path class="st25" d="M122.8,5.3c0,0.2,0,0.3,0.1,0.5c0.2,1,0.7,2,0.9,3c0.1,0.9,0.2,1.6,0.6,2.4c0.3,0.5,0.8,1,1.1,1.6
	c0.7,1.4,0.9,2.8,2,4c0.6,0.7,1.3,1.2,2.1,1.6c0.4,0.2,0.9,0.3,1.3,0.4c0.8,0.1,1.7-0.2,2.4-0.7c0.2-0.1,0.4-0.3,0.6-0.5
	c0.8-0.8,1.2-1.8,1.5-2.8c-0.3,0.5-0.8,0.9-1.3,1.1c-0.7,0.2-1.5-0.1-2-0.7c-0.5-0.6-0.8-1.3-0.8-2.1c-0.1-0.8,0-1.5,0-2.3
	c0.1-2.5,0-5-0.9-7.3c-0.4-1-1-2.1-1.8-2.7c-0.9-0.7-2.1-1-3.1-0.6c-0.5,0.2-0.9,0.5-1.2,0.9c-0.5,0.6-0.9,1.2-1.1,2
	C122.8,3.8,122.7,4.6,122.8,5.3z"/>
<path class="st26" d="M122.8,5.3c0,0.2,0,0.3,0.1,0.5c0.2,1,0.7,2,0.9,3c0.1,0.9,0.2,1.6,0.6,2.4c0.3,0.5,0.8,1,1.1,1.6
	c0.7,1.4,0.9,2.8,2,4c0.6,0.7,1.3,1.2,2.1,1.6c0.4,0.2,0.9,0.3,1.3,0.4c0.8,0.1,1.7-0.2,2.4-0.7h0c-1,0-2.1-0.5-2.8-1.2
	c-0.7-0.7-1.2-1.7-1.6-2.7c-0.9-2.5-0.8-5.3-1.2-7.9c-0.1-0.7-0.3-1.5-0.7-2.1S126,3,125.2,3C123.9,3,123.3,4.2,122.8,5.3z"/>
<path class="st27" d="M126.2,7.6c0-0.7-0.1-1.4-0.5-2.1c-0.6-1.1-1.7-2.2-3-2.1c-0.4,0-0.9,0.2-1.1,0.6c-0.2,0.4,0,0.9,0.1,1.4
	c0.5,1.2,1.3,2.3,2.3,3.2c0.4,0.3,0.9,1,1.3,0.7C125.9,9.1,126.2,8.1,126.2,7.6z"/>
<path class="st25" d="M111.6,5.2c-0.7,0.5-1.4,1.2-1.9,1.9c-0.4,0.5-0.7,1-0.9,1.5c-0.3,0.8-0.4,1.6-0.4,2.4c0,1.5,0.3,2.9,0.4,4.3
	c0.1,1.4,0,3-0.8,4.2c0.2,0.1,0.4,0,0.6-0.1c1.2-0.8,2-2.1,2.6-3.3c0.5-1.1,1-2.2,1.4-3.3c0.3-0.9,0.7-1.9,0.8-2.8
	c0.2-1.3,0.2-2.7-0.2-4c0-0.2-0.1-0.4-0.3-0.6c-0.2-0.2-0.4-0.3-0.6-0.3S111.8,5.1,111.6,5.2z"/>
<path class="st11" d="M115.8,27.6c1-0.1,1.9-0.4,2.7-0.9c0.8-0.5,1.6-1.1,2.1-1.9c0.5-0.7,0.8-1.4,1.1-2.2c0.2-0.6,0.5-1.1,0.6-1.7
	c0.1-0.3,0.1-0.6,0-0.8c0,0-0.4-0.7-0.4-0.6c-0.3,0.5-0.8,0.8-1.3,1.1c-1.5,1-2.9,2.2-4.2,3.6c-0.1,0.3-0.1,0.5-0.2,0.8
	C116.1,25.8,116,26.7,115.8,27.6z"/>
<path class="st21" d="M123.8,17.1c0,0.1-2.2,11.4-11.3,8.5c0,0-4-2.8-3.1-9.9c0,0,0.3-6.7,2-8.6C113.2,5.2,127.4,3.1,123.8,17.1z"/>
<path class="st28" d="M111.7,14c0.3,0.3,0.4,0.7,0.4,1.1c0,0.4-0.2,0.9-0.4,1.3c-0.2,0.4-0.4,0.9-0.6,1.3c-0.1,0.3-0.3,0.8,0,1.1
	c0.1,0.1,0.1,0.1,0.2,0.1c0.1,0,0.2,0,0.4,0c0.2,0,0.4,0.1,0.4,0.3c0,0.2-0.2,0.2-0.2,0.1c0-0.2-0.4-0.1-0.5-0.1c-0.1,0-0.2,0-0.2,0
	c-0.1,0-0.1-0.1-0.2-0.1c-0.3-0.3-0.3-0.7-0.2-1c0.1-0.2,0.1-0.4,0.2-0.6c0.1-0.2,0.2-0.4,0.3-0.7c0.2-0.4,0.4-0.8,0.5-1.3
	c0.1-0.4,0.1-0.9-0.2-1.2C111.4,14,111.6,13.9,111.7,14L111.7,14z"/>
<path class="st28" d="M115.5,20.5c-0.6,0.2-1.3,0.3-2,0.2c-0.7-0.1-1.3-0.2-1.9-0.6c0,0,0,0-0.1-0.1c0,0,0-0.1,0-0.1
	c0,0,0-0.1,0.1-0.1c0,0,0.1,0,0.1,0l0.1,0c0.2,0,0.1,0.3-0.1,0.2l-0.1,0l0.1-0.2c0.6,0.3,1.2,0.5,1.8,0.5c0.6,0.1,1.3,0,1.9-0.2
	C115.6,20.2,115.7,20.5,115.5,20.5L115.5,20.5z"/>
<path class="st25" d="M111.4,6.3c1.5,2,3.3,2.9,4.9,4.7c1.1,1.2,2,2.7,2.7,4.2l0.1,0.1c0.2,0.4,0.4,0.8,0.8,1.1
	c0.3,0.2,0.6,0.4,0.9,0.7c0.3,0.3,0.4,0.7,0.8,0.9c0.2,0.1,0.3,0.1,0.5,0.1c2.6-0.1,4.1-3,4.4-5.5c0.1-0.6,0.1-1.2,0-1.8
	c-0.2-1.1-0.6-2.1-1.1-3.2c-0.6-1.2-1.2-2.4-2.2-3.2c-0.5-0.4-1.1-0.7-1.8-0.9c-1.7-0.6-3.5-0.6-5.2-0.2c-0.7,0.2-1.3,0.4-2,0.5
	c-0.1,0-0.3,0-0.4,0.1c-0.1,0.1-0.3,0.1-0.4,0.2c-0.7,0.5-0.5,1.2-1.2,1.6c-0.1,0-0.5,0.2-0.5,0.3C111.5,6,111.3,6.2,111.4,6.3z"/>
<path class="st26" d="M119.1,15.3c0.2,0.4,0.4,0.8,0.8,1.1c0.3,0.2,0.6,0.4,0.9,0.7c0.3,0.3,0.4,0.7,0.8,0.9
	c0.2,0.1,0.3,0.1,0.5,0.1c2.6-0.1,4.1-3,4.4-5.5c-0.3,0.7-0.5,1.4-1.2,1.9c-0.5,0.3-1.1,0.4-1.6,0.6c-0.6,0.2-1.1,0.5-1.3,1
	c0.4-1.3-0.3-3.1-0.9-4.2c-0.2-0.4-0.4-1-1-1c-0.7,0-1,0.9-1.2,1.5c-0.1,0.7-0.2,1.4-0.2,2.1C119.1,14.7,119.1,15,119.1,15.3z"/>
<path class="st21" d="M123.5,15.6c0.3-0.2,0.7-0.4,1.1-0.5c0.2-0.1,0.4-0.1,0.6-0.1c0.4,0,0.7,0.4,0.8,0.9c0.1,0.4-0.1,0.8-0.2,1.2
	c-0.3,1-0.8,1.9-1.3,2.9c-0.1,0.2-0.2,0.4-0.4,0.5c-0.3,0.3-0.8,0.2-1.3,0.1c-0.6-0.1-1.1-0.9-0.9-2C122,17.5,122.4,16.3,123.5,15.6
	z"/>
<path class="st11" d="M123.2,16.9c0.2-0.3,0.5-0.6,0.8-0.5c0.1,0,0.1,0,0.2,0.1c0.1,0,0.1,0.1,0.1,0.1c0,0.1,0,0.2,0,0.2
	c0,0.2-0.1,0.4-0.2,0.5c-0.1,0.2-0.3,0.3-0.4,0.3c-0.1,0-0.2,0.1-0.2,0.1c0,0.1,0,0.1,0.1,0.2c0.2,0.4,0.2,2-0.5,1.3
	C122.7,18.8,123,17.4,123.2,16.9z"/>
<path class="st25" d="M121.1,11.2c0,0,2.9,9.6-4.8,12.1c0,0,3.8-5.4,0.3-9.8c-3.5-4.4-6.2-5-5.5-7.5C111.9,3.6,120.7-0.5,121.1,11.2
	z"/>
<path class="st28" d="M113.4,14.3c0,0.3,0.2,0.5,0.4,0.5c0.2,0,0.4-0.2,0.4-0.5c0-0.3-0.2-0.5-0.4-0.5
	C113.5,13.7,113.4,14,113.4,14.3z"/>
<path class="st28" d="M110.2,14.2c0,0.3,0.2,0.5,0.4,0.5s0.4-0.2,0.4-0.5c0-0.3-0.2-0.5-0.4-0.5S110.2,13.9,110.2,14.2z"/>
<path class="st28" d="M112.8,12.6c0-0.2,0-0.3,0.1-0.5c0-0.1,0-0.1,0.1-0.2c0,0,0.1,0,0.1,0c0,0,0.1,0,0.1,0c0.2,0,0.5,0.1,0.7,0.1
	c0.8,0.2,1.5,0.6,2.2,1.1c-0.2,0.1-0.5-0.1-0.7-0.2c-0.3-0.1-0.5-0.2-0.8-0.2C114.3,12.7,112.8,12.6,112.8,12.6z"/>
<path class="st28" d="M111.2,12.1C111.2,12.1,111.1,12,111.2,12.1c0-0.1-0.1-0.1-0.2-0.1c-0.5,0.2-1,0.3-1.5,0.6
	c0,0.1,0,0.1,0.1,0.1c0.1,0,0.1,0,0.2,0c0.3-0.1,0.7-0.1,1-0.1c0.1,0,0.3,0.1,0.4,0C111.2,12.5,111.2,12.2,111.2,12.1z"/>
<path class="st27" d="M123,20.1c0,0.1,0,0.2,0.1,0.2c0,0.1,0.1,0.1,0.2,0.2c0.1,0,0.2,0,0.2,0c0.1,0,0.2-0.1,0.2-0.1
	c0.1-0.1,0.1-0.1,0.1-0.2c0-0.1,0-0.2,0-0.2c0-0.1-0.1-0.1-0.2-0.2c-0.1,0-0.2-0.1-0.2-0.1c-0.1,0-0.1,0-0.2,0
	c-0.1,0-0.1,0.1-0.1,0.1c0,0-0.1,0.1-0.1,0.1C123,20,123,20,123,20.1z"/>
</svg>
