<svg width="33" height="33" viewBox="0 0 33 33" fill="none" xmlns="http://www.w3.org/2000/svg">
    <path d="m32.394 30.017-2.582 2.57-11.626-11.574 2.581-2.57 11.627 11.574zM18.168.238c-2.394.014-4.76.498-6.966 1.423A18.22 18.22 0 0 0 5.314 5.63 18.145 18.145 0 0 0 0 18.452c0 4.806 1.91 9.416 5.314 12.823L31.076 5.63a18.222 18.222 0 0 0-5.913-3.98A18.288 18.288 0 0 0 18.168.238zM5.53 25.884a14.435 14.435 0 0 1-2.022-7.459c0-1.634.282-3.257.83-4.798a20.217 20.217 0 0 0 3.738 9.777l-2.546 2.48zm5.2-5.104A16.281 16.281 0 0 1 8.203 8.505a15.576 15.576 0 0 1 3.159-.323 16.68 16.68 0 0 1 9.17 2.84L10.73 20.78zm2.653-16.175a14.503 14.503 0 0 1 4.785-.772A14.601 14.601 0 0 1 25.66 5.88L23.15 8.38a20.365 20.365 0 0 0-9.803-3.72l.037-.054z" fill="#A6A6A6"/>
</svg>
