<svg width="15" height="14" viewBox="0 0 15 14" fill="none" xmlns="http://www.w3.org/2000/svg">
<g clip-path="url(#clip0_55_4843)">
<path d="M3.09888 0.632797L6.55429 4.09592V1.78203C8.33742 1.95299 10.0055 2.73926 11.2721 4.0059C12.5387 5.27255 13.325 6.94058 13.496 8.72371H15.0386C14.9253 7.34459 14.5043 6.00842 13.8065 4.81351C13.1086 3.6186 12.1517 2.59537 11.0062 1.81911C9.8607 1.04286 8.5557 0.533328 7.18726 0.328024C5.81882 0.12272 4.42175 0.226866 3.09888 0.632797Z" fill="#145A7B"/>
<path d="M8.94521 12.2024C7.16208 12.0315 5.49405 11.2452 4.22741 9.97855C2.96076 8.7119 2.17449 7.04387 2.00353 5.26074H0.460938C0.575537 6.63544 0.995972 7.96715 1.69149 9.15844C2.38701 10.3497 3.34003 11.3705 4.48083 12.1461C5.62163 12.9216 6.92137 13.4324 8.28498 13.641C9.64859 13.8496 11.0416 13.7507 12.3621 13.3517L8.94521 9.88853V12.2024Z" fill="#145A7B"/>
</g>
<defs>
<clipPath id="clip0_55_4843">
<rect width="14.539" height="13.49" fill="white" transform="translate(0.460938 0.254883)"/>
</clipPath>
</defs>
</svg>
