<svg width="28" height="25" viewBox="0 0 28 25" fill="none" xmlns="http://www.w3.org/2000/svg">
<path d="M12.1362 24.7207H4.69829C4.37598 24.7207 4.10945 24.6162 3.89871 24.4071C3.68797 24.198 3.5826 23.9336 3.5826 23.6138V12.9138H0.57024C0.32231 12.9138 0.148758 12.797 0.0495862 12.5633C-0.0495861 12.3296 -1.10834e-07 12.1267 0.198344 11.9545L13.2519 0.295173C13.4502 0.098391 13.6982 0 13.9957 0C14.2932 0 14.5411 0.098391 14.7395 0.295173L21.4336 6.16173V2.95173C21.4336 2.63196 21.539 2.36753 21.7497 2.15845C21.9605 1.94937 22.227 1.84483 22.5493 1.84483H23.2931C23.6154 1.84483 23.8819 1.94937 24.0927 2.15845C24.3034 2.36753 24.4088 2.63196 24.4088 2.95173V8.89208L27.793 11.9545C27.9914 12.1267 28.0472 12.3296 27.9604 12.5633C27.8736 12.797 27.6939 12.9138 27.4211 12.9138H24.4088V23.6138C24.4088 23.9336 24.3034 24.198 24.0927 24.4071C23.8819 24.6162 23.6154 24.7207 23.2931 24.7207H15.8552V15.8655H12.1362V24.7207ZM5.81397 22.5069H9.90483V14.7586C9.90483 14.4389 10.0102 14.1744 10.2209 13.9654C10.4317 13.7563 10.6982 13.6517 11.0205 13.6517H16.9709C17.2932 13.6517 17.5597 13.7563 17.7704 13.9654C17.9812 14.1744 18.0865 14.4389 18.0865 14.7586V22.5069H22.1774V9.92519L13.9957 2.54587L5.81397 9.92519V22.5069ZM10.8346 9.59312H17.1568C17.1568 8.78139 16.8407 8.1111 16.2085 7.58225C15.5762 7.0534 14.8387 6.78897 13.9957 6.78897C13.1527 6.78897 12.4151 7.0534 11.7829 7.58225C11.1507 8.1111 10.8346 8.78139 10.8346 9.59312ZM11.0205 13.6517H16.9709H11.0205Z" fill="#D75426"/>
</svg>
