<svg width="36" height="35" viewBox="0 0 36 35" fill="none" xmlns="http://www.w3.org/2000/svg">
<path d="M17.6531 34.8761C14.2018 34.887 10.8249 33.8736 7.94999 31.9642C5.07504 30.0547 2.83135 27.3351 1.50301 24.1497C0.17467 20.9643 -0.178565 17.4563 0.488022 14.0701C1.15461 10.6838 2.81104 7.57142 5.24758 5.12712C7.68412 2.68282 10.7912 1.0165 14.1753 0.339148C17.5595 -0.338203 21.0685 0.00388158 24.2582 1.32209C27.4478 2.64029 30.1745 4.87532 32.0931 7.74419C34.0117 10.6131 35.0358 13.9867 35.0358 17.438C35.0358 22.0533 33.2062 26.4803 29.9479 29.749C26.6896 33.0177 22.2684 34.8614 17.6531 34.8761V34.8761ZM17.6531 2.49107C14.6969 2.49107 11.8071 3.36769 9.34905 5.01008C6.89104 6.65247 4.97525 8.98686 3.84396 11.7181C2.71266 14.4492 2.41666 17.4546 2.99339 20.354C3.57012 23.2534 4.99367 25.9167 7.08404 28.0071C9.1744 30.0974 11.8377 31.521 14.7371 32.0977C17.6365 32.6744 20.6419 32.3784 23.373 31.2471C26.1042 30.1158 28.4386 28.2001 30.081 25.742C31.7234 23.284 32.6 20.3942 32.6 17.438C32.6 13.4738 31.0253 9.67201 28.2222 6.86892C25.4191 4.06583 21.6173 2.49107 17.6531 2.49107Z" fill="#E76425"/>
<path d="M11.5635 15.2793L23.6871 19.5973L21.8049 5.53613L11.5635 15.2793Z" fill="#E76425"/>
<path d="M11.5635 15.2793L17.653 17.4383L21.8049 5.53613L11.5635 15.2793Z" fill="#F7941D"/>
<path d="M23.6871 19.5973L11.5635 15.2793L13.4457 29.3405L23.6871 19.5973Z" fill="#E76425"/>
<path d="M23.6872 19.5975L17.6531 17.4385L13.4458 29.3407L23.6872 19.5975Z" fill="#F7941D"/>
<path d="M17.6531 19.4312C18.7537 19.4312 19.646 18.5389 19.646 17.4382C19.646 16.3376 18.7537 15.4453 17.6531 15.4453C16.5524 15.4453 15.6602 16.3376 15.6602 17.4382C15.6602 18.5389 16.5524 19.4312 17.6531 19.4312Z" fill="white"/>
</svg>
