<svg width="42" height="41" viewBox="0 0 42 41" fill="none" xmlns="http://www.w3.org/2000/svg">
<path d="M38.2854 17.4214C38.8983 20.8338 38.4848 24.3514 37.0973 27.5287C35.7098 30.7059 33.4107 33.4001 30.4911 35.2698C27.5714 37.1396 24.1626 38.101 20.6963 38.0323C17.2299 37.9635 13.8619 36.8677 11.0187 34.8836C8.17554 32.8996 5.98504 30.1164 4.7246 26.8866C3.46415 23.6568 3.19046 20.1256 3.93816 16.7401C4.68587 13.3547 6.42134 10.2672 8.92484 7.86873C11.4283 5.47023 14.5873 3.86854 18.0016 3.26647C22.5675 2.46136 27.2664 3.49914 31.0685 6.15241C34.8706 8.80568 37.4659 12.858 38.2854 17.4214V17.4214ZM6.24684 23.0706C6.76252 25.9952 8.13388 28.7012 10.1875 30.8465C12.2411 32.9917 14.8847 34.4798 17.784 35.1225C20.6833 35.7653 23.7082 35.5339 26.476 34.4575C29.2438 33.3812 31.6302 31.5083 33.3336 29.0756C35.037 26.643 35.9807 23.7598 36.0455 20.7908C36.1103 17.8218 35.2932 14.9003 33.6976 12.3956C32.1019 9.891 29.7994 7.91576 27.0812 6.71972C24.363 5.52367 21.3511 5.16053 18.4265 5.67621C14.5048 6.36773 11.0183 8.58884 8.73419 11.8509C6.45005 15.113 5.55532 19.1489 6.24684 23.0706Z" fill="#E76425"/>
<path d="M19.9607 26.8639L22.1177 14.1167L8.53525 18.4316L19.9607 26.8639Z" fill="#E76425"/>
<path d="M19.9607 26.8639L21.0344 20.4629L8.53526 18.4316L19.9607 26.8639Z" fill="#F7941D"/>
<path d="M22.1169 14.1171L19.96 26.8643L33.5424 22.5493L22.1169 14.1171Z" fill="#E76425"/>
<path d="M22.117 14.1175L21.0337 20.4637L33.5425 22.5497L22.117 14.1175Z" fill="#F7941D"/>
<path d="M23.0057 20.1153C22.8137 19.0264 21.7754 18.2994 20.6865 18.4914C19.5976 18.6834 18.8705 19.7217 19.0625 20.8106C19.2545 21.8995 20.2929 22.6266 21.3818 22.4346C22.4707 22.2426 23.1977 21.2042 23.0057 20.1153Z" fill="white"/>
</svg>
