<svg width="24" height="24" viewBox="0 0 24 24" fill="none" xmlns="http://www.w3.org/2000/svg">
    <path d="M4.025 8.483V6.258a2.2 2.2 0 0 1 2.233-2.233h2.225A.508.508 0 0 0 9 3.517.517.517 0 0 0 8.483 3H6.258A3.225 3.225 0 0 0 3 6.258v2.225a.517.517 0 0 0 .88.365.508.508 0 0 0 .145-.365z" fill="#D75426"/>
    <path d="M3.67 9a.666.666 0 0 1-.474-.198.681.681 0 0 1-.196-.48V6.244a3.24 3.24 0 0 1 .929-2.3 3.14 3.14 0 0 1 2.274-.94h2.055a.663.663 0 0 1 .52.17.677.677 0 0 1 .164.78.677.677 0 0 1-.406.37.662.662 0 0 1-.278.028H6.203a1.814 1.814 0 0 0-1.335.542 1.855 1.855 0 0 0-.536 1.35v2.08a.677.677 0 0 1-.407.625A.656.656 0 0 1 3.67 9zm2.533-5.607A2.76 2.76 0 0 0 4.2 4.22a2.821 2.821 0 0 0-.816 2.024v2.08a.291.291 0 0 0 .161.308.282.282 0 0 0 .395-.185.291.291 0 0 0 .006-.123v-2.08a2.281 2.281 0 0 1 .654-1.62 2.231 2.231 0 0 1 1.602-.661h2.055a.282.282 0 0 0 .306-.163.29.29 0 0 0-.183-.4.282.282 0 0 0-.123-.006H6.203zM19.958 8.483V6.258a2.2 2.2 0 0 0-2.233-2.233h-2.208A.508.508 0 0 1 15 3.517.517.517 0 0 1 15.517 3h2.225A3.225 3.225 0 0 1 21 6.258v2.225a.516.516 0 0 1-.517.517.508.508 0 0 1-.525-.517z" fill="#D75426"/>
    <path d="M20.33 9a.655.655 0 0 1-.47-.199.67.67 0 0 1-.192-.478v-2.08a1.87 1.87 0 0 0-.536-1.35 1.83 1.83 0 0 0-1.335-.542h-2.056a.663.663 0 0 1-.683-.398.684.684 0 0 1 .164-.78.668.668 0 0 1 .52-.17h2.055a3.14 3.14 0 0 1 2.274.94 3.212 3.212 0 0 1 .929 2.3v2.08c0 .18-.07.352-.196.479A.666.666 0 0 1 20.33 9zm-4.62-5.607a.281.281 0 0 0-.304.163.29.29 0 0 0 .182.4c.04.01.082.013.123.006h2.055a2.21 2.21 0 0 1 1.602.661 2.26 2.26 0 0 1 .654 1.62v2.08a.285.285 0 0 0 .079.203.276.276 0 0 0 .198.085.281.281 0 0 0 .292-.17.292.292 0 0 0 .024-.118v-2.08a2.847 2.847 0 0 0-.816-2.024 2.786 2.786 0 0 0-2.002-.826h-2.086zM4.025 15.518v2.231a2.211 2.211 0 0 0 1.377 2.063c.272.11.563.165.856.16h2.225a.508.508 0 0 1 .517.51.519.519 0 0 1-.517.518H6.258a3.217 3.217 0 0 1-2.308-.941 3.234 3.234 0 0 1-.95-2.31v-2.23A.519.519 0 0 1 3.517 15a.506.506 0 0 1 .508.518z" fill="#D75426"/>
    <path d="M8.259 20.996H6.205a3.17 3.17 0 0 1-3.201-3.2V15.74a.67.67 0 1 1 1.33 0v2.054a1.83 1.83 0 0 0 1.87 1.87H8.26a.668.668 0 0 1 .519 1.164.668.668 0 0 1-.519.167zm-4.617-5.54a.275.275 0 0 0-.265.175.277.277 0 0 0-.02.11v2.054a2.785 2.785 0 0 0 2.848 2.816h2.054a.285.285 0 0 0 .263-.392.277.277 0 0 0-.263-.17H6.205a2.231 2.231 0 0 1-2.255-2.254v-2.054a.277.277 0 0 0-.277-.285h-.03zM19.958 15.518v2.231a2.212 2.212 0 0 1-1.365 2.058c-.27.111-.56.167-.851.165h-2.225a.507.507 0 0 0-.517.51.519.519 0 0 0 .517.518h2.225a3.217 3.217 0 0 0 2.313-.947 3.235 3.235 0 0 0 .945-2.32v-2.215a.518.518 0 0 0-.517-.518.507.507 0 0 0-.525.518z" fill="#D75426"/>
    <path d="M17.795 20.996h-2.054a.67.67 0 1 1 0-1.33h2.054a1.832 1.832 0 0 0 1.87-1.87V15.74a.668.668 0 0 1 .938-.683.669.669 0 0 1 .393.683v2.054a3.17 3.17 0 0 1-3.2 3.201zm-2.054-.946a.275.275 0 0 0-.263.169.277.277 0 0 0 0 .217.285.285 0 0 0 .263.175h2.054a2.785 2.785 0 0 0 2.816-2.816v-2.054a.285.285 0 0 0-.392-.263.278.278 0 0 0-.17.263v2.054a2.23 2.23 0 0 1-2.254 2.255h-2.054zM15 10.415v1.17c0 .054.013.108.038.159a.42.42 0 0 0 .108.134.52.52 0 0 0 .163.09.588.588 0 0 0 .545-.09.42.42 0 0 0 .108-.134.354.354 0 0 0 .038-.16v-1.169a.354.354 0 0 0-.038-.159.42.42 0 0 0-.108-.134.52.52 0 0 0-.163-.09.588.588 0 0 0-.545.09.42.42 0 0 0-.108.134.354.354 0 0 0-.038.16zM8 10.415v1.17c0 .054.013.108.038.159a.42.42 0 0 0 .108.134c.047.039.102.07.163.09a.589.589 0 0 0 .545-.09.42.42 0 0 0 .108-.134.355.355 0 0 0 .038-.16v-1.169a.355.355 0 0 0-.038-.159.42.42 0 0 0-.108-.134.519.519 0 0 0-.163-.09.589.589 0 0 0-.545.09.42.42 0 0 0-.108.134.355.355 0 0 0-.038.16zM9.088 16.193c.778 1.186 1.813 1.833 2.883 1.805 1.077.037 2.12-.611 2.903-1.805a.966.966 0 0 0 .126-.495.966.966 0 0 0-.126-.495c-.081-.13-.19-.203-.304-.203-.114 0-.223.073-.304.203-.617.95-1.442 1.47-2.295 1.442a2.17 2.17 0 0 1-1.237-.353c-.393-.248-.753-.618-1.058-1.09-.084-.094-.187-.136-.289-.12-.102.017-.197.091-.268.211a.941.941 0 0 0-.118.441 1.01 1.01 0 0 0 .087.46zM12.076 10.374v2.622a.18.18 0 0 1-.008.103.214.214 0 0 1-.065.089.287.287 0 0 1-.107.055.331.331 0 0 1-.127.009h-.308a.52.52 0 0 0-.326.11.342.342 0 0 0-.135.264c0 .099.049.194.135.264.087.07.204.11.326.11h.308c.164.004.327-.018.48-.067.152-.049.29-.122.406-.217a.968.968 0 0 0 .265-.33.8.8 0 0 0 .079-.39v-2.622c0-.1-.049-.194-.135-.264a.521.521 0 0 0-.326-.11c-.123 0-.24.04-.327.11a.342.342 0 0 0-.135.264z" fill="#D75426"/>
</svg>
