<svg width="105" height="120" viewBox="0 0 105 120" fill="none" xmlns="http://www.w3.org/2000/svg">
<path d="M99.5993 6.7764L94.2235 5.62184C94.1665 5.60886 94.1126 5.58473 94.0649 5.55083C94.0172 5.51693 93.9766 5.47393 93.9456 5.42431C93.9146 5.37468 93.8937 5.31942 93.8842 5.26169C93.8746 5.20397 93.8765 5.14491 93.8899 5.08794L94.0367 4.4606C94.0497 4.40354 94.0738 4.34962 94.1077 4.30192C94.1416 4.25423 94.1846 4.21371 94.2342 4.18269C94.2838 4.15168 94.3391 4.13079 94.3968 4.12121C94.4546 4.11164 94.5136 4.11358 94.5706 4.12691L99.9496 5.27814C100.064 5.30516 100.164 5.37641 100.226 5.47641C100.289 5.5764 100.309 5.69703 100.283 5.81204L100.123 6.44271C100.095 6.55494 100.025 6.65217 99.9279 6.71429C99.8304 6.7764 99.7127 6.79864 99.5993 6.7764Z" fill="#EAEAEA"/>
<path d="M82.8913 1.56509L82.6153 2.74452C82.544 3.04958 82.7334 3.35474 83.0384 3.42612L94.8555 6.19126C95.1605 6.26264 95.4657 6.07321 95.5371 5.76815L95.8131 4.58872C95.8845 4.28367 95.695 3.97851 95.39 3.90713L83.5729 1.14199C83.2679 1.07061 82.9627 1.26003 82.8913 1.56509Z" fill="#CDCCCC"/>
<path d="M87.1328 8.51951L81.8104 7.27485C81.606 7.22678 81.3941 7.21948 81.1869 7.25334C80.9796 7.2872 80.7811 7.36158 80.6026 7.47221C80.4241 7.58284 80.2691 7.72756 80.1466 7.8981C80.024 8.06864 79.9363 8.26166 79.8884 8.46612L79.4346 10.3915L87.8736 12.3636L88.3207 10.4416C88.3693 10.2373 88.3771 10.0255 88.3436 9.81831C88.3102 9.61107 88.2361 9.41248 88.1258 9.23392C88.0154 9.05535 87.8709 8.90033 87.7005 8.77774C87.5301 8.65514 87.3372 8.56739 87.1328 8.51951Z" fill="#DDDDDD"/>
<path d="M73.8431 18.7089L66.6501 49.4488C66.4519 50.2958 66.9779 51.1431 67.8248 51.3413L79.7946 54.1421C80.6416 54.3403 81.4889 53.8144 81.687 52.9674L88.8801 22.2275C89.0782 21.3805 88.5523 20.5332 87.7053 20.335L75.7356 17.5342C74.8886 17.336 74.0413 17.8619 73.8431 18.7089Z" fill="#ABDADD"/>
<path d="M76.5215 17.7152C77.0489 17.6523 77.5584 17.4844 78.0198 17.2213C78.5703 16.8376 78.7072 15.9199 78.7072 15.9199L82.9583 16.921L82.4378 19.1033L76.5215 17.7152Z" fill="#CDCCCC"/>
<path d="M86.9192 20.1475C86.4746 19.8575 86.0933 19.4807 85.798 19.0396C85.4643 18.4523 85.758 17.5714 85.758 17.5714L81.5068 16.5703L80.9929 18.7593L86.9192 20.1475Z" fill="#CDCCCC"/>
<path d="M82.9616 19.2239L86.9191 20.1482C86.4745 19.8583 86.0932 19.4815 85.7979 19.0404C85.4642 18.4531 85.7579 17.5722 85.7579 17.5722L83.1684 16.9648C83.0025 17.6494 82.9274 18.3529 82.9449 19.0571C82.9482 19.1105 82.9549 19.1672 82.9616 19.2239Z" fill="#B8B7B7"/>
<path d="M78.1398 49.6667C78.5369 47.9649 84.5933 23.1851 84.7802 21.2831C84.872 20.6921 84.7539 20.0876 84.4465 19.5746L75.6738 17.5224C75.28 17.4304 74.8658 17.4986 74.5222 17.712C74.1786 17.9254 73.9339 18.2665 73.8419 18.6603L66.6275 49.4965C66.5815 49.6913 66.5743 49.8933 66.6064 50.0908C66.6385 50.2884 66.7093 50.4777 66.8147 50.6479C66.9201 50.8181 67.058 50.9658 67.2206 51.0826C67.3831 51.1993 67.5672 51.2829 67.7621 51.3284L75.9274 53.2405C77.399 52.0525 77.8094 51.0815 78.1398 49.6667Z" fill="#EAEAEA"/>
<path d="M78.1399 49.6663C77.8062 51.0811 77.3991 52.0555 75.9409 53.2401L79.8417 54.151C80.2355 54.2432 80.6498 54.1756 80.9938 53.963C81.3378 53.7503 81.5835 53.41 81.677 53.0165L88.8914 22.177C88.9374 21.982 88.9445 21.7798 88.9121 21.582C88.8798 21.3843 88.8087 21.1948 88.703 21.0246C88.5973 20.8544 88.459 20.7068 88.296 20.5901C88.1331 20.4735 87.9487 20.3902 87.7535 20.345L84.46 19.5742C84.7674 20.0872 84.8855 20.6917 84.7937 21.2827C84.5935 23.1847 78.537 47.9645 78.1399 49.6663Z" fill="#DDDDDD"/>
<path d="M90.9093 3.55372L90.7885 4.07033C90.7423 4.26772 90.8648 4.46518 91.0622 4.51137L94.7207 5.36744C94.9181 5.41363 95.1156 5.29105 95.1618 5.09367L95.2827 4.57706C95.3289 4.37967 95.2063 4.18221 95.0089 4.13602L91.3504 3.27995C91.153 3.23376 90.9555 3.35633 90.9093 3.55372Z" fill="#EAEAEA"/>
<path d="M81.6636 7.29428L82.2342 4.86169C82.2772 4.67498 82.2444 4.47883 82.1431 4.31622C82.0418 4.1536 81.8801 4.03777 81.6936 3.9941L80.9728 3.82726C80.8805 3.80566 80.7934 3.76607 80.7164 3.71076C80.6394 3.65544 80.5741 3.58549 80.5242 3.5049C80.4743 3.42431 80.4408 3.33467 80.4256 3.24111C80.4104 3.14755 80.4138 3.05191 80.4356 2.95966L80.9962 0.557105C81.0398 0.370549 81.1557 0.208906 81.3183 0.107583C81.4809 0.00626046 81.6771 -0.0264806 81.8638 0.0165297L92.4984 2.50585C92.685 2.54952 92.8466 2.66535 92.948 2.82797C93.0493 2.99058 93.082 3.18673 93.039 3.37344L92.4751 5.776C92.4314 5.96255 92.3156 6.1242 92.153 6.22552C91.9903 6.32684 91.7942 6.35958 91.6075 6.31657L88.8145 5.6492C88.7222 5.62693 88.6265 5.6232 88.5328 5.63822C88.439 5.65323 88.3492 5.68669 88.2685 5.73666C88.1878 5.78662 88.1179 5.85211 88.0627 5.92932C88.0074 6.00652 87.9681 6.09392 87.9469 6.18643L87.3763 8.61902L81.6636 7.29428Z" fill="#CDCCCC"/>
<path d="M101.72 5.06114L101.089 7.7579C101.038 7.97683 101.174 8.19582 101.393 8.24705L101.965 8.38086C102.183 8.43209 102.402 8.29614 102.454 8.07722L103.085 5.38045C103.136 5.16153 103 4.94253 102.781 4.89131L102.209 4.7575C101.99 4.70627 101.771 4.84222 101.72 5.06114Z" fill="#B8B7B7"/>
<path d="M102.459 5.10222C102.466 5.06398 102.464 5.0248 102.455 4.98704C102.447 4.94929 102.43 4.91374 102.407 4.88255C102.384 4.85136 102.355 4.82517 102.321 4.80557C102.288 4.78597 102.251 4.77337 102.212 4.76853L100.927 4.61503C100.352 4.54619 99.77 4.68331 99.2856 5.00211L98.5048 5.52266C98.4425 5.56918 98.3985 5.63597 98.3802 5.71151C98.3619 5.78705 98.3706 5.8666 98.4047 5.93644L98.8752 6.75064C99.1649 7.25246 99.6239 7.6346 100.17 7.82845L101.391 8.26558C101.429 8.27879 101.47 8.28383 101.51 8.28037C101.55 8.27692 101.589 8.26504 101.624 8.24553C101.659 8.22601 101.69 8.19929 101.714 8.1671C101.739 8.13491 101.756 8.09797 101.765 8.0587L102.459 5.10222Z" fill="#EAEAEA"/>
<path d="M92.4984 2.50652L91.9278 2.37305L91.484 4.27841C91.4348 4.48203 91.3075 4.65812 91.1295 4.76863C90.9516 4.87915 90.7373 4.91521 90.533 4.86904L87.4731 4.15161C87.0459 4.0515 86.5487 4.62545 86.4486 5.04923L85.7012 8.23929L87.3696 8.63305L87.9402 6.20046C87.9614 6.10794 88.0008 6.02054 88.056 5.94334C88.1112 5.86613 88.1811 5.80065 88.2618 5.75068C88.3425 5.70071 88.4323 5.66725 88.5261 5.65224C88.6198 5.63722 88.7155 5.64096 88.8078 5.66322L91.6008 6.3306C91.7875 6.37361 91.9836 6.34086 92.1463 6.23954C92.3089 6.13822 92.4247 5.97658 92.4684 5.79002L93.0323 3.38746C93.0557 3.29454 93.0604 3.19791 93.0462 3.10316C93.0319 3.00841 92.999 2.91743 92.9493 2.83549C92.8997 2.75355 92.8343 2.68228 92.7569 2.62581C92.6794 2.56934 92.5916 2.5288 92.4984 2.50652Z" fill="#B8B7B7"/>
<path d="M87.3263 8.5662L85.6578 8.17578C85.8621 8.49443 85.9773 8.86199 85.9915 9.24025C85.8982 10.1102 85.7274 10.9701 85.481 11.8097L87.8568 12.3636L88.3507 10.2447C88.4362 9.8863 88.3765 9.50867 88.1846 9.1942C87.9926 8.87973 87.6841 8.65396 87.3263 8.5662Z" fill="#CDCCCC"/>
<path d="M78.4579 10.5999L77.6452 14.0732C77.4437 14.9346 77.9785 15.7962 78.8399 15.9977L85.858 17.64C86.7193 17.8415 87.5809 17.3066 87.7825 16.4453L88.5952 12.972C88.7968 12.1107 88.2619 11.249 87.4006 11.0475L80.3825 9.40528C79.5211 9.20373 78.6595 9.7386 78.4579 10.5999Z" fill="#EAEAEA"/>
<path d="M87.6 11.0951L85.441 10.5879C85.9182 11.005 86.4421 11.7892 86.2285 13.1139C85.8448 15.3396 85.8748 15.116 85.768 15.7634C85.6813 16.3073 85.6446 16.9747 85.3242 17.5153L86.065 17.6888C86.4246 17.7689 86.8012 17.7042 87.1134 17.5088C87.4257 17.3133 87.6484 17.0028 87.7335 16.6443L88.6444 12.7769C88.7285 12.4154 88.6657 12.0353 88.4699 11.72C88.2741 11.4047 87.9613 11.18 87.6 11.0951Z" fill="#DDDDDD"/>
<path d="M82.401 4.06761C82.5578 3.40023 82.5378 2.95643 81.8404 2.76289C81.5234 2.67279 81.0129 2.55266 80.5524 2.44922L80.4356 2.95976C80.4138 3.05201 80.4104 3.14765 80.4256 3.24121C80.4408 3.33477 80.4743 3.42441 80.5242 3.505C80.5741 3.58559 80.6394 3.65554 80.7164 3.71086C80.7934 3.76617 80.8805 3.80576 80.9728 3.82735L81.6936 3.9942C81.8536 4.03145 81.996 4.12221 82.0973 4.25147C82.1987 4.38073 82.2528 4.54072 82.2508 4.70496L82.401 4.06761Z" fill="#B8B7B7"/>
<path d="M72.7229 23.4994L67.759 44.7129L82.8187 48.2368L87.7826 27.0233L72.7229 23.4994Z" fill="#F39020"/>
<path d="M83.7507 26.0795L78.7869 47.293L82.8158 48.2357L87.7796 27.0222L83.7507 26.0795Z" fill="#F07F0B"/>
<path d="M74.9632 24.0215L71.5129 38.7739C71.4238 39.1583 71.4907 39.5625 71.699 39.8977C71.9072 40.2329 72.2399 40.472 72.624 40.5624L72.931 40.6358C73.3155 40.7249 73.7196 40.658 74.0549 40.4497C74.3901 40.2415 74.6291 39.9088 74.7196 39.5247L78.17 24.7723L74.9632 24.0215Z" fill="#FBBF53"/>
<g style="mix-blend-mode:multiply">
<path d="M89.1982 116.945C89.1982 118.614 72.9476 119.979 52.9029 119.979C32.8582 119.979 16.6042 118.62 16.6042 116.945C16.6042 115.27 32.8549 113.912 52.9029 113.912C72.9509 113.912 89.1982 115.27 89.1982 116.945Z" fill="#CDCCCC"/>
</g>
<path fill-rule="evenodd" clip-rule="evenodd" d="M55.0286 44.0441L53.7773 44.5579C52.2026 45.2027 50.4365 45.1971 48.866 44.5422C47.2955 43.8874 46.0485 42.6367 45.3984 41.0642L32.3845 9.3638C31.7436 7.79309 31.749 6.03281 32.3996 4.46607C33.0502 2.89934 34.2932 1.65297 35.8582 0.998224L37.1095 0.484343C38.6826 -0.157528 40.4458 -0.150719 42.014 0.503283C43.5821 1.15728 44.8276 2.40532 45.4785 3.97473L58.519 35.6752C59.1609 37.2483 59.1541 39.0115 58.5001 40.5796C57.8461 42.1477 56.598 43.3932 55.0286 44.0441Z" fill="#FBCCA3"/>
<path fill-rule="evenodd" clip-rule="evenodd" d="M56.0762 38.6844C55.9822 38.7364 55.8745 38.7586 55.7676 38.748C55.6606 38.7375 55.5594 38.6947 55.4773 38.6254C55.3952 38.556 55.3361 38.4634 55.3078 38.3597C55.2795 38.256 55.2833 38.1462 55.3188 38.0447C55.3544 37.9433 55.4198 37.855 55.5066 37.7916C55.5934 37.7282 55.6974 37.6927 55.8048 37.6897C55.9122 37.6867 56.018 37.7163 56.1082 37.7748C56.1984 37.8333 56.2687 37.9177 56.3098 38.017C56.3672 38.1365 56.3748 38.2739 56.331 38.399C56.2872 38.5241 56.1956 38.6268 56.0762 38.6844Z" fill="#C29C7A"/>
<path fill-rule="evenodd" clip-rule="evenodd" d="M52.2388 40.3455C52.1442 40.3984 52.0358 40.4213 51.9278 40.4111C51.8199 40.401 51.7177 40.3582 51.6346 40.2885C51.5516 40.2187 51.4918 40.1254 51.4631 40.0209C51.4344 39.9163 51.4383 39.8055 51.4741 39.7032C51.5099 39.6009 51.576 39.5119 51.6636 39.4481C51.7512 39.3843 51.8562 39.3486 51.9646 39.3459C52.0729 39.3431 52.1796 39.3735 52.2703 39.4328C52.361 39.4921 52.4315 39.5777 52.4724 39.6781C52.5013 39.7372 52.5181 39.8014 52.522 39.867C52.5258 39.9327 52.5167 39.9985 52.4949 40.0605C52.4732 40.1226 52.4394 40.1797 52.3954 40.2287C52.3515 40.2776 52.2982 40.3173 52.2388 40.3455Z" fill="#C29C7A"/>
<path fill-rule="evenodd" clip-rule="evenodd" d="M53.3602 37.7697C53.2659 37.8233 53.1575 37.8468 53.0494 37.8372C52.9414 37.8276 52.8388 37.7853 52.7554 37.716C52.672 37.6467 52.6117 37.5536 52.5825 37.4491C52.5533 37.3447 52.5566 37.2338 52.5919 37.1313C52.6273 37.0287 52.6931 36.9394 52.7805 36.8752C52.8679 36.8109 52.9728 36.7748 53.0812 36.7717C53.1896 36.7686 53.2964 36.7985 53.3874 36.8576C53.4784 36.9167 53.5492 37.002 53.5904 37.1023C53.648 37.2214 53.6562 37.3585 53.613 37.4835C53.5699 37.6086 53.479 37.7115 53.3602 37.7697Z" fill="#C29C7A"/>
<path fill-rule="evenodd" clip-rule="evenodd" d="M54.4547 35.2033C54.3603 35.2568 54.2519 35.2804 54.1439 35.2708C54.0359 35.2612 53.9333 35.2189 53.8499 35.1496C53.7665 35.0803 53.7061 34.9872 53.6769 34.8827C53.6477 34.7783 53.651 34.6674 53.6864 34.5649C53.7218 34.4623 53.7876 34.373 53.875 34.3088C53.9624 34.2445 54.0672 34.2084 54.1757 34.2053C54.2841 34.2022 54.3909 34.2321 54.4819 34.2912C54.5728 34.3502 54.6437 34.4356 54.6849 34.5359C54.7416 34.6552 54.7493 34.7919 54.7062 34.9167C54.6632 35.0415 54.5728 35.1444 54.4547 35.2033Z" fill="#C29C7A"/>
<path fill-rule="evenodd" clip-rule="evenodd" d="M53.0932 31.6699C52.9671 31.7115 52.8296 31.7019 52.7105 31.6433C52.5913 31.5846 52.4999 31.4816 52.4559 31.3562C52.4319 31.2682 52.4338 31.1752 52.4614 31.0882C52.489 31.0013 52.5412 30.9242 52.6115 30.8661C52.6819 30.8081 52.7675 30.7716 52.8581 30.761C52.9487 30.7504 53.0404 30.7662 53.1223 30.8065C53.2041 30.8468 53.2726 30.9098 53.3195 30.9881C53.3664 31.0663 53.3897 31.1564 53.3866 31.2476C53.3835 31.3387 53.3542 31.4271 53.3022 31.502C53.2501 31.5769 53.1776 31.6352 53.0932 31.6699Z" fill="#C29C7A"/>
<path fill-rule="evenodd" clip-rule="evenodd" d="M51.7384 34.1721C51.644 34.2256 51.5356 34.2491 51.4276 34.2395C51.3196 34.2299 51.217 34.1877 51.1336 34.1183C51.0502 34.049 50.9898 33.9559 50.9606 33.8515C50.9314 33.747 50.9347 33.6361 50.9701 33.5336C51.0055 33.4311 51.0712 33.3417 51.1586 33.2775C51.246 33.2133 51.3509 33.1772 51.4594 33.1741C51.5678 33.1709 51.6746 33.2009 51.7656 33.2599C51.8565 33.319 51.9274 33.4044 51.9686 33.5047C52.0253 33.6239 52.033 33.7606 51.9899 33.8854C51.9468 34.0102 51.8565 34.1132 51.7384 34.1721Z" fill="#C29C7A"/>
<path fill-rule="evenodd" clip-rule="evenodd" d="M50.7374 36.8084C50.6428 36.8613 50.5343 36.8842 50.4264 36.874C50.3185 36.8639 50.2162 36.8211 50.1332 36.7514C50.0502 36.6816 49.9903 36.5883 49.9617 36.4838C49.933 36.3792 49.9368 36.2684 49.9726 36.1661C50.0084 36.0638 50.0745 35.9748 50.1621 35.911C50.2497 35.8471 50.3547 35.8115 50.4631 35.8088C50.5715 35.806 50.6781 35.8364 50.7688 35.8957C50.8595 35.955 50.93 36.0406 50.9709 36.141C51.0274 36.2606 51.0346 36.3976 50.9909 36.5225C50.9472 36.6474 50.8561 36.75 50.7374 36.8084Z" fill="#C29C7A"/>
<path fill-rule="evenodd" clip-rule="evenodd" d="M49.4827 39.4689C49.3884 39.5225 49.28 39.546 49.172 39.5364C49.0639 39.5268 48.9614 39.4845 48.878 39.4152C48.7945 39.3459 48.7342 39.2528 48.705 39.1484C48.6758 39.0439 48.6791 38.933 48.7145 38.8305C48.7499 38.7279 48.8156 38.6386 48.903 38.5744C48.9904 38.5102 49.0953 38.4741 49.2037 38.4709C49.3122 38.4678 49.419 38.4977 49.5099 38.5568C49.6009 38.6159 49.6717 38.7012 49.713 38.8016C49.742 38.8604 49.759 38.9245 49.7631 38.99C49.7672 39.0555 49.7583 39.1212 49.7369 39.1832C49.7155 39.2452 49.682 39.3024 49.6384 39.3515C49.5948 39.4005 49.5419 39.4404 49.4827 39.4689Z" fill="#C29C7A"/>
<path fill-rule="evenodd" clip-rule="evenodd" d="M46.8865 38.3709C46.7919 38.4238 46.6835 38.4467 46.5756 38.4365C46.4676 38.4264 46.3654 38.3836 46.2823 38.3139C46.1993 38.2441 46.1395 38.1508 46.1108 38.0463C46.0821 37.9417 46.086 37.8309 46.1218 37.7286C46.1576 37.6263 46.2237 37.5373 46.3113 37.4735C46.3989 37.4096 46.5039 37.374 46.6123 37.3713C46.7206 37.3685 46.8273 37.3989 46.918 37.4582C47.0087 37.5175 47.0792 37.6031 47.1201 37.7035C47.149 37.7626 47.1658 37.8268 47.1697 37.8924C47.1736 37.9581 47.1644 38.0239 47.1426 38.0859C47.1209 38.148 47.0871 38.2051 47.0431 38.254C46.9992 38.303 46.9459 38.3427 46.8865 38.3709Z" fill="#C29C7A"/>
<path fill-rule="evenodd" clip-rule="evenodd" d="M48.0679 35.7443C47.9736 35.7979 47.8652 35.8214 47.7572 35.8118C47.6491 35.8022 47.5466 35.7599 47.4632 35.6906C47.3797 35.6213 47.3194 35.5282 47.2902 35.4237C47.261 35.3193 47.2643 35.2084 47.2997 35.1059C47.3351 35.0033 47.4008 34.914 47.4882 34.8498C47.5756 34.7855 47.6805 34.7495 47.7889 34.7463C47.8974 34.7432 48.0042 34.7731 48.0951 34.8322C48.1861 34.8913 48.2569 34.9766 48.2982 35.0769C48.3549 35.1962 48.3625 35.3329 48.3195 35.4577C48.2764 35.5825 48.1861 35.6854 48.0679 35.7443Z" fill="#C29C7A"/>
<path fill-rule="evenodd" clip-rule="evenodd" d="M49.179 33.2078C49.085 33.2598 48.9773 33.282 48.8704 33.2715C48.7634 33.2609 48.6622 33.2181 48.5801 33.1488C48.498 33.0795 48.4389 32.9868 48.4106 32.8831C48.3823 32.7795 48.3861 32.6696 48.4216 32.5682C48.4571 32.4667 48.5226 32.3785 48.6094 32.3151C48.6962 32.2517 48.8001 32.2161 48.9076 32.2131C49.015 32.2101 49.1208 32.2398 49.211 32.2982C49.3012 32.3567 49.3715 32.4412 49.4126 32.5405C49.47 32.66 49.4776 32.7973 49.4338 32.9224C49.39 33.0476 49.2984 33.1502 49.179 33.2078Z" fill="#C29C7A"/>
<path fill-rule="evenodd" clip-rule="evenodd" d="M50.21 30.633C50.1157 30.6865 50.0073 30.7101 49.8993 30.7005C49.7912 30.6909 49.6887 30.6486 49.6053 30.5793C49.5218 30.51 49.4615 30.4169 49.4323 30.3124C49.4031 30.208 49.4064 30.0971 49.4418 29.9945C49.4772 29.892 49.5429 29.8027 49.6303 29.7385C49.7177 29.6742 49.8226 29.6381 49.931 29.635C50.0395 29.6318 50.1463 29.6618 50.2372 29.7209C50.3282 29.7799 50.399 29.8653 50.4403 29.9656C50.4693 30.0245 50.4863 30.0886 50.4904 30.1541C50.4945 30.2196 50.4856 30.2852 50.4642 30.3473C50.4428 30.4093 50.4093 30.4665 50.3657 30.5155C50.3221 30.5646 50.2692 30.6045 50.21 30.633Z" fill="#C29C7A"/>
<path fill-rule="evenodd" clip-rule="evenodd" d="M46.5328 32.1467C46.4385 32.2002 46.3301 32.2237 46.222 32.2141C46.114 32.2046 46.0114 32.1623 45.928 32.093C45.8446 32.0236 45.7843 31.9305 45.7551 31.8261C45.7259 31.7216 45.7292 31.6107 45.7645 31.5082C45.7999 31.4057 45.8657 31.3164 45.9531 31.2521C46.0405 31.1879 46.1454 31.1518 46.2538 31.1487C46.3622 31.1455 46.469 31.1755 46.56 31.2345C46.651 31.2936 46.7218 31.379 46.763 31.4793C46.8197 31.5985 46.8274 31.7352 46.7843 31.86C46.7413 31.9848 46.6509 32.0878 46.5328 32.1467Z" fill="#C29C7A"/>
<path fill-rule="evenodd" clip-rule="evenodd" d="M46.0858 14.4123C45.9914 14.4658 45.883 14.4894 45.775 14.4798C45.667 14.4702 45.5644 14.4279 45.481 14.3586C45.3976 14.2893 45.3372 14.1962 45.308 14.0917C45.2788 13.9873 45.2821 13.8764 45.3175 13.7738C45.3529 13.6713 45.4187 13.582 45.5061 13.5177C45.5935 13.4535 45.6984 13.4174 45.8068 13.4143C45.9152 13.4111 46.022 13.4411 46.113 13.5002C46.2039 13.5592 46.2748 13.6446 46.316 13.7449C46.3736 13.864 46.3817 14.0011 46.3386 14.1261C46.2954 14.2512 46.2046 14.3541 46.0858 14.4123Z" fill="#C29C7A"/>
<path fill-rule="evenodd" clip-rule="evenodd" d="M42.255 16.0744C42.1606 16.1279 42.0522 16.1515 41.9442 16.1419C41.8361 16.1323 41.7336 16.09 41.6502 16.0207C41.5668 15.9514 41.5064 15.8583 41.4772 15.7538C41.448 15.6494 41.4513 15.5385 41.4867 15.4359C41.5221 15.3334 41.5879 15.2441 41.6753 15.1799C41.7627 15.1156 41.8675 15.0795 41.976 15.0764C42.0844 15.0733 42.1912 15.1032 42.2822 15.1623C42.3731 15.2213 42.444 15.3067 42.4852 15.407C42.5142 15.4659 42.5312 15.53 42.5353 15.5955C42.5394 15.661 42.5305 15.7266 42.5091 15.7887C42.4877 15.8507 42.4542 15.9079 42.4106 15.9569C42.367 16.006 42.3141 16.0459 42.255 16.0744Z" fill="#C29C7A"/>
<path fill-rule="evenodd" clip-rule="evenodd" d="M43.3761 13.498C43.2499 13.5395 43.1125 13.53 42.9933 13.4713C42.8741 13.4127 42.7827 13.3096 42.7387 13.1843C42.7157 13.097 42.7182 13.005 42.7461 12.9191C42.7739 12.8333 42.8259 12.7572 42.8957 12.7001C42.9656 12.643 43.0504 12.6071 43.14 12.5968C43.2297 12.5865 43.3204 12.6023 43.4014 12.6421C43.4824 12.682 43.5502 12.7443 43.5967 12.8216C43.6433 12.8989 43.6666 12.988 43.6639 13.0782C43.6613 13.1684 43.6327 13.2559 43.5817 13.3304C43.5306 13.4048 43.4593 13.463 43.3761 13.498Z" fill="#C29C7A"/>
<path fill-rule="evenodd" clip-rule="evenodd" d="M44.4674 10.9285C44.3733 10.9805 44.2657 11.0027 44.1587 10.9922C44.0517 10.9816 43.9505 10.9388 43.8684 10.8695C43.7863 10.8002 43.7272 10.7075 43.6989 10.6038C43.6706 10.5002 43.6745 10.3903 43.71 10.2889C43.7455 10.1874 43.8109 10.0992 43.8977 10.0358C43.9845 9.97236 44.0885 9.93681 44.1959 9.9338C44.3033 9.9308 44.4091 9.96049 44.4993 10.0189C44.5895 10.0774 44.6598 10.1619 44.7009 10.2612C44.7583 10.3807 44.7659 10.518 44.7221 10.6431C44.6784 10.7683 44.5867 10.8709 44.4674 10.9285Z" fill="#C29C7A"/>
<path fill-rule="evenodd" clip-rule="evenodd" d="M43.1058 7.39534C43.0117 7.44732 42.9041 7.46951 42.7971 7.45896C42.6902 7.44842 42.5889 7.40565 42.5068 7.3363C42.4247 7.26696 42.3656 7.17431 42.3373 7.07063C42.309 6.96695 42.3129 6.85712 42.3484 6.75568C42.3839 6.65424 42.4494 6.56598 42.5361 6.50257C42.6229 6.43916 42.7269 6.4036 42.8343 6.4006C42.9418 6.39759 43.0476 6.42728 43.1378 6.48574C43.2279 6.5442 43.2982 6.62866 43.3394 6.72796C43.3967 6.84746 43.4044 6.98483 43.3606 7.10995C43.3168 7.23506 43.2252 7.3377 43.1058 7.39534Z" fill="#C29C7A"/>
<path fill-rule="evenodd" clip-rule="evenodd" d="M41.7278 9.89954C41.6026 9.94208 41.4656 9.93331 41.3468 9.87517C41.228 9.81702 41.1371 9.71421 41.0938 9.58921C41.0594 9.53072 41.0379 9.46551 41.0309 9.398C41.0238 9.33048 41.0314 9.26225 41.053 9.19791C41.0746 9.13357 41.1098 9.07462 41.1562 9.02506C41.2026 8.9755 41.2591 8.93649 41.3218 8.91066C41.3846 8.88482 41.4522 8.87278 41.52 8.87534C41.5878 8.87789 41.6543 8.89499 41.715 8.92548C41.7756 8.95597 41.829 8.99913 41.8715 9.05204C41.914 9.10495 41.9447 9.16638 41.9614 9.23216C42.0179 9.3518 42.025 9.48884 41.9813 9.6137C41.9376 9.73857 41.8466 9.84124 41.7278 9.89954Z" fill="#C29C7A"/>
<path fill-rule="evenodd" clip-rule="evenodd" d="M40.7266 12.533C40.632 12.5859 40.5236 12.6088 40.4156 12.5986C40.3077 12.5885 40.2055 12.5457 40.1224 12.476C40.0394 12.4062 39.9796 12.3129 39.9509 12.2084C39.9222 12.1038 39.926 11.993 39.9619 11.8907C39.9977 11.7884 40.0638 11.6994 40.1514 11.6356C40.239 11.5718 40.344 11.5361 40.4523 11.5334C40.5607 11.5306 40.6673 11.561 40.7581 11.6203C40.8488 11.6796 40.9193 11.7652 40.9602 11.8656C40.9891 11.9247 41.0059 11.9889 41.0098 12.0545C41.0136 12.1202 41.0044 12.186 40.9827 12.248C40.961 12.3101 40.9272 12.3672 40.8832 12.4162C40.8393 12.4651 40.786 12.5048 40.7266 12.533Z" fill="#C29C7A"/>
<path fill-rule="evenodd" clip-rule="evenodd" d="M39.4986 15.1955C39.4043 15.249 39.2959 15.2726 39.1878 15.263C39.0798 15.2534 38.9773 15.2111 38.8938 15.1418C38.8104 15.0725 38.7501 14.9794 38.7209 14.8749C38.6917 14.7705 38.695 14.6596 38.7304 14.557C38.7657 14.4545 38.8315 14.3652 38.9189 14.301C39.0063 14.2367 39.1112 14.2006 39.2196 14.1975C39.328 14.1943 39.4348 14.2243 39.5258 14.2834C39.6168 14.3424 39.6876 14.4278 39.7289 14.5281C39.7847 14.6475 39.7919 14.7839 39.7489 14.9084C39.7059 15.033 39.6162 15.136 39.4986 15.1955Z" fill="#C29C7A"/>
<path fill-rule="evenodd" clip-rule="evenodd" d="M36.9027 14.1115C36.8083 14.1651 36.6999 14.1886 36.5919 14.179C36.4839 14.1694 36.3813 14.1271 36.2979 14.0578C36.2145 13.9885 36.1541 13.8954 36.1249 13.7909C36.0957 13.6865 36.099 13.5756 36.1344 13.4731C36.1698 13.3705 36.2356 13.2812 36.323 13.217C36.4104 13.1527 36.5152 13.1166 36.6237 13.1135C36.7321 13.1104 36.8389 13.1403 36.9299 13.1994C37.0208 13.2584 37.0917 13.3438 37.1329 13.4441C37.1896 13.5634 37.1973 13.7001 37.1542 13.8249C37.1111 13.9497 37.0208 14.0526 36.9027 14.1115Z" fill="#C29C7A"/>
<path fill-rule="evenodd" clip-rule="evenodd" d="M38.0872 11.4715C37.9932 11.5235 37.8855 11.5457 37.7786 11.5351C37.6716 11.5246 37.5704 11.4818 37.4883 11.4125C37.4062 11.3431 37.3471 11.2505 37.3188 11.1468C37.2905 11.0431 37.2943 10.9333 37.3298 10.8319C37.3653 10.7304 37.4308 10.6422 37.5176 10.5787C37.6044 10.5153 37.7083 10.4798 37.8158 10.4768C37.9232 10.4738 38.029 10.5035 38.1192 10.5619C38.2094 10.6204 38.2797 10.7048 38.3208 10.8041C38.3782 10.9236 38.3858 11.061 38.342 11.1861C38.2982 11.3112 38.2066 11.4139 38.0872 11.4715Z" fill="#C29C7A"/>
<path fill-rule="evenodd" clip-rule="evenodd" d="M39.1951 8.93573C39.1008 8.98927 38.9924 9.01281 38.8844 9.00321C38.7763 8.99362 38.6738 8.95134 38.5904 8.88202C38.5069 8.81269 38.4466 8.71961 38.4174 8.61515C38.3882 8.51069 38.3915 8.39981 38.4269 8.29728C38.4623 8.19474 38.528 8.10542 38.6154 8.04118C38.7028 7.97695 38.8077 7.94086 38.9161 7.93772C39.0246 7.93458 39.1314 7.96454 39.2223 8.0236C39.3133 8.08267 39.3841 8.16804 39.4254 8.26835C39.483 8.38744 39.4911 8.52449 39.448 8.64955C39.4048 8.7746 39.3139 8.87749 39.1951 8.93573Z" fill="#C29C7A"/>
<path fill-rule="evenodd" clip-rule="evenodd" d="M40.2227 6.36018C40.1287 6.41216 40.021 6.43435 39.9141 6.4238C39.8071 6.41326 39.7059 6.37049 39.6238 6.30115C39.5417 6.2318 39.4826 6.13916 39.4543 6.03548C39.426 5.9318 39.4298 5.82196 39.4653 5.72053C39.5008 5.61909 39.5663 5.53082 39.6531 5.46742C39.7399 5.40401 39.8438 5.36845 39.9513 5.36544C40.0587 5.36244 40.1645 5.39213 40.2547 5.45058C40.3449 5.50904 40.4152 5.59351 40.4563 5.6928C40.5137 5.8123 40.5213 5.94968 40.4775 6.07479C40.4337 6.19991 40.3421 6.30254 40.2227 6.36018Z" fill="#C29C7A"/>
<path fill-rule="evenodd" clip-rule="evenodd" d="M36.5455 7.87476C36.4509 7.92771 36.3424 7.95062 36.2345 7.94044C36.1266 7.93026 36.0243 7.88747 35.9413 7.81775C35.8583 7.74804 35.7984 7.65471 35.7698 7.55017C35.7411 7.44564 35.7449 7.33484 35.7807 7.23253C35.8165 7.13021 35.8826 7.04122 35.9702 6.97738C36.0579 6.91355 36.1628 6.8779 36.2712 6.87517C36.3796 6.87244 36.4862 6.90276 36.5769 6.9621C36.6676 7.02144 36.7381 7.107 36.779 7.20738C36.8355 7.32701 36.8427 7.46406 36.799 7.58892C36.7553 7.71378 36.6642 7.81645 36.5455 7.87476Z" fill="#C29C7A"/>
<path d="M46.9196 16.3779L40.0718 19.1948C39.4889 19.4345 39.2107 20.1014 39.4505 20.6843L42.4768 28.0413C42.7166 28.6242 43.3835 28.9024 43.9664 28.6626L50.8142 25.8457C51.3971 25.6059 51.6752 24.939 51.4355 24.3562L48.4091 16.9991C48.1694 16.4163 47.5025 16.1381 46.9196 16.3779Z" fill="#FDF6E2"/>
<path fill-rule="evenodd" clip-rule="evenodd" d="M55.0286 44.0441L53.7773 44.5579C52.2026 45.2027 50.4365 45.1971 48.866 44.5422C47.2955 43.8874 46.0485 42.6367 45.3984 41.0642L32.3845 9.3638C31.7436 7.79309 31.749 6.03281 32.3996 4.46607C33.0502 2.89934 34.2932 1.65297 35.8582 0.998224L37.1095 0.484343C38.6826 -0.157528 40.4458 -0.150719 42.014 0.503283C43.5821 1.15728 44.8276 2.40532 45.4785 3.97473L58.519 35.6752C59.1609 37.2483 59.1541 39.0115 58.5001 40.5796C57.8461 42.1477 56.598 43.3932 55.0286 44.0441Z" fill="#E5B895"/>
<path fill-rule="evenodd" clip-rule="evenodd" d="M56.0762 38.6844C55.9822 38.7364 55.8745 38.7586 55.7676 38.748C55.6606 38.7375 55.5594 38.6947 55.4773 38.6254C55.3952 38.556 55.3361 38.4634 55.3078 38.3597C55.2795 38.256 55.2833 38.1462 55.3188 38.0447C55.3544 37.9433 55.4198 37.855 55.5066 37.7916C55.5934 37.7282 55.6974 37.6927 55.8048 37.6897C55.9122 37.6867 56.018 37.7163 56.1082 37.7748C56.1984 37.8333 56.2687 37.9177 56.3098 38.017C56.3672 38.1365 56.3748 38.2739 56.331 38.399C56.2872 38.5241 56.1956 38.6268 56.0762 38.6844Z" fill="#C29C7A"/>
<path fill-rule="evenodd" clip-rule="evenodd" d="M52.2388 40.3455C52.1442 40.3984 52.0358 40.4213 51.9278 40.4111C51.8199 40.401 51.7177 40.3582 51.6346 40.2885C51.5516 40.2187 51.4918 40.1254 51.4631 40.0209C51.4344 39.9163 51.4383 39.8055 51.4741 39.7032C51.5099 39.6009 51.576 39.5119 51.6636 39.4481C51.7512 39.3843 51.8562 39.3486 51.9646 39.3459C52.0729 39.3431 52.1796 39.3735 52.2703 39.4328C52.361 39.4921 52.4315 39.5777 52.4724 39.6781C52.5013 39.7372 52.5181 39.8014 52.522 39.867C52.5258 39.9327 52.5167 39.9985 52.4949 40.0605C52.4732 40.1226 52.4394 40.1797 52.3954 40.2287C52.3515 40.2776 52.2982 40.3173 52.2388 40.3455Z" fill="#C29C7A"/>
<path fill-rule="evenodd" clip-rule="evenodd" d="M53.3602 37.7697C53.2659 37.8233 53.1575 37.8468 53.0494 37.8372C52.9414 37.8276 52.8388 37.7853 52.7554 37.716C52.672 37.6467 52.6117 37.5536 52.5825 37.4491C52.5533 37.3447 52.5566 37.2338 52.5919 37.1313C52.6273 37.0287 52.6931 36.9394 52.7805 36.8752C52.8679 36.8109 52.9728 36.7748 53.0812 36.7717C53.1896 36.7686 53.2964 36.7985 53.3874 36.8576C53.4784 36.9167 53.5492 37.002 53.5904 37.1023C53.648 37.2214 53.6562 37.3585 53.613 37.4835C53.5699 37.6086 53.479 37.7115 53.3602 37.7697Z" fill="#C29C7A"/>
<path fill-rule="evenodd" clip-rule="evenodd" d="M54.4547 35.2033C54.3603 35.2568 54.2519 35.2804 54.1439 35.2708C54.0359 35.2612 53.9333 35.2189 53.8499 35.1496C53.7665 35.0803 53.7061 34.9872 53.6769 34.8827C53.6477 34.7783 53.651 34.6674 53.6864 34.5649C53.7218 34.4623 53.7876 34.373 53.875 34.3088C53.9624 34.2445 54.0672 34.2084 54.1757 34.2053C54.2841 34.2022 54.3909 34.2321 54.4819 34.2912C54.5728 34.3502 54.6437 34.4356 54.6849 34.5359C54.7416 34.6552 54.7493 34.7919 54.7062 34.9167C54.6632 35.0415 54.5728 35.1444 54.4547 35.2033Z" fill="#C29C7A"/>
<path fill-rule="evenodd" clip-rule="evenodd" d="M53.0932 31.6699C52.9671 31.7115 52.8296 31.7019 52.7105 31.6433C52.5913 31.5846 52.4999 31.4816 52.4559 31.3562C52.4319 31.2682 52.4338 31.1752 52.4614 31.0882C52.489 31.0013 52.5412 30.9242 52.6115 30.8661C52.6819 30.8081 52.7675 30.7716 52.8581 30.761C52.9487 30.7504 53.0404 30.7662 53.1223 30.8065C53.2041 30.8468 53.2726 30.9098 53.3195 30.9881C53.3664 31.0663 53.3897 31.1564 53.3866 31.2476C53.3835 31.3387 53.3542 31.4271 53.3022 31.502C53.2501 31.5769 53.1776 31.6352 53.0932 31.6699Z" fill="#C29C7A"/>
<path fill-rule="evenodd" clip-rule="evenodd" d="M51.7384 34.1721C51.644 34.2256 51.5356 34.2491 51.4276 34.2395C51.3196 34.2299 51.217 34.1877 51.1336 34.1183C51.0502 34.049 50.9898 33.9559 50.9606 33.8515C50.9314 33.747 50.9347 33.6361 50.9701 33.5336C51.0055 33.4311 51.0712 33.3417 51.1586 33.2775C51.246 33.2133 51.3509 33.1772 51.4594 33.1741C51.5678 33.1709 51.6746 33.2009 51.7656 33.2599C51.8565 33.319 51.9274 33.4044 51.9686 33.5047C52.0253 33.6239 52.033 33.7606 51.9899 33.8854C51.9468 34.0102 51.8565 34.1132 51.7384 34.1721Z" fill="#C29C7A"/>
<path fill-rule="evenodd" clip-rule="evenodd" d="M50.7374 36.8084C50.6428 36.8613 50.5343 36.8842 50.4264 36.874C50.3185 36.8639 50.2162 36.8211 50.1332 36.7514C50.0502 36.6816 49.9903 36.5883 49.9617 36.4838C49.933 36.3792 49.9368 36.2684 49.9726 36.1661C50.0084 36.0638 50.0745 35.9748 50.1621 35.911C50.2497 35.8471 50.3547 35.8115 50.4631 35.8088C50.5715 35.806 50.6781 35.8364 50.7688 35.8957C50.8595 35.955 50.93 36.0406 50.9709 36.141C51.0274 36.2606 51.0346 36.3976 50.9909 36.5225C50.9472 36.6474 50.8561 36.75 50.7374 36.8084Z" fill="#C29C7A"/>
<path fill-rule="evenodd" clip-rule="evenodd" d="M49.4827 39.4689C49.3884 39.5225 49.28 39.546 49.172 39.5364C49.0639 39.5268 48.9614 39.4845 48.878 39.4152C48.7945 39.3459 48.7342 39.2528 48.705 39.1484C48.6758 39.0439 48.6791 38.933 48.7145 38.8305C48.7499 38.7279 48.8156 38.6386 48.903 38.5744C48.9904 38.5102 49.0953 38.4741 49.2037 38.4709C49.3122 38.4678 49.419 38.4977 49.5099 38.5568C49.6009 38.6159 49.6717 38.7012 49.713 38.8016C49.742 38.8604 49.759 38.9245 49.7631 38.99C49.7672 39.0555 49.7583 39.1212 49.7369 39.1832C49.7155 39.2452 49.682 39.3024 49.6384 39.3515C49.5948 39.4005 49.5419 39.4404 49.4827 39.4689Z" fill="#C29C7A"/>
<path fill-rule="evenodd" clip-rule="evenodd" d="M46.8865 38.3709C46.7919 38.4238 46.6835 38.4467 46.5756 38.4365C46.4676 38.4264 46.3654 38.3836 46.2823 38.3139C46.1993 38.2441 46.1395 38.1508 46.1108 38.0463C46.0821 37.9417 46.086 37.8309 46.1218 37.7286C46.1576 37.6263 46.2237 37.5373 46.3113 37.4735C46.3989 37.4096 46.5039 37.374 46.6123 37.3713C46.7206 37.3685 46.8273 37.3989 46.918 37.4582C47.0087 37.5175 47.0792 37.6031 47.1201 37.7035C47.149 37.7626 47.1658 37.8268 47.1697 37.8924C47.1736 37.9581 47.1644 38.0239 47.1426 38.0859C47.1209 38.148 47.0871 38.2051 47.0431 38.254C46.9992 38.303 46.9459 38.3427 46.8865 38.3709Z" fill="#C29C7A"/>
<path fill-rule="evenodd" clip-rule="evenodd" d="M48.0679 35.7443C47.9736 35.7979 47.8652 35.8214 47.7572 35.8118C47.6491 35.8022 47.5466 35.7599 47.4632 35.6906C47.3797 35.6213 47.3194 35.5282 47.2902 35.4237C47.261 35.3193 47.2643 35.2084 47.2997 35.1059C47.3351 35.0033 47.4008 34.914 47.4882 34.8498C47.5756 34.7855 47.6805 34.7495 47.7889 34.7463C47.8974 34.7432 48.0042 34.7731 48.0951 34.8322C48.1861 34.8913 48.2569 34.9766 48.2982 35.0769C48.3549 35.1962 48.3625 35.3329 48.3195 35.4577C48.2764 35.5825 48.1861 35.6854 48.0679 35.7443Z" fill="#C29C7A"/>
<path fill-rule="evenodd" clip-rule="evenodd" d="M49.179 33.2078C49.085 33.2598 48.9773 33.282 48.8704 33.2715C48.7634 33.2609 48.6622 33.2181 48.5801 33.1488C48.498 33.0795 48.4389 32.9868 48.4106 32.8831C48.3823 32.7795 48.3861 32.6696 48.4216 32.5682C48.4571 32.4667 48.5226 32.3785 48.6094 32.3151C48.6962 32.2517 48.8001 32.2161 48.9076 32.2131C49.015 32.2101 49.1208 32.2398 49.211 32.2982C49.3012 32.3567 49.3715 32.4412 49.4126 32.5405C49.47 32.66 49.4776 32.7973 49.4338 32.9224C49.39 33.0476 49.2984 33.1502 49.179 33.2078Z" fill="#C29C7A"/>
<path fill-rule="evenodd" clip-rule="evenodd" d="M50.21 30.633C50.1157 30.6865 50.0073 30.7101 49.8993 30.7005C49.7912 30.6909 49.6887 30.6486 49.6053 30.5793C49.5218 30.51 49.4615 30.4169 49.4323 30.3124C49.4031 30.208 49.4064 30.0971 49.4418 29.9945C49.4772 29.892 49.5429 29.8027 49.6303 29.7385C49.7177 29.6742 49.8226 29.6381 49.931 29.635C50.0395 29.6318 50.1463 29.6618 50.2372 29.7209C50.3282 29.7799 50.399 29.8653 50.4403 29.9656C50.4693 30.0245 50.4863 30.0886 50.4904 30.1541C50.4945 30.2196 50.4856 30.2852 50.4642 30.3473C50.4428 30.4093 50.4093 30.4665 50.3657 30.5155C50.3221 30.5646 50.2692 30.6045 50.21 30.633Z" fill="#C29C7A"/>
<path fill-rule="evenodd" clip-rule="evenodd" d="M46.5328 32.1467C46.4385 32.2002 46.3301 32.2237 46.222 32.2141C46.114 32.2046 46.0114 32.1623 45.928 32.093C45.8446 32.0236 45.7843 31.9305 45.7551 31.8261C45.7259 31.7216 45.7292 31.6107 45.7645 31.5082C45.7999 31.4057 45.8657 31.3164 45.9531 31.2521C46.0405 31.1879 46.1454 31.1518 46.2538 31.1487C46.3622 31.1455 46.469 31.1755 46.56 31.2345C46.651 31.2936 46.7218 31.379 46.763 31.4793C46.8197 31.5985 46.8274 31.7352 46.7843 31.86C46.7413 31.9848 46.6509 32.0878 46.5328 32.1467Z" fill="#C29C7A"/>
<path fill-rule="evenodd" clip-rule="evenodd" d="M46.0858 14.4123C45.9914 14.4658 45.883 14.4894 45.775 14.4798C45.667 14.4702 45.5644 14.4279 45.481 14.3586C45.3976 14.2893 45.3372 14.1962 45.308 14.0917C45.2788 13.9873 45.2821 13.8764 45.3175 13.7738C45.3529 13.6713 45.4187 13.582 45.5061 13.5177C45.5935 13.4535 45.6984 13.4174 45.8068 13.4143C45.9152 13.4111 46.022 13.4411 46.113 13.5002C46.2039 13.5592 46.2748 13.6446 46.316 13.7449C46.3736 13.864 46.3817 14.0011 46.3386 14.1261C46.2954 14.2512 46.2046 14.3541 46.0858 14.4123Z" fill="#C29C7A"/>
<path fill-rule="evenodd" clip-rule="evenodd" d="M42.255 16.0744C42.1606 16.1279 42.0522 16.1515 41.9442 16.1419C41.8361 16.1323 41.7336 16.09 41.6502 16.0207C41.5668 15.9514 41.5064 15.8583 41.4772 15.7538C41.448 15.6494 41.4513 15.5385 41.4867 15.4359C41.5221 15.3334 41.5879 15.2441 41.6753 15.1799C41.7627 15.1156 41.8675 15.0795 41.976 15.0764C42.0844 15.0733 42.1912 15.1032 42.2822 15.1623C42.3731 15.2213 42.444 15.3067 42.4852 15.407C42.5142 15.4659 42.5312 15.53 42.5353 15.5955C42.5394 15.661 42.5305 15.7266 42.5091 15.7887C42.4877 15.8507 42.4542 15.9079 42.4106 15.9569C42.367 16.006 42.3141 16.0459 42.255 16.0744Z" fill="#C29C7A"/>
<path fill-rule="evenodd" clip-rule="evenodd" d="M43.3761 13.498C43.2499 13.5395 43.1125 13.53 42.9933 13.4713C42.8741 13.4127 42.7827 13.3096 42.7387 13.1843C42.7157 13.097 42.7182 13.005 42.7461 12.9191C42.7739 12.8333 42.8259 12.7572 42.8957 12.7001C42.9656 12.643 43.0504 12.6071 43.14 12.5968C43.2297 12.5865 43.3204 12.6023 43.4014 12.6421C43.4824 12.682 43.5502 12.7443 43.5967 12.8216C43.6433 12.8989 43.6666 12.988 43.6639 13.0782C43.6613 13.1684 43.6327 13.2559 43.5817 13.3304C43.5306 13.4048 43.4593 13.463 43.3761 13.498Z" fill="#C29C7A"/>
<path fill-rule="evenodd" clip-rule="evenodd" d="M44.4674 10.9285C44.3733 10.9805 44.2657 11.0027 44.1587 10.9922C44.0517 10.9816 43.9505 10.9388 43.8684 10.8695C43.7863 10.8002 43.7272 10.7075 43.6989 10.6038C43.6706 10.5002 43.6745 10.3903 43.71 10.2889C43.7455 10.1874 43.8109 10.0992 43.8977 10.0358C43.9845 9.97236 44.0885 9.93681 44.1959 9.9338C44.3033 9.9308 44.4091 9.96049 44.4993 10.0189C44.5895 10.0774 44.6598 10.1619 44.7009 10.2612C44.7583 10.3807 44.7659 10.518 44.7221 10.6431C44.6784 10.7683 44.5867 10.8709 44.4674 10.9285Z" fill="#C29C7A"/>
<path fill-rule="evenodd" clip-rule="evenodd" d="M43.1058 7.39534C43.0117 7.44732 42.9041 7.46951 42.7971 7.45896C42.6902 7.44842 42.5889 7.40565 42.5068 7.3363C42.4247 7.26696 42.3656 7.17431 42.3373 7.07063C42.309 6.96695 42.3129 6.85712 42.3484 6.75568C42.3839 6.65424 42.4494 6.56598 42.5361 6.50257C42.6229 6.43916 42.7269 6.4036 42.8343 6.4006C42.9418 6.39759 43.0476 6.42728 43.1378 6.48574C43.2279 6.5442 43.2982 6.62866 43.3394 6.72796C43.3967 6.84746 43.4044 6.98483 43.3606 7.10995C43.3168 7.23506 43.2252 7.3377 43.1058 7.39534Z" fill="#C29C7A"/>
<path fill-rule="evenodd" clip-rule="evenodd" d="M41.7278 9.89954C41.6026 9.94208 41.4656 9.93331 41.3468 9.87517C41.228 9.81702 41.1371 9.71421 41.0938 9.58921C41.0594 9.53072 41.0379 9.46551 41.0309 9.398C41.0238 9.33048 41.0314 9.26225 41.053 9.19791C41.0746 9.13357 41.1098 9.07462 41.1562 9.02506C41.2026 8.9755 41.2591 8.93649 41.3218 8.91066C41.3846 8.88482 41.4522 8.87278 41.52 8.87534C41.5878 8.87789 41.6543 8.89499 41.715 8.92548C41.7756 8.95597 41.829 8.99913 41.8715 9.05204C41.914 9.10495 41.9447 9.16638 41.9614 9.23216C42.0179 9.3518 42.025 9.48884 41.9813 9.6137C41.9376 9.73857 41.8466 9.84124 41.7278 9.89954Z" fill="#C29C7A"/>
<path fill-rule="evenodd" clip-rule="evenodd" d="M40.7266 12.533C40.632 12.5859 40.5236 12.6088 40.4156 12.5986C40.3077 12.5885 40.2055 12.5457 40.1224 12.476C40.0394 12.4062 39.9796 12.3129 39.9509 12.2084C39.9222 12.1038 39.926 11.993 39.9619 11.8907C39.9977 11.7884 40.0638 11.6994 40.1514 11.6356C40.239 11.5718 40.344 11.5361 40.4523 11.5334C40.5607 11.5306 40.6673 11.561 40.7581 11.6203C40.8488 11.6796 40.9193 11.7652 40.9602 11.8656C40.9891 11.9247 41.0059 11.9889 41.0098 12.0545C41.0136 12.1202 41.0044 12.186 40.9827 12.248C40.961 12.3101 40.9272 12.3672 40.8832 12.4162C40.8393 12.4651 40.786 12.5048 40.7266 12.533Z" fill="#C29C7A"/>
<path fill-rule="evenodd" clip-rule="evenodd" d="M39.4986 15.1955C39.4043 15.249 39.2959 15.2726 39.1878 15.263C39.0798 15.2534 38.9773 15.2111 38.8938 15.1418C38.8104 15.0725 38.7501 14.9794 38.7209 14.8749C38.6917 14.7705 38.695 14.6596 38.7304 14.557C38.7657 14.4545 38.8315 14.3652 38.9189 14.301C39.0063 14.2367 39.1112 14.2006 39.2196 14.1975C39.328 14.1943 39.4348 14.2243 39.5258 14.2834C39.6168 14.3424 39.6876 14.4278 39.7289 14.5281C39.7847 14.6475 39.7919 14.7839 39.7489 14.9084C39.7059 15.033 39.6162 15.136 39.4986 15.1955Z" fill="#C29C7A"/>
<path fill-rule="evenodd" clip-rule="evenodd" d="M36.9027 14.1115C36.8083 14.1651 36.6999 14.1886 36.5919 14.179C36.4839 14.1694 36.3813 14.1271 36.2979 14.0578C36.2145 13.9885 36.1541 13.8954 36.1249 13.7909C36.0957 13.6865 36.099 13.5756 36.1344 13.4731C36.1698 13.3705 36.2356 13.2812 36.323 13.217C36.4104 13.1527 36.5152 13.1166 36.6237 13.1135C36.7321 13.1104 36.8389 13.1403 36.9299 13.1994C37.0208 13.2584 37.0917 13.3438 37.1329 13.4441C37.1896 13.5634 37.1973 13.7001 37.1542 13.8249C37.1111 13.9497 37.0208 14.0526 36.9027 14.1115Z" fill="#C29C7A"/>
<path fill-rule="evenodd" clip-rule="evenodd" d="M38.0872 11.4715C37.9932 11.5235 37.8855 11.5457 37.7786 11.5351C37.6716 11.5246 37.5704 11.4818 37.4883 11.4125C37.4062 11.3431 37.3471 11.2505 37.3188 11.1468C37.2905 11.0431 37.2943 10.9333 37.3298 10.8319C37.3653 10.7304 37.4308 10.6422 37.5176 10.5787C37.6044 10.5153 37.7083 10.4798 37.8158 10.4768C37.9232 10.4738 38.029 10.5035 38.1192 10.5619C38.2094 10.6204 38.2797 10.7048 38.3208 10.8041C38.3782 10.9236 38.3858 11.061 38.342 11.1861C38.2982 11.3112 38.2066 11.4139 38.0872 11.4715Z" fill="#C29C7A"/>
<path fill-rule="evenodd" clip-rule="evenodd" d="M39.1951 8.93573C39.1008 8.98927 38.9924 9.01281 38.8844 9.00321C38.7763 8.99362 38.6738 8.95134 38.5904 8.88202C38.5069 8.81269 38.4466 8.71961 38.4174 8.61515C38.3882 8.51069 38.3915 8.39981 38.4269 8.29728C38.4623 8.19474 38.528 8.10542 38.6154 8.04118C38.7028 7.97695 38.8077 7.94086 38.9161 7.93772C39.0246 7.93458 39.1314 7.96454 39.2223 8.0236C39.3133 8.08267 39.3841 8.16804 39.4254 8.26835C39.483 8.38744 39.4911 8.52449 39.448 8.64955C39.4048 8.7746 39.3139 8.87749 39.1951 8.93573Z" fill="#C29C7A"/>
<path fill-rule="evenodd" clip-rule="evenodd" d="M40.2227 6.36018C40.1287 6.41216 40.021 6.43435 39.9141 6.4238C39.8071 6.41326 39.7059 6.37049 39.6238 6.30115C39.5417 6.2318 39.4826 6.13916 39.4543 6.03548C39.426 5.9318 39.4298 5.82196 39.4653 5.72053C39.5008 5.61909 39.5663 5.53082 39.6531 5.46742C39.7399 5.40401 39.8438 5.36845 39.9513 5.36544C40.0587 5.36244 40.1645 5.39213 40.2547 5.45058C40.3449 5.50904 40.4152 5.59351 40.4563 5.6928C40.5137 5.8123 40.5213 5.94968 40.4775 6.07479C40.4337 6.19991 40.3421 6.30254 40.2227 6.36018Z" fill="#C29C7A"/>
<path fill-rule="evenodd" clip-rule="evenodd" d="M36.5455 7.87476C36.4509 7.92771 36.3424 7.95062 36.2345 7.94044C36.1266 7.93026 36.0243 7.88747 35.9413 7.81775C35.8583 7.74804 35.7984 7.65471 35.7698 7.55017C35.7411 7.44564 35.7449 7.33484 35.7807 7.23253C35.8165 7.13021 35.8826 7.04122 35.9702 6.97738C36.0579 6.91355 36.1628 6.8779 36.2712 6.87517C36.3796 6.87244 36.4862 6.90276 36.5769 6.9621C36.6676 7.02144 36.7381 7.107 36.779 7.20738C36.8355 7.32701 36.8427 7.46406 36.799 7.58892C36.7553 7.71378 36.6642 7.81645 36.5455 7.87476Z" fill="#C29C7A"/>
<path d="M46.9196 16.3779L40.0718 19.1948C39.4889 19.4345 39.2107 20.1014 39.4505 20.6843L42.4768 28.0413C42.7166 28.6242 43.3835 28.9024 43.9664 28.6626L50.8142 25.8457C51.3971 25.6059 51.6752 24.939 51.4355 24.3562L48.4091 16.9991C48.1694 16.4163 47.5025 16.1381 46.9196 16.3779Z" fill="#FDF6E2"/>
<path d="M43.6632 45.7321L24.5228 57.548C23.0545 58.4556 21.0758 57.9084 20.0981 56.3267L0.53723 24.6429C-0.440477 23.0612 -0.0433879 21.0424 1.42484 20.1381L20.5652 8.31888C22.0335 7.41458 24.0156 7.96183 24.9899 9.54351L44.5541 41.2439C45.5285 42.8089 45.1314 44.8244 43.6632 45.7321Z" fill="#BCBCBB"/>
<path d="M42.2483 46.079L24.9866 56.7237C23.0812 57.9016 20.5052 57.1875 19.2371 55.132L0.947666 25.5238C-0.320351 23.4683 0.196866 20.8521 2.10557 19.6709L19.3706 9.0062C21.276 7.82827 23.8521 8.53903 25.1201 10.5946L43.3962 40.2261C44.6709 42.2816 44.1537 44.9044 42.2483 46.079Z" fill="#EAEAEA"/>
<path d="M20.5718 8.26859L10.6946 14.3718L33.579 51.4379L43.4628 45.3347C44.7041 44.5706 45.0412 42.8654 44.2169 41.5273L24.3124 9.30302C23.4849 7.96827 21.8098 7.50444 20.5718 8.26859Z" fill="#DDDDDD"/>
<path d="M30.9094 46.8701L30.7426 46.9735C30.5941 47.057 30.4187 47.0786 30.2545 47.0336C30.0902 46.9886 29.9503 46.8807 29.865 46.7333L13.2339 19.7912C13.1397 19.6495 13.1054 19.4762 13.1385 19.3093C13.1717 19.1423 13.2696 18.9953 13.4108 18.9003L13.5776 18.7968C13.726 18.7138 13.9012 18.6928 14.065 18.7385C14.2288 18.7841 14.3678 18.8927 14.4519 19.0404L31.0863 45.9791C31.1334 46.0492 31.1662 46.1278 31.1828 46.2106C31.1994 46.2933 31.1995 46.3786 31.183 46.4614C31.1666 46.5442 31.134 46.6229 31.087 46.693C31.0401 46.7632 30.9797 46.8233 30.9094 46.8701Z" fill="#FAFAFA"/>
<path d="M12.163 23.4543C13.3142 25.3163 12.8304 27.6888 11.1152 28.7566C9.40006 29.8244 7.05756 29.1804 5.90633 27.3184C4.75511 25.4565 5.23896 23.0806 6.95412 22.0161C8.66928 20.9517 11.0285 21.5923 12.163 23.4543Z" fill="#CAC9C9"/>
<path d="M11.4523 23.8952C12.3399 25.3334 11.9795 27.1653 10.6447 27.9929C9.30999 28.8204 7.50473 28.3266 6.61712 26.8784C5.7295 25.4301 6.09323 23.6049 7.42798 22.7807C8.76274 21.9564 10.5647 22.4536 11.4523 23.8952Z" fill="#F39020"/>
<path d="M10.5745 28.0268L10.6446 27.9901C10.9123 27.8224 11.1484 27.609 11.342 27.3594L8.30209 22.4375C7.99292 22.4951 7.69672 22.6081 7.42782 22.7712L7.36108 22.8179L10.5745 28.0268Z" fill="#F7A63B"/>
<path d="M10.2641 28.1825C10.3951 28.1278 10.5222 28.0643 10.6445 27.9923C10.762 27.915 10.8735 27.8291 10.9782 27.7353L7.8015 22.5898C7.66928 22.6418 7.54197 22.7054 7.42109 22.78C7.30399 22.8566 7.19248 22.9413 7.0874 23.0337L10.2641 28.1825Z" fill="#F07F0B"/>
<path d="M19.2171 34.878C20.365 36.74 19.8845 39.1158 18.1693 40.1836C16.4542 41.2514 14.1083 40.6041 12.9605 38.7421C11.8126 36.8801 12.2931 34.5076 14.0049 33.4398C15.7167 32.372 18.0659 33.0327 19.2171 34.878Z" fill="#CAC9C9"/>
<path d="M18.5063 35.3177C19.3939 36.7559 19.0302 38.5912 17.6954 39.4154C16.3607 40.2396 14.5587 39.7491 13.6711 38.3009C12.7835 36.8527 13.1439 35.0308 14.4787 34.2066C15.8134 33.3823 17.6153 33.8795 18.5063 35.3177Z" fill="#F39020"/>
<path d="M17.6254 39.4526L17.6955 39.4159C17.9639 39.2491 18.2001 39.0355 18.3929 38.7852L15.3664 33.8633C15.0574 33.9216 14.7614 34.0346 14.4921 34.197L14.4287 34.2403L17.6254 39.4526Z" fill="#F7A63B"/>
<path d="M17.3151 39.6063C17.4464 39.5523 17.5736 39.4888 17.6956 39.4161C17.8141 39.3404 17.9258 39.2544 18.0292 39.1592L14.8525 34.0137C14.7205 34.0674 14.5933 34.1322 14.4721 34.2072C14.3534 34.2815 14.2418 34.3664 14.1384 34.4608L17.3151 39.6063Z" fill="#F07F0B"/>
<path d="M26.268 46.3021C27.4192 48.164 26.9354 50.5366 25.2202 51.6044C23.505 52.6722 21.1625 52.0248 20.0113 50.1628C18.8601 48.3008 19.3439 45.9283 21.0591 44.8605C22.7743 43.7927 25.1201 44.4401 26.268 46.3021Z" fill="#CAC9C9"/>
<path d="M25.5572 46.7396C26.4449 48.1778 26.0845 50.0131 24.7497 50.8373C23.415 51.6615 21.6097 51.171 20.7221 49.7261C19.8345 48.2813 20.1982 46.4526 21.533 45.6284C22.8677 44.8042 24.6696 45.3014 25.5572 46.7396Z" fill="#F39020"/>
<path d="M24.6795 50.8744L24.7496 50.8377C25.018 50.6711 25.2542 50.4574 25.447 50.2071L22.4071 45.2852C22.0983 45.344 21.8023 45.457 21.5328 45.6188L21.4661 45.6622L24.6795 50.8744Z" fill="#F7A63B"/>
<path d="M24.376 51.0268C24.5076 50.9735 24.6348 50.9099 24.7564 50.8366C24.873 50.7594 24.9845 50.6747 25.0901 50.583L21.9134 45.4375C21.6488 45.5417 21.4048 45.6919 21.1926 45.8813L24.376 51.0268Z" fill="#F07F0B"/>
<path d="M24.5528 15.8059C25.7007 17.6679 25.2202 20.0404 23.505 21.1082C21.7899 22.176 19.444 21.532 18.2961 19.67C17.1483 17.808 17.6288 15.4322 19.3406 14.3677C21.0524 13.3032 23.4016 13.9439 24.5528 15.8059Z" fill="#CAC9C9"/>
<path d="M23.842 16.2471C24.7296 17.6819 24.3759 19.5172 23.0411 20.3514C21.7064 21.1857 19.9044 20.6851 19.0168 19.2403C18.1292 17.7954 18.4896 15.9668 19.8244 15.1426C21.1591 14.3183 22.951 14.8055 23.842 16.2471Z" fill="#F39020"/>
<path d="M22.961 20.3823C22.9882 20.3738 23.015 20.3637 23.0411 20.3522C23.3093 20.1867 23.5455 19.9742 23.7385 19.7249L20.7052 14.793C20.3964 14.8519 20.1005 14.9648 19.831 15.1267C19.8085 15.1403 19.7873 15.156 19.7676 15.1734L22.961 20.3823Z" fill="#F7A63B"/>
<path d="M22.6508 20.5357C22.7859 20.4857 22.9165 20.4243 23.0413 20.3522C23.1599 20.2779 23.2716 20.1931 23.3749 20.0986L20.1982 14.9531C20.0663 15.0057 19.9391 15.0694 19.8178 15.1433C19.7006 15.2197 19.5891 15.3045 19.4841 15.3969L22.6508 20.5357Z" fill="#F07F0B"/>
<path d="M31.6037 27.228C32.7549 29.09 32.2711 31.4658 30.5559 32.5303C28.8407 33.5948 26.4982 32.9541 25.347 31.0921C24.1958 29.2301 24.6796 26.8542 26.3948 25.7898C28.11 24.7253 30.4558 25.356 31.6037 27.228Z" fill="#CAC9C9"/>
<path d="M30.8929 27.6698C31.7806 29.108 31.4202 30.9433 30.0854 31.7675C28.7507 32.5918 26.9454 32.1012 26.0578 30.653C25.1702 29.2048 25.5339 27.3795 26.8687 26.5553C28.2034 25.7311 30.0053 26.2316 30.8929 27.6698Z" fill="#F39020"/>
<path d="M30.0152 31.8041L30.0853 31.7674C30.353 31.5998 30.589 31.3863 30.7827 31.1368L27.7428 26.2148C27.4336 26.2724 27.1374 26.3855 26.8685 26.5485L26.8018 26.5952L30.0152 31.8041Z" fill="#F7A63B"/>
<path d="M29.715 31.9567C29.846 31.9021 29.9731 31.8385 30.0954 31.7665C30.2128 31.6892 30.3243 31.6034 30.4291 31.5096L27.249 26.3574C27.1174 26.4107 26.9902 26.4743 26.8686 26.5476C26.7507 26.6242 26.6391 26.7101 26.5349 26.8046L29.715 31.9567Z" fill="#F07F0B"/>
<path d="M38.6578 38.6536C39.8057 40.5156 39.3252 42.8881 37.61 43.9559C35.8948 45.0237 33.549 44.3764 32.4011 42.5144C31.2532 40.6524 31.7337 38.2799 33.4456 37.2121C35.1574 36.1443 37.5066 36.7916 38.6578 38.6536Z" fill="#CAC9C9"/>
<path d="M37.947 39.0912C38.8346 40.5294 38.4708 42.3647 37.1361 43.1889C35.8013 44.0131 33.9994 43.5226 33.1118 42.0777C32.2242 40.6328 32.5846 38.8042 33.9193 37.98C35.2541 37.1558 37.056 37.653 37.947 39.0912Z" fill="#F39020"/>
<path d="M37.056 43.226L37.1261 43.1893C37.3952 43.0235 37.6316 42.8098 37.8235 42.5586L34.7836 37.6367C34.4747 37.6951 34.1786 37.8081 33.9093 37.9704L33.8459 38.0138L37.056 43.226Z" fill="#F7A63B"/>
<path d="M36.7558 43.3764C36.8877 43.3238 37.015 43.2602 37.1362 43.1862C37.2534 43.1098 37.3649 43.025 37.4699 42.9326L34.2932 37.7871C34.1613 37.8397 34.034 37.9033 33.9128 37.9773C33.7949 38.0526 33.6833 38.1375 33.5791 38.2309L36.7558 43.3764Z" fill="#F07F0B"/>
<path d="M56.9425 8.29947L57.1073 5.70193C57.1165 5.55661 57.1544 5.41454 57.2187 5.28391C57.283 5.15328 57.3726 5.03666 57.4821 4.94075C57.5917 4.84485 57.7191 4.77155 57.8571 4.72508C57.9951 4.67861 58.1409 4.65988 58.2862 4.66998L71.2307 5.49118C71.5221 5.50967 71.7943 5.64319 71.9873 5.86236C72.1803 6.08153 72.2784 6.3684 72.2599 6.65987L72.0949 9.26075C72.0764 9.55221 71.9429 9.82439 71.7237 10.0174C71.5046 10.2104 71.2177 10.3085 70.9262 10.29L57.9818 9.46879C57.6903 9.4503 57.4181 9.31678 57.2251 9.09761C57.0321 8.87844 56.934 8.59157 56.9525 8.30011L56.9425 8.29947Z" fill="#279EBA"/>
<path d="M73.8519 77.4994L46.5529 75.7709C46.2647 75.7527 45.9831 75.6777 45.724 75.5503C45.4649 75.4229 45.2336 75.2457 45.0432 75.0286C44.8528 74.8116 44.7072 74.5591 44.6147 74.2856C44.5221 74.0122 44.4845 73.7231 44.504 73.4351L44.524 73.1348L76.2011 75.1369L76.1811 75.4406C76.1641 75.7289 76.0903 76.0111 75.9639 76.2709C75.8375 76.5306 75.661 76.7629 75.4445 76.9542C75.2281 77.1455 74.976 77.2922 74.7026 77.3857C74.4293 77.4793 74.1402 77.5179 73.8519 77.4994Z" fill="#26A9B0"/>
<path d="M79.8149 33.8867C80.1018 27.0595 78.113 25.4077 75.607 23.7693C74.4358 23.0051 71.6028 21.9106 70.9521 20.676C69.8276 18.5571 71.2858 11.0858 71.2858 11.0858L57.5078 10.2148C57.5078 10.2148 58.0817 18.0565 56.6035 20.0353C55.7893 21.1265 52.8728 21.637 51.6148 22.2477C48.9186 23.5557 46.7396 24.9472 46.1657 31.7544C45.6752 37.5439 43.1158 73.0851 44.6507 73.1852L76.0876 75.1874C77.6192 75.2741 79.5679 39.7063 79.8149 33.8867Z" fill="#53BFCC"/>
<path d="M75.6072 23.7691C74.4359 23.005 71.6029 21.9105 70.9522 20.6759C69.8277 18.5569 71.2859 11.0856 71.2859 11.0856L66.2972 10.752C66.0703 14.2056 65.3896 17.349 65.7467 19.9751C66.1671 23.1051 69.4172 22.1574 70.0412 29.1082C70.5718 35.0345 69.7075 63.8118 68.4696 74.6767L76.0977 75.1772C77.6326 75.274 79.5814 39.6894 79.8283 33.8866C80.1019 27.0593 78.0998 25.4076 75.6072 23.7691Z" fill="#25AEC5"/>
<path d="M70.8589 11.3149L57.9051 10.494C57.6159 10.476 57.3454 10.3446 57.1524 10.1285C56.9594 9.91237 56.8593 9.62888 56.874 9.33948L57.0708 6.18945L72.227 7.15048L72.0268 10.3005C72.0054 10.5895 71.8706 10.8583 71.6518 11.0484C71.433 11.2384 71.148 11.3342 70.8589 11.3149Z" fill="#1D779A"/>
<path d="M67.7554 71.3258L53.3334 70.4048C52.387 70.3431 51.5038 69.9081 50.878 69.1954C50.2523 68.4826 49.9352 67.5506 49.9965 66.6041L52.3023 30.2087C52.3657 29.1909 55.1386 25.3368 63.601 26.0076C72.0633 26.6783 73.9453 30.6158 73.8786 31.5735L71.5595 67.9789C71.5302 68.4487 71.4084 68.9081 71.2013 69.3308C70.9941 69.7534 70.7055 70.1311 70.3521 70.442C69.9987 70.7529 69.5875 70.991 69.1419 71.1427C68.6963 71.2944 68.2251 71.3566 67.7554 71.3258Z" fill="#EAF4F3"/>
<path d="M69.821 39.815L64.2117 39.4613L64.5655 33.8487L61.3987 33.6484L61.0417 39.2611L55.4324 38.904L55.2322 42.0741L60.8415 42.4278L60.4878 48.0404L63.6545 48.2406L64.0115 42.628L69.6208 42.9851L69.821 39.815Z" fill="#1D779A"/>
<path d="M56.7436 15.1837L56.8107 14.1247C56.8354 13.7361 57.0134 13.3732 57.3056 13.1158C57.5979 12.8585 57.9804 12.7278 58.369 12.7524L70.1645 13.5007C70.357 13.5129 70.5451 13.5629 70.7182 13.6478C70.8913 13.7327 71.046 13.8509 71.1734 13.9956C71.3008 14.1403 71.3985 14.3087 71.4609 14.4911C71.5232 14.6736 71.5491 14.8665 71.5369 15.059L71.4697 16.118C71.445 16.5075 71.2665 16.8712 70.9736 17.1291C70.6807 17.3871 70.2974 17.5181 69.9079 17.4934L58.119 16.7455C57.7295 16.7208 57.3658 16.5424 57.1078 16.2495C56.8499 15.9566 56.7189 15.5732 56.7436 15.1837Z" fill="#26A9B0"/>
<path d="M67.2415 6.81641L66.9712 11.0676L71.1623 11.3346C71.2667 11.3413 71.3713 11.3274 71.4703 11.2937C71.5692 11.2599 71.6605 11.207 71.739 11.1378C71.8174 11.0687 71.8814 10.9847 71.9274 10.8908C71.9733 10.7969 72.0002 10.6948 72.0066 10.5904L72.2268 7.13341L67.2415 6.81641Z" fill="#165A7B"/>
<path d="M48.3582 44.4432H48.4149C48.4149 44.4432 46.5463 44.0194 45.4918 43.1785C44.4374 42.3376 44.2872 40.6992 44.2872 40.6992L30.2522 43.2653C30.2522 43.2653 30.6927 44.847 30.0053 46.0082C29.3179 47.1694 27.7129 48.2139 27.7129 48.2139H27.7663C26.7042 48.6855 25.8333 49.5031 25.2958 50.5334C24.7582 51.5636 24.5857 52.7457 24.8064 53.8866L30.0721 82.7006C30.1514 83.1789 30.4174 83.6061 30.8116 83.8883C31.2058 84.1705 31.696 84.2846 32.1743 84.2055L56.9607 79.6741C57.4357 79.579 57.8537 79.2993 58.1227 78.8964C58.3917 78.4935 58.4898 78.0003 58.3956 77.5251L53.1366 48.7144C52.9419 47.5664 52.363 46.5186 51.4949 45.7426C50.6267 44.9666 49.5208 44.5085 48.3582 44.4432Z" fill="#53BFCC"/>
<path d="M48.2447 50.8998L52.7094 75.3259C53.19 77.962 52.2289 79.24 52.0421 80.5714L56.984 79.6671C57.459 79.5721 57.877 79.2924 58.146 78.8895C58.415 78.4866 58.5131 77.9934 58.4189 77.5182L53.1366 48.7142C52.9398 47.568 52.36 46.5225 51.4921 45.7485C50.6241 44.9745 49.5193 44.5178 48.3581 44.453H48.4149C48.4149 44.453 46.5462 44.0292 45.4918 43.1883C44.4373 42.3474 44.2871 40.709 44.2871 40.709L40.2595 41.4464C40.6099 42.8846 41.0337 44.4229 42.0748 45.5275C44.4506 48.0468 47.4338 46.4685 48.2447 50.8998Z" fill="#6EC5CF"/>
<path d="M48.3582 44.4432H48.4149C48.4149 44.4432 46.5463 44.0194 45.4918 43.1785C44.4374 42.3376 44.2872 40.6992 44.2872 40.6992L42.0048 41.1163C42.195 42.4077 42.7022 44.0795 44.0303 44.9137C46.3661 46.3819 49.0756 45.8881 49.9766 48.2005C50.8775 50.513 54.8351 74.7855 54.8351 74.7855C54.8351 74.7855 55.1888 77.1547 53.4169 78.0557C51.645 78.9566 47.9611 78.2325 46.4362 78.1691V78.1358C46.4362 78.1358 46.1392 78.1358 45.6653 78.1791C44.5009 78.2592 43.3492 78.4696 42.2317 78.8065C41.7779 78.9366 41.4976 79.0367 41.4976 79.0367V79.0701C40.0961 79.6707 36.8626 81.6462 34.9306 81.4326C32.9985 81.219 32.4479 78.8765 32.4479 78.8765C32.4479 78.8765 27.5627 54.7709 27.5894 52.2916C27.6161 49.8123 30.3156 49.3184 31.9874 47.1161C32.9351 45.8647 32.8183 44.1129 32.5414 42.8482L30.2556 43.2653C30.2556 43.2653 30.6961 44.847 30.0087 46.0082C29.3213 47.1694 27.7129 48.2139 27.7129 48.2139H27.7663C26.7042 48.6855 25.8333 49.5031 25.2958 50.5334C24.7582 51.5636 24.5857 52.7457 24.8064 53.8866L30.0721 82.7006C30.1514 83.1789 30.4174 83.6061 30.8116 83.8883C31.2058 84.1705 31.696 84.2846 32.1743 84.2055L56.9607 79.6741C57.4357 79.579 57.8537 79.2993 58.1227 78.8964C58.3917 78.4935 58.4898 78.0003 58.3956 77.5251L53.1366 48.7144C52.9419 47.5664 52.363 46.5186 51.4949 45.7426C50.6267 44.9666 49.5208 44.5085 48.3582 44.4432Z" fill="#25AEC5"/>
<path d="M37.0227 79.215C37.0686 79.5385 37.0186 79.8683 36.8787 80.1636C36.7389 80.4589 36.5155 80.7066 36.2361 80.8761C35.9568 81.0455 35.6338 81.1292 35.3073 81.1168C34.9808 81.1043 34.6652 80.9963 34.3995 80.8061C34.1339 80.6159 33.9299 80.3519 33.813 80.0468C33.696 79.7418 33.6712 79.4091 33.7416 79.09C33.812 78.771 33.9745 78.4796 34.209 78.2521C34.4435 78.0246 34.7396 77.8709 35.0606 77.8102C35.2817 77.7734 35.5079 77.7806 35.7262 77.8314C35.9445 77.8821 36.1507 77.9754 36.3329 78.1058C36.5151 78.2363 36.6699 78.4014 36.7882 78.5918C36.9066 78.7821 36.9863 78.9939 37.0227 79.215Z" fill="#96D1D2"/>
<path d="M40.76 77.7468C40.8059 78.0703 40.7559 78.4001 40.6161 78.6954C40.4762 78.9907 40.2528 79.2384 39.9734 79.4078C39.6941 79.5773 39.3711 79.661 39.0446 79.6485C38.7182 79.6361 38.4025 79.5281 38.1369 79.3379C37.8712 79.1477 37.6672 78.8837 37.5503 78.5786C37.4333 78.2735 37.4085 77.9408 37.4789 77.6218C37.5493 77.3027 37.7118 77.0114 37.9463 76.7839C38.1808 76.5564 38.4769 76.4027 38.7979 76.342C39.0191 76.3047 39.2454 76.3116 39.4639 76.3621C39.6824 76.4127 39.8887 76.5059 40.071 76.6365C40.2534 76.767 40.4081 76.9323 40.5263 77.1229C40.6446 77.3134 40.724 77.5254 40.76 77.7468Z" fill="#96D1D2"/>
<path d="M44.811 75.9982C44.857 76.3217 44.8069 76.6515 44.6671 76.9468C44.5272 77.2421 44.3038 77.4898 44.0244 77.6593C43.7451 77.8287 43.4221 77.9124 43.0957 77.9C42.7692 77.8876 42.4535 77.7795 42.1879 77.5893C41.9222 77.3991 41.7183 77.1351 41.6013 76.8301C41.4843 76.525 41.4595 76.1923 41.5299 75.8732C41.6003 75.5542 41.7628 75.2628 41.9973 75.0353C42.2318 74.8078 42.5279 74.6541 42.849 74.5934C43.0701 74.5566 43.2962 74.5638 43.5145 74.6146C43.7328 74.6653 43.939 74.7586 44.1212 74.889C44.3035 75.0195 44.4582 75.1846 44.5766 75.375C44.6949 75.5653 44.7746 75.7771 44.811 75.9982Z" fill="#96D1D2"/>
<path d="M41.8013 73.2673C41.8472 73.5907 41.7971 73.9206 41.6573 74.2159C41.5175 74.5112 41.294 74.7589 41.0147 74.9283C40.7353 75.0978 40.4124 75.1815 40.0859 75.169C39.7594 75.1566 39.4438 75.0486 39.1781 74.8584C38.9125 74.6682 38.7085 74.4041 38.5915 74.0991C38.4746 73.794 38.4498 73.4613 38.5202 73.1423C38.5906 72.8232 38.7531 72.5319 38.9876 72.3044C39.222 72.0768 39.5182 71.9232 39.8392 71.8624C40.2856 71.7891 40.7429 71.8958 41.1107 72.1592C41.4785 72.4226 41.7269 72.821 41.8013 73.2673Z" fill="#96D1D2"/>
<path d="M34.6702 72.0739C34.7161 72.3974 34.666 72.7272 34.5262 73.0225C34.3864 73.3178 34.1629 73.5655 33.8836 73.735C33.6042 73.9044 33.2813 73.9881 32.9548 73.9757C32.6283 73.9632 32.3127 73.8552 32.047 73.665C31.7814 73.4748 31.5774 73.2108 31.4604 72.9057C31.3435 72.6007 31.3186 72.268 31.389 71.9489C31.4594 71.6299 31.622 71.3385 31.8565 71.111C32.0909 70.8835 32.3871 70.7298 32.7081 70.6691C33.1545 70.5958 33.6117 70.7025 33.9796 70.9658C34.3474 71.2292 34.5958 71.6277 34.6702 72.0739Z" fill="#96D1D2"/>
<path d="M38.471 71.092C38.5169 71.4155 38.4668 71.7453 38.327 72.0406C38.1872 72.3359 37.9637 72.5836 37.6844 72.753C37.405 72.9225 37.0821 73.0062 36.7556 72.9937C36.4291 72.9813 36.1134 72.8733 35.8478 72.6831C35.5821 72.4929 35.3782 72.2289 35.2612 71.9238C35.1443 71.6187 35.1194 71.286 35.1898 70.967C35.2602 70.6479 35.4228 70.3566 35.6572 70.1291C35.8917 69.9016 36.1878 69.7479 36.5089 69.6871C36.73 69.6504 36.9561 69.6576 37.1744 69.7083C37.3928 69.759 37.5989 69.8523 37.7812 69.9828C37.9634 70.1133 38.1181 70.2784 38.2365 70.4687C38.3548 70.659 38.4345 70.8708 38.471 71.092Z" fill="#96D1D2"/>
<path d="M48.9854 75.9181C49.0313 76.2416 48.9812 76.5715 48.8414 76.8667C48.7016 77.162 48.4781 77.4098 48.1988 77.5792C47.9194 77.7486 47.5965 77.8323 47.27 77.8199C46.9435 77.8075 46.6278 77.6994 46.3622 77.5092C46.0965 77.319 45.8926 77.055 45.7756 76.75C45.6587 76.4449 45.6338 76.1122 45.7042 75.7932C45.7746 75.4741 45.9372 75.1828 46.1716 74.9552C46.4061 74.7277 46.7022 74.5741 47.0233 74.5133C47.2444 74.4766 47.4705 74.4838 47.6888 74.5345C47.9072 74.5852 48.1133 74.6785 48.2956 74.809C48.4778 74.9394 48.6325 75.1046 48.7509 75.2949C48.8692 75.4852 48.9489 75.697 48.9854 75.9181Z" fill="#96D1D2"/>
<path d="M46.6531 72.32C46.699 72.6435 46.649 72.9733 46.5091 73.2686C46.3693 73.5639 46.1458 73.8116 45.8665 73.9811C45.5871 74.1505 45.2642 74.2342 44.9377 74.2218C44.6112 74.2093 44.2956 74.1013 44.0299 73.9111C43.7643 73.7209 43.5603 73.4569 43.4433 73.1518C43.3264 72.8467 43.3016 72.5141 43.372 72.195C43.4424 71.876 43.6049 71.5846 43.8394 71.3571C44.0739 71.1296 44.37 70.9759 44.691 70.9152C45.1374 70.8419 45.5947 70.9486 45.9625 71.2119C46.3303 71.4753 46.5787 71.8738 46.6531 72.32Z" fill="#96D1D2"/>
<path d="M53.1934 76.0134C53.2393 76.3368 53.1892 76.6667 53.0494 76.962C52.9096 77.2572 52.6861 77.505 52.4068 77.6744C52.1274 77.8439 51.8045 77.9275 51.478 77.9151C51.1515 77.9027 50.8358 77.7947 50.5702 77.6045C50.3045 77.4143 50.1006 77.1502 49.9836 76.8452C49.8667 76.5401 49.8418 76.2074 49.9122 75.8884C49.9826 75.5693 50.1452 75.278 50.3796 75.0505C50.6141 74.8229 50.9103 74.6693 51.2313 74.6085C51.6777 74.5352 52.1349 74.6419 52.5028 74.9053C52.8706 75.1687 53.1189 75.5671 53.1934 76.0134Z" fill="#96D1D2"/>
<path d="M51.4514 72.3708C51.4974 72.6943 51.4473 73.0241 51.3075 73.3194C51.1676 73.6147 50.9442 73.8624 50.6648 74.0318C50.3855 74.2013 50.0625 74.285 49.736 74.2725C49.4096 74.2601 49.0939 74.1521 48.8283 73.9619C48.5626 73.7717 48.3586 73.5077 48.2417 73.2026C48.1247 72.8975 48.0999 72.5648 48.1703 72.2458C48.2407 71.9268 48.4032 71.6354 48.6377 71.4079C48.8722 71.1804 49.1683 71.0267 49.4893 70.966C49.9357 70.8926 50.393 70.9994 50.7608 71.2627C51.1286 71.5261 51.377 71.9246 51.4514 72.3708Z" fill="#96D1D2"/>
<path d="M53.657 69.07C53.7029 69.3935 53.6529 69.7233 53.513 70.0186C53.3732 70.3139 53.1497 70.5616 52.8704 70.7311C52.591 70.9005 52.2681 70.9842 51.9416 70.9718C51.6151 70.9593 51.2995 70.8513 51.0338 70.6611C50.7682 70.4709 50.5642 70.2069 50.4472 69.9018C50.3303 69.5967 50.3055 69.2641 50.3759 68.945C50.4463 68.626 50.6088 68.3346 50.8433 68.1071C51.0778 67.8796 51.3739 67.7259 51.6949 67.6652C52.1413 67.5919 52.5986 67.6986 52.9664 67.9619C53.3342 68.2253 53.5826 68.6238 53.657 69.07Z" fill="#96D1D2"/>
<path d="M49.2691 68.6271C49.315 68.9506 49.2649 69.2805 49.1251 69.5757C48.9852 69.871 48.7618 70.1187 48.4824 70.2882C48.2031 70.4576 47.8802 70.5413 47.5537 70.5289C47.2272 70.5165 46.9115 70.4084 46.6459 70.2182C46.3802 70.028 46.1763 69.764 46.0593 69.459C45.9423 69.1539 45.9175 68.8212 45.9879 68.5021C46.0583 68.1831 46.2209 67.8917 46.4553 67.6642C46.6898 67.4367 46.9859 67.283 47.307 67.2223C47.5281 67.1855 47.7542 67.1927 47.9725 67.2435C48.1909 67.2942 48.397 67.3875 48.5792 67.5179C48.7615 67.6484 48.9162 67.8136 49.0346 68.0039C49.1529 68.1942 49.2326 68.406 49.2691 68.6271Z" fill="#96D1D2"/>
<path d="M43.3963 69.5739C43.4422 69.8974 43.3921 70.2272 43.2523 70.5225C43.1124 70.8178 42.889 71.0655 42.6096 71.235C42.3303 71.4044 42.0073 71.4881 41.6809 71.4757C41.3544 71.4632 41.0387 71.3552 40.7731 71.165C40.5074 70.9748 40.3035 70.7108 40.1865 70.4057C40.0695 70.1007 40.0447 69.768 40.1151 69.4489C40.1855 69.1299 40.348 68.8385 40.5825 68.611C40.817 68.3835 41.1131 68.2298 41.4342 68.1691C41.8806 68.0958 42.3378 68.2025 42.7056 68.4659C43.0735 68.7292 43.3218 69.1277 43.3963 69.5739Z" fill="#96D1D2"/>
<path d="M45.6653 66.2497C45.7112 66.5732 45.6612 66.903 45.5213 67.1983C45.3815 67.4936 45.158 67.7413 44.8787 67.9107C44.5993 68.0802 44.2764 68.1639 43.9499 68.1514C43.6234 68.139 43.3078 68.031 43.0421 67.8408C42.7765 67.6506 42.5725 67.3866 42.4556 67.0815C42.3386 66.7764 42.3138 66.4437 42.3842 66.1247C42.4546 65.8057 42.6171 65.5143 42.8516 65.2868C43.0861 65.0593 43.3822 64.9056 43.7032 64.8449C44.1496 64.7715 44.6069 64.8783 44.9747 65.1416C45.3425 65.405 45.5909 65.8035 45.6653 66.2497Z" fill="#96D1D2"/>
<path d="M39.9224 66.9279C39.9683 67.2514 39.9182 67.5812 39.7784 67.8765C39.6386 68.1718 39.4151 68.4195 39.1358 68.589C38.8564 68.7584 38.5335 68.8421 38.207 68.8297C37.8805 68.8172 37.5649 68.7092 37.2992 68.519C37.0336 68.3288 36.8296 68.0648 36.7126 67.7597C36.5957 67.4547 36.5708 67.122 36.6412 66.8029C36.7116 66.4839 36.8742 66.1925 37.1087 65.965C37.3431 65.7375 37.6393 65.5838 37.9603 65.5231C38.1814 65.4863 38.4075 65.4935 38.6259 65.5443C38.8442 65.595 39.0503 65.6883 39.2326 65.8187C39.4148 65.9492 39.5695 66.1143 39.6879 66.3047C39.8063 66.495 39.8859 66.7068 39.9224 66.9279Z" fill="#96D1D2"/>
<path d="M42.4419 63.6838C42.4878 64.0073 42.4378 64.3371 42.2979 64.6324C42.1581 64.9277 41.9346 65.1754 41.6553 65.3448C41.376 65.5143 41.053 65.598 40.7265 65.5855C40.4 65.5731 40.0844 65.4651 39.8187 65.2749C39.5531 65.0847 39.3491 64.8207 39.2322 64.5156C39.1152 64.2105 39.0904 63.8778 39.1608 63.5588C39.2312 63.2397 39.3937 62.9484 39.6282 62.7209C39.8627 62.4934 40.1588 62.3397 40.4798 62.2789C40.7009 62.2422 40.9271 62.2494 41.1454 62.3001C41.3637 62.3508 41.5699 62.4441 41.7521 62.5746C41.9343 62.7051 42.0891 62.8702 42.2074 63.0605C42.3258 63.2508 42.4055 63.4626 42.4419 63.6838Z" fill="#96D1D2"/>
<path d="M52.9263 65.0661C52.9722 65.3896 52.9221 65.7194 52.7823 66.0147C52.6425 66.31 52.419 66.5577 52.1397 66.7272C51.8603 66.8966 51.5374 66.9803 51.2109 66.9679C50.8844 66.9554 50.5688 66.8474 50.3031 66.6572C50.0375 66.467 49.8335 66.203 49.7165 65.8979C49.5996 65.5928 49.5748 65.2602 49.6452 64.9411C49.7156 64.6221 49.8781 64.3307 50.1126 64.1032C50.347 63.8757 50.6432 63.722 50.9642 63.6613C51.4106 63.5879 51.8679 63.6947 52.2357 63.958C52.6035 64.2214 52.8519 64.6199 52.9263 65.0661Z" fill="#96D1D2"/>
<path d="M49.2124 64.2121C49.2583 64.5356 49.2083 64.8654 49.0684 65.1607C48.9286 65.456 48.7052 65.7037 48.4258 65.8731C48.1465 66.0426 47.8235 66.1263 47.497 66.1138C47.1705 66.1014 46.8549 65.9934 46.5892 65.8032C46.3236 65.613 46.1196 65.349 46.0027 65.0439C45.8857 64.7388 45.8609 64.4061 45.9313 64.0871C46.0017 63.7681 46.1642 63.4767 46.3987 63.2492C46.6332 63.0217 46.9293 62.868 47.2503 62.8073C47.6966 62.7349 48.1534 62.8419 48.521 63.1051C48.8886 63.3683 49.1372 63.7663 49.2124 64.2121Z" fill="#96D1D2"/>
<path d="M46.1524 61.5529C46.1983 61.8764 46.1482 62.2062 46.0084 62.5015C45.8686 62.7968 45.6451 63.0445 45.3657 63.214C45.0864 63.3834 44.7634 63.4671 44.437 63.4547C44.1105 63.4422 43.7948 63.3342 43.5292 63.144C43.2635 62.9538 43.0596 62.6898 42.9426 62.3847C42.8256 62.0797 42.8008 61.747 42.8712 61.4279C42.9416 61.1089 43.1042 60.8175 43.3386 60.59C43.5731 60.3625 43.8692 60.2088 44.1903 60.1481C44.4114 60.1113 44.6375 60.1185 44.8558 60.1693C45.0742 60.22 45.2803 60.3133 45.4626 60.4437C45.6448 60.5742 45.7995 60.7393 45.9179 60.9297C46.0362 61.12 46.1159 61.3318 46.1524 61.5529Z" fill="#96D1D2"/>
<path d="M51.9153 60.9953C51.9612 61.3188 51.9112 61.6486 51.7713 61.9439C51.6315 62.2392 51.408 62.4869 51.1287 62.6563C50.8493 62.8258 50.5264 62.9095 50.1999 62.897C49.8734 62.8846 49.5578 62.7766 49.2921 62.5864C49.0265 62.3962 48.8225 62.1322 48.7056 61.8271C48.5886 61.522 48.5638 61.1893 48.6342 60.8703C48.7046 60.5513 48.8671 60.2599 49.1016 60.0324C49.3361 59.8049 49.6322 59.6512 49.9532 59.5905C50.3995 59.5181 50.8563 59.6251 51.2239 59.8883C51.5915 60.1515 51.84 60.5495 51.9153 60.9953Z" fill="#96D1D2"/>
<path d="M48.9253 58.3923C48.9712 58.7157 48.9212 59.0456 48.7813 59.3409C48.6415 59.6362 48.418 59.8839 48.1387 60.0533C47.8593 60.2228 47.5364 60.3065 47.2099 60.294C46.8834 60.2816 46.5678 60.1736 46.3021 59.9834C46.0365 59.7932 45.8325 59.5292 45.7156 59.2241C45.5986 58.919 45.5738 58.5863 45.6442 58.2673C45.7146 57.9482 45.8771 57.6569 46.1116 57.4294C46.3461 57.2018 46.6422 57.0482 46.9632 56.9874C47.4096 56.9141 47.8669 57.0208 48.2347 57.2842C48.6025 57.5476 48.8509 57.946 48.9253 58.3923Z" fill="#96D1D2"/>
<path d="M51.1946 54.7541C51.2405 55.0776 51.1905 55.4074 51.0506 55.7027C50.9108 55.998 50.6873 56.2457 50.408 56.4151C50.1286 56.5846 49.8057 56.6683 49.4792 56.6558C49.1527 56.6434 48.8371 56.5354 48.5714 56.3452C48.3058 56.155 48.1018 55.891 47.9848 55.5859C47.8679 55.2808 47.8431 54.9481 47.9135 54.6291C47.9839 54.3101 48.1464 54.0187 48.3809 53.7912C48.6154 53.5637 48.9115 53.41 49.2325 53.3493C49.4536 53.3125 49.6798 53.3197 49.8981 53.3704C50.1164 53.4212 50.3226 53.5144 50.5048 53.6449C50.687 53.7754 50.8417 53.9405 50.9601 54.1308C51.0785 54.3212 51.1581 54.5329 51.1946 54.7541Z" fill="#96D1D2"/>
<path d="M42.6021 59.4802C42.648 59.8036 42.5979 60.1335 42.4581 60.4288C42.3183 60.724 42.0948 60.9718 41.8155 61.1412C41.5361 61.3107 41.2132 61.3944 40.8867 61.3819C40.5602 61.3695 40.2445 61.2615 39.9789 61.0713C39.7132 60.8811 39.5093 60.617 39.3923 60.312C39.2754 60.0069 39.2505 59.6742 39.3209 59.3552C39.3913 59.0361 39.5539 58.7448 39.7883 58.5173C40.0228 58.2897 40.319 58.1361 40.64 58.0753C41.0864 58.002 41.5436 58.1087 41.9115 58.3721C42.2793 58.6354 42.5276 59.0339 42.6021 59.4802Z" fill="#96D1D2"/>
<path d="M38.3476 58.4616C38.3936 58.7852 38.3436 59.1152 38.2038 59.4107C38.0639 59.7061 37.8403 59.954 37.5607 60.1234C37.2812 60.2929 36.9581 60.3765 36.6314 60.3639C36.3048 60.3513 35.989 60.243 35.7234 60.0525C35.4578 59.862 35.254 59.5976 35.1373 59.2923C35.0206 58.9869 34.9962 58.654 35.067 58.3349C35.1379 58.0158 35.301 57.7245 35.536 57.4973C35.771 57.2701 36.0675 57.1169 36.3888 57.0567C36.8346 56.9853 37.2905 57.0928 37.6574 57.3559C38.0242 57.6191 38.2723 58.0164 38.3476 58.4616Z" fill="#96D1D2"/>
<path d="M45.2114 56.3903C45.2574 56.7138 45.2073 57.0436 45.0675 57.3389C44.9276 57.6342 44.7042 57.8819 44.4248 58.0514C44.1455 58.2208 43.8225 58.3045 43.496 58.2921C43.1696 58.2796 42.8539 58.1716 42.5883 57.9814C42.3226 57.7912 42.1187 57.5272 42.0017 57.2221C41.8847 56.9171 41.8599 56.5844 41.9303 56.2653C42.0007 55.9463 42.1632 55.6549 42.3977 55.4274C42.6322 55.1999 42.9283 55.0462 43.2493 54.9855C43.6957 54.9122 44.153 55.0189 44.5208 55.2823C44.8887 55.5456 45.137 55.9441 45.2114 56.3903Z" fill="#96D1D2"/>
<path d="M47.1567 52.6452C47.2027 52.9687 47.1526 53.2985 47.0128 53.5938C46.8729 53.8891 46.6495 54.1368 46.3701 54.3063C46.0908 54.4757 45.7678 54.5594 45.4414 54.547C45.1149 54.5345 44.7992 54.4265 44.5336 54.2363C44.2679 54.0461 44.064 53.7821 43.947 53.477C43.83 53.172 43.8052 52.8393 43.8756 52.5202C43.946 52.2012 44.1085 51.9098 44.343 51.6823C44.5775 51.4548 44.8736 51.3011 45.1947 51.2404C45.4158 51.2032 45.6421 51.21 45.8606 51.2606C46.0791 51.3111 46.2854 51.4044 46.4678 51.5349C46.6501 51.6655 46.8048 51.8307 46.9231 52.0213C47.0413 52.2118 47.1207 52.4239 47.1567 52.6452Z" fill="#96D1D2"/>
<path d="M41.3941 55.0549C41.4399 55.3782 41.3898 55.7079 41.25 56.003C41.1102 56.2981 40.8869 56.5458 40.6078 56.7152C40.3286 56.8846 40.0058 56.9683 39.6795 56.9561C39.3532 56.9438 39.0376 56.8361 38.772 56.6462C38.5063 56.4563 38.3022 56.1926 38.185 55.8878C38.0677 55.583 38.0425 55.2506 38.1124 54.9316C38.1823 54.6126 38.3443 54.3211 38.5783 54.0934C38.8123 53.8656 39.108 53.7114 39.4287 53.6501C39.8756 53.5758 40.3338 53.6821 40.7023 53.9455C41.0709 54.209 41.3197 54.608 41.3941 55.0549Z" fill="#96D1D2"/>
<path d="M35.6513 55.1812C35.6966 55.5046 35.646 55.8342 35.5057 56.1292C35.3654 56.4241 35.1416 56.6714 34.8621 56.8403C34.5826 57.0093 34.2596 57.0925 33.9333 57.0796C33.6069 57.0667 33.2915 56.9583 33.0262 56.7679C32.7609 56.5775 32.5572 56.3134 32.4406 56.0083C32.324 55.7032 32.2994 55.3707 32.37 55.0518C32.4406 54.7329 32.6032 54.4418 32.8378 54.2144C33.0723 53.9871 33.3683 53.8336 33.6893 53.773C33.9106 53.7363 34.137 53.7436 34.3555 53.7945C34.574 53.8455 34.7803 53.939 34.9626 54.0698C35.1448 54.2007 35.2995 54.3662 35.4177 54.5569C35.5359 54.7476 35.6153 54.9597 35.6513 55.1812Z" fill="#96D1D2"/>
<path d="M38.3909 52.2028C38.4368 52.5263 38.3867 52.8561 38.2469 53.1514C38.1071 53.4467 37.8836 53.6944 37.6043 53.8639C37.3249 54.0333 37.002 54.117 36.6755 54.1046C36.349 54.0921 36.0334 53.9841 35.7677 53.7939C35.5021 53.6037 35.2981 53.3397 35.1811 53.0346C35.0642 52.7296 35.0394 52.3969 35.1098 52.0778C35.1802 51.7588 35.3427 51.4674 35.5772 51.2399C35.8116 51.0124 36.1078 50.8587 36.4288 50.798C36.8752 50.7247 37.3324 50.8314 37.7003 51.0947C38.0681 51.3581 38.3165 51.7566 38.3909 52.2028Z" fill="#96D1D2"/>
<path d="M35.4109 49.5934C35.4568 49.9169 35.4068 50.2468 35.2669 50.542C35.1271 50.8373 34.9036 51.0851 34.6243 51.2545C34.3449 51.4239 34.022 51.5076 33.6955 51.4952C33.369 51.4828 33.0534 51.3747 32.7877 51.1845C32.5221 50.9943 32.3181 50.7303 32.2012 50.4253C32.0842 50.1202 32.0594 49.7875 32.1298 49.4684C32.2002 49.1494 32.3627 48.8581 32.5972 48.6305C32.8317 48.403 33.1278 48.2494 33.4488 48.1886C33.8952 48.1153 34.3525 48.222 34.7203 48.4854C35.0881 48.7487 35.3365 49.1472 35.4109 49.5934Z" fill="#96D1D2"/>
<path d="M40.0593 48.4386C40.1053 48.7621 40.0552 49.092 39.9154 49.3872C39.7755 49.6825 39.5521 49.9303 39.2727 50.0997C38.9934 50.2691 38.6704 50.3528 38.3439 50.3404C38.0175 50.328 37.7018 50.2199 37.4362 50.0297C37.1705 49.8395 36.9666 49.5755 36.8496 49.2705C36.7326 48.9654 36.7078 48.6327 36.7782 48.3137C36.8486 47.9946 37.0111 47.7033 37.2456 47.4757C37.4801 47.2482 37.7762 47.0946 38.0972 47.0338C38.5435 46.9614 39.0003 47.0685 39.3679 47.3317C39.7355 47.5949 39.9841 47.9928 40.0593 48.4386Z" fill="#96D1D2"/>
<path d="M42.8823 51.1974C42.9283 51.5209 42.8782 51.8508 42.7384 52.146C42.5985 52.4413 42.3751 52.6891 42.0957 52.8585C41.8164 53.0279 41.4934 53.1116 41.1669 53.0992C40.8405 53.0868 40.5248 52.9787 40.2592 52.7885C39.9935 52.5983 39.7896 52.3343 39.6726 52.0293C39.5556 51.7242 39.5308 51.3915 39.6012 51.0725C39.6716 50.7534 39.8341 50.4621 40.0686 50.2345C40.3031 50.007 40.5992 49.8534 40.9202 49.7926C41.1413 49.7559 41.3675 49.7631 41.5858 49.8138C41.8041 49.8645 42.0103 49.9578 42.1925 50.0883C42.3748 50.2187 42.5295 50.3839 42.6479 50.5742C42.7662 50.7645 42.8459 50.9763 42.8823 51.1974Z" fill="#96D1D2"/>
<path d="M31.9573 56.9079C32.0032 57.2314 31.9532 57.5612 31.8133 57.8565C31.6735 58.1518 31.45 58.3995 31.1707 58.5689C30.8913 58.7384 30.5684 58.8221 30.2419 58.8096C29.9154 58.7972 29.5998 58.6892 29.3341 58.499C29.0685 58.3088 28.8645 58.0448 28.7475 57.7397C28.6306 57.4346 28.6058 57.1019 28.6762 56.7829C28.7466 56.4639 28.9091 56.1725 29.1436 55.945C29.378 55.7175 29.6742 55.5638 29.9952 55.5031C30.4416 55.4297 30.8989 55.5365 31.2667 55.7998C31.6345 56.0632 31.8829 56.4617 31.9573 56.9079Z" fill="#96D1D2"/>
<path d="M32.1743 51.8552C32.2203 52.1786 32.1702 52.5085 32.0304 52.8038C31.8905 53.099 31.6671 53.3468 31.3877 53.5162C31.1084 53.6857 30.7854 53.7694 30.4589 53.7569C30.1325 53.7445 29.8168 53.6365 29.5512 53.4463C29.2855 53.2561 29.0815 52.992 28.9646 52.687C28.8476 52.3819 28.8228 52.0492 28.8932 51.7302C28.9636 51.4111 29.1261 51.1198 29.3606 50.8923C29.5951 50.6647 29.8912 50.5111 30.2122 50.4503C30.6586 50.377 31.1159 50.4837 31.4837 50.7471C31.8515 51.0105 32.0999 51.4089 32.1743 51.8552Z" fill="#96D1D2"/>
<path d="M50.2368 49.8569C50.2821 50.1804 50.2314 50.51 50.0911 50.8049C49.9508 51.0999 49.727 51.3471 49.4475 51.5161C49.168 51.685 48.8451 51.7682 48.5187 51.7554C48.1924 51.7425 47.877 51.6341 47.6116 51.4437C47.3463 51.2533 47.1427 50.9892 47.0261 50.6841C46.9094 50.379 46.8849 50.0464 46.9555 49.7276C47.0261 49.4087 47.1887 49.1175 47.4232 48.8902C47.6577 48.6629 47.9538 48.5094 48.2747 48.4488C48.496 48.4121 48.7224 48.4194 48.9409 48.4703C49.1594 48.5212 49.3657 48.6148 49.548 48.7456C49.7303 48.8764 49.885 49.0419 50.0032 49.2326C50.1214 49.4233 50.2007 49.6355 50.2368 49.8569Z" fill="#96D1D2"/>
<path d="M46.2693 48.1052C46.3152 48.4286 46.2652 48.7585 46.1253 49.0538C45.9855 49.349 45.762 49.5968 45.4827 49.7662C45.2033 49.9357 44.8804 50.0193 44.5539 50.0069C44.2274 49.9945 43.9118 49.8865 43.6461 49.6963C43.3805 49.5061 43.1765 49.242 43.0596 48.937C42.9426 48.6319 42.9178 48.2992 42.9882 47.9802C43.0586 47.6611 43.2211 47.3698 43.4556 47.1423C43.6901 46.9147 43.9862 46.7611 44.3072 46.7003C44.7536 46.627 45.2109 46.7337 45.5787 46.9971C45.9465 47.2604 46.1949 47.6589 46.2693 48.1052Z" fill="#96D1D2"/>
<path d="M34.7803 60.2282C34.8262 60.5517 34.7761 60.8815 34.6363 61.1768C34.4965 61.4721 34.273 61.7198 33.9937 61.8893C33.7143 62.0587 33.3914 62.1424 33.0649 62.13C32.7384 62.1175 32.4228 62.0095 32.1571 61.8193C31.8915 61.6291 31.6875 61.3651 31.5705 61.06C31.4536 60.755 31.4288 60.4223 31.4992 60.1032C31.5696 59.7842 31.7321 59.4928 31.9666 59.2653C32.2011 59.0378 32.4972 58.8841 32.8182 58.8234C33.2646 58.7501 33.7219 58.8568 34.0897 59.1201C34.4575 59.3835 34.7059 59.782 34.7803 60.2282Z" fill="#96D1D2"/>
<path d="M35.8347 67.3146C35.8807 67.6381 35.8306 67.9679 35.6908 68.2632C35.5509 68.5585 35.3275 68.8063 35.0481 68.9757C34.7688 69.1451 34.4458 69.2288 34.1193 69.2164C33.7929 69.2039 33.4772 69.0959 33.2116 68.9057C32.9459 68.7155 32.7419 68.4515 32.625 68.1464C32.508 67.8414 32.4832 67.5087 32.5536 67.1897C32.624 66.8706 32.7865 66.5792 33.021 66.3517C33.2555 66.1242 33.5516 65.9706 33.8726 65.9098C34.0937 65.873 34.3199 65.8802 34.5382 65.931C34.7565 65.9817 34.9627 66.075 35.1449 66.2054C35.3272 66.3359 35.4819 66.501 35.6002 66.6914C35.7186 66.8817 35.7983 67.0935 35.8347 67.3146Z" fill="#96D1D2"/>
<path d="M33.1453 64.0651C33.1912 64.3886 33.1411 64.7185 33.0013 65.0137C32.8615 65.309 32.638 65.5568 32.3587 65.7262C32.0793 65.8956 31.7564 65.9793 31.4299 65.9669C31.1034 65.9545 30.7878 65.8464 30.5221 65.6562C30.2565 65.466 30.0525 65.202 29.9355 64.897C29.8186 64.5919 29.7937 64.2592 29.8641 63.9402C29.9345 63.6211 30.0971 63.3298 30.3316 63.1022C30.566 62.8747 30.8622 62.7211 31.1832 62.6603C31.4043 62.6231 31.6306 62.63 31.8491 62.6805C32.0676 62.7311 32.2739 62.8243 32.4563 62.9548C32.6386 63.0854 32.7933 63.2507 32.9116 63.4412C33.0298 63.6318 33.1092 63.8438 33.1453 64.0651Z" fill="#96D1D2"/>
<path d="M38.1973 62.883C38.2432 63.2065 38.1931 63.5363 38.0533 63.8316C37.9135 64.1269 37.69 64.3746 37.4107 64.5441C37.1313 64.7135 36.8084 64.7972 36.4819 64.7847C36.1554 64.7723 35.8398 64.6643 35.5741 64.4741C35.3085 64.2839 35.1045 64.0199 34.9875 63.7148C34.8706 63.4097 34.8457 63.077 34.9161 62.758C34.9865 62.439 35.1491 62.1476 35.3836 61.9201C35.618 61.6926 35.9142 61.5389 36.2352 61.4782C36.4563 61.4414 36.6824 61.4486 36.9008 61.4993C37.1191 61.5501 37.3252 61.6433 37.5075 61.7738C37.6897 61.9043 37.8444 62.0694 37.9628 62.2597C38.0812 62.4501 38.1608 62.6618 38.1973 62.883Z" fill="#96D1D2"/>
<path d="M37.6333 75.0192C37.6792 75.3427 37.6292 75.6725 37.4893 75.9678C37.3495 76.2631 37.1261 76.5108 36.8467 76.6803C36.5674 76.8497 36.2444 76.9334 35.9179 76.921C35.5914 76.9085 35.2758 76.8005 35.0101 76.6103C34.7445 76.4201 34.5405 76.1561 34.4236 75.851C34.3066 75.546 34.2818 75.2133 34.3522 74.8942C34.4226 74.5752 34.5851 74.2838 34.8196 74.0563C35.0541 73.8288 35.3502 73.6751 35.6712 73.6144C36.1176 73.5411 36.5749 73.6478 36.9427 73.9112C37.3105 74.1745 37.5589 74.573 37.6333 75.0192Z" fill="#96D1D2"/>
<path d="M44.1136 40.7623L30.0986 43.3217C29.9895 43.3403 29.8777 43.3371 29.7698 43.3122C29.6618 43.2873 29.5599 43.2412 29.4699 43.1766C29.3799 43.1121 29.3037 43.0303 29.2455 42.9361C29.1873 42.8419 29.1483 42.737 29.1309 42.6277L28.6271 39.8847C28.6043 39.7751 28.6035 39.6621 28.6248 39.5521C28.6461 39.4422 28.6891 39.3376 28.7512 39.2445C28.8133 39.1513 28.8933 39.0714 28.9866 39.0095C29.0798 38.9475 29.1845 38.9048 29.2945 38.8837L43.3094 36.3209C43.5295 36.2861 43.7545 36.3395 43.9357 36.4694C44.1168 36.5993 44.2394 36.7953 44.2771 37.015L44.7776 39.7613C44.8014 39.8707 44.803 39.9838 44.7823 40.0939C44.7616 40.204 44.719 40.3088 44.6571 40.4021C44.5952 40.4955 44.5152 40.5754 44.4218 40.6373C44.3285 40.6992 44.2237 40.7417 44.1136 40.7623Z" fill="#F39020"/>
<path d="M44.0635 39.5356L29.9551 42.1151C29.6821 42.1604 29.4028 42.1515 29.1332 42.0888C28.8636 42.0261 28.6091 41.9109 28.3841 41.7497C28.1591 41.5885 27.968 41.3846 27.8219 41.1496C27.6758 40.9145 27.5775 40.653 27.5325 40.3799L26.7483 36.092C26.6941 35.8195 26.6942 35.5391 26.7488 35.2667C26.8034 34.9943 26.9114 34.7355 27.0665 34.505C27.2216 34.2746 27.4207 34.0771 27.6525 33.9239C27.8842 33.7708 28.144 33.665 28.4168 33.6127L42.5085 31.0299C43.0598 30.9393 43.6245 31.0711 44.0787 31.3964C44.5329 31.7217 44.8394 32.214 44.931 32.7651L45.7319 37.0597C45.7861 37.3319 45.7859 37.6122 45.7313 37.8843C45.6767 38.1565 45.5687 38.4151 45.4136 38.6453C45.2584 38.8755 45.0593 39.0727 44.8276 39.2255C44.5958 39.3783 44.3361 39.4837 44.0635 39.5356Z" fill="#FBBF53"/>
<path d="M42.395 31.0536L38.978 31.6776C39.8223 32.0113 40.0525 32.7287 40.2127 33.5996L41.3939 40.0398L43.9567 39.5693C44.5336 39.4541 45.0412 39.1145 45.3678 38.6252C45.6945 38.1359 45.8134 37.5369 45.6985 36.9599L44.9544 32.8955C44.9082 32.6061 44.8052 32.3287 44.6514 32.0792C44.4975 31.8298 44.2959 31.6132 44.058 31.442C43.8201 31.2708 43.5507 31.1483 43.2653 31.0817C42.9799 31.015 42.6841 31.0055 42.395 31.0536Z" fill="#F7A63B"/>
<path d="M29.0142 41.2765C28.9701 41.2846 28.9248 41.2837 28.881 41.2739C28.8372 41.2641 28.7959 41.2455 28.7594 41.2194C28.723 41.1932 28.6922 41.16 28.6689 41.1216C28.6456 41.0833 28.6303 41.0406 28.6238 40.9962L27.5727 35.2468C27.5572 35.1583 27.5775 35.0672 27.6291 34.9937C27.6808 34.9202 27.7595 34.8702 27.848 34.8547C27.9365 34.8392 28.0275 34.8595 28.101 34.9111C28.1746 34.9628 28.2246 35.0415 28.2401 35.13L29.2912 40.8761C29.3008 40.9207 29.3012 40.9668 29.2923 41.0116C29.2834 41.0563 29.2654 41.0988 29.2395 41.1363C29.2135 41.1738 29.1801 41.2056 29.1414 41.2298C29.1026 41.2539 29.0594 41.2698 29.0142 41.2765Z" fill="#F39020"/>
<path d="M30.5558 40.9929C30.5117 41.001 30.4664 41.0001 30.4226 40.9902C30.3788 40.9804 30.3375 40.9619 30.301 40.9357C30.2646 40.9095 30.2338 40.8763 30.2105 40.838C30.1872 40.7996 30.1719 40.757 30.1654 40.7126L29.1143 34.9664C29.1046 34.9226 29.1039 34.8772 29.1122 34.833C29.1204 34.7888 29.1376 34.7468 29.1625 34.7094C29.1874 34.672 29.2196 34.64 29.2572 34.6154C29.2948 34.5907 29.337 34.574 29.3813 34.566C29.4254 34.5579 29.4707 34.5588 29.5145 34.5686C29.5583 34.5785 29.5996 34.597 29.636 34.6232C29.6725 34.6493 29.7033 34.6826 29.7266 34.7209C29.7499 34.7593 29.7652 34.8019 29.7717 34.8463L30.8228 40.5958C30.832 40.6394 30.8323 40.6845 30.8238 40.7283C30.8153 40.7721 30.7981 40.8137 30.7732 40.8507C30.7483 40.8877 30.7162 40.9194 30.6789 40.9438C30.6416 40.9682 30.5997 40.9849 30.5558 40.9929Z" fill="#F39020"/>
<path d="M32.1007 40.7063C32.0566 40.7144 32.0113 40.7135 31.9675 40.7037C31.9237 40.6939 31.8824 40.6753 31.8459 40.6491C31.8095 40.623 31.7787 40.5897 31.7554 40.5514C31.7321 40.513 31.7167 40.4704 31.7103 40.426L30.6592 34.6999C30.6432 34.6114 30.6631 34.5202 30.7144 34.4464C30.7658 34.3725 30.8443 34.3221 30.9328 34.3061C31.0213 34.2902 31.1125 34.3101 31.1863 34.3614C31.2602 34.4127 31.3106 34.4913 31.3266 34.5798L32.3843 40.3125C32.3929 40.3572 32.3923 40.4031 32.3825 40.4474C32.3727 40.4918 32.354 40.5337 32.3274 40.5706C32.3009 40.6074 32.267 40.6385 32.2281 40.6618C32.1891 40.6852 32.1457 40.7003 32.1007 40.7063Z" fill="#F39020"/>
<path d="M33.6459 40.4294C33.6017 40.4375 33.5564 40.4366 33.5127 40.4268C33.4689 40.417 33.4275 40.3985 33.3911 40.3723C33.3546 40.3461 33.3238 40.3129 33.3005 40.2745C33.2772 40.2362 33.2619 40.1935 33.2555 40.1491L32.2043 34.403C32.1884 34.3145 32.2083 34.2233 32.2596 34.1495C32.3109 34.0756 32.3895 34.0252 32.478 34.0093C32.5665 33.9933 32.6577 34.0132 32.7315 34.0645C32.8053 34.1158 32.8558 34.1944 32.8717 34.2829L33.9128 40.039C33.921 40.0822 33.9206 40.1266 33.9116 40.1696C33.9027 40.2126 33.8853 40.2534 33.8605 40.2897C33.8357 40.326 33.8039 40.357 33.7671 40.381C33.7303 40.405 33.6891 40.4214 33.6459 40.4294Z" fill="#F39020"/>
<path d="M35.1908 40.1462C35.1469 40.1544 35.1018 40.1536 35.0583 40.144C35.0147 40.1344 34.9735 40.1161 34.9371 40.0903C34.9007 40.0644 34.8698 40.0316 34.8463 39.9936C34.8228 39.9557 34.8072 39.9134 34.8004 39.8693L33.7493 34.1198C33.7333 34.0313 33.7532 33.9401 33.8045 33.8663C33.8558 33.7924 33.9344 33.742 34.0229 33.7261C34.1114 33.7101 34.2026 33.73 34.2764 33.7813C34.3503 33.8326 34.4007 33.9112 34.4166 33.9997L35.4644 39.7491C35.4736 39.7933 35.4737 39.8388 35.4647 39.883C35.4558 39.9271 35.438 39.969 35.4124 40.0061C35.3869 40.0432 35.354 40.0748 35.316 40.0989C35.2779 40.1229 35.2353 40.1391 35.1908 40.1462Z" fill="#F39020"/>
<path d="M36.7224 39.865C36.6782 39.8731 36.6329 39.8722 36.5892 39.8624C36.5454 39.8525 36.504 39.834 36.4676 39.8078C36.4311 39.7817 36.4003 39.7484 36.377 39.7101C36.3537 39.6717 36.3384 39.6291 36.332 39.5847L35.2842 33.8386C35.2682 33.7501 35.2881 33.6589 35.3394 33.585C35.3908 33.5112 35.4693 33.4607 35.5578 33.4448C35.6463 33.4289 35.7375 33.4488 35.8113 33.5001C35.8852 33.5514 35.9356 33.6299 35.9515 33.7184L37.0027 39.4646C37.0123 39.5094 37.0125 39.5558 37.0034 39.6007C36.9943 39.6457 36.9761 39.6883 36.9498 39.7258C36.9235 39.7634 36.8897 39.7952 36.8506 39.8191C36.8114 39.843 36.7678 39.8587 36.7224 39.865Z" fill="#F39020"/>
<path d="M38.2775 39.5818C38.2336 39.5899 38.1885 39.5891 38.1449 39.5795C38.1013 39.5699 38.0601 39.5516 38.0237 39.5258C37.9873 39.5 37.9565 39.4671 37.933 39.4292C37.9095 39.3912 37.8939 39.3489 37.8871 39.3048L36.8359 33.5554C36.82 33.4669 36.8399 33.3757 36.8912 33.3018C36.9425 33.228 37.0211 33.1775 37.1096 33.1616C37.1981 33.1457 37.2893 33.1656 37.3631 33.2169C37.4369 33.2682 37.4874 33.3467 37.5033 33.4352L38.5544 39.1847C38.5635 39.2291 38.5635 39.2748 38.5544 39.3192C38.5452 39.3636 38.5272 39.4056 38.5013 39.4427C38.4753 39.4799 38.4421 39.5114 38.4037 39.5353C38.3652 39.5592 38.3223 39.575 38.2775 39.5818Z" fill="#F39020"/>
<path d="M39.8224 39.3025C39.7783 39.3106 39.7329 39.3097 39.6892 39.2999C39.6454 39.29 39.604 39.2715 39.5676 39.2453C39.5311 39.2192 39.5003 39.1859 39.477 39.1476C39.4537 39.1092 39.4384 39.0666 39.432 39.0222L38.3909 33.2761C38.3749 33.1876 38.3948 33.0964 38.4461 33.0225C38.4974 32.9487 38.576 32.8982 38.6645 32.8823C38.753 32.8664 38.8442 32.8863 38.918 32.9376C38.9919 32.9889 39.0423 33.0674 39.0582 33.1559L40.1094 38.9021C40.119 38.9474 40.119 38.9942 40.1095 39.0396C40.1 39.085 40.0811 39.1279 40.0541 39.1655C40.0271 39.2032 39.9926 39.2348 39.9527 39.2584C39.9128 39.282 39.8684 39.297 39.8224 39.3025Z" fill="#F39020"/>
<path d="M41.3673 39.0173C41.3232 39.0254 41.2779 39.0245 41.2341 39.0147C41.1903 39.0049 41.149 38.9863 41.1125 38.9602C41.0761 38.934 41.0453 38.9008 41.022 38.8624C40.9987 38.8241 40.9833 38.7814 40.9769 38.737L39.9258 32.9909C39.9179 32.9471 39.9187 32.9021 39.9282 32.8586C39.9377 32.8151 39.9556 32.7739 39.981 32.7374C40.0064 32.7008 40.0388 32.6696 40.0763 32.6455C40.1137 32.6215 40.1556 32.605 40.1994 32.5972C40.2432 32.5893 40.2882 32.5901 40.3317 32.5996C40.3752 32.6091 40.4164 32.627 40.4529 32.6524C40.4895 32.6778 40.5207 32.7102 40.5448 32.7477C40.5688 32.7851 40.5853 32.827 40.5932 32.8708L41.6409 38.6202C41.6501 38.6644 41.6502 38.7099 41.6412 38.7541C41.6323 38.7982 41.6145 38.8401 41.5889 38.8772C41.5634 38.9143 41.5306 38.9459 41.4925 38.97C41.4544 38.994 41.4118 39.0102 41.3673 39.0173Z" fill="#F39020"/>
<path d="M42.9089 38.7377C42.8648 38.7458 42.8195 38.7449 42.7757 38.7351C42.7319 38.7253 42.6905 38.7067 42.6541 38.6806C42.6177 38.6544 42.5869 38.6211 42.5636 38.5828C42.5402 38.5445 42.5249 38.5018 42.5185 38.4574L41.4707 32.6979C41.4628 32.6541 41.4636 32.6092 41.4731 32.5657C41.4826 32.5222 41.5005 32.481 41.526 32.4444C41.5514 32.4078 41.5837 32.3766 41.6212 32.3526C41.6587 32.3285 41.7005 32.3121 41.7443 32.3042C41.7881 32.2963 41.8331 32.2971 41.8766 32.3066C41.9201 32.3161 41.9613 32.334 41.9979 32.3595C42.0344 32.3849 42.0656 32.4172 42.0897 32.4547C42.1137 32.4922 42.1302 32.534 42.1381 32.5778L43.1892 38.3273C43.2004 38.3728 43.2019 38.4202 43.1935 38.4663C43.1851 38.5125 43.1672 38.5564 43.1407 38.5951C43.1143 38.6338 43.0799 38.6665 43.04 38.6911C43.0001 38.7157 42.9554 38.7316 42.9089 38.7377Z" fill="#F39020"/>
<path d="M44.454 38.4538C44.4099 38.4619 44.3646 38.461 44.3208 38.4512C44.277 38.4414 44.2357 38.4228 44.1992 38.3966C44.1628 38.3705 44.132 38.3372 44.1087 38.2989C44.0854 38.2606 44.0701 38.2179 44.0636 38.1735L43.0125 32.4274C43.0028 32.3835 43.0021 32.3381 43.0104 32.2939C43.0186 32.2498 43.0358 32.2077 43.0607 32.1703C43.0856 32.1329 43.1178 32.1009 43.1554 32.0763C43.193 32.0517 43.2352 32.0349 43.2794 32.027C43.3236 32.0189 43.3689 32.0198 43.4127 32.0296C43.4564 32.0394 43.4978 32.0579 43.5342 32.0841C43.5707 32.1103 43.6015 32.1435 43.6248 32.1819C43.6481 32.2202 43.6634 32.2629 43.6699 32.3073L44.731 38.0534C44.7406 38.098 44.741 38.1441 44.7321 38.1888C44.7232 38.2336 44.7052 38.2761 44.6792 38.3136C44.6533 38.3511 44.6199 38.3829 44.5812 38.407C44.5424 38.4312 44.4992 38.4471 44.454 38.4538Z" fill="#F39020"/>
<path d="M49.4894 54.7983C49.5058 54.9123 49.4883 55.0286 49.4392 55.1328C49.39 55.237 49.3113 55.3244 49.2128 55.3841C49.1143 55.4439 49.0004 55.4734 48.8853 55.4689C48.7702 55.4645 48.659 55.4262 48.5654 55.359C48.4719 55.2918 48.4002 55.1986 48.3592 55.0909C48.3182 54.9832 48.3098 54.8659 48.335 54.7535C48.3603 54.6411 48.418 54.5386 48.501 54.4588C48.584 54.3789 48.6887 54.3253 48.802 54.3044C48.9585 54.2794 49.1187 54.3172 49.2474 54.4097C49.3762 54.5022 49.4632 54.6419 49.4894 54.7983Z" fill="#B3DEE4"/>
<path d="M51.2946 65.1093C51.3118 65.2242 51.2948 65.3416 51.2457 65.4468C51.1966 65.5521 51.1175 65.6405 51.0184 65.701C50.9193 65.7616 50.8045 65.7916 50.6885 65.7872C50.5724 65.7829 50.4602 65.7444 50.3659 65.6767C50.2716 65.6089 50.1993 65.5148 50.1582 65.4062C50.117 65.2976 50.1088 65.1793 50.1346 65.066C50.1603 64.9528 50.2189 64.8496 50.303 64.7695C50.387 64.6894 50.4928 64.6358 50.6072 64.6155C50.6848 64.6026 50.7641 64.6052 50.8407 64.6231C50.9173 64.6409 50.9896 64.6738 51.0535 64.7196C51.1173 64.7655 51.1715 64.8236 51.2129 64.8904C51.2543 64.9573 51.282 65.0317 51.2946 65.1093Z" fill="#B3DEE4"/>
<path d="M47.6508 64.1684C47.6672 64.2825 47.6497 64.3988 47.6005 64.503C47.5514 64.6071 47.4726 64.6945 47.3742 64.7543C47.2757 64.814 47.1618 64.8435 47.0467 64.8391C46.9316 64.8346 46.8204 64.7964 46.7268 64.7292C46.6333 64.662 46.5615 64.5687 46.5206 64.4611C46.4796 64.3534 46.4712 64.2361 46.4964 64.1237C46.5216 64.0113 46.5793 63.9088 46.6624 63.8289C46.7454 63.7491 46.8501 63.6954 46.9634 63.6746C47.041 63.6613 47.1205 63.6635 47.1973 63.6812C47.274 63.6989 47.3465 63.7316 47.4105 63.7776C47.4744 63.8236 47.5286 63.8818 47.5699 63.9489C47.6111 64.016 47.6386 64.0906 47.6508 64.1684Z" fill="#B3DEE4"/>
<path d="M41.0805 59.4264C41.0984 59.5413 41.082 59.6589 41.0333 59.7645C40.9847 59.8701 40.9059 59.9589 40.807 60.02C40.708 60.081 40.5933 60.1115 40.4771 60.1076C40.3609 60.1037 40.2484 60.0656 40.1538 59.9981C40.0592 59.9306 39.9866 59.8366 39.9451 59.728C39.9036 59.6194 39.8951 59.5009 39.9207 59.3875C39.9462 59.2741 40.0047 59.1708 40.0887 59.0904C40.1727 59.0101 40.2786 58.9563 40.3931 58.9359C40.5493 58.9098 40.7094 58.9469 40.8383 59.0388C40.9672 59.1308 41.0543 59.2702 41.0805 59.4264Z" fill="#B3DEE4"/>
<path d="M40.7902 63.7306C40.8081 63.8455 40.7917 63.9631 40.743 64.0687C40.6944 64.1743 40.6157 64.2631 40.5167 64.3242C40.4178 64.3852 40.303 64.4157 40.1868 64.4118C40.0706 64.4079 39.9582 64.3698 39.8635 64.3023C39.7689 64.2348 39.6963 64.1408 39.6548 64.0322C39.6133 63.9236 39.6049 63.8051 39.6304 63.6917C39.656 63.5783 39.7144 63.4749 39.7984 63.3946C39.8825 63.3143 39.9883 63.2605 40.1028 63.2401C40.2589 63.2149 40.4186 63.2523 40.5472 63.3441C40.6759 63.436 40.7632 63.5748 40.7902 63.7306Z" fill="#B3DEE4"/>
<path d="M32.439 73.0091C32.758 72.9508 32.9678 72.636 32.9075 72.3061C32.8472 71.9762 32.5396 71.756 32.2205 71.8143C31.9015 71.8726 31.6917 72.1874 31.752 72.5173C31.8124 72.8473 32.1199 73.0675 32.439 73.0091Z" fill="#B3DEE4"/>
<path d="M36.7892 71.31C36.8056 71.424 36.7882 71.5404 36.739 71.6445C36.6898 71.7487 36.6111 71.8361 36.5126 71.8959C36.4141 71.9556 36.3002 71.9851 36.1851 71.9806C36.07 71.9762 35.9588 71.9379 35.8652 71.8707C35.7717 71.8035 35.7 71.7103 35.659 71.6026C35.618 71.495 35.6096 71.3776 35.6348 71.2652C35.6601 71.1528 35.7178 71.0503 35.8008 70.9705C35.8838 70.8906 35.9885 70.837 36.1018 70.8162C36.2583 70.7911 36.4185 70.8289 36.5473 70.9214C36.676 71.014 36.763 71.1536 36.7892 71.31Z" fill="#B3DEE4"/>
<path d="M35.341 79.3285C35.3571 79.4055 35.3577 79.4849 35.3428 79.562C35.328 79.6392 35.2979 79.7127 35.2545 79.7782C35.211 79.8437 35.155 79.8999 35.0897 79.9435C35.0243 79.9872 34.951 80.0175 34.8739 80.0326C34.7549 80.0593 34.6307 80.0499 34.5173 80.0054C34.4038 79.9609 34.3062 79.8835 34.2371 79.7831C34.168 79.6827 34.1305 79.5639 34.1294 79.4421C34.1284 79.3202 34.1638 79.2008 34.2312 79.0992C34.2986 78.9976 34.3948 78.9186 34.5075 78.8722C34.6202 78.8258 34.7443 78.8141 34.8636 78.8388C34.983 78.8635 35.0922 78.9233 35.1773 79.0106C35.2624 79.0978 35.3194 79.2086 35.341 79.3285Z" fill="#B3DEE4"/>
<path d="M40.2129 73.4445C40.2306 73.5593 40.2142 73.6767 40.1656 73.7821C40.117 73.8875 40.0384 73.9763 39.9396 74.0373C39.8409 74.0983 39.7263 74.1289 39.6103 74.1252C39.4942 74.1215 39.3819 74.0836 39.2872 74.0164C39.1926 73.9492 39.1198 73.8556 39.0781 73.7472C39.0363 73.6389 39.0274 73.5207 39.0525 73.4073C39.0776 73.294 39.1355 73.1905 39.219 73.1099C39.3025 73.0293 39.408 72.9751 39.5221 72.954C39.5997 72.9406 39.6792 72.9427 39.756 72.9601C39.8328 72.9776 39.9053 73.01 39.9695 73.0556C40.0337 73.1012 40.0883 73.159 40.13 73.2258C40.1718 73.2925 40.2 73.3669 40.2129 73.4445Z" fill="#B3DEE4"/>
<path d="M43.5231 56.4238C43.5403 56.5386 43.5233 56.656 43.4742 56.7613C43.4251 56.8665 43.346 56.9549 43.2469 57.0155C43.1478 57.076 43.033 57.106 42.917 57.1017C42.8009 57.0973 42.6887 57.0589 42.5944 56.9911C42.5001 56.9234 42.4278 56.8293 42.3867 56.7207C42.3455 56.6121 42.3373 56.4937 42.3631 56.3805C42.3888 56.2672 42.4474 56.1641 42.5315 56.084C42.6155 56.0038 42.7214 55.9502 42.8357 55.9299C42.9133 55.9171 42.9926 55.9196 43.0692 55.9375C43.1458 55.9554 43.2181 55.9882 43.282 56.0341C43.3458 56.08 43.4 56.138 43.4414 56.2049C43.4828 56.2718 43.5105 56.3462 43.5231 56.4238Z" fill="#B3DEE4"/>
<path d="M52.0453 69.2207C52.0626 69.3355 52.0456 69.4529 51.9964 69.5581C51.9473 69.6634 51.8682 69.7518 51.7691 69.8124C51.67 69.8729 51.5553 69.9029 51.4392 69.8985C51.3231 69.8942 51.2109 69.8558 51.1166 69.788C51.0223 69.7202 50.95 69.6262 50.9089 69.5176C50.8678 69.4089 50.8596 69.2906 50.8853 69.1774C50.9111 69.0641 50.9696 68.961 51.0537 68.8808C51.1378 68.8007 51.2436 68.7471 51.3579 68.7268C51.4355 68.7139 51.5149 68.7165 51.5914 68.7344C51.668 68.7523 51.7403 68.7851 51.8042 68.831C51.8681 68.8768 51.9222 68.9349 51.9636 69.0018C52.005 69.0686 52.0328 69.143 52.0453 69.2207Z" fill="#B3DEE4"/>
<path d="M51.5283 76.2036C51.5446 76.3175 51.5271 76.4336 51.4779 76.5377C51.4288 76.6417 51.3502 76.7289 51.2519 76.7887C51.1536 76.8484 51.04 76.878 50.925 76.8737C50.8101 76.8694 50.6989 76.8314 50.6053 76.7645C50.5118 76.6976 50.4399 76.6047 50.3987 76.4974C50.3574 76.39 50.3486 76.2729 50.3734 76.1605C50.3981 76.0482 50.4553 75.9456 50.5378 75.8655C50.6203 75.7853 50.7245 75.7312 50.8376 75.7098C50.9154 75.6964 50.9951 75.6986 51.0721 75.7163C51.149 75.7339 51.2217 75.7667 51.286 75.8126C51.3502 75.8585 51.4047 75.9167 51.4463 75.9838C51.4879 76.051 51.5157 76.1257 51.5283 76.2036Z" fill="#B3DEE4"/>
<path d="M36.7458 58.3926C36.7621 58.5064 36.7446 58.6226 36.6955 58.7266C36.6463 58.8306 36.5677 58.9179 36.4694 58.9776C36.3711 59.0374 36.2575 59.0669 36.1425 59.0626C36.0276 59.0583 35.9164 59.0204 35.8229 58.9535C35.7293 58.8866 35.6574 58.7937 35.6162 58.6863C35.575 58.5789 35.5662 58.4618 35.5909 58.3495C35.6156 58.2371 35.6728 58.1345 35.7553 58.0544C35.8378 57.9743 35.9421 57.9201 36.0551 57.8987C36.2122 57.8727 36.3732 57.9101 36.5027 58.0027C36.6322 58.0953 36.7197 58.2355 36.7458 58.3926Z" fill="#B3DEE4"/>
<path d="M83.4389 92.282L28.4303 86.6093C19.7845 84.6338 20.1749 77.8099 20.275 76.8455V60.348L86.4788 44.084L83.4389 92.282ZM28.8675 84.4436L81.3834 89.8461L84.1063 46.9504L22.5074 62.0832V77.0024V77.0858C22.4473 77.3127 21.7299 82.7819 28.8675 84.4436Z" fill="#576170"/>
<path d="M21.5896 69.5164L21.1858 67.3407L84.3831 55.6016L84.7869 57.7772" fill="#576170"/>
<path d="M84.744 67.1923L21.3044 71.9512L21.4699 74.1573L84.9095 69.3984L84.744 67.1923Z" fill="#576170"/>
<path d="M21.453 77.5253L21.3762 79.7363L83.0314 81.8786L83.1082 79.6676L21.453 77.5253Z" fill="#576170"/>
<path d="M29.9986 59.3691H27.7896V85.537H29.9986V59.3691Z" fill="#576170"/>
<path d="M40.9735 56.6895H38.5876V87.1185H40.9735V56.6895Z" fill="#576170"/>
<path d="M52.102 53.5293H49.5693V87.8158H52.102V53.5293Z" fill="#576170"/>
<path d="M63.2172 51.1484H60.561V88.9554H63.2172V51.1484Z" fill="#576170"/>
<path d="M75.4604 47.7344H72.644V90.2063H75.4604V47.7344Z" fill="#576170"/>
<path d="M83.2385 90.943L80.4355 90.7594L83.8859 37.6228C83.8458 37.0889 83.8292 35.3871 84.9337 34.0591C85.3293 33.599 85.817 33.227 86.3654 32.9672C86.9137 32.7074 87.5105 32.5656 88.1171 32.5508H98.8218V35.3671H88.2539C87.4564 35.4305 87.1894 35.7509 87.0993 35.8543C86.7796 36.325 86.6355 36.8931 86.6922 37.4593V37.5861V37.7029L83.2385 90.943Z" fill="#576170"/>
<path d="M74.8596 109.887C74.2256 109.887 73.5583 109.857 72.8575 109.797L26.0743 109.887C25.8652 109.897 25.6562 109.864 25.4601 109.791C25.264 109.718 25.0848 109.605 24.9334 109.461C24.7819 109.316 24.6614 109.142 24.579 108.95C24.4966 108.757 24.4542 108.55 24.4542 108.341C24.4542 108.131 24.4966 107.924 24.579 107.732C24.6614 107.539 24.7819 107.365 24.9334 107.221C25.0848 107.076 25.264 106.964 25.4601 106.891C25.6562 106.817 25.8652 106.784 26.0743 106.794L72.9276 106.701H73.0611C76.4213 107.011 78.9106 106.471 80.2654 105.136C80.6753 104.719 80.9959 104.223 81.2076 103.678C81.4194 103.133 81.5177 102.55 81.4967 101.966C81.4917 101.907 81.4917 101.848 81.4967 101.789C81.6235 97.2807 76.9352 96.6567 76.735 96.6334L24.3425 90.4902C23.9584 90.4156 23.6168 90.1985 23.3864 89.8824C23.1559 89.5663 23.0536 89.1746 23.1001 88.7862C23.1466 88.3977 23.3384 88.0413 23.637 87.7885C23.9356 87.5357 24.3188 87.4053 24.7095 87.4236L77.1321 93.5734C79.8016 93.9071 84.7402 96.0327 84.6167 101.816C84.6557 102.825 84.4898 103.832 84.1291 104.775C83.7683 105.718 83.2202 106.579 82.5178 107.305C80.7993 109.02 78.2299 109.887 74.8596 109.887Z" fill="#576170"/>
<path d="M30.1921 118.373C29.3828 118.373 28.5917 118.133 27.9189 117.684C27.2461 117.234 26.7217 116.595 26.4122 115.847C26.1026 115.099 26.0218 114.277 26.1799 113.483C26.3381 112.689 26.728 111.96 27.3005 111.388C27.873 110.816 28.6022 110.427 29.396 110.27C30.1898 110.112 31.0125 110.194 31.76 110.504C32.5075 110.814 33.1462 111.339 33.5953 112.012C34.0444 112.685 34.2838 113.476 34.2831 114.286C34.2814 115.37 33.8497 116.409 33.0827 117.175C32.3158 117.942 31.2763 118.373 30.1921 118.373ZM30.1921 112.184C29.7763 112.184 29.3699 112.307 29.0242 112.538C28.6784 112.769 28.409 113.097 28.2499 113.481C28.0908 113.865 28.0491 114.288 28.1303 114.696C28.2114 115.104 28.4116 115.478 28.7056 115.772C28.9996 116.066 29.3742 116.267 29.782 116.348C30.1898 116.429 30.6125 116.387 30.9966 116.228C31.3807 116.069 31.709 115.799 31.94 115.454C32.171 115.108 32.2943 114.702 32.2943 114.286C32.2943 114.01 32.24 113.736 32.1343 113.481C32.0287 113.226 31.8738 112.994 31.6786 112.799C31.4834 112.604 31.2516 112.449 30.9966 112.344C30.7415 112.238 30.4682 112.184 30.1921 112.184Z" fill="#576170"/>
<path d="M74.0522 118.373C73.2429 118.373 72.4518 118.133 71.779 117.684C71.1062 117.234 70.5818 116.595 70.2723 115.847C69.9627 115.099 69.8819 114.277 70.04 113.483C70.1982 112.689 70.5881 111.96 71.1606 111.388C71.7331 110.816 72.4623 110.427 73.2561 110.27C74.0499 110.112 74.8726 110.194 75.6201 110.504C76.3676 110.814 77.0063 111.339 77.4554 112.012C77.9045 112.685 78.1439 113.476 78.1432 114.286C78.1415 115.37 77.7098 116.409 76.9428 117.175C76.1759 117.942 75.1364 118.373 74.0522 118.373ZM74.0522 112.184C73.6364 112.184 73.23 112.307 72.8843 112.538C72.5386 112.769 72.2691 113.097 72.11 113.481C71.9509 113.865 71.9092 114.288 71.9904 114.696C72.0715 115.104 72.2717 115.478 72.5657 115.772C72.8597 116.066 73.2343 116.267 73.6421 116.348C74.0499 116.429 74.4726 116.387 74.8567 116.228C75.2408 116.069 75.5692 115.799 75.8001 115.454C76.0311 115.108 76.1544 114.702 76.1544 114.286C76.1544 114.01 76.1001 113.736 75.9944 113.481C75.8888 113.226 75.7339 112.994 75.5387 112.799C75.3435 112.604 75.1118 112.449 74.8567 112.344C74.6016 112.238 74.3283 112.184 74.0522 112.184Z" fill="#576170"/>
<path d="M102.556 30.9668H89.9626C89.0558 30.9668 88.3208 31.7018 88.3208 32.6085V35.3081C88.3208 36.2148 89.0558 36.9498 89.9626 36.9498H102.556C103.463 36.9498 104.198 36.2148 104.198 35.3081V32.6085C104.198 31.7018 103.463 30.9668 102.556 30.9668Z" fill="#D75424"/>
</svg>
