<svg width="141" height="40" viewBox="0 0 141 40" fill="none" xmlns="http://www.w3.org/2000/svg">
<g clip-path="url(#clip0_5903_16747)">
<path d="M15.9103 34.3264V24.9933C15.9103 23.1141 15.096 21.924 13.2168 21.924C12.4495 21.9813 11.7058 22.2145 11.0431 22.6055C10.3805 22.9966 9.81686 23.535 9.39582 24.1789V34.3264H7.95513V24.9306C7.95513 23.0515 7.20347 21.8613 5.26166 21.8613C4.48887 21.9256 3.74155 22.1684 3.07851 22.5706C2.41548 22.9728 1.85483 23.5233 1.44069 24.1789V34.2638H0V20.9844H1.44069V22.9888C1.94455 22.3015 2.59234 21.7324 3.33883 21.3213C4.08533 20.9102 4.91256 20.6669 5.76277 20.6085C7.82985 20.6085 8.95735 21.7987 9.27055 23.1141C9.75647 22.3564 10.4239 21.732 11.2124 21.2976C11.9798 20.8605 12.8366 20.6035 13.7179 20.5459C16.1608 20.5459 17.351 21.924 17.351 24.6174V34.2638L15.9103 34.3264Z" fill="#E76425"/>
<path d="M20.4828 38.2102C20.8663 38.3384 21.2685 38.4019 21.6729 38.3981C22.5499 38.3981 23.1763 38.0223 23.6774 36.7695L24.7422 34.3892L19.1047 20.9219H20.6707L25.5565 32.6353L30.3797 20.9219H31.9457L25.0554 37.208C24.3038 38.8992 23.1763 39.7135 21.6103 39.7135C21.124 39.7127 20.6398 39.6496 20.1696 39.5256L20.4828 38.2102Z" fill="#E76425"/>
<path d="M32.3215 15.8477H35.4535L41.3415 31.2568L47.2296 15.9103H50.3615L43.0954 34.2635H39.6503L32.3215 15.8477Z" fill="#6D6E70"/>
<path d="M77.86 26.5589L70.6565 15.8477H73.8511L79.238 24.0533L84.5623 15.8477H87.7569L80.6161 26.5589V34.2635H77.86V26.5589Z" fill="#6D6E70"/>
<path d="M98.4055 30.4424H89.3855L87.8822 34.2633H84.8755L92.2042 15.9102H95.6494L102.978 34.2633H99.9714L98.4055 30.4424ZM90.1998 27.9994H97.5912L93.8955 18.2904L90.1998 27.9994Z" fill="#6D6E70"/>
<path d="M113.188 15.5975C114.604 15.5619 116.007 15.8745 117.274 16.508C118.541 17.1414 119.633 18.0763 120.454 19.2305L118.199 20.5459C117.607 19.7774 116.849 19.1529 115.981 18.719C115.113 18.2851 114.158 18.0531 113.188 18.0404C109.367 18.0404 106.486 20.9844 106.486 25.1186C106.486 29.2527 109.367 32.1968 113.188 32.1968C114.903 32.1748 116.551 31.529 117.824 30.3802V27.0604H111.936V24.6175H120.58V31.3824C119.648 32.4171 118.507 33.2423 117.233 33.8038C115.959 34.3653 114.581 34.6502 113.188 34.6397C107.927 34.6397 103.667 30.8187 103.667 25.1186C103.667 19.4184 107.927 15.5975 113.188 15.5975Z" fill="#6D6E70"/>
<path d="M124.15 15.8477H136.49V18.2906H126.906V23.6775H136.302V26.1204H126.906V31.8206H136.49V34.2635H124.15V15.8477Z" fill="#6D6E70"/>
<path d="M61.1355 36.2679C58.9888 36.2617 56.8919 35.6198 55.1095 34.4233C53.3271 33.2267 51.939 31.5291 51.1204 29.5445C50.3017 27.56 50.0891 25.3774 50.5094 23.2722C50.9298 21.1669 51.9642 19.2334 53.4822 17.7153C55.0002 16.1973 56.9338 15.1629 59.039 14.7426C61.1442 14.3223 63.3268 14.5348 65.3114 15.3535C67.2959 16.1722 68.9935 17.5603 70.1901 19.3427C71.3866 21.1251 72.0285 23.2219 72.0347 25.3687C72.0422 26.8021 71.7654 28.2227 71.2203 29.5485C70.6752 30.8742 69.8726 32.0787 68.8591 33.0922C67.8455 34.1058 66.641 34.9083 65.3153 35.4534C63.9896 35.9985 62.5689 36.2753 61.1355 36.2679ZM61.1355 16.0355C59.2896 16.0355 57.4851 16.5829 55.9503 17.6084C54.4155 18.634 53.2192 20.0916 52.5128 21.797C51.8064 23.5025 51.6216 25.3791 51.9817 27.1895C52.3418 29 53.2307 30.663 54.536 31.9683C55.8413 33.2735 57.5043 34.1624 59.3147 34.5226C61.1252 34.8827 63.0018 34.6978 64.7072 33.9914C66.4126 33.285 67.8703 32.0888 68.8958 30.5539C69.9214 29.0191 70.4687 27.2146 70.4687 25.3687C70.4621 22.8954 69.4767 20.5253 67.7278 18.7764C65.9789 17.0276 63.6088 16.0421 61.1355 16.0355Z" fill="#E66325"/>
<path d="M57.3772 24.0535L64.9565 26.747L63.7664 17.9775L57.3772 24.0535Z" fill="#E66325"/>
<path d="M57.3772 24.0535L61.1355 25.3689L63.7664 17.9775L57.3772 24.0535Z" fill="#F6921E"/>
<path d="M64.9565 26.7472L57.3772 24.0537L58.5673 32.8231L64.9565 26.7472Z" fill="#E66325"/>
<path d="M64.9565 26.7472L61.1356 25.3691L58.5674 32.8232L64.9565 26.7472Z" fill="#F6921E"/>
<path d="M139.497 34.201C139.098 34.201 138.716 34.0426 138.434 33.7607C138.152 33.4788 137.993 33.0964 137.993 32.6977C137.993 32.299 138.152 31.9166 138.434 31.6347C138.716 31.3527 139.098 31.1943 139.497 31.1943C139.895 31.1943 140.278 31.3527 140.56 31.6347C140.842 31.9166 141 32.299 141 32.6977C141 33.0964 140.842 33.4788 140.56 33.7607C140.278 34.0426 139.895 34.201 139.497 34.201ZM139.497 31.3823C139.237 31.3823 138.982 31.4594 138.766 31.6039C138.55 31.7485 138.381 31.9539 138.281 32.1943C138.182 32.4346 138.156 32.6991 138.207 32.9543C138.257 33.2095 138.383 33.4438 138.567 33.6278C138.751 33.8118 138.985 33.9371 139.24 33.9878C139.495 34.0386 139.76 34.0125 140 33.913C140.24 33.8134 140.446 33.6448 140.59 33.4285C140.735 33.2122 140.812 32.9578 140.812 32.6977C140.811 32.3493 140.671 32.0157 140.425 31.7693C140.179 31.523 139.845 31.3839 139.497 31.3823ZM139.935 33.5746L139.497 32.8856H139.184V33.5746H138.996V31.8834H139.685C139.752 31.8776 139.82 31.8867 139.883 31.9098C139.946 31.933 140.004 31.9697 140.052 32.0175C140.099 32.0652 140.136 32.1228 140.159 32.1861C140.182 32.2495 140.191 32.3172 140.186 32.3845C140.191 32.5083 140.149 32.6295 140.067 32.7228C139.985 32.8161 139.871 32.8744 139.747 32.8856L140.186 33.5746H139.935ZM139.685 32.0713H139.184V32.6977H139.685C139.766 32.6918 139.842 32.657 139.9 32.5995C139.957 32.5419 139.992 32.4656 139.998 32.3845C139.935 32.1966 139.81 32.0713 139.685 32.0713Z" fill="#6D6E70"/>
<path d="M34.3887 7.32914V0.188312H39.2745V1.31581H35.6414V3.13234H39.2119V4.25984H35.6414V7.32914H34.3887ZM41.1537 7.32914V0.188312H42.4064V7.32914H41.1537ZM49.6725 7.32914L45.9769 2.19275V7.32914H44.7241V0.188312H46.0395L49.6725 5.13678V0.188312H50.9253V7.32914H49.6725ZM58.0035 7.32914L57.5024 5.95108H54.2452L53.7441 7.32914H52.3034L55.1221 0.188312H56.6881L59.5068 7.32914H58.0035ZM55.8738 1.44109L54.5584 4.82359H57.1266L55.8738 1.44109ZM65.7707 7.32914L62.075 2.19275V7.32914H60.8223V0.188312H62.1377L65.7707 5.13678V0.188312H67.0235V7.32914H65.7707ZM68.5895 3.75872C68.5761 3.26442 68.6646 2.77266 68.8496 2.31407C69.0346 1.85548 69.312 1.43989 69.6646 1.09318C70.0171 0.746479 70.4373 0.47609 70.899 0.29886C71.3606 0.121629 71.8538 0.0413537 72.3478 0.063034C72.922 0.0553053 73.4886 0.195263 73.9931 0.469481C74.4977 0.743699 74.9233 1.14298 75.2292 1.629L74.1643 2.19275C73.9837 1.86966 73.7201 1.60062 73.4008 1.41343C73.0815 1.22623 72.718 1.12766 72.3478 1.12789C72.0146 1.12192 71.6838 1.18525 71.3763 1.31387C71.0689 1.44249 70.7916 1.63359 70.5619 1.87505C70.3322 2.11652 70.1552 2.40307 70.0421 2.71655C69.929 3.03004 69.8823 3.3636 69.9049 3.69609C69.887 4.02749 69.9369 4.35907 70.0517 4.67047C70.1665 4.98188 70.3437 5.26655 70.5725 5.50702C70.8012 5.74749 71.0767 5.9387 71.382 6.06892C71.6872 6.19914 72.0159 6.26562 72.3478 6.26428C72.7163 6.25641 73.0766 6.15444 73.3945 5.96806C73.7125 5.78168 73.9775 5.51708 74.1643 5.19942L75.2292 5.82581C74.9377 6.32952 74.5169 6.74614 74.0103 7.03249C73.5036 7.31885 72.9297 7.46452 72.3478 7.45442C71.8538 7.4761 71.3606 7.39582 70.899 7.21859C70.4373 7.04136 70.0171 6.77097 69.6646 6.42427C69.312 6.07756 69.0346 5.66197 68.8496 5.20338C68.6646 4.74479 68.5761 4.25303 68.5895 3.75872ZM76.9204 7.32914V0.188312H78.1732V7.32914H76.9204ZM85.2514 7.32914L84.7503 5.95108H81.4931L80.992 7.32914H79.5513L82.37 0.188312H83.936L86.7547 7.32914H85.2514ZM83.1217 1.44109L81.8063 4.82359H84.3745L83.1217 1.44109ZM88.0075 7.32914V0.188312H89.2603V6.20164H92.3922V7.32914H88.0075Z" fill="#E9691F"/>
<path d="M2.81875 7.39194L0 0.188477H1.44069L3.63305 6.01389L5.82541 0.188477H7.2661L4.44736 7.39194H2.81875Z" fill="#E9691F"/>
<path d="M7.64196 3.69581C7.62162 3.20505 7.70329 2.7154 7.88182 2.25781C8.06034 1.80022 8.33184 1.38464 8.67916 1.03732C9.02648 0.689998 9.44207 0.418497 9.89966 0.23997C10.3572 0.0614435 10.8469 -0.0202273 11.3377 0.000118799C11.827 -0.0146274 12.3141 0.0708823 12.7692 0.251389C13.2242 0.431896 13.6376 0.703584 13.9837 1.04974C14.3299 1.3959 14.6016 1.80922 14.7821 2.26427C14.9626 2.71932 15.0481 3.20649 15.0333 3.69581C15.0537 4.18657 14.972 4.67622 14.7935 5.13381C14.615 5.5914 14.3435 6.00698 13.9961 6.3543C13.6488 6.70162 13.2332 6.97312 12.7757 7.15165C12.3181 7.33018 11.8284 7.41185 11.3377 7.3915C10.8469 7.41185 10.3572 7.33018 9.89966 7.15165C9.44207 6.97312 9.02648 6.70162 8.67916 6.3543C8.33184 6.00698 8.06034 5.5914 7.88182 5.13381C7.70329 4.67622 7.62162 4.18657 7.64196 3.69581ZM13.7179 3.69581C13.7179 2.19248 12.7783 1.12762 11.3377 1.12762C11.0089 1.12753 10.6836 1.19537 10.3823 1.32688C10.081 1.45839 9.81012 1.65074 9.58664 1.89187C9.36315 2.133 9.1919 2.4177 9.08362 2.72812C8.97533 3.03855 8.93236 3.368 8.95738 3.69581C8.95738 5.19914 9.89696 6.264 11.3377 6.264C12.7783 6.264 13.7179 5.19914 13.7179 3.69581Z" fill="#E9691F"/>
<path d="M18.04 7.39194V4.38528L15.2839 0.188477H16.7246L18.7291 3.25778L20.6709 0.188477H22.1116L19.3555 4.38528V7.39194H18.04Z" fill="#E9691F"/>
<path d="M27.1851 7.39194L26.684 6.01389H23.3642L22.8631 7.39194H21.4224L24.2411 0.188477H25.8071L28.6258 7.39194H27.1851ZM25.0554 1.50389L23.74 4.94903H26.3082L25.0554 1.50389Z" fill="#E9691F"/>
<path d="M95.0857 7.32915C94.77 7.32915 94.4673 7.20376 94.2441 6.98057C94.0209 6.75737 93.8955 6.45466 93.8955 6.13901C93.8955 5.82337 94.0209 5.52065 94.2441 5.29746C94.4673 5.07427 94.77 4.94888 95.0857 4.94888C95.2434 4.94364 95.4005 4.97085 95.5472 5.02881C95.694 5.08677 95.8273 5.17424 95.9388 5.28582C96.0504 5.39739 96.1379 5.53069 96.1959 5.67745C96.2538 5.82421 96.281 5.98131 96.2758 6.13901C96.2758 6.2953 96.245 6.45007 96.1852 6.59446C96.1254 6.73885 96.0377 6.87005 95.9272 6.98057C95.8167 7.09108 95.6855 7.17875 95.5411 7.23856C95.3967 7.29837 95.2419 7.32915 95.0857 7.32915ZM95.0857 5.07415C94.8032 5.07415 94.5324 5.18634 94.3327 5.38604C94.133 5.58574 94.0208 5.85659 94.0208 6.13901C94.0208 6.42143 94.133 6.69228 94.3327 6.89198C94.5324 7.09168 94.8032 7.20387 95.0857 7.20387C95.3656 7.19598 95.6319 7.08126 95.8299 6.88325C96.0279 6.68523 96.1426 6.41894 96.1505 6.13901C96.1315 5.86286 96.0132 5.60292 95.8175 5.40719C95.6217 5.21146 95.3618 5.09316 95.0857 5.07415ZM95.3988 6.82804L95.023 6.26429H94.7725V6.82804H94.5845V5.44999H95.1483C95.2063 5.44825 95.2641 5.45841 95.3181 5.47983C95.3721 5.50125 95.4211 5.53349 95.4622 5.57455C95.5033 5.61562 95.5355 5.66465 95.5569 5.71863C95.5783 5.77261 95.5885 5.83041 95.5868 5.88846C95.5921 5.99576 95.5562 6.10104 95.4863 6.18262C95.4163 6.26419 95.3178 6.31584 95.2109 6.32693L95.5868 6.89068H95.3988V6.82804ZM95.1483 5.6379H94.7725V6.13901H95.1483C95.2133 6.13462 95.2745 6.10681 95.3206 6.06074C95.3666 6.01467 95.3944 5.95346 95.3988 5.88846C95.4017 5.85483 95.3972 5.82099 95.3856 5.7893C95.374 5.7576 95.3557 5.72881 95.3318 5.70495C95.3079 5.68109 95.2791 5.66273 95.2474 5.65115C95.2158 5.63957 95.1819 5.63505 95.1483 5.6379Z" fill="#E9691F"/>
<path d="M61.1355 27.1162C62.0834 27.1162 62.8518 26.3478 62.8518 25.3999C62.8518 24.452 62.0834 23.6836 61.1355 23.6836C60.1876 23.6836 59.4192 24.452 59.4192 25.3999C59.4192 26.3478 60.1876 27.1162 61.1355 27.1162Z" fill="white"/>
</g>
<defs>
<clipPath id="clip0_5903_16747">
<rect width="141" height="39.713" fill="white"/>
</clipPath>
</defs>
</svg>
