<svg width="20" height="21" viewBox="0 0 20 21" fill="none" xmlns="http://www.w3.org/2000/svg">
    <g clip-path="url(#3h0dlfu2xa)">
        <path d="M10 0a9.974 9.974 0 0 0-5.556 1.692A10.03 10.03 0 0 0 .761 6.196a10.072 10.072 0 0 0-.569 5.8 10.048 10.048 0 0 0 2.737 5.138 9.989 9.989 0 0 0 5.12 2.747c1.94.387 3.95.189 5.778-.571a10.007 10.007 0 0 0 4.488-3.697A10.064 10.064 0 0 0 20 10.037a10.067 10.067 0 0 0-2.932-7.094A9.992 9.992 0 0 0 10 0zM5.03 14.284l.93-2.335a.438.438 0 0 1 .093-.14l4.91-4.929a.428.428 0 0 1 .589 0l1.396 1.4a.423.423 0 0 1 0 .592L8.038 13.8a.403.403 0 0 1-.14.093l-2.326.934a.428.428 0 0 1-.45-.093.419.419 0 0 1-.092-.45zm9.778-7.276-.698.7a.416.416 0 0 1-.59 0l-1.395-1.403a.419.419 0 0 1 0-.591l.698-.701a1.398 1.398 0 0 1 2.289.458 1.415 1.415 0 0 1-.305 1.535l.001.002z" fill="#145A7B"/>
    </g>
    <defs>
        <clipPath id="3h0dlfu2xa">
            <path fill="#fff" d="M0 0h20v20.074H0z"/>
        </clipPath>
    </defs>
</svg>
