<svg width="245" height="194" viewBox="0 0 245 194" fill="none" xmlns="http://www.w3.org/2000/svg">
<g clip-path="url(#clip0_324_77894)">
<path d="M63.1144 87.4428C63.0852 86.9174 63.0269 86.392 63.0269 85.8665C63.0561 76.7058 63.0755 67.5451 63.1339 58.3844C63.1875 50.401 63.2994 42.4176 63.3772 34.4342C63.4454 27.6719 63.507 20.9096 63.5622 14.1473C63.6108 7.11744 69.0074 0.948667 76.0245 0.214058C78.9442 -0.0924347 81.9272 0.0145899 84.8858 0.0194549C88.9345 0.0194549 92.988 0.145947 97.0513 0.175137C103.012 0.218922 108.973 0.204327 114.935 0.243246C124.866 0.316221 134.798 0.360004 144.725 0.530277C147.187 0.508767 149.64 0.806393 152.025 1.4157C154.913 2.25668 157.448 4.01845 159.243 6.43275C161.038 8.84705 161.994 11.7816 161.966 14.7895C161.966 26.6648 161.82 38.5402 161.723 50.4107C161.655 59.0476 161.579 67.6797 161.494 76.3069C161.494 78.3696 161.436 80.4372 161.407 82.5C161.319 90.6439 161.212 98.7879 161.149 106.932C161.086 114.147 161.076 121.361 161.032 128.576C160.977 137.369 160.917 146.161 160.852 154.954C160.769 161.993 160.672 169.028 160.614 176.068C160.629 178.509 159.955 180.906 158.667 182.981C157.903 184.207 156.949 185.306 156.083 186.464C155.834 186.584 155.595 186.724 155.368 186.883C152.331 189.247 148.891 190.21 145.056 190.132C138.049 189.996 131.037 189.967 124.029 189.899C115.684 189.816 107.338 189.719 98.9929 189.665C92.2192 189.622 85.4503 189.544 78.6814 189.665C74.3894 189.729 70.5013 188.809 67.1534 186.031L63.7957 181.857L67.3091 179.308C69.168 183.467 72.5305 185.418 76.9344 185.516C84.5549 185.676 92.1754 185.691 99.8056 185.739C107.183 185.793 114.565 185.798 121.942 185.851C129.927 185.91 137.913 186.031 145.898 186.065C151.966 186.094 156.443 181.614 156.492 175.586C156.545 169.262 156.623 162.937 156.677 156.613C156.764 145.586 156.847 134.558 156.925 123.531C156.998 114.492 157.095 105.453 157.168 96.4186C157.256 85.4725 157.339 74.5296 157.416 63.5899C157.533 47.2923 157.644 30.9979 157.747 14.7068C157.715 12.1009 156.679 9.60782 154.854 7.74654C153.029 5.88525 150.557 4.7991 147.952 4.71415C144.467 4.62658 140.983 4.58766 137.499 4.5536C128.74 4.46603 119.981 4.38819 111.222 4.32009C100.357 4.22927 89.4892 4.14656 78.6182 4.07197C72.1899 4.03305 67.7276 8.45043 67.6692 14.8722C67.567 26.0616 67.5038 37.251 67.4162 48.4404C67.3091 61.6926 67.1988 74.9431 67.0853 88.192L63.1144 87.4428Z" fill="black"/>
<path d="M40.6668 187.209C40.4088 186.877 40.1096 186.579 39.7763 186.323C36.9636 184.591 34.1072 182.918 31.3091 181.176C26.6411 178.199 22.4023 174.598 18.7105 170.473C16.3952 167.903 14.2803 165.159 12.3845 162.266C10.1662 159.002 8.19165 155.579 6.4769 152.025C4.91486 148.673 3.84429 145.073 2.7494 141.527C1.49878 137.469 1.24088 133.256 1.00243 129.019C0.836984 126.197 0.642336 123.38 0.515815 120.559C0.389294 117.406 0.306579 114.254 0.26765 111.101C0.16546 104.582 0.121655 98.0678 0 91.5488C0 90.4834 0.272511 90.1428 1.35767 90.1769C3.79077 90.2596 6.22387 90.2547 8.65696 90.1769C14.1396 90.032 19.605 89.4988 25.0122 88.5812C31.3287 87.4361 37.5542 85.8362 43.64 83.794C45.1729 83.3075 46.6717 82.7092 48.1899 82.1594V89.0871L47.932 89.165C47.6528 89.1834 47.3759 89.2274 47.1048 89.2963C40.8068 91.6393 34.3167 93.4299 27.7081 94.6478C21.1773 95.8331 14.5631 96.5017 7.92703 96.6473C6.83701 96.6813 6.46718 96.9294 6.46718 98.0776C6.70075 107.063 6.80295 116.054 7.10952 125.039C7.19785 128.719 7.54583 132.388 8.15088 136.019C10.1363 147.33 15.3918 157.08 23.0074 165.574C28.717 171.853 35.5432 177.018 43.1388 180.806C44.7009 181.604 46.3311 182.266 47.932 182.981C48.0419 183.483 48.1182 183.992 48.1607 184.504C48.1899 186.304 48.1607 188.099 48.1607 189.899L44.7446 188.668L40.6668 187.209Z" fill="#FBFDFC"/>
<path d="M48.1948 189.879C48.1948 188.079 48.1948 186.284 48.1948 184.484C48.1523 183.972 48.0759 183.463 47.9661 182.961C47.9805 182.92 47.9805 182.876 47.9661 182.835C48.5771 182.646 49.1766 182.422 49.7617 182.164C56.3031 178.933 62.4466 174.952 68.0683 170.303C72.0511 167.038 75.5882 163.264 78.589 159.079C82.5306 153.485 84.6377 147.112 86.4236 140.617C88.1559 134.292 88.6961 127.812 89.1681 121.308C89.7375 113.427 89.7423 105.54 89.572 97.6495C89.572 96.9148 89.3044 96.6765 88.5696 96.6765C82.1673 96.8242 75.7658 96.3501 69.4552 95.2608C62.1496 94.0149 55.0133 91.9252 48.1899 89.0336V82.1254C48.4663 82.1636 48.7396 82.2221 49.0074 82.3005C52.8777 83.7405 56.7463 85.1822 60.6133 86.6255C61.4357 86.9319 62.2824 87.1703 63.1145 87.4428L67.1048 88.1774C68.4771 88.4644 69.8347 88.8341 71.2216 89.0142C74.5306 89.4423 77.8396 89.8704 81.1632 90.1234C83.3579 90.2888 85.572 90.1866 87.7812 90.1477C90.117 90.1136 92.4577 89.9823 94.7934 89.9823C95.0757 89.9823 95.5769 90.532 95.6012 90.8531C95.7569 92.9402 95.791 95.037 95.8981 97.1338C95.9481 97.6482 96.0244 98.1596 96.1268 98.6662V100.612C96.1268 102.558 96.1268 104.48 96.1268 106.416C96.1268 107.063 96.1268 107.715 96.1268 108.362C96.0489 110.308 95.9418 112.254 95.9078 114.171C95.9347 114.85 96.0079 115.526 96.1268 116.195C96.044 116.91 95.9662 117.62 95.8835 118.33C95.4779 122.715 95.0757 127.094 94.6767 131.466C94.5112 132.526 94.349 133.587 94.19 134.647C94.1365 135.08 94.083 135.509 94.0246 135.942C93.9175 136.808 93.8007 137.669 93.6888 138.535L92.9589 141.687C92.8223 141.929 92.702 142.179 92.5988 142.436C91.7229 145.127 90.8956 147.827 89.9856 150.502C89.3238 152.448 88.5647 154.36 87.8494 156.287C87.2816 157.338 86.7139 158.388 86.1462 159.439L83.7131 162.845L81.5233 166.25C81.1947 166.455 80.8809 166.683 80.5841 166.931C77.6304 169.787 74.7155 172.687 71.7277 175.508C70.3262 176.832 68.808 178.009 67.3043 179.249L63.7958 181.857C61.4697 183.102 59.1291 184.29 56.8371 185.613C56.3293 186 55.8774 186.455 55.4941 186.965C54.623 187.252 53.7325 187.481 52.8907 187.831C51.3091 188.464 49.7568 189.189 48.1948 189.879Z" fill="#E4E4E3"/>
<path d="M48.1947 189.879C49.7567 189.189 51.3091 188.464 52.8906 187.812C53.7324 187.461 54.6229 187.233 55.494 186.946C56.5743 186.873 57.6546 186.751 58.7349 186.732C61.0317 186.698 63.3334 186.761 65.6303 186.683C66.1461 186.683 66.6522 186.245 67.1582 186.012C70.5062 188.79 74.3943 189.709 78.6863 189.646C85.4551 189.544 92.224 189.646 98.9978 189.646C107.343 189.699 115.689 189.797 124.034 189.879C131.042 189.947 138.054 189.977 145.061 190.113C148.896 190.191 152.36 189.227 155.373 186.863C155.6 186.705 155.839 186.565 156.088 186.445C158.064 186.532 160.039 186.63 162.02 186.698C164.969 186.789 167.918 186.868 170.867 186.936C174.833 187.029 178.794 187.101 182.76 187.179C183.465 187.953 184.171 188.722 184.871 189.495C185.188 190.162 185.451 189.816 185.743 189.466C186.434 188.624 187.139 187.792 187.84 186.96C188.134 187.169 188.464 187.322 188.813 187.413C191.966 187.525 195.139 187.5 198.268 187.705C203.052 188.011 207.83 188.464 212.604 188.882C213.889 188.994 215.164 189.184 216.434 189.369C216.883 189.489 217.319 189.652 217.738 189.855L217.772 190.298C217.228 190.51 216.666 190.673 216.093 190.784C212.769 191.149 209.446 191.533 206.112 191.757C201.684 192.073 197.251 192.302 192.818 192.497C188.015 192.706 183.207 192.842 178.399 192.983C174.964 193.085 171.528 193.158 168.088 193.226C163.871 193.321 159.665 193.402 155.47 193.47C149.723 193.562 143.976 193.674 138.229 193.708C122.148 193.812 106.065 193.888 89.9807 193.937C83.786 193.937 77.5914 193.796 71.4016 193.703C67.0707 193.64 62.7446 193.567 58.4137 193.46C52.8792 193.321 47.3447 193.158 41.8103 192.973C37.6935 192.837 33.5718 192.686 29.4599 192.487C25.4696 192.288 21.4793 192.069 17.5036 191.743C14.7737 191.519 12.0632 191.115 9.34788 190.77C8.83125 190.654 8.3263 190.491 7.83936 190.283V189.87C8.54354 189.576 9.27331 189.348 10.0194 189.189C12.5352 188.872 15.0608 188.576 17.5912 188.405C22.1411 188.104 26.7007 187.919 31.2506 187.651L40.6813 187.165L44.7592 188.624L48.1947 189.879Z" fill="#BCD8F0"/>
<path d="M67.3091 179.288C68.769 178.048 70.331 176.856 71.7325 175.547C74.7203 172.726 77.6352 169.826 80.589 166.97C80.8857 166.722 81.1995 166.494 81.5281 166.289C81.9834 166.403 82.4472 166.48 82.915 166.518C94.5452 166.518 106.177 166.518 117.81 166.518C118.413 166.554 119.017 166.463 119.582 166.25C119.794 166.131 119.979 165.969 120.124 165.773C120.269 165.578 120.371 165.354 120.424 165.117C120.633 163.755 120.21 163.37 118.716 163.37C107.491 163.37 96.2662 163.37 85.0415 163.37C84.5768 163.281 84.1297 163.117 83.7179 162.884L86.151 159.478H118.604C119.956 159.478 120.453 159.026 120.467 157.829C120.467 156.545 120.205 156.316 118.604 156.316H87.8493C88.5647 154.37 89.3092 152.478 89.9856 150.532C90.8956 147.856 91.7228 145.156 92.5987 142.465C92.7019 142.208 92.8222 141.958 92.9588 141.716C101.588 141.716 110.218 141.716 118.847 141.716C119.952 141.716 120.511 141.371 120.472 140.184C120.429 138.807 120.229 138.539 118.847 138.539H93.6888C93.8007 137.674 93.9175 136.812 94.0245 135.946C94.0829 135.513 94.1365 135.085 94.19 134.652H118.842C120.214 134.652 120.574 134.249 120.458 132.901C120.356 131.748 119.621 131.485 118.599 131.485C110.625 131.485 102.651 131.485 94.6766 131.485C95.0756 127.107 95.4779 122.728 95.8834 118.35H144.258C144.497 118.35 144.745 118.35 144.983 118.316C147.684 118.097 150.064 115.976 150.307 113.344C150.566 110.403 150.632 107.449 150.506 104.499C150.385 101.094 147.022 98.5836 144.38 98.603C128.321 98.6954 112.209 98.6517 96.1267 98.6517C96.0244 98.1451 95.948 97.6336 95.898 97.1192C95.791 95.0224 95.7569 92.9256 95.6012 90.8385C95.6012 90.5175 95.0756 89.9677 94.7934 89.9677C92.4576 89.9677 90.117 90.0991 87.7812 90.1331C85.5719 90.172 83.3578 90.2742 81.1632 90.1088C77.8396 89.8558 74.5306 89.4277 71.2215 88.9996C69.8347 88.8196 68.477 88.4499 67.1047 88.1628C67.2118 74.9139 67.3221 61.6634 67.4356 48.4112C67.5232 37.2218 67.5865 26.0324 67.6887 14.843C67.7471 8.42126 72.2094 4.00388 78.6376 4.0428C89.499 4.10118 100.367 4.18388 111.241 4.29091C120 4.3655 128.759 4.44335 137.519 4.52443C141.003 4.55849 144.487 4.59741 147.971 4.68497C150.575 4.77238 153.045 5.85961 154.867 7.72064C156.69 9.58167 157.725 12.0733 157.757 14.6776C157.679 30.972 157.569 47.2663 157.426 63.5607C157.345 74.5036 157.262 85.4465 157.178 96.3895C157.105 105.424 157.008 114.463 156.935 123.502C156.847 134.529 156.764 145.556 156.687 156.584C156.633 162.908 156.555 169.232 156.502 175.557C156.453 181.585 151.976 186.065 145.908 186.036C137.922 186.002 129.937 185.88 121.952 185.822C114.574 185.769 107.192 185.764 99.8153 185.71C92.1948 185.661 84.5744 185.647 76.9442 185.486C72.5257 185.399 69.168 183.448 67.3091 179.288ZM151.275 162.319C151.188 161.322 151.1 160.33 151.017 159.332L150.808 159.036L147.728 156.452L147.241 156.326H145.295L144.808 156.443L143.212 157.124C141.037 157.187 138.866 157.236 136.691 157.328C136.333 157.371 135.986 157.482 135.669 157.654C134.239 158.32 133.971 159.566 133.776 161.02C133.397 163.828 135.455 165.482 137.183 165.55C139.129 165.618 141.076 165.525 143.022 165.501L143.854 165.905C144.998 167.038 146.988 167.16 148.049 166.158L150.239 164.621L150.657 164.071L150.905 163.613L151.275 162.319ZM147.227 141.736L147.713 141.57C148.444 141.332 149.112 140.935 149.669 140.406C150.226 139.877 150.658 139.231 150.934 138.514C151.209 137.797 151.321 137.028 151.262 136.262C151.202 135.496 150.972 134.754 150.589 134.088C149.042 131.471 145.757 130.765 142.94 132.556C141.158 132.531 139.377 132.414 137.587 132.531C136.673 132.581 135.79 132.879 135.032 133.392C133.665 134.39 133.261 137.284 134.146 138.938C134.375 139.447 134.777 139.857 135.28 140.096C136.459 140.442 137.674 140.65 138.901 140.714C140.136 140.718 141.371 140.648 142.599 140.505L144.545 141.565L145.032 141.745L147.227 141.736ZM125.358 50.1286C125.358 49.321 125.358 48.5085 125.314 47.6961C125.231 44.4998 125.45 41.2549 124.983 38.117C123.893 30.8195 116.492 25.9838 109.28 27.6087C106.334 28.2169 103.687 29.8211 101.785 32.1514C99.8832 34.4817 98.8421 37.3959 98.8372 40.4035C98.7837 43.6484 98.8129 46.8885 98.808 50.1334C96.7739 50.688 96.1316 51.5005 96.1365 53.5681C96.1365 60.259 96.1446 66.9451 96.1608 73.6263C96.1608 75.8674 97.2735 76.9896 99.499 76.9929C107.849 76.9929 116.198 76.9929 124.545 76.9929C127.017 76.9929 128.01 75.9858 128.01 73.5144C128.01 66.83 128.01 60.1439 128.01 53.4562C128 51.4129 127.3 50.5664 125.358 50.1286Z" fill="#FDFDFD"/>
<path d="M67.173 186.012C66.6864 186.245 66.1609 186.669 65.645 186.683C63.3482 186.761 61.0465 186.683 58.7497 186.732C57.6694 186.732 56.5891 186.873 55.5088 186.946C55.8921 186.435 56.344 185.98 56.8518 185.593C59.1438 184.294 61.4845 183.083 63.8105 181.838L67.173 186.012Z" fill="#DDEBF9"/>
<path d="M47.9515 182.961C46.3505 182.241 44.7203 181.585 43.1583 180.787C35.5627 176.999 28.7365 171.834 23.0268 165.555C15.4113 157.046 10.1558 147.316 8.17036 136C7.56531 132.369 7.21732 128.7 7.12898 125.02C6.82241 116.034 6.72023 107.044 6.48666 98.0581C6.45746 96.91 6.83702 96.6619 7.94652 96.6278C14.5825 96.4823 21.1967 95.8137 27.7276 94.6283C34.3362 93.4105 40.8262 91.6199 47.1242 89.2769C47.3951 89.2072 47.6722 89.1648 47.9515 89.1504C48.0391 90.4201 48.1997 91.6899 48.1997 92.9645C48.2191 104.423 48.2191 115.882 48.1997 127.34C48.2418 127.848 48.3198 128.352 48.4332 128.848L42.8079 136.078C40.4673 133.645 38.2677 131.359 36.1364 129.033C35.4162 128.25 34.8906 128.231 34.151 128.955C32.3261 130.741 30.4527 132.478 28.6084 134.244C28.3918 134.484 28.1887 134.735 28.0001 134.998C33.168 140.466 38.2678 145.871 43.4211 151.329L47.859 145.978C48.0122 146.388 48.1184 146.814 48.1753 147.248C48.2143 148.809 48.1753 150.376 48.1753 151.938C48.1753 161.178 48.1753 170.421 48.1753 179.668C48.1753 180.728 48.0245 181.794 47.9466 182.854C47.9585 182.889 47.9602 182.926 47.9515 182.961Z" fill="#386F8E"/>
<path d="M48.4331 128.829C48.3197 128.332 48.2417 127.828 48.1995 127.321C48.1995 115.859 48.1995 104.4 48.1995 92.945C48.1995 91.6704 48.0389 90.4007 47.9514 89.1309L48.2093 89.0482C55.0327 91.9398 62.1689 94.0295 69.4745 95.2754C75.781 96.3573 82.1775 96.8249 88.5743 96.6716C89.3091 96.6716 89.5476 96.91 89.5768 97.6446C89.7471 105.536 89.7422 113.422 89.1729 121.303C88.6863 127.807 88.1607 134.302 86.4284 140.612C84.6425 147.107 82.5354 153.48 78.5938 159.074C75.593 163.26 72.0559 167.033 68.0731 170.298C62.4513 174.948 56.3079 178.928 49.7664 182.159C49.175 182.418 48.569 182.642 47.9514 182.83C48.0292 181.769 48.1801 180.704 48.1801 179.644C48.1995 170.4 48.1995 161.157 48.1801 151.913C48.1801 150.352 48.1801 148.785 48.1801 147.223C48.1231 146.79 48.017 146.364 47.8638 145.954C48.1606 145.521 48.4331 145.068 48.7543 144.66C55.1452 136.551 61.5442 128.443 67.9514 120.335C68.438 119.693 68.404 119.313 67.8006 118.846C65.6643 117.177 63.5426 115.484 61.4015 113.816C61.1635 113.671 60.9107 113.552 60.6473 113.461C60.2969 113.894 59.9903 114.263 59.674 114.643L48.4331 128.829Z" fill="#2A5978"/>
<path d="M96.1316 106.45C96.1316 104.504 96.1316 102.558 96.1316 100.646C111.703 100.646 127.275 100.656 142.847 100.675C143.695 100.67 144.539 100.778 145.358 100.997C146.225 101.237 146.991 101.75 147.546 102.458C148.1 103.166 148.413 104.033 148.438 104.932C148.497 107.243 148.502 109.554 148.438 111.865C148.365 114.429 146.73 116.058 144.166 116.243C143.158 116.321 142.146 116.38 141.134 116.38C131.077 116.38 121.021 116.38 110.964 116.38C106.025 116.38 101.081 116.282 96.1413 116.224C96.0225 115.555 95.9493 114.879 95.9224 114.2C95.9564 112.254 96.0635 110.308 96.1413 108.391C98.3117 108.805 98.3944 108.985 97.2703 110.824L97.1438 111.033C97.0558 111.131 96.9923 111.249 96.9586 111.376C96.9249 111.503 96.922 111.637 96.95 111.766C96.978 111.894 97.0362 112.015 97.1198 112.116C97.2034 112.218 97.31 112.299 97.4309 112.351C97.9759 112.726 98.336 112.745 98.7545 112.225C99.173 111.704 99.7277 111.106 100.18 110.59L102.355 112.78C103.553 112.132 103.626 111.432 102.998 110.493C102.156 109.238 102.229 109.087 103.587 108.44C103.806 108.338 104.098 108.309 104.239 108.148C104.479 107.907 104.639 107.598 104.696 107.263C104.74 106.08 103.947 106.319 103.212 106.455C101.353 106.786 101.324 106.781 101.265 104.889C101.265 104.149 101.027 103.779 100.214 103.76C99.4017 103.74 99.3384 104.159 99.2849 104.811C99.1292 106.713 99.0951 106.708 97.1243 106.465C96.7939 106.442 96.4625 106.437 96.1316 106.45ZM110.054 109.228C109.801 109.715 109.63 110.143 109.407 110.517C108.55 111.952 108.54 111.948 110.141 112.745C110.511 112.308 110.901 111.855 111.275 111.393C111.806 110.731 112.292 110.736 112.862 111.393C113.28 111.879 113.786 112.259 114.438 112.852C114.711 112.527 115.319 112.089 115.256 111.807C114.978 110.903 114.625 110.024 114.2 109.179C114.555 109.009 114.935 108.8 115.329 108.639C116.745 108.075 116.828 107.871 116.137 106.343L115.455 106.46C113.407 106.781 113.441 106.776 113.11 104.684C113.044 104.486 112.93 104.307 112.777 104.165C112.623 104.023 112.437 103.922 112.234 103.872C112.028 103.905 111.832 103.986 111.663 104.108C111.494 104.231 111.356 104.391 111.261 104.577C111.003 105.19 111.168 106.207 110.774 106.479C110.38 106.752 109.407 106.421 108.716 106.513C108.503 106.55 108.301 106.631 108.122 106.753C107.944 106.875 107.795 107.034 107.684 107.219C107.587 107.438 107.927 108.007 108.219 108.226C108.806 108.599 109.419 108.929 110.054 109.213V109.228ZM126.064 112.716C127.46 111.894 127.48 111.831 126.784 110.61C125.927 109.106 125.927 109.106 127.484 108.425C127.63 108.357 127.83 108.328 127.918 108.216C128.127 107.934 128.458 107.584 128.404 107.316C128.358 107.136 128.27 106.968 128.148 106.828C128.025 106.688 127.871 106.578 127.699 106.509C127.261 106.455 126.817 106.5 126.399 106.64C125.528 106.835 124.939 106.718 125.047 105.618C125.079 105.214 125.002 104.809 124.823 104.446C124.672 104.169 124.278 103.823 124.02 103.843C123.831 103.871 123.652 103.943 123.495 104.053C123.339 104.163 123.211 104.307 123.119 104.475C122.881 105.137 123.047 106.212 122.633 106.484C122.146 106.82 121.173 106.421 120.448 106.484C120.253 106.528 120.072 106.617 119.918 106.745C119.765 106.872 119.645 107.035 119.567 107.219C119.568 107.407 119.613 107.593 119.697 107.762C119.782 107.931 119.904 108.078 120.054 108.192C120.602 108.541 121.176 108.847 121.772 109.106C121.859 110.396 119.338 111.636 121.883 112.702C122.574 112.074 123.241 110.994 123.918 110.984C124.594 110.975 125.319 112.05 126.054 112.702L126.064 112.716ZM138.127 109.116C138.613 108.858 139.197 108.513 139.811 108.231C140.424 107.949 140.584 107.336 140.151 106.98C139.668 106.652 139.078 106.521 138.502 106.616C137.558 106.766 136.876 106.835 136.974 105.555C136.974 105.244 136.798 104.927 136.789 104.611C136.789 103.536 135.927 103.638 135.436 103.901C135.076 104.096 134.891 104.825 134.837 105.336C134.696 106.796 134.584 106.966 133.168 106.586C131.995 106.27 131.402 106.625 131.222 107.876C131.845 108.172 132.438 108.493 133.066 108.751C133.694 109.009 133.854 109.394 133.485 110.06C133.115 110.727 131.976 111.335 132.998 112.201C134.02 113.067 134.55 111.889 135.115 111.339C135.679 110.79 136.2 110.785 136.706 111.417C137.076 111.879 137.455 112.332 137.82 112.775C140.594 111.636 137.835 110.396 138.127 109.102V109.116Z" fill="#FCFDFB"/>
<path d="M96.1268 116.214C101.066 116.273 106.01 116.36 110.949 116.37C121.006 116.396 131.063 116.396 141.12 116.37C142.132 116.37 143.144 116.311 144.151 116.234C146.716 116.044 148.351 114.414 148.424 111.855C148.492 109.544 148.487 107.233 148.424 104.923C148.398 104.024 148.086 103.156 147.531 102.448C146.977 101.74 146.21 101.228 145.344 100.987C144.525 100.768 143.68 100.66 142.833 100.666C127.261 100.64 111.689 100.63 96.1171 100.637V98.6906C112.176 98.6906 128.288 98.7344 144.37 98.642C147.013 98.642 150.375 101.109 150.497 104.538C150.623 107.488 150.556 110.442 150.297 113.383C150.054 116.015 147.674 118.136 144.974 118.355C144.73 118.355 144.487 118.389 144.249 118.389H95.8738C95.9662 117.64 96.0441 116.929 96.1268 116.214Z" fill="#F1C873"/>
<path d="M83.7181 162.884C84.1299 163.117 84.5769 163.281 85.0417 163.37C96.2631 163.399 107.488 163.399 118.716 163.37C120.21 163.37 120.633 163.755 120.424 165.117C120.371 165.354 120.269 165.578 120.124 165.773C119.979 165.969 119.794 166.131 119.582 166.25C119.017 166.463 118.413 166.554 117.811 166.518C106.18 166.518 94.5486 166.518 82.9152 166.518C82.4474 166.48 81.9836 166.403 81.5283 166.289L83.7181 162.884Z" fill="#E6EBF5"/>
<path d="M87.8494 156.316H118.599C120.2 156.316 120.477 156.545 120.463 157.829C120.463 159.026 119.976 159.478 118.599 159.478H86.1511C86.7124 158.421 87.2785 157.367 87.8494 156.316Z" fill="#E6EBF5"/>
<path d="M93.6889 138.559H118.847C120.229 138.559 120.429 138.827 120.472 140.203C120.511 141.39 119.952 141.736 118.847 141.736C110.218 141.713 101.588 141.713 92.959 141.736L93.6889 138.559Z" fill="#E6EBF5"/>
<path d="M94.6766 131.495C102.654 131.495 110.628 131.495 118.599 131.495C119.621 131.495 120.355 131.758 120.458 132.911C120.574 134.258 120.214 134.662 118.842 134.662H94.1899C94.3457 133.611 94.5079 132.556 94.6766 131.495Z" fill="#E6EBF5"/>
<path d="M96.1316 106.45C96.4564 106.444 96.7812 106.456 97.1048 106.484C99.0513 106.728 99.1097 106.732 99.2654 104.83C99.3189 104.178 99.3822 103.76 100.195 103.779C101.007 103.799 101.222 104.169 101.246 104.908C101.309 106.8 101.338 106.805 103.192 106.475C103.927 106.338 104.72 106.1 104.677 107.282C104.619 107.617 104.46 107.927 104.219 108.168C104.078 108.328 103.786 108.357 103.567 108.459C102.209 109.106 102.136 109.257 102.978 110.512C103.606 111.451 103.533 112.152 102.336 112.799L100.161 110.61C99.7082 111.125 99.1875 111.67 98.735 112.244C98.2824 112.818 97.9564 112.731 97.4114 112.371C97.2906 112.318 97.1839 112.238 97.1003 112.136C97.0167 112.034 96.9585 111.914 96.9305 111.785C96.9024 111.656 96.9054 111.523 96.9391 111.395C96.9728 111.268 97.0362 111.15 97.1243 111.052L97.2508 110.843C98.3749 108.99 98.2921 108.81 96.1218 108.411C96.1267 107.735 96.1316 107.083 96.1316 106.45Z" fill="#D5E1F4"/>
<path d="M125.358 50.1286C127.304 50.5664 127.986 51.4129 127.986 53.4367C127.986 60.1212 127.986 66.8073 127.986 73.495C127.986 75.9664 127.012 76.9686 124.521 76.9734C116.171 76.9734 107.822 76.9734 99.4746 76.9734C97.2524 76.9734 96.1397 75.8512 96.1364 73.6069C96.1364 66.9224 96.1283 60.2363 96.1121 53.5486C96.1121 51.481 96.7496 50.6686 98.7836 50.114H102.677L121.475 49.9875L125.358 50.1286ZM110.448 66.2656C110.531 69.5689 109.908 69.1506 112.793 69.2138C113.557 69.2138 113.917 68.9608 113.888 68.1581C113.849 67.2289 113.888 66.2948 113.888 65.3656C113.835 64.8957 113.884 64.4198 114.032 63.9705C114.179 63.5213 114.423 63.1093 114.745 62.7629C116.059 61.352 115.796 59.4888 114.351 58.1266C113.736 57.5914 112.952 57.2906 112.138 57.2772C111.323 57.2639 110.53 57.5389 109.898 58.0536C108.686 59.0752 108.219 61.3082 109.27 62.432C109.748 62.9376 110.103 63.5464 110.307 64.2113C110.511 64.8761 110.56 65.5791 110.448 66.2656Z" fill="#F4C260"/>
<path d="M125.358 50.1286L121.465 50.0215C121.465 46.7426 121.465 43.4636 121.421 40.1846C121.319 35.1396 117.071 31.1941 111.859 31.2185C109.458 31.2589 107.164 32.2245 105.457 33.9139C103.75 35.6033 102.761 37.8862 102.696 40.2867C102.667 43.5657 102.696 46.8496 102.696 50.1286H98.8032C98.8032 46.8836 98.8032 43.6436 98.8324 40.3986C98.8454 37.3962 99.8907 34.4895 101.793 32.1661C103.695 29.8427 106.339 28.2439 109.28 27.6378C116.492 26.013 123.879 30.8341 124.983 38.1462C125.47 41.2841 125.232 44.529 125.314 47.7253C125.339 48.5085 125.343 49.321 125.358 50.1286Z" fill="#79D0BD"/>
<path d="M144.545 141.541L142.599 140.505L142.137 139.989C141.849 139.469 141.591 138.933 141.363 138.384C140.75 136.686 141.246 135.09 141.893 133.519L142.944 132.58C145.762 130.79 149.047 131.495 150.594 134.112C150.977 134.778 151.207 135.521 151.267 136.286C151.326 137.052 151.214 137.821 150.939 138.538C150.663 139.255 150.231 139.901 149.674 140.43C149.117 140.959 148.449 141.357 147.718 141.595L147.232 141.76H145.037L144.545 141.541Z" fill="#7BA0DB"/>
<path d="M143.786 165.885L142.954 165.482L141.898 164.548C141.386 163.55 141.121 162.444 141.127 161.323C141.132 160.202 141.406 159.099 141.927 158.106L143.173 157.104L144.769 156.423L145.256 156.306H147.202L147.689 156.433L150.769 159.016C150.837 159.113 150.91 159.211 150.978 159.313C151.061 160.286 151.149 161.303 151.236 162.3L150.798 163.575L150.55 164.032C150.414 164.217 150.273 164.397 150.132 164.582L147.942 166.119L143.786 165.885Z" fill="#7BA0DB"/>
<path d="M143.173 157.104L141.927 158.106C140.468 158.077 139.008 158.004 137.548 158.043C136.2 158.082 135.144 158.671 134.662 160.023C134.18 161.376 134.555 163.185 135.523 163.944C135.954 164.296 136.479 164.513 137.032 164.567C138.648 164.63 140.268 164.567 141.898 164.567L142.954 165.501C141.008 165.501 139.061 165.618 137.115 165.55C135.397 165.482 133.339 163.827 133.708 161.02C133.903 159.561 134.195 158.32 135.601 157.654C135.918 157.482 136.265 157.371 136.623 157.328C138.828 157.216 140.998 157.167 143.173 157.104Z" fill="#DDEBF9"/>
<path d="M142.146 139.965L142.599 140.505C141.38 140.655 140.153 140.733 138.925 140.738C137.698 140.674 136.483 140.467 135.305 140.121C134.801 139.882 134.399 139.471 134.171 138.963C133.285 137.313 133.684 134.414 135.056 133.417C135.814 132.903 136.697 132.605 137.611 132.556C139.382 132.439 141.163 132.556 142.964 132.58L141.913 133.519C140.453 133.519 138.993 133.475 137.533 133.47C135.942 133.47 134.73 134.385 134.565 135.708C134.268 138.043 135.008 139.6 136.837 139.834C138.589 140.043 140.38 139.926 142.146 139.965Z" fill="#DDEBF9"/>
<path d="M143.786 165.885L147.981 166.138C146.92 167.141 144.93 167.019 143.786 165.885Z" fill="#D5E1F4"/>
<path d="M150.837 163.594L151.275 162.319L150.837 163.594Z" fill="#D5E1F4"/>
<path d="M144.545 141.541L145.032 141.721L144.545 141.541Z" fill="#DDEBF9"/>
<path d="M147.227 141.736L147.713 141.57L147.227 141.736Z" fill="#DDEBF9"/>
<path d="M145.271 156.306L144.784 156.423L145.271 156.306Z" fill="#DDEBF9"/>
<path d="M147.728 156.452L147.241 156.326L147.728 156.452Z" fill="#DDEBF9"/>
<path d="M150.171 164.601C150.312 164.416 150.453 164.236 150.589 164.051C150.453 164.236 150.312 164.416 150.171 164.601Z" fill="#D5E1F4"/>
<path d="M151.017 159.332C150.949 159.23 150.876 159.133 150.808 159.036L151.017 159.332Z" fill="#D5E1F4"/>
<path d="M48.4331 128.829L59.6838 114.662C59.9855 114.283 60.2921 113.913 60.657 113.48C60.9204 113.571 61.1733 113.69 61.4113 113.835C63.5524 115.504 65.6741 117.197 67.8103 118.866C68.4137 119.352 68.4673 119.712 67.9612 120.354C61.541 128.44 55.142 136.548 48.764 144.679C48.4429 145.088 48.1704 145.54 47.8735 145.973L43.4356 151.325C38.2677 145.856 33.1679 140.466 28 134.998C28.1886 134.735 28.3917 134.484 28.6083 134.244C30.4526 132.478 32.3261 130.741 34.1509 128.955C34.8905 128.231 35.4161 128.25 36.1363 129.033C38.2677 131.359 40.4672 133.621 42.8078 136.078L48.4331 128.829Z" fill="#FAFCFC"/>
<path d="M110.054 109.213C109.414 108.92 108.796 108.58 108.205 108.197C107.913 107.978 107.572 107.409 107.669 107.19C107.78 107.005 107.93 106.846 108.108 106.724C108.286 106.602 108.488 106.52 108.701 106.484C109.392 106.392 110.292 106.771 110.759 106.45C111.227 106.129 110.993 105.161 111.246 104.548C111.341 104.362 111.479 104.202 111.648 104.079C111.817 103.956 112.013 103.875 112.219 103.843C112.422 103.893 112.609 103.994 112.762 104.136C112.915 104.278 113.03 104.457 113.095 104.655C113.426 106.747 113.392 106.752 115.441 106.431L116.122 106.314C116.813 107.842 116.73 108.046 115.314 108.61C114.92 108.771 114.54 108.98 114.185 109.15C114.61 109.995 114.964 110.874 115.241 111.777C115.304 112.06 114.696 112.497 114.424 112.823C113.772 112.23 113.265 111.85 112.847 111.364C112.278 110.722 111.791 110.717 111.261 111.364C110.886 111.826 110.497 112.278 110.127 112.716C108.526 111.918 108.536 111.923 109.392 110.488C109.63 110.128 109.801 109.719 110.054 109.213Z" fill="#D5E1F4"/>
<path d="M126.054 112.702C125.309 112.05 124.623 110.979 123.947 110.989C123.27 110.999 122.604 112.079 121.913 112.706C119.358 111.641 121.913 110.401 121.801 109.111C121.205 108.851 120.631 108.546 120.083 108.197C119.933 108.083 119.811 107.936 119.726 107.767C119.642 107.598 119.598 107.412 119.596 107.224C119.674 107.04 119.794 106.877 119.948 106.749C120.101 106.622 120.282 106.532 120.477 106.489C121.212 106.411 122.156 106.81 122.662 106.489C123.076 106.217 122.91 105.142 123.149 104.48C123.24 104.312 123.368 104.168 123.525 104.058C123.681 103.948 123.86 103.876 124.049 103.847C124.307 103.847 124.701 104.173 124.852 104.451C125.031 104.814 125.108 105.219 125.076 105.623C124.988 106.723 125.562 106.839 126.429 106.645C126.846 106.504 127.29 106.46 127.728 106.513C127.901 106.583 128.054 106.693 128.177 106.833C128.3 106.973 128.387 107.14 128.433 107.321C128.472 107.589 128.141 107.939 127.947 108.221C127.859 108.333 127.66 108.362 127.514 108.43C125.957 109.111 125.957 109.111 126.813 110.615C127.48 111.802 127.46 111.879 126.054 112.702Z" fill="#D5E1F4"/>
<path d="M138.127 109.102C137.835 110.396 140.594 111.636 137.835 112.76C137.47 112.317 137.09 111.865 136.721 111.403C136.234 110.77 135.747 110.707 135.129 111.325C134.511 111.943 134.088 113.101 133.012 112.186C131.937 111.271 133.144 110.697 133.499 110.045C133.854 109.393 133.762 109.024 133.081 108.737C132.399 108.45 131.859 108.158 131.236 107.861C131.397 106.611 131.991 106.256 133.183 106.572C134.599 106.951 134.711 106.781 134.852 105.322C134.905 104.811 135.09 104.081 135.45 103.886C135.937 103.619 136.779 103.521 136.803 104.597C136.803 104.913 137.012 105.229 136.988 105.54C136.891 106.82 137.572 106.752 138.516 106.601C139.092 106.507 139.683 106.637 140.166 106.966C140.599 107.321 140.472 107.915 139.825 108.216C139.178 108.518 138.613 108.844 138.127 109.102Z" fill="#D5E1F4"/>
<path d="M102.696 50.148C102.696 46.869 102.652 43.5852 102.696 40.3062C102.756 37.8948 103.749 35.6007 105.466 33.906C107.183 32.2112 109.49 31.2479 111.903 31.2184C117.115 31.1941 121.363 35.1396 121.465 40.1846C121.533 43.4636 121.499 46.7425 121.509 50.0215L102.696 50.148Z" fill="#FCFDFB"/>
<path d="M110.448 66.2656C110.557 65.5787 110.506 64.876 110.299 64.212C110.092 63.548 109.735 62.9405 109.256 62.4369C108.205 61.3082 108.672 59.0752 109.883 58.0584C110.515 57.5437 111.308 57.2687 112.123 57.2821C112.938 57.2954 113.722 57.5963 114.336 58.1314C115.796 59.4936 116.044 61.3569 114.73 62.7677C114.408 63.1141 114.165 63.5261 114.017 63.9754C113.869 64.4246 113.82 64.9005 113.874 65.3705C113.874 66.2997 113.849 67.2337 113.874 68.1629C113.903 68.9657 113.543 69.2332 112.779 69.2186C109.908 69.1505 110.531 69.5689 110.448 66.2656Z" fill="#AD8940"/>
<path d="M142.146 139.965C140.38 139.926 138.589 140.043 136.847 139.809C135.017 139.561 134.278 138.019 134.575 135.684C134.74 134.36 135.952 133.441 137.543 133.446C139.003 133.446 140.463 133.475 141.923 133.494C141.275 135.066 140.779 136.662 141.392 138.359C141.614 138.908 141.866 139.444 142.146 139.965Z" fill="#A9CDE0"/>
<path d="M141.898 164.548C140.283 164.548 138.662 164.63 137.032 164.548C136.479 164.494 135.954 164.277 135.524 163.925C134.55 163.166 134.195 161.312 134.662 160.004C135.129 158.695 136.2 158.058 137.548 158.024C139.008 157.985 140.468 158.058 141.927 158.087C141.403 159.082 141.127 160.189 141.122 161.314C141.116 162.438 141.383 163.548 141.898 164.548Z" fill="#A9CDE0"/>
<path d="M143.173 21.2307H81.5283V82.86H143.173V21.2307Z" fill="#FDFDFD"/>
<path d="M111.757 63.0061C110.938 63.0644 110.125 63.1847 109.324 63.3661C108.551 63.5403 107.792 63.7695 107.052 64.0521C101.421 66.1926 98.088 70.3765 96.8715 76.2826C96.8227 76.434 96.8169 76.5961 96.8547 76.7507C96.8925 76.9052 96.9724 77.0463 97.0855 77.1583C97.9528 77.7761 98.8563 78.3414 99.7912 78.8513C99.9372 78.934 100.078 79.0069 100.224 79.0799C100.37 79.1529 100.511 79.2307 100.657 79.3037L101.061 79.5032L101.149 79.5421L101.48 79.6978L101.601 79.7513L101.981 79.9216C105.362 81.3798 109.004 82.1378 112.687 82.1497C113.071 82.1497 113.451 82.1497 113.825 82.1205C118.213 81.9674 122.498 80.7467 126.307 78.5642C127.027 78.1458 127.733 77.6934 128.429 77.1972C128.847 76.8274 128.779 76.5307 128.536 75.5042C127.686 71.7644 125.53 68.4505 122.454 66.1592C119.378 63.868 115.584 62.7498 111.757 63.0061Z" fill="#FDFDFD"/>
<path d="M139.83 51.4761C139.828 51.4437 139.828 51.4112 139.83 51.3788C139.382 49.4328 139.12 47.4528 138.404 45.6285C136.399 40.53 133.538 36.4726 129.81 33.505C129.674 33.4567 129.543 33.3931 129.421 33.3153C127.747 32.2693 126.146 31.0433 124.351 30.2601C122.99 29.6632 121.592 29.1561 120.166 28.7422C118.768 28.3691 117.347 28.0896 115.913 27.9054C113.227 27.5394 110.501 27.587 107.83 28.0465H107.801C103.444 28.9405 99.3599 30.8527 95.8834 33.6266C95.3676 34.0207 94.8664 34.4293 94.3895 34.8526C91.1996 37.693 88.7452 41.2635 87.2362 45.2587C87.2362 45.2928 87.2362 45.322 87.2021 45.356C86.4421 47.5139 85.9517 49.7574 85.7422 52.0356C85.5983 53.4676 85.5528 54.9078 85.606 56.346C85.7868 61.6416 87.6022 66.7516 90.8031 70.9749L90.9831 71.2181C91.9208 72.437 92.9453 73.5866 94.0488 74.6577L94.5938 75.1442L94.7447 75.1977C95.4778 71.928 97.0772 68.9156 99.3751 66.4762C101.673 64.0368 104.585 62.2602 107.806 61.3326C108.636 61.1067 109.481 60.9441 110.336 60.8461C111.556 60.6904 112.788 60.6545 114.015 60.739C118.02 60.9995 121.832 62.5558 124.875 65.1729C127.917 67.79 130.026 71.3258 130.881 75.2463C130.954 75.1879 131.027 75.1442 131.09 75.0955C131.548 74.6869 131.981 74.2685 132.399 73.8355L132.57 73.6604C132.779 73.4414 132.988 73.2225 133.188 72.9987C133.387 72.7749 133.582 72.5463 133.776 72.3176L134.093 71.9333L134.248 71.7387L134.375 71.5782C134.467 71.4565 134.56 71.3398 134.647 71.2181C136.761 68.3795 138.303 65.1577 139.188 61.7315L139.217 61.6196C139.488 60.5155 139.693 59.3962 139.83 58.2676C140.108 56.0123 140.108 53.7314 139.83 51.4761ZM115.918 57.8882C114.459 58.3478 112.917 58.4807 111.402 58.2774C108.865 57.936 106.544 56.6711 104.882 54.725C103.221 52.7788 102.336 50.2882 102.397 47.7303C102.458 45.1724 103.461 42.7269 105.214 40.8624C106.967 38.9978 109.346 37.8453 111.896 37.6255C114.445 37.4058 116.987 38.1342 119.033 39.6714C121.079 41.2085 122.486 43.4463 122.984 45.956C123.482 48.4658 123.036 51.071 121.733 53.2727C120.429 55.4745 118.358 57.1179 115.918 57.8882Z" fill="#4693BD"/>
<path d="M118.156 41.9506C117.192 41.1007 116.04 40.4931 114.794 40.1783C113.548 39.8636 112.244 39.8508 110.993 40.141C109.741 40.4312 108.576 41.016 107.596 41.8468C106.615 42.6775 105.848 43.7303 105.356 44.9175C104.865 46.1046 104.664 47.3919 104.771 48.6723C104.877 49.9527 105.288 51.1892 105.969 52.2789C106.649 53.3686 107.581 54.2801 108.685 54.9376C109.789 55.595 111.034 55.9795 112.317 56.0589H112.774C114.41 56.0554 116.007 55.5552 117.352 54.6245C118.698 53.6939 119.729 52.3767 120.309 50.8472C120.89 49.3178 120.992 47.6483 120.602 46.0596C120.212 44.471 119.349 43.0381 118.127 41.9506H118.156Z" fill="#FDFDFD"/>
<path d="M182.044 117.912H184.935V53.9086H182.059L182.044 117.912Z" fill="#535461"/>
<path d="M163.942 117.455C163.936 116.922 164.038 116.393 164.24 115.9C164.442 115.407 164.741 114.96 165.12 114.584C165.887 113.821 166.923 113.388 168.005 113.378H199.091C199.631 113.406 200.16 113.54 200.648 113.772C201.632 114.241 202.389 115.081 202.755 116.107C202.936 116.612 203.012 117.148 202.979 117.683L202.799 120.568L202.541 124.645L202.434 126.343L202.176 130.425L202.083 132.118L201.83 136.199L198.94 182.509C198.815 184.505 197.926 186.376 196.458 187.734C194.981 189.102 193.041 189.862 191.027 189.86H175.942C173.927 189.862 171.985 189.102 170.507 187.734C169.038 186.378 168.148 184.508 168.02 182.514L165.1 136.233L164.842 132.152L164.735 130.454L164.497 126.397L164.39 124.699L164.132 120.617L163.952 117.732C163.957 117.639 163.954 117.547 163.942 117.455Z" fill="#C85C35"/>
<path d="M202.833 120.597L202.575 124.665H164.404L164.146 120.597H202.833Z" fill="#F4B43F"/>
<path d="M202.453 126.362L202.195 130.434H164.725L164.472 126.362H202.453Z" fill="#F4B43F"/>
<path d="M202.103 132.132L201.85 136.199H165.125L164.867 132.132H202.103Z" fill="#F4B43F"/>
<path d="M244.161 65.2343C244.161 65.2343 237.188 83.9595 220.429 95.9419C203.67 107.924 183.475 108.591 183.475 108.591C183.475 108.591 190.468 89.8558 207.222 77.8734C223.976 65.891 244.161 65.2343 244.161 65.2343Z" fill="#43999E"/>
<path d="M183.475 108.605C183.475 108.605 209.753 95.7619 216.492 86.2266C223.232 76.6912 244.181 65.2197 244.181 65.2197" stroke="#535461" stroke-width="2" stroke-miterlimit="10"/>
<path d="M216.512 46.869C216.512 46.869 212.706 57.0854 203.587 63.585C194.468 70.0846 183.475 70.4495 183.475 70.4495C183.475 70.4495 187.29 60.2331 196.409 53.7383C205.529 47.2436 216.512 46.869 216.512 46.869Z" fill="#43999E"/>
<path d="M183.475 70.4495C183.475 70.4495 197.796 63.4585 201.451 58.2871C205.105 53.1156 216.536 46.8544 216.536 46.8544" stroke="#535461" stroke-width="2" stroke-miterlimit="10"/>
<path d="M144.969 54.9935C144.969 54.9935 147.193 69.856 157.66 81.2351C168.127 92.6143 182.901 96.1997 182.901 96.1997C182.901 96.1997 180.706 81.3324 170.249 69.9581C159.791 58.5839 144.969 54.9935 144.969 54.9935Z" fill="#43999E"/>
<path d="M182.901 96.1997C182.901 96.1997 165.567 82.7286 162.098 74.6917C158.628 66.6548 144.983 54.9984 144.983 54.9984" stroke="#535461" stroke-width="2" stroke-miterlimit="10"/>
</g>
<defs>
<clipPath id="clip0_324_77894">
<rect width="244.409" height="194" fill="white"/>
</clipPath>
</defs>
</svg>
