<svg width="25" height="25" viewBox="0 0 25 25" fill="none" xmlns="http://www.w3.org/2000/svg">
    <path d="M17.639 16.645c0 1.893-.201 4.085-.802 6.178-.1.398-.2.797-.401 1.196 0 .1-.1.199-.301.199 0-.2-.1-.299-.1-.299v-.2c.4-.996.601-2.092.802-3.188.3-1.694.4-3.487.3-5.181 0-1.196-.2-2.392-.5-3.488-.502-2.092-1.905-3.288-4.01-3.686-2.005-.4-4.31.896-5.112 2.79-.3.697-.3 1.395-.2 2.192.1.896.2 1.893.3 2.79.301 2.59-.2 4.982-1.704 7.074 0 0 0 .1-.1.1-.1.1-.2.1-.3 0-.1-.1-.1-.2-.1-.299.1-.2.2-.299.3-.498.701-1.096 1.102-2.392 1.303-3.687.2-1.196.1-2.391-.1-3.587-.1-.797-.2-1.694-.2-2.491 0-1.694.7-2.99 2.104-3.986.902-.697 2.005-1.096 3.207-.996 2.105.1 4.41 1.295 5.112 4.085.401 1.495.502 3.089.502 4.982z" fill="#D75426"/>
    <path d="M14.332 17.04c0 .4 0 .798-.1 1.196 0 .2-.1.3-.3.2-.101 0-.201-.1-.201-.3v-2.291c0-1.096-.2-2.292-.401-3.388-.1-.697-.902-1.295-1.604-1.196-.802.1-1.303.798-1.303 1.595 0 .398.2.797.2 1.195.602 3.09.301 6.079-1.002 8.968-.2.399-.4.897-.701 1.296-.1.199-.2.199-.401.1-.1-.1-.2-.2-.1-.4 1.102-1.793 1.703-3.686 1.904-5.779.2-1.694 0-3.387-.401-4.982-.2-.896.2-1.893 1.002-2.291 1.103-.598 2.506.1 2.807 1.395.4 1.594.601 3.088.601 4.683zM11.726 1.498c-.701 0-1.403.1-2.104.2h-.1c-.201 0-.301-.1-.301-.2s.1-.298.2-.298c.3-.1.702-.1 1.003-.2 2.405-.299 4.61.2 6.715 1.196 3.508 1.793 5.613 4.583 6.515 8.37.2 1.096.3 2.192.401 3.288 0 .2-.1.299-.2.299-.2 0-.301-.1-.301-.299 0-1.196-.2-2.491-.501-3.687-.802-3.388-2.807-5.879-5.814-7.473-1.704-.697-3.608-1.196-5.513-1.196z" fill="#D75426"/>
    <path d="M11.926 2.596c2.707 0 5.112.996 7.017 2.79l.601.598c.2.199.2.298 0 .398-.1.1-.3.1-.401-.1-.501-.597-1.102-1.096-1.704-1.594-1.403-.897-2.806-1.494-4.51-1.694-3.007-.1-5.714.897-7.919 2.99a11.497 11.497 0 0 0-2.105 3.288v.1c-.1.099-.2.199-.3.099-.2 0-.2-.1-.2-.299.2-.398.3-.797.5-1.196C4.31 5.585 6.313 3.991 8.92 3.094c1.003-.299 2.005-.498 3.007-.498z" fill="#D75426"/>
    <path d="M.6 17.644c.2-1.096-.1-2.092-.3-3.189-.501-2.092-.2-4.184.601-6.177C2.104 5.488 4.11 3.395 6.815 2.1c.4-.2.802-.3 1.102-.399.2-.1.301 0 .301.2 0 .1 0 .298-.2.298-1.504.499-2.807 1.395-4.01 2.392C2.405 6.185 1.302 8.178.801 10.47c-.3 1.395-.3 2.69 0 4.085.2.897.4 1.794.3 2.69 0 .2 0 .3-.1.499 0 .1-.1.199-.3.199 0-.1-.1-.2-.1-.299z" fill="#D75426"/>
    <path d="M4.409 17.245c0 1.096-.1 2.092-.602 3.088-.1.2-.3.499-.4.698-.1.1-.201.2-.402.1 0-.1-.1-.3 0-.399.702-1.096.903-2.292.903-3.587 0-.997-.2-1.993-.401-2.89-.1-1.295-.2-2.59.2-3.786.802-2.59 2.406-4.384 4.911-5.48.2-.1.301 0 .401.1 0 .099 0 .298-.2.298a15.11 15.11 0 0 0-1.704.997c-1.704 1.295-2.806 2.89-3.207 4.982a8.77 8.77 0 0 0 0 2.291c.1.897.3 1.794.4 2.79.1.2.1.499.1.798z" fill="#D75426"/>
    <path d="M5.012 12.86c0-3.387 2.305-6.177 5.513-6.775 2.104-.398 4.009.1 5.713 1.395.1.1.2.2.1.3 0 .198-.2.198-.401.099-.4-.2-.702-.498-1.102-.698-2.005-.996-4.01-1.096-5.914-.1-1.905.897-3.007 2.492-3.408 4.484-.1.698-.1 1.296 0 1.993 0 .2 0 .3-.2.3-.201 0-.301-.1-.301-.3.1-.1.1-.498 0-.697z" fill="#D75426"/>
    <path d="M11.927 4.285c2.104 0 3.909.598 5.512 1.993a8.754 8.754 0 0 1 2.406 3.587c.3.897.601 1.794.702 2.79 0 .3 0 .399-.201.399-.2 0-.2-.1-.3-.3a8.94 8.94 0 0 0-.903-3.188c-.802-1.694-2.004-3.089-3.708-3.886-1.404-.697-2.807-.897-4.41-.797-.301 0-.602.1-.903.1-.1 0-.2 0-.2-.2 0-.1.1-.299.2-.299.602-.1 1.203-.199 1.805-.199zM16.037 16.743c0 1.595-.2 3.189-.601 4.783 0 .2-.2.299-.301.299-.2 0-.2-.2-.2-.398.3-1.595.6-3.289.5-4.983 0-1.295-.1-2.69-.4-3.985-.2-.797-.502-1.495-1.103-1.993-.702-.698-1.604-.897-2.506-.797h-.1c-.2 0-.3-.1-.3-.2s.1-.299.2-.299c.4-.1.802-.1 1.303 0 1.403.3 2.305 1.196 2.806 2.492.301.697.401 1.394.501 2.092.1 1.096.1 1.993.201 2.99zM10.424 9.969c-.1.1-.1.2-.2.2-.401.298-.802.597-1.003 1.095-.3.498-.3.997-.3 1.595 0 .697.2 1.395.4 2.092.301 1.694.401 3.388-.1 5.082-.1.398-.2.697-.4 1.096-.1.2-.201.2-.301.2-.2-.1-.2-.2-.1-.4.5-1.295.801-2.59.701-3.985 0-.897-.2-1.794-.4-2.69-.201-.698-.302-1.495-.201-2.292.1-.997.701-1.794 1.503-2.392h.3c0 .2 0 .3.101.399z" fill="#D75426"/>
    <path d="M12.727 17.441c0 1.495-.3 3.189-.902 4.783-.1.2-.2.299-.3.2-.1-.1-.2-.2-.1-.4.701-1.893.901-3.885.801-5.878-.2-1.196-.3-2.192-.601-3.288 0-.2 0-.3.2-.399.1 0 .301.1.301.2.3 1.593.601 3.088.601 4.782zM2.505 10.463c0 .2-.1.498-.1.698-.201 1.096-.1 2.291.1 3.387.1.698.3 1.495.3 2.192.1.997-.1 1.894-.5 2.79-.101.1-.201.2-.302.1-.1-.1-.2-.2-.1-.299.1-.398.3-.897.401-1.395.1-.697 0-1.395-.1-2.092-.1-.797-.3-1.694-.401-2.491-.1-.997 0-1.993.2-2.89 0-.2.1-.2.301-.2.1 0 .2.1.2.2zM19.244 16.144v.797c0 .2-.1.299-.2.299-.201 0-.201-.1-.201-.3 0-1.195-.1-2.49-.3-3.686-.201-1.096-.302-2.092-.803-3.089-.2-.498-.4-.897-.801-1.196-.1-.1-.1-.299 0-.398.1-.1.3-.1.4 0 .502.498.802 1.096 1.003 1.793.3.797.5 1.694.601 2.591.2.996.2 2.093.3 3.189 0 0 .101 0 0 0zM6.114 17.145c0 1.694-.501 3.289-1.403 4.783l-.1.1c-.1.1-.2.2-.401.1-.1-.1-.1-.2-.1-.4.2-.298.4-.597.5-.896.602-1.295.903-2.69.802-4.185 0-.598-.1-1.096-.2-1.694 0-.2 0-.299.2-.299.1 0 .301.1.301.2 0 .199.1.498.1.697.2.598.2 1.096.301 1.594zM20.949 16.745c0 1.495-.2 2.89-.401 4.384v.1c0 .2-.1.299-.3.299-.201 0-.201-.2-.201-.3.3-1.892.4-3.686.3-5.579 0-.399-.1-.897-.1-1.295 0-.1 0-.2.2-.3.101 0 .201 0 .302.1v.2c.1.697.2 1.594.2 2.391zM22.351 13.155c0 .2-.1.3-.2.3s-.2-.1-.3-.3c-.101-.896-.201-1.893-.502-2.79-.3-.996-.702-1.993-1.303-2.79l-.1-.1c-.1-.099 0-.298.1-.298.1-.1.2-.1.3.1.101.1.101.199.201.298a10.657 10.657 0 0 1 1.504 4.086l.3 1.494zM14.13 19.633c-.1.897-.3 1.694-.5 2.59-.301.897-.602 1.794-1.003 2.591v.1h-.5c-.101-.1-.201-.2-.101-.399.2-.398.4-.896.601-1.295.501-1.196.702-2.391.902-3.587 0-.1.1-.2.301-.2.2-.099.3 0 .3.2zM19.243 18.54c-.1 1.394-.3 2.79-.601 4.284 0 .2-.1.299-.3.299-.101 0-.201-.2-.201-.3.2-.996.4-2.092.5-3.188 0-.398.101-.797.101-1.195 0-.2.1-.3.3-.3.1 0 .201.1.201.4zM22.452 16.442c0 .598-.1 1.495-.2 2.292 0 .2-.101.299-.301.299-.201 0-.201-.1-.201-.3.1-1.195.1-2.39.1-3.586v-.598c0-.2.1-.299.2-.299s.201.1.201.299c.2.498.2 1.096.2 1.893zM15.134 22.822c0 .1 0 .1-.1.2-.201.498-.402 1.096-.702 1.494-.1.2-.2.2-.401.1-.1-.1-.2-.2-.1-.299.3-.498.5-.996.701-1.594 0-.1.1-.2.3-.2.201.1.302.1.302.3zM7.216 24.02c-.2 0-.4-.199-.3-.398l.901-1.495c.1-.1.2-.199.301-.1.1.1.1.2.1.3-.3.498-.5.896-.802 1.394-.1.2-.2.2-.2.3zM10.523 24.817c-.2 0-.401-.2-.301-.299.2-.399.4-.897.702-1.295.1-.1.2-.1.3-.1.1.1.2.2.1.299-.2.398-.4.897-.701 1.295 0 .1-.1.1-.1.1z" fill="#D75426"/>
</svg>
