<svg width="114" height="125" viewBox="0 0 114 125" fill="none" xmlns="http://www.w3.org/2000/svg">
    <g clip-path="url(#fxgm1d1z7a)">
        <path d="M25.134 55.911c.068-.363.177-.998.264-1.78v-.013a.18.18 0 0 0 .003-.03v-.029c.1-.931.171-2.06.11-3.18.038 1.228-.07 2.87-.377 5.032zM21.653 28.564s4.727.95 1.772 6.904c0 0-.59 1.308-1.772 2.032v14.522l3.103-4.178s.19.246.403.775a1.072 1.072 0 0 0-.016-.064 4.705 4.705 0 0 0-.152-.432l-.003-.006a.444.444 0 0 0-.062-.1s1.85-3.526 2.696-6.637a21.68 21.68 0 0 0 .388-1.984l.003-.028v-.007c.117-1.007 1.252-12.12-6.36-10.796zM21.649 28.566c-.062.022-2.013.799-2.382 8.811 0 .028-.003.055-.004.08.08-1.632.502-7.529 2.386-8.89z" fill="#F8BC92"/>
        <path d="M23.423 35.468c2.955-5.954-1.77-6.904-1.77-6.904-1.884 1.363-2.305 7.26-2.386 8.89-.007.134-.012.24-.014.31 0 .02 0 .04-.003.06v.051a3.065 3.065 0 0 0 2.405-.375c1.176-.724 1.768-2.032 1.768-2.032z" fill="#F8D9C2"/>
        <path d="m21.653 52.02-2.623 3.53-7.494 36.672 14.232 10.253.568-3.483c1.088-26.374-.413-30.517-.951-38.025-.202-2.8-.347-4.539-.347-4.539.02-.064.038-.13.05-.195.017-.108.031-.214.046-.32.306-2.162.415-3.804.38-5.03-.029-1.025-.159-1.759-.36-2.262-.21-.528-.403-.775-.403-.775l-3.098 4.175z" fill="#F8BC92"/>
        <path d="M36.842 122.115s12.787-14.061 15.318-18.241l11.91-17.688.117-.174 7.85-7.158s4.24-1.203 3.1-6.462c0 0-1.338-4.198-5.445-2.276v4.462l-4.081.681-4.608 6.07-.15-3.152-.46.424-.073-.364-.34.309-1.08-2.166-5.013.837 3.522-3.819-1.968-3.933 4.51-1.343 3.834-30.44 5.562-1.319.075 3.938c1.074-.519 5.457-2.928 4.009-7.05 0 0-.95-2.535-6.647-.634l-1.519.317L25.07 56.242s1.139-5.193-.127-8.234c0 0 5.57-8.868 2.152-16.975 0 0-1.899-3.547-5.443-2.47 0 0 4.726.95 1.772 6.904 0 0-1.392 3.082-4.177 2.407 0 0-.855 1.045-.918 1.552 0 0-4.748 4.94-4.874 7.6 0 0-7.5 24.544-6.362 35.186 0 0 1.013 18.369.505 19.002 0 0-2.58 13.944-7.599 23.676H35.67c.43-1.321.84-2.351 1.172-2.775zm36.797-48.73c0 1.267-1.265 1.099-1.265 1.099 1.477-2.534-1.477-3.632-1.477-3.632 3.122-.042 2.742 2.534 2.742 2.534z" fill="#F8BC92"/>
        <path d="m69.784 64.486-.092.081v.03c1.48-.553 6.777-2.79 6.395-6.39 0 0 .737-5.043-6.388-3.19l.085 4.492v4.977zM21.653 28.563s-2.03.677-2.39 8.946c.07-1.546.48-7.57 2.39-8.947zM78.176 44.017s-1.06-3.544-8.715-1.515l.205 10.784c3.53-1.337 9.949-4.486 8.51-9.269z" fill="#F8BC92"/>
        <path d="m63.783 37.683-3.834 30.44-4.51 1.343 1.968 3.934 1.49 2.982 1.082 2.165.339-.308.513-.466.02.404.15 3.152 4.61-6.068-2.477.413 4.894-4.45c-15.222 7.322-.293-5.42-.293-5.42l-4.582 1.363 6.54-7.09v4.488l.092-.081v-4.98l-.085-4.492-.033-1.727-.205-10.784-.041-2.204-.075-3.938-5.563 1.324z" fill="#F8BC92"/>
        <path d="m53.883 77.217 5.013-.836-1.49-2.983-3.523 3.819zM69.692 60.08l-6.54 7.09 4.583-1.363s-14.93 12.742.292 5.419l-4.893 4.451 2.475-.413 4.082-.68V60.08h.001z" fill="#F8BC92"/>
        <path d="M23.423 35.466c2.954-5.953-1.77-6.904-1.77-6.904-1.909 1.378-2.317 7.4-2.39 8.947-.012.232-.015.364-.015.364 2.783.676 4.175-2.407 4.175-2.407zM72.374 74.484s1.265.168 1.265-1.098c0 0 .38-2.575-2.742-2.534 0 0 2.954 1.098 1.477 3.632z" fill="#F8D9C2"/>
        <path d="M30.7 5.969h-.603v1.834h.604V5.969z" fill="#090909"/>
        <path d="M24.745 18.336c-.213-.079-.286.066-.286.066v3.003c.112.13.216.101.28.058l.006-3.127zM24.408 24.346V30.1a.28.28 0 0 0 .317.05l.01-5.856a.238.238 0 0 0-.327.05z" fill="#323432"/>
        <path d="M26.025 10.227a1 1 0 1 0 0-2.002 1 1 0 0 0 0 2.002z" fill="#040404"/>
        <path d="M69.447 6.521v82.99a5.59 5.59 0 0 1-5.585 5.588h-32.51a5.582 5.582 0 0 1-5.16-3.45 5.59 5.59 0 0 1-.424-2.138V9.88a.641.641 0 0 0 .176.001l.017-.002a.587.587 0 0 0 .204-.077l.032-.02a.187.187 0 0 0 .019-.015l.026-.021a.167.167 0 0 0 .019-.017l.024-.024.017-.018.021-.026.015-.02.02-.03a.603.603 0 0 0 .03-.055l.007-.015a.387.387 0 0 0 .015-.037l.008-.021.009-.035c.003-.011.005-.015.006-.024.003-.008.005-.025.007-.037a.192.192 0 0 0 .003-.023c0-.02.004-.041.004-.062a.587.587 0 0 0-.576-.586h-.065l-.019.003-.02.003V6.521A5.59 5.59 0 0 1 31.354.934h32.51a5.583 5.583 0 0 1 5.584 5.587z" fill="#FEFFFF"/>
        <path d="M63.764 0H32.163c-4.215 0-7.399 2.686-7.399 7.021l-.003 2.07-.004 2.138v.341l-.011 6.769-.006 3.127-.004 2.83-.01 5.855-.099 58.418c0 4.335 2.67 7.6 6.884 7.6l32.459-.043c4.214 0 6.832-3.295 6.832-7.628V7.33c0-4.335-2.824-7.33-7.038-7.33zM26.446 9.366c0 .008-.003.015-.004.023a.406.406 0 0 1-.006.038c-.003.012-.005.015-.006.024a.38.38 0 0 1-.01.034l-.008.02a.331.331 0 0 1-.015.038c0 .005-.004.01-.007.015l-.019.037-.011.018-.02.03-.014.02-.022.026-.017.019a.312.312 0 0 1-.023.022l-.02.018-.026.021-.019.014-.032.021-.017.01c-.013.008-.027.014-.04.02l-.011.006a.475.475 0 0 1-.136.04l-.017.003a.585.585 0 0 1-.668-.579c0-.021 0-.042.004-.062v-.01a.756.756 0 0 1 .042-.164.591.591 0 0 1 .278-.288l.022-.01.024-.01.026-.009.023-.007.03-.008.022-.005.035-.005h.019c.018 0 .036-.003.055-.003a.585.585 0 0 1 .585.586.613.613 0 0 1 .003.057zM68.369 87.8c0 4.1-1.148 5.696-4.909 5.696H33.241c-3.76 0-5.982-.496-5.982-4.594V8.194c0-4.1 1.225-5.654 4.985-5.654h31.602c3.76 0 4.524 2.341 4.524 6.44V87.8z" fill="#040404"/>
        <path d="M63.763 0h-31.6C28.167 0 25.1 2.412 24.79 6.355c-.01.122-.017.248-.02.374a6.856 6.856 0 0 0-.006.292l-.003 2.07v.245c.174-.005.348-.029.517-.073v-.031a.411.411 0 0 1 .008-.05v-.008l.015-.05a.577.577 0 0 1 .298-.343l.022-.01a.224.224 0 0 1 .023-.01l.027-.01.023-.008.03-.007.022-.005h.015l.02-.003.019-.003h.065a.587.587 0 0 1 .58.579c0 .02 0 .041-.003.062 0 .008-.003.015-.003.023a.373.373 0 0 1-.007.037l-.006.024-.01.035-.007.02a.578.578 0 0 1-.015.038l-.007.015-.02.037a.165.165 0 0 1-.01.018l-.02.03-.015.02-.02.026-.018.018-.024.023-.019.018a.335.335 0 0 1-.027.02.186.186 0 0 1-.018.015l-.032.02a.589.589 0 0 1-.204.077l-.017.003a.559.559 0 0 1-.177 0 .585.585 0 0 1-.454-.376 3.032 3.032 0 0 1-.552.06l-.004 1.66v.341l-.01 6.768-.007 3.126-.004 2.83-.01 5.856-.1 58.418c0 4.335 2.669 7.599 6.883 7.599l32.459-.043c4.214 0 6.832-3.294 6.832-7.628V7.33C70.801 2.995 67.977 0 63.763 0zm4.602 87.8c0 4.1-1.149 5.695-4.91 5.695H33.238c-3.76 0-5.983-.495-5.983-4.594V8.194c0-4.1 1.226-5.654 4.985-5.654h31.602c3.76 0 4.525 2.34 4.525 6.44l-.001 78.82z" fill="#040404"/>
        <path d="M39.296 10.693h1.276v6.614h-1.275l-2.257-3.748a8.885 8.885 0 0 1-.368-.677 5.393 5.393 0 0 1-.28-.697h-.029c.053.275.093.542.123.8.028.232.043.467.044.7v3.622h-1.275v-6.613h1.373l2.158 3.748c.137.23.26.455.367.677.11.226.203.459.28.697h.03a10.738 10.738 0 0 1-.123-.8 6.281 6.281 0 0 1-.045-.702v-3.62zM41.944 10.693h4.294v1.08H43.18v1.619h2.876v1.08h-2.876v1.756h3.118v1.079h-4.353v-6.614zM51.71 10.693l.883 2.856c.039.118.082.275.127.47.046.197.092.416.138.657a26.86 26.86 0 0 1 .245 1.57h.03a22.493 22.493 0 0 1 .147-1.629c.033-.255.066-.49.097-.707.032-.216.065-.393.098-.53l.579-2.689h1.294l-1.51 6.614h-1.275l-1.049-3.464a5.44 5.44 0 0 1-.113-.455c-.036-.172-.07-.35-.1-.535a20.107 20.107 0 0 1-.094-.55c-.03-.183-.057-.35-.083-.5h-.03l-.083.5a29.269 29.269 0 0 1-.194 1.085 4.535 4.535 0 0 1-.113.455l-1.052 3.466h-1.276l-1.51-6.613h1.294l.58 2.689c.025.137.056.314.092.53.036.216.07.451.1.706.035.255.064.523.09.805.024.282.044.557.058.825h.03c.033-.262.07-.529.112-.8a21.117 21.117 0 0 1 .27-1.427c.046-.195.088-.352.128-.47l.882-2.856 1.208-.003zM57.967 17.424a4.775 4.775 0 0 1-1.177-.132 3.724 3.724 0 0 1-.932-.368l.324-1.04c.254.139.521.25.799.333.287.09.586.137.887.138.373 0 .687-.073.941-.22.255-.148.383-.376.383-.683a.643.643 0 0 0-.113-.383 1.034 1.034 0 0 0-.302-.274 2.208 2.208 0 0 0-.432-.202l-.495-.172a8.549 8.549 0 0 1-.647-.24 2.614 2.614 0 0 1-.633-.373 1.907 1.907 0 0 1-.48-.574c-.128-.229-.192-.51-.192-.844a1.899 1.899 0 0 1 .133-.706c.09-.225.233-.424.417-.58.213-.176.46-.308.725-.387.344-.102.701-.15 1.06-.142a4.56 4.56 0 0 1 1.025.107c.308.072.606.18.887.325l-.324.981a4.007 4.007 0 0 0-.774-.255 3.512 3.512 0 0 0-.746-.089c-.391 0-.682.069-.872.207-.19.137-.285.31-.284.52a.682.682 0 0 0 .108.387c.075.111.171.207.284.28.126.083.262.152.403.206.152.059.303.114.461.167.236.078.474.168.716.27.236.098.457.228.656.387.197.158.36.353.48.574.124.226.187.502.187.83.008.298-.058.595-.191.863-.126.24-.303.447-.52.608-.234.17-.499.294-.78.363a3.863 3.863 0 0 1-.982.118z" fill="#fff"/>
        <path d="M47.029 27.357H28.906v16.76h18.123v-16.76z" fill="#155A7B"/>
        <path d="M65.594 27.357H49.45v1.818h16.144v-1.818zM65.594 30.992H49.45v1.817h16.144v-1.817z" fill="#CECCCD"/>
        <path d="M65.594 27.357H49.45v1.818h16.144v-1.818zM65.594 34.578H49.45v1.817h16.144v-1.817zM65.594 38.414H49.45v1.817h16.144v-1.817zM65.594 41.998H49.45v1.817h16.144v-1.817zM40.37 47.55H28.906v1.616H40.37v-1.615zM65.594 47.55H42.186v1.616h23.408v-1.615zM49.45 53.963h-7.264v1.615h7.264v-1.615zM41.076 53.963h-12.17v1.615h12.17v-1.615zM65.594 57.092H28.906v1.615h36.688v-1.615zM57.27 53.963h-6.76v1.615h6.76v-1.615zM65.594 53.963H58.33v1.615h7.264v-1.615zM34.569 50.58h-5.663v1.616h5.663V50.58zM41.884 50.58h-5.663v1.616h5.663V50.58zM65.594 50.58H53.89v1.616h11.704V50.58zM52.468 50.58h-9.283v1.616h9.283V50.58zM65.594 60.467H28.906v10.148h36.688V60.467zM45.05 76.428H28.906v1.817H45.05v-1.817zM40.37 72.793H28.906v1.817H40.37v-1.817zM65.342 76.428h-19.28v1.817h19.28v-1.817zM52.842 72.793H41.38v1.817h11.463v-1.817zM65.474 72.793H54.011v1.817h11.463v-1.817zM49.45 83.394h-7.264v1.616h7.264v-1.616zM41.076 83.394h-12.17v1.616h12.17v-1.616zM57.27 83.394h-6.76v1.616h6.76v-1.616zM65.594 83.394H58.33v1.616h7.264v-1.616zM34.569 80.014h-5.663v1.615h5.663v-1.615zM41.884 80.014h-5.663v1.615h5.663v-1.615zM65.594 80.014H53.89v1.615h11.704v-1.615zM52.468 80.014h-9.283v1.615h9.283v-1.615z" fill="#CECCCD"/>
        <path d="M46.462 104.818c.039-.021.078-.04.118-.06-.04.02-.08.039-.118.06zM46.349 104.883c.033-.019.066-.039.1-.057a3.64 3.64 0 0 0-.1.057z" fill="#F8BC92"/>
        <path d="m46.592 104.752-.012.006c-.04.02-.08.039-.118.06l-.013.007a2.005 2.005 0 0 0-.1.057c-1.239.73-1.496 2.055-1.496 2.055l.003-.005 1.736-2.18zM51.274 73.738l-.012.006.012-.006zM56.543 76.128a7.079 7.079 0 0 0-.562-.918 5.102 5.102 0 0 0-.243-.313 4.54 4.54 0 0 0-.922-.853c-1.536-1.048-3.078-.5-3.453-.341a1.076 1.076 0 0 0-.072.032l-.011.006-.01.005-.022.01c-1.708.808-2.215 2.049-2.28 3.123v.02l-.006.225c.005.657.14 1.306.399 1.91l.27.782.6-.32 6.068-3.231.093-.05.158-.085-.007-.002z" fill="#F8BC92"/>
        <path d="M53.765 82.32s3.253-.04 3.03-3.361c-.222-3.32-3.03 3.36-3.03 3.36z" fill="#F8D9C2"/>
        <path d="M65.594 11.86H29.398v1.817h36.196v-1.818zM65.594 8.225H29.398v1.817h36.196V8.225zM65.594 15.443H29.398v1.818h36.196v-1.818zM65.594 19.28H29.398v1.817h36.196v-1.818zM65.594 22.865H29.398v1.818h36.196v-1.818z" fill="#CECCCD"/>
        <path d="m99.395 118.998 1.106-18.927c-3.247-4.631-9.27-2.915-9.27-2.915-.325-4.473-4.826-5.853-4.826-5.853-4.436-1.456-6.76 2.456-6.76 2.456-2.366-5.906-7.24-4.216-7.24-4.216-6.33 2.554-3.527 8.89-3.527 8.89-4.426-9.081-9.92-18.338-12.332-22.304l-.158.084-6.76 3.602c2.815 9.416 13.705 32.124 13.705 32.124-10.504-7.931-14.933-8.039-16.736-7.186l-1.736 2.18c-1.005 3.941 8.522 10.313 8.522 10.313.67 1.104 3.422 4.897 5.432 7.644h49.378l-8.798-5.892z" fill="#F8BC92"/>
        <path d="M108.188 124.889H114c-3.33-7.176-9.249-19.346-13.5-24.821l-1.105 18.929 8.793 5.892z" fill="#F8BC92"/>
        <path d="M48.677 105.374c-2.413-.71-3.922 2.062-3.922 2.062-.48 3.256 7.214 8.834 7.214 8.834 2.074-1.021 2.472-3.736 2.472-3.736.18-3.978-5.764-7.16-5.764-7.16zM56.292 76.262c-.06-.176-.123-.347-.188-.51l-4.732 5.26c3.005 3.216 5.07-.53 5.07-.53.638-1.213.307-2.894-.15-4.22z" fill="#F8D9C2"/>
        <path d="M54.038 73.945c-1.53-.397-3.022.605-3.022.605-.537.362-.924.742-1.191 1.13a2.773 2.773 0 0 0-.45 1.05c-.113.566-.031 1.127.15 1.646.49 1.398 1.704 2.499 1.838 2.625a.062.062 0 0 1 .01.011l4.732-5.26c-.59-1.103-1.333-1.616-2.067-1.807z" fill="#F8D9C2"/>
    </g>
    <defs>
        <clipPath id="fxgm1d1z7a">
            <path fill="#fff" d="M0 0h114v124.89H0z"/>
        </clipPath>
    </defs>
</svg>
