<svg width="96" height="95" viewBox="0 0 96 95" fill="none" xmlns="http://www.w3.org/2000/svg">
    <g clip-path="url(#da0ml4smoa)">
        <path d="m47.642 81.842-.021.144c0 .067-.02.134-.031.2v.027c0 .05-.017.104-.026.156-.09.52-.19.986-.298 1.397-.23.86-.499 1.488-.792 1.882l-.05.066c-.226.276-.465.54-.718.792-.46.452-.946.877-1.456 1.272-2.62 2.041-5.865 3.555-5.865 3.555l-3.229 3.664H.004l17.085-21.902c-.315-7.863 6.027-23.183 9.405-29.12 6.07-10.673-2.379-19.678 3.204-20.405a4.922 4.922 0 0 1 2.237.242c1.796.612 3.38 2.14 4.628 3.744.09.114.177.229.262.343l.122.164c.457.625.863 1.248 1.207 1.817.227.376.43.726.602 1.048.078.143.153.281.22.409.364.674.546 1.106.546 1.106 1.422 4.403 2.635 8.548 3.64 12.437a196.277 196.277 0 0 1 1.445 5.9v.028c.058.254.114.509.173.765 0 .02.009.042.012.063.053.231.104.462.155.694.062.28.122.562.182.842l.06.28.082.394.148.708.147.727c.033.156.064.314.095.472.127.644.248 1.28.364 1.91l.016.088c.07.378.138.754.204 1.132v.036l.022.124.134.785a100.667 100.667 0 0 1 .284 1.74c.022.142.046.284.066.424l.063.42c.031.21.062.417.091.624.017.105.031.21.046.314 0 .03.009.06.013.09l.038.274.06.434c.02.145.04.29.058.436.017.114.031.229.046.345.014.116.036.274.052.41a121.431 121.431 0 0 1 .359 3.22c.04.409.075.812.11 1.208.461 5.29.361 9.33-.045 12.075z" fill="url(#0l296ehueb)"/>
        <path d="M76.39 36.83s4.452-1.949 9.006-4.143c3.11-1.499 6.27-3.116 8.093-4.304 4.49-2.93 2.336-8.057-1.57-8.782-1.257-.234-2.993.193-4.895.969-5.8 2.361-13.137 7.993-13.137 7.993-.346 3.266 2.504 8.268 2.504 8.268z" fill="url(#3dwugd6bnc)"/>
        <path d="M76.39 36.831s4.452-1.949 9.006-4.143c.955-3.95 1.363-8.032 1.628-12.118-5.8 2.362-13.137 7.994-13.137 7.994-.346 3.266 2.504 8.267 2.504 8.267z" fill="#E59191"/>
        <path d="M83.488 5.196v76.119a5.187 5.187 0 0 1-1.524 3.674 5.202 5.202 0 0 1-3.68 1.522H41.768a5.21 5.21 0 0 1-3.68-1.522 5.191 5.191 0 0 1-1.525-3.674V5.195a5.185 5.185 0 0 1 1.524-3.674A5.204 5.204 0 0 1 41.767 0h36.517a5.213 5.213 0 0 1 3.679 1.523 5.195 5.195 0 0 1 1.525 3.673z" fill="#333"/>
        <path d="M81.073 5.483v75.54a2.74 2.74 0 0 1-.804 1.94 2.75 2.75 0 0 1-1.944.803H41.726a2.752 2.752 0 0 1-1.944-.803 2.743 2.743 0 0 1-.806-1.94V5.483c0-.727.29-1.425.806-1.94a2.752 2.752 0 0 1 1.944-.803h7.176l.546 1.161a3.601 3.601 0 0 0 3.276 2.086h14.615A3.615 3.615 0 0 0 70.615 3.9l.546-1.16h7.175a2.75 2.75 0 0 1 1.936.807 2.74 2.74 0 0 1 .801 1.935z" fill="#fff"/>
        <path opacity=".4" d="m81.625 1.213-42.088 84.79a5.198 5.198 0 0 1-2.974-4.694V5.189a5.185 5.185 0 0 1 1.524-3.674 5.204 5.204 0 0 1 3.68-1.52h36.517c1.223-.001 2.406.43 3.34 1.218z" fill="#fff"/>
        <path d="M83.488 43.459v5.049c-4.185-.869-5.512-3.761-5.512-3.761l5.512-1.288zM83.488 58.97v4.486c-3.457-.85-4.833-3.214-4.833-3.214l4.833-1.271zM83.488 70.94v5.7a9.551 9.551 0 0 1-5.328-3.315l5.328-2.386z" fill="#000" opacity=".4"/>
        <path d="M77.54 40.51s-1.247 5.964 4.003 6.555c3.434.385 9.718-3.672 10.113-5.506.395-1.835-.91-6.49-4.071-6.686-3.161-.196-9.192 3.343-10.046 5.637z" fill="url(#sej8u1zg6d)"/>
        <path d="M77.306 55.435c-.074.286-.11.58-.105.874.04 2.825 1.661 5.207 4.65 5.258 3.457.06 9.328-4.571 9.546-6.435.219-1.864-1.528-6.373-4.686-6.273-2.018.066-4.043 1.286-5.641 2.409-1.429 1.005-3.3 2.382-3.764 4.167z" fill="url(#njfp7pevte)"/>
        <path d="M77.723 68.112c-.61 1.09-.67 2.725-.317 3.884.399 1.308 1.456 2.155 2.745 2.543 2.97.909 8.748-1.816 9.407-3.362 1.11-2.615.398-5.469-2.354-6.159-1.54-.387-3.275-.034-4.777.393-1.528.436-3.69 1.137-4.604 2.543-.034.047-.07.102-.1.158z" fill="url(#ld4u2676gf)"/>
        <path d="M59.903 53.69c-2.684 0-5.367.013-8.051 0-2.685-.012-4.788-1.78-5.243-4.323-.048-.3-.07-.605-.064-.909 0-3.617-.016-7.234 0-10.85.016-3.006 2.207-5.255 5.21-5.27 5.473-.034 10.946-.034 16.42 0 2.898.017 5.131 2.3 5.146 5.202.017 3.647.017 7.294 0 10.942-.015 2.941-2.277 5.176-5.234 5.214h-8.19l.006-.006zm-3.148-10.693v4.36a1.049 1.049 0 0 0 1.721.876c1.97-1.41 3.946-2.81 5.916-4.22.91-.652.901-1.36-.018-2.017a2871.31 2871.31 0 0 0-5.883-4.189 1.392 1.392 0 0 0-.615-.249c-.654-.07-1.116.422-1.12 1.181-.007 1.413-.002 2.836-.002 4.258z" fill="#D75426"/>
        <path d="M56.755 42.998v-4.265c0-.76.465-1.252 1.119-1.181.222.033.433.12.615.252 1.965 1.39 3.927 2.787 5.884 4.19.91.655.928 1.364.018 2.016-1.966 1.41-3.944 2.814-5.913 4.22a1.042 1.042 0 0 1-1.108.155 1.051 1.051 0 0 1-.614-1.03v-4.36l-.002.003z" fill="#fff"/>
    </g>
    <defs>
        <linearGradient id="0l296ehueb" x1="16.384" y1="62.209" x2="39.312" y2="58.017" gradientUnits="userSpaceOnUse">
            <stop stop-color="#F9B6B7"/>
            <stop offset="1" stop-color="#E59191"/>
        </linearGradient>
        <linearGradient id="3dwugd6bnc" x1="96.324" y1="23.235" x2="79.163" y2="29.665" gradientUnits="userSpaceOnUse">
            <stop stop-color="#F9B6B7"/>
            <stop offset="1" stop-color="#E59191"/>
        </linearGradient>
        <linearGradient id="sej8u1zg6d" x1="96.946" y1="36.748" x2="70.93" y2="45.758" gradientUnits="userSpaceOnUse">
            <stop stop-color="#F9B6B7"/>
            <stop offset="1" stop-color="#E59191"/>
        </linearGradient>
        <linearGradient id="njfp7pevte" x1="101.312" y1="49.357" x2="75.298" y2="58.365" gradientUnits="userSpaceOnUse">
            <stop stop-color="#F9B6B7"/>
            <stop offset="1" stop-color="#E59191"/>
        </linearGradient>
        <linearGradient id="ld4u2676gf" x1="105.729" y1="62.111" x2="79.713" y2="71.12" gradientUnits="userSpaceOnUse">
            <stop stop-color="#F9B6B7"/>
            <stop offset="1" stop-color="#E59191"/>
        </linearGradient>
        <clipPath id="da0ml4smoa">
            <path fill="#fff" d="M0 0h96v95H0z"/>
        </clipPath>
    </defs>
</svg>
