<svg width="107" height="109" viewBox="0 0 107 109" fill="none" xmlns="http://www.w3.org/2000/svg">
<path d="M58.782 49.686C58.7444 49.7397 58.7151 49.7987 58.695 49.861C58.739 49.795 58.761 49.729 58.782 49.686ZM68.683 53.863C68.793 53.732 68.88 53.6 68.946 53.447C68.88 53.6 68.771 53.732 68.683 53.863ZM27.09 104.445C26.96 104.489 26.85 104.533 26.719 104.577C26.849 104.686 26.959 104.795 27.09 104.883C27.178 104.708 27.265 104.511 27.352 104.336C27.2688 104.382 27.181 104.418 27.09 104.445V104.445ZM75.043 57.365L74.847 56.971L75.043 57.365ZM25.364 101.186C25.386 101.098 25.234 101.098 24.993 101.142C24.6256 101.243 24.2674 101.375 23.922 101.536C24.096 101.776 24.293 102.039 24.468 102.258C24.993 101.886 25.32 101.514 25.364 101.186ZM27.07 93.289C26.107 92.589 25.19 91.867 24.271 91.101L24.228 91.057L45.866 60.997L46.04 60.756C44.62 61.084 43.243 61.39 41.844 61.696C41.822 61.696 41.778 61.719 41.757 61.719C41.713 61.719 41.669 61.74 41.625 61.74L41.298 61.806C41.166 61.828 41.035 61.85 40.904 61.894C40.445 61.981 40.008 62.069 39.549 62.156C38.259 62.396 36.97 62.637 35.681 62.834C35.441 62.878 35.221 62.9 34.981 62.944C33.32 63.184 31.659 63.404 29.932 63.556C29.255 63.622 28.555 63.666 27.856 63.731C25.4702 63.8982 23.0784 63.9639 20.687 63.928V91.473C20.687 92.589 20.797 93.683 21.015 94.755C22.698 94.405 24.665 94.055 26.107 93.595C26.435 93.508 26.763 93.398 27.069 93.289H27.07Z" fill="#CDEEEC"/>
<path d="M24.861 54.475H25.276C26.654 54.453 28.118 54.322 29.582 54.125C29.692 54.125 29.801 54.103 29.91 54.081C30.02 54.059 30.107 54.059 30.216 54.037C31.353 53.884 32.511 53.665 33.647 53.447C35.877 53.009 38.107 52.462 40.227 51.915C41.144 51.675 42.04 51.434 42.893 51.193C43.002 51.171 43.089 51.128 43.177 51.106C43.242 51.084 43.33 51.062 43.395 51.04C46.215 50.252 48.75 49.509 50.674 49.027C50.87 48.984 51.045 48.94 51.242 48.896C51.766 48.765 52.291 48.633 52.837 48.502C52.925 48.48 52.99 48.458 53.077 48.436C53.493 48.327 54.324 48.13 54.324 48.13C54.454 48.108 54.586 48.065 54.717 48.043C55.6558 47.8146 56.6397 47.8527 57.558 48.153C58.105 48.327 58.608 48.612 59.066 48.962C58.936 48.962 57.974 48.918 56.728 49.18H56.684C55.9645 49.3408 55.2724 49.6063 54.63 49.968C55.268 49.597 55.9615 49.331 56.684 49.18H56.728C57.974 48.918 58.935 48.962 59.066 48.962C59.11 48.962 59.941 49.202 61.121 49.552L61.93 46.73H61.886L62.017 46.27L62.651 44.345L62.673 44.258H62.695L61.973 44.389L61.558 44.455C58.87 44.892 55.22 45.549 53.275 43.055C52.7512 42.3425 52.3587 41.5423 52.116 40.692C51.264 38.044 51.001 34.916 51.81 32.225H38.062C28.533 32.225 20.73 40.013 20.73 49.53V54.169C22.0945 54.3986 23.4775 54.5011 24.861 54.475V54.475Z" fill="#CDEEEC"/>
<path d="M60.8801 54.344C59.1761 53.228 58.258 51.478 58.717 49.881C58.257 51.478 59.1761 53.228 60.8811 54.344H60.8801ZM34.675 90.224H34.697C34.74 90.202 34.806 90.18 34.85 90.158C34.806 90.18 34.74 90.202 34.697 90.224H34.675ZM71.9841 54.607C72.1151 54.651 72.2241 54.695 72.3561 54.739C72.2383 54.6791 72.1132 54.6347 71.9841 54.607Z" fill="#CDEEEC"/>
<path d="M89.6651 76.5299V49.5319C89.6651 44.7839 87.7411 40.4959 84.6151 37.3459C84.5951 37.3679 84.5951 37.3679 84.5721 37.3889C83.8215 38.1735 83.0103 38.8978 82.1461 39.5549C81.9711 39.6869 81.7751 39.8399 81.6001 39.9709L81.5121 40.0369C80.0261 41.0429 78.1471 42.3119 77.7751 44.2589C77.6221 45.3749 77.8411 46.4909 78.4091 47.4089C78.5391 47.6499 80.5071 49.7939 80.6161 49.5099C80.3761 50.1449 79.9161 50.6699 79.3491 50.9759C78.7591 51.2819 78.1031 51.3259 77.4911 51.1289L69.0321 48.7009L68.1361 51.6759C68.3551 51.7419 68.5521 51.8069 68.7261 51.8729V51.8509C68.8141 51.8949 70.1471 52.4409 70.3001 52.5289C70.3441 52.5509 70.3661 52.5509 70.3881 52.5729C71.6331 53.1419 72.7701 53.8199 73.7531 54.8479C74.7371 55.8769 75.5461 57.1889 75.9611 58.5679C76.2451 59.5299 76.3321 60.603 76.3981 61.674C76.4421 62.462 76.4641 63.2719 76.5081 64.0369C76.5081 64.1249 76.5291 64.1899 76.5291 64.2779C77.3381 73.8389 73.2291 82.9399 73.9501 91.6699C72.2671 104.228 74.2341 108.998 65.2071 108.166C64.6611 108.122 64.0491 108.035 63.3931 107.947C63.5031 108.232 63.5901 108.516 63.6781 108.823H72.3111C81.8411 108.823 89.6431 101.034 89.6431 91.5169V91.2979L106.341 76.5739H89.6651V76.5299V76.5299Z" fill="#CDEEEC"/>
<path d="M69.6669 54.39C69.6009 54.39 69.5569 54.411 69.4919 54.411C69.5579 54.411 69.6019 54.389 69.6669 54.389V54.39ZM64.3559 60.316C64.5749 59.879 64.7709 59.441 64.9679 59.004C65.0549 58.829 65.1209 58.654 65.2079 58.478C65.1429 58.653 65.0549 58.828 64.9679 59.004C64.7929 59.441 64.5749 59.879 64.3559 60.316ZM59.1539 49.378C59.1969 49.356 59.2409 49.334 59.2839 49.334H59.3069H59.2849C59.2409 49.334 59.1979 49.356 59.1539 49.378V49.378ZM69.0769 53.164C69.0989 53.12 69.0989 53.098 69.1199 53.054C69.0997 53.0881 69.0852 53.1252 69.0769 53.164V53.164ZM58.8269 49.618C58.9139 49.508 59.0019 49.421 59.1329 49.377C59.0124 49.4301 58.9072 49.5126 58.8269 49.617V49.618Z" fill="#CDEEEC"/>
<path d="M15.4411 51.937C11.1141 48.306 11.9011 40.561 12.0971 35.463C12.2721 30.278 13.7371 25.223 13.3651 20.017C13.1681 17.413 12.8621 14.591 11.2451 12.425C11.1791 12.337 11.0921 12.25 11.0051 12.25C10.5231 12.272 10.1951 13.65 10.1081 14C9.95508 14.635 9.91108 15.335 9.86808 15.97C9.82408 16.8 9.97808 18.354 9.32108 19.01C8.55608 19.798 7.68208 18.748 6.98308 17.37C6.87308 17.15 6.74308 16.888 6.63308 16.648C6.48724 16.3333 6.3561 16.0119 6.24008 15.685C6.38474 16.1023 6.55233 16.5112 6.74208 16.91C7.11408 17.741 7.59508 18.529 8.27208 19.164C7.90108 18.901 7.57208 18.551 7.28908 18.179C7.00508 17.807 6.78608 17.391 6.58908 16.976C6.39693 16.5583 6.23648 16.1268 6.10908 15.685C5.99908 15.313 5.91208 14.919 5.84608 14.547C5.77259 14.3252 5.71413 14.0987 5.67108 13.869C5.21208 11.331 4.36008 9.40602 3.74808 9.53702C3.39808 9.62402 3.85808 14.219 3.87908 15.379C3.85708 15.357 3.83508 15.313 3.79208 15.269C3.77008 15.247 3.77008 15.225 3.74808 15.203C3.77008 15.269 3.79208 15.313 3.81408 15.378C3.98808 15.794 4.14108 16.232 4.25108 16.669C3.89022 15.8295 3.51114 14.998 3.11408 14.175C2.91708 13.76 2.72108 13.344 2.54608 12.928C2.37108 12.513 2.17408 12.031 2.15308 11.572C2.15308 11.594 2.17408 11.615 2.19608 11.659V11.637C2.19608 11.615 2.17408 11.594 2.17408 11.572C1.73708 10.565 1.30008 9.73402 0.95008 9.51502C0.29508 9.14302 0.863079 12.753 0.929079 13.059C1.25608 14.788 1.67208 16.494 2.10908 18.201C2.39308 19.361 2.74308 20.586 3.17908 21.767C3.24508 21.92 3.00508 24.02 2.69908 26.799C2.28408 30.649 1.75908 35.769 1.80308 38.854C1.82508 39.664 1.84708 40.495 1.89008 41.304C1.93408 42.398 2.02108 43.492 2.10908 44.586C2.26208 46.183 2.45908 47.759 2.67708 49.334C3.08754 52.1099 4.17574 54.7418 5.84544 56.997C7.51514 59.2523 9.71487 61.0613 12.2501 62.264C14.4094 63.2992 16.7632 63.8659 19.1571 63.927C19.6591 63.949 20.1621 63.949 20.6651 63.949V54.169C18.6321 53.819 16.8181 53.119 15.4411 51.937V51.937ZM10.9831 24.174C10.7201 23.583 10.3271 23.036 9.91108 22.554C9.49608 22.051 9.01508 21.614 8.51308 21.198C8.01008 20.782 7.46308 20.432 6.91708 20.104C6.65508 19.929 6.37108 19.776 6.08708 19.601L5.23408 19.141C5.54008 19.273 5.82408 19.382 6.13008 19.514C6.41408 19.667 6.69908 19.798 6.98308 19.973C7.54555 20.3072 8.07908 20.6879 8.57808 21.111C9.08108 21.526 9.54008 22.008 9.95508 22.511C10.3921 23.014 10.7421 23.561 10.9821 24.174H10.9831Z" fill="#DB9170"/>
<path d="M2.91805 13.279C2.91805 13.257 2.89605 13.257 2.89605 13.235C2.87405 13.213 2.87405 13.147 2.85205 13.103C2.88328 13.1578 2.90556 13.2172 2.91805 13.279V13.279ZM27.8561 63.73C28.5561 63.686 29.255 63.62 29.932 63.555C31.6206 63.3965 33.3046 63.1921 34.982 62.942C35.222 62.899 35.44 62.877 35.681 62.832C36.97 62.636 38.26 62.395 39.549 62.155C40.009 62.067 40.445 61.98 40.904 61.892C41.035 61.87 41.166 61.848 41.298 61.805L41.625 61.739C41.669 61.739 41.713 61.717 41.757 61.717C41.778 61.717 41.8221 61.695 41.8441 61.695C43.2211 61.411 44.6201 61.083 46.0401 60.755L50.87 54.06L52.2701 52.112C52.9027 51.2442 53.7057 50.5147 54.6301 49.968C55.2682 49.5975 55.9617 49.3318 56.684 49.181H56.7281C57.9741 48.918 58.9361 48.962 59.0671 48.962C58.6144 48.6078 58.1043 48.3339 57.559 48.152C56.6422 47.8415 55.655 47.8036 54.717 48.043C54.587 48.087 54.4551 48.109 54.3241 48.131C54.3241 48.131 53.494 48.349 53.078 48.437C52.9973 48.4563 52.9173 48.4783 52.8381 48.503C52.3131 48.633 51.7671 48.765 51.2421 48.896C51.0451 48.94 50.871 48.984 50.674 49.028C48.751 49.509 46.237 50.253 43.396 51.04C43.33 51.062 43.265 51.084 43.177 51.106C43.09 51.128 42.9801 51.172 42.8931 51.194C42.0411 51.434 41.1451 51.674 40.2271 51.916C38.1071 52.463 35.877 53.01 33.647 53.447C32.49 53.687 31.353 53.885 30.217 54.037C30.107 54.037 30.02 54.06 29.91 54.081C29.801 54.103 29.692 54.103 29.583 54.125C28.118 54.322 26.6761 54.454 25.2771 54.475C25.4081 54.563 25.5171 54.65 25.6271 54.738C25.9541 55.044 26.195 55.438 26.347 55.854C26.501 56.269 26.5671 56.707 26.5671 57.144C26.543 57.5755 26.4389 57.9987 26.2601 58.392H26.2391C26.2391 58.392 26.217 58.392 26.217 58.37C26.501 57.56 26.4571 56.685 26.1071 55.941C25.9331 55.569 25.6701 55.263 25.4081 54.957C25.2419 54.7729 25.0591 54.6045 24.862 54.454C23.397 54.475 21.977 54.388 20.687 54.147V63.927C23.0785 63.9738 25.4708 63.908 27.8561 63.73V63.73Z" fill="#DB9170"/>
<path d="M29.8411 29.95C32.5511 29.95 34.7591 27.741 34.7591 25.028C34.7575 23.7237 34.239 22.4733 33.3171 21.5507C32.3953 20.6281 31.1453 20.1086 29.8411 20.106C28.5369 20.1086 27.2869 20.6281 26.3651 21.5507C25.4432 22.4733 24.9247 23.7237 24.9231 25.028C24.9244 26.3323 25.4428 27.583 26.3647 28.5058C27.2866 29.4286 28.5367 29.9483 29.8411 29.951V29.95ZM29.8411 20.98C30.9138 20.9815 31.9421 21.4087 32.7003 22.1676C33.4585 22.9265 33.8846 23.9552 33.8851 25.028C33.8846 26.1007 33.4585 27.1294 32.7003 27.8883C31.9421 28.6472 30.9138 29.0744 29.8411 29.076C28.7685 29.0741 27.7405 28.6469 26.9825 27.888C26.2246 27.1291 25.7986 26.1005 25.7981 25.028C25.7989 23.9556 26.225 22.9273 26.9829 22.1686C27.7408 21.4099 28.7687 20.9828 29.8411 20.981V20.98Z" fill="#96DAD5"/>
<path d="M56.3779 15.618L56.6179 15.377C56.2055 15.2248 55.7684 15.1506 55.3289 15.158C54.826 15.157 54.3278 15.2553 53.863 15.4474C53.3982 15.6395 52.9759 15.9216 52.6205 16.2774C52.265 16.6332 51.9834 17.0558 51.7918 17.5208C51.6002 17.9858 51.5023 18.4841 51.5039 18.987C51.5039 19.993 51.8979 20.934 52.5539 21.612L52.5749 21.502C53.4279 19.272 54.7169 17.258 56.3779 15.618V15.618ZM84.3549 11.88C84.8575 11.8798 85.3551 11.7805 85.8193 11.5879C86.2835 11.3954 86.7052 11.1133 87.0604 10.7577C87.4156 10.4022 87.6973 9.98012 87.8894 9.51571C88.0815 9.05129 88.1802 8.55359 88.1799 8.05102C88.1802 7.03621 87.7774 6.06285 87.0601 5.34499C86.3428 4.62713 85.3697 4.22355 84.3549 4.22302C83.3401 4.22355 82.3671 4.62713 81.6498 5.34499C80.9325 6.06285 80.5297 7.03621 80.5299 8.05102C80.5295 8.55367 80.6282 9.05148 80.8202 9.51601C81.0122 9.98054 81.2939 10.4027 81.6491 10.7584C82.0043 11.114 82.426 11.3962 82.8903 11.5888C83.3546 11.7815 83.8523 11.8808 84.3549 11.881V11.88Z" fill="#CDEEEC"/>
<path d="M54.7179 3.64301C55.6579 3.64301 56.4229 2.87702 56.4229 1.95802C56.4223 1.73523 56.3776 1.51478 56.2914 1.30934C56.2052 1.10389 56.0793 0.917506 55.9209 0.760908C55.7624 0.60431 55.5745 0.480588 55.3681 0.396856C55.1617 0.313125 54.9407 0.271038 54.7179 0.273016C53.7779 0.273016 53.0129 1.03902 53.0129 1.95802C52.9909 2.87702 53.7559 3.64301 54.7179 3.64301Z" fill="#F899A0"/>
<path d="M39.3081 10.674C39.4804 10.6739 39.651 10.6399 39.8102 10.574C39.9693 10.508 40.1139 10.4113 40.2357 10.2894C40.3575 10.1675 40.4541 10.0228 40.5199 9.86363C40.5858 9.70442 40.6197 9.53381 40.6196 9.36151C40.6195 9.18922 40.5855 9.01862 40.5195 8.85947C40.4536 8.70032 40.3569 8.55572 40.235 8.43393C40.1131 8.31215 39.9684 8.21556 39.8092 8.14969C39.65 8.08382 39.4794 8.04995 39.3071 8.05001C38.9591 8.05014 38.6255 8.1885 38.3795 8.43464C38.1336 8.68078 37.9955 9.01455 37.9956 9.36251C37.9957 9.71047 38.1341 10.0441 38.3802 10.2901C38.6264 10.536 38.9601 10.6741 39.3081 10.674V10.674ZM43.4611 10.674C43.6334 10.6739 43.804 10.6399 43.9632 10.574C44.1223 10.508 44.2669 10.4113 44.3887 10.2894C44.5105 10.1675 44.6071 10.0228 44.6729 9.86363C44.7388 9.70442 44.7727 9.53381 44.7726 9.36151C44.7725 9.18922 44.7385 9.01862 44.6725 8.85947C44.6066 8.70032 44.5099 8.55572 44.388 8.43393C44.2661 8.31215 44.1214 8.21556 43.9622 8.14969C43.803 8.08382 43.6324 8.04995 43.4601 8.05001C43.1121 8.05014 42.7785 8.1885 42.5325 8.43464C42.2866 8.68078 42.1485 9.01455 42.1486 9.36251C42.1487 9.71047 42.2871 10.0441 42.5332 10.2901C42.7794 10.536 43.1131 10.6741 43.4611 10.674V10.674ZM47.6131 10.674C48.3351 10.674 48.9251 10.084 48.9251 9.36101C48.9251 8.64001 48.3351 8.04901 47.6131 8.04901C46.8931 8.04901 46.3031 8.63901 46.3031 9.36201C46.3031 10.105 46.8931 10.674 47.6131 10.674Z" fill="#E68531"/>
<path d="M37.1451 14.086C38.5441 14.808 40.1831 15.224 42.0411 15.289C42.4781 15.311 42.7621 15.509 42.9151 15.88C43.2871 16.865 42.6091 18.68 42.1061 19.162C42.0663 19.2019 42.0423 19.2548 42.0384 19.3111C42.0346 19.3673 42.0511 19.423 42.0851 19.468C42.1281 19.534 42.1941 19.556 42.2601 19.556C42.3031 19.556 42.3471 19.534 42.3901 19.512C43.9431 18.549 45.0351 16.887 45.3411 15.114C45.3797 14.9714 45.4309 14.8325 45.4941 14.699C45.6041 14.655 45.7341 14.611 45.8221 14.589C46.1061 14.546 46.4121 14.524 46.7401 14.502C47.2861 14.458 47.8551 14.414 48.3801 14.283C49.8221 13.911 50.9801 13.211 51.7891 12.161C53.2531 10.279 53.1441 8.66098 52.7721 7.61098C52.1391 5.81598 50.2811 4.32798 47.9201 3.75998C44.8391 2.99398 41.2321 3.16898 38.2821 4.23998C35.6811 5.18198 33.9541 7.19398 33.9101 9.40398C33.8671 11.286 35.0471 13.014 37.1451 14.086V14.086ZM38.4351 4.67798C40.0951 4.08798 42.0411 3.78098 43.9431 3.78098C45.2761 3.78098 46.5871 3.93498 47.7891 4.21898C49.9971 4.76598 51.7231 6.12198 52.3131 7.78498C52.7941 9.11998 52.4661 10.542 51.3951 11.898C50.6521 12.861 49.5811 13.518 48.2261 13.868C47.7461 13.998 47.1991 14.042 46.6531 14.086C46.3471 14.108 46.0191 14.13 45.7131 14.174C45.5161 14.196 45.2321 14.327 45.1881 14.349C45.1415 14.3739 45.1035 14.4122 45.0791 14.459C45.0571 14.502 44.8821 14.852 44.8391 15.071C44.6143 16.3495 43.9859 17.5225 43.0461 18.418C43.3961 17.587 43.5931 16.493 43.3091 15.727C43.0901 15.18 42.6531 14.874 42.0191 14.852C40.2491 14.786 38.6531 14.392 37.3201 13.692C35.3751 12.686 34.2821 11.132 34.3261 9.40398C34.4351 7.41398 36.0311 5.55398 38.4351 4.67798V4.67798Z" fill="#E68531"/>
<path d="M42.9369 97.531C42.8269 97.597 42.7169 97.641 42.6089 97.706C42.7389 97.641 42.8489 97.575 42.9369 97.531Z" fill="#2A4D52"/>
<path d="M54.3891 106.176C54.3891 106.176 40.2261 102.194 36.6631 100.662C37.0131 100.487 37.4931 100.268 38.0181 100.006C37.9971 100.028 37.9531 100.028 37.9311 100.05C37.7561 100.137 37.5811 100.203 37.4071 100.29C36.9261 100.509 36.4451 100.728 35.9641 100.925C35.9201 100.947 35.8541 100.969 35.8111 100.99C35.5711 101.1 35.3081 101.187 35.0681 101.297C35.0461 101.297 35.0241 101.319 35.0021 101.319C34.8721 101.362 34.7401 101.428 34.6311 101.472C34.4341 101.559 34.2371 101.625 34.0411 101.712C33.8011 101.8 33.4721 101.931 33.1011 102.084C32.3361 102.391 31.3091 102.806 30.1941 103.266C30.1721 103.266 30.1721 103.288 30.1501 103.288C30.0851 103.31 29.9971 103.353 29.9321 103.375C29.8661 103.397 29.7791 103.441 29.7131 103.463C29.1474 103.689 28.579 103.907 28.0081 104.119C27.7901 104.207 27.5931 104.272 27.3741 104.36C27.2871 104.535 27.2001 104.732 27.1121 104.907C28.4233 105.971 29.8809 106.84 31.4401 107.488C31.4401 107.291 31.4401 107.094 31.4181 106.898C31.4181 106.766 31.7021 106.613 31.7021 106.744C31.7021 107.029 31.7241 107.313 31.7241 107.598C33.7361 108.389 35.8782 108.797 38.0401 108.801H63.7001C63.6121 108.495 63.5031 108.21 63.4151 107.926C59.6121 107.379 54.3891 106.176 54.3891 106.176V106.176Z" fill="#A86286"/>
<path d="M31.7029 106.742C31.7029 106.61 31.4189 106.763 31.4189 106.895C31.4189 107.092 31.4189 107.289 31.4409 107.485C31.5279 107.529 31.6369 107.573 31.7469 107.595C31.7249 107.31 31.7029 107.026 31.7029 106.742Z" fill="#96DAD5"/>
<path d="M66.9129 52.791L61.4929 51.238C61.2816 51.1764 61.1032 51.0338 60.9966 50.8412C60.8901 50.6487 60.8639 50.4218 60.9239 50.21L61.0989 49.619C61.0549 49.597 61.0119 49.597 60.9459 49.575C60.2679 49.422 59.7439 49.312 59.4599 49.312C59.3939 49.312 59.3499 49.312 59.3069 49.334H59.2849C59.2409 49.334 59.1979 49.356 59.1539 49.378H59.1319C59.0009 49.422 58.9129 49.509 58.8259 49.618C58.8259 49.641 58.8039 49.641 58.8039 49.663C58.8039 49.663 58.8039 49.684 58.7819 49.684C58.7443 49.7377 58.715 49.7967 58.6949 49.859C58.2349 51.457 59.1539 53.207 60.8589 54.323C61.467 54.7169 62.1298 55.0191 62.8259 55.22C65.2299 55.898 67.5899 55.285 68.6609 53.841C68.7709 53.711 68.8579 53.579 68.9239 53.426C68.9239 53.404 68.9449 53.404 68.9449 53.382C68.9669 53.338 68.9889 53.294 69.0109 53.229C69.0329 53.207 69.0329 53.163 69.0549 53.141C69.0759 53.097 69.0759 53.076 69.0979 53.031L69.1639 52.835C69.1639 52.791 69.1859 52.769 69.1859 52.725C69.1859 52.616 69.1859 52.507 69.1639 52.419C69.1639 52.419 69.1639 52.397 69.1419 52.354C69.1419 52.332 69.1199 52.288 69.1199 52.244C69.1199 52.222 69.0979 52.179 69.0979 52.157V52.091C69.0979 52.069 69.0979 52.069 69.0769 52.069C69.0769 52.047 69.0769 52.047 69.0549 52.025V52.004C69.0385 51.9709 69.0161 51.9411 68.9889 51.916C68.9239 51.872 68.8579 51.829 68.7709 51.806C68.7489 51.806 68.7269 51.785 68.7269 51.785C68.5519 51.719 68.3549 51.675 68.1369 51.588L67.9839 52.135C67.8309 52.66 67.3719 52.922 66.9129 52.791V52.791Z" fill="#DB9170"/>
<path d="M2.71999 12.82C2.74199 12.886 2.76399 12.951 2.80799 13.017C2.82999 13.061 2.82999 13.083 2.85199 13.127C2.69899 12.754 2.37099 11.945 2.23999 11.639C2.34899 11.879 2.43599 12.12 2.54599 12.382C2.61099 12.514 2.67599 12.667 2.72099 12.82H2.71999ZM2.93999 13.323C3.22399 14.023 3.48599 14.635 3.70499 15.029C3.72699 15.073 3.76999 15.139 3.79199 15.16C3.76999 15.117 3.74899 15.073 3.70499 15.03C3.48599 14.635 3.22399 14 2.93999 13.323V13.3C2.91799 13.3 2.91799 13.3 2.93999 13.322V13.323Z" fill="#672448"/>
<path d="M2.59002 12.907C2.76402 13.323 2.96002 13.739 3.15702 14.154C3.55102 14.986 3.92202 15.817 4.29402 16.648C4.18125 16.2076 4.03517 15.7763 3.85702 15.358C3.83502 15.292 3.81302 15.248 3.79102 15.183C3.76989 15.1343 3.74045 15.0896 3.70402 15.051C3.48502 14.657 3.22302 14.023 2.93902 13.345V13.323C2.93902 13.301 2.89502 13.235 2.87302 13.148C2.85102 13.126 2.85102 13.082 2.83002 13.038C2.80802 12.973 2.78602 12.908 2.74202 12.842C2.69802 12.71 2.61202 12.557 2.56702 12.382C2.45802 12.142 2.34902 11.879 2.26102 11.638C2.24002 11.616 2.24002 11.573 2.21802 11.551C2.21802 12.011 2.43602 12.47 2.58902 12.907H2.59002ZM6.21702 15.574C6.21702 15.596 6.23902 15.617 6.23902 15.639V15.661V15.639C6.23902 15.617 6.23902 15.595 6.21702 15.574C6.06402 15.18 5.95502 14.808 5.86702 14.524C5.95502 14.83 6.08702 15.18 6.21702 15.574Z" fill="#672448"/>
<path d="M6.6111 16.952C6.8081 17.368 7.0261 17.783 7.3111 18.155C7.5951 18.527 7.9221 18.877 8.2941 19.14C7.6161 18.505 7.1361 17.7181 6.7641 16.8861C6.57402 16.4873 6.40609 16.0783 6.2611 15.661V15.639C6.2611 15.617 6.2391 15.5951 6.2391 15.5741C6.1091 15.1801 5.9771 14.83 5.8891 14.524C5.9331 14.917 6.0431 15.289 6.1521 15.661C6.2621 16.099 6.4141 16.536 6.6111 16.951V16.952ZM8.6001 21.112C8.10081 20.6888 7.56694 20.3082 7.0041 19.974C6.7201 19.799 6.4361 19.668 6.1521 19.514C5.8681 19.384 5.5621 19.2521 5.2561 19.1431L6.1081 19.6021C6.3921 19.7771 6.6771 19.93 6.9381 20.105C7.4851 20.455 8.0321 20.8051 8.5341 21.1991C9.0371 21.6151 9.5181 22.052 9.9341 22.556C10.3481 23.059 10.7421 23.584 10.9821 24.175C10.7421 23.562 10.3701 23.0151 9.9771 22.5121C9.56895 21.998 9.10736 21.5287 8.6001 21.112V21.112Z" fill="#672448"/>
<path d="M75.262 57.91C75.196 57.735 75.13 57.538 75.065 57.363C75.131 57.56 75.196 57.735 75.262 57.91ZM72.355 54.738C73.033 55.023 73.601 55.438 74.082 55.92C73.591 55.4147 73.0038 55.0128 72.355 54.738V54.738ZM74.847 56.97L75.043 57.365C75 57.233 74.913 57.102 74.847 56.971V56.97Z" fill="#FF90A0"/>
<path d="M75.2619 57.908C75.6185 59.0245 75.5796 60.2297 75.1519 61.321C75.1519 61.365 75.1309 61.387 75.1089 61.431C75.1294 61.3969 75.1443 61.3598 75.1529 61.321C75.5812 60.2299 75.6201 59.0244 75.2629 57.908H75.2619Z" fill="#FF90A0"/>
<path d="M68.7701 51.895C68.8361 51.917 68.9241 51.961 68.9901 52.005C69.0168 52.0298 69.0389 52.0593 69.0551 52.092V52.114C69.0551 52.136 69.0551 52.136 69.0771 52.157C69.0771 52.157 69.0771 52.179 69.0991 52.179V52.245C69.0991 52.267 69.1211 52.289 69.1211 52.332C69.1421 52.376 69.1421 52.398 69.1421 52.442C69.1421 52.464 69.1641 52.486 69.1641 52.508C69.1861 52.617 69.2081 52.726 69.1861 52.814C69.1861 52.858 69.1861 52.88 69.1641 52.924L69.0991 53.12C69.0771 53.164 69.0771 53.186 69.0551 53.23C69.0331 53.251 69.0331 53.295 69.0111 53.317C68.9854 53.3663 68.9637 53.4174 68.9461 53.47C68.9461 53.492 68.9241 53.492 68.9241 53.514C68.8414 53.6558 68.7536 53.7945 68.6611 53.93C67.5691 55.374 65.208 55.986 62.826 55.308C62.1331 55.0985 61.4716 54.7968 60.8591 54.411C59.1541 53.295 58.2361 51.545 58.6951 49.948C58.7106 49.8839 58.7403 49.8241 58.7821 49.773C58.7821 49.773 58.7821 49.751 58.8041 49.751C58.8041 49.729 58.826 49.729 58.826 49.707C58.913 49.597 59.001 49.51 59.132 49.467H59.1541C59.1939 49.4427 59.2386 49.4276 59.285 49.423H59.3071C59.3511 49.423 59.3941 49.401 59.4601 49.401C59.7441 49.401 60.2901 49.511 60.9461 49.663C60.9901 49.663 61.0341 49.685 61.0991 49.707L61.121 49.663C59.941 49.313 59.1321 49.051 59.0661 49.073C58.9361 49.073 57.9741 49.029 56.7281 49.291H56.6841C55.9645 49.4519 55.2725 49.7174 54.6301 50.079C53.7009 50.6191 52.8966 51.3498 52.2701 52.223L50.8701 54.17L46.0401 60.865L45.8651 61.105L24.2271 91.167L24.2711 91.21C25.1749 91.9755 26.1083 92.7054 27.0691 93.398C27.2441 93.333 27.3971 93.289 27.5721 93.223C29.6344 92.5179 31.662 91.7149 33.6481 90.817C33.9541 90.664 34.2811 90.532 34.5881 90.379L34.6751 90.335H34.6971C34.7401 90.313 34.806 90.292 34.85 90.27C35.9073 89.7609 36.9494 89.221 37.975 88.651C42.1798 86.3132 46.1031 83.5016 49.6681 80.271C51.3922 78.7169 53.0268 77.0662 54.5641 75.327C54.6301 75.261 54.6741 75.217 54.7171 75.152C55.2376 74.5693 55.7405 73.971 56.225 73.358C57.8528 71.3512 59.3566 69.247 60.7281 67.057C60.7281 67.057 60.7281 67.035 60.7491 67.035C62.0789 64.912 63.2833 62.7129 64.3561 60.449C64.5741 60.012 64.7711 59.574 64.9681 59.137C65.0551 58.962 65.1211 58.787 65.2081 58.612L65.4051 58.152C65.4701 57.977 65.5581 57.802 65.6231 57.649C65.7331 57.409 65.8421 57.168 65.9731 56.949C66.5108 56.078 67.2939 55.3854 68.2241 54.958C68.6235 54.781 69.0414 54.6489 69.4701 54.564C69.5361 54.542 69.5801 54.542 69.6451 54.542C70.0428 54.4798 70.4473 54.4724 70.8471 54.52C71.3422 54.4284 71.8522 54.4586 72.3331 54.608C74.3231 55.177 75.5461 57.583 75.8081 60.821C75.9831 61.171 76.2891 62.375 75.4581 66.181C75.3193 66.8806 75.1518 67.5742 74.9561 68.26C73.0761 74.845 68.8361 79.396 65.5141 78.433C65.4701 78.412 65.4271 78.412 65.3831 78.39C65.2961 78.521 65.1861 78.63 65.0991 78.762C64.8371 79.112 64.5741 79.44 64.2901 79.768C63.5251 80.709 62.76 81.628 61.952 82.525L61.1651 83.378C61.0763 83.4854 60.9815 83.5876 60.8811 83.684C60.4871 84.1 60.0941 84.494 59.7221 84.909C59.3291 85.303 58.957 85.697 58.564 86.069C57.952 86.66 57.3401 87.25 56.7281 87.819C56.1529 88.3537 55.5626 88.8719 54.9581 89.373C53.7248 90.4289 52.4564 91.4432 51.1551 92.414C50.5861 92.829 50.0181 93.245 49.4501 93.639C49.4061 93.683 49.3621 93.705 49.3191 93.748C49.0791 93.923 48.8161 94.098 48.5541 94.252C48.5321 94.273 48.5101 94.273 48.4881 94.295C48.4441 94.317 48.401 94.361 48.357 94.383C48.335 94.405 48.3131 94.405 48.2911 94.427C47.9201 94.667 47.5481 94.93 47.1551 95.17C46.1879 95.8013 45.2043 96.4069 44.2051 96.986L59.6131 101.406C60.7281 102.85 62.3231 105.038 63.4161 108.079C64.0721 108.166 64.7061 108.254 65.2301 108.298C74.2571 109.129 72.2901 104.338 73.9731 91.801C73.2511 83.072 77.3601 73.97 76.5521 64.409C76.5521 64.322 76.5301 64.256 76.5301 64.169C76.4641 63.403 76.4641 62.615 76.4201 61.806C76.3771 60.734 76.2671 59.662 75.9831 58.699C75.5901 57.321 74.7811 56.009 73.7761 54.979C72.7921 53.951 71.6561 53.273 70.4101 52.704C70.3881 52.683 70.3441 52.683 70.3231 52.661C70.1701 52.595 68.8361 52.026 68.7491 51.983V52.004C68.7491 51.874 68.7491 51.874 68.7711 51.895H68.7701ZM40.0961 71.739L33.5831 80.293C32.9711 81.103 32.3591 81.912 31.7471 82.7C31.6601 82.809 31.3761 82.831 31.5291 82.656L38.0421 74.102C38.6541 73.292 39.266 72.482 39.878 71.695C39.943 71.585 40.2281 71.564 40.0961 71.739ZM57.385 69.376C57.232 69.332 57.4501 69.091 57.5601 69.136C57.7121 69.179 57.494 69.42 57.385 69.376ZM58.1501 68.151C58.1336 68.1838 58.1112 68.2133 58.0841 68.238C58.0621 68.26 58.0401 68.26 58.0401 68.282C58.0181 68.304 57.9971 68.304 57.9751 68.304C57.9531 68.304 57.9091 68.326 57.8871 68.304C57.8651 68.282 57.8441 68.26 57.8651 68.238L57.9311 68.019C57.9311 67.976 57.9531 67.954 57.9971 67.932L58.0401 67.888C58.0621 67.866 58.084 67.866 58.106 67.866C58.128 67.866 58.1711 67.844 58.1931 67.866C58.2151 67.888 58.237 67.91 58.215 67.932L58.1501 68.151V68.151ZM64.7061 56.533C64.1352 56.6277 63.5532 56.6352 62.9801 56.555C62.0495 56.4285 61.16 56.0917 60.3791 55.57C60.1821 55.44 60.0071 55.308 59.8321 55.177C58.9361 54.455 58.1931 53.514 57.7781 52.42C57.5811 51.873 57.4501 51.304 57.4501 50.713C57.4501 50.429 57.472 50.167 57.538 49.904C57.5787 49.6074 57.6672 49.3193 57.8 49.051C57.7208 49.3232 57.6623 49.601 57.6251 49.882C57.5465 50.7188 57.6817 51.5618 58.0181 52.332C58.4561 53.361 59.177 54.236 60.051 54.936C60.204 55.067 60.3791 55.176 60.5541 55.308C61.3035 55.8165 62.1527 56.1595 63.0451 56.314C64.1559 56.5157 65.3012 56.3942 66.3451 55.964C65.8277 56.2281 65.2766 56.4199 64.7071 56.534L64.7061 56.533ZM69.2961 100.465C69.2791 100.504 69.248 100.536 69.2091 100.553C69.1651 100.574 69.1431 100.596 69.0991 100.596C69.0781 100.596 69.034 100.596 69.034 100.574C68.99 100.487 68.9241 100.378 68.8811 100.29C68.8591 100.268 68.8811 100.246 68.8811 100.203C68.8984 100.164 68.9298 100.132 68.9691 100.115C69.0121 100.093 69.0341 100.071 69.0781 100.071C69.1001 100.071 69.1431 100.071 69.1431 100.093L69.2961 100.378C69.3181 100.399 69.3181 100.443 69.2961 100.465V100.465ZM69.3841 98.343C69.3519 98.3773 69.3148 98.4066 69.2741 98.43C69.2311 98.452 69.1221 98.474 69.1221 98.408C69.1001 98.233 69.0561 98.08 69.0121 97.905C69.0121 97.883 69.034 97.84 69.034 97.818C69.056 97.796 69.1001 97.752 69.1441 97.73C69.1871 97.708 69.2961 97.686 69.2961 97.752C69.3181 97.927 69.3621 98.08 69.3841 98.255C69.4271 98.299 69.4061 98.321 69.3841 98.343ZM71.1981 77.493C70.3652 78.8921 69.0141 79.9061 67.4381 80.315C67.2201 80.359 67.3511 80.118 67.4821 80.074C68.1978 79.8956 68.8713 79.5778 69.464 79.1387C70.0567 78.6996 70.557 78.1478 70.9361 77.515C70.9791 77.449 71.0451 77.383 71.1321 77.383C71.1761 77.405 71.2201 77.427 71.1981 77.493V77.493Z" fill="#704B76"/>
<path d="M70.6499 70.403C70.0273 71.469 69.3788 72.5196 68.7049 73.554C68.4649 73.904 68.2459 74.254 68.0059 74.604C68.2459 74.254 68.4859 73.904 68.7059 73.554C69.3798 72.52 70.0283 71.4697 70.6509 70.404L70.6499 70.403ZM73.2519 65.545C73.2959 65.479 73.3169 65.413 73.3389 65.348C73.3169 65.413 73.2739 65.478 73.2519 65.545ZM73.3379 65.35C73.9681 64.0703 74.5584 62.7714 75.1079 61.455C74.5626 62.7728 73.9722 64.0716 73.3379 65.349V65.35ZM68.0049 74.604C67.3884 75.5182 66.7471 76.4156 66.0819 77.295C65.8419 77.601 65.6219 77.907 65.3819 78.213C65.6219 77.907 65.8419 77.601 66.0819 77.295C66.74 76.4103 67.3811 75.5132 68.0049 74.604ZM54.6079 49.969C53.6787 50.5091 52.8744 51.2398 52.2479 52.113L50.8479 54.06L52.2479 52.113C52.9029 51.238 53.6899 50.493 54.6079 49.969Z" fill="#FF90A0"/>
<path d="M44.1821 96.832C43.8981 97.007 43.6141 97.16 43.3301 97.313H43.3081C43.2861 97.335 43.2641 97.335 43.2421 97.357C43.1321 97.423 43.0451 97.467 42.9361 97.532C42.8491 97.576 42.7391 97.642 42.6081 97.707C41.2924 98.433 39.9512 99.1117 38.5871 99.742C38.5651 99.742 38.5651 99.764 38.5431 99.764C38.4561 99.808 38.3461 99.851 38.2591 99.895C38.2371 99.917 38.2151 99.917 38.1711 99.939C38.1061 99.983 38.0411 100.004 37.9751 100.026C37.4501 100.289 36.9691 100.508 36.6201 100.683C40.1821 102.214 54.3451 106.196 54.3451 106.196C54.3451 106.196 59.5471 107.377 63.3281 107.946C62.2351 104.905 60.6401 102.717 59.5251 101.273L44.1821 96.832V96.832Z" fill="#704B76"/>
<path d="M68.771 51.895C68.837 51.917 68.924 51.961 68.99 52.005C69.012 52.026 69.033 52.048 69.055 52.092V52.114C69.055 52.136 69.055 52.136 69.077 52.157C69.077 52.157 69.077 52.179 69.099 52.179V52.245C69.099 52.267 69.121 52.289 69.121 52.332C69.1388 52.3658 69.1465 52.404 69.143 52.442C69.143 52.464 69.165 52.486 69.165 52.508C69.186 52.617 69.208 52.726 69.186 52.814C69.186 52.858 69.186 52.88 69.164 52.924L69.099 53.12L69.165 52.923C69.165 52.879 69.186 52.858 69.186 52.813C69.186 52.704 69.186 52.595 69.164 52.507C69.164 52.507 69.164 52.486 69.143 52.442C69.143 52.42 69.121 52.376 69.121 52.332C69.121 52.311 69.099 52.267 69.099 52.245V52.179C69.099 52.157 69.099 52.157 69.077 52.157C69.077 52.136 69.077 52.136 69.055 52.114V52.092C69.033 52.048 69.011 52.026 68.99 52.004C68.924 51.961 68.859 51.917 68.771 51.894C68.749 51.894 68.727 51.873 68.727 51.873C68.749 51.873 68.749 51.873 68.771 51.895V51.895ZM68.684 53.861C67.591 55.305 65.23 55.918 62.848 55.24C65.23 55.918 67.591 55.305 68.684 53.861ZM58.782 49.687C58.805 49.665 58.805 49.665 58.782 49.687C58.805 49.642 58.805 49.642 58.828 49.619C58.828 49.642 58.805 49.642 58.782 49.687C58.805 49.665 58.805 49.665 58.782 49.687ZM68.945 53.45C68.945 53.427 68.968 53.427 68.968 53.404C68.968 53.427 68.945 53.427 68.945 53.451V53.45ZM60.946 49.575C60.268 49.422 59.744 49.312 59.46 49.312C59.394 49.312 59.35 49.312 59.307 49.334C59.35 49.334 59.394 49.312 59.46 49.312C59.744 49.312 60.268 49.422 60.946 49.575C60.99 49.575 61.033 49.597 61.099 49.619C61.033 49.597 60.989 49.575 60.946 49.575ZM69.033 53.272C69.055 53.251 69.055 53.207 69.077 53.185C69.055 53.207 69.055 53.229 69.033 53.272Z" fill="#FF90A0"/>
<path d="M75.1529 61.345C75.1529 61.345 75.4589 60.755 75.7429 60.535C75.7429 60.535 75.7869 60.558 75.8309 60.667C75.5679 57.429 74.3439 55.022 72.3559 54.453C71.8709 54.3255 71.3654 54.2959 70.8689 54.366C71.2409 54.388 71.6119 54.476 71.9839 54.606C72.1149 54.65 72.2239 54.694 72.3559 54.738C73.0329 55.022 73.6009 55.438 74.0819 55.919C74.1039 55.941 74.1259 55.963 74.1259 55.985C74.4099 56.291 74.6499 56.619 74.8469 56.969C74.9129 57.101 74.9999 57.232 75.0439 57.385C75.1309 57.56 75.1969 57.735 75.2409 57.932C75.6119 59.004 75.5909 60.207 75.1529 61.345V61.345ZM75.4589 66.006C75.3047 66.7019 75.137 67.3947 74.9559 68.084C75.1749 67.384 75.3279 66.706 75.4589 66.006Z" fill="#DB9170"/>
<path d="M75.46 66.005C76.29 62.198 75.984 60.995 75.809 60.645C75.94 62.263 75.831 64.101 75.459 66.005H75.46Z" fill="#CE7755"/>
<path d="M74.9771 68.084C75.1741 67.318 75.3491 66.64 75.4801 66.005C75.8521 64.102 75.9601 62.264 75.8301 60.645C75.7861 60.557 75.7421 60.514 75.7421 60.514C75.4581 60.733 75.1521 61.324 75.1521 61.324C75.1521 61.367 75.1301 61.389 75.1091 61.433C74.5637 62.7509 73.9734 64.0496 73.3391 65.327C73.2941 65.393 73.2731 65.458 73.2511 65.524C73.1851 65.677 73.0981 65.83 73.0321 65.984C72.2897 67.4771 71.4952 68.9436 70.6501 70.381C70.0276 71.4468 69.379 72.4971 68.7051 73.531C68.4651 73.881 68.2451 74.231 68.0051 74.581C67.3888 75.4958 66.7476 76.3934 66.0821 77.273C65.8421 77.579 65.6221 77.885 65.3821 78.191C65.4261 78.213 65.4701 78.213 65.5141 78.235C68.8581 79.22 73.0981 74.669 74.9771 68.084V68.084Z" fill="#CE7755"/>
<path d="M17.824 104.27C17.824 104.27 17.802 104.291 17.824 104.27C17.824 104.291 17.824 104.313 17.824 104.27C18.894 103.832 19.944 103.373 21.014 102.913C21.692 102.563 22.938 101.95 23.944 101.535C23.922 101.513 23.9 101.491 23.878 101.447L17.824 104.27V104.27Z" fill="#DB9170"/>
<path d="M25.102 101.1L25.146 101.078H25.168C25.277 101.078 25.43 101.078 25.561 101.1C26.108 101.166 26.676 101.253 27.222 101.341C27.703 101.406 28.184 101.494 28.665 101.559C28.686 101.494 28.73 101.428 28.752 101.363C28.249 101.253 27.747 101.166 27.266 101.078C26.7081 100.983 26.1467 100.909 25.583 100.859C25.43 100.859 25.299 100.837 25.123 100.859C25.103 100.859 25.08 100.859 25.036 100.881L24.993 100.903L24.905 100.947L24.709 101.034L23.944 101.384L23.856 101.428C23.878 101.45 23.9 101.472 23.922 101.516C24.359 101.341 24.73 101.188 24.992 101.122L25.102 101.1V101.1Z" fill="#DB9170"/>
<path d="M30.588 101.797C30.61 101.797 30.588 101.797 30.588 101.797C29.976 101.622 29.364 101.491 28.752 101.359C28.73 101.425 28.686 101.491 28.664 101.556C29.32 101.644 29.954 101.731 30.588 101.797C30.588 101.819 30.588 101.819 30.588 101.797V101.797ZM18.96 98.518L19.878 98.124C20.184 97.971 20.468 97.818 20.753 97.643V97.621C20.4317 97.715 20.1176 97.832 19.813 97.971C19.507 98.102 19.201 98.256 18.917 98.387C18.327 98.671 17.715 98.978 17.124 99.262H17.146C17.736 99.043 18.349 98.781 18.96 98.518V98.518ZM19.44 101.121C19.44 101.121 19.44 101.099 19.44 101.121C19.113 101.209 18.807 101.34 18.479 101.449C18.173 101.581 17.867 101.734 17.583 101.865C16.993 102.149 16.381 102.456 15.791 102.74H15.812C16.424 102.478 17.036 102.237 17.648 101.974L18.566 101.581C18.872 101.449 19.156 101.296 19.441 101.121H19.44Z" fill="#DB9170"/>
<path d="M24.8611 54.475C25.0581 54.628 25.2331 54.803 25.4081 54.978C25.6701 55.284 25.9321 55.59 26.1081 55.962C26.4571 56.706 26.5011 57.582 26.2161 58.391C26.2161 58.391 26.2161 58.413 26.2381 58.413H26.2601C26.4351 58.019 26.5441 57.603 26.5661 57.166C26.5918 56.7247 26.5172 56.2833 26.3481 55.875C26.1951 55.459 25.9761 55.065 25.6261 54.759C25.5247 54.6526 25.4064 54.5638 25.2761 54.496C25.1461 54.475 24.9921 54.475 24.8611 54.475V54.475ZM63.0231 56.315C62.1271 56.162 61.2961 55.79 60.5311 55.309V55.331C60.4883 55.4229 60.4371 55.5106 60.3781 55.593C61.1655 56.102 62.0521 56.4377 62.9791 56.578C63.5532 56.6473 64.1339 56.6398 64.7061 56.556C65.2726 56.4554 65.8188 56.2629 66.3231 55.986C65.2521 56.381 64.1161 56.512 63.0231 56.315V56.315ZM60.5301 55.285C60.3561 55.175 60.1811 55.044 60.0281 54.913C59.1471 54.2251 58.4492 53.3307 57.9961 52.309C57.6577 51.5393 57.5221 50.6959 57.6021 49.859C57.6266 49.5756 57.6853 49.2962 57.7771 49.027C57.6699 49.3052 57.5823 49.5905 57.5151 49.881C57.4711 50.143 57.4491 50.428 57.4271 50.691C57.4271 51.259 57.5581 51.85 57.7551 52.397C58.1481 53.49 58.9131 54.431 59.8101 55.153C59.9841 55.285 60.1811 55.416 60.3561 55.547C60.4001 55.46 60.4661 55.372 60.5091 55.285C60.5091 55.307 60.5311 55.307 60.5311 55.285H60.5301ZM69.1651 97.73C69.1211 97.752 69.0771 97.773 69.0551 97.817C69.0331 97.839 69.0111 97.883 69.0331 97.905C69.0771 98.08 69.0991 98.255 69.1431 98.408C69.1651 98.495 69.2521 98.452 69.2961 98.43C69.3375 98.4076 69.3745 98.3777 69.4051 98.342C69.4271 98.32 69.4491 98.277 69.4271 98.255C69.4051 98.08 69.3611 97.905 69.3391 97.752C69.2961 97.664 69.2091 97.708 69.1651 97.73ZM69.1421 100.092C69.1201 100.07 69.0981 100.07 69.0761 100.07C69.0356 100.071 68.9969 100.087 68.9671 100.114L68.8801 100.202C68.8581 100.223 68.8581 100.245 68.8801 100.289C68.9231 100.377 68.9891 100.486 69.0331 100.574C69.0551 100.595 69.0761 100.595 69.0981 100.595C69.1388 100.595 69.1779 100.579 69.2081 100.552C69.2291 100.53 69.2731 100.508 69.2951 100.464C69.2951 100.442 69.3171 100.42 69.2951 100.377L69.1421 100.092V100.092ZM58.1051 67.863C58.0831 67.863 58.0621 67.885 58.0401 67.885C58.0181 67.907 57.9961 67.907 57.9961 67.929C57.9741 67.951 57.9521 67.995 57.9301 68.016L57.8651 68.236C57.8651 68.257 57.8651 68.279 57.8871 68.301C57.9081 68.323 57.9521 68.301 57.9741 68.301C57.9961 68.301 58.0181 68.279 58.0401 68.279C58.0513 68.278 58.0619 68.2731 58.0698 68.265C58.0777 68.2569 58.0824 68.2463 58.0831 68.235C58.1051 68.213 58.1271 68.169 58.1491 68.148L58.2151 67.928C58.2151 67.907 58.2151 67.885 58.1931 67.863C58.1711 67.841 58.1271 67.863 58.1051 67.863V67.863ZM57.5581 69.134C57.4491 69.112 57.2081 69.331 57.3831 69.375C57.4931 69.419 57.7111 69.178 57.5581 69.135V69.134ZM71.1101 77.402C71.0221 77.402 70.9561 77.468 70.9131 77.534C70.5339 78.1667 70.0337 78.7184 69.441 79.1576C68.8483 79.5967 68.1748 79.9146 67.4591 80.093C67.3291 80.137 67.1971 80.378 67.4151 80.334C68.1981 80.1375 68.934 79.7867 69.5796 79.3021C70.2253 78.8175 70.7677 78.2089 71.1751 77.512C71.2191 77.424 71.1751 77.402 71.1091 77.402H71.1101ZM39.8771 71.694C39.2651 72.504 38.6531 73.313 38.0411 74.101L31.5271 82.655C31.3971 82.83 31.6801 82.787 31.7461 82.699C32.3581 81.89 32.9701 81.08 33.5821 80.293L40.0951 71.738C40.2261 71.563 39.9421 71.585 39.8771 71.694V71.694Z" fill="#672448"/>
<path d="M71.416 32.093C71.984 31.809 69.252 30.518 68.028 29.687C65.777 28.177 63.8751 26.187 62.4111 23.845L62.389 23.823C62.039 23.254 61.689 22.642 61.406 22.007C61.317 21.8363 61.2369 21.661 61.166 21.482C61.1 21.307 61.012 21.132 60.946 20.957C60.7896 20.5669 60.6655 20.1645 60.575 19.754C60.575 19.688 60.553 19.644 60.531 19.579C60.51 19.513 60.51 19.491 60.51 19.447C60.51 19.404 60.488 19.338 60.488 19.272C60.488 19.207 60.466 19.142 60.466 19.076V19.032C60.444 18.769 60.444 18.529 60.444 18.266C60.444 18.156 60.444 18.047 60.466 17.938C60.488 17.894 60.466 17.828 60.488 17.785C60.488 17.763 60.488 17.763 60.51 17.741L60.531 17.697L60.116 18.113C59.788 18.485 59.46 18.901 59.154 19.36C59.1 19.9389 58.9119 20.4973 58.6047 20.9909C58.2974 21.4845 57.8795 21.8998 57.384 22.204C57.318 22.292 57.274 22.401 57.209 22.489L57.187 22.532C56.117 24.392 53.515 27.28 53.515 27.28C53.515 27.28 53.013 27.827 52.795 27.98L52.75 27.914C52.51 28.155 52.248 28.374 51.964 28.571L51.876 28.637C51.701 28.767 51.483 28.877 51.286 29.008C51.046 29.14 50.849 29.358 50.718 29.621C50.652 29.818 50.63 30.015 50.652 30.211C50.674 30.431 50.74 30.649 50.827 30.824C50.893 30.934 50.9581 31.044 51.0461 31.131C51.1761 31.261 51.33 31.349 51.505 31.415C51.679 31.459 51.855 31.481 52.029 31.459C51.919 31.699 51.854 31.962 51.767 32.224H71.1751C71.2631 32.181 71.3281 32.137 71.4151 32.094L71.416 32.093ZM52.9691 31.262C52.8232 31.3325 52.669 31.3839 52.51 31.415C52.466 31.415 52.073 31.481 52.16 31.349C52.182 31.328 52.204 31.306 52.248 31.306C52.27 31.284 52.292 31.284 52.335 31.284C52.532 31.262 52.707 31.218 52.903 31.131C52.969 31.109 53.0351 31.218 52.9691 31.261V31.262ZM58.542 27.324C58.346 27.521 58.062 27.542 57.843 27.74C57.384 27.761 58.564 27.017 58.543 27.324H58.542ZM60.706 30.584C60.182 28.658 57.6901 27.805 56.5321 29.468C57.1871 27.061 61.777 28.068 60.706 30.584ZM58.564 24.064C56.969 22.774 61.6901 22.729 61.5801 26.404C61.2301 25.245 59.788 24.129 58.564 24.064ZM74.323 31.985C73.9352 32.0281 73.5536 32.116 73.186 32.247C74.586 32.313 75.9621 32.554 77.2731 32.947C76.9724 32.7026 76.6421 32.4969 76.2901 32.335C75.6561 32.072 75 31.941 74.323 31.985Z" fill="#DB9170"/>
<path d="M52.094 40.692C52.334 41.545 52.728 42.354 53.252 43.054C55.198 45.549 58.848 44.892 61.536 44.454L61.951 44.389L62.672 44.258L70.782 41.982L70.825 41.873C71.022 41.173 72.093 39.816 72.311 39.773C72.486 39.729 73.098 40.21 73.557 40.276C75.939 40.604 78.016 39.97 78.671 37.388C78.846 36.732 78.846 36.031 78.715 35.353C78.5763 34.6962 78.2844 34.0815 77.863 33.559C77.6815 33.3337 77.4763 33.1286 77.251 32.947C75.9224 32.546 74.5493 32.3109 73.163 32.247C72.7231 32.4053 72.3048 32.6183 71.918 32.881C71.8327 32.9479 71.7524 33.0211 71.678 33.1C71.678 33.078 71.699 33.056 71.699 33.034C71.328 33.297 70.999 33.603 70.716 33.974C70.082 34.719 70.016 35.528 70.781 35.2C71 35.113 71.284 34.894 71.262 34.631C71.24 34.369 70.65 34.128 71.109 33.887C71.197 33.844 71.262 33.844 71.349 33.844C71.437 33.844 71.502 33.887 71.568 33.931C71.678 34.019 71.787 34.15 71.83 34.303C71.881 34.4511 71.8886 34.6107 71.852 34.763C71.787 35.091 71.59 35.353 71.349 35.55C71.1476 35.7258 70.8954 35.833 70.629 35.856C70.3656 35.8799 70.1022 35.8101 69.885 35.659C69.492 35.309 69.492 34.675 69.645 34.172C69.798 33.734 70.016 33.319 70.322 32.947C70.562 32.662 70.847 32.421 71.152 32.225H51.745C50.959 34.894 51.243 38.022 52.095 40.692H52.094ZM73.273 35.441C73.338 35.266 73.47 35.091 73.623 34.959C73.928 34.741 74.322 34.609 74.693 34.609C75.065 34.587 75.437 34.631 75.808 34.741C76.18 34.85 76.508 35.047 76.792 35.331C77.076 35.616 77.229 35.988 77.272 36.381C77.3019 36.7687 77.2424 37.158 77.098 37.519C76.9703 37.871 76.7692 38.1917 76.508 38.46C76.2619 38.7394 75.965 38.9694 75.633 39.138C76.22 38.7217 76.6632 38.1332 76.901 37.454C77.032 37.147 77.076 36.797 77.032 36.447C76.9838 36.1115 76.8482 35.7946 76.639 35.528C76.4011 35.2818 76.1091 35.0944 75.786 34.981C75.458 34.871 75.086 34.806 74.737 34.828C74.387 34.828 74.037 34.916 73.754 35.113C73.622 35.2 73.535 35.331 73.448 35.484C73.382 35.638 73.338 35.791 73.36 35.944C73.579 35.922 73.797 35.944 73.994 36.01C74.2265 36.0781 74.4226 36.2351 74.54 36.447C74.584 36.557 74.606 36.687 74.584 36.819C74.5696 36.9419 74.5159 37.057 74.431 37.147C74.3567 37.2431 74.2589 37.3185 74.147 37.366C74.037 37.41 73.907 37.432 73.797 37.41V37.388C73.907 37.388 74.016 37.366 74.125 37.322C74.2353 37.2815 74.3282 37.2041 74.388 37.103C74.4532 37.0117 74.4976 36.9073 74.518 36.797C74.5362 36.6858 74.5212 36.5718 74.475 36.469C74.409 36.382 74.344 36.294 74.256 36.229C74.165 36.1631 74.0605 36.118 73.95 36.097C73.7388 36.0244 73.5107 36.0167 73.295 36.075L73.229 36.097V36.031C73.1664 35.8361 73.1822 35.6245 73.273 35.441V35.441ZM70.869 41.479L70.825 41.501C70.847 41.479 70.869 41.479 70.869 41.479ZM53.405 36.841C53.471 36.775 53.58 36.797 53.645 36.863C53.8776 37.1371 54.1628 37.3617 54.4836 37.5237C54.8045 37.6857 55.1546 37.7818 55.5132 37.8062C55.8718 37.8306 56.2317 37.7829 56.5716 37.6659C56.9114 37.5489 57.2244 37.365 57.492 37.125C57.558 37.06 57.667 37.082 57.733 37.147C57.799 37.213 57.777 37.322 57.711 37.387C57.33 37.725 56.8704 37.9623 56.3741 38.077C55.8779 38.1918 55.3608 38.1804 54.87 38.044C54.3003 37.8807 53.7909 37.5539 53.405 37.104C53.318 37.016 53.34 36.907 53.405 36.841ZM70.738 42.156C68.99 43.184 63.263 46.554 61.908 46.729L61.099 49.551C61.143 49.573 61.187 49.573 61.252 49.595C61.34 49.617 61.427 49.661 61.536 49.682C61.733 49.748 61.952 49.814 62.17 49.879C62.192 49.879 62.236 49.901 62.258 49.901C64.247 50.426 66.716 51.214 68.138 51.673L69.033 48.698L68.705 48.61L70.738 42.156V42.156ZM59.132 19.36C58.498 20.278 57.886 21.307 57.362 22.204C57.8577 21.8997 58.2756 21.4842 58.5828 20.9904C58.8901 20.4966 59.0781 19.9381 59.132 19.359V19.36Z" fill="#DB9170"/>
<path d="M62.17 49.88C61.952 49.814 61.733 49.77 61.515 49.705C61.362 49.661 61.23 49.639 61.077 49.595L60.903 50.186C60.8427 50.3977 60.8685 50.6248 60.9749 50.8175C61.0814 51.0103 61.2597 51.1532 61.471 51.215L66.891 52.768C67.1057 52.8286 67.3355 52.8031 67.5316 52.6968C67.7278 52.5906 67.8746 52.4119 67.941 52.199L68.093 51.652C66.1433 51.0288 64.1833 50.4381 62.214 49.88C62.214 49.902 62.192 49.88 62.17 49.88V49.88Z" fill="#DB9170"/>
<path d="M61.5139 49.7081C61.7109 49.7521 61.9289 49.8181 62.1479 49.8831C61.9299 49.8171 61.7109 49.7521 61.5139 49.6861C61.4269 49.6641 61.3169 49.6201 61.2299 49.5981C61.1859 49.5771 61.1429 49.5771 61.0769 49.5551L61.0549 49.5981C61.2299 49.6421 61.3609 49.6861 61.5149 49.7081H61.5139Z" fill="#DB9170"/>
<path d="M61.0769 49.596C61.2079 49.639 61.3609 49.661 61.5139 49.706C61.7109 49.749 61.9299 49.814 62.1699 49.88C61.9519 49.814 61.7329 49.77 61.5359 49.705C61.3609 49.683 61.2299 49.639 61.0769 49.595V49.596Z" fill="#DB9170"/>
<path d="M70.871 41.48C70.848 41.48 70.848 41.504 70.825 41.504L70.871 41.481V41.48ZM71.678 33.078C71.744 33.012 71.831 32.925 71.918 32.859C71.853 32.903 71.766 32.969 71.7 33.013C71.7 33.034 71.7 33.056 71.678 33.078V33.078ZM62.083 46.16L62.716 44.234H62.651L62.629 44.322L61.995 46.247L61.865 46.707H61.908L61.93 46.619L62.083 46.159V46.16Z" fill="#CE7755"/>
<path d="M70.781 41.984L62.672 44.26H62.716L62.082 46.185L61.929 46.645L61.907 46.732C63.263 46.579 68.989 43.21 70.737 42.159L70.781 41.984Z" fill="#CE7755"/>
<path d="M73.2071 36.097L73.2731 36.075C73.4921 36.031 73.7101 36.031 73.9291 36.097C74.0381 36.119 74.1471 36.162 74.2351 36.228C74.3221 36.294 74.3881 36.381 74.4531 36.468C74.4971 36.578 74.5191 36.688 74.4971 36.797C74.4764 36.9074 74.4317 37.0118 74.3661 37.103C74.2937 37.1926 74.2043 37.267 74.1031 37.322C73.9994 37.3648 73.8883 37.3872 73.7761 37.388V37.409C73.8851 37.431 74.0161 37.409 74.1261 37.366C74.242 37.3257 74.3414 37.2484 74.4091 37.146C74.4939 37.0563 74.5475 36.9416 74.5621 36.819C74.5804 36.6934 74.5655 36.5652 74.5191 36.447C74.4617 36.3413 74.3837 36.2481 74.2898 36.1728C74.1958 36.0976 74.0879 36.0419 73.9721 36.009C73.773 35.922 73.5517 35.8993 73.3391 35.944C73.3391 35.79 73.3601 35.615 73.4261 35.484C73.4921 35.331 73.6011 35.222 73.7321 35.112C74.0161 34.915 74.3661 34.828 74.7161 34.828C75.0661 34.828 75.4151 34.871 75.7651 34.981C76.0931 35.091 76.3771 35.287 76.6171 35.528C76.8361 35.79 76.9671 36.118 77.0101 36.447C77.0541 36.775 77.0101 37.125 76.8801 37.453C76.6425 38.1326 76.1993 38.7215 75.6121 39.138C75.9437 38.9693 76.2403 38.7393 76.4861 38.46C76.7481 38.175 76.9451 37.869 77.0761 37.519C77.2291 37.169 77.2951 36.775 77.2511 36.381C77.2156 35.9863 77.0458 35.6157 76.7701 35.331C76.4956 35.057 76.1581 34.8544 75.7871 34.741C75.4262 34.6313 75.0487 34.5866 74.6721 34.609C74.2781 34.609 73.9071 34.74 73.6011 34.959C73.449 35.0903 73.3292 35.2549 73.2511 35.44C73.1853 35.6296 73.1631 35.8316 73.1861 36.031L73.2071 36.097V36.097ZM52.9031 31.132C52.7207 31.2059 52.53 31.2573 52.3351 31.285C52.3131 31.285 52.2691 31.307 52.2471 31.307C52.2041 31.307 52.1821 31.329 52.1601 31.351C52.0721 31.481 52.4661 31.416 52.5101 31.416C52.6631 31.394 52.8161 31.329 52.9691 31.263C53.0341 31.219 52.9691 31.11 52.9031 31.132V31.132ZM53.2741 27.367C53.2961 27.345 53.2961 27.324 53.3181 27.302C53.4711 27.082 53.6241 26.842 53.7771 26.623C53.7991 26.58 53.8421 26.536 53.8641 26.493C54.4298 25.6157 54.9622 24.7174 55.4601 23.8C55.5901 23.45 55.7221 23.1 55.8751 22.772C55.7001 22.794 55.5251 22.816 55.3281 22.816C54.8077 22.8164 54.2928 22.7097 53.8154 22.5026C53.338 22.2955 52.9083 21.9923 52.5531 21.612L52.5091 21.765C52.4431 21.962 52.3781 22.137 52.3781 22.291L52.3561 22.378L52.2251 22.838C52.0738 23.4395 51.986 24.0552 51.9631 24.675V24.828C51.9024 25.6107 52.0222 26.3969 52.3131 27.126C52.4001 27.323 52.5091 27.541 52.6181 27.716L52.7491 27.913C52.9241 27.738 53.0991 27.563 53.2741 27.366V27.367ZM59.0671 18.178C60.0969 17.1723 61.2585 16.3111 62.5201 15.618C62.8481 15.443 63.1761 15.268 63.5041 15.115C63.6131 15.049 63.7221 15.005 63.8311 14.962C64.4211 14.699 65.0111 14.481 65.6241 14.284C66.1831 14.0931 66.7519 13.9322 67.3281 13.802C67.3987 13.7772 67.4724 13.7627 67.5471 13.759C69.814 13.3046 72.1586 13.425 74.3671 14.109C76.5752 14.7898 78.58 16.0075 80.2021 17.653C82.5809 20.1451 84.1175 23.3211 84.5951 26.733C85.0321 29.511 84.5071 33.253 83.1751 36.053C83.6771 36.468 84.1581 36.884 84.6171 37.343L85.1411 36.753C85.5351 36.293 85.8841 35.812 86.2121 35.309C86.8805 34.2911 87.3891 33.1769 87.7201 32.005C88.5501 29.117 88.4201 26.032 87.3271 23.298L87.1301 22.838C86.787 22.0972 86.346 21.4057 85.8191 20.782C85.4725 20.3683 85.0676 20.0072 84.6171 19.71C84.3683 19.5802 84.113 19.4634 83.8521 19.36L83.6771 19.097L83.7431 19.009C83.8301 18.9 83.9391 18.769 84.0271 18.659C84.0491 18.638 84.0491 18.616 84.0701 18.616C84.8571 17.566 85.2721 16.559 85.0101 16.34C84.7921 16.165 84.1581 16.603 83.4801 17.368C83.4361 17.412 83.3931 17.478 83.3501 17.522V17.434C83.3051 16.559 83.0001 15.859 82.7151 15.903C82.4751 15.925 82.3001 16.384 82.2781 16.997V17.281L81.9721 16.953C81.6661 16.647 81.3601 16.34 81.0321 16.056L80.7041 15.771L80.4201 15.531C79.4584 14.7479 78.4186 14.066 77.3171 13.496L77.2511 13.474H77.1201C76.6611 13.234 76.2021 13.037 75.7211 12.84C75.3931 12.708 75.0211 12.555 74.6941 12.468C73.2731 11.9903 71.7968 11.6963 70.3011 11.593C69.8861 11.571 69.4921 11.549 69.0771 11.549C68.8371 11.527 68.5971 11.505 68.3341 11.483C68.0061 11.461 67.7001 11.44 67.3721 11.44H66.9571C66.4971 11.44 66.0611 11.44 65.6021 11.483C64.379 11.5522 63.1683 11.7653 61.9951 12.118C61.5151 12.271 61.0341 12.446 60.5751 12.665C60.4651 12.708 60.3781 12.752 60.2691 12.795L59.9851 12.949C59.8101 13.037 59.6131 13.146 59.4381 13.234C59.1101 13.408 58.7831 13.627 58.4771 13.824C58.1713 14.0235 57.879 14.243 57.6021 14.481C57.2521 14.765 56.9021 15.071 56.5751 15.4C57.1975 15.6041 57.7553 15.9681 58.1927 16.4557C58.6301 16.9432 58.9316 17.5372 59.0671 18.178V18.178Z" fill="#561D3E"/>
<path d="M83.174 36.053C82.978 36.49 82.737 36.884 82.497 37.278C82.453 37.344 82.4089 37.431 82.3659 37.497C80.4209 40.385 77.6449 41.391 74.4759 42.31L74.082 42.42C73.711 42.529 73.382 42.594 73.055 42.66L72.902 42.704H72.858L72.814 42.726L72.749 42.748L72.5739 42.791H72.5299L72.3769 42.835L72.2239 42.879L72.0709 42.901C71.5469 43.011 71.153 43.098 70.913 43.12C70.803 43.141 70.7379 43.163 70.7379 43.163H70.6729L69.0329 48.698L77.4479 51.105C77.7522 51.2049 78.0733 51.2429 78.3924 51.2166C78.7116 51.1903 79.0222 51.1003 79.306 50.952C79.9002 50.6433 80.3536 50.1187 80.5729 49.486C80.4639 49.77 78.4969 47.626 78.3659 47.386C77.7979 46.466 77.579 45.329 77.732 44.236C78.104 42.288 79.983 41.019 81.47 40.013L81.5569 39.947C81.7319 39.816 81.9289 39.684 82.1029 39.531C82.9722 38.8794 83.7841 38.1548 84.5299 37.365L84.5729 37.322C84.1266 36.8771 83.6598 36.4533 83.174 36.052V36.053ZM55.3289 22.816C55.5039 22.816 55.7 22.794 55.875 22.772C56.269 21.875 56.7489 21.022 57.2949 20.234C57.8192 19.4941 58.4122 18.8054 59.066 18.177C58.9291 17.5408 58.6326 16.95 58.2043 16.4601C57.776 15.9703 57.2301 15.5975 56.618 15.377C56.531 15.464 56.4429 15.53 56.3779 15.617C54.7089 17.2841 53.4192 19.2918 52.597 21.503L52.575 21.613C52.9246 21.9946 53.3503 22.2988 53.8246 22.506C54.2989 22.7132 54.8114 22.8188 55.3289 22.816V22.816ZM53.5149 27.304C53.5149 27.304 56.115 24.416 57.187 22.557L57.209 22.513C57.252 22.425 57.3179 22.316 57.3829 22.228C56.9282 22.5221 56.4125 22.7091 55.875 22.775C55.722 23.104 55.5909 23.454 55.4599 23.804C54.9702 24.725 54.4376 25.6226 53.8639 26.494C53.8429 26.539 53.799 26.582 53.777 26.626C53.624 26.845 53.471 27.086 53.318 27.304C53.296 27.326 53.2959 27.348 53.2739 27.37C53.1031 27.5631 52.9207 27.7457 52.728 27.917L52.7719 27.983C53.0119 27.829 53.5149 27.304 53.5149 27.304V27.304ZM75.8519 32.051C75.124 31.8502 74.3573 31.8351 73.622 32.007C73.382 32.073 73.164 32.139 72.945 32.248H73.164C73.5312 32.117 73.9124 32.0291 74.3 31.986C74.974 31.9469 75.6478 32.0668 76.2669 32.336C76.6169 32.489 76.9449 32.708 77.2509 32.948C77.3809 32.992 77.491 33.014 77.622 33.058C77.1291 32.5747 76.5192 32.2277 75.8519 32.051V32.051Z" fill="#561D3E"/>
<path d="M71.0659 22.053C69.6659 19.449 66.6509 15.161 64.0279 14.899C65.0919 14.4139 66.2059 14.047 67.3499 13.805C67.4204 13.7799 67.4942 13.7651 67.5689 13.761C69.8355 13.3069 72.1797 13.4272 74.3879 14.111C76.596 14.7918 78.6008 16.0095 80.2229 17.655C82.6021 20.147 84.139 23.323 84.6169 26.735C85.0539 29.513 84.5289 33.233 83.1959 36.055C84.5289 33.255 85.0539 29.513 84.6159 26.735C84.1288 23.326 82.5935 20.1528 80.2229 17.655C78.6008 16.0095 76.596 14.7918 74.3879 14.111C72.1794 13.427 69.8348 13.3067 67.5679 13.761C67.5029 13.761 67.4379 13.783 67.3499 13.805C66.7599 13.935 66.1919 14.089 65.6449 14.286C65.0357 14.4795 64.4375 14.7058 63.8529 14.964C63.7429 15.008 63.6339 15.074 63.5249 15.117C63.1969 15.271 62.8689 15.446 62.5419 15.621C61.28 16.3141 60.118 17.1753 59.0879 18.181C59.1539 18.443 59.1759 18.705 59.1759 18.99C59.1759 19.121 59.1759 19.252 59.1539 19.384C59.4599 18.946 59.7879 18.508 60.1159 18.137C60.2459 17.983 60.3779 17.852 60.5309 17.721L60.5089 17.765C60.5089 17.786 60.5089 17.786 60.4869 17.808C60.4869 17.874 60.4869 17.918 60.4649 17.962C60.4429 18.071 60.4429 18.18 60.4429 18.29C60.4174 18.5453 60.4248 18.8027 60.4649 19.056V19.099C60.4649 19.165 60.4869 19.252 60.4869 19.296C60.4869 19.362 60.5089 19.427 60.5089 19.471C60.5089 19.515 60.5089 19.537 60.5309 19.602C60.5529 19.668 60.5529 19.712 60.5749 19.777C60.6839 20.193 60.7929 20.587 60.9459 20.981C61.0119 21.156 61.0769 21.309 61.1649 21.506C61.2299 21.681 61.3179 21.856 61.4049 22.031C61.702 22.6526 62.0304 23.2587 62.3889 23.847L62.4109 23.869C63.844 26.1953 65.7594 28.1871 68.0279 29.71C69.2509 30.563 71.9839 31.833 71.4149 32.117C71.3279 32.161 71.2619 32.204 71.1969 32.248H71.9619C72.7049 29.558 72.9889 25.641 71.0659 22.053V22.053ZM72.2679 42.835C71.7649 42.923 71.2179 43.054 70.9349 43.098C71.1749 43.054 71.5689 42.988 72.0929 42.878L72.2459 42.857L72.3989 42.813L72.5519 42.769L72.4209 42.791L72.2679 42.835V42.835Z" fill="#561D3E"/>
<path d="M72.3781 39.86C72.6621 40.036 72.9681 40.189 73.2741 40.276H73.2961C73.3611 40.298 73.4051 40.32 73.4701 40.32C74.2415 40.5387 75.0586 40.5387 75.8301 40.32C76.3509 40.1688 76.8399 39.9242 77.2731 39.598C77.9058 39.1087 78.3963 38.4593 78.6941 37.717C78.9781 36.973 79.0441 36.163 78.9131 35.376C78.7667 34.5914 78.4029 33.8638 77.8631 33.276C77.7981 33.188 77.7101 33.122 77.6451 33.056C77.5141 33.013 77.4051 32.969 77.2731 32.947C77.4921 33.122 77.7111 33.341 77.8851 33.56C78.3011 34.085 78.5851 34.697 78.7381 35.354C78.8763 36.027 78.8613 36.7225 78.6941 37.389C78.0381 39.992 75.9621 40.627 73.5801 40.277C73.1201 40.211 72.5091 39.751 72.3341 39.773C72.0941 39.817 71.0441 41.173 70.8481 41.873L70.8041 41.983L70.9791 41.939C71.1761 41.371 71.5911 40.627 72.3781 39.861V39.86ZM71.1971 32.225C70.8911 32.422 70.6071 32.662 70.3671 32.947C70.0601 33.297 69.8411 33.712 69.6891 34.172C69.5361 34.675 69.5361 35.31 69.9291 35.66C70.1471 35.813 70.4091 35.878 70.6721 35.856C70.9341 35.835 71.1971 35.726 71.3931 35.55C71.6561 35.353 71.8301 35.069 71.8961 34.763C71.9222 34.6099 71.9147 34.4529 71.8741 34.303C71.8261 34.1555 71.7348 34.0258 71.6121 33.931C71.5478 33.8835 71.4724 33.8536 71.3931 33.844C71.3281 33.844 71.2191 33.844 71.1531 33.887C70.6931 34.128 71.2841 34.369 71.3061 34.631C71.3281 34.894 71.0221 35.113 70.8251 35.201C70.0601 35.528 70.1251 34.719 70.7591 33.975C71.0651 33.625 71.3931 33.318 71.7431 33.035C71.8301 32.793 71.9181 32.509 71.9831 32.225H71.1971ZM72.8581 42.703H72.9011L72.8141 42.725L72.8581 42.703ZM70.7381 43.143C70.7381 43.099 70.7161 42.683 70.9351 42.049C70.8691 42.093 70.8041 42.115 70.7381 42.159L68.7051 48.612L69.0331 48.7L70.6941 43.143H70.7381Z" fill="#561D3E"/>
<path d="M71.918 32.86C72.305 32.5969 72.7236 32.3835 73.164 32.225H72.945C72.574 32.4 72.245 32.618 71.918 32.859V32.86ZM59.067 18.178C58.4136 18.8061 57.821 19.4945 57.297 20.234C56.7347 21.0273 56.2584 21.8781 55.876 22.772C56.4102 22.6926 56.923 22.5065 57.384 22.225C57.908 21.306 58.499 20.3 59.154 19.381C59.176 19.25 59.176 19.118 59.176 18.987C59.1623 18.7144 59.1255 18.4434 59.066 18.177L59.067 18.178ZM72.53 42.769H72.573L72.748 42.725L72.814 42.703L72.552 42.769H72.53ZM75 42.136L74.279 42.356L73.885 42.465C73.535 42.552 73.208 42.618 72.902 42.705L73.055 42.661C73.361 42.596 73.71 42.508 74.082 42.421L74.475 42.311C77.645 41.414 80.442 40.386 82.365 37.498C82.409 37.432 82.453 37.345 82.497 37.279L82.365 37.476C80.53 40.189 77.951 41.261 75 42.136ZM70.738 43.143C70.738 43.143 70.803 43.121 70.913 43.1C70.847 43.122 70.781 43.122 70.738 43.143Z" fill="#561D3E"/>
<path d="M84.5951 26.754C84.1078 23.3448 82.5722 20.1716 80.2011 17.674C78.579 16.0283 76.5742 14.8107 74.3661 14.13C72.1576 13.446 69.813 13.3256 67.5461 13.78C67.4811 13.78 67.4161 13.802 67.3281 13.824C66.1921 14.064 65.0771 14.437 64.0061 14.918C66.6291 15.181 69.6661 19.447 71.0441 22.072C72.9671 25.66 72.6831 29.577 71.9401 32.246H72.2901C72.5081 32.246 72.7051 32.246 72.9231 32.268C73.1421 32.18 73.3611 32.093 73.6011 32.027C74.3353 31.8446 75.1047 31.8598 75.8311 32.071C76.4939 32.2694 77.1003 32.6216 77.6011 33.099C79.6133 33.7488 81.4881 34.7648 83.1311 36.096C84.5071 33.23 85.0101 29.511 84.5951 26.754V26.754Z" fill="#561D3E"/>
<path d="M72.3099 32.225H71.961C71.874 32.509 71.808 32.772 71.721 33.035C71.786 32.99 71.874 32.925 71.939 32.881C72.245 32.618 72.595 32.421 72.967 32.246C72.748 32.225 72.5289 32.225 72.3109 32.225H72.3099ZM77.623 33.057C77.711 33.122 77.776 33.21 77.842 33.275C78.381 33.864 78.7445 34.5921 78.8912 35.3769C79.0379 36.1618 78.9619 36.9721 78.6719 37.716C78.39 38.4671 77.8969 39.1207 77.252 39.598C76.8187 39.9242 76.3298 40.1688 75.809 40.32C75.0375 40.5387 74.2204 40.5387 73.4489 40.32C73.3829 40.298 73.339 40.298 73.274 40.277H73.252C72.9396 40.1699 72.6393 40.0305 72.356 39.861C71.569 40.627 71.1539 41.349 70.9359 41.939L71.198 41.874C71.1016 41.9416 70.9991 42.0002 70.892 42.049C70.673 42.683 70.695 43.099 70.695 43.143C70.739 43.143 70.805 43.121 70.87 43.121C71.154 43.055 71.7 42.946 72.203 42.858L72.356 42.836L72.487 42.814H72.509L72.771 42.749L72.859 42.727C73.165 42.639 73.493 42.574 73.842 42.487L74.236 42.377L74.956 42.158C77.907 41.283 80.486 40.211 82.323 37.52L82.453 37.323C82.694 36.929 82.9129 36.535 83.1309 36.098C81.5118 34.7334 79.6404 33.7001 77.623 33.057V33.057Z" fill="#561D3E"/>
<path d="M70.935 42.047C70.957 42.003 70.957 41.981 70.978 41.937L70.804 41.981L70.76 42.156C70.8096 42.107 70.8693 42.0694 70.935 42.046V42.047Z" fill="#561D3E"/>
<path d="M70.9779 41.939C70.9569 41.982 70.9569 42.004 70.9349 42.049C71.1099 41.939 71.2189 41.873 71.2409 41.873L70.9779 41.939V41.939ZM56.5319 29.47C57.6899 27.807 60.1819 28.66 60.7059 30.585C61.7769 28.069 57.1869 27.063 56.5319 29.469V29.47ZM58.5639 24.063C59.8089 24.129 61.2299 25.223 61.5799 26.404C61.6899 22.729 56.9459 22.794 58.5639 24.064V24.063ZM54.8479 38.022C55.3382 38.1651 55.857 38.18 56.3546 38.0652C56.8523 37.9503 57.312 37.7095 57.6899 37.366C57.7549 37.3 57.7769 37.191 57.7119 37.126C57.6459 37.06 57.5369 37.038 57.4709 37.103C57.2022 37.3407 56.889 37.5226 56.5494 37.6382C56.2098 37.7538 55.8506 37.8008 55.4926 37.7765C55.1347 37.7521 54.7852 37.6568 54.4644 37.4962C54.1436 37.3356 53.8579 37.1129 53.6239 36.841C53.5589 36.775 53.4489 36.753 53.3839 36.819C53.3179 36.885 53.2969 36.994 53.3619 37.059C53.7989 37.563 54.3019 37.869 54.8479 38.022V38.022ZM57.8429 27.761C58.0609 27.542 58.3449 27.542 58.5419 27.345C58.5639 27.017 57.3829 27.761 57.8419 27.761H57.8429Z" fill="#561D3E"/>
<path d="M24.4899 102.279C23.0039 103.439 20.1619 104.752 20.0969 105.758C20.0309 106.764 23.2869 105.846 26.7189 104.598C25.9151 103.885 25.1695 103.11 24.4889 102.279H24.4899ZM17.8229 104.293C17.8019 104.293 17.8229 104.271 17.8229 104.293L23.8989 101.449C22.4735 99.4471 21.4901 97.165 21.0139 94.754C19.7909 94.995 18.7409 95.235 18.1509 95.498C16.1619 96.417 14.1729 97.336 12.2499 98.364C11.9219 98.539 7.96588 100.814 8.83988 101.142C10.0199 101.624 15.4849 99.436 16.7959 99.458C15.6819 100.355 10.8509 103.483 11.0479 103.877C11.3539 104.49 13.3209 104.03 15.6809 102.893C14.4789 103.833 13.8239 104.621 14.0209 104.993C14.3709 105.693 17.4949 104.774 21.0139 102.893C19.9439 103.396 18.8939 103.833 17.8239 104.293C17.8239 104.293 17.8239 104.315 17.8239 104.293H17.8229ZM17.1029 99.283C17.6929 98.976 18.3039 98.692 18.8939 98.408C19.1999 98.254 19.4839 98.101 19.7909 97.992C20.0959 97.861 20.4019 97.751 20.7309 97.642V97.664C20.4465 97.8374 20.1546 97.9978 19.8559 98.145C19.5499 98.298 19.2439 98.408 18.9379 98.539C18.3479 98.78 17.7359 99.042 17.1019 99.283H17.1029ZM15.7909 102.783C15.7909 102.761 15.7909 102.761 15.7909 102.783C16.3809 102.477 16.9709 102.171 17.5829 101.886C17.8889 101.733 18.1729 101.58 18.4789 101.471C18.787 101.341 19.1006 101.224 19.4189 101.121C19.1349 101.296 18.8509 101.449 18.5449 101.602C18.2389 101.755 17.9329 101.864 17.6269 101.996C17.0183 102.266 16.4062 102.529 15.7909 102.783V102.783Z" fill="#DB9170"/>
<path d="M27.352 104.356C27.812 103.393 28.248 102.453 28.664 101.556C28.183 101.49 27.702 101.402 27.221 101.337C26.6693 101.246 26.1159 101.166 25.561 101.096C25.429 101.074 25.276 101.074 25.167 101.074H25.145L25.101 101.096L24.992 101.14C25.232 101.074 25.363 101.074 25.363 101.184C25.32 101.512 24.97 101.884 24.489 102.256C25.167 103.087 25.909 103.875 26.719 104.575C26.849 104.531 26.959 104.487 27.09 104.443C27.178 104.422 27.265 104.378 27.352 104.356Z" fill="#DB9170"/>
<path d="M23.9651 101.426L24.7301 101.076L24.9271 100.989L25.0141 100.945L25.0581 100.923C25.1021 100.901 25.1241 100.901 25.1451 100.901C25.3201 100.879 25.4511 100.901 25.6051 100.901C26.1731 100.945 26.7411 101.01 27.2881 101.12C27.7901 101.207 28.2931 101.295 28.7741 101.404C30.4781 97.772 31.8341 94.884 32.4671 93.506L31.8341 93.331L44.2041 96.875C45.2031 96.2958 46.1868 95.6906 47.1541 95.06C47.5261 94.819 47.9201 94.578 48.2911 94.316C48.3131 94.294 48.3351 94.294 48.3571 94.272C48.4011 94.25 48.4441 94.206 48.4881 94.184C48.5101 94.163 48.5321 94.162 48.5541 94.141C48.8161 93.966 49.0561 93.791 49.3191 93.637C49.3621 93.594 49.4061 93.572 49.4491 93.528C50.0266 93.1321 50.5954 92.7237 51.1551 92.303C52.4606 91.3375 53.7292 90.3231 54.9581 89.262C55.5481 88.759 56.1381 88.233 56.7281 87.708C57.3562 87.1417 57.9684 86.5582 58.5641 85.958C58.9607 85.5824 59.3469 85.1959 59.7221 84.799C60.1161 84.405 60.5091 83.989 60.8811 83.573C60.9681 83.486 61.0771 83.376 61.1651 83.267L61.9521 82.414C62.7549 81.5151 63.5345 80.5958 64.2901 79.657C64.5741 79.329 64.8371 78.979 65.0991 78.651C65.1861 78.519 65.2961 78.41 65.3831 78.279C65.6231 77.972 65.8421 77.666 66.0831 77.36C66.7437 76.4772 67.3848 75.5799 68.0061 74.669C68.2461 74.319 68.4861 73.969 68.7061 73.619C69.3796 72.5849 70.0277 71.5346 70.6501 70.469C71.4956 69.0313 72.2904 67.5644 73.0331 66.071C73.0981 65.917 73.1861 65.764 73.2511 65.611C73.2894 65.5497 73.3191 65.4834 73.3391 65.414C73.9693 64.1346 74.5596 62.836 75.1091 61.52C75.1311 61.476 75.1311 61.432 75.1531 61.41C75.5806 60.3191 75.6195 59.1142 75.2631 57.998C75.1961 57.822 75.1311 57.625 75.0651 57.451L74.8691 57.057C74.6683 56.7013 74.4259 56.3706 74.1471 56.072C74.1261 56.05 74.1261 56.028 74.1041 56.006C73.6229 55.4897 73.033 55.0867 72.3771 54.826C72.2461 54.781 72.1371 54.738 72.0061 54.694C71.7661 54.628 71.5461 54.562 71.3061 54.519H71.2621C71.1321 54.497 71.0221 54.475 70.8911 54.475C70.4908 54.4386 70.0878 54.446 69.6891 54.497C69.6231 54.497 69.5791 54.519 69.5141 54.519C69.0805 54.5835 68.6599 54.7165 68.2681 54.913C67.3341 55.3339 66.5494 56.0277 66.0171 56.903C65.8745 57.1225 65.7571 57.3573 65.6671 57.603C65.6021 57.779 65.5141 57.953 65.4491 58.107L65.2521 58.567C65.1861 58.741 65.0991 58.917 65.0121 59.091C64.8151 59.529 64.6181 59.967 64.4001 60.404C63.332 62.6702 62.1275 64.8696 60.7931 66.99C60.7931 66.99 60.7931 67.011 60.7711 67.011C59.3927 69.196 57.8895 71.2999 56.2691 73.312C55.7891 73.925 55.2641 74.516 54.7611 75.106C54.7171 75.172 54.6511 75.216 54.6081 75.281C53.0711 77.0207 51.4364 78.6717 49.7121 80.226C46.1471 83.4562 42.2238 86.2675 38.0191 88.605C36.9935 89.175 35.9513 89.7149 34.8941 90.224C34.8501 90.246 34.7841 90.268 34.7401 90.29H34.7191L34.6311 90.334C34.3251 90.487 33.9971 90.64 33.6911 90.771C31.7147 91.6917 29.6859 92.4955 27.6151 93.178C27.4411 93.244 27.2881 93.287 27.1131 93.353C26.7851 93.462 26.4571 93.572 26.1511 93.659C24.7081 94.119 22.7201 94.469 21.0581 94.819C21.5343 97.2299 22.5177 99.5121 23.9431 101.514L23.9651 101.426V101.426Z" fill="#DB9170"/>
<path d="M42.9371 97.533C43.0461 97.468 43.1331 97.424 43.2431 97.358C43.2651 97.337 43.2861 97.337 43.3081 97.315H43.3301C43.6141 97.162 43.8981 96.987 44.1821 96.833L31.8121 93.289L32.4461 93.464C31.8121 94.864 30.4561 97.73 28.7521 101.362C29.3641 101.493 29.9761 101.625 30.5661 101.778C30.5661 101.778 30.5881 101.778 30.5661 101.8C30.5661 101.8 30.5661 101.822 30.5441 101.822L28.6431 101.559C28.2271 102.456 27.7901 103.375 27.3311 104.36C27.5501 104.272 27.7471 104.206 27.9651 104.119L29.6701 103.463C29.7571 103.441 29.8231 103.397 29.8881 103.375C29.9541 103.353 30.0411 103.309 30.1081 103.288C30.1281 103.288 30.1281 103.288 30.1511 103.266C31.1272 102.89 32.0964 102.496 33.0581 102.084C33.4291 101.931 33.7581 101.8 33.9981 101.712C34.1941 101.647 34.3911 101.559 34.5881 101.472C34.7181 101.428 34.8501 101.362 34.9591 101.318C34.9811 101.318 35.0031 101.297 35.0251 101.297C35.2651 101.187 35.5271 101.1 35.7681 100.99C35.8121 100.968 35.8781 100.947 35.9211 100.925C36.4011 100.728 36.8831 100.509 37.3631 100.29C37.5381 100.203 37.7131 100.137 37.8881 100.05C37.9101 100.028 37.9321 100.028 37.9751 100.006C39.5255 99.2594 41.0631 98.4863 42.5871 97.687C42.7401 97.643 42.8491 97.577 42.9371 97.533V97.533ZM75.0441 57.363C75.1311 57.538 75.1971 57.735 75.2621 57.91C75.195 57.7255 75.1223 57.5431 75.0441 57.363V57.363ZM61.9521 82.373L61.1651 83.226C61.0781 83.336 60.9901 83.423 60.8811 83.533C60.9681 83.445 61.0781 83.336 61.1651 83.226C61.4271 82.92 61.6901 82.657 61.9521 82.373ZM48.5321 94.074C48.5101 94.096 48.4881 94.096 48.4661 94.118C48.4231 94.14 48.3791 94.184 48.3361 94.205C48.3791 94.184 48.4231 94.14 48.4661 94.118C48.4881 94.118 48.5101 94.096 48.5321 94.074ZM65.0991 78.587C65.1861 78.456 65.2961 78.346 65.3831 78.215C65.2961 78.346 65.1861 78.477 65.0991 78.587ZM71.2871 54.433H71.2411C71.2411 54.41 71.2641 54.41 71.2871 54.433ZM65.9961 56.793C65.8641 57.012 65.7331 57.231 65.6461 57.493C65.7331 57.253 65.8641 57.012 65.9961 56.793ZM72.3551 54.738C73.0331 55.023 73.6011 55.438 74.0821 55.92C74.1041 55.942 74.1261 55.963 74.1261 55.985C74.1041 55.963 74.1041 55.942 74.0821 55.92C73.5911 55.4147 73.0039 55.0128 72.3551 54.738V54.738Z" fill="#DB9170"/>
<path d="M38.303 99.893C38.391 99.849 38.5 99.805 38.587 99.762C38.609 99.762 38.609 99.74 38.631 99.74C39.9912 99.1009 41.3324 98.4222 42.653 97.705C41.1293 98.5047 39.5917 99.2778 38.041 100.024C38.107 100.002 38.172 99.959 38.238 99.937C38.238 99.915 38.26 99.893 38.303 99.893V99.893ZM71.284 54.432C71.524 54.475 71.743 54.519 71.984 54.607C71.7594 54.518 71.5241 54.4591 71.284 54.432V54.432ZM70.847 54.365C70.977 54.365 71.087 54.387 71.218 54.409C71.0961 54.3823 70.9718 54.3676 70.847 54.365Z" fill="#DB9170"/>
<path d="M70.8471 54.365C70.9771 54.365 71.0871 54.387 71.2181 54.409H71.2621C71.5021 54.453 71.7211 54.496 71.9621 54.584C71.6009 54.465 71.2264 54.3914 70.8471 54.365V54.365ZM27.2451 101.34C27.7251 101.405 28.2061 101.493 28.6871 101.559C28.2071 101.493 27.7251 101.405 27.2451 101.34ZM25.1671 101.074C25.2771 101.074 25.4291 101.074 25.5611 101.096C25.4301 101.074 25.2761 101.074 25.1671 101.074ZM28.6861 101.559L30.5881 101.821L28.6861 101.559ZM17.1021 99.285C17.7151 99.022 18.3261 98.781 18.9381 98.519L19.8561 98.125C19.5501 98.278 19.2441 98.388 18.9381 98.519C18.3481 98.781 17.7361 99.044 17.1031 99.285H17.1021ZM19.4401 101.121C19.1131 101.209 18.8071 101.34 18.5001 101.471C18.1951 101.602 17.8891 101.756 17.6051 101.887C17.9111 101.734 18.1951 101.581 18.5011 101.471C18.8071 101.34 19.1131 101.209 19.4411 101.121H19.4401Z" fill="#DB9170"/>
</svg>
