<svg width="98" height="89" viewBox="0 0 98 89" fill="none" xmlns="http://www.w3.org/2000/svg">
    <g clip-path="url(#r6dxmaif2a)">
        <path d="M57.661 1.902H34.746V32.57H57.66V1.902z" fill="#E7F0FD"/>
        <path d="M58.713 31.94H35.448V.924h23.265V31.94zm-22.916-.35h22.567V1.275H35.797V31.59z" fill="#96BED5"/>
        <path d="M56.172 13.875v6.794l-2.102-1.085c-.3 0-1.905 10.808-1.905 10.808H41.102s-1.605-10.808-1.904-10.808l-1.936 1.018V13.74c0-1.63 3.761-2.597 4.896-3.217 1.848-1.014 2.3-2.328 2.248-3.584h.07l-.076-.012c-.237-1.5-.794-1.923-.802-3.408h7.104c-.107 1.24-.174 2.53-1.04 3.436-.18.19-.544.293-.999.337.04 1.2.704 2.561 2.443 3.226 1.478.57 5.066 1.98 5.066 3.357z" fill="#fff"/>
        <path d="M48.384 12.113c-1.078 0-1.248 5.523-.96 7.605.214 1.54 3.722 2.379 4.28 1.66 1.283-1.651-1.261-9.265-3.32-9.265zM45.058 12.113c1.078 0 1.248 5.523.96 7.605-.21 1.54-3.785 2.42-4.279 1.66-1.351-2.075 1.26-9.265 3.319-9.265zM48.554 22.632c.028-.534-2.386-1.184-5.35-.305-2.287.681-1.596 4.3-.64 4.296.475-.005.795-1.002 1.711-.99 2.249.036 3.343-.807 3.564-2.217.083-.534.695-.357.715-.784zM47.16 25.436c-.123.538 3.287.261 3.709-1.354.376-1.43-1.094-1.738-1.797-1.022-.498.507-.458.661-.85 1.378-.474.863-.991.704-1.063.998z" fill="#D1E2FB"/>
        <path d="M50.984 24.92c-.395.524-.996.903-1.605 1.129-.704.257-1.404.261-2.146.238-1.486-.052-3.26-.23-4.342 1.013-.53.606-.838 1.414-.774 2.225.02.253.201.47.47.47.241 0 .494-.217.47-.47a2.09 2.09 0 0 1 .514-1.576c.442-.494 1.043-.692 1.722-.728 1.478-.083 3.027.26 4.445-.3.818-.325 1.521-.813 2.055-1.521.154-.206.031-.53-.17-.645-.237-.14-.49-.036-.64.165h.001z" fill="#D1E2FB"/>
        <path d="M27.607 1.902H4.69V32.57h22.916V1.902z" fill="#E7F0FD"/>
        <path d="M28.658 31.94H5.393V.924h23.265V31.94zm-22.916-.35H28.31V1.275H5.742V31.59z" fill="#96BED5"/>
        <path d="M12.742 12.496a4.564 4.564 0 0 0 4.56-4.568 4.564 4.564 0 0 0-4.56-4.569 4.564 4.564 0 0 0-4.559 4.569 4.564 4.564 0 0 0 4.56 4.568z" fill="#fff"/>
        <path d="m14.884 3.902-2.141 4.03V3.363a4.486 4.486 0 0 1 2.141.539z" fill="#D1E2FB"/>
        <path d="M17.302 7.928h-4.56L14.885 3.9a4.559 4.559 0 0 1 2.418 4.027z" fill="#96BED5"/>
        <path d="M17.302 7.928a4.577 4.577 0 0 1-2.859 4.238 4.553 4.553 0 0 1-4.992-1.074l3.292-3.16h4.56v-.004z" fill="#C1C1E9"/>
        <path d="m12.743 7.928-3.292 3.16a4.657 4.657 0 0 1-.648-.864l3.94-2.296z" fill="#8383D3"/>
        <path d="m15.694 6.22-.205-.282 2.176-1.585h1.799v.35h-1.686L15.694 6.22zM15.685 9.37l-.187.294 3.852 2.463.188-.295-3.853-2.463zM25.809 15.315h-9.135V27.83h9.135V15.315zM25.809 29.042H8.183v.76H25.81v-.76z" fill="#fff"/>
        <path d="M15.588 15.315H8.183v.923h7.405v-.923zM15.588 17.247H8.183v.923h7.405v-.923zM15.588 19.18H8.183v.922h7.405v-.922zM15.588 21.111H8.183v.923h7.405v-.923zM15.588 23.044H8.183v.923h7.405v-.923zM15.588 24.976H8.183v.922h7.405v-.922zM15.588 26.907H8.183v.923h7.405v-.923zM25.809 3.898h-5.95v.594h5.95v-.594zM25.809 4.867h-5.95v.594h5.95v-.594zM23.905 5.838h-4.046v.594h4.046v-.594zM25.809 12.231h-5.95v.594h5.95v-.594zM25.809 13.201h-5.95v.594h5.95v-.594z" fill="#E7F0FD"/>
        <path d="M97.274 70.116H7.51a4.424 4.424 0 0 1-2.837-1.027 4.44 4.44 0 0 1-1.523-2.61L.797 53.727a4.371 4.371 0 0 1 .936-3.582 4.354 4.354 0 0 1 3.347-1.57h71.078c1.15 0 2.265.405 3.147 1.145a4.914 4.914 0 0 1 1.68 2.903l2.458 13.794a4.091 4.091 0 0 0 1.402 2.405c.734.613 1.659.948 2.614.948h9.815v.346zM5.08 48.921A3.997 3.997 0 0 0 2 50.366a4.015 4.015 0 0 0-.861 3.295l2.353 12.751a4.092 4.092 0 0 0 1.402 2.407c.734.612 1.659.948 2.614.948h78.224a4.43 4.43 0 0 1-2.634-3.288l-2.457-13.795a4.563 4.563 0 0 0-1.56-2.696 4.547 4.547 0 0 0-2.924-1.063L5.08 48.92z" fill="#6464C8"/>
        <path d="M36.319 69.36v.365H8.625v-.364a3.327 3.327 0 0 1 2.047-3.07 3.308 3.308 0 0 1 1.269-.253H33.01c.878.002 1.72.353 2.34.976.62.623.968 1.467.968 2.347zM66.636 69.725H38.943v-.091a3.6 3.6 0 0 1 1.05-2.543 3.586 3.586 0 0 1 2.538-1.053h20.517a3.58 3.58 0 0 1 3.315 2.22 3.6 3.6 0 0 1 .273 1.376v.09zM96.96 69.725H69.268v-.091a3.6 3.6 0 0 1 1.05-2.543 3.586 3.586 0 0 1 2.538-1.053h20.516a3.58 3.58 0 0 1 3.315 2.22c.18.436.273.903.273 1.376v.09z" fill="#B1CCE5"/>
        <path d="M17.694 69.36v.365H8.62v-.364a3.327 3.327 0 0 1 2.047-3.07 3.309 3.309 0 0 1 1.269-.253h2.443a3.309 3.309 0 0 1 3.064 2.051c.167.403.252.835.252 1.272zM48.018 69.36v.365h-9.075v-.364a3.326 3.326 0 0 1 2.047-3.07 3.308 3.308 0 0 1 1.27-.253h2.442a3.309 3.309 0 0 1 3.064 2.051c.167.403.253.835.252 1.272zM78.343 69.36v.365h-9.075v-.364a3.326 3.326 0 0 1 2.046-3.07 3.308 3.308 0 0 1 1.27-.253h2.443c.879 0 1.722.351 2.344.974.621.623.97 1.468.972 2.349zM22.413 60.772H6.308a3.507 3.507 0 0 1-2.248-.814 3.52 3.52 0 0 1-1.207-2.068L.913 47.37a3.46 3.46 0 0 1 1.929-3.754 3.44 3.44 0 0 1 1.463-.325h16.104c.822 0 1.618.287 2.249.814a3.52 3.52 0 0 1 1.207 2.068l1.94 10.52a3.46 3.46 0 0 1-1.929 3.753 3.44 3.44 0 0 1-1.463.326zM51.795 60.772H35.69a3.507 3.507 0 0 1-3.455-2.882l-1.94-10.52a3.46 3.46 0 0 1 1.928-3.754 3.441 3.441 0 0 1 1.464-.325H49.79c.822 0 1.617.287 2.249.814a3.52 3.52 0 0 1 1.207 2.068l1.94 10.52a3.461 3.461 0 0 1-1.929 3.753 3.441 3.441 0 0 1-1.463.326z" fill="#86A5BC"/>
        <path d="M22.413 60.772H7.656a3.507 3.507 0 0 1-2.249-.814A3.52 3.52 0 0 1 4.2 57.89L2.26 47.37a3.46 3.46 0 0 1 1.93-3.754 3.44 3.44 0 0 1 1.462-.325H20.41c.821 0 1.617.287 2.248.814a3.52 3.52 0 0 1 1.207 2.068l1.94 10.52a3.461 3.461 0 0 1-1.929 3.753 3.441 3.441 0 0 1-1.463.326zM51.795 60.772H37.037a3.507 3.507 0 0 1-3.455-2.882l-1.94-10.52a3.461 3.461 0 0 1 .742-2.837 3.447 3.447 0 0 1 2.65-1.242H49.79c.822 0 1.617.287 2.249.814a3.52 3.52 0 0 1 1.207 2.068l1.94 10.52a3.461 3.461 0 0 1-1.93 3.753 3.441 3.441 0 0 1-1.462.326z" fill="#B1CCE5"/>
        <path d="m96.87 69.989-1.348-5.848c-1.079-4.687-4.747-7.959-8.927-7.959h-2.17v-.42h2.17c4.374 0 8.212 3.407 9.335 8.285l1.347 5.847-.408.094z" fill="#6464C8"/>
        <path d="M81.177 60.772H65.072a3.507 3.507 0 0 1-2.248-.814 3.52 3.52 0 0 1-1.207-2.068l-1.941-10.52a3.46 3.46 0 0 1 1.93-3.754 3.44 3.44 0 0 1 1.463-.325h16.104c.822 0 1.617.287 2.249.814a3.52 3.52 0 0 1 1.207 2.068l1.94 10.52a3.46 3.46 0 0 1-1.93 3.753 3.44 3.44 0 0 1-1.462.326z" fill="#D1E2FB"/>
        <path d="M81.177 60.772H66.419a3.507 3.507 0 0 1-3.455-2.882l-1.94-10.52a3.46 3.46 0 0 1 1.928-3.754 3.441 3.441 0 0 1 1.464-.325h14.757c.822 0 1.617.287 2.248.814a3.519 3.519 0 0 1 1.207 2.068l1.941 10.52a3.461 3.461 0 0 1-.742 2.836 3.448 3.448 0 0 1-2.65 1.243z" fill="#B1CCE5"/>
        <path d="m23.195 88.666-5.221-18.508h-6.787l-5.22 18.508-.336-.095 5.292-18.762h7.315L23.53 88.57l-.336.095zM96.793 88.666l-5.221-18.508h-6.787l-5.22 18.508-.336-.095 5.292-18.762h7.314l5.293 18.762-.335.095z" fill="#6464C8"/>
        <path d="M44.103 50.885c.315.664-11.106 1.58-14.205.545-2.597-.874-6.527-13.381-6.039-14.521.475-1.12 2.492-1.686 3.512.195.76 1.413 3.176 7.758 4.216 11.123 0 0 11.986 1.524 12.516 2.658z" fill="#CE8449"/>
        <path d="M42.728 50.577c.16-.462 1.871-.224 2.562-.175.691.049 1.773.377 1.955.482.433.245.705.973.705.973s-.077.105-.635-.182c-.53-.273-1.648-.168-1.878-.021-.517.342.67.398.817.608.146.21.076.343.076.343s-1.235-.042-1.424-.056c-.188-.014-.837-.287-1.221-.594-.377-.294-1.145-.838-.957-1.378z" fill="#CE8449"/>
        <path d="M33.374 66.735c-4.014.077-4.977.098-7.462.105-.377 0-.74-.014-1.082-.042-2.095.028-3.896.035-5.424.042-7.19.014-8.321-4.63-8.259-6.939-.048-2.84 2.64-7.142 3.372-9.597.35-1.168-.76-5.68-1.605-9.36-.86-3.728.488-5.07 2.799-5.651 2.576-.644 5.912-.476 6.701-.37 2.492.328 2.918.587 4.063 1.202.572.308.712 6.289.88 7.856.167 1.566-.657 2.51-1.634 3.154-.28.182-1.075 1.175-.851 3.47.111 1.133.816 2.889 1.41 4.442 3.93.923 8.076 3.078 9.898 3.896 3.91 1.763 2.54 7.688-2.806 7.792z" fill="#D75426"/>
        <path d="M39.88 84.86c.356 2.56 1.494 2.854 1.396 2.896-2.639 1.245-3.141-1.847-3.427-2.378-1.187-2.183-3.512-7.897-4.915-13.186-1.145-4.302-.223-7.247.524-9.52.872-2.651 4.349-4.987 4.956-.741.306 2.147-.593 8.177 1.466 22.93z" fill="#CE8449"/>
        <path d="M36.97 89.001s-1.062-3.679.355-4.246c.454-.181 1.005.273 1.152 1.826.126 1.357 2.101 1.567 2.29.686 0 0 2.422.49 2.422 1.728h-6.22V89z" fill="#41465A"/>
        <path d="M32.348 63.105c-.586 2.938-1.089 3.764-2.506 8.492-.517 1.714-2.771 9.17-3.784 13.732-.258 1.154 3.26 3.12-1.542 2.595-.266-.028.314-1.868.09-3.407-.495-3.372-.942-9.534-.754-14.29.182-4.534 2.925-7.332 4.524-9.171 1.661-1.91 4.899-2.61 3.972 2.05z" fill="#CE8449"/>
        <path d="M24.648 85.314c-.377 0-1.04.686-.984 1.777.036.65.17 1.292.398 1.903h4.237c-.077-1.175-1.326-1.728-1.326-1.728-1.096-.175-2.513.867-2.36-.755l.035-1.197z" fill="#41465A"/>
        <path d="M26.26 49.423c.161.056.761.182 1.062.483.146.147.258.72.258.77 0 .048-.049.328-.049.328s-.23.014-.223-.21c.007-.266-.259-.44-.426-.503-.07-.028-.14-.098-.16 0-.022.097.167.21.216.28a.263.263 0 0 1 .014.23s-.405-.112-.482-.147c-.077-.035-.489-.448-.635-.783-.147-.336.063-.572.426-.448z" fill="#D49046"/>
        <path d="M23.196 43.862c-.824.252-.789 2.42.105 4.323.893 1.903 3.183 2.036 3.183 1.805 0-.406-.873-2.008-1.02-2.413-.627-1.728-.907-4.127-2.268-3.715z" fill="#D49046"/>
        <path d="M20.62 51.354c.3-.538.72-.944 4.244-.818 4.084.147 6.304 3.819 5.606 5.295-.223.469-1.054.112-5.34-.427-2.52-.315-5.83-1.644-4.51-4.05z" fill="#D1E2FB"/>
        <path d="M29.863 55.316c.125.769.453 1.392.81 1.363.37-.028.725-.699.844-1.475.105-.686-.042-1.434-1.27-1.637-.532-.086-.524.914-.384 1.748z" fill="#32323C"/>
        <path d="M23.72 43.694c.46.51 1.417 3.05 1.145 8.086-.217 4.009-1.885 4.337-2.402 4.372-2.98.196-4.44-1.72-4.663-3.273-.6-4.127-.042-7.8 2.457-9.555.859-.6 2.904-.245 3.463.37z" fill="#E7F0FD"/>
        <path d="M20.201 41.255s3.163.448 3.763-.965c.475-1.105-3.092-2.7-4.44-.014 0 0-1.117.23-1.026 1.623.09 1.392 1.452 1.496 1.452 1.496l-.077-.727c.007-.002.594-.142.328-1.413z" fill="#41465A"/>
        <path d="M23.776 43.715c-1.397 1.665-3.463-.007-3.777-.287-.07-.007-.81-.07-.74-.454.063-.35.53-.33.642-.315.098-.035.538-.266.307-1.406 0 0 2.402.343 3.421-.51.6.936.796 2.196.147 2.972zM22.575 49.94c.125.133.921.924 1.138.994.216.07.747-.042.795-.07.05-.028.294-.196.294-.196s-.098-.23-.308-.126c-.25.126-.551-.049-.684-.182-.055-.056-.118-.203-.035-.266.084-.063.315.14.405.154a.264.264 0 0 0 .23-.098s-.37-.307-.44-.37c-.069-.063-.662-.273-1.053-.252-.391.02-.629.112-.342.413z" fill="#D49046"/>
        <path d="M19.872 44.232c-.866 0-1.906 3.022-1.005 4.932.9 1.91 4.83 1.126 4.83.888 0-.405-2.73-1.448-2.736-1.881-.02-.427.42-3.939-1.09-3.939z" fill="#D49046"/>
        <path d="M18.296 52.103c.3-.539.16-1.015 5.075-.819 4.083.168 5.48 3.82 4.781 5.295-.223.47-.99-1.133-5.417-.426-2.514.405-5.766-1.637-4.44-4.05z" fill="#E7F0FD"/>
        <path d="M29.095 55.516c-.3.776-.768 1.357-1.131 1.252-.384-.105-.608-.888-.566-1.72.035-.735.35-1.49 1.676-1.435.565.028.335 1.073.02 1.903z" fill="#32323C"/>
        <path d="M23.029 51.892c0 .546-10.827 1.14-13.864-.392-.349-.174-.565-.405-.663-.664v-.007c-.23-.518-.258-1.336.084-2.54 2.96-10.345 4.02-11.023 5.089-12.017.886-.825 2.987.33 2.548 2.42-.315 1.511-2.506 6.793-3.938 9.836 2.8.461 10.744 2.525 10.744 3.364z" fill="#CE8449"/>
        <path d="M27.566 52.704a.363.363 0 0 1-.447.063c-.18-.098-.516-.357-.746-.455.293.336.586.693.586.693a1.838 1.838 0 0 1-.9.244c-.266.007-.685-.356-1.069-.552-.383-.196-.935.154-1.577.266-.642.111-1.375-.763-1.375-.763l.14-.86c1.04-.063 2.89.196 3.566.377.3.035.852.196 1.04.322.224.128.782.665.782.665z" fill="#BA783C"/>
        <path d="M26.666 53.096a.071.071 0 0 1-.05-.021c-.316-.32-.874-.84-1.023-.885l-.916-.273.04-.134.914.273c.234.066.998.832 1.084.92a.07.07 0 0 1-.01.108.07.07 0 0 1-.04.011z" fill="#CB7C2D"/>
        <path d="M26.247 53.243a.07.07 0 0 1-.05-.022c-.273-.28-.762-.744-.908-.786l-.916-.273.04-.134.915.273c.233.066.897.745.973.823a.07.07 0 0 1-.025.114.07.07 0 0 1-.03.005z" fill="#CB7C2D"/>
        <path d="M50.77 66.561H44.3a4.056 4.056 0 0 1-3.18-1.537 4.076 4.076 0 0 1-.778-3.45l1.305-4.624a.884.884 0 0 1 .866-.685h10.052a.894.894 0 0 1 .866.685l1.305 4.624a4.089 4.089 0 0 1-.785 3.45 4.075 4.075 0 0 1-3.18 1.537z" fill="#D75426"/>
        <path d="M50.77 66.736H44.3a4.233 4.233 0 0 1-3.316-1.604 4.251 4.251 0 0 1-.812-3.598v-.008l1.304-4.617a1.055 1.055 0 0 1 1.035-.817h10.052a1.065 1.065 0 0 1 1.035.818l1.306 4.627a4.265 4.265 0 0 1-.819 3.597 4.25 4.25 0 0 1-3.316 1.604l.002-.002zm-10.262-5.12A3.905 3.905 0 0 0 42.61 66a3.883 3.883 0 0 0 1.688.387h6.47a3.892 3.892 0 0 0 3.043-1.47 3.909 3.909 0 0 0 .753-3.3l-1.304-4.617a.72.72 0 0 0-.698-.56H42.51a.702.702 0 0 0-.698.549v.01l-1.303 4.619z" fill="#E5B21A"/>
        <path d="M51.535 56.434h-7.994l-.028-.14a3.73 3.73 0 0 1-.066-.7c0-2.152 1.835-3.903 4.091-3.903 2.255 0 4.09 1.75 4.09 3.904 0 .235-.023.469-.07.7l-.023.139zm-7.703-.35h7.412a3.33 3.33 0 0 0 .036-.49c0-1.958-1.68-3.553-3.742-3.553-2.063 0-3.742 1.594-3.742 3.554 0 .163.012.327.036.49z" fill="#E5B21A"/>
        <path d="M53.206 56.544c-.132 3.015-2.673 5.422-5.675 5.422-2.918 0-5.543-2.407-5.669-5.422a.886.886 0 0 1 .65-.28h10.052a.877.877 0 0 1 .642.28z" fill="#D75426"/>
        <path d="M47.53 62.14c-1.465 0-2.889-.579-4-1.628-1.126-1.063-1.78-2.47-1.842-3.961v-.07l.049-.053a1.058 1.058 0 0 1 .777-.336h10.053a1.045 1.045 0 0 1 .768.336l.048.053v.07a5.902 5.902 0 0 1-1.816 3.96 5.879 5.879 0 0 1-4.033 1.629h-.003zm-5.49-5.526c.078 1.371.69 2.663 1.729 3.644 1.04.981 2.383 1.533 3.762 1.533 2.88 0 5.329-2.316 5.496-5.177a.708.708 0 0 0-.463-.174H42.512a.71.71 0 0 0-.471.173z" fill="#E5B21A"/>
        <path d="M47.929 61.083h-.782v1.847h.782v-1.847z" fill="#fff"/>
        <path d="M48.103 63.105h-1.13v-2.194h1.13v2.194zm-.782-.35h.433v-1.494h-.433v1.495z" fill="#E5B21A"/>
        <path d="M22.694 23.737c-.587.07-2.304-1.553-4.622.245-2.317 1.798-3.218 4.834-3.434 5.351-.056.133 1.061 4.057 6.408 4.659 4.845.546 6.339-.693 6.339-.693s-1.25-2.448-.978-4.91c.245-2.267-.183-5.078-3.713-4.652z" fill="#001443"/>
        <path d="M27.841 33.055c-.06-.088-1.457-2.205-1.133-4.686.205-1.54-.16-2.918-.977-3.68-.745-.696-1.824-.905-3.206-.62l-.055-.275c1.454-.299 2.648-.06 3.451.69.895.84 1.283 2.265 1.064 3.918-.311 2.378 1.073 4.47 1.087 4.492l-.23.161z" fill="#41465A"/>
        <path d="M18.673 29.138s.858 4.28-1.892 5.966c0 0 4.02 3.078 7.497.245 0 0-2.604-.874-2.268-6.211h-3.337z" fill="#CE8449"/>
        <path d="M18.673 29.138s.028.147.056.391c.02.084.035.133.035.133 0 .525 1.137 3.659 3.741 3.645.007 0-.251-.84-.251-.84-.216-.832-.335-1.916-.244-3.322h-3.337v-.007z" fill="#AD6A2D"/>
        <path d="M24.383 29.207c-.105.735-.977 2.952-1.717 2.938-1.64-.02-3.91-1.881-3.902-2.399-.496-.119-1.46-1.273-1.034-1.609.517-.412.824-.014.866.05h.014c2.206-.07 1.766-3.295 3.602-3.295 1.71 0 2.171 1.23 2.213 1.84.02.37.119 1.405-.042 2.476z" fill="#CE8449"/>
        <path d="M21.73 27.94a.28.28 0 1 0 0-.559.28.28 0 0 0 0 .56zM23.88 28.031a.28.28 0 1 0 0-.559.28.28 0 0 0 0 .56z" fill="#40465C"/>
        <path d="M23.223 29.116a.14.14 0 0 1-.14-.113l-.23-1.168a.14.14 0 0 1 .108-.171.14.14 0 0 1 .165.117l.23 1.168a.14.14 0 0 1-.133.167z" fill="#AD6A2D"/>
        <path d="M22.752 30.11c-.731 0-1.1-.344-1.117-.36a.14.14 0 0 1 0-.195.14.14 0 0 1 .192-.009c.018.017.426.384 1.266.258a.144.144 0 0 1 .105.026.142.142 0 0 1-.063.253 2.497 2.497 0 0 1-.383.026z" fill="#fff"/>
        <path d="M75.776 53.267c-.15 1.05-.5 2.068-.591 3.127-.14 1.604.326 3.209.222 4.816-.09 1.407-.614 2.778-.52 4.184.062.945.403 1.855.403 2.803 0 .787-.236 1.561-.209 2.348.029.77.308 1.497.419 2.256.18 1.259-.113 2.55-.018 3.822.053.707.224 1.399.319 2.098a9.544 9.544 0 0 1-.385 4.197c.154-4.547-.903-9.023-1.671-13.496-.35-2.033-.642-4.105-.466-6.167.172-2.014.784-3.958 1.067-5.958.227-1.609.24-3.25.231-4.878-.006-1.271-.1-3.196.817-4.168.654 1.205.578 3.65.382 5.016zM66.16 60.956l1.81.036v.042c-.07 1.409-.571 2.788-.455 4.192.077.944.433 1.85.447 2.798.012.786-.21 1.565-.17 2.35.04.77.33 1.492.45 2.25.201 1.259-.073 2.552.042 3.822.064.706.247 1.392.349 2.092a9.532 9.532 0 0 1-.319 4.205c.083-4.552-1.042-9.01-1.88-13.47-.381-2.028-.705-4.093-.558-6.155.056-.725.15-1.447.284-2.162z" fill="#4398BA"/>
        <path d="m66.405 83.458.278 3.622h-2.108l-.396-3.717 2.226.095z" fill="#F48F7D"/>
        <path d="M67.956 69.899c.28 5.711.403 9.311.535 11.87.104 1.991-1.39 3.665-3.27 3.665-1.646 0-3.036-1.295-3.248-3.025-1.16-9.437-3.351-30.704-3.374-35.91l1.058-.47c.026-2.466 2.487-3.533 4.575-1.875 1.856 1.47 3.872 2.88 5.179 3.226l-.196 1.4c-.806 5.77-1.675 12.485-1.26 21.119z" fill="#4398BA"/>
        <path d="m73.957 83.82.305 3.634-2.13-.176-.4-3.632 2.225.174z" fill="#F48F7D"/>
        <path d="M72.554 85.533c-1.472-.051-2.702-1.238-2.942-2.839-1.4-9.33-4.63-31.44-4.825-36.709l1.363-.106c-.057-2.469 2.274-3.454 4.334-1.724 1.831 1.539 3.815 3.016 5.08 3.407l-.139 1.395c-.585 5.754-1.16 11.821-.517 21.114.387 5.596.634 9.151.856 11.69.178 2.064-1.331 3.842-3.21 3.772z" fill="#4398BA"/>
        <path d="M64.173 51.056c.266.326.534.65.805.971l.406.483c.132.164.283.31.425.464l-.028-.063.691 6.855.35 3.427.086.857c.015.14.028.286.04.43.013.142.042.283.063.426.088.568 1.348 9.367 1.442 9.933-.02-.575-1.23-9.38-1.256-9.954-.01-.144-.011-.288-.025-.43-.014-.143-.032-.286-.046-.43l-.086-.856-.35-3.428-.692-6.855a.1.1 0 0 0-.028-.063c-.145-.153-.28-.315-.434-.458l-.451-.44c-.302-.29-.606-.58-.912-.87z" fill="#88DCE5"/>
        <path d="M74.262 88.257a.318.318 0 0 1-.306.327H69.37a.462.462 0 0 1-.447-.475h5.34v.148z" fill="#2C2655"/>
        <path d="M68.925 87.936a.527.527 0 0 1 .325-.49l1.051-.379 1.639-.708a.162.162 0 0 1 .162.02c.272.21.54.406.924.406h1.01a.233.233 0 0 1 .226.24v1.082h-5.339l.002-.171z" fill="#88DCE5"/>
        <path d="M66.843 88.244a.317.317 0 0 1-.307.328h-4.585a.462.462 0 0 1-.447-.475h5.339v.147z" fill="#2C2655"/>
        <path d="M61.506 87.923a.527.527 0 0 1 .325-.486l1.047-.38 1.638-.708a.16.16 0 0 1 .162.021c.273.21.54.404.925.404h1.01a.234.234 0 0 1 .226.242v1.08H61.5l.005-.173zM56.65 36.52c.47.227 1.003.287 1.511.169.044-.01.086-.025.129-.037.755-.07 1.518-.575 1.84-1.249.155-.322.221-.681.458-.965.181-.218.443-.366.641-.57.507-.521.522-1.305 1.022-1.83.167-.175.378-.31.551-.48.94-.925.419-2.426 1.211-3.455.291-.376.753-.68.863-1.114.092-.364-.099-.713-.03-1.083.22-1.075-.348-2.155-1.376-2.533l-1.17-.431c-1.117-.412-1.536-.98-1.971.128l-3.02 6.75c-.277.83-.616 1.64-1.012 2.42l-.658 1.3a2.196 2.196 0 0 0 1.012 2.98zm5.485-6.697c-.025.07-.053.14-.083.215l.083-.215z" fill="#88DCE5"/>
        <path d="M64.553 19.405c1.776-.757 3.927-1.12 6.283-.382l-2.1 31.788-5.505-.225 1.322-31.181z" fill="#FCE6E0"/>
        <path d="M70.84 19.023c.362.114.717.249 1.063.404.888.404 1.723.914 2.488 1.52.488.383 3.098 1.302 3.84 3.678.548 1.76.444 2.556.426 3.061l-1.172-1.469c0 .027-.006.053-.008.08a6.137 6.137 0 0 1-.07.66c-.059.579.58 2.251.575 2.448-.06 2.003-.827 2.55-.837 4.584-.008 1.709.196 3.267.122 4.98-.087 2.062-1.28 3.872-1.583 5.918-.222 1.508.056 3.008.274 4.477.428 2.883.593 6.073-.54 8.753-.3.71-.967 1.184-2.285 1.172a12.429 12.429 0 0 1-3.142-.45l-.054-.015c-.286-.08-.577-.165-.861-.236a1.03 1.03 0 0 1-.783-1.071l2.547-38.494zM57.289 54.455c.22-1.855 1.483-2.682 1.274-4.891-.296-3.133.029-6.286.981-9.201 1.005-3.073.01-6.673-.132-10.02-.065-1.558-.073-2.91.053-4.224.228-2.372 1.362-4.454 3.022-5.579.45-.307.921-.584 1.407-.83.214-.108.434-.21.66-.306l-1.623 38.388a.759.759 0 0 1-.945.703c-.187-.048-.392-.106-.648-.154-1.376-.26-2.303.183-3.682-.172a.058.058 0 0 1-.036-.03h-.017a2.135 2.135 0 0 1-.328-.382.747.747 0 0 1-.125-.42c.007-.973.024-1.937.139-2.882z" fill="#88DCE5"/>
        <path d="M61.527 58.379a4.983 4.983 0 0 0-.978-.15 10.49 10.49 0 0 0-.984.008 8.95 8.95 0 0 1-.977 0 4.47 4.47 0 0 1-.484-.059c-.08-.015-.16-.025-.24-.046l-.12-.029c-.037-.008-.095-.026-.07-.012l-.057-.039H57.6l.04.017a2.132 2.132 0 0 1-.431-.573l.013.055c.022-1.153.03-2.332.227-3.434.218-1.093.907-1.959 1.156-3.148.06-.295.092-.596.094-.897 0-.303-.027-.603-.048-.885a22.558 22.558 0 0 1-.07-1.723c-.008-1.15.069-2.298.23-3.436.158-1.124.405-2.234.74-3.319.376-1.071.523-2.277.517-3.441-.014-2.353-.516-4.608-.66-6.925.06 2.324.508 4.616.488 6.925-.012 1.154-.18 2.283-.55 3.34a21.728 21.728 0 0 0-.768 3.366 22.341 22.341 0 0 0-.247 3.493c0 .586.032 1.171.08 1.753.024.295.052.575.051.85 0 .278-.027.555-.082.826-.209 1.09-.9 1.969-1.133 3.155-.189 1.173-.172 2.337-.176 3.497v.032l.013.024c.123.229.284.434.476.608l.019.016h.04l-.058-.038a.133.133 0 0 0 .096.07l.062.013.123.026c.081.02.163.027.246.041.164.022.33.035.495.038.33.004.658-.01.986-.042.651-.06 1.31-.089 1.958.043zM70.84 19.023l.323.84.33.835.669 1.665v-.046l-.52 1.643c-.173.549-.335 1.1-.503 1.65-.168.55-.328 1.102-.489 1.654a80.56 80.56 0 0 0-.463 1.66c.19-.541.378-1.085.559-1.632.18-.547.36-1.091.532-1.64.17-.55.349-1.095.516-1.645l.5-1.65.007-.024-.01-.023-.715-1.645-.364-.821-.373-.82zM64.553 19.404l-.342.608c-.113.203-.229.404-.338.61l-.665 1.225-.01.018v.022l.21 1.713c.07.57.149 1.14.222 1.71.073.57.156 1.14.239 1.71.082.569.17 1.137.263 1.704a74.446 74.446 0 0 0-.167-1.718c-.064-.571-.122-1.143-.193-1.714-.07-.57-.134-1.142-.21-1.712l-.225-1.71-.007.04.62-1.249c.105-.21.203-.42.305-.63l.298-.627z" fill="#4398BA"/>
        <path d="M63.139 32.645a.16.16 0 0 0 .155-.126c.172-.818.257-1.651.252-2.487 0-2.76-.837-4.922-1.898-4.922-1.06 0-1.899 2.163-1.899 4.922-.003.822.078 1.643.244 2.448a.161.161 0 0 0 .192.122.16.16 0 0 0 .121-.192 11.52 11.52 0 0 1-.236-2.382c0-2.752.816-4.6 1.578-4.6.762 0 1.578 1.848 1.578 4.6.004.812-.078 1.623-.245 2.418a.159.159 0 0 0 .065.166c.018.012.037.02.058.025a.15.15 0 0 0 .035.008z" fill="#001443"/>
        <path d="M61.648 25.431a.16.16 0 0 0 .16-.154c0-.031.146-3.165 2.204-5.456a.161.161 0 0 0-.127-.268.16.16 0 0 0-.11.053c-2.139 2.382-2.282 5.526-2.288 5.662a.162.162 0 0 0 .155.166l.006-.003zM71.205 29.084a.159.159 0 0 0 .14-.078c.027-.047 2.765-4.722 1.297-9.343a.16.16 0 1 0-.304.097c1.424 4.485-1.241 9.036-1.268 9.081a.159.159 0 0 0 .009.178.16.16 0 0 0 .126.065z" fill="#001443"/>
        <path d="M70.84 31.162c.62 0 1.122-.504 1.122-1.125a1.124 1.124 0 1 0-1.123 1.125zM62.803 32.766h.32a.187.187 0 0 0 .189-.188.188.188 0 0 0-.188-.188h-.32a.184.184 0 0 0-.185.184.187.187 0 0 0 .184.192zM60.15 32.766h.321a.188.188 0 0 0 .133-.321.188.188 0 0 0-.133-.055h-.32a.184.184 0 0 0-.185.184.186.186 0 0 0 .185.192z" fill="#001443"/>
        <path d="M74.934 47.754c-.48-.07-.958-.101-1.437-.125a33.896 33.896 0 0 0-1.436-.036c-.479-.003-.958.01-1.436.035a16.92 16.92 0 0 0-1.436.126c.478.07.957.102 1.436.125.479.023.957.032 1.436.035.479.004.958-.01 1.436-.035.478-.026.958-.059 1.437-.125z" fill="#4398BA"/>
        <path d="m67.009 22.547.488-.748a.112.112 0 0 1 .148-.037c.016.009.03.022.04.037l.513.794a.112.112 0 0 1-.004.13l-.628.84a.114.114 0 0 1-.104.042.113.113 0 0 1-.09-.067L67 22.654a.112.112 0 0 1 .01-.107z" fill="#001443"/>
        <path d="M71.818 33.126a.25.25 0 0 1-.007.35l-.893.86a.25.25 0 1 1-.349-.36l.893-.86a.25.25 0 0 1 .356.01z" fill="#F48F7D"/>
        <path d="M72.185 36.115c.21-.04.42-.103.547-.225a.644.644 0 0 0 .164-.333c.074-.308.1-.625.074-.94-.022-.293-.128-.63-.498-.798a1.487 1.487 0 0 0-1.105-.007c-.636.237-.861.327-1.19.78-.413.564-.333 1.107.607 1.323.484.112.943.29 1.401.2z" fill="#F48F7D"/>
        <path d="m72.354 34.24 1.826.447a.232.232 0 0 0 .11-.451l-1.827-.447a.23.23 0 0 0-.28.17.233.233 0 0 0 .17.28zM72.386 34.895l1.827.447a.232.232 0 0 0 .28-.172.233.233 0 0 0-.171-.28l-1.827-.448a.232.232 0 0 0-.25.345c.031.052.081.09.14.106l.001.002z" fill="#F48F7D"/>
        <path d="m72.168 35.292 1.826.447a.23.23 0 0 0 .28-.17.233.233 0 0 0-.17-.28l-1.826-.448a.231.231 0 0 0-.253.346c.032.052.083.09.143.105z" fill="#F48F7D"/>
        <path d="m71.481 36.088 1.194.258a1.306 1.306 0 0 0 1.047-.221c.217-.16.394-.331.41-.395l-.154-.156c.03-.125-.268-.29-.392-.32l-2.094.22a.231.231 0 0 0-.279.17c-.033.123.144.414.268.444z" fill="#F48F7D"/>
        <path d="m68.352 33.951 2.246-.028c.8-.07 1.318-.177 1.384.625.028.334-.06.669-.25.945-.24.35-.694.294-1.146.331l-2.234.252v-2.125z" fill="#F48F7D"/>
        <path d="M70.393 35.21c.522.095 1.043.204 1.566.18.523-.025.768-.199 1.296-.14.124.014.34-.416.419-.587l1.041-10.371c.082-1.104.92-1.806 1.873-1.57.554.14 1.022.56 1.303 1.112.007-.012.016-.025.022-.019 1.409 1.669 1.022 9.137.8 9.773-.096.28-.228.545-.278.84-.066.383.013.785.006 1.178-.011.686-.279 1.32-.543 1.937-.132.306-.476 1.13-.773 1.32-.096.197-.328.199-.468.364a2.343 2.343 0 0 1-1.46.824c-.36.05-.726.022-1.074-.083l-3.733-.458.003-4.3z" fill="#88DCE5"/>
        <path d="M73.967 32.092c-.025.378-.059.755-.085 1.132l-.085 1.135c-.03.38-.203.733-.483.99a.074.074 0 0 1-.05.02c-.367.008-.73.092-1.11.127a4.523 4.523 0 0 1-1.156-.07c-.192-.032-.383-.07-.572-.103l-.032-.005V35.1l.037.006c.19.035.38.07.57.102.367.07.742.092 1.116.065.357-.032.713-.112 1.09-.125.232-.22.376-.52.403-.84l.085-1.13c.03-.378.053-.757.084-1.134.032-.377.146-.753.18-1.13l.54-4.446-.364 4.5c-.023.377-.143.743-.168 1.124z" fill="#4398BA"/>
        <path d="M63.742 34.475c6.264.683 6.509.753 6.888.887l.419 4.26-7.4-1.068c-.955-.117-1.745-1.12-1.767-2.245-.024-1.049.991-1.832 1.86-1.834z" fill="#88DCE5"/>
        <path d="M61.746 36.149a1.965 1.965 0 0 1 1.874-1.837c.362-.06 6.388.704 6.771.789l.032.224c-.37-.084-6.422-.85-6.76-.794h-.01a1.791 1.791 0 0 0-1.722 1.663c-.02.247.01.495.084.731a2.17 2.17 0 0 0 1.495 1.414c.217.05.437.086.658.111l6.346.933.102.235-6.444-.95a5.972 5.972 0 0 1-.679-.115 2.385 2.385 0 0 1-1.257-.84 2.34 2.34 0 0 1-.394-.74 2.194 2.194 0 0 1-.096-.824z" fill="#4398BA"/>
        <path d="M70.394 39.576v-.219l.873.121 2.675.372h.012c.66.195 1.368.148 1.997-.132a2.709 2.709 0 0 0 1.404-1.48.087.087 0 0 1 .028-.038c.164-.125.28-.322.38-.537.102-.214.196-.447.285-.672.179-.453.328-.93.33-1.438 0-.254-.033-.522-.032-.799a2.092 2.092 0 0 1 .148-.79l.133-.35.03-.086.019-.081c.012-.053.018-.122.028-.182.032-.252.054-.512.07-.77.061-1.043.12-2.092.127-3.147.007-1.055-.088-2.133-.205-3.203.081.534.21 1.082.25 1.617a41.834 41.834 0 0 1 .078 3.197 23.89 23.89 0 0 1-.06 1.585c-.02.264-.04.526-.074.789-.01.07-.015.13-.032.2l-.025.105c-.01.031-.02.06-.032.09l-.132.35a2.261 2.261 0 0 0-.102.345c-.023.121-.034.243-.032.366 0 .254.033.523.032.8 0 .56-.164 1.06-.35 1.521-.092.233-.186.456-.29.684a1.608 1.608 0 0 1-.412.586 2.877 2.877 0 0 1-1.481 1.553 3.048 3.048 0 0 1-2.094.14l-2.671-.372-.875-.125zM57.553 33.092c.26-.112.488-.294.767-.371.28-.078.563-.043.838.02s.551.145.838.167c.287.018.575-.002.856-.06.564-.107 1.098-.317 1.65-.438.272-.065.552-.095.832-.087.28.015.554.077.813.183.274.102.565.149.857.14.29-.004.573-.043.854-.07.276-.033.555-.023.829.027.266.059.524.194.82.244.297.05.59.004.87-.028.275-.04.554-.039.828.007.54.094 1.075.358 1.397.798l.005.008c.287.245.47.59.513.966.035.374-.06.75-.27 1.061-.413.634-1.146 1.026-1.895 1.126-.187.026-.38.026-.576.034l-.584.02c-.39.014-.779.023-1.169.045-.78.042-1.557.128-2.329.248l-3.234.226-3.238.241 3.243-.171 3.241-.184a25.503 25.503 0 0 1 2.324-.224c.387-.02.777-.027 1.166-.04l.584-.017c.197-.001.395-.012.59-.034.787-.1 1.558-.505 2.008-1.189.23-.341.335-.752.298-1.163a1.64 1.64 0 0 0-.562-1.059l.012.013a1.98 1.98 0 0 0-.67-.573 2.62 2.62 0 0 0-.827-.28 2.836 2.836 0 0 0-.87 0c-.28.034-.559.077-.83.032-.27-.045-.524-.175-.814-.24a2.913 2.913 0 0 0-.87-.026c-.285.026-.566.07-.845.076a2.146 2.146 0 0 1-.817-.127 2.603 2.603 0 0 0-.847-.179c-.289-.004-.577.03-.857.1-.559.132-1.09.342-1.642.461a3.197 3.197 0 0 1-.838.076c-.28-.014-.558-.091-.838-.148-.279-.056-.574-.09-.85 0-.275.09-.503.272-.761.39z" fill="#4398BA"/>
        <path d="M62.749 8.984c.13-.709.74-1.206 1.303-1.63.397-.299.837-.612 1.312-.588.294.015.573.16.868.13.215-.022.418-.134.622-.21a1.75 1.75 0 0 1 1.39.088c.31.162.573.42.903.538.27.095.564.089.852.11.375.026.744.1 1.1.218.239.08.489.195.608.427.243.467-.167 1.092-.016 1.605.184.63 1.117.79 1.17 1.455.053.684-.894 1.123-.902 1.813 0 .117.026.231.036.35a1.202 1.202 0 0 1-.591 1.119c-.311.169-.741.226-.859.573-.047.136-.03.291-.097.42-.077.145-.248.21-.403.21-.505.008-.899-.598-.72-1.107.07-.192.195-.357.245-.552.05-.196-.025-.45-.209-.47a.589.589 0 0 1-.14-.009c-.12-.044-.103-.23-.061-.364.112-.35.25-.7.225-1.061-.04-.56-.476-.988-.964-1.18-.488-.191-1.029-.194-1.555-.228-.526-.033-1.07-.107-1.498-.415-.357-.256-.609-.66-.993-.868a1.255 1.255 0 0 0-1.117-.027.44.44 0 0 0-.197.152.56.56 0 0 0-.06.268c-.022.386.022.865-.088 1.234-.18-.521-.265-1.453-.164-2.001z" fill="#001443"/>
        <path d="M65.573 15.836c-.046-.39.18-.739.5-.776l2.334-.272c.32-.037.62.252.665.641l.61 5.26a1.768 1.768 0 0 1-1.547 1.956 1.759 1.759 0 0 1-1.953-1.55l-.61-5.259z" fill="#F48F7D"/>
        <path d="M71.672 11.086c-.065-.599-.791-.948-.986-1.507-.062-.178-.054-.365-.104-.543-.18-.643-.547-.885-1.133-1.031-.547-.14-1.047-.26-1.552-.517-.87-.438-1.505-.712-2.443-.32-.489.205-.963.483-1.454.683-.216.09-.412.224-.574.394-.431.446-.651.732-.614 1.428.012.21.086.41.087.621 0 .338-.123.56-.205.88-.125.48-.046.84.052 1.305.158.754.48 1.304.856 1.97.438.777.856 1.567 1.6 2.099 1.04.745 1.759.18 2.674-.36.469-.289.974-.513 1.503-.667.214-.232.419-.46.62-.663h.054c.454-.063.794-.333 1.067-.685.46-.591.17-1.211.377-1.77.043-.44.221-.899.175-1.317z" fill="#001443"/>
        <path d="M65.064 9.895c-.54-.22-1.144-.1-1.599.265-.151.122-.24.318-.253.77l-.097 3.123a5.445 5.445 0 0 0 .457 2.402c.496 1.106 1.236 1.704 2.422 1.739 1.65.049 3.038-1.24 3.093-3.09l.066-2.143a2.004 2.004 0 0 0-1.248-1.918l-2.841-1.148z" fill="#F48F7D"/>
        <path d="M66.284 13.387c-.006.188.087.344.21.35.122.005.225-.145.232-.333.007-.188-.087-.344-.21-.35-.122-.006-.222.145-.232.333zM63.404 13.287c-.006.188.088.344.21.35.122.006.226-.145.232-.333.007-.188-.087-.344-.21-.35-.121-.005-.225.145-.232.333z" fill="#001443"/>
        <path d="M69.307 13.905c.527.016.938.543.919 1.178-.019.635-.46 1.138-.987 1.12-.526-.019-.937-.544-.919-1.18.018-.634.46-1.132.987-1.118z" fill="#F48F7D"/>
        <path d="M65.005 13.438c-.068.348-.17.688-.305 1.015l-.103.245-.027.059a.097.097 0 0 0-.01.032.085.085 0 0 0 .02.058c.006.012.063.03.1.048l.12.056c.079.039.158.078.236.125a2.733 2.733 0 0 1-.265-.04l-.13-.026a.482.482 0 0 1-.145-.048.218.218 0 0 1-.096-.17.244.244 0 0 1 .015-.097l.022-.063.093-.246c.127-.331.286-.648.475-.947zM65.011 17.98c.157.123.333.22.521.284.2.033.404.03.603-.008a4.125 4.125 0 0 0 1.107-.373c.349-.171.677-.382.977-.63l.22-.192c.069-.07.139-.136.209-.21.053-.084.107-.165.157-.25.05-.083.091-.173.133-.26-.073.064-.145.128-.215.193l-.22.18-.198.198-.21.185c-.289.238-.605.44-.94.604a3.934 3.934 0 0 1-1.053.356 1.47 1.47 0 0 1-.533.007 2.604 2.604 0 0 1-.558-.084z" fill="#E56E5E"/>
        <path d="M65.841 12.496a.092.092 0 0 1-.06-.08.092.092 0 0 1 .048-.087c.744-.404 1.526.16 1.559.184a.091.091 0 0 1 .035.096.094.094 0 0 1-.042.057.09.09 0 0 1-.07.01.093.093 0 0 1-.032-.015c-.007-.005-.721-.519-1.362-.17a.097.097 0 0 1-.076.005z" fill="#001443"/>
        <path d="M64.817 16.108a.091.091 0 0 1-.056-.112.091.091 0 0 1 .107-.064c.291.065.709.084 1.047-.192a.092.092 0 0 1 .138.004.093.093 0 0 1 .02.073.094.094 0 0 1-.042.063c-.394.323-.87.303-1.202.23l-.012-.002z" fill="#fff"/>
        <path d="M63.027 12.279a.091.091 0 0 1-.035-.151.092.092 0 0 1 .054-.027c.578-.074 1.089.268 1.11.28a.092.092 0 0 1-.035.166.09.09 0 0 1-.068-.014c-.005 0-.476-.317-.984-.251a.088.088 0 0 1-.042-.003z" fill="#001443"/>
        <path d="m69.462 18.688-1.94 3.12.927 1.195s2.305-2.698 1.013-4.316z" fill="#F9D5CD"/>
        <path d="m65.945 18.865 1.795 2.948-1.117 1.128s-1.968-2.548-.678-4.076z" fill="#F9D5CD"/>
        <path d="m67.47 23.002.316 13.074-1.742 1.57-1.142-2.033 2.568-12.611z" fill="#001443"/>
        <path d="M71.201 34.826a1.55 1.55 0 0 0-.45-1.208c-.028-.03-.06-.054-.09-.082-.379-.538-1.186-.9-1.988-.86-.382.019-.764.12-1.142.06-.289-.044-.543-.179-.826-.242-.723-.162-1.503.155-2.228 0-.241-.052-.461-.154-.698-.21-1.299-.32-2.57.706-3.914.539-.489-.062-.977-.28-1.454-.181-.398.083-.665.373-1.06.476-1.154.287-1.971.85-1.926 1.782 0 0-.024.83.153 1.432.299 1.022 1.573 1.318 2.84 1.233l5.885-.42a24.1 24.1 0 0 1 2.81-.255l1.554-.05c1.32-.044 2.456-.945 2.534-2.014zm-8.865-1.314c.08-.013.163-.021.245-.028l-.245.028z" fill="#88DCE5"/>
        <path d="m19.383 69.98-1.347-5.847c-1.082-4.701-4.767-7.985-8.96-7.985H1.422v-.35h7.65c4.358 0 8.183 3.395 9.302 8.254L19.72 69.9l-.338.08z" fill="#6464C8"/>
        <path d="M22.073 42.235c.004.092-.041.169-.101.172-.06.003-.112-.07-.115-.163-.004-.093.04-.169.1-.172.06-.003.113.07.116.163z" fill="#101842"/>
        <path d="m21.958 42.07.184-.008-.109.12-.075-.111zM23.487 42.173c0 .092-.042.17-.102.172-.06.003-.111-.07-.115-.162-.005-.092.04-.17.1-.172.06-.003.113.07.117.162z" fill="#101842"/>
        <path d="m23.37 42.01.185-.007-.108.119-.076-.111z" fill="#101842"/>
        <path d="M22.701 42.254c.102.142.186.296.25.458l.046.121.01.03a.14.14 0 0 1 .008.053.115.115 0 0 1-.051.092.23.23 0 0 1-.075.024l-.065.01a1.155 1.155 0 0 1-.131.016c.036-.026.074-.049.113-.07l.059-.03c.016-.01.046-.02.044-.024a.036.036 0 0 0 .005-.021.027.027 0 0 0-.005-.01l-.014-.03-.052-.118a2.106 2.106 0 0 1-.142-.501z" fill="#AD6A2D"/>
        <path d="M21.558 41.891c-.007.001-.015 0-.022-.003a.046.046 0 0 1-.027-.031.047.047 0 0 1 .018-.05c.016-.012.398-.292.768-.096a.047.047 0 0 1 .02.063.047.047 0 0 1-.064.02c-.315-.168-.663.086-.667.088a.038.038 0 0 1-.026.01z" fill="#101842"/>
        <path d="M22.66 43.6a.641.641 0 0 1-.46-.133.059.059 0 0 1-.009-.081.056.056 0 0 1 .039-.021.056.056 0 0 1 .042.012.582.582 0 0 0 .503.088.06.06 0 0 1 .023-.001.06.06 0 0 1 .038.023.059.059 0 0 1 .002.065.059.059 0 0 1-.037.026 1 1 0 0 1-.14.022z" fill="#fff"/>
        <path d="M23.143 41.815a.05.05 0 0 1-.043-.02.047.047 0 0 1 .012-.066.879.879 0 0 1 .546-.14.046.046 0 1 1-.011.092.799.799 0 0 0-.482.128.046.046 0 0 1-.022.006z" fill="#101842"/>
    </g>
    <defs>
        <clipPath id="r6dxmaif2a">
            <path fill="#fff" transform="translate(.724 .924)" d="M0 0h96.552v88.076H0z"/>
        </clipPath>
    </defs>
</svg>
