<svg width="43" height="30" viewBox="0 0 43 30" fill="none" xmlns="http://www.w3.org/2000/svg">
    <path d="m2.593 16.438.002.004-.002-.005z" fill="#80C251"/>
    <path d="m24.636 18.536.028.394.002.033.43 5.986.205 2.845.144 2.005c0 .054.024.105.066.143a.238.238 0 0 0 .157.059h5.045c.06 0 .116-.021.158-.06a.191.191 0 0 0 .066-.142l.022-.333.21-3.233.504-7.698a.192.192 0 0 0-.066-.142.237.237 0 0 0-.158-.059h-6.59a.239.239 0 0 0-.158.06.192.192 0 0 0-.065.142z" fill="#D75426"/>
    <path d="m25.191 25 .341 4.8c0 .054.024.104.065.141a.231.231 0 0 0 .154.059h4.94a.23.23 0 0 0 .155-.058.19.19 0 0 0 .065-.141l.02-.33c-1.282.104-4.505-.098-5.74-4.471zM10.006 18.535l.028.394.003.033.41 5.7.02.287.348 4.85c0 .054.024.105.066.143a.236.236 0 0 0 .158.059h5.045c.059 0 .116-.021.158-.06a.191.191 0 0 0 .065-.142l.022-.333.148-2.271.566-8.66a.192.192 0 0 0-.066-.142.238.238 0 0 0-.157-.059h-6.59a.238.238 0 0 0-.159.06.191.191 0 0 0-.065.141z" fill="#D75426"/>
    <path d="m10.562 25 .341 4.8a.19.19 0 0 0 .064.142.23.23 0 0 0 .155.058h4.94a.23.23 0 0 0 .155-.058.19.19 0 0 0 .064-.141l.021-.33c-1.283.104-4.506-.098-5.74-4.471z" fill="#D75426"/>
    <path opacity=".05" d="m10.033 18.64.028.436.002.037.41 6.324c2.942 2.3 5.123 2.735 6.024 2.81l.565-9.608a.224.224 0 0 0-.223-.223h-6.583a.224.224 0 0 0-.223.223zM24.642 18.638l.028.437.002.037.43 6.642.204 3.156c2.724 0 4.924-.872 5.863-1.731l.502-8.542a.223.223 0 0 0-.223-.223h-6.583a.223.223 0 0 0-.223.224z" fill="#000"/>
    <path d="M5.351 17.272c-.744-.361-1.37-.808-1.859-1.328a4.574 4.574 0 0 1-1.171-2.226 5.116 5.116 0 0 1-.164-.008 6.254 6.254 0 0 1-1.802-.423.55.55 0 1 1 .394-1.025c.524.2 1.02.318 1.474.35.012-.379.075-.754.187-1.116.203-.644.553-1.164.987-1.462.243-.168.505-.262.775-.278.296-.016.589.06.839.217.337.207.55.558.601.99.043.365-.034.76-.221 1.14a2.722 2.722 0 0 1-.672.854 3.096 3.096 0 0 1-1.296.653c.274 1.126 1.075 2.021 2.382 2.662a7.92 7.92 0 0 0 2.137.682l-.147 1.088c-.05-.007-1.201-.167-2.444-.77zM4.02 10.938c-.226.155-.436.487-.562.886a3.07 3.07 0 0 0-.128.67c.487-.162.879-.48 1.076-.878.177-.36.131-.646.032-.707a.341.341 0 0 0-.181-.058.417.417 0 0 0-.237.087z" fill="#9E3E1C"/>
    <path d="M5.87 15.683c0 7.02 7.343 12.71 16.402 12.71 3.846 0 7.383-1.025 10.18-2.743 3.791-2.328 6.223-5.927 6.223-9.967 0-4.336-2.8-8.165-7.078-10.458a16.915 16.915 0 0 0-.506-.26 18.2 18.2 0 0 0-1.819-.78l-.024-.009c-2.117-.771-4.481-1.203-6.976-1.203-7.183 0-13.288 3.578-15.508 8.56-.58 1.3-.895 2.697-.895 4.15z" fill="#D75426"/>
    <path d="m37.847 19.55 3.699-.299a.85.85 0 0 0 .849-.848v-5.32a.848.848 0 0 0-.85-.85l-3.698-.298a.85.85 0 0 0-.849.85V18.7a.848.848 0 0 0 .85.848z" fill="#D75426"/>
    <path d="M32.5 12a1.5 1.5 0 1 0 0-3 1.5 1.5 0 0 0 0 3z" fill="#49494A"/>
    <path d="m28.687 6.178.745.994 1.023.422s.443-1.946 1.142-2.369a16.878 16.878 0 0 0-.506-.26 18.2 18.2 0 0 0-1.819-.78l-.585 1.993z" fill="#CC5024"/>
    <path d="M24.642 7.593h5.813s.237-5.607 1.996-7.587c0 0-7.81-.494-7.81 7.587z" fill="#D75426"/>
    <path d="M24.642 7.594h2.038C27.336 1.47 32.451.006 32.451.006s-7.81-.494-7.81 7.588z" fill="#B74821"/>
    <path d="M21.644 3.661a4.035 4.035 0 0 1-.565.96c.702-.033 1.153-.02 1.16-.019l.033-.94c-.022 0-.25-.008-.628 0zM15.046 4.979a8.543 8.543 0 0 0-.975.53l.505.793a8.1 8.1 0 0 1 1.33-.671l-.076-.044a4.06 4.06 0 0 1-.784-.608z" fill="#49494A"/>
    <path d="M20.632 3.703a3.206 3.206 0 0 1-.873 1.021c.493-.055.943-.086 1.32-.104.232-.293.422-.615.565-.96-.268.005-.613.017-1.012.043zM15.803 4.662c-.264.1-.516.205-.757.318.236.234.499.438.784.608l.076.044c.333-.134.688-.256 1.064-.365a3.182 3.182 0 0 1-1.167-.605z" fill="#49494A"/>
    <path d="M19.476 4.76c.096-.012.19-.024.284-.034.36-.275.657-.623.873-1.02-.376.024-.801.062-1.257.12-.954.12-1.848.299-2.656.534-.319.092-.624.193-.916.303.343.28.74.486 1.167.603" fill="#49494A"/>
    <path d="M5.87 15.683c0 7.02 7.343 12.71 16.402 12.71 3.846 0 7.383-1.025 10.18-2.742 0 0-23.309 2.4-25.688-14.118-.58 1.3-.895 2.697-.895 4.15z" fill="#B74821"/>
</svg>
