<svg width="272" height="168" viewBox="0 0 272 168" fill="none" xmlns="http://www.w3.org/2000/svg">
    <g clip-path="url(#9zjpwi8p0a)">
        <path d="M248.818 73.305c3.644-4.325 5.727-9.322 5.727-14.645 0-5.324-2.087-10.334-5.742-14.662 3.945-3.168 6.212-6.87 6.212-10.823 0-11.711-19.88-21.204-44.403-21.204s-44.403 9.493-44.403 21.204c0 3.766 2.057 7.303 5.662 10.369-3.899 4.431-6.132 9.599-6.132 15.116 0 9.65 6.837 18.228 17.438 23.673-6.01 5.839-9.562 13.053-9.562 20.862 0 19.445 22.024 35.208 49.192 35.208 27.169 0 49.193-15.763 49.193-35.208 0-12.607-9.262-23.671-23.182-29.89z" fill="url(#7xzhqlsshb)"/>
        <path d="M230.655 51.123c-1.059 5.702-3.872 7.123-8.657 9.387-8.907 4.212 2.835 7.506 10.409 12.142 2.165 1.325-2.052 2.705-5.365 3.592-1.844.494-3.995.913-5.318 1.536-1.323.623 2.019 3.22 2.019 3.22H12.473s-5.445-6.91-2.7-10.287c4.597-5.655 23.422-9.582 27.835-15.251.913-1.172 1.168-2.379 1.357-3.58.641-4.087.546-8.198-1.342-12.251-2.341-5.03-9.309-6.75-3.912-11.572 4.063-3.63 13.906-6.576 25.63-8.196 11.723-1.62 25.17-1.988 37.985-1.44 8.078.344 16.01 1.04 24.168 1.118 3.125.03 9.526-3.935 13.859-4.53 11.354-1.559 24.634-1.302 35.202.682 4.06.763 7.777 1.659 10.922 2.744 4.062 1.402 35.47 1.112 40.039 2.37 10.602 2.92-21.388 10.776-8.725 12.86 0 0 20.454 3.514 17.864 17.456z" fill="url(#gpq8dddjvc)"/>
        <path d="M232.603 70.992H12.953S7.29 77.96 10.145 81.365c4.779 5.701 24.349 9.663 28.938 15.378.949 1.18 1.215 2.398 1.41 3.609.667 4.121.569 8.265-1.394 12.353-2.434 5.071-7.677 10.326-2.066 15.188 4.225 3.66 14.458 6.629 26.647 8.264 12.189 1.634 26.168 2.004 39.491 1.452 8.399-.347 16.645-1.048 25.128-1.127 3.249-.031 7.902.446 12.406 1.046 11.809 1.573 25.613 1.315 36.6-.687 4.22-.769 8.085-1.672 11.355-2.767 4.223-1.413 7.311-3.104 12.062-4.372 11.022-2.944-8.352-2.958 4.813-5.06" fill="url(#6bd80xqeqd)"/>
        <path d="M230.789 91.653c6.124-10.425-3.342-24.45-11.743-28.554-2.351-1.149 17.021 8.757 13.576 7.861" fill="url(#34clvutmhe)"/>
        <path d="M88.23 75.052c-.405 0-.807.076-1.185.224a5.876 5.876 0 0 0-1.182-3.158 5.892 5.892 0 0 0-6.099-2.16 5.895 5.895 0 0 0-2.912 1.707 8.931 8.931 0 0 0-2.599-5.396 8.961 8.961 0 0 0-11.247-1.106 8.94 8.94 0 0 0-3.603 4.785 5.875 5.875 0 0 0-4.571 1.076 5.858 5.858 0 0 0-2.315 4.078 3.808 3.808 0 0 0-3.427-1.09 3.81 3.81 0 0 0-2.808 2.243 3.796 3.796 0 0 0 1.678 4.832c.55.3 1.167.46 1.795.464h38.479c.863 0 1.691-.342 2.302-.952a3.247 3.247 0 0 0-2.302-5.547h-.003zM114.301 40.61c-.284 0-.564.069-.815.2a2.308 2.308 0 0 0-1.95-1.301 2.316 2.316 0 0 0-2.086 1.072 3.084 3.084 0 0 0-1.939-2.427 3.098 3.098 0 0 0-3.072.484 4.934 4.934 0 0 0-1.659-3.177 4.954 4.954 0 0 0-6.687.155 4.935 4.935 0 0 0-1.51 3.25 2.964 2.964 0 0 0-4.788 1.81 1.825 1.825 0 0 0-2.538 1.009 1.433 1.433 0 0 0-2.451 1.033 1.427 1.427 0 0 0 1.259 1.39v.012H114.3a1.76 1.76 0 0 0 1.758-1.755 1.76 1.76 0 0 0-1.758-1.755z" fill="#fff"/>
        <path d="m148.757 164.658 78.538-.074c4.092-.004 7.405-3.241 7.402-7.23l-.148-149.948c-.004-4.094-3.412-7.41-7.612-7.406l-78.146.073c-4.2.004-7.602 3.326-7.598 7.42l.148 149.949c.004 3.989 3.324 7.219 7.416 7.216z" fill="#145A7B"/>
        <path d="m227.335 9.01-78.933.082.153 145.383 78.933-.083-.153-145.383z" fill="url(#xakdqu3y0f)"/>
        <path d="M203.773 3.57h-31.494v2.244h31.494V3.57zM178.723 162.041l18.611-.018c.777 0 1.407-.518 1.407-1.157v-1.946c0-.638-.632-1.155-1.411-1.154l-18.611.017c-.778 0-1.41.519-1.407 1.157v1.946c.005.639.633 1.155 1.411 1.155z" fill="#fff"/>
        <path opacity=".34" d="m148.423 18.723 79.029 117.094.015 18.568-78.932.089-.112-135.751z" fill="#fff"/>
        <path d="M167.371 126.627h-14.925v7.026h14.925v-7.026z" stroke="#EDF3FF" stroke-width="13.04" stroke-linecap="round" stroke-linejoin="round"/>
        <path d="m39.894 156.746-.833 6.767a.108.108 0 0 1-.032.063.108.108 0 0 1-.064.028l-.862.065-4.768.361-2.413.182a.108.108 0 0 1-.065-.016.106.106 0 0 1-.041-.054l-2.258-6.659a.102.102 0 0 1 .045-.123.106.106 0 0 1 .046-.014l5.341-.344 3.8-.244 1.994-.129a.113.113 0 0 1 .083.033.108.108 0 0 1 .027.084z" fill="#FAA27B"/>
        <path d="m38.103 163.667-4.768.361.655-7.026 3.8-.244.313 6.909z" fill="#E7785D"/>
        <path d="m130.135 165.845-6.236-18.961a.104.104 0 0 0-.107-.071l-27.976 1.953h-.004c-6.844.676-13.69 1.349-20.083 2.011-6.394.661-12.335 1.299-17.37 1.903a419.256 419.256 0 0 0-12.843 1.728 678.437 678.437 0 0 0-10.125 1.621.104.104 0 0 0-.087.109l.534 10.651c0 .027.012.053.032.072.02.018.046.029.074.028l56.674-1.03 37.418.123a.11.11 0 0 0 .085-.043.11.11 0 0 0 .019-.046.098.098 0 0 0-.005-.048zm-6.328-18.824-.082.005-.025-.077.107.072zm-88.383 9.217.087-.109.005.093-.093.016zm.514 10.446h.103l.004.099-.107-.099zm93.999-.771-.045-.136h.145l-.1.136z" fill="#10345C"/>
        <path d="m102.042 104.003-2.573-2.981a.107.107 0 0 0-.036-.026.097.097 0 0 0-.044-.01l-3.127.066c-.264-.026-.574.089-.582.341l.036.635a.492.492 0 0 1-.148.357.5.5 0 0 1-.36.143l-.23-.006c-.76-.015-1.488-.026-2.15-.026-.52 0-1 .006-1.426.023-.427.017-.794.04-1.094.077-.52.064-.837.167-1.034.309-.196.141-.27.323-.309.543-.01.059-.018.121-.026.184a3.802 3.802 0 0 1-.077.434 2.764 2.764 0 0 0-.083.578c0 .386.168.762.865.957.346.087.7.141 1.057.161.418.032.892.043 1.391.043.617 0 1.278-.018 1.93-.039l.69-.025.647-.022c.974-.033 1.832-.051 2.63-.059l.28.279a.1.1 0 0 0 .056.028c.02.003.043 0 .062-.009l.62-.307c.494 0 .974-.005 1.452-.006a.104.104 0 0 0 .059-.019.104.104 0 0 0 .039-.049.109.109 0 0 0 .003-.062.104.104 0 0 0-.032-.053l-.403-.366 1.877-.93a.114.114 0 0 0 .039-.03.095.095 0 0 0 .02-.043.094.094 0 0 0 0-.047.105.105 0 0 0-.019-.043z" fill="#E7785D"/>
        <path d="M98.18 106.717a.104.104 0 0 1-.094.069l-4.521.219a.106.106 0 0 1-.074-.026L81.49 96.512a.104.104 0 0 1-.016-.14l1.77-2.449a.104.104 0 0 1 .154-.019l14.752 12.699a.108.108 0 0 1 .033.052.108.108 0 0 1-.002.062z" fill="#2A4F98"/>
        <path d="m82.458 146.44-2.205 3.633-2.9 4.778-1.342 2.211a.084.084 0 0 1-.025.028.089.089 0 0 1-.034.017l-4.857 1.492a.106.106 0 0 1-.078-.007.106.106 0 0 1-.05-.06l-2.25-6.554a.102.102 0 0 1 .012-.089l2.28-3.569 1.76-2.754.772-1.209a.104.104 0 0 1 .111-.046l8.74 1.974c.017.003.031.011.044.021a.102.102 0 0 1 .038.087.1.1 0 0 1-.016.047z" fill="#FAA27B"/>
        <path d="M137.018 114.313a.119.119 0 0 0-.011-.042.122.122 0 0 0-.027-.033.12.12 0 0 0-.081-.022c-2.499.378-4.991.754-7.758.821a34.633 34.633 0 0 1-3.673-.099c-2.169-.176-4.537-.57-7.007-1.077-2.47-.507-5.039-1.123-7.616-1.742a.106.106 0 0 0-.068.004.104.104 0 0 0-.062.112.1.1 0 0 0 .031.06l6.119 6.258a.086.086 0 0 0 .027.02l10.85 5.718a.099.099 0 0 0 .027.01l9.888 2.086a.11.11 0 0 0 .048-.001.089.089 0 0 0 .043-.022.097.097 0 0 0 .028-.038.113.113 0 0 0 .008-.048l-.766-11.965zm-.089.11-.113.017-.007-.113.12.096zm-26.131-2.1.099-.176.253.258-.352-.082zm6.194 6.064.014.007.011.012-.025-.019zm10.823 5.708.015.003.012.006-.027-.009zm9.762 2.196-.008-.138.134.028-.126.11z" fill="#EF6F18"/>
        <path d="m80.253 150.073-2.9 4.778c-1.352-2.034-4.94-5.289-6.348-6.531l1.76-2.754 7.488 4.507z" fill="#E7785D"/>
        <path d="M133.67 136.008h-.03l.058.015-.028-.015z" fill="#2A4F98"/>
        <path d="M157.339 157.012c-.334-3.22-4.016-7.877-7.655-12.49l-7.255-8.901a.102.102 0 0 0-.086-.039l-8.671.427.028.017-.059-.015h.031c-1.058-.634-2.116-1.267-3.286-2.041a57.702 57.702 0 0 1-4.025-2.912 118.583 118.583 0 0 1-5.166-4.341 154.927 154.927 0 0 1-6.927-6.536c-1.571-1.56-3.086-3.068-4.571-4.264-1.485-1.195-2.942-2.081-4.391-2.393a5.965 5.965 0 0 0-1.289-.135c-2.849 0-5.56 1.893-7.49 3.271-1.117.797-1.986 1.433-2.877 2.145-.89.712-1.8 1.496-2.997 2.588a127.862 127.862 0 0 0-4.204 4.021c-1.528 1.53-3.1 3.191-4.477 4.804-2.753 3.227-4.723 6.262-6.688 9.292l-4.834 7.759a.102.102 0 0 0-.014.076c.005.026.02.05.043.065l11.226 7.778c.02.015.045.021.07.018a.102.102 0 0 0 .065-.033c2.733-2.917 5.466-5.838 8.12-8.774 2.655-2.936 5.22-5.89 7.79-8.845l4.217-5.227a371.54 371.54 0 0 0 3.331 7.197 111.77 111.77 0 0 0 1.791 3.583 81.096 81.096 0 0 0 2.075 3.72c1.532 2.581 3.416 5.422 5.299 8.26l.003.005c.941 1.238 1.886 2.478 2.953 3.692a27.471 27.471 0 0 0 3.703 3.53 29.022 29.022 0 0 0 4.906 3.089c1.777.888 3.643 1.584 5.442 1.965.547.116 1.099.205 1.654.265.648.071 1.298.106 1.949.105 2.264 0 4.443-.407 6.62-.939 3.306-.811 6.614-1.913 9.917-3.013a.18.18 0 0 0 .021-.008c2.821-1.636 5.733-3.315 5.733-6.271a4.812 4.812 0 0 0-.025-.495zm-5.814 6.578.009-.005.011-.004-.02.009z" fill="#2A4F98"/>
        <path d="m160.836 107.59-.248-4.628-.471-8.774a.1.1 0 0 0-.03-.068l-8.241-8.3a.102.102 0 0 0-.093-.03l-9.876 1.277c-.03.005-.529-.41-1.645 1.173-1.104 1.566-3.121 3.218-3.997 4.87a67.512 67.512 0 0 0-2.359 4.875 38.518 38.518 0 0 0-1.732 4.91 46.808 46.808 0 0 0-.458 1.773 69.863 69.863 0 0 0-.709 3.341c-.064.333-.127.675-.191 1.025-.244 1.356-.49 2.856-.725 4.408-.16 1.061-.313 2.147-.46 3.227-.019.152-.04.302-.058.454a170.662 170.662 0 0 0-.493 4.091c-.144 1.329-.26 2.582-.34 3.692a51.847 51.847 0 0 0-.149 3.783c0 2.112.166 3.579.334 5.037a.095.095 0 0 0 .014.041.09.09 0 0 0 .029.032l8.98 6.384c1.135 1.107 2.27 2.212 3.39 3.403a43.846 43.846 0 0 1 3.309 3.931 49.175 49.175 0 0 1 3.073 4.725c.936 1.63 1.751 3.25 2.351 4.677a24.87 24.87 0 0 1 1.259 3.796c.277 1.137.447 2.179.617 3.223a.11.11 0 0 0 .044.07.103.103 0 0 0 .04.015.1.1 0 0 0 .042-.001c1.277-.293 2.57-.593 3.714-1.166 1.144-.574 2.145-1.423 2.833-2.823.683-1.388 1.058-3.316 1.273-5.501.216-2.186.264-4.628.294-7.041.056-4.839.022-9.611-.011-14.381l.166-8.8.082-4.345.013-.325.201-5.087.183-4.604.075-1.888v-.01l-.03-.461zm-.898-13.323-.027-.028-.003-.04.03.068zm-8.15-8.272-.053.01-.039-.04.092.03zm-22.73 47.636.039.026c0 .016.004.032.005.047l-.044-.073zm22.936 30.192.109-.025.017.109-.126-.084z" fill="#F7DABD"/>
        <path d="m111.492 110.097-.1.184-3.198 5.899-.101.185c-.579-.425-1.161-.759-1.776-.955a5.898 5.898 0 0 0-1.234-.235 8.901 8.901 0 0 0-.435-.03c-.386-.02-.778-.021-1.172-.022-.394-.001-.794 0-1.188-.022a11.574 11.574 0 0 1-2.237-.331 7.595 7.595 0 0 1-1.476-.538 6.174 6.174 0 0 1-1.275-.852 6.844 6.844 0 0 1-.8-.821 3.517 3.517 0 0 1-.385-.548 1.931 1.931 0 0 1-.138-.315c-.322-.087-.66-.186-.989-.454a3.5 3.5 0 0 1-.497-.521c-.157-.195-.31-.411-.46-.617-.95-.294-1.93-.598-2.391-1.008-.303-.268-.385-.58-.385-.891.003-.168.02-.335.05-.501-.605-.278-1.243-.587-1.503-1.22-.112-.273-.154-.603-.154-.963 0-.494.077-1.042.15-1.576v-.009a.103.103 0 0 1 .026-.054.099.099 0 0 1 .05-.032.104.104 0 0 1 .061.001.11.11 0 0 1 .05.035c.125.161.249.321.479.462.23.141.564.258 1.116.335.118.016.245.031.38.044.71.067 1.65.085 2.683.085.39-.002.78-.034 1.164-.095.482-.074.792-.373 1-.814l.264-1.078c.086-.356.495-.294.536-.294.646-.017 1.293-.035 1.91-.035.581 0 1.136.017 1.636.062.307.027.611.073.912.139.255.053.502.137.736.25.186.092.356.213.504.358.285.278.471.621.661.972.112.206.226.418.365.629.147.226.319.435.511.624.254.242.53.46.823.652.537.356 1.157.694 1.745 1.013.258.139.51.277.745.411.235.133.452.262.639.387.183.122.358.254.526.396.152.131.291.26.431.392.249.24.51.466.783.679.306.231.626.444.958.637z" fill="#FAA27B"/>
        <path d="m157.687 98.828-1.796-4.535a.102.102 0 0 0-.03-.042l-3.325-2.733-.009-.006c-.479-.313-.962-.632-1.481-.886a4.842 4.842 0 0 0-1.69-.502 4.44 4.44 0 0 0-.707-.007c-.789.058-1.676.33-2.537.806a7.864 7.864 0 0 0-2.37 2.014c-.677.862-1.198 1.908-1.646 3.146-.448 1.238-.823 2.669-1.198 4.298a74.533 74.533 0 0 0-1.065 5.436 44.632 44.632 0 0 0-.538 6.192c-.054 4.201.606 8.569 1.276 12.93l-6.674-3.708-.049-.025c-2.128-1.127-4.255-2.254-6.348-3.336a224.562 224.562 0 0 0-6.122-3.069c-.815-.39-1.617-.762-2.395-1.124-.778-.362-1.528-.702-2.24-1.027-.588-.268-1.149-.528-1.677-.769l-.311-.142c-.411-.193-.802-.375-1.167-.55a48.188 48.188 0 0 1-.946-.464 23.193 23.193 0 0 1-1.043-.562l-.11-.064-.1.183-3.198 5.9-.101.184.019.015c.029.02.059.042.086.064.559.417 1.12.917 1.71 1.459.271.248.551.508.837.774l.923.863a271.844 271.844 0 0 0 2.345 2.176c1.505 1.376 3.163 2.827 4.819 4.278l4.886 4.473h.005l.021.02a188.501 188.501 0 0 1 6.268 5.437l.634.575.695.631c1.288 1.167 2.715 2.438 4.152 3.576 1.437 1.138 2.88 2.143 4.207 2.777.533.258 1.087.468 1.657.628a8.625 8.625 0 0 0 2.321.322c1.347 0 2.516-.317 3.526-.642.951-.307 1.771-.621 2.504-1.083.733-.462 1.377-1.069 1.976-1.961.599-.891 1.143-2.045 1.626-3.3.482-1.268.894-2.56 1.234-3.873.666-2.531.99-4.725 1.314-6.913l.912-5.667v-.007l.861-9.026v-.009l.021-7.633.046-5.452a.133.133 0 0 0-.008-.04zm-1.98-4.433-.01-.025.031.042-.021-.017zm1.778 4.493v-.023l.006.04-.006-.017zM70.517 153.837l-.03-.023.038.062a.894.894 0 0 0-.008-.039z" fill="#FA9646"/>
        <path d="M81.277 160.267a13.9 13.9 0 0 0-.485-2.587c-.051-.18-.103-.357-.158-.533-.19-.607-.4-1.191-.61-1.773a.107.107 0 0 0-.045-.055.105.105 0 0 0-.07-.013c-1.592.255-3.173.508-4.525.508a7.875 7.875 0 0 1-1.227-.087 5.702 5.702 0 0 1-.563-.118c-1.243-.331-2.155-1.041-3.08-1.771a.894.894 0 0 1 .008.039l-.037-.062.03.023c-.094-.464-.185-.923-.185-1.453.002-.359.043-.718.122-1.068.073-.332.185-.696.294-1.056.105-.341.21-.679.274-.974.042-.172.066-.347.07-.523 0-.165-.031-.308-.113-.411a.43.43 0 0 0-.235-.148.712.712 0 0 0-.184-.021c-.577 0-1.497.545-2.043 1.249-.302.392-.496.839-.697 1.297l-.017.04c-.108.245-.218.494-.346.743a5.256 5.256 0 0 1-.498.786 4.071 4.071 0 0 1-.298.348c-1.036 1.089-3.002 2.078-4.996 3.079l-.033.014c-.91.347-1.819.694-2.73 1.066-.913.372-1.823.768-2.734 1.21-.92.442-1.817.932-2.687 1.467-.852.528-1.637 1.095-2.288 1.684a9.312 9.312 0 0 0-1.565 1.807 6.611 6.611 0 0 0-.83 1.756 5.333 5.333 0 0 0-.21 1.516v.187c0-.026.011-.052.03-.072a.105.105 0 0 1 .07-.032l.107-.005 32.178-1.604.108-.005h.005a.1.1 0 0 1 .055.016c.016.01.03.025.038.043.09-1.052.154-2.084.154-3.054.005-.503-.013-.989-.054-1.453zm-1.334-4.753c-.028.005-.06.009-.085.015-.011-.027-.02-.056-.03-.082l.115.067zM35.41 154.143a3.849 3.849 0 0 0-1.007-.368 4.698 4.698 0 0 0-.87-.075h-.068a4.8 4.8 0 0 1-.904-.073 2.421 2.421 0 0 1-.505-.16 2.822 2.822 0 0 1-.54-.316c-1.077-.795-2.396-2.757-3.731-4.744v-.004a121.168 121.168 0 0 0-1.634-2.12 39.701 39.701 0 0 0-1.763-2.084 27.252 27.252 0 0 0-1.966-1.966 14.595 14.595 0 0 0-2.053-1.564 8.432 8.432 0 0 0-1.973-.904 6.008 6.008 0 0 0-1.745-.277c-.482.001-.96.074-1.421.216-.103.03-.202.062-.3.098l.058.18a.11.11 0 0 1 .025-.009l9.328 27.616-.04.007.039.113.023.069.034-.007a51.707 51.707 0 0 0 1.755-.368c.947-.22 1.847-.47 2.645-.78a12.656 12.656 0 0 0 2.135-1.078c.126-.079.25-.158.373-.24.502-.327.975-.672 1.447-1.014a.09.09 0 0 0 .037-.053.093.093 0 0 0-.005-.064l-.009-.019a68.831 68.831 0 0 1-1.116-2.635c-.325-.834-.584-1.605-.706-2.253-.235-1.269.05-2.062.349-2.866a8.88 8.88 0 0 1 1.005-.469 5.36 5.36 0 0 1 1.314-.32c.343-.042.728-.059 1.1-.076.339-.015.668-.03.94-.062.146-.014.29-.042.43-.086.124-.041.222-.102.268-.19a.25.25 0 0 0 .029-.121c-.003-.307-.5-.685-.977-.934zm-2.77 9.995-.031.117-.01-.02-.022-.051.062-.046z" fill="#FA9646"/>
        <path d="M81.181 164.774c0 .037-.006.073-.008.11-.05.563-.104 1.131-.159 1.701a.102.102 0 0 1-.032.066.098.098 0 0 1-.069.028l-32.096 1.139a.1.1 0 0 1-.072-.024.1.1 0 0 1-.035-.066c-.053-.42-.106-.843-.118-1.284v-.007c0-.027.01-.052.03-.072a.105.105 0 0 1 .07-.032l.107-.005 32.178-1.604.108-.005h.004a.102.102 0 0 1 .054.014c.016.01.03.024.038.041z" fill="#fff"/>
        <path d="M81.193 164.818a.113.113 0 0 1-.02.065c0-.037.006-.073.009-.11a.092.092 0 0 1 .011.045zM14.088 140.344l.053-.117.027.081-.08.036z" fill="#fff"/>
        <path d="m24.407 167.77-.253.049-.94.179a.09.09 0 0 1-.066-.011.1.1 0 0 1-.043-.051l-9.144-27.65a.092.092 0 0 1 .003-.068.097.097 0 0 1 .05-.049c.234-.1.47-.202.715-.293l.227-.083 9.45 27.977z" fill="#fff"/>
        <path d="M140.8 125.288a.25.25 0 0 1-.147-.048.256.256 0 0 1-.094-.123c-2.355-6.725-1.619-15.007-.587-20.769 1.116-6.235 2.811-10.95 2.828-10.997a.255.255 0 0 1 .328-.152.258.258 0 0 1 .145.133.26.26 0 0 1 .008.195c-.017.046-1.699 4.728-2.808 10.921-1.02 5.701-1.75 13.886.568 20.504a.254.254 0 0 1-.156.325.272.272 0 0 1-.085.011zM143.763 144.857c-1.85 0-3.876-.661-5.995-1.971a22.374 22.374 0 0 1-4.316-3.509.255.255 0 0 1 .201-.424c.067.002.13.031.176.08.069.075 6.954 7.484 12.759 4.682.365-.176.706-.336 1.019-.487 4.243-2.022 4.243-2.022 6.176-8.413.263-.87.561-1.856.91-2.98l2.641-19.481a.256.256 0 0 1 .506.068l-2.644 19.507a.271.271 0 0 1-.009.041c-.353 1.13-.651 2.122-.916 2.997-1.979 6.544-2.039 6.625-6.444 8.726-.316.15-.653.31-1.016.486a6.958 6.958 0 0 1-3.048.678z" fill="#EF6F18"/>
        <path d="M143.884 127.997a.255.255 0 0 1-.219-.124c-1.242-2.062-2.921-2.591-2.939-2.596a.251.251 0 0 1-.168-.165.255.255 0 0 1 .038-.233c.052-.069 1.306-1.674 4.219-.349a.256.256 0 0 1 .142.142.249.249 0 0 1-.004.201.259.259 0 0 1-.25.149.257.257 0 0 1-.099-.028c-1.84-.836-2.888-.379-3.338-.049.619.287 1.848 1.027 2.836 2.665a.25.25 0 0 1-.013.285.25.25 0 0 1-.205.102zM155.433 158.918a.256.256 0 0 1-.251-.212c-.016-.091-1.626-9.166-5.462-13.741-.188-.223-.502-.597-.265-.859.186-.206.396-.439 4.337 2.023 1.861 1.163 3.696 2.396 3.715 2.408a.278.278 0 0 1 .07.071.254.254 0 0 1-.001.283.25.25 0 0 1-.071.07.24.24 0 0 1-.092.038.251.251 0 0 1-.191-.039c-2.856-1.92-6.029-3.89-7.138-4.355l.027.033c3.926 4.68 5.508 13.604 5.574 13.981a.254.254 0 0 1-.044.189.253.253 0 0 1-.164.104.332.332 0 0 1-.044.006z" fill="#EF6F18"/>
        <path d="M77.345 148.44a.26.26 0 0 1-.133-.037.26.26 0 0 1-.122-.237.254.254 0 0 1 .047-.13s.324-.453.9-1.241a.254.254 0 0 1 .165-.088.254.254 0 0 1 .247.389c-.574.785-.897 1.236-.897 1.237a.248.248 0 0 1-.09.078.249.249 0 0 1-.117.029zM141.819 156.872a.257.257 0 0 1-.184-.435.257.257 0 0 1 .18-.076c1.138-.015 2.168-.041 3.062-.075a.25.25 0 0 1 .098.016.256.256 0 0 1 .167.229.25.25 0 0 1-.016.098.246.246 0 0 1-.133.143.246.246 0 0 1-.096.023c-.898.035-1.932.059-3.075.077h-.003zm-3.034-.272a.26.26 0 0 1-.068-.009c-.89-.242-1.86-.64-2.88-1.185a.252.252 0 0 1-.116-.151.254.254 0 0 1 .166-.311.258.258 0 0 1 .191.012c.988.528 1.923.911 2.777 1.143a.253.253 0 0 1 .1.437.252.252 0 0 1-.167.064h-.003zm-5.44-2.781a.255.255 0 0 1-.146-.046 41.208 41.208 0 0 1-2.462-1.868.255.255 0 0 1 .138-.444.255.255 0 0 1 .185.049 41.86 41.86 0 0 0 2.432 1.846.253.253 0 0 1 .004.414.252.252 0 0 1-.151.049zm-4.778-3.859a.258.258 0 0 1-.172-.066 89.44 89.44 0 0 1-2.249-2.107.26.26 0 0 1-.081-.18.246.246 0 0 1 .018-.1.273.273 0 0 1 .054-.085.257.257 0 0 1 .365-.001 90.21 90.21 0 0 0 2.234 2.095.255.255 0 0 1-.172.444h.003zm-4.418-4.272a.257.257 0 0 1-.183-.077 148.6 148.6 0 0 1-2.127-2.224.252.252 0 0 1-.056-.085.247.247 0 0 1 .003-.199.246.246 0 0 1 .059-.083.245.245 0 0 1 .187-.069.258.258 0 0 1 .18.087c.728.777 1.442 1.526 2.12 2.217a.255.255 0 0 1-.183.433zm-44.084-.953a.263.263 0 0 1-.134-.037.26.26 0 0 1-.12-.24.255.255 0 0 1 .05-.13 258.43 258.43 0 0 1 1.852-2.453.268.268 0 0 1 .075-.066.283.283 0 0 1 .094-.032.277.277 0 0 1 .1.006.27.27 0 0 1 .089.044.25.25 0 0 1 .098.168.258.258 0 0 1-.05.189c-.614.805-1.234 1.629-1.849 2.449a.253.253 0 0 1-.205.102zm39.878-3.527a.25.25 0 0 1-.189-.084 239.56 239.56 0 0 1-2.053-2.288.254.254 0 0 1 .029-.352.259.259 0 0 1 .18-.064.26.26 0 0 1 .174.078c.721.813 1.391 1.56 2.048 2.284a.256.256 0 0 1 .044.274.253.253 0 0 1-.233.152zm-36.153-1.356a.257.257 0 0 1-.229-.142.255.255 0 0 1 .028-.268c.64-.822 1.28-1.635 1.902-2.414a.253.253 0 0 1 .172-.1.248.248 0 0 1 .193.053.252.252 0 0 1 .095.175.257.257 0 0 1-.06.19c-.62.777-1.26 1.588-1.899 2.408a.256.256 0 0 1-.202.098zm32.073-3.238a.252.252 0 0 1-.192-.087 690.5 690.5 0 0 1-2.015-2.322.254.254 0 0 1 .214-.414.263.263 0 0 1 .173.081 674.13 674.13 0 0 0 2.013 2.32.255.255 0 0 1-.193.422zm-28.242-1.559a.256.256 0 0 1-.197-.417 185.23 185.23 0 0 1 1.969-2.36.253.253 0 0 1 .353-.022.257.257 0 0 1 .036.351c-.634.748-1.293 1.54-1.963 2.355a.253.253 0 0 1-.198.092v.001zm24.22-3.088a.256.256 0 0 1-.193-.088 619.366 619.366 0 0 0-2.013-2.323.256.256 0 0 1-.063-.184.262.262 0 0 1 .174-.225.255.255 0 0 1 .195.014c.03.015.057.035.079.06.646.743 1.32 1.521 2.014 2.324a.259.259 0 0 1 .06.131.252.252 0 0 1-.115.25.25.25 0 0 1-.138.041zm-20.242-1.589a.254.254 0 0 1-.233-.151.253.253 0 0 1 .041-.273c.72-.811 1.419-1.576 2.076-2.273a.253.253 0 0 1 .278-.063.258.258 0 0 1 .142.135.25.25 0 0 1 .006.195.26.26 0 0 1-.054.085 92.586 92.586 0 0 0-2.065 2.262.255.255 0 0 1-.19.082v.001zm16.19-3.039a.263.263 0 0 1-.19-.084 85.073 85.073 0 0 0-2.083-2.249.259.259 0 0 1-.066-.289.254.254 0 0 1 .252-.157.254.254 0 0 1 .182.094c.61.631 1.293 1.371 2.096 2.262a.256.256 0 0 1 .039.281.25.25 0 0 1-.23.142zm-11.966-1.417c-.051 0-.101-.015-.143-.043a.257.257 0 0 1-.107-.265.256.256 0 0 1 .073-.13 33.99 33.99 0 0 1 2.312-2.056.259.259 0 0 1 .188-.055.257.257 0 0 1 .132.453A34.807 34.807 0 0 0 96 125.851a.25.25 0 0 1-.176.071h-.002zm7.646-2.952a.26.26 0 0 1-.162-.059c-.553-.451-.999-.73-1.321-.828-.301-.092-.705-.042-1.19.147a.256.256 0 0 1-.186-.476c.6-.235 1.111-.286 1.528-.16.393.121.882.422 1.495.922a.251.251 0 0 1 .085.129.256.256 0 0 1-.246.323l-.003.002zM147.839 156.607a.257.257 0 0 1-.252-.242.254.254 0 0 1 .225-.267c.644-.069.966-.138 1.124-.184.034-.009.068-.021.1-.033a.259.259 0 0 1 .303-.143.249.249 0 0 1 .105.059.287.287 0 0 1 .075.301c-.062.187-.23.352-1.652.507l-.028.002zm1.257-.438-.012-.31.012.31zM102.625 132.559a3.298 3.298 0 0 1-.636-.054.254.254 0 0 1-.189-.174.257.257 0 0 1 .057-.249c1.218-1.3.588-3.638.584-3.659a.255.255 0 0 1 .371-.284.254.254 0 0 1 .122.147c.027.099.608 2.25-.406 3.768.627.026 1.792-.109 2.567-1.271a.259.259 0 0 1 .352-.066.257.257 0 0 1 .074.349c-.854 1.279-2.134 1.493-2.896 1.493z" fill="#6363C6"/>
        <path d="M80.636 157.148c-2.095.391-6.078.947-8.843.162-3.908-1.111-2.345-4.214-2.437-4.535-.093-.322 1.15-3.121-.643-2.203-.483.247-.76.281-.906.198.006-.014.011-.027.018-.04.2-.458.394-.905.697-1.297.545-.704 1.465-1.249 2.042-1.249a.712.712 0 0 1 .184.021.43.43 0 0 1 .235.148c.082.103.114.246.114.411a2.495 2.495 0 0 1-.07.523c-.066.293-.17.633-.275.974-.11.359-.222.724-.294 1.056-.08.35-.12.709-.121 1.068 0 .528.09.989.184 1.453.924.73 1.836 1.44 3.079 1.771.186.049.374.088.563.118.407.061.817.09 1.228.087 1.351 0 2.93-.253 4.525-.508a.105.105 0 0 1 .07.013c.02.013.036.032.045.055.203.583.413 1.167.605 1.774zM59.38 160.236a.259.259 0 0 1-.227-.138c-1.352-2.605-.375-3.734-.333-3.781a.256.256 0 0 1 .381.339c-.017.021-.763.962.405 3.208a.252.252 0 0 1-.1.339.25.25 0 0 1-.126.033zM61.883 159.333a.242.242 0 0 1-.123-.031.25.25 0 0 1-.093-.086c-1.548-2.447-.726-3.579-.69-3.628a.255.255 0 0 1 .359-.053.253.253 0 0 1 .053.357c-.016.024-.614.954.712 3.051a.252.252 0 0 1 .034.193.267.267 0 0 1-.04.091.251.251 0 0 1-.211.106zM64.634 158.49a.255.255 0 0 1-.173-.067c-2.007-1.828-1.348-3.59-1.32-3.664a.255.255 0 0 1 .327-.134.255.255 0 0 1 .15.319c-.025.065-.546 1.523 1.188 3.102a.257.257 0 0 1 .066.281.254.254 0 0 1-.238.163zM21.905 146.206a.252.252 0 0 1-.253-.219.255.255 0 0 1 .006-.1c.537-2.078 2.726-1.945 2.748-1.943a.253.253 0 0 1 .237.272.255.255 0 0 1-.274.237c-.074-.006-1.787-.101-2.217 1.562a.256.256 0 0 1-.247.191zM23.146 148.438a.257.257 0 0 1-.214-.115.254.254 0 0 1-.021-.242c.933-2.126 3.224-2.053 3.247-2.053a.25.25 0 0 1 .178.082.252.252 0 0 1-.015.36.254.254 0 0 1-.184.067c-.08 0-1.968-.052-2.758 1.749a.257.257 0 0 1-.233.152zM24.648 150.246a.244.244 0 0 1-.076-.012.246.246 0 0 1-.15-.124.257.257 0 0 1-.018-.195c.583-1.864 3.096-1.981 3.203-1.985a.256.256 0 0 1 .197.428.259.259 0 0 1-.177.081c-.023 0-2.26.109-2.735 1.628a.256.256 0 0 1-.244.179zM36.385 155.079c0 .042-.01.084-.03.121-.045.088-.143.148-.267.19-.14.043-.284.072-.43.085-.27.032-.6.047-.94.063-.372.017-.757.033-1.1.075-.45.052-.89.159-1.314.32a9.24 9.24 0 0 0-1.005.469c-.299.805-.588 1.598-.349 2.866.12.646.378 1.419.706 2.253.327.835.72 1.733 1.116 2.635l.01.02a.093.093 0 0 1-.033.117c-.47.342-.945.686-1.447 1.014-.779-1.743-1.46-5.936-1.674-7.483-.245-1.774 2.452-3.427 3.617-3.427.578 0 .507-.347.287-.696.292-.002.583.023.87.075.351.076.69.2 1.007.369.478.247.976.625.976.934z" fill="#fff"/>
        <path d="M91.22 107.686a8.688 8.688 0 0 0 1.633.352c.272.031.546.041.819.031.263-.012.523-.056.775-.132h.005a.209.209 0 0 1 .086-.009c.029.002.057.01.083.024a.217.217 0 0 1 .12.215.222.222 0 0 1-.183.199c-.609.107-1.19.023-1.744-.108a8.227 8.227 0 0 1-.813-.248 9.015 9.015 0 0 1-.781-.324zM94.022 110.099c.349.003.697-.031 1.04-.101.167-.034.331-.079.493-.135.156-.054.308-.12.454-.198h.006a.21.21 0 0 1 .084-.027c.03-.003.06 0 .088.008a.23.23 0 0 1 .134.11.229.229 0 0 1 .014.173.231.231 0 0 1-.044.077.227.227 0 0 1-.07.053.223.223 0 0 1-.044.017 3.54 3.54 0 0 1-.548.113c-.181.022-.364.033-.546.031a4.988 4.988 0 0 1-1.061-.121zM95.98 111.69c.112.05.23.082.353.095.117.014.235.016.352.007.116-.01.231-.03.344-.058a2.91 2.91 0 0 0 .329-.106.225.225 0 0 1 .288.129.223.223 0 0 1-.194.302c-.132.01-.265.011-.397.005a2.427 2.427 0 0 1-.39-.053 1.974 1.974 0 0 1-.367-.121 1.248 1.248 0 0 1-.318-.2zM95.058 104.786l4.181-.176a.17.17 0 0 1 .074.011.2.2 0 0 1 .108.099.196.196 0 0 1 .006.147.189.189 0 0 1-.1.107.184.184 0 0 1-.072.018h-.016l-4.181-.176-.006-.001a.012.012 0 0 1-.005-.004.011.011 0 0 1-.003-.005.016.016 0 0 1-.001-.006c0-.004.001-.007.004-.01a.013.013 0 0 1 .01-.004z" fill="#E7785D"/>
        <path d="M97.912 104.914a.222.222 0 0 1-.22-.246.218.218 0 0 1 .048-.113l.655-.809a.221.221 0 0 1 .38.12.22.22 0 0 1-.037.157l-.655.808a.213.213 0 0 1-.076.061.209.209 0 0 1-.095.022z" fill="#E7785D"/>
        <path d="m114.757 111.737-4.014 6.94c-.286-.266-.566-.528-.837-.774-.588-.542-1.151-1.042-1.71-1.46-.028-.021-.059-.043-.085-.064l-.02-.014.101-.184 3.198-5.9.1-.183.11.064a27.38 27.38 0 0 0 1.043.562c.291.148.607.303.946.464.365.175.756.357 1.168.549z" fill="#EF6F18"/>
        <path d="M157.335 72.269a.73.73 0 1 0-.273-1.437.732.732 0 1 0 .273 1.437z" fill="#CEE2FD"/>
        <path fill-rule="evenodd" clip-rule="evenodd" d="M188.469 112.454c4.996 0 9.055-4.07 9.055-9.057s-4.059-9.055-9.055-9.055c-4.995 0-9.072 4.069-9.072 9.055 0 4.987 4.077 9.057 9.072 9.057z" fill="#FFDA62"/>
        <path fill-rule="evenodd" clip-rule="evenodd" d="M188.469 110.999c4.18 0 7.598-3.411 7.598-7.601 0-4.19-3.418-7.601-7.598-7.601-4.198 0-7.615 3.41-7.615 7.601 0 4.19 3.417 7.601 7.615 7.601z" fill="#F7931E"/>
        <path d="M188.087 108.039a6.817 6.817 0 0 1-.988-.087 5.336 5.336 0 0 1-.972-.242 2.766 2.766 0 0 1-.746-.399c-.19-.156-.293-.346-.293-.571a.593.593 0 0 1 .069-.294.67.67 0 0 1 .173-.276.89.89 0 0 1 .329-.208 1.17 1.17 0 0 1 .452-.087c.152-.001.303.017.451.052.138.052.277.087.433.139.157.051.33.104.503.156.191.057.389.086.588.086v-2.027c-.347-.104-.693-.225-1.058-.346a3.287 3.287 0 0 1-.953-.485 2.136 2.136 0 0 1-.694-.727c-.191-.294-.278-.676-.278-1.126 0-.779.261-1.402.799-1.835.537-.45 1.266-.693 2.185-.745v-.675a.313.313 0 0 1 .121-.26.353.353 0 0 1 .261-.103c.102 0 .2.037.277.103a.357.357 0 0 1 .104.26v.675c.261.018.52.052.815.087.283.046.562.116.833.208.236.089.458.211.659.363a.736.736 0 0 1 .26.572c0 .242-.104.433-.294.606-.199.164-.452.25-.711.242a1.154 1.154 0 0 1-.364-.052l-.312-.104a5.724 5.724 0 0 0-.365-.104 3.244 3.244 0 0 0-.52-.087v1.905c.382.122.746.243 1.111.364.338.111.659.269.953.47.271.176.497.413.66.692.176.293.26.641.26 1.091.007.375-.07.748-.225 1.091a2.939 2.939 0 0 1-.625.831 3.212 3.212 0 0 1-.954.554 4.192 4.192 0 0 1-1.18.26v.71a.332.332 0 0 1-.104.243.426.426 0 0 1-.418.079.354.354 0 0 1-.119-.079.3.3 0 0 1-.122-.243l-.001-.677zm1.646-2.65c0-.259-.069-.433-.191-.537a1.554 1.554 0 0 0-.399-.225l-.293-.121v1.766c.277-.051.503-.155.658-.311a.772.772 0 0 0 .226-.572h-.001zm-1.646-2.995v-1.628a1.498 1.498 0 0 0-.641.225c-.174.104-.26.294-.26.537 0 .244.069.399.208.502.119.102.254.184.399.243l.294.121z" fill="#E2A425"/>
        <path d="M188.087 107.621a6.678 6.678 0 0 1-.988-.086 4.22 4.22 0 0 1-.972-.242 2.766 2.766 0 0 1-.746-.399c-.19-.156-.293-.346-.293-.571a.586.586 0 0 1 .069-.293.674.674 0 0 1 .173-.277.89.89 0 0 1 .329-.208 1.17 1.17 0 0 1 .452-.087c.153-.003.306.02.451.069.138.035.277.087.433.122.157.052.33.104.503.155.191.058.389.088.588.087v-2.026c-.347-.103-.693-.225-1.058-.346a3.312 3.312 0 0 1-.953-.485 2.136 2.136 0 0 1-.694-.727c-.191-.293-.278-.675-.278-1.126 0-.779.261-1.385.799-1.835.537-.45 1.266-.692 2.185-.745v-.675a.314.314 0 0 1 .121-.26.431.431 0 0 1 .261-.086.529.529 0 0 1 .277.086.358.358 0 0 1 .104.26v.675c.261.018.52.053.815.087.283.047.562.116.833.208.236.089.458.211.659.364a.736.736 0 0 1 .26.57c0 .243-.104.434-.294.607-.199.164-.452.25-.711.243a1.155 1.155 0 0 1-.364-.053l-.312-.103a4.654 4.654 0 0 0-.365-.104 3.244 3.244 0 0 0-.52-.087v1.905c.382.121.746.242 1.111.364.338.11.659.268.953.469.275.179.502.423.66.71.176.277.26.624.26 1.074a2.467 2.467 0 0 1-.85 1.922 3.246 3.246 0 0 1-.954.554c-.38.141-.777.234-1.18.277v.692a.34.34 0 0 1-.104.243.421.421 0 0 1-.418.079.354.354 0 0 1-.119-.079.3.3 0 0 1-.122-.243l-.001-.679zm1.646-2.649c0-.242-.069-.433-.191-.536a1.528 1.528 0 0 0-.399-.226l-.293-.121v1.766c.277-.052.503-.156.658-.311.157-.139.226-.347.226-.572h-.001zm-1.646-2.995v-1.628a1.486 1.486 0 0 0-.641.226c-.174.12-.26.293-.26.536 0 .243.069.416.208.52.123.09.257.166.399.225l.294.121z" fill="#FFDA62"/>
        <path fill-rule="evenodd" clip-rule="evenodd" d="M188.469 96.23a7.185 7.185 0 0 1 5.036 2.122 7.161 7.161 0 0 1 0 10.093 7.186 7.186 0 0 1-5.036 2.122c-3.972 0-7.198-3.203-7.198-7.169 0-3.965 3.226-7.168 7.198-7.168zm7.597 7.168c0-4.19-3.4-7.601-7.598-7.601a7.627 7.627 0 0 0-5.384 2.226 7.583 7.583 0 0 0-1.651 8.284 7.612 7.612 0 0 0 7.035 4.692c4.198 0 7.598-3.411 7.598-7.601z" fill="#FCB514"/>
        <path d="M166.41 131.596c0 .141.032.294-.009.42-.055.17-.137.416-.266.46-.187.064-.51.059-.629-.058-.777-.781-1.497-1.563-1.698-2.758a6.182 6.182 0 0 1 .099-2.544c.297-1.208 1.083-2.107 2.148-2.735.47-.277.788-.558.941-1.152.43-1.659.99-3.294 1.908-4.757a18.92 18.92 0 0 1 3.18-3.834c1.637-1.516 3.512-2.671 5.412-3.793.534-.315 1.169-.457 1.758-.678.017-.006.039 0 .051-.011 1.124-.778 1.948-.357 2.75.579.74.864 1.774 1.371 2.793 1.838 1.375.629 2.846.715 4.338.633 2.64-.143 4.706-1.398 6.429-3.3.432-.477.846-.581 1.445-.326.564.239 1.098.249 1.646-.253 1.775-1.63 3.918-1.968 6.201-1.473.565.123 1.085.516 1.587.845.3.199.244.466-.013.755-.476.535-.99 1.072-1.308 1.701a6.023 6.023 0 0 0-.615 2.105c-.071.741.492 1.291.994 1.78 1.087 1.056 2.047 2.209 2.777 3.538.196.356.484.437.829.444.635.013 1.275.062 1.904 0 1.144-.114 2.112 1.121 2.119 2.002.019 2.219.037 4.439-.004 6.657-.022 1.158-.892 1.939-2.04 1.974-1.074.034-1.085.107-1.437 1.139-.286.837-.693 1.643-1.109 2.426-.767 1.451-1.779 2.73-2.926 3.903-.194.199-.228.374-.067.645.668 1.134 1.361 2.3 1.469 3.617.066.777-.166 1.643-.489 2.372-.457 1.028-1.375 1.651-2.432 2.058-.83.321-1.629.717-2.46 1.033-.955.363-1.842-.008-2.683-.401-1.208-.565-1.777-1.694-2.288-2.834-.397-.88-.985-1.088-2.062-.679-.31.117-.636.229-.962.26-1.891.18-3.785.456-5.678.459-1.609 0-3.22-.309-4.826-.512-.43-.055-.841-.25-1.27-.328-.662-.117-.85.068-1.042.718-.319 1.075-.691 2.108-1.64 2.861-1.389 1.104-2.887 1.04-4.443.57-.617-.186-1.196-.494-1.808-.704-1.119-.385-1.818-1.148-2.288-2.223-.34-.777-.492-1.547-.313-2.357.139-.628.363-1.24.57-1.852.224-.662.5-1.307.69-1.978.059-.216-.009-.543-.145-.727-.405-.549-.92-1.02-1.306-1.584-.67-.976-1.339-1.965-1.89-3.01-.435-.827-.685-1.752-1.04-2.623-.054-.133-.235-.214-.358-.32-.089.118-.235.218-.26.345-.117.547-.206 1.102-.305 1.654l.071.013zm9.839-4.645v3.803c0 .391.126.649.574.646.588-.005.785-.151.792-.657.01-.846-.006-1.691.011-2.536.014-.691.205-.887.888-.9a71.747 71.747 0 0 1 2.541 0c.614.009.789.176.804.792.019.862.005 1.725.013 2.588.004.56.148.692.734.705.508.011.733-.203.74-.729.008-.616 0-1.232 0-1.849 0-1.849.004-3.696 0-5.546 0-.56-.223-.803-.685-.801-.613 0-.785.169-.789.775-.006.757-.008 1.514-.007 2.271 0 .42-.194.695-.618.704a72.23 72.23 0 0 1-2.907-.01c-.488-.011-.724-.289-.719-.787.009-.775-.006-1.55 0-2.325 0-.303-.097-.491-.417-.571-.626-.157-.945.067-.95.729-.012 1.231-.005 2.464-.005 3.697v.001zm25.239 4.235c-.127-.366-.235-.696-.356-1.021a92.544 92.544 0 0 0-.623-1.613 929.776 929.776 0 0 0-1.352-3.41c-.311-.776-.622-1.552-.953-2.32a.47.47 0 0 0-.317-.24c-.397-.054-.805-.112-1.199-.072-.209.021-.501.198-.579.38-.402.943-.746 1.911-1.112 2.87-.218.571-.435 1.143-.656 1.714-.416 1.073-.842 2.143-1.248 3.221-.091.242-.187.613.176.645.342.029.787-.058 1.032-.275.244-.216.352-.64.443-.993.134-.534.444-.768.978-.763.829.005 1.657-.003 2.486 0 1.002 0 1.058.047 1.344 1.027.286.98 1.032 1.312 1.936.85zm-12.031-7.803v.026c.282 0 .569.032.844-.012.163-.026.407-.148.434-.267.035-.155-.063-.454-.186-.509a4.796 4.796 0 0 0-1.139-.323 3.68 3.68 0 0 0-2.593.507c-.925.576-1.234 1.543-1.005 2.575.108.491.418 1.056.814 1.338.657.473 1.458.744 2.195 1.107.853.42 1.212 1.049.875 1.815-.23.524-.705.904-1.315.911a9.384 9.384 0 0 1-1.779-.155c-.373-.067-.575.088-.636.369-.032.15.124.443.27.514 1.361.655 2.762.492 4.015-.176 1.566-.835 1.604-3.266-.032-4.118a28.711 28.711 0 0 0-1.9-.88c-.801-.343-1.108-.898-.94-1.769.115-.603.583-.926 1.393-.955.226-.003.455.002.685.002z" fill="#1280B5"/>
        <path d="M197.128 128.253c-.105 0-.211.005-.316 0-1.067-.059-1.293-.365-.95-1.359.25-.74.537-1.468.861-2.179.24-.511.581-.507.807.007.361.825.705 1.664.965 2.523.209.691.033.876-.684.971-.225.029-.455.035-.681.053l-.002-.016z" fill="#1280B5"/>
        <path d="M220.895 11.97h-65.939a3.01 3.01 0 0 0-3.012 3.007v54.895a3.01 3.01 0 0 0 3.012 3.006h65.939a3.01 3.01 0 0 0 3.012-3.006V14.977a3.01 3.01 0 0 0-3.012-3.006z" fill="#fff"/>
        <path d="M166.464 42.268h-6.511V60.27h6.511V42.268z" fill="#F7931E"/>
        <path d="M176.215 39.52h-6.511v23.332h6.511V39.52z" fill="#F15A24"/>
        <path d="M185.964 32.307h-6.51v30.546h6.51V32.307z" fill="#F7931E"/>
        <path d="M195.714 37.766h-6.511v25.087h6.511V37.766zM215.214 27.432h-6.511v35.421h6.511V27.432z" fill="#F15A24"/>
        <path d="M205.464 42.445h-6.511v20.408h6.511V42.445z" fill="#F7931E"/>
        <path fill-rule="evenodd" clip-rule="evenodd" d="M148.362 75.592a1.719 1.719 0 0 1-.141.136c.066-.055.128-.114.187-.176a.329.329 0 0 1-.046.04zm-.418.356a.108.108 0 0 1-.03.026.375.375 0 0 0 .07-.05l-.04.024zm-.36.247a3.088 3.088 0 0 1 .01-.004l-.013.004h.003zm-.735.352a.05.05 0 0 1-.021.011c.126-.043.249-.095.368-.154a3.694 3.694 0 0 1-.347.143zm-.421.139a.247.247 0 0 0 .051-.016.066.066 0 0 1-.023.006l-.028.01zm.551 2.547c.033-.009.065-.02.097-.028-.193-.598-.621-1.893-.826-2.476a1.42 1.42 0 0 0 .117-.028c-.082.019-.158.038-.244.05.004.008.624 1.81.627 1.818l.229.664zm-25.742-13.77c0 .287.015.577.044.88-.004-.293-.031-.587-.044-.88zm.183 1.945.009.053c-.004-.033-.007-.068-.013-.105 0-.004 0-.01-.004-.02 0 .024.003.048.008.072zm.512 2.855c.059.325.114.645.16.956-.117-.917-.309-1.816-.485-2.705.093.58.224 1.173.325 1.749zm-.356-1.904.024.125a2.258 2.258 0 0 1-.024-.132v.007zm.569 3.237zm.302 3.994c-.017.276-.054.551-.111.822.293-.925.058-1.914-.076-3.814.102 1 .164 1.997.187 2.992z" fill="#672348"/>
        <path fill-rule="evenodd" clip-rule="evenodd" d="M136.533 42.328c-.258.305-.498.624-.722.954 2.593-6.175 10.601-7.157 15.392-2.874-4.551-3.286-11.044-2.514-14.67 1.92zm15.761 14.96c-.109.06-.217.118-.328.17a9.527 9.527 0 0 0 1.822-1.965 10.682 10.682 0 0 0 1.631-3.52c.59-2.296.416-4.722-.496-6.91 2.196 3.98 1.792 9.966-2.629 12.228v-.002zm-42.041 4.909c-.247.42.109.775.33.361 2.091-3.285 5.756-5.157 9.559-5.15-6.377.586-8.781 8.93-5.525 13.798 1.494 2.56 4.341 6.213 7.717 5.203.834-4.975 18.862 3.653 17.962 3.851.207.587 6.586-1.659 6.781-1.056 4.146-1.221 6.736-5.295 7.28-9.454.566-3.966-.529-8.239-2.998-11.409a8.432 8.432 0 0 0 3.006-2.037v-.003c9.846-12.902-13.96-29.1-19.575-11.42-.369 1.317-.484 2.629-.588 3.993a.019.019 0 0 0-.002.008l.002.007c-.037.38-.059.776-.074 1.166.008.724-.036 1.51.332 1.626-1.599.008-2.787-1.364-2.451-2.945.005-.137-.055-.32-.235-.247-1.008 1.448.251 3.806 2.042 3.92-2.222.462-4.507 1.006-6.56 1.877 0 .005 0 .005-.007 0-1.564.67-3.028 1.551-4.247 2.742-4.693-1.44-10.1.98-12.749 5.171v-.002z" fill="#561D3E"/>
        <path fill-rule="evenodd" clip-rule="evenodd" d="M149.106 74.518c-.02.031-.043.065-.064.104a.71.71 0 0 0 .064-.104zM148.434 75.361c-.049.048-.11.095-.16.143.054-.045.111-.093.16-.143zm-.224.202c-.046.03-.092.07-.135.105a1.41 1.41 0 0 0 .135-.105zm-.367.274c-.027.016-.053.038-.08.053a.335.335 0 0 0 .08-.053zm-.187.128.045-.031a6.588 6.588 0 0 1-.212.127c.056-.031.112-.062.167-.096zm-.388.208c-.059.027-.118.052-.176.077a.01.01 0 0 1-.004.004l-.005.002c.062-.026.123-.052.183-.083h.002zm-1.796.424h-.013c-.005.016-.014.03-.019.046l.032-.048v.002zm-5.534 7.673c.187-.188.372-.379.557-.57h.003l-.028-.088a.255.255 0 0 0-.037.035l-.495.623z" fill="#EDB39D"/>
        <path fill-rule="evenodd" clip-rule="evenodd" d="m140.494 83.701-.557.57c.038-.037.484-.634.532-.66l.028.089h-.003v.001zm4.946-7.056c.005-.016.014-.03.019-.046h.013l-.032.046zm1.828-.47a1.566 1.566 0 0 1-.182.084c.003 0 .006 0 .008-.007.059-.024.118-.049.176-.076h-.002zm.388-.207c-.055.034-.111.064-.167.095.07-.04.143-.084.212-.126-.014.008-.03.022-.045.03zm.187-.128a.34.34 0 0 1-.08.053c.027-.016.053-.037.08-.053zm.367-.275a1.348 1.348 0 0 1-.135.106c.043-.035.089-.074.135-.106zm.224-.2c-.051.05-.105.097-.16.142.051-.048.111-.094.16-.143zm.64-.792a.39.39 0 0 1-.035.052c.021-.04.045-.073.065-.105a.532.532 0 0 1-.03.053zm-27.41 4.477c.265.893 1.458 1.457 2.188.724 1.08 3.794 4.244 7.42 7.98 8.854 3.664.953 5.16-1.318 7.459-3.553.449 1.578 1.881 4.261 2.469 5.867l8.757-3.872c-1.166-3.53-3.076-6.822-4.269-10.341a4.356 4.356 0 0 0 2.358-1.38l.004-.005c.077-.086.15-.176.217-.27.013-.011.014-.025.026-.034.264-.362.469-.762.609-1.186.005-.005.006-.013.008-.017v-.015c.014-.037.027-.074.037-.112v-.007l.008-.017v-.008c.003-.014.014-.033.011-.046-.004-.014 0-.005 0-.008l.001-.002-.001-.002c.026-.08.047-.16.064-.243.035-.161.059-.325.073-.49a1.903 1.903 0 0 0 .018-.289 4.33 4.33 0 0 0-.521-2.2c-2.351-3.707-7.095-2.23-7.282 1.617.125.113.243.234.353.36 3.288 3.435-3.044 6.19-1.674 4.425 2.014-.513 2.977-2.338 1.303-3.926-.642-.845-1.716-1.219-2.699-1.29a27.192 27.192 0 0 1-3.837-1.416 40.868 40.868 0 0 1-7.317-4.249c-2.057-1.494-3.722-3.061-4.687-4.37.73 1.81 2.355 3.07 3.548 4.557.136 2.06-4.521-4.22-4.165-4.981-1.134 1.437-1.851 4.263-1.293 6.234.409 2.617 1.381 6.806.919 9.056-.058.906-.784 1.734-.669 2.635h.004z" fill="#EDB39D"/>
        <path fill-rule="evenodd" clip-rule="evenodd" d="M145.44 76.643c.005-.015.014-.03.019-.045h.014l-.033.047" fill="#EDB39D"/>
        <path fill-rule="evenodd" clip-rule="evenodd" d="M145.44 76.643c.005-.015.014-.03.019-.045h.014l-.033.047M149.039 74.622c.021-.04.045-.073.065-.104a.717.717 0 0 1-.065.104M148.274 75.504c.051-.048.111-.094.16-.143-.049.05-.106.098-.16.143zM148.075 75.668c.043-.035.089-.074.135-.106a1.41 1.41 0 0 1-.135.106M147.763 75.891c.027-.016.053-.037.08-.053a.34.34 0 0 1-.08.053M147.086 76.255a.03.03 0 0 0 .005-.002.027.027 0 0 0 .003-.004c.059-.025.117-.05.176-.077a1.508 1.508 0 0 1-.182.083M139.938 84.27c.038-.036.485-.633.532-.659l.028.089h-.003c-.185.19-.37.381-.557.569" fill="#EDB39D"/>
        <path fill-rule="evenodd" clip-rule="evenodd" d="M140.525 87.594c-.235 0-1.121-2.17-1.234-2.523l6.827-8.587s-4.408 10.333-5.593 11.345" fill="#E5A38C"/>
        <path fill-rule="evenodd" clip-rule="evenodd" d="M124.395 79.27c-.777.576.032-.256.163-.458.323-.13-.059.383-.163.459zM143.631 72.098c-1.51-3.074 5.579-3.898 3.628 1.074l-.024-.009c1.374-4.5-4.536-3.973-3.552-1.194.737-.86 2.201.04 1.165.88l-.014-.02c.986-.898-.554-1.599-1.156-.677l-.047-.053" fill="#672348"/>
        <path fill-rule="evenodd" clip-rule="evenodd" d="M124.314 68.488c-2.04-.097 1.744-2.9 3.805.118-.971-.737-2.762-.793-3.805-.118zM128.557 84.885a3.005 3.005 0 0 1-1.741.091.169.169 0 0 1-.103-.076.166.166 0 0 1-.021-.126.147.147 0 0 1 .026-.06.167.167 0 0 1 .173-.064 2.697 2.697 0 0 0 2.835-1.06c.207-.291.353-.622.43-.971a.18.18 0 0 1 .026-.06.175.175 0 0 1 .047-.044.163.163 0 0 1 .126-.02c.043.011.08.038.104.076.023.038.03.084.021.127a3.03 3.03 0 0 1-1.923 2.187M126.2 72.417c-.223-.695-.032-1.378.426-1.525.459-.148 1.011.298 1.235.993.224.696.031 1.377-.427 1.526-.458.148-1.01-.299-1.234-.994z" fill="#561D3E"/>
        <path fill-rule="evenodd" clip-rule="evenodd" d="M129.553 72.063a.168.168 0 0 1-.191-.058 2.542 2.542 0 0 0-3.553-.536.168.168 0 0 1-.233-.035.165.165 0 0 1-.03-.124.165.165 0 0 1 .065-.109 2.882 2.882 0 0 1 4.019.607.159.159 0 0 1 .027.058.157.157 0 0 1-.018.125.172.172 0 0 1-.086.071" fill="#561D3E"/>
        <path d="M141.193 89.576s-4.899 4.59.567 1.363l9.697-4.4s-.264-.415-1.719-.294l-8.545 3.33z" fill="#EDB39D"/>
        <path d="M164.505 82.218a4.958 4.958 0 0 1-.775-.073 3.092 3.092 0 0 1-.764-.203 2.108 2.108 0 0 1-.584-.335.62.62 0 0 1-.231-.48.541.541 0 0 1 .054-.248.584.584 0 0 1 .136-.235.698.698 0 0 1 .258-.176.862.862 0 0 1 .352-.072.957.957 0 0 1 .353.058c.109.03.218.073.34.102.123.044.258.088.394.131.149.049.305.073.462.073v-1.701c-.271-.088-.543-.19-.829-.294a2.523 2.523 0 0 1-.747-.41 1.759 1.759 0 0 1-.544-.612c-.149-.247-.218-.568-.218-.946 0-.655.205-1.165.626-1.543.422-.379.992-.582 1.712-.626v-.567a.275.275 0 0 1 .022-.12.281.281 0 0 1 .073-.099.324.324 0 0 1 .204-.073.397.397 0 0 1 .218.073c.054.06.083.138.081.219v.567c.204.015.408.044.639.073.222.04.441.099.653.176.186.076.36.179.516.306a.65.65 0 0 1 .204.48.69.69 0 0 1-.231.51.802.802 0 0 1-.557.203.841.841 0 0 1-.286-.044l-.245-.087a3.375 3.375 0 0 0-.285-.087 2.311 2.311 0 0 0-.408-.073v1.601c.299.102.585.204.87.306.267.093.519.226.747.392.219.154.396.36.517.597.136.235.204.524.204.903.006.315-.054.627-.176.917a2.115 2.115 0 0 1-.49.699c-.22.198-.473.356-.748.466a3.615 3.615 0 0 1-.924.234v.584a.298.298 0 0 1-.081.204.322.322 0 0 1-.218.087.268.268 0 0 1-.204-.087.255.255 0 0 1-.09-.204v-.566zm1.293-2.23c0-.203-.054-.363-.15-.45a1.188 1.188 0 0 0-.312-.19l-.232-.102v1.485a.944.944 0 0 0 .517-.262c.123-.117.176-.293.176-.48h.001zm-1.293-2.518v-1.368a1.113 1.113 0 0 0-.503.19c-.136.102-.204.247-.204.45 0 .204.054.353.163.437.096.076.201.14.313.19l.231.101z" fill="#145A7B"/>
        <path d="m168.356 85.662 2.459-3.748-2.228-3.433h1.698l1.442 2.307 1.414-2.307h1.683l-2.238 3.487 2.459 3.697h-1.752l-1.595-2.484-1.6 2.484-1.742-.003zM175.747 84.285h1.379v.985c0 .398-.035.713-.103.943-.074.237-.208.45-.39.62-.21.193-.458.34-.729.43l-.27-.568c.278-.091.476-.217.594-.377s.18-.379.186-.656h-.667v-1.377zM177.852 85.662l2.459-3.748-2.23-3.433h1.698l1.443 2.307 1.411-2.307h1.683l-2.238 3.487 2.459 3.697h-1.752l-1.589-2.487-1.6 2.484h-1.744zM184.555 85.662l2.459-3.748-2.228-3.433h1.7l1.442 2.307 1.411-2.307h1.683l-2.238 3.487 2.459 3.697h-1.752l-1.595-2.487-1.599 2.484h-1.742zM191.259 85.662l2.458-3.748-2.228-3.433h1.697l1.443 2.307 1.41-2.307h1.683l-2.237 3.487 2.458 3.697h-1.748l-1.594-2.484-1.6 2.484-1.742-.003zM198.683 85.662v-1.377h1.379v1.377h-1.379zM200.754 85.662l2.458-3.748-2.227-3.433h1.698l1.442 2.307 1.411-2.307h1.683l-2.238 3.487 2.459 3.697h-1.752l-1.595-2.484-1.6 2.484-1.739-.003zM207.458 85.662l2.458-3.748-2.228-3.433h1.698l1.443 2.307 1.41-2.307h1.684l-2.239 3.487 2.459 3.697h-1.752l-1.595-2.484-1.599 2.484-1.739-.003z" fill="#000"/>
    </g>
    <defs>
        <linearGradient id="7xzhqlsshb" x1="165.739" y1="75.187" x2="295" y2="76.501" gradientUnits="userSpaceOnUse">
            <stop offset=".021" stop-color="#B8E4F7"/>
            <stop offset=".1" stop-color="#F0F9FD"/>
            <stop offset=".1" stop-color="#BBE5F7"/>
            <stop offset=".339" stop-color="#C6E9F9"/>
            <stop offset=".474" stop-color="#D7F0FB"/>
            <stop offset=".734" stop-color="#EAF7FD"/>
            <stop offset=".875" stop-color="#fff"/>
        </linearGradient>
        <linearGradient id="gpq8dddjvc" x1="9" y1="47.5" x2="233" y2="47.5" gradientUnits="userSpaceOnUse">
            <stop stop-color="#fff"/>
            <stop offset=".1" stop-color="#F0F9FD"/>
            <stop offset=".3" stop-color="#D7F0FB"/>
            <stop offset=".51" stop-color="#C6E9F9"/>
            <stop offset=".73" stop-color="#BBE5F7"/>
            <stop offset="1" stop-color="#B8E4F7"/>
        </linearGradient>
        <linearGradient id="6bd80xqeqd" x1="9.341" y1="104.771" x2="232.603" y2="104.771" gradientUnits="userSpaceOnUse">
            <stop stop-color="#fff"/>
            <stop offset=".1" stop-color="#F0F9FD"/>
            <stop offset=".3" stop-color="#D7F0FB"/>
            <stop offset=".51" stop-color="#C6E9F9"/>
            <stop offset=".73" stop-color="#BBE5F7"/>
            <stop offset="1" stop-color="#B8E4F7"/>
        </linearGradient>
        <linearGradient id="34clvutmhe" x1="218.847" y1="77.329" x2="233.034" y2="77.329" gradientUnits="userSpaceOnUse">
            <stop stop-color="#fff"/>
            <stop offset=".1" stop-color="#F0F9FD"/>
            <stop offset=".3" stop-color="#D7F0FB"/>
            <stop offset=".51" stop-color="#C6E9F9"/>
            <stop offset=".73" stop-color="#BBE5F7"/>
            <stop offset="1" stop-color="#B8E4F7"/>
        </linearGradient>
        <linearGradient id="xakdqu3y0f" x1="187.972" y1="8.745" x2="188.124" y2="154.21" gradientUnits="userSpaceOnUse">
            <stop stop-color="#fff"/>
            <stop offset=".1" stop-color="#F0F9FD"/>
            <stop offset=".3" stop-color="#D7F0FB"/>
            <stop offset=".51" stop-color="#C6E9F9"/>
            <stop offset=".73" stop-color="#BBE5F7"/>
            <stop offset="1" stop-color="#B8E4F7"/>
        </linearGradient>
        <clipPath id="9zjpwi8p0a">
            <path fill="#fff" d="M0 0h272v168H0z"/>
        </clipPath>
    </defs>
</svg>
